<?xml version="1.0" encoding="utf-8"?>
<!-- Generator: Adobe Illustrator 21.1.0, SVG Export Plug-In . SVG Version: 6.00 Build 0)  -->
<svg version="1.1" id="Layer_1" xmlns="http://www.w3.org/2000/svg" xmlns:xlink="http://www.w3.org/1999/xlink" x="0px" y="0px"
	 viewBox="0 0 269 176" style="enable-background:new 0 0 269 176;" xml:space="preserve">
<style type="text/css">
	.st0{fill:#B6E8FB;}
	.st1{enable-background:new    ;}
	.st2{clip-path:url(#SVGID_2_);}
	.st3{clip-path:url(#SVGID_4_);}
	.st4{fill:#00A7E1;}
	.st5{clip-path:url(#SVGID_6_);}
	.st6{fill:#003058;}
	.st7{fill:#D8D8D8;}
	.st8{fill:#FFB300;}
	.st9{fill:#E9E9E9;}
	.st10{fill:#666666;}
</style>
<rect x="201.1548" y="84.4456" transform="matrix(0.4944 -0.8692 0.8692 0.4944 15.1575 226.3404)" class="st0" width="2.0001" height="31.3886"/>
<g>
	<g>
		<g>
			<g>
				<g class="st1">
					<defs>
						<polygon id="SVGID_1_" class="st1" points="65.6555,146.3097 72.4521,142.3594 78.9572,146.114 72.1589,150.0643 						"/>
					</defs>
					<use xlink:href="#SVGID_1_"  style="overflow:visible;fill:#B6E8FB;"/>
					<clipPath id="SVGID_2_">
						<use xlink:href="#SVGID_1_"  style="overflow:visible;"/>
					</clipPath>
					<g class="st2">
						<g>
							<g>
								<g>
									<g>
										<polygon class="st0" points="78.9572,146.114 72.4521,142.3594 65.6555,146.3097 72.1589,150.0643 78.9572,146.114 
																					"/>
									</g>
								</g>
							</g>
						</g>
					</g>
				</g>
			</g>
		</g>
	</g>
	<g>
		<g>
			<g>
				<g class="st1">
					<defs>
						<polygon id="SVGID_3_" class="st1" points="78.2884,139.5744 85.0869,135.6241 91.6016,139.3865 84.8033,143.3368 						"/>
					</defs>
					<clipPath id="SVGID_4_">
						<use xlink:href="#SVGID_3_"  style="overflow:visible;"/>
					</clipPath>
					<g class="st3">
						<g>
							<g>
								<g>
									<g>
										<polygon class="st4" points="91.6016,139.3865 85.0869,135.6241 78.2884,139.5744 84.8033,143.3349 91.6016,139.3865 
																					"/>
									</g>
								</g>
							</g>
						</g>
					</g>
				</g>
			</g>
		</g>
	</g>
	<g>
		<g>
			<g>
				<g class="st1">
					<defs>
						<polygon id="SVGID_5_" class="st1" points="90.9002,132.9503 97.6987,129 104.2134,132.7625 97.4149,136.7128 						"/>
					</defs>
					<clipPath id="SVGID_6_">
						<use xlink:href="#SVGID_5_"  style="overflow:visible;"/>
					</clipPath>
					<g class="st5">
						<g>
							<g>
								<g>
									<g>
										<polygon class="st0" points="104.2134,132.7625 97.6987,129 90.9002,132.9503 97.4149,136.7128 104.2134,132.7625 
																					"/>
									</g>
								</g>
							</g>
						</g>
					</g>
				</g>
			</g>
		</g>
	</g>
</g>
<g>
	<g class="st1">
		<g>
			<g>
				<path class="st0" d="M220.3501,106.0695c-2.1288-1.232-5.5758-1.232-7.6952,0c-2.116,1.232-2.1097,3.2268,0.0224,4.4571
					c2.1353,1.232,5.5822,1.232,7.7015,0C222.4981,109.2963,222.4854,107.3015,220.3501,106.0695L220.3501,106.0695z"/>
			</g>
		</g>
	</g>
</g>
<g>
	<g>
		<g>
			<g>
				<path class="st6" d="M148.8696,49.9879c4.1623-2.2129,7.9228-2.3708,10.6701-0.7739l-7.8802-4.5797
					c-0.314-0.1819-0.6455-0.3334-0.9854-0.47c-0.1717-0.0685-0.3518-0.121-0.5292-0.1784c-0.048-0.0166-0.0951-0.0323-0.1449-0.049
					c0,0.0028,0,0.0047,0,0.0066C149.8226,45.833,149.4394,47.8545,148.8696,49.9879z"/>
			</g>
			<g>
				<path class="st6" d="M32.2812,135.5134c-0.0287-10.0653,7.048-22.3228,15.8085-27.3801l4.2296-2.4426
					c-0.2735-1.9246-0.4184-3.9729-0.4248-6.1395c-0.0675-23.7856,16.659-52.7689,37.3695-64.7263
					c10.4161-6.0139,19.8442-6.5625,26.6578-2.6025c0.7278,0.4607,1.678,1.1072,2.3613,1.6309
					c0.4378,0.3344,0.967,0.8486,1.3688,1.2246c0.4027,0.3768,1.2328,1.242,2.3309,2.7576
					c2.6348-3.1012,5.6205-5.7451,8.7907-7.5755c1.9838-1.1461,3.8992-1.9015,5.699-2.2931
					c1.8009-0.3916,3.4872-0.4183,5.0156-0.1053c0.5097,0.1044,1.002,0.2466,1.4749,0.4248
					c0.4719,0.1792,0.9252,0.3943,1.3574,0.6455l-7.8793-4.5797c-0.3518-0.1865-0.798-0.422-1.3576-0.6446
					c0,0-0.0026-0.0009-0.0045-0.0019c-0.8931-0.3537-2.0797-0.6723-3.669-0.7037c-2.4621-0.0471-4.7109,0.6945-5.8319,1.1405
					c-4.5252,1.8018-7.9273,4.7865-10.5298,7.5717l-7.0066-4.0726c-0.3527-0.2041-0.7166-0.3897-1.0824-0.5698
					c-0.133-0.0656-0.2659-0.1311-0.4008-0.1939c-1.6613-0.7804-2.8813-1.0916-3.2784-1.1784
					c-1.8221-0.398-2.1018-0.459-3.3569-0.5689c-1.8248-0.1607-3.5306-0.0379-3.5462-0.036
					c-2.0438,0.1939-2.3577,0.2244-3.7004,0.495c-1.2606,0.2549-2.5516,0.6012-3.8381,1.0278
					c-3.3403,1.1101-5.3481,2.2099-7.8914,3.6026c-3.718,2.173-6.0821,4.0652-6.3397,4.274
					c-1.691,1.3705-3.8816,3.2794-5.4875,4.7486c-0.8755,0.8015-1.9827,1.9348-2.778,2.8149
					c-0.784,0.8681-1.859,2.0003-2.5958,2.9091c-3.2849,4.0524-3.2849,4.0524-4.8337,6.2558
					c-1.0417,1.4822-3.7365,5.4533-6.2503,10.2953c-0.5613,1.0822-1.3039,2.5295-1.7915,3.6469
					c-0.9457,2.1675-2.1463,5.0849-2.9849,7.2956c-1.0482,2.7649-2.2726,7.5477-2.3235,7.786
					c-0.4524,2.1139-0.988,4.949-1.315,7.087c-0.1801,1.1783-0.2983,2.7676-0.3749,3.958
					c-0.1432,2.2267-0.1976,5.7101,0.3573,9.6636c-1.3445,0.7768-2.6891,1.5524-4.0338,2.3292l-0.4229,0.2438
					c-4.3164,2.5238-7.2311,6.0774-8.2838,7.4878c-0.8275,1.1091-2.2127,2.9643-3.5988,5.6417
					c-1.5672,3.0244-2.3263,5.4892-2.5211,6.1726c-0.8339,2.9164-1.003,4.4015-1.1654,6.3335
					c-0.0842,1.0075-0.0656,3.1167,0.241,4.6516c0.1311,0.6531,0.5292,2.6413,1.5395,4.2519
					c0.7304,1.1626,1.3898,1.8369,2.0169,2.3328c0.0174,0.0148,0.0369,0.0267,0.0545,0.0416
					c0.3094,0.2512,0.6327,0.4802,0.9742,0.6779l7.8802,4.5804C34.0617,144.0436,32.296,140.5224,32.2812,135.5134z"/>
			</g>
			<path class="st7" d="M48.0897,108.1332l4.2296-2.4427c-0.2735-1.9246-0.4183-3.9729-0.4248-6.1394
				C51.827,75.7655,68.5536,46.7822,89.264,34.8248c10.4162-6.0138,19.8442-6.5624,26.6578-2.6024
				c0.7277,0.4607,1.678,1.1072,2.3613,1.6309c0.4379,0.3343,0.967,0.8486,1.3687,1.2246c0.4026,0.3768,1.2328,1.2421,2.3309,2.7576
				c2.6348-3.1012,5.6204-5.7451,8.7907-7.5755c1.9838-1.1461,3.8991-1.9015,5.6989-2.2931
				c1.8009-0.3916,3.4873-0.4183,5.0157-0.1053c0.5098,0.1044,1.002,0.2466,1.4748,0.4248
				c0.4719,0.1792,0.9252,0.3943,1.3574,0.6455l0.0009,0.0009c0.9226,0.5984,1.3041,0.8469,2.0022,1.5469
				c0.6041,0.6049,1.0575,1.1884,1.6181,2.0816c0.8219,1.3114,1.4396,3.017,1.835,5.0718c0.3665,1.9025,0.4385,4.0108,0.2235,6.3038
				c0,0.0028,0,0.0047,0,0.0066c-0.1774,1.8895-0.5606,3.9109-1.1304,6.0443c4.1622-2.2128,7.9227-2.3707,10.67-0.7739
				c1.5284,0.9409,3.6645,2.7096,4.5576,7.1802c0.2669,1.3353,0.3768,3.3329,0.2604,4.7505
				c-0.1514,1.857-0.3232,3.3985-1.1664,6.3406c-0.1958,0.6843-0.9578,3.1548-2.5239,6.1773
				c-1.3871,2.6773-2.7733,4.5345-3.6017,5.6444c-0.8216,1.1002-2.7877,3.5002-5.6554,5.702
				c-0.0655,0.0499-0.1311,0.097-0.1968,0.1458c-0.7569,0.5705-1.559,1.1297-2.4353,1.6419
				c0.7458-0.4306,1.4791-0.9344,2.2001-1.4856c-0.5714,0.4135-1.1465,0.8134-1.7325,1.1516
				c-18.3524,10.5971-88.2212,50.9422-100.71,58.1452c-2.2745,1.3136-4.3994,1.885-6.285,1.8315
				c1.9062,0.0832,4.0654-0.4856,6.3782-1.8214c-1.2412,0.6668-1.8646,1.0002-2.6061,1.2623
				c-0.9652,0.3408-2.1665,0.7656-3.4733,0.8858c-0.7905,0.073-1.6862,0.156-3.1159-0.1146
				c-1.1433-0.2169-1.9736-0.6594-2.524-0.9521c-2.848-1.6558-4.6137-5.1772-4.6285-10.1861
				C32.2524,125.448,39.3292,113.1905,48.0897,108.1332z"/>
		</g>
	</g>
	<g>
		<g>
			<path class="st4" d="M202.616,49.9197c0.1776,0.8818,0.2455,1.8768,0.2742,2.6103l0.3555,0.2063
				c3.3141-1.9134,6.3557-2.3073,8.7247-1.4114c0.3377,0.1277,0.6621,0.2823,0.972,0.4618l-4.5531-2.6458
				c-0.2482-0.1323-0.5699-0.2993-0.9566-0.4548c-0.0143-0.0053-0.0278-0.0097-0.0421-0.0152
				c-0.3288-0.1295-0.6994-0.2519-1.1308-0.3331c-1.2177-0.2296-2.0038-0.1555-2.6362-0.0964
				c-0.3527,0.0329-0.8209,0.1116-1.1639,0.199c-0.0571,0.0145-0.1215,0.0331-0.1813,0.0492
				c0.009,0.0304,0.017,0.0589,0.0251,0.0902C202.405,48.9532,202.5078,49.3847,202.616,49.9197z"/>
		</g>
		<g>
			<path class="st0" d="M216.8138,57.9665c-0.1081-0.5494-0.4369-2.2216-1.3051-3.6071c-0.7396-1.18-1.4346-1.8768-2.5663-2.5728
				l0,0c-0.3099-0.1795-0.6343-0.3341-0.972-0.4618c-2.369-0.8959-5.4106-0.502-8.7247,1.4114
				c0.0626,0.0366,0.1233,0.0929,0.1778,0.1653c-0.0545-0.0724-0.1152-0.1286-0.1778-0.1653l-0.3421,0.1974
				c-0.0027-0.1224-0.0071-0.2573-0.0134-0.4038c-0.0287-0.7334-0.0966-1.7285-0.2742-2.6103
				c-0.1081-0.5349-0.2109-0.9665-0.3127-1.3399c-0.008-0.0313-0.0161-0.0598-0.0251-0.0902
				c-0.2411-0.8692-0.4753-1.3944-0.7486-1.9983c-0.317-0.6994-0.9469-1.6302-1.2237-1.9392
				c-0.2671-0.2984-0.6147-0.7067-0.9184-0.9676c-0.3778-0.3251-0.9191-0.7181-1.3436-0.9799
				c-2.9487-1.7142-7.0328-1.4731-11.5403,1.1301c-5.4642,3.1551-10.2888,9.0454-13.2143,15.5065h-0.0009h0.0009
				c-0.4378-0.1715-0.9067-0.2823-1.4025-0.3305c-1.4883-0.1447-3.2186,0.2778-5.0659,1.3444
				c-5.5321,3.1935-10.0038,10.9392-9.9861,17.303c0.0018,0.6834,0.06,1.3194,0.1608,1.9161
				c-7.1275,4.621-12.7516,14.6767-12.7284,22.9896c0.0126,4.2968,1.5285,7.3215,3.9752,8.7426
				c0.4627,0.2475,1.163,0.62,2.1242,0.8022c1.2193,0.2296,2.0036,0.1564,2.6342,0.0973c0.3529-0.0338,0.8211-0.1116,1.1641-0.199
				c0.5448-0.1394,1.2594-0.3672,1.7892-0.5549c0.6361-0.225,1.1685-0.511,2.2297-1.0799c0.0607-0.0348,0.1116-0.1019,0.1463-0.193
				c-7.1444,4.1252-12.8972,0.4619-12.9205-7.7474c-0.0232-7.8904,5.3188-17.4415,12.8517-22.3251
				c-0.2278-1.3533-0.2482-2.0162-0.2832-2.5807c-0.0177-5.9269,4.1485-13.1429,9.3-16.1167
				c2.2949-1.3238,4.3941-1.5811,6.5979-0.7191c3.2328-7.1392,7.8511-12.7794,13.0848-15.8005
				c8.5801-4.9542,15.5549-0.9727,15.5844,9.6699c0.2492-0.1438,0.4332-0.2501,0.5807-0.335
				c0.1822-0.1054,0.3028-0.1751,0.3895-0.2251c0.0304-0.0179,0.058-0.0339,0.0821-0.0473c0.0393-0.0223,0.0732-0.042,0.1054-0.0607
				c7.1445-4.1261,12.958-0.8129,12.9812,7.3902c0.0071,2.587-0.5637,5.3526-1.5695,8.0565
				c-2.2314,6.0788-6.6014,11.9763-11.5288,14.8205c1.7894-1.0451,2.989-2.0867,3.3142-2.3806
				c1.1621-1.0505,1.2568-1.1363,1.9866-1.9134c1.0523-1.122,1.8285-2.1501,1.8357-2.16c0.7164-0.9612,1.9162-2.5691,3.1132-4.8791
				c1.2962-2.503,1.9553-4.5647,2.1787-5.3347c0.7654-2.6397,0.8871-4.0707,1.004-5.4544
				C217.1156,60.7883,217.0264,59.0437,216.8138,57.9665z"/>
		</g>
		<g>
			<path class="st4" d="M202.9035,52.9337l0.3421-0.1974l0,0l-0.3555-0.2063C202.8964,52.6764,202.9008,52.8113,202.9035,52.9337z"
				/>
		</g>
		<g>
			<path class="st4" d="M168.7353,56.5944l4.554,2.6468c2.9255-6.4611,7.7501-12.3514,13.2143-15.5065
				c4.5076-2.6031,8.5916-2.8442,11.5403-1.1301l-4.5539-2.6468c-0.3708-0.2153-0.7594-0.3992-1.1641-0.5519
				c-0.0223-0.009-0.049-0.0232-0.0714-0.0313c-0.3734-0.1403-0.8871-0.2903-1.2791-0.3644
				c-1.4498-0.2726-2.3807-0.185-3.1293-0.1136c-0.4198,0.0393-0.9773,0.1332-1.3864,0.2376
				c-0.6423,0.1645-1.4864,0.4341-2.1117,0.6557c-0.7576,0.268-1.39,0.6076-2.6512,1.2837
				c-2.6772,1.5516-5.1435,3.6803-7.5375,6.5066c-0.2038,0.2413-0.4682,0.5682-0.6637,0.8156
				c-0.1974,0.2494-0.4592,0.5834-0.6458,0.8406c-0.7245,0.9996-1.1229,1.5508-1.8143,2.6567
				c-1.223,1.9571-1.9787,3.5409-2.4932,4.6379c0.0527,0.0188,0.1008,0.0241,0.1544,0.0456
				C168.7095,56.581,168.7219,56.5872,168.7353,56.5944z"/>
		</g>
		<g>
			<path class="st8" d="M168.6969,56.5765c-0.0536-0.0214-0.1017-0.0268-0.1544-0.0456c-0.0805-0.0286-0.1564-0.0456-0.2351-0.0697
				c0.144,0.042,0.2903,0.0795,0.4279,0.1331C168.7219,56.5872,168.7095,56.581,168.6969,56.5765z"/>
		</g>
		<g>
			<path class="st4" d="M144.2673,102.4637c-0.0232-8.3128,5.6009-18.3686,12.7284-22.9896
				c-0.1008-0.5967-0.159-1.2327-0.1608-1.9161c-0.0177-6.3638,4.454-14.1094,9.9861-17.303
				c1.8474-1.0666,3.5777-1.4891,5.0659-1.3444c0.4958,0.0482,0.9647,0.159,1.4025,0.3305h-0.0009l-4.5531-2.6468
				c-0.1376-0.0536-0.2839-0.0911-0.4279-0.1331c-0.0955-0.0277-0.1875-0.0607-0.2849-0.0831
				c-0.9156-0.2224-1.6937-0.1751-2.1055-0.142c-0.8137,0.067-1.7588,0.3341-2.8093,0.795c-2.487,1.0907-4.7354,3.3337-5.6724,4.487
				c-0.7728,0.9514-1.5034,1.85-2.4218,3.4472c-1.062,1.8455-1.607,3.3239-1.7919,3.8742
				c-0.4429,1.3185-1.4791,4.4048-0.9003,7.8886c-1.4284,0.9263-2.6639,1.9992-3.1185,2.4369
				c-1.2524,1.2077-1.2524,1.2077-1.9233,1.959c-1.0148,1.1363-1.7517,2.1528-1.7588,2.1626
				c-0.7254,1.0148-1.8223,2.5477-2.9381,4.7684c-1.3604,2.7093-1.9723,4.8979-2.0376,5.139
				c-0.6725,2.478-0.7825,3.3115-0.9361,5.2463c-0.0803,1.0121-0.0232,2.8067,0.2082,3.9394c0.1385,0.6763,0.4627,2.261,1.306,3.608
				c0.3957,0.6315,0.7173,1.0461,1.1469,1.4765c0.4949,0.4958,0.7647,0.6718,1.4185,1.096l4.554,2.6459
				C145.7958,109.7851,144.2799,106.7605,144.2673,102.4637z"/>
		</g>
		<g>
			<path class="st9" d="M215.1148,69.2379c1.004-2.7361,1.5766-5.5089,1.5695-8.0565c-0.0232-8.2031-5.8367-11.5162-12.9812-7.3902
				c-0.0322,0.0187-0.066,0.0384-0.1054,0.0607c-0.0242,0.0134-0.0518,0.0295-0.0821,0.0473
				c-0.0867,0.05-0.2073,0.1197-0.3895,0.2251c-0.1475,0.0849-0.3315,0.1912-0.5807,0.335
				c-0.0294-10.6426-7.0042-14.624-15.5844-9.6699c-5.2337,3.0212-9.8519,8.6614-13.0848,15.8005
				c-2.2038-0.862-4.3031-0.6048-6.5979,0.7191c-5.1516,2.9738-9.3177,10.1897-9.3,16.1167
				c0.0349,0.5646,0.0554,1.2274,0.2832,2.5807c-7.5329,4.8836-12.8749,14.4346-12.8517,22.3251
				c0.0232,8.2093,5.7761,11.8726,12.9205,7.7474c-0.0348,0.0911-0.0856,0.1582-0.1463,0.193l4.0081-2.3144l4.0091-2.3146
				l4.009-2.3144l4.0081-2.3137l4.009-2.3144l4.0081-2.3144l4.0091-2.3146l4.009-2.3144l4.0083-2.3144l4.009-2.3146l0,0
				l0.5315-0.3073l0.5314-0.3064l0.5314-0.3073l0.5316-0.3064l0.5314-0.3073l0.5315-0.3064l0.5316-0.3073l0.5315-0.3064
				l0.5314-0.3073l0.5315-0.3073C208.5134,81.2142,212.8834,75.3167,215.1148,69.2379z"/>
		</g>
	</g>
</g>
<g>
	<path class="st10" d="M120.3091,144.647V147h-1.8564v-2.353h-4.418v-0.9922l4.7539-6.3389h1.5205v5.9707h1.7446v1.3604H120.3091z
		 M118.4526,139.7969l-2.6094,3.4897h2.6094V139.7969z"/>
	<path class="st10" d="M123.3789,147v-1.937h1.937V147H123.3789z"/>
	<path class="st10" d="M126.6104,147v-1.0723l2.5132-2.6094c0.8965-0.9443,1.7446-1.8887,1.7446-3.0889
		c0-1.1689-0.7681-1.585-1.5527-1.585c-0.7842,0-1.6323,0.3364-2.4648,1.0405v-1.6006c0.5283-0.4644,1.793-0.9766,2.8013-0.9766
		c1.8086,0,3.1694,1.0728,3.1694,2.8813c0,1.6646-1.0728,2.833-1.9531,3.6333l-1.9688,1.8569h4.1299V147H126.6104z"/>
	<path class="st10" d="M143.2539,147v-5.8906c0-0.2236,0.0479-0.8481,0.064-0.9121l-0.3525,0.9121L140.3887,147h-1.2007
		l-2.5771-5.8906c-0.0957-0.2236-0.3042-0.8159-0.3359-0.9121c0,0.0479,0.0479,0.6885,0.0479,0.9121V147h-1.7124v-9.604h2.0806
		l3.1694,7.0269l3.1533-7.0269h2.0166V147H143.2539z"/>
</g>
<g>
	<path class="st10" d="M149.7773,144.4092c0-1.5107,1.0435-2.7344,2.4707-2.7344c0.8516,0,1.6069,0.4199,2.0386,1.0796
		l0.0361-0.9355h0.7915V147h-0.7915l-0.0361-0.9355c-0.4316,0.6597-1.187,1.0796-2.0386,1.0796
		C150.8208,147.144,149.7773,145.9204,149.7773,144.4092z M154.2627,144.4092c0-1.2471-0.8037-2.0024-1.7871-2.0024
		s-1.7866,0.7554-1.7866,2.0024c0,1.2476,0.8032,2.0029,1.7866,2.0029S154.2627,145.6567,154.2627,144.4092z"/>
	<path class="st10" d="M156.605,141.8188h0.7915l0.0601,0.9956c0.3838-0.624,1.1392-1.1396,2.0146-1.1396
		c1.3794,0,1.8711,0.9595,1.8711,2.2427V147h-0.9116v-2.9985c0-1.1631-0.4556-1.5469-1.2109-1.5469
		c-0.7437,0-1.7031,0.6475-1.7031,1.4873V147h-0.9116V141.8188z"/>
	<path class="st10" d="M162.8208,141.8188h0.7915l0.0601,0.9956c0.3838-0.624,1.1392-1.1396,2.0146-1.1396
		c1.3794,0,1.8711,0.9595,1.8711,2.2427V147h-0.9116v-2.9985c0-1.1631-0.4556-1.5469-1.2109-1.5469
		c-0.7437,0-1.7031,0.6475-1.7031,1.4873V147h-0.9116V141.8188z"/>
	<path class="st10" d="M169.0244,144.9014v-3.0825h0.9116v2.9985c0,1.1631,0.4556,1.5469,1.2114,1.5469
		c0.7437,0,1.7031-0.6475,1.7031-1.4873v-3.0581h0.9111V147h-0.7915l-0.0596-0.9956c-0.3838,0.624-1.1514,1.1396-2.0151,1.1396
		C169.5161,147.144,169.0244,146.1846,169.0244,144.9014z"/>
	<path class="st10" d="M174.9526,144.4092c0-1.5107,1.0435-2.7344,2.4707-2.7344c0.8516,0,1.6069,0.4199,2.0386,1.0796
		l0.0361-0.9355h0.7915V147h-0.7915l-0.0361-0.9355c-0.4316,0.6597-1.187,1.0796-2.0386,1.0796
		C175.9961,147.144,174.9526,145.9204,174.9526,144.4092z M179.438,144.4092c0-1.2471-0.8032-2.0024-1.7871-2.0024
		c-0.9834,0-1.7866,0.7554-1.7866,2.0024c0,1.2476,0.8032,2.0029,1.7866,2.0029
		C178.6348,146.4121,179.438,145.6567,179.438,144.4092z"/>
	<path class="st10" d="M181.7808,139.8037h0.9116V147h-0.9116V139.8037z"/>
	<path class="st10" d="M187.1201,142.4424h-1.1631v-0.6235h1.1631v-1.415h0.9116v1.415h1.1753v0.6235h-1.1753V147h-0.9116V142.4424z
		"/>
	<path class="st10" d="M190.1563,141.8188h0.7915l0.0601,0.9956c0.3359-0.6357,1.1392-1.1396,2.0146-1.1396v0.9834
		c-0.9834-0.1797-1.9546,0.3838-1.9546,1.2593V147h-0.9116V141.8188z"/>
	<path class="st10" d="M193.6362,144.4092c0-1.5107,1.0435-2.7344,2.4707-2.7344c0.8516,0,1.6069,0.4199,2.0386,1.0796
		l0.0361-0.9355h0.7915V147h-0.7915l-0.0361-0.9355c-0.4316,0.6597-1.187,1.0796-2.0386,1.0796
		C194.6797,147.144,193.6362,145.9204,193.6362,144.4092z M198.1216,144.4092c0-1.2471-0.8032-2.0024-1.7871-2.0024
		c-0.9834,0-1.7866,0.7554-1.7866,2.0024c0,1.2476,0.8032,2.0029,1.7866,2.0029
		C197.3184,146.4121,198.1216,145.6567,198.1216,144.4092z"/>
	<path class="st10" d="M200.4644,141.8188h0.7915l0.0601,0.9956c0.3838-0.624,1.1392-1.1396,2.0146-1.1396
		c1.3794,0,1.8711,0.9595,1.8711,2.2427V147H204.29v-2.9985c0-1.1631-0.4556-1.5469-1.2109-1.5469
		c-0.7437,0-1.7031,0.6475-1.7031,1.4873V147h-0.9116V141.8188z"/>
	<path class="st10" d="M206.3203,146.6162l0.1797-0.7197c0.3481,0.2158,1.0195,0.54,1.7632,0.54
		c0.6479,0,1.1514-0.228,1.1514-0.8037c0-0.4561-0.4678-0.7075-1.3193-0.9233c-1.103-0.2759-1.6069-0.8638-1.6069-1.5352
		c0-0.8159,0.6235-1.5112,1.895-1.5112c0.8633,0,1.6069,0.4316,1.6069,0.4316l-0.1797,0.6958
		c-0.3599-0.2402-0.9116-0.4199-1.4272-0.4199c-0.7075,0-1.0557,0.2637-1.0557,0.6836c0,0.4438,0.4321,0.7075,1.1157,0.8755
		c1.187,0.2881,1.8105,0.8276,1.8105,1.5112c0,1.0913-0.8271,1.7148-2.0146,1.7148
		C207.124,147.1558,206.3203,146.6162,206.3203,146.6162z"/>
	<path class="st10" d="M211.0962,144.4092c0-1.5107,1.0435-2.7344,2.4707-2.7344c0.8516,0,1.6069,0.4199,2.0386,1.0796
		l0.0361-0.9355h0.7915V147h-0.7915l-0.0361-0.9355c-0.4316,0.6597-1.187,1.0796-2.0386,1.0796
		C212.1396,147.144,211.0962,145.9204,211.0962,144.4092z M215.5815,144.4092c0-1.2471-0.8032-2.0024-1.7871-2.0024
		c-0.9834,0-1.7866,0.7554-1.7866,2.0024c0,1.2476,0.8032,2.0029,1.7866,2.0029
		C214.7783,146.4121,215.5815,145.6567,215.5815,144.4092z"/>
	<path class="st10" d="M217.6357,144.4092c0-1.6187,1.1274-2.7344,2.6987-2.7344c0.6836,0,1.2231,0.1201,1.811,0.5278v0.8276
		c-0.4917-0.4561-1.1274-0.6118-1.7271-0.6118c-1.1152,0-1.8711,0.8516-1.8711,1.9907c0,1.1636,0.7559,1.9912,1.8711,1.9912
		c0.5996,0,1.2354-0.1558,1.7271-0.6118v0.8276c-0.5879,0.4077-1.1274,0.5278-1.811,0.5278
		C218.7632,147.144,217.6357,146.0283,217.6357,144.4092z"/>
	<path class="st10" d="M223.9473,142.4424h-1.1631v-0.6235h1.1631v-1.415h0.9116v1.415h1.1753v0.6235h-1.1753V147h-0.9116V142.4424z
		"/>
	<path class="st10" d="M226.9839,139.8037h0.9116v0.9956h-0.9116V139.8037z M226.9839,141.8188h0.9116V147h-0.9116V141.8188z"/>
	<path class="st10" d="M229.0239,144.4092c0-1.5107,1.1514-2.7822,2.8306-2.7822c1.667,0,2.8184,1.2715,2.8184,2.7822
		c0,1.5234-1.1514,2.7827-2.8184,2.7827C230.1753,147.1919,229.0239,145.9326,229.0239,144.4092z M233.7612,144.4092
		c0-1.127-0.7314-2.0508-1.9067-2.0508c-1.1875,0-1.9189,0.9238-1.9189,2.0508c0,1.1396,0.7437,2.0513,1.9189,2.0513
		S233.7612,145.5488,233.7612,144.4092z"/>
	<path class="st10" d="M235.8032,141.8188h0.7915l0.0601,0.9956c0.3838-0.624,1.1392-1.1396,2.0146-1.1396
		c1.3794,0,1.8711,0.9595,1.8711,2.2427V147h-0.9116v-2.9985c0-1.1631-0.4556-1.5469-1.2109-1.5469
		c-0.7437,0-1.7031,0.6475-1.7031,1.4873V147h-0.9116V141.8188z"/>
	<path class="st10" d="M241.6597,146.6162l0.1797-0.7197c0.3481,0.2158,1.0195,0.54,1.7632,0.54
		c0.6475,0,1.1514-0.228,1.1514-0.8037c0-0.4561-0.4678-0.7075-1.3193-0.9233c-1.1035-0.2759-1.6069-0.8638-1.6069-1.5352
		c0-0.8159,0.6235-1.5112,1.895-1.5112c0.8633,0,1.6069,0.4316,1.6069,0.4316l-0.1797,0.6958
		c-0.3599-0.2402-0.9116-0.4199-1.4272-0.4199c-0.7075,0-1.0557,0.2637-1.0557,0.6836c0,0.4438,0.4316,0.7075,1.1157,0.8755
		c1.187,0.2881,1.811,0.8276,1.811,1.5112c0,1.0913-0.8276,1.7148-2.0151,1.7148
		C242.4634,147.1558,241.6597,146.6162,241.6597,146.6162z"/>
</g>
</svg>
