<?xml version="1.0" encoding="utf-8"?>
<!-- Generator: Adobe Illustrator 21.1.0, SVG Export Plug-In . SVG Version: 6.00 Build 0)  -->
<svg version="1.1" id="Layer_1" xmlns="http://www.w3.org/2000/svg" xmlns:xlink="http://www.w3.org/1999/xlink" x="0px" y="0px"
	 viewBox="0 0 269 176" style="enable-background:new 0 0 269 176;" xml:space="preserve">
<style type="text/css">
	.st0{fill:#666666;}
	.st1{fill:none;stroke:#B6E8FB;stroke-width:2;stroke-miterlimit:10;}
	.st2{enable-background:new    ;}
	.st3{fill:#B6E8FB;}
	.st4{fill:none;stroke:#B6E8FB;stroke-width:2;stroke-linecap:square;stroke-miterlimit:10;}
	.st5{fill:#003058;}
	.st6{fill:#002035;}
	.st7{fill:#B03478;}
	.st8{fill:#00A7E1;}
	.st9{fill:#BEBEBE;}
</style>
<g>
	<path class="st0" d="M106.519,153.2236v-7.2188h-0.9131v-1.0703l2.5684-0.457v8.7461H106.519z"/>
	<path class="st0" d="M113.3115,153.4658c-1.8408,0-3.3384-1.0127-3.3384-2.582c0-1.1982,0.7988-2.04,1.8975-2.4258
		c-0.9131-0.3848-1.3843-1.1123-1.3843-1.9541c0-1.2559,1.3413-2.126,2.8252-2.126c1.4692,0,2.8105,0.8701,2.8105,2.126
		c0,0.8418-0.4707,1.5693-1.3696,1.9541c1.084,0.3857,1.8833,1.2275,1.8833,2.4258
		C116.6357,152.4531,115.1519,153.4658,113.3115,153.4658z M111.6563,150.7266c0,0.9131,0.6992,1.584,1.6553,1.584
		c0.9556,0,1.6406-0.6709,1.6406-1.584c0-0.9414-0.6992-1.583-1.6406-1.583C112.3696,149.1436,111.6563,149.7852,111.6563,150.7266z
		 M113.3115,145.4629c-0.7422,0-1.2412,0.4707-1.2412,1.1982c0,0.6279,0.5137,1.2119,1.2412,1.2119s1.2271-0.584,1.2271-1.2119
		C114.5386,145.9336,114.0391,145.4629,113.3115,145.4629z"/>
	<path class="st0" d="M120.8193,153.2236v-8.5605h1.6553v8.5605H120.8193z"/>
	<path class="st0" d="M127.1689,153.4521c-1.9971,0-3.4668-1.4414-3.4668-3.3105c0-1.8545,1.4697-3.3096,3.4668-3.3096
		c1.9834,0,3.4526,1.4551,3.4526,3.3096C130.6216,152.0107,129.1523,153.4521,127.1689,153.4521z M127.1689,148.0449
		c-1.1128,0-1.8403,0.8555-1.8403,2.0967c0,1.2559,0.7422,2.0977,1.8403,2.0977c1.0986,0,1.8262-0.8418,1.8262-2.0977
		C128.9951,148.9004,128.2676,148.0449,127.1689,148.0449z"/>
	<path class="st0" d="M134.7617,153.3945c-1.8545,0-3.2529-1.3408-3.2529-3.2666c0-1.9268,1.3984-3.2393,3.2529-3.2393
		c0.8848,0,1.6123,0.2002,2.2109,0.6143v1.2832c-0.542-0.4707-1.1982-0.6416-1.8545-0.6416c-1.1411,0-1.9541,0.8135-1.9541,1.9834
		c0,1.2129,0.813,2.0117,1.9541,2.0117c0.6563,0,1.3271-0.1719,1.8545-0.6563v1.2979
		C136.374,153.209,135.6465,153.3945,134.7617,153.3945z"/>
	<path class="st0" d="M143.1533,153.2236l-0.0576-0.9844c-0.5137,0.7559-1.4268,1.1553-2.2969,1.1553
		c-1.6689,0-2.8965-1.3975-2.8965-3.2529c0-1.8545,1.2275-3.2529,2.8965-3.2529c0.8701,0,1.7832,0.4004,2.2969,1.1563l0.0576-0.9844
		h1.498v6.1631H143.1533z M141.3125,148.1162c-0.9697,0-1.7549,0.7559-1.7549,2.0254c0,1.2705,0.7852,2.0264,1.7549,2.0264
		c0.9707,0,1.7549-0.7559,1.7549-2.0264C143.0674,148.8721,142.2832,148.1162,141.3125,148.1162z"/>
	<path class="st0" d="M146.2803,153.2236v-8.5605h1.6543v8.5605H146.2803z"/>
	<path class="st0" d="M157.7813,150.1846h-4.1094c-0.043,0.9414,0.4424,2.0117,2.0977,2.0117c0.6992,0,1.5264-0.3135,1.9971-0.7275
		v1.1982c-0.585,0.457-1.4834,0.7275-2.5107,0.7275c-1.8975,0-3.2246-1.3838-3.2246-3.2949c0-1.9697,1.5127-3.2109,3.1104-3.2109
		c1.5693,0,2.7393,0.9844,2.7393,2.4404C157.8809,149.5996,157.8379,149.9707,157.7813,150.1846z M155.1846,147.9453
		c-0.6992,0-1.2988,0.3994-1.4414,1.3545h2.6396C156.5254,148.5586,156.04,147.9453,155.1846,147.9453z"/>
	<path class="st0" d="M163.7324,153.2236v-3.4102c0-1.1982-0.4131-1.5977-1.1699-1.5977c-0.7842,0-1.6406,0.7139-1.6406,1.5693
		v3.4385h-1.6543v-6.1631h1.5117l0.0713,1.1406c0.4141-0.7842,1.3418-1.3125,2.2832-1.3125c1.6406,0,2.2539,1.1416,2.2539,2.668
		v3.667H163.7324z"/>
	<path class="st0" d="M169.3564,148.1445v5.0791h-1.6543v-5.0791h-1.2988v-1.084h1.2988v-1.6836h1.6543v1.6836h1.2988v1.084
		H169.3564z"/>
	<path class="st0" d="M171.6836,146.0186v-1.3555h1.6543v1.3555H171.6836z M171.6836,153.2236v-6.1631h1.6543v6.1631H171.6836z"/>
	<path class="st0" d="M177.3193,148.1445v5.0791h-1.6543v-5.0791h-1.2988v-1.084h1.2988v-1.6836h1.6543v1.6836h1.2988v1.084
		H177.3193z"/>
	<path class="st0" d="M179.6465,146.0186v-1.3555h1.6543v1.3555H179.6465z M179.6465,153.2236v-6.1631h1.6543v6.1631H179.6465z"/>
	<path class="st0" d="M188.3369,150.1846h-4.1094c-0.043,0.9414,0.4424,2.0117,2.0977,2.0117c0.6992,0,1.5264-0.3135,1.9971-0.7275
		v1.1982c-0.585,0.457-1.4834,0.7275-2.5107,0.7275c-1.8975,0-3.2246-1.3838-3.2246-3.2949c0-1.9697,1.5127-3.2109,3.1104-3.2109
		c1.5693,0,2.7393,0.9844,2.7393,2.4404C188.4365,149.5996,188.3936,149.9707,188.3369,150.1846z M185.7402,147.9453
		c-0.6992,0-1.2988,0.3994-1.4414,1.3545h2.6396C187.0811,148.5586,186.5957,147.9453,185.7402,147.9453z"/>
	<path class="st0" d="M191.8623,153.4238c-1.2695,0-2.2119-0.543-2.4688-0.6992l0.2715-1.1416
		c0.499,0.2998,1.2559,0.6846,2.1689,0.6846c0.6563,0,1.1123-0.1992,1.1123-0.7129c0-0.4424-0.4707-0.5996-1.3125-0.7988
		c-1.5117-0.3281-2.0547-1.1279-2.0547-1.998c0-0.9697,0.7568-1.8828,2.4258-1.8828c1.0127,0,1.8975,0.4424,2.0977,0.5566
		l-0.2715,1.084c-0.5283-0.3145-1.1699-0.5137-1.7832-0.5137c-0.6709,0-0.999,0.2285-0.999,0.5996
		c0,0.4131,0.4277,0.5986,1.084,0.7559c1.627,0.3418,2.2832,1.0986,2.2832,1.9258
		C194.416,152.6104,193.4463,153.4238,191.8623,153.4238z"/>
	<path class="st0" d="M105.4209,163.6426l0.1338-0.5361c0.2588,0.1611,0.7588,0.4014,1.3125,0.4014
		c0.4819,0,0.8569-0.1689,0.8569-0.5977c0-0.3389-0.3481-0.5264-0.9819-0.6875c-0.8213-0.2051-1.1963-0.6426-1.1963-1.1426
		c0-0.6064,0.4644-1.125,1.4102-1.125c0.6431,0,1.1963,0.3213,1.1963,0.3213l-0.1338,0.5186
		c-0.2681-0.1787-0.6787-0.3125-1.0625-0.3125c-0.5264,0-0.7852,0.1963-0.7852,0.5088c0,0.3301,0.3213,0.5264,0.8301,0.6514
		c0.8838,0.2139,1.3477,0.6162,1.3477,1.125c0,0.8125-0.6157,1.2764-1.4995,1.2764
		C106.019,164.0439,105.4209,163.6426,105.4209,163.6426z"/>
	<path class="st0" d="M108.9263,162c0-1.125,0.8569-2.0713,2.1064-2.0713c1.2407,0,2.0977,0.9463,2.0977,2.0713
		c0,1.1328-0.8569,2.0703-2.0977,2.0703C109.7832,164.0703,108.9263,163.1328,108.9263,162z M112.4521,162
		c0-0.8398-0.5444-1.5264-1.4194-1.5264c-0.8833,0-1.4282,0.6865-1.4282,1.5264c0,0.8477,0.5537,1.5264,1.4282,1.5264
		C111.9077,163.5264,112.4521,162.8477,112.4521,162z"/>
	<path class="st0" d="M116.75,163.7139l-1.5977-3.6426h0.6963l1.2495,2.8926l1.2407-2.8926h0.6606l-2.4551,5.5967h-0.6694
		L116.75,163.7139z"/>
	<path class="st0" d="M119.2109,162c0-1.125,0.8569-2.0713,2.1064-2.0713c1.2407,0,2.0977,0.9463,2.0977,2.0713
		c0,1.1328-0.8569,2.0703-2.0977,2.0703C120.0679,164.0703,119.2109,163.1328,119.2109,162z M122.7368,162
		c0-0.8398-0.5444-1.5264-1.4194-1.5264c-0.8833,0-1.4282,0.6865-1.4282,1.5264c0,0.8477,0.5537,1.5264,1.4282,1.5264
		C122.1924,163.5264,122.7368,162.8477,122.7368,162z"/>
	<path class="st0" d="M124.2417,162.3652v-2.2939h0.6787v2.2314c0,0.8662,0.3389,1.1523,0.9014,1.1523
		c0.5532,0,1.2676-0.4824,1.2676-1.1074v-2.2764h0.6782v3.8564h-0.5889l-0.0449-0.7412c-0.2856,0.4648-0.8569,0.8486-1.4995,0.8486
		C124.6079,164.0352,124.2417,163.3203,124.2417,162.3652z"/>
	<path class="st0" d="M128.6836,160.2676c0.3037-0.1689,0.4106-0.5625,0.4106-0.9102h-0.3481v-0.7852h0.7856v0.6865
		c0,0.6074-0.2412,1.0898-0.7144,1.2324L128.6836,160.2676z"/>
	<path class="st0" d="M130.5034,160.0713h0.5894l0.0444,0.7412c0.25-0.4736,0.8481-0.8477,1.5-0.8477v0.7314
		c-0.7319-0.1338-1.4551,0.2861-1.4551,0.9375v2.2939h-0.6787V160.0713z"/>
	<path class="st0" d="M133.0991,161.9727c0-1.2402,0.9194-2.0078,1.8652-2.0078c0.9644,0,1.6431,0.624,1.6431,1.499
		c0,0.1338-0.0273,0.3037-0.0537,0.4375h-2.7852c-0.0537,0.6787,0.2676,1.5801,1.5,1.5801c0.4365,0,0.9727-0.2139,1.2666-0.5v0.5986
		c-0.3652,0.2939-0.9365,0.4551-1.499,0.4551C133.9023,164.0352,133.0991,163.1689,133.0991,161.9727z M135.9551,161.4287
		c0.0811-0.5186-0.3301-0.9287-0.9639-0.9287c-0.5444,0-1.0444,0.2949-1.1602,0.9287H135.9551z"/>
	<path class="st0" d="M138.9941,162c0-1.125,0.8574-2.0713,2.1074-2.0713c1.2402,0,2.0977,0.9463,2.0977,2.0713
		c0,1.1328-0.8574,2.0703-2.0977,2.0703C139.8516,164.0703,138.9941,163.1328,138.9941,162z M142.5205,162
		c0-0.8398-0.5449-1.5264-1.4189-1.5264c-0.8838,0-1.4287,0.6865-1.4287,1.5264c0,0.8477,0.5537,1.5264,1.4287,1.5264
		C141.9756,163.5264,142.5205,162.8477,142.5205,162z"/>
	<path class="st0" d="M144.0352,160.0713h0.5889l0.0264,0.6963c0.3213-0.4912,0.8838-0.8027,1.5176-0.8027
		c1.0625,0,1.8389,0.9102,1.8389,2.0352c0,1.124-0.7764,2.0352-1.8389,2.0352c-0.5977,0-1.1338-0.2773-1.4551-0.7148v2.3477h-0.6777
		V160.0713z M147.3291,162c0-0.9287-0.5986-1.4912-1.3301-1.4912c-0.7324,0-1.3301,0.5625-1.3301,1.4912
		c0,0.9277,0.5977,1.4902,1.3301,1.4902C146.7305,163.4902,147.3291,162.9277,147.3291,162z"/>
	<path class="st0" d="M148.6729,161.9727c0-1.2402,0.9199-2.0078,1.8662-2.0078c0.9639,0,1.6426,0.624,1.6426,1.499
		c0,0.1338-0.0273,0.3037-0.0537,0.4375h-2.7852c-0.0537,0.6787,0.2676,1.5801,1.5,1.5801c0.4365,0,0.9727-0.2139,1.2666-0.5v0.5986
		c-0.3652,0.2939-0.9365,0.4551-1.499,0.4551C149.4766,164.0352,148.6729,163.1689,148.6729,161.9727z M151.5293,161.4287
		c0.0811-0.5186-0.3301-0.9287-0.9639-0.9287c-0.5439,0-1.0439,0.2949-1.1602,0.9287H151.5293z"/>
	<path class="st0" d="M153.1152,160.0713h0.5889l0.0449,0.7412c0.2852-0.4639,0.8477-0.8477,1.499-0.8477
		c1.0273,0,1.3926,0.7139,1.3926,1.6689v2.2939h-0.6777v-2.2314c0-0.8662-0.3398-1.1514-0.9023-1.1514
		c-0.5527,0-1.2676,0.4814-1.2676,1.1064v2.2764h-0.6777V160.0713z"/>
	<path class="st0" d="M159.6445,160.5361h-0.7861v-0.4648h0.7861v-0.0088c0-1.125,0.4277-1.5527,1.2402-1.5527
		c0.1699,0,0.375,0.0439,0.4824,0.0801v0.4824c-0.1338-0.0273-0.2949-0.0537-0.4111-0.0537c-0.4727,0-0.6338,0.2139-0.6338,0.999
		v0.0537h1.0449v0.4648h-1.0449v3.3916h-0.6777V160.5361z"/>
	<path class="st0" d="M161.625,162c0-1.125,0.8564-2.0713,2.1064-2.0713c1.2402,0,2.0977,0.9463,2.0977,2.0713
		c0,1.1328-0.8574,2.0703-2.0977,2.0703C162.4814,164.0703,161.625,163.1328,161.625,162z M165.1504,162
		c0-0.8398-0.5449-1.5264-1.4189-1.5264c-0.8838,0-1.4287,0.6865-1.4287,1.5264c0,0.8477,0.5537,1.5264,1.4287,1.5264
		C164.6055,163.5264,165.1504,162.8477,165.1504,162z"/>
	<path class="st0" d="M166.6641,160.0713h0.5889l0.0449,0.7412c0.25-0.4736,0.8477-0.8477,1.499-0.8477v0.7314
		c-0.7314-0.1338-1.4551,0.2861-1.4551,0.9375v2.2939h-0.6777V160.0713z"/>
	<path class="st0" d="M171.8105,163.2314l-0.0264,0.6963h-0.5889v-5.3555h0.6777v2.1064c0.3213-0.4375,0.8574-0.7139,1.4551-0.7139
		c1.0625,0,1.8389,0.9102,1.8389,2.0352c0,1.124-0.7764,2.0352-1.8389,2.0352
		C172.6943,164.0352,172.1318,163.7227,171.8105,163.2314z M174.4893,162c0-0.9287-0.5986-1.4912-1.3301-1.4912
		c-0.7324,0-1.3301,0.5625-1.3301,1.4912c0,0.9277,0.5977,1.4902,1.3301,1.4902C173.8906,163.4902,174.4893,162.9277,174.4893,162z"
		/>
	<path class="st0" d="M176.0391,162.3652v-2.2939h0.6777v2.2314c0,0.8662,0.3398,1.1523,0.9014,1.1523
		c0.5537,0,1.2676-0.4824,1.2676-1.1074v-2.2764h0.6787v3.8564h-0.5889l-0.0449-0.7412c-0.2852,0.4648-0.8564,0.8486-1.499,0.8486
		C176.4043,164.0352,176.0391,163.3203,176.0391,162.3652z"/>
	<path class="st0" d="M180.4004,163.6426l0.1338-0.5361c0.2588,0.1611,0.7588,0.4014,1.3115,0.4014
		c0.4824,0,0.8574-0.1689,0.8574-0.5977c0-0.3389-0.3486-0.5264-0.9824-0.6875c-0.8213-0.2051-1.1963-0.6426-1.1963-1.1426
		c0-0.6064,0.4648-1.125,1.4111-1.125c0.6426,0,1.1963,0.3213,1.1963,0.3213l-0.1348,0.5186
		c-0.2676-0.1787-0.6777-0.3125-1.0615-0.3125c-0.5273,0-0.7861,0.1963-0.7861,0.5088c0,0.3301,0.3213,0.5264,0.8301,0.6514
		c0.8838,0.2139,1.3486,0.6162,1.3486,1.125c0,0.8125-0.6162,1.2764-1.5,1.2764
		C180.998,164.0439,180.4004,163.6426,180.4004,163.6426z"/>
	<path class="st0" d="M184.1738,158.5723h0.6777v0.7402h-0.6777V158.5723z M184.1738,160.0713h0.6777v3.8564h-0.6777V160.0713z"/>
	<path class="st0" d="M185.958,160.0713h0.5889l0.0449,0.7412c0.2852-0.4639,0.8477-0.8477,1.499-0.8477
		c1.0264,0,1.3926,0.7139,1.3926,1.6689v2.2939h-0.6777v-2.2314c0-0.8662-0.3398-1.1514-0.9023-1.1514
		c-0.5527,0-1.2676,0.4814-1.2676,1.1064v2.2764h-0.6777V160.0713z"/>
	<path class="st0" d="M190.3633,161.9727c0-1.2402,0.9199-2.0078,1.8662-2.0078c0.9639,0,1.6426,0.624,1.6426,1.499
		c0,0.1338-0.0273,0.3037-0.0537,0.4375h-2.7852c-0.0537,0.6787,0.2676,1.5801,1.5,1.5801c0.4365,0,0.9727-0.2139,1.2666-0.5v0.5986
		c-0.3652,0.2939-0.9365,0.4551-1.499,0.4551C191.167,164.0352,190.3633,163.1689,190.3633,161.9727z M193.2197,161.4287
		c0.0811-0.5186-0.3301-0.9287-0.9639-0.9287c-0.5439,0-1.0439,0.2949-1.1602,0.9287H193.2197z"/>
	<path class="st0" d="M194.5371,163.6426l0.1348-0.5361c0.2588,0.1611,0.7588,0.4014,1.3115,0.4014
		c0.4824,0,0.8574-0.1689,0.8574-0.5977c0-0.3389-0.3486-0.5264-0.9824-0.6875c-0.8213-0.2051-1.1963-0.6426-1.1963-1.1426
		c0-0.6064,0.4648-1.125,1.4111-1.125c0.6426,0,1.1963,0.3213,1.1963,0.3213l-0.1348,0.5186
		c-0.2676-0.1787-0.6777-0.3125-1.0615-0.3125c-0.5273,0-0.7861,0.1963-0.7861,0.5088c0,0.3301,0.3213,0.5264,0.8301,0.6514
		c0.8838,0.2139,1.3486,0.6162,1.3486,1.125c0,0.8125-0.6162,1.2764-1.5,1.2764
		C195.1357,164.0439,194.5371,163.6426,194.5371,163.6426z"/>
	<path class="st0" d="M198.043,163.6426l0.1348-0.5361c0.2588,0.1611,0.7588,0.4014,1.3115,0.4014
		c0.4824,0,0.8574-0.1689,0.8574-0.5977c0-0.3389-0.3486-0.5264-0.9824-0.6875c-0.8213-0.2051-1.1963-0.6426-1.1963-1.1426
		c0-0.6064,0.4648-1.125,1.4111-1.125c0.6426,0,1.1963,0.3213,1.1963,0.3213l-0.1348,0.5186
		c-0.2676-0.1787-0.6777-0.3125-1.0615-0.3125c-0.5273,0-0.7861,0.1963-0.7861,0.5088c0,0.3301,0.3213,0.5264,0.8301,0.6514
		c0.8838,0.2139,1.3486,0.6162,1.3486,1.125c0,0.8125-0.6162,1.2764-1.5,1.2764
		C198.6416,164.0439,198.043,163.6426,198.043,163.6426z"/>
</g>
<line class="st1" x1="145.5583" y1="100.815" x2="62.6128" y2="150.4113"/>
<g>
	<g class="st2">
		<g>
			<g>
				<path class="st3" d="M59.5793,152.3991c1.8989,1.0989,4.9736,1.0989,6.864,0c1.8875-1.0989,1.8818-2.8783-0.02-3.9757
					c-1.9047-1.0989-4.9793-1.0989-6.8697,0C57.6632,149.5209,57.6746,151.3002,59.5793,152.3991L59.5793,152.3991z"/>
			</g>
		</g>
	</g>
</g>
<line class="st1" x1="133.0704" y1="93.6791" x2="90.5078" y2="120.0107"/>
<line class="st4" x1="90.5078" y1="120.0107" x2="66.1712" y2="106.1669"/>
<g>
	<g class="st2">
		<g>
			<g>
				<path class="st3" d="M62.2552,106.9076c1.8989,1.0989,4.9736,1.0989,6.864,0c1.8875-1.0989,1.8818-2.8783-0.02-3.9757
					c-1.9047-1.0989-4.9793-1.0989-6.8697,0C60.3392,104.0294,60.3505,105.8087,62.2552,106.9076L62.2552,106.9076z"/>
			</g>
		</g>
	</g>
</g>
<g>
	<g>
		<g>
			<g class="st2">
				<g>
					<g class="st2">
						<path class="st5" d="M152.2677,13.7541l-1.4786-0.8593c1.2292-0.7093,2.3432-0.7747,3.1463-0.3071l1.4786,0.8594
							C154.6094,12.9802,153.4953,13.044,152.2677,13.7541L152.2677,13.7541z"/>
					</g>
				</g>
				<g>
					<g class="st2">
						<path class="st5" d="M90.5737,94.0924l-1.477-0.8601c-0.7953-0.46-1.2877-1.4417-1.2908-2.8372l1.477,0.8601
							C89.2861,92.6492,89.7814,93.6307,90.5737,94.0924L90.5737,94.0924z"/>
					</g>
				</g>
				<g>
					<polygon class="st6" points="89.2829,91.2552 87.8059,90.3951 87.7029,54.4094 89.1844,55.2679 					"/>
				</g>
				<g>
					<polygon class="st6" points="93.5894,47.6304 92.1124,46.7719 150.7891,12.8948 152.2677,13.7541 					"/>
				</g>
				<g>
					<g class="st2">
						<path class="st6" d="M89.1844,55.2679l-1.4816-0.8585c-0.0077-2.8064,1.9648-6.2251,4.4095-7.6376l1.477,0.8585
							C91.1461,49.0412,89.1737,52.4615,89.1844,55.2679L89.1844,55.2679z"/>
					</g>
				</g>
				<g>
					<path class="st7" d="M152.2677,13.7541c2.4401-1.4087,4.4295-0.2754,4.4357,2.5295l0.103,35.9871
						c0.0077,2.8049-1.9678,6.2267-4.4079,7.6346L93.7217,93.7847c-2.4433,1.4109-4.4295,0.2738-4.4388-2.5295l-0.0985-35.9873
						c-0.0107-2.8064,1.9617-6.2267,4.4049-7.6376L152.2677,13.7541z"/>
				</g>
			</g>
		</g>
		<g>
			<path class="st3" d="M108.3613,60.8668c0.0016,9.2345,6.5035,12.9872,14.4949,8.3714
				c7.996-4.6142,14.5026-15.8781,14.5026-25.1127c0-9.2313-6.5067-12.9856-14.5026-8.3683
				C114.8648,40.3714,108.3613,51.6353,108.3613,60.8668z M112.4724,67.7257c-1.5755-1.4525-2.5602-3.7925-2.7003-6.8774
				l5.6728-3.2756c0.0815,1.7386,0.3568,3.3264,0.8108,4.7449C114.8648,63.9393,113.5863,65.7641,112.4724,67.7257z
				 M129.3568,54.6925c0.403-1.8941,0.6199-3.7465,0.6584-5.5297l5.9313-3.4248c-0.1431,3.2479-1.1263,6.7235-2.7032,9.9977
				C132.103,55.0403,130.789,54.6925,129.3568,54.6925z M133.4738,37.4989c1.4417,1.4632,2.3357,3.7187,2.4726,6.645l-5.9466,3.4341
				c-0.0662-1.5046-0.277-2.8956-0.6247-4.1618C130.8952,41.6546,132.2861,39.6575,133.4738,37.4989z M122.0362,52.1754
				l-5.2266,3.0187c0.0323-1.3893,0.1815-2.8249,0.4555-4.2926c1.5032-0.1431,3.111-0.637,4.7711-1.4863V52.1754z M117.6404,49.1428
				c0.8616-3.5249,2.3603-7.1375,4.3958-10.55v9.2299C120.5068,48.5936,119.0237,49.0337,117.6404,49.1428z M127.6951,43.5194
				c-1.3494,1.3986-2.7971,2.5925-4.2835,3.5187v-8.6853C125.3625,39.3713,126.8211,41.1453,127.6951,43.5194z M128.0981,44.8086
				c0.2831,1.0925,0.4662,2.2818,0.5278,3.5619l-5.2143,3.0109v-2.7526C125.0364,47.6212,126.6149,46.3273,128.0981,44.8086z
				 M128.0842,54.7724c-1.4816,0.1969-3.054,0.7263-4.6726,1.5909v-3.3895l5.2266-3.0171
				C128.6027,51.5107,128.4166,53.1293,128.0842,54.7724z M127.6766,56.5296c-0.8771,3.3541-2.3295,6.7866-4.265,10.0284v-8.6068
				C124.8918,57.165,126.3304,56.6926,127.6766,56.5296z M117.9651,62.17c1.2878-1.3448,2.6602-2.4956,4.0711-3.4095v8.036
				C120.2344,65.8564,118.8574,64.2702,117.9651,62.17z M117.5189,60.9252c-0.3847-1.2446-0.6215-2.6341-0.6938-4.1496
				l5.2111-3.0064v3.3957C120.4668,58.1727,118.9466,59.4466,117.5189,60.9252z M109.7722,59.2558
				c0.1353-3.0848,1.0277-6.3727,2.471-9.5006c1.0969,0.7293,2.3678,1.1232,3.7541,1.1862
				c-0.3402,1.7217-0.5324,3.4203-0.5662,5.0465L109.7722,59.2558z M120.5283,38.9437c-1.8693,3.3232-3.2756,6.7989-4.131,10.2007
				c-1.2155-0.0939-2.3202-0.4739-3.2772-1.1478C115.0294,44.4548,117.6112,41.236,120.5283,38.9437z M132.5985,36.7526
				c-1.054,1.9587-2.2864,3.7695-3.6481,5.3758c-0.9615-2.5355-2.5463-4.4387-4.6618-5.5143
				C127.575,35.131,130.4922,35.2772,132.5985,36.7526z M124.8748,66.2919c1.8079-3.1987,3.1819-6.5437,4.0572-9.8269
				c1.2571,0.0337,2.411,0.3661,3.4095,1.0015C130.3922,60.9545,127.7904,64.0839,124.8748,66.2919z M113.3755,68.4166
				c0.9831-1.7556,2.1079-3.388,3.3386-4.8543c0.9663,2.2511,2.4633,3.9435,4.4004,4.945
				C118.0866,69.789,115.3833,69.6874,113.3755,68.4166z"/>
			<g>
				<g>
					<path class="st8" d="M139.802,26.8489v12.0855c0,1.2985,0.911,1.8218,2.0387,1.1709l10.4639-6.042
						c1.1277-0.6508,2.0385-2.2248,2.0385-3.5233V18.4529c0-1.2216-0.8-1.754-1.8277-1.2924
						c-0.0693,0.0369-0.1416,0.0785-0.2108,0.1185l-10.4639,6.0419C140.7114,23.9733,139.802,25.5442,139.802,26.8489z"/>
				</g>
				<g>
					<path class="st7" d="M148.6366,20.3115v15.8689l1.5678-0.9032V19.4068c0-0.5016,0.3493-1.114,0.7846-1.3633l1.5263-0.8831
						c-0.0693,0.0369-0.1416,0.0785-0.2108,0.1185l-3.5264,2.0371C148.6828,19.6468,148.6366,19.9822,148.6366,20.3115z"/>
				</g>
				<g>
					<path class="st7" d="M139.802,35.3449v1.8755c0.1032-0.123,0.2169-0.2292,0.3447-0.3016l14.1964-8.1959v-1.811l-14.1964,8.1976
						C140.0298,35.1771,139.9205,35.251,139.802,35.3449z"/>
				</g>
				<g>
					<path class="st7" d="M139.802,30.6876v1.8079l3.6142-2.0863c1.2924-0.7463,2.3494-2.5786,2.3494-4.0727v-5.2834l-1.5648,0.9047
						v5.2834c0,0.4939-0.3554,1.1109-0.7846,1.3601L139.802,30.6876z"/>
				</g>
			</g>
			<path class="st5" d="M133.4693,66.8411c0,0.4985,0.3493,0.7031,0.78,0.4523l19.306-11.1454
				c0.4355-0.2508,0.7878-0.8585,0.7878-1.3601v-1.2432c0-0.5015-0.3523-0.7-0.7878-0.4507l-19.306,11.1454
				c-0.4308,0.2508-0.78,0.8555-0.78,1.3556V66.8411z"/>
			<path class="st5" d="M114.6479,77.7065c0,0.5015,0.3524,0.7031,0.78,0.4523l13.9273-8.0376c0.4323-0.2522,0.78-0.8553,0.78-1.357
				v-1.2432c0-0.5046-0.3477-0.7046-0.78-0.4539l-13.9273,8.0392c-0.4276,0.2492-0.78,0.8555-0.78,1.357V77.7065z"/>
		</g>
	</g>
	<g>
		<g>
			<g class="st2">
				<g>
					<g class="st2">
						<path class="st5" d="M176.9589,29.8817l-1.4786-0.8593c1.2292-0.7093,2.3432-0.7747,3.1463-0.3071l1.4786,0.8594
							C179.3006,29.1079,178.1866,29.1717,176.9589,29.8817L176.9589,29.8817z"/>
					</g>
				</g>
				<g>
					<g class="st2">
						<path class="st5" d="M115.265,110.22l-1.477-0.8601c-0.7953-0.4601-1.2877-1.4417-1.2908-2.8372l1.477,0.8601
							C113.9773,108.7769,114.4726,109.7584,115.265,110.22L115.265,110.22z"/>
					</g>
				</g>
				<g>
					<polygon class="st6" points="113.9742,107.3829 112.4971,106.5228 112.3941,70.5371 113.8757,71.3956 					"/>
				</g>
				<g>
					<polygon class="st6" points="118.2806,63.758 116.8036,62.8995 175.4803,29.0225 176.9589,29.8817 					"/>
				</g>
				<g>
					<g class="st2">
						<path class="st6" d="M113.8757,71.3956l-1.4816-0.8585c-0.0077-2.8064,1.9648-6.2251,4.4095-7.6376l1.477,0.8585
							C115.8373,65.1689,113.865,68.5891,113.8757,71.3956L113.8757,71.3956z"/>
					</g>
				</g>
				<g>
					<path class="st8" d="M176.9589,29.8817c2.4401-1.4087,4.4295-0.2754,4.4357,2.5295l0.103,35.9871
						c0.0077,2.8049-1.9678,6.2267-4.4079,7.6346l-58.6767,33.8794c-2.4433,1.4109-4.4295,0.2738-4.4388-2.5295l-0.0985-35.9873
						c-0.0107-2.8064,1.9617-6.2267,4.4049-7.6376L176.9589,29.8817z"/>
				</g>
			</g>
		</g>
		<g>
			<path class="st3" d="M133.0525,76.9944c0.0016,9.2345,6.5035,12.9872,14.4949,8.3714
				c7.996-4.6142,14.5027-15.8781,14.5027-25.1127c0-9.2313-6.5067-12.9856-14.5027-8.3683
				C139.556,56.4991,133.0525,67.7629,133.0525,76.9944z M137.1637,83.8534c-1.5755-1.4525-2.5602-3.7925-2.7003-6.8774
				l5.6727-3.2756c0.0815,1.7386,0.3569,3.3264,0.8108,4.7449C139.556,80.067,138.2775,81.8917,137.1637,83.8534z M154.048,70.8202
				c0.403-1.8941,0.62-3.7465,0.6584-5.5297l5.9313-3.4248c-0.1431,3.2479-1.1263,6.7235-2.7032,9.9977
				C156.7942,71.1679,155.4803,70.8202,154.048,70.8202z M158.1651,53.6266c1.4417,1.4632,2.3357,3.7187,2.4726,6.645
				l-5.9466,3.4341c-0.0662-1.5046-0.277-2.8956-0.6247-4.1618C155.5865,57.7823,156.9773,55.7852,158.1651,53.6266z
				 M146.7274,68.303l-5.2266,3.0187c0.0323-1.3893,0.1815-2.8249,0.4555-4.2926c1.5032-0.1431,3.111-0.637,4.7711-1.4863V68.303z
				 M142.3316,65.2705c0.8616-3.5249,2.3603-7.1375,4.3958-10.55v9.2299C145.1981,64.7213,143.7149,65.1613,142.3316,65.2705z
				 M152.3863,59.6471c-1.3494,1.3986-2.7971,2.5925-4.2835,3.5187v-8.6853C150.0538,55.4989,151.5124,57.2729,152.3863,59.6471z
				 M152.7893,60.9363c0.2831,1.0925,0.4662,2.2818,0.5278,3.5619l-5.2143,3.0109v-2.7526
				C149.7276,63.7489,151.3061,62.4549,152.7893,60.9363z M152.7755,70.9001c-1.4816,0.1969-3.054,0.7263-4.6726,1.5909v-3.3895
				l5.2266-3.0171C153.2939,67.6383,153.1079,69.257,152.7755,70.9001z M152.3679,72.6572
				c-0.8771,3.3541-2.3295,6.7866-4.265,10.0284v-8.6068C149.583,73.2926,151.0216,72.8203,152.3679,72.6572z M142.6563,78.2977
				c1.2878-1.3448,2.6602-2.4956,4.0711-3.4095v8.036C144.9257,81.9841,143.5487,80.3978,142.6563,78.2977z M142.2101,77.0529
				c-0.3847-1.2447-0.6215-2.6341-0.6938-4.1496l5.2111-3.0064v3.3957C145.1581,74.3003,143.6378,75.5743,142.2101,77.0529z
				 M134.4634,75.3835c0.1353-3.0848,1.0277-6.3727,2.471-9.5006c1.0969,0.7293,2.3678,1.1232,3.7541,1.1862
				c-0.3401,1.7217-0.5323,3.4202-0.5662,5.0465L134.4634,75.3835z M145.2195,55.0713c-1.8693,3.3232-3.2756,6.7989-4.131,10.2007
				c-1.2155-0.0939-2.3202-0.4739-3.2772-1.1478C139.7207,60.5824,142.3025,57.3637,145.2195,55.0713z M157.2897,52.8803
				c-1.054,1.9587-2.2864,3.7695-3.6481,5.3758c-0.9615-2.5355-2.5463-4.4387-4.6618-5.5143
				C152.2663,51.2586,155.1834,51.4048,157.2897,52.8803z M149.566,82.4195c1.8079-3.1987,3.1819-6.5437,4.0572-9.8269
				c1.2571,0.0337,2.411,0.3661,3.4095,1.0015C155.0834,77.0822,152.4816,80.2116,149.566,82.4195z M138.0667,84.5442
				c0.9831-1.7556,2.1079-3.388,3.3386-4.8543c0.9663,2.2511,2.4633,3.9435,4.4004,4.945
				C142.7778,85.9167,140.0745,85.815,138.0667,84.5442z"/>
			<g>
				<g>
					<path class="st3" d="M164.4932,42.9765V55.062c0,1.2985,0.9109,1.8218,2.0387,1.1709l10.4639-6.042
						c1.1277-0.6508,2.0385-2.2248,2.0385-3.5233V34.5805c0-1.2216-0.8-1.754-1.8277-1.2924
						c-0.0693,0.0369-0.1416,0.0785-0.2108,0.1185l-10.4639,6.0419C165.4026,40.1009,164.4932,41.6719,164.4932,42.9765z"/>
				</g>
				<g>
					<path class="st8" d="M173.3279,36.4391v15.8689l1.5678-0.9032V35.5345c0-0.5016,0.3493-1.114,0.7846-1.3633l1.5263-0.8831
						c-0.0693,0.0369-0.1416,0.0785-0.2108,0.1185l-3.5264,2.0371C173.374,35.7744,173.3279,36.1099,173.3279,36.4391z"/>
				</g>
				<g>
					<path class="st8" d="M164.4932,51.4726v1.8755c0.1032-0.123,0.2169-0.2292,0.3447-0.3016l14.1964-8.1959v-1.811
						l-14.1964,8.1977C164.7211,51.3048,164.6117,51.3787,164.4932,51.4726z"/>
				</g>
				<g>
					<path class="st8" d="M164.4932,46.8152v1.8079l3.6142-2.0863c1.2924-0.7463,2.3494-2.5786,2.3494-4.0727v-5.2834
						l-1.5648,0.9047v5.2834c0,0.4939-0.3554,1.1109-0.7846,1.3601L164.4932,46.8152z"/>
				</g>
			</g>
			<path class="st9" d="M158.1605,82.9687c0,0.4985,0.3493,0.7031,0.78,0.4523l19.306-11.1454
				c0.4355-0.2508,0.7878-0.8585,0.7878-1.3601v-1.2432c0-0.5015-0.3523-0.7-0.7878-0.4508l-19.306,11.1454
				c-0.4307,0.2508-0.78,0.8555-0.78,1.3556V82.9687z"/>
			<path class="st9" d="M139.3391,93.8342c0,0.5015,0.3524,0.7031,0.78,0.4523l13.9273-8.0376c0.4323-0.2522,0.78-0.8553,0.78-1.357
				v-1.2432c0-0.5046-0.3477-0.7046-0.78-0.4539l-13.9273,8.0392c-0.4276,0.2492-0.78,0.8555-0.78,1.357V93.8342z"/>
		</g>
	</g>
	<g>
		<g>
			<g class="st2">
				<g>
					<g class="st2">
						<path class="st0" d="M204.8834,47.6109l-1.4786-0.8593c1.2292-0.7093,2.3432-0.7747,3.1463-0.3071l1.4786,0.8594
							C207.2251,46.837,206.111,46.9008,204.8834,47.6109L204.8834,47.6109z"/>
					</g>
				</g>
				<g>
					<g class="st2">
						<path class="st0" d="M143.1894,127.9491l-1.477-0.8601c-0.7953-0.46-1.2877-1.4417-1.2908-2.8372l1.477,0.8601
							C141.9018,126.506,142.3971,127.4875,143.1894,127.9491L143.1894,127.9491z"/>
					</g>
				</g>
				<g>
					<polygon class="st0" points="141.8986,125.112 140.4216,124.2519 140.3186,88.2662 141.8002,89.1247 					"/>
				</g>
				<g>
					<polygon class="st0" points="146.2051,81.4871 144.7281,80.6286 203.4048,46.7516 204.8834,47.6109 					"/>
				</g>
				<g>
					<g class="st2">
						<path class="st0" d="M141.8002,89.1247l-1.4816-0.8585c-0.0077-2.8064,1.9648-6.2251,4.4095-7.6376l1.477,0.8585
							C143.7618,82.898,141.7894,86.3182,141.8002,89.1247L141.8002,89.1247z"/>
					</g>
				</g>
				<g>
					<path class="st9" d="M204.8834,47.6109c2.4401-1.4087,4.4295-0.2754,4.4357,2.5295l0.103,35.9871
						c0.0077,2.8049-1.9678,6.2267-4.4079,7.6346l-58.6767,33.8794c-2.4433,1.4109-4.4295,0.2738-4.4388-2.5295l-0.0985-35.9873
						c-0.0107-2.8064,1.9617-6.2267,4.4049-7.6376L204.8834,47.6109z"/>
				</g>
			</g>
		</g>
		<g>
			<path class="st5" d="M160.977,94.7235c0.0016,9.2345,6.5035,12.9872,14.4949,8.3714
				c7.996-4.6142,14.5027-15.8781,14.5027-25.1127c0-9.2313-6.5067-12.9856-14.5027-8.3683
				C167.4805,74.2282,160.977,85.4921,160.977,94.7235z M165.0881,101.5825c-1.5755-1.4525-2.5602-3.7925-2.7003-6.8774
				l5.6727-3.2756c0.0815,1.7386,0.3569,3.3264,0.8108,4.7449C167.4805,97.7961,166.202,99.6208,165.0881,101.5825z
				 M181.9724,88.5493c0.403-1.8941,0.62-3.7465,0.6584-5.5297l5.9313-3.4248c-0.1431,3.2479-1.1263,6.7234-2.7032,9.9977
				C184.7187,88.897,183.4047,88.5493,181.9724,88.5493z M186.0896,71.3557c1.4417,1.4632,2.3357,3.7187,2.4726,6.645
				l-5.9466,3.4341c-0.0662-1.5046-0.277-2.8956-0.6247-4.1618C183.5109,75.5114,184.9018,73.5143,186.0896,71.3557z
				 M174.6519,86.0321l-5.2266,3.0187c0.0323-1.3893,0.1815-2.8249,0.4555-4.2926c1.5032-0.1431,3.111-0.637,4.7711-1.4863V86.0321z
				 M170.2561,82.9996c0.8616-3.5249,2.3603-7.1375,4.3958-10.55v9.2299C173.1225,82.4504,171.6394,82.8904,170.2561,82.9996z
				 M180.3108,77.3762c-1.3494,1.3986-2.7971,2.5925-4.2835,3.5187v-8.6853C177.9782,73.228,179.4368,75.0021,180.3108,77.3762z
				 M180.7138,78.6654c0.2831,1.0925,0.4662,2.2818,0.5278,3.5619l-5.2143,3.0109v-2.7526
				C177.6521,81.478,179.2306,80.184,180.7138,78.6654z M180.6999,88.6292c-1.4816,0.1969-3.054,0.7263-4.6726,1.5909v-3.3895
				l5.2266-3.0171C181.2184,85.3674,181.0323,86.9861,180.6999,88.6292z M180.2923,90.3863
				c-0.8771,3.3541-2.3295,6.7866-4.265,10.0284v-8.6068C177.5075,91.0218,178.9461,90.5494,180.2923,90.3863z M170.5808,96.0268
				c1.2878-1.3448,2.6602-2.4956,4.0711-3.4095v8.036C172.8501,99.7132,171.4731,98.1269,170.5808,96.0268z M170.1346,94.782
				c-0.3847-1.2446-0.6215-2.6341-0.6938-4.1496l5.2111-3.0064v3.3957C173.0825,92.0294,171.5623,93.3034,170.1346,94.782z
				 M162.3879,93.1126c0.1353-3.0848,1.0277-6.3727,2.471-9.5006c1.0969,0.7293,2.3678,1.1232,3.7541,1.1862
				c-0.3402,1.7217-0.5324,3.4203-0.5662,5.0465L162.3879,93.1126z M173.144,72.8004c-1.8693,3.3232-3.2756,6.7989-4.131,10.2007
				c-1.2155-0.0939-2.3202-0.4739-3.2772-1.1478C167.6452,78.3115,170.2269,75.0928,173.144,72.8004z M185.2142,70.6094
				c-1.054,1.9587-2.2864,3.7695-3.6481,5.3758c-0.9615-2.5355-2.5463-4.4387-4.6618-5.5143
				C180.1907,68.9877,183.1079,69.1339,185.2142,70.6094z M177.4905,100.1486c1.8079-3.1987,3.1819-6.5437,4.0572-9.8269
				c1.2571,0.0337,2.411,0.3661,3.4095,1.0015C183.0079,94.8113,180.4061,97.9407,177.4905,100.1486z M165.9912,102.2733
				c0.9831-1.7556,2.1079-3.388,3.3386-4.8543c0.9663,2.2511,2.4633,3.9435,4.4004,4.945
				C170.7023,103.6458,167.999,103.5442,165.9912,102.2733z"/>
			<g>
				<g>
					<path class="st7" d="M192.4177,60.7056v12.0855c0,1.2985,0.9109,1.8218,2.0387,1.1709l10.4639-6.042
						c1.1277-0.6508,2.0385-2.2248,2.0385-3.5233V52.3096c0-1.2216-0.8-1.754-1.8277-1.2924
						c-0.0693,0.0369-0.1416,0.0785-0.2108,0.1185l-10.4639,6.0419C193.3271,57.83,192.4177,59.401,192.4177,60.7056z"/>
				</g>
				<g>
					<path class="st9" d="M201.2523,54.1682v15.8689l1.5678-0.9032V53.2636c0-0.5016,0.3493-1.114,0.7846-1.3633l1.5263-0.8831
						c-0.0693,0.0369-0.1416,0.0785-0.2108,0.1185l-3.5264,2.0371C201.2985,53.5035,201.2523,53.839,201.2523,54.1682z"/>
				</g>
				<g>
					<path class="st9" d="M192.4177,69.2017v1.8755c0.1032-0.123,0.2169-0.2292,0.3447-0.3016l14.1964-8.1959v-1.811
						l-14.1964,8.1976C192.6455,69.0339,192.5362,69.1078,192.4177,69.2017z"/>
				</g>
				<g>
					<path class="st9" d="M192.4177,64.5443v1.8079l3.6142-2.0863c1.2924-0.7463,2.3494-2.5786,2.3494-4.0727v-5.2834
						l-1.5648,0.9047v5.2834c0,0.4939-0.3554,1.1109-0.7846,1.3601L192.4177,64.5443z"/>
				</g>
			</g>
			<path class="st3" d="M186.085,100.6978c0,0.4985,0.3493,0.7031,0.78,0.4523l19.306-11.1454
				c0.4355-0.2508,0.7878-0.8585,0.7878-1.3601v-1.2432c0-0.5015-0.3523-0.7-0.7878-0.4508l-19.306,11.1454
				c-0.4307,0.2508-0.78,0.8555-0.78,1.3556V100.6978z"/>
			<path class="st3" d="M167.2636,111.5633c0,0.5015,0.3524,0.7031,0.78,0.4523l13.9273-8.0376
				c0.4323-0.2522,0.78-0.8553,0.78-1.357v-1.2432c0-0.5046-0.3477-0.7046-0.78-0.4539l-13.9273,8.0392
				c-0.4276,0.2492-0.78,0.8555-0.78,1.357V111.5633z"/>
		</g>
	</g>
</g>
</svg>
