<?xml version="1.0" encoding="utf-8"?>
<!-- Generator: Adobe Illustrator 21.1.0, SVG Export Plug-In . SVG Version: 6.00 Build 0)  -->
<svg version="1.1" id="Layer_1" xmlns="http://www.w3.org/2000/svg" xmlns:xlink="http://www.w3.org/1999/xlink" x="0px" y="0px"
	 viewBox="0 0 269 176" style="enable-background:new 0 0 269 176;" xml:space="preserve">
<style type="text/css">
	.st0{fill:none;stroke:#B6E8FB;stroke-width:2;stroke-miterlimit:10;}
	.st1{enable-background:new    ;}
	.st2{fill:#B6E8FB;}
	.st3{fill:#666666;}
	.st4{fill:#00A7E1;}
	.st5{fill:#E9E9E9;stroke:#E9E9E9;stroke-width:0.9192;stroke-miterlimit:10;}
	.st6{fill:#E9E9E9;stroke:#FFFFFF;stroke-width:0.9192;stroke-miterlimit:10;}
	.st7{fill:#003058;}
	.st8{fill:#DAD9D9;stroke:#E9E9E9;stroke-width:0.9192;stroke-miterlimit:10;}
	.st9{fill:#FFFFFF;}
	.st10{fill:none;stroke:#00A7E1;stroke-width:0.75;stroke-linecap:round;stroke-linejoin:round;stroke-miterlimit:10;}
	.st11{fill:#FFFFFF;stroke:#C9CACC;stroke-width:0.9192;stroke-miterlimit:10;}
	.st12{fill:#C9CACC;stroke:#FFFFFF;stroke-width:0.9192;stroke-miterlimit:10;}
	.st13{fill:#C9CACC;}
	.st14{fill:none;stroke:#B03478;stroke-miterlimit:10;}
	.st15{fill:#A8C628;}
</style>
<g>
	<line class="st0" x1="158.8588" y1="106.0796" x2="239.4494" y2="154.2678"/>
	<g>
		<g class="st1">
			<g>
				<g>
					<path class="st2" d="M242.3969,156.1992c-1.845,1.0677-4.8324,1.0677-6.6691,0c-1.8339-1.0677-1.8284-2.7965,0.0194-3.8628
						c1.8506-1.0677,4.8379-1.0677,6.6747,0C244.2585,153.4027,244.2475,155.1315,242.3969,156.1992L242.3969,156.1992z"/>
				</g>
			</g>
		</g>
	</g>
	<line class="st0" x1="201" y1="131" x2="251" y2="103"/>
	<g>
		<g class="st1">
			<g>
				<g>
					<path class="st2" d="M255.7969,103.9992c-1.845,1.0677-4.8324,1.0677-6.6691,0c-1.8339-1.0677-1.8284-2.7965,0.0194-3.8628
						c1.8506-1.0677,4.8379-1.0677,6.6747,0C257.6585,101.2027,257.6475,102.9315,255.7969,103.9992L255.7969,103.9992z"/>
				</g>
			</g>
		</g>
	</g>
</g>
<g>
	<line class="st0" x1="94.7921" y1="94" x2="14.5765" y2="46.036"/>
	<g>
		<g class="st1">
			<g>
				<g>
					<path class="st2" d="M11.254,43.8804c1.845-1.0677,4.8324-1.0677,6.6691,0c1.8339,1.0677,1.8284,2.7965-0.0194,3.8628
						c-1.8506,1.0677-4.8379,1.0677-6.6747,0C9.3924,46.6769,9.4034,44.9481,11.254,43.8804L11.254,43.8804z"/>
				</g>
			</g>
		</g>
	</g>
	<line class="st0" x1="52.6509" y1="69.0796" x2="40" y2="76"/>
	<g>
		<g class="st1">
			<g>
				<g>
					<path class="st2" d="M35.854,74.0804c1.845-1.0677,4.8324-1.0677,6.6691,0c1.8339,1.0677,1.8284,2.7965-0.0194,3.8628
						c-1.8506,1.0677-4.8379,1.0677-6.6747,0C33.9924,76.8769,34.0034,75.1481,35.854,74.0804L35.854,74.0804z"/>
				</g>
			</g>
		</g>
	</g>
</g>
<g>
	<path class="st3" d="M78.0024,157v-1.0723l2.5132-2.6094c0.8965-0.9443,1.7446-1.8887,1.7446-3.0889
		c0-1.1689-0.7681-1.585-1.5527-1.585c-0.7842,0-1.6323,0.3359-2.4648,1.041v-1.6016c0.5283-0.4639,1.793-0.9766,2.8013-0.9766
		c1.8086,0,3.1694,1.0732,3.1694,2.8818c0,1.665-1.0728,2.833-1.9531,3.6338l-1.9688,1.8564h4.1299V157H78.0024z"/>
	<path class="st3" d="M91.6689,154.6465V157h-1.8564v-2.3535h-4.418v-0.9922l4.7539-6.3379h1.5205v5.9707h1.7446v1.3594H91.6689z
		 M89.8125,149.7969l-2.6094,3.4902h2.6094V149.7969z"/>
	<path class="st3" d="M99.2842,157l-1.7769-2.3848L95.7148,157h-1.9531l2.7373-3.5059l-2.5771-3.4092h1.9531l1.6807,2.2256
		l1.6963-2.2256h1.8892l-2.5771,3.3457L101.3008,157H99.2842z"/>
	<path class="st3" d="M104.6113,157h-2.0005c0.624-2.9932,3.041-7.3477,3.5532-8.084h-4.6899v-1.5195h6.7549v0.8799
		C107.4448,149.4287,105.1074,153.9746,104.6113,157z"/>
	<path class="st3" d="M114.084,157l-1.7769-2.3848L110.5146,157h-1.9531l2.7373-3.5059l-2.5771-3.4092h1.9531l1.6807,2.2256
		l1.6963-2.2256h1.8892l-2.5771,3.3457L116.1006,157H114.084z"/>
	<path class="st3" d="M119.6035,157.2715c-1.1846,0-2.2891-0.4316-2.9136-0.9922v-1.584c0.7207,0.6719,1.585,1.168,2.6733,1.168
		c1.1846,0,2.001-0.7363,2.001-1.9199c0-1.0254-0.5923-1.7129-1.6807-1.7129c-0.5767,0-1.0244,0.2402-1.3447,0.5439l-0.7842-0.8799
		l3.041-2.9785h-3.8735v-1.5195h6.3706v0.8965l-2.7051,2.6563c1.5845,0.0957,2.833,1.1523,2.833,3.0254
		C123.2207,156.0391,121.6201,157.2715,119.6035,157.2715z"/>
	<path class="st3" d="M128.1636,157.2715c-1.5366,0-3.6338-0.7832-3.6338-4.5449c0-3.4258,1.4565-5.6191,4.2417-5.6191
		c1.0088,0,1.9048,0.3525,2.2891,0.6406v1.457c-0.5762-0.3682-1.3604-0.6719-2.1128-0.6719c-1.4248,0-2.481,0.8164-2.5449,3.3125
		c0.3521-0.5605,1.2485-1.0723,2.2407-1.0723c1.7446,0,2.9932,1.2813,2.9932,3.2168
		C131.6367,155.9121,130.1162,157.2715,128.1636,157.2715z M126.4189,153.8633c0,1.3594,0.7842,2.0957,1.6646,2.0957
		c1.0405,0,1.6807-0.7998,1.6807-1.9199c0-1.1045-0.5444-1.9375-1.6167-1.9375
		C127.3311,152.1016,126.4189,152.7109,126.4189,153.8633z"/>
	<path class="st3" d="M135.7637,157.2715c-1.1851,0-2.2896-0.4316-2.9141-0.9922v-1.584c0.6724,0.6563,1.585,1.168,2.6738,1.168
		c1.1836,0,1.9688-0.8008,1.9688-1.9365c0-1.04-0.625-1.7607-1.7285-1.7607c-0.8008,0-1.3613,0.3203-1.7134,1.0244l-0.8643-0.4326
		v-5.3613h5.7944v1.5195h-4.29v2.3691c0.3369-0.3037,0.9131-0.5273,1.6162-0.5273c1.7617,0,3.0576,1.2168,3.0576,3.1211
		C139.3643,155.9756,137.7793,157.2715,135.7637,157.2715z"/>
	<path class="st3" d="M143.6777,152.6826h0.6592l0.0303,0.7793c0.3594-0.5498,0.9893-0.8994,1.6992-0.8994
		c1.1895,0,2.0586,1.0195,2.0586,2.2793c0,1.2588-0.8691,2.2783-2.0586,2.2783c-0.6699,0-1.2695-0.3096-1.6289-0.7998v2.6289
		h-0.7598V152.6826z M147.3652,154.8418c0-1.04-0.6699-1.6699-1.4893-1.6699s-1.4893,0.6299-1.4893,1.6699
		c0,1.0391,0.6699,1.668,1.4893,1.668S147.3652,155.8809,147.3652,154.8418z"/>
	<path class="st3" d="M149.1172,152.6826h0.6592l0.0498,0.8291c0.2793-0.5293,0.9492-0.9492,1.6797-0.9492v0.8193
		c-0.8203-0.1494-1.6289,0.3193-1.6289,1.0498V157h-0.7598V152.6826z"/>
	<path class="st3" d="M151.9668,154.8418c0-1.2598,0.959-2.3193,2.3594-2.3193c1.3887,0,2.3477,1.0596,2.3477,2.3193
		c0,1.2686-0.959,2.3184-2.3477,2.3184C152.9258,157.1602,151.9668,156.1104,151.9668,154.8418z M155.9141,154.8418
		c0-0.9395-0.6094-1.709-1.5879-1.709c-0.9902,0-1.5996,0.7695-1.5996,1.709c0,0.9492,0.6191,1.709,1.5996,1.709
		C155.3047,156.5508,155.9141,155.791,155.9141,154.8418z"/>
	<path class="st3" d="M158.1367,153.2021h-0.9697v-0.5195h0.9697v-1.1797h0.7598v1.1797h0.9785v0.5195h-0.9785V157h-0.7598V153.2021
		z"/>
	<path class="st3" d="M160.4268,154.8105c0-1.3887,1.0293-2.248,2.0889-2.248c1.0791,0,1.8389,0.6992,1.8389,1.6797
		c0,0.1494-0.0303,0.3398-0.0596,0.4893h-3.1191c-0.0596,0.7588,0.3008,1.7686,1.6797,1.7686c0.4902,0,1.0898-0.2402,1.4189-0.5596
		v0.6699c-0.4092,0.3291-1.0498,0.5098-1.6787,0.5098C161.3262,157.1201,160.4268,156.1504,160.4268,154.8105z M163.625,154.2012
		c0.0898-0.5791-0.3701-1.0391-1.0801-1.0391c-0.6094,0-1.1689,0.3301-1.2988,1.0391H163.625z"/>
	<path class="st3" d="M165.167,154.8418c0-1.3496,0.9395-2.2793,2.249-2.2793c0.5693,0,1.0195,0.0996,1.5088,0.4395v0.6895
		c-0.4092-0.3789-0.9395-0.5098-1.4385-0.5098c-0.9297,0-1.5605,0.71-1.5605,1.6602c0,0.9688,0.6309,1.6582,1.5605,1.6582
		c0.499,0,1.0293-0.1299,1.4385-0.5098v0.6895c-0.4893,0.3398-0.9395,0.4404-1.5088,0.4404
		C166.1064,157.1201,165.167,156.1904,165.167,154.8418z"/>
	<path class="st3" d="M170.4258,153.2021h-0.9688v-0.5195h0.9688v-1.1797h0.7598v1.1797h0.9805v0.5195h-0.9805V157h-0.7598V153.2021
		z"/>
	<path class="st3" d="M172.957,151.0039h0.7598v0.8291h-0.7598V151.0039z M172.957,152.6826h0.7598V157h-0.7598V152.6826z"/>
	<path class="st3" d="M174.6563,154.8418c0-1.2598,0.96-2.3193,2.3594-2.3193c1.3887,0,2.3486,1.0596,2.3486,2.3193
		c0,1.2686-0.96,2.3184-2.3486,2.3184C175.6162,157.1602,174.6563,156.1104,174.6563,154.8418z M178.6045,154.8418
		c0-0.9395-0.6094-1.709-1.5889-1.709c-0.9902,0-1.5996,0.7695-1.5996,1.709c0,0.9492,0.6201,1.709,1.5996,1.709
		S178.6045,155.791,178.6045,154.8418z"/>
	<path class="st3" d="M180.3066,152.6826h0.6592l0.0498,0.8291c0.3203-0.5195,0.9492-0.9492,1.6797-0.9492
		c1.1484,0,1.5586,0.7988,1.5586,1.8691V157h-0.7598v-2.498c0-0.9707-0.3789-1.29-1.0098-1.29c-0.6191,0-1.418,0.54-1.418,1.2393
		V157h-0.7598V152.6826z"/>
</g>
<g>
	<g>
		<path class="st4" d="M64.168,108.2894c0-1.0993,0.8912-1.5094,1.9906-0.9158c1.0994,0.5936,1.9906,1.9659,1.9906,3.0653
			s-0.8912,1.5094-1.9906,0.9158C65.0592,110.7611,64.168,109.3887,64.168,108.2894z"/>
		<g>
			<path class="st4" d="M120.1951,76.0426v-56.959c0-0.4219-0.4562-0.6861-0.8221-0.4761L64.6774,49.9881
				c-0.3151,0.1808-0.5094,0.5162-0.5094,0.8795v57.5223l3.9795,2.0236l53.1258-29.5085L120.1951,76.0426z"/>
			<polygon class="st5" points="120.4809,78.3557 64.4695,110.1215 64.4695,56.6945 120.4809,24.9288 			"/>
			<polygon class="st6" points="121.7715,79.0909 65.7601,110.8567 65.7601,57.4297 121.7715,25.6639 			"/>
			<polygon class="st4" points="122.7405,79.7279 66.7291,111.4937 66.7291,58.0667 122.7405,26.301 			"/>
			<path class="st4" d="M86.9907,50.8439V45.268c0-0.4226-0.4575-0.6867-0.8234-0.4754L68.6561,54.9027
				c-0.3137,0.1811-0.507,0.5159-0.507,0.8781v5.9414v8.2666v40.4247l-0.5109,1.0802l53.6351-30.5887
				c1.7949-1.0237,2.903-2.9312,2.903-4.9975V30.3257c0-0.4226-0.4575-0.6867-0.8234-0.4754L86.9907,50.8439z"/>
		</g>
	</g>
	<g>
		<path class="st4" d="M101.2671,119.9339c0-1.0994,0.8912-1.5094,1.9906-0.9158c1.0993,0.5936,1.9906,1.9659,1.9906,3.0653
			c0,1.0994-0.8912,1.5094-1.9906,0.9158C102.1583,122.4056,101.2671,121.0332,101.2671,119.9339z"/>
		<g>
			<path class="st7" d="M157.2942,87.687v-56.959c0-0.4219-0.4562-0.6861-0.8221-0.4761l-54.6956,31.3806
				c-0.3151,0.1808-0.5094,0.5162-0.5094,0.8795v57.5223l3.9795,2.0236l53.1259-29.5085L157.2942,87.687z"/>
			<polygon class="st6" points="157.9286,90.0139 101.2671,121.7796 101.2671,68.3527 157.9286,36.5869 			"/>
			<polygon class="st8" points="159.2026,90.7354 102.7423,122.5012 102.7423,69.0742 159.2026,37.3084 			"/>
			<polygon class="st9" points="159.8396,91.3724 103.8281,123.1382 103.8281,69.7112 159.8396,37.9454 			"/>
			<path class="st7" d="M124.0898,62.4884v-5.5759c0-0.4226-0.4575-0.6867-0.8234-0.4754l-17.5112,10.1101
				c-0.3137,0.1811-0.507,0.5159-0.507,0.8781v5.9414v8.2666v40.4247l-0.5109,1.0802l53.6351-30.5887
				c1.7949-1.0237,2.903-2.9312,2.903-4.9975V41.9702c0-0.4226-0.4574-0.6867-0.8234-0.4754L124.0898,62.4884z"/>
			<line class="st10" x1="141.9585" y1="68.2029" x2="125.0439" y2="77.9685"/>
			<line class="st10" x1="139.8365" y1="75.7778" x2="125.0439" y2="84.3182"/>
			<line class="st10" x1="141.9585" y1="80.9024" x2="125.14" y2="90.6125"/>
			<line class="st10" x1="138.683" y1="89.1432" x2="125.0439" y2="97.0177"/>
		</g>
	</g>
	<g>
		<g>
			<path class="st2" d="M198.2166,101.1357V42.7583c0-0.4324-0.4675-0.7032-0.8426-0.488l-56.0577,32.1621
				c-0.3229,0.1853-0.522,0.5291-0.522,0.9014v61.1449l4.8149,0.991l53.7125-31.3504L198.2166,101.1357z"/>
			<polygon class="st11" points="201.0568,103.5204 142.9843,137.1723 142.9843,81.3198 201.0568,48.763 			"/>
			<polygon class="st12" points="202.3626,104.2599 144.4962,136.8168 144.4962,82.0593 202.3626,49.5025 			"/>
			<polygon class="st13" points="203.0154,104.9128 145.6091,137.4697 145.6091,82.7122 203.0154,50.1553 			"/>
			<path class="st2" d="M166.3754,75.3095v-5.7148c0-0.4331-0.4688-0.7038-0.8439-0.4872l-17.9473,10.3619
				c-0.3215,0.1856-0.5196,0.5287-0.5196,0.9v6.0894v8.4724v39.2414l-1.4554,3.2971l55.9026-31.3504
				c1.8396-1.0491,2.9753-3.0042,2.9753-5.122v-46.717c0-0.4331-0.4688-0.7038-0.8439-0.4872L166.3754,75.3095z"/>
			<line class="st14" x1="187.8455" y1="79.6849" x2="175.5746" y2="86.7695"/>
			<line class="st14" x1="189.0844" y1="85.6447" x2="173.9235" y2="94.3979"/>
			<line class="st14" x1="187.6046" y1="93.5173" x2="175.4033" y2="100.5617"/>
			<line class="st14" x1="187.9022" y1="99.343" x2="173.9235" y2="107.4136"/>
		</g>
	</g>
	<path class="st15" d="M157.8977,104.1107c-1.6222-0.0894-2.6278-1.6094-2.1348-4.1815c0.3677-1.9184,1.6269-4.0054,3.1768-5.2605
		c2.8424-2.3013,5.367-1.3277,5.3673,1.698c0,1.8153-0.9196,3.8856-2.2604,5.4451c2.3541-0.6547,4.3329,0.0046,5.1516,1.6157
		c0.6746,1.3277-0.0602,3.9135-1.4372,4.6764l-11.5778,6.4144c-1.377,0.7629-2.1517-1.0066-1.4372-3.084
		C153.81,108.3398,155.5436,106.064,157.8977,104.1107z"/>
</g>
</svg>
