<svg id="66f4357d-ced2-4c3a-b217-5ae9e680ab16" data-name="Layer 1" xmlns="http://www.w3.org/2000/svg" viewBox="0 0 175.75 42"><title>adobe_logo</title><path d="M68.48,30.39l-2.4,11.16H60.56L69.68,1.12h6.54L84.8,41.55H79.22L76.88,30.39Zm7.74-4.5-1.86-9.66c-.54-2.76-1.08-6.36-1.5-9.24h-.24c-.42,2.94-1,6.66-1.56,9.24l-1.92,9.66Z" transform="translate(-0.05 -0.04)" style="fill:#153157;fill-rule:evenodd"/><path d="M105.87,0v34c0,2.22.12,5.46.24,7.5h-4.86L100.89,38h-.18a6.91,6.91,0,0,1-6.12,4c-5.4,0-8.7-5.88-8.7-14.94,0-10.32,4.38-15.18,9-15.18a5.41,5.41,0,0,1,5.22,3.3h.12V0Zm-5.64,23.46c0-.54,0-1.2-.06-1.8-.3-2.64-1.8-4.92-3.84-4.92-3.54,0-4.74,4.92-4.74,10.32,0,6,1.56,10.2,4.56,10.2,1.26,0,2.94-.66,3.9-4.14a8.5,8.5,0,0,0,.18-1.86v-7.8Z" transform="translate(-0.05 -0.04)" style="fill:#153157;fill-rule:evenodd"/><path d="M119.3,42c-5.82,0-10-5-10-15,0-10.62,5-15.12,10.32-15.12,5.76,0,9.9,5.16,9.9,15,0,11.58-5.7,15.12-10.14,15.12Zm.18-4.44c3.48,0,4.26-6.18,4.26-10.62s-.78-10.62-4.38-10.62-4.44,6.24-4.44,10.62c0,4.86.84,10.62,4.5,10.62Z" transform="translate(-0.05 -0.04)" style="fill:#153157;fill-rule:evenodd"/><path d="M132.9,0h5.64V15.69h.12a6.65,6.65,0,0,1,6.12-3.78c5,0,8.1,5.64,8.1,14.58,0,10.44-4.26,15.54-9.06,15.54-2.88,0-4.5-1.56-5.76-4.14h-.24l-.3,3.66h-4.86c.12-2,.24-5.28.24-7.5V0Zm5.64,31.2a5.45,5.45,0,0,0,.24,1.8c.9,3.54,2.64,4.26,3.78,4.26,3.36,0,4.62-4.44,4.62-10.44,0-5.58-1.32-10.08-4.68-10.08-1.86,0-3.36,2.22-3.78,4.32a11.05,11.05,0,0,0-.18,2v8.16Z" transform="translate(-0.05 -0.04)" style="fill:#153157;fill-rule:evenodd"/><path d="M161.2,28.11c.06,7.5,3.3,9.36,6.72,9.36a11.85,11.85,0,0,0,5-1.08l.84,4.08a16.17,16.17,0,0,1-7,1.38c-7.32,0-11.16-5.52-11.16-14.52,0-9.54,4.38-15.42,10.44-15.42S175,17.73,175,25.05c0,1.44-.06,2.34-.12,3.12l-13.68-.06Zm8.46-4c.06-5.16-1.74-7.92-4-7.92-2.94,0-4.26,4.26-4.44,7.92Z" transform="translate(-0.05 -0.04)" style="fill:#153157;fill-rule:evenodd"/><polygon points="28.73 1.19 45.57 1.19 45.57 41.52 28.73 1.19 28.73 1.19" style="fill:#153157;fill-rule:evenodd"/><polygon points="16.86 1.19 0 1.19 0 41.52 16.86 1.19 16.86 1.19" style="fill:#153157;fill-rule:evenodd"/><polygon points="22.79 16.05 33.53 41.52 26.49 41.52 23.28 33.41 15.43 33.41 22.79 16.05 22.79 16.05" style="fill:#153157;fill-rule:evenodd"/><path d="M174.52,11.84a1.3,1.3,0,1,1-1.29,1.3,1.28,1.28,0,0,1,1.29-1.3Zm0,.2a1.1,1.1,0,0,0,0,2.2,1.1,1.1,0,0,0,0-2.2Zm-.24,1.85H174V12.44a2.63,2.63,0,0,1,.41,0,.76.76,0,0,1,.45.11.35.35,0,0,1,.13.3.36.36,0,0,1-.28.35h0c.13,0,.21.14.24.35a1.2,1.2,0,0,0,.09.36h-.24a1.06,1.06,0,0,1-.1-.37.27.27,0,0,0-.31-.25h-.16v.62Zm0-.8h.17c.19,0,.35-.07.35-.25s-.09-.25-.35-.25h-.17v.49Z" transform="translate(-0.05 -0.04)" style="fill:#153157;fill-rule:evenodd"/><path d="M47.84,1.22a1.28,1.28,0,0,1,1.27,1.3,1.28,1.28,0,1,1-2.57,0,1.29,1.29,0,0,1,1.29-1.3Zm0,.2a1.07,1.07,0,0,0-1,1.1,1,1,0,1,0,2.08,0,1.07,1.07,0,0,0-1-1.1Zm-.24,1.85h-.23V1.83a2.58,2.58,0,0,1,.41,0,.76.76,0,0,1,.45.11.35.35,0,0,1,.13.3.36.36,0,0,1-.28.35h0c.13,0,.21.14.24.35a1.19,1.19,0,0,0,.09.36h-.24a1.07,1.07,0,0,1-.1-.37.27.27,0,0,0-.31-.25h-.16v.62Zm0-.8h.17c.19,0,.35-.07.35-.25S48,2,47.76,2h-.17v.49Z" transform="translate(-0.05 -0.04)" style="fill:#153157;fill-rule:evenodd"/></svg>