<svg id="4e564f4f-aec8-4e0a-a070-851a545dce85" data-name="Layer 1" xmlns="http://www.w3.org/2000/svg" viewBox="0 0 150.97 35.14"><title>canary_logo</title><path d="M144.25.16V12.3a4.93,4.93,0,0,1-9.86,0V.16h-6.71s0,6.41,0,12.14c0,7,5.59,11.65,10.62,11.65a7,7,0,0,0,6-2.94v2.48a4.93,4.93,0,0,1-9.33,2.21l-5.83,3.37A11.65,11.65,0,0,0,151,23.49V.16Z" style="fill:#003058"/><path d="M68.81,0A11.65,11.65,0,0,0,57.16,11.65v12.3h6.72V11.65a4.93,4.93,0,0,1,9.86,0v12.3h6.71s0-6.57,0-12.3A11.65,11.65,0,0,0,68.81,0Z" style="fill:#003058"/><path d="M124.48.16a11.64,11.64,0,0,0-13.57,11.49v12.3h6.72V11.65a4.93,4.93,0,0,1,6.85-4.54Z" style="fill:#003058"/><path d="M41.66,0a12,12,0,0,0-12,12c0,6.75,4.79,12,11.2,12a7.12,7.12,0,0,0,6-2.92v2.92h6.72V12A11.68,11.68,0,0,0,41.66,0Zm0,17.32A5.35,5.35,0,1,1,47,12,5.35,5.35,0,0,1,41.66,17.32Z" style="fill:#003058"/><path d="M95.42,0a12,12,0,0,0-12,12c0,6.75,4.79,12,11.2,12a7.12,7.12,0,0,0,6-2.92v2.92h6.72V12A11.68,11.68,0,0,0,95.42,0Zm0,17.32A5.35,5.35,0,1,1,100.77,12,5.35,5.35,0,0,1,95.42,17.32Z" style="fill:#003058"/><path d="M17.57,17.22a5.25,5.25,0,1,1,4.54-7.87L27.91,6A11.94,11.94,0,0,0,6.16,8.42L0,12l6.16,3.56a11.94,11.94,0,0,0,21.75,2.42L22.11,14.6A5.25,5.25,0,0,1,17.57,17.22Z" style="fill:#003058"/></svg>