<svg id="09f93d5e-96e2-477f-bfaf-7469cdf405dc" data-name="Layer 1" xmlns="http://www.w3.org/2000/svg" viewBox="0 0 539.9 108"><title>code42_logo</title><path d="M54.1,81A27,27,0,1,1,80.3,47.3h27.9V0H0V108H108.2V60.7H80.3A27.21,27.21,0,0,1,54.1,81" style="fill:#003058"/><path d="M131.5,54.4c0-20,14.9-33.6,33.6-33.6,13.7,0,21.7,6.8,26.6,14.6l-9.8,5A19.51,19.51,0,0,0,165,30.9c-12.4,0-21.9,9.8-21.9,23.5s9.6,23.5,21.9,23.5a19.42,19.42,0,0,0,16.9-9.5l9.8,5c-5,7.8-13,14.6-26.6,14.6-18.7.1-33.6-13.6-33.6-33.6M234.3,30.9c-13.2,0-21.6,10-21.6,23.5s8.4,23.5,21.6,23.5,21.6-10.1,21.6-23.5-8.5-23.5-21.6-23.5m0-10.1c19.5,0,33.3,14.2,33.3,33.6S253.9,88,234.3,88,201,73.8,201,54.4s13.8-33.6,33.3-33.6m73.5,56.1c14.1,0,22.3-10.1,22.3-22.4,0-12.6-7.8-22.5-22.3-22.5H295V77h12.8Zm-24.1-55h24.2c20.3,0,34,13.5,34,32.6S328.1,87,307.9,87H283.7Zm75.2,0h44.6v10H370.3V48.8h32.5v10H370.3V76.9h33.2v10H358.9ZM436,60.3h14.9V36.5ZM450.9,75H419.8V62l24.7-40.1h23.3V60.3h7.9V75h-7.9V86.9H450.9Zm38-1.2c28.2-20.4,33.4-24.9,33.4-31.3,0-4.5-4.2-6.8-9.3-6.8-6.9,0-12.4,2.7-17.1,7.1l-9.3-11.1c6.9-7.6,17.3-10.8,26.3-10.8,15.3,0,26.3,8.6,26.3,21.6,0,9.9-7.1,18.4-24.6,29.7h25.3V86.8h-51Z" style="fill:#003058"/></svg>