<svg id="78c569ef-2afb-41e4-8fd5-1c483e347e20" data-name="logo" xmlns="http://www.w3.org/2000/svg" viewBox="0 0 345.57 107.26"><title>HTC_logo</title><g id="77f31809-502a-4fcb-9d44-df1e4befda76" data-name="htc reg"><path d="M330.7,99.88v0a7.45,7.45,0,1,1,14.9,0v0a7.45,7.45,0,1,1-14.9,0Zm13.69,0v0a6.2,6.2,0,0,0-6.25-6.28,6.26,6.26,0,0,0-6.24,6.32v0a6.19,6.19,0,0,0,6.24,6.27A6.26,6.26,0,0,0,344.39,99.84Zm-9-3.72h3.25c1.58,0,2.75.77,2.75,2.26a2.18,2.18,0,0,1-1.66,2.2l1.91,2.7H340l-1.7-2.46h-1.5v2.46h-1.38Zm3.12,3.56c.93,0,1.46-.48,1.46-1.17s-.53-1.17-1.46-1.17h-1.74v2.35Z" transform="translate(-0.03 -0.06)" style="fill:#153157"/><path d="M295.37,90.44c-17.06.12-33.2.25-37.69-.15-9.1-.79-15.19-6.75-15.89-15.52a80.83,80.83,0,0,1,0-15c.83-8.53,8-16.66,15.93-17,2.85-.16,10.48-.14,24.28-.08l40.2.08V26s-32,0-41.64-.08c-12.91-.06-19.42-.07-23.54.08-9,.34-16.65,3.57-22.55,9.57-5.58,5.65-8.92,14.66-9.41,23.77a116,116,0,0,0,0,15.16c.93,9.8,4.1,17.49,9.41,22.87A33.47,33.47,0,0,0,257,107c6.74.08,65.17,0,65.17,0V90.29S304.4,90.36,295.37,90.44Z" transform="translate(-0.03 -0.06)" style="fill:#153157"/><path d="M113.93,26.89V43.55h39.65v63.11h16.74V43.55H210V26.89Z" transform="translate(-0.03 -0.06)" style="fill:#153157"/><path d="M96.56,58.39a32.17,32.17,0,0,0-9.42-22.88C80.74,29,71,26.29,64.59,26,59,25.64,37.13,25.74,32,26c-7.24.3-12.52,2.46-15.16,4.44,0,0-.06,0-.06,0V.06H0V107H16.75s-.33-43.76,0-48.52A17,17,0,0,1,32.08,42.6c6.57-.56,26.29-.41,32.47,0,8.5.58,14.77,7.23,15.26,16.17.16,3.29,0,48.19,0,48.19H96.56S96.59,62.23,96.56,58.39Z" transform="translate(-0.03 -0.06)" style="fill:#153157"/></g></svg>