<svg id="c1b44562-4bf9-4e2d-b526-ee13c383ac4f" data-name="Layer 1" xmlns="http://www.w3.org/2000/svg" viewBox="0 0 3071 1023"><title>izotope-logo</title><path d="M507,1c4,1,7.94,2,11.86,3.15C554,14.45,579.13,46.82,577.66,85.29c-1.52,39.79-29.4,71.48-67.31,77.63-6.1,1-8.64,3.34-10.58,9.17q-25.87,77.62-52.54,155c-1.4,4.1-.85,6.3,2.72,9a110.17,110.17,0,0,1,38,53.23c1.5,4.46,3.57,5.6,8.09,5.59,62-.16,124-.07,186-.12,43.82,0,87.64-.26,131.46-.24,3.88,0,6.23-1.11,8.56-4.36a64.17,64.17,0,0,1,115.78,31.06c3.07,29.34-14.25,56.76-42.32,67A63.74,63.74,0,0,1,821,464c-2.2-3.29-4.46-4.09-8.08-4.09q-120.73.13-241.46.07c-25.66,0-51.32.17-77,.08-3.39,0-4.87.92-6,4.24A112.06,112.06,0,0,1,448.8,519.9c-2.93,2.21-3.28,4-2.13,7.4q61.79,182.92,123.47,365.88a8.34,8.34,0,0,0,4.65,4.77c29.21,8.5,47.92,33.62,47.38,64-.51,28.88-20.62,53.5-49.58,60.76-1.22.31-2.39.84-3.59,1.27H548a21.69,21.69,0,0,0-2.75-1c-46.74-10.15-66.74-63.4-38.12-101.76,1.87-2.51,1.87-4.52.93-7.28Q468.86,798,429.8,681.9,407.34,615.25,385,548.57c-1.15-3.43-2.66-4.83-6.57-4.86-16.31-.14-32.17-3.11-47-10.11-8.21-3.89-16-8.74-24.12-13.26-.25.15-.84.47-1.37.86q-69.21,50.49-138.45,100.94c-2.46,1.79-2.5,3.71-2.36,6.38.43,8.28,1.5,16.7.51,24.84-4.21,34.65-30.91,62.63-65.36,69.4-34.25,6.72-69.85-9.31-86.46-40C8.86,673.54,6.53,662.94,3,653q0-10.5,0-21a18.06,18.06,0,0,0,.93-2.76,81.56,81.56,0,0,1,117.7-59.69c3.15,1.58,5.19,1.44,8-.61q67.9-49.77,136-99.26c3-2.18,3.34-4,2.27-7.38a113,113,0,0,1,.28-70.68c1-3.22.31-4.66-2.2-6.51q-76.31-56-152.47-112.31c-2.76-2-5-2.22-8.14-1.12a61.06,61.06,0,0,1-31,2.51,64.07,64.07,0,0,1-53.2-70.88c4.22-34.66,34.35-58.9,70-56.29,32.74,2.4,58.84,32,57.74,65.73-.12,3.64,1,5.68,3.82,7.77Q212.94,264.7,273,309.07q17.65,13,35.25,25.91c21.62-15.71,45.24-24,71.67-23.44,2.91.06,4-1.16,4.9-3.7Q412,227.48,439.27,147.18c1.09-3.19.52-5.06-1.77-7.39C394.06,95.65,414,20.78,473.56,4c3.79-1.07,7.62-2,11.44-3Z" transform="translate(-3 -1)" style="fill:#003058"/><path d="M3074,485c-.52,1.16-1.1,2.29-1.56,3.47a22.33,22.33,0,0,1-43.27-8.22,22,22,0,0,1,18.58-21.47c11.36-1.69,21.45,4.39,25,15.07.36,1.07.81,2.1,1.22,3.15Zm-4.86-4.05a17.64,17.64,0,1,0-18,17.42A17.73,17.73,0,0,0,3069.14,480.95Z" transform="translate(-3 -1)" style="fill:#003058"/><path d="M2463.69,565.34c6.12-5,11.54-9.6,17.22-13.9A59.35,59.35,0,0,1,2519.07,539c14.15.32,28.35-.23,42.44.77,17.43,1.23,32.62,8.74,46.2,19.56,5.6,4.46,11,9.13,16.68,13.54,18.66,14.59,27.2,34.11,27.37,57.36q.38,51.23,0,102.47c-.16,23.27-8.75,42.76-27.33,57.4-6.54,5.15-12.88,10.56-19.5,15.62A87.57,87.57,0,0,1,2550.12,824c-15,0-30-.27-45,.07-13.75.31-25.92-3.51-36.67-12a20.52,20.52,0,0,0-2.05-1.42,5.34,5.34,0,0,0-1.41-.22v4.83c0,22.16.15,44.32-.09,66.48a110.5,110.5,0,0,1-2,19.82c-3,15.43-16.36,24.84-33.16,23.95-16.1-.86-28.33-12.13-29.69-27.62-.58-6.63-1-13.29-1-19.94q-.1-145,0-289.92a199.42,199.42,0,0,1,1.86-23.35c2.17-18.11,19.91-26.76,34.52-25.36C2451.11,540.8,2460.11,549.67,2463.69,565.34Zm3.14,116c0,15,.08,30,0,45,0,6.48,2.23,11.63,7.45,15.52,3.34,2.49,6.66,5,9.82,7.71,6.92,5.91,15,8.45,23.94,8.45,8.16,0,16.38-.61,24.47.13,17.31,1.56,31.92-3.23,44.73-15.21,5.44-5.09,8.62-10.34,8.62-17.61q0-44,0-87.95c0-7.09-2.43-12.93-8.56-17.05-3.44-2.32-6.63-5-9.85-7.67a34.05,34.05,0,0,0-22.2-7.63c-8.49,0-17.05.66-25.47-.14-17.36-1.64-31.93,3.34-44.65,15.33-5.24,4.94-8.39,9.92-8.3,17.18C2467,652,2466.84,666.69,2466.84,681.34Z" transform="translate(-3 -1)" style="fill:#003058"/><path d="M1330.51,421.16c0,7.39-.63,14.41.13,21.28,1.7,15.46-3.29,28.36-11.14,41.63-52.61,89-104.52,178.32-156.65,267.56-.73,1.25-1.36,2.55-2.42,4.57,2.55.12,4.44.28,6.33.28q63,0,126,0c10,0,19.73,1.58,27.35,8.8,10.34,9.79,11.55,22.15,8.34,35.08-3.32,13.37-13.29,19.84-26.06,22.4a76.65,76.65,0,0,1-14.89,1.32q-107.22.12-214.44.06h-5.82c0-14.39-.09-28.18.12-42,0-1.79,1.52-3.62,2.51-5.33q81.66-140.5,163.35-281c1.16-2,2.3-4,4-6.9h-5.82c-40.32,0-80.65.11-121-.11a76.55,76.55,0,0,1-19.69-2.57c-15.45-4.25-23.85-16.16-23.47-31.89.4-16.25,9.21-27.5,25-31.23a70,70,0,0,1,15.81-2q108.47-.19,216.94-.08Z" transform="translate(-3 -1)" style="fill:#003058"/><path d="M2809.27,725.84c-.53,6.26.67,11.26,5.35,15.18a70.83,70.83,0,0,1,8.69,8.24c5.77,6.8,13.08,9,21.74,9q38.48-.28,77,0c13.65.07,27.32.17,40.94.91,26.94,1.47,34.06,24.48,30.13,41.13-3.07,13-12,20.67-27.63,22.65a131.63,131.63,0,0,1-16.42,1.21c-37.82,0-75.63.1-113.45-.24-7.59-.07-15.22-1.49-22.71-2.9a40.63,40.63,0,0,1-19.77-10c-9.19-8.21-18.65-16.11-28-24.19-13.27-11.53-20.65-26.2-21.07-43.68-.74-31.3-.84-62.61-1-93.92a265.23,265.23,0,0,1,.9-27.43,63,63,0,0,1,22.91-43.44c7.64-6.44,15.22-13,22.62-19.67a68.56,68.56,0,0,1,43.85-18.3c23.75-1,47.59-.83,71.37-.19,13.4.36,25.58,5.71,36.22,14,8,6.25,15.64,13,23.9,18.91,18.8,13.43,27.91,32.17,28.73,54.53.8,21.94-.2,43.94-.49,65.91a32.12,32.12,0,0,1-.94,5.91c-3.07,15.06-9.91,22-25,24.5a138.83,138.83,0,0,1-21.85,1.86c-43.32.17-86.63.08-129.95.08Zm118.61-66.27c0-9.06.51-17.75-.24-26.33-.31-3.56-2.67-7.47-5.21-10.17-4.19-4.47-9.26-8.11-14-12.06a24.19,24.19,0,0,0-16.5-5.91c-15.16.23-30.33.12-45.49.06-16.62-.07-25.34,12-35,22.67A7.28,7.28,0,0,0,2810,632c-.57,9.07-1,18.15-1.45,27.53Z" transform="translate(-3 -1)" style="fill:#003058"/><path d="M1658,681.81c0,17.49.14,35,0,52.48-.22,22-8.42,40.48-25.54,54.65-6.93,5.73-13.84,11.5-21,16.94-16,12.18-34.08,18.43-54.31,18.3-15.83-.1-31.66-.21-47.48,0-22.07.34-41.5-6.6-58.6-20.41-6.22-5-12.52-10-18.64-15.09-17-14.29-25.18-32.86-25.3-54.83-.2-35.48-.29-71,.17-106.45.28-21.64,9.14-39.61,26-53.38,7-5.68,13.86-11.47,21-16.89,13.31-10,28.23-16.77,45-17.29q32.93-1,65.91-.06c17.28.52,32.65,7.4,46.29,17.9,7.91,6.09,15.79,12.28,23.26,18.89,15.46,13.68,22.85,31.25,23.16,51.72C1658.21,646.16,1658,664,1658,681.81Zm-66,.13q0-15.74,0-31.48c0-25.62,1.84-22.31-18.53-37.42a38.44,38.44,0,0,0-17.13-7.1c-9.67-1.27-19.66.05-29.4-.91-18.35-1.81-33.59,3.84-46.75,16.52-4.24,4.08-7,8.42-7,14.26q-.06,46,0,91.94a16.33,16.33,0,0,0,6.37,13.5c4.72,3.69,9.09,8,14.28,10.87s11,5.07,16.7,5.65c9.4,1,19-.37,28.44.55,17.81,1.74,32.57-3.64,45.45-15.9,4.83-4.59,7.64-9.37,7.6-16C1591.94,711.59,1592,696.76,1592,681.94Z" transform="translate(-3 -1)" style="fill:#003058"/><path d="M2312,682c0,18,.24,36-.06,54-.35,21.34-8.84,39-25.21,52.77-6.88,5.78-13.86,11.47-21,16.94-16,12.24-34,18.57-54.25,18.48-16.33-.08-32.65-.12-49,0a86.83,86.83,0,0,1-54.78-18.37q-11.51-8.78-22.5-18.26c-16.13-13.88-23.78-31.91-24-52.88q-.49-53,0-106c.21-21.56,8.34-39.84,25.17-53.82q9.42-7.82,19-15.47c15.11-12.13,32.27-19.48,51.7-19.95,20.63-.5,41.31-.48,61.93.25,17.45.62,33,7.44,46.74,18.09,8,6.22,16.05,12.49,23.6,19.27,16.58,14.89,23,34.06,22.82,55.94-.15,16.33,0,32.65,0,49Zm-66,0c0-10.83,0-21.65,0-32.48.08-24.84,1.27-21.18-17.88-36.39-5.51-4.38-11.6-7.29-18.64-7.54-9.48-.34-19,.36-28.45-.55-18.33-1.78-33.58,3.77-46.75,16.51-4.39,4.25-7.09,8.74-7.1,14.72q-.08,45.47,0,90.95a17.37,17.37,0,0,0,7.16,14.68c3.33,2.49,6.65,5,9.83,7.7a35.75,35.75,0,0,0,24.37,8.61c12.16-.13,24.32-.11,36.48,0a35,35,0,0,0,23.91-8.45c3-2.6,6.21-5,9.44-7.38,5.44-3.95,7.74-9.21,7.67-15.89C2245.9,711.64,2246,696.82,2246,682Z" transform="translate(-3 -1)" style="fill:#003058"/><path d="M1775,605.66c-6.86-.58-13.14-1.08-19.4-1.65-20.82-1.9-28.43-18.65-28.44-31.56,0-17.73,10.6-30.1,28.22-32.36,6.25-.8,12.59-.88,19.62-1.34,0-1.59,0-3.35,0-5.11.29-14.31.56-28.63.94-42.94a38.6,38.6,0,0,1,1-6.4c2.84-14.32,10.87-22.83,23.63-25.09,15-2.67,29.46,2.69,35.68,15.1,3.13,6.26,3.7,14,4.46,21.2s.28,14.31.31,21.47,0,14.29,0,22.2c2.18,0,4.1,0,6,0,24.48.27,49,.29,73.43,1,10.15.28,19.77,2.88,26.29,11.95,7.45,10.36,8.61,21.66,4.14,33.17-4.35,11.2-12.67,18.16-25.2,19-5.31.35-10.62.87-15.94.89-22.64.1-45.28,0-68.74,0v5.51c0,40.32-.08,80.64.1,121a64,64,0,0,0,2.23,16.23c2,7.38,6.34,10.22,14,10.27q17.49.1,35,0c11.17,0,15.21-3,18.54-13.64,3.52-11.2,9.76-20.22,21.18-24.25,11.79-4.16,23.34-3.64,33.49,4.67,10.81,8.86,14.32,20.51,12,34-5.46,31.79-30.42,57.82-62.32,63-25.88,4.19-52.24,4.53-78.06,0-31.62-5.6-55.58-31.85-60.05-63.59a204.44,204.44,0,0,1-2-27.35c-.21-39.65-.09-79.31-.09-119Z" transform="translate(-3 -1)" style="fill:#003058"/><path d="M851.11,605c-10.63,0-20.93.12-31.21-.06a105.63,105.63,0,0,1-12.41-1.24c-18.38-2.51-26.55-18.39-26.3-32,.32-17.51,11.1-29.94,28.51-31.57,11.9-1.11,23.95-.93,35.93-.93,12.65,0,25.33.07,37.95.86,21.73,1.35,31,10.61,33.24,32.24a134.78,134.78,0,0,1,.65,13.47q.06,82.73,0,165.47v6.91c7.7,0,14.83-.22,21.94.06,6.8.27,13.61.88,20.38,1.65,12.84,1.48,21,9.06,24.71,21,3.92,12.72,1.13,24.22-8.36,34-7.72,8-17.63,8.87-27.66,9-20.16.3-40.32.23-60.48.23-22.33,0-44.65,0-67-.23-4.8,0-9.59-1-14.37-1.56-17-2.07-26.09-18.15-25.48-32.58.63-14.89,12.2-30,29.18-30.72,11.48-.46,23-.62,34.45-.9,2,0,3.94,0,6.28,0Z" transform="translate(-3 -1)" style="fill:#003058"/><path d="M3046.71,483.65l-.41,8.75h-4.88V469c4.5,0,8.88-.57,13,.23a9.38,9.38,0,0,1,5.83,5c1.64,3.91-1.21,6.44-4.43,8.06l6.15,9.9c-4.08,1.46-6.34.52-8.11-3.18-1.21-2.52-3.64-4.45-5.53-6.64Zm0-3.94c3.17-.9,5.6-1.5,7.92-2.39.23-.09,0-2.75-.44-2.92a64,64,0,0,0-7.48-1.84Z" transform="translate(-3 -1)" style="fill:#003058"/></svg>