<svg id="6838fca6-1d5c-49e1-be92-29cdb0237c87" data-name="5c4f85f0-fc43-4df7-810a-55264ff4a030" xmlns="http://www.w3.org/2000/svg" viewBox="0 0 183 36"><title>McAfee-</title><g id="4c3bc1d1-dd2d-4648-ac21-9d1a3a7bd136" data-name="9813d58e-78bb-40e0-85fe-896d7e9df7e5"><path d="M91.45,23.35l-4.8-2.8-.3.5a5.11,5.11,0,0,1-4.4,2.6,5.5,5.5,0,0,1,0-11,4.81,4.81,0,0,1,4.4,2.6l.4.5,4.8-2.8-.4-.6a10.54,10.54,0,0,0-9.1-4.9c-7.3,0-11.2,5.5-11.2,10.7a11.1,11.1,0,0,0,20.3,5.9Z" style="fill:#c01818"/><path d="M91.25,28.85h6.6l2-4.9h9.9l2,4.9h6.6l-12-28.5h-5.9l1.6,3.8-10.8,24.7m13.5-17.3,2.7,6.7h-5.4Z" style="fill:#c01818"/><path d="M121,28.85h5.8V16.05h3.8v-5.4h-3.8V8.15A2.08,2.08,0,0,1,128.69,6h.16a3.51,3.51,0,0,1,1.6.3l.6.3,2.4-5.2-.7-.3a11.61,11.61,0,0,0-3.6-.6A8,8,0,0,0,123,3a8.1,8.1,0,0,0-2,5.5v2.3h-2.6v5.4h2.5Z" style="fill:#c01818"/><polygon points="43.45 0.15 43.45 28.85 49.75 28.85 49.75 12.45 55.85 16.95 61.95 12.45 61.95 28.85 68.25 28.85 68.25 0.15 55.85 9.55 43.45 0.15" style="fill:#c01818"/><path d="M143.45,7.45c-7.3,0-11.2,5.5-11.2,10.7s3.9,10.7,11.2,10.7h0a12.09,12.09,0,0,0,8.9-4.3l-4.7-2.6a6.09,6.09,0,0,1-4.3,1.9,5.12,5.12,0,0,1-5-3.6h15.7v-1.4C154.05,11,147.85,7.45,143.45,7.45Zm-5,8a4.62,4.62,0,0,1,4.5-3.1,5,5,0,0,1,4.7,3.1Z" style="fill:#c01818"/><path d="M167.05,7.45c-7.3,0-11.2,5.5-11.2,10.7s3.9,10.7,11.2,10.7h0a12.09,12.09,0,0,0,8.9-4.3l-4.7-2.6a6.09,6.09,0,0,1-4.3,1.9,5.12,5.12,0,0,1-5-3.6h15.7v-1.4C177.65,11,171.45,7.45,167.05,7.45Zm-5,8.1a4.62,4.62,0,0,1,4.5-3.1,5,5,0,0,1,4.7,3.1Z" style="fill:#c01818"/><path d="M176.85,6.45h2.4V7h-1v2.6h-.5V7h-1v-.5Z" style="fill:#c01818"/><path d="M179.65,6.45h.7l.8,2.4h0l.8-2.4h.7v3h-.3V7.15h0l-.8,2.3h-.4l-1-2.3h0v2.3h-.5Z" style="fill:#c01818"/><polygon points="6.75 24.55 6.75 10.05 15.85 14.35 15.85 7.35 0.35 0.15 0.35 28.65 15.85 35.85 15.85 28.85 6.75 24.55" style="fill:#c01818"/><polygon points="25.05 24.55 25.05 10.05 15.85 14.35 15.85 7.35 31.35 0.15 31.35 28.65 15.85 35.85 15.85 28.85 25.05 24.55" style="fill:#75160d"/></g></svg>