<svg xmlns="http://www.w3.org/2000/svg" viewBox="0 0 800 164"><defs><style>.cls-1{fill:#153157;}</style></defs><title>Asset 1</title><g id="Layer_2" data-name="Layer 2"><g id="Layer_1_Image" data-name="Layer 1 Image"><path class="cls-1" d="M50,0c8.34,1.92,16.84,3.35,25,5.86,35.42,10.91,62.44,33.2,83.82,62.9,1,1.33,1.25,3.14,2,5.07C147.55,66.62,135.14,59.34,122.26,53S95.84,42.34,80.63,42V87h-9c-19.14,0-38.28-.19-57.42.11C8.31,87.2,3.58,85.79,0,81V0Z"/><path class="cls-1" d="M229,164c-9.31-2.21-18.83-3.79-27.9-6.75C167,146.06,140.77,124.18,120,95.33a11.46,11.46,0,0,1-1.74-5.22c24.78,15.09,49.43,30,80,32.16V77.34c2.05-.14,3.48-.33,4.91-.33q31.72,0,63.44,0C275.42,77,279,80.62,279,89.49c0,20.32-.18,40.63.12,60.94.09,6.16-1.65,10.66-7.11,13.57Z"/><path class="cls-1" d="M800,123q-19.2-.25-38.4-.49c-3.63,0-7.25,0-11.15,0V52.26h47.41V66.09H766.28v13h29.88V93.83H766.28V108H800Z"/><path class="cls-1" d="M323.42,38.1,385,89.6V42h16v83.7L339.74,74.44V122H323.42Z"/><path class="cls-1" d="M601,83.67V122h-15.7V48.43c8.82,7.33,17.07,14.15,25.29,21s16.3,13.65,25.31,21.2V52.11h15.67v73.68Z"/><path class="cls-1" d="M569.41,122.47c-5.85,0-10.81.12-15.75-.1a4.31,4.31,0,0,1-2.85-2.07,27.2,27.2,0,0,1-2.49-6c-.81-2.8-2.29-4-5.37-3.9-7.32.21-14.67-.11-22,.21-1.67.07-4.42,1.65-4.7,2.95-1.69,8-6.6,10.2-14.05,9-2-.34-4.2-.05-7.09-.05,1.82-4.29,3.27-7.77,4.76-11.22,8-18.48,16-36.93,23.88-55.46,1.19-2.8,2.47-4.12,5.74-4.07,9.07.12,9.09-.06,12.81,8.47C551.22,80.64,560.1,101.07,569.41,122.47ZM522.55,96.7h18.56l-9.44-23.85Z"/><path class="cls-1" d="M425.05,52.15h15.78c0,11.76,0,23.21,0,34.67,0,3-.1,6,.06,9,.39,7.52,5.67,13.12,12.72,13.65,7.3.55,13-3.84,14.7-11.4a28.38,28.38,0,0,0,.51-5.94c0-13.15,0-26.31,0-39.87H484.5c0,2,0,4.13,0,6.22,0,12.16,0,24.33,0,36.49,0,11.51-3.87,21.25-15,26.07-12,5.22-24.14,4.78-35-3.33-6.23-4.64-9.19-11.57-9.37-19.15C424.81,83.26,425.05,67.94,425.05,52.15Z"/><path class="cls-1" d="M733.16,111.63c-8.61,11.65-23.5,15.47-39.15,10.46-15.17-4.86-24.15-17.52-24.49-34.51-.33-16.72,8.92-30.41,24-35.45,14.67-4.92,30.13-1.62,37.85,8.43L720,69.95c-9.16-7.4-21.08-8.07-29.27,2.19-7.43,9.31-6.2,24.74,2.21,32.45,7.91,7.25,17.87,6.43,27.56-2.33Z"/><path class="cls-1" d="M305.74,147.36a8,8,0,1,1-8,7.94A7.93,7.93,0,0,1,305.74,147.36Zm0,14.78a6.81,6.81,0,1,0-6.59-6.85A6.58,6.58,0,0,0,305.74,162.14Zm-3.12-11.48h3.61c2.22,0,3.27.88,3.27,2.67a2.4,2.4,0,0,1-2.45,2.54l2.67,4.12h-1.56l-2.54-4h-1.54v4h-1.45Zm1.45,4.14h1.52c1.28,0,2.45-.06,2.45-1.53,0-1.24-1.07-1.43-2-1.43h-1.92Z"/></g></g></svg>