<svg id="724ccc32-8409-4f05-849b-debed836a402" data-name="レイヤー 1" xmlns="http://www.w3.org/2000/svg" viewBox="0 0 652 120"><title>Omron_USLogo</title><path d="M60,94.58A34.58,34.58,0,1,1,94.58,60,34.58,34.58,0,0,1,60,94.58m0,24.94A59.52,59.52,0,1,0,.48,60,59.52,59.52,0,0,0,60,119.52" style="fill:#fff"/><path d="M446,119.52A59.52,59.52,0,1,1,505.56,60,59.52,59.52,0,0,1,446,119.52m0-24.94A34.58,34.58,0,1,0,411.47,60,34.58,34.58,0,0,0,446,94.58" style="fill:#fff"/><path d="M132.56,4.09v112.6H157.5V24.85h27.21v91.84h24.94V24.85h9.64a17.57,17.57,0,0,1,17.57,17.58v74.26h24.95V43A39.69,39.69,0,0,0,222.13,3.31H157.6Q145,3.31,132.56,4.09Z" style="fill:#fff"/><path d="M517.45,4.09l0,112.6h24.94V24.85h27.78a17.58,17.58,0,0,1,17.57,17.58v74.26h25V43A39.69,39.69,0,0,0,573,3.31H542.38C534,3.31,525.71,3.58,517.45,4.09Z" style="fill:#fff"/><path d="M281.09,4.09v112.6H306V24.85H335.5a17.58,17.58,0,0,1,0,35.15H314l38.55,56.69h30.61l-27.75-40.8A36,36,0,0,0,378,42.43,39.13,39.13,0,0,0,338.9,3.31H306Q293.45,3.31,281.09,4.09Z" style="fill:#fff"/><path d="M621.73,104.63a14.9,14.9,0,1,1,14.9,14.89A14.9,14.9,0,0,1,621.73,104.63Zm14.9,0,0,12.29a12.29,12.29,0,1,0-12.29-12.29A12.3,12.3,0,0,0,636.63,116.92Zm0-12.29" style="fill:#fff"/><path d="M638.07,99.49a3.3,3.3,0,0,1,1.47.26,1.81,1.81,0,0,1,.87,1.78,1.63,1.63,0,0,1-.9,1.64,3.75,3.75,0,0,1-1.53.24h-3.43V99.49Zm.65-2.46h-7.26v14.44h3.09v-5.69h3.12a2.65,2.65,0,0,1,1.81.46,2.7,2.7,0,0,1,.51,1.85l0,1.36a6.55,6.55,0,0,0,.13,1.25c0,.2.11.46.2.77h3.46v-.36a1.18,1.18,0,0,1-.57-.83,6.47,6.47,0,0,1-.09-1.35v-1a4.58,4.58,0,0,0-.43-2.27,2.82,2.82,0,0,0-1.47-1.14,3,3,0,0,0,1.79-1.4,4.16,4.16,0,0,0,.54-2,3.78,3.78,0,0,0-.28-1.52,4.7,4.7,0,0,0-.76-1.22,3.78,3.78,0,0,0-1.42-1A6.91,6.91,0,0,0,638.72,97Z" style="fill:#fff"/></svg>