<svg id="00f2da6f-57ea-4f13-990c-beb2c6498d17" data-name="Layer 1" xmlns="http://www.w3.org/2000/svg" width="897.25" height="325.5" viewBox="0 0 897.25 325.5"><title>PMI_logo</title><g id="bbcf02de-8527-40d9-a314-78ca1ebd8317" data-name="c8c3fbf9-682d-49a3-94c4-6812604cd438"><path d="M317.31,111.77C295.87,46.92,234.69,0,162.75,0,73,0,0,73,0,162.75S73,325.5,162.75,325.5a161.73,161.73,0,0,0,86.74-25.1l.55-.34.78-.5a161.81,161.81,0,0,0,66.43-187.79ZM200.46,294.26c-41.93,13-81.39,8.14-116.77-18.61-36-27.2-52.16-64.53-49.4-109.14,2.27-36.57,18.51-66.72,47.48-89.76a120.55,120.55,0,0,1,65.55-26.17c44.93-4.07,82.21,11.56,109.93,46.81,23.9,30.43,30.43,65.58,18.09,102.53-11.18,33.48-34.59,55.31-69.1,64.75a108.43,108.43,0,0,1-65-1.91c-41.55-14.43-61.69-50.87-56-92,.43-3.14.67-6.32,1-9.48C58.69,225.65,116.25,305.73,200.46,294.26Z" style="fill:#003058"/><path d="M816.07,160.77c0-32.41.06-64.82,0-97.23V50.65h-72l-4.82,12.08c-.08.19-.17.35-.25.55-16.84,41.48-34.35,83.3-52.13,125.78l-20.2-45.38v.09c-10.42-24.44-20.9-48.91-31.19-73.44h0l-1.22-2.8c-.6-1.44-1.22-2.88-1.82-4.32-.3-.72-.62-1.37-.94-2l-4.56-10.47h-49.3l4.54,10.87h.07l.45,1.07C598,98.46,613.35,134.19,628.48,170c9,21.43,17.85,43,26.64,64.49H655l3.73,8.83.21.52.09.2,3.73,8.81h46l4.06-9.75c.43-.85.84-1.74,1.23-2.71q21.53-52.93,43.5-105.66c2.13-5.14,4.69-10.11,7.06-15.16l1.68.61V231.69h-.1v21.15h49.86V240.77C816.14,214.1,816.07,187.44,816.07,160.77Z" style="fill:#003058"/><path d="M583.69,127.14c5.35-40.2-15-75-63.52-75.89-19.25-.33-38.51,0-57.77,0v-.13H387.62V69.21l.13-.63V183.06h-.12l.12.11v13.48l-.12-.06V252.9H447V183.06h-.15v-3.38h25.54l-.27.16c16.81,0,33.61.14,50.4-.34C559.46,178.44,579.77,156.55,583.69,127.14ZM512.63,135a245.08,245.08,0,0,1-28,2.2c-4.63.16-9.26.16-13.9.13l.13.08H446.54v-5.51a13.73,13.73,0,0,1-.08-1.7c0-2.67.06-5.35.08-8V122h0V109.07h0V95.55h5.08a12.32,12.32,0,0,1,1.72-.11c9.82.07,19.64,0,29.45,0v.08c9,0,18-.26,27,.07,9.82.36,17.08,8.77,17.66,19.79.5,9.41-5.6,18.18-14.82,19.58Z" style="fill:#003058"/><path d="M897.25,236.42V50.75H845v7.34h0V252.92h52.18V239.5A28.92,28.92,0,0,0,897.25,236.42Z" style="fill:#003058"/><path d="M601.47,148.33V135.52c-7.41,23.59-23.08,48.27-51.28,57.59v8.11q0,7.59.06,15.18v7.34c0,6.43,0,12.85-.12,19.27a16.14,16.14,0,0,0,.12,2.2v7.69h51.2v-8.23c.06-1.22.08-2.68.08-4.46.09-30.32,0-60.65,0-91A6.73,6.73,0,0,0,601.47,148.33Z" style="fill:#003058"/></g></svg>