<svg id="debac79b-5fcb-449f-900a-a9bc9ff264ec" data-name="Layer 1" xmlns="http://www.w3.org/2000/svg" viewBox="0 0 122.68 44.19"><title>pokemon_logo_navy</title><path d="M8,23.68l-2.14,1L.32,15.38c5.85-3.93,12.07-6.57,19.27-5.7,6.59.79,9.93,4.78,9.72,11.5,2.86-1.64,5.79-2.47,9.21-1.08l-.2-3-1.92.13-.35-5.87L47.21,7.8v4l.39.12,2.31-4.32,7.16,6.34,3.41-2.2L59.25,9.9,67.65.24l4.62,6.93-6.66,3.64A11,11,0,0,1,74,15.46l1-5.63c2.09,0,4.18.07,6.26,0a5.69,5.69,0,0,0,1.85-.84,6.5,6.5,0,0,1,.77-.35,1.68,1.68,0,0,1,.54,0c2,0,4.49-.62,5.78.35,1.14.85.95,3.52,1.29,5.39.3,1.64.53,3.29.82,5.1a9.69,9.69,0,0,1,9.67-.93,4.47,4.47,0,0,0-.19-1.12c-1.8-.22-1.47-1.56-1.48-2.72s0-2.49,0-3.93c3.63.8,7,1.51,10.41,2.35.45.11.83.88,1,1.42a16.72,16.72,0,0,0,.78,2.32l.88-3.17L123,15.94l-9.26,27.89a44.12,44.12,0,0,1-6.11-2c-.74-.36-1-1.76-1.6-3l-6.12-1,.21-3.33-5.2,1,.37,3.12-7.13-1.21c-3-.52-3-.52-3.33-3.63,0-.33-.08-.66-.17-1.35l-1.53,2.44-2.28-4.12-.62,3.18-4.41-.68-4.45-.72.55-4L65,30.69v7.72L48.31,30.16v7.17l-7.92,1.2-.48-3.41C31.19,40,25.15,37.57,24.67,29c-1.47.65-2.08,1.42-1.54,3.15,1,3.09,1.66,6.26,2.52,9.61l-8.39,2.72ZM23.07,40.29c-.8-3.12-1.45-6-2.32-8.91a2.5,2.5,0,0,1,1-3.15A19.21,19.21,0,0,0,26,23.42c2.82-4.8.64-9.92-4.79-11.25-6.5-1.59-12.28.54-18,3.88l3.43,5.8,2.39-1,9.39,21Zm89.41,1,7.93-24L114.74,16l-2.38,9.62c-1-3.18-1.64-6.29-2.35-9.39-.13-.56-.52-1.39-.95-1.5-2.18-.58-4.42-1-7.16-1.51.38,1,.45,2,.88,2.23,1,.44.84,1.11.86,1.89a6,6,0,0,0,.41,2.88c2.47,3.75,2.44,7.8-.61,11.25a6.48,6.48,0,0,0-1.53,4.65c.88.17,1.7.28,2.51.49,1.27.32,2,.15,2.12-1.43a35.92,35.92,0,0,1,.74-4.44c.19-1,.43-2.05.64-3.08l.45.07c0,2.88,0,5.77,0,8.65C108.46,41.08,107.92,40,112.48,41.27ZM40.16,14.45c.18,1.95.29,3.68.51,5.4a5.09,5.09,0,0,0,.66,2.33C43.45,25,43.46,28,42.38,31.24a26.15,26.15,0,0,0-.66,4.93c1.28-.15,2-.29,2.7-.3,1.59,0,2.14-.7,2-2.32-.16-2.11,0-4.25,0-6.68l16.53,8.29V31c-2.21-1.24-4.6-2-6-3.54a14.61,14.61,0,0,0-6-3.73l-2.18-.9,6.32-6.74-4.54-5.28-5,7-.46-7c-2,.6-3.8,1.18-5.59,1.62-1.28.31-1.71.93-1.15,2.22ZM92.58,36l.34-.44a5.9,5.9,0,0,0-1-1.27c-4.27-3.1-5.09-7.68-2.17-12.13a3.07,3.07,0,0,0,.7-1.74c-.41-3.2-1-6.39-1.47-9.66-.5,0-.9-.11-1.31-.12-2.53-.07-2.53-.06-3,2.48q-.47,2.51-.94,5l-.27,0-1.16-6.16H76.84c-.43,2.56-.83,5-1.26,7.53-.29,1.67-1,3.4,1.21,4.61-2.65,1.64-2.79,4.11-3,6.78l5.29.91,1.2-7.38.35,0,2.93,6.27,1.92-4.83c.7,2.74,1.06,5.4,1.54,8a1.93,1.93,0,0,0,1,1.34C89.5,35.59,91.05,35.74,92.58,36ZM65.51,23.58,65.2,23,71.75,16a9.23,9.23,0,0,0-13.88.36A7.2,7.2,0,0,0,61.59,28c4.67,1.17,8.54-.57,12.06-3.78l-3.32-3ZM27.78,33.39a6.87,6.87,0,0,0,9.3,1.14c3.43-2.21,5.06-6.25,3.74-9.43-1.33.83-2.74,1.25-2.77,3.43,0,2.65-3.39,4.84-5.64,3.68S29.29,32.48,27.78,33.39ZM27,31.52c2.55-1.17,2.55-1.17,3-3.47.51-2.55,3.5-4.65,5.69-3.56s3-.32,4.34-1.09c-1.82-2.78-6.07-2.85-8.74-1.35C27.7,24.06,25.89,27.87,27,31.52Zm63.72-7.07c-1.6,3.46-.53,7,2.48,8.39a7.23,7.23,0,0,0,9-3l-1.92-1a18,18,0,0,1-2.45,1.4c-2.41.91-5-.57-5-3C92.88,25.47,92.13,24.88,90.67,24.45Zm12.59,3.83c1.55-3.19.68-6.55-2-8.09-3.06-1.74-7.38-.54-9.48,2.69l1.94,1a17.09,17.09,0,0,1,2.12-1.29c2.48-1,5.22.39,5.17,2.9C100.95,27.25,101.82,27.78,103.26,28.27Zm-36-25c-1.67,2-3.18,3.79-4.64,5.62-.2.25-.14.71-.2,1.07a2.66,2.66,0,0,0,1-.06c2.09-1,4.16-2,6.34-3.14-.28-.44-.45-.74-.65-1C68.55,4.93,68,4.17,67.29,3.23ZM95.7,28.68c2.07.07,3.78-1.43,3.5-2.8a2.82,2.82,0,0,0-1.75-1.77,2.67,2.67,0,0,0-2.86,2.57A5.42,5.42,0,0,0,95.7,28.68ZM36.39,27.5c-.07-1-.81-1.48-2-1.43a2.94,2.94,0,0,0-2.7,2.84,1.75,1.75,0,0,0,2,1.76A3,3,0,0,0,36.39,27.5ZM73.21,20.8l.47-3.11-.33-.09-1.68,1.82Z" transform="translate(-0.32 -0.24)" style="fill:#003058"/><path d="M19.29,26.27,17,18.62c2.53-1.3,4.89-.82,5.82,1C23.94,21.91,22.61,24.52,19.29,26.27Zm.94-2.43c1.08-1.17,1.78-2.22,1.06-3.4-.35-.58-1.31-.79-2-1.17L19,19.7Z" transform="translate(-0.32 -0.24)" style="fill:#003058"/><path d="M62,23c-2-1.94-2.22-4.11-.64-5.81s3.66-1.66,5.7.07Zm-.11-1.81,3.19-3.63C62.66,17,61.53,18.23,61.93,21.15Z" transform="translate(-0.32 -0.24)" style="fill:#003058"/></svg>