<?xml version="1.0" encoding="utf-8"?>
<!-- Generator: Adobe Illustrator 21.1.0, SVG Export Plug-In . SVG Version: 6.00 Build 0)  -->
<svg version="1.1" id="Layer_1" xmlns="http://www.w3.org/2000/svg" xmlns:xlink="http://www.w3.org/1999/xlink" x="0px" y="0px"
	 viewBox="0 0 269 176" style="enable-background:new 0 0 269 176;" xml:space="preserve">
<style type="text/css">
	.st0{fill:none;stroke:#B6E8FB;stroke-width:2;stroke-miterlimit:10;}
	.st1{enable-background:new    ;}
	.st2{fill:#B6E8FB;}
	.st3{fill:#666666;}
	.st4{fill:#DAD9D9;}
	.st5{fill:#003058;}
	.st6{fill:#00A7E1;}
	.st7{fill:none;stroke:#B6E8FB;stroke-width:1.0248;stroke-linecap:round;stroke-linejoin:round;stroke-miterlimit:10;}
	.st8{fill:#B03478;}
	.st9{fill:#006C8A;}
	.st10{fill:none;stroke:#00A7E1;stroke-width:0.25;stroke-miterlimit:10;}
	.st11{fill:#989696;}
	.st12{fill:#BEBEBE;}
	.st13{fill:none;stroke:#A8C628;stroke-width:0.25;stroke-miterlimit:10;}
	.st14{fill:#9E79BB;}
	.st15{clip-path:url(#SVGID_2_);}
	.st16{fill:#E9E9E9;}
	.st17{clip-path:url(#SVGID_4_);}
	.st18{clip-path:url(#SVGID_6_);}
</style>
<g>
	<line class="st0" x1="129.5183" y1="101.7967" x2="200.875" y2="144.4635"/>
	<g>
		<g class="st1">
			<g>
				<g>
					<path class="st2" d="M203.4847,146.1737c-1.6336,0.9454-4.2787,0.9454-5.905,0c-1.6238-0.9454-1.6189-2.4761,0.0172-3.4202
						c1.6386-0.9454,4.2836-0.9454,5.9099,0C205.133,143.6976,205.1233,145.2283,203.4847,146.1737L203.4847,146.1737z"/>
				</g>
			</g>
		</g>
	</g>
	<line class="st0" x1="166.831" y1="123.8618" x2="197.8138" y2="106.4009"/>
	<g>
		<g class="st1">
			<g>
				<g>
					<path class="st2" d="M202.5321,107.1098c-1.6336,0.9454-4.2787,0.9454-5.905,0c-1.6238-0.9454-1.6189-2.4761,0.0172-3.4202
						c1.6386-0.9454,4.2836-0.9454,5.9099,0C204.1805,104.6337,204.1707,106.1644,202.5321,107.1098L202.5321,107.1098z"/>
				</g>
			</g>
		</g>
	</g>
</g>
<g>
	<path class="st3" d="M51.0117,165h-2.0005c0.624-2.9932,3.041-7.3477,3.5532-8.084h-4.6899v-1.5195h6.7549v0.8799
		C53.8452,157.4287,51.5078,161.9746,51.0117,165z"/>
	<path class="st3" d="M53.8589,165v-1.9375h1.937V165H53.8589z"/>
	<path class="st3" d="M60.292,165.2715c-1.1846,0-2.2891-0.4316-2.9136-0.9922v-1.584c0.7207,0.6719,1.585,1.168,2.6733,1.168
		c1.1846,0,2.001-0.7363,2.001-1.9199c0-1.0254-0.5923-1.7129-1.6807-1.7129c-0.5767,0-1.0244,0.2402-1.3447,0.5439l-0.7842-0.8799
		l3.041-2.9785h-3.8735v-1.5195h6.3706v0.8965l-2.7051,2.6563c1.5845,0.0957,2.833,1.1523,2.833,3.0254
		C63.9092,164.0391,62.3086,165.2715,60.292,165.2715z"/>
	<path class="st3" d="M74.1343,165v-5.8906c0-0.2236,0.0479-0.8477,0.064-0.9121l-0.3525,0.9121L71.269,165h-1.2007l-2.5771-5.8906
		c-0.0957-0.2236-0.3042-0.8164-0.3359-0.9121c0,0.0479,0.0479,0.6885,0.0479,0.9121V165h-1.7124v-9.6035h2.0806l3.1694,7.0264
		l3.1533-7.0264h2.0166V165H74.1343z"/>
	<path class="st3" d="M80.9478,160.9023v2.3691h-1.0566v-2.3691H77.522v-1.0566h2.3691v-2.3691h1.0566v2.3691h2.353v1.0566H80.9478z
		"/>
	<path class="st3" d="M87.9033,161.2021h-0.8794v-0.5195h0.8794v-0.0107c0-1.2588,0.4795-1.7383,1.3892-1.7383
		c0.1899,0,0.4199,0.0498,0.5396,0.0898v0.5391c-0.1499-0.0293-0.3296-0.0596-0.4595-0.0596c-0.5298,0-0.7095,0.2393-0.7095,1.1201
		v0.0596h1.1689v0.5195h-1.1689V165h-0.7598V161.2021z"/>
	<path class="st3" d="M90.4233,160.6826h0.6597l0.0498,0.8291c0.2798-0.5293,0.9497-0.9492,1.6792-0.9492v0.8193
		c-0.8193-0.1494-1.6289,0.3193-1.6289,1.0498V165h-0.7598V160.6826z"/>
	<path class="st3" d="M93.3232,162.8418c0-1.2598,0.8696-2.2793,2.0591-2.2793c0.7095,0,1.3394,0.3496,1.6992,0.8994l0.0298-0.7793
		h0.6597V165h-0.6597l-0.0298-0.7793c-0.3599,0.5488-0.9897,0.8994-1.6992,0.8994
		C94.1929,165.1201,93.3232,164.1006,93.3232,162.8418z M97.0615,162.8418c0-1.04-0.6699-1.6699-1.4893-1.6699
		c-0.8198,0-1.4893,0.6299-1.4893,1.6699c0,1.0391,0.6694,1.668,1.4893,1.668C96.3916,164.5098,97.0615,163.8809,97.0615,162.8418z"
		/>
	<path class="st3" d="M99.0034,163.251v-2.5684h0.7593v2.499c0,0.9688,0.3799,1.2891,1.0098,1.2891
		c0.6196,0,1.4189-0.54,1.4189-1.2402v-2.5479h0.7598V165h-0.6597l-0.0503-0.8301c-0.3198,0.5195-0.9595,0.9502-1.6787,0.9502
		C99.4131,165.1201,99.0034,164.3203,99.0034,163.251z"/>
	<path class="st3" d="M103.9429,162.8418c0-1.2598,0.8696-2.2793,2.0591-2.2793c0.6694,0,1.269,0.3096,1.6289,0.7988v-2.3574h0.7598
		V165h-0.6597l-0.0298-0.7793c-0.3599,0.5488-0.9897,0.8994-1.6992,0.8994C104.8125,165.1201,103.9429,164.1006,103.9429,162.8418z
		 M107.6812,162.8418c0-1.04-0.6699-1.6699-1.4893-1.6699c-0.8198,0-1.4893,0.6299-1.4893,1.6699
		c0,1.0391,0.6694,1.668,1.4893,1.668C107.0112,164.5098,107.6812,163.8809,107.6812,162.8418z"/>
	<path class="st3" d="M109.623,163.251v-2.5684h0.7593v2.499c0,0.9688,0.3799,1.2891,1.0098,1.2891
		c0.6196,0,1.4189-0.54,1.4189-1.2402v-2.5479h0.7598V165h-0.6597l-0.0503-0.8301c-0.3198,0.5195-0.9595,0.9502-1.6787,0.9502
		C110.0327,165.1201,109.623,164.3203,109.623,163.251z"/>
	<path class="st3" d="M114.813,159.0039h0.7598V165h-0.7598V159.0039z"/>
	<path class="st3" d="M116.5732,162.8105c0-1.3887,1.0293-2.248,2.0889-2.248c1.0791,0,1.8389,0.6992,1.8389,1.6797
		c0,0.1494-0.0298,0.3398-0.0601,0.4893h-3.1182c-0.0601,0.7588,0.2998,1.7686,1.6792,1.7686c0.4897,0,1.0894-0.2402,1.4189-0.5596
		v0.6699c-0.4097,0.3291-1.0493,0.5098-1.6787,0.5098C117.4727,165.1201,116.5732,164.1504,116.5732,162.8105z M119.7715,162.2012
		c0.0898-0.5791-0.3701-1.0391-1.0796-1.0391c-0.6094,0-1.1694,0.3301-1.2993,1.0391H119.7715z"/>
	<path class="st3" d="M121.5527,160.6826h0.6597l0.0498,0.8291c0.3198-0.5195,0.9497-0.9492,1.6792-0.9492
		c1.1494,0,1.5591,0.7988,1.5591,1.8691V165h-0.7593v-2.498c0-0.9707-0.3799-1.29-1.0098-1.29c-0.6196,0-1.4189,0.54-1.4189,1.2393
		V165h-0.7598V160.6826z"/>
	<path class="st3" d="M127.2524,161.2021h-0.9692v-0.5195h0.9692v-1.1797h0.7598v1.1797h0.9795v0.5195h-0.9795V165h-0.7598V161.2021
		z"/>
	<path class="st3" d="M132.2319,161.2021h-0.9692v-0.5195h0.9692v-1.1797h0.7598v1.1797h0.9795v0.5195h-0.9795V165h-0.7598V161.2021
		z"/>
	<path class="st3" d="M134.7622,160.6826h0.6597l0.0498,0.8291c0.2803-0.5293,0.9502-0.9492,1.6787-0.9492v0.8193
		c-0.8184-0.1494-1.6289,0.3193-1.6289,1.0498V165h-0.7593V160.6826z"/>
	<path class="st3" d="M137.6621,162.8418c0-1.2598,0.8691-2.2793,2.0586-2.2793c0.71,0,1.3398,0.3496,1.6992,0.8994l0.0303-0.7793
		h0.6592V165h-0.6592l-0.0303-0.7793c-0.3594,0.5488-0.9893,0.8994-1.6992,0.8994
		C138.5313,165.1201,137.6621,164.1006,137.6621,162.8418z M141.4004,162.8418c0-1.04-0.6699-1.6699-1.4893-1.6699
		s-1.4893,0.6299-1.4893,1.6699c0,1.0391,0.6699,1.668,1.4893,1.668S141.4004,163.8809,141.4004,162.8418z"/>
	<path class="st3" d="M143.3516,160.6826h0.6602l0.0498,0.8291c0.3193-0.5195,0.9502-0.9492,1.6787-0.9492
		c1.1504,0,1.5596,0.7988,1.5596,1.8691V165h-0.7588v-2.498c0-0.9707-0.3809-1.29-1.0098-1.29c-0.6201,0-1.4199,0.54-1.4199,1.2393
		V165h-0.7598V160.6826z"/>
	<path class="st3" d="M148.2324,164.6797l0.1504-0.5996c0.2891,0.1797,0.8496,0.4502,1.4688,0.4502
		c0.5391,0,0.959-0.1904,0.959-0.6689c0-0.3809-0.3887-0.5898-1.0996-0.7705c-0.9189-0.2295-1.3379-0.7197-1.3379-1.2793
		c0-0.6787,0.5195-1.2588,1.5781-1.2588c0.7197,0,1.3398,0.3594,1.3398,0.3594l-0.1504,0.5801
		c-0.2998-0.2002-0.7598-0.3496-1.1895-0.3496c-0.5898,0-0.8789,0.2188-0.8789,0.5693c0,0.3701,0.3594,0.5889,0.9297,0.7295
		c0.9883,0.2402,1.5088,0.6895,1.5088,1.2598c0,0.9092-0.6904,1.4287-1.6787,1.4287
		C148.9023,165.1299,148.2324,164.6797,148.2324,164.6797z"/>
	<path class="st3" d="M152.2119,162.8418c0-1.2598,0.8701-2.2793,2.0596-2.2793c0.709,0,1.3389,0.3496,1.6992,0.8994L156,160.6826
		h0.6602V165H156l-0.0293-0.7793c-0.3604,0.5488-0.9902,0.8994-1.6992,0.8994C153.082,165.1201,152.2119,164.1006,152.2119,162.8418
		z M155.9502,162.8418c0-1.04-0.6699-1.6699-1.4893-1.6699c-0.8203,0-1.4893,0.6299-1.4893,1.6699
		c0,1.0391,0.6689,1.668,1.4893,1.668C155.2803,164.5098,155.9502,163.8809,155.9502,162.8418z"/>
	<path class="st3" d="M157.6621,162.8418c0-1.3496,0.9395-2.2793,2.248-2.2793c0.5703,0,1.0195,0.0996,1.5098,0.4395v0.6895
		c-0.4102-0.3789-0.9395-0.5098-1.4395-0.5098c-0.9297,0-1.5586,0.71-1.5586,1.6602c0,0.9688,0.6289,1.6582,1.5586,1.6582
		c0.5,0,1.0293-0.1299,1.4395-0.5098v0.6895c-0.4902,0.3398-0.9395,0.4404-1.5098,0.4404
		C158.6016,165.1201,157.6621,164.1904,157.6621,162.8418z"/>
	<path class="st3" d="M162.9219,161.2021h-0.9697v-0.5195h0.9697v-1.1797h0.7598v1.1797h0.9785v0.5195h-0.9785V165h-0.7598V161.2021
		z"/>
	<path class="st3" d="M165.4512,159.0039h0.7598v0.8291h-0.7598V159.0039z M165.4512,160.6826h0.7598V165h-0.7598V160.6826z"/>
	<path class="st3" d="M167.1523,162.8418c0-1.2598,0.959-2.3193,2.3584-2.3193c1.3896,0,2.3486,1.0596,2.3486,2.3193
		c0,1.2686-0.959,2.3184-2.3486,2.3184C168.1113,165.1602,167.1523,164.1104,167.1523,162.8418z M171.0996,162.8418
		c0-0.9395-0.6094-1.709-1.5889-1.709c-0.9893,0-1.5986,0.7695-1.5986,1.709c0,0.9492,0.6191,1.709,1.5986,1.709
		S171.0996,163.791,171.0996,162.8418z"/>
	<path class="st3" d="M172.8018,160.6826h0.6592l0.0508,0.8291c0.3193-0.5195,0.9492-0.9492,1.6787-0.9492
		c1.1494,0,1.5596,0.7988,1.5596,1.8691V165h-0.7598v-2.498c0-0.9707-0.3799-1.29-1.0098-1.29c-0.6191,0-1.4189,0.54-1.4189,1.2393
		V165h-0.7598V160.6826z"/>
	<path class="st3" d="M177.6816,164.6797l0.1504-0.5996c0.2891,0.1797,0.8496,0.4502,1.4688,0.4502
		c0.5391,0,0.959-0.1904,0.959-0.6689c0-0.3809-0.3887-0.5898-1.0996-0.7705c-0.9189-0.2295-1.3379-0.7197-1.3379-1.2793
		c0-0.6787,0.5195-1.2588,1.5781-1.2588c0.7197,0,1.3398,0.3594,1.3398,0.3594l-0.1504,0.5801
		c-0.2998-0.2002-0.7598-0.3496-1.1895-0.3496c-0.5898,0-0.8789,0.2188-0.8789,0.5693c0,0.3701,0.3594,0.5889,0.9297,0.7295
		c0.9883,0.2402,1.5088,0.6895,1.5088,1.2598c0,0.9092-0.6904,1.4287-1.6787,1.4287
		C178.3516,165.1299,177.6816,164.6797,177.6816,164.6797z"/>
	<path class="st3" d="M184.5313,164.2207L184.501,165h-0.6592v-5.9961h0.7598v2.3574c0.3594-0.4893,0.959-0.7988,1.6289-0.7988
		c1.1895,0,2.0586,1.0195,2.0586,2.2793c0,1.2588-0.8691,2.2783-2.0586,2.2783
		C185.5205,165.1201,184.8906,164.7695,184.5313,164.2207z M187.5293,162.8418c0-1.04-0.6699-1.6699-1.4893-1.6699
		s-1.4893,0.6299-1.4893,1.6699c0,1.0391,0.6699,1.668,1.4893,1.668S187.5293,163.8809,187.5293,162.8418z"/>
	<path class="st3" d="M189.2813,159.0039h0.7598V165h-0.7598V159.0039z"/>
	<path class="st3" d="M190.9814,162.8418c0-1.2598,0.96-2.3193,2.3584-2.3193c1.3896,0,2.3496,1.0596,2.3496,2.3193
		c0,1.2686-0.96,2.3184-2.3496,2.3184C191.9414,165.1602,190.9814,164.1104,190.9814,162.8418z M194.9297,162.8418
		c0-0.9395-0.6094-1.709-1.5898-1.709c-0.9893,0-1.5986,0.7695-1.5986,1.709c0,0.9492,0.6201,1.709,1.5986,1.709
		C194.3203,164.5508,194.9297,163.791,194.9297,162.8418z"/>
	<path class="st3" d="M196.3916,162.8418c0-1.3496,0.9395-2.2793,2.249-2.2793c0.5693,0,1.0195,0.0996,1.5088,0.4395v0.6895
		c-0.4092-0.3789-0.9395-0.5098-1.4385-0.5098c-0.9297,0-1.5605,0.71-1.5605,1.6602c0,0.9688,0.6309,1.6582,1.5605,1.6582
		c0.499,0,1.0293-0.1299,1.4385-0.5098v0.6895c-0.4893,0.3398-0.9395,0.4404-1.5088,0.4404
		C197.3311,165.1201,196.3916,164.1904,196.3916,162.8418z"/>
	<path class="st3" d="M201.1309,159.0039h0.7598v3.5176l2.0586-1.8389h0.9395l-2.1982,1.9287L204.9688,165h-0.9883l-2.0898-2.2383
		V165h-0.7598V159.0039z"/>
	<path class="st3" d="M205.2314,162.8105c0-1.3887,1.0293-2.248,2.0889-2.248c1.0791,0,1.8389,0.6992,1.8389,1.6797
		c0,0.1494-0.0303,0.3398-0.0596,0.4893h-3.1191c-0.0596,0.7588,0.3008,1.7686,1.6797,1.7686c0.4902,0,1.0898-0.2402,1.4189-0.5596
		v0.6699c-0.4092,0.3291-1.0498,0.5098-1.6787,0.5098C206.1309,165.1201,205.2314,164.1504,205.2314,162.8105z M208.4297,162.2012
		c0.0898-0.5791-0.3701-1.0391-1.0801-1.0391c-0.6094,0-1.1689,0.3301-1.2988,1.0391H208.4297z"/>
	<path class="st3" d="M209.9609,162.8418c0-1.2598,0.8691-2.2793,2.0586-2.2793c0.6699,0,1.2695,0.3096,1.6289,0.7988v-2.3574
		h0.7598V165h-0.6592l-0.0303-0.7793c-0.3594,0.5488-0.9893,0.8994-1.6992,0.8994
		C210.8301,165.1201,209.9609,164.1006,209.9609,162.8418z M213.6992,162.8418c0-1.04-0.6699-1.6699-1.4893-1.6699
		s-1.4893,0.6299-1.4893,1.6699c0,1.0391,0.6699,1.668,1.4893,1.668S213.6992,163.8809,213.6992,162.8418z"/>
</g>
<g>
	<polyline class="st4" points="100.9925,33.3497 158.6596,66.616 158.6596,60.3018 90.8115,20.3216 90.8115,26.6357 
		100.9925,33.3497 	"/>
	<polyline class="st5" points="158.6596,130.26 158.6596,66.616 100.9925,33.3497 90.8115,26.6357 90.8115,90.2797 	"/>
	<polygon class="st6" points="103.3162,44.1003 103.3162,90.1749 151.3892,117.9067 151.3892,71.832 	"/>
	<polygon class="st7" points="97.3527,51.8587 109.7609,59.0226 109.7609,50.8728 97.3527,43.709 	"/>
	<g>
		<g>
			<path class="st2" d="M133.3273,100.5151l-8.5917,2.8147l-8.5917-11.9465c-3.1525-4.3834-4.9292-9.0358-4.9292-12.9072v-16.869
				l27.0419,14.3708v16.869C138.2565,96.7183,136.4798,99.4823,133.3273,100.5151z"/>
		</g>
		<g>
			<path class="st5" d="M124.7354,90.8347l0.0005,0.0002c1.9187,1.0196,3.7222,1.2306,5.0788,0.5952
				c1.3566-0.6355,2.1036-2.0425,2.1034-3.9613c0-1.9187-0.747-4.1194-2.1036-6.1968c-1.3564-2.0772-3.1599-3.7829-5.0786-4.8025
				l-0.0002-0.0001c-1.9189-1.0198-3.7224-1.231-5.0791-0.5953c-1.3564,0.6358-2.1036,2.0425-2.1034,3.9613
				c0,1.9187,0.747,4.1194,2.1036,6.1968C121.0132,88.1094,122.8167,89.815,124.7354,90.8347z"/>
			<polygon class="st8" points="131.353,81.1075 123.2668,84.443 120.9031,80.8193 119.7904,81.4472 122.8655,86.1917 
				123.6661,86.6172 132.4831,82.8976 			"/>
		</g>
	</g>
	<polygon class="st8" points="93.9726,52.9192 106.3808,60.0831 106.3808,51.9333 93.9726,44.7694 	"/>
</g>
<g>
	<g>
		<polygon class="st9" points="139.2557,116.9412 139.4224,117.0359 139.2557,116.9412 140.9922,108.927 141.6869,109.3217 
			139.9642,117.2716 139.938,117.3288 139.4224,117.0359 		"/>
		<polygon class="st11" points="157.889,99.1719 158.5836,99.5665 158.6046,99.556 165.0981,95.8042 164.4035,95.4095 
			159.1046,98.4668 		"/>
		<polygon class="st9" points="151.1903,103.0396 151.8849,103.4342 151.9008,103.4237 158.5836,99.5665 157.889,99.1719 
			152.4006,102.3397 		"/>
		<polygon class="st9" points="164.4035,95.4095 165.0981,95.8042 165.1139,95.7936 171.097,92.3416 170.4024,91.9417 
			165.6138,94.7096 		"/>
		<polygon class="st11" points="143.6234,107.4072 144.3179,107.8018 144.3232,107.8018 151.8849,103.4342 151.1903,103.0396 
			144.8074,106.7231 		"/>
		<polygon class="st9" points="140.9924,108.9279 141.6869,109.3226 144.3127,107.8071 144.3179,107.8018 143.6234,107.4072 		"/>
		<polygon class="st11" points="170.4024,91.9417 171.097,92.3416 175.0278,90.0737 175.0278,90.0684 174.3332,89.6738 
			171.5969,91.2524 		"/>
		<polygon class="st10" points="171.6653,99.0246 173.2913,98.0879 174.3595,93.1678 		"/>
		<path class="st6" d="M139.9661,117.2737l4.3465-9.4666l-2.6258,1.5155L139.9661,117.2737z"/>
		<polygon class="st6" points="147.5173,112.9692 154.2266,109.0963 158.5994,99.5718 158.5836,99.5665 151.9008,103.4237 
			151.8954,103.4395 		"/>
		<polygon class="st12" points="147.5173,112.9692 151.8954,103.4395 151.8849,103.4342 144.3232,107.8018 144.3179,107.8018 
			144.3127,107.8071 139.9661,117.2737 		"/>
		<polygon class="st12" points="154.2266,109.0963 160.7358,105.3391 165.1086,95.8094 165.0981,95.8042 158.6046,99.556 
			158.5994,99.5718 		"/>
		<polygon class="st12" points="166.7189,101.882 171.6653,99.0246 174.3595,93.1678 175.0278,90.0737 171.097,92.3416 		"/>
		<polygon class="st6" points="160.7358,105.3391 166.7189,101.882 171.097,92.3416 165.1139,95.7936 165.1086,95.8094 		"/>
	</g>
	<g>
		<polygon class="st4" points="147.8264,105.3321 145.4702,106.6916 145.3965,106.7338 144.3831,106.1852 146.8164,104.763 		"/>
		<polygon class="st12" points="147.8264,105.3321 141.4822,133.9342 139.3279,135.1018 145.4043,106.7281 		"/>
		<polygon class="st11" points="139.3279,135.1018 138.2565,134.5112 144.39,106.1855 145.4034,106.734 		"/>
	</g>
	<g>
		<polygon class="st4" points="141.2555,129.1152 153.1058,135.8402 152.9532,134.972 141.9447,128.7258 		"/>
		<polygon class="st11" points="140.8923,130.8149 153.4845,137.9556 153.1058,135.8402 141.2555,129.1152 141.2555,129.1205 		"/>
	</g>
	<g>
		<polygon class="st4" points="145.476,106.7235 146.2654,106.2657 147.8494,105.3501 148.965,105.9868 146.5338,107.3918 
			146.4601,107.3497 145.4866,106.7972 145.4131,106.7551 		"/>
		<polygon class="st11" points="145.413,106.7551 151.7276,141.7009 152.7011,142.2482 146.5339,107.3918 		"/>
		<polygon class="st12" points="152.7011,142.2482 155.2007,140.8064 149.5333,109.0915 148.9755,105.9921 148.965,105.9868 
			146.5339,107.3918 		"/>
	</g>
	<g>
		<polygon class="st4" points="177.4989,88.1937 175.1428,89.5533 175.069,89.5954 174.0556,89.0468 176.4889,87.6246 		"/>
		<polygon class="st12" points="177.4989,88.1937 171.1547,116.7958 169.0004,117.9634 175.0768,89.5897 		"/>
		<polygon class="st11" points="169.0004,117.9634 167.929,117.3728 174.0625,89.0471 175.0759,89.5957 		"/>
	</g>
	<g>
		<polygon class="st4" points="175.1485,89.5851 175.9379,89.1273 177.5219,88.2117 178.6375,88.8484 176.2064,90.2534 
			176.1326,90.2113 175.1591,89.6588 175.0856,89.6167 		"/>
		<polygon class="st11" points="175.0855,89.6168 181.4001,124.5626 182.3736,125.1098 176.2064,90.2534 		"/>
		<polygon class="st12" points="182.3736,125.1098 184.8732,123.668 179.2058,91.9531 178.648,88.8537 178.6375,88.8484 
			176.2064,90.2534 		"/>
	</g>
	<g>
		<path class="st11" d="M144.4213,104.677c0.0968,0.5445,0.3376,0.9293,0.6596,1.1293c0.0024,0.0023,0.0057,0.0033,0.0091,0.0056
			l0.0612,0.0345l0.6304,0.3574c-0.0954-0.0661-0.1834-0.1487-0.2612-0.2477c-0.1673-0.2128-0.2917-0.4995-0.3547-0.8537
			c-0.2189-1.2309,0.3828-2.8061,1.344-3.5174c0.3594-0.2666,0.7174-0.3744,1.0375-0.34c0.1174,0.0124,0.23,0.0434,0.3346,0.0931
			l-0.5981-0.3419c-0.0012-0.0011-0.0035-0.0022-0.0047-0.0034l-0.1417-0.0801l-0.0002-0.0012c0,0,0,0-0.001,0
			c-0.3906-0.1845-0.8801-0.1165-1.3711,0.2469C144.8041,101.8709,144.2024,103.4461,144.4213,104.677z"/>
		<path class="st12" d="M145.1657,105.1024c0.063,0.3542,0.1874,0.6409,0.3547,0.8537c0.0777,0.099,0.1658,0.1815,0.2612,0.2477
			c0.0022,0.0011,0.0047,0.0034,0.0069,0.0045l0.1573,0.0879c0.0012,0.0011,0.0022,0.0011,0.0034,0.0022
			c0.3876,0.173,0.8693,0.1017,1.3532-0.2558c0.9611-0.7124,1.5629-2.2865,1.344-3.5174c-0.0946-0.5318-0.3264-0.9122-0.6366-1.1147
			c-0.0014-0.0023-0.0036-0.0034-0.0057-0.0033l-0.0443-0.0256l-0.0612-0.0345c-0.0057-0.0033-0.0114-0.0067-0.0169-0.0089
			c-0.1047-0.0497-0.2172-0.0807-0.3346-0.0931c-0.3201-0.0344-0.6781,0.0735-1.0375,0.34
			C145.5485,102.2963,144.9468,103.8715,145.1657,105.1024z M145.8342,104.6075c-0.1348-0.7579,0.2361-1.7278,0.8279-2.1665
			c0.5457-0.4052,1.0903-0.215,1.2762,0.412l0.0002,0.0012c0.0163,0.0518,0.0292,0.1071,0.0397,0.1659
			c0.1348,0.7579-0.2361,1.7278-0.8279,2.1665c-0.0937,0.0693-0.1874,0.1213-0.2802,0.1559
			c-0.0008,0.0012-0.0008,0.0012-0.0018,0.0012C146.3815,105.5297,145.9474,105.2443,145.8342,104.6075z"/>
		<path class="st14" d="M145.8342,104.6075c0.1133,0.6368,0.5473,0.9222,1.0341,0.7361c0.001,0,0.001,0,0.0018-0.0012
			c0.0927-0.0346,0.1865-0.0865,0.2802-0.1559c0.5918-0.4387,0.9626-1.4086,0.8279-2.1665
			c-0.0105-0.0588-0.0234-0.1141-0.0397-0.1659l-0.0002-0.0012c-0.1859-0.627-0.7305-0.8172-1.2762-0.412
			C146.0702,102.8797,145.6994,103.8496,145.8342,104.6075z"/>
	</g>
	<g>
		<path class="st11" d="M173.7097,87.5212c0.0968,0.5445,0.3376,0.9293,0.6596,1.1293c0.0024,0.0023,0.0057,0.0033,0.0091,0.0056
			l0.0612,0.0345l0.6304,0.3574c-0.0954-0.0661-0.1834-0.1487-0.2612-0.2477c-0.1673-0.2128-0.2917-0.4995-0.3547-0.8536
			c-0.2189-1.2309,0.3828-2.8061,1.344-3.5174c0.3594-0.2666,0.7174-0.3744,1.0375-0.34c0.1174,0.0124,0.23,0.0434,0.3346,0.0931
			l-0.5981-0.3419c-0.0012-0.0011-0.0035-0.0022-0.0047-0.0034l-0.1417-0.0801l-0.0002-0.0012c0,0,0,0-0.001,0
			c-0.3906-0.1845-0.8801-0.1165-1.3711,0.2469C174.0925,84.715,173.4908,86.2903,173.7097,87.5212z"/>
		<path class="st12" d="M174.4541,87.9466c0.063,0.3542,0.1874,0.6409,0.3547,0.8536c0.0777,0.099,0.1658,0.1815,0.2612,0.2477
			c0.0022,0.0011,0.0047,0.0034,0.0069,0.0045l0.1573,0.0879c0.0012,0.0011,0.0022,0.0011,0.0034,0.0022
			c0.3876,0.173,0.8693,0.1017,1.3532-0.2558c0.9611-0.7124,1.5629-2.2865,1.344-3.5174c-0.0946-0.5318-0.3264-0.9122-0.6366-1.1147
			c-0.0014-0.0023-0.0036-0.0034-0.0057-0.0033l-0.0443-0.0256l-0.0612-0.0345c-0.0057-0.0033-0.0114-0.0067-0.0169-0.0089
			c-0.1047-0.0497-0.2172-0.0807-0.3346-0.0931c-0.3201-0.0343-0.6781,0.0735-1.0375,0.34
			C174.8369,85.1404,174.2352,86.7157,174.4541,87.9466z M175.1226,87.4517c-0.1348-0.7579,0.2361-1.7278,0.8279-2.1665
			c0.5457-0.4052,1.0903-0.215,1.2762,0.412l0.0002,0.0012c0.0163,0.0518,0.0292,0.107,0.0397,0.1659
			c0.1348,0.7579-0.2361,1.7278-0.8279,2.1665c-0.0937,0.0693-0.1874,0.1213-0.2802,0.1559
			c-0.0008,0.0012-0.0008,0.0012-0.0018,0.0012C175.6699,88.3739,175.2358,88.0885,175.1226,87.4517z"/>
		<path class="st14" d="M175.1226,87.4517c0.1133,0.6368,0.5473,0.9222,1.0341,0.7361c0.001,0,0.001,0,0.0018-0.0012
			c0.0927-0.0346,0.1865-0.0865,0.2802-0.1559c0.5918-0.4387,0.9626-1.4086,0.8279-2.1665
			c-0.0105-0.0588-0.0234-0.1141-0.0397-0.1659l-0.0002-0.0012c-0.1859-0.627-0.7305-0.8172-1.2762-0.412
			C175.3587,85.7238,174.9878,86.6938,175.1226,87.4517z"/>
	</g>
	<g>
		<polygon class="st9" points="167.5397,97.9528 168.4132,98.4474 168.4238,98.4527 174.8383,94.7482 174.8383,94.7429 
			173.9595,94.2483 168.5553,97.3688 		"/>
		<polygon class="st11" points="173.9595,94.2483 174.8383,94.7429 174.8383,94.7482 174.8435,94.7482 181.9896,90.6174 
			181.1108,90.1175 174.9804,93.6589 		"/>
		<polygon class="st9" points="144.6046,111.199 144.61,111.2148 145.4729,111.7042 148.7091,109.8361 147.8304,109.3362 		"/>
		<polygon class="st11" points="160.2122,102.1902 161.0909,102.6849 161.0962,102.6849 168.4158,98.4594 168.4158,98.4489 
			167.5423,97.9543 		"/>
		<polygon class="st11" points="147.8304,109.3362 148.7091,109.8361 148.7144,109.8309 154.7133,106.3684 153.8344,105.8685 
			148.8512,108.7469 		"/>
		<polygon class="st9" points="153.8344,105.8685 154.7133,106.3684 154.7186,106.3684 161.0909,102.6849 160.2122,102.1902 
			154.8554,105.2791 		"/>
		<polygon class="st9" points="147.1884,121.3076 147.1621,121.3234 146.3307,120.8551 144.61,111.2148 145.4729,111.7042 		"/>
		<polygon class="st6" points="153.2609,117.7978 159.6438,114.1143 160.228,109.4994 161.0962,102.6902 161.0909,102.6849 
			154.7186,106.3684 154.7186,106.3737 153.9029,112.7829 		"/>
		<polygon class="st4" points="159.6438,114.1143 166.9583,109.8887 167.4213,106.2737 168.4158,98.4594 161.0962,102.6849 
			161.0962,102.6902 160.228,109.4994 		"/>
		<polygon class="st6" points="180.545,102.0429 183.7129,100.2117 181.9974,90.6241 		"/>
		<polygon class="st6" points="166.9583,109.8887 173.3833,106.1789 173.9674,101.5956 174.8357,94.7496 168.4263,98.4541 
			168.4158,98.4594 167.4213,106.2737 		"/>
		<path class="st6" d="M145.4729,111.7042l1.7155,9.6034l0.0683-0.0421l1.4576-11.4241l-0.0053-0.0053L145.4729,111.7042z"/>
		<polygon class="st4" points="147.2567,121.2655 153.2609,117.7978 153.9029,112.7829 154.7186,106.3737 154.7133,106.3684 
			148.7144,109.8309 148.7144,109.8414 		"/>
		<polygon class="st4" points="173.3859,106.1776 180.5425,102.0415 181.9948,90.6227 181.9948,90.6174 181.9896,90.6174 
			174.8435,94.7482 174.8383,94.7482 173.9648,101.5942 		"/>
	</g>
</g>
<g>
	<g>
		<polygon class="st9" points="109.8974,105.7761 109.7306,105.8708 109.8974,105.7761 108.1609,97.7619 107.4662,98.1566 
			109.1889,106.1066 109.2151,106.1637 109.7306,105.8708 		"/>
		<polygon class="st11" points="91.2641,88.0068 90.5694,88.4014 90.5485,88.3909 84.055,84.6391 84.7496,84.2444 90.0485,87.3017 
					"/>
		<polygon class="st9" points="97.9628,91.8745 97.2681,92.2692 97.2523,92.2586 90.5694,88.4014 91.2641,88.0068 96.7524,91.1746 
					"/>
		<polygon class="st9" points="84.7496,84.2444 84.055,84.6391 84.0392,84.6285 78.0561,81.1765 78.7507,80.7766 83.5393,83.5445 		
			"/>
		<polygon class="st11" points="105.5297,96.2421 104.8352,96.6368 104.8299,96.6368 97.2681,92.2692 97.9628,91.8745 
			104.3457,95.558 		"/>
		<polygon class="st9" points="108.1607,97.7628 107.4662,98.1575 104.8404,96.642 104.8352,96.6368 105.5297,96.2421 		"/>
		<polygon class="st11" points="78.7507,80.7766 78.0561,81.1765 74.1253,78.9086 74.1253,78.9033 74.8199,78.5087 77.5562,80.0873 
					"/>
		<polygon class="st10" points="77.4878,87.8595 75.8618,86.9228 74.7936,82.0027 		"/>
		<path class="st6" d="M107.4662,98.1575l-2.6258-1.5155l4.3465,9.4666L107.4662,98.1575z"/>
		<polygon class="st6" points="101.6357,101.8042 94.9265,97.9312 90.5536,88.4067 90.5694,88.4014 97.2523,92.2586 
			97.2577,92.2744 		"/>
		<polygon class="st12" points="101.6357,101.8042 97.2577,92.2744 97.2681,92.2692 104.8299,96.6368 104.8352,96.6368 
			104.8404,96.642 109.187,106.1086 		"/>
		<polygon class="st12" points="94.9265,97.9312 88.4173,94.174 84.0444,84.6443 84.055,84.6391 90.5485,88.3909 90.5536,88.4067 		
			"/>
		<polygon class="st12" points="82.4342,90.7169 77.4878,87.8595 74.7936,82.0027 74.1253,78.9086 78.0561,81.1765 		"/>
		<polygon class="st6" points="88.4173,94.174 82.4342,90.7169 78.0561,81.1765 84.0392,84.6285 84.0444,84.6443 		"/>
	</g>
	<g>
		<polygon class="st4" points="101.3267,94.167 103.6828,95.5265 103.7566,95.5687 104.77,95.0201 102.3367,93.5979 		"/>
		<polygon class="st12" points="101.3267,94.167 107.6709,122.7691 109.8252,123.9367 103.7488,95.563 		"/>
		<polygon class="st11" points="109.8252,123.9367 110.8965,123.3461 104.7631,95.0204 103.7497,95.5689 		"/>
	</g>
	<g>
		<polygon class="st4" points="107.8976,117.9501 96.0473,124.6751 96.1999,123.8069 107.2084,117.5607 		"/>
		<polygon class="st11" points="108.2608,119.6498 95.6685,126.7905 96.0473,124.6751 107.8976,117.9501 107.8976,117.9554 		"/>
	</g>
	<g>
		<polygon class="st4" points="103.6771,95.5584 102.8877,95.1006 101.3037,94.185 100.1881,94.8217 102.6192,96.2267 
			102.693,96.1846 103.6665,95.6321 103.74,95.59 		"/>
		<polygon class="st11" points="103.7401,95.59 97.4255,130.5358 96.4519,131.0831 102.6192,96.2267 		"/>
		<polygon class="st12" points="96.4519,131.0831 93.9524,129.6413 99.6198,97.9264 100.1776,94.827 100.1881,94.8217 
			102.6192,96.2267 		"/>
	</g>
	<g>
		<polygon class="st4" points="71.6542,77.0286 74.0103,78.3882 74.0841,78.4303 75.0975,77.8817 72.6642,76.4595 		"/>
		<polygon class="st12" points="71.6542,77.0286 77.9984,105.6307 80.1527,106.7983 74.0763,78.4246 		"/>
		<polygon class="st11" points="80.1527,106.7983 81.224,106.2077 75.0906,77.882 74.0772,78.4306 		"/>
	</g>
	<g>
		<polygon class="st4" points="74.0045,78.42 73.2152,77.9622 71.6312,77.0466 70.5156,77.6833 72.9467,79.0883 73.0205,79.0462 
			73.994,78.4937 74.0675,78.4516 		"/>
		<polygon class="st11" points="74.0676,78.4517 67.753,113.3975 66.7794,113.9447 72.9466,79.0884 		"/>
		<polygon class="st12" points="66.7794,113.9447 64.2799,112.5029 69.9473,80.788 70.5051,77.6886 70.5156,77.6833 
			72.9466,79.0884 		"/>
	</g>
	<g>
		<path class="st11" d="M104.7318,93.5119c-0.0968,0.5445-0.3376,0.9293-0.6596,1.1293c-0.0024,0.0023-0.0057,0.0033-0.0091,0.0056
			l-0.0612,0.0345l-0.6304,0.3574c0.0954-0.0661,0.1834-0.1487,0.2612-0.2477c0.1673-0.2128,0.2917-0.4995,0.3547-0.8536
			c0.2189-1.2309-0.3828-2.8061-1.344-3.5174c-0.3594-0.2666-0.7174-0.3744-1.0375-0.34c-0.1174,0.0124-0.23,0.0434-0.3346,0.0931
			l0.5981-0.3419c0.0012-0.0011,0.0035-0.0022,0.0047-0.0034l0.1417-0.0801l0.0002-0.0012c0,0,0,0,0.001,0
			c0.3906-0.1845,0.8801-0.1165,1.3711,0.2469C104.349,90.7058,104.9507,92.281,104.7318,93.5119z"/>
		<path class="st12" d="M102.6433,90.4199c-0.3594-0.2666-0.7174-0.3744-1.0375-0.34c-0.1174,0.0124-0.23,0.0434-0.3346,0.0931
			c-0.0055,0.0022-0.0112,0.0055-0.0169,0.0089l-0.0612,0.0345l-0.0443,0.0256c-0.002,0-0.0043,0.0011-0.0057,0.0033
			c-0.3103,0.2025-0.542,0.5829-0.6366,1.1147c-0.2189,1.2309,0.383,2.805,1.344,3.5174c0.4839,0.3574,0.9657,0.4287,1.3532,0.2558
			c0.0012-0.0011,0.0022-0.0011,0.0034-0.0022l0.1573-0.0879c0.0022-0.0011,0.0047-0.0034,0.0069-0.0045
			c0.0954-0.0661,0.1834-0.1487,0.2612-0.2477c0.1673-0.2128,0.2917-0.4995,0.3547-0.8536
			C104.2063,92.7064,103.6046,91.1312,102.6433,90.4199z M102.2848,94.1785c-0.001,0-0.001,0-0.0018-0.0012
			c-0.0927-0.0346-0.1865-0.0865-0.2802-0.1559c-0.5918-0.4387-0.9626-1.4086-0.8279-2.1665
			c0.0105-0.0588,0.0234-0.1141,0.0397-0.1659l0.0002-0.0012c0.1859-0.627,0.7305-0.8172,1.2762-0.412
			c0.5918,0.4387,0.9626,1.4086,0.8279,2.1665C103.2057,94.0792,102.7716,94.3646,102.2848,94.1785z"/>
		<path class="st14" d="M103.3189,93.4424c-0.1133,0.6368-0.5473,0.9222-1.0342,0.7361c-0.001,0-0.001,0-0.0018-0.0012
			c-0.0927-0.0346-0.1865-0.0865-0.2802-0.1559c-0.5918-0.4387-0.9626-1.4086-0.8279-2.1665
			c0.0105-0.0588,0.0234-0.1141,0.0397-0.1659l0.0002-0.0012c0.1859-0.627,0.7305-0.8172,1.2762-0.412
			C103.0828,91.7146,103.4537,92.6845,103.3189,93.4424z"/>
	</g>
	<g>
		<path class="st11" d="M75.4434,76.3561c-0.0968,0.5445-0.3376,0.9293-0.6596,1.1293c-0.0024,0.0023-0.0057,0.0033-0.0091,0.0056
			l-0.0612,0.0345l-0.6304,0.3574c0.0954-0.0661,0.1834-0.1487,0.2612-0.2477c0.1673-0.2128,0.2917-0.4995,0.3547-0.8536
			c0.2189-1.2309-0.3828-2.8061-1.344-3.5174c-0.3594-0.2666-0.7174-0.3744-1.0375-0.34c-0.1174,0.0124-0.23,0.0434-0.3346,0.0931
			l0.5981-0.3419c0.0012-0.0011,0.0035-0.0022,0.0047-0.0034l0.1417-0.0801l0.0002-0.0012c0,0,0,0,0.001,0
			c0.3906-0.1845,0.8801-0.1165,1.3711,0.2469C75.0606,73.5499,75.6623,75.1252,75.4434,76.3561z"/>
		<path class="st12" d="M73.3549,73.2641c-0.3594-0.2666-0.7174-0.3744-1.0375-0.34c-0.1174,0.0124-0.23,0.0434-0.3346,0.0931
			c-0.0055,0.0022-0.0112,0.0055-0.0169,0.0089l-0.0612,0.0345l-0.0443,0.0256c-0.002,0-0.0043,0.0011-0.0057,0.0033
			c-0.3103,0.2025-0.542,0.5829-0.6366,1.1147c-0.2189,1.2309,0.383,2.805,1.344,3.5174c0.4839,0.3574,0.9657,0.4287,1.3532,0.2558
			c0.0012-0.0011,0.0022-0.0011,0.0034-0.0022l0.1573-0.0879c0.0022-0.0011,0.0047-0.0034,0.0069-0.0045
			c0.0954-0.0661,0.1834-0.1487,0.2612-0.2477c0.1673-0.2128,0.2917-0.4995,0.3547-0.8536
			C74.9178,75.5506,74.3162,73.9753,73.3549,73.2641z M72.9964,77.0227c-0.001,0-0.001,0-0.0018-0.0012
			c-0.0927-0.0346-0.1865-0.0865-0.2802-0.1559c-0.5918-0.4387-0.9626-1.4086-0.8279-2.1665
			c0.0105-0.0588,0.0234-0.1141,0.0397-0.1659l0.0002-0.0012c0.1859-0.627,0.7305-0.8172,1.2762-0.412
			c0.5918,0.4387,0.9626,1.4086,0.8279,2.1665C73.9173,76.9234,73.4832,77.2088,72.9964,77.0227z"/>
		<path class="st14" d="M74.0305,76.2866c-0.1133,0.6368-0.5473,0.9222-1.0342,0.7361c-0.001,0-0.001,0-0.0018-0.0012
			c-0.0927-0.0346-0.1865-0.0865-0.2802-0.1559c-0.5918-0.4387-0.9626-1.4086-0.8279-2.1665
			c0.0105-0.0588,0.0234-0.1141,0.0397-0.1659l0.0002-0.0012c0.1859-0.627,0.7305-0.8172,1.2762-0.412
			C73.7944,74.5587,74.1653,75.5287,74.0305,76.2866z"/>
	</g>
	<g>
		<polygon class="st9" points="81.6133,86.7877 80.7399,87.2824 80.7293,87.2876 74.3148,83.5831 74.3148,83.5778 75.1936,83.0832 
			80.5978,86.2037 		"/>
		<polygon class="st11" points="75.1936,83.0832 74.3148,83.5778 74.3148,83.5831 74.3095,83.5831 67.1635,79.4524 68.0423,78.9524 
			74.1727,82.4938 		"/>
		<polygon class="st9" points="104.5485,100.0339 104.5431,100.0497 103.6801,100.5391 100.444,98.671 101.3227,98.1711 		"/>
		<polygon class="st11" points="88.9409,91.0251 88.0621,91.5198 88.0569,91.5198 80.7373,87.2943 80.7373,87.2838 81.6108,86.7892 
					"/>
		<polygon class="st11" points="101.3227,98.1711 100.444,98.671 100.4387,98.6658 94.4398,95.2033 95.3187,94.7034 
			100.3019,97.5818 		"/>
		<polygon class="st9" points="95.3187,94.7034 94.4398,95.2033 94.4345,95.2033 88.0621,91.5198 88.9409,91.0251 94.2977,94.114 		
			"/>
		<polygon class="st9" points="101.9647,110.1425 101.991,110.1583 102.8223,109.69 104.5431,100.0497 103.6801,100.5391 		"/>
		<polygon class="st6" points="95.8922,106.6327 89.5092,102.9492 88.9251,98.3343 88.0569,91.5251 88.0621,91.5198 
			94.4345,95.2033 94.4345,95.2086 95.2502,101.6178 		"/>
		<polygon class="st4" points="89.5092,102.9492 82.1948,98.7237 81.7318,95.1086 80.7373,87.2943 88.0569,91.5198 88.0569,91.5251 
			88.9251,98.3343 		"/>
		<polygon class="st6" points="68.608,90.8779 65.4402,89.0466 67.1557,79.459 		"/>
		<polygon class="st6" points="82.1948,98.7237 75.7697,95.0138 75.1857,90.4305 74.3174,83.5845 80.7268,87.289 80.7373,87.2943 
			81.7318,95.1086 		"/>
		<path class="st6" d="M100.444,98.671l-0.0053,0.0053l1.4576,11.4241l0.0683,0.0421l1.7155-9.6034L100.444,98.671z"/>
		<polygon class="st4" points="101.8963,110.1004 95.8922,106.6327 95.2502,101.6178 94.4345,95.2086 94.4398,95.2033 
			100.4387,98.6658 100.4387,98.6763 		"/>
		<polygon class="st4" points="75.7672,95.0125 68.6106,90.8764 67.1583,79.4576 67.1583,79.4524 67.1635,79.4524 74.3095,83.5831 
			74.3148,83.5831 75.1883,90.4291 		"/>
	</g>
</g>
<g>
	<g>
		<g>
			<g>
				<g class="st1">
					<defs>
						<polygon id="SVGID_1_" class="st1" points="169.5807,45.1379 162.2297,40.867 155.2044,44.9253 162.5533,49.1964 						"/>
					</defs>
					<clipPath id="SVGID_2_">
						<use xlink:href="#SVGID_1_"  style="overflow:visible;"/>
					</clipPath>
					<g class="st15">
						<g>
							<g>
								<g>
									<g>
										<polygon class="st16" points="155.2044,44.9253 162.2297,40.867 169.5807,45.1379 162.5533,49.1964 155.2044,44.9253 
																					"/>
									</g>
								</g>
							</g>
						</g>
					</g>
				</g>
			</g>
		</g>
	</g>
	<g>
		<g>
			<g>
				<g class="st1">
					<defs>
						<polygon id="SVGID_3_" class="st1" points="155.9436,37.8529 148.609,33.5891 141.5838,37.6475 148.9162,41.9089 						"/>
					</defs>
					<clipPath id="SVGID_4_">
						<use xlink:href="#SVGID_3_"  style="overflow:visible;"/>
					</clipPath>
					<g class="st17">
						<g>
							<g>
								<g>
									<g>
										<polygon class="st5" points="141.5838,37.6475 148.609,33.5891 155.9436,37.8505 148.9184,41.9089 141.5838,37.6475 
																					"/>
									</g>
								</g>
							</g>
						</g>
					</g>
				</g>
			</g>
		</g>
	</g>
	<g>
		<g>
			<g>
				<g class="st1">
					<defs>
						<polygon id="SVGID_5_" class="st1" points="142.3208,30.7002 134.9695,26.4293 127.9278,30.497 135.2767,34.7656 						"/>
					</defs>
					<clipPath id="SVGID_6_">
						<use xlink:href="#SVGID_5_"  style="overflow:visible;"/>
					</clipPath>
					<g class="st18">
						<g>
							<g>
								<g>
									<g>
										<polygon class="st16" points="127.9278,30.497 134.9695,26.4293 142.3208,30.7002 135.2767,34.7656 127.9278,30.497 
																					"/>
									</g>
								</g>
							</g>
						</g>
					</g>
				</g>
			</g>
		</g>
	</g>
</g>
</svg>
