<?xml version="1.0" encoding="utf-8"?>
<!-- Generator: Adobe Illustrator 21.1.0, SVG Export Plug-In . SVG Version: 6.00 Build 0)  -->
<svg version="1.1" id="Layer_1" xmlns="http://www.w3.org/2000/svg" xmlns:xlink="http://www.w3.org/1999/xlink" x="0px" y="0px"
	 viewBox="0 0 269 176" style="enable-background:new 0 0 269 176;" xml:space="preserve">
<style type="text/css">
	.st0{fill:#666666;}
	.st1{fill:none;stroke:#B6E8FB;stroke-width:2;stroke-miterlimit:10;}
	.st2{enable-background:new    ;}
	.st3{fill:#B6E8FB;}
	.st4{fill:#5B6C16;}
	.st5{fill:#363F0D;}
	.st6{fill:#465111;}
	.st7{fill:#768B1C;}
	.st8{clip-path:url(#SVGID_2_);enable-background:new    ;}
	.st9{fill:#38410D;}
	.st10{fill:#3A430E;}
	.st11{fill:#3C460E;}
	.st12{fill:#3E480F;}
	.st13{fill:#404A0F;}
	.st14{clip-path:url(#SVGID_4_);enable-background:new    ;}
	.st15{fill:#576715;}
	.st16{fill:#5B6B16;}
	.st17{fill:#5E6F16;}
	.st18{fill:#617317;}
	.st19{fill:#657718;}
	.st20{fill:#687B19;}
	.st21{fill:#6C7F1A;}
	.st22{clip-path:url(#SVGID_6_);enable-background:new    ;}
	.st23{fill:#9BB625;}
	.st24{clip-path:url(#SVGID_8_);enable-background:new    ;}
	.st25{fill:#778C1C;}
	.st26{clip-path:url(#SVGID_10_);enable-background:new    ;}
	.st27{fill:#343C0C;}
	.st28{fill:#475211;}
	.st29{clip-path:url(#SVGID_12_);enable-background:new    ;}
	.st30{clip-path:url(#SVGID_14_);enable-background:new    ;}
	.st31{clip-path:url(#SVGID_16_);enable-background:new    ;}
	.st32{clip-path:url(#SVGID_18_);enable-background:new    ;}
	.st33{clip-path:url(#SVGID_20_);enable-background:new    ;}
	.st34{clip-path:url(#SVGID_22_);enable-background:new    ;}
	.st35{clip-path:url(#SVGID_24_);enable-background:new    ;}
	.st36{clip-path:url(#SVGID_26_);enable-background:new    ;}
	.st37{fill:#5C6B16;}
	.st38{fill:#989696;}
	.st39{fill:#DAD9D9;}
	.st40{fill:#DAD9D9;stroke:#C8C7C7;stroke-miterlimit:10;}
	.st41{fill:#838181;}
</style>
<g>
	<path class="st0" d="M65.2964,148.0039h1.9785c1.2197,0,1.7393,0.709,1.7393,1.5684c0,0.46-0.29,0.9199-0.6299,1.1797
		c0.5801,0.25,0.9497,0.8594,0.9497,1.4893c0,0.9697-0.5898,1.7588-1.959,1.7588h-2.0786V148.0039z M67.2749,150.4824
		c0.7495,0,0.9795-0.4502,0.9795-0.9102c0-0.459-0.23-0.8994-0.9795-0.8994h-1.1792v1.8096H67.2749z M67.375,153.3301
		c0.8994,0,1.1694-0.5391,1.1694-1.0889s-0.27-1.0898-1.1694-1.0898h-1.2793v2.1787H67.375z"/>
	<path class="st0" d="M70.2261,152.251v-2.5684h0.7593v2.499c0,0.9688,0.3799,1.2891,1.0098,1.2891
		c0.6196,0,1.4189-0.54,1.4189-1.2402v-2.5479h0.7598V154h-0.6597l-0.0503-0.8301c-0.3198,0.5195-0.9595,0.9502-1.6787,0.9502
		C70.6357,154.1201,70.2261,153.3203,70.2261,152.251z"/>
	<path class="st0" d="M75.1162,153.6797l0.1499-0.5996c0.29,0.1797,0.8496,0.4502,1.4692,0.4502
		c0.5396,0,0.9595-0.1904,0.9595-0.6689c0-0.3809-0.3896-0.5898-1.0996-0.7705c-0.9194-0.2295-1.3389-0.7197-1.3389-1.2793
		c0-0.6787,0.5195-1.2588,1.5791-1.2588c0.7192,0,1.3389,0.3594,1.3389,0.3594l-0.1499,0.5801
		c-0.2998-0.2002-0.7593-0.3496-1.189-0.3496c-0.5898,0-0.8799,0.2188-0.8799,0.5693c0,0.3701,0.3599,0.5889,0.9297,0.7295
		c0.9893,0.2402,1.5093,0.6895,1.5093,1.2598c0,0.9092-0.6899,1.4287-1.6792,1.4287
		C75.7856,154.1299,75.1162,153.6797,75.1162,153.6797z"/>
	<path class="st0" d="M79.3457,148.0039h0.7598v0.8291h-0.7598V148.0039z M79.3457,149.6826h0.7598V154h-0.7598V149.6826z"/>
	<path class="st0" d="M81.3457,149.6826h0.6597l0.0498,0.8291c0.3198-0.5195,0.9497-0.9492,1.6792-0.9492
		c1.1494,0,1.5591,0.7988,1.5591,1.8691V154h-0.7593v-2.498c0-0.9707-0.3799-1.29-1.0098-1.29c-0.6196,0-1.4189,0.54-1.4189,1.2393
		V154h-0.7598V149.6826z"/>
	<path class="st0" d="M86.2861,151.8105c0-1.3887,1.0293-2.248,2.0889-2.248c1.0791,0,1.8389,0.6992,1.8389,1.6797
		c0,0.1494-0.0298,0.3398-0.0601,0.4893h-3.1182c-0.0601,0.7588,0.2998,1.7686,1.6792,1.7686c0.4897,0,1.0894-0.2402,1.4189-0.5596
		v0.6699c-0.4097,0.3291-1.0493,0.5098-1.6787,0.5098C87.1855,154.1201,86.2861,153.1504,86.2861,151.8105z M89.4844,151.2012
		c0.0898-0.5791-0.3701-1.0391-1.0796-1.0391c-0.6094,0-1.1694,0.3301-1.2993,1.0391H89.4844z"/>
	<path class="st0" d="M90.9658,153.6797l0.1499-0.5996c0.29,0.1797,0.8496,0.4502,1.4692,0.4502
		c0.5396,0,0.9595-0.1904,0.9595-0.6689c0-0.3809-0.3896-0.5898-1.0996-0.7705c-0.9194-0.2295-1.3389-0.7197-1.3389-1.2793
		c0-0.6787,0.5195-1.2588,1.5791-1.2588c0.7192,0,1.3389,0.3594,1.3389,0.3594l-0.1499,0.5801
		c-0.2998-0.2002-0.7593-0.3496-1.189-0.3496c-0.5898,0-0.8799,0.2188-0.8799,0.5693c0,0.3701,0.3599,0.5889,0.9297,0.7295
		c0.9893,0.2402,1.5093,0.6895,1.5093,1.2598c0,0.9092-0.6899,1.4287-1.6792,1.4287
		C91.6353,154.1299,90.9658,153.6797,90.9658,153.6797z"/>
	<path class="st0" d="M94.896,153.6797l0.1499-0.5996c0.29,0.1797,0.8496,0.4502,1.4692,0.4502
		c0.5396,0,0.9595-0.1904,0.9595-0.6689c0-0.3809-0.3896-0.5898-1.0996-0.7705c-0.9194-0.2295-1.3389-0.7197-1.3389-1.2793
		c0-0.6787,0.5195-1.2588,1.5791-1.2588c0.7192,0,1.3389,0.3594,1.3389,0.3594l-0.1499,0.5801
		c-0.2998-0.2002-0.7593-0.3496-1.189-0.3496c-0.5898,0-0.8799,0.2188-0.8799,0.5693c0,0.3701,0.3599,0.5889,0.9297,0.7295
		c0.9893,0.2402,1.5093,0.6895,1.5093,1.2598c0,0.9092-0.6899,1.4287-1.6792,1.4287
		C95.5654,154.1299,94.896,153.6797,94.896,153.6797z"/>
	<path class="st0" d="M101.0557,148.0039h0.7598v0.8291h-0.7598V148.0039z M101.0557,149.6826h0.7598V154h-0.7598V149.6826z"/>
	<path class="st0" d="M103.0557,149.6826h0.6597l0.0498,0.8291c0.3198-0.5195,0.9497-0.9492,1.6792-0.9492
		c1.1494,0,1.5591,0.7988,1.5591,1.8691V154h-0.7593v-2.498c0-0.9707-0.3799-1.29-1.0098-1.29c-0.6196,0-1.4189,0.54-1.4189,1.2393
		V154h-0.7598V149.6826z"/>
	<path class="st0" d="M110.3154,154v-1.0723l2.5132-2.6094c0.8965-0.9443,1.7446-1.8887,1.7446-3.0889
		c0-1.1689-0.7681-1.585-1.5527-1.585c-0.7842,0-1.6323,0.3359-2.4648,1.041v-1.6016c0.5283-0.4639,1.793-0.9766,2.8013-0.9766
		c1.8086,0,3.1694,1.0732,3.1694,2.8818c0,1.665-1.0728,2.833-1.9531,3.6338l-1.9688,1.8564h4.1299V154H110.3154z"/>
	<path class="st0" d="M123.9819,151.6465V154h-1.8564v-2.3535h-4.418v-0.9922l4.7539-6.3379h1.5205v5.9707h1.7446v1.3594H123.9819z
		 M122.1255,146.7969l-2.6094,3.4902h2.6094V146.7969z"/>
	<path class="st0" d="M132.75,151.6465V154h-1.8564v-2.3535h-4.418v-0.9922l4.7539-6.3379h1.5205v5.9707h1.7446v1.3594H132.75z
		 M130.8936,146.7969l-2.6094,3.4902h2.6094V146.7969z"/>
	<path class="st0" d="M138.4063,151.8418c0-1.3496,0.9395-2.2793,2.249-2.2793c0.5693,0,1.0195,0.0996,1.5088,0.4395v0.6895
		c-0.4092-0.3789-0.9395-0.5098-1.4385-0.5098c-0.9297,0-1.5596,0.71-1.5596,1.6602c0,0.9688,0.6299,1.6582,1.5596,1.6582
		c0.499,0,1.0293-0.1299,1.4385-0.5098v0.6895c-0.4893,0.3398-0.9395,0.4404-1.5088,0.4404
		C139.3457,154.1201,138.4063,153.1904,138.4063,151.8418z"/>
	<path class="st0" d="M142.8467,151.8418c0-1.2598,0.96-2.3193,2.3584-2.3193c1.3896,0,2.3496,1.0596,2.3496,2.3193
		c0,1.2686-0.96,2.3184-2.3496,2.3184C143.8066,154.1602,142.8467,153.1104,142.8467,151.8418z M146.7949,151.8418
		c0-0.9395-0.6094-1.709-1.5898-1.709c-0.9893,0-1.5986,0.7695-1.5986,1.709c0,0.9492,0.6201,1.709,1.5986,1.709
		C146.1855,153.5508,146.7949,152.791,146.7949,151.8418z"/>
	<path class="st0" d="M148.4863,152.251v-2.5684h0.7598v2.499c0,0.9688,0.3799,1.2891,1.0098,1.2891
		c0.6191,0,1.4189-0.54,1.4189-1.2402v-2.5479h0.7598V154h-0.6592l-0.0508-0.8301c-0.3203,0.5195-0.959,0.9502-1.6787,0.9502
		C148.8965,154.1201,148.4863,153.3203,148.4863,152.251z"/>
	<path class="st0" d="M153.6758,149.6826h0.6602l0.0498,0.8291c0.3193-0.5195,0.9502-0.9492,1.6787-0.9492
		c1.1504,0,1.5596,0.7988,1.5596,1.8691V154h-0.7588v-2.498c0-0.9707-0.3809-1.29-1.0098-1.29c-0.6201,0-1.4199,0.54-1.4199,1.2393
		V154h-0.7598V149.6826z"/>
	<path class="st0" d="M159.376,150.2021h-0.9697v-0.5195h0.9697v-1.1797h0.7598v1.1797h0.9795v0.5195h-0.9795V154h-0.7598V150.2021z
		"/>
	<path class="st0" d="M161.9063,149.6826h0.6602l0.0488,0.8291c0.2803-0.5293,0.9502-0.9492,1.6797-0.9492v0.8193
		c-0.8193-0.1494-1.6289,0.3193-1.6289,1.0498V154h-0.7598V149.6826z"/>
	<path class="st0" d="M165.0566,148.0039h0.7598v0.8291h-0.7598V148.0039z M165.0566,149.6826h0.7598V154h-0.7598V149.6826z"/>
	<path class="st0" d="M166.8164,151.8105c0-1.3887,1.0293-2.248,2.0889-2.248c1.0791,0,1.8389,0.6992,1.8389,1.6797
		c0,0.1494-0.0293,0.3398-0.0605,0.4893h-3.1172c-0.0605,0.7588,0.2988,1.7686,1.6787,1.7686c0.4893,0,1.0889-0.2402,1.4189-0.5596
		v0.6699c-0.4102,0.3291-1.0488,0.5098-1.6787,0.5098C167.7158,154.1201,166.8164,153.1504,166.8164,151.8105z M170.0146,151.2012
		c0.0898-0.5791-0.3701-1.0391-1.0791-1.0391c-0.6094,0-1.1699,0.3301-1.2998,1.0391H170.0146z"/>
	<path class="st0" d="M171.4961,153.6797l0.1504-0.5996c0.2891,0.1797,0.8496,0.4502,1.4688,0.4502
		c0.5391,0,0.959-0.1904,0.959-0.6689c0-0.3809-0.3887-0.5898-1.0996-0.7705c-0.9189-0.2295-1.3379-0.7197-1.3379-1.2793
		c0-0.6787,0.5195-1.2588,1.5781-1.2588c0.7197,0,1.3398,0.3594,1.3398,0.3594l-0.1504,0.5801
		c-0.2998-0.2002-0.7598-0.3496-1.1895-0.3496c-0.5898,0-0.8789,0.2188-0.8789,0.5693c0,0.3701,0.3594,0.5889,0.9297,0.7295
		c0.9883,0.2402,1.5088,0.6895,1.5088,1.2598c0,0.9092-0.6904,1.4287-1.6787,1.4287
		C172.166,154.1299,171.4961,153.6797,171.4961,153.6797z"/>
	<path class="st0" d="M177.4961,152.4209c0-0.7393,0.5391-1.2197,1.1689-1.6191c-0.3193-0.5498-0.5098-1.04-0.5098-1.5088
		c0-0.8496,0.7598-1.459,1.71-1.459c0.8691,0,1.5078,0.5195,1.5078,1.2188c0,0.9395-0.959,1.3594-1.8086,1.8496
		c0.4707,0.6484,1.0098,1.2793,1.4893,1.7383c0.1699-0.3096,0.25-1.1797,0.2402-1.6484h1.5391v0.5098h-0.96
		c-0.0293,0.4395-0.1094,1.0586-0.3789,1.5684c0.5391,0.4902,0.8691,0.5996,1.2188,0.5996c0.1895,0,0.4805-0.0996,0.6699-0.3496
		l0.1797,0.2695c-0.2695,0.4102-0.6699,0.5801-1.0195,0.5801c-0.5195,0-0.9395-0.1094-1.4785-0.5391
		c-0.3398,0.3193-0.8203,0.5391-1.4697,0.5391C178.5449,154.1699,177.4961,153.6201,177.4961,152.4209z M180.6348,153.2402
		c-0.4707-0.4492-1.1406-1.209-1.6602-1.9688c-0.4092,0.2998-0.709,0.6602-0.709,1.1797c0,0.6494,0.5801,1.1797,1.4092,1.1797
		C180.0645,153.6309,180.4238,153.4805,180.6348,153.2402z M180.6836,149.0527c0-0.4395-0.3691-0.6797-0.8184-0.6797
		c-0.6504,0-0.9902,0.4395-0.9902,0.9102c0,0.4189,0.1406,0.7695,0.3799,1.1689
		C179.9941,150.0322,180.6836,149.6621,180.6836,149.0527z"/>
	<path class="st0" d="M186.5352,150.2021h-0.9688v-0.5195h0.9688v-1.1797h0.7598v1.1797h0.9795v0.5195h-0.9795V154h-0.7598V150.2021
		z"/>
	<path class="st0" d="M188.8262,151.8105c0-1.3887,1.0293-2.248,2.0879-2.248c1.0801,0,1.8398,0.6992,1.8398,1.6797
		c0,0.1494-0.0303,0.3398-0.0605,0.4893h-3.1182c-0.0596,0.7588,0.2998,1.7686,1.6787,1.7686c0.4902,0,1.0898-0.2402,1.4199-0.5596
		v0.6699c-0.4102,0.3291-1.0498,0.5098-1.6797,0.5098C189.7246,154.1201,188.8262,153.1504,188.8262,151.8105z M192.0234,151.2012
		c0.0898-0.5791-0.3691-1.0391-1.0791-1.0391c-0.6094,0-1.1689,0.3301-1.2998,1.0391H192.0234z"/>
	<path class="st0" d="M193.8057,149.6826h0.6592l0.0508,0.8291c0.2793-0.5293,0.9492-0.9492,1.6787-0.9492v0.8193
		c-0.8193-0.1494-1.6289,0.3193-1.6289,1.0498V154h-0.7598V149.6826z"/>
	<path class="st0" d="M196.9551,149.6826h0.6602l0.0498,0.8291c0.2803-0.5293,0.9502-0.9492,1.6787-0.9492v0.8193
		c-0.8184-0.1494-1.6289,0.3193-1.6289,1.0498V154h-0.7598V149.6826z"/>
	<path class="st0" d="M200.1055,148.0039h0.7598v0.8291h-0.7598V148.0039z M200.1055,149.6826h0.7598V154h-0.7598V149.6826z"/>
	<path class="st0" d="M202.625,150.2021h-0.9688v-0.5195h0.9688v-1.1797h0.7598v1.1797h0.9795v0.5195h-0.9795V154h-0.7598V150.2021z
		"/>
	<path class="st0" d="M204.8555,151.8418c0-1.2598,0.959-2.3193,2.3594-2.3193c1.3887,0,2.3477,1.0596,2.3477,2.3193
		c0,1.2686-0.959,2.3184-2.3477,2.3184C205.8145,154.1602,204.8555,153.1104,204.8555,151.8418z M208.8027,151.8418
		c0-0.9395-0.6094-1.709-1.5879-1.709c-0.9902,0-1.5996,0.7695-1.5996,1.709c0,0.9492,0.6191,1.709,1.5996,1.709
		C208.1934,153.5508,208.8027,152.791,208.8027,151.8418z"/>
	<path class="st0" d="M210.5059,149.6826h0.6592l0.0498,0.8291c0.2793-0.5293,0.9492-0.9492,1.6797-0.9492v0.8193
		c-0.8203-0.1494-1.6289,0.3193-1.6289,1.0498V154h-0.7598V149.6826z"/>
	<path class="st0" d="M213.6543,148.0039h0.7598v0.8291h-0.7598V148.0039z M213.6543,149.6826h0.7598V154h-0.7598V149.6826z"/>
	<path class="st0" d="M215.415,151.8105c0-1.3887,1.0293-2.248,2.0889-2.248c1.0791,0,1.8389,0.6992,1.8389,1.6797
		c0,0.1494-0.0303,0.3398-0.0596,0.4893h-3.1191c-0.0596,0.7588,0.3008,1.7686,1.6797,1.7686c0.4902,0,1.0898-0.2402,1.4189-0.5596
		v0.6699c-0.4092,0.3291-1.0498,0.5098-1.6787,0.5098C216.3145,154.1201,215.415,153.1504,215.415,151.8105z M218.6133,151.2012
		c0.0898-0.5791-0.3701-1.0391-1.0801-1.0391c-0.6094,0-1.1689,0.3301-1.2988,1.0391H218.6133z"/>
	<path class="st0" d="M220.0957,153.6797l0.1494-0.5996c0.29,0.1797,0.8496,0.4502,1.4697,0.4502
		c0.5391,0,0.959-0.1904,0.959-0.6689c0-0.3809-0.3896-0.5898-1.0996-0.7705c-0.9199-0.2295-1.3389-0.7197-1.3389-1.2793
		c0-0.6787,0.5195-1.2588,1.5791-1.2588c0.7188,0,1.3389,0.3594,1.3389,0.3594l-0.1494,0.5801
		c-0.3008-0.2002-0.7598-0.3496-1.1895-0.3496c-0.5898,0-0.8799,0.2188-0.8799,0.5693c0,0.3701,0.3604,0.5889,0.9297,0.7295
		c0.9893,0.2402,1.5088,0.6895,1.5088,1.2598c0,0.9092-0.6895,1.4287-1.6787,1.4287
		C220.7646,154.1299,220.0957,153.6797,220.0957,153.6797z"/>
</g>
<line class="st1" x1="94.9842" y1="80" x2="191.9842" y2="22"/>
<g>
	<g class="st2">
		<g>
			<g>
				<path class="st3" d="M194.3743,20.1696c-2.1288-1.232-5.5759-1.232-7.6952,0c-2.116,1.232-2.1097,3.2268,0.0224,4.4571
					c2.1353,1.232,5.5822,1.232,7.7015,0C196.5224,23.3964,196.5096,21.4016,194.3743,20.1696L194.3743,20.1696z"/>
			</g>
		</g>
	</g>
</g>
<line class="st1" x1="127.3934" y1="83.8952" x2="175.3934" y2="54.8952"/>
<line class="st1" x1="175.1099" y1="54.3751" x2="202.3934" y2="69.8952"/>
<g>
	<g class="st2">
		<g>
			<g>
				<path class="st3" d="M206.7835,69.0648c-2.1288-1.232-5.5759-1.232-7.6952,0c-2.116,1.232-2.1097,3.2268,0.0224,4.4571
					c2.1353,1.232,5.5822,1.232,7.7015,0C208.9315,72.2916,208.9188,70.2968,206.7835,69.0648L206.7835,69.0648z"/>
			</g>
		</g>
	</g>
</g>
<g>
	<g>
		<g>
			<g class="st2">
				<g>
					<polygon class="st4" points="102.5181,85.0718 100.4037,83.843 129.7604,66.894 131.8748,68.1227 					"/>
				</g>
				<g>
					<polygon class="st5" points="102.5158,84.2574 100.4014,83.0287 129.0494,66.4888 131.1638,67.7175 					"/>
				</g>
				<g>
					<polygon class="st6" points="102.5181,85.0718 100.4037,83.843 100.4014,83.0287 102.5158,84.2574 					"/>
				</g>
				<g>
					<polygon class="st7" points="131.8748,68.1227 129.7604,66.894 129.6555,29.8962 131.7699,31.125 					"/>
				</g>
				<g>
					<polygon class="st6" points="131.1638,67.7175 129.0494,66.4888 128.9492,31.127 131.0635,32.3558 					"/>
				</g>
				<g>
					<polygon class="st4" points="95.0907,88.6399 92.9763,87.4111 94.93,86.2831 97.0444,87.5119 					"/>
				</g>
				<g>
					<polygon class="st7" points="97.0444,87.5119 94.93,86.2831 94.9186,82.2481 97.033,83.4768 					"/>
				</g>
				<g>
					<polygon class="st6" points="95.0907,88.6399 92.9763,87.4111 92.965,83.4201 95.0794,84.6488 					"/>
				</g>
				<g>
					<polygon class="st7" points="89.0848,92.8275 86.9704,91.5988 86.9681,90.7844 89.0825,92.0132 					"/>
				</g>
				<g class="st2">
					<defs>
						<path id="SVGID_1_" class="st2" d="M96.4994,71.927l2.1144,1.2288c0.3759,0.2184,0.5469,0.6295,0.5485,1.1995
							c0.0042,1.4673-0.7911,2.9332-2.1438,3.9934l-2.1144-1.2287c1.3528-1.0602,2.148-2.5261,2.1438-3.9934
							C97.0463,72.5565,96.8753,72.1454,96.4994,71.927z"/>
					</defs>
					<clipPath id="SVGID_2_">
						<use xlink:href="#SVGID_1_"  style="overflow:visible;"/>
					</clipPath>
					<g class="st8">
						<path class="st5" d="M97.0184,78.3486l-2.1144-1.2288c0.2061-0.1615,0.3993-0.3325,0.5787-0.5115l2.1144,1.2288
							C97.4177,78.0161,97.2246,78.1871,97.0184,78.3486"/>
						<path class="st9" d="M97.5971,77.8371l-2.1144-1.2288c0.1377-0.1374,0.2673-0.2795,0.3884-0.4256l2.1144,1.2287
							C97.8644,77.5577,97.7348,77.6998,97.5971,77.8371"/>
						<path class="st10" d="M97.9855,77.4115l-2.1144-1.2287c0.1067-0.1288,0.2067-0.2607,0.2999-0.3954l2.1144,1.2287
							C98.1922,77.1508,98.0922,77.2827,97.9855,77.4115"/>
						<path class="st11" d="M98.2854,77.0161l-2.1144-1.2287c0.0919-0.1328,0.1771-0.2682,0.2553-0.4058l2.1144,1.2287
							C98.4624,76.7479,98.3773,76.8833,98.2854,77.0161"/>
						<path class="st12" d="M98.5407,76.6103l-2.1144-1.2287c0.0893-0.1571,0.1696-0.3171,0.2404-0.4794l2.1144,1.2288
							C98.7103,76.2932,98.63,76.4532,98.5407,76.6103"/>
						<path class="st13" d="M98.7811,76.131l-2.1144-1.2288c0.2503-0.5731,0.3829-1.1743,0.3812-1.7758
							c-0.0004-0.1257-0.0089-0.2436-0.0262-0.3535l2.1144,1.2287c0.0172,0.1099,0.0258,0.2278,0.0262,0.3535
							C99.164,74.9566,99.0314,75.5578,98.7811,76.131"/>
						<path class="st12" d="M99.1361,74.0017l-2.1144-1.2287c-0.0176-0.1124-0.0442-0.2163-0.0803-0.3114l2.1144,1.2288
							C99.0919,73.7854,99.1185,73.8893,99.1361,74.0017"/>
						<path class="st11" d="M99.0559,73.6903l-2.1144-1.2288c-0.0295-0.0778-0.0653-0.1498-0.1077-0.2155l2.1144,1.2287
							C98.9905,73.5405,99.0263,73.6125,99.0559,73.6903"/>
						<path class="st10" d="M98.9481,73.4748l-2.1144-1.2287c-0.0413-0.0641-0.0889-0.1224-0.1429-0.1747l2.1144,1.2288
							C98.8593,73.3523,98.9068,73.4106,98.9481,73.4748"/>
						<path class="st9" d="M98.8053,73.3001l-2.1144-1.2288c-0.0567-0.0548-0.1204-0.103-0.1915-0.1443l2.1144,1.2287
							C98.6849,73.197,98.7486,73.2452,98.8053,73.3001"/>
					</g>
				</g>
				<g class="st2">
					<defs>
						<path id="SVGID_3_" class="st2" d="M100.7263,64.3938l2.1144,1.2288c1.2815,0.7447,1.8607,2.288,1.8674,4.6563
							c0.0166,5.8692-3.5265,10.2957-7.6751,13.198l-2.1144-1.2287c4.1486-2.9023,7.6917-7.3288,7.6751-13.198
							C102.587,66.6819,102.0078,65.1386,100.7263,64.3938z"/>
					</defs>
					<clipPath id="SVGID_4_">
						<use xlink:href="#SVGID_3_"  style="overflow:visible;"/>
					</clipPath>
					<g class="st14">
						<path class="st15" d="M97.033,83.4768l-2.1144-1.2287c0.3208-0.2244,0.638-0.458,0.9503-0.7007l2.1144,1.2287
							C97.671,83.0188,97.3538,83.2524,97.033,83.4768"/>
						<path class="st16" d="M97.9833,82.7762l-2.1144-1.2287c0.6925-0.5382,1.3605-1.121,1.9891-1.7482l2.1144,1.2287
							C99.3438,81.6551,98.6758,82.238,97.9833,82.7762"/>
						<path class="st17" d="M99.9723,81.028l-2.1144-1.2287c0.4229-0.4219,0.8279-0.8639,1.2105-1.3257l2.1144,1.2287
							C100.8002,80.1642,100.3952,80.6061,99.9723,81.028"/>
						<path class="st18" d="M101.1828,79.7023l-2.1144-1.2287c0.317-0.3827,0.6187-0.779,0.9024-1.1889l2.1144,1.2287
							C101.8015,78.9233,101.4999,79.3197,101.1828,79.7023"/>
						<path class="st19" d="M102.0852,78.5134l-2.1144-1.2287c0.2662-0.3847,0.5167-0.7814,0.7491-1.19l2.1144,1.2288
							C102.6019,77.732,102.3515,78.1287,102.0852,78.5134"/>
						<path class="st20" d="M102.8344,77.3234l-2.1144-1.2288c0.2571-0.452,0.4923-0.9185,0.7026-1.3995l2.1144,1.2288
							C103.3267,76.4049,103.0915,76.8714,102.8344,77.3234"/>
						<path class="st21" d="M103.537,75.9239l-2.1144-1.2288c0.7439-1.7015,1.1769-3.5843,1.1711-5.645
							c-0.0017-0.5993-0.0401-1.1458-0.1172-1.6399l2.1144,1.2288c0.0771,0.4941,0.1155,1.0406,0.1172,1.6399
							C104.7139,72.3396,104.2809,74.2224,103.537,75.9239"/>
						<path class="st20" d="M104.5909,68.6389l-2.1144-1.2288c-0.0716-0.4586-0.1766-0.8721-0.3167-1.2407l2.1144,1.2288
							C104.4143,67.7669,104.5193,68.1803,104.5909,68.6389"/>
						<path class="st19" d="M104.2742,67.3982l-2.1144-1.2288c-0.1056-0.278-0.2312-0.5305-0.3774-0.7576l2.1144,1.2288
							C104.0431,66.8678,104.1686,67.1203,104.2742,67.3982"/>
						<path class="st18" d="M103.8968,66.6406l-2.1144-1.2288c-0.1372-0.2132-0.2927-0.4041-0.4669-0.5728l2.1144,1.2288
							C103.6041,66.2365,103.7596,66.4274,103.8968,66.6406"/>
						<path class="st17" d="M103.4299,66.0678l-2.1144-1.2288c-0.1768-0.1712-0.373-0.3196-0.5892-0.4452l2.1144,1.2288
							C103.0569,65.7482,103.2531,65.8966,103.4299,66.0678"/>
					</g>
				</g>
				<g>
					<polygon class="st7" points="97.0184,78.3486 94.9041,77.1199 94.8891,71.845 97.0035,73.0737 					"/>
				</g>
				<g class="st2">
					<defs>
						<path id="SVGID_5_" class="st2" d="M96.4994,71.927l2.1144,1.2288c-0.3498-0.2033-0.877-0.2397-1.6103-0.082l-2.1144-1.2287
							C95.6224,71.6873,96.1496,71.7237,96.4994,71.927z"/>
					</defs>
					<clipPath id="SVGID_6_">
						<use xlink:href="#SVGID_5_"  style="overflow:visible;"/>
					</clipPath>
					<g class="st22">
						<path class="st15" d="M97.0035,73.0737l-2.1144-1.2288c0.7333-0.1577,1.2605-0.1213,1.6103,0.082l2.1144,1.2287
							C98.264,72.9525,97.7368,72.916,97.0035,73.0737"/>
					</g>
				</g>
				<g>
					<path class="st23" d="M97.0035,73.0737c1.5211-0.3271,2.1557,0.181,2.1588,1.2815c0.0042,1.4673-0.7911,2.9332-2.1438,3.9934
						L97.0035,73.0737z"/>
				</g>
				<g>
					<polygon class="st6" points="95.0651,79.6087 92.9507,78.3799 92.9336,72.3347 95.048,73.5634 					"/>
				</g>
				<g class="st2">
					<defs>
						<path id="SVGID_7_" class="st2" d="M87.0511,86.0286l-2.1144-1.2287c1.5619,0.5165,4.3185,0.6298,8.0283-1.3798l2.1144,1.2288
							C91.3695,86.6584,88.6129,86.5451,87.0511,86.0286z"/>
					</defs>
					<clipPath id="SVGID_8_">
						<use xlink:href="#SVGID_7_"  style="overflow:visible;"/>
					</clipPath>
					<g class="st24">
						<path class="st15" d="M87.0511,86.0286l-2.1144-1.2287c1.5619,0.5165,4.3185,0.6298,8.0283-1.3798l2.1144,1.2288
							C91.3695,86.6584,88.6129,86.5451,87.0511,86.0286"/>
					</g>
				</g>
				<g>
					<polygon class="st25" points="102.2428,60.1357 100.1284,58.907 101.3088,53.449 103.4232,54.6777 					"/>
				</g>
				<g class="st2">
					<defs>
						<path id="SVGID_9_" class="st2" d="M100.7263,64.3938l2.1144,1.2288c-1.2474-0.7249-3.1601-0.6932-5.8581,0.0706
							l-2.1144-1.2287C97.5661,63.7006,99.4789,63.669,100.7263,64.3938z"/>
					</defs>
					<clipPath id="SVGID_10_">
						<use xlink:href="#SVGID_9_"  style="overflow:visible;"/>
					</clipPath>
					<g class="st26">
						<path class="st27" d="M96.9826,65.6932l-2.1144-1.2287c2.698-0.7639,4.6107-0.7955,5.8581-0.0707l2.1144,1.2288
							C101.5933,64.8977,99.6805,64.9294,96.9826,65.6932"/>
					</g>
				</g>
				<g>
					<polygon class="st28" points="87.0511,86.0286 84.9367,84.7999 86.1992,78.9711 88.3136,80.1998 					"/>
				</g>
				<g class="st2">
					<defs>
						<path id="SVGID_11_" class="st2" d="M88.3136,80.1998l-2.1144-1.2287c1.3183,0.3412,3.8394,0.8183,6.7515-0.5912
							l2.1144,1.2288C92.153,81.0181,89.6319,80.541,88.3136,80.1998z"/>
					</defs>
					<clipPath id="SVGID_12_">
						<use xlink:href="#SVGID_11_"  style="overflow:visible;"/>
					</clipPath>
					<g class="st29">
						<path class="st27" d="M88.3136,80.1998l-2.1144-1.2287c1.3183,0.3412,3.8394,0.8183,6.7515-0.5912l2.1144,1.2287
							C92.153,81.0181,89.6319,80.541,88.3136,80.1998"/>
					</g>
				</g>
				<g>
					<polygon class="st7" points="96.9826,65.6932 94.8682,64.4645 94.8551,59.8352 96.9695,61.0639 					"/>
				</g>
				<g class="st2">
					<defs>
						<path id="SVGID_13_" class="st2" d="M96.9695,61.0639l-2.1144-1.2287c1.9544-0.8932,3.591-1.0592,5.2734-0.9282l2.1144,1.2288
							C100.5605,60.0047,98.9238,60.1707,96.9695,61.0639z"/>
					</defs>
					<clipPath id="SVGID_14_">
						<use xlink:href="#SVGID_13_"  style="overflow:visible;"/>
					</clipPath>
					<g class="st30">
						<path class="st15" d="M96.9695,61.0639l-2.1144-1.2287c1.9544-0.8932,3.591-1.0592,5.2733-0.9282l2.1144,1.2287
							C100.5605,60.0047,98.9238,60.1707,96.9695,61.0639"/>
					</g>
				</g>
				<g class="st2">
					<defs>
						<path id="SVGID_15_" class="st2" d="M89.1755,73.627l-2.1144-1.2287c1.1645,0.6768,3.0267,0.6882,5.8725-0.0636l2.1144,1.2287
							C92.2022,74.3152,90.34,74.3038,89.1755,73.627z"/>
					</defs>
					<clipPath id="SVGID_16_">
						<use xlink:href="#SVGID_15_"  style="overflow:visible;"/>
					</clipPath>
					<g class="st31">
						<path class="st15" d="M89.1755,73.627l-2.1144-1.2287c1.1645,0.6768,3.0267,0.6882,5.8725-0.0636l2.1144,1.2287
							C92.2022,74.3152,90.34,74.3038,89.1755,73.627"/>
					</g>
				</g>
				<g class="st2">
					<defs>
						<path id="SVGID_17_" class="st2" d="M93.4235,66.2866l-2.1144-1.2287c0.3021,0.1755,0.8058,0.1679,1.6037-0.0596
							l2.1144,1.2288C94.2293,66.4545,93.7256,66.4621,93.4235,66.2866z"/>
					</defs>
					<clipPath id="SVGID_18_">
						<use xlink:href="#SVGID_17_"  style="overflow:visible;"/>
					</clipPath>
					<g class="st32">
						<path class="st27" d="M93.4235,66.2866l-2.1144-1.2288c0.3021,0.1755,0.8058,0.1679,1.6037-0.0596l2.1144,1.2287
							C94.2293,66.4545,93.7256,66.4621,93.4235,66.2866"/>
					</g>
				</g>
				<g>
					<polygon class="st6" points="95.0272,66.227 92.9128,64.9982 92.9012,60.9191 95.0156,62.1479 					"/>
				</g>
				<g class="st2">
					<defs>
						<path id="SVGID_19_" class="st2" d="M91.3092,65.0578c-0.2883-0.1675-0.3929-0.5018-0.3942-0.9711l2.1144,1.2288
							c0.0013,0.4693,0.106,0.8036,0.3942,0.9711C92.7892,65.918,91.9435,65.4265,91.3092,65.0578z"/>
					</defs>
					<clipPath id="SVGID_20_">
						<use xlink:href="#SVGID_19_"  style="overflow:visible;"/>
					</clipPath>
					<g class="st33">
						<path class="st17" d="M93.4235,66.2866l-2.1144-1.2288c-0.048-0.0279-0.0909-0.0604-0.129-0.0973l2.1144,1.2287
							C93.3326,66.2262,93.3755,66.2587,93.4235,66.2866"/>
						<path class="st18" d="M93.2945,66.1892l-2.1144-1.2287c-0.0372-0.0361-0.07-0.0764-0.0986-0.1209l2.1144,1.2287
							C93.2245,66.1128,93.2572,66.1531,93.2945,66.1892"/>
						<path class="st19" d="M93.1959,66.0683l-2.1144-1.2287c-0.0306-0.0475-0.0564-0.0997-0.0779-0.1564l2.1144,1.2288
							C93.1395,65.9687,93.1653,66.0209,93.1959,66.0683"/>
						<path class="st20" d="M93.118,65.9119l-2.1144-1.2288c-0.0289-0.0762-0.05-0.1606-0.0644-0.2527l2.1144,1.2288
							C93.0679,65.7514,93.0891,65.8357,93.118,65.9119"/>
						<path class="st21" d="M93.0536,65.6592l-2.1144-1.2288c-0.0163-0.1047-0.0239-0.2195-0.0243-0.3437l2.1144,1.2287
							C93.0297,65.4397,93.0373,65.5545,93.0536,65.6592"/>
					</g>
				</g>
				<g>
					<polygon class="st4" points="102.4155,48.8957 100.3012,47.667 128.9491,31.127 131.0635,32.3558 					"/>
				</g>
				<g>
					<polygon class="st6" points="102.4156,48.8957 100.3012,47.6669 100.2989,46.8452 102.4132,48.074 					"/>
				</g>
				<g>
					<polygon class="st5" points="102.4132,48.074 100.2989,46.8452 129.6555,29.8962 131.7699,31.1249 					"/>
				</g>
				<g class="st2">
					<defs>
						<path id="SVGID_21_" class="st2" d="M90.9149,64.0868c-0.0031-1.1005,0.6716-2.2249,1.9863-3.1676l2.1144,1.2287
							c-1.3147,0.9428-1.9894,2.0672-1.9863,3.1676C92.395,64.9469,91.5492,64.4554,90.9149,64.0868z"/>
					</defs>
					<clipPath id="SVGID_22_">
						<use xlink:href="#SVGID_21_"  style="overflow:visible;"/>
					</clipPath>
					<g class="st34">
						<path class="st21" d="M93.0293,65.3155l-2.1144-1.2287c-0.0011-0.3933,0.0844-0.7897,0.2547-1.1797l2.1144,1.2287
							C93.1137,64.5258,93.0282,64.9222,93.0293,65.3155"/>
						<path class="st20" d="M93.284,64.1358l-2.1144-1.2287c0.0493-0.1129,0.1057-0.2252,0.1692-0.3368l2.1144,1.2287
							C93.3897,63.9105,93.3333,64.0229,93.284,64.1358"/>
						<path class="st19" d="M93.4532,63.7989l-2.1144-1.2287c0.0571-0.1004,0.12-0.2003,0.1885-0.2993l2.1144,1.2287
							C93.5732,63.5987,93.5103,63.6985,93.4532,63.7989"/>
						<path class="st18" d="M93.6417,63.4996l-2.1144-1.2287c0.0721-0.1043,0.1506-0.2076,0.2353-0.31l2.1144,1.2287
							C93.7923,63.292,93.7138,63.3954,93.6417,63.4996"/>
						<path class="st17" d="M93.877,63.1897l-2.1144-1.2287c0.1024-0.1237,0.2139-0.2458,0.3346-0.3661l2.1144,1.2287
							C94.0909,62.9439,93.9794,63.066,93.877,63.1897"/>
						<path class="st16" d="M94.2116,62.8236l-2.1144-1.2287c0.1739-0.1733,0.3666-0.3427,0.5781-0.5071l2.1144,1.2287
							C94.5782,62.481,94.3855,62.6503,94.2116,62.8236"/>
						<path class="st15" d="M94.7897,62.3165l-2.1144-1.2287c0.0731-0.0568,0.1484-0.1131,0.2259-0.1686l2.1144,1.2287
							C94.9381,62.2035,94.8628,62.2597,94.7897,62.3165"/>
					</g>
				</g>
				<g class="st2">
					<defs>
						<path id="SVGID_23_" class="st2" d="M96.9549,55.9358l-2.1144-1.2287c2.7141-1.3392,5.0733-1.555,6.4683-1.2581l2.1144,1.2288
							C102.0282,54.3808,99.6691,54.5965,96.9549,55.9358z"/>
					</defs>
					<clipPath id="SVGID_24_">
						<use xlink:href="#SVGID_23_"  style="overflow:visible;"/>
					</clipPath>
					<g class="st35">
						<path class="st27" d="M96.9549,55.9358l-2.1144-1.2287c2.7141-1.3392,5.0733-1.555,6.4683-1.2581l2.1144,1.2287
							C102.0282,54.3808,99.6691,54.5965,96.9549,55.9358"/>
					</g>
				</g>
				<g>
					<polygon class="st7" points="96.9549,55.9358 94.8405,54.707 94.8299,50.9434 96.9442,52.1721 					"/>
				</g>
				<g>
					<polygon class="st6" points="95.0012,57.0637 92.8868,55.835 92.8761,52.0714 94.9905,53.3001 					"/>
				</g>
				<g>
					<polygon class="st5" points="94.9905,53.3001 92.8761,52.0714 94.8299,50.9434 96.9442,52.1721 					"/>
				</g>
				<g class="st2">
					<defs>
						<path id="SVGID_25_" class="st2" d="M89.1755,73.627l-2.1144-1.2287c-1.2361-0.7183-1.6862-2.1862-1.6921-4.2866
							c-0.0136-4.8054,3.0112-9.3589,7.5178-12.2767l2.1144,1.2288c-4.5066,2.9179-7.5314,7.4713-7.5178,12.2767
							C87.4893,71.4408,87.9394,72.9087,89.1755,73.627z"/>
					</defs>
					<clipPath id="SVGID_26_">
						<use xlink:href="#SVGID_25_"  style="overflow:visible;"/>
					</clipPath>
					<g class="st36">
						<path class="st9" d="M89.1755,73.627l-2.1144-1.2287c-0.2007-0.1166-0.3806-0.253-0.5413-0.4086l2.1144,1.2287
							C88.7949,73.3741,88.9748,73.5104,89.1755,73.627"/>
						<path class="st10" d="M88.6342,73.2184l-2.1144-1.2287c-0.1577-0.1527-0.2968-0.3239-0.4188-0.5132l2.1144,1.2288
							C88.3374,72.8945,88.4765,73.0658,88.6342,73.2184"/>
						<path class="st11" d="M88.2154,72.7052l-2.1144-1.2288c-0.1323-0.2053-0.2445-0.432-0.3382-0.6792l2.1144,1.2288
							C87.9709,72.2733,88.083,72.4999,88.2154,72.7052"/>
						<path class="st12" d="M87.8772,72.026l-2.1144-1.2288c-0.1261-0.3328-0.2189-0.703-0.2826-1.1091l2.1144,1.2288
							C87.6582,71.323,87.751,71.6932,87.8772,72.026"/>
						<path class="st13" d="M87.5945,70.9169l-2.1144-1.2288c-0.0748-0.4768-0.1095-1.003-0.1111-1.5764
							c-0.0048-1.7039,0.3724-3.3762,1.0622-4.9551l2.1144,1.2287c-0.6898,1.5789-1.067,3.2512-1.0622,4.9551
							C87.485,69.9139,87.5197,70.4402,87.5945,70.9169"/>
						<path class="st12" d="M88.5456,64.3854l-2.1144-1.2287c0.199-0.4556,0.4241-0.9034,0.6736-1.3419l2.1144,1.2287
							C88.9697,63.482,88.7446,63.9298,88.5456,64.3854"/>
						<path class="st11" d="M89.2192,63.0434l-2.1144-1.2287c0.221-0.3885,0.4611-0.7697,0.7191-1.1427l2.1144,1.2287
							C89.6802,62.2737,89.4401,62.6549,89.2192,63.0434"/>
						<path class="st10" d="M89.9383,61.9007l-2.1144-1.2287c0.2658-0.3841,0.5506-0.7594,0.8532-1.1248l2.1144,1.2287
							C90.4888,61.1413,90.204,61.5166,89.9383,61.9007"/>
						<path class="st9" d="M90.7914,60.776l-2.1144-1.2287c0.3482-0.4205,0.72-0.8278,1.1133-1.2202l2.1144,1.2287
							C91.5114,59.9482,91.1396,60.3555,90.7914,60.776"/>
						<path class="st5" d="M91.9048,59.5557l-2.1144-1.2287c0.535-0.5338,1.11-1.0401,1.7202-1.5146l2.1144,1.2287
							C93.0148,58.5157,92.4398,59.022,91.9048,59.5557"/>
						<path class="st27" d="M93.6249,58.0412l-2.1144-1.2287c0.441-0.343,0.9004-0.6693,1.3763-0.9774l2.1144,1.2287
							C94.5253,57.3719,94.0659,57.6982,93.6249,58.0412"/>
					</g>
				</g>
				<g>
					<path class="st37" d="M96.9826,65.6932c5.4698-1.5487,7.7123-0.0877,7.7255,4.5856c0.0166,5.8692-3.5265,10.2957-7.6751,13.198
						l0.0114,4.035l-1.9537,1.128l-0.0113-3.9911c-3.7099,2.0096-6.4665,1.8963-8.0283,1.3798l1.2625-5.8288
						c1.3183,0.3412,3.8394,0.8183,6.7515-0.5912l-0.0171-6.0452c-5.8663,1.5498-7.553-0.1439-7.5646-4.2229
						c-0.0136-4.8054,3.0112-9.3589,7.5178-12.2767l-0.0107-3.7636l1.9537-1.128l0.0107,3.7636
						c2.7141-1.3392,5.0733-1.555,6.4683-1.2581l-1.1804,5.458c-1.6823-0.131-3.319,0.035-5.2733,0.9282L96.9826,65.6932z
						 M97.0184,78.3486c1.3528-1.0602,2.148-2.5261,2.1438-3.9934c-0.0031-1.1005-0.6377-1.6086-2.1588-1.2815L97.0184,78.3486
						 M95.0272,66.227l-0.0116-4.0791c-1.3147,0.9428-1.9894,2.0672-1.9863,3.1676C93.0321,66.2766,93.468,66.6715,95.0272,66.227"
						/>
				</g>
				<g>
					<polygon class="st4" points="59.7281,109.7766 57.6138,108.5478 86.9704,91.5988 89.0848,92.8275 					"/>
				</g>
				<g>
					<polygon class="st5" points="60.4345,108.553 58.3202,107.3243 86.9681,90.7844 89.0825,92.0131 					"/>
				</g>
				<g>
					<polygon class="st7" points="88.9822,56.6514 86.8678,55.4227 86.8655,54.601 88.9799,55.8298 					"/>
				</g>
				<g>
					<polygon class="st4" points="60.3343,73.1913 58.2199,71.9626 86.8678,55.4227 88.9822,56.6514 					"/>
				</g>
				<g>
					<polygon class="st7" points="60.4345,108.5531 58.3202,107.3243 58.2199,71.9626 60.3343,73.1913 					"/>
				</g>
				<g>
					<polygon class="st6" points="59.7282,109.7766 57.6138,108.5478 57.5089,71.55 59.6233,72.7788 					"/>
				</g>
				<g>
					<polygon class="st5" points="59.6233,72.7788 57.5089,71.55 86.8655,54.601 88.9799,55.8297 					"/>
				</g>
				<g>
					<path class="st23" d="M55.1186,69.6551l81.5768-47.0984l0.1373,48.428l-81.5768,47.0984L55.1186,69.6551z M131.8748,68.1227
						l-0.1049-36.9978L102.4132,48.074l0.0023,0.8217l28.648-16.5399l0.1003,35.3618l-28.648,16.5399l0.0023,0.8143
						L131.8748,68.1227 M89.0848,92.8275l-0.0023-0.8143l-28.6479,16.5399l-0.1003-35.3618l28.6479-16.5399l-0.0023-0.8217
						L59.6233,72.7788l0.1049,36.9978L89.0848,92.8275 M97.0444,87.5119l-0.0114-4.035c4.1486-2.9022,7.6917-7.3288,7.6751-13.198
						c-0.0133-4.6733-2.2557-6.1343-7.7255-4.5856l-0.0131-4.6293c1.9544-0.8932,3.591-1.0592,5.2733-0.9282l1.1804-5.458
						c-1.3949-0.2969-3.7541-0.0812-6.4683,1.2581l-0.0107-3.7636l-1.9537,1.128l0.0107,3.7636
						c-4.5067,2.9179-7.5314,7.4714-7.5178,12.2767c0.0116,4.0791,1.6983,5.7727,7.5646,4.2229l0.0171,6.0452
						c-2.9122,1.4094-5.4332,0.9323-6.7515,0.5912l-1.2625,5.8288c1.5619,0.5165,4.3185,0.6298,8.0283-1.3798l0.0113,3.9911
						L97.0444,87.5119"/>
				</g>
				<g>
					<polygon class="st37" points="131.7699,31.1249 131.8748,68.1227 102.5181,85.0718 102.5158,84.2574 131.1638,67.7175 
						131.0635,32.3558 102.4156,48.8957 102.4132,48.074 					"/>
				</g>
				<g>
					<path class="st23" d="M93.0293,65.3155c-0.0031-1.1005,0.6716-2.2249,1.9863-3.1676l0.0116,4.0791
						C93.468,66.6715,93.0321,66.2766,93.0293,65.3155z"/>
				</g>
				<g>
					<polygon class="st37" points="88.9799,55.8297 88.9823,56.6514 60.3343,73.1913 60.4345,108.553 89.0825,92.0131 
						89.0848,92.8275 59.7282,109.7766 59.6233,72.7788 					"/>
				</g>
				<g>
					<polygon class="st4" points="55.1186,69.6551 53.0043,68.4264 134.581,21.328 136.6954,22.5567 					"/>
				</g>
				<g>
					<polygon class="st7" points="55.2559,118.0831 53.1416,116.8543 53.0043,68.4264 55.1186,69.6551 					"/>
				</g>
			</g>
		</g>
	</g>
	<g>
		<g>
			<g>
				<path class="st38" d="M177.0017,108.0472l-0.0138,4.8632c-0.0143,5.0443-3.33,10.0807-9.9526,13.9294
					c-13.327,7.7448-35.0091,7.7467-48.4296-0.0016c-6.7502-3.8972-10.1214-9.014-10.107-14.1229l0.0138-4.8632
					c-0.0145,5.109,3.3568,10.2257,10.107,14.1229c13.4205,7.7483,35.1026,7.7464,48.4296,0.0016
					C173.6717,118.1279,176.9874,113.0914,177.0017,108.0472"/>
			</g>
			<g>
				<path class="st39" d="M166.8911,93.9225c13.4205,7.7483,13.4881,20.3074,0.158,28.054
					c-13.327,7.7448-35.0091,7.7467-48.4296-0.0016c-13.4141-7.7446-13.4848-20.3055-0.1578-28.0503
					C131.7917,86.178,153.4769,86.1779,166.8911,93.9225z M121.382,120.3695c11.8842,6.8614,31.0827,6.8613,42.8865,0.0016
					c11.8069-6.8614,11.7443-17.9819-0.1399-24.8432c-11.881-6.8595-31.0794-6.8594-42.8863,0.002
					C109.4384,102.3896,109.501,113.5101,121.382,120.3695"/>
			</g>
			<g>
				<path class="st38" d="M177.9968,102.0764l-0.0138,4.8632c-0.0143,5.0443-3.33,10.0808-9.9527,13.9294
					c-13.3269,7.7448-35.0089,7.7467-48.4294-0.0016c-6.7502-3.8972-10.1215-9.014-10.107-14.123l0.0138-4.8632
					c-0.0145,5.109,3.3568,10.2258,10.107,14.123c13.4205,7.7483,35.1025,7.7464,48.4294,0.0016
					C174.6667,112.1572,177.9825,107.1207,177.9968,102.0764"/>
			</g>
			<g>
				<path class="st39" d="M167.8862,87.9519c13.4205,7.7483,13.488,20.3074,0.1579,28.054
					c-13.3269,7.7448-35.009,7.7467-48.4294-0.0016c-13.4142-7.7447-13.4849-20.3055-0.1579-28.0503
					C132.7869,80.2073,154.472,80.2072,167.8862,87.9519z M122.3772,114.3988c11.8841,6.8613,31.0826,6.8612,42.8863,0.0016
					c11.807-6.8615,11.7444-17.9819-0.1397-24.8432c-11.881-6.8595-31.0795-6.8594-42.8865,0.002
					C110.4335,96.4189,110.4961,107.5393,122.3772,114.3988"/>
			</g>
			<g>
				<path class="st39" d="M165.1237,89.5572c11.8842,6.8613,11.9467,17.9818,0.1398,24.8432
					c-11.8038,6.8596-31.0022,6.8597-42.8864-0.0016c-11.881-6.8595-11.9437-17.9799-0.1398-24.8396
					C134.0443,82.6978,153.2427,82.6977,165.1237,89.5572z M127.5836,111.3731c8.9893,5.19,23.5115,5.1899,32.4393,0.0017
					c8.9309-5.1901,8.8836-13.6019-0.1057-18.7919c-8.9861-5.1881-23.5084-5.1881-32.4393,0.002
					C118.5501,97.7732,118.5975,106.185,127.5836,111.3731"/>
			</g>
			<g>
				<path class="st38" d="M173.0212,94.6131l-0.0138,4.8632c-0.0143,5.0443-3.33,10.0807-9.9527,13.9294
					c-13.327,7.7448-35.009,7.7467-48.4296-0.0016c-6.7502-3.8972-10.1215-9.014-10.107-14.123l0.0138-4.8632
					c-0.0145,5.109,3.3568,10.2258,10.107,14.123c13.4205,7.7483,35.1026,7.7464,48.4296,0.0016
					C169.6912,104.6938,173.0069,99.6573,173.0212,94.6131"/>
			</g>
			<g>
				<path class="st39" d="M162.9106,80.4885c13.4205,7.7483,13.4881,20.3074,0.1579,28.054
					c-13.327,7.7448-35.009,7.7467-48.4296-0.0016c-13.4141-7.7446-13.4848-20.3055-0.1578-28.0503
					C127.8113,72.7439,149.4965,72.7438,162.9106,80.4885z M117.4015,106.9354c11.8842,6.8614,31.0827,6.8613,42.8865,0.0017
					c11.8069-6.8614,11.7443-17.9819-0.1399-24.8433c-11.881-6.8595-31.0794-6.8594-42.8863,0.0021
					C105.458,88.9555,105.5206,100.076,117.4015,106.9354 M117.4015,106.9354c11.8842,6.8614,31.0827,6.8613,42.8865,0.0017
					c11.8069-6.8614,11.7443-17.9819-0.1399-24.8433c-11.881-6.8595-31.0794-6.8594-42.8863,0.0021
					C105.458,88.9555,105.5206,100.076,117.4015,106.9354"/>
			</g>
			<g>
				<path class="st39" d="M159.9171,80.144c8.9893,5.19,9.0367,13.6018,0.1058,18.7919c-8.9277,5.1882-23.45,5.1883-32.4393-0.0017
					c-8.9862-5.1882-9.0334-13.5999-0.1057-18.7882C136.4088,74.956,150.931,74.9559,159.9171,80.144z"/>
			</g>
			<g>
				<path class="st40" d="M165.1236,77.1183c11.8842,6.8614,11.9469,17.9818,0.1399,24.8432
					c-11.8038,6.8596-31.0022,6.8597-42.8865-0.0017c-11.881-6.8595-11.9436-17.9799-0.1398-24.8395
					C134.0443,70.2589,153.2427,70.2588,165.1236,77.1183z M127.5836,98.9342c8.9893,5.19,23.5116,5.1899,32.4393,0.0017
					c8.9309-5.1901,8.8836-13.6019-0.1058-18.7919c-8.9861-5.1881-23.5083-5.188-32.4392,0.002
					C118.5502,85.3342,118.5975,93.746,127.5836,98.9342"/>
			</g>
			<g>
				<path class="st38" d="M177.9968,89.6375l-0.0138,4.8632c-0.0143,5.0443-3.33,10.0808-9.9527,13.9294
					c-13.327,7.7448-35.009,7.7467-48.4296-0.0016c-6.7502-3.8972-10.1215-9.014-10.107-14.123l0.0138-4.8632
					c-0.0145,5.109,3.3568,10.2258,10.107,14.123c13.4205,7.7483,35.1026,7.7464,48.4296,0.0016
					C174.6668,99.7183,177.9825,94.6818,177.9968,89.6375"/>
			</g>
			<g>
				<path class="st39" d="M167.8862,75.5129c13.4205,7.7483,13.4881,20.3074,0.1579,28.054
					c-13.327,7.7448-35.009,7.7467-48.4296-0.0016c-13.4141-7.7447-13.4848-20.3055-0.1578-28.0503
					C132.7869,67.7683,154.4721,67.7682,167.8862,75.5129z M122.3771,101.9599c11.8842,6.8614,31.0827,6.8613,42.8864,0.0017
					c11.8069-6.8614,11.7443-17.9819-0.1399-24.8433c-11.881-6.8595-31.0794-6.8594-42.8863,0.0021
					C110.4335,83.9799,110.4961,95.1004,122.3771,101.9599"/>
			</g>
		</g>
		<g>
			<g>
				<g>
					<path class="st41" d="M161.2693,90.9012l-1.8649,1.0838l-0.5683-0.3281c-0.4469-0.258-0.8806-0.4276-1.3138-0.5087
						c-0.4268-0.0774-1.0315-0.0885-1.8012-0.0332l-3.7531,0.2875l3.3264,1.9205l-1.5731,0.9142l-4.5523-2.6283l-3.5815,0.247
						l6.1357,3.5424l-1.5731,0.9142l-6.7869-3.9184l-2.791,1.6219c-0.6534,0.3797-0.9762,0.6783-0.9687,0.8884
						c0.0076,0.2175,0.3913,0.5419,1.1319,0.9695l1.5068,0.8699l-1.8649,1.0838l-9.9856-5.7652l1.8649-1.0838l1.4749,0.8515
						c0.7662,0.4423,1.3338,0.6672,1.703,0.6746c0.3564,0.0074,0.8708-0.1806,1.5369-0.5677l2.791-1.6219l-6.5762-3.7968
						l1.5731-0.9142l5.9824,3.454l0.5424-2.0016l-4.5267-2.6135l1.5731-0.9142l3.3839,1.9537l0.4561-1.5003
						c0.181-0.623,0.2101-1.1132,0.0872-1.4708c-0.1293-0.3612-0.4238-0.6709-0.8835-0.9363l-0.8556-0.494l1.8649-1.0838
						l8.9768,5.1828l-1.8649,1.0838l-1.2514-0.7225c-0.4086-0.2359-0.734-0.3797-0.9825-0.435
						c-0.2421-0.0516-0.4456-0.0295-0.6232,0.0737c-0.0952,0.0553-0.1901,0.1401-0.2595,0.247
						c-0.0757,0.1106-0.1385,0.258-0.2012,0.435l-1.2502,4.018l7.4296-0.6046c0.2798-0.0295,0.5024-0.0627,0.6549-0.0995
						c0.1589-0.0406,0.2859-0.0922,0.3873-0.1511c0.1522-0.0885,0.1898-0.1917,0.1192-0.3133
						c-0.0707-0.1216-0.2561-0.2728-0.5562-0.446l-1.5196-0.8773l1.8649-1.0838L161.2693,90.9012z"/>
				</g>
			</g>
		</g>
	</g>
</g>
</svg>
