<?xml version="1.0" encoding="utf-8"?>
<!-- Generator: Adobe Illustrator 21.1.0, SVG Export Plug-In . SVG Version: 6.00 Build 0)  -->
<svg version="1.1" id="Layer_1" xmlns="http://www.w3.org/2000/svg" xmlns:xlink="http://www.w3.org/1999/xlink" x="0px" y="0px"
	 viewBox="0 0 269 176" style="enable-background:new 0 0 269 176;" xml:space="preserve">
<style type="text/css">
	.st0{fill:none;stroke:#B6E8FB;stroke-width:2;stroke-miterlimit:10;}
	.st1{enable-background:new    ;}
	.st2{fill:#B6E8FB;}
	.st3{fill:#666666;}
	.st4{clip-path:url(#SVGID_2_);}
	.st5{clip-path:url(#SVGID_4_);}
	.st6{fill:#00A7E1;}
	.st7{clip-path:url(#SVGID_6_);}
	.st8{fill:#E9E9E9;}
	.st9{fill:#B03478;}
	.st10{fill:#BEBEBE;}
	.st11{fill:#003058;}
	.st12{fill:#B3B3B3;}
	.st13{fill:#949494;}
</style>
<line class="st0" x1="70.9842" y1="81" x2="167.9842" y2="23"/>
<g>
	<g class="st1">
		<g>
			<g>
				<path class="st2" d="M170.3743,21.1696c-2.1288-1.232-5.5759-1.232-7.6952,0c-2.116,1.232-2.1097,3.2268,0.0224,4.4571
					c2.1353,1.232,5.5822,1.232,7.7015,0C172.5224,24.3964,172.5096,22.4016,170.3743,21.1696L170.3743,21.1696z"/>
			</g>
		</g>
	</g>
</g>
<g>
	<path class="st3" d="M35.8652,156.6729h-2.1289v-0.6689h5.0571v0.6689H36.665V162h-0.7998V156.6729z"/>
	<path class="st3" d="M39.4961,156.0039h0.7598v2.418c0.3696-0.4697,0.9292-0.8594,1.6289-0.8594
		c1.1494,0,1.5591,0.7988,1.5591,1.8691V162h-0.7593v-2.498c0-0.9707-0.3799-1.29-1.0098-1.29c-0.6196,0-1.4189,0.54-1.4189,1.2393
		V162h-0.7598V156.0039z"/>
	<path class="st3" d="M44.436,159.8105c0-1.3887,1.0293-2.248,2.0889-2.248c1.0791,0,1.8389,0.6992,1.8389,1.6797
		c0,0.1494-0.0298,0.3398-0.0601,0.4893h-3.1182c-0.0601,0.7588,0.2998,1.7686,1.6792,1.7686c0.4897,0,1.0894-0.2402,1.4189-0.5596
		v0.6699c-0.4097,0.3291-1.0493,0.5098-1.6787,0.5098C45.3354,162.1201,44.436,161.1504,44.436,159.8105z M47.6343,159.2012
		c0.0898-0.5791-0.3701-1.0391-1.0796-1.0391c-0.6094,0-1.1694,0.3301-1.2993,1.0391H47.6343z"/>
	<path class="st3" d="M51.0957,159.8418c0-1.2598,0.8696-2.2793,2.0591-2.2793c0.7095,0,1.3394,0.3496,1.6992,0.8994l0.0298-0.7793
		h0.6597V162h-0.6597l-0.0298-0.7793c-0.3599,0.5488-0.9897,0.8994-1.6992,0.8994
		C51.9653,162.1201,51.0957,161.1006,51.0957,159.8418z M54.834,159.8418c0-1.04-0.6699-1.6699-1.4893-1.6699
		c-0.8198,0-1.4893,0.6299-1.4893,1.6699c0,1.0391,0.6694,1.668,1.4893,1.668C54.1641,161.5098,54.834,160.8809,54.834,159.8418z"/>
	<path class="st3" d="M56.186,157.6826h0.7798l1.3989,3.2373l1.3892-3.2373h0.7397l-1.8989,4.3271H58.085L56.186,157.6826z"/>
	<path class="st3" d="M60.7959,159.8105c0-1.3887,1.0293-2.248,2.0889-2.248c1.0791,0,1.8389,0.6992,1.8389,1.6797
		c0,0.1494-0.0298,0.3398-0.0601,0.4893h-3.1182c-0.0601,0.7588,0.2998,1.7686,1.6792,1.7686c0.4897,0,1.0894-0.2402,1.4189-0.5596
		v0.6699c-0.4097,0.3291-1.0493,0.5098-1.6787,0.5098C61.6953,162.1201,60.7959,161.1504,60.7959,159.8105z M63.9941,159.2012
		c0.0898-0.5791-0.3701-1.0391-1.0796-1.0391c-0.6094,0-1.1694,0.3301-1.2993,1.0391H63.9941z"/>
	<path class="st3" d="M65.7759,157.6826h0.6597l0.0498,0.8291c0.2798-0.5293,0.9497-0.9492,1.6792-0.9492v0.8193
		c-0.8193-0.1494-1.6289,0.3193-1.6289,1.0498V162h-0.7598V157.6826z"/>
	<path class="st3" d="M68.6758,159.8418c0-1.2598,0.8696-2.2793,2.0591-2.2793c0.7095,0,1.3394,0.3496,1.6992,0.8994l0.0298-0.7793
		h0.6597V162h-0.6597l-0.0298-0.7793c-0.3599,0.5488-0.9897,0.8994-1.6992,0.8994
		C69.5454,162.1201,68.6758,161.1006,68.6758,159.8418z M72.4141,159.8418c0-1.04-0.6699-1.6699-1.4893-1.6699
		c-0.8198,0-1.4893,0.6299-1.4893,1.6699c0,1.0391,0.6694,1.668,1.4893,1.668C71.7441,161.5098,72.4141,160.8809,72.4141,159.8418z"
		/>
	<path class="st3" d="M74.4956,163.5391v-0.6797c0.6597,0.4004,1.1094,0.5605,1.8691,0.5605c0.7495,0,1.439-0.4512,1.439-1.7197
		v-0.3799c-0.3599,0.4902-0.9595,0.7998-1.6289,0.7998c-1.1895,0-2.0591-1.0195-2.0591-2.2783c0-1.2598,0.8696-2.2793,2.0591-2.2793
		c0.7095,0,1.3394,0.3496,1.6992,0.8994l0.0298-0.7793h0.6597v3.9375c0,1.999-1.2495,2.4189-2.2886,2.4189
		C75.6353,164.0391,74.9756,163.8184,74.4956,163.5391z M77.854,159.8418c0-1.04-0.6699-1.6699-1.4893-1.6699
		c-0.8198,0-1.4893,0.6299-1.4893,1.6699c0,1.0391,0.6694,1.668,1.4893,1.668C77.1841,161.5098,77.854,160.8809,77.854,159.8418z"/>
	<path class="st3" d="M79.5659,159.8105c0-1.3887,1.0293-2.248,2.0889-2.248c1.0791,0,1.8389,0.6992,1.8389,1.6797
		c0,0.1494-0.0298,0.3398-0.0601,0.4893h-3.1182c-0.0601,0.7588,0.2998,1.7686,1.6792,1.7686c0.4897,0,1.0894-0.2402,1.4189-0.5596
		v0.6699c-0.4097,0.3291-1.0493,0.5098-1.6787,0.5098C80.4653,162.1201,79.5659,161.1504,79.5659,159.8105z M82.7642,159.2012
		c0.0898-0.5791-0.3701-1.0391-1.0796-1.0391c-0.6094,0-1.1694,0.3301-1.2993,1.0391H82.7642z"/>
	<path class="st3" d="M86.2358,159.8418c0-1.3496,0.9395-2.2793,2.2485-2.2793c0.5698,0,1.0195,0.0996,1.5093,0.4395v0.6895
		c-0.4097-0.3789-0.9395-0.5098-1.439-0.5098c-0.9297,0-1.5596,0.71-1.5596,1.6602c0,0.9688,0.6299,1.6582,1.5596,1.6582
		c0.4995,0,1.0293-0.1299,1.439-0.5098v0.6895c-0.4897,0.3398-0.9395,0.4404-1.5093,0.4404
		C87.1753,162.1201,86.2358,161.1904,86.2358,159.8418z"/>
	<path class="st3" d="M90.6758,159.8418c0-1.2598,0.9595-2.3193,2.3589-2.3193c1.3892,0,2.3486,1.0596,2.3486,2.3193
		c0,1.2686-0.9595,2.3184-2.3486,2.3184C91.6353,162.1602,90.6758,161.1104,90.6758,159.8418z M94.6235,159.8418
		c0-0.9395-0.6094-1.709-1.5889-1.709c-0.9897,0-1.5991,0.7695-1.5991,1.709c0,0.9492,0.6196,1.709,1.5991,1.709
		S94.6235,160.791,94.6235,159.8418z"/>
	<path class="st3" d="M96.0254,161.6797l0.1499-0.5996c0.29,0.1797,0.8496,0.4502,1.4692,0.4502
		c0.5396,0,0.9595-0.1904,0.9595-0.6689c0-0.3809-0.3896-0.5898-1.0996-0.7705c-0.9194-0.2295-1.3389-0.7197-1.3389-1.2793
		c0-0.6787,0.5195-1.2588,1.5791-1.2588c0.7192,0,1.3389,0.3594,1.3389,0.3594l-0.1499,0.5801
		c-0.2998-0.2002-0.7593-0.3496-1.189-0.3496c-0.5898,0-0.8799,0.2188-0.8799,0.5693c0,0.3701,0.3599,0.5889,0.9297,0.7295
		c0.9893,0.2402,1.5093,0.6895,1.5093,1.2598c0,0.9092-0.6899,1.4287-1.6792,1.4287
		C96.6948,162.1299,96.0254,161.6797,96.0254,161.6797z"/>
	<path class="st3" d="M100.7749,158.2021h-0.9692v-0.5195h0.9692v-1.1797h0.7598v1.1797h0.9795v0.5195h-0.9795V162h-0.7598V158.2021
		z"/>
	<path class="st3" d="M104.9351,159.8418c0-1.2598,0.9595-2.3193,2.3589-2.3193c1.3892,0,2.3486,1.0596,2.3486,2.3193
		c0,1.2686-0.9595,2.3184-2.3486,2.3184C105.8945,162.1602,104.9351,161.1104,104.9351,159.8418z M108.8828,159.8418
		c0-0.9395-0.6094-1.709-1.5889-1.709c-0.9897,0-1.5991,0.7695-1.5991,1.709c0,0.9492,0.6196,1.709,1.5991,1.709
		S108.8828,160.791,108.8828,159.8418z"/>
	<path class="st3" d="M110.7949,158.2021h-0.8794v-0.5195h0.8794v-0.0107c0-1.2588,0.4795-1.7383,1.3892-1.7383
		c0.1899,0,0.4199,0.0498,0.5396,0.0898v0.5391c-0.1499-0.0293-0.3296-0.0596-0.4595-0.0596c-0.5298,0-0.7095,0.2393-0.7095,1.1201
		v0.0596h1.1689v0.5195h-1.1689V162h-0.7598V158.2021z"/>
	<path class="st3" d="M114.9946,159.8418c0-1.2598,0.8696-2.2793,2.0591-2.2793c0.7095,0,1.3394,0.3496,1.6992,0.8994l0.0298-0.7793
		h0.6597V162h-0.6597l-0.0298-0.7793c-0.3599,0.5488-0.9897,0.8994-1.6992,0.8994
		C115.8643,162.1201,114.9946,161.1006,114.9946,159.8418z M118.7329,159.8418c0-1.04-0.6699-1.6699-1.4893-1.6699
		c-0.8198,0-1.4893,0.6299-1.4893,1.6699c0,1.0391,0.6694,1.668,1.4893,1.668C118.063,161.5098,118.7329,160.8809,118.7329,159.8418
		z"/>
	<path class="st3" d="M122.3149,161.6797l0.1499-0.5996c0.29,0.1797,0.8496,0.4502,1.4692,0.4502
		c0.5396,0,0.9595-0.1904,0.9595-0.6689c0-0.3809-0.3896-0.5898-1.0996-0.7705c-0.9194-0.2295-1.3389-0.7197-1.3389-1.2793
		c0-0.6787,0.5195-1.2588,1.5791-1.2588c0.7192,0,1.3389,0.3594,1.3389,0.3594l-0.1499,0.5801
		c-0.2998-0.2002-0.7593-0.3496-1.189-0.3496c-0.5898,0-0.8799,0.2188-0.8799,0.5693c0,0.3701,0.3599,0.5889,0.9297,0.7295
		c0.9893,0.2402,1.5093,0.6895,1.5093,1.2598c0,0.9092-0.6899,1.4287-1.6792,1.4287
		C122.9844,162.1299,122.3149,161.6797,122.3149,161.6797z"/>
	<path class="st3" d="M126.3047,159.8105c0-1.3887,1.0293-2.248,2.0889-2.248c1.0791,0,1.8389,0.6992,1.8389,1.6797
		c0,0.1494-0.0298,0.3398-0.0601,0.4893h-3.1182c-0.0601,0.7588,0.2998,1.7686,1.6792,1.7686c0.4897,0,1.0894-0.2402,1.4189-0.5596
		v0.6699c-0.4097,0.3291-1.0493,0.5098-1.6787,0.5098C127.2041,162.1201,126.3047,161.1504,126.3047,159.8105z M129.5029,159.2012
		c0.0898-0.5791-0.3701-1.0391-1.0796-1.0391c-0.6094,0-1.1694,0.3301-1.2993,1.0391H129.5029z"/>
	<path class="st3" d="M131.0449,159.8418c0-1.3496,0.9395-2.2793,2.2485-2.2793c0.5698,0,1.0195,0.0996,1.5093,0.4395v0.6895
		c-0.4097-0.3789-0.9395-0.5098-1.439-0.5098c-0.9297,0-1.5596,0.71-1.5596,1.6602c0,0.9688,0.6299,1.6582,1.5596,1.6582
		c0.4995,0,1.0293-0.1299,1.439-0.5098v0.6895c-0.4897,0.3398-0.9395,0.4404-1.5093,0.4404
		C131.9844,162.1201,131.0449,161.1904,131.0449,159.8418z"/>
	<path class="st3" d="M135.7754,160.251v-2.5684h0.7588v2.499c0,0.9688,0.3799,1.2891,1.0098,1.2891
		c0.6201,0,1.4189-0.54,1.4189-1.2402v-2.5479h0.7598V162h-0.6602l-0.0498-0.8301c-0.3193,0.5195-0.96,0.9502-1.6787,0.9502
		C136.1846,162.1201,135.7754,161.3203,135.7754,160.251z"/>
	<path class="st3" d="M140.9648,157.6826h0.6592l0.0498,0.8291c0.2793-0.5293,0.9492-0.9492,1.6797-0.9492v0.8193
		c-0.8203-0.1494-1.6289,0.3193-1.6289,1.0498V162h-0.7598V157.6826z"/>
	<path class="st3" d="M144.1143,156.0039h0.7598v0.8291h-0.7598V156.0039z M144.1143,157.6826h0.7598V162h-0.7598V157.6826z"/>
	<path class="st3" d="M146.6338,158.2021h-0.9697v-0.5195h0.9697v-1.1797h0.7598v1.1797h0.9795v0.5195h-0.9795V162h-0.7598V158.2021
		z"/>
	<path class="st3" d="M150.3535,161.7598l-1.7891-4.0771h0.7793l1.3994,3.2373l1.3896-3.2373h0.7393l-2.749,6.2666h-0.749
		L150.3535,161.7598z"/>
	<path class="st3" d="M156.1338,161.2207L156.1035,162h-0.6592v-5.9961h0.7598v2.3574c0.3604-0.4893,0.96-0.7988,1.6289-0.7988
		c1.1895,0,2.0596,1.0195,2.0596,2.2793c0,1.2588-0.8701,2.2783-2.0596,2.2783
		C157.123,162.1201,156.4941,161.7695,156.1338,161.2207z M159.1328,159.8418c0-1.04-0.6699-1.6699-1.4902-1.6699
		c-0.8184,0-1.4883,0.6299-1.4883,1.6699c0,1.0391,0.6699,1.668,1.4883,1.668
		C158.4629,161.5098,159.1328,160.8809,159.1328,159.8418z"/>
	<path class="st3" d="M160.8848,157.6826h0.6592l0.0498,0.8291c0.2793-0.5293,0.9492-0.9492,1.6797-0.9492v0.8193
		c-0.8203-0.1494-1.6289,0.3193-1.6289,1.0498V162h-0.7598V157.6826z"/>
	<path class="st3" d="M163.7939,159.8105c0-1.3887,1.0293-2.248,2.0889-2.248c1.0791,0,1.8389,0.6992,1.8389,1.6797
		c0,0.1494-0.0303,0.3398-0.0596,0.4893h-3.1191c-0.0596,0.7588,0.3008,1.7686,1.6797,1.7686c0.4902,0,1.0898-0.2402,1.4189-0.5596
		v0.6699c-0.4092,0.3291-1.0498,0.5098-1.6787,0.5098C164.6934,162.1201,163.7939,161.1504,163.7939,159.8105z M166.9922,159.2012
		c0.0898-0.5791-0.3701-1.0391-1.0801-1.0391c-0.6094,0-1.1689,0.3301-1.2988,1.0391H166.9922z"/>
	<path class="st3" d="M168.5234,159.8418c0-1.2598,0.8701-2.2793,2.0596-2.2793c0.71,0,1.3389,0.3496,1.6992,0.8994l0.0303-0.7793
		h0.6592V162h-0.6592l-0.0303-0.7793c-0.3604,0.5488-0.9893,0.8994-1.6992,0.8994
		C169.3936,162.1201,168.5234,161.1006,168.5234,159.8418z M172.2617,159.8418c0-1.04-0.6699-1.6699-1.4883-1.6699
		c-0.8203,0-1.4902,0.6299-1.4902,1.6699c0,1.0391,0.6699,1.668,1.4902,1.668
		C171.5918,161.5098,172.2617,160.8809,172.2617,159.8418z"/>
	<path class="st3" d="M173.9746,159.8418c0-1.3496,0.9395-2.2793,2.248-2.2793c0.5703,0,1.0195,0.0996,1.5098,0.4395v0.6895
		c-0.4102-0.3789-0.9395-0.5098-1.4395-0.5098c-0.9297,0-1.5596,0.71-1.5596,1.6602c0,0.9688,0.6299,1.6582,1.5596,1.6582
		c0.5,0,1.0293-0.1299,1.4395-0.5098v0.6895c-0.4902,0.3398-0.9395,0.4404-1.5098,0.4404
		C174.9141,162.1201,173.9746,161.1904,173.9746,159.8418z"/>
	<path class="st3" d="M178.7139,156.0039h0.7598v2.418c0.3701-0.4697,0.9287-0.8594,1.6289-0.8594
		c1.1494,0,1.5596,0.7988,1.5596,1.8691V162h-0.7598v-2.498c0-0.9707-0.3799-1.29-1.0098-1.29c-0.6191,0-1.4189,0.54-1.4189,1.2393
		V162h-0.7598V156.0039z"/>
	<path class="st3" d="M185.8242,156.0039h0.7598v0.8291h-0.7598V156.0039z M185.8242,157.6826h0.7598V162h-0.7598V157.6826z"/>
	<path class="st3" d="M187.5234,161.6797l0.1504-0.5996c0.29,0.1797,0.8496,0.4502,1.4688,0.4502c0.54,0,0.96-0.1904,0.96-0.6689
		c0-0.3809-0.3896-0.5898-1.0996-0.7705c-0.9189-0.2295-1.3389-0.7197-1.3389-1.2793c0-0.6787,0.5195-1.2588,1.5791-1.2588
		c0.7197,0,1.3389,0.3594,1.3389,0.3594l-0.1504,0.5801c-0.2988-0.2002-0.7588-0.3496-1.1885-0.3496
		c-0.5898,0-0.8799,0.2188-0.8799,0.5693c0,0.3701,0.3594,0.5889,0.9297,0.7295c0.9893,0.2402,1.5098,0.6895,1.5098,1.2598
		c0,0.9092-0.6904,1.4287-1.6797,1.4287C188.1934,162.1299,187.5234,161.6797,187.5234,161.6797z"/>
	<path class="st3" d="M197.7227,162v1.377h-0.752v-1.3613c-1.4082-0.0801-2.5293-0.6563-3.0566-1.1367l0.3838-1.4561
		c0.5127,0.4482,1.5205,1.0889,2.6729,1.2002v-2.8164c-2.0332-0.5605-2.833-1.4883-2.833-2.834c0-1.4561,1.0889-2.4805,2.833-2.5928
		v-1.3125h0.752v1.3125c1.0088,0.0801,1.9531,0.4805,2.4492,0.8643l-0.3672,1.3125c-0.5928-0.3672-1.3457-0.6719-2.082-0.7676
		v2.3203c2.002,0.5605,2.9141,1.457,2.9141,2.9941C200.6367,160.9756,199.2754,161.8555,197.7227,162z M196.9707,153.7725
		c-0.7363,0.0801-1.1523,0.4805-1.1523,1.0566c0,0.4482,0.3047,0.7998,1.1523,1.0723V153.7725z M197.7227,160.6074
		c0.7207-0.1113,1.2324-0.5918,1.2324-1.2969c0-0.5918-0.3516-0.9922-1.2324-1.2803V160.6074z"/>
	<path class="st3" d="M207.7559,159.6465V162h-1.8555v-2.3535h-4.418v-0.9922l4.7539-6.3379h1.5195v5.9707h1.7451v1.3594H207.7559z
		 M205.9004,154.7969l-2.6094,3.4902h2.6094V154.7969z"/>
	<path class="st3" d="M219.502,162v-5.8906c0-0.2236,0.0469-0.8477,0.0635-0.9121l-0.3525,0.9121L216.6367,162h-1.2012
		l-2.5771-5.8906c-0.0957-0.2236-0.3037-0.8164-0.3359-0.9121c0,0.0479,0.0479,0.6885,0.0479,0.9121V162h-1.7129v-9.6035h2.0811
		l3.1689,7.0264l3.1543-7.0264h2.0156V162H219.502z"/>
</g>
<g>
	<g>
		<g>
			<g>
				<g class="st1">
					<defs>
						<polygon id="SVGID_1_" class="st1" points="127.3434,141.8263 133.9924,137.9618 140.3562,141.6349 133.7055,145.4993 						
							"/>
					</defs>
					<use xlink:href="#SVGID_1_"  style="overflow:visible;fill:#B6E8FB;"/>
					<clipPath id="SVGID_2_">
						<use xlink:href="#SVGID_1_"  style="overflow:visible;"/>
					</clipPath>
					<g class="st4">
						<g>
							<g>
								<g>
									<g>
										<polygon class="st2" points="140.3562,141.6349 133.9924,137.9618 127.3434,141.8263 133.7055,145.4993 
											140.3562,141.6349 										"/>
									</g>
								</g>
							</g>
						</g>
					</g>
				</g>
			</g>
		</g>
	</g>
	<g>
		<g>
			<g>
				<g class="st1">
					<defs>
						<polygon id="SVGID_3_" class="st1" points="139.7018,135.2373 146.3527,131.3728 152.7259,135.0535 146.0752,138.918 						
							"/>
					</defs>
					<clipPath id="SVGID_4_">
						<use xlink:href="#SVGID_3_"  style="overflow:visible;"/>
					</clipPath>
					<g class="st5">
						<g>
							<g>
								<g>
									<g>
										<polygon class="st6" points="152.7259,135.0535 146.3527,131.3728 139.7018,135.2373 146.0752,138.9161 
											152.7259,135.0535 										"/>
									</g>
								</g>
							</g>
						</g>
					</g>
				</g>
			</g>
		</g>
	</g>
	<g>
		<g>
			<g>
				<g class="st1">
					<defs>
						<polygon id="SVGID_5_" class="st1" points="152.0397,128.7571 158.6905,124.8926 165.0638,128.5733 158.4129,132.4378 						
							"/>
					</defs>
					<clipPath id="SVGID_6_">
						<use xlink:href="#SVGID_5_"  style="overflow:visible;"/>
					</clipPath>
					<g class="st7">
						<g>
							<g>
								<g>
									<g>
										<polygon class="st2" points="165.0638,128.5733 158.6905,124.8926 152.0397,128.7571 158.4129,132.4378 
											165.0638,128.5733 										"/>
									</g>
								</g>
							</g>
						</g>
					</g>
				</g>
			</g>
		</g>
	</g>
</g>
<g>
	<g>
		<g>
			<polygon class="st8" points="52.7148,136 129.7781,93.3052 129.7773,25.1379 52.714,67.8328 			"/>
			<polygon class="st8" points="52.7138,56.6946 129.7771,14 129.7773,23.1813 52.714,65.8759 			"/>
			<polygon class="st9" points="70.4925,119.5555 112.0007,96.5591 112.0007,96.559 112.0002,82.2401 70.4919,105.2367 			"/>
			<g>
				<polygon class="st10" points="58.5093,91.0058 109.7118,62.6385 109.7121,76.9576 58.5093,105.325 				"/>
				<polygon class="st10" points="58.5091,72.6495 109.7116,44.2822 109.7119,58.6008 109.7117,58.6011 58.5091,86.9686 				"/>
				<path class="st6" d="M114.6009,67.0794l0.0002,5.3143c0,0.5647,0.413,0.7935,0.9225,0.5113l5.9922-3.32
					c0.5097-0.2822,0.9227-0.9688,0.9227-1.5335l-0.0002-5.3143c0-0.4165-0.2251-0.6495-0.5476-0.6301l0,0v-1.6477
					c0-2.0629-1.5093-2.8992-3.3711-1.8678c-1.8618,1.0316-3.3711,3.5401-3.3711,5.6031v1.6477l0.0002-0.0002
					C114.8262,66.1803,114.6009,66.6627,114.6009,67.0794z M118.0848,67.8937c-0.4198,0.0423-0.7161-0.2493-0.7161-0.7829
					c0-0.7044,0.5153-1.5609,1.1509-1.9129c0.6356-0.3522,1.1509-0.0667,1.1509,0.6375c0,0.5337-0.2962,1.1536-0.7157,1.5764
					l0.5082,1.9988l-1.8863,1.0449L118.0848,67.8937z M116.5804,63.4015c0-1.1848,0.87-2.6307,1.9392-3.2232
					c1.0693-0.5924,1.9392-0.1105,1.9392,1.0743v1.5588l-3.8785,2.1488V63.4015z"/>
				<path class="st6" d="M117.0123,47.6329c-1.1835-0.0652-1.9171-1.1741-1.5574-3.0506c0.2682-1.3995,1.1869-2.9221,2.3176-3.8377
					c2.0737-1.6789,3.9155-0.9686,3.9157,1.2388c0,1.3243-0.6709,2.8347-1.6491,3.9724c1.7174-0.4777,3.161,0.0033,3.7583,1.1787
					c0.4922,0.9686-0.0439,2.8551-1.0485,3.4116l-8.4465,4.6796c-1.0046,0.5566-1.5697-0.7343-1.0485-2.2499
					C114.0301,50.7182,115.2949,49.058,117.0123,47.6329z"/>
			</g>
			<g>
				<path class="st11" d="M121.7648,23.0297c0,1.4086,1.0306,1.9796,2.302,1.2754c1.2713-0.7044,2.3018-2.4173,2.3018-3.8261
					s-1.0306-1.9798-2.302-1.2754C122.7954,19.908,121.7648,21.621,121.7648,23.0297z"/>
				<path class="st6" d="M115.4711,26.5164c0,1.4088,1.0308,1.9798,2.302,1.2756c1.2713-0.7044,2.302-2.4173,2.3018-3.8261
					c0-1.4088-1.0306-1.9798-2.3018-1.2754C116.5016,23.3949,115.4711,25.1078,115.4711,26.5164z"/>
				<path class="st9" d="M109.1775,30.0032c0,1.4088,1.0305,1.9798,2.3018,1.2754c1.2715-0.7042,2.302-2.4173,2.302-3.8259
					c0-1.4088-1.0308-1.9798-2.302-1.2754C110.2081,26.8815,109.1775,28.5946,109.1775,30.0032z"/>
			</g>
		</g>
	</g>
	<g>
		<path class="st11" d="M144.2739,78.386c-0.7164-0.4136-1.7059-0.3539-2.799,0.2772L115.7693,93.504
			c-1.0013,0.5781-1.905,1.5432-2.6021,2.6535c-0.8247,1.3137-1.3558,2.8337-1.3557,4.2016l0.0002,28.1745
			c0,1.262,0.443,2.1488,1.1592,2.5623l7.33,4.2322c-0.7162-0.4136-1.1591-1.3004-1.1591-2.5623l-0.0004-28.1745
			c0-1.3679,0.5309-2.8878,1.3557-4.2016c0.6971-1.1102,1.6009-2.0756,2.6021-2.6536l25.7058-14.8408
			c1.0928-0.6309,2.082-0.6907,2.7982-0.2775L144.2739,78.386z"/>
		<path class="st6" d="M123.0993,97.7362l25.7058-14.8409c2.1858-1.262,3.9579-0.2389,3.9579,2.2851l0.0004,28.1745
			c0,2.524-1.7719,5.5932-3.9579,6.8552l-25.7057,14.8408c-2.1858,1.2619-3.9579,0.2389-3.9579-2.2851l-0.0004-28.1745
			C119.1416,102.0673,120.9135,98.9981,123.0993,97.7362z"/>
		<path class="st6" d="M125.9149,114.7681c0.0001,6.4011,4.4941,8.9957,10.0377,5.7952
			c5.5435-3.2005,10.0374-10.9841,10.0373-17.3852c0-6.4011-4.494-8.9957-10.0376-5.7952
			C130.4088,100.5834,125.9149,108.367,125.9149,114.7681z"/>
		<path class="st6" d="M135.2077,120.065c5.5436-3.2005,10.0374-10.9841,10.0374-17.3852c0-2.7955-0.8577-4.8643-2.2851-6.0422
			c1.8672,1.0268,3.0299,3.2897,3.0299,6.5406c0.0001,6.4011-4.4938,14.1847-10.0373,17.3852
			c-3.1226,1.8027-5.9117,1.7661-7.7527,0.247C130.0092,121.8052,132.4797,121.64,135.2077,120.065z"/>
		<path class="st11" d="M131.7971,107.0578c0-2.6499,1.8603-5.8721,4.1552-7.1972c2.2949-1.3249,4.1554-0.2508,4.1554,2.3991
			c0.0002,2.0074-1.0693,4.3393-2.5846,5.93l1.8347,7.5202l-6.8101,3.9315l1.8343-9.6383
			C132.8666,110.1623,131.7971,109.0652,131.7971,107.0578z"/>
		<g>
			<path class="st2" d="M121.5125,96.0507c0.8368,0,1.6313-0.1924,2.2358-0.542c0.6884-0.3973,1.0674-0.9541,1.0674-1.5681
				c0-0.6145-0.379-1.1715-1.0674-1.5687c-0.6045-0.3496-1.399-0.542-2.2358-0.542s-1.6303,0.1924-2.235,0.542
				c-0.6883,0.3969-1.0672,0.9542-1.0672,1.5687c0,0.6141,0.3789,1.1714,1.0672,1.5686
				C119.8821,95.8582,120.6757,96.0507,121.5125,96.0507z"/>
			<path class="st2" d="M142.4129,84.7342c0.8392,0,1.6346-0.1928,2.2399-0.5432c0.69-0.3976,1.0689-0.9554,1.0698-1.5707
				c0-0.6154-0.3797-1.1735-1.0698-1.572c-0.6054-0.3495-1.4007-0.5423-2.2399-0.5423c-0.8385,0-1.6337,0.1928-2.2392,0.5428
				c-0.6899,0.398-1.0698,0.9561-1.0698,1.5715c0.0009,0.6153,0.3799,1.1731,1.0698,1.5712
				C140.7791,84.5415,141.5744,84.7342,142.4129,84.7342z"/>
		</g>
		<g>
			<path class="st12" d="M119.5178,92.7886c-1.1018,0.636-1.1018,1.6674,0,2.3036c1.1018,0.636,2.8881,0.636,3.9899,0
				c1.1017-0.6362,1.1017-1.6675,0-2.3036C122.4059,92.1525,120.6196,92.1525,119.5178,92.7886z"/>
			<path class="st12" d="M140.4139,81.4657c-1.1042,0.6375-1.1042,1.6712,0,2.3087c1.1042,0.6376,2.8946,0.6376,3.9988,0
				c1.1042-0.6375,1.1042-1.6712,0-2.3087C143.3085,80.8282,141.5181,80.8282,140.4139,81.4657z"/>
			<path class="st12" d="M142.7902,83.0243l-3.1877-0.4043l-0.0001-8.3891c0-4.8621-3.4257-6.8399-7.6363-4.4089
				c-4.2108,2.4309-7.6363,8.3642-7.6362,13.2262v10.8921l-4.0387-0.6897c-0.5263,0.3038-1.1482,0.1965-1.5997,0.6897v-7.6368
				c-0.0001-8.4655,5.9431-18.7594,13.2744-22.992v-0.0001c7.3314-4.2326,13.2748-0.8013,13.2748,7.6642l0.0001,11.6443
				C144.7893,82.6483,143.3165,82.7204,142.7902,83.0243z"/>
		</g>
		<g>
			<path class="st12" d="M119.5178,92.7886c-1.1018,0.636-1.1018,1.6674,0,2.3036c1.1018,0.636,2.8881,0.636,3.9899,0
				c1.1017-0.6362,1.1017-1.6675,0-2.3036C122.4059,92.1525,120.6196,92.1525,119.5178,92.7886z"/>
			<path class="st12" d="M140.4139,81.4657c-1.1042,0.6375-1.1042,1.6712,0,2.3087c1.1042,0.6376,2.8946,0.6376,3.9988,0
				c1.1042-0.6375,1.1042-1.6712,0-2.3087C143.3085,80.8282,141.5181,80.8282,140.4139,81.4657z"/>
			<path class="st12" d="M142.7902,83.0243l-3.1877-0.4043l-0.0001-8.3891c0-4.8621-3.4257-6.8399-7.6363-4.4089
				c-4.2108,2.4309-7.6363,8.3642-7.6362,13.2262v10.8921l-4.0387-0.6897c-0.5263,0.3038-1.1482,0.1965-1.5997,0.6897v-7.6368
				c-0.0001-8.4655,5.9431-18.7594,13.2744-22.992v-0.0001c7.3314-4.2326,13.2748-0.8013,13.2748,7.6642l0.0001,11.6443
				C144.7893,82.6483,143.3165,82.7204,142.7902,83.0243z"/>
		</g>
		<path class="st13" d="M142.3874,77.6657l0.0001,6.5854c-0.715-0.0037-1.428-0.1617-1.9736-0.4767
			c-0.5966-0.3445-0.8595-0.8041-0.8114-1.2548V74.231c-0.0001-3.4283-1.7069-5.4132-4.1876-5.439
			C139.4837,68.0892,142.3874,71.4249,142.3874,77.6657z"/>
		<g>
			<path class="st11" d="M137.8002,103.7424c0-0.6125-0.1516-1.0914-0.3975-1.4454c0.8845,0.0739,1.4875,0.8135,1.4875,2.0746
				c0.0001,1.4192-0.756,3.0679-1.8273,4.1925l0,0l-1.09-0.6292C137.0441,106.8104,137.8002,105.1617,137.8002,103.7424z"/>
			<polygon class="st11" points="133.8142,115.2468 137.2699,113.2517 138.3599,113.881 133.5452,116.6606 			"/>
			<polygon class="st11" points="137.2699,113.2517 135.9729,107.935 135.9729,107.935 137.0628,108.5641 138.3599,113.881 
				138.3599,113.881 137.2699,113.2517 			"/>
		</g>
	</g>
</g>
</svg>
