<?xml version="1.0" encoding="utf-8"?>
<!-- Generator: Adobe Illustrator 21.1.0, SVG Export Plug-In . SVG Version: 6.00 Build 0)  -->
<svg version="1.1" id="Layer_1" xmlns="http://www.w3.org/2000/svg" xmlns:xlink="http://www.w3.org/1999/xlink" x="0px" y="0px"
	 viewBox="0 0 269 176" style="enable-background:new 0 0 269 176;" xml:space="preserve">
<style type="text/css">
	.st0{fill:none;stroke:#B6E8FB;stroke-width:2;stroke-miterlimit:10;}
	.st1{enable-background:new    ;}
	.st2{fill:#B6E8FB;}
	.st3{clip-path:url(#SVGID_2_);}
	.st4{fill:#E9E9E9;}
	.st5{clip-path:url(#SVGID_4_);}
	.st6{fill:#003058;}
	.st7{clip-path:url(#SVGID_6_);}
	.st8{fill:#00A7E1;}
	.st9{fill:#A8C628;}
	.st10{fill:#68A328;}
	.st11{fill:#FFFFFF;}
</style>
<g>
	<line class="st0" x1="111.0342" y1="104.3437" x2="191.6248" y2="152.5319"/>
	<g>
		<g class="st1">
			<g>
				<g>
					<path class="st2" d="M194.5723,154.4633c-1.845,1.0677-4.8324,1.0677-6.6691,0c-1.8339-1.0677-1.8284-2.7965,0.0194-3.8628
						c1.8506-1.0677,4.8379-1.0677,6.6747,0C196.4339,151.6668,196.4229,153.3956,194.5723,154.4633L194.5723,154.4633z"/>
				</g>
			</g>
		</g>
	</g>
	<line class="st0" x1="123.1675" y1="97.4103" x2="164.7675" y2="122.5437"/>
	<line class="st0" x1="164.5218" y1="122.9944" x2="188.1675" y2="109.5437"/>
	<g>
		<g class="st1">
			<g>
				<g>
					<path class="st2" d="M191.9722,110.2633c-1.845,1.0677-4.8324,1.0677-6.6691,0c-1.8339-1.0677-1.8284-2.7965,0.0194-3.8628
						c1.8506-1.0677,4.8379-1.0677,6.6747,0C193.8339,107.4668,193.8229,109.1956,191.9722,110.2633L191.9722,110.2633z"/>
				</g>
			</g>
		</g>
	</g>
	<g>
		<g>
			<g>
				<g>
					<g class="st1">
						<defs>
							<polygon id="SVGID_1_" class="st1" points="230.2809,107.3529 221.9786,102.5293 214.0442,107.1127 222.3441,111.9365 
															"/>
						</defs>
						<clipPath id="SVGID_2_">
							<use xlink:href="#SVGID_1_"  style="overflow:visible;"/>
						</clipPath>
						<g class="st3">
							<g>
								<g>
									<g>
										<g>
											<polygon class="st4" points="214.0442,107.1127 221.9786,102.5293 230.2809,107.3529 222.3441,111.9365 
												214.0442,107.1127 											"/>
										</g>
									</g>
								</g>
							</g>
						</g>
					</g>
				</g>
			</g>
		</g>
		<g>
			<g>
				<g>
					<g class="st1">
						<defs>
							<polygon id="SVGID_3_" class="st1" points="214.8791,99.1251 206.5953,94.3095 198.661,98.8931 206.9423,103.706 							"/>
						</defs>
						<clipPath id="SVGID_4_">
							<use xlink:href="#SVGID_3_"  style="overflow:visible;"/>
						</clipPath>
						<g class="st5">
							<g>
								<g>
									<g>
										<g>
											<polygon class="st6" points="198.661,98.8931 206.5953,94.3095 214.8791,99.1224 206.9447,103.706 198.661,98.8931 
																							"/>
										</g>
									</g>
								</g>
							</g>
						</g>
					</g>
				</g>
			</g>
		</g>
		<g>
			<g>
				<g>
					<g class="st1">
						<defs>
							<polygon id="SVGID_5_" class="st1" points="199.4934,91.0468 191.1908,86.2233 183.2379,90.8173 191.5377,95.6384 							"/>
						</defs>
						<clipPath id="SVGID_6_">
							<use xlink:href="#SVGID_5_"  style="overflow:visible;"/>
						</clipPath>
						<g class="st7">
							<g>
								<g>
									<g>
										<g>
											<polygon class="st4" points="183.2379,90.8173 191.1908,86.2233 199.4934,91.0468 191.5377,95.6384 183.2379,90.8173 
																							"/>
										</g>
									</g>
								</g>
							</g>
						</g>
					</g>
				</g>
			</g>
		</g>
	</g>
	<g>
		<g>
			<g>
				<g>
					<path class="st6" d="M40.7736,134.6069c-1.2962-0.7711-2.08-2.1776-2.0538-3.6856l0.769-44.3302l0.1089-8.3457l0.0551-4.2206
						c0.0488-3.7381,2.0881-7.1662,5.3498-8.993l2.0005-1.1205l6.6376-3.7176l83.5627-46.7194
						c2.9583-1.6569,6.5759-1.6097,9.4899,0.1239l4.1075,2.4435l1.3012,0.7892L53.5067,70.4553L52.14,71.2207
						c-3.2617,1.8268-5.301,5.2549-5.3498,8.993l-0.0301,2.3049l1.3918,56.5866l-2.3135-1.4853L40.7736,134.6069z"/>
					<path class="st2" d="M46.0689,135.6929c-0.0336,2.8955,3.0778,4.7433,5.6042,3.3283l0.9458-0.5297l77.0413-43.1492
						l19.6852-11.0253c2.6156-1.465,4.2511-4.2141,4.2902-7.2118l0.0457-3.5014l0.6701-51.3448l0.0258-1.9815
						c0.0369-2.8285-3.002-4.6363-5.47-3.254L130.548,27.306L53.5067,70.4553L52.14,71.2207
						c-3.2617,1.8268-5.301,5.2549-5.3498,8.993l-0.0301,2.3049l-0.6701,51.3448L46.0689,135.6929z M52.7278,130.1458
						l0.6701-51.3448l77.0413-43.1492l-0.6701,51.3448L52.7278,130.1458z"/>
				</g>
				<path class="st6" d="M148.4226,58.7327c-2.2058,2.2508-4.9581,2.354-6.1475,0.2304c-1.1893-2.1235-0.3653-5.6696,1.8405-7.9203
					s4.9581-2.354,6.1475-0.2304C151.4525,52.9359,150.6284,56.4819,148.4226,58.7327z"/>
				<polygon class="st6" points="52.7278,130.1458 53.3978,78.801 138.4715,31.1369 137.8014,82.4817 				"/>
			</g>
		</g>
		<g>
			<g>
				<g>
					<g>
						<path class="st8" d="M82.373,131.8797c0.062,0.0472,0.1425,0.0953,0.2143,0.1445c-0.2172-0.1524-0.4286-0.3126-0.6359-0.4807
							C82.0978,131.6635,82.2422,131.7784,82.373,131.8797z"/>
					</g>
					<g>
						<path class="st8" d="M83.2575,132.4537c-0.229-0.1327-0.4511-0.2762-0.6674-0.4276
							C82.8124,132.1746,83.058,132.3239,83.2575,132.4537z"/>
					</g>
					<g>
						<path class="st9" d="M104.0695,85.1576c-11.5623,6.6756-20.9073,22.8623-20.869,36.1485
							c0.0363,13.2863,9.4433,18.6469,21.0057,11.9703c11.5633-6.6746,20.9083-22.8612,20.87-36.1476
							C125.0389,83.8425,115.6329,78.4819,104.0695,85.1576z"/>
					</g>
					<g>
						<path class="st10" d="M81.9425,121.4516c-0.0394-13.7679,9.6419-30.5374,21.6238-37.4548
							c6.0289-3.4803,11.4926-3.8037,15.4368-1.5116l-5.0125-2.9132c-0.3578-0.2074-0.7313-0.3863-1.1136-0.5504
							c-0.1926-0.0875-0.3813-0.1701-0.5543-0.2349c-0.4894-0.1838-1.1627-0.3784-1.6767-0.4757
							c-1.9294-0.3636-3.1629-0.2457-4.1545-0.1514c-0.5573,0.0531-1.2974,0.1759-1.8399,0.3145
							c-0.863,0.2202-1.9953,0.5819-2.8346,0.8787c-0.6084,0.2152-1.3869,0.5897-1.9677,0.8718
							c-0.4816,0.2329-1.1009,0.5907-1.5726,0.8433c-2.8513,1.6669-4.762,3.325-5.2799,3.7928
							c-1.8576,1.6808-2.009,1.8184-3.1687,3.0548c-1.6857,1.7957-2.9221,3.4341-2.9339,3.4498
							c-1.4684,1.9706-1.6945,2.2734-2.6518,3.7742c-0.3145,0.4925-1.2688,1.9893-2.3244,4.0268
							c-1.9785,3.8175-3.0311,6.9793-3.4833,8.5243c-0.2958,1.0124-0.7007,2.3992-1.0624,4.3619
							c-0.3155,1.718-0.3372,1.9657-0.5387,4.3345c-0.0894,1.0546-0.1277,3.9864,0.3254,6.3148
							c0.1681,0.8639,0.6801,3.4931,2.063,5.7035c0.6202,0.9927,1.1273,1.6442,1.8065,2.3254
							c0.2172,0.2182,0.4934,0.459,0.7705,0.688c0.0501,0.0423,0.1013,0.0835,0.1524,0.1248
							c0.2073,0.1681,0.4187,0.3283,0.6359,0.4807c0.001,0,0.002,0.0009,0.002,0.0009c0.2172,0.1524,0.4393,0.2959,0.6683,0.4286
							l0,0l5.0136,2.9133C84.3761,133.1033,81.9611,128.2913,81.9425,121.4516z"/>
					</g>
					<g>
						<path class="st4" d="M124.3764,89.4251c-0.1858-0.5573-0.5022-1.2768-0.7489-1.8104
							c-0.1544-0.3351-0.4118-0.7568-0.5888-1.0812c-0.2644-0.4855-0.7233-1.0683-1.0625-1.5047
							c-0.3331-0.4305-0.8452-0.9524-1.259-1.3062c-0.4826-0.4118-1.1736-0.9052-1.7142-1.2374
							c-3.9442-2.2921-9.4079-1.9687-15.4368,1.5116c-11.982,6.9174-21.6632,23.6869-21.6238,37.4548
							c0.0186,6.8397,2.4336,11.6517,6.3286,13.9153c0.8491,0.4521,1.4625,0.7794,2.6891,1.1086
							c0.8846,0.2369,2.0315,0.3922,2.922,0.3961c1.1607,0.0049,2.2301-0.0934,3.1786-0.291
							c1.7927-0.3735,3.0586-0.8394,3.8047-1.1637c0.9937-0.4325,1.9323-0.8404,3.4007-1.7103
							c1.9175-1.1352,3.3731-2.2979,3.3869-2.3087c1.6551-1.3515,2.4109-1.9687,3.2385-2.808
							c0.9308-0.9445,2.1406-2.236,3.0233-3.2248c0.461-0.516,1.0251-1.2473,1.4526-1.7918
							c0.4256-0.5416,0.979-1.2758,1.3622-1.8487c0.7746-1.1559,1.7732-2.7215,2.4955-3.9119
							c0.632-1.0418,1.1048-2.006,2.1397-4.1182c0.0089-0.0167,0.9091-1.9067,1.7407-4.2488
							c0.6241-1.7594,0.8629-2.6646,1.2964-4.3079c0.0059-0.0196,0.515-1.9834,0.8089-4.2951
							c0.118-0.9318,0.2752-2.3825,0.2722-4.2096C125.4802,94.9556,125.3622,92.3845,124.3764,89.4251z M104.2062,133.2763
							c-11.5624,6.6766-20.9693,1.316-21.0057-11.9703c-0.0384-13.2862,9.3067-29.4729,20.869-36.1485
							c11.5634-6.6757,20.9693-1.3151,21.0067,11.9712C125.1146,110.4151,115.7695,126.6018,104.2062,133.2763z"/>
					</g>
				</g>
			</g>
			<g>
				<g>
					<g>
						<path class="st11" d="M93.629,113.0761l5.8386-3.3709c0.6454-0.3726,1.1677-1.2772,1.1677-2.0225
							c0-0.7453-0.5223-1.0468-1.1677-0.6742l-4.6708,2.6967v-5.3934c0-0.7453-0.5223-1.0468-1.1677-0.6742
							c-0.6454,0.3726-1.1677,1.2773-1.1677,2.0225v6.7417C92.4613,113.1472,92.9835,113.4488,93.629,113.0761z"/>
					</g>
					<g>
						<path class="st11" d="M93.629,113.0761c0.4812-0.2778,0.9305-0.8822,1.1016-1.5353
							c1.2544-4.8232,5.298-10.2496,9.4078-12.6224s8.1535-1.6157,9.4078,1.7591c0.2167,0.5794,0.8803,0.557,1.4916-0.0382
							c0.6067-0.5991,0.926-1.5538,0.7116-2.1318c-1.5942-4.2886-6.4772-5.2499-11.611-2.2858s-10.0168,9.5636-11.611,15.693
							c-0.2144,0.8256,0.1049,1.4116,0.7116,1.3102C93.369,113.2012,93.499,113.1512,93.629,113.0761z"/>
					</g>
				</g>
				<g>
					<g>
						<path class="st11" d="M114.6478,115.7728c0.6454-0.3726,1.1677-1.2773,1.1677-2.0225v-6.7417
							c0-0.7453-0.5223-1.0468-1.1677-0.6742l-5.8386,3.3709c-0.6454,0.3726-1.1677,1.2772-1.1677,2.0225
							c0,0.7453,0.5223,1.0468,1.1677,0.6742l4.6708-2.6967v5.3934C113.4801,115.8439,114.0024,116.1454,114.6478,115.7728z"/>
					</g>
					<g>
						<path class="st11" d="M104.1384,123.1887c5.1338-2.964,10.0168-9.5636,11.611-15.693
							c0.2144-0.8256-0.1049-1.4116-0.7116-1.3102c-0.6067,0.1053-1.2772,0.8559-1.4916,1.6841
							c-1.2544,4.8232-5.298,10.2496-9.4078,12.6224s-8.1535,1.6157-9.4078-1.7591c-0.2167-0.5767-0.8826-0.553-1.4916,0.0382
							c-0.6067,0.5991-0.926,1.5538-0.7116,2.1318C94.1216,125.1915,99.0046,126.1527,104.1384,123.1887z"/>
					</g>
				</g>
			</g>
		</g>
	</g>
</g>
</svg>
