<svg xmlns="http://www.w3.org/2000/svg" viewBox="0 0 38.79 23.61"><defs><style>.cls-1{fill:#fff;}</style></defs><title>Acquisition_white</title><g id="Layer_2" data-name="Layer 2"><g id="labels"><path class="cls-1" d="M38.79,9.8,38.21,9,32.27,1l-.5-.67L31,.71,25.6,3.94a36,36,0,0,0-4.94-1.39l-.49,0a26.26,26.26,0,0,0-4.4.61A17.61,17.61,0,0,0,14,2.56,37.39,37.39,0,0,1,8,.31L7.33,0,0,8.52l.66.61c.3.28,1.52,1.67,2.93,3.28l1,1.09c-.69,1-1.23,2.38-.26,3.56a2.82,2.82,0,0,0,1.82,1.07,2.28,2.28,0,0,0,1,1.48,2.53,2.53,0,0,0,2,.55l0,.07a3.58,3.58,0,0,0,1.27,1.5,2.29,2.29,0,0,0,1.27.38,2.46,2.46,0,0,0,.43,0,2,2,0,0,0,1.61,1.39,3.9,3.9,0,0,0,.72.07A2.2,2.2,0,0,0,15.88,23l.37.16a4.45,4.45,0,0,0,1.88.41,6.56,6.56,0,0,0,1.43-.18,15.31,15.31,0,0,0,2.23-.89l.13-.06a74.38,74.38,0,0,0,7-3.73l.15-.09a8.1,8.1,0,0,0,1.47-1.09,4.17,4.17,0,0,0,.88-3L38,10.34Zm-9.62,6.53a3.46,3.46,0,0,1-.55.44l-3-2.75a.93.93,0,0,0-1.26,1.36L27,17.78c-.54.31-1.15.65-1.78,1L22.1,15.94a.93.93,0,0,0-1.25,1.38l2.61,2.36-1.81.89-3.06-2.83a.93.93,0,0,0-1.26,1.36l2.48,2.3a4.93,4.93,0,0,1-.66.23A3.06,3.06,0,0,1,17,21.49l-.17-.07a4,4,0,0,0-1.51-3.2,2,2,0,0,0-1-.41,3.09,3.09,0,0,0-.93-2.34,1.76,1.76,0,0,0-1.18-.5l-.24,0a3.32,3.32,0,0,0-.16-1.48,1.89,1.89,0,0,0-1-1.09,2,2,0,0,0-.78-.17,1.76,1.76,0,0,0-1.11.38v-.06a1.75,1.75,0,0,0-.71-1.17h0a1.71,1.71,0,0,0-.86-.26A2,2,0,0,0,5.72,12L5,11.18C3.85,9.89,3.06,9,2.54,8.41L7.81,2.29a38.44,38.44,0,0,0,5.35,2,1.16,1.16,0,0,0-.21.28,1.13,1.13,0,0,0,0,1,3,3,0,0,0,1.44,1.67l.08,0a4.08,4.08,0,0,0,2,.58,7.51,7.51,0,0,0,2.75-.65.8.8,0,0,1,.27,0,3,3,0,0,1,.67.1c1.33.73,2.31,1.32,2.5,1.43,1.49,1.18,4,3.29,6.16,5.07a5.35,5.35,0,0,1,.74.94A2.3,2.3,0,0,1,29.18,16.33Z"/></g></g></svg>