<svg xmlns="http://www.w3.org/2000/svg" viewBox="0 0 48.33 48.33"><defs><style>.cls-1{fill:#fff;}</style></defs><title>Acquisition_white_circle</title><g id="Layer_2" data-name="Layer 2"><g id="labels"><path class="cls-1" d="M42.55,23.37,42,22.66,36.7,15.45l-.45-.6-.65.38-4.88,2.89a32.22,32.22,0,0,0-4.43-1.24l-.44,0a23.53,23.53,0,0,0-3.94.55,15.78,15.78,0,0,0-1.61-.52,33.51,33.51,0,0,1-5.38-2l-.58-.28L7.78,22.22l.59.54c.27.25,1.36,1.5,2.63,2.94l.86,1c-.61.92-1.1,2.13-.23,3.19a2.53,2.53,0,0,0,1.63,1,2,2,0,0,0,.88,1.33,2.26,2.26,0,0,0,1.81.49l0,.07a3.21,3.21,0,0,0,1.14,1.34,2.05,2.05,0,0,0,1.14.34,2.2,2.2,0,0,0,.39,0,1.77,1.77,0,0,0,1.44,1.24,3.5,3.5,0,0,0,.64.06A2,2,0,0,0,22,35.24l.33.14a4,4,0,0,0,1.68.36,5.88,5.88,0,0,0,1.28-.16,13.72,13.72,0,0,0,2-.8l.11-.05a66.65,66.65,0,0,0,6.29-3.34l.13-.08a7.26,7.26,0,0,0,1.32-1A3.74,3.74,0,0,0,36,27.67l5.85-3.82Zm-8.62,5.85a3.1,3.1,0,0,1-.49.39l-2.67-2.46a.83.83,0,0,0-1.13,1.22L32,30.52c-.49.28-1,.58-1.59.88l-2.79-2.53a.83.83,0,0,0-1.12,1.23l2.34,2.12-1.62.8-2.74-2.54a.83.83,0,0,0-1.13,1.22l2.22,2.06a4.42,4.42,0,0,1-.59.2,2.74,2.74,0,0,1-2-.12l-.16-.07a3.61,3.61,0,0,0-1.36-2.87,1.81,1.81,0,0,0-.93-.37,2.77,2.77,0,0,0-.83-2.1A1.58,1.58,0,0,0,18.66,28l-.21,0a3,3,0,0,0-.14-1.32,1.69,1.69,0,0,0-.93-1,1.8,1.8,0,0,0-.7-.15,1.58,1.58,0,0,0-1,.34v-.05a1.56,1.56,0,0,0-.64-1h0a1.53,1.53,0,0,0-.77-.23,1.81,1.81,0,0,0-1.33.79l-.65-.74c-1-1.16-1.73-2-2.19-2.48l4.72-5.49a34.45,34.45,0,0,0,4.79,1.77,1,1,0,0,0-.19.25,1,1,0,0,0,0,.92,2.71,2.71,0,0,0,1.29,1.5l.08,0a3.65,3.65,0,0,0,1.83.52A6.73,6.73,0,0,0,25,21.05a.72.72,0,0,1,.25,0,2.67,2.67,0,0,1,.6.09c1.19.65,2.07,1.18,2.24,1.28,1.33,1.06,3.62,2.95,5.52,4.55a4.79,4.79,0,0,1,.66.85A2.06,2.06,0,0,1,33.93,29.22Z"/><path class="cls-1" d="M24.17,48.33A24.17,24.17,0,1,1,48.33,24.17,24.19,24.19,0,0,1,24.17,48.33ZM24.17,2A22.17,22.17,0,1,0,46.33,24.17,22.19,22.19,0,0,0,24.17,2Z"/></g></g></svg>