<svg xmlns="http://www.w3.org/2000/svg" viewBox="0 0 34.05 29.03"><defs><style>.cls-1{fill:#00a7e1;}</style></defs><title>Affiliate_blue</title><g id="Layer_2" data-name="Layer 2"><g id="labels"><circle class="cls-1" cx="17.03" cy="3.02" r="3.02"/><path class="cls-1" d="M21.62,7.78,20,6.48,17.82,9l-.41-1.36.16-.42a.24.24,0,0,0,0-.23l-.17-.18H16.7L16.53,7a.24.24,0,0,0,0,.23l.16.42L16.24,9,14,6.48l-1.6,1.3A3.39,3.39,0,0,0,10.83,11v1.89h12.4V11A3.39,3.39,0,0,0,21.62,7.78Z"/><circle class="cls-1" cx="6.2" cy="19.19" r="3.02"/><path class="cls-1" d="M10.8,23.94l-1.6-1.3L7,25.2l-.41-1.36.16-.42a.24.24,0,0,0,0-.23L6.52,23H5.88l-.17.18a.24.24,0,0,0,0,.23l.15.42L5.41,25.2l-2.2-2.55-1.6,1.3A3.39,3.39,0,0,0,0,27.14V29H12.4V27.14A3.39,3.39,0,0,0,10.8,23.94Z"/><circle class="cls-1" cx="27.85" cy="19.19" r="3.02"/><path class="cls-1" d="M32.45,23.94l-1.6-1.3-2.2,2.55-.41-1.36.16-.42a.24.24,0,0,0,0-.23L28.17,23h-.64l-.17.18a.24.24,0,0,0,0,.23l.15.42-.41,1.36-2.2-2.55-1.6,1.3a3.39,3.39,0,0,0-1.6,3.19V29h12.4V27.14A3.39,3.39,0,0,0,32.45,23.94Z"/><polygon class="cls-1" points="20.55 20.49 17.75 18.87 17.75 15.63 16.3 15.63 16.3 18.87 13.5 20.49 14.22 21.74 17.03 20.12 19.83 21.74 20.55 20.49"/></g></g></svg>