<svg xmlns="http://www.w3.org/2000/svg" viewBox="0 0 48.33 48.33"><defs><style>.cls-1{fill:#00a7e1;}.cls-2{fill:none;stroke:#00a7e1;stroke-miterlimit:10;stroke-width:2px;}</style></defs><title>Affiliate_blue_circle</title><g id="Layer_2" data-name="Layer 2"><g id="labels"><circle class="cls-1" cx="24.1" cy="12.48" r="2.51"/><path class="cls-1" d="M27.92,16.43l-1.33-1.08-1.83,2.12-.34-1.13.13-.35a.2.2,0,0,0,0-.19l-.14-.15h-.54l-.14.15a.2.2,0,0,0,0,.19l.13.35-.34,1.13-1.83-2.12-1.33,1.08a2.82,2.82,0,0,0-1.33,2.65v1.58H29.25V19.08A2.82,2.82,0,0,0,27.92,16.43Z"/><circle class="cls-1" cx="15.09" cy="25.92" r="2.51"/><path class="cls-1" d="M18.92,29.87l-1.33-1.08-1.83,2.12-.34-1.13.13-.35a.2.2,0,0,0,0-.19l-.14-.15h-.54l-.14.15a.2.2,0,0,0,0,.19l.13.35-.34,1.13L12.6,28.79l-1.33,1.08a2.82,2.82,0,0,0-1.33,2.65V34.1H20.25V32.53A2.82,2.82,0,0,0,18.92,29.87Z"/><circle class="cls-1" cx="33.1" cy="25.92" r="2.51"/><path class="cls-1" d="M36.92,29.87l-1.33-1.08-1.83,2.12-.34-1.13.13-.35a.2.2,0,0,0,0-.19l-.14-.15h-.54l-.14.15a.2.2,0,0,0,0,.19l.13.35-.34,1.13-1.83-2.12-1.33,1.08a2.82,2.82,0,0,0-1.33,2.65V34.1H38.25V32.53A2.82,2.82,0,0,0,36.92,29.87Z"/><polygon class="cls-1" points="27.03 27 24.7 25.65 24.7 22.96 23.5 22.96 23.5 25.65 21.16 27 21.76 28.04 24.1 26.69 26.43 28.04 27.03 27"/><circle class="cls-2" cx="24.17" cy="24.17" r="23.17"/></g></g></svg>