<svg xmlns="http://www.w3.org/2000/svg" viewBox="0 0 40.18 37.05"><defs><style>.cls-1{fill:#fff;}</style></defs><title>Analytics_white_1</title><g id="Layer_2" data-name="Layer 2"><g id="labels"><path class="cls-1" d="M39.05,0H1.12A1.13,1.13,0,0,0,0,1.12V2.25A1.13,1.13,0,0,0,1.12,3.37h.75V23.84A1.09,1.09,0,0,0,3,24.92h16.1V33.1c-3.9.22-6.91,1.58-6.91,2.14s.49,1.81,1.09,1.81H27.07c.6,0,1.09-1.21,1.09-1.81s-3-1.92-6.91-2.14V24.92h16.1a1.09,1.09,0,0,0,1.09-1.09V3.37h.62a1.13,1.13,0,0,0,1.12-1.12V1.12A1.13,1.13,0,0,0,39.05,0Zm-2.8,22.75H4.05V3.37h32.2Z"/><path class="cls-1" d="M10,14a1.09,1.09,0,0,1,1.56-.19l2.87,2.34,4.93-6.66A1.09,1.09,0,0,1,20.16,9a1.1,1.1,0,0,1,.86.34L25.33,14l7.3-8.44H6.23V19Z"/><path class="cls-1" d="M26.19,16.32a1.09,1.09,0,0,1-.8.38,1.06,1.06,0,0,1-.82-.35L20.32,11.8l-4.83,6.53a1.09,1.09,0,0,1-1.56.2L11,16.18,7.77,20.57h26.3V7.2Z"/></g></g></svg>