<svg xmlns="http://www.w3.org/2000/svg" viewBox="0 0 48.33 48.33"><defs><style>.cls-1{fill:#fff;}</style></defs><title>Analytics_white_circle</title><g id="Layer_2" data-name="Layer 2"><g id="labels"><path class="cls-1" d="M34.89,12.61H13.45a2.27,2.27,0,0,0-2.27,2.27V32.68A2.27,2.27,0,0,0,13.45,35h7.64v2.82H19.9c-.9,0-1.62.29-1.62.65v.65H30.06v-.65c0-.36-.73-.65-1.62-.65H27.25V35h7.64a2.27,2.27,0,0,0,2.27-2.27V14.89A2.27,2.27,0,0,0,34.89,12.61ZM35,30.89H13.29V14.72H35Z"/><polygon class="cls-1" points="17.05 27.67 20.68 27.67 20.68 22.41 17.05 24.58 17.05 27.67"/><polygon class="cls-1" points="21.93 22.37 21.93 27.67 25.56 27.67 25.56 22.83 24.04 23.69 21.93 22.37"/><polygon class="cls-1" points="26.81 22.12 26.81 27.67 30.44 27.67 30.44 20.13 30.42 20.09 26.81 22.12"/><polygon class="cls-1" points="32.09 17.94 29.93 18.09 30.15 18.48 24.08 21.9 21.37 20.21 16.24 23.27 16.74 24.11 21.36 21.36 24.05 23.04 30.63 19.33 30.85 19.71 32.09 17.94"/><path class="cls-1" d="M24.17,48.33A24.17,24.17,0,1,1,48.33,24.17,24.19,24.19,0,0,1,24.17,48.33ZM24.17,2A22.17,22.17,0,1,0,46.33,24.17,22.19,22.19,0,0,0,24.17,2Z"/></g></g></svg>