<svg xmlns="http://www.w3.org/2000/svg" viewBox="0 0 55.31 51.01"><defs><style>.cls-1{fill:#08a6df;}</style></defs><title>Analytics_blue_1</title><g id="Layer_2" data-name="Layer 2"><g id="labels"><path class="cls-1" d="M53.77,0H1.55A1.55,1.55,0,0,0,0,1.55V3.09A1.55,1.55,0,0,0,1.55,4.64h1V32.82a1.5,1.5,0,0,0,1.5,1.5H26.25V45.58c-5.37.31-9.52,2.18-9.52,2.95S17.4,51,18.23,51h19c.83,0,1.5-1.66,1.5-2.49s-4.14-2.64-9.52-2.95V34.31H51.41a1.5,1.5,0,0,0,1.5-1.5V4.64h.86a1.55,1.55,0,0,0,1.55-1.55V1.55A1.55,1.55,0,0,0,53.77,0ZM49.91,31.31H5.58V4.64H49.91Z"/><path class="cls-1" d="M13.74,19.22A1.5,1.5,0,0,1,15.89,19l4,3.22L26.63,13a1.5,1.5,0,0,1,1.12-.61,1.52,1.52,0,0,1,1.18.47l5.94,6.37L44.93,7.62H8.58V26.14Z"/><path class="cls-1" d="M36.05,22.47a1.5,1.5,0,0,1-1.11.52,1.47,1.47,0,0,1-1.12-.48L28,16.24l-6.64,9a1.5,1.5,0,0,1-2.15.27l-4-3.23-4.51,6H46.91V9.92Z"/></g></g></svg>