<svg xmlns="http://www.w3.org/2000/svg" viewBox="0 0 48.33 48.33"><defs><style>.cls-1{fill:#fff;}</style></defs><title>Analytics_white_circle_1</title><g id="Layer_2" data-name="Layer 2"><g id="labels"><path class="cls-1" d="M24.17,48.33A24.17,24.17,0,1,1,48.33,24.17,24.19,24.19,0,0,1,24.17,48.33ZM24.17,2A22.17,22.17,0,1,0,46.33,24.17,22.19,22.19,0,0,0,24.17,2Z"/><path class="cls-1" d="M36.91,13.24H11.43a.76.76,0,0,0-.76.75v.75a.76.76,0,0,0,.76.75h.5V29.25a.73.73,0,0,0,.73.73H23.48v5.5c-2.62.15-4.65,1.06-4.65,1.44s.33,1.21.73,1.21h9.29c.4,0,.73-.81.73-1.21s-2-1.29-4.64-1.44V30H35.76a.73.73,0,0,0,.73-.73V15.5h.42a.76.76,0,0,0,.75-.75V14A.76.76,0,0,0,36.91,13.24ZM35,28.52H13.39v-13H35Z"/><path class="cls-1" d="M17.38,22.62a.73.73,0,0,1,1-.13l1.93,1.57,3.31-4.48a.73.73,0,0,1,.55-.3.74.74,0,0,1,.58.23l2.9,3.11L32.6,17H14.86v9Z"/><path class="cls-1" d="M28.26,24.21a.73.73,0,0,1-.54.25.71.71,0,0,1-.55-.23l-2.86-3.06-3.24,4.38a.73.73,0,0,1-1.05.13l-1.93-1.58-2.2,2.95H33.56v-9Z"/></g></g></svg>