<svg xmlns="http://www.w3.org/2000/svg" viewBox="0 0 31.03 31.6"><defs><style>.cls-1{fill:#00a7e1;}</style></defs><title>Analytics_blue</title><g id="Layer_2" data-name="Layer 2"><g id="labels"><path class="cls-1" d="M28.31,0H2.71A2.72,2.72,0,0,0,0,2.72V24a2.71,2.71,0,0,0,2.71,2.71h9.12V30H10.42c-1.07,0-1.94.35-1.94.78v.78H22.55v-.78c0-.43-.87-.78-1.94-.78H19.19V26.67h9.12A2.71,2.71,0,0,0,31,24V2.72A2.72,2.72,0,0,0,28.31,0Zm.19,21.83h-26V2.52h26Z"/><polygon class="cls-1" points="7.02 17.98 11.35 17.98 11.35 11.71 7.02 14.29 7.02 17.98"/><polygon class="cls-1" points="12.85 11.66 12.85 17.98 17.18 17.98 17.18 12.2 15.36 13.22 12.85 11.66"/><polygon class="cls-1" points="18.67 11.36 18.67 17.98 23 17.98 23 8.98 22.98 8.93 18.67 11.36"/><polygon class="cls-1" points="24.98 6.36 22.4 6.54 22.66 7 15.41 11.09 12.17 9.07 6.05 12.73 6.65 13.73 12.16 10.44 15.38 12.45 23.23 8.02 23.49 8.48 24.98 6.36"/></g></g></svg>