<svg xmlns="http://www.w3.org/2000/svg" viewBox="0 0 48.33 48.33"><defs><style>.cls-1{fill:#fff;}</style></defs><title>Creative_white_circle_1</title><g id="Layer_2" data-name="Layer 2"><g id="labels"><path class="cls-1" d="M24.17,48.33A24.17,24.17,0,1,1,48.33,24.17,24.19,24.19,0,0,1,24.17,48.33ZM24.17,2A22.17,22.17,0,1,0,46.33,24.17,22.19,22.19,0,0,0,24.17,2Z"/><path class="cls-1" d="M13.73,35.06a8.48,8.48,0,0,0-1.1-.93L12,36.33c-.08.31.1.49.41.41l2.2-.59A8.61,8.61,0,0,0,13.73,35.06Z"/><path class="cls-1" d="M28.34,20.45a5.94,5.94,0,0,1,1.73,2.79l1.62-1.61c.56-.56,0-2-1.24-3.28s-2.72-1.8-3.28-1.24l-1.62,1.62A5.91,5.91,0,0,1,28.34,20.45Z"/><path class="cls-1" d="M14.48,34.31a8.26,8.26,0,0,1,1.17,1.45l2.6-.7a5.86,5.86,0,0,0-1.73-2.8,5.85,5.85,0,0,0-2.79-1.73l-.7,2.6A8.17,8.17,0,0,1,14.48,34.31Z"/><path class="cls-1" d="M17.17,31.62A7.67,7.67,0,0,1,19,34.32L29.41,23.9a5.87,5.87,0,0,0-1.73-2.79,5.88,5.88,0,0,0-2.79-1.73L14.48,29.8A7.67,7.67,0,0,1,17.17,31.62Z"/><path class="cls-1" d="M15.86,26.54l-4,4V9.84c0-.36.21-.45.47-.19l3.27,3.27-.86.86a.66.66,0,0,0,.94.94l.86-.86.94.94.66.66.94.94-.86.86a.66.66,0,0,0,.94.94l.86-.86.94.94.66.66.94.94-2.84,2.84-3.85-3.85ZM39,36.28l-3.1-3.1L35,34a.66.66,0,1,1-.94-.94l.86-.86L34,31.31l-.66-.66-.94-.94-.86.86a.66.66,0,1,1-.94-.94l.86-.86-.94-.94-.66-.66-.94-.94-2.84,2.84,3.8,3.8h-7.6l-3.87,3.87H38.78C39.15,36.75,39.23,36.54,39,36.28Z"/></g></g></svg>