<svg xmlns="http://www.w3.org/2000/svg" viewBox="0 0 48.33 48.33"><defs><style>.cls-1{fill:#fff;}</style></defs><title>Creative_white_circle</title><g id="Layer_2" data-name="Layer 2"><g id="labels"><rect class="cls-1" x="23.55" y="37.91" width="1.24" height="1.71"/><rect class="cls-1" x="26.4" y="37.54" width="1.24" height="1.71" transform="translate(-9.02 8.31) rotate(-15.01)"/><rect class="cls-1" x="29.06" y="36.44" width="1.24" height="1.71" transform="translate(-14.67 19.83) rotate(-29.99)"/><rect class="cls-1" x="31.34" y="34.69" width="1.24" height="1.71" transform="translate(-15.77 33.01) rotate(-45.01)"/><rect class="cls-1" x="33.09" y="32.4" width="1.24" height="1.71" transform="translate(-11.95 45.81) rotate(-59.98)"/><rect class="cls-1" x="34.19" y="29.75" width="1.24" height="1.71" transform="translate(-3.75 56.31) rotate(-75.01)"/><rect class="cls-1" x="34.33" y="27.13" width="1.71" height="1.24"/><rect class="cls-1" x="33.96" y="24.28" width="1.71" height="1.24" transform="translate(-5.26 9.86) rotate(-15)"/><rect class="cls-1" x="32.85" y="21.62" width="1.71" height="1.24" transform="translate(-6.6 19.83) rotate(-29.99)"/><rect class="cls-1" x="14.01" y="21.39" width="1.24" height="1.71" transform="translate(-11.95 23.78) rotate(-60)"/><rect class="cls-1" x="12.9" y="24.04" width="1.24" height="1.71" transform="translate(-14.02 31.52) rotate(-75)"/><rect class="cls-1" x="12.29" y="27.13" width="1.71" height="1.24"/><rect class="cls-1" x="12.67" y="29.98" width="1.71" height="1.24" transform="matrix(0.97, -0.26, 0.26, 0.97, -7.47, 4.55)"/><rect class="cls-1" x="13.77" y="32.64" width="1.71" height="1.24" transform="translate(-14.67 11.77) rotate(-29.99)"/><rect class="cls-1" x="15.52" y="34.92" width="1.71" height="1.24" transform="translate(-20.33 21.99) rotate(-45)"/><rect class="cls-1" x="17.8" y="36.67" width="1.71" height="1.24" transform="translate(-22.97 34.81) rotate(-60.01)"/><rect class="cls-1" x="20.46" y="37.77" width="1.71" height="1.24" transform="translate(-21.29 49.03) rotate(-74.99)"/><rect class="cls-1" x="15.76" y="19.15" width="1.24" height="1.71" transform="translate(-9.35 17.44) rotate(-45)"/><rect class="cls-1" x="31.1" y="19.39" width="1.71" height="1.24" transform="translate(-4.79 28.46) rotate(-45)"/><polygon class="cls-1" points="19.62 28.53 20.86 28.53 20.86 28.88 23.93 33.83 27.47 28.86 27.47 28.53 28.71 28.53 28.71 29.25 23.85 36.07 19.62 29.23 19.62 28.53"/><path class="cls-1" d="M20.82,27.88V13.75h6.7V27.88Zm-1.24,1.24h9.18V12.51H19.58V29.12Z"/><rect class="cls-1" x="24.9" y="12.95" width="1.24" height="15.15"/><rect class="cls-1" x="22.32" y="12.95" width="1.24" height="15.15"/><rect class="cls-1" x="22.64" y="32.58" width="2.32" height="1.24"/><path class="cls-1" d="M28.77,11.24V9.41a.62.62,0,0,0-.62-.62h-8a.62.62,0,0,0-.62.62v1.83Z"/><path class="cls-1" d="M24.17,48.33A24.17,24.17,0,1,1,48.33,24.17,24.19,24.19,0,0,1,24.17,48.33ZM24.17,2A22.17,22.17,0,1,0,46.33,24.17,22.19,22.19,0,0,0,24.17,2Z"/></g></g></svg>