<svg xmlns="http://www.w3.org/2000/svg" viewBox="0 0 223.88 224.07"><defs><style>.cls-1{fill:#fff;}</style></defs><title>Creative_white</title><g id="Layer_2" data-name="Layer 2"><g id="Layer_1-2" data-name="Layer 1"><path class="cls-1" d="M15.21,210.05a69.69,69.69,0,0,0-9-7.62L1.36,220.52c-.67,2.54.83,4.06,3.38,3.39l18.09-4.86A70.79,70.79,0,0,0,15.21,210.05Z"/><path class="cls-1" d="M135.28,90c8,8,13.21,16.72,14.24,22.91l13.27-13.27c4.63-4.63.06-16.69-10.21-27s-22.33-14.83-26.95-10.2L112.36,75.75C118.57,76.77,127.28,82,135.28,90Z"/><path class="cls-1" d="M21.35,203.91a67.86,67.86,0,0,1,9.6,11.94l21.33-5.72c-1-6.21-6.15-14.93-14.2-23s-16.76-13.21-23-14.18L9.41,194.32A67.18,67.18,0,0,1,21.35,203.91Z"/><path class="cls-1" d="M43.49,181.76c7.19,7.2,12.5,15.15,15,22.2l85.62-85.63c-1-6.2-6.18-14.91-14.21-22.94s-16.73-13.21-22.94-14.21L21.32,166.79C28.35,169.28,36.3,174.58,43.49,181.76Z"/><path class="cls-1" d="M32.68,140,0,172.7V2.81c0-3,1.73-3.7,3.84-1.58L30.67,28.06l-7.06,7a5.45,5.45,0,0,0,7.7,7.7l7.06-7.06,7.7,7.7,5.39,5.39,7.71,7.7L52.1,63.61a5.45,5.45,0,0,0,7.7,7.7l7.06-7.06L74.56,72,80,77.35l7.69,7.71L64.33,108.37,32.68,76.71Zm190,80-25.45-25.44-7.06,7.06a5.45,5.45,0,0,1-7.7-7.7l7.06-7.06-7.71-7.7-5.39-5.39-7.71-7.7-7.06,7.06a5.44,5.44,0,0,1-7.7-7.7l7.06-7.06-7.69-7.7-5.4-5.4-7.71-7.71-23.32,23.32,31.21,31.21H85.69l-31.8,31.79H221.06C224.06,223.93,224.78,222.19,222.67,220.06Z"/></g></g></svg>