<svg xmlns="http://www.w3.org/2000/svg" viewBox="0 0 48.33 48.33"><defs><style>.cls-1{fill:#00a7e1;}.cls-2{fill:none;stroke:#00a7e1;stroke-miterlimit:10;stroke-width:2px;}</style></defs><title>Email_blue_circle</title><g id="Layer_2" data-name="Layer 2"><g id="labels"><path class="cls-1" d="M9.88,16.21a3.5,3.5,0,0,0-.14,1v14a3.5,3.5,0,0,0,.69,2.08l9.34-9.34Z"/><path class="cls-1" d="M38.59,17.19a3.51,3.51,0,0,0-.14-1l-9.89,7.67,9.34,9.34a3.5,3.5,0,0,0,.69-2.08Z"/><path class="cls-1" d="M27.72,24.54l-.45.35a5.26,5.26,0,0,1-6.2,0l-.45-.35L11.17,34a3.5,3.5,0,0,0,2.08.69H35.08A3.5,3.5,0,0,0,37.16,34Z"/><path class="cls-1" d="M21.71,24.06a4.22,4.22,0,0,0,4.91,0L38,15.23a3.51,3.51,0,0,0-2.92-1.56H13.26a3.51,3.51,0,0,0-2.92,1.56Z"/><circle class="cls-2" cx="24.17" cy="24.17" r="23.17"/></g></g></svg>