<svg xmlns="http://www.w3.org/2000/svg" viewBox="0 0 48.33 48.33"><defs><style>.cls-1{fill:#fff;}</style></defs><title>Email_white_circle</title><g id="Layer_2" data-name="Layer 2"><g id="labels"><path class="cls-1" d="M9.88,16.21a3.5,3.5,0,0,0-.14,1v14a3.5,3.5,0,0,0,.69,2.08l9.34-9.34Z"/><path class="cls-1" d="M38.59,17.19a3.51,3.51,0,0,0-.14-1l-9.89,7.67,9.34,9.34a3.5,3.5,0,0,0,.69-2.08Z"/><path class="cls-1" d="M27.72,24.54l-.45.35a5.26,5.26,0,0,1-6.2,0l-.45-.35L11.17,34a3.5,3.5,0,0,0,2.08.69H35.08A3.5,3.5,0,0,0,37.16,34Z"/><path class="cls-1" d="M21.71,24.06a4.22,4.22,0,0,0,4.91,0L38,15.23a3.51,3.51,0,0,0-2.92-1.56H13.26a3.51,3.51,0,0,0-2.92,1.56Z"/><path class="cls-1" d="M24.17,48.33A24.17,24.17,0,1,1,48.33,24.17,24.19,24.19,0,0,1,24.17,48.33ZM24.17,2A22.17,22.17,0,1,0,46.33,24.17,22.19,22.19,0,0,0,24.17,2Z"/></g></g></svg>