<svg xmlns="http://www.w3.org/2000/svg" viewBox="0 0 33.89 24.66"><defs><style>.cls-1{fill:#fff;}</style></defs><title>Email_white</title><g id="Layer_2" data-name="Layer 2"><g id="labels"><path class="cls-1" d="M.16,3A4.11,4.11,0,0,0,0,4.13v16.4A4.11,4.11,0,0,0,.81,23l11-11Z"/><path class="cls-1" d="M33.89,4.13A4.12,4.12,0,0,0,33.73,3L22.11,12l11,11a4.11,4.11,0,0,0,.81-2.45Z"/><path class="cls-1" d="M21.12,12.77l-.53.41a6.18,6.18,0,0,1-7.29,0l-.53-.41L1.68,23.85a4.11,4.11,0,0,0,2.45.81H29.76a4.11,4.11,0,0,0,2.45-.81Z"/><path class="cls-1" d="M14.06,12.2a5,5,0,0,0,5.77,0L33.2,1.83A4.13,4.13,0,0,0,29.76,0H4.13A4.13,4.13,0,0,0,.7,1.83Z"/></g></g></svg>