<svg xmlns="http://www.w3.org/2000/svg" viewBox="0 0 51.64 44.75"><defs><style>.cls-1{fill:#00a7e1;}</style></defs><title>Empowering_blue</title><g id="Layer_2" data-name="Layer 2"><g id="labels"><path class="cls-1" d="M23.66,19a1,1,0,0,0,.88.89h.15a1,1,0,0,0,.89-1l-.2-2.65.67-.71.32,4.3a1.73,1.73,0,0,0,.78,1.32l.22,2.49-1.72,3.11a1.06,1.06,0,0,0,.41,1.44,1,1,0,0,0,.42.13,1.06,1.06,0,0,0,1-.54l1.88-3.4a1.05,1.05,0,0,0,.13-.6l-.24-2.8h0l2.16.67,1.58,3a1.06,1.06,0,0,0,1.87-1L33.1,20.18a1.06,1.06,0,0,0-.62-.51l-2.71-.84-.36-4.75,3.19.07,1.17-.78V14a.68.68,0,1,0,1.36,0V12.45l.38-.26.06,0a1,1,0,0,0-.45-1.7v-5h5.58L39.27,3.3l1.45-2H35.13V.68a.68.68,0,1,0-1.36,0V11L32,12.21l-2.83-.06a1.74,1.74,0,0,0-.7-.89,2.11,2.11,0,1,0-2,.08,1.73,1.73,0,0,0-.69,1.51v0l-2.46,2.59Z"/><polygon class="cls-1" points="47.7 19.5 50.27 21.42 51.64 9.6 40.72 14.32 43.33 16.26 34.04 28.34 22.49 30.09 1.22 39.81 3.48 44.75 24.06 35.35 37.02 33.4 47.7 19.5"/><path class="cls-1" d="M11,25.81a.75.75,0,0,0,.71.67h.12a.75.75,0,0,0,.67-.82l-.22-2.06.51-.57.35,3.35a1.35,1.35,0,0,0,.64,1L14,29.32l-1.27,2.47a.83.83,0,0,0,1.47.76l1.39-2.7a.83.83,0,0,0,.08-.48l-.26-2.18h0l1.71.47,1.3,2.27a.83.83,0,1,0,1.43-.82l-1.47-2.57a.82.82,0,0,0-.5-.39l-2.14-.6-.39-3.7,2.5,0,2.23-1.6,0,0A.75.75,0,0,0,19.26,19l-1.84,1.32-2.21,0a1.36,1.36,0,0,0-.57-.68,1.65,1.65,0,1,0-1.53.11,1.35,1.35,0,0,0-.5,1.2v0l-1.86,2.08Z"/><path class="cls-1" d="M1.78,30.51l-.22-2.06.51-.57.35,3.35a1.35,1.35,0,0,0,.64,1l.23,1.94L2,36.65a.83.83,0,0,0,.36,1.11.82.82,0,0,0,.33.09.83.83,0,0,0,.78-.45l1.39-2.7A.83.83,0,0,0,5,34.23l-.26-2.18h0l1.71.48,1.3,2.27A.83.83,0,0,0,9.16,34L7.69,31.4A.82.82,0,0,0,7.2,31l-2.14-.6-.39-3.7,2.5,0,2.23-1.6,0,0a.75.75,0,0,0-.92-1.18L6.68,25.19l-2.21,0a1.35,1.35,0,0,0-.57-.68,1.65,1.65,0,1,0-1.53.11,1.35,1.35,0,0,0-.5,1.2v0L0,27.94l.29,2.73a.75.75,0,0,0,.71.67h.12A.75.75,0,0,0,1.78,30.51Z"/></g></g></svg>