<svg xmlns="http://www.w3.org/2000/svg" viewBox="0 0 50.14 33.64"><defs><style>.cls-1{fill:#00a7e1;}</style></defs><title>Personal_blue</title><g id="Layer_2" data-name="Layer 2"><g id="labels"><path class="cls-1" d="M48.24,19.61l0-.05,0,0c.6-.68,1.23-1.39,1.82-2a.16.16,0,0,0,0-.05A4.35,4.35,0,0,0,49.2,16a1.45,1.45,0,0,0-1.75.14l-1.15.8-.13.09c-1.12.78-2.27,1.58-3.41,2.33a2.38,2.38,0,0,1-.46.24l-.14.09a11.49,11.49,0,0,1-1,.55c-.49.24-1,.45-1.46.64a11.9,11.9,0,0,1-1.72.56,2,2,0,0,1-.52.05,1.64,1.64,0,0,0-.35,0c-.15,0-.68,0-1.24.06a4.6,4.6,0,0,1,.46.81,2.37,2.37,0,0,1,.17.82,2.53,2.53,0,0,1,0,.41v.16l0,.22a3.14,3.14,0,0,1-.76,1.45,4.12,4.12,0,0,1-2.8,1,20.68,20.68,0,0,1-2.57-.07h-.08a32.31,32.31,0,0,0-4.47-.14,9.89,9.89,0,0,0-2.95.6.82.82,0,0,1-.3.06.84.84,0,0,1-.3-1.62,11.56,11.56,0,0,1,3.44-.71,33.1,33.1,0,0,1,4.7.14h.07a19.41,19.41,0,0,0,2.36.07,2.54,2.54,0,0,0,1.69-.52,1.49,1.49,0,0,0,.33-.66l0-.25a1,1,0,0,0,0-.12.7.7,0,0,0-.05-.24,7.25,7.25,0,0,0-1.14-1.54h0C32,20.5,28.39,20.16,27.19,20l-.44,0a8.62,8.62,0,0,1-1.92-.94,19.48,19.48,0,0,0-5.63-2.41,7.6,7.6,0,0,0-1.58-.15,21.71,21.71,0,0,0-5.45,1,9.2,9.2,0,0,1-1.78.39h-.08c-.46,0-.46,0-.54-.12a2.18,2.18,0,0,0-.49-.17c-1.92-.55-3.89-1.14-6-1.79h0C1,17-.85,24.67.4,27.38h0c.32.08,1.17.21,2,.34S4.06,28,4.38,28c.54.13,1.1.25,1.64.36s1.31.27,2,.44,1.13.31,1.64.46c.76.23,1.51.45,2.26.61a7.51,7.51,0,0,0,1.33.11,8.35,8.35,0,0,1,1.23.08c2.11.36,4.17.79,5.9,1.15,1,.21,2,.43,3,.65l.08,0c.56.13,2,.49,3.36.84,1.55.39,3.31.84,3.48.86h.12a3.13,3.13,0,0,0,1.54-.94c.2-.17.39-.34.57-.48s.56-.43.83-.66a12.16,12.16,0,0,1,2.15-1.5l.22-.14.21-.13.56-.42,2-1.12a14.31,14.31,0,0,1,2.06-1.18,3.75,3.75,0,0,0,1.15-1c.18-.21.36-.41.55-.59l.5-.48c.58-.56,1.17-1.12,1.75-1.65.28-.26.59-.51.83-.71s.71-.58,1-.9C46.9,21.12,47.58,20.35,48.24,19.61Z"/><path class="cls-1" d="M24.17,10.78a15.55,15.55,0,0,0,1.58,1.62c.73.66,1.51,1.28,2.29,1.89.33.26.69.49,1.05.73s1.25.88,1.49,1c.42.28.85.54,1.28.81a.6.6,0,0,0,.26.1h.06a.6.6,0,0,0,.26-.1c.43-.27.86-.53,1.28-.81.24-.16,1.22-.86,1.49-1s.72-.47,1-.73c.77-.62,1.55-1.24,2.29-1.89a15.47,15.47,0,0,0,1.58-1.62,13.27,13.27,0,0,0,1.58-2.27,6.57,6.57,0,0,0,.81-3.39,4.74,4.74,0,0,0-.69-2.38,5.49,5.49,0,0,0-.65-1A5.08,5.08,0,0,0,37.9,0,6.93,6.93,0,0,0,34.68.4a6.84,6.84,0,0,0-2.29,1.68c-.11.11-.17.16-.22.16h-.06c-.06,0-.11-.05-.22-.16A6.84,6.84,0,0,0,29.59.4,6.93,6.93,0,0,0,26.37,0a5.07,5.07,0,0,0-3.25,1.75,5.44,5.44,0,0,0-.65,1,4.72,4.72,0,0,0-.69,2.38,6.56,6.56,0,0,0,.81,3.39A13.27,13.27,0,0,0,24.17,10.78Z"/></g></g></svg>