<svg xmlns="http://www.w3.org/2000/svg" viewBox="0 0 79.68 68.1"><defs><style>.cls-1{fill:#00a7e1;}</style></defs><title>quantifiable</title><g id="Layer_2" data-name="Layer 2"><g id="labels"><path class="cls-1" d="M19.81,42.91a6.73,6.73,0,0,0-2-.33,6.87,6.87,0,1,0,6.1,3.85l3.41-4,5.62,6.67a2.7,2.7,0,0,0,2,1h0a2.7,2.7,0,0,0,2-.93l15.56-18L66.16,39.4a6.68,6.68,0,0,0-.09.92A6.84,6.84,0,1,0,69,34.78L56.21,27,66.66,15a6.79,6.79,0,1,0,2-13.27,6.76,6.76,0,0,0-6.11,9.74l-11,12.76-3-1.82a6.69,6.69,0,0,0,.09-.92,6.8,6.8,0,1,0-13.61,0,6.73,6.73,0,0,0,.7,3l-8.35,9.71L23.88,30a7,7,0,1,0-4.13,3.48l4,4.8Zm20-15A6.54,6.54,0,0,0,45.74,27l2.2,1.34L35,43.23,30.89,38.3Z"/><path class="cls-1" d="M74.76,60.77H7.33V3.66A3.66,3.66,0,0,0,0,3.66V64.44A3.66,3.66,0,0,0,3.66,68.1h71.1a3.66,3.66,0,1,0,0-7.33Z"/></g></g></svg>