<svg xmlns="http://www.w3.org/2000/svg" viewBox="0 0 48.33 48.33"><defs><style>.cls-1{fill:#00a7e1;}.cls-2{fill:none;stroke:#00a7e1;stroke-miterlimit:10;stroke-width:2px;}</style></defs><title>SEO_blue_circle</title><g id="Layer_2" data-name="Layer 2"><g id="labels"><path class="cls-1" d="M31.45,18.25a4.78,4.78,0,0,1,1.93.51V16.38a2,2,0,0,0-2-2H12.82a2,2,0,0,0-2,2V29.6h1.93V16.32H31.45Z"/><path class="cls-1" d="M36.06,30.16H8.15a.28.28,0,0,0-.28.28v1.6a1.94,1.94,0,0,0,2,1.89H34.36a1.94,1.94,0,0,0,2-1.89v-1.6A.28.28,0,0,0,36.06,30.16ZM13.49,32.78a.73.73,0,1,1,.73-.73A.73.73,0,0,1,13.49,32.78Zm2.07,0a.73.73,0,1,1,.73-.73A.73.73,0,0,1,15.56,32.78Zm2.07,0a.73.73,0,1,1,.73-.73A.73.73,0,0,1,17.63,32.78Z"/><path class="cls-1" d="M41.91,27.76l-5.44-2.09a5.5,5.5,0,1,0-.74,1.7l5.44,2.09a.93.93,0,0,0,.74-1.7ZM27.23,25.89a4.2,4.2,0,1,1,5.44,2.38A4.2,4.2,0,0,1,27.23,25.89Z"/><circle class="cls-2" cx="24.17" cy="24.17" r="23.17"/></g></g></svg>