<svg xmlns="http://www.w3.org/2000/svg" viewBox="0 0 43.49 24.57"><defs><style>.cls-1{fill:#fff;}</style></defs><title>SEO_white</title><g id="Layer_2" data-name="Layer 2"><g id="labels"><path class="cls-1" d="M29.65,4.85a6,6,0,0,1,2.42.64v-3A2.49,2.49,0,0,0,29.57,0H6.22A2.49,2.49,0,0,0,3.73,2.49V19.11H6.15V2.42h23.5Z"/><path class="cls-1" d="M35.44,19.82H.36a.36.36,0,0,0-.36.36v2a2.44,2.44,0,0,0,2.49,2.37H33.3a2.44,2.44,0,0,0,2.49-2.37v-2A.36.36,0,0,0,35.44,19.82ZM7.07,23.12A.92.92,0,1,1,8,22.19.92.92,0,0,1,7.07,23.12Zm2.6,0a.92.92,0,1,1,.92-.92A.92.92,0,0,1,9.67,23.12Zm2.6,0a.92.92,0,1,1,.92-.92A.92.92,0,0,1,12.27,23.12Z"/><path class="cls-1" d="M42.79,16.8l-6.84-2.62A6.91,6.91,0,1,0,35,16.32l6.84,2.62a1.17,1.17,0,0,0,.93-2.14ZM24.34,14.45a5.27,5.27,0,1,1,6.83,3A5.28,5.28,0,0,1,24.34,14.45Z"/></g></g></svg>