<svg xmlns="http://www.w3.org/2000/svg" viewBox="0 0 48.33 48.33"><defs><style>.cls-1{fill:#00a7e1;}.cls-2{fill:#08a6df;}</style></defs><title>Site Opt_blue_circle</title><g id="Layer_2" data-name="Layer 2"><g id="labels"><path class="cls-1" d="M24.17,48.33A24.17,24.17,0,1,1,48.33,24.17,24.19,24.19,0,0,1,24.17,48.33ZM24.17,2A22.17,22.17,0,1,0,46.33,24.17,22.19,22.19,0,0,0,24.17,2Z"/><path class="cls-2" d="M32.93,35.38a.52.52,0,0,1-.3-.09l-15.69-11a.52.52,0,0,1,.07-.9l3.09-1.5-5.89-8.11a.52.52,0,0,1,.75-.71L27.48,23.24a.52.52,0,0,1-.33.93H24.07l9.21,10.3a.52.52,0,0,1-.35.91Z"/></g></g></svg>