<svg version="1.1" id="Layer_1" xmlns="http://www.w3.org/2000/svg" xmlns:xlink="http://www.w3.org/1999/xlink" x="0" y="0" viewBox="0 0 2200 600" enable-background="new 0 0 2200 600" xml:space="preserve"> <path fill="#FDFDFD" d="M950 1c415.4 0 830.9 0 1246.3-0.1 4.2 0 4.8 1 4.8 4.9 -0.1 196.8-0.1 393.6 0 590.4 0 4-0.7 4.9-4.8 4.9C1780.2 601 1364.1 601 948 601c-1.9-2.3-0.8-4.8-0.3-7.2 5.5-23.7 10.5-47.5 15.9-71.2 7-30.7 13.6-61.5 20.5-92.2 9.4-41.8 18.8-83.5 28.2-125.3 0.9-3.8 1-7.5 0.1-11.3 -12.1-54.3-23.8-108.7-35.7-163 -8.6-39.4-17.2-78.8-25.9-118.1C950 8.9 948.3 5 950 1z"/> <path fill="#0099DA" d="M877 601c-290.4 0-580.9 0-871.3 0.1 -4.2 0-4.8-1-4.8-4.9C1 399.4 1 202.6 0.9 5.8c0-3.9 0.6-4.9 4.8-4.9C296.5 1 587.2 1 878 1c1.1 1.2 1.4 2.6 1.8 4.1 6.6 30.1 13.3 60.2 20 90.2 7.5 33.5 14.9 67 22.4 100.4 7.4 33 14.7 66 22 99 1 4.3 0.9 8.5-0.1 12.8 -7.4 32-14.5 64-21.7 96 -11 49.4-22.3 98.8-33.2 148.2 -3.2 14.3-6.4 28.6-9.6 42.9C879 596.8 878.7 599.2 877 601z"/> <path fill="#C3E3F2" d="M950 1c6.3 29.4 12.7 58.9 19.1 88.3 5.3 24.6 10.7 49.1 16.1 73.7 6.3 29.1 12.6 58.2 18.9 87.3 3.3 15.4 6.5 30.8 10.3 46 1.3 5.2-0.8 9.5-1.8 14.1 -7.6 34.6-15.6 69.1-23.4 103.6 -10.8 48.3-21.5 96.6-32.2 144.9 -3.1 14-6 28.1-9 42.2 -12 0-24 0-36 0 -1.7-1.9-1-4.1-0.5-6.2 6.3-26.9 11.9-54 18.1-80.9 4.9-21.4 9.6-42.9 14.3-64.4 4.7-21.3 9.7-42.6 14.4-63.9 6.1-27.8 12.5-55.6 18.5-83.4 0.5-2.4 0.3-4.6-0.3-6.9 -10.9-49.1-21.4-98.3-32.2-147.4 -9-41.2-18.1-82.3-26.9-123.5 -1.3-5.9-2.9-11.7-3.7-17.6 -0.3-1.9-1.2-3.9 0.2-5.8C926 1 938 1 950 1z"/> <path fill="#97D0EB" d="M914 1c6.3 29.3 12.6 58.5 19 87.8 3.9 17.8 7.9 35.5 11.8 53.3 6.4 29.6 12.7 59.2 19.2 88.8 4.9 22.3 9.9 44.6 14.7 66.9 1 4.4-1.3 8.5-2.2 12.6 -7.5 34.4-15.5 68.8-23.2 103.2 -7.3 32.6-14.2 65.3-21.5 97.9 -3.9 17.8-8.5 35.4-12.1 53.2 -2.5 12.1-6.2 24-7.8 36.4 -11.7 0-23.3 0-35 0 2.5-11.7 4.9-23.3 7.5-35 11.7-51.9 23.5-103.8 35.2-155.7 8-35.4 15.6-70.9 23.6-106.3 1.2-5.2-0.8-9.9-1.8-14.6 -6.2-28.5-12.8-56.9-19.2-85.4 -8-35.9-16-71.8-23.9-107.7 -6.7-30.4-13.5-60.8-20.1-91.3 -0.3-1.3-0.1-2.6-0.2-4C890 1 902 1 914 1z"/> </svg>