<svg version="1.2" xmlns="http://www.w3.org/2000/svg" xmlns:xlink="http://www.w3.org/1999/xlink" overflow="visible" preserveAspectRatio="none" viewBox="0 0 96.00000000000001 75.00000999999999" width="96.00000000000001" height="75.00000999999999"><g transform="translate(0, 0)"><g transform="translate(0.000009999999998733244, 3.885780586188048e-15) rotate(0)"><path d="M73.87826,75c-6.46957,0 -11.89565,-2.54958 -16.06957,-7.43626c-4.17391,-4.88669 -6.26087,-11.04816 -6.26087,-18.48442c0,-11.47309 3.54783,-21.45892 10.43478,-29.95751c6.88696,-8.49858 16.69565,-14.66006 28.8,-18.27195l2.50435,-0.84986l2.71304,13.59773l-1.66957,0.63739c-6.05217,2.54958 -11.06087,5.73654 -14.81739,9.56091c-3.33913,3.39943 -5.21739,6.37394 -5.42609,8.49858c0.2087,0.21246 1.46087,1.27479 5.63478,2.76204c1.46087,0.42493 2.50435,0.84986 3.33913,1.27479c3.33913,1.27479 6.05217,3.39943 7.93043,6.37394c1.87826,2.9745 2.71304,6.5864 2.71304,10.62323c0,6.37394 -1.87826,11.68555 -5.42609,15.72238c-3.75652,3.82436 -8.55652,5.94901 -14.4,5.94901zM22.33043,75c-6.46957,0 -11.68696,-2.54958 -16.06957,-7.43626c-4.17391,-4.88669 -6.26087,-11.04816 -6.26087,-18.48442c0,-11.47309 3.54783,-21.45892 10.43478,-29.95751c7.09565,-8.71105 16.90435,-14.87252 29.0087,-18.48442l2.29565,-0.63739l2.92174,13.59773l-1.66957,0.63739c-6.05217,2.54958 -11.06087,5.73654 -14.81739,9.56091c-3.33913,3.39943 -5.21739,6.37394 -5.42609,8.71105c0.2087,0.21246 1.46087,1.27479 5.42609,2.54958c1.46087,0.42493 2.71304,0.84986 3.54783,1.27479c3.33913,1.27479 5.84348,3.39943 7.72174,6.37394c1.87826,2.9745 2.71304,6.5864 2.71304,10.62323c0,6.37394 -1.87826,11.68555 -5.42609,15.72238c-3.54783,3.82436 -8.34783,5.94901 -14.4,5.94901z" style="stroke-width: 0; stroke-linecap: butt; stroke-linejoin: miter; fill: rgb(0, 167, 225);" vector-effect="non-scaling-stroke"/></g><defs><path id="path-1600968230704330" d="M73.87826,75c-6.46957,0 -11.89565,-2.54958 -16.06957,-7.43626c-4.17391,-4.88669 -6.26087,-11.04816 -6.26087,-18.48442c0,-11.47309 3.54783,-21.45892 10.43478,-29.95751c6.88696,-8.49858 16.69565,-14.66006 28.8,-18.27195l2.50435,-0.84986l2.71304,13.59773l-1.66957,0.63739c-6.05217,2.54958 -11.06087,5.73654 -14.81739,9.56091c-3.33913,3.39943 -5.21739,6.37394 -5.42609,8.49858c0.2087,0.21246 1.46087,1.27479 5.63478,2.76204c1.46087,0.42493 2.50435,0.84986 3.33913,1.27479c3.33913,1.27479 6.05217,3.39943 7.93043,6.37394c1.87826,2.9745 2.71304,6.5864 2.71304,10.62323c0,6.37394 -1.87826,11.68555 -5.42609,15.72238c-3.75652,3.82436 -8.55652,5.94901 -14.4,5.94901zM22.33043,75c-6.46957,0 -11.68696,-2.54958 -16.06957,-7.43626c-4.17391,-4.88669 -6.26087,-11.04816 -6.26087,-18.48442c0,-11.47309 3.54783,-21.45892 10.43478,-29.95751c7.09565,-8.71105 16.90435,-14.87252 29.0087,-18.48442l2.29565,-0.63739l2.92174,13.59773l-1.66957,0.63739c-6.05217,2.54958 -11.06087,5.73654 -14.81739,9.56091c-3.33913,3.39943 -5.21739,6.37394 -5.42609,8.71105c0.2087,0.21246 1.46087,1.27479 5.42609,2.54958c1.46087,0.42493 2.71304,0.84986 3.54783,1.27479c3.33913,1.27479 5.84348,3.39943 7.72174,6.37394c1.87826,2.9745 2.71304,6.5864 2.71304,10.62323c0,6.37394 -1.87826,11.68555 -5.42609,15.72238c-3.54783,3.82436 -8.34783,5.94901 -14.4,5.94901z" vector-effect="non-scaling-stroke"/></defs></g></svg>