<svg version="1.2" xmlns="http://www.w3.org/2000/svg" xmlns:xlink="http://www.w3.org/1999/xlink" overflow="visible" preserveAspectRatio="none" viewBox="0 0 81.00000714904205 82.0000023197278" width="81.00000714904205" height="82.0000023197278"><g transform="translate(0, 0)"><g transform="translate(0.0000071490420518634246, 0) rotate(0)"><path d="M53.5,0c15.18783,0 27.5,12.31217 27.5,27.5c0,15.10371 -12.17615,27.36352 -27.24789,27.49887c-0.0821,6.78711 -2.68846,13.33298 -7.35616,18.33113c-5.18087,5.54766 -12.43428,8.68854 -20.02189,8.66992c-15.08454,-0.52835 -26.88498,-13.1942 -26.35702,-28.28997c0.50106,-14.32661 11.92614,-25.69306 25.98337,-26.36251c0.08212,-15.11763 12.36264,-27.34744 27.49959,-27.34744zM53.5,3.4375c-13.28935,0 -24.0625,10.77315 -24.0625,24.0625c0,0.16105 0.00158,0.32173 0.00473,0.48203c0.27874,0.35861 0.40332,0.81369 0.34596,1.26461c-0.03638,0.23387 -0.11734,0.45121 -0.23344,0.64384c1.11959,11.35217 10.1285,20.38681 21.46894,21.54615c0.24531,-0.16589 0.53691,-0.27015 0.85386,-0.28918c0.46259,-0.02778 0.89324,0.13117 1.21861,0.41173c0.13435,0.00221 0.26896,0.00332 0.40383,0.00332c13.28935,0 24.0625,-10.77315 24.0625,-24.0625c0,-13.28935 -10.77315,-24.0625 -24.0625,-24.0625zM53.68704,42.70829c-0.94278,0 -1.70706,-0.76485 -1.70706,-1.70833v-1.92361c-2.94507,-0.75857 -5.12118,-3.43399 -5.12118,-6.61805c0,-0.94349 0.76428,-1.70833 1.70706,-1.70833c0.94278,0 1.70706,0.76485 1.70706,1.70833c0,1.88697 1.52855,3.41666 3.41412,3.41666v0v0c1.88557,0 3.41412,-1.52969 3.41412,-3.41666c0,-1.88697 -1.52855,-3.41666 -3.41412,-3.41666c-3.77113,0 -6.82824,-3.05938 -6.82824,-6.83333c0,-3.18406 2.17611,-5.85947 5.12118,-6.61805v-1.92361c0,-0.94349 0.76428,-1.70833 1.70706,-1.70833c0.94278,0 1.70706,0.76485 1.70706,1.70833v1.92361c2.94507,0.75857 5.12118,3.43399 5.12118,6.61805c0,0.94349 -0.76428,1.70833 -1.70706,1.70833c-0.94278,0 -1.70706,-0.76485 -1.70706,-1.70833c0,-1.88697 -1.52855,-3.41666 -3.41412,-3.41666c-1.88557,0 -3.41412,1.52969 -3.41412,3.41666c0,1.88697 1.52855,3.41666 3.41412,3.41666c3.77113,0 6.82824,3.05938 6.82824,6.83333c0,3.18406 -2.17611,5.85947 -5.12118,6.61805v1.92361c0,0.94349 -0.76428,1.70833 -1.70706,1.70833zM4.66977,44.72564c-4.11899,9.08018 -2.176,19.765 4.87545,26.81086c7.05145,7.04586 17.73129,8.97387 26.79838,4.83785c8.49917,-3.87695 13.90908,-12.31929 13.98601,-21.55514c-12.64568,-1.4516 -22.68262,-11.48095 -24.14586,-24.12308c-9.22744,0.09255 -17.65348,5.51917 -21.51398,14.0295zM26.37407,70.0416c-5.73125,0 -10.6379,-3.53312 -12.6638,-8.54166h-2.69975c-0.94278,0 -1.70706,-0.76485 -1.70706,-1.70833c0,-0.94349 0.76428,-1.70833 1.70706,-1.70833h1.81272c-0.06973,-0.55964 -0.10566,-1.12979 -0.10566,-1.70833c0,-0.57854 0.03592,-1.14869 0.10566,-1.70833h-1.81272c-0.94278,0 -1.70706,-0.76485 -1.70706,-1.70833c0,-0.94349 0.76428,-1.70833 1.70706,-1.70833h2.69975c2.0259,-5.00854 6.93255,-8.54166 12.6638,-8.54166c0.94278,0 1.70706,0.76485 1.70706,1.70833c0,0.94349 -0.76428,1.70833 -1.70706,1.70833c-3.79112,0 -7.10117,2.06127 -8.87212,5.12499h7.16506c0.94278,0 1.70706,0.76485 1.70706,1.70833c0,0.94349 -0.76428,1.70833 -1.70706,1.70833h-8.39369c-0.09314,0.55556 -0.14162,1.12628 -0.14162,1.70833c0,0.58205 0.04848,1.15277 0.14162,1.70833h8.39369c0.94278,0 1.70706,0.76485 1.70706,1.70833c0,0.94349 -0.76428,1.70833 -1.70706,1.70833h-7.16506c1.77095,3.06373 5.081,5.12499 8.87212,5.12499c0.94278,0 1.70706,0.76485 1.70706,1.70833c0,0.94349 -0.76428,1.70833 -1.70706,1.70833zM8.07437,25.21497l-6.82824,-6.83333c-0.32317,-0.32077 -0.50495,-0.75741 -0.50495,-1.21292c0,-0.45551 0.18178,-0.89215 0.50495,-1.21292c0.66378,-0.65112 1.72611,-0.65112 2.38989,0l3.97171,3.95072c0.34865,-10.08204 8.61521,-18.14567 18.76634,-18.16404c0.93516,0.01818 1.6889,0.77248 1.70706,1.70833c0,0.94349 -0.76428,1.70833 -1.70706,1.70833c-8.28832,-0.00018 -15.05845,6.541 -15.41722,14.75923l3.91164,-3.96258c0.30977,-0.33031 0.74228,-0.51769 1.19494,-0.51769c0.45266,0 0.88517,0.18737 1.19494,0.51769c0.32317,0.32077 0.50495,0.75741 0.50495,1.21292c0,0.45551 -0.18178,0.89215 -0.50495,1.21292l-6.64183,6.64677c-0.03503,0.04797 -0.0727,0.09429 -0.11293,0.13873c-0.30841,0.34078 -0.74105,0.54278 -1.20015,0.56032c-0.46136,-0.00113 -0.90342,-0.18546 -1.22908,-0.5125zM63.9294,66.5566c-0.45273,0.00552 -0.88671,-0.18061 -1.19494,-0.5125c-0.32115,-0.31489 -0.50212,-0.74589 -0.50212,-1.19583c0,-0.44994 0.18097,-0.88094 0.50212,-1.19583l6.82824,-6.83333c0.32053,-0.32341 0.75685,-0.50532 1.21201,-0.50532c0.45517,0 0.89148,0.18191 1.21201,0.50532l6.82824,6.83333c0.32317,0.32077 0.50495,0.75741 0.50495,1.21292c0,0.45551 -0.18178,0.89215 -0.50495,1.21292c-0.66378,0.65112 -1.72611,0.65112 -2.38989,0l-3.90619,-3.9091c-0.38829,10.07284 -8.67953,18.10676 -18.83186,18.08825c-0.93516,-0.01818 -1.6889,-0.77248 -1.70706,-1.70833c0,-0.94349 0.76428,-1.70833 1.70706,-1.70833c8.29191,0.00018 15.06431,-6.54666 15.41769,-14.76991l-3.94624,3.97326c-0.31619,0.34091 -0.76456,0.52786 -1.22908,0.5125z" style="stroke-width: 0; stroke-linecap: butt; stroke-linejoin: miter; fill: rgb(0, 48, 88);" vector-effect="non-scaling-stroke"/></g><defs><path id="path-16008687788973594" d="M53.5,0c15.18783,0 27.5,12.31217 27.5,27.5c0,15.10371 -12.17615,27.36352 -27.24789,27.49887c-0.0821,6.78711 -2.68846,13.33298 -7.35616,18.33113c-5.18087,5.54766 -12.43428,8.68854 -20.02189,8.66992c-15.08454,-0.52835 -26.88498,-13.1942 -26.35702,-28.28997c0.50106,-14.32661 11.92614,-25.69306 25.98337,-26.36251c0.08212,-15.11763 12.36264,-27.34744 27.49959,-27.34744zM53.5,3.4375c-13.28935,0 -24.0625,10.77315 -24.0625,24.0625c0,0.16105 0.00158,0.32173 0.00473,0.48203c0.27874,0.35861 0.40332,0.81369 0.34596,1.26461c-0.03638,0.23387 -0.11734,0.45121 -0.23344,0.64384c1.11959,11.35217 10.1285,20.38681 21.46894,21.54615c0.24531,-0.16589 0.53691,-0.27015 0.85386,-0.28918c0.46259,-0.02778 0.89324,0.13117 1.21861,0.41173c0.13435,0.00221 0.26896,0.00332 0.40383,0.00332c13.28935,0 24.0625,-10.77315 24.0625,-24.0625c0,-13.28935 -10.77315,-24.0625 -24.0625,-24.0625zM53.68704,42.70829c-0.94278,0 -1.70706,-0.76485 -1.70706,-1.70833v-1.92361c-2.94507,-0.75857 -5.12118,-3.43399 -5.12118,-6.61805c0,-0.94349 0.76428,-1.70833 1.70706,-1.70833c0.94278,0 1.70706,0.76485 1.70706,1.70833c0,1.88697 1.52855,3.41666 3.41412,3.41666v0v0c1.88557,0 3.41412,-1.52969 3.41412,-3.41666c0,-1.88697 -1.52855,-3.41666 -3.41412,-3.41666c-3.77113,0 -6.82824,-3.05938 -6.82824,-6.83333c0,-3.18406 2.17611,-5.85947 5.12118,-6.61805v-1.92361c0,-0.94349 0.76428,-1.70833 1.70706,-1.70833c0.94278,0 1.70706,0.76485 1.70706,1.70833v1.92361c2.94507,0.75857 5.12118,3.43399 5.12118,6.61805c0,0.94349 -0.76428,1.70833 -1.70706,1.70833c-0.94278,0 -1.70706,-0.76485 -1.70706,-1.70833c0,-1.88697 -1.52855,-3.41666 -3.41412,-3.41666c-1.88557,0 -3.41412,1.52969 -3.41412,3.41666c0,1.88697 1.52855,3.41666 3.41412,3.41666c3.77113,0 6.82824,3.05938 6.82824,6.83333c0,3.18406 -2.17611,5.85947 -5.12118,6.61805v1.92361c0,0.94349 -0.76428,1.70833 -1.70706,1.70833zM4.66977,44.72564c-4.11899,9.08018 -2.176,19.765 4.87545,26.81086c7.05145,7.04586 17.73129,8.97387 26.79838,4.83785c8.49917,-3.87695 13.90908,-12.31929 13.98601,-21.55514c-12.64568,-1.4516 -22.68262,-11.48095 -24.14586,-24.12308c-9.22744,0.09255 -17.65348,5.51917 -21.51398,14.0295zM26.37407,70.0416c-5.73125,0 -10.6379,-3.53312 -12.6638,-8.54166h-2.69975c-0.94278,0 -1.70706,-0.76485 -1.70706,-1.70833c0,-0.94349 0.76428,-1.70833 1.70706,-1.70833h1.81272c-0.06973,-0.55964 -0.10566,-1.12979 -0.10566,-1.70833c0,-0.57854 0.03592,-1.14869 0.10566,-1.70833h-1.81272c-0.94278,0 -1.70706,-0.76485 -1.70706,-1.70833c0,-0.94349 0.76428,-1.70833 1.70706,-1.70833h2.69975c2.0259,-5.00854 6.93255,-8.54166 12.6638,-8.54166c0.94278,0 1.70706,0.76485 1.70706,1.70833c0,0.94349 -0.76428,1.70833 -1.70706,1.70833c-3.79112,0 -7.10117,2.06127 -8.87212,5.12499h7.16506c0.94278,0 1.70706,0.76485 1.70706,1.70833c0,0.94349 -0.76428,1.70833 -1.70706,1.70833h-8.39369c-0.09314,0.55556 -0.14162,1.12628 -0.14162,1.70833c0,0.58205 0.04848,1.15277 0.14162,1.70833h8.39369c0.94278,0 1.70706,0.76485 1.70706,1.70833c0,0.94349 -0.76428,1.70833 -1.70706,1.70833h-7.16506c1.77095,3.06373 5.081,5.12499 8.87212,5.12499c0.94278,0 1.70706,0.76485 1.70706,1.70833c0,0.94349 -0.76428,1.70833 -1.70706,1.70833zM8.07437,25.21497l-6.82824,-6.83333c-0.32317,-0.32077 -0.50495,-0.75741 -0.50495,-1.21292c0,-0.45551 0.18178,-0.89215 0.50495,-1.21292c0.66378,-0.65112 1.72611,-0.65112 2.38989,0l3.97171,3.95072c0.34865,-10.08204 8.61521,-18.14567 18.76634,-18.16404c0.93516,0.01818 1.6889,0.77248 1.70706,1.70833c0,0.94349 -0.76428,1.70833 -1.70706,1.70833c-8.28832,-0.00018 -15.05845,6.541 -15.41722,14.75923l3.91164,-3.96258c0.30977,-0.33031 0.74228,-0.51769 1.19494,-0.51769c0.45266,0 0.88517,0.18737 1.19494,0.51769c0.32317,0.32077 0.50495,0.75741 0.50495,1.21292c0,0.45551 -0.18178,0.89215 -0.50495,1.21292l-6.64183,6.64677c-0.03503,0.04797 -0.0727,0.09429 -0.11293,0.13873c-0.30841,0.34078 -0.74105,0.54278 -1.20015,0.56032c-0.46136,-0.00113 -0.90342,-0.18546 -1.22908,-0.5125zM63.9294,66.5566c-0.45273,0.00552 -0.88671,-0.18061 -1.19494,-0.5125c-0.32115,-0.31489 -0.50212,-0.74589 -0.50212,-1.19583c0,-0.44994 0.18097,-0.88094 0.50212,-1.19583l6.82824,-6.83333c0.32053,-0.32341 0.75685,-0.50532 1.21201,-0.50532c0.45517,0 0.89148,0.18191 1.21201,0.50532l6.82824,6.83333c0.32317,0.32077 0.50495,0.75741 0.50495,1.21292c0,0.45551 -0.18178,0.89215 -0.50495,1.21292c-0.66378,0.65112 -1.72611,0.65112 -2.38989,0l-3.90619,-3.9091c-0.38829,10.07284 -8.67953,18.10676 -18.83186,18.08825c-0.93516,-0.01818 -1.6889,-0.77248 -1.70706,-1.70833c0,-0.94349 0.76428,-1.70833 1.70706,-1.70833c8.29191,0.00018 15.06431,-6.54666 15.41769,-14.76991l-3.94624,3.97326c-0.31619,0.34091 -0.76456,0.52786 -1.22908,0.5125z" vector-effect="non-scaling-stroke"/></defs></g></svg>