<svg version="1.2" xmlns="http://www.w3.org/2000/svg" xmlns:xlink="http://www.w3.org/1999/xlink" overflow="visible" preserveAspectRatio="none" viewBox="0 0 367.6099853515625 130.66000366210938" id="Layer_1_1598903328380" width="232" height="81"><g transform="translate(1, 1)"><defs><style>.cls-1_1598903328380{fill:none;}.cls-2_1598903328380{fill:#003058;}.cls-3_1598903328380{fill:#00a7e1;}</style></defs><rect height="128.66" width="365.61" class="cls-1_1598903328380" vector-effect="non-scaling-stroke"/><path transform="translate(-213.2 -241.67)" d="M261.42,319.28H268a19,19,0,0,0,7.53-1.52,19.39,19.39,0,0,0,10.35-10.34,19.41,19.41,0,0,0,0-15.07A19.39,19.39,0,0,0,275.49,282a19,19,0,0,0-7.53-1.52H252v38.8h5.49V286H268a13.78,13.78,0,0,1,5.32,1.06,13.56,13.56,0,0,1,7.53,7.53,14,14,0,0,1,0,10.68,13.63,13.63,0,0,1-7.53,7.5,13.76,13.76,0,0,1-5.32,1.06h-4.54Zm30.76,0h5.49V292h-5.49Zm0-33.31h5.49v-5.49h-5.49Zm14.54,43.12a23.21,23.21,0,0,0,10.19,2.44c6.4,0,13.94-3.62,13.94-14V292h-5.49v3l-1.13-.86a15.57,15.57,0,0,0-3.85-2.11,13.94,13.94,0,0,0-5-.84,13.13,13.13,0,0,0-5.43,1.12,12.71,12.71,0,0,0-4.25,3.08,14.32,14.32,0,0,0-2.76,4.6,16.08,16.08,0,0,0-1,5.67,14,14,0,0,0,1.15,5.64,15,15,0,0,0,3.13,4.61,14.55,14.55,0,0,0,4.6,3.1,14.14,14.14,0,0,0,5.58,1.12h.12a14.44,14.44,0,0,0,4.65-.74l-1.9-5.19a10.28,10.28,0,0,1-2.87.44,8.94,8.94,0,0,1-6.34-2.61,8.7,8.7,0,0,1-2.63-6.37,8.94,8.94,0,0,1,9-9,8.69,8.69,0,0,1,6.35,2.62,9,9,0,0,1,2.62,6.35v11.54c0,7.9-5.91,9-9.15,9a20.58,20.58,0,0,1-7.64-2.06Zm30-9.81h5.49V292h-5.49Zm0-33.31h5.49v-5.49h-5.49Zm11.36-1.33V310.5a8.48,8.48,0,0,0,.69,3.4,9.23,9.23,0,0,0,1.87,2.81,8.63,8.63,0,0,0,2.76,1.89,8.48,8.48,0,0,0,3.4.69h5.33l-2-5.49h-3.32a3.12,3.12,0,0,1-2.28-1,3.19,3.19,0,0,1-1-2.33V297.45h7.76l-2-5.49h-5.76v-7.32Zm29.14,6.52a13.66,13.66,0,0,0-5.55,1.12,13.49,13.49,0,0,0-4.4,3.08,14.33,14.33,0,0,0-2.9,4.6,15.29,15.29,0,0,0-1,5.66,15.14,15.14,0,0,0,1,5.6,14.33,14.33,0,0,0,2.9,4.6,13.47,13.47,0,0,0,4.4,3.08,13.67,13.67,0,0,0,5.55,1.12,13.36,13.36,0,0,0,5.25-1l-1.81-4.95a10.24,10.24,0,0,1-2.87.43,9.31,9.31,0,0,1-3.45-.65,8.17,8.17,0,0,1-2.92-2,9,9,0,0,1,0-12.64,9,9,0,0,1,6.35-2.62,8.94,8.94,0,0,1,9,9v13.66h5.49V291.9h-5.49v3l-1.14-.9A14.42,14.42,0,0,0,382,292,12.9,12.9,0,0,0,377.26,291.16Zm21.24,28.12H404v-38.8H398.5Z" class="cls-2_1598903328380" vector-effect="non-scaling-stroke"/><path transform="translate(-213.2 -241.67)" d="M441.83,319.28h6.55l-8-12.34.72-.34a13.36,13.36,0,0,0,3.19-2.1,13.67,13.67,0,0,0,2.46-2.87,14.07,14.07,0,0,0,1.59-3.47,13.59,13.59,0,0,0,.57-4,13.14,13.14,0,0,0-1.09-5.32,14,14,0,0,0-7.31-7.31,13.14,13.14,0,0,0-5.32-1.09H420.9v38.8h5.49V286h8.86a8,8,0,0,1,5.84,2.44,8.18,8.18,0,0,1,1.76,8.92A8.81,8.81,0,0,1,441.1,300a8,8,0,0,1-5.85,2.46H432L430,308h4.51Zm12,0h5.49V292h-5.49Zm0-33.31h5.49v-5.49h-5.49Zm20,33.31h7.58L491.26,292h-5.85l-7.88,21.53L469.65,292H463.8Zm24.77-10.91h22.79a14,14,0,0,0,.26-2.75,14.28,14.28,0,0,0-1.12-5.64,14.43,14.43,0,0,0-7.7-7.7,14.74,14.74,0,0,0-11.28,0,14.43,14.43,0,0,0-7.7,7.7,14.27,14.27,0,0,0-1.12,5.64c0,10.07,8.13,14.35,15.74,14.22a22.14,22.14,0,0,0,8.81-2.06l-1.71-4.71a20.38,20.38,0,0,1-7.66,1.47C502.08,314.53,499.28,311.3,498.51,308.37Zm17.19-5.49H498.51l.43-1a8.52,8.52,0,0,1,1.81-2.63,9,9,0,0,1,6.35-2.62,8.69,8.69,0,0,1,6.35,2.62,8.56,8.56,0,0,1,1.81,2.63Zm16-7.2V291.9h-5.49v27.37h5.49V305.56a9,9,0,0,1,2.61-6.34,8.65,8.65,0,0,1,5.66-2.6v-5.5A10.58,10.58,0,0,0,531.73,295.67Z" class="cls-3_1598903328380" vector-effect="non-scaling-stroke"/><path transform="translate(-213.2 -241.67)" d="M544.13,293.91a4.48,4.48,0,1,1,4.47,4.47A4.47,4.47,0,0,1,544.13,293.91Zm8.37,0a3.9,3.9,0,1,0-3.91,3.89A3.9,3.9,0,0,0,552.5,293.91Zm-5.8-2.76h2.15a1.61,1.61,0,0,1,1.8,1.64,1.52,1.52,0,0,1-1.08,1.55l1.6,2.26H550l-1.49-2.17h-.68v2.17H546.7Zm2,2.49a.85.85,0,1,0,0-1.7h-.89v1.7Z" class="cls-3_1598903328380" vector-effect="non-scaling-stroke"/></g></svg>