<svg version="1.2" xmlns="http://www.w3.org/2000/svg" xmlns:xlink="http://www.w3.org/1999/xlink" overflow="visible" preserveAspectRatio="none" viewBox="0 0 86.99998999999997 84.9999947859287" width="86.99998999999997" height="84.9999947859287"><g transform="translate(0, 0)"><g transform="translate(0.000009999999996068709, -0.0000041533572182753996) rotate(0)"><path d="M38.25173,84.99999h-36.50906c-0.96245,0 -1.74268,-0.78049 -1.74268,-1.74326v-3.78288c0.00795,-2.50974 1.69835,-4.62283 4.00224,-5.26994v-1.71384c0.00937,-3.03492 2.39665,-5.49009 5.33826,-5.49007h21.33604c2.93885,0 5.32126,2.45799 5.32126,5.49007v1.7112c2.30606,0.64434 3.99662,2.76149 3.99661,5.27257v3.64342c0.03899,0.48599 -0.12725,0.96611 -0.45838,1.32386c-0.33114,0.35775 -0.79691,0.56043 -1.28429,0.55887zM3.55506,81.28684h32.79716v-1.74326c0,-0.82884 -0.57824,-1.52258 -1.35319,-1.69956c-0.23883,0.11115 -0.50191,0.16507 -0.76931,0.15367h-28.44238c-0.28517,0.01512 -0.56609,-0.04417 -0.81849,-0.16823c-0.32523,0.06253 -0.62896,0.21713 -0.87295,0.44958c-0.34591,0.32955 -0.54143,0.7867 -0.54083,1.26454zM32.44462,72.57777c0,-0.96872 -0.76115,-1.75402 -1.70008,-1.75402h-21.40404c-0.46543,-0.02404 -0.92002,0.15009 -1.25748,0.48167c-0.33746,0.33158 -0.52819,0.79155 -0.52761,1.27234v1.42223h24.88921zM36.57368,44.45195l-12.9956,-12.93563c-0.30366,-0.27623 -0.49965,-0.64764 -0.55902,-1.04868l-0.80971,-0.7705c-0.37268,-0.35976 -0.87889,-0.54752 -1.39625,-0.51789c-0.51736,0.02963 -0.99877,0.27396 -1.32787,0.67391c-0.40262,0.32834 -0.64741,0.81154 -0.67386,1.33013c-0.02645,0.51859 0.16792,1.02415 0.53505,1.39168l16.32734,16.31347c0.81427,0.66171 1.99747,0.60102 2.73964,-0.14052c0.74217,-0.74154 0.80291,-1.92374 0.14064,-2.73731l-1.11303,-1.05913c-0.32821,-0.07861 -0.63025,-0.25055 -0.86733,-0.49953zM46.49695,8.57856l12.92497,12.93563c0.26197,0.23831 0.44382,0.54746 0.52692,0.88537l1.0401,1.09118c0.37268,0.35976 0.87889,0.54752 1.39625,0.51789c0.51736,-0.02963 0.99877,-0.27396 1.32787,-0.67391c0.40262,-0.32834 0.64741,-0.81154 0.67386,-1.33013c0.02645,-0.51859 -0.16792,-1.02415 -0.53505,-1.39168l-16.24058,-16.36548c-0.37268,-0.35976 -0.87889,-0.54752 -1.39625,-0.51789c-0.51736,0.02963 -0.99877,0.27396 -1.32787,0.67391c-0.40262,0.32834 -0.64741,0.81154 -0.67386,1.33013c-0.02645,0.51859 0.16792,1.02415 0.53505,1.39168l0.95039,0.94959c0.30379,0.09143 0.58056,0.26408 0.79819,0.50372zM40.57853,42.98852l0.45671,0.45632c1.06988,1.03233 1.66248,2.46233 1.63616,3.94817c-0.02632,1.48584 -0.6692,2.89399 -1.77497,3.88785c-1.07346,1.0771 -2.52188,1.69821 -4.0428,1.73363c-1.4194,-0.00992 -2.77318,-0.59857 -3.74783,-1.62961l-16.32734,-16.33081c-1.06512,-1.03487 -1.65441,-2.46383 -1.62811,-3.94803c0.02629,-1.48419 0.66582,-2.89142 1.76692,-3.88799c0.99537,-1.10806 2.40621,-1.75387 3.8961,-1.78345c1.48989,-0.02958 2.92529,0.55974 3.96392,1.62742l0.32713,0.31129l17.37209,-17.38641l-0.22671,-0.22652c-1.11473,-1.03148 -1.74261,-2.48469 -1.7294,-4.00268c0.01321,-1.51799 0.66629,-2.96008 1.7988,-3.97203c1.00379,-1.11808 2.43007,-1.76544 3.93322,-1.7852c1.50314,-0.01976 2.94598,0.58988 3.97886,1.68118l16.32734,16.31347c1.06988,1.03233 1.66248,2.46233 1.63616,3.94817c-0.02632,1.48584 -0.6692,2.89399 -1.77497,3.88785c-1.09192,1.13177 -2.59108,1.78085 -4.16425,1.80298c-1.4117,0.00367 -2.76435,-0.56571 -3.74783,-1.5776l-0.50601,-0.50558l-7.35161,7.35768l35.82751,35.84725c0.69648,0.7137 0.69648,1.85207 0,2.56577c-0.34578,0.33089 -0.8052,0.51698 -1.28398,0.52009c-0.4817,0.0123 -0.94683,-0.17611 -1.28398,-0.52009l-35.82537,-35.8451zM27.56858,30.20862l10.31173,10.3379l8.61341,-8.62051c0.07371,-0.12076 0.16284,-0.23477 0.26737,-0.33921c0.10378,-0.1037 0.217,-0.19221 0.3369,-0.26556l8.43938,-8.44634l-10.34704,-10.37324z" style="stroke-width: 0; stroke-linecap: butt; stroke-linejoin: miter; fill: rgb(0, 48, 88);" vector-effect="non-scaling-stroke"/></g><defs><path id="path-16013145458322589" d="M38.25173,84.99999h-36.50906c-0.96245,0 -1.74268,-0.78049 -1.74268,-1.74326v-3.78288c0.00795,-2.50974 1.69835,-4.62283 4.00224,-5.26994v-1.71384c0.00937,-3.03492 2.39665,-5.49009 5.33826,-5.49007h21.33604c2.93885,0 5.32126,2.45799 5.32126,5.49007v1.7112c2.30606,0.64434 3.99662,2.76149 3.99661,5.27257v3.64342c0.03899,0.48599 -0.12725,0.96611 -0.45838,1.32386c-0.33114,0.35775 -0.79691,0.56043 -1.28429,0.55887zM3.55506,81.28684h32.79716v-1.74326c0,-0.82884 -0.57824,-1.52258 -1.35319,-1.69956c-0.23883,0.11115 -0.50191,0.16507 -0.76931,0.15367h-28.44238c-0.28517,0.01512 -0.56609,-0.04417 -0.81849,-0.16823c-0.32523,0.06253 -0.62896,0.21713 -0.87295,0.44958c-0.34591,0.32955 -0.54143,0.7867 -0.54083,1.26454zM32.44462,72.57777c0,-0.96872 -0.76115,-1.75402 -1.70008,-1.75402h-21.40404c-0.46543,-0.02404 -0.92002,0.15009 -1.25748,0.48167c-0.33746,0.33158 -0.52819,0.79155 -0.52761,1.27234v1.42223h24.88921zM36.57368,44.45195l-12.9956,-12.93563c-0.30366,-0.27623 -0.49965,-0.64764 -0.55902,-1.04868l-0.80971,-0.7705c-0.37268,-0.35976 -0.87889,-0.54752 -1.39625,-0.51789c-0.51736,0.02963 -0.99877,0.27396 -1.32787,0.67391c-0.40262,0.32834 -0.64741,0.81154 -0.67386,1.33013c-0.02645,0.51859 0.16792,1.02415 0.53505,1.39168l16.32734,16.31347c0.81427,0.66171 1.99747,0.60102 2.73964,-0.14052c0.74217,-0.74154 0.80291,-1.92374 0.14064,-2.73731l-1.11303,-1.05913c-0.32821,-0.07861 -0.63025,-0.25055 -0.86733,-0.49953zM46.49695,8.57856l12.92497,12.93563c0.26197,0.23831 0.44382,0.54746 0.52692,0.88537l1.0401,1.09118c0.37268,0.35976 0.87889,0.54752 1.39625,0.51789c0.51736,-0.02963 0.99877,-0.27396 1.32787,-0.67391c0.40262,-0.32834 0.64741,-0.81154 0.67386,-1.33013c0.02645,-0.51859 -0.16792,-1.02415 -0.53505,-1.39168l-16.24058,-16.36548c-0.37268,-0.35976 -0.87889,-0.54752 -1.39625,-0.51789c-0.51736,0.02963 -0.99877,0.27396 -1.32787,0.67391c-0.40262,0.32834 -0.64741,0.81154 -0.67386,1.33013c-0.02645,0.51859 0.16792,1.02415 0.53505,1.39168l0.95039,0.94959c0.30379,0.09143 0.58056,0.26408 0.79819,0.50372zM40.57853,42.98852l0.45671,0.45632c1.06988,1.03233 1.66248,2.46233 1.63616,3.94817c-0.02632,1.48584 -0.6692,2.89399 -1.77497,3.88785c-1.07346,1.0771 -2.52188,1.69821 -4.0428,1.73363c-1.4194,-0.00992 -2.77318,-0.59857 -3.74783,-1.62961l-16.32734,-16.33081c-1.06512,-1.03487 -1.65441,-2.46383 -1.62811,-3.94803c0.02629,-1.48419 0.66582,-2.89142 1.76692,-3.88799c0.99537,-1.10806 2.40621,-1.75387 3.8961,-1.78345c1.48989,-0.02958 2.92529,0.55974 3.96392,1.62742l0.32713,0.31129l17.37209,-17.38641l-0.22671,-0.22652c-1.11473,-1.03148 -1.74261,-2.48469 -1.7294,-4.00268c0.01321,-1.51799 0.66629,-2.96008 1.7988,-3.97203c1.00379,-1.11808 2.43007,-1.76544 3.93322,-1.7852c1.50314,-0.01976 2.94598,0.58988 3.97886,1.68118l16.32734,16.31347c1.06988,1.03233 1.66248,2.46233 1.63616,3.94817c-0.02632,1.48584 -0.6692,2.89399 -1.77497,3.88785c-1.09192,1.13177 -2.59108,1.78085 -4.16425,1.80298c-1.4117,0.00367 -2.76435,-0.56571 -3.74783,-1.5776l-0.50601,-0.50558l-7.35161,7.35768l35.82751,35.84725c0.69648,0.7137 0.69648,1.85207 0,2.56577c-0.34578,0.33089 -0.8052,0.51698 -1.28398,0.52009c-0.4817,0.0123 -0.94683,-0.17611 -1.28398,-0.52009l-35.82537,-35.8451zM27.56858,30.20862l10.31173,10.3379l8.61341,-8.62051c0.07371,-0.12076 0.16284,-0.23477 0.26737,-0.33921c0.10378,-0.1037 0.217,-0.19221 0.3369,-0.26556l8.43938,-8.44634l-10.34704,-10.37324z" vector-effect="non-scaling-stroke"/></defs></g></svg>