<svg version="1.2" xmlns="http://www.w3.org/2000/svg" xmlns:xlink="http://www.w3.org/1999/xlink" overflow="visible" preserveAspectRatio="none" viewBox="0 0 80 80" width="80" height="80"><g transform="translate(0, 0)"><g transform="translate(0, 0) rotate(0)"><path d="M40,80c-22.09139,0 -40,-17.90861 -40,-40c0,-22.09139 17.90861,-40 40,-40c22.09139,0 40,17.90861 40,40c-0.01877,22.08361 -17.91639,39.98123 -40,40zM40,3.40426c-14.84149,-0.02754 -28.23563,8.89521 -33.92795,22.60171c-5.69232,13.7065 -2.55985,29.49276 7.93469,39.9873c10.49454,10.49454 26.2808,13.62701 39.9873,7.93469c13.7065,-5.69232 22.62925,-19.08646 22.60171,-33.92795c-0.02309,-8.3078 -2.80583,-15.96591 -7.47993,-22.10604c-1.19125,3.23292 -3.65397,7.88388 -8.26475,10.1571c-0.35777,0.18017 -0.76763,0.22839 -1.15745,0.13617c-3.04626,-0.63122 -6.21839,-0.10961 -8.90213,1.46383c1.15248,1.86704 1.94353,3.93417 2.33191,6.09362c0.95742,0.13544 1.93324,-0.03116 2.79149,-0.4766c0.64199,-0.31101 1.40982,-0.1887 1.9234,0.30638c4.05106,4.05106 -1.19149,9.49787 -4.3234,12.74894c-0.5617,0.57872 -1.2766,1.32766 -1.70213,1.80426l0.42553,0.35745c1.02477,0.68895 1.70133,1.78758 1.85532,3.01277c-0.03152,1.02317 -0.48052,1.98884 -1.24255,2.67234c-1.33349,1.32928 -2.87414,2.43303 -4.5617,3.26809c-0.4766,5.68511 -4.64681,8.90213 -11.62553,8.90213c-3.25106,0 -6.65532,-8.30638 -6.65532,-10.00851c0.07157,-1.14276 0.41594,-2.25174 1.00426,-3.23404c0.31584,-0.52404 0.53492,-1.10058 0.64681,-1.70213c-0.69753,-1.43946 -1.66214,-2.73332 -2.84255,-3.81277c-0.30414,-0.31554 -0.47485,-0.73622 -0.4766,-1.17447c0.12607,-1.02182 -0.14845,-2.05277 -0.76596,-2.8766c-0.83404,-0.8 -2.82553,-0.68085 -4.93617,-0.5617c-0.85106,0 -1.70213,0.10213 -2.6383,0.10213c-5.2766,0 -6.67234,-5.46383 -6.67234,-8.34043c0,-0.52766 0.11915,-13.05532 9.68511,-14.9617c4.34043,-0.86809 7.28511,-0.61277 9.00426,0.78298c0.53168,0.41802 0.93319,0.97895 1.15745,1.61702c1.70213,1.29362 4.88511,0.5617 7.69362,-0.08511c0.91915,-0.22128 1.82128,-0.42553 2.6383,-0.54468c0.31898,-2.2583 0.31898,-4.55022 0,-6.80851c-1.78108,0.87927 -3.86998,0.87927 -5.65106,0c-1.7268,-1.04181 -2.80928,-2.88652 -2.8766,-4.90213c-0.36165,-3.86449 4.5457,-6.54973 9.07504,-8.19279c-1.33098,-0.15005 -2.68354,-0.22893 -4.05376,-0.23274zM38.29787,11.5234c-0.0073,0.9118 0.43118,1.7697 1.17447,2.29787c1.01667,0.39778 2.16244,0.28384 3.08085,-0.30638c0.89048,-0.5307 2.00922,-0.49074 2.85957,0.10213c2.1617,1.56596 1.87234,7.16596 1.24255,11.59149c-0.13486,0.83244 -0.85891,1.44064 -1.70213,1.42979c-1.15104,0.09043 -2.29091,0.28991 -3.40426,0.59574c-3.62553,0.83404 -8.15319,1.88936 -11.13191,-1.08936c-0.30414,-0.31554 -0.47485,-0.73622 -0.4766,-1.17447c-0.10213,-0.10213 -1.53191,-1.00426 -6.34894,0c-6.91064,1.37872 -6.99574,11.59149 -6.99574,11.69362c0,0.10213 0,5.00426 3.40426,5.00426c0.83404,0 1.70213,0 2.45106,-0.10213c2.7234,-0.13617 5.53191,-0.30638 7.40426,1.46383c1.18904,1.24456 1.83762,2.90885 1.80426,4.62979c1.2766,1.34468 3.40426,3.81277 3.40426,5.68511c-0.07935,1.14371 -0.42939,2.25219 -1.02128,3.23404c-0.3218,0.52286 -0.54668,1.09946 -0.66383,1.70213c0.6852,2.46036 1.90581,4.73883 3.57447,6.67234c5.37872,0 8.10213,-2.31489 8.10213,-6.67234c0.01002,-0.71478 0.46559,-1.34715 1.14043,-1.58298c1.63377,-0.6651 3.11173,-1.66201 4.34043,-2.92766c0.13191,-0.11521 0.24153,-0.25368 0.3234,-0.40851c-0.08511,0.08511 -0.4766,-0.28936 -0.71489,-0.51064c-0.97495,-0.65827 -1.60047,-1.72165 -1.70213,-2.89362c0,-1.19149 0.91915,-2.1617 2.77447,-4.08511c2.48511,-2.58723 5.02128,-5.41277 4.8,-7.18298c-1.83836,0.71829 -3.92246,0.37203 -5.42979,-0.90213c-0.20822,-0.21507 -0.36023,-0.47815 -0.44255,-0.76596c-0.40841,-1.92196 -1.12092,-3.76643 -2.11064,-5.46383c-0.56392,-0.13232 -1.04952,-0.48884 -1.34468,-0.98723c-0.32535,-0.72142 -0.18429,-1.56778 0.35745,-2.14468c3.52737,-3.03978 8.22561,-4.35004 12.81702,-3.57447c4.24884,-2.44308 6.08441,-7.73443 6.68632,-9.97612c-4.22902,-4.46641 -9.56877,-7.87036 -15.57737,-9.76995c-6.26075,1.38213 -12.87333,4.30186 -12.6749,6.41841z" style="stroke-width: 0; stroke-linecap: butt; stroke-linejoin: miter; fill: rgb(0, 48, 88);" vector-effect="non-scaling-stroke"/></g><defs><path id="path-16013146017212920" d="M40,80c-22.09139,0 -40,-17.90861 -40,-40c0,-22.09139 17.90861,-40 40,-40c22.09139,0 40,17.90861 40,40c-0.01877,22.08361 -17.91639,39.98123 -40,40zM40,3.40426c-14.84149,-0.02754 -28.23563,8.89521 -33.92795,22.60171c-5.69232,13.7065 -2.55985,29.49276 7.93469,39.9873c10.49454,10.49454 26.2808,13.62701 39.9873,7.93469c13.7065,-5.69232 22.62925,-19.08646 22.60171,-33.92795c-0.02309,-8.3078 -2.80583,-15.96591 -7.47993,-22.10604c-1.19125,3.23292 -3.65397,7.88388 -8.26475,10.1571c-0.35777,0.18017 -0.76763,0.22839 -1.15745,0.13617c-3.04626,-0.63122 -6.21839,-0.10961 -8.90213,1.46383c1.15248,1.86704 1.94353,3.93417 2.33191,6.09362c0.95742,0.13544 1.93324,-0.03116 2.79149,-0.4766c0.64199,-0.31101 1.40982,-0.1887 1.9234,0.30638c4.05106,4.05106 -1.19149,9.49787 -4.3234,12.74894c-0.5617,0.57872 -1.2766,1.32766 -1.70213,1.80426l0.42553,0.35745c1.02477,0.68895 1.70133,1.78758 1.85532,3.01277c-0.03152,1.02317 -0.48052,1.98884 -1.24255,2.67234c-1.33349,1.32928 -2.87414,2.43303 -4.5617,3.26809c-0.4766,5.68511 -4.64681,8.90213 -11.62553,8.90213c-3.25106,0 -6.65532,-8.30638 -6.65532,-10.00851c0.07157,-1.14276 0.41594,-2.25174 1.00426,-3.23404c0.31584,-0.52404 0.53492,-1.10058 0.64681,-1.70213c-0.69753,-1.43946 -1.66214,-2.73332 -2.84255,-3.81277c-0.30414,-0.31554 -0.47485,-0.73622 -0.4766,-1.17447c0.12607,-1.02182 -0.14845,-2.05277 -0.76596,-2.8766c-0.83404,-0.8 -2.82553,-0.68085 -4.93617,-0.5617c-0.85106,0 -1.70213,0.10213 -2.6383,0.10213c-5.2766,0 -6.67234,-5.46383 -6.67234,-8.34043c0,-0.52766 0.11915,-13.05532 9.68511,-14.9617c4.34043,-0.86809 7.28511,-0.61277 9.00426,0.78298c0.53168,0.41802 0.93319,0.97895 1.15745,1.61702c1.70213,1.29362 4.88511,0.5617 7.69362,-0.08511c0.91915,-0.22128 1.82128,-0.42553 2.6383,-0.54468c0.31898,-2.2583 0.31898,-4.55022 0,-6.80851c-1.78108,0.87927 -3.86998,0.87927 -5.65106,0c-1.7268,-1.04181 -2.80928,-2.88652 -2.8766,-4.90213c-0.36165,-3.86449 4.5457,-6.54973 9.07504,-8.19279c-1.33098,-0.15005 -2.68354,-0.22893 -4.05376,-0.23274zM38.29787,11.5234c-0.0073,0.9118 0.43118,1.7697 1.17447,2.29787c1.01667,0.39778 2.16244,0.28384 3.08085,-0.30638c0.89048,-0.5307 2.00922,-0.49074 2.85957,0.10213c2.1617,1.56596 1.87234,7.16596 1.24255,11.59149c-0.13486,0.83244 -0.85891,1.44064 -1.70213,1.42979c-1.15104,0.09043 -2.29091,0.28991 -3.40426,0.59574c-3.62553,0.83404 -8.15319,1.88936 -11.13191,-1.08936c-0.30414,-0.31554 -0.47485,-0.73622 -0.4766,-1.17447c-0.10213,-0.10213 -1.53191,-1.00426 -6.34894,0c-6.91064,1.37872 -6.99574,11.59149 -6.99574,11.69362c0,0.10213 0,5.00426 3.40426,5.00426c0.83404,0 1.70213,0 2.45106,-0.10213c2.7234,-0.13617 5.53191,-0.30638 7.40426,1.46383c1.18904,1.24456 1.83762,2.90885 1.80426,4.62979c1.2766,1.34468 3.40426,3.81277 3.40426,5.68511c-0.07935,1.14371 -0.42939,2.25219 -1.02128,3.23404c-0.3218,0.52286 -0.54668,1.09946 -0.66383,1.70213c0.6852,2.46036 1.90581,4.73883 3.57447,6.67234c5.37872,0 8.10213,-2.31489 8.10213,-6.67234c0.01002,-0.71478 0.46559,-1.34715 1.14043,-1.58298c1.63377,-0.6651 3.11173,-1.66201 4.34043,-2.92766c0.13191,-0.11521 0.24153,-0.25368 0.3234,-0.40851c-0.08511,0.08511 -0.4766,-0.28936 -0.71489,-0.51064c-0.97495,-0.65827 -1.60047,-1.72165 -1.70213,-2.89362c0,-1.19149 0.91915,-2.1617 2.77447,-4.08511c2.48511,-2.58723 5.02128,-5.41277 4.8,-7.18298c-1.83836,0.71829 -3.92246,0.37203 -5.42979,-0.90213c-0.20822,-0.21507 -0.36023,-0.47815 -0.44255,-0.76596c-0.40841,-1.92196 -1.12092,-3.76643 -2.11064,-5.46383c-0.56392,-0.13232 -1.04952,-0.48884 -1.34468,-0.98723c-0.32535,-0.72142 -0.18429,-1.56778 0.35745,-2.14468c3.52737,-3.03978 8.22561,-4.35004 12.81702,-3.57447c4.24884,-2.44308 6.08441,-7.73443 6.68632,-9.97612c-4.22902,-4.46641 -9.56877,-7.87036 -15.57737,-9.76995c-6.26075,1.38213 -12.87333,4.30186 -12.6749,6.41841z" vector-effect="non-scaling-stroke"/></defs></g></svg>