<?xml version="1.0" encoding="UTF-8"?> <!-- Generator: Adobe Illustrator 23.0.6, SVG Export Plug-In . SVG Version: 6.00 Build 0) --> <svg xmlns="http://www.w3.org/2000/svg" xmlns:xlink="http://www.w3.org/1999/xlink" id="Layer_1" x="0px" y="0px" viewBox="0 0 26.9 26.9" style="enable-background:new 0 0 26.9 26.9;" xml:space="preserve"> <style type="text/css"> .st0{fill:#9D9D9C;} </style> <g> <polygon class="st0" points="14.5,13.3 18.7,7.1 17,7.1 13.6,12.1 10.1,7.1 8.4,7.1 12.6,13.3 8.1,19.8 9.8,19.8 13.5,14.5 17.2,19.8 19,19.8 "></polygon> <g> <path class="st0" d="M13.5,26.9C6,26.9,0,20.9,0,13.5C0,6,6,0,13.5,0s13.5,6,13.5,13.5C26.9,20.9,20.9,26.9,13.5,26.9z M13.5,0.8 c-7,0-12.7,5.7-12.7,12.7c0,7,5.7,12.7,12.7,12.7c7,0,12.7-5.7,12.7-12.7C26.2,6.5,20.5,0.8,13.5,0.8z"></path> </g> </g> </svg> 