<?xml version="1.0" encoding="UTF-8"?>
<svg width="10px" height="10px" viewBox="0 0 10 10" version="1.1" xmlns="http://www.w3.org/2000/svg" xmlns:xlink="http://www.w3.org/1999/xlink">
    <title>icon-events</title>
    <g id="Design" stroke="none" stroke-width="1" fill="none" fill-rule="evenodd">
        <g id="Homepage-Current_Blocks-1" transform="translate(-712.000000, -3847.000000)">
            <g id="Group-8" transform="translate(-9.000000, 3224.000000)">
                <g id="Group-51" transform="translate(9.000000, 168.000000)">
                    <g id="Group-50" transform="translate(165.000000, 88.000000)">
                        <g id="Group-48" transform="translate(538.000000, 10.000000)">
                            <g id="Group-38" transform="translate(2.000000, 350.000000)">
                                <g id="-Round-/-Action-/-date_range" transform="translate(6.000000, 6.000000)">
                                    <polygon id="Path" points="0 0 12 0 12 12 0 12"></polygon>
                                    <path d="M9.5,2 L9,2 L9,1.5 C9,1.225 8.775,1 8.5,1 C8.225,1 8,1.225 8,1.5 L8,2 L4,2 L4,1.5 C4,1.225 3.775,1 3.5,1 C3.225,1 3,1.225 3,1.5 L3,2 L2.5,2 C1.945,2 1.505,2.45 1.505,3 L1.5,10 C1.5,10.55 1.945,11 2.5,11 L9.5,11 C10.05,11 10.5,10.55 10.5,10 L10.5,3 C10.5,2.45 10.05,2 9.5,2 Z M9.5,9.5 C9.5,9.775 9.275,10 9,10 L3,10 C2.725,10 2.5,9.775 2.5,9.5 L2.5,4.5 L9.5,4.5 L9.5,9.5 Z M3.5,5.5 L4.5,5.5 L4.5,6.5 L3.5,6.5 L3.5,5.5 Z M5.5,5.5 L6.5,5.5 L6.5,6.5 L5.5,6.5 L5.5,5.5 Z M7.5,5.5 L8.5,5.5 L8.5,6.5 L7.5,6.5 L7.5,5.5 Z" id="🔹Icon-Color" fill="#00A7E1" fill-rule="nonzero"></path>
                                </g>
                            </g>
                        </g>
                    </g>
                </g>
            </g>
        </g>
    </g>
</svg>