<svg version="1.2" xmlns="http://www.w3.org/2000/svg" xmlns:xlink="http://www.w3.org/1999/xlink" overflow="visible" preserveAspectRatio="none" viewBox="0 0 203.00001 38" width="203.00001" height="38"><g transform="translate(0, 0)"><g transform="translate(0, 0) rotate(0)"><path d="M91.45488,19.11482c0,7.56287 -4.69467,11.13823 -10.57073,11.13823h-3.59111v-4.53796h3.31129c3.54434,0 5.9069,-1.87903 5.9069,-6.60027c0,-4.67551 -2.23439,-7.01356 -6.01198,-7.01356c-3.63768,0 -6.23767,2.20052 -6.23767,6.92182v18.97691h-4.89688v-29.84086h4.89688v2.56726h0.69955c1.63236,-2.15435 4.04567,-3.11732 6.56406,-3.11732c5.40995,0 9.92969,3.85043 9.92969,11.50574zM59.27202,17.14342l-3.26472,-0.32092c-2.56496,-0.22914 -3.9175,-0.91671 -3.9175,-2.38357c0,-1.74181 1.7257,-2.75022 4.19732,-2.75022c2.56516,0 4.19732,1.19173 4.33723,2.88773h4.7104c-0.18648,-4.3087 -3.59091,-6.96738 -9.00086,-6.96738c-5.45652,0 -9.14097,2.842 -9.14097,7.01327c0,3.48372 2.23857,5.72971 7.32213,6.23399l3.31109,0.3208c2.00552,0.18329 3.35806,0.59583 3.35806,2.47525c0,1.69613 -1.2594,2.93356 -4.57049,2.93356c-3.04918,0 -4.55158,-1.35988 -5.07878,-3.18277h-5.0959c0.5077,4.16689 4.06915,7.39993 10.17468,7.39993c5.73634,0 9.46716,-2.97953 9.46716,-7.37978c0,-3.89636 -2.61154,-5.86734 -6.80886,-6.2799zM110.42046,23.40318c-0.76822,1.73408 -2.60377,3.04545 -5.20854,3.04545c-3.59091,0 -6.24922,-2.29196 -6.24922,-7.24246c0,-4.72134 2.47162,-7.33412 6.29579,-7.33412c3.40463,0 5.36338,2.01692 5.55006,5.04216h-8.81458v3.48401h13.61812v-2.29216c0,-6.37153 -4.29066,-10.49698 -10.40017,-10.49698c-5.68957,0 -11.14629,3.80462 -11.14629,11.59709c0,7.79232 5.45672,11.59694 11.14629,11.59694c5.20416,0 8.91508,-3.15069 10.068,-7.39993zM33.22533,7.60907c-5.36318,0 -9.37402,2.75065 -9.84033,6.96738h5.26984c0.37316,-1.55811 1.81884,-2.70405 4.57049,-2.70405c3.54454,0 4.7104,1.83381 4.7104,4.07956v7.56291c-2.00532,2.24639 -4.33723,3.30033 -6.66915,3.30033c-2.42505,0 -4.10398,-1.14588 -4.10398,-3.2082c0,-1.97155 1.30577,-3.20879 3.82416,-3.20879h3.9175v-3.48401h-4.05741c-5.59643,0 -8.72104,2.75067 -8.72104,6.96743c0,3.94193 3.03127,6.92147 8.02149,6.92147c2.79822,0 5.27004,-1.09972 7.08888,-2.42948h0.69955v1.87942h4.89688v-14.7598c0,-5.45472 -3.77759,-7.88418 -9.60727,-7.88418zM0,30.25305h4.89692v-30.25305h-4.89692zM20.56689,8.15913h-5.96949l-7.13545,9.2138v2.88777l7.32197,9.99235h6.06279l-8.58113,-11.45942zM197.59005,8.15913l-4.01084,8.75508c-0.97938,2.10887 -1.91158,4.17119 -2.1916,5.54672h-0.70015c-0.27982,-1.37553 -1.2588,-3.39227 -2.23817,-5.50054l-4.01084,-8.80126h-5.40995l9.42079,19.84793l-4.66383,9.99294h5.22347l13.99108,-29.84086zM177.94542,8.15913h-5.96959l-7.13545,9.2138v2.88777l7.32193,9.99235h6.06293l-8.58133,-11.45942zM147.28565,17.14342l-3.26452,-0.32092c-2.56516,-0.22914 -3.9175,-0.91671 -3.9175,-2.38357c0,-1.74181 1.7255,-2.75022 4.19732,-2.75022c2.56496,0 4.19732,1.19173 4.33723,2.88773h4.7102c-0.18648,-4.3087 -3.59091,-6.96738 -9.00086,-6.96738c-5.45652,0 -9.14077,2.842 -9.14077,7.01327c0,3.48372 2.23857,5.72971 7.32193,6.23399l3.31129,0.3208c2.00532,0.18329 3.35786,0.59583 3.35786,2.47525c0,1.69613 -1.2592,2.93356 -4.57049,2.93356c-3.04918,0 -4.55158,-1.35988 -5.07878,-3.18277h-5.0959c0.5077,4.16689 4.06915,7.39993 10.17468,7.39993c5.73634,0 9.46736,-2.97953 9.46736,-7.37978c0,-3.89636 -2.61173,-5.86734 -6.80906,-6.2799zM157.37834,30.25305h4.89688v-30.25305h-4.89688zM125.08701,10.72639h-0.69955v-2.56726h-4.89688v22.09392h4.89688v-11.55116c0,-3.94203 1.85327,-6.23397 5.50329,-6.23397h3.09993v-4.85884h-1.79416c-3.38672,0 -4.82603,1.25543 -6.1095,3.11732z" style="stroke-width: 0; stroke-linecap: butt; stroke-linejoin: miter; fill: rgb(0, 109, 92);" vector-effect="non-scaling-stroke"/></g><defs><path id="path-16008687788403534" d="M91.45488,19.11482c0,7.56287 -4.69467,11.13823 -10.57073,11.13823h-3.59111v-4.53796h3.31129c3.54434,0 5.9069,-1.87903 5.9069,-6.60027c0,-4.67551 -2.23439,-7.01356 -6.01198,-7.01356c-3.63768,0 -6.23767,2.20052 -6.23767,6.92182v18.97691h-4.89688v-29.84086h4.89688v2.56726h0.69955c1.63236,-2.15435 4.04567,-3.11732 6.56406,-3.11732c5.40995,0 9.92969,3.85043 9.92969,11.50574zM59.27202,17.14342l-3.26472,-0.32092c-2.56496,-0.22914 -3.9175,-0.91671 -3.9175,-2.38357c0,-1.74181 1.7257,-2.75022 4.19732,-2.75022c2.56516,0 4.19732,1.19173 4.33723,2.88773h4.7104c-0.18648,-4.3087 -3.59091,-6.96738 -9.00086,-6.96738c-5.45652,0 -9.14097,2.842 -9.14097,7.01327c0,3.48372 2.23857,5.72971 7.32213,6.23399l3.31109,0.3208c2.00552,0.18329 3.35806,0.59583 3.35806,2.47525c0,1.69613 -1.2594,2.93356 -4.57049,2.93356c-3.04918,0 -4.55158,-1.35988 -5.07878,-3.18277h-5.0959c0.5077,4.16689 4.06915,7.39993 10.17468,7.39993c5.73634,0 9.46716,-2.97953 9.46716,-7.37978c0,-3.89636 -2.61154,-5.86734 -6.80886,-6.2799zM110.42046,23.40318c-0.76822,1.73408 -2.60377,3.04545 -5.20854,3.04545c-3.59091,0 -6.24922,-2.29196 -6.24922,-7.24246c0,-4.72134 2.47162,-7.33412 6.29579,-7.33412c3.40463,0 5.36338,2.01692 5.55006,5.04216h-8.81458v3.48401h13.61812v-2.29216c0,-6.37153 -4.29066,-10.49698 -10.40017,-10.49698c-5.68957,0 -11.14629,3.80462 -11.14629,11.59709c0,7.79232 5.45672,11.59694 11.14629,11.59694c5.20416,0 8.91508,-3.15069 10.068,-7.39993zM33.22533,7.60907c-5.36318,0 -9.37402,2.75065 -9.84033,6.96738h5.26984c0.37316,-1.55811 1.81884,-2.70405 4.57049,-2.70405c3.54454,0 4.7104,1.83381 4.7104,4.07956v7.56291c-2.00532,2.24639 -4.33723,3.30033 -6.66915,3.30033c-2.42505,0 -4.10398,-1.14588 -4.10398,-3.2082c0,-1.97155 1.30577,-3.20879 3.82416,-3.20879h3.9175v-3.48401h-4.05741c-5.59643,0 -8.72104,2.75067 -8.72104,6.96743c0,3.94193 3.03127,6.92147 8.02149,6.92147c2.79822,0 5.27004,-1.09972 7.08888,-2.42948h0.69955v1.87942h4.89688v-14.7598c0,-5.45472 -3.77759,-7.88418 -9.60727,-7.88418zM0,30.25305h4.89692v-30.25305h-4.89692zM20.56689,8.15913h-5.96949l-7.13545,9.2138v2.88777l7.32197,9.99235h6.06279l-8.58113,-11.45942zM197.59005,8.15913l-4.01084,8.75508c-0.97938,2.10887 -1.91158,4.17119 -2.1916,5.54672h-0.70015c-0.27982,-1.37553 -1.2588,-3.39227 -2.23817,-5.50054l-4.01084,-8.80126h-5.40995l9.42079,19.84793l-4.66383,9.99294h5.22347l13.99108,-29.84086zM177.94542,8.15913h-5.96959l-7.13545,9.2138v2.88777l7.32193,9.99235h6.06293l-8.58133,-11.45942zM147.28565,17.14342l-3.26452,-0.32092c-2.56516,-0.22914 -3.9175,-0.91671 -3.9175,-2.38357c0,-1.74181 1.7255,-2.75022 4.19732,-2.75022c2.56496,0 4.19732,1.19173 4.33723,2.88773h4.7102c-0.18648,-4.3087 -3.59091,-6.96738 -9.00086,-6.96738c-5.45652,0 -9.14077,2.842 -9.14077,7.01327c0,3.48372 2.23857,5.72971 7.32193,6.23399l3.31129,0.3208c2.00532,0.18329 3.35786,0.59583 3.35786,2.47525c0,1.69613 -1.2592,2.93356 -4.57049,2.93356c-3.04918,0 -4.55158,-1.35988 -5.07878,-3.18277h-5.0959c0.5077,4.16689 4.06915,7.39993 10.17468,7.39993c5.73634,0 9.46736,-2.97953 9.46736,-7.37978c0,-3.89636 -2.61173,-5.86734 -6.80906,-6.2799zM157.37834,30.25305h4.89688v-30.25305h-4.89688zM125.08701,10.72639h-0.69955v-2.56726h-4.89688v22.09392h4.89688v-11.55116c0,-3.94203 1.85327,-6.23397 5.50329,-6.23397h3.09993v-4.85884h-1.79416c-3.38672,0 -4.82603,1.25543 -6.1095,3.11732z" vector-effect="non-scaling-stroke"/></defs></g></svg>