<svg version="1.2" xmlns="http://www.w3.org/2000/svg" xmlns:xlink="http://www.w3.org/1999/xlink" overflow="visible" preserveAspectRatio="none" viewBox="0 0 75 85.99999000000001" width="75" height="85.99999000000001"><g transform="translate(0, 0)"><g transform="translate(-4.440892098500626e-16, -0.000010000000000065512) rotate(0)"><path d="M37.5,65c-3.12537,0 -6.12897,-0.52137 -8.92857,-1.48188v4.49437h1.10442c0.07344,-0.00825 0.14816,-0.0125 0.22391,-0.0125h15.19809c0.07576,0 0.15047,0.00424 0.22391,0.0125h1.1068v-4.49437c-2.7996,0.96051 -5.8032,1.48188 -8.92857,1.48188zM10,37.5c0,-15.18783 12.31217,-27.5 27.5,-27.5c15.18783,0 27.5,12.31217 27.5,27.5c0,10.68671 -6.09581,19.94967 -15,24.50145v7.80084c0,0.98848 -0.79949,1.7898 -1.78571,1.7898h-1.21667v5.49881c0.02604,0.49776 -0.16256,0.98393 -0.5217,1.34483c-0.35914,0.3609 -0.85732,0.56489 -1.37807,0.56426h-5.81214v5.21021c0,0.98848 -0.79949,1.7898 -1.78571,1.7898c-0.98622,0 -1.78571,-0.80132 -1.78571,-1.7898v-5.21021h-5.81452c-1.04921,0 -1.89976,-0.81403 -1.89976,-1.81818v-5.58972h-1.21429c-0.98622,0 -1.78571,-0.80132 -1.78571,-1.7898v-7.80084c-8.90419,-4.55178 -15,-13.81474 -15,-24.50145zM37.5,13.66667c-13.16279,0 -23.83333,10.67055 -23.83333,23.83333c0,11.96965 8.82376,21.87839 20.32144,23.5764l-3.11866,-14.38691h-3.70278c-2.85347,0 -5.16667,-2.39292 -5.16667,-5.34475c0,-2.95182 2.31319,-5.34475 5.16667,-5.34475c2.82182,-0.0048 5.2692,2.01615 5.89,4.86372l0.51667,2.28043h7.87055l0.49944,-2.28043c0.6208,-2.84757 3.06818,-4.86852 5.89,-4.86372c2.85347,0 5.16667,2.39292 5.16667,5.34475c0,2.95182 -2.31319,5.34475 -5.16667,5.34475h-3.61667l-3.19888,14.38604c11.4948,-1.70052 20.31555,-11.60793 20.31555,-23.57553c0,-13.16279 -10.67055,-23.83333 -23.83333,-23.83333zM31.79952,75.36362h5.10356c0.18665,-0.06633 0.38758,-0.10244 0.59692,-0.10244c0.20934,0 0.41026,0.0361 0.59692,0.10244h5.10118v-3.72727h-11.39857zM37.5,7.15921c-0.98622,0 -1.78571,-0.80132 -1.78571,-1.7898v-3.5796c0,-0.98848 0.79949,-1.7898 1.78571,-1.7898c0.98622,0 1.78571,0.80132 1.78571,1.7898v3.5796c0,0.98848 -0.79949,1.7898 -1.78571,1.7898zM60.28571,16.60937c-0.72222,-0.00304 -1.37151,-0.44181 -1.64512,-1.11173c-0.27361,-0.66992 -0.11767,-1.43908 0.39512,-1.94883l2.51786,-2.54152c0.70022,-0.70182 1.8355,-0.70182 2.53571,0c0.70022,0.70182 0.70022,1.8397 0,2.54152l-2.53571,2.55942c-0.3399,0.32848 -0.79576,0.50867 -1.26786,0.50114zM73.21429,39.37565h-3.57143c-0.98622,0 -1.78571,-0.80132 -1.78571,-1.7898c0,-0.98848 0.79949,-1.7898 1.78571,-1.7898h3.57143c0.98622,0 1.78571,0.80132 1.78571,1.7898c0,0.98848 -0.79949,1.7898 -1.78571,1.7898zM62.82143,64.75505c-0.47465,0.00275 -0.93086,-0.18402 -1.26786,-0.51904l-2.51786,-2.54152c-0.60674,-0.71012 -0.56595,-1.76867 0.09364,-2.42977c0.65959,-0.6611 1.71572,-0.70198 2.42422,-0.09385l2.53571,2.52362c0.33806,0.33607 0.52821,0.79353 0.52821,1.27076c0,0.47723 -0.19015,0.93469 -0.52821,1.27076c-0.337,0.33503 -0.79321,0.52179 -1.26786,0.51904zM14.78571,16.60937c-0.4721,0.00752 -0.92796,-0.17266 -1.26786,-0.50114l-2.51786,-2.55942c-0.33806,-0.33607 -0.52821,-0.79353 -0.52821,-1.27076c0,-0.47723 0.19015,-0.93469 0.52821,-1.27076c0.6965,-0.69395 1.82136,-0.69395 2.51786,0l2.55357,2.54152c0.34359,0.33673 0.53728,0.79806 0.53728,1.27971c0,0.48165 -0.19368,0.94297 -0.53728,1.27971c-0.34429,0.33292 -0.80747,0.51346 -1.28571,0.50114zM5.35714,39.37565h-3.57143c-0.98622,0 -1.78571,-0.80132 -1.78571,-1.7898c0,-0.98848 0.79949,-1.7898 1.78571,-1.7898h3.57143c0.98622,0 1.78571,0.80132 1.78571,1.7898c0,0.98848 -0.79949,1.7898 -1.78571,1.7898zM12.25,64.75505c-0.72222,-0.00304 -1.37151,-0.44181 -1.64512,-1.11173c-0.27361,-0.66992 -0.11767,-1.43908 0.39512,-1.94883l2.51786,-2.52362c0.3353,-0.33883 0.79172,-0.52942 1.26786,-0.52942c0.47614,0 0.93256,0.19059 1.26786,0.52942c0.69236,0.69809 0.69236,1.82553 0,2.52362l-2.53571,2.54152c-0.337,0.33503 -0.79321,0.52179 -1.26786,0.51904zM37.50813,61.1649c0.00142,0.05665 0.00024,0.11284 -0.00342,0.16843c0.00924,0 0.01847,-0.00001 0.0277,-0.00002c-0.01062,-0.05533 -0.01875,-0.11152 -0.02428,-0.16841zM34.4,46.68949l3.09712,13.90125c0.0009,-0.00758 0.00185,0.02047 0.00288,0.01291c0.00696,0.11272 0.00696,0.22578 0,0.3385c-0.01572,-0.11654 -0.01667,-0.23467 -0.00288,-0.35141l0.00288,-0.02273l3.16889,-13.87853zM45.00888,43.12633h2.82444c0.95116,0 1.72222,-0.79764 1.72222,-1.78158c0,-0.98394 -0.77106,-1.78158 -1.72222,-1.78158c-1.21921,0.00123 -2.27617,0.87299 -2.54889,2.10227zM27.16667,39.56316c-0.95116,0 -1.72222,0.79764 -1.72222,1.78158c0,0.98394 0.77106,1.78158 1.72222,1.78158h2.85889l-0.32722,-1.47871c-0.27242,-1.21943 -1.3218,-2.08344 -2.53167,-2.08445z" style="stroke-width: 0; stroke-linecap: butt; stroke-linejoin: miter; fill: rgb(0, 48, 88);" vector-effect="non-scaling-stroke"/></g><defs><path id="path-16013146017202918" d="M37.5,65c-3.12537,0 -6.12897,-0.52137 -8.92857,-1.48188v4.49437h1.10442c0.07344,-0.00825 0.14816,-0.0125 0.22391,-0.0125h15.19809c0.07576,0 0.15047,0.00424 0.22391,0.0125h1.1068v-4.49437c-2.7996,0.96051 -5.8032,1.48188 -8.92857,1.48188zM10,37.5c0,-15.18783 12.31217,-27.5 27.5,-27.5c15.18783,0 27.5,12.31217 27.5,27.5c0,10.68671 -6.09581,19.94967 -15,24.50145v7.80084c0,0.98848 -0.79949,1.7898 -1.78571,1.7898h-1.21667v5.49881c0.02604,0.49776 -0.16256,0.98393 -0.5217,1.34483c-0.35914,0.3609 -0.85732,0.56489 -1.37807,0.56426h-5.81214v5.21021c0,0.98848 -0.79949,1.7898 -1.78571,1.7898c-0.98622,0 -1.78571,-0.80132 -1.78571,-1.7898v-5.21021h-5.81452c-1.04921,0 -1.89976,-0.81403 -1.89976,-1.81818v-5.58972h-1.21429c-0.98622,0 -1.78571,-0.80132 -1.78571,-1.7898v-7.80084c-8.90419,-4.55178 -15,-13.81474 -15,-24.50145zM37.5,13.66667c-13.16279,0 -23.83333,10.67055 -23.83333,23.83333c0,11.96965 8.82376,21.87839 20.32144,23.5764l-3.11866,-14.38691h-3.70278c-2.85347,0 -5.16667,-2.39292 -5.16667,-5.34475c0,-2.95182 2.31319,-5.34475 5.16667,-5.34475c2.82182,-0.0048 5.2692,2.01615 5.89,4.86372l0.51667,2.28043h7.87055l0.49944,-2.28043c0.6208,-2.84757 3.06818,-4.86852 5.89,-4.86372c2.85347,0 5.16667,2.39292 5.16667,5.34475c0,2.95182 -2.31319,5.34475 -5.16667,5.34475h-3.61667l-3.19888,14.38604c11.4948,-1.70052 20.31555,-11.60793 20.31555,-23.57553c0,-13.16279 -10.67055,-23.83333 -23.83333,-23.83333zM31.79952,75.36362h5.10356c0.18665,-0.06633 0.38758,-0.10244 0.59692,-0.10244c0.20934,0 0.41026,0.0361 0.59692,0.10244h5.10118v-3.72727h-11.39857zM37.5,7.15921c-0.98622,0 -1.78571,-0.80132 -1.78571,-1.7898v-3.5796c0,-0.98848 0.79949,-1.7898 1.78571,-1.7898c0.98622,0 1.78571,0.80132 1.78571,1.7898v3.5796c0,0.98848 -0.79949,1.7898 -1.78571,1.7898zM60.28571,16.60937c-0.72222,-0.00304 -1.37151,-0.44181 -1.64512,-1.11173c-0.27361,-0.66992 -0.11767,-1.43908 0.39512,-1.94883l2.51786,-2.54152c0.70022,-0.70182 1.8355,-0.70182 2.53571,0c0.70022,0.70182 0.70022,1.8397 0,2.54152l-2.53571,2.55942c-0.3399,0.32848 -0.79576,0.50867 -1.26786,0.50114zM73.21429,39.37565h-3.57143c-0.98622,0 -1.78571,-0.80132 -1.78571,-1.7898c0,-0.98848 0.79949,-1.7898 1.78571,-1.7898h3.57143c0.98622,0 1.78571,0.80132 1.78571,1.7898c0,0.98848 -0.79949,1.7898 -1.78571,1.7898zM62.82143,64.75505c-0.47465,0.00275 -0.93086,-0.18402 -1.26786,-0.51904l-2.51786,-2.54152c-0.60674,-0.71012 -0.56595,-1.76867 0.09364,-2.42977c0.65959,-0.6611 1.71572,-0.70198 2.42422,-0.09385l2.53571,2.52362c0.33806,0.33607 0.52821,0.79353 0.52821,1.27076c0,0.47723 -0.19015,0.93469 -0.52821,1.27076c-0.337,0.33503 -0.79321,0.52179 -1.26786,0.51904zM14.78571,16.60937c-0.4721,0.00752 -0.92796,-0.17266 -1.26786,-0.50114l-2.51786,-2.55942c-0.33806,-0.33607 -0.52821,-0.79353 -0.52821,-1.27076c0,-0.47723 0.19015,-0.93469 0.52821,-1.27076c0.6965,-0.69395 1.82136,-0.69395 2.51786,0l2.55357,2.54152c0.34359,0.33673 0.53728,0.79806 0.53728,1.27971c0,0.48165 -0.19368,0.94297 -0.53728,1.27971c-0.34429,0.33292 -0.80747,0.51346 -1.28571,0.50114zM5.35714,39.37565h-3.57143c-0.98622,0 -1.78571,-0.80132 -1.78571,-1.7898c0,-0.98848 0.79949,-1.7898 1.78571,-1.7898h3.57143c0.98622,0 1.78571,0.80132 1.78571,1.7898c0,0.98848 -0.79949,1.7898 -1.78571,1.7898zM12.25,64.75505c-0.72222,-0.00304 -1.37151,-0.44181 -1.64512,-1.11173c-0.27361,-0.66992 -0.11767,-1.43908 0.39512,-1.94883l2.51786,-2.52362c0.3353,-0.33883 0.79172,-0.52942 1.26786,-0.52942c0.47614,0 0.93256,0.19059 1.26786,0.52942c0.69236,0.69809 0.69236,1.82553 0,2.52362l-2.53571,2.54152c-0.337,0.33503 -0.79321,0.52179 -1.26786,0.51904zM37.50813,61.1649c0.00142,0.05665 0.00024,0.11284 -0.00342,0.16843c0.00924,0 0.01847,-0.00001 0.0277,-0.00002c-0.01062,-0.05533 -0.01875,-0.11152 -0.02428,-0.16841zM34.4,46.68949l3.09712,13.90125c0.0009,-0.00758 0.00185,0.02047 0.00288,0.01291c0.00696,0.11272 0.00696,0.22578 0,0.3385c-0.01572,-0.11654 -0.01667,-0.23467 -0.00288,-0.35141l0.00288,-0.02273l3.16889,-13.87853zM45.00888,43.12633h2.82444c0.95116,0 1.72222,-0.79764 1.72222,-1.78158c0,-0.98394 -0.77106,-1.78158 -1.72222,-1.78158c-1.21921,0.00123 -2.27617,0.87299 -2.54889,2.10227zM27.16667,39.56316c-0.95116,0 -1.72222,0.79764 -1.72222,1.78158c0,0.98394 0.77106,1.78158 1.72222,1.78158h2.85889l-0.32722,-1.47871c-0.27242,-1.21943 -1.3218,-2.08344 -2.53167,-2.08445z" vector-effect="non-scaling-stroke"/></defs></g></svg>