<svg version="1.2" xmlns="http://www.w3.org/2000/svg" xmlns:xlink="http://www.w3.org/1999/xlink" overflow="visible" preserveAspectRatio="none" viewBox="0 0 81.00225430064656 83.00000069326966" width="81.00225430064656" height="83.00000069326966"><g transform="translate(0, 0)"><g transform="translate(0.002244300646555411, 0.000004999999997146176) rotate(0)"><path d="M36.98311,38c-0.49805,0.00054 -0.96993,-0.22366 -1.28502,-0.61053c-1.31883,-1.56024 -12.6811,-15.46672 -12.6811,-22.65739c-0.25382,-5.17528 2.35443,-10.07019 6.78536,-12.73413c4.43093,-2.66394 9.9644,-2.66394 14.39533,0c4.43093,2.66394 7.03918,7.55885 6.78536,12.73413c0,7.19067 -11.39608,21.09715 -12.71492,22.65739c-0.31509,0.38687 -0.78697,0.61107 -1.28502,0.61053zM36.98311,4.08175c-5.85112,0.01869 -10.58452,4.78154 -10.58449,10.65033c0,4.51113 6.76325,14.00824 10.58449,18.89246c3.85506,-4.88423 10.61831,-14.41525 10.61831,-18.89246c-0.01856,-5.87428 -4.76169,-10.63171 -10.61831,-10.65033zM37.50002,20.99991c-2.63212,-0.00003 -5.00439,-1.46535 -6.00838,-3.71129c-1.00399,-2.24594 -0.44149,-4.82909 1.42469,-6.54249c1.86617,-1.7134 4.66758,-2.21877 7.09528,-1.27999c2.4277,0.93878 4.00239,3.13638 3.98832,5.56598c0.00002,1.58833 -0.68589,3.11114 -1.90587,4.23125c-1.21998,1.1201 -2.87336,1.74508 -4.59403,1.73654zM37.50002,12.24074c-1.67012,0 -3.02402,1.24974 -3.02402,2.79138c0,1.54164 1.3539,2.79138 3.02402,2.79138c1.67012,0 3.02402,-1.24974 3.02402,-2.79138c0,-1.54164 -1.3539,-2.79138 -3.02402,-2.79138zM68.00001,58.99999c-0.50787,0.00054 -0.98904,-0.2242 -1.31034,-0.612c-1.2069,-1.394 -11.68966,-13.974 -11.68966,-20.57c0,-7.07919 5.8203,-12.818 13,-12.818c7.1797,0 13,5.73881 13,12.818c0,6.596 -10.34483,19.176 -11.68966,20.57c-0.3213,0.3878 -0.80248,0.61254 -1.31034,0.612zM68.00001,28.4c-5.27527,0 -9.55172,4.21658 -9.55172,9.418c0,3.638 5.41379,11.594 9.55172,16.796c3.44828,-4.42 9.55172,-12.818 9.55172,-16.796c0,-5.20142 -4.27645,-9.418 -9.55172,-9.418zM68.00001,44c-3.31371,0 -6,-2.68629 -6,-6c0,-3.31371 2.68629,-6 6,-6c3.31371,0 6,2.68629 6,6c-0.01895,3.30583 -2.69417,5.98105 -6,6zM68.00001,35.50289c-1.38484,-0.00013 -2.51282,1.1124 -2.53179,2.49711c0,1.39827 1.13352,2.53179 2.53179,2.53179c1.39827,0 2.53179,-1.13352 2.53179,-2.53179c-0.01897,-1.38471 -1.14695,-2.49724 -2.53179,-2.49711zM15.99983,82.97789c-0.9448,0 -1.71071,-0.76697 -1.71071,-1.71307c0,-3.42614 -3.42143,-8.46256 -6.56914,-13.32768c-3.33009,-4.29818 -5.83583,-9.17717 -7.39029,-14.38979c-0.95836,-4.61998 0.18233,-9.42755 3.1135,-13.12211c3.15855,-3.605 7.77079,-5.59339 12.55664,-5.4133c4.72833,-0.18336 9.29279,1.75042 12.454,5.27625c2.99776,3.70255 4.17823,8.5567 3.21614,13.2249c-1.44528,4.8672 -3.7641,9.42996 -6.84286,13.46473c-3.42143,5.24199 -6.84286,10.68955 -6.84286,14.287c0.00652,0.50607 -0.21077,0.98913 -0.59358,1.31959c-0.38281,0.33046 -0.89195,0.4745 -1.39085,0.39348zM16.00208,38.43808c-3.77251,-0.20424 -7.42996,1.33653 -9.92214,4.17989c-2.28253,2.90021 -3.16003,6.66613 -2.395,10.27842c1.49386,4.74244 3.8102,9.18433 6.84286,13.12211c2.01224,2.84285 3.82976,5.81899 5.44007,8.90796c1.73251,-3.41374 3.68692,-6.70992 5.85064,-9.86728c2.79985,-3.66378 4.98404,-7.76043 6.4665,-12.12853c0.77499,-3.67681 -0.12821,-7.50814 -2.46343,-10.44972c-2.50117,-2.75535 -6.10624,-4.23961 -9.8195,-4.04284zM16.13514,57.99892c-3.24738,0.05139 -6.20561,-1.74296 -7.4865,-4.54101c-1.28088,-2.79805 -0.63018,-6.04442 1.64676,-8.2157c2.27694,-2.17128 5.72817,-2.83648 8.73413,-1.68345c3.00596,1.15303 4.97001,3.89543 4.97047,6.94027c0.00062,4.09314 -3.49947,7.4308 -7.86487,7.49988zM16.13514,46.16366c-1.88171,-0.05153 -3.60893,0.97146 -4.36744,2.58671c-0.75851,1.61526 -0.39689,3.50035 0.91439,4.76664c1.31127,1.26629 3.31045,1.661 5.05511,0.99806c1.74466,-0.66294 2.88653,-2.25119 2.88733,-4.01604c0.03634,-1.14995 -0.41636,-2.26628 -1.25839,-3.10317c-0.84203,-0.83689 -2.00435,-1.3257 -3.231,-1.35878zM57.0251,54.76252c-0.34165,-0.00179 -0.67625,-0.09667 -0.96729,-0.27427l-16.96207,-11.21072c-0.80133,-0.53016 -1.01786,-1.60461 -0.48364,-2.39985c0.53422,-0.79524 1.61689,-1.01013 2.41822,-0.47997l16.92753,11.21072c0.79251,0.53598 1.00747,1.6026 0.48364,2.39985c-0.31831,0.46739 -0.84796,0.74943 -1.41638,0.75424zM24.96643,78.89814c-0.6659,-0.01316 -1.26739,-0.39785 -1.55457,-0.99422c-0.20104,-0.40399 -0.23012,-0.87119 -0.08071,-1.29667c0.14941,-0.42547 0.46478,-0.77355 0.87527,-0.96605l34.54598,-15.94185c0.8681,-0.39762 1.89664,-0.02156 2.29731,0.83995c0.40066,0.86151 0.02173,1.88224 -0.84638,2.27986l-34.47688,15.90757c-0.23987,0.10512 -0.49792,0.16333 -0.76001,0.17142z" style="stroke-width: 0; stroke-linecap: butt; stroke-linejoin: miter; fill: rgb(255, 255, 255);" vector-effect="non-scaling-stroke"/></g><defs><path id="path-16008687789053602" d="M36.98311,38c-0.49805,0.00054 -0.96993,-0.22366 -1.28502,-0.61053c-1.31883,-1.56024 -12.6811,-15.46672 -12.6811,-22.65739c-0.25382,-5.17528 2.35443,-10.07019 6.78536,-12.73413c4.43093,-2.66394 9.9644,-2.66394 14.39533,0c4.43093,2.66394 7.03918,7.55885 6.78536,12.73413c0,7.19067 -11.39608,21.09715 -12.71492,22.65739c-0.31509,0.38687 -0.78697,0.61107 -1.28502,0.61053zM36.98311,4.08175c-5.85112,0.01869 -10.58452,4.78154 -10.58449,10.65033c0,4.51113 6.76325,14.00824 10.58449,18.89246c3.85506,-4.88423 10.61831,-14.41525 10.61831,-18.89246c-0.01856,-5.87428 -4.76169,-10.63171 -10.61831,-10.65033zM37.50002,20.99991c-2.63212,-0.00003 -5.00439,-1.46535 -6.00838,-3.71129c-1.00399,-2.24594 -0.44149,-4.82909 1.42469,-6.54249c1.86617,-1.7134 4.66758,-2.21877 7.09528,-1.27999c2.4277,0.93878 4.00239,3.13638 3.98832,5.56598c0.00002,1.58833 -0.68589,3.11114 -1.90587,4.23125c-1.21998,1.1201 -2.87336,1.74508 -4.59403,1.73654zM37.50002,12.24074c-1.67012,0 -3.02402,1.24974 -3.02402,2.79138c0,1.54164 1.3539,2.79138 3.02402,2.79138c1.67012,0 3.02402,-1.24974 3.02402,-2.79138c0,-1.54164 -1.3539,-2.79138 -3.02402,-2.79138zM68.00001,58.99999c-0.50787,0.00054 -0.98904,-0.2242 -1.31034,-0.612c-1.2069,-1.394 -11.68966,-13.974 -11.68966,-20.57c0,-7.07919 5.8203,-12.818 13,-12.818c7.1797,0 13,5.73881 13,12.818c0,6.596 -10.34483,19.176 -11.68966,20.57c-0.3213,0.3878 -0.80248,0.61254 -1.31034,0.612zM68.00001,28.4c-5.27527,0 -9.55172,4.21658 -9.55172,9.418c0,3.638 5.41379,11.594 9.55172,16.796c3.44828,-4.42 9.55172,-12.818 9.55172,-16.796c0,-5.20142 -4.27645,-9.418 -9.55172,-9.418zM68.00001,44c-3.31371,0 -6,-2.68629 -6,-6c0,-3.31371 2.68629,-6 6,-6c3.31371,0 6,2.68629 6,6c-0.01895,3.30583 -2.69417,5.98105 -6,6zM68.00001,35.50289c-1.38484,-0.00013 -2.51282,1.1124 -2.53179,2.49711c0,1.39827 1.13352,2.53179 2.53179,2.53179c1.39827,0 2.53179,-1.13352 2.53179,-2.53179c-0.01897,-1.38471 -1.14695,-2.49724 -2.53179,-2.49711zM15.99983,82.97789c-0.9448,0 -1.71071,-0.76697 -1.71071,-1.71307c0,-3.42614 -3.42143,-8.46256 -6.56914,-13.32768c-3.33009,-4.29818 -5.83583,-9.17717 -7.39029,-14.38979c-0.95836,-4.61998 0.18233,-9.42755 3.1135,-13.12211c3.15855,-3.605 7.77079,-5.59339 12.55664,-5.4133c4.72833,-0.18336 9.29279,1.75042 12.454,5.27625c2.99776,3.70255 4.17823,8.5567 3.21614,13.2249c-1.44528,4.8672 -3.7641,9.42996 -6.84286,13.46473c-3.42143,5.24199 -6.84286,10.68955 -6.84286,14.287c0.00652,0.50607 -0.21077,0.98913 -0.59358,1.31959c-0.38281,0.33046 -0.89195,0.4745 -1.39085,0.39348zM16.00208,38.43808c-3.77251,-0.20424 -7.42996,1.33653 -9.92214,4.17989c-2.28253,2.90021 -3.16003,6.66613 -2.395,10.27842c1.49386,4.74244 3.8102,9.18433 6.84286,13.12211c2.01224,2.84285 3.82976,5.81899 5.44007,8.90796c1.73251,-3.41374 3.68692,-6.70992 5.85064,-9.86728c2.79985,-3.66378 4.98404,-7.76043 6.4665,-12.12853c0.77499,-3.67681 -0.12821,-7.50814 -2.46343,-10.44972c-2.50117,-2.75535 -6.10624,-4.23961 -9.8195,-4.04284zM16.13514,57.99892c-3.24738,0.05139 -6.20561,-1.74296 -7.4865,-4.54101c-1.28088,-2.79805 -0.63018,-6.04442 1.64676,-8.2157c2.27694,-2.17128 5.72817,-2.83648 8.73413,-1.68345c3.00596,1.15303 4.97001,3.89543 4.97047,6.94027c0.00062,4.09314 -3.49947,7.4308 -7.86487,7.49988zM16.13514,46.16366c-1.88171,-0.05153 -3.60893,0.97146 -4.36744,2.58671c-0.75851,1.61526 -0.39689,3.50035 0.91439,4.76664c1.31127,1.26629 3.31045,1.661 5.05511,0.99806c1.74466,-0.66294 2.88653,-2.25119 2.88733,-4.01604c0.03634,-1.14995 -0.41636,-2.26628 -1.25839,-3.10317c-0.84203,-0.83689 -2.00435,-1.3257 -3.231,-1.35878zM57.0251,54.76252c-0.34165,-0.00179 -0.67625,-0.09667 -0.96729,-0.27427l-16.96207,-11.21072c-0.80133,-0.53016 -1.01786,-1.60461 -0.48364,-2.39985c0.53422,-0.79524 1.61689,-1.01013 2.41822,-0.47997l16.92753,11.21072c0.79251,0.53598 1.00747,1.6026 0.48364,2.39985c-0.31831,0.46739 -0.84796,0.74943 -1.41638,0.75424zM24.96643,78.89814c-0.6659,-0.01316 -1.26739,-0.39785 -1.55457,-0.99422c-0.20104,-0.40399 -0.23012,-0.87119 -0.08071,-1.29667c0.14941,-0.42547 0.46478,-0.77355 0.87527,-0.96605l34.54598,-15.94185c0.8681,-0.39762 1.89664,-0.02156 2.29731,0.83995c0.40066,0.86151 0.02173,1.88224 -0.84638,2.27986l-34.47688,15.90757c-0.23987,0.10512 -0.49792,0.16333 -0.76001,0.17142z" vector-effect="non-scaling-stroke"/></defs></g></svg>