<svg version="1.2" xmlns="http://www.w3.org/2000/svg" xmlns:xlink="http://www.w3.org/1999/xlink" overflow="visible" preserveAspectRatio="none" viewBox="0 0 81 81" width="81" height="81"><g transform="translate(0, 0)"><g transform="translate(0, 0) rotate(0)"><path d="M25.3125,81h-16.875c-4.6599,0 -8.4375,-3.7776 -8.4375,-8.4375v-64.125c0,-4.6599 3.7776,-8.4375 8.4375,-8.4375h33.75c4.6599,0 8.4375,3.7776 8.4375,8.4375v30.375c0,0.93198 -0.75552,1.6875 -1.6875,1.6875c-0.93198,0 -1.6875,-0.75552 -1.6875,-1.6875v-21.9375h-43.875v47.25h21.9375c0.93198,0 1.6875,0.75552 1.6875,1.6875c0,0.93198 -0.75552,1.6875 -1.6875,1.6875h-21.9375v5.0625c0,2.79594 2.26656,5.0625 5.0625,5.0625h16.875c0.93198,0 1.6875,0.75552 1.6875,1.6875c0,0.93198 -0.75552,1.6875 -1.6875,1.6875zM47.25,8.4375c0,-2.79594 -2.26656,-5.0625 -5.0625,-5.0625h-33.75c-2.79594,0 -5.0625,2.26656 -5.0625,5.0625v5.0625h43.875zM32.0625,10.125h-13.5c-0.93198,0 -1.6875,-0.75552 -1.6875,-1.6875c0,-0.93198 0.75552,-1.6875 1.6875,-1.6875h13.5c0.93198,0 1.6875,0.75552 1.6875,1.6875c0,0.93198 -0.75552,1.6875 -1.6875,1.6875zM25.3125,75.9375c-1.86396,0 -3.375,-1.51104 -3.375,-3.375c0,-1.86396 1.51104,-3.375 3.375,-3.375c0.93198,0 1.6875,0.75552 1.6875,1.6875c0,0.93198 -0.75552,1.6875 -1.6875,1.6875c0.93198,0 1.6875,0.75552 1.6875,1.6875c0,0.93198 -0.75552,1.6875 -1.6875,1.6875zM52.3125,64.125h-13.5c-0.93198,0 -1.6875,-0.75552 -1.6875,-1.6875c0,-0.93198 0.75552,-1.6875 1.6875,-1.6875h13.5c0.93198,0 1.6875,0.75552 1.6875,1.6875c0,0.93198 -0.75552,1.6875 -1.6875,1.6875zM72.5625,64.125h-6.75c-0.93198,0 -1.6875,-0.75552 -1.6875,-1.6875c0,-0.93198 0.75552,-1.6875 1.6875,-1.6875h6.75c0.93198,0 1.6875,0.75552 1.6875,1.6875c0,0.93198 -0.75552,1.6875 -1.6875,1.6875zM45.5625,70.875h-6.75c-0.93198,0 -1.6875,-0.75552 -1.6875,-1.6875c0,-0.93198 0.75552,-1.6875 1.6875,-1.6875h6.75c0.93198,0 1.6875,0.75552 1.6875,1.6875c0,0.93198 -0.75552,1.6875 -1.6875,1.6875zM72.5,81h-34c-4.69442,0 -8.5,-3.76488 -8.5,-8.40909v-20.18182c0,-4.64421 3.80558,-8.40909 8.5,-8.40909h34c4.69442,0 8.5,3.76488 8.5,8.40909v20.18182c0,4.64421 -3.80558,8.40909 -8.5,8.40909zM38.5,47.36364c-2.81665,0 -5.1,2.25893 -5.1,5.04545v1.59091h44.2v-1.59091c0,-2.78653 -2.28335,-5.04545 -5.1,-5.04545zM33.4,72.59091c0,2.78653 2.28335,5.04545 5.1,5.04545h34c2.81665,0 5.1,-2.25893 5.1,-5.04545v-15.21591h-44.2zM18.93375,42.525c0,-0.93198 0.75552,-1.6875 1.6875,-1.6875c0.93198,0 1.6875,0.75552 1.6875,1.6875c0,1.65893 1.34482,3.00375 3.00375,3.00375c1.65893,0 3.00375,-1.34482 3.00375,-3.00375c0,-1.65893 -1.34482,-3.00375 -3.00375,-3.00375c-3.52289,0 -6.37875,-2.85586 -6.37875,-6.37875c0,-2.93872 1.98727,-5.41329 4.69125,-6.15315v-1.67685c0,-0.93198 0.75552,-1.6875 1.6875,-1.6875c0.93198,0 1.6875,0.75552 1.6875,1.6875v1.67685c2.70398,0.73986 4.69125,3.21443 4.69125,6.15315c0,0.93198 -0.75552,1.6875 -1.6875,1.6875c-0.93198,0 -1.6875,-0.75552 -1.6875,-1.6875c0,-1.65893 -1.34482,-3.00375 -3.00375,-3.00375c-1.65893,0 -3.00375,1.34482 -3.00375,3.00375c0,1.65893 1.34482,3.00375 3.00375,3.00375c3.52289,0 6.37875,2.85586 6.37875,6.37875c0,2.93872 -1.98727,5.41329 -4.69125,6.15315v1.7106c-0.01838,0.91877 -0.76854,1.65393 -1.6875,1.65375c-0.93198,0 -1.6875,-0.75552 -1.6875,-1.6875v-1.67685c-2.70398,-0.73986 -4.69125,-3.21443 -4.69125,-6.15315z" style="stroke-width: 0; stroke-linecap: butt; stroke-linejoin: miter; fill: rgb(0, 48, 88);" vector-effect="non-scaling-stroke"/></g><defs><path id="path-16008687788923589" d="M25.3125,81h-16.875c-4.6599,0 -8.4375,-3.7776 -8.4375,-8.4375v-64.125c0,-4.6599 3.7776,-8.4375 8.4375,-8.4375h33.75c4.6599,0 8.4375,3.7776 8.4375,8.4375v30.375c0,0.93198 -0.75552,1.6875 -1.6875,1.6875c-0.93198,0 -1.6875,-0.75552 -1.6875,-1.6875v-21.9375h-43.875v47.25h21.9375c0.93198,0 1.6875,0.75552 1.6875,1.6875c0,0.93198 -0.75552,1.6875 -1.6875,1.6875h-21.9375v5.0625c0,2.79594 2.26656,5.0625 5.0625,5.0625h16.875c0.93198,0 1.6875,0.75552 1.6875,1.6875c0,0.93198 -0.75552,1.6875 -1.6875,1.6875zM47.25,8.4375c0,-2.79594 -2.26656,-5.0625 -5.0625,-5.0625h-33.75c-2.79594,0 -5.0625,2.26656 -5.0625,5.0625v5.0625h43.875zM32.0625,10.125h-13.5c-0.93198,0 -1.6875,-0.75552 -1.6875,-1.6875c0,-0.93198 0.75552,-1.6875 1.6875,-1.6875h13.5c0.93198,0 1.6875,0.75552 1.6875,1.6875c0,0.93198 -0.75552,1.6875 -1.6875,1.6875zM25.3125,75.9375c-1.86396,0 -3.375,-1.51104 -3.375,-3.375c0,-1.86396 1.51104,-3.375 3.375,-3.375c0.93198,0 1.6875,0.75552 1.6875,1.6875c0,0.93198 -0.75552,1.6875 -1.6875,1.6875c0.93198,0 1.6875,0.75552 1.6875,1.6875c0,0.93198 -0.75552,1.6875 -1.6875,1.6875zM52.3125,64.125h-13.5c-0.93198,0 -1.6875,-0.75552 -1.6875,-1.6875c0,-0.93198 0.75552,-1.6875 1.6875,-1.6875h13.5c0.93198,0 1.6875,0.75552 1.6875,1.6875c0,0.93198 -0.75552,1.6875 -1.6875,1.6875zM72.5625,64.125h-6.75c-0.93198,0 -1.6875,-0.75552 -1.6875,-1.6875c0,-0.93198 0.75552,-1.6875 1.6875,-1.6875h6.75c0.93198,0 1.6875,0.75552 1.6875,1.6875c0,0.93198 -0.75552,1.6875 -1.6875,1.6875zM45.5625,70.875h-6.75c-0.93198,0 -1.6875,-0.75552 -1.6875,-1.6875c0,-0.93198 0.75552,-1.6875 1.6875,-1.6875h6.75c0.93198,0 1.6875,0.75552 1.6875,1.6875c0,0.93198 -0.75552,1.6875 -1.6875,1.6875zM72.5,81h-34c-4.69442,0 -8.5,-3.76488 -8.5,-8.40909v-20.18182c0,-4.64421 3.80558,-8.40909 8.5,-8.40909h34c4.69442,0 8.5,3.76488 8.5,8.40909v20.18182c0,4.64421 -3.80558,8.40909 -8.5,8.40909zM38.5,47.36364c-2.81665,0 -5.1,2.25893 -5.1,5.04545v1.59091h44.2v-1.59091c0,-2.78653 -2.28335,-5.04545 -5.1,-5.04545zM33.4,72.59091c0,2.78653 2.28335,5.04545 5.1,5.04545h34c2.81665,0 5.1,-2.25893 5.1,-5.04545v-15.21591h-44.2zM18.93375,42.525c0,-0.93198 0.75552,-1.6875 1.6875,-1.6875c0.93198,0 1.6875,0.75552 1.6875,1.6875c0,1.65893 1.34482,3.00375 3.00375,3.00375c1.65893,0 3.00375,-1.34482 3.00375,-3.00375c0,-1.65893 -1.34482,-3.00375 -3.00375,-3.00375c-3.52289,0 -6.37875,-2.85586 -6.37875,-6.37875c0,-2.93872 1.98727,-5.41329 4.69125,-6.15315v-1.67685c0,-0.93198 0.75552,-1.6875 1.6875,-1.6875c0.93198,0 1.6875,0.75552 1.6875,1.6875v1.67685c2.70398,0.73986 4.69125,3.21443 4.69125,6.15315c0,0.93198 -0.75552,1.6875 -1.6875,1.6875c-0.93198,0 -1.6875,-0.75552 -1.6875,-1.6875c0,-1.65893 -1.34482,-3.00375 -3.00375,-3.00375c-1.65893,0 -3.00375,1.34482 -3.00375,3.00375c0,1.65893 1.34482,3.00375 3.00375,3.00375c3.52289,0 6.37875,2.85586 6.37875,6.37875c0,2.93872 -1.98727,5.41329 -4.69125,6.15315v1.7106c-0.01838,0.91877 -0.76854,1.65393 -1.6875,1.65375c-0.93198,0 -1.6875,-0.75552 -1.6875,-1.6875v-1.67685c-2.70398,-0.73986 -4.69125,-3.21443 -4.69125,-6.15315z" vector-effect="non-scaling-stroke"/></defs></g></svg>