<svg version="1.2" xmlns="http://www.w3.org/2000/svg" xmlns:xlink="http://www.w3.org/1999/xlink" overflow="visible" preserveAspectRatio="none" viewBox="0 0 88.00001 77.00000101512032" width="88.00001" height="77.00000101512032"><g transform="translate(0, 0)"><g transform="translate(5.329070518200751e-15, -7.105427357601002e-15) rotate(0)"><path d="M75.14209,76.99999h-62.35159c-7.06832,-0.03686 -12.78133,-5.7432 -12.7905,-12.77555v-36.46565c0.01852,-7.03884 5.74928,-12.74036 12.82421,-12.75879h16.49789v-5.83012c0.00927,-5.06054 4.10822,-9.1606 9.16737,-9.16988h10.98736c5.05915,0.00928 9.15809,4.10934 9.16737,9.16988v5.83012h16.5316c7.07876,0.00924 12.81492,5.71613 12.82421,12.75879v36.46565c0,3.39119 -1.3552,6.64325 -3.76701,9.03961c-2.41181,2.39636 -5.68232,3.74039 -9.09089,3.73594zM12.7905,18.65495c-5.05369,0 -9.15052,4.07593 -9.15052,9.10384v36.46565c0,2.42184 0.96815,4.74425 2.69102,6.45518c1.72286,1.71093 4.05895,2.66988 6.49321,2.66543h62.35159c5.02622,-0.05505 9.07419,-4.11973 9.08311,-9.1206v-36.46565c-0.00929,-5.03062 -4.11094,-9.10385 -9.16737,-9.10384zM54.98736,9.16988c-0.00929,-3.03763 -2.47372,-5.4952 -5.51053,-5.49518h-10.98736c-3.03408,0 -5.49368,2.46028 -5.49368,5.49518v5.83012h21.99157zM33.33282,53.56961c0,-1.01474 0.82238,-1.83735 1.83684,-1.83735c1.01446,0 1.83684,0.82261 1.83684,1.83735c0,2.17654 1.37468,4.03191 3.30295,4.74479v-9.97737c-2.83706,-0.57539 -5.2564,-2.52533 -6.39161,-5.27044c-1.36317,-3.29634 -0.60603,-7.08953 1.91811,-9.60953c1.25114,-1.24909 2.81416,-2.06332 4.4735,-2.40009v-3.5642c0.09054,-0.94231 0.88203,-1.66156 1.82842,-1.66156c0.94639,0 1.73787,0.71926 1.82842,1.66156v3.59599c0.50049,0.11088 0.99577,0.26653 1.48022,0.46806c3.29283,1.36985 5.43583,4.58961 5.42901,8.15683c0,1.01474 -0.82238,1.83735 -1.83684,1.83735c-1.01446,0 -1.83684,-0.82261 -1.83684,-1.83735c0,-2.15109 -1.34273,-3.98848 -3.23554,-4.71932v9.96658c3.98405,0.84244 6.97227,4.38176 6.96821,8.61713c-0.00405,4.22953 -2.99079,7.7592 -6.96821,8.60029v3.81444c0,1.01474 -0.82238,1.83735 -1.83684,1.83735c-0.48563,0.00002 -0.95112,-0.19409 -1.29292,-0.53915c-0.3418,-0.34506 -0.53157,-0.81245 -0.52707,-1.29819v-3.81588c-3.98071,-0.84416 -6.96856,-4.37574 -6.97664,-8.60728zM47.11758,53.56961c0,-2.11903 -1.303,-3.93364 -3.15128,-4.68591v9.37182c1.84828,-0.75227 3.15128,-2.56688 3.15128,-4.68591zM37.09077,39.71365c0,2.1447 1.33476,3.97756 3.21869,4.71278v-9.42556c-1.88393,0.73522 -3.21869,2.56808 -3.21869,4.71278z" style="stroke-width: 0; stroke-linecap: butt; stroke-linejoin: miter; fill: rgb(0, 48, 88);" vector-effect="non-scaling-stroke"/></g><defs><path id="path-16013145458322591" d="M75.14209,76.99999h-62.35159c-7.06832,-0.03686 -12.78133,-5.7432 -12.7905,-12.77555v-36.46565c0.01852,-7.03884 5.74928,-12.74036 12.82421,-12.75879h16.49789v-5.83012c0.00927,-5.06054 4.10822,-9.1606 9.16737,-9.16988h10.98736c5.05915,0.00928 9.15809,4.10934 9.16737,9.16988v5.83012h16.5316c7.07876,0.00924 12.81492,5.71613 12.82421,12.75879v36.46565c0,3.39119 -1.3552,6.64325 -3.76701,9.03961c-2.41181,2.39636 -5.68232,3.74039 -9.09089,3.73594zM12.7905,18.65495c-5.05369,0 -9.15052,4.07593 -9.15052,9.10384v36.46565c0,2.42184 0.96815,4.74425 2.69102,6.45518c1.72286,1.71093 4.05895,2.66988 6.49321,2.66543h62.35159c5.02622,-0.05505 9.07419,-4.11973 9.08311,-9.1206v-36.46565c-0.00929,-5.03062 -4.11094,-9.10385 -9.16737,-9.10384zM54.98736,9.16988c-0.00929,-3.03763 -2.47372,-5.4952 -5.51053,-5.49518h-10.98736c-3.03408,0 -5.49368,2.46028 -5.49368,5.49518v5.83012h21.99157zM33.33282,53.56961c0,-1.01474 0.82238,-1.83735 1.83684,-1.83735c1.01446,0 1.83684,0.82261 1.83684,1.83735c0,2.17654 1.37468,4.03191 3.30295,4.74479v-9.97737c-2.83706,-0.57539 -5.2564,-2.52533 -6.39161,-5.27044c-1.36317,-3.29634 -0.60603,-7.08953 1.91811,-9.60953c1.25114,-1.24909 2.81416,-2.06332 4.4735,-2.40009v-3.5642c0.09054,-0.94231 0.88203,-1.66156 1.82842,-1.66156c0.94639,0 1.73787,0.71926 1.82842,1.66156v3.59599c0.50049,0.11088 0.99577,0.26653 1.48022,0.46806c3.29283,1.36985 5.43583,4.58961 5.42901,8.15683c0,1.01474 -0.82238,1.83735 -1.83684,1.83735c-1.01446,0 -1.83684,-0.82261 -1.83684,-1.83735c0,-2.15109 -1.34273,-3.98848 -3.23554,-4.71932v9.96658c3.98405,0.84244 6.97227,4.38176 6.96821,8.61713c-0.00405,4.22953 -2.99079,7.7592 -6.96821,8.60029v3.81444c0,1.01474 -0.82238,1.83735 -1.83684,1.83735c-0.48563,0.00002 -0.95112,-0.19409 -1.29292,-0.53915c-0.3418,-0.34506 -0.53157,-0.81245 -0.52707,-1.29819v-3.81588c-3.98071,-0.84416 -6.96856,-4.37574 -6.97664,-8.60728zM47.11758,53.56961c0,-2.11903 -1.303,-3.93364 -3.15128,-4.68591v9.37182c1.84828,-0.75227 3.15128,-2.56688 3.15128,-4.68591zM37.09077,39.71365c0,2.1447 1.33476,3.97756 3.21869,4.71278v-9.42556c-1.88393,0.73522 -3.21869,2.56808 -3.21869,4.71278z" vector-effect="non-scaling-stroke"/></defs></g></svg>