<svg version="1.2" xmlns="http://www.w3.org/2000/svg" xmlns:xlink="http://www.w3.org/1999/xlink" overflow="visible" preserveAspectRatio="none" viewBox="0 0 81.0000117457283 70.9967288274024" width="81.0000117457283" height="70.9967288274024"><g transform="translate(0, 0)"><g transform="translate(1.6805132764352773e-9, -0.0032583804276326567) rotate(0)"><path d="M55.68466,21.95882c-0.36173,0.00109 -0.71414,-0.11488 -1.00481,-0.33065c-4.49741,-3.40031 -10.06581,-5.06482 -15.68709,-4.68919c-0.90194,0.05431 -1.69033,-0.60409 -1.79967,-1.50295c-0.06145,-0.90336 0.60118,-1.69359 1.49972,-1.78851c6.44442,-0.43149 12.82964,1.46686 17.99666,5.35049c0.55969,0.44149 0.78067,1.18875 0.55138,1.86456c-0.22928,0.67581 -0.85896,1.13322 -1.57119,1.14133zM76.1506,30.61491c0.94825,-0.95311 1.47897,-2.24526 1.47499,-3.59116c-0.08755,-0.65509 0.2121,-1.30158 0.76807,-1.65712c0.55597,-0.35554 1.26727,-0.35554 1.82324,0c0.55597,0.35554 0.85562,1.00203 0.76807,1.65712c0.00398,2.24017 -0.8802,4.39017 -2.45802,5.97702c-1.24532,1.25245 -2.84223,2.07312 -4.55902,2.36534c-0.50987,10.08876 -7.05459,18.84817 -16.60357,23.67168v10.27883c0,0.92966 -0.75202,1.6833 -1.67969,1.6833c-0.44807,0.00401 -0.87917,-0.17157 -1.19743,-0.48768c-0.31825,-0.31612 -0.49728,-0.74656 -0.49726,-1.19562v-8.78804c-4.16448,1.59055 -8.77275,2.47468 -13.6182,2.47468c-4.71078,0 -9.24396,-0.8327 -13.37678,-2.36828v8.68164c0,0.92966 -0.75202,1.6833 -1.67969,1.6833c-0.93012,0.00004 -1.68645,-0.75121 -1.69469,-1.6833v-10.13491c-6.02314,-2.9709 -10.93738,-7.53889 -13.91644,-13.22244h-8.01454c-0.44674,0.00404 -0.87655,-0.17279 -1.19386,-0.49116c-0.3173,-0.31837 -0.4958,-0.75189 -0.49578,-1.20415v-13.62309c0,-0.94466 0.75647,-1.71045 1.68963,-1.71045h5.56233c1.72168,-7.395 6.26396,-13.79991 12.63487,-17.81597c-0.68541,-2.67125 -2.39023,-4.95783 -4.73994,-6.35744c-0.52643,-0.29647 -0.85285,-0.85843 -0.85285,-1.46827c0,-0.60984 0.32641,-1.17179 0.85285,-1.46827c6.04865,-3.5241 13.75487,-1.78247 17.74863,4.01124c10.7058,-2.22455 21.83809,0.37185 30.50311,7.11428c6.00979,4.56573 9.798,11.47406 10.48937,18.98288c0.84882,-0.22952 1.63102,-0.67916 2.2626,-1.31397zM3.36431,42.55023h7.47625c0.63934,0.01049 1.21806,0.38543 1.49525,0.96875c2.51062,5.28809 6.8987,9.56371 12.37068,12.37229c0.48758,-0.18548 1.04072,-0.13733 1.49426,0.14445c0.335,0.20813 0.58024,0.52173 0.70613,0.88104c4.10833,1.72947 8.71844,2.67747 13.53964,2.67747c4.91156,0 9.55288,-0.99091 13.65814,-2.74831c0.1322,-0.32959 0.36674,-0.61586 0.67953,-0.8102c0.42764,-0.26569 0.94383,-0.32367 1.41011,-0.17394c8.70905,-4.49136 14.53104,-12.59017 14.53104,-21.81841c-0.0008,-0.03916 -0.0017,-0.0783 -0.00269,-0.11743c-0.00424,-0.05481 -0.00582,-0.10978 -0.00475,-0.16471c-0.23198,-7.18423 -3.69565,-13.87399 -9.41264,-18.15444c-8.2062,-6.34808 -18.79613,-8.62666 -28.84339,-6.20607c-0.72482,0.17661 -1.47702,-0.1577 -1.83916,-0.81739c-2.23725,-4.03507 -6.87988,-6.03686 -11.3041,-4.87404c2.2167,2.11013 3.65213,4.92555 4.06708,7.97707c0.10526,0.6763 -0.20914,1.34889 -0.79248,1.69532c-6.45194,3.69911 -10.94486,10.11109 -12.26106,17.4981c-0.10484,0.85801 -0.8207,1.50505 -1.67468,1.51368h-5.29319zM20.5,32c-1.933,0 -3.5,-1.567 -3.5,-3.5c0,-1.933 1.567,-3.5 3.5,-3.5c1.933,0 3.5,1.567 3.5,3.5c0,1.933 -1.567,3.5 -3.5,3.5z" style="stroke-width: 0; stroke-linecap: butt; stroke-linejoin: miter; fill: rgb(255, 255, 255);" vector-effect="non-scaling-stroke"/></g><defs><path id="path-16013146017212924" d="M55.68466,21.95882c-0.36173,0.00109 -0.71414,-0.11488 -1.00481,-0.33065c-4.49741,-3.40031 -10.06581,-5.06482 -15.68709,-4.68919c-0.90194,0.05431 -1.69033,-0.60409 -1.79967,-1.50295c-0.06145,-0.90336 0.60118,-1.69359 1.49972,-1.78851c6.44442,-0.43149 12.82964,1.46686 17.99666,5.35049c0.55969,0.44149 0.78067,1.18875 0.55138,1.86456c-0.22928,0.67581 -0.85896,1.13322 -1.57119,1.14133zM76.1506,30.61491c0.94825,-0.95311 1.47897,-2.24526 1.47499,-3.59116c-0.08755,-0.65509 0.2121,-1.30158 0.76807,-1.65712c0.55597,-0.35554 1.26727,-0.35554 1.82324,0c0.55597,0.35554 0.85562,1.00203 0.76807,1.65712c0.00398,2.24017 -0.8802,4.39017 -2.45802,5.97702c-1.24532,1.25245 -2.84223,2.07312 -4.55902,2.36534c-0.50987,10.08876 -7.05459,18.84817 -16.60357,23.67168v10.27883c0,0.92966 -0.75202,1.6833 -1.67969,1.6833c-0.44807,0.00401 -0.87917,-0.17157 -1.19743,-0.48768c-0.31825,-0.31612 -0.49728,-0.74656 -0.49726,-1.19562v-8.78804c-4.16448,1.59055 -8.77275,2.47468 -13.6182,2.47468c-4.71078,0 -9.24396,-0.8327 -13.37678,-2.36828v8.68164c0,0.92966 -0.75202,1.6833 -1.67969,1.6833c-0.93012,0.00004 -1.68645,-0.75121 -1.69469,-1.6833v-10.13491c-6.02314,-2.9709 -10.93738,-7.53889 -13.91644,-13.22244h-8.01454c-0.44674,0.00404 -0.87655,-0.17279 -1.19386,-0.49116c-0.3173,-0.31837 -0.4958,-0.75189 -0.49578,-1.20415v-13.62309c0,-0.94466 0.75647,-1.71045 1.68963,-1.71045h5.56233c1.72168,-7.395 6.26396,-13.79991 12.63487,-17.81597c-0.68541,-2.67125 -2.39023,-4.95783 -4.73994,-6.35744c-0.52643,-0.29647 -0.85285,-0.85843 -0.85285,-1.46827c0,-0.60984 0.32641,-1.17179 0.85285,-1.46827c6.04865,-3.5241 13.75487,-1.78247 17.74863,4.01124c10.7058,-2.22455 21.83809,0.37185 30.50311,7.11428c6.00979,4.56573 9.798,11.47406 10.48937,18.98288c0.84882,-0.22952 1.63102,-0.67916 2.2626,-1.31397zM3.36431,42.55023h7.47625c0.63934,0.01049 1.21806,0.38543 1.49525,0.96875c2.51062,5.28809 6.8987,9.56371 12.37068,12.37229c0.48758,-0.18548 1.04072,-0.13733 1.49426,0.14445c0.335,0.20813 0.58024,0.52173 0.70613,0.88104c4.10833,1.72947 8.71844,2.67747 13.53964,2.67747c4.91156,0 9.55288,-0.99091 13.65814,-2.74831c0.1322,-0.32959 0.36674,-0.61586 0.67953,-0.8102c0.42764,-0.26569 0.94383,-0.32367 1.41011,-0.17394c8.70905,-4.49136 14.53104,-12.59017 14.53104,-21.81841c-0.0008,-0.03916 -0.0017,-0.0783 -0.00269,-0.11743c-0.00424,-0.05481 -0.00582,-0.10978 -0.00475,-0.16471c-0.23198,-7.18423 -3.69565,-13.87399 -9.41264,-18.15444c-8.2062,-6.34808 -18.79613,-8.62666 -28.84339,-6.20607c-0.72482,0.17661 -1.47702,-0.1577 -1.83916,-0.81739c-2.23725,-4.03507 -6.87988,-6.03686 -11.3041,-4.87404c2.2167,2.11013 3.65213,4.92555 4.06708,7.97707c0.10526,0.6763 -0.20914,1.34889 -0.79248,1.69532c-6.45194,3.69911 -10.94486,10.11109 -12.26106,17.4981c-0.10484,0.85801 -0.8207,1.50505 -1.67468,1.51368h-5.29319zM20.5,32c-1.933,0 -3.5,-1.567 -3.5,-3.5c0,-1.933 1.567,-3.5 3.5,-3.5c1.933,0 3.5,1.567 3.5,3.5c0,1.933 -1.567,3.5 -3.5,3.5z" vector-effect="non-scaling-stroke"/></defs></g></svg>