<svg version="1.2" xmlns="http://www.w3.org/2000/svg" xmlns:xlink="http://www.w3.org/1999/xlink" overflow="visible" preserveAspectRatio="none" viewBox="0 0 64.99998500000001 74.00001499999998" width="64.99998500000001" height="74.00001499999998"><g transform="translate(0, 0)"><g transform="translate(0.0000024999999980301196, 0.00000999999999418133) rotate(0)"><path d="M32.45944,73.98742c-0.1401,0.01678 -0.28172,0.01678 -0.42182,0c-26.93141,-7.66557 -31.78231,-24.08024 -32.02566,-24.77564c-0.01595,-0.13971 -0.01595,-0.28077 0,-0.42047v-45.6538c0.01254,-0.57182 0.32715,-1.09451 0.82741,-1.37463c0.52209,-0.25469 1.14097,-0.21151 1.62237,0.1132c11.11326,7.74643 21.88583,7.24509 28.79714,-1.30994c0.30823,-0.35929 0.75875,-0.56615 1.233,-0.56615c0.47426,0 0.92477,0.20686 1.233,0.56615c6.91131,8.55503 17.66765,9.05637 28.81336,1.30994c0.47236,-0.3499 1.10571,-0.39409 1.62237,-0.1132c0.50026,0.28012 0.81487,0.80281 0.82741,1.37463v45.6538c0.01595,0.13971 0.01595,0.28077 0,0.42047c-0.19468,0.6954 -5.02936,17.17476 -32.00944,24.71095c-0.16888,0.0471 -0.34385,0.0689 -0.51916,0.06469zM3.11069,48.53255c0.58405,1.74659 6.01901,15.63841 29.34875,22.30131c23.39463,-6.67907 28.81336,-20.55472 29.41364,-22.30131v-42.56493c-12.8492,7.73026 -23.29729,4.31795 -29.41364,-2.11854c-6.10013,6.46883 -16.53199,9.8488 -29.38119,2.11854z" style="stroke-width: 0; stroke-linecap: butt; stroke-linejoin: miter; fill: rgb(0, 48, 88);" vector-effect="non-scaling-stroke"/></g><defs><path id="path-16008687788703571" d="M32.45944,73.98742c-0.1401,0.01678 -0.28172,0.01678 -0.42182,0c-26.93141,-7.66557 -31.78231,-24.08024 -32.02566,-24.77564c-0.01595,-0.13971 -0.01595,-0.28077 0,-0.42047v-45.6538c0.01254,-0.57182 0.32715,-1.09451 0.82741,-1.37463c0.52209,-0.25469 1.14097,-0.21151 1.62237,0.1132c11.11326,7.74643 21.88583,7.24509 28.79714,-1.30994c0.30823,-0.35929 0.75875,-0.56615 1.233,-0.56615c0.47426,0 0.92477,0.20686 1.233,0.56615c6.91131,8.55503 17.66765,9.05637 28.81336,1.30994c0.47236,-0.3499 1.10571,-0.39409 1.62237,-0.1132c0.50026,0.28012 0.81487,0.80281 0.82741,1.37463v45.6538c0.01595,0.13971 0.01595,0.28077 0,0.42047c-0.19468,0.6954 -5.02936,17.17476 -32.00944,24.71095c-0.16888,0.0471 -0.34385,0.0689 -0.51916,0.06469zM3.11069,48.53255c0.58405,1.74659 6.01901,15.63841 29.34875,22.30131c23.39463,-6.67907 28.81336,-20.55472 29.41364,-22.30131v-42.56493c-12.8492,7.73026 -23.29729,4.31795 -29.41364,-2.11854c-6.10013,6.46883 -16.53199,9.8488 -29.38119,2.11854z" vector-effect="non-scaling-stroke"/></defs></g></svg>