<svg version="1.2" xmlns="http://www.w3.org/2000/svg" xmlns:xlink="http://www.w3.org/1999/xlink" overflow="visible" preserveAspectRatio="none" viewBox="0 0 73.000025 83.000005" width="73.000025" height="83.000005"><g transform="translate(0, 0)"><g transform="translate(0.006062499999998347, -0.001760000000006201) rotate(0)"><path d="M36.44839,82.98765c-0.15735,0.01882 -0.31639,0.01882 -0.47373,0c-30.24605,-8.59787 -35.69398,-27.00891 -35.96729,-27.78889c-0.01791,-0.1567 -0.01791,-0.31491 0,-0.47161v-51.20629c0.01408,-0.64136 0.36742,-1.22762 0.92925,-1.54181c0.58635,-0.28567 1.2814,-0.23723 1.82205,0.12697c12.48105,8.68856 24.57947,8.12625 32.34141,-1.46926c0.34617,-0.40299 0.85213,-0.635 1.38476,-0.635c0.53263,0 1.03859,0.23202 1.38476,0.635c7.76194,9.59551 19.84214,10.15782 32.35963,1.46926c0.5305,-0.39246 1.2418,-0.44202 1.82205,-0.12697c0.56183,0.31419 0.91516,0.90045 0.92925,1.54181v51.20629c0.01791,0.1567 0.01791,0.31491 0,0.47161c-0.21865,0.77998 -5.64836,19.26358 -35.94907,27.71633c-0.18966,0.05283 -0.38617,0.07728 -0.58306,0.07256zM3.49355,54.43516c0.65594,1.95901 6.75981,17.54038 32.9609,25.01363c26.27398,-7.49139 32.35963,-23.05462 33.03378,-25.01363v-47.74174c-14.43064,8.67042 -26.16465,4.8431 -33.03378,-2.3762c-6.85091,7.25558 -18.5667,11.04663 -32.99734,2.3762zM36.45445,60.93296c-0.46031,-0.00157 -0.90297,-0.17563 -1.23899,-0.48717l-15.88828,-15.75196c-0.63571,-0.40194 -0.95563,-1.15019 -0.80466,-1.88198c0.15097,-0.73179 0.74163,-1.29581 1.4856,-1.41862c0.74397,-0.12281 1.48743,0.221 1.86994,0.86473l14.43064,14.29043l19.71459,-28.3463c0.62922,-0.48857 1.50657,-0.51381 2.16337,-0.06224c0.6568,0.45156 0.93957,1.27442 0.69725,2.02898l-20.97181,30.02435c-0.30051,0.41396 -0.76384,0.6827 -1.27544,0.73978z" style="stroke-width: 0; stroke-linecap: butt; stroke-linejoin: miter; fill: rgb(0, 48, 88);" vector-effect="non-scaling-stroke"/></g><defs><path id="path-16013145458332593" d="M36.44839,82.98765c-0.15735,0.01882 -0.31639,0.01882 -0.47373,0c-30.24605,-8.59787 -35.69398,-27.00891 -35.96729,-27.78889c-0.01791,-0.1567 -0.01791,-0.31491 0,-0.47161v-51.20629c0.01408,-0.64136 0.36742,-1.22762 0.92925,-1.54181c0.58635,-0.28567 1.2814,-0.23723 1.82205,0.12697c12.48105,8.68856 24.57947,8.12625 32.34141,-1.46926c0.34617,-0.40299 0.85213,-0.635 1.38476,-0.635c0.53263,0 1.03859,0.23202 1.38476,0.635c7.76194,9.59551 19.84214,10.15782 32.35963,1.46926c0.5305,-0.39246 1.2418,-0.44202 1.82205,-0.12697c0.56183,0.31419 0.91516,0.90045 0.92925,1.54181v51.20629c0.01791,0.1567 0.01791,0.31491 0,0.47161c-0.21865,0.77998 -5.64836,19.26358 -35.94907,27.71633c-0.18966,0.05283 -0.38617,0.07728 -0.58306,0.07256zM3.49355,54.43516c0.65594,1.95901 6.75981,17.54038 32.9609,25.01363c26.27398,-7.49139 32.35963,-23.05462 33.03378,-25.01363v-47.74174c-14.43064,8.67042 -26.16465,4.8431 -33.03378,-2.3762c-6.85091,7.25558 -18.5667,11.04663 -32.99734,2.3762zM36.45445,60.93296c-0.46031,-0.00157 -0.90297,-0.17563 -1.23899,-0.48717l-15.88828,-15.75196c-0.63571,-0.40194 -0.95563,-1.15019 -0.80466,-1.88198c0.15097,-0.73179 0.74163,-1.29581 1.4856,-1.41862c0.74397,-0.12281 1.48743,0.221 1.86994,0.86473l14.43064,14.29043l19.71459,-28.3463c0.62922,-0.48857 1.50657,-0.51381 2.16337,-0.06224c0.6568,0.45156 0.93957,1.27442 0.69725,2.02898l-20.97181,30.02435c-0.30051,0.41396 -0.76384,0.6827 -1.27544,0.73978z" vector-effect="non-scaling-stroke"/></defs></g></svg>