<svg id="Layer_1" data-name="Layer 1" xmlns="http://www.w3.org/2000/svg" xmlns:xlink="http://www.w3.org/1999/xlink" viewBox="0 0 471.83 51.1"><defs><radialGradient id="radial-gradient" cx="20.05" cy="-3.85" r="82.13" gradientUnits="userSpaceOnUse"><stop offset="0" stop-color="#ec202b"/><stop offset="0.15" stop-color="#e2202a"/><stop offset="0.4" stop-color="#c51e26"/><stop offset="0.73" stop-color="#981c20"/><stop offset="1" stop-color="#6d1a1b"/></radialGradient><linearGradient id="New_Gradient_Swatch_7" x1="26.12" y1="9.16" x2="26.12" y2="41.21" gradientUnits="userSpaceOnUse"><stop offset="0.14" stop-color="#fff"/><stop offset="1" stop-color="#eaecea"/></linearGradient></defs><title>Advertising_Cloud</title><path d="M74.54,31.11l-3.4,9.56c-.09.17-.13.22-.35.22H68.43c-.22,0-.26-.09-.22-.31L77.95,13.7a3.73,3.73,0,0,0,.26-1.53.21.21,0,0,1,.22-.22h3.49c.17,0,.22,0,.26.17L92.52,40.58c0,.22,0,.31-.17.31H89.69c-.13,0-.22,0-.31-.22l-3.45-9.56Zm10.56-2.71c-1-2.84-4-11.17-4.84-14.1h0c-.79,2.79-3,8.9-4.84,14.1Z" transform="translate(-0.49 -0.35)" style="fill:#fff"/><path d="M92.52,30.5c0-6.42,4.8-11.08,11.65-11.08a12.28,12.28,0,0,1,3.14.31v-10c0-.17.09-.26.22-.26H110c.22,0,.22.09.22.26v28c0,.48,0,1.09.09,1.75,0,.17,0,.22-.17.31a15.63,15.63,0,0,1-7,1.57C97.15,41.33,92.52,37.66,92.52,30.5Zm14.79-8a8.53,8.53,0,0,0-3.23-.48c-5.41,0-8.55,3.71-8.55,8.38,0,6.07,3.88,8.33,7.9,8.33a10.52,10.52,0,0,0,3.88-.66Z" transform="translate(-0.49 -0.35)" style="fill:#fff"/><path d="M133.11,30.33c0,6.55-4,11-9.73,11-6.85,0-9.82-5.72-9.82-11,0-6.2,3.93-11,9.82-11S133.11,24,133.11,30.33Zm-16.58,0c0,4.63,2.49,8.47,7,8.47,3.23,0,6.63-2.53,6.63-8.34,0-4.28-2-8.42-6.9-8.42C119.23,22,116.52,25.35,116.52,30.29Z" transform="translate(-0.49 -0.35)" style="fill:#fff"/><path d="M139.21,9.47c.17,0,.26,0,.26.26V20.38a12.28,12.28,0,0,1,5-1c5.94,0,9.82,4.23,9.82,10.12,0,7.77-5.85,11.78-11.83,11.78a16.92,16.92,0,0,1-5.72-.87.33.33,0,0,1-.22-.35V9.73c0-.17,0-.26.22-.26ZM144.06,22a11,11,0,0,0-4.58.87V38.36a11.21,11.21,0,0,0,3.23.39c4.45,0,8.6-3,8.6-8.95C151.3,25.18,148.55,22,144.06,22Z" transform="translate(-0.49 -0.35)" style="fill:#fff"/><path d="M159.11,30.46c-.13,4.63,2.44,8.21,7.59,8.21a11.85,11.85,0,0,0,5.46-1.18c.13-.09.22,0,.22.17v2c0,.22-.09.31-.22.35a11.89,11.89,0,0,1-6,1.31c-7.38,0-10-5.5-10-10.78,0-6.16,3.53-11.13,9.38-11.13,6.15,0,8.29,5,8.29,8.55a10.29,10.29,0,0,1-.13,2.05c0,.17-.13.26-.31.31-.65.09-2.66.13-4.5.13ZM168,28.19a20.26,20.26,0,0,0,3-.09c0-.13,0-.39,0-.52a5.49,5.49,0,0,0-5.59-5.67c-3.88,0-5.85,3.05-6.28,6.28Z" transform="translate(-0.49 -0.35)" style="fill:#fff"/><path d="M189.52,31.11l-3.4,9.56c-.09.17-.13.22-.35.22h-2.36c-.22,0-.26-.09-.22-.31l9.73-26.88a3.73,3.73,0,0,0,.26-1.53.21.21,0,0,1,.22-.22h3.49c.17,0,.22,0,.26.17L207.5,40.58c0,.22,0,.31-.17.31h-2.66c-.13,0-.22,0-.31-.22l-3.45-9.56Zm10.56-2.71c-1-2.84-4-11.17-4.84-14.1h0c-.79,2.79-3,8.9-4.84,14.1Z" transform="translate(-0.49 -0.35)" style="fill:#fff"/><path d="M208.53,30.5c0-6.42,4.8-11.08,11.65-11.08a12.28,12.28,0,0,1,3.14.31v-10c0-.17.09-.26.22-.26H226c.22,0,.22.09.22.26v28c0,.48,0,1.09.09,1.75,0,.17,0,.22-.17.31a15.63,15.63,0,0,1-7,1.57C213.16,41.33,208.53,37.66,208.53,30.5Zm14.79-8a8.53,8.53,0,0,0-3.23-.48c-5.41,0-8.55,3.71-8.55,8.38,0,6.07,3.88,8.33,7.9,8.33a10.52,10.52,0,0,0,3.88-.66Z" transform="translate(-0.49 -0.35)" style="fill:#fff"/><path d="M237,40.89c-.22,0-.31-.09-.35-.22-.7-2-6.55-18.24-7.42-20.6,0-.13,0-.26.17-.26h2.66a.29.29,0,0,1,.31.22c3.93,11.43,5.67,16.41,6.2,18.2h0c.57-1.79,2.31-6.63,6.42-18.2.09-.18.13-.22.31-.22h2.4c.13,0,.22.13.17.31C246.84,23,241,38.66,240.29,40.67a.39.39,0,0,1-.35.22Z" transform="translate(-0.49 -0.35)" style="fill:#fff"/><path d="M251.76,30.46c-.13,4.63,2.44,8.21,7.59,8.21a11.85,11.85,0,0,0,5.46-1.18c.13-.09.22,0,.22.17v2c0,.22-.09.31-.22.35a11.89,11.89,0,0,1-6,1.31c-7.38,0-10-5.5-10-10.78,0-6.16,3.53-11.13,9.38-11.13,6.15,0,8.29,5,8.29,8.55a10.29,10.29,0,0,1-.13,2.05c0,.17-.13.26-.31.31-.65.09-2.66.13-4.5.13Zm8.86-2.27a20.26,20.26,0,0,0,3-.09c0-.13,0-.39,0-.52a5.49,5.49,0,0,0-5.59-5.67c-3.88,0-5.85,3.05-6.28,6.28Z" transform="translate(-0.49 -0.35)" style="fill:#fff"/><path d="M272.44,19.81c.22,0,.26.09.35.26a27.32,27.32,0,0,1,.31,3.19,9.1,9.1,0,0,1,7.07-3.84c.17,0,.26,0,.26.22v2.58c0,.17,0,.22-.26.22A8.45,8.45,0,0,0,273.23,26l0,14.67c0,.22,0,.26-.22.26h-2.49c-.22,0-.22-.09-.22-.26V25.53c0-1.79-.13-4.32-.26-5.46,0-.17,0-.26.17-.26Z" transform="translate(-0.49 -0.35)" style="fill:#fff"/><path d="M293.22,40.32c0,.18,0,.31-.17.35a7.14,7.14,0,0,1-3.14.66c-3,0-4.84-1.44-4.84-5.54V22.38H282c-.22,0-.26-.13-.26-.31v-2c0-.17,0-.26.26-.26h3.1a48,48,0,0,1,.39-5.67c0-.18.09-.26.22-.31l2.4-.39c.13,0,.26,0,.26.13-.17,1.57-.31,4.1-.31,6.24h4.76c.22,0,.26.09.26.31v2.05c0,.17-.09.22-.26.22H288V35.52c0,2.05.79,3.23,2.75,3.23a5.43,5.43,0,0,0,2.22-.44c.13,0,.22,0,.22.17Z" transform="translate(-0.49 -0.35)" style="fill:#fff"/><path d="M295.8,13.22a1.8,1.8,0,0,1,1.88-1.92,1.76,1.76,0,0,1,1.83,1.92,1.81,1.81,0,0,1-1.88,1.88A1.75,1.75,0,0,1,295.8,13.22Zm.39,6.85c0-.17,0-.26.22-.26h2.45c.17,0,.26,0,.26.26V40.63c0,.17,0,.26-.26.26H296.5c-.26,0-.31-.09-.31-.31Z" transform="translate(-0.49 -0.35)" style="fill:#fff"/><path d="M310,21.9c-3.1,0-4.19,1.57-4.19,3s.83,2.53,4.36,3.93c4.15,1.62,6,3.32,6,6.46,0,3.93-3.32,6-7.46,6A11.92,11.92,0,0,1,303,40.06c-.13-.13-.22-.17-.22-.39v-2.4c0-.22.13-.26.26-.17a10.12,10.12,0,0,0,5.76,1.7c3,0,4.49-1.4,4.49-3.23s-1.09-2.84-4.23-4.14c-4.15-1.62-6-3.32-6-6.33s2.57-5.67,7.07-5.67a11.1,11.1,0,0,1,4.93.92.41.41,0,0,1,.17.39V23c0,.22-.09.31-.26.18A10,10,0,0,0,310,21.9Z" transform="translate(-0.49 -0.35)" style="fill:#fff"/><path d="M319.42,13.22a1.8,1.8,0,0,1,1.88-1.92,1.76,1.76,0,0,1,1.83,1.92,1.81,1.81,0,0,1-1.88,1.88A1.75,1.75,0,0,1,319.42,13.22Zm.39,6.85c0-.17,0-.26.22-.26h2.45c.17,0,.26,0,.26.26V40.63c0,.17,0,.26-.26.26h-2.36c-.26,0-.31-.09-.31-.31Z" transform="translate(-0.49 -0.35)" style="fill:#fff"/><path d="M328.11,24.74c0-1.53-.13-4-.17-4.67,0-.17,0-.26.26-.26h2.14a.31.31,0,0,1,.35.26,17.43,17.43,0,0,1,.22,2.36,9.35,9.35,0,0,1,6.85-3c3,0,7,1.4,7,8.29V40.63c0,.17-.09.26-.31.26h-2.36c-.22,0-.31-.09-.31-.31V28c0-3.45-1.53-5.94-4.8-5.94a7.46,7.46,0,0,0-6,3.06V40.63c0,.17,0,.26-.26.26h-2.4c-.22,0-.26-.09-.26-.26Z" transform="translate(-0.49 -0.35)" style="fill:#fff"/><path d="M359.21,37.7c5.19.31,8.42,2.05,8.42,6.07,0,4.28-4.06,7.68-10.3,7.68s-9.38-3.36-9.38-6.63c0-1.53,1.27-3.54,4.32-6.11a5.39,5.39,0,0,1-1-3.23,5.47,5.47,0,0,1,.7-2.75A6.8,6.8,0,0,1,349,26.79c0-4.06,2.92-7.37,7.9-7.37a13.38,13.38,0,0,1,3.05.31,3.29,3.29,0,0,0,.87.09h6.24c.18,0,.22.09.22.26v2c0,.17,0,.26-.26.26-1.27,0-3.23,0-4.32-.13a6.24,6.24,0,0,1,1.79,4.63c0,4.8-3.49,7.25-7.68,7.25a10.23,10.23,0,0,1-2.62-.35,3.6,3.6,0,0,0-.31,1.79,3.82,3.82,0,0,0,.87,2Zm-5.1,2.4c-2.05,1.4-3.36,3.45-3.36,4.54,0,2.18,2.57,4.45,6.77,4.45,5.06,0,7.37-2.57,7.37-5,0-2.84-3-3.58-6.28-3.75Zm-2.23-13.36c0,2.92,1.75,5,4.93,5,3,0,4.85-1.79,4.85-5,0-2.71-1.48-5.1-4.8-5.1A4.77,4.77,0,0,0,351.87,26.75Z" transform="translate(-0.49 -0.35)" style="fill:#fff"/><path d="M399.75,40.1a.37.37,0,0,1-.22.39,15.13,15.13,0,0,1-5.8.83c-7,0-14.71-4-14.71-15,0-8.68,6.07-14.79,15.23-14.79a13.84,13.84,0,0,1,5.54.78c.13,0,.17.18.17.35V15c0,.26-.13.26-.26.17a12.61,12.61,0,0,0-5.59-1c-7.12,0-12.09,4.71-12.09,12,0,9.82,7.42,12.35,12,12.35a15,15,0,0,0,5.5-.74c.13-.09.26-.09.26.13Z" transform="translate(-0.49 -0.35)" style="fill:#fff"/><path d="M403.41,9.73c0-.22.09-.26.31-.26h2.4c.17,0,.22.13.22.26V36.61c0,1.79.74,2.18,1.79,2.18a3.85,3.85,0,0,0,.92-.13c.17,0,.17,0,.17.22v1.83c0,.22,0,.26-.17.35a6.05,6.05,0,0,1-1.83.26c-1.88,0-3.8-.66-3.8-4.5Z" transform="translate(-0.49 -0.35)" style="fill:#fff"/><path d="M430.28,30.33c0,6.55-4,11-9.73,11-6.85,0-9.82-5.72-9.82-11,0-6.2,3.93-11,9.82-11S430.28,24,430.28,30.33Zm-16.58,0c0,4.63,2.49,8.47,7,8.47,3.23,0,6.63-2.53,6.63-8.34,0-4.28-2-8.42-6.9-8.42C416.4,22,413.7,25.35,413.7,30.29Z" transform="translate(-0.49 -0.35)" style="fill:#fff"/><path d="M450.57,36.31a29,29,0,0,0,.22,4.32c0,.22,0,.26-.22.26H448.3a.24.24,0,0,1-.26-.22,11.92,11.92,0,0,1-.26-2,8.65,8.65,0,0,1-6.42,2.62c-3.53,0-7.16-1.7-7.16-8.12V20.07c0-.22,0-.26.26-.26h2.44c.18,0,.22.09.22.26V32.82c0,3.67,1.75,5.85,5,5.85a6.91,6.91,0,0,0,5.5-2.49V20.07c0-.17.09-.26.31-.26h2.45c.17,0,.22.09.22.26Z" transform="translate(-0.49 -0.35)" style="fill:#fff"/><path d="M454.52,30.5c0-6.42,4.8-11.08,11.65-11.08a12.28,12.28,0,0,1,3.14.31v-10c0-.17.09-.26.22-.26H472c.22,0,.22.09.22.26v28c0,.48,0,1.09.09,1.75,0,.17,0,.22-.18.31a15.61,15.61,0,0,1-7,1.57C459.14,41.33,454.52,37.66,454.52,30.5Zm14.79-8a8.53,8.53,0,0,0-3.23-.48c-5.41,0-8.55,3.71-8.55,8.38,0,6.07,3.88,8.33,7.9,8.33a10.52,10.52,0,0,0,3.89-.66Z" transform="translate(-0.49 -0.35)" style="fill:#fff"/><rect id="tile" width="51.38" height="50.1" style="fill:url(#radial-gradient)"/><path d="M44.6,25.5c0-9-6.48-16.34-14.44-16.34-7.78,0-14.13,7-14.43,15.7H7.65c0,9,6.48,16.35,14.44,16.35,7.78,0,14.14-7,14.43-15.71Zm-17.53,0C26,28.14,23,33.58,18,33.58c-4.44,0-7.47-3.22-7.65-8.07Zm-5,15.06c-5.79,0-10.75-4.07-12.8-9.83A9.48,9.48,0,0,0,18,35.93c4.82,0,9.16-3.89,11.59-10.4v0h6.27C35.58,33.86,29.51,40.57,22.08,40.57Zm7.77-15.71c1.65-4.13,3.46-5.76,6.29-5.76a5.78,5.78,0,0,1,5.63,5.76Zm6.29-8.12c-5.1,0-7.29,4-8.76,8l-.06.16h-11C16.66,16.5,22.74,9.8,30.16,9.8c6.63,0,12.18,5.34,13.5,12.43A7.93,7.93,0,0,0,36.15,16.74Z" transform="translate(-0.49 -0.35)" style="fill:url(#New_Gradient_Swatch_7)"/></svg>