<svg id="Layer_1" data-name="Layer 1" xmlns="http://www.w3.org/2000/svg" viewBox="0 0 483.07 51.8"><title>Availability</title><path d="M85.73,39.57a9.72,9.72,0,0,1-7.2,2.64H68.76V13.7h9.76q4.56,0,6.86,2.3a9,9,0,0,1,2.72,4.77,43.22,43.22,0,0,1,.42,6.87v1.52a31.73,31.73,0,0,1-.5,6.13A8.25,8.25,0,0,1,85.73,39.57ZM83.61,18.5a6.26,6.26,0,0,0-2.46-1.58,9.39,9.39,0,0,0-3.14-.5H71.8V39.5H78A9.66,9.66,0,0,0,81.14,39a6.44,6.44,0,0,0,2.54-1.72,6.14,6.14,0,0,0,1.5-3.53,49.23,49.23,0,0,0,.3-6.15V26.31A21.47,21.47,0,0,0,85,21.06,6.08,6.08,0,0,0,83.61,18.5Z" style="fill:#fff"/><path d="M95,16.86V13.62h3.24v3.24Zm.16,25.36V22.46H98V42.22Z" style="fill:#fff"/><path d="M111.61,51.22a9.66,9.66,0,0,1-3.62-.58,10.88,10.88,0,0,1-3.06-2.06l1.88-1.84A9,9,0,0,0,109,48.21a6.27,6.27,0,0,0,2.56.45A4.91,4.91,0,0,0,115.59,47a6.68,6.68,0,0,0,1.34-4.32V39.62a6.2,6.2,0,0,1-2.46,2,8,8,0,0,1-3.06.55,7.38,7.38,0,0,1-2.68-.48,6.93,6.93,0,0,1-2.34-1.56,6.56,6.56,0,0,1-1.62-3.18,19.77,19.77,0,0,1-.52-4.74,20.11,20.11,0,0,1,.5-4.8,6.49,6.49,0,0,1,1.58-3.08,6.57,6.57,0,0,1,2.37-1.56,8.52,8.52,0,0,1,5.8.06,6.32,6.32,0,0,1,2.43,2V22.5h2.88V42.78a8.56,8.56,0,0,1-2.2,6.08A7.81,7.81,0,0,1,111.61,51.22Zm.44-26.4q-2.88,0-3.9,2a12,12,0,0,0-1,5.35,12.14,12.14,0,0,0,1,5.38q1,2,3.92,2t3.9-2a12.34,12.34,0,0,0,1-5.4,12.33,12.33,0,0,0-1-5.39Q115,24.82,112.05,24.82Z" style="fill:#fff"/><path d="M126.86,16.86V13.62h3.24v3.24ZM127,42.22V22.46h2.88V42.22Z" style="fill:#fff"/><path d="M142.66,42.22a4.71,4.71,0,0,1-3.74-1.48,5.56,5.56,0,0,1-1.3-3.81V24.82h-2.48v-2.2h2.48V16.46h2.88v6.16h4.2v2.2h-4.2v12q0,2.89,2.68,2.89h1.52v2.48Z" style="fill:#fff"/><path d="M161.59,42.22V40.34a6.93,6.93,0,0,1-2.44,1.61,9.53,9.53,0,0,1-3.24.47,11.37,11.37,0,0,1-3.34-.4,6.16,6.16,0,0,1-2.48-1.64,5.16,5.16,0,0,1-1.22-3.76,5.21,5.21,0,0,1,1.76-4.16,7.49,7.49,0,0,1,5-1.52h5.92V29.06a4.19,4.19,0,0,0-1.17-3.26,5.64,5.64,0,0,0-3.83-1.06,7.28,7.28,0,0,0-3,.48A5.15,5.15,0,0,0,151.66,27l-2-1.8a6.74,6.74,0,0,1,2.86-2.3,11.39,11.39,0,0,1,4.1-.62q7.88,0,7.88,6.57V42.22Zm0-9.12h-5.52q-4.4,0-4.4,3.48t4.52,3.36a11.05,11.05,0,0,0,2.52-.24,4.27,4.27,0,0,0,1.94-1.14,4.59,4.59,0,0,0,.94-3.34Z" style="fill:#fff"/><path d="M176.39,42.22a4.74,4.74,0,0,1-3.74-1.42A5.56,5.56,0,0,1,171.39,37V13.7h2.88V36.85a3.39,3.39,0,0,0,.58,2.18,2.55,2.55,0,0,0,2.06.7h1.56v2.48Z" style="fill:#fff"/><path d="M210.2,42.22l-6.48-12.68h-6.84V42.22h-3V13.7h10.92a8.69,8.69,0,0,1,6.1,2.14,7.45,7.45,0,0,1,2.34,5.78,7.57,7.57,0,0,1-1.68,5,7.81,7.81,0,0,1-4.52,2.6l6.76,13Zm-5.72-25.8h-7.6V26.86h7.6a6.15,6.15,0,0,0,4.14-1.32,4.83,4.83,0,0,0,1.54-3.88,4.87,4.87,0,0,0-1.56-3.88A6.05,6.05,0,0,0,204.48,16.42Z" style="fill:#fff"/><path d="M219.4,16.86V13.62h3.24v3.24Zm.16,25.36V22.46h2.88V42.22Z" style="fill:#fff"/><path d="M236.29,42.22h-2.56l-7.2-19.72h3.11L235,38.32l5.43-15.82h3.11Z" style="fill:#fff"/><path d="M249.37,33.1a7.49,7.49,0,0,0,1.5,5,5.32,5.32,0,0,0,4.3,1.77,7,7,0,0,0,2.8-.49,8.16,8.16,0,0,0,2.36-1.71l2,1.72a11.12,11.12,0,0,1-3.18,2.32,9.73,9.73,0,0,1-4,.72,8.12,8.12,0,0,1-6.32-2.5q-2.28-2.5-2.28-7.58,0-4.76,2.14-7.42a7.2,7.2,0,0,1,5.94-2.66,7.35,7.35,0,0,1,5.94,2.54,10.5,10.5,0,0,1,2.14,7V33.1Zm9.8-5.44a4.61,4.61,0,0,0-1.8-2.16,5.06,5.06,0,0,0-2.8-.8,5,5,0,0,0-2.78.8,4.33,4.33,0,0,0-1.68,1.86,8.67,8.67,0,0,0-.6,1.82,9.77,9.77,0,0,0-.14,1.76h10.4a11.08,11.08,0,0,0-.1-1.76A7.83,7.83,0,0,0,259.17,27.66Z" style="fill:#fff"/><path d="M279.78,26.26a5.17,5.17,0,0,0-1.54-1.12,4.71,4.71,0,0,0-1.86-.32,4.3,4.3,0,0,0-3.42,1.5,5.58,5.58,0,0,0-1.3,3.79V42.22h-2.88V22.5h2.88v2.4A5.6,5.6,0,0,1,274,23a7.36,7.36,0,0,1,3.22-.72,7.7,7.7,0,0,1,2.58.38,6,6,0,0,1,2.14,1.46Z" style="fill:#fff"/><path d="M312.67,42.23l-2.25-6.49H298l-2.34,6.48h-3.24L302.94,13.7h2.56l10.44,28.52Zm-8.41-24.12-5.34,15h10.61Z" style="fill:#fff"/><path d="M326.63,42.22h-2.56l-7.2-19.72H320l5.35,15.82,5.43-15.82h3.11Z" style="fill:#fff"/><path d="M349.08,42.22V40.34a6.93,6.93,0,0,1-2.44,1.61,9.53,9.53,0,0,1-3.24.47,11.37,11.37,0,0,1-3.34-.4,6.16,6.16,0,0,1-2.48-1.64,5.16,5.16,0,0,1-1.22-3.76,5.21,5.21,0,0,1,1.76-4.16,7.49,7.49,0,0,1,5-1.52h5.92V29.06a4.19,4.19,0,0,0-1.17-3.26,5.64,5.64,0,0,0-3.83-1.06,7.28,7.28,0,0,0-3,.48A5.15,5.15,0,0,0,339.15,27l-2-1.8a6.74,6.74,0,0,1,2.86-2.3,11.39,11.39,0,0,1,4.1-.62q7.88,0,7.88,6.57V42.22Zm0-9.12h-5.52q-4.4,0-4.4,3.48t4.52,3.36a11.05,11.05,0,0,0,2.52-.24,4.27,4.27,0,0,0,1.94-1.14,4.59,4.59,0,0,0,.94-3.34Z" style="fill:#fff"/><path d="M358.8,16.86V13.62H362v3.24ZM359,42.22V22.46h2.88V42.22Z" style="fill:#fff"/><path d="M374,42.22a4.74,4.74,0,0,1-3.74-1.42A5.56,5.56,0,0,1,369,37V13.7h2.88V36.85a3.39,3.39,0,0,0,.58,2.18,2.55,2.55,0,0,0,2.06.7h1.56v2.48Z" style="fill:#fff"/><path d="M392.13,42.22V40.34a6.93,6.93,0,0,1-2.44,1.61,9.53,9.53,0,0,1-3.24.47,11.37,11.37,0,0,1-3.34-.4,6.16,6.16,0,0,1-2.48-1.64,5.16,5.16,0,0,1-1.22-3.76,5.21,5.21,0,0,1,1.76-4.16,7.49,7.49,0,0,1,5-1.52h5.92V29.06A4.19,4.19,0,0,0,391,25.8a5.64,5.64,0,0,0-3.83-1.06,7.28,7.28,0,0,0-3,.48A5.15,5.15,0,0,0,382.21,27l-2-1.8a6.74,6.74,0,0,1,2.86-2.3,11.39,11.39,0,0,1,4.1-.62q7.88,0,7.88,6.57V42.22Zm0-9.12h-5.52q-4.4,0-4.4,3.48t4.52,3.36a11.05,11.05,0,0,0,2.52-.24,4.27,4.27,0,0,0,1.94-1.14,4.59,4.59,0,0,0,.94-3.34Z" style="fill:#fff"/><path d="M415.25,40.7a5.6,5.6,0,0,1-2.06,1.24,7.84,7.84,0,0,1-2.74.48,7.94,7.94,0,0,1-3.08-.55,6.38,6.38,0,0,1-2.48-2v2.36H402V13.7h2.88V24.78a6.28,6.28,0,0,1,2.48-2,8,8,0,0,1,3.08-.56,6.3,6.3,0,0,1,4.64,1.56,7.57,7.57,0,0,1,2.06,3.64,21,21,0,0,1,.5,4.88,21.07,21.07,0,0,1-.5,4.86A7.19,7.19,0,0,1,415.25,40.7Zm-5.4-15.88q-2.92,0-3.94,2a12.37,12.37,0,0,0-1,5.48,12.52,12.52,0,0,0,1,5.52q1,2,4,2t3.9-2a12.36,12.36,0,0,0,1-5.48,12.53,12.53,0,0,0-1-5.52Q412.77,24.82,409.85,24.82Z" style="fill:#fff"/><path d="M423.66,16.86V13.62h3.24v3.24Zm.16,25.36V22.46h2.88V42.22Z" style="fill:#fff"/><path d="M438.86,42.22a4.74,4.74,0,0,1-3.74-1.42A5.56,5.56,0,0,1,433.86,37V13.7h2.88V36.85a3.39,3.39,0,0,0,.58,2.18,2.55,2.55,0,0,0,2.06.7h1.56v2.48Z" style="fill:#fff"/><path d="M445.66,16.86V13.62h3.24v3.24Zm.16,25.36V22.46h2.88V42.22Z" style="fill:#fff"/><path d="M461.47,42.22a4.71,4.71,0,0,1-3.74-1.48,5.56,5.56,0,0,1-1.3-3.81V24.82h-2.48v-2.2h2.48V16.46h2.88v6.16h4.2v2.2h-4.2v12q0,2.89,2.68,2.89h1.52v2.48Z" style="fill:#fff"/><path d="M474.11,46.94a5.88,5.88,0,0,1-1.34,2.3A4.58,4.58,0,0,1,471,50.3a7,7,0,0,1-2.1.32h-1.24V48.06h.88a3.37,3.37,0,0,0,2.09-.5,4.44,4.44,0,0,0,1.14-1.94l1.41-3.84L466.07,22.5h3.11l5.42,15.79L480,22.5h3.11Z" style="fill:#fff"/><rect width="51.8" height="51.8" style="fill:#00a7e1"/><path d="M42.83,26.18l-3.75-5.63h0a.62.62,0,0,0-.34-.26l-9-2.58,1.82-2a.63.63,0,0,0-.47-1h-2.5V10.27a.62.62,0,0,0-.62-.62h-5a.62.62,0,0,0-.62.62v4.38h-2.5a.62.62,0,0,0-.46,1l.56.62-.07,0,.4.34.94,1-9,2.58a.62.62,0,0,0-.34.26h0L8,26.18a.62.62,0,0,0,.32.94l3.32,1.11v9.55a.62.62,0,0,0,.45.6l13.13,3.75.17,0,.17,0,13.12-3.75a.63.63,0,0,0,.45-.6V28.22l3.32-1.11a.62.62,0,0,0,.32-.94Zm-33.3,0,3-4.56L24.48,25,21.4,30.15ZM24.71,40.67l.1-1.22v1.24ZM25.43,24,14.58,20.9l7.51-2.15L25,21.94a.63.63,0,0,0,.93,0l2.87-3.19,7.51,2.15Zm12.5,13.3L26.06,40.69V26.9l2.59,4.32a.63.63,0,0,0,.73.27l8.55-2.85Zm-8.47-7.15L26.39,25l11.9-3.4,3,4.56Z" style="fill:#fff"/></svg>