<svg id="Layer_1" data-name="Layer 1" xmlns="http://www.w3.org/2000/svg" viewBox="0 0 597.06 51.8"><title>Creative_Services</title><path d="M85.56,39.82a9.72,9.72,0,0,1-7.2,2.64H68.6V13.94h9.76q4.56,0,6.86,2.3A9,9,0,0,1,87.94,21a43.22,43.22,0,0,1,.42,6.87v1.52a31.69,31.69,0,0,1-.5,6.13A8.24,8.24,0,0,1,85.56,39.82ZM83.44,18.75A6.25,6.25,0,0,0,81,17.17a9.39,9.39,0,0,0-3.14-.5h-6.2V39.74h6.2A9.66,9.66,0,0,0,81,39.28a6.44,6.44,0,0,0,2.54-1.72A6.14,6.14,0,0,0,85,34a49.22,49.22,0,0,0,.3-6.15V26.56a21.43,21.43,0,0,0-.44-5.25A6.06,6.06,0,0,0,83.44,18.75Z" style="fill:#fff"/><path d="M94.85,17.1V13.86h3.24V17.1ZM95,42.46V22.7h2.88V42.46Z" style="fill:#fff"/><path d="M111.45,51.46a9.66,9.66,0,0,1-3.62-.58,10.9,10.9,0,0,1-3.06-2.06L106.65,47a9,9,0,0,0,2.16,1.47,6.27,6.27,0,0,0,2.56.45,4.9,4.9,0,0,0,4.06-1.67,6.68,6.68,0,0,0,1.34-4.32V39.86a6.2,6.2,0,0,1-2.46,2,8,8,0,0,1-3.06.55,7.38,7.38,0,0,1-2.68-.48,6.93,6.93,0,0,1-2.34-1.56,6.56,6.56,0,0,1-1.62-3.18,19.75,19.75,0,0,1-.52-4.74,20.08,20.08,0,0,1,.5-4.8,6.49,6.49,0,0,1,1.58-3.08A6.57,6.57,0,0,1,108.54,23a8.51,8.51,0,0,1,5.8.06,6.32,6.32,0,0,1,2.43,2V22.74h2.88V43a8.56,8.56,0,0,1-2.2,6.08A7.81,7.81,0,0,1,111.45,51.46Zm.44-26.4q-2.88,0-3.9,2a12,12,0,0,0-1,5.35,12.14,12.14,0,0,0,1,5.38q1,2,3.92,2t3.9-2a12.34,12.34,0,0,0,1-5.4,12.33,12.33,0,0,0-1-5.39Q114.81,25.06,111.89,25.06Z" style="fill:#fff"/><path d="M126.69,17.1V13.86h3.24V17.1Zm.16,25.36V22.7h2.88V42.46Z" style="fill:#fff"/><path d="M142.5,42.46A4.71,4.71,0,0,1,138.76,41a5.57,5.57,0,0,1-1.3-3.81V25.06H135v-2.2h2.48V16.7h2.88v6.16h4.2v2.2h-4.2v12Q140.34,40,143,40h1.52v2.48Z" style="fill:#fff"/><path d="M161.42,42.46V40.58A6.92,6.92,0,0,1,159,42.19a9.54,9.54,0,0,1-3.24.47,11.36,11.36,0,0,1-3.34-.4,6.16,6.16,0,0,1-2.48-1.64,5.16,5.16,0,0,1-1.22-3.76,5.21,5.21,0,0,1,1.76-4.16,7.49,7.49,0,0,1,5-1.52h5.92V29.3A4.19,4.19,0,0,0,160.25,26,5.64,5.64,0,0,0,156.42,25a7.28,7.28,0,0,0-3,.48,5.17,5.17,0,0,0-1.94,1.76l-2-1.8a6.74,6.74,0,0,1,2.86-2.3,11.4,11.4,0,0,1,4.1-.62q7.88,0,7.88,6.57V42.46Zm0-9.12H155.9q-4.4,0-4.4,3.48T156,40.18a11,11,0,0,0,2.52-.24,4.28,4.28,0,0,0,1.94-1.14,4.59,4.59,0,0,0,.94-3.34Z" style="fill:#fff"/><path d="M176.23,42.46A4.74,4.74,0,0,1,172.49,41a5.56,5.56,0,0,1-1.26-3.83V13.94h2.88V37.1a3.39,3.39,0,0,0,.58,2.18,2.55,2.55,0,0,0,2.06.7h1.56v2.48Z" style="fill:#fff"/><path d="M210,42.47l-6.48-12.68h-6.84V42.46h-3V13.94H204.6a8.69,8.69,0,0,1,6.1,2.14A7.45,7.45,0,0,1,213,21.86a7.57,7.57,0,0,1-1.68,5,7.81,7.81,0,0,1-4.52,2.6l6.76,13Zm-5.72-25.8h-7.6V27.1h7.6a6.15,6.15,0,0,0,4.14-1.32A4.83,4.83,0,0,0,210,21.9,4.87,4.87,0,0,0,208.44,18,6,6,0,0,0,204.31,16.66Z" style="fill:#fff"/><path d="M219.24,17.1V13.86h3.24V17.1Zm.16,25.36V22.7h2.88V42.46Z" style="fill:#fff"/><path d="M236.12,42.46h-2.56l-7.2-19.72h3.11l5.35,15.82,5.43-15.82h3.11Z" style="fill:#fff"/><path d="M249.21,33.34a7.49,7.49,0,0,0,1.5,5A5.32,5.32,0,0,0,255,40.1a7,7,0,0,0,2.8-.49,8.18,8.18,0,0,0,2.36-1.71l2,1.72A11.12,11.12,0,0,1,259,41.94a9.73,9.73,0,0,1-4,.72,8.12,8.12,0,0,1-6.32-2.5q-2.28-2.5-2.28-7.58,0-4.76,2.14-7.42a7.2,7.2,0,0,1,5.94-2.66A7.35,7.35,0,0,1,260.35,25a10.5,10.5,0,0,1,2.14,7v1.32ZM259,27.9a4.6,4.6,0,0,0-1.8-2.16,5.06,5.06,0,0,0-2.8-.8,5,5,0,0,0-2.78.8,4.33,4.33,0,0,0-1.68,1.86,8.71,8.71,0,0,0-.6,1.82,9.77,9.77,0,0,0-.14,1.76h10.4a11.1,11.1,0,0,0-.1-1.76A7.9,7.9,0,0,0,259,27.9Z" style="fill:#fff"/><path d="M279.62,26.5a5.16,5.16,0,0,0-1.54-1.12,4.72,4.72,0,0,0-1.86-.32,4.3,4.3,0,0,0-3.42,1.5,5.58,5.58,0,0,0-1.3,3.79V42.46h-2.88V22.74h2.88v2.4a5.59,5.59,0,0,1,2.3-1.92A7.35,7.35,0,0,1,277,22.5a7.7,7.7,0,0,1,2.58.38,6,6,0,0,1,2.14,1.46Z" style="fill:#fff"/><path d="M304.82,42.66a9.09,9.09,0,0,1-6.72-2.4,9.25,9.25,0,0,1-2.82-4.68,45.74,45.74,0,0,1-.42-7.4q0-4.24.24-6.78a8.59,8.59,0,0,1,2.82-5.12,9.33,9.33,0,0,1,6.9-2.58,9.74,9.74,0,0,1,6.52,2.24,10.25,10.25,0,0,1,3.36,6.24h-3.12A7.69,7.69,0,0,0,309.24,18a6.43,6.43,0,0,0-4.42-1.54,6.17,6.17,0,0,0-4.62,1.66,6.81,6.81,0,0,0-2,3.52,42.5,42.5,0,0,0-.34,6.58,42.56,42.56,0,0,0,.34,6.56,6.8,6.8,0,0,0,2,3.54,6.17,6.17,0,0,0,4.62,1.66,6.58,6.58,0,0,0,4.46-1.54,7.58,7.58,0,0,0,2.38-4.22h3a10.09,10.09,0,0,1-3.34,6.22A9.76,9.76,0,0,1,304.82,42.66Z" style="fill:#fff"/><path d="M331.91,26.5a5.16,5.16,0,0,0-1.54-1.12,4.72,4.72,0,0,0-1.86-.32,4.3,4.3,0,0,0-3.42,1.5,5.58,5.58,0,0,0-1.3,3.79V42.46h-2.88V22.74h2.88v2.4a5.59,5.59,0,0,1,2.3-1.92,7.35,7.35,0,0,1,3.22-.72,7.7,7.7,0,0,1,2.58.38A6,6,0,0,1,334,24.34Z" style="fill:#fff"/><path d="M339.55,33.34a7.49,7.49,0,0,0,1.5,5,5.32,5.32,0,0,0,4.3,1.77,7,7,0,0,0,2.8-.49,8.18,8.18,0,0,0,2.36-1.71l2,1.72a11.12,11.12,0,0,1-3.18,2.32,9.73,9.73,0,0,1-4,.72,8.12,8.12,0,0,1-6.32-2.5q-2.28-2.5-2.28-7.58,0-4.76,2.14-7.42a7.2,7.2,0,0,1,5.94-2.66A7.35,7.35,0,0,1,350.7,25a10.5,10.5,0,0,1,2.14,7v1.32Zm9.8-5.44a4.6,4.6,0,0,0-1.8-2.16,5.06,5.06,0,0,0-2.8-.8,5,5,0,0,0-2.78.8,4.33,4.33,0,0,0-1.68,1.86,8.71,8.71,0,0,0-.6,1.82,9.77,9.77,0,0,0-.14,1.76H350a11.1,11.1,0,0,0-.1-1.76A7.9,7.9,0,0,0,349.35,27.9Z" style="fill:#fff"/><path d="M370.12,42.46V40.58a6.92,6.92,0,0,1-2.44,1.61,9.54,9.54,0,0,1-3.24.47,11.36,11.36,0,0,1-3.34-.4,6.16,6.16,0,0,1-2.48-1.64,5.16,5.16,0,0,1-1.22-3.76,5.21,5.21,0,0,1,1.76-4.16,7.49,7.49,0,0,1,5-1.52h5.92V29.3A4.19,4.19,0,0,0,368.95,26,5.64,5.64,0,0,0,365.12,25a7.28,7.28,0,0,0-3,.48,5.17,5.17,0,0,0-1.94,1.76l-2-1.8a6.74,6.74,0,0,1,2.86-2.3,11.4,11.4,0,0,1,4.1-.62q7.88,0,7.88,6.57V42.46Zm0-9.12H364.6q-4.4,0-4.4,3.48t4.52,3.36a11,11,0,0,0,2.52-.24,4.28,4.28,0,0,0,1.94-1.14,4.59,4.59,0,0,0,.94-3.34Z" style="fill:#fff"/><path d="M385.52,42.46A4.71,4.71,0,0,1,381.78,41a5.57,5.57,0,0,1-1.3-3.81V25.06H378v-2.2h2.48V16.7h2.88v6.16h4.2v2.2h-4.2v12Q383.36,40,386,40h1.52v2.48Z" style="fill:#fff"/><path d="M393.13,17.1V13.86h3.24V17.1Zm.16,25.36V22.7h2.88V42.46Z" style="fill:#fff"/><path d="M410,42.46h-2.56l-7.2-19.72h3.11l5.35,15.82,5.43-15.82h3.11Z" style="fill:#fff"/><path d="M423.09,33.34a7.49,7.49,0,0,0,1.5,5,5.32,5.32,0,0,0,4.3,1.77,7,7,0,0,0,2.8-.49,8.18,8.18,0,0,0,2.36-1.71l2,1.72a11.12,11.12,0,0,1-3.18,2.32,9.73,9.73,0,0,1-4,.72,8.12,8.12,0,0,1-6.32-2.5q-2.28-2.5-2.28-7.58,0-4.76,2.14-7.42a7.2,7.2,0,0,1,5.94-2.66A7.35,7.35,0,0,1,434.24,25a10.5,10.5,0,0,1,2.14,7v1.32Zm9.8-5.44a4.6,4.6,0,0,0-1.8-2.16,5.06,5.06,0,0,0-2.8-.8,5,5,0,0,0-2.78.8,4.33,4.33,0,0,0-1.68,1.86,8.71,8.71,0,0,0-.6,1.82,9.77,9.77,0,0,0-.14,1.76h10.4a11.1,11.1,0,0,0-.1-1.76A7.9,7.9,0,0,0,432.9,27.9Z" style="fill:#fff"/><path d="M460.3,42.66a15.49,15.49,0,0,1-5.48-.84,12.39,12.39,0,0,1-4.28-2.92l2.08-2.08a10.44,10.44,0,0,0,3.5,2.42,11.64,11.64,0,0,0,4.26.7,7.82,7.82,0,0,0,4.92-1.4,4.64,4.64,0,0,0,1.8-3.88,4.2,4.2,0,0,0-1-3.24,5.89,5.89,0,0,0-1.78-1.16,13.5,13.5,0,0,0-2.3-.52l-3.32-.52a10.6,10.6,0,0,1-5.4-2.32,6.51,6.51,0,0,1-2-5.16,7.45,7.45,0,0,1,2.46-5.84,9.63,9.63,0,0,1,6.66-2.2,13.42,13.42,0,0,1,4.66.72,12.14,12.14,0,0,1,3.82,2.4l-2,2A9.4,9.4,0,0,0,464,17a10.23,10.23,0,0,0-3.74-.62,6.38,6.38,0,0,0-4.42,1.42,4.93,4.93,0,0,0-1.58,3.86,3.78,3.78,0,0,0,1,3,7.29,7.29,0,0,0,2,1.24,10.79,10.79,0,0,0,2.16.62l3.12.48a14.27,14.27,0,0,1,3.12.74,10.88,10.88,0,0,1,2.82,1.88q1.66,1.42,1.66,5a7.23,7.23,0,0,1-2.66,5.9A11,11,0,0,1,460.3,42.66Z" style="fill:#fff"/><path d="M477.79,33.34a7.49,7.49,0,0,0,1.5,5,5.32,5.32,0,0,0,4.3,1.77,7,7,0,0,0,2.8-.49,8.18,8.18,0,0,0,2.36-1.71l2,1.72a11.12,11.12,0,0,1-3.18,2.32,9.73,9.73,0,0,1-4,.72,8.12,8.12,0,0,1-6.32-2.5q-2.28-2.5-2.28-7.58,0-4.76,2.14-7.42A7.2,7.2,0,0,1,483,22.5,7.35,7.35,0,0,1,488.93,25a10.5,10.5,0,0,1,2.14,7v1.32Zm9.8-5.44a4.6,4.6,0,0,0-1.8-2.16,5.06,5.06,0,0,0-2.8-.8,5,5,0,0,0-2.78.8,4.33,4.33,0,0,0-1.68,1.86,8.71,8.71,0,0,0-.6,1.82,9.77,9.77,0,0,0-.14,1.76h10.4a11.1,11.1,0,0,0-.1-1.76A7.9,7.9,0,0,0,487.59,27.9Z" style="fill:#fff"/><path d="M508.2,26.5a5.16,5.16,0,0,0-1.54-1.12,4.72,4.72,0,0,0-1.86-.32,4.3,4.3,0,0,0-3.42,1.5,5.58,5.58,0,0,0-1.3,3.79V42.46H497.2V22.74h2.88v2.4a5.59,5.59,0,0,1,2.3-1.92,7.35,7.35,0,0,1,3.22-.72,7.7,7.7,0,0,1,2.58.38,6,6,0,0,1,2.14,1.46Z" style="fill:#fff"/><path d="M520.64,42.46h-2.56l-7.2-19.72H514l5.35,15.82,5.43-15.82h3.11Z" style="fill:#fff"/><path d="M531.76,17.1V13.86H535V17.1Zm.16,25.36V22.7h2.88V42.46Z" style="fill:#fff"/><path d="M549.69,42.66A8.2,8.2,0,0,1,543.41,40Q541,37.42,541,32.58t2.42-7.48a8.22,8.22,0,0,1,6.3-2.6,8.73,8.73,0,0,1,3.52.62,9.49,9.49,0,0,1,3,2.3l-2,1.84a7.25,7.25,0,0,0-2.12-1.72,5.5,5.5,0,0,0-2.4-.48,5,5,0,0,0-4.42,2,9.41,9.41,0,0,0-1.42,5.5,13.91,13.91,0,0,0,.28,3.08,8.54,8.54,0,0,0,1.42,2.82q1.14,1.62,4.14,1.62a5.36,5.36,0,0,0,2.4-.48,7.74,7.74,0,0,0,2.12-1.76l2,1.88a9.39,9.39,0,0,1-3,2.28A8.65,8.65,0,0,1,549.69,42.66Z" style="fill:#fff"/><path d="M563.45,33.34a7.49,7.49,0,0,0,1.5,5,5.32,5.32,0,0,0,4.3,1.77,7,7,0,0,0,2.8-.49,8.18,8.18,0,0,0,2.36-1.71l2,1.72a11.12,11.12,0,0,1-3.18,2.32,9.73,9.73,0,0,1-4,.72,8.12,8.12,0,0,1-6.32-2.5q-2.28-2.5-2.28-7.58,0-4.76,2.14-7.42a7.2,7.2,0,0,1,5.94-2.66A7.35,7.35,0,0,1,574.6,25a10.5,10.5,0,0,1,2.14,7v1.32Zm9.8-5.44a4.6,4.6,0,0,0-1.8-2.16,5.06,5.06,0,0,0-2.8-.8,5,5,0,0,0-2.78.8,4.33,4.33,0,0,0-1.68,1.86,8.71,8.71,0,0,0-.6,1.82,9.77,9.77,0,0,0-.14,1.76h10.4a11.1,11.1,0,0,0-.1-1.76A7.9,7.9,0,0,0,573.26,27.9Z" style="fill:#fff"/><path d="M589.06,42.66a14.29,14.29,0,0,1-4.52-.65A9.58,9.58,0,0,1,581,39.85l1.92-1.9a6.57,6.57,0,0,0,2.64,1.71,10.55,10.55,0,0,0,3.48.53,7.32,7.32,0,0,0,3.88-.85,2.87,2.87,0,0,0,1.36-2.6q0-2.58-3.28-2.86l-3.24-.28a6.2,6.2,0,0,1-4.36-1.41,5,5,0,0,1-1.52-3.89,5.06,5.06,0,0,1,2-4.23,8.34,8.34,0,0,1,5.24-1.55,10.89,10.89,0,0,1,7.08,2.12L594.3,26.5a8.39,8.39,0,0,0-5.24-1.56,5.39,5.39,0,0,0-3.28.85,2.85,2.85,0,0,0-1.12,2.42,2.81,2.81,0,0,0,.8,2.13,3.75,3.75,0,0,0,2.64.76l3.16.28a7.78,7.78,0,0,1,4.3,1.46,4.66,4.66,0,0,1,1.5,3.85,5.14,5.14,0,0,1-2.16,4.41A9.72,9.72,0,0,1,589.06,42.66Z" style="fill:#fff"/><rect width="51.8" height="51.8" style="fill:#00a7e1"/><path d="M10.61,39.1a11.1,11.1,0,0,0-1.44-1.21L8.4,40.77c-.11.4.13.65.54.54l2.88-.77A11.28,11.28,0,0,0,10.61,39.1Z" style="fill:#fff"/><path d="M29.74,20A7.77,7.77,0,0,1,32,23.62l2.11-2.11c.74-.74,0-2.66-1.63-4.3s-3.56-2.36-4.29-1.62L26.09,17.7A7.74,7.74,0,0,1,29.74,20Z" style="fill:#fff"/><path d="M11.59,38.12A10.81,10.81,0,0,1,13.12,40l3.4-.91a7.67,7.67,0,0,0-2.26-3.66,7.66,7.66,0,0,0-3.66-2.26l-.91,3.4A10.7,10.7,0,0,1,11.59,38.12Z" style="fill:#fff"/><path d="M15.12,34.59a10,10,0,0,1,2.39,3.54L31.14,24.49a7.69,7.69,0,0,0-2.26-3.66,7.7,7.7,0,0,0-3.65-2.26L11.58,32.21A10,10,0,0,1,15.12,34.59Z" style="fill:#fff"/><path d="M13.39,27.94,8.19,33.15V6.08c0-.48.28-.59.61-.25l4.28,4.28-1.13,1.12a.87.87,0,0,0,1.23,1.23l1.12-1.12,1.23,1.23.86.86,1.23,1.23-1.13,1.12A.87.87,0,1,0,17.72,17l1.13-1.12,1.23,1.23.86.86,1.23,1.23L18.44,22.9l-5-5ZM43.66,40.69l-4.05-4.05-1.12,1.12a.87.87,0,0,1-1.23-1.23l1.13-1.12-1.23-1.23-.86-.86L35.07,32.1l-1.12,1.12A.87.87,0,1,1,32.72,32l1.12-1.13-1.23-1.23-.86-.86-1.23-1.23-3.72,3.71,5,5H21.84l-5.07,5.07H43.4C43.88,41.31,44,41,43.66,40.69Z" style="fill:#fff"/></svg>