<svg id="Layer_1" data-name="Layer 1" xmlns="http://www.w3.org/2000/svg" viewBox="0 0 629.67 51.8"><title>Sales_Managmenet</title><path d="M85.77,39.6a9.72,9.72,0,0,1-7.2,2.64H68.8V13.73h9.76q4.56,0,6.86,2.3a9,9,0,0,1,2.72,4.77,43.22,43.22,0,0,1,.42,6.87v1.52a31.73,31.73,0,0,1-.5,6.13A8.25,8.25,0,0,1,85.77,39.6ZM83.65,18.53a6.26,6.26,0,0,0-2.46-1.58,9.39,9.39,0,0,0-3.14-.5h-6.2V39.53H78a9.66,9.66,0,0,0,3.14-.46,6.44,6.44,0,0,0,2.54-1.72,6.14,6.14,0,0,0,1.5-3.53,49.23,49.23,0,0,0,.3-6.15V26.34a21.47,21.47,0,0,0-.44-5.25A6.08,6.08,0,0,0,83.65,18.53Z" style="fill:#fff"/><path d="M95,16.89V13.65h3.24v3.24Zm.16,25.36V22.49h2.88V42.25Z" style="fill:#fff"/><path d="M111.65,51.25a9.66,9.66,0,0,1-3.62-.58A10.88,10.88,0,0,1,105,48.61l1.88-1.84A9,9,0,0,0,109,48.24a6.27,6.27,0,0,0,2.56.45A4.91,4.91,0,0,0,115.63,47,6.68,6.68,0,0,0,117,42.7V39.65a6.2,6.2,0,0,1-2.46,2,8,8,0,0,1-3.06.55,7.38,7.38,0,0,1-2.68-.48,6.93,6.93,0,0,1-2.34-1.56,6.56,6.56,0,0,1-1.62-3.18,19.77,19.77,0,0,1-.52-4.74,20.11,20.11,0,0,1,.5-4.8,6.49,6.49,0,0,1,1.58-3.08,6.57,6.57,0,0,1,2.37-1.56,8.52,8.52,0,0,1,5.8.06,6.32,6.32,0,0,1,2.43,2V22.53h2.88V42.81a8.56,8.56,0,0,1-2.2,6.08A7.81,7.81,0,0,1,111.65,51.25Zm.44-26.4q-2.88,0-3.9,2a12,12,0,0,0-1,5.35,12.14,12.14,0,0,0,1,5.38q1,2,3.92,2t3.9-2a12.34,12.34,0,0,0,1-5.4,12.33,12.33,0,0,0-1-5.39Q115,24.85,112.09,24.85Z" style="fill:#fff"/><path d="M126.9,16.89V13.65h3.24v3.24Zm.16,25.36V22.49h2.88V42.25Z" style="fill:#fff"/><path d="M142.7,42.25A4.71,4.71,0,0,1,139,40.76a5.56,5.56,0,0,1-1.3-3.81V24.85h-2.48v-2.2h2.48V16.49h2.88v6.16h4.2v2.2h-4.2v12q0,2.89,2.68,2.89h1.52v2.48Z" style="fill:#fff"/><path d="M161.63,42.25V40.37A6.93,6.93,0,0,1,159.18,42a9.53,9.53,0,0,1-3.24.47,11.37,11.37,0,0,1-3.34-.4,6.16,6.16,0,0,1-2.48-1.64,5.16,5.16,0,0,1-1.22-3.76,5.21,5.21,0,0,1,1.76-4.16,7.49,7.49,0,0,1,5-1.52h5.92V29.09a4.19,4.19,0,0,0-1.17-3.26,5.64,5.64,0,0,0-3.83-1.06,7.28,7.28,0,0,0-3,.48A5.15,5.15,0,0,0,151.7,27l-2-1.8a6.74,6.74,0,0,1,2.86-2.3,11.39,11.39,0,0,1,4.1-.62q7.88,0,7.88,6.57V42.25Zm0-9.12H156.1q-4.4,0-4.4,3.48T156.22,40a11.05,11.05,0,0,0,2.52-.24,4.27,4.27,0,0,0,1.94-1.14,4.59,4.59,0,0,0,.94-3.34Z" style="fill:#fff"/><path d="M176.43,42.25a4.74,4.74,0,0,1-3.74-1.42A5.56,5.56,0,0,1,171.43,37V13.73h2.88V36.88a3.39,3.39,0,0,0,.58,2.18,2.55,2.55,0,0,0,2.06.7h1.56v2.48Z" style="fill:#fff"/><path d="M210.23,42.25l-6.48-12.68h-6.84V42.25h-3V13.73H204.8a8.69,8.69,0,0,1,6.1,2.14,7.45,7.45,0,0,1,2.34,5.78,7.57,7.57,0,0,1-1.68,5,7.81,7.81,0,0,1-4.52,2.6l6.76,13Zm-5.72-25.8h-7.6V26.89h7.6a6.15,6.15,0,0,0,4.14-1.32,4.83,4.83,0,0,0,1.54-3.88,4.87,4.87,0,0,0-1.56-3.88A6.05,6.05,0,0,0,204.52,16.45Z" style="fill:#fff"/><path d="M219.44,16.89V13.65h3.24v3.24Zm.16,25.36V22.49h2.88V42.25Z" style="fill:#fff"/><path d="M236.32,42.25h-2.56l-7.2-19.72h3.11L235,38.35l5.43-15.82h3.11Z" style="fill:#fff"/><path d="M249.41,33.13a7.49,7.49,0,0,0,1.5,5,5.32,5.32,0,0,0,4.3,1.77,7,7,0,0,0,2.8-.49,8.16,8.16,0,0,0,2.36-1.71l2,1.72a11.12,11.12,0,0,1-3.18,2.32,9.73,9.73,0,0,1-4,.72,8.12,8.12,0,0,1-6.32-2.5q-2.28-2.5-2.28-7.58,0-4.76,2.14-7.42a7.2,7.2,0,0,1,5.94-2.66,7.35,7.35,0,0,1,5.94,2.54,10.5,10.5,0,0,1,2.14,7v1.32Zm9.8-5.44a4.61,4.61,0,0,0-1.8-2.16,5.06,5.06,0,0,0-2.8-.8,5,5,0,0,0-2.78.8,4.33,4.33,0,0,0-1.68,1.86,8.67,8.67,0,0,0-.6,1.82,9.77,9.77,0,0,0-.14,1.76h10.4a11.08,11.08,0,0,0-.1-1.76A7.83,7.83,0,0,0,259.21,27.69Z" style="fill:#fff"/><path d="M279.82,26.29a5.17,5.17,0,0,0-1.54-1.12,4.71,4.71,0,0,0-1.86-.32,4.3,4.3,0,0,0-3.42,1.5,5.58,5.58,0,0,0-1.3,3.79V42.25h-2.88V22.53h2.88v2.4A5.6,5.6,0,0,1,274,23a7.36,7.36,0,0,1,3.22-.72,7.7,7.7,0,0,1,2.58.38,6,6,0,0,1,2.14,1.46Z" style="fill:#fff"/><path d="M303.46,42.45a15.49,15.49,0,0,1-5.48-.84,12.39,12.39,0,0,1-4.28-2.92l2.08-2.08a10.45,10.45,0,0,0,3.5,2.42,11.64,11.64,0,0,0,4.26.7,7.82,7.82,0,0,0,4.92-1.4,4.64,4.64,0,0,0,1.8-3.88,4.2,4.2,0,0,0-1-3.24A5.9,5.9,0,0,0,307.48,30a13.54,13.54,0,0,0-2.3-.52L301.86,29a10.59,10.59,0,0,1-5.4-2.32,6.51,6.51,0,0,1-2-5.16,7.45,7.45,0,0,1,2.46-5.84,9.63,9.63,0,0,1,6.66-2.2,13.42,13.42,0,0,1,4.66.72,12.13,12.13,0,0,1,3.82,2.4l-2,2a9.38,9.38,0,0,0-2.9-1.82,10.24,10.24,0,0,0-3.74-.62A6.38,6.38,0,0,0,299,17.55a4.93,4.93,0,0,0-1.58,3.86,3.78,3.78,0,0,0,1,3,7.27,7.27,0,0,0,2,1.24,10.79,10.79,0,0,0,2.16.62l3.12.48a14.26,14.26,0,0,1,3.12.74,10.89,10.89,0,0,1,2.82,1.88q1.66,1.42,1.66,5a7.22,7.22,0,0,1-2.66,5.9A11,11,0,0,1,303.46,42.45Z" style="fill:#fff"/><path d="M330.31,42.25V40.37A6.93,6.93,0,0,1,327.87,42a9.53,9.53,0,0,1-3.24.47,11.37,11.37,0,0,1-3.34-.4,6.16,6.16,0,0,1-2.48-1.64,5.16,5.16,0,0,1-1.22-3.76,5.21,5.21,0,0,1,1.76-4.16,7.49,7.49,0,0,1,5-1.52h5.92V29.09a4.19,4.19,0,0,0-1.17-3.26,5.64,5.64,0,0,0-3.83-1.06,7.28,7.28,0,0,0-3,.48A5.15,5.15,0,0,0,320.39,27l-2-1.8a6.74,6.74,0,0,1,2.86-2.3,11.39,11.39,0,0,1,4.1-.62q7.88,0,7.88,6.57V42.25Zm0-9.12h-5.52q-4.4,0-4.4,3.48T324.91,40a11.05,11.05,0,0,0,2.52-.24,4.27,4.27,0,0,0,1.94-1.14,4.59,4.59,0,0,0,.94-3.34Z" style="fill:#fff"/><path d="M345.11,42.25a4.74,4.74,0,0,1-3.74-1.42A5.56,5.56,0,0,1,340.11,37V13.73H343V36.88a3.39,3.39,0,0,0,.58,2.18,2.55,2.55,0,0,0,2.06.7h1.56v2.48Z" style="fill:#fff"/><path d="M353.88,33.13a7.49,7.49,0,0,0,1.5,5,5.32,5.32,0,0,0,4.3,1.77,7,7,0,0,0,2.8-.49,8.16,8.16,0,0,0,2.36-1.71l2,1.72a11.12,11.12,0,0,1-3.18,2.32,9.73,9.73,0,0,1-4,.72,8.12,8.12,0,0,1-6.32-2.5Q351,37.45,351,32.37q0-4.76,2.14-7.42a7.2,7.2,0,0,1,5.94-2.66A7.35,7.35,0,0,1,365,24.83a10.5,10.5,0,0,1,2.14,7v1.32Zm9.8-5.44a4.61,4.61,0,0,0-1.8-2.16,5.06,5.06,0,0,0-2.8-.8,5,5,0,0,0-2.78.8,4.33,4.33,0,0,0-1.68,1.86,8.67,8.67,0,0,0-.6,1.82,9.77,9.77,0,0,0-.14,1.76h10.4a11.08,11.08,0,0,0-.1-1.76A7.83,7.83,0,0,0,363.68,27.69Z" style="fill:#fff"/><path d="M379.48,42.45a14.29,14.29,0,0,1-4.52-.65,9.59,9.59,0,0,1-3.56-2.16l1.92-1.9A6.58,6.58,0,0,0,376,39.44a10.54,10.54,0,0,0,3.48.53,7.31,7.31,0,0,0,3.88-.85,2.86,2.86,0,0,0,1.36-2.6q0-2.58-3.28-2.86l-3.24-.28A6.2,6.2,0,0,1,373.8,32a5,5,0,0,1-1.52-3.89,5.06,5.06,0,0,1,2-4.23,8.34,8.34,0,0,1,5.24-1.55,10.89,10.89,0,0,1,7.08,2.12l-1.88,1.88a8.39,8.39,0,0,0-5.24-1.56,5.39,5.39,0,0,0-3.28.85A2.85,2.85,0,0,0,375.08,28a2.81,2.81,0,0,0,.8,2.13,3.75,3.75,0,0,0,2.64.76l3.16.28a7.78,7.78,0,0,1,4.3,1.46,4.66,4.66,0,0,1,1.5,3.85,5.14,5.14,0,0,1-2.16,4.41A9.72,9.72,0,0,1,379.48,42.45Z" style="fill:#fff"/><path d="M425,42.25V20.58l-7.81,17.14h-2.61l-7.91-17.11V42.25h-3V13.73h3l9.28,20.2,9-20.2h3V42.25Z" style="fill:#fff"/><path d="M446.9,42.25V40.37A6.93,6.93,0,0,1,444.46,42a9.53,9.53,0,0,1-3.24.47,11.37,11.37,0,0,1-3.34-.4,6.16,6.16,0,0,1-2.48-1.64,5.16,5.16,0,0,1-1.22-3.76,5.21,5.21,0,0,1,1.76-4.16A7.49,7.49,0,0,1,441,31h5.92V29.09a4.19,4.19,0,0,0-1.17-3.26,5.64,5.64,0,0,0-3.83-1.06,7.28,7.28,0,0,0-3,.48A5.15,5.15,0,0,0,437,27l-2-1.8a6.74,6.74,0,0,1,2.86-2.3,11.39,11.39,0,0,1,4.1-.62q7.88,0,7.88,6.57V42.25Zm0-9.12h-5.52q-4.4,0-4.4,3.48T441.5,40a11.05,11.05,0,0,0,2.52-.24A4.27,4.27,0,0,0,446,38.59a4.59,4.59,0,0,0,.94-3.34Z" style="fill:#fff"/><path d="M469.39,42.25V30.1a5.46,5.46,0,0,0-1.28-3.91,4.69,4.69,0,0,0-3.56-1.34A4.75,4.75,0,0,0,461,26.19a5.4,5.4,0,0,0-1.3,3.91V42.25h-2.88V22.53h2.88v2.16a7.68,7.68,0,0,1,10.66-.48,7.28,7.28,0,0,1,1.94,5.41V42.25Z" style="fill:#fff"/><path d="M490.44,42.25V40.37A6.93,6.93,0,0,1,488,42a9.53,9.53,0,0,1-3.24.47,11.37,11.37,0,0,1-3.34-.4,6.16,6.16,0,0,1-2.48-1.64,5.16,5.16,0,0,1-1.22-3.76,5.21,5.21,0,0,1,1.76-4.16,7.49,7.49,0,0,1,5-1.52h5.92V29.09a4.19,4.19,0,0,0-1.17-3.26,5.64,5.64,0,0,0-3.83-1.06,7.28,7.28,0,0,0-3,.48A5.15,5.15,0,0,0,480.51,27l-2-1.8a6.74,6.74,0,0,1,2.86-2.3,11.39,11.39,0,0,1,4.1-.62q7.88,0,7.88,6.57V42.25Zm0-9.12h-5.52q-4.4,0-4.4,3.48T485,40a11.05,11.05,0,0,0,2.52-.24,4.27,4.27,0,0,0,1.94-1.14,4.59,4.59,0,0,0,.94-3.34Z" style="fill:#fff"/><path d="M506.64,51.25a9.66,9.66,0,0,1-3.62-.58A10.88,10.88,0,0,1,500,48.61l1.88-1.84A9,9,0,0,0,504,48.24a6.27,6.27,0,0,0,2.56.45A4.91,4.91,0,0,0,510.62,47,6.68,6.68,0,0,0,512,42.7V39.65a6.2,6.2,0,0,1-2.46,2,8,8,0,0,1-3.06.55,7.38,7.38,0,0,1-2.68-.48,6.93,6.93,0,0,1-2.34-1.56,6.56,6.56,0,0,1-1.62-3.18,19.77,19.77,0,0,1-.52-4.74,20.11,20.11,0,0,1,.5-4.8,6.49,6.49,0,0,1,1.58-3.08,6.57,6.57,0,0,1,2.37-1.56,8.52,8.52,0,0,1,5.8.06,6.32,6.32,0,0,1,2.43,2V22.53h2.88V42.81a8.56,8.56,0,0,1-2.2,6.08A7.81,7.81,0,0,1,506.64,51.25Zm.44-26.4q-2.88,0-3.9,2a12,12,0,0,0-1,5.35,12.14,12.14,0,0,0,1,5.38q1,2,3.92,2t3.9-2a12.34,12.34,0,0,0,1-5.4,12.33,12.33,0,0,0-1-5.39Q510,24.85,507.08,24.85Z" style="fill:#fff"/><path d="M523.84,33.13a7.49,7.49,0,0,0,1.5,5,5.32,5.32,0,0,0,4.3,1.77,7,7,0,0,0,2.8-.49,8.16,8.16,0,0,0,2.36-1.71l2,1.72a11.12,11.12,0,0,1-3.18,2.32,9.73,9.73,0,0,1-4,.72,8.12,8.12,0,0,1-6.32-2.5Q521,37.45,521,32.37q0-4.76,2.14-7.42A7.2,7.2,0,0,1,529,22.29,7.35,7.35,0,0,1,535,24.83a10.5,10.5,0,0,1,2.14,7v1.32Zm9.8-5.44a4.61,4.61,0,0,0-1.8-2.16,5.06,5.06,0,0,0-2.8-.8,5,5,0,0,0-2.78.8,4.33,4.33,0,0,0-1.68,1.86,8.67,8.67,0,0,0-.6,1.82,9.77,9.77,0,0,0-.14,1.76h10.4a11.08,11.08,0,0,0-.1-1.76A7.83,7.83,0,0,0,533.65,27.69Z" style="fill:#fff"/><path d="M568.54,42.25V30.1a5.46,5.46,0,0,0-1.28-3.91,4.69,4.69,0,0,0-3.56-1.34,4.89,4.89,0,0,0-3.56,1.32,4.8,4.8,0,0,0-1.36,3.61V42.25h-2.88V30.1a5.45,5.45,0,0,0-1.28-3.91,4.68,4.68,0,0,0-3.56-1.34,4.78,4.78,0,0,0-3.6,1.36,5.36,5.36,0,0,0-1.32,3.89V42.25h-2.88V22.53h2.88v2.16a7.07,7.07,0,0,1,5.56-2.4,6.39,6.39,0,0,1,6,3.28,7.49,7.49,0,0,1,6.48-3.28,8.17,8.17,0,0,1,2.86.48,8.58,8.58,0,0,1,2.82,1.94q1.52,1.46,1.52,4.91V42.25Z" style="fill:#fff"/><path d="M580.22,33.13a7.49,7.49,0,0,0,1.5,5,5.32,5.32,0,0,0,4.3,1.77,7,7,0,0,0,2.8-.49,8.16,8.16,0,0,0,2.36-1.71l2,1.72A11.12,11.12,0,0,1,590,41.73a9.73,9.73,0,0,1-4,.72,8.12,8.12,0,0,1-6.32-2.5q-2.28-2.5-2.28-7.58,0-4.76,2.14-7.42a7.2,7.2,0,0,1,5.94-2.66,7.35,7.35,0,0,1,5.94,2.54,10.5,10.5,0,0,1,2.14,7v1.32Zm9.8-5.44a4.61,4.61,0,0,0-1.8-2.16,5.06,5.06,0,0,0-2.8-.8,5,5,0,0,0-2.78.8A4.33,4.33,0,0,0,581,27.39a8.67,8.67,0,0,0-.6,1.82,9.77,9.77,0,0,0-.14,1.76h10.4a11.08,11.08,0,0,0-.1-1.76A7.83,7.83,0,0,0,590,27.69Z" style="fill:#fff"/><path d="M612.23,42.25V30.1a5.46,5.46,0,0,0-1.28-3.91,4.69,4.69,0,0,0-3.56-1.34,4.75,4.75,0,0,0-3.58,1.34,5.4,5.4,0,0,0-1.3,3.91V42.25h-2.88V22.53h2.88v2.16a7.68,7.68,0,0,1,10.66-.48,7.28,7.28,0,0,1,1.94,5.41V42.25Z" style="fill:#fff"/><path d="M627.63,42.25a4.71,4.71,0,0,1-3.74-1.48,5.56,5.56,0,0,1-1.3-3.81V24.85h-2.48v-2.2h2.48V16.49h2.88v6.16h4.2v2.2h-4.2v12q0,2.89,2.68,2.89h1.52v2.48Z" style="fill:#fff"/><rect width="51.8" height="51.8" style="fill:#00a7e1"/><path d="M42.37,9.85c0,.94,0,1.88,0,2.83,0,.42-.06,1.16-.23,1.2-2.23.58-1.43,2.37-1.45,3.71q-.1,8,0,16.08c0,1.37-.33,1.91-1.81,1.9q-12.39-.09-24.78,0c-1.48,0-1.83-.53-1.81-1.9.06-5.65,0-11.3,0-17,0-1.05.5-2.41-1.31-2.68-.46-.07-.38-.72-.38-1.14,0-1,0-2,0-3Zm-16,4.35c-3.26,0-6.53,0-9.79,0-1.14,0-1.72.23-1.71,1.55.06,5.22,0,10.45,0,15.67,0,1.1.34,1.55,1.49,1.54q10-.06,20,0c1.26,0,1.61-.47,1.6-1.66C38,26.14,38,21,38,15.84c0-1.43-.61-1.67-1.83-1.65C32.94,14.24,29.68,14.21,26.42,14.21Z" style="fill:#fff"/><path d="M15.81,44.25a6.91,6.91,0,0,1,7.51-5.42c-1,2.06-3.18,3.26-4,5.42Z" style="fill:#fff"/><path d="M33.66,44.25c-.84-2.17-3.05-3.32-4-5.41,3.31-.59,6.2,1.51,7.48,5.41Z" style="fill:#fff"/><path d="M24.95,44.25c0-1.37.07-2.74,0-4.1s.47-1.59,1.65-1.59S28,39.11,28,40.15c-.05,1.37,0,2.73,0,4.1Z" style="fill:#fff"/><path d="M35,24.34c0,1.38,0,2.76,0,4.13,0,1-.33,1.44-1.38,1.42s-1.25-.44-1.25-1.33q0-4.35,0-8.7c0-.91.33-1.29,1.27-1.31S35,19,35,20C34.93,21.44,35,22.89,35,24.34Z" style="fill:#fff"/><path d="M28,26.23c0-.72,0-1.44,0-2.15,0-1,.53-1.19,1.37-1.17s1.25.2,1.24,1.08c0,1.58,0,3.16,0,4.73,0,1-.54,1.16-1.38,1.17S28,29.49,28,28.59,28,27,28,26.23Z" style="fill:#fff"/><path d="M23.65,27.59c-.07-1.13-.16-2.13,1.55-2.1,2,0,1.33,1.44,1.42,2.45s.13,2-1.45,2C23.2,30,23.72,28.64,23.65,27.59Z" style="fill:#fff"/><path d="M20.79,29.89c-.52-.11-1.34.21-1.37-.6,0-1,.88-.67,1.43-.69s1.32-.24,1.35.57C22.24,30.19,21.31,29.74,20.79,29.89Z" style="fill:#fff"/></svg>