<svg id="Layer_1" data-name="Layer 1" xmlns="http://www.w3.org/2000/svg" viewBox="0 0 455.94 51.8"><title>SEO_SEM</title><rect width="51.8" height="51.8" style="fill:#00a7e1"/><path d="M43.11,35.35l-5-4.82A7.35,7.35,0,1,0,35.69,33l5,4.83a1.74,1.74,0,0,0,2.42-2.5ZM27.29,26.79a4.5,4.5,0,1,1,4.5,4.5A4.5,4.5,0,0,1,27.29,26.79Z" style="fill:#fff"/><path d="M40,15.94H10.2a1.54,1.54,0,0,0-1.53,1.53V35a1.54,1.54,0,0,0,1.53,1.53H20v0L18,38a1.07,1.07,0,0,0,1,1.47h12.2a1.07,1.07,0,0,0,1-1.47l-2.06-1.42,0,0h8l-2.5-2.42a7.8,7.8,0,0,1-3.85,1,8.31,8.31,0,0,1-5.82-2.37H11.61a.91.91,0,0,1-.91-.91V18.66a.91.91,0,0,1,.91-.91H38.56a.91.91,0,0,1,.91.91v5a8.31,8.31,0,0,1,0,6.32c-.09.22-.18.32-.29.53l.29.28,2,2V17.47A1.54,1.54,0,0,0,40,15.94Z" style="fill:#fff"/><path d="M85.88,39.55a9.72,9.72,0,0,1-7.2,2.64H68.91V13.67h9.76q4.56,0,6.86,2.3a9,9,0,0,1,2.72,4.77,43.22,43.22,0,0,1,.42,6.87v1.52a31.69,31.69,0,0,1-.5,6.13A8.24,8.24,0,0,1,85.88,39.55ZM83.76,18.48a6.25,6.25,0,0,0-2.46-1.58,9.39,9.39,0,0,0-3.14-.5H72V39.47h6.2A9.66,9.66,0,0,0,81.3,39a6.44,6.44,0,0,0,2.54-1.72,6.14,6.14,0,0,0,1.5-3.53,49.22,49.22,0,0,0,.3-6.15V26.29A21.43,21.43,0,0,0,85.2,21,6.06,6.06,0,0,0,83.76,18.48Z" style="fill:#fff"/><path d="M95.16,16.83V13.59H98.4v3.24Zm.16,25.36V22.43H98.2V42.19Z" style="fill:#fff"/><path d="M111.76,51.19a9.66,9.66,0,0,1-3.62-.58,10.9,10.9,0,0,1-3.06-2.06L107,46.71a9,9,0,0,0,2.16,1.47,6.27,6.27,0,0,0,2.56.45A4.9,4.9,0,0,0,115.74,47a6.68,6.68,0,0,0,1.34-4.32V39.59a6.2,6.2,0,0,1-2.46,2,8,8,0,0,1-3.06.55,7.38,7.38,0,0,1-2.68-.48,6.93,6.93,0,0,1-2.34-1.56,6.56,6.56,0,0,1-1.62-3.18,19.75,19.75,0,0,1-.52-4.74,20.08,20.08,0,0,1,.5-4.8,6.49,6.49,0,0,1,1.58-3.08,6.57,6.57,0,0,1,2.37-1.56,8.51,8.51,0,0,1,5.8.06,6.32,6.32,0,0,1,2.43,2V22.47H120V42.75a8.56,8.56,0,0,1-2.2,6.08A7.81,7.81,0,0,1,111.76,51.19Zm.44-26.4q-2.88,0-3.9,2a12,12,0,0,0-1,5.35,12.14,12.14,0,0,0,1,5.38q1,2,3.92,2t3.9-2a12.34,12.34,0,0,0,1-5.4,12.33,12.33,0,0,0-1-5.39Q115.12,24.79,112.2,24.79Z" style="fill:#fff"/><path d="M127,16.83V13.59h3.24v3.24Zm.16,25.36V22.43H130V42.19Z" style="fill:#fff"/><path d="M142.81,42.19a4.71,4.71,0,0,1-3.74-1.48,5.57,5.57,0,0,1-1.3-3.81V24.79h-2.48v-2.2h2.48V16.43h2.88v6.16h4.2v2.2h-4.2v12q0,2.89,2.68,2.89h1.52v2.48Z" style="fill:#fff"/><path d="M161.74,42.19V40.31a6.92,6.92,0,0,1-2.44,1.61,9.54,9.54,0,0,1-3.24.47,11.36,11.36,0,0,1-3.34-.4,6.16,6.16,0,0,1-2.48-1.64A5.16,5.16,0,0,1,149,36.59a5.21,5.21,0,0,1,1.76-4.16,7.49,7.49,0,0,1,5-1.52h5.92V29a4.19,4.19,0,0,0-1.17-3.26,5.64,5.64,0,0,0-3.83-1.06,7.28,7.28,0,0,0-3,.48A5.17,5.17,0,0,0,151.81,27l-2-1.8a6.74,6.74,0,0,1,2.86-2.3,11.4,11.4,0,0,1,4.1-.62q7.88,0,7.88,6.57V42.19Zm0-9.12h-5.52q-4.4,0-4.4,3.48t4.52,3.36a11,11,0,0,0,2.52-.24,4.28,4.28,0,0,0,1.94-1.14,4.59,4.59,0,0,0,.94-3.34Z" style="fill:#fff"/><path d="M176.54,42.19a4.74,4.74,0,0,1-3.74-1.42,5.56,5.56,0,0,1-1.26-3.83V13.67h2.88V36.83A3.39,3.39,0,0,0,175,39a2.55,2.55,0,0,0,2.06.7h1.56v2.48Z" style="fill:#fff"/><path d="M210.35,42.2l-6.48-12.68H197V42.19h-3V13.67h10.92a8.69,8.69,0,0,1,6.1,2.14,7.45,7.45,0,0,1,2.34,5.78,7.57,7.57,0,0,1-1.68,5,7.81,7.81,0,0,1-4.52,2.6l6.76,13Zm-5.72-25.8H197V26.83h7.6a6.15,6.15,0,0,0,4.14-1.32,4.83,4.83,0,0,0,1.54-3.88,4.87,4.87,0,0,0-1.56-3.88A6,6,0,0,0,204.63,16.39Z" style="fill:#fff"/><path d="M219.55,16.83V13.59h3.24v3.24Zm.16,25.36V22.43h2.88V42.19Z" style="fill:#fff"/><path d="M236.44,42.19h-2.56l-7.2-19.72h3.11l5.35,15.82,5.43-15.82h3.11Z" style="fill:#fff"/><path d="M249.52,33.07a7.49,7.49,0,0,0,1.5,5,5.32,5.32,0,0,0,4.3,1.77,7,7,0,0,0,2.8-.49,8.18,8.18,0,0,0,2.36-1.71l2,1.72a11.12,11.12,0,0,1-3.18,2.32,9.73,9.73,0,0,1-4,.72,8.12,8.12,0,0,1-6.32-2.5q-2.28-2.5-2.28-7.58,0-4.76,2.14-7.42a7.2,7.2,0,0,1,5.94-2.66,7.35,7.35,0,0,1,5.94,2.54,10.5,10.5,0,0,1,2.14,7v1.32Zm9.8-5.44a4.6,4.6,0,0,0-1.8-2.16,5.06,5.06,0,0,0-2.8-.8,5,5,0,0,0-2.78.8,4.33,4.33,0,0,0-1.68,1.86,8.71,8.71,0,0,0-.6,1.82,9.77,9.77,0,0,0-.14,1.76h10.4a11.1,11.1,0,0,0-.1-1.76A7.9,7.9,0,0,0,259.32,27.63Z" style="fill:#fff"/><path d="M279.93,26.23a5.16,5.16,0,0,0-1.54-1.12,4.72,4.72,0,0,0-1.86-.32,4.3,4.3,0,0,0-3.42,1.5,5.58,5.58,0,0,0-1.3,3.79V42.19h-2.88V22.47h2.88v2.4a5.59,5.59,0,0,1,2.3-1.92,7.35,7.35,0,0,1,3.22-.72,7.7,7.7,0,0,1,2.58.38A6,6,0,0,1,282,24.07Z" style="fill:#fff"/><path d="M303.58,42.39a15.49,15.49,0,0,1-5.48-.84,12.39,12.39,0,0,1-4.28-2.92l2.08-2.08a10.44,10.44,0,0,0,3.5,2.42,11.64,11.64,0,0,0,4.26.7,7.82,7.82,0,0,0,4.92-1.4,4.64,4.64,0,0,0,1.8-3.88,4.2,4.2,0,0,0-1-3.24A5.89,5.89,0,0,0,307.6,30a13.5,13.5,0,0,0-2.3-.52L302,29a10.6,10.6,0,0,1-5.4-2.32,6.51,6.51,0,0,1-2-5.16A7.45,7.45,0,0,1,297,15.63a9.63,9.63,0,0,1,6.66-2.2,13.42,13.42,0,0,1,4.66.72,12.14,12.14,0,0,1,3.82,2.4l-2,2a9.4,9.4,0,0,0-2.9-1.82,10.23,10.23,0,0,0-3.74-.62,6.38,6.38,0,0,0-4.42,1.42,4.93,4.93,0,0,0-1.58,3.86,3.78,3.78,0,0,0,1,3,7.29,7.29,0,0,0,2,1.24,10.79,10.79,0,0,0,2.16.62l3.12.48a14.27,14.27,0,0,1,3.12.74,10.88,10.88,0,0,1,2.82,1.88q1.66,1.42,1.66,5a7.23,7.23,0,0,1-2.66,5.9A11,11,0,0,1,303.58,42.39Z" style="fill:#fff"/><path d="M319.78,42.19V13.67h17.69v2.72H322.82v10H335.3v2.72H322.82V39.47h14.64v2.72Z" style="fill:#fff"/><path d="M360,39.43a9.9,9.9,0,0,1-7.28,3,9.09,9.09,0,0,1-6.72-2.4,9.25,9.25,0,0,1-2.82-4.68,45.74,45.74,0,0,1-.42-7.4q0-4.24.24-6.78A8.59,8.59,0,0,1,345.77,16a9.33,9.33,0,0,1,6.9-2.58,9.09,9.09,0,0,1,6.72,2.4,9.25,9.25,0,0,1,2.82,4.68,45.66,45.66,0,0,1,.42,7.4q0,4.24-.24,6.78A7.7,7.7,0,0,1,360,39.43Zm-2.36-21.24a6.54,6.54,0,0,0-4.92-2,6.09,6.09,0,0,0-4.6,1.7,7,7,0,0,0-2,3.52,41.65,41.65,0,0,0-.34,6.54,42.12,42.12,0,0,0,.34,6.54,6.85,6.85,0,0,0,2,3.54,7.11,7.11,0,0,0,9.2,0,7,7,0,0,0,2-3.52,41.7,41.7,0,0,0,.34-6.54,42.18,42.18,0,0,0-.34-6.54A5.89,5.89,0,0,0,357.59,18.19Z" style="fill:#fff"/><path d="M368.5,45.14l-2.83,0L377,10.71l2.83,0Z" style="fill:#fff"/><path d="M391.32,42.39a15.49,15.49,0,0,1-5.48-.84,12.39,12.39,0,0,1-4.28-2.92l2.08-2.08a10.44,10.44,0,0,0,3.5,2.42,11.64,11.64,0,0,0,4.26.7,7.82,7.82,0,0,0,4.92-1.4,4.64,4.64,0,0,0,1.8-3.88,4.2,4.2,0,0,0-1-3.24A5.89,5.89,0,0,0,395.34,30a13.5,13.5,0,0,0-2.3-.52L389.72,29a10.6,10.6,0,0,1-5.4-2.32,6.51,6.51,0,0,1-2-5.16,7.45,7.45,0,0,1,2.46-5.84,9.63,9.63,0,0,1,6.66-2.2,13.42,13.42,0,0,1,4.66.72,12.14,12.14,0,0,1,3.82,2.4l-2,2a9.4,9.4,0,0,0-2.9-1.82,10.23,10.23,0,0,0-3.74-.62,6.38,6.38,0,0,0-4.42,1.42,4.93,4.93,0,0,0-1.58,3.86,3.78,3.78,0,0,0,1,3,7.29,7.29,0,0,0,2,1.24,10.79,10.79,0,0,0,2.16.62l3.12.48a14.27,14.27,0,0,1,3.12.74,10.88,10.88,0,0,1,2.82,1.88q1.66,1.42,1.66,5a7.23,7.23,0,0,1-2.66,5.9A11,11,0,0,1,391.32,42.39Z" style="fill:#fff"/><path d="M407.52,42.19V13.67h17.69v2.72H410.57v10H423v2.72H410.57V39.47h14.64v2.72Z" style="fill:#fff"/><path d="M452.9,42.19V20.53l-7.81,17.14h-2.61l-7.91-17.11V42.19h-3V13.67h3l9.28,20.2,9-20.2h3V42.19Z" style="fill:#fff"/></svg>