<svg id="Layer_1" data-name="Layer 1" xmlns="http://www.w3.org/2000/svg" viewBox="0 0 806.93 51.8"><title>SitePerformace_Usability</title><path d="M86.81,39.55a9.72,9.72,0,0,1-7.2,2.64H69.84V13.67h9.76q4.56,0,6.86,2.3a9,9,0,0,1,2.72,4.77,43.22,43.22,0,0,1,.42,6.87v1.52a31.73,31.73,0,0,1-.5,6.13A8.25,8.25,0,0,1,86.81,39.55ZM84.69,18.48a6.26,6.26,0,0,0-2.46-1.58,9.39,9.39,0,0,0-3.14-.5h-6.2V39.47h6.2A9.66,9.66,0,0,0,82.23,39a6.44,6.44,0,0,0,2.54-1.72,6.14,6.14,0,0,0,1.5-3.53,49.23,49.23,0,0,0,.3-6.15V26.29A21.47,21.47,0,0,0,86.13,21,6.08,6.08,0,0,0,84.69,18.48Z" transform="translate(0 0)" style="fill:#fff"/><path d="M96.09,16.83V13.59h3.24v3.24Zm.16,25.36V22.43h2.88V42.19Z" transform="translate(0 0)" style="fill:#fff"/><path d="M112.7,51.19a9.66,9.66,0,0,1-3.62-.58A10.88,10.88,0,0,1,106,48.55l1.88-1.84a9,9,0,0,0,2.16,1.47,6.27,6.27,0,0,0,2.56.45A4.91,4.91,0,0,0,116.68,47,6.68,6.68,0,0,0,118,42.64V39.59a6.2,6.2,0,0,1-2.46,2,8,8,0,0,1-3.06.55,7.38,7.38,0,0,1-2.68-.48,6.93,6.93,0,0,1-2.34-1.56,6.56,6.56,0,0,1-1.62-3.18,19.77,19.77,0,0,1-.52-4.74,20.11,20.11,0,0,1,.5-4.8,6.49,6.49,0,0,1,1.58-3.08,6.57,6.57,0,0,1,2.37-1.56,8.52,8.52,0,0,1,5.8.06,6.32,6.32,0,0,1,2.43,2V22.47h2.88V42.75a8.56,8.56,0,0,1-2.2,6.08A7.81,7.81,0,0,1,112.7,51.19Zm.44-26.4q-2.88,0-3.9,2a12,12,0,0,0-1,5.35,12.14,12.14,0,0,0,1,5.38q1,2,3.92,2t3.9-2a12.34,12.34,0,0,0,1-5.4,12.33,12.33,0,0,0-1-5.39Q116.06,24.79,113.14,24.79Z" transform="translate(0 0)" style="fill:#fff"/><path d="M127.94,16.83V13.59h3.24v3.24Zm.16,25.36V22.43H131V42.19Z" transform="translate(0 0)" style="fill:#fff"/><path d="M143.74,42.19A4.71,4.71,0,0,1,140,40.71a5.56,5.56,0,0,1-1.3-3.81V24.79h-2.48v-2.2h2.48V16.43h2.88v6.16h4.2v2.2h-4.2v12q0,2.89,2.68,2.89h1.52v2.48Z" transform="translate(0 0)" style="fill:#fff"/><path d="M162.67,42.19V40.31a6.93,6.93,0,0,1-2.44,1.61,9.53,9.53,0,0,1-3.24.47,11.37,11.37,0,0,1-3.34-.4,6.16,6.16,0,0,1-2.48-1.64,5.16,5.16,0,0,1-1.22-3.76,5.21,5.21,0,0,1,1.76-4.16,7.49,7.49,0,0,1,5-1.52h5.92V29a4.19,4.19,0,0,0-1.17-3.26,5.64,5.64,0,0,0-3.83-1.06,7.28,7.28,0,0,0-3,.48A5.15,5.15,0,0,0,152.75,27l-2-1.8a6.74,6.74,0,0,1,2.86-2.3,11.39,11.39,0,0,1,4.1-.62q7.88,0,7.88,6.57V42.19Zm0-9.12h-5.52q-4.4,0-4.4,3.48t4.52,3.36a11.05,11.05,0,0,0,2.52-.24,4.27,4.27,0,0,0,1.94-1.14,4.59,4.59,0,0,0,.94-3.34Z" transform="translate(0 0)" style="fill:#fff"/><path d="M177.47,42.19a4.74,4.74,0,0,1-3.74-1.42,5.56,5.56,0,0,1-1.26-3.83V13.67h2.88V36.83a3.39,3.39,0,0,0,.58,2.18,2.55,2.55,0,0,0,2.06.7h1.56v2.48Z" transform="translate(0 0)" style="fill:#fff"/><path d="M211.28,42.19,204.8,29.51H198V42.19h-3V13.67h10.92a8.69,8.69,0,0,1,6.1,2.14,7.45,7.45,0,0,1,2.34,5.78,7.57,7.57,0,0,1-1.68,5,7.81,7.81,0,0,1-4.52,2.6l6.76,13Zm-5.72-25.8H198V26.83h7.6a6.15,6.15,0,0,0,4.14-1.32,4.83,4.83,0,0,0,1.54-3.88,4.87,4.87,0,0,0-1.56-3.88A6.05,6.05,0,0,0,205.56,16.39Z" transform="translate(0 0)" style="fill:#fff"/><path d="M220.48,16.83V13.59h3.24v3.24Zm.16,25.36V22.43h2.88V42.19Z" transform="translate(0 0)" style="fill:#fff"/><path d="M237.37,42.19h-2.56l-7.2-19.72h3.11l5.35,15.82,5.43-15.82h3.11Z" transform="translate(0 0)" style="fill:#fff"/><path d="M250.45,33.07a7.49,7.49,0,0,0,1.5,5,5.32,5.32,0,0,0,4.3,1.77,7,7,0,0,0,2.8-.49,8.16,8.16,0,0,0,2.36-1.71l2,1.72a11.12,11.12,0,0,1-3.18,2.32,9.73,9.73,0,0,1-4,.72,8.12,8.12,0,0,1-6.32-2.5q-2.28-2.5-2.28-7.58,0-4.76,2.14-7.42a7.2,7.2,0,0,1,5.94-2.66,7.35,7.35,0,0,1,5.94,2.54,10.5,10.5,0,0,1,2.14,7v1.32Zm9.8-5.44a4.61,4.61,0,0,0-1.8-2.16,5.06,5.06,0,0,0-2.8-.8,5,5,0,0,0-2.78.8,4.33,4.33,0,0,0-1.68,1.86,8.67,8.67,0,0,0-.6,1.82,9.77,9.77,0,0,0-.14,1.76h10.4a11.08,11.08,0,0,0-.1-1.76A7.83,7.83,0,0,0,260.25,27.63Z" transform="translate(0 0)" style="fill:#fff"/><path d="M280.86,26.23a5.17,5.17,0,0,0-1.54-1.12,4.71,4.71,0,0,0-1.86-.32,4.3,4.3,0,0,0-3.42,1.5,5.58,5.58,0,0,0-1.3,3.79V42.19h-2.88V22.47h2.88v2.4A5.6,5.6,0,0,1,275,23a7.36,7.36,0,0,1,3.22-.72,7.7,7.7,0,0,1,2.58.38A6,6,0,0,1,283,24.07Z" transform="translate(0 0)" style="fill:#fff"/><path d="M304.51,42.39a15.49,15.49,0,0,1-5.48-.84,12.39,12.39,0,0,1-4.28-2.92l2.08-2.08a10.45,10.45,0,0,0,3.5,2.42,11.64,11.64,0,0,0,4.26.7,7.82,7.82,0,0,0,4.92-1.4,4.64,4.64,0,0,0,1.8-3.88,4.2,4.2,0,0,0-1-3.24A5.9,5.9,0,0,0,308.53,30a13.54,13.54,0,0,0-2.3-.52L302.91,29a10.59,10.59,0,0,1-5.4-2.32,6.51,6.51,0,0,1-2-5.16A7.45,7.45,0,0,1,298,15.63a9.63,9.63,0,0,1,6.66-2.2,13.42,13.42,0,0,1,4.66.72,12.13,12.13,0,0,1,3.82,2.4l-2,2a9.38,9.38,0,0,0-2.9-1.82,10.24,10.24,0,0,0-3.74-.62,6.38,6.38,0,0,0-4.42,1.42,4.93,4.93,0,0,0-1.58,3.86,3.78,3.78,0,0,0,1,3,7.27,7.27,0,0,0,2,1.24,10.79,10.79,0,0,0,2.16.62l3.12.48a14.26,14.26,0,0,1,3.12.74,10.89,10.89,0,0,1,2.82,1.88q1.66,1.42,1.66,5a7.22,7.22,0,0,1-2.66,5.9A11,11,0,0,1,304.51,42.39Z" transform="translate(0 0)" style="fill:#fff"/><path d="M320,16.83V13.59h3.24v3.24Zm.16,25.36V22.43h2.88V42.19Z" transform="translate(0 0)" style="fill:#fff"/><path d="M335.84,42.19a4.71,4.71,0,0,1-3.74-1.48,5.56,5.56,0,0,1-1.3-3.81V24.79h-2.48v-2.2h2.48V16.43h2.88v6.16h4.2v2.2h-4.2v12q0,2.89,2.68,2.89h1.52v2.48Z" transform="translate(0 0)" style="fill:#fff"/><path d="M345.4,33.07a7.49,7.49,0,0,0,1.5,5,5.32,5.32,0,0,0,4.3,1.77,7,7,0,0,0,2.8-.49,8.16,8.16,0,0,0,2.36-1.71l2,1.72a11.12,11.12,0,0,1-3.18,2.32,9.73,9.73,0,0,1-4,.72,8.12,8.12,0,0,1-6.32-2.5q-2.28-2.5-2.28-7.58,0-4.76,2.14-7.42a7.2,7.2,0,0,1,5.94-2.66,7.35,7.35,0,0,1,5.94,2.54,10.5,10.5,0,0,1,2.14,7v1.32Zm9.8-5.44a4.61,4.61,0,0,0-1.8-2.16,5.06,5.06,0,0,0-2.8-.8,5,5,0,0,0-2.78.8,4.33,4.33,0,0,0-1.68,1.86,8.67,8.67,0,0,0-.6,1.82,9.77,9.77,0,0,0-.14,1.76h10.4a11.08,11.08,0,0,0-.1-1.76A7.83,7.83,0,0,0,355.2,27.63Z" transform="translate(0 0)" style="fill:#fff"/><path d="M385.89,30.43h-7.56V42.19h-3V13.67h10.6a9,9,0,0,1,6.38,2.26,7.94,7.94,0,0,1,2.42,6.1,8,8,0,0,1-2.42,6.1A8.88,8.88,0,0,1,385.89,30.43Zm-.28-14h-7.28V27.71h7.28A6.42,6.42,0,0,0,390,26.27,5.38,5.38,0,0,0,391.65,22a5.29,5.29,0,0,0-1.64-4.2A6.44,6.44,0,0,0,385.61,16.39Z" transform="translate(0 0)" style="fill:#fff"/><path d="M401.77,33.07a7.49,7.49,0,0,0,1.5,5,5.32,5.32,0,0,0,4.3,1.77,7,7,0,0,0,2.8-.49,8.16,8.16,0,0,0,2.36-1.71l2,1.72a11.12,11.12,0,0,1-3.18,2.32,9.73,9.73,0,0,1-4,.72,8.12,8.12,0,0,1-6.32-2.5q-2.28-2.5-2.28-7.58,0-4.76,2.14-7.42A7.2,7.2,0,0,1,407,22.23a7.35,7.35,0,0,1,5.94,2.54,10.5,10.5,0,0,1,2.14,7v1.32Zm9.8-5.44a4.61,4.61,0,0,0-1.8-2.16,5.06,5.06,0,0,0-2.8-.8,5,5,0,0,0-2.78.8,4.33,4.33,0,0,0-1.68,1.86,8.67,8.67,0,0,0-.6,1.82,9.77,9.77,0,0,0-.14,1.76h10.4a11.08,11.08,0,0,0-.1-1.76A7.83,7.83,0,0,0,411.58,27.63Z" transform="translate(0 0)" style="fill:#fff"/><path d="M432.18,26.23a5.17,5.17,0,0,0-1.54-1.12,4.71,4.71,0,0,0-1.86-.32,4.3,4.3,0,0,0-3.42,1.5,5.58,5.58,0,0,0-1.3,3.79V42.19h-2.88V22.47h2.88v2.4a5.6,5.6,0,0,1,2.3-1.92,7.36,7.36,0,0,1,3.22-.72,7.7,7.7,0,0,1,2.58.38,6,6,0,0,1,2.14,1.46Z" transform="translate(0 0)" style="fill:#fff"/><path d="M441.54,24.79v17.4h-2.88V24.79h-2.52v-2.2h2.52V18.87a5.56,5.56,0,0,1,1.3-3.78,4.63,4.63,0,0,1,3.7-1.5h2.08v2.48h-1.56q-2.64,0-2.64,2.88v3.64h4.2v2.2Z" transform="translate(0 0)" style="fill:#fff"/><path d="M463.23,40.15a7.65,7.65,0,0,1-2.46,1.66,9,9,0,0,1-6.34,0A8,8,0,0,1,451.79,40,6.91,6.91,0,0,1,450,36.85a17.7,17.7,0,0,1-.5-4.54,17.8,17.8,0,0,1,.5-4.5,6.92,6.92,0,0,1,1.74-3.16,7.51,7.51,0,0,1,5.8-2.42,8.19,8.19,0,0,1,3.16.58,8,8,0,0,1,2.64,1.84,6.91,6.91,0,0,1,1.74,3.12,17.75,17.75,0,0,1,.5,4.54,17.85,17.85,0,0,1-.5,4.5A7.45,7.45,0,0,1,463.23,40.15Zm-2-13.92a4.89,4.89,0,0,0-3.6-1.44,4.49,4.49,0,0,0-3.32,1.2,5.37,5.37,0,0,0-1.52,2.78,17.86,17.86,0,0,0-.32,3.54,18.45,18.45,0,0,0,.3,3.62,5.27,5.27,0,0,0,1.52,2.68,5.25,5.25,0,0,0,6.7,0,5.23,5.23,0,0,0,1.5-2.7,18.82,18.82,0,0,0,.3-3.62,18.91,18.91,0,0,0-.3-3.6A4.69,4.69,0,0,0,461.19,26.23Z" transform="translate(0 0)" style="fill:#fff"/><path d="M482.8,26.23a5.17,5.17,0,0,0-1.54-1.12,4.71,4.71,0,0,0-1.86-.32,4.3,4.3,0,0,0-3.42,1.5,5.58,5.58,0,0,0-1.3,3.79V42.19h-2.88V22.47h2.88v2.4A5.6,5.6,0,0,1,477,23a7.36,7.36,0,0,1,3.22-.72,7.7,7.7,0,0,1,2.58.38,6,6,0,0,1,2.14,1.46Z" transform="translate(0 0)" style="fill:#fff"/><path d="M513.92,42.19V30a5.46,5.46,0,0,0-1.28-3.91,4.69,4.69,0,0,0-3.56-1.34,4.89,4.89,0,0,0-3.56,1.32,4.8,4.8,0,0,0-1.36,3.61V42.19h-2.88V30A5.45,5.45,0,0,0,500,26.13a4.68,4.68,0,0,0-3.56-1.34,4.78,4.78,0,0,0-3.6,1.36A5.36,5.36,0,0,0,491.52,30V42.19h-2.88V22.47h2.88v2.16a7.07,7.07,0,0,1,5.56-2.4,6.39,6.39,0,0,1,6,3.28,7.49,7.49,0,0,1,6.48-3.28,8.17,8.17,0,0,1,2.86.48,8.58,8.58,0,0,1,2.82,1.94q1.52,1.46,1.52,4.91V42.19Z" transform="translate(0 0)" style="fill:#fff"/><path d="M535,42.19V40.31a6.93,6.93,0,0,1-2.44,1.61,9.53,9.53,0,0,1-3.24.47,11.37,11.37,0,0,1-3.34-.4,6.16,6.16,0,0,1-2.48-1.64,5.16,5.16,0,0,1-1.22-3.76A5.21,5.21,0,0,1,524,32.43a7.49,7.49,0,0,1,5-1.52H535V29a4.19,4.19,0,0,0-1.17-3.26A5.64,5.64,0,0,0,530,24.71a7.28,7.28,0,0,0-3,.48A5.15,5.15,0,0,0,525,27l-2-1.8a6.74,6.74,0,0,1,2.86-2.3,11.39,11.39,0,0,1,4.1-.62q7.88,0,7.88,6.57V42.19Zm0-9.12h-5.52q-4.4,0-4.4,3.48t4.52,3.36a11.05,11.05,0,0,0,2.52-.24A4.27,4.27,0,0,0,534,38.53a4.59,4.59,0,0,0,.94-3.34Z" transform="translate(0 0)" style="fill:#fff"/><path d="M557.46,42.19V30a5.46,5.46,0,0,0-1.28-3.91,4.69,4.69,0,0,0-3.56-1.34A4.75,4.75,0,0,0,549,26.13a5.4,5.4,0,0,0-1.3,3.91V42.19h-2.88V22.47h2.88v2.16a7.68,7.68,0,0,1,10.66-.48,7.28,7.28,0,0,1,1.94,5.41V42.19Z" transform="translate(0 0)" style="fill:#fff"/><path d="M575,42.39a8.2,8.2,0,0,1-6.28-2.62q-2.44-2.62-2.44-7.46t2.42-7.48a8.22,8.22,0,0,1,6.3-2.6,8.73,8.73,0,0,1,3.52.62,9.52,9.52,0,0,1,3,2.3l-2,1.84a7.24,7.24,0,0,0-2.12-1.72,5.5,5.5,0,0,0-2.4-.48,5,5,0,0,0-4.42,2,9.41,9.41,0,0,0-1.42,5.5,13.94,13.94,0,0,0,.28,3.08,8.53,8.53,0,0,0,1.42,2.82Q572,39.83,575,39.83a5.35,5.35,0,0,0,2.4-.48,7.74,7.74,0,0,0,2.12-1.76l2,1.88a9.4,9.4,0,0,1-3,2.28A8.66,8.66,0,0,1,575,42.39Z" transform="translate(0 0)" style="fill:#fff"/><path d="M588.75,33.07a7.49,7.49,0,0,0,1.5,5,5.32,5.32,0,0,0,4.3,1.77,7,7,0,0,0,2.8-.49,8.16,8.16,0,0,0,2.36-1.71l2,1.72a11.12,11.12,0,0,1-3.18,2.32,9.73,9.73,0,0,1-4,.72,8.12,8.12,0,0,1-6.32-2.5q-2.28-2.5-2.28-7.58,0-4.76,2.14-7.42a7.2,7.2,0,0,1,5.94-2.66,7.35,7.35,0,0,1,5.94,2.54,10.5,10.5,0,0,1,2.14,7v1.32Zm9.8-5.44a4.61,4.61,0,0,0-1.8-2.16,5.06,5.06,0,0,0-2.8-.8,5,5,0,0,0-2.78.8,4.33,4.33,0,0,0-1.68,1.86,8.67,8.67,0,0,0-.6,1.82,9.77,9.77,0,0,0-.14,1.76h10.4a11.08,11.08,0,0,0-.1-1.76A7.83,7.83,0,0,0,598.55,27.63Z" transform="translate(0 0)" style="fill:#fff"/><path d="M637.56,42.15,635,39a15.81,15.81,0,0,1-3.4,2.33,10.76,10.76,0,0,1-5,1A9.24,9.24,0,0,1,620,40.11a7.83,7.83,0,0,1-2.44-6A7.52,7.52,0,0,1,618.77,30a17.57,17.57,0,0,1,5-4.44,25,25,0,0,1-2.32-3.18,5.88,5.88,0,0,1-.76-3,5.64,5.64,0,0,1,1.78-4.26,6.25,6.25,0,0,1,4.5-1.7,6.1,6.1,0,0,1,4.44,1.72,5.74,5.74,0,0,1,1.76,4.28,4.91,4.91,0,0,1-.82,2.84A8.8,8.8,0,0,1,630,24.51L627.88,26l7.29,8.76a9.39,9.39,0,0,0,1.24-2.76,15.76,15.76,0,0,0,.36-3.76h2.88a17.55,17.55,0,0,1-.62,4.94,10.49,10.49,0,0,1-2,3.78l4.36,5.24ZM625.43,27.51a22,22,0,0,0-3.72,3A5,5,0,0,0,620.55,34a5.4,5.4,0,0,0,1.66,4.1,6,6,0,0,0,4.34,1.58,9.51,9.51,0,0,0,3.38-.58,11.17,11.17,0,0,0,3.34-2.18ZM626.94,16a3.16,3.16,0,0,0-2.35.92,3.28,3.28,0,0,0-.91,2.41,3.92,3.92,0,0,0,.54,1.93,21.5,21.5,0,0,0,2,2.77l1.5-1a10.23,10.23,0,0,0,1.88-1.67,2.88,2.88,0,0,0,.65-1.91,3.38,3.38,0,0,0-1-2.41A3.15,3.15,0,0,0,626.94,16Z" transform="translate(0 0)" style="fill:#fff"/><path d="M667.69,42.39a9.83,9.83,0,0,1-7.14-2.7,9.25,9.25,0,0,1-2.78-6.94V13.67h3V32.51a7.19,7.19,0,0,0,1.88,5.2,6.61,6.61,0,0,0,5,2,6.69,6.69,0,0,0,5-2,7.11,7.11,0,0,0,1.92-5.2V13.67h3V32.75a9.2,9.2,0,0,1-2.8,7A9.94,9.94,0,0,1,667.69,42.39Z" transform="translate(0 0)" style="fill:#fff"/><path d="M691.17,42.39a14.29,14.29,0,0,1-4.52-.65,9.59,9.59,0,0,1-3.56-2.16l1.92-1.9a6.58,6.58,0,0,0,2.64,1.71,10.54,10.54,0,0,0,3.48.53,7.31,7.31,0,0,0,3.88-.85,2.86,2.86,0,0,0,1.36-2.6q0-2.58-3.28-2.86l-3.24-.28a6.2,6.2,0,0,1-4.36-1.41A5,5,0,0,1,684,28a5.06,5.06,0,0,1,2-4.23,8.34,8.34,0,0,1,5.24-1.55,10.89,10.89,0,0,1,7.08,2.12l-1.88,1.88a8.39,8.39,0,0,0-5.24-1.56,5.39,5.39,0,0,0-3.28.85,2.85,2.85,0,0,0-1.12,2.42,2.81,2.81,0,0,0,.8,2.13,3.75,3.75,0,0,0,2.64.76l3.16.28a7.78,7.78,0,0,1,4.3,1.46,4.66,4.66,0,0,1,1.5,3.85A5.14,5.14,0,0,1,697,40.82,9.72,9.72,0,0,1,691.17,42.39Z" transform="translate(0 0)" style="fill:#fff"/><path d="M716,42.19V40.31a6.93,6.93,0,0,1-2.44,1.61,9.53,9.53,0,0,1-3.24.47A11.37,11.37,0,0,1,707,42a6.16,6.16,0,0,1-2.48-1.64,5.16,5.16,0,0,1-1.22-3.76A5.21,5.21,0,0,1,705,32.43a7.49,7.49,0,0,1,5-1.52H716V29a4.19,4.19,0,0,0-1.17-3.26A5.64,5.64,0,0,0,711,24.71a7.28,7.28,0,0,0-3,.48A5.15,5.15,0,0,0,706.06,27l-2-1.8a6.74,6.74,0,0,1,2.86-2.3,11.39,11.39,0,0,1,4.1-.62q7.88,0,7.88,6.57V42.19Zm0-9.12h-5.52q-4.4,0-4.4,3.48t4.52,3.36a11.05,11.05,0,0,0,2.52-.24A4.27,4.27,0,0,0,715,38.53a4.59,4.59,0,0,0,.94-3.34Z" transform="translate(0 0)" style="fill:#fff"/><path d="M739.11,40.67A5.6,5.6,0,0,1,737,41.91a7.84,7.84,0,0,1-2.74.48,7.94,7.94,0,0,1-3.08-.55,6.38,6.38,0,0,1-2.48-2v2.36h-2.88V13.67h2.88V24.75a6.28,6.28,0,0,1,2.48-2,8,8,0,0,1,3.08-.56,6.3,6.3,0,0,1,4.64,1.56A7.57,7.57,0,0,1,741,27.43a21,21,0,0,1,.5,4.88,21.07,21.07,0,0,1-.5,4.86A7.19,7.19,0,0,1,739.11,40.67Zm-5.4-15.88q-2.92,0-3.94,2a12.37,12.37,0,0,0-1,5.48,12.52,12.52,0,0,0,1,5.52q1,2,4,2t3.9-2a12.36,12.36,0,0,0,1-5.48,12.53,12.53,0,0,0-1-5.52Q736.63,24.79,733.71,24.79Z" transform="translate(0 0)" style="fill:#fff"/><path d="M747.51,16.83V13.59h3.24v3.24Zm.16,25.36V22.43h2.88V42.19Z" transform="translate(0 0)" style="fill:#fff"/><path d="M762.71,42.19A4.74,4.74,0,0,1,759,40.77a5.56,5.56,0,0,1-1.26-3.83V13.67h2.88V36.83a3.39,3.39,0,0,0,.58,2.18,2.55,2.55,0,0,0,2.06.7h1.56v2.48Z" transform="translate(0 0)" style="fill:#fff"/><path d="M769.52,16.83V13.59h3.24v3.24Zm.16,25.36V22.43h2.88V42.19Z" transform="translate(0 0)" style="fill:#fff"/><path d="M785.32,42.19a4.71,4.71,0,0,1-3.74-1.48,5.56,5.56,0,0,1-1.3-3.81V24.79H777.8v-2.2h2.48V16.43h2.88v6.16h4.2v2.2h-4.2v12q0,2.89,2.68,2.89h1.52v2.48Z" transform="translate(0 0)" style="fill:#fff"/><path d="M798,46.91a5.88,5.88,0,0,1-1.34,2.3,4.58,4.58,0,0,1-1.8,1.06,7,7,0,0,1-2.1.32h-1.24V48h.88a3.37,3.37,0,0,0,2.09-.5,4.44,4.44,0,0,0,1.14-1.94L797,41.75l-7.08-19.28H793l5.42,15.79,5.36-15.79h3.11Z" transform="translate(0 0)" style="fill:#fff"/><rect width="52.75" height="51.8" style="fill:#00a7e1"/><polygon points="44.25 26.9 31.8 16.17 31.8 32.43 35.51 29.48 39.15 37.02 43.13 35.24 39.49 27.7 44.25 26.9" style="fill:#fff"/><path d="M18.41,7.36a8.86,8.86,0,0,0-8.94,8.78,8.95,8.95,0,0,0,17.89,0A8.86,8.86,0,0,0,18.41,7.36Zm0,15.07a6.29,6.29,0,1,1,6.4-6.28A6.34,6.34,0,0,1,18.41,22.43Z" transform="translate(0 0)" style="fill:#fff"/><path d="M18.41,26.87a8.78,8.78,0,1,0,8.94,8.78A8.86,8.86,0,0,0,18.41,26.87Zm0,15.07a6.29,6.29,0,1,1,6.4-6.28A6.34,6.34,0,0,1,18.41,41.94Z" transform="translate(0 0)" style="fill:#fff"/><path d="M18.41,12.63A3.51,3.51,0,1,0,22,16.14,3.55,3.55,0,0,0,18.41,12.63Z" transform="translate(0 0)" style="fill:#fff"/></svg>