<svg id="Layer_1" data-name="Layer 1" xmlns="http://www.w3.org/2000/svg" viewBox="0 0 589.31 51.8"><title>Store_Operations</title><rect width="51.8" height="51.8" style="fill:#00a7e1"/><path d="M85.22,38.14A9.72,9.72,0,0,1,78,40.79H68.25V12.27H78q4.56,0,6.86,2.3a9,9,0,0,1,2.72,4.77A43.22,43.22,0,0,1,88,26.21v1.52a31.73,31.73,0,0,1-.5,6.13A8.25,8.25,0,0,1,85.22,38.14ZM83.1,17.07a6.26,6.26,0,0,0-2.46-1.58A9.39,9.39,0,0,0,77.5,15h-6.2V38.07h6.2a9.66,9.66,0,0,0,3.14-.46,6.44,6.44,0,0,0,2.54-1.72,6.14,6.14,0,0,0,1.5-3.53,49.23,49.23,0,0,0,.3-6.15V24.88a21.47,21.47,0,0,0-.44-5.25A6.08,6.08,0,0,0,83.1,17.07Z" transform="translate(0 0)" style="fill:#fff"/><path d="M94.5,15.43V12.19h3.24v3.24Zm.16,25.36V21h2.88V40.79Z" transform="translate(0 0)" style="fill:#fff"/><path d="M111.1,49.79a9.66,9.66,0,0,1-3.62-.58,10.88,10.88,0,0,1-3.06-2.06l1.88-1.84a9,9,0,0,0,2.16,1.47,6.27,6.27,0,0,0,2.56.45,4.91,4.91,0,0,0,4.06-1.67,6.68,6.68,0,0,0,1.34-4.32V38.19a6.2,6.2,0,0,1-2.46,2,8,8,0,0,1-3.06.55,7.38,7.38,0,0,1-2.68-.48,6.93,6.93,0,0,1-2.34-1.56,6.56,6.56,0,0,1-1.62-3.18,19.77,19.77,0,0,1-.52-4.74,20.11,20.11,0,0,1,.5-4.8,6.49,6.49,0,0,1,1.58-3.08,6.57,6.57,0,0,1,2.37-1.56,8.52,8.52,0,0,1,5.8.06,6.32,6.32,0,0,1,2.43,2V21.07h2.88V41.35a8.56,8.56,0,0,1-2.2,6.08A7.81,7.81,0,0,1,111.1,49.79Zm.44-26.4q-2.88,0-3.9,2a12,12,0,0,0-1,5.35,12.14,12.14,0,0,0,1,5.38q1,2,3.92,2t3.9-2a12.34,12.34,0,0,0,1-5.4,12.33,12.33,0,0,0-1-5.39Q114.47,23.39,111.55,23.39Z" transform="translate(0 0)" style="fill:#fff"/><path d="M126.35,15.43V12.19h3.24v3.24Zm.16,25.36V21h2.88V40.79Z" transform="translate(0 0)" style="fill:#fff"/><path d="M142.15,40.79a4.71,4.71,0,0,1-3.74-1.48,5.56,5.56,0,0,1-1.3-3.81V23.39h-2.48v-2.2h2.48V15H140v6.16h4.2v2.2H140v12q0,2.89,2.68,2.89h1.52v2.48Z" transform="translate(0 0)" style="fill:#fff"/><path d="M161.08,40.79V38.91a6.93,6.93,0,0,1-2.44,1.61,9.53,9.53,0,0,1-3.24.47,11.37,11.37,0,0,1-3.34-.4,6.16,6.16,0,0,1-2.48-1.64,5.16,5.16,0,0,1-1.22-3.76A5.21,5.21,0,0,1,150.11,31a7.49,7.49,0,0,1,5-1.52h5.92V27.63a4.19,4.19,0,0,0-1.17-3.26,5.64,5.64,0,0,0-3.83-1.06,7.28,7.28,0,0,0-3,.48,5.15,5.15,0,0,0-1.94,1.76l-2-1.8a6.74,6.74,0,0,1,2.86-2.3,11.39,11.39,0,0,1,4.1-.62q7.88,0,7.88,6.57V40.79Zm0-9.12h-5.52q-4.4,0-4.4,3.48t4.52,3.36a11.05,11.05,0,0,0,2.52-.24,4.27,4.27,0,0,0,1.94-1.14,4.59,4.59,0,0,0,.94-3.34Z" transform="translate(0 0)" style="fill:#fff"/><path d="M175.88,40.79a4.74,4.74,0,0,1-3.74-1.42,5.56,5.56,0,0,1-1.26-3.83V12.27h2.88V35.42a3.39,3.39,0,0,0,.58,2.18,2.55,2.55,0,0,0,2.06.7H178v2.48Z" transform="translate(0 0)" style="fill:#fff"/><path d="M209.69,40.79l-6.48-12.68h-6.84V40.79h-3V12.27h10.92a8.69,8.69,0,0,1,6.1,2.14,7.45,7.45,0,0,1,2.34,5.78,7.57,7.57,0,0,1-1.68,5,7.81,7.81,0,0,1-4.52,2.6l6.76,13ZM204,15h-7.6V25.43H204a6.15,6.15,0,0,0,4.14-1.32,4.83,4.83,0,0,0,1.54-3.88,4.87,4.87,0,0,0-1.56-3.88A6.05,6.05,0,0,0,204,15Z" transform="translate(0 0)" style="fill:#fff"/><path d="M218.89,15.43V12.19h3.24v3.24Zm.16,25.36V21h2.88V40.79Z" transform="translate(0 0)" style="fill:#fff"/><path d="M235.78,40.79h-2.56L226,21.07h3.11l5.35,15.82,5.43-15.82H243Z" transform="translate(0 0)" style="fill:#fff"/><path d="M248.86,31.67a7.49,7.49,0,0,0,1.5,5,5.32,5.32,0,0,0,4.3,1.77,7,7,0,0,0,2.8-.49,8.16,8.16,0,0,0,2.36-1.71l2,1.72a11.12,11.12,0,0,1-3.18,2.32,9.73,9.73,0,0,1-4,.72,8.12,8.12,0,0,1-6.32-2.5Q246,36,246,30.91q0-4.76,2.14-7.42a7.2,7.2,0,0,1,5.94-2.66A7.35,7.35,0,0,1,260,23.37a10.5,10.5,0,0,1,2.14,7v1.32Zm9.8-5.44a4.61,4.61,0,0,0-1.8-2.16,5.06,5.06,0,0,0-2.8-.8,5,5,0,0,0-2.78.8,4.33,4.33,0,0,0-1.68,1.86,8.67,8.67,0,0,0-.6,1.82,9.77,9.77,0,0,0-.14,1.76h10.4a11.08,11.08,0,0,0-.1-1.76A7.83,7.83,0,0,0,258.66,26.23Z" transform="translate(0 0)" style="fill:#fff"/><path d="M279.27,24.83a5.17,5.17,0,0,0-1.54-1.12,4.71,4.71,0,0,0-1.86-.32,4.3,4.3,0,0,0-3.42,1.5,5.58,5.58,0,0,0-1.3,3.79V40.79h-2.88V21.07h2.88v2.4a5.6,5.6,0,0,1,2.3-1.92,7.36,7.36,0,0,1,3.22-.72,7.7,7.7,0,0,1,2.58.38,6,6,0,0,1,2.14,1.46Z" transform="translate(0 0)" style="fill:#fff"/><path d="M302.92,41a15.49,15.49,0,0,1-5.48-.84,12.39,12.39,0,0,1-4.28-2.92l2.08-2.08a10.45,10.45,0,0,0,3.5,2.42,11.64,11.64,0,0,0,4.26.7,7.82,7.82,0,0,0,4.92-1.4,4.64,4.64,0,0,0,1.8-3.88,4.2,4.2,0,0,0-1-3.24,5.9,5.9,0,0,0-1.78-1.16,13.54,13.54,0,0,0-2.3-.52l-3.32-.52a10.59,10.59,0,0,1-5.4-2.32,6.51,6.51,0,0,1-2-5.16,7.45,7.45,0,0,1,2.46-5.84A9.63,9.63,0,0,1,303,12a13.42,13.42,0,0,1,4.66.72,12.13,12.13,0,0,1,3.82,2.4l-2,2a9.38,9.38,0,0,0-2.9-1.82,10.24,10.24,0,0,0-3.74-.62,6.38,6.38,0,0,0-4.42,1.42,4.93,4.93,0,0,0-1.58,3.86,3.78,3.78,0,0,0,1,3,7.27,7.27,0,0,0,2,1.24,10.79,10.79,0,0,0,2.16.62l3.12.48a14.26,14.26,0,0,1,3.12.74,10.89,10.89,0,0,1,2.82,1.88q1.66,1.42,1.66,5a7.22,7.22,0,0,1-2.66,5.9A11,11,0,0,1,302.92,41Z" transform="translate(0 0)" style="fill:#fff"/><path d="M324.12,40.79a4.71,4.71,0,0,1-3.74-1.48,5.56,5.56,0,0,1-1.3-3.81V23.39H316.6v-2.2h2.48V15H322v6.16h4.2v2.2H322v12q0,2.89,2.68,2.89h1.52v2.48Z" transform="translate(0 0)" style="fill:#fff"/><path d="M344.53,38.75a7.65,7.65,0,0,1-2.46,1.66,9,9,0,0,1-6.34,0,8,8,0,0,1-2.64-1.84,6.91,6.91,0,0,1-1.74-3.12,17.7,17.7,0,0,1-.5-4.54,17.8,17.8,0,0,1,.5-4.5,6.92,6.92,0,0,1,1.74-3.16,7.51,7.51,0,0,1,5.8-2.42,8.19,8.19,0,0,1,3.16.58,8,8,0,0,1,2.64,1.84,6.91,6.91,0,0,1,1.74,3.12,17.75,17.75,0,0,1,.5,4.54,17.85,17.85,0,0,1-.5,4.5A7.45,7.45,0,0,1,344.53,38.75Zm-2-13.92a4.89,4.89,0,0,0-3.6-1.44,4.49,4.49,0,0,0-3.32,1.2A5.37,5.37,0,0,0,334,27.37a17.86,17.86,0,0,0-.32,3.54,18.45,18.45,0,0,0,.3,3.62,5.27,5.27,0,0,0,1.52,2.68,5.25,5.25,0,0,0,6.7,0,5.23,5.23,0,0,0,1.5-2.7,18.82,18.82,0,0,0,.3-3.62,18.91,18.91,0,0,0-.3-3.6A4.69,4.69,0,0,0,342.49,24.83Z" transform="translate(0 0)" style="fill:#fff"/><path d="M364.09,24.83a5.17,5.17,0,0,0-1.54-1.12,4.71,4.71,0,0,0-1.86-.32,4.3,4.3,0,0,0-3.42,1.5,5.58,5.58,0,0,0-1.3,3.79V40.79h-2.88V21.07H356v2.4a5.6,5.6,0,0,1,2.3-1.92,7.36,7.36,0,0,1,3.22-.72,7.7,7.7,0,0,1,2.58.38,6,6,0,0,1,2.14,1.46Z" transform="translate(0 0)" style="fill:#fff"/><path d="M371.74,31.67a7.49,7.49,0,0,0,1.5,5,5.32,5.32,0,0,0,4.3,1.77,7,7,0,0,0,2.8-.49,8.16,8.16,0,0,0,2.36-1.71l2,1.72a11.12,11.12,0,0,1-3.18,2.32,9.73,9.73,0,0,1-4,.72,8.12,8.12,0,0,1-6.32-2.5q-2.28-2.5-2.28-7.58,0-4.76,2.14-7.42a7.2,7.2,0,0,1,5.94-2.66,7.35,7.35,0,0,1,5.94,2.54,10.5,10.5,0,0,1,2.14,7v1.32Zm9.8-5.44a4.61,4.61,0,0,0-1.8-2.16,5.06,5.06,0,0,0-2.8-.8,5,5,0,0,0-2.78.8,4.33,4.33,0,0,0-1.68,1.86,8.67,8.67,0,0,0-.6,1.82,9.77,9.77,0,0,0-.14,1.76h10.4a11.08,11.08,0,0,0-.1-1.76A7.83,7.83,0,0,0,381.54,26.23Z" transform="translate(0 0)" style="fill:#fff"/><path d="M417.79,38a9.9,9.9,0,0,1-7.28,3,9.08,9.08,0,0,1-6.72-2.4A9.25,9.25,0,0,1,401,33.91a45.69,45.69,0,0,1-.42-7.4q0-4.24.24-6.78a8.59,8.59,0,0,1,2.82-5.12,9.33,9.33,0,0,1,6.9-2.58,9.09,9.09,0,0,1,6.72,2.4A9.25,9.25,0,0,1,420,19.11a45.79,45.79,0,0,1,.42,7.4q0,4.24-.24,6.78A7.7,7.7,0,0,1,417.79,38Zm-2.36-21.24a6.54,6.54,0,0,0-4.92-2,6.09,6.09,0,0,0-4.6,1.7,7,7,0,0,0-2,3.52,41.73,41.73,0,0,0-.34,6.54,42.2,42.2,0,0,0,.34,6.54,6.86,6.86,0,0,0,2,3.54,7.11,7.11,0,0,0,9.2,0,7,7,0,0,0,2-3.52,41.84,41.84,0,0,0,.34-6.54,42.33,42.33,0,0,0-.34-6.54A5.89,5.89,0,0,0,415.43,16.79Z" transform="translate(0 0)" style="fill:#fff"/><path d="M440.35,39.27a5.6,5.6,0,0,1-2.06,1.24,7.84,7.84,0,0,1-2.74.48,8.15,8.15,0,0,1-3.1-.52,6.37,6.37,0,0,1-2.46-2V49.55h-2.88V21.07H430v2.32a6.21,6.21,0,0,1,2.46-2,8,8,0,0,1,3.1-.56,6.3,6.3,0,0,1,4.64,1.56A7.57,7.57,0,0,1,442.26,26a21,21,0,0,1,.5,4.88,21.07,21.07,0,0,1-.5,4.86A7.19,7.19,0,0,1,440.35,39.27ZM435,23.39q-2.92,0-3.94,2a12.37,12.37,0,0,0-1,5.48,12.52,12.52,0,0,0,1,5.52q1,2,4,2t3.9-2a12.36,12.36,0,0,0,1-5.48,12.53,12.53,0,0,0-1-5.52Q437.87,23.39,435,23.39Z" transform="translate(0 0)" style="fill:#fff"/><path d="M450.72,31.67a7.49,7.49,0,0,0,1.5,5,5.32,5.32,0,0,0,4.3,1.77,7,7,0,0,0,2.8-.49,8.16,8.16,0,0,0,2.36-1.71l2,1.72a11.12,11.12,0,0,1-3.18,2.32,9.73,9.73,0,0,1-4,.72,8.12,8.12,0,0,1-6.32-2.5q-2.28-2.5-2.28-7.58,0-4.76,2.14-7.42a7.2,7.2,0,0,1,5.94-2.66,7.35,7.35,0,0,1,5.94,2.54,10.5,10.5,0,0,1,2.14,7v1.32Zm9.8-5.44a4.61,4.61,0,0,0-1.8-2.16,5.06,5.06,0,0,0-2.8-.8,5,5,0,0,0-2.78.8,4.33,4.33,0,0,0-1.68,1.86,8.67,8.67,0,0,0-.6,1.82,9.77,9.77,0,0,0-.14,1.76h10.4a11.08,11.08,0,0,0-.1-1.76A7.83,7.83,0,0,0,460.52,26.23Z" transform="translate(0 0)" style="fill:#fff"/><path d="M481.13,24.83a5.17,5.17,0,0,0-1.54-1.12,4.71,4.71,0,0,0-1.86-.32,4.3,4.3,0,0,0-3.42,1.5,5.58,5.58,0,0,0-1.3,3.79V40.79h-2.88V21.07H473v2.4a5.6,5.6,0,0,1,2.3-1.92,7.36,7.36,0,0,1,3.22-.72,7.7,7.7,0,0,1,2.58.38,6,6,0,0,1,2.14,1.46Z" transform="translate(0 0)" style="fill:#fff"/><path d="M498.13,40.79V38.91a6.93,6.93,0,0,1-2.44,1.61,9.53,9.53,0,0,1-3.24.47,11.37,11.37,0,0,1-3.34-.4,6.16,6.16,0,0,1-2.48-1.64,5.16,5.16,0,0,1-1.22-3.76A5.21,5.21,0,0,1,487.17,31a7.49,7.49,0,0,1,5-1.52h5.92V27.63A4.19,4.19,0,0,0,497,24.37a5.64,5.64,0,0,0-3.83-1.06,7.28,7.28,0,0,0-3,.48,5.15,5.15,0,0,0-1.94,1.76l-2-1.8a6.74,6.74,0,0,1,2.86-2.3,11.39,11.39,0,0,1,4.1-.62q7.88,0,7.88,6.57V40.79Zm0-9.12h-5.52q-4.4,0-4.4,3.48t4.52,3.36a11.05,11.05,0,0,0,2.52-.24,4.27,4.27,0,0,0,1.94-1.14,4.59,4.59,0,0,0,.94-3.34Z" transform="translate(0 0)" style="fill:#fff"/><path d="M513.54,40.79a4.71,4.71,0,0,1-3.74-1.48,5.56,5.56,0,0,1-1.3-3.81V23.39H506v-2.2h2.48V15h2.88v6.16h4.2v2.2h-4.2v12q0,2.89,2.68,2.89h1.52v2.48Z" transform="translate(0 0)" style="fill:#fff"/><path d="M521.14,15.43V12.19h3.24v3.24Zm.16,25.36V21h2.88V40.79Z" transform="translate(0 0)" style="fill:#fff"/><path d="M544.06,38.75a7.65,7.65,0,0,1-2.46,1.66,9,9,0,0,1-6.34,0,8,8,0,0,1-2.64-1.84,6.91,6.91,0,0,1-1.74-3.12,17.7,17.7,0,0,1-.5-4.54,17.8,17.8,0,0,1,.5-4.5,6.92,6.92,0,0,1,1.74-3.16,7.51,7.51,0,0,1,5.8-2.42,8.19,8.19,0,0,1,3.16.58,8,8,0,0,1,2.64,1.84A6.91,6.91,0,0,1,546,26.37a17.75,17.75,0,0,1,.5,4.54,17.85,17.85,0,0,1-.5,4.5A7.45,7.45,0,0,1,544.06,38.75Zm-2-13.92a4.89,4.89,0,0,0-3.6-1.44,4.49,4.49,0,0,0-3.32,1.2,5.37,5.37,0,0,0-1.52,2.78,17.86,17.86,0,0,0-.32,3.54,18.45,18.45,0,0,0,.3,3.62,5.27,5.27,0,0,0,1.52,2.68,5.25,5.25,0,0,0,6.7,0,5.23,5.23,0,0,0,1.5-2.7,18.82,18.82,0,0,0,.3-3.62,18.91,18.91,0,0,0-.3-3.6A4.69,4.69,0,0,0,542,24.83Z" transform="translate(0 0)" style="fill:#fff"/><path d="M565.23,40.79V28.64a5.46,5.46,0,0,0-1.28-3.91,4.69,4.69,0,0,0-3.56-1.34,4.75,4.75,0,0,0-3.58,1.34,5.4,5.4,0,0,0-1.3,3.91V40.79h-2.88V21.07h2.88v2.16a7.68,7.68,0,0,1,10.66-.48,7.28,7.28,0,0,1,1.94,5.41V40.79Z" transform="translate(0 0)" style="fill:#fff"/><path d="M581.31,41a14.29,14.29,0,0,1-4.52-.65,9.59,9.59,0,0,1-3.56-2.16l1.92-1.9A6.58,6.58,0,0,0,577.79,38a10.54,10.54,0,0,0,3.48.53,7.31,7.31,0,0,0,3.88-.85,2.86,2.86,0,0,0,1.36-2.6q0-2.58-3.28-2.86L580,31.91a6.2,6.2,0,0,1-4.36-1.41,5,5,0,0,1-1.52-3.89,5.06,5.06,0,0,1,2-4.23,8.34,8.34,0,0,1,5.24-1.55,10.89,10.89,0,0,1,7.08,2.12l-1.88,1.88a8.39,8.39,0,0,0-5.24-1.56,5.39,5.39,0,0,0-3.28.85,2.85,2.85,0,0,0-1.12,2.42,2.81,2.81,0,0,0,.8,2.13,3.75,3.75,0,0,0,2.64.76l3.16.28a7.78,7.78,0,0,1,4.3,1.46,4.66,4.66,0,0,1,1.5,3.85,5.14,5.14,0,0,1-2.16,4.41A9.72,9.72,0,0,1,581.31,41Z" transform="translate(0 0)" style="fill:#fff"/><path d="M32.41,13a.81.81,0,0,0-.27-.05H28.49a3.64,3.64,0,0,0-7.27,0H17.58a.81.81,0,0,0-.81.81v3.92a.81.81,0,0,0,.81.81H29.24ZM24.86,14.6A1.64,1.64,0,1,1,26.49,13,1.64,1.64,0,0,1,24.86,14.6Z" transform="translate(0 0)" style="fill:#fff"/><path d="M35.08,24.15c0,.07-.37.68-.89,1.58v7.12c0,2-3.71,2-3.71,2a.72.72,0,0,0-.73.71s.1,3.23-2,3.23H15.52V15.62H14.14a1.62,1.62,0,0,0-1.62,1.62V40.4A1.62,1.62,0,0,0,14.14,42H35.57a1.62,1.62,0,0,0,1.62-1.62V20.51Z" transform="translate(0 0)" style="fill:#fff"/><path d="M25.54,32.8a3.89,3.89,0,0,0-1-.39v0l-.42,2.22c-.08.42.12.53.44.25l1.71-1.47,0,0A3.94,3.94,0,0,0,25.54,32.8Z" transform="translate(0 0)" style="fill:#fff"/><path d="M37.34,12.35c-1.11-.64-2.4-.51-2.86.3h0L29.65,21s-4.07,6.55-4.81,10.42a4.47,4.47,0,0,1,2.23,1.29c3-2.58,6.62-9.38,6.62-9.38h0L38.51,15h0C39,14.18,38.46,13,37.34,12.35Z" transform="translate(0 0)" style="fill:#fff"/><polygon points="20.48 27.91 17.61 24.01 20.48 25.34 24.98 21.66 20.48 27.91" style="fill:#fff"/></svg>