<svg id="Layer_1" data-name="Layer 1" xmlns="http://www.w3.org/2000/svg" viewBox="0 0 724.05 51.88"><title>Subscriptions_Recurring</title><path d="M86.64,40.23a9.72,9.72,0,0,1-7.2,2.64H69.68V14.36h9.76q4.56,0,6.86,2.3A9,9,0,0,1,89,21.43a43.22,43.22,0,0,1,.42,6.87v1.52a31.73,31.73,0,0,1-.5,6.13A8.25,8.25,0,0,1,86.64,40.23ZM84.52,19.16a6.26,6.26,0,0,0-2.46-1.58,9.39,9.39,0,0,0-3.14-.5h-6.2V40.16h6.2a9.66,9.66,0,0,0,3.14-.46A6.44,6.44,0,0,0,84.6,38a6.14,6.14,0,0,0,1.5-3.53,49.23,49.23,0,0,0,.3-6.15V27A21.47,21.47,0,0,0,86,21.73,6.08,6.08,0,0,0,84.52,19.16Z" style="fill:#fff"/><path d="M95.92,17.52V14.28h3.24v3.24Zm.16,25.36V23.12H99V42.88Z" style="fill:#fff"/><path d="M112.53,51.88a9.66,9.66,0,0,1-3.62-.58,10.88,10.88,0,0,1-3.06-2.06l1.88-1.84a9,9,0,0,0,2.16,1.47,6.27,6.27,0,0,0,2.56.45,4.91,4.91,0,0,0,4.06-1.67,6.68,6.68,0,0,0,1.34-4.32V40.28a6.2,6.2,0,0,1-2.46,2,8,8,0,0,1-3.06.55,7.38,7.38,0,0,1-2.68-.48,6.93,6.93,0,0,1-2.34-1.56,6.56,6.56,0,0,1-1.62-3.18,19.77,19.77,0,0,1-.52-4.74,20.11,20.11,0,0,1,.5-4.8A6.49,6.49,0,0,1,107.24,25a6.57,6.57,0,0,1,2.37-1.56,8.52,8.52,0,0,1,5.8.06,6.32,6.32,0,0,1,2.43,2V23.16h2.88V43.44a8.56,8.56,0,0,1-2.2,6.08A7.81,7.81,0,0,1,112.53,51.88Zm.44-26.4q-2.88,0-3.9,2a12,12,0,0,0-1,5.35,12.14,12.14,0,0,0,1,5.38q1,2,3.92,2t3.9-2a12.34,12.34,0,0,0,1-5.4,12.33,12.33,0,0,0-1-5.39Q115.89,25.48,113,25.48Z" style="fill:#fff"/><path d="M127.77,17.52V14.28H131v3.24Zm.16,25.36V23.12h2.88V42.88Z" style="fill:#fff"/><path d="M143.58,42.88a4.71,4.71,0,0,1-3.74-1.48,5.56,5.56,0,0,1-1.3-3.81V25.48h-2.48v-2.2h2.48V17.12h2.88v6.16h4.2v2.2h-4.2v12q0,2.89,2.68,2.89h1.52v2.48Z" style="fill:#fff"/><path d="M162.5,42.88V41a6.93,6.93,0,0,1-2.44,1.61,9.53,9.53,0,0,1-3.24.47,11.37,11.37,0,0,1-3.34-.4A6.16,6.16,0,0,1,151,41a5.16,5.16,0,0,1-1.22-3.76,5.21,5.21,0,0,1,1.76-4.16,7.49,7.49,0,0,1,5-1.52h5.92V29.72a4.19,4.19,0,0,0-1.17-3.26,5.64,5.64,0,0,0-3.83-1.06,7.28,7.28,0,0,0-3,.48,5.15,5.15,0,0,0-1.94,1.76l-2-1.8a6.74,6.74,0,0,1,2.86-2.3,11.39,11.39,0,0,1,4.1-.62q7.88,0,7.88,6.57V42.88Zm0-9.12H157q-4.4,0-4.4,3.48t4.52,3.36a11.05,11.05,0,0,0,2.52-.24,4.27,4.27,0,0,0,1.94-1.14,4.59,4.59,0,0,0,.94-3.34Z" style="fill:#fff"/><path d="M177.3,42.88a4.74,4.74,0,0,1-3.74-1.42,5.56,5.56,0,0,1-1.26-3.83V14.36h2.88V37.51a3.39,3.39,0,0,0,.58,2.18,2.55,2.55,0,0,0,2.06.7h1.56v2.48Z" style="fill:#fff"/><path d="M211.11,42.88,204.63,30.2h-6.84V42.88h-3V14.36h10.92a8.69,8.69,0,0,1,6.1,2.14,7.45,7.45,0,0,1,2.34,5.78,7.57,7.57,0,0,1-1.68,5,7.81,7.81,0,0,1-4.52,2.6l6.76,13Zm-5.72-25.8h-7.6V27.52h7.6a6.15,6.15,0,0,0,4.14-1.32,4.83,4.83,0,0,0,1.54-3.88,4.87,4.87,0,0,0-1.56-3.88A6.05,6.05,0,0,0,205.39,17.08Z" style="fill:#fff"/><path d="M220.32,17.52V14.28h3.24v3.24Zm.16,25.36V23.12h2.88V42.88Z" style="fill:#fff"/><path d="M237.2,42.88h-2.56l-7.2-19.72h3.11L235.9,39l5.43-15.82h3.11Z" style="fill:#fff"/><path d="M250.28,33.76a7.49,7.49,0,0,0,1.5,5,5.32,5.32,0,0,0,4.3,1.77,7,7,0,0,0,2.8-.49,8.16,8.16,0,0,0,2.36-1.71l2,1.72A11.12,11.12,0,0,1,260,42.36a9.73,9.73,0,0,1-4,.72,8.12,8.12,0,0,1-6.32-2.5q-2.28-2.5-2.28-7.58,0-4.76,2.14-7.42a7.2,7.2,0,0,1,5.94-2.66,7.35,7.35,0,0,1,5.94,2.54,10.5,10.5,0,0,1,2.14,7v1.32Zm9.8-5.44a4.61,4.61,0,0,0-1.8-2.16,5.06,5.06,0,0,0-2.8-.8,5,5,0,0,0-2.78.8A4.33,4.33,0,0,0,251,28a8.67,8.67,0,0,0-.6,1.82,9.77,9.77,0,0,0-.14,1.76h10.4a11.08,11.08,0,0,0-.1-1.76A7.83,7.83,0,0,0,260.09,28.32Z" style="fill:#fff"/><path d="M280.69,26.92a5.17,5.17,0,0,0-1.54-1.12,4.71,4.71,0,0,0-1.86-.32,4.3,4.3,0,0,0-3.42,1.5,5.58,5.58,0,0,0-1.3,3.79V42.88h-2.88V23.16h2.88v2.4a5.6,5.6,0,0,1,2.3-1.92,7.36,7.36,0,0,1,3.22-.72,7.7,7.7,0,0,1,2.58.38,6,6,0,0,1,2.14,1.46Z" style="fill:#fff"/><path d="M304.34,43.08a15.49,15.49,0,0,1-5.48-.84,12.39,12.39,0,0,1-4.28-2.92l2.08-2.08a10.45,10.45,0,0,0,3.5,2.42,11.64,11.64,0,0,0,4.26.7,7.82,7.82,0,0,0,4.92-1.4,4.64,4.64,0,0,0,1.8-3.88,4.2,4.2,0,0,0-1-3.24,5.9,5.9,0,0,0-1.78-1.16,13.54,13.54,0,0,0-2.3-.52l-3.32-.52a10.59,10.59,0,0,1-5.4-2.32,6.51,6.51,0,0,1-2-5.16,7.45,7.45,0,0,1,2.46-5.84,9.63,9.63,0,0,1,6.66-2.2,13.42,13.42,0,0,1,4.66.72,12.13,12.13,0,0,1,3.82,2.4l-2,2a9.38,9.38,0,0,0-2.9-1.82,10.24,10.24,0,0,0-3.74-.62,6.38,6.38,0,0,0-4.42,1.42A4.93,4.93,0,0,0,298.34,22a3.78,3.78,0,0,0,1,3,7.27,7.27,0,0,0,2,1.24,10.79,10.79,0,0,0,2.16.62l3.12.48a14.26,14.26,0,0,1,3.12.74A10.89,10.89,0,0,1,312.52,30q1.66,1.42,1.66,5a7.22,7.22,0,0,1-2.66,5.9A11,11,0,0,1,304.34,43.08Z" style="fill:#fff"/><path d="M332.43,42.88v-2.2a7.75,7.75,0,0,1-10.69.5,7.35,7.35,0,0,1-1.91-5.46V23.16h2.88V35.28a5.49,5.49,0,0,0,1.26,3.9,4.62,4.62,0,0,0,3.54,1.34,4.79,4.79,0,0,0,3.6-1.36,5.34,5.34,0,0,0,1.32-3.88V23.16h2.88V42.88Z" style="fill:#fff"/><path d="M355.75,41.36a5.6,5.6,0,0,1-2.06,1.24,7.84,7.84,0,0,1-2.74.48,7.94,7.94,0,0,1-3.08-.55,6.38,6.38,0,0,1-2.48-2v2.36h-2.88V14.36h2.88V25.44a6.28,6.28,0,0,1,2.48-2,8,8,0,0,1,3.08-.56,6.3,6.3,0,0,1,4.64,1.56,7.57,7.57,0,0,1,2.06,3.64,21,21,0,0,1,.5,4.88,21.07,21.07,0,0,1-.5,4.86A7.19,7.19,0,0,1,355.75,41.36Zm-5.4-15.88q-2.92,0-3.94,2a12.37,12.37,0,0,0-1,5.48,12.52,12.52,0,0,0,1,5.52q1,2,4,2t3.9-2a12.36,12.36,0,0,0,1-5.48,12.53,12.53,0,0,0-1-5.52Q353.27,25.48,350.35,25.48Z" style="fill:#fff"/><path d="M370.52,43.08a14.29,14.29,0,0,1-4.52-.65,9.59,9.59,0,0,1-3.56-2.16l1.92-1.9A6.58,6.58,0,0,0,367,40.07a10.54,10.54,0,0,0,3.48.53,7.31,7.31,0,0,0,3.88-.85,2.86,2.86,0,0,0,1.36-2.6q0-2.58-3.28-2.86L369.2,34a6.2,6.2,0,0,1-4.36-1.41,5,5,0,0,1-1.52-3.89,5.06,5.06,0,0,1,2-4.23,8.34,8.34,0,0,1,5.24-1.55A10.89,10.89,0,0,1,377.64,25l-1.88,1.88a8.39,8.39,0,0,0-5.24-1.56,5.39,5.39,0,0,0-3.28.85,2.85,2.85,0,0,0-1.12,2.42,2.81,2.81,0,0,0,.8,2.13,3.75,3.75,0,0,0,2.64.76l3.16.28a7.78,7.78,0,0,1,4.3,1.46,4.66,4.66,0,0,1,1.5,3.85,5.14,5.14,0,0,1-2.16,4.41A9.72,9.72,0,0,1,370.52,43.08Z" style="fill:#fff"/><path d="M391.8,43.08a8.2,8.2,0,0,1-6.28-2.62q-2.44-2.62-2.44-7.46t2.42-7.48a8.22,8.22,0,0,1,6.3-2.6,8.73,8.73,0,0,1,3.52.62,9.52,9.52,0,0,1,3,2.3l-2,1.84A7.24,7.24,0,0,0,394.2,26a5.5,5.5,0,0,0-2.4-.48,5,5,0,0,0-4.42,2A9.41,9.41,0,0,0,386,33a13.94,13.94,0,0,0,.28,3.08,8.53,8.53,0,0,0,1.42,2.82q1.14,1.62,4.14,1.62a5.35,5.35,0,0,0,2.4-.48,7.74,7.74,0,0,0,2.12-1.76l2,1.88a9.4,9.4,0,0,1-3,2.28A8.66,8.66,0,0,1,391.8,43.08Z" style="fill:#fff"/><path d="M414.77,26.92a5.17,5.17,0,0,0-1.54-1.12,4.71,4.71,0,0,0-1.86-.32,4.3,4.3,0,0,0-3.42,1.5,5.58,5.58,0,0,0-1.3,3.79V42.88h-2.88V23.16h2.88v2.4a5.6,5.6,0,0,1,2.3-1.92,7.36,7.36,0,0,1,3.22-.72,7.7,7.7,0,0,1,2.58.38,6,6,0,0,1,2.14,1.46Z" style="fill:#fff"/><path d="M420.45,17.52V14.28h3.24v3.24Zm.16,25.36V23.12h2.88V42.88Z" style="fill:#fff"/><path d="M444,41.36a5.6,5.6,0,0,1-2.06,1.24,7.84,7.84,0,0,1-2.74.48,8.15,8.15,0,0,1-3.1-.52,6.37,6.37,0,0,1-2.46-2V51.64h-2.88V23.16h2.88v2.32a6.21,6.21,0,0,1,2.46-2,8,8,0,0,1,3.1-.56,6.3,6.3,0,0,1,4.64,1.56,7.57,7.57,0,0,1,2.06,3.64,21,21,0,0,1,.5,4.88,21.07,21.07,0,0,1-.5,4.86A7.19,7.19,0,0,1,444,41.36Zm-5.4-15.88q-2.92,0-3.94,2a12.37,12.37,0,0,0-1,5.48,12.52,12.52,0,0,0,1,5.52q1,2,4,2t3.9-2a12.36,12.36,0,0,0,1-5.48,12.53,12.53,0,0,0-1-5.52Q441.5,25.48,438.58,25.48Z" style="fill:#fff"/><path d="M458.06,42.88a4.71,4.71,0,0,1-3.74-1.48,5.56,5.56,0,0,1-1.3-3.81V25.48h-2.48v-2.2H453V17.12h2.88v6.16h4.2v2.2h-4.2v12q0,2.89,2.68,2.89h1.52v2.48Z" style="fill:#fff"/><path d="M465.66,17.52V14.28h3.24v3.24Zm.16,25.36V23.12h2.88V42.88Z" style="fill:#fff"/><path d="M488.59,40.84a7.65,7.65,0,0,1-2.46,1.66,9,9,0,0,1-6.34,0,8,8,0,0,1-2.64-1.84,6.91,6.91,0,0,1-1.74-3.12,17.7,17.7,0,0,1-.5-4.54,17.8,17.8,0,0,1,.5-4.5,6.92,6.92,0,0,1,1.74-3.16,7.51,7.51,0,0,1,5.8-2.42,8.19,8.19,0,0,1,3.16.58,8,8,0,0,1,2.64,1.84,6.91,6.91,0,0,1,1.74,3.12A17.75,17.75,0,0,1,491,33a17.85,17.85,0,0,1-.5,4.5A7.45,7.45,0,0,1,488.59,40.84Zm-2-13.92a4.89,4.89,0,0,0-3.6-1.44,4.49,4.49,0,0,0-3.32,1.2,5.37,5.37,0,0,0-1.52,2.78,17.86,17.86,0,0,0-.32,3.54,18.45,18.45,0,0,0,.3,3.62,5.27,5.27,0,0,0,1.52,2.68,5.25,5.25,0,0,0,6.7,0,5.23,5.23,0,0,0,1.5-2.7,18.82,18.82,0,0,0,.3-3.62,18.91,18.91,0,0,0-.3-3.6A4.69,4.69,0,0,0,486.55,26.92Z" style="fill:#fff"/><path d="M509.76,42.88V30.73a5.46,5.46,0,0,0-1.28-3.91,4.69,4.69,0,0,0-3.56-1.34,4.75,4.75,0,0,0-3.58,1.34,5.4,5.4,0,0,0-1.3,3.91V42.88h-2.88V23.16H500v2.16a7.68,7.68,0,0,1,10.66-.48,7.28,7.28,0,0,1,1.94,5.41V42.88Z" style="fill:#fff"/><path d="M525.84,43.08a14.29,14.29,0,0,1-4.52-.65,9.59,9.59,0,0,1-3.56-2.16l1.92-1.9a6.58,6.58,0,0,0,2.64,1.71,10.54,10.54,0,0,0,3.48.53,7.31,7.31,0,0,0,3.88-.85,2.86,2.86,0,0,0,1.36-2.6q0-2.58-3.28-2.86L524.52,34a6.2,6.2,0,0,1-4.36-1.41,5,5,0,0,1-1.52-3.89,5.06,5.06,0,0,1,2-4.23,8.34,8.34,0,0,1,5.24-1.55A10.89,10.89,0,0,1,533,25l-1.88,1.88a8.39,8.39,0,0,0-5.24-1.56,5.39,5.39,0,0,0-3.28.85,2.85,2.85,0,0,0-1.12,2.42,2.81,2.81,0,0,0,.8,2.13,3.75,3.75,0,0,0,2.64.76l3.16.28a7.78,7.78,0,0,1,4.3,1.46,4.66,4.66,0,0,1,1.5,3.85,5.14,5.14,0,0,1-2.16,4.41A9.72,9.72,0,0,1,525.84,43.08Z" style="fill:#fff"/><path d="M538.71,45.82l-2.83,0L547.25,11.4l2.83,0Z" style="fill:#fff"/><path d="M570.57,42.88,564.09,30.2h-6.84V42.88h-3V14.36h10.92a8.69,8.69,0,0,1,6.1,2.14,7.45,7.45,0,0,1,2.34,5.78,7.57,7.57,0,0,1-1.68,5,7.81,7.81,0,0,1-4.52,2.6l6.76,13Zm-5.72-25.8h-7.6V27.52h7.6A6.15,6.15,0,0,0,569,26.2a4.83,4.83,0,0,0,1.54-3.88A4.87,4.87,0,0,0,569,18.44,6.05,6.05,0,0,0,564.85,17.08Z" style="fill:#fff"/><path d="M581.73,33.76a7.49,7.49,0,0,0,1.5,5,5.32,5.32,0,0,0,4.3,1.77,7,7,0,0,0,2.8-.49,8.16,8.16,0,0,0,2.36-1.71l2,1.72a11.12,11.12,0,0,1-3.18,2.32,9.73,9.73,0,0,1-4,.72,8.12,8.12,0,0,1-6.32-2.5q-2.28-2.5-2.28-7.58,0-4.76,2.14-7.42a7.2,7.2,0,0,1,5.94-2.66,7.35,7.35,0,0,1,5.94,2.54,10.5,10.5,0,0,1,2.14,7v1.32Zm9.8-5.44a4.61,4.61,0,0,0-1.8-2.16,5.06,5.06,0,0,0-2.8-.8,5,5,0,0,0-2.78.8A4.33,4.33,0,0,0,582.47,28a8.67,8.67,0,0,0-.6,1.82,9.77,9.77,0,0,0-.14,1.76h10.4a11.08,11.08,0,0,0-.1-1.76A7.83,7.83,0,0,0,591.54,28.32Z" style="fill:#fff"/><path d="M608.78,43.08a8.2,8.2,0,0,1-6.28-2.62q-2.44-2.62-2.44-7.46t2.42-7.48a8.22,8.22,0,0,1,6.3-2.6,8.73,8.73,0,0,1,3.52.62,9.52,9.52,0,0,1,3,2.3l-2,1.84A7.24,7.24,0,0,0,611.18,26a5.5,5.5,0,0,0-2.4-.48,5,5,0,0,0-4.42,2,9.41,9.41,0,0,0-1.42,5.5,13.94,13.94,0,0,0,.28,3.08,8.53,8.53,0,0,0,1.42,2.82q1.14,1.62,4.14,1.62a5.35,5.35,0,0,0,2.4-.48,7.74,7.74,0,0,0,2.12-1.76l2,1.88a9.4,9.4,0,0,1-3,2.28A8.66,8.66,0,0,1,608.78,43.08Z" style="fill:#fff"/><path d="M633.15,42.88v-2.2a7.75,7.75,0,0,1-10.69.5,7.35,7.35,0,0,1-1.91-5.46V23.16h2.88V35.28a5.49,5.49,0,0,0,1.26,3.9,4.62,4.62,0,0,0,3.54,1.34,4.79,4.79,0,0,0,3.6-1.36,5.34,5.34,0,0,0,1.32-3.88V23.16H636V42.88Z" style="fill:#fff"/><path d="M654.24,26.92a5.17,5.17,0,0,0-1.54-1.12,4.71,4.71,0,0,0-1.86-.32,4.3,4.3,0,0,0-3.42,1.5,5.58,5.58,0,0,0-1.3,3.79V42.88h-2.88V23.16h2.88v2.4a5.6,5.6,0,0,1,2.3-1.92,7.36,7.36,0,0,1,3.22-.72,7.7,7.7,0,0,1,2.58.38,6,6,0,0,1,2.14,1.46Z" style="fill:#fff"/><path d="M671.08,26.92a5.17,5.17,0,0,0-1.54-1.12,4.71,4.71,0,0,0-1.86-.32,4.3,4.3,0,0,0-3.42,1.5,5.58,5.58,0,0,0-1.3,3.79V42.88h-2.88V23.16H663v2.4a5.6,5.6,0,0,1,2.3-1.92,7.36,7.36,0,0,1,3.22-.72,7.7,7.7,0,0,1,2.58.38,6,6,0,0,1,2.14,1.46Z" style="fill:#fff"/><path d="M676.76,17.52V14.28H680v3.24Zm.16,25.36V23.12h2.88V42.88Z" style="fill:#fff"/><path d="M699.65,42.88V30.73a5.46,5.46,0,0,0-1.28-3.91,4.69,4.69,0,0,0-3.56-1.34,4.75,4.75,0,0,0-3.58,1.34,5.4,5.4,0,0,0-1.3,3.91V42.88H687V23.16h2.88v2.16a7.68,7.68,0,0,1,10.66-.48,7.28,7.28,0,0,1,1.94,5.41V42.88Z" style="fill:#fff"/><path d="M715.85,51.88a9.66,9.66,0,0,1-3.62-.58,10.88,10.88,0,0,1-3.06-2.06L711,47.4a9,9,0,0,0,2.16,1.47,6.27,6.27,0,0,0,2.56.45,4.91,4.91,0,0,0,4.06-1.67,6.68,6.68,0,0,0,1.34-4.32V40.28a6.2,6.2,0,0,1-2.46,2,8,8,0,0,1-3.06.55,7.38,7.38,0,0,1-2.68-.48,6.93,6.93,0,0,1-2.34-1.56A6.56,6.56,0,0,1,709,37.58a19.77,19.77,0,0,1-.52-4.74A20.11,20.11,0,0,1,709,28,6.49,6.49,0,0,1,710.56,25a6.57,6.57,0,0,1,2.37-1.56,8.52,8.52,0,0,1,5.8.06,6.32,6.32,0,0,1,2.43,2V23.16h2.88V43.44a8.56,8.56,0,0,1-2.2,6.08A7.81,7.81,0,0,1,715.85,51.88Zm.44-26.4q-2.88,0-3.9,2a12,12,0,0,0-1,5.35,12.14,12.14,0,0,0,1,5.38q1,2,3.92,2t3.9-2a12.34,12.34,0,0,0,1-5.4,12.33,12.33,0,0,0-1-5.39Q719.21,25.48,716.29,25.48Z" style="fill:#fff"/><rect width="51.8" height="51.8" style="fill:#00a7e1"/><path d="M33.94,24.64a2,2,0,0,0-.63.1v0a1.72,1.72,0,0,0-2.65-1.45,4,4,0,0,0-7.71,0,2.9,2.9,0,1,0-1.31,5.48h12.3a2.08,2.08,0,0,0,0-4.15Z" style="fill:#fff"/><path d="M41,26.68a1.64,1.64,0,0,0-1.86,1.41A12.3,12.3,0,0,1,26.86,38.53,12.44,12.44,0,0,1,16,32.18h1.59a.94.94,0,0,0,.61-1.66l-3.47-3.47a.94.94,0,0,0-1.33,0L9.86,30.58a.94.94,0,0,0,.67,1.61h1.82a15.71,15.71,0,0,0,30-3.65A1.65,1.65,0,0,0,41,26.68Z" style="fill:#fff"/><path d="M13.07,25.12a1.64,1.64,0,0,0,1.86-1.41A12.3,12.3,0,0,1,27.16,13.26,12.44,12.44,0,0,1,38,19.61H36.44a.94.94,0,0,0-.61,1.66l3.47,3.47a.94.94,0,0,0,1.33,0l3.53-3.53a.94.94,0,0,0-.67-1.61H41.67a15.71,15.71,0,0,0-30,3.65A1.65,1.65,0,0,0,13.07,25.12Z" style="fill:#fff"/></svg>