<svg id="Layer_1" data-name="Layer 1" xmlns="http://www.w3.org/2000/svg" viewBox="0 0 689.13 52.03"><title>Tax Collecting_and_Filing</title><rect width="51.8" height="51.8" style="fill:#00a7e1"/><path d="M87,40.38A9.72,9.72,0,0,1,79.81,43H70V14.5h9.76q4.56,0,6.86,2.3a9,9,0,0,1,2.72,4.77,43.22,43.22,0,0,1,.42,6.87V30a31.73,31.73,0,0,1-.5,6.13A8.25,8.25,0,0,1,87,40.38ZM84.89,19.31a6.26,6.26,0,0,0-2.46-1.58,9.39,9.39,0,0,0-3.14-.5h-6.2V40.31h6.2a9.66,9.66,0,0,0,3.14-.46A6.44,6.44,0,0,0,85,38.12a6.14,6.14,0,0,0,1.5-3.53,49.23,49.23,0,0,0,.3-6.15V27.12a21.47,21.47,0,0,0-.44-5.25A6.08,6.08,0,0,0,84.89,19.31Z" style="fill:#fff"/><path d="M96.29,17.67V14.43h3.24v3.24ZM96.45,43V23.27h2.88V43Z" style="fill:#fff"/><path d="M112.9,52a9.66,9.66,0,0,1-3.62-.58,10.88,10.88,0,0,1-3.06-2.06l1.88-1.84A9,9,0,0,0,110.26,49a6.27,6.27,0,0,0,2.56.45,4.91,4.91,0,0,0,4.06-1.67,6.68,6.68,0,0,0,1.34-4.32V40.43a6.2,6.2,0,0,1-2.46,2,8,8,0,0,1-3.06.55,7.38,7.38,0,0,1-2.68-.48,6.93,6.93,0,0,1-2.34-1.56,6.56,6.56,0,0,1-1.62-3.18,19.77,19.77,0,0,1-.52-4.74,20.11,20.11,0,0,1,.5-4.8,6.49,6.49,0,0,1,1.58-3.08A6.57,6.57,0,0,1,110,23.54a8.52,8.52,0,0,1,5.8.06,6.32,6.32,0,0,1,2.43,2V23.31h2.88V43.58a8.56,8.56,0,0,1-2.2,6.08A7.81,7.81,0,0,1,112.9,52Zm.44-26.4q-2.88,0-3.9,2a12,12,0,0,0-1,5.35,12.14,12.14,0,0,0,1,5.38q1,2,3.92,2t3.9-2a12.34,12.34,0,0,0,1-5.4,12.33,12.33,0,0,0-1-5.39Q116.26,25.63,113.34,25.63Z" style="fill:#fff"/><path d="M128.14,17.67V14.43h3.24v3.24ZM128.3,43V23.27h2.88V43Z" style="fill:#fff"/><path d="M143.94,43a4.71,4.71,0,0,1-3.74-1.48,5.56,5.56,0,0,1-1.3-3.81V25.63h-2.48v-2.2h2.48V17.27h2.88v6.16H146v2.2h-4.2v12q0,2.89,2.68,2.89H146V43Z" style="fill:#fff"/><path d="M162.87,43V41.15a6.93,6.93,0,0,1-2.44,1.61,9.53,9.53,0,0,1-3.24.47,11.37,11.37,0,0,1-3.34-.4,6.16,6.16,0,0,1-2.48-1.64,5.16,5.16,0,0,1-1.22-3.76,5.21,5.21,0,0,1,1.76-4.16,7.49,7.49,0,0,1,5-1.52h5.92V29.87a4.19,4.19,0,0,0-1.17-3.26,5.64,5.64,0,0,0-3.83-1.06,7.28,7.28,0,0,0-3,.48,5.15,5.15,0,0,0-1.94,1.76l-2-1.8a6.74,6.74,0,0,1,2.86-2.3,11.39,11.39,0,0,1,4.1-.62q7.88,0,7.88,6.57V43Zm0-9.12h-5.52q-4.4,0-4.4,3.48t4.52,3.36A11.05,11.05,0,0,0,160,40.5a4.27,4.27,0,0,0,1.94-1.14,4.59,4.59,0,0,0,.94-3.34Z" style="fill:#fff"/><path d="M177.67,43a4.74,4.74,0,0,1-3.74-1.42,5.56,5.56,0,0,1-1.26-3.83V14.5h2.88V37.66a3.39,3.39,0,0,0,.58,2.18,2.55,2.55,0,0,0,2.06.7h1.56V43Z" style="fill:#fff"/><path d="M211.48,43,205,30.35h-6.84V43h-3V14.5H206a8.69,8.69,0,0,1,6.1,2.14,7.45,7.45,0,0,1,2.34,5.78,7.57,7.57,0,0,1-1.68,5,7.81,7.81,0,0,1-4.52,2.6L215,43Zm-5.72-25.8h-7.6V27.67h7.6a6.15,6.15,0,0,0,4.14-1.32,4.83,4.83,0,0,0,1.54-3.88,4.87,4.87,0,0,0-1.56-3.88A6.05,6.05,0,0,0,205.76,17.23Z" style="fill:#fff"/><path d="M220.69,17.67V14.43h3.24v3.24ZM220.84,43V23.27h2.88V43Z" style="fill:#fff"/><path d="M237.57,43H235l-7.2-19.72h3.11l5.35,15.82,5.43-15.82h3.11Z" style="fill:#fff"/><path d="M250.65,33.91a7.49,7.49,0,0,0,1.5,5,5.32,5.32,0,0,0,4.3,1.77,7,7,0,0,0,2.8-.49,8.16,8.16,0,0,0,2.36-1.71l2,1.72a11.12,11.12,0,0,1-3.18,2.32,9.73,9.73,0,0,1-4,.72,8.12,8.12,0,0,1-6.32-2.5q-2.28-2.5-2.28-7.58,0-4.76,2.14-7.42a7.2,7.2,0,0,1,5.94-2.66,7.35,7.35,0,0,1,5.94,2.54,10.5,10.5,0,0,1,2.14,7v1.32Zm9.8-5.44a4.61,4.61,0,0,0-1.8-2.16,5.06,5.06,0,0,0-2.8-.8,5,5,0,0,0-2.78.8,4.33,4.33,0,0,0-1.68,1.86,8.67,8.67,0,0,0-.6,1.82,9.77,9.77,0,0,0-.14,1.76h10.4A11.08,11.08,0,0,0,261,30,7.83,7.83,0,0,0,260.46,28.47Z" style="fill:#fff"/><path d="M281.06,27.07a5.17,5.17,0,0,0-1.54-1.12,4.71,4.71,0,0,0-1.86-.32,4.3,4.3,0,0,0-3.42,1.5,5.58,5.58,0,0,0-1.3,3.79V43h-2.88V23.31h2.88v2.4a5.6,5.6,0,0,1,2.3-1.92,7.36,7.36,0,0,1,3.22-.72,7.7,7.7,0,0,1,2.58.38,6,6,0,0,1,2.14,1.46Z" style="fill:#fff"/><path d="M305.75,17.23V43h-3V17.23h-8.24V14.5H314v2.72Z" style="fill:#fff"/><path d="M330,43V41.15a6.93,6.93,0,0,1-2.44,1.61,9.53,9.53,0,0,1-3.24.47,11.37,11.37,0,0,1-3.34-.4,6.16,6.16,0,0,1-2.48-1.64,5.16,5.16,0,0,1-1.22-3.76A5.21,5.21,0,0,1,319,33.27a7.49,7.49,0,0,1,5-1.52H330V29.87a4.19,4.19,0,0,0-1.17-3.26A5.64,5.64,0,0,0,325,25.54a7.28,7.28,0,0,0-3,.48A5.15,5.15,0,0,0,320,27.79L318,26a6.74,6.74,0,0,1,2.86-2.3,11.39,11.39,0,0,1,4.1-.62q7.88,0,7.88,6.57V43Zm0-9.12h-5.52q-4.4,0-4.4,3.48t4.52,3.36a11.05,11.05,0,0,0,2.52-.24A4.27,4.27,0,0,0,329,39.37,4.59,4.59,0,0,0,330,36Z" style="fill:#fff"/><path d="M350.54,43l-4.7-7.66L341.05,43h-3.5l6.68-10.08-6.4-9.64h3.46l4.55,7.35,4.45-7.35h3.46l-6.4,9.64L354,43Z" style="fill:#fff"/><path d="M378.33,43.23a9.08,9.08,0,0,1-6.72-2.4,9.25,9.25,0,0,1-2.82-4.68,45.69,45.69,0,0,1-.42-7.4q0-4.24.24-6.78a8.59,8.59,0,0,1,2.82-5.12,9.33,9.33,0,0,1,6.9-2.58,9.74,9.74,0,0,1,6.52,2.24,10.25,10.25,0,0,1,3.36,6.24h-3.12a7.69,7.69,0,0,0-2.34-4.22A6.43,6.43,0,0,0,378.33,17a6.16,6.16,0,0,0-4.62,1.66,6.8,6.8,0,0,0-2,3.52,42.58,42.58,0,0,0-.34,6.58,42.64,42.64,0,0,0,.34,6.56,6.8,6.8,0,0,0,2,3.54,6.16,6.16,0,0,0,4.62,1.66A6.58,6.58,0,0,0,382.79,39a7.58,7.58,0,0,0,2.38-4.22h3A10.09,10.09,0,0,1,384.87,41,9.76,9.76,0,0,1,378.33,43.23Z" style="fill:#fff"/><path d="M407.06,41a7.65,7.65,0,0,1-2.46,1.66,9,9,0,0,1-6.34,0,8,8,0,0,1-2.64-1.84,6.91,6.91,0,0,1-1.74-3.12,17.7,17.7,0,0,1-.5-4.54,17.8,17.8,0,0,1,.5-4.5,6.92,6.92,0,0,1,1.74-3.16,7.51,7.51,0,0,1,5.8-2.42,8.19,8.19,0,0,1,3.16.58,8,8,0,0,1,2.64,1.84A6.91,6.91,0,0,1,409,28.61a17.75,17.75,0,0,1,.5,4.54,17.85,17.85,0,0,1-.5,4.5A7.45,7.45,0,0,1,407.06,41Zm-2-13.92a4.89,4.89,0,0,0-3.6-1.44,4.49,4.49,0,0,0-3.32,1.2,5.37,5.37,0,0,0-1.52,2.78,17.86,17.86,0,0,0-.32,3.54,18.45,18.45,0,0,0,.3,3.62,5.27,5.27,0,0,0,1.52,2.68,5.25,5.25,0,0,0,6.7,0,5.23,5.23,0,0,0,1.5-2.7,18.82,18.82,0,0,0,.3-3.62,18.91,18.91,0,0,0-.3-3.6A4.69,4.69,0,0,0,405,27.07Z" style="fill:#fff"/><path d="M420.54,43a4.74,4.74,0,0,1-3.74-1.42,5.56,5.56,0,0,1-1.26-3.83V14.5h2.88V37.66a3.39,3.39,0,0,0,.58,2.18,2.55,2.55,0,0,0,2.06.7h1.56V43Z" style="fill:#fff"/><path d="M432.42,43a4.74,4.74,0,0,1-3.74-1.42,5.56,5.56,0,0,1-1.26-3.83V14.5h2.88V37.66a3.39,3.39,0,0,0,.58,2.18,2.55,2.55,0,0,0,2.06.7h1.56V43Z" style="fill:#fff"/><path d="M441.19,33.91a7.49,7.49,0,0,0,1.5,5,5.32,5.32,0,0,0,4.3,1.77,7,7,0,0,0,2.8-.49,8.16,8.16,0,0,0,2.36-1.71l2,1.72a11.12,11.12,0,0,1-3.18,2.32,9.73,9.73,0,0,1-4,.72,8.12,8.12,0,0,1-6.32-2.5q-2.28-2.5-2.28-7.58,0-4.76,2.14-7.42a7.2,7.2,0,0,1,5.94-2.66,7.35,7.35,0,0,1,5.94,2.54,10.5,10.5,0,0,1,2.14,7v1.32Zm9.8-5.44a4.61,4.61,0,0,0-1.8-2.16,5.06,5.06,0,0,0-2.8-.8,5,5,0,0,0-2.78.8,4.33,4.33,0,0,0-1.68,1.86,8.67,8.67,0,0,0-.6,1.82,9.77,9.77,0,0,0-.14,1.76h10.4a11.08,11.08,0,0,0-.1-1.76A7.83,7.83,0,0,0,451,28.47Z" style="fill:#fff"/><path d="M468.23,43.23A8.2,8.2,0,0,1,462,40.61q-2.44-2.62-2.44-7.46t2.42-7.48a8.22,8.22,0,0,1,6.3-2.6,8.73,8.73,0,0,1,3.52.62,9.52,9.52,0,0,1,3,2.3l-2,1.84a7.24,7.24,0,0,0-2.12-1.72,5.5,5.5,0,0,0-2.4-.48,5,5,0,0,0-4.42,2,9.41,9.41,0,0,0-1.42,5.5,13.94,13.94,0,0,0,.28,3.08A8.53,8.53,0,0,0,464.09,39q1.14,1.62,4.14,1.62a5.35,5.35,0,0,0,2.4-.48,7.74,7.74,0,0,0,2.12-1.76l2,1.88a9.4,9.4,0,0,1-3,2.28A8.66,8.66,0,0,1,468.23,43.23Z" style="fill:#fff"/><path d="M485.72,43A4.71,4.71,0,0,1,482,41.54a5.56,5.56,0,0,1-1.3-3.81V25.63H478.2v-2.2h2.48V17.27h2.88v6.16h4.2v2.2h-4.2v12q0,2.89,2.68,2.89h1.52V43Z" style="fill:#fff"/><path d="M493.32,17.67V14.43h3.24v3.24ZM493.48,43V23.27h2.88V43Z" style="fill:#fff"/><path d="M516.25,41a7.65,7.65,0,0,1-2.46,1.66,9,9,0,0,1-6.34,0,8,8,0,0,1-2.64-1.84,6.91,6.91,0,0,1-1.74-3.12,17.7,17.7,0,0,1-.5-4.54,17.8,17.8,0,0,1,.5-4.5,6.92,6.92,0,0,1,1.74-3.16,7.51,7.51,0,0,1,5.8-2.42,8.19,8.19,0,0,1,3.16.58,8,8,0,0,1,2.64,1.84,6.91,6.91,0,0,1,1.74,3.12,17.75,17.75,0,0,1,.5,4.54,17.85,17.85,0,0,1-.5,4.5A7.45,7.45,0,0,1,516.25,41Zm-2-13.92a4.89,4.89,0,0,0-3.6-1.44,4.49,4.49,0,0,0-3.32,1.2,5.37,5.37,0,0,0-1.52,2.78,17.86,17.86,0,0,0-.32,3.54,18.45,18.45,0,0,0,.3,3.62,5.27,5.27,0,0,0,1.52,2.68,5.25,5.25,0,0,0,6.7,0,5.23,5.23,0,0,0,1.5-2.7,18.82,18.82,0,0,0,.3-3.62,18.91,18.91,0,0,0-.3-3.6A4.69,4.69,0,0,0,514.21,27.07Z" style="fill:#fff"/><path d="M537.41,43V30.88A5.46,5.46,0,0,0,536.13,27a4.69,4.69,0,0,0-3.56-1.34A4.75,4.75,0,0,0,529,27a5.4,5.4,0,0,0-1.3,3.91V43h-2.88V23.31h2.88v2.16A7.68,7.68,0,0,1,538.35,25a7.28,7.28,0,0,1,1.94,5.41V43Z" style="fill:#fff"/><path d="M576.7,43l-2.55-3.13a15.81,15.81,0,0,1-3.4,2.33,10.76,10.76,0,0,1-5,1,9.24,9.24,0,0,1-6.57-2.28,7.83,7.83,0,0,1-2.44-6,7.52,7.52,0,0,1,1.18-4.08,17.57,17.57,0,0,1,5-4.44,25,25,0,0,1-2.32-3.18,5.88,5.88,0,0,1-.76-3A5.64,5.64,0,0,1,561.6,16a6.25,6.25,0,0,1,4.5-1.7A6.1,6.1,0,0,1,570.54,16a5.74,5.74,0,0,1,1.76,4.28,4.91,4.91,0,0,1-.82,2.84,8.8,8.8,0,0,1-2.34,2.24L567,26.79l7.29,8.76a9.39,9.39,0,0,0,1.24-2.76A15.76,15.76,0,0,0,575.9,29h2.88a17.55,17.55,0,0,1-.62,4.94,10.49,10.49,0,0,1-2,3.78L580.5,43ZM564.57,28.35a22,22,0,0,0-3.72,3,5,5,0,0,0-1.16,3.48,5.4,5.4,0,0,0,1.66,4.1,6,6,0,0,0,4.34,1.58,9.51,9.51,0,0,0,3.38-.58,11.17,11.17,0,0,0,3.34-2.18Zm1.51-11.52a3.16,3.16,0,0,0-2.35.92,3.28,3.28,0,0,0-.91,2.41,3.92,3.92,0,0,0,.54,1.93,21.5,21.5,0,0,0,2,2.77l1.5-1a10.23,10.23,0,0,0,1.88-1.67,2.88,2.88,0,0,0,.65-1.91,3.38,3.38,0,0,0-1-2.41A3.15,3.15,0,0,0,566.08,16.83Z" style="fill:#fff"/><path d="M600.35,17.23V27.71h12.48v2.72H600.35V43h-3V14.5H615v2.72Z" style="fill:#fff"/><path d="M619.83,17.67V14.43h3.24v3.24ZM620,43V23.27h2.88V43Z" style="fill:#fff"/><path d="M635,43a4.74,4.74,0,0,1-3.74-1.42A5.56,5.56,0,0,1,630,37.78V14.5h2.88V37.66a3.39,3.39,0,0,0,.58,2.18,2.55,2.55,0,0,0,2.06.7h1.56V43Z" style="fill:#fff"/><path d="M641.84,17.67V14.43h3.24v3.24ZM642,43V23.27h2.88V43Z" style="fill:#fff"/><path d="M664.73,43V30.88A5.46,5.46,0,0,0,663.45,27a4.69,4.69,0,0,0-3.56-1.34A4.75,4.75,0,0,0,656.3,27a5.4,5.4,0,0,0-1.3,3.91V43h-2.88V23.31H655v2.16A7.68,7.68,0,0,1,665.67,25a7.28,7.28,0,0,1,1.94,5.41V43Z" style="fill:#fff"/><path d="M680.93,52a9.66,9.66,0,0,1-3.62-.58,10.88,10.88,0,0,1-3.06-2.06l1.88-1.84A9,9,0,0,0,678.29,49a6.27,6.27,0,0,0,2.56.45,4.91,4.91,0,0,0,4.06-1.67,6.68,6.68,0,0,0,1.34-4.32V40.43a6.2,6.2,0,0,1-2.46,2,8,8,0,0,1-3.06.55,7.38,7.38,0,0,1-2.68-.48,6.93,6.93,0,0,1-2.34-1.56,6.56,6.56,0,0,1-1.62-3.18,19.77,19.77,0,0,1-.52-4.74,20.11,20.11,0,0,1,.5-4.8,6.49,6.49,0,0,1,1.58-3.08A6.57,6.57,0,0,1,678,23.54a8.52,8.52,0,0,1,5.8.06,6.32,6.32,0,0,1,2.43,2V23.31h2.88V43.58a8.56,8.56,0,0,1-2.2,6.08A7.81,7.81,0,0,1,680.93,52Zm.44-26.4q-2.88,0-3.9,2a12,12,0,0,0-1,5.35,12.14,12.14,0,0,0,1,5.38q1,2,3.92,2t3.9-2a12.34,12.34,0,0,0,1-5.4,12.33,12.33,0,0,0-1-5.39Q684.29,25.63,681.37,25.63Z" style="fill:#fff"/><path d="M39.77,18.81A1.73,1.73,0,0,0,38,17.09H22.84v-.71a1.73,1.73,0,0,0-1.72-1.72H13.58a1.73,1.73,0,0,0-1.72,1.72v4.2H39.75Z" style="fill:#fff"/><path d="M24,29.08c0,.54.56.78,1.16.93V28C24.37,28.12,24,28.53,24,29.08Z" style="fill:#fff"/><path d="M26.68,32.37l-.28-.07v2.22c.79-.16,1.21-.66,1.21-1.18S27.43,32.55,26.68,32.37Z" style="fill:#fff"/><path d="M40.93,22.34H10.7A1.51,1.51,0,0,0,9.16,24l2.66,14.49a2,2,0,0,0,1.91,1.71H37.9a2,2,0,0,0,1.91-1.71L42.47,24A1.52,1.52,0,0,0,40.93,22.34ZM26.41,36.11v.72a.65.65,0,1,1-1.29,0V36.1c-2.27-.22-3.31-1.41-3.31-2.33a.87.87,0,0,1,.93-.88c1,0,.94,1.28,2.38,1.61V32l-.92-.23c-2-.49-2.36-1.56-2.36-2.56,0-1.86,1.6-2.68,3.28-2.83v-.73a.65.65,0,1,1,1.29,0v.75c1.52.21,3,1.05,3,2.13a.91.91,0,0,1-1,.84c-.85,0-.86-1-2-1.28V30.3l.89.19c2,.44,2.53,1.6,2.53,2.69C29.83,34.75,28.69,35.94,26.41,36.11Z" style="fill:#fff"/></svg>