<?xml version="1.0" encoding="utf-8"?>
<!-- Generator: Adobe Illustrator 19.1.0, SVG Export Plug-In . SVG Version: 6.00 Build 0)  -->
<svg version="1.1" id="Layer_1" xmlns="http://www.w3.org/2000/svg" xmlns:xlink="http://www.w3.org/1999/xlink" x="0px" y="0px"
	 viewBox="0 0 608.3 99" style="enable-background:new 0 0 608.3 99;" xml:space="preserve">
<style type="text/css">
	.st0{clip-path:url(#SVGID_2_);fill:#646469;}
	.st1{clip-path:url(#SVGID_2_);fill:#00A7FF;}
</style>
<g>
	<defs>
		<rect id="SVGID_1_" y="0" width="608.3" height="99"/>
	</defs>
	<clipPath id="SVGID_2_">
		<use xlink:href="#SVGID_1_"  style="overflow:visible;"/>
	</clipPath>
	<path class="st0" d="M0.5,87.9c0-2.4,0.1-3.2,0.4-4.1c0.7-2.3,2.4-3.4,4.8-3.4c2.1,0,3.8,1.1,4.6,2.9c0,0.1,0,0.2-0.1,0.3L9,84.3
		c-0.1,0.1-0.3,0-0.3-0.1c-0.6-1.1-1.5-1.9-3-1.9c-1.6,0-2.5,0.8-3,2.1c-0.2,0.6-0.3,1.3-0.3,3.6c0,2.3,0.1,3,0.3,3.6
		c0.5,1.4,1.4,2.1,3,2.1c1.5,0,2.4-0.8,3-1.9c0-0.1,0.2-0.2,0.3-0.1l1.3,0.6c0.1,0.1,0.1,0.2,0.1,0.3c-0.8,1.8-2.5,2.9-4.6,2.9
		c-2.4,0-4.1-1.1-4.8-3.4C0.6,91.1,0.5,90.3,0.5,87.9"/>
	<path class="st0" d="M12.7,92.6c-0.2-0.7-0.3-1.4-0.3-2.6c0-1.2,0.1-1.9,0.3-2.6c0.6-1.7,2-2.7,4-2.7c2,0,3.5,1,4,2.7
		c0.2,0.7,0.3,1.4,0.3,2.6c0,1.2-0.1,1.9-0.3,2.6c-0.6,1.7-2,2.7-4,2.7C14.7,95.4,13.2,94.4,12.7,92.6 M19,92.1
		c0.2-0.6,0.2-1.1,0.2-2.1c0-1-0.1-1.5-0.2-2.1c-0.3-1-1.2-1.6-2.3-1.6c-1.1,0-2,0.6-2.3,1.6c-0.2,0.6-0.2,1.1-0.2,2.1
		c0,1,0.1,1.5,0.2,2.1c0.3,1,1.2,1.6,2.3,1.6C17.8,93.7,18.6,93.1,19,92.1"/>
	<path class="st0" d="M36.9,95.1c-0.1,0-0.2-0.1-0.2-0.2v-6c0-1.6-0.7-2.6-2.3-2.6c-1.4,0-2.3,1-2.3,2.5v6.1c0,0.1-0.1,0.2-0.2,0.2
		h-1.4c-0.1,0-0.2-0.1-0.2-0.2v-6c0-1.6-0.7-2.6-2.3-2.6c-1.4,0-2.3,1-2.3,2.5v6.1c0,0.1-0.1,0.2-0.2,0.2h-1.4
		c-0.1,0-0.2-0.1-0.2-0.2v-9.8c0-0.1,0.1-0.2,0.2-0.2h1.4c0.1,0,0.2,0.1,0.2,0.2v0.9h0c0.5-0.8,1.5-1.4,2.8-1.4c1.4,0,2.4,0.6,3,1.6
		h0c0.7-1,1.7-1.6,3.3-1.6c2.4,0,3.6,1.5,3.6,3.8v6.4c0,0.1-0.1,0.2-0.2,0.2H36.9z"/>
	<path class="st0" d="M54.7,95.1c-0.1,0-0.2-0.1-0.2-0.2v-6c0-1.6-0.7-2.6-2.3-2.6c-1.4,0-2.3,1-2.3,2.5v6.1c0,0.1-0.1,0.2-0.2,0.2
		h-1.4c-0.1,0-0.2-0.1-0.2-0.2v-6c0-1.6-0.7-2.6-2.3-2.6c-1.4,0-2.3,1-2.3,2.5v6.1c0,0.1-0.1,0.2-0.2,0.2H42c-0.1,0-0.2-0.1-0.2-0.2
		v-9.8c0-0.1,0.1-0.2,0.2-0.2h1.4c0.1,0,0.2,0.1,0.2,0.2v0.9h0c0.5-0.8,1.5-1.4,2.8-1.4c1.4,0,2.4,0.6,3,1.6h0
		c0.7-1,1.7-1.6,3.3-1.6c2.4,0,3.6,1.5,3.6,3.8v6.4c0,0.1-0.1,0.2-0.2,0.2H54.7z"/>
	<path class="st0" d="M66,95.1c-0.1,0-0.2-0.1-0.2-0.2v-1h0c-0.5,0.8-1.5,1.4-2.8,1.4c-2.2,0-3.5-1.5-3.5-3.8v-6.4
		c0-0.1,0.1-0.2,0.2-0.2h1.4c0.1,0,0.2,0.1,0.2,0.2v5.9c0,1.7,0.7,2.6,2.3,2.6c1.4,0,2.3-1,2.3-2.5v-6c0-0.1,0.1-0.2,0.2-0.2h1.4
		c0.1,0,0.2,0.1,0.2,0.2v9.8c0,0.1-0.1,0.2-0.2,0.2H66z"/>
	<path class="st0" d="M77.6,95.1c-0.1,0-0.2-0.1-0.2-0.2v-6c0-1.6-0.7-2.6-2.3-2.6c-1.4,0-2.3,1-2.3,2.5v6.1c0,0.1-0.1,0.2-0.2,0.2
		h-1.4c-0.1,0-0.2-0.1-0.2-0.2v-9.8c0-0.1,0.1-0.2,0.2-0.2h1.4c0.1,0,0.2,0.1,0.2,0.2v0.9h0c0.5-0.8,1.5-1.4,2.8-1.4
		c2.2,0,3.5,1.5,3.5,3.8v6.4c0,0.1-0.1,0.2-0.2,0.2H77.6z"/>
	<path class="st0" d="M82.7,82.7c-0.1,0-0.2-0.1-0.2-0.2v-1.6c0-0.1,0.1-0.2,0.2-0.2h1.4c0.1,0,0.2,0.1,0.2,0.2v1.6
		c0,0.1-0.1,0.2-0.2,0.2H82.7z M82.7,95.1c-0.1,0-0.2-0.1-0.2-0.2v-9.8c0-0.1,0.1-0.2,0.2-0.2h1.4c0.1,0,0.2,0.1,0.2,0.2v9.8
		c0,0.1-0.1,0.2-0.2,0.2H82.7z"/>
	<path class="st0" d="M90.7,95.3c-2,0-2.7-0.9-2.7-2.9v-5.8c0-0.1,0-0.1-0.1-0.1H87c-0.1,0-0.2-0.1-0.2-0.2v-1
		c0-0.1,0.1-0.2,0.2-0.2h0.9c0.1,0,0.1,0,0.1-0.1V82c0-0.1,0.1-0.2,0.2-0.2h1.4c0.1,0,0.2,0.1,0.2,0.2v2.9c0,0.1,0,0.1,0.1,0.1h1.6
		c0.1,0,0.2,0.1,0.2,0.2v1c0,0.1-0.1,0.2-0.2,0.2h-1.6c-0.1,0-0.1,0-0.1,0.1v5.8c0,1,0.4,1.3,1.3,1.3h0.4c0.1,0,0.2,0.1,0.2,0.2V95
		c0,0.1-0.1,0.2-0.2,0.2H90.7z"/>
	<path class="st0" d="M94.5,99c-0.1,0-0.2-0.1-0.2-0.2v-1.2c0-0.1,0.1-0.2,0.2-0.2h0.4c0.8,0,1.3-0.4,1.7-1.5l0.3-0.9l-3.7-9.7
		c0-0.1,0-0.2,0.2-0.2h1.5c0.1,0,0.2,0.1,0.3,0.2l2.7,7.4h0l2.6-7.4c0-0.1,0.1-0.2,0.3-0.2h1.4c0.1,0,0.2,0.1,0.2,0.2l-4,10.8
		c-0.9,2.4-1.7,3-3.2,3H94.5z"/>
	<path class="st0" d="M107.9,92.6c-0.2-0.7-0.3-1.4-0.3-2.6c0-1.2,0.1-1.9,0.3-2.6c0.6-1.7,2-2.7,4-2.7c2,0,3.5,1,4,2.7
		c0.2,0.7,0.3,1.4,0.3,2.6c0,1.2-0.1,1.9-0.3,2.6c-0.6,1.7-2,2.7-4,2.7C110,95.4,108.5,94.4,107.9,92.6 M114.2,92.1
		c0.2-0.6,0.2-1.1,0.2-2.1c0-1-0.1-1.5-0.2-2.1c-0.3-1-1.2-1.6-2.3-1.6c-1.1,0-2,0.6-2.3,1.6c-0.2,0.6-0.2,1.1-0.2,2.1
		c0,1,0.1,1.5,0.2,2.1c0.3,1,1.2,1.6,2.3,1.6C113.1,93.7,113.9,93.1,114.2,92.1"/>
	<path class="st0" d="M119.7,95.1c-0.1,0-0.2-0.1-0.2-0.2v-8.4c0-0.1,0-0.1-0.1-0.1h-0.9c-0.1,0-0.2-0.1-0.2-0.2v-1
		c0-0.1,0.1-0.2,0.2-0.2h0.9c0.1,0,0.1,0,0.1-0.1V84c0-2.4,1-3.3,3.1-3.3h0.8c0.1,0,0.2,0.1,0.2,0.2v1.2c0,0.1-0.1,0.2-0.2,0.2h-0.6
		c-1.3,0-1.6,0.3-1.6,1.5v1c0,0.1,0,0.1,0.1,0.1h2c0.1,0,0.2,0.1,0.2,0.2v1c0,0.1-0.1,0.2-0.2,0.2h-2c-0.1,0-0.1,0-0.1,0.1v8.4
		c0,0.1-0.1,0.2-0.2,0.2H119.7z"/>
	<path class="st0" d="M130.4,87.9c0-2.4,0.1-3.2,0.4-4.1c0.7-2.3,2.4-3.4,4.8-3.4c2.1,0,3.8,1.1,4.6,2.9c0,0.1,0,0.2-0.1,0.3
		l-1.3,0.6c-0.1,0.1-0.3,0-0.3-0.1c-0.6-1.1-1.5-1.9-3-1.9c-1.6,0-2.5,0.8-3,2.1c-0.2,0.6-0.3,1.3-0.3,3.6c0,2.3,0.1,3,0.3,3.6
		c0.5,1.4,1.4,2.1,3,2.1c1.5,0,2.4-0.8,3-1.9c0-0.1,0.2-0.2,0.3-0.1l1.3,0.6c0.1,0.1,0.1,0.2,0.1,0.3c-0.8,1.8-2.5,2.9-4.6,2.9
		c-2.4,0-4.1-1.1-4.8-3.4C130.5,91.1,130.4,90.3,130.4,87.9"/>
	<path class="st0" d="M142.5,92.6c-0.2-0.7-0.3-1.4-0.3-2.6c0-1.2,0.1-1.9,0.3-2.6c0.6-1.7,2-2.7,4-2.7c2,0,3.5,1,4,2.7
		c0.2,0.7,0.3,1.4,0.3,2.6c0,1.2-0.1,1.9-0.3,2.6c-0.6,1.7-2,2.7-4,2.7C144.6,95.4,143.1,94.4,142.5,92.6 M148.8,92.1
		c0.2-0.6,0.2-1.1,0.2-2.1c0-1-0.1-1.5-0.2-2.1c-0.3-1-1.2-1.6-2.3-1.6c-1.1,0-2,0.6-2.3,1.6c-0.2,0.6-0.2,1.1-0.2,2.1
		c0,1,0.1,1.5,0.2,2.1c0.3,1,1.2,1.6,2.3,1.6C147.7,93.7,148.5,93.1,148.8,92.1"/>
	<path class="st0" d="M166.7,95.1c-0.1,0-0.2-0.1-0.2-0.2v-6c0-1.6-0.7-2.6-2.3-2.6c-1.4,0-2.3,1-2.3,2.5v6.1c0,0.1-0.1,0.2-0.2,0.2
		h-1.4c-0.1,0-0.2-0.1-0.2-0.2v-6c0-1.6-0.7-2.6-2.3-2.6c-1.4,0-2.3,1-2.3,2.5v6.1c0,0.1-0.1,0.2-0.2,0.2h-1.4
		c-0.1,0-0.2-0.1-0.2-0.2v-9.8c0-0.1,0.1-0.2,0.2-0.2h1.4c0.1,0,0.2,0.1,0.2,0.2v0.9h0c0.5-0.8,1.5-1.4,2.8-1.4c1.4,0,2.4,0.6,3,1.6
		h0c0.7-1,1.7-1.6,3.3-1.6c2.4,0,3.6,1.5,3.6,3.8v6.4c0,0.1-0.1,0.2-0.2,0.2H166.7z"/>
	<path class="st0" d="M184.6,95.1c-0.1,0-0.2-0.1-0.2-0.2v-6c0-1.6-0.7-2.6-2.3-2.6c-1.4,0-2.3,1-2.3,2.5v6.1c0,0.1-0.1,0.2-0.2,0.2
		h-1.4c-0.1,0-0.2-0.1-0.2-0.2v-6c0-1.6-0.7-2.6-2.3-2.6c-1.4,0-2.3,1-2.3,2.5v6.1c0,0.1-0.1,0.2-0.2,0.2h-1.4
		c-0.1,0-0.2-0.1-0.2-0.2v-9.8c0-0.1,0.1-0.2,0.2-0.2h1.4c0.1,0,0.2,0.1,0.2,0.2v0.9h0c0.5-0.8,1.5-1.4,2.8-1.4c1.4,0,2.4,0.6,3,1.6
		h0c0.7-1,1.7-1.6,3.3-1.6c2.4,0,3.6,1.5,3.6,3.8v6.4c0,0.1-0.1,0.2-0.2,0.2H184.6z"/>
	<path class="st0" d="M189.2,92.6c-0.2-0.7-0.3-1.4-0.3-2.6s0.1-2,0.3-2.6c0.6-1.8,2.1-2.7,4-2.7c2,0,3.4,1,4,2.7
		c0.2,0.7,0.3,1.4,0.3,2.9c0,0.1-0.1,0.2-0.2,0.2h-6.4c-0.1,0-0.1,0-0.1,0.1c0,0.6,0.1,0.9,0.2,1.2c0.4,1.2,1.3,1.8,2.6,1.8
		c1.2,0,2.1-0.5,2.6-1.1c0.1-0.1,0.2-0.1,0.3,0l0.9,0.8c0.1,0.1,0.1,0.2,0,0.3c-0.8,1-2.2,1.7-4,1.7
		C191.2,95.4,189.8,94.4,189.2,92.6 M195.5,89.2c0.1,0,0.1,0,0.1-0.1c0-0.5,0-0.8-0.1-1.1c-0.3-1-1.2-1.6-2.3-1.6s-2,0.6-2.3,1.6
		c-0.1,0.3-0.1,0.7-0.1,1.1c0,0.1,0,0.1,0.1,0.1H195.5z"/>
	<path class="st0" d="M200.5,95.1c-0.1,0-0.2-0.1-0.2-0.2v-9.8c0-0.1,0.1-0.2,0.2-0.2h1.4c0.1,0,0.2,0.1,0.2,0.2v1h0
		c0.4-0.9,1.3-1.5,2.7-1.5c0.8,0,1.6,0.3,2.1,0.8c0.1,0.1,0.1,0.2,0,0.3l-0.8,1c-0.1,0.1-0.2,0.1-0.3,0c-0.5-0.3-1-0.5-1.6-0.5
		c-1.6,0-2.2,1.2-2.2,3v5.6c0,0.1-0.1,0.2-0.2,0.2H200.5z"/>
	<path class="st0" d="M208.3,87.5c0.6-1.8,2.1-2.7,4-2.7c1.6,0,2.7,0.7,3.5,1.7c0.1,0.1,0.1,0.2-0.1,0.3l-0.9,0.8
		c-0.1,0.1-0.2,0.1-0.3,0c-0.6-0.7-1.2-1.1-2.2-1.1c-1.1,0-1.9,0.5-2.3,1.6c-0.2,0.5-0.2,1.2-0.2,2.1c0,0.9,0.1,1.6,0.2,2.1
		c0.3,1.1,1.2,1.6,2.3,1.6c1,0,1.6-0.4,2.2-1.1c0.1-0.1,0.2-0.1,0.3,0l0.9,0.8c0.1,0.1,0.1,0.2,0.1,0.3c-0.7,1.1-1.9,1.7-3.5,1.7
		c-2,0-3.4-1-4-2.7c-0.2-0.6-0.3-1.4-0.3-2.6C208,88.9,208.1,88.1,208.3,87.5"/>
	<path class="st0" d="M218,92.6c-0.2-0.7-0.3-1.4-0.3-2.6s0.1-2,0.3-2.6c0.6-1.8,2.1-2.7,4-2.7c2,0,3.4,1,4,2.7
		c0.2,0.7,0.3,1.4,0.3,2.9c0,0.1-0.1,0.2-0.2,0.2h-6.4c-0.1,0-0.1,0-0.1,0.1c0,0.6,0.1,0.9,0.2,1.2c0.4,1.2,1.3,1.8,2.6,1.8
		c1.2,0,2.1-0.5,2.6-1.1c0.1-0.1,0.2-0.1,0.3,0l0.9,0.8c0.1,0.1,0.1,0.2,0,0.3c-0.8,1-2.2,1.7-4,1.7C220,95.4,218.6,94.4,218,92.6
		 M224.3,89.2c0.1,0,0.1,0,0.1-0.1c0-0.5,0-0.8-0.1-1.1c-0.3-1-1.2-1.6-2.3-1.6s-2,0.6-2.3,1.6c-0.1,0.3-0.1,0.7-0.1,1.1
		c0,0.1,0,0.1,0.1,0.1H224.3z"/>
	<path class="st0" d="M234.2,80.9c0-0.1,0.1-0.2,0.2-0.2h8.7c0.1,0,0.2,0.1,0.2,0.2v1.3c0,0.1-0.1,0.2-0.2,0.2h-6.9
		c-0.1,0-0.1,0-0.1,0.1v4.3c0,0.1,0,0.1,0.1,0.1h5.8c0.1,0,0.2,0.1,0.2,0.2v1.3c0,0.1-0.1,0.2-0.2,0.2h-5.8c-0.1,0-0.1,0-0.1,0.1
		v4.4c0,0.1,0,0.1,0.1,0.1h6.9c0.1,0,0.2,0.1,0.2,0.2v1.3c0,0.1-0.1,0.2-0.2,0.2h-8.7c-0.1,0-0.2-0.1-0.2-0.2V80.9z"/>
	<path class="st0" d="M248.4,95.1c-0.1,0-0.2-0.1-0.3-0.2l-3.7-9.8c0-0.1,0-0.2,0.2-0.2h1.5c0.1,0,0.2,0.1,0.3,0.2l2.6,7.3h0
		l2.6-7.3c0-0.1,0.1-0.2,0.3-0.2h1.4c0.1,0,0.2,0.1,0.2,0.2l-3.6,9.8c0,0.1-0.1,0.2-0.3,0.2H248.4z"/>
	<path class="st0" d="M255.4,92.6c-0.2-0.7-0.3-1.4-0.3-2.6s0.1-2,0.3-2.6c0.6-1.8,2.1-2.7,4-2.7c2,0,3.4,1,4,2.7
		c0.2,0.7,0.3,1.4,0.3,2.9c0,0.1-0.1,0.2-0.2,0.2H257c-0.1,0-0.1,0-0.1,0.1c0,0.6,0.1,0.9,0.2,1.2c0.4,1.2,1.3,1.8,2.6,1.8
		c1.2,0,2.1-0.5,2.6-1.1c0.1-0.1,0.2-0.1,0.3,0l0.9,0.8c0.1,0.1,0.1,0.2,0,0.3c-0.8,1-2.2,1.7-4,1.7C257.4,95.4,256,94.4,255.4,92.6
		 M261.8,89.2c0.1,0,0.1,0,0.1-0.1c0-0.5,0-0.8-0.1-1.1c-0.3-1-1.2-1.6-2.3-1.6c-1.1,0-2,0.6-2.3,1.6c-0.1,0.3-0.1,0.7-0.1,1.1
		c0,0.1,0,0.1,0.1,0.1H261.8z"/>
	<path class="st0" d="M273.1,95.1c-0.1,0-0.2-0.1-0.2-0.2v-6c0-1.6-0.7-2.6-2.3-2.6c-1.4,0-2.3,1-2.3,2.5v6.1c0,0.1-0.1,0.2-0.2,0.2
		h-1.4c-0.1,0-0.2-0.1-0.2-0.2v-9.8c0-0.1,0.1-0.2,0.2-0.2h1.4c0.1,0,0.2,0.1,0.2,0.2v0.9h0c0.5-0.8,1.5-1.4,2.8-1.4
		c2.2,0,3.5,1.5,3.5,3.8v6.4c0,0.1-0.1,0.2-0.2,0.2H273.1z"/>
	<path class="st0" d="M281,95.3c-2,0-2.7-0.9-2.7-2.9v-5.8c0-0.1,0-0.1-0.1-0.1h-0.9c-0.1,0-0.2-0.1-0.2-0.2v-1
		c0-0.1,0.1-0.2,0.2-0.2h0.9c0.1,0,0.1,0,0.1-0.1V82c0-0.1,0.1-0.2,0.2-0.2h1.4c0.1,0,0.2,0.1,0.2,0.2v2.9c0,0.1,0,0.1,0.1,0.1h1.6
		c0.1,0,0.2,0.1,0.2,0.2v1c0,0.1-0.1,0.2-0.2,0.2h-1.6c-0.1,0-0.1,0-0.1,0.1v5.8c0,1,0.4,1.3,1.3,1.3h0.4c0.1,0,0.2,0.1,0.2,0.2V95
		c0,0.1-0.1,0.2-0.2,0.2H281z"/>
	<path class="st1" d="M0,29.9c0-9.5,0.5-13,1.5-16.3C4.4,4.6,11.6,0,21.4,0c10.1,0,16.3,5.1,19.2,11.5c0.3,0.5,0.2,0.9-0.3,1.2
		l-5.1,2.5c-0.5,0.3-0.9,0.1-1.2-0.4c-2.8-5.2-6.6-7.7-12.7-7.7c-6.6,0-10.7,3.1-12.5,8.6C8.1,17.8,7.7,21,7.7,29.9
		c0,8.9,0.4,12.1,1.2,14.2c1.8,5.5,6,8.6,12.5,8.6c5.9,0,10.6-2.9,12.4-8.3c0.6-2,1.1-6.7,1.1-11c0-0.3,0-0.5,0-0.5H24.1
		c-0.5,0-0.8-0.3-0.8-0.9V27c0-0.5,0.3-0.9,0.8-0.9h17.5c0.5,0,0.9,0.3,0.9,0.9v4.7c0,5.2-0.6,11.6-1.4,14.4
		c-2.8,8.8-10,13.7-19.7,13.7c-9.8,0-16.9-4.6-19.8-13.5C0.5,42.9,0,39.4,0,29.9 M63.9,1.8c0-0.5,0.3-0.9,0.9-0.9h5.9
		c0.5,0,0.9,0.3,0.9,0.9v50h28.1c0.5,0,0.9,0.3,0.9,0.9V58c0,0.5-0.3,0.8-0.9,0.8H64.8c-0.5,0-0.9-0.3-0.9-0.8V1.8z M301.3,1.8
		c0-0.5,0.3-0.9,0.8-0.9h5.9c0.5,0,0.9,0.3,0.9,0.9v50H337c0.5,0,0.9,0.3,0.9,0.9V58c0,0.5-0.3,0.8-0.9,0.8h-34.8
		c-0.5,0-0.8-0.3-0.8-0.8V1.8z M115.5,46.2c-1.1-3.3-1.5-6.8-1.5-16.3c0-9.5,0.4-13,1.5-16.3c3-8.9,10-13.5,19.7-13.5
		c9.8,0,16.8,4.6,19.7,13.5c1.1,3.3,1.5,6.8,1.5,16.3c0,9.5-0.4,13-1.5,16.3c-3,8.9-10,13.5-19.7,13.5
		C125.5,59.7,118.5,55.2,115.5,46.2 M147.5,44.1c0.7-2.1,1.3-5.9,1.3-14.2c0-8.3-0.6-12.1-1.3-14.2c-1.8-5.5-5.9-8.6-12.3-8.6
		c-6.4,0-10.5,3.1-12.3,8.6c-0.7,2.1-1.3,5.9-1.3,14.2c0,8.3,0.6,12.1,1.3,14.2c1.8,5.5,5.9,8.6,12.3,8.6
		C141.7,52.7,145.8,49.6,147.5,44.1 M353.6,46.2c-1.1-3.3-1.5-6.8-1.5-16.3c0-9.5,0.4-13,1.5-16.3c3-8.9,10-13.5,19.7-13.5
		C383,0,390,4.6,393,13.5c1.1,3.3,1.5,6.8,1.5,16.3c0,9.5-0.4,13-1.5,16.3c-3,8.9-10,13.5-19.7,13.5
		C363.5,59.7,356.6,55.2,353.6,46.2 M385.6,44.1c0.7-2.1,1.3-5.9,1.3-14.2c0-8.3-0.6-12.1-1.3-14.2c-1.8-5.5-5.9-8.6-12.3-8.6
		c-6.4,0-10.5,3.1-12.3,8.6c-0.7,2.1-1.3,5.9-1.3,14.2c0,8.3,0.6,12.1,1.3,14.2c1.8,5.5,5.9,8.6,12.3,8.6
		C379.7,52.7,383.8,49.6,385.6,44.1 M414.3,29.9c0-9.6,0.4-12.9,1.5-16.3C418.7,4.5,425.6,0,435,0c8.6,0,15.2,4.3,18.6,11.7
		c0.2,0.4,0.1,0.9-0.3,1.1l-5.1,2.5c-0.5,0.3-1,0-1.2-0.4c-2.3-4.5-5.9-7.7-11.9-7.7c-6.3,0-10.1,3.1-12,8.5
		c-0.8,2.4-1.1,5.2-1.1,14.3s0.3,11.9,1.1,14.3c1.9,5.4,5.7,8.5,12,8.5c6,0,9.6-3.2,11.9-7.7c0.2-0.4,0.7-0.7,1.2-0.4l5.1,2.5
		c0.4,0.3,0.5,0.7,0.3,1.1c-3.3,7.4-10,11.7-18.6,11.7c-9.4,0-16.3-4.5-19.2-13.6C414.7,42.8,414.3,39.5,414.3,29.9 M474,1.8
		c0-0.5,0.3-0.9,0.9-0.9h5.9c0.5,0,0.8,0.3,0.8,0.9V58c0,0.5-0.3,0.8-0.8,0.8h-5.9c-0.5,0-0.9-0.3-0.9-0.8V1.8z M518.2,58.8
		c-0.5,0-0.8-0.3-0.8-0.8l0-50H501c-0.5,0-0.9-0.3-0.9-0.8V1.8c0-0.5,0.3-0.9,0.9-0.9h40.3c0.5,0,0.9,0.3,0.9,0.9v5.4
		c0,0.5-0.3,0.8-0.9,0.8h-16.3l0,50c0,0.5-0.3,0.8-0.9,0.8H518.2z M572.6,58.8c-0.5,0-0.8-0.3-0.8-0.8V31.6L554.7,1.9
		c-0.2-0.5,0.1-0.9,0.7-0.9h6c0.6,0,0.9,0.3,1.3,0.9c0,0,12.8,21.9,12.9,22.2c0.1,0.1,0.1,0.1,0.2,0c0.1-0.1,12.9-22.2,12.9-22.2
		c0.3-0.6,0.6-0.9,1.2-0.9h5.9c0.7,0,0.9,0.4,0.7,0.9l-17.1,29.8V58c0,0.5-0.3,0.8-0.9,0.8H572.6z M210.3,28.9c-0.1,0-0.1-0.1,0-0.2
		c4.5-1.8,7.7-5.9,7.7-12.6c0-9.3-5.8-15.2-17.4-15.2h-20.5c-0.5,0-0.9,0.3-0.9,0.9V58c0,0.5,0.3,0.8,0.9,0.8h20.1
		c12.1,0,18.9-5.7,18.9-16.5C219.1,34.6,214.3,30.1,210.3,28.9 M200.8,51.9h-14V7.8h13.6c6.4,0,10.1,3.6,10.1,9.1
		c0,5.4-3.7,9-10.1,9l-5,0c-0.5,0-0.8,0.3-0.8,0.8V32c0,0.5,0.3,0.8,0.9,0.8l5.4,0c6.9,0,10.6,3.8,10.6,9.5
		C211.5,48.2,207.7,51.9,200.8,51.9 M283.6,58L261.8,1.8c-0.2-0.5-0.5-0.9-1.1-0.9h-3.6c-0.6,0-0.9,0.3-1,0.9l-22,56.2
		c-0.2,0.5,0.1,0.8,0.6,0.8h6c0.5,0,0.9-0.3,1.1-0.8c0,0,17-46,17-46.2c0-0.1,0.1-0.1,0.2,0c0.1,0.2,7.7,21,7.7,21l-9.2,0
		c-0.5,0-1,0.3-1.2,0.8l-1.9,5.3c-0.2,0.5,0,0.8,0.6,0.8h14.1l6.8,18.2c0.2,0.6,0.5,0.8,1.1,0.8h6C283.5,58.8,283.7,58.5,283.6,58
		 M602.9,11.5c-1.5,0-2.8-0.5-3.8-1.6c-1.1-1.1-1.6-2.3-1.6-3.8c0-1.5,0.5-2.8,1.6-3.8c1.1-1.1,2.3-1.6,3.8-1.6
		c1.5,0,2.8,0.5,3.8,1.6c1.1,1.1,1.6,2.3,1.6,3.8c0,1.5-0.5,2.8-1.6,3.8C605.7,11,604.4,11.5,602.9,11.5 M602.9,1.4
		c-1.3,0-2.4,0.5-3.3,1.4c-0.9,0.9-1.4,2.1-1.4,3.3c0,1.3,0.5,2.4,1.4,3.3c0.9,0.9,2,1.4,3.3,1.4c1.3,0,2.4-0.5,3.3-1.4
		c0.9-0.9,1.4-2.1,1.4-3.3c0-1.3-0.5-2.4-1.4-3.3C605.3,1.8,604.2,1.4,602.9,1.4 M604.3,9.1l-1.5-2.5l-1,0v2.5h-0.7v-6h1.9
		c0.5,0,0.9,0.2,1.3,0.5c0.4,0.3,0.5,0.8,0.5,1.3c0,0.4-0.1,0.8-0.4,1.1c-0.2,0.3-0.6,0.5-1,0.6l1.5,2.5L604.3,9.1z M603,3.7h-1.2V6
		h1.2c0.4,0,0.7-0.1,0.9-0.3c0.2-0.2,0.4-0.5,0.4-0.8c0-0.3-0.1-0.6-0.4-0.8C603.7,3.8,603.4,3.7,603,3.7"/>
</g>
</svg>
