<?xml version="1.0" encoding="utf-8"?>
<!-- Generator: Adobe Illustrator 23.0.6, SVG Export Plug-In . SVG Version: 6.00 Build 0)  -->
<svg version="1.1" id="Layer_1" xmlns="http://www.w3.org/2000/svg" xmlns:xlink="http://www.w3.org/1999/xlink" x="0px" y="0px"
	 viewBox="0 0 28.5 24" style="enable-background:new 0 0 28.5 24;" xml:space="preserve">
<style type="text/css">
	.st0{fill:#003058;}
</style>
<g>
	<g>
		<path class="st0" d="M21,21.9H7.5c-0.2,0-0.4-0.2-0.4-0.4V3.3c0-0.2,0.2-0.4,0.4-0.4h8.7c0.1,0,0.2,0.1,0.3,0.1l4.8,4.8
			c0,0.1,0.1,0.2,0.1,0.3v13.5C21.4,21.7,21.2,21.9,21,21.9z M7.9,21.1h12.7V8.2l-4.5-4.5H7.9V21.1z"/>
	</g>
	<g>
		<path class="st0" d="M21,8.4h-4.8c-0.2,0-0.4-0.2-0.4-0.4V3.3c0-0.2,0.2-0.4,0.4-0.4c0.2,0,0.4,0.2,0.4,0.4v4.4H21
			c0.2,0,0.4,0.2,0.4,0.4C21.4,8.3,21.2,8.4,21,8.4z"/>
	</g>
	<g>
		<path class="st0" d="M14.2,9.2h-3.6c-0.2,0-0.4-0.2-0.4-0.4c0-0.2,0.2-0.4,0.4-0.4h3.6c0.2,0,0.4,0.2,0.4,0.4
			C14.6,9.1,14.5,9.2,14.2,9.2z"/>
	</g>
	<g>
		<path class="st0" d="M17.8,11.6h-7.1c-0.2,0-0.4-0.2-0.4-0.4s0.2-0.4,0.4-0.4h7.1c0.2,0,0.4,0.2,0.4,0.4S18.1,11.6,17.8,11.6z"/>
	</g>
	<g>
		<path class="st0" d="M17.8,14h-7.1c-0.2,0-0.4-0.2-0.4-0.4s0.2-0.4,0.4-0.4h7.1c0.2,0,0.4,0.2,0.4,0.4S18.1,14,17.8,14z"/>
	</g>
	<g>
		<path class="st0" d="M17.8,16.4h-7.1c-0.2,0-0.4-0.2-0.4-0.4c0-0.2,0.2-0.4,0.4-0.4h7.1c0.2,0,0.4,0.2,0.4,0.4
			C18.2,16.2,18.1,16.4,17.8,16.4z"/>
	</g>
	<g>
		<path class="st0" d="M17.8,18.7h-7.1c-0.2,0-0.4-0.2-0.4-0.4s0.2-0.4,0.4-0.4h7.1c0.2,0,0.4,0.2,0.4,0.4S18.1,18.7,17.8,18.7z"/>
	</g>
</g>
</svg>
