<?xml version="1.0" encoding="utf-8"?>
<!-- Generator: Adobe Illustrator 23.0.6, SVG Export Plug-In . SVG Version: 6.00 Build 0)  -->
<svg version="1.1" id="Layer_1" xmlns="http://www.w3.org/2000/svg" xmlns:xlink="http://www.w3.org/1999/xlink" x="0px" y="0px"
	 viewBox="0 0 28.5 24" style="enable-background:new 0 0 28.5 24;" xml:space="preserve">
<style type="text/css">
	.st0{fill:#003058;}
</style>
<g>
	<g>
		<path class="st0" d="M21.4,18.9H7c-0.8,0-1.4-0.7-1.4-1.5V6.7c0-0.8,0.6-1.5,1.4-1.5h14.4c0.8,0,1.4,0.7,1.4,1.5v10.7
			C22.8,18.3,22.2,18.9,21.4,18.9z M7,6C6.6,6,6.3,6.4,6.3,6.8v10.7c0,0.4,0.3,0.8,0.7,0.8h14.4c0.4,0,0.7-0.4,0.7-0.8V6.7
			c0-0.4-0.3-0.8-0.7-0.8L7,6L7,6z"/>
	</g>
	<g>
		<path class="st0" d="M19.2,20.4h-10c-0.2,0-0.4-0.2-0.4-0.4s0.2-0.4,0.4-0.4h10c0.2,0,0.4,0.2,0.4,0.4S19.4,20.4,19.2,20.4z"/>
	</g>
	<g>
		<path class="st0" d="M14.2,20.4c-0.2,0-0.4-0.2-0.4-0.4v-1.4c0-0.2,0.2-0.4,0.4-0.4s0.4,0.2,0.4,0.4V20
			C14.6,20.2,14.4,20.4,14.2,20.4z"/>
	</g>
	<g>
		<path class="st0" d="M14.2,17.8c-0.4,0-0.7-0.3-0.7-0.7s0.3-0.7,0.7-0.7s0.7,0.3,0.7,0.7S14.6,17.8,14.2,17.8z M14.2,17.1
			L14.2,17.1h0.4H14.2z"/>
	</g>
	<g>
		<rect x="5.9" y="15.3" class="st0" width="16.6" height="0.7"/>
	</g>
</g>
</svg>
