<?xml version="1.0" encoding="utf-8"?>
<!-- Generator: Adobe Illustrator 23.0.6, SVG Export Plug-In . SVG Version: 6.00 Build 0)  -->
<svg version="1.1" id="Layer_1" xmlns="http://www.w3.org/2000/svg" xmlns:xlink="http://www.w3.org/1999/xlink" x="0px" y="0px"
	 viewBox="0 0 33.2 30.5" style="enable-background:new 0 0 33.2 30.5;" xml:space="preserve">
<style type="text/css">
	.st0{fill:#002F58;}
</style>
<g>
	<path class="st0" d="M23.1,28.3l-1.6-0.5v-0.5c0.7-0.5,1.1-1.4,1.1-2.3c0-1.6-1.2-2.9-2.7-2.9c-1.5,0-2.7,1.3-2.7,2.9
		c0,0.9,0.4,1.8,1.1,2.3v0.5l-1.6,0.5c-0.6,0.2-1,0.8-1,1.4v0.4c0,0.2,0.2,0.4,0.4,0.4h7.5c0.2,0,0.4-0.2,0.4-0.4v-0.4
		C24.1,29.1,23.7,28.5,23.1,28.3z M18.9,28.6c0.2-0.1,0.3-0.2,0.3-0.4v-0.4c0.5,0.1,1,0.1,1.4,0v0.4c0,0.2,0.1,0.4,0.3,0.4l1.9,0.5
		c0.2,0.1,0.4,0.3,0.4,0.5h-6.7c0-0.2,0.2-0.5,0.4-0.5L18.9,28.6z M21.3,24.4c-0.2,0-0.4-0.1-0.6-0.4c-0.1-0.1-0.2-0.2-0.3-0.2
		c0,0,0,0-0.1,0c-0.1,0-0.2,0-0.3,0.1c-0.5,0.5-1.3,0.6-1.8,0.4c0.3-0.8,1-1.3,1.7-1.3c0.8,0,1.5,0.6,1.7,1.4
		C21.6,24.4,21.4,24.4,21.3,24.4z M21.8,25.2c-0.1,1-0.9,1.9-1.8,1.9c-1,0-1.8-0.9-1.8-1.9c0.7,0.2,1.5,0.1,2.1-0.3
		c0.2,0.2,0.6,0.4,0.9,0.4C21.4,25.2,21.6,25.2,21.8,25.2z"/>
	<path class="st0" d="M28,18.6l-1.6-0.5v-0.5c0.7-0.5,1.1-1.4,1.1-2.3c0-1.6-1.2-2.9-2.7-2.9c-0.1,0-0.2,0-0.4,0c0,0-0.1,0-0.1,0
		c-0.1,0-0.2,0-0.3,0.1l0,0c-0.1,0-0.2,0.1-0.3,0.1c0,0,0,0-0.1,0c-0.1,0.1-0.2,0.1-0.3,0.2c-0.1,0.1-0.2,0.1-0.3,0.2l0,0
		c-0.2,0.2-0.3,0.4-0.5,0.6l0,0c-0.1,0.1-0.1,0.2-0.2,0.3l0,0v0c-0.1,0.2-0.1,0.4-0.2,0.6c0,0.1,0,0.2,0,0.2c0,0.1,0,0.2,0,0.3
		c0,0.9,0.4,1.8,1.1,2.3v0.5l-1.6,0.5c-0.6,0.2-1,0.8-1,1.4v0.4c0,0.2,0.2,0.4,0.4,0.4h7.5c0.2,0,0.4-0.2,0.4-0.4v-0.4
		C29,19.3,28.5,18.7,28,18.6z M23.8,18.8c0.2-0.1,0.3-0.2,0.3-0.4V18c0.5,0.1,1,0.1,1.4,0v0.4c0,0.2,0.1,0.4,0.3,0.4l1.9,0.5
		c0.2,0.1,0.4,0.3,0.4,0.5h-6.7c0-0.2,0.2-0.5,0.4-0.5L23.8,18.8z M26.4,14.6C26.4,14.6,26.4,14.6,26.4,14.6L26.4,14.6
		c-0.1,0-0.2,0-0.3,0c-0.2,0-0.5-0.1-0.6-0.4c-0.1-0.1-0.2-0.2-0.3-0.2c0,0,0,0-0.1,0c0,0,0,0,0,0c0,0-0.1,0-0.1,0c0,0,0,0,0,0
		c-0.1,0-0.1,0-0.1,0.1c-0.1,0.1-0.1,0.1-0.2,0.2c0,0,0,0,0,0c-0.1,0-0.1,0.1-0.2,0.1l0,0c-0.1,0-0.1,0.1-0.2,0.1l0,0c0,0,0,0,0,0
		c-0.1,0-0.1,0-0.2,0.1l0,0c-0.1,0-0.1,0-0.2,0l0,0c0,0,0,0-0.1,0l0,0c-0.1,0-0.2,0-0.2,0l0,0c0,0,0,0-0.1,0c-0.1,0-0.2,0-0.2-0.1
		c0.3-0.8,1-1.3,1.7-1.3c0.8,0,1.5,0.6,1.7,1.4C26.5,14.6,26.5,14.6,26.4,14.6z M23.6,15.5C23.7,15.5,23.7,15.5,23.6,15.5
		C23.7,15.5,23.7,15.5,23.6,15.5c0.2,0,0.3,0,0.4,0l0,0c0.1,0,0.2,0,0.3-0.1c0,0,0,0,0.1,0l0,0c0.1,0,0.2-0.1,0.2-0.1l0,0
		c0,0,0.1,0,0.1,0c0.1-0.1,0.2-0.1,0.3-0.2c0.2,0.2,0.6,0.4,0.9,0.4c0.2,0,0.4,0,0.6,0c-0.1,1-0.9,1.8-1.8,1.8c-1,0-1.8-0.9-1.8-1.9
		c0.1,0,0.2,0,0.3,0.1c0,0,0,0,0.1,0l0,0C23.4,15.4,23.5,15.5,23.6,15.5C23.6,15.5,23.6,15.5,23.6,15.5z"/>
	<path class="st0" d="M11.4,21.8c-5.8,0-10.4-4.7-10.4-10.4c0-5.8,4.7-10.4,10.4-10.4c0.4,0,0.8,0,1.2,0.1C11.3,1.5,9.9,2.3,10,3.4
		C10,4,10.3,4.5,10.8,4.8c0.5,0.3,1,0.3,1.6,0c0.1,0.3,0.1,1.1,0,1.9c-0.2,0-0.5,0.1-0.8,0.2c-0.8,0.2-1.7,0.4-2.2,0
		C9.4,6.7,9.3,6.5,9.1,6.4C8.6,6,7.8,5.9,6.5,6.2c-2.7,0.5-2.8,4.1-2.8,4.3c0,0.8,0.4,2.4,1.9,2.4c0.3,0,0.5,0,0.8,0
		c0.6,0,1.2-0.1,1.4,0.2c0.1,0.1,0.2,0.4,0.2,0.8c0,0.1,0.1,0.2,0.1,0.3C8.6,14.5,9,15,9,15.2c0,0.1-0.1,0.3-0.2,0.5
		c-0.1,0.3-0.3,0.6-0.3,0.9c0,0.4,0.7,2.2,1.5,2.7c0.1-0.3,0.2-0.6,0.4-0.8c-0.3-0.3-0.9-1.5-1-1.9c0-0.1,0.1-0.3,0.2-0.5
		c0.1-0.3,0.3-0.6,0.3-0.9c0-0.5-0.6-1.2-1-1.6c0-0.6-0.2-1-0.5-1.3c-0.5-0.5-1.3-0.5-2.1-0.4c-0.2,0-0.5,0-0.7,0
		c-0.9,0-0.9-1.4-0.9-1.4c0,0,0-2.9,2-3.3c1.4-0.3,1.8,0,1.8,0c0,0.1,0.1,0.2,0.1,0.3c0.8,0.8,2.1,0.5,3.2,0.3
		c0.4-0.1,0.7-0.2,1-0.2c0.2,0,0.4-0.2,0.5-0.4c0.2-1.3,0.3-2.9-0.4-3.3c-0.2-0.2-0.5-0.2-0.8,0C11.8,4,11.5,4,11.2,3.9
		c-0.2-0.1-0.3-0.4-0.3-0.7c-0.1-0.6,1.8-1.4,3.6-1.8c1.7,0.5,3.2,1.5,4.4,2.7c-0.2,0.6-0.7,2.2-1.9,2.9c-1.7-0.3-3.3,0.6-3.6,1
		c-0.2,0.3-0.1,0.5-0.1,0.6C13.3,8.8,13.5,9,13.6,9c0.2,0.2,0.4,0.9,0.6,1.6c0,0.1,0.1,0.2,0.1,0.2c0.5,0.5,1.1,0.4,1.5,0.3
		c0,0.1,0,0.3-0.1,0.5c0.3,0.1,0.6,0.2,0.9,0.3c0.3-0.6,0.3-1.2-0.2-1.7c-0.1-0.1-0.4-0.2-0.5-0.1c-0.2,0.1-0.6,0.2-0.8,0.1
		c-0.2-0.9-0.5-1.4-0.7-1.7C14.9,8.2,16,7.8,17,8c0.1,0,0.2,0,0.3,0c1.4-0.7,2-2.1,2.4-3c1.4,1.8,2.2,4,2.2,6.3c0,0.7-0.1,1.4-0.2,2
		c0.3-0.5,0.7-1,1.1-1.3c0-0.2,0-0.5,0-0.7c0-2.9-1.1-5.6-2.9-7.6c0,0-0.1-0.1-0.1-0.1c-1.4-1.5-3.1-2.6-5.1-3.2c0,0,0,0,0,0
		c-1-0.3-2.1-0.5-3.3-0.5C5.1,0,0,5.1,0,11.4c0,6.3,5.1,11.4,11.4,11.4c0.5,0,1,0,1.5-0.1c-0.2-0.3-0.3-0.6-0.3-0.9
		C12.2,21.8,11.8,21.8,11.4,21.8z"/>
	<path class="st0" d="M16.2,24L16.2,24c0.2-0.2,0.2-0.5,0-0.7l-1.9-1.9c0,0-0.1-0.1-0.2-0.1c-0.2-0.1-0.4,0-0.6,0.1
		c0,0-0.1,0.1-0.1,0.1c0,0,0,0.1,0,0.1c0,0.1,0,0.1,0,0.2c0,0,0,0,0,0.1c0,0,0,0,0,0.1c0,0.1,0.1,0.1,0.1,0.1l1.9,1.9
		c0.1,0.1,0.2,0.1,0.4,0.1C16,24.2,16.1,24.1,16.2,24z"/>
	<path class="st0" d="M11.9,18.6c-0.1,0-0.2,0.1-0.3,0.1c0,0,0,0-0.1,0c-0.1,0-0.1,0.1-0.2,0.1l0,0c-0.2,0.2-0.4,0.5-0.4,0.8
		c0,0,0,0,0,0c0,0.1,0,0.2,0,0.3v0.4c0,0.2,0.2,0.4,0.4,0.4h7.5c0.2,0,0.4-0.2,0.4-0.4v-0.4c0-0.1,0-0.1,0-0.2c0,0,0-0.1,0-0.1
		c0-0.1,0-0.2-0.1-0.2l0,0c0-0.1-0.1-0.1-0.1-0.2l0,0c0-0.1-0.1-0.1-0.1-0.2l0,0c-0.1-0.1-0.2-0.2-0.4-0.3l0,0
		c-0.1,0-0.2-0.1-0.2-0.1l-1.6-0.5v-0.5c0.7-0.5,1.1-1.4,1.1-2.3c0-0.1,0-0.2,0-0.4c0,0,0-0.1,0-0.1c0-0.1,0-0.2-0.1-0.3
		c0,0,0,0,0,0c0-0.1-0.1-0.2-0.1-0.3c0,0,0,0,0-0.1l0,0c-0.1-0.1-0.1-0.2-0.2-0.3l0,0c-0.1-0.1-0.1-0.2-0.2-0.3l0,0
		c-0.2-0.2-0.4-0.4-0.6-0.5c-0.1-0.1-0.2-0.1-0.3-0.2c-0.1,0-0.2-0.1-0.2-0.1c-0.1,0-0.2-0.1-0.3-0.1c-0.1,0-0.2,0-0.3-0.1
		c-0.1,0-0.2,0-0.3,0c-1.5,0-2.7,1.3-2.7,2.9c0,0.1,0,0.2,0,0.4c0,0,0,0,0,0c0,0,0,0,0,0c0,0.1,0,0.2,0.1,0.3c0,0,0,0,0,0
		c0,0.1,0.1,0.2,0.1,0.3l0,0c0,0.1,0.1,0.2,0.1,0.3c0.1,0.2,0.2,0.4,0.3,0.5c0,0,0,0,0,0l0,0c0.1,0.1,0.1,0.1,0.2,0.2
		c0.1,0.1,0.1,0.1,0.2,0.2v0.5L11.9,18.6z M16.7,14.6C16.7,14.6,16.7,14.6,16.7,14.6c-0.1,0-0.2,0-0.3,0c-0.2,0-0.5-0.1-0.6-0.4
		c-0.1-0.1-0.2-0.2-0.3-0.2c0,0,0,0-0.1,0c0,0,0,0,0,0c0,0-0.1,0-0.1,0c0,0,0,0,0,0c-0.1,0-0.1,0-0.1,0.1c-0.1,0.1-0.1,0.1-0.2,0.2
		c0,0,0,0,0,0l0,0c-0.1,0-0.1,0.1-0.2,0.1c0,0,0,0-0.1,0l0,0c-0.1,0-0.1,0-0.2,0.1c0,0,0,0-0.1,0l0,0c0,0-0.1,0-0.1,0
		c0,0-0.1,0-0.1,0l0,0c0,0-0.1,0-0.1,0c0,0,0,0,0,0l0,0c-0.1,0-0.2,0-0.3,0l0,0c0,0,0,0,0,0c-0.1,0-0.1,0-0.2-0.1
		c0-0.1,0.1-0.2,0.1-0.3c0,0,0,0,0-0.1l0,0c0-0.1,0.1-0.1,0.1-0.2c0,0,0-0.1,0.1-0.1c0-0.1,0.1-0.1,0.2-0.2l0,0c0,0,0,0,0,0
		c0.1-0.1,0.2-0.1,0.3-0.2c0,0,0,0,0,0c0,0,0,0,0,0c0.1,0,0.1-0.1,0.2-0.1c0,0,0.1,0,0.1,0l0,0c0.1,0,0.1,0,0.2,0l0,0c0,0,0,0,0.1,0
		c0.2,0,0.4,0,0.5,0c0.1,0,0.2,0,0.3,0.1c0,0,0.1,0,0.1,0l0,0c0,0,0.1,0,0.1,0c0,0,0.1,0,0.1,0.1c0,0,0.1,0,0.1,0.1l0,0
		c0,0,0.1,0,0.1,0.1c0.1,0.1,0.1,0.1,0.2,0.2c0,0,0,0,0,0c0,0,0,0,0,0c0,0.1,0.1,0.1,0.1,0.2c0,0,0,0,0,0.1l0,0
		c0,0.1,0.1,0.1,0.1,0.2l0,0c0,0,0,0,0,0.1c0,0.1,0.1,0.2,0.1,0.2C16.8,14.6,16.7,14.6,16.7,14.6z M13.9,15.5
		C13.9,15.5,13.9,15.5,13.9,15.5C13.9,15.5,14,15.5,13.9,15.5c0.6,0,1.1-0.2,1.5-0.4c0.2,0.2,0.6,0.4,0.9,0.4c0.2,0,0.4,0,0.6,0
		c-0.1,1-0.9,1.8-1.8,1.8c-0.1,0-0.2,0-0.3,0l0,0c-0.1,0-0.2,0-0.3-0.1l0,0c-0.1,0-0.2-0.1-0.3-0.1l0,0l0,0
		c-0.1-0.1-0.2-0.1-0.2-0.2c-0.1,0-0.1-0.1-0.2-0.2l0,0c-0.1-0.2-0.3-0.4-0.3-0.6c0-0.1-0.1-0.2-0.1-0.4c0-0.1,0-0.2,0-0.3
		c0.1,0,0.2,0,0.3,0.1c0,0,0,0,0.1,0l0,0C13.7,15.4,13.8,15.5,13.9,15.5C13.9,15.5,13.9,15.5,13.9,15.5z M18.3,19.6L18.3,19.6
		c0,0.1,0.1,0.1,0.1,0.2l0,0c0,0,0,0.1,0,0.1h-6.7c0-0.2,0.2-0.5,0.4-0.5l1.9-0.5c0.2-0.1,0.3-0.2,0.3-0.4V18c0.5,0.1,1,0.1,1.4,0
		v0.4c0,0.2,0.1,0.4,0.3,0.4l1.9,0.5c0,0,0,0,0.1,0c0,0,0.1,0,0.1,0.1l0,0l0,0C18.2,19.5,18.3,19.6,18.3,19.6z"/>
	<path class="st0" d="M25.6,21.4l-1.9,1.9c-0.2,0.2-0.2,0.5,0,0.7c0.1,0.1,0.2,0.1,0.4,0.1c0.1,0,0.3-0.1,0.4-0.1l1.9-1.9
		c0.2-0.2,0.2-0.5,0-0.7C26.1,21.3,25.8,21.3,25.6,21.4z"/>
</g>
</svg>
