<svg id="a774bbcd-c71a-4aa6-8053-8d2ef63a4557" data-name="Layer 1" xmlns="http://www.w3.org/2000/svg" xmlns:xlink="http://www.w3.org/1999/xlink" viewBox="0 0 591.48 113.42"><defs><radialGradient id="1b84779f-73e4-4c72-834d-2babbd1d3802" cx="60.67" cy="14.54" r="240.81" gradientUnits="userSpaceOnUse"><stop offset="0" stop-color="#ed1c24"/><stop offset="1" stop-color="#84191b"/></radialGradient><linearGradient id="04cdc222-6310-4e7a-ad6a-bfbee3d3fb76" x1="58.46" y1="18.11" x2="58.46" y2="96.36" gradientUnits="userSpaceOnUse"><stop offset="0.14" stop-color="#fff"/><stop offset="1" stop-color="#eaecea"/></linearGradient></defs><title>analytics_icon</title><rect id="7e5dca7d-9da8-43ab-a61a-12de60606fa5" data-name="tile" width="116.33" height="113.42" style="fill:url(#1b84779f-73e4-4c72-834d-2babbd1d3802)"/><path d="M96.36,70.67,83.58,61.24,95.8,44.11l-1.18-.84h0L63.12,21.36l-4.67-3.25h0l-4.67,3.25L22.31,43.28h0l-1.18.84L33.34,61.24,20.56,70.67l-1.25.93,4.83,3.06L57.43,95.71l1,.65h0l1-.65L92.78,74.66l4.83-3.06Zm-71-23.06,33.05-23,33.05,23-9.1,12.75L62.21,45.26l-3.75-2.81h0L54.7,45.26,34.5,60.37Zm0,26.11,11-8.15L55.75,92.93ZM58.46,94.24,37.6,64.71l20.86-15.6,20.86,15.6Zm2.71-1.31L80.49,65.58l11,8.15Z" transform="translate(-0.29 -0.47)" style="fill:url(#04cdc222-6310-4e7a-ad6a-bfbee3d3fb76)"/><path d="M151.15,57.63,147,69.24c-.11.21-.16.27-.42.27h-2.87c-.26,0-.32-.11-.26-.37l11.83-32.68a4.53,4.53,0,0,0,.32-1.86.25.25,0,0,1,.27-.27h4.24c.21,0,.26.05.32.21L173,69.14c.05.27,0,.37-.21.37h-3.24c-.16,0-.26-.05-.37-.27L165,57.63ZM164,54.34c-1.17-3.45-4.88-13.58-5.89-17.14h-.05c-1,3.4-3.66,10.82-5.89,17.14Z" transform="translate(-0.29 -0.47)"/><path d="M173,56.88c0-7.8,5.84-13.47,14.16-13.47a14.92,14.92,0,0,1,3.82.37V31.63c0-.21.11-.32.26-.32h3c.27,0,.27.11.27.32v34c0,.58.05,1.33.11,2.12,0,.21,0,.27-.21.37A19,19,0,0,1,186,70C178.63,70,173,65.58,173,56.88Zm18-9.76a10.37,10.37,0,0,0-3.93-.58c-6.58,0-10.4,4.51-10.4,10.19,0,7.37,4.72,10.13,9.6,10.13a12.78,12.78,0,0,0,4.72-.8Z" transform="translate(-0.29 -0.47)"/><path d="M222.34,56.67c0,8-4.83,13.37-11.83,13.37-8.33,0-11.94-6.95-11.94-13.32,0-7.53,4.77-13.32,11.94-13.32S222.34,48.93,222.34,56.67Zm-20.16-.05c0,5.62,3,10.29,8.49,10.29,3.93,0,8.06-3.08,8.06-10.13,0-5.2-2.44-10.24-8.38-10.24C205.47,46.54,202.18,50.62,202.18,56.62Z" transform="translate(-0.29 -0.47)"/><path d="M229.77,31.31c.21,0,.32.05.32.32V44.58a14.92,14.92,0,0,1,6.1-1.17c7.21,0,11.94,5.15,11.94,12.31C248.12,65.16,241,70,233.74,70A20.56,20.56,0,0,1,226.79,69a.4.4,0,0,1-.26-.42V31.63c0-.21.05-.32.26-.32Zm5.89,15.23a13.32,13.32,0,0,0-5.57,1.06V66.43a13.63,13.63,0,0,0,3.93.48c5.41,0,10.45-3.66,10.45-10.88C244.46,50.41,241.12,46.54,235.65,46.54Z" transform="translate(-0.29 -0.47)"/><path d="M254,56.83c-.16,5.62,3,10,9.23,10a14.4,14.4,0,0,0,6.63-1.43c.16-.11.27,0,.27.21V68c0,.27-.11.37-.27.42A14.46,14.46,0,0,1,262.55,70c-9,0-12.2-6.68-12.2-13.1,0-7.48,4.3-13.53,11.4-13.53,7.48,0,10.08,6.1,10.08,10.4a12.51,12.51,0,0,1-.16,2.49c0,.21-.16.32-.37.37-.8.11-3.24.16-5.46.16Zm10.77-2.76a24.62,24.62,0,0,0,3.66-.11c0-.16.05-.48.05-.64,0-2.12-1.33-6.9-6.79-6.9-4.72,0-7.11,3.71-7.64,7.64Z" transform="translate(-0.29 -0.47)"/><path d="M290.91,57.63l-4.14,11.62c-.11.21-.16.27-.42.27h-2.87c-.26,0-.32-.11-.26-.37l11.83-32.68a4.53,4.53,0,0,0,.32-1.86.25.25,0,0,1,.27-.27h4.24c.21,0,.26.05.32.21l12.57,34.59c.05.27,0,.37-.21.37h-3.24c-.16,0-.26-.05-.37-.27l-4.19-11.62Zm12.84-3.29c-1.17-3.45-4.88-13.58-5.89-17.14h-.05c-1,3.4-3.66,10.82-5.89,17.14Z" transform="translate(-0.29 -0.47)"/><path d="M316.51,49.88c0-1.86-.16-4.88-.21-5.68,0-.21.05-.32.32-.32h2.6a.37.37,0,0,1,.43.32,21,21,0,0,1,.26,2.86,11.37,11.37,0,0,1,8.33-3.66c3.66,0,8.54,1.7,8.54,10.08v15.7c0,.21-.11.32-.37.32h-2.86c-.27,0-.37-.11-.37-.37V53.81c0-4.19-1.86-7.22-5.84-7.22a9.07,9.07,0,0,0-7.27,3.71V69.19c0,.21-.05.32-.32.32h-2.92c-.26,0-.32-.11-.32-.32Z" transform="translate(-0.29 -0.47)"/><path d="M360.19,65.37c0,.8.05,1.48.11,2.23,0,.11,0,.16-.11.21A20.29,20.29,0,0,1,350.75,70c-5.52,0-9.55-2.76-9.55-8.17,0-5.62,5.31-8,11.72-8a35.82,35.82,0,0,1,3.77.16V52.48c0-1.8-.8-5.89-6.21-5.89a13.77,13.77,0,0,0-6.63,1.59c-.16.05-.32,0-.32-.21v-2.6c0-.21.05-.32.21-.37a16,16,0,0,1,7.32-1.59c6.52,0,9.12,4.35,9.12,9.71Zm-3.5-8.43a25.07,25.07,0,0,0-3.66-.21c-5.57,0-8.33,1.86-8.33,5.15,0,2.55,1.7,5.2,6.74,5.2A12.41,12.41,0,0,0,356.69,66Z" transform="translate(-0.29 -0.47)"/><path d="M366.55,31.63c0-.27.11-.32.37-.32h2.92c.21,0,.27.16.27.32V64.31c0,2.18.9,2.65,2.17,2.65a4.69,4.69,0,0,0,1.11-.16c.21,0,.21.05.21.26V69.3c0,.27-.05.32-.21.42a7.36,7.36,0,0,1-2.23.32c-2.28,0-4.62-.8-4.62-5.47Z" transform="translate(-0.29 -0.47)"/><path d="M377.67,43.89a.34.34,0,0,1,.32.27c4.77,12.41,7.16,18.57,7.85,20.85,1.75-4.67,4.08-11,7.69-20.85.11-.16.21-.27.37-.27h3c.21,0,.27.16.21.37-4,11.4-9.34,24.67-14.69,36.71a.76.76,0,0,1-.53.32l-3.18.27c-.27,0-.27-.16-.16-.37,1.54-3.29,3.61-7.8,5.41-12a.69.69,0,0,0-.05-.64c-1.22-3-6.58-16-9.87-24.3-.05-.21.05-.32.21-.32Z" transform="translate(-0.29 -0.47)"/><path d="M413,68.82c0,.21,0,.37-.21.43a8.68,8.68,0,0,1-3.82.8c-3.66,0-5.89-1.75-5.89-6.74V47h-3.77c-.27,0-.32-.16-.32-.37V44.2c0-.21.05-.32.32-.32h3.77a58.16,58.16,0,0,1,.48-6.9c.05-.21.11-.32.27-.37l2.92-.48c.16-.05.32,0,.32.16-.21,1.91-.37,5-.37,7.59h5.78c.27,0,.32.11.32.37v2.49c0,.21-.11.27-.32.27h-5.78V63c0,2.49,1,3.93,3.34,3.93a6.6,6.6,0,0,0,2.7-.53c.16,0,.27,0,.27.21Z" transform="translate(-0.29 -0.47)"/><path d="M416.12,35.88a2.19,2.19,0,0,1,2.28-2.33,2.14,2.14,0,0,1,2.23,2.33,2.2,2.2,0,0,1-2.28,2.28A2.13,2.13,0,0,1,416.12,35.88Zm.48,8.33c0-.21.05-.32.27-.32h3c.21,0,.32.05.32.32v25c0,.21-.05.32-.32.32H417c-.32,0-.37-.11-.37-.37Z" transform="translate(-0.29 -0.47)"/><path d="M443.71,68.82c0,.21-.05.32-.21.37a16,16,0,0,1-5.73.85c-8.65,0-12.89-6.26-12.89-13.21,0-7.69,5.41-13.42,13.58-13.42a13.08,13.08,0,0,1,5,.69c.16.05.21.21.21.43v2.7c0,.27-.16.27-.32.21a11.51,11.51,0,0,0-5-.85c-5.78,0-9.81,4-9.81,10.08,0,6.63,4.46,10.08,9.76,10.08a14.51,14.51,0,0,0,5.09-.74c.21-.05.32,0,.32.21Z" transform="translate(-0.29 -0.47)"/><path d="M455.33,46.43c-3.77,0-5.09,1.91-5.09,3.66s1,3.08,5.3,4.77c5,2,7.27,4,7.27,7.85,0,4.77-4,7.32-9.07,7.32a14.49,14.49,0,0,1-6.95-1.54c-.16-.16-.27-.21-.27-.48V65.11c0-.27.16-.32.32-.21a12.3,12.3,0,0,0,7,2.07c3.61,0,5.46-1.7,5.46-3.93s-1.33-3.45-5.15-5c-5-2-7.32-4-7.32-7.69,0-3.82,3.13-6.9,8.59-6.9a13.49,13.49,0,0,1,6,1.11.5.5,0,0,1,.21.48v2.7c0,.27-.11.37-.32.21A12.2,12.2,0,0,0,455.33,46.43Z" transform="translate(-0.29 -0.47)"/><path d="M503.55,68.56a.45.45,0,0,1-.27.48,18.4,18.4,0,0,1-7.06,1c-8.49,0-17.88-4.88-17.88-18.25,0-10.56,7.38-18,18.51-18,3.55,0,5.62.43,6.74,1,.16.05.21.21.21.43v2.86c0,.32-.16.32-.32.21A15.33,15.33,0,0,0,496.71,37C488.06,37,482,42.77,482,51.69c0,11.94,9,15,14.54,15a18.24,18.24,0,0,0,6.68-.9c.16-.11.32-.11.32.16Z" transform="translate(-0.29 -0.47)"/><path d="M508,31.63c0-.27.11-.32.37-.32h2.92c.21,0,.27.16.27.32V64.31c0,2.18.9,2.65,2.17,2.65a4.68,4.68,0,0,0,1.11-.16c.21,0,.21.05.21.26V69.3c0,.27-.05.32-.21.42a7.35,7.35,0,0,1-2.23.32c-2.28,0-4.61-.8-4.61-5.47Z" transform="translate(-0.29 -0.47)"/><path d="M540.66,56.67c0,8-4.83,13.37-11.83,13.37-8.33,0-11.94-6.95-11.94-13.32,0-7.53,4.77-13.32,11.94-13.32S540.66,48.93,540.66,56.67Zm-20.16-.05c0,5.62,3,10.29,8.49,10.29,3.92,0,8.06-3.08,8.06-10.13,0-5.2-2.44-10.24-8.38-10.24C523.79,46.54,520.5,50.62,520.5,56.62Z" transform="translate(-0.29 -0.47)"/><path d="M565.33,63.94a35.28,35.28,0,0,0,.27,5.25c.05.26-.05.32-.27.32h-2.76a.29.29,0,0,1-.32-.27,14.49,14.49,0,0,1-.32-2.39,10.52,10.52,0,0,1-7.8,3.18c-4.3,0-8.7-2.07-8.7-9.87v-16c0-.27.05-.32.32-.32h3c.21,0,.27.11.27.32V59.69c0,4.46,2.12,7.11,6,7.11a8.4,8.4,0,0,0,6.68-3V44.2c0-.21.11-.32.37-.32h3c.21,0,.26.11.26.32Z" transform="translate(-0.29 -0.47)"/><path d="M570.13,56.88c0-7.8,5.83-13.47,14.16-13.47a14.92,14.92,0,0,1,3.82.37V31.63c0-.21.11-.32.27-.32h3c.27,0,.27.11.27.32v34c0,.58.05,1.33.11,2.12,0,.21,0,.27-.21.37A19,19,0,0,1,583.07,70C575.75,70,570.13,65.58,570.13,56.88Zm18-9.76a10.37,10.37,0,0,0-3.93-.58c-6.58,0-10.4,4.51-10.4,10.19,0,7.37,4.72,10.13,9.6,10.13a12.78,12.78,0,0,0,4.72-.8Z" transform="translate(-0.29 -0.47)"/></svg>