<svg id="ceb082f6-9172-4a83-a120-6b47333472df" data-name="Layer 1" xmlns="http://www.w3.org/2000/svg" viewBox="0 0 731.45 113.27"><title>flexiblemonetization_icon</title><rect width="113.27" height="113.27" style="fill:#00b6e8"/><path d="M66.3,63.77a45,45,0,0,1,.23-4.91,8.56,8.56,0,0,1,.61-2.31,5.78,5.78,0,0,1,1.1-2l1.2-4.28h3.78l-1.64,2.29a13,13,0,0,1,3.09-.44l1.7-2.37.1-.21a1.28,1.28,0,0,0,.08-.31v-.1a1.15,1.15,0,0,0-.1-.42l0,0v-.05l-5-7a1.33,1.33,0,0,0-.14-.16l-.11-.08a1.08,1.08,0,0,0-.31-.16l-.11,0-.25,0H57.83a1.1,1.1,0,0,0-.26,0l-.08,0a1,1,0,0,0-.28.14l-.1.06a1.09,1.09,0,0,0-.2.21L52,48.46l-.14.28a1.24,1.24,0,0,0-.08.46,1.2,1.2,0,0,0,.1.37l0,.13L63.26,65.44l.1.12.15.12a1.24,1.24,0,0,0,.32.16l.23,0,0-.43v.44h.21a1.38,1.38,0,0,0,.33-.08,1.16,1.16,0,0,0,.22-.13l-.16-.26.2.23.11-.1.13-.12v0ZM71,44.87,73.22,48H70.08ZM69,43.43l-.86,3-1.92-3ZM66.51,48H61.85l2.33-3.62Zm-4.4-4.58-1.93,3-.86-3Zm-4.72,1.44.9,3.14H55.14Zm2.93,12.6-5.17-7.19h3.78l2,6.93.48,1.65Zm3.86,3.14L61.27,50.28h5.81Z" transform="translate(-0.73 -0.24)" style="fill:#fff"/><path d="M42.12,50l.59.16V47.54l-.35-.09A35.11,35.11,0,0,0,34,46.56c-5.94,0-12.88,1.14-12.88,4.35V66.74C15.33,66.79,8.75,68,8.75,71.08v9.31c0,3.21,6.94,4.35,12.88,4.35s12.88-1.14,12.88-4.35V78.52a34.5,34.5,0,0,0,7.85-.89l.35-.09V75l-.59.16a30,30,0,0,1-7.61.9V73.87A34.48,34.48,0,0,0,42.36,73l.35-.09V70.31l-.59.16a30,30,0,0,1-7.61.9v-.3a2.44,2.44,0,0,0-1-1.87H34a35.11,35.11,0,0,0,8.32-.89l.35-.09V65.66l-.59.16a30.5,30.5,0,0,1-8.08.91c-6.81,0-10-1.48-10.4-1.93V63c2.55,1.12,6.67,1.57,10.4,1.57a35.11,35.11,0,0,0,8.32-.89l.35-.09V61l-.59.16a30.49,30.49,0,0,1-8.08.91c-6.81,0-10-1.48-10.4-1.93V58.33c2.55,1.12,6.67,1.57,10.4,1.57A35.11,35.11,0,0,0,42.36,59l.35-.09V56.34l-.59.16a30.5,30.5,0,0,1-8.08.91c-6.81,0-10-1.48-10.4-1.93V53.68c2.55,1.12,6.67,1.57,10.4,1.57a35.11,35.11,0,0,0,8.32-.89l.35-.09V51.69l-.59.16a30.49,30.49,0,0,1-8.08.91c-6.51,0-9.75-1.35-10.33-1.86C24.3,50.39,27.53,49,34,49A30.49,30.49,0,0,1,42.12,50ZM11.23,78.51c2.55,1.12,6.67,1.57,10.4,1.57s7.84-.45,10.4-1.57v1.82c-.36.45-3.58,1.93-10.4,1.93s-10-1.48-10.4-1.93Zm10.4-3.08c3.73,0,7.84-.45,10.4-1.57v1.82c-.36.45-3.58,1.93-10.4,1.93s-10-1.48-10.4-1.93V73.85C13.79,75,17.9,75.43,21.63,75.43Zm0-2.49c-6.51,0-9.75-1.35-10.33-1.86.58-.51,3.82-1.86,10.33-1.86S31.38,70.57,32,71.08C31.38,71.59,28.14,72.94,21.63,72.94Z" transform="translate(-0.73 -0.24)" style="fill:#fff"/><path d="M64.12,82.09H51.25a6.44,6.44,0,0,1-6.43-6.43V26.79a6.44,6.44,0,0,1,6.43-6.43H77a6.44,6.44,0,0,1,6.43,6.43V49.94a1.29,1.29,0,0,1-2.57,0V26.79A3.86,3.86,0,0,0,77,22.93H51.25a3.86,3.86,0,0,0-3.86,3.86V75.66a3.86,3.86,0,0,0,3.86,3.86H64.12a1.29,1.29,0,0,1,0,2.57Z" transform="translate(-0.73 -0.24)" style="fill:#fff"/><path d="M82.12,33.22h-36a1.29,1.29,0,0,1,0-2.57h36a1.29,1.29,0,1,1,0,2.57Z" transform="translate(-0.73 -0.24)" style="fill:#fff"/><path d="M64.12,71.8h-18a1.29,1.29,0,0,1,0-2.57h18a1.29,1.29,0,0,1,0,2.57Z" transform="translate(-0.73 -0.24)" style="fill:#fff"/><path d="M69.26,28.07H59a1.29,1.29,0,0,1,0-2.57H69.26a1.29,1.29,0,0,1,0,2.57Z" transform="translate(-0.73 -0.24)" style="fill:#fff"/><path d="M64.12,78.23a2.57,2.57,0,1,1,0-5.14,1.29,1.29,0,0,1,0,2.57,1.29,1.29,0,0,1,0,2.57Z" transform="translate(-0.73 -0.24)" style="fill:#fff"/><path d="M105.27,64.08h-36a1.29,1.29,0,0,1,0-2.57h36a1.29,1.29,0,1,1,0,2.57Z" transform="translate(-0.73 -0.24)" style="fill:#fff"/><path d="M84.69,69.23H74.4a1.29,1.29,0,1,1,0-2.57H84.69a1.29,1.29,0,1,1,0,2.57Z" transform="translate(-0.73 -0.24)" style="fill:#fff"/><path d="M100.13,69.23H95a1.29,1.29,0,0,1,0-2.57h5.14a1.29,1.29,0,1,1,0,2.57Z" transform="translate(-0.73 -0.24)" style="fill:#fff"/><path d="M79.55,74.37H74.4a1.29,1.29,0,1,1,0-2.57h5.14a1.29,1.29,0,0,1,0,2.57Z" transform="translate(-0.73 -0.24)" style="fill:#fff"/><path d="M100.13,82.09H74.4A6.44,6.44,0,0,1,68,75.66V60.22a6.44,6.44,0,0,1,6.43-6.43h25.72a6.44,6.44,0,0,1,6.43,6.43V75.66A6.44,6.44,0,0,1,100.13,82.09ZM74.4,56.37a3.86,3.86,0,0,0-3.86,3.86V75.66a3.86,3.86,0,0,0,3.86,3.86h25.72A3.86,3.86,0,0,0,104,75.66V60.22a3.86,3.86,0,0,0-3.86-3.86Z" transform="translate(-0.73 -0.24)" style="fill:#fff"/><path d="M146.34,38.89h19.6v3.62H150.66v9.88h12.58V56H150.66V71.29h-4.32Z" transform="translate(-0.73 -0.24)" style="fill:#003058"/><path d="M169.72,38.89h4.1v32.4h-4.1Z" transform="translate(-0.73 -0.24)" style="fill:#003058"/><path d="M179.23,59.46c0-7.51,5.56-12.15,11.29-12.15s9.94,3.78,9.94,9.07a14.76,14.76,0,0,1-.32,2.65H183.28c-.32,4.1,1.62,9.56,9.07,9.56a12.13,12.13,0,0,0,7.67-3v3.62a15,15,0,0,1-9.07,2.75C184.09,71.94,179.23,66.7,179.23,59.46Zm17.28-3.29c.49-3.13-2-5.62-5.83-5.62-3.29,0-6.32,1.78-7,5.62Z" transform="translate(-0.73 -0.24)" style="fill:#003058"/><path d="M212.28,59.41,203.53,48h4.54l6.64,8.64,6.8-8.64h4.32l-8.75,11.29,9.29,12h-4.75l-7-9.23-7.07,9.23H203Z" transform="translate(-0.73 -0.24)" style="fill:#003058"/><path d="M229.93,38.89H234v4.48h-4.1Zm0,9.07H234V71.29h-4.1Z" transform="translate(-0.73 -0.24)" style="fill:#003058"/><path d="M244.46,67.08l-.16,4.21h-3.56V38.89h4.1V51.63a10.87,10.87,0,0,1,8.8-4.32c6.43,0,11.12,5.51,11.12,12.31s-4.7,12.31-11.12,12.31A10.91,10.91,0,0,1,244.46,67.08Zm16.2-7.45c0-5.62-3.62-9-8-9s-8,3.4-8,9,3.62,9,8,9S260.66,65.24,260.66,59.62Z" transform="translate(-0.73 -0.24)" style="fill:#003058"/><path d="M270.11,38.89h4.1v32.4h-4.1Z" transform="translate(-0.73 -0.24)" style="fill:#003058"/><path d="M279.61,59.46c0-7.51,5.56-12.15,11.29-12.15s9.94,3.78,9.94,9.07a14.76,14.76,0,0,1-.32,2.65H283.66c-.32,4.1,1.62,9.56,9.07,9.56a12.13,12.13,0,0,0,7.67-3v3.62a15,15,0,0,1-9.07,2.75C284.47,71.94,279.61,66.7,279.61,59.46Zm17.28-3.29c.49-3.13-2-5.62-5.83-5.62-3.29,0-6.32,1.78-7,5.62Z" transform="translate(-0.73 -0.24)" style="fill:#003058"/><path d="M317,38.89h4.21l12.53,26.89,12.53-26.89h4v32.4h-4.16V49.2c0-.81.11-2.65.11-2.7-.11.16-.81,1.94-1.13,2.7L335,71.29H332L321.95,49.2c-.38-.81-1.08-2.54-1.13-2.7,0,.05.11,1.89.11,2.7V71.29H317Z" transform="translate(-0.73 -0.24)" style="fill:#003058"/><path d="M355.37,59.62a12.72,12.72,0,1,1,12.74,12.53A12.38,12.38,0,0,1,355.37,59.62Zm21.33,0c0-5.08-3.29-9.23-8.59-9.23s-8.64,4.16-8.64,9.23,3.35,9.23,8.64,9.23S376.7,64.75,376.7,59.62Z" transform="translate(-0.73 -0.24)" style="fill:#003058"/><path d="M385.88,48h3.56l.27,4.48a10.9,10.9,0,0,1,9.07-5.13c6.21,0,8.42,4.32,8.42,10.1V71.29h-4.1V57.79c0-5.24-2.05-7-5.45-7S390,53.74,390,57.52V71.29h-4.1Z" transform="translate(-0.73 -0.24)" style="fill:#003058"/><path d="M412.56,59.46c0-7.51,5.56-12.15,11.29-12.15s9.94,3.78,9.94,9.07a14.76,14.76,0,0,1-.32,2.65H416.61c-.32,4.1,1.62,9.56,9.07,9.56a12.13,12.13,0,0,0,7.67-3v3.62a15,15,0,0,1-9.07,2.75C417.42,71.94,412.56,66.7,412.56,59.46Zm17.28-3.29c.49-3.13-2-5.62-5.83-5.62-3.29,0-6.32,1.78-7,5.62Z" transform="translate(-0.73 -0.24)" style="fill:#003058"/><path d="M442.26,50.77H437V48h5.24V41.59h4.1V48h5.29v2.81h-5.29V71.29h-4.1Z" transform="translate(-0.73 -0.24)" style="fill:#003058"/><path d="M455.92,38.89H460v4.48h-4.1Zm0,9.07H460V71.29h-4.1Z" transform="translate(-0.73 -0.24)" style="fill:#003058"/><path d="M464.45,68.8l13.18-17.6H465.15V48h17.39v2.48L469.37,68h13.45v3.24H464.45Z" transform="translate(-0.73 -0.24)" style="fill:#003058"/><path d="M486.32,59.62c0-6.8,4.7-12.31,11.12-12.31a10.9,10.9,0,0,1,9.18,4.86l.16-4.21h3.56V71.29h-3.56l-.16-4.21a10.9,10.9,0,0,1-9.18,4.86C491,71.94,486.32,66.43,486.32,59.62Zm20.2,0c0-5.62-3.62-9-8-9s-8,3.4-8,9,3.62,9,8,9S506.52,65.24,506.52,59.62Z" transform="translate(-0.73 -0.24)" style="fill:#003058"/><path d="M519.85,50.77h-5.24V48h5.24V41.59H524V48h5.29v2.81H524V71.29h-4.1Z" transform="translate(-0.73 -0.24)" style="fill:#003058"/><path d="M533.52,38.89h4.1v4.48h-4.1Zm0,9.07h4.1V71.29h-4.1Z" transform="translate(-0.73 -0.24)" style="fill:#003058"/><path d="M542.7,59.62a12.72,12.72,0,1,1,12.74,12.53A12.38,12.38,0,0,1,542.7,59.62Zm21.33,0c0-5.08-3.29-9.23-8.59-9.23s-8.64,4.16-8.64,9.23,3.35,9.23,8.64,9.23S564,64.75,564,59.62Z" transform="translate(-0.73 -0.24)" style="fill:#003058"/><path d="M573.21,48h3.56l.27,4.48a10.9,10.9,0,0,1,9.07-5.13c6.21,0,8.42,4.32,8.42,10.1V71.29h-4.1V57.79c0-5.24-2.05-7-5.45-7s-7.67,2.92-7.67,6.7V71.29h-4.1Z" transform="translate(-0.73 -0.24)" style="fill:#003058"/><path d="M611.65,38.89h10.69c6.59,0,9.4,3.83,9.4,8.48a8.57,8.57,0,0,1-3.4,6.37,8.81,8.81,0,0,1,5.13,8c0,5.24-3.19,9.5-10.58,9.5H611.65Zm10.69,13.39c4,0,5.29-2.43,5.29-4.92s-1.24-4.86-5.29-4.86H616v9.77Zm.54,15.39c4.86,0,6.32-2.92,6.32-5.89s-1.46-5.89-6.32-5.89H616V67.67Z" transform="translate(-0.73 -0.24)" style="fill:#003058"/><path d="M638.33,38.89h4.1v4.48h-4.1Zm0,9.07h4.1V71.29h-4.1Z" transform="translate(-0.73 -0.24)" style="fill:#003058"/><path d="M649.13,38.89h4.1v32.4h-4.1Z" transform="translate(-0.73 -0.24)" style="fill:#003058"/><path d="M659.93,38.89H664v32.4h-4.1Z" transform="translate(-0.73 -0.24)" style="fill:#003058"/><path d="M670.73,38.89h4.1v4.48h-4.1Zm0,9.07h4.1V71.29h-4.1Z" transform="translate(-0.73 -0.24)" style="fill:#003058"/><path d="M681.53,48h3.56l.27,4.48a10.9,10.9,0,0,1,9.07-5.13c6.21,0,8.42,4.32,8.42,10.1V71.29h-4.1V57.79c0-5.24-2.05-7-5.45-7s-7.67,2.92-7.67,6.7V71.29h-4.1Z" transform="translate(-0.73 -0.24)" style="fill:#003058"/><path d="M710.2,79.6V75.93c3.56,2.16,6,3,10.1,3s7.78-2.43,7.78-9.29V67.62a10.88,10.88,0,0,1-8.8,4.32c-6.43,0-11.12-5.51-11.12-12.31s4.7-12.31,11.12-12.31a10.91,10.91,0,0,1,9.18,4.86l.16-4.21h3.56V69.24c0,10.8-6.75,13.07-12.37,13.07A20,20,0,0,1,710.2,79.6Zm18.14-20c0-5.62-3.62-9-8-9s-8,3.4-8,9,3.62,9,8,9S728.34,65.24,728.34,59.62Z" transform="translate(-0.73 -0.24)" style="fill:#003058"/></svg>