<svg xmlns="http://www.w3.org/2000/svg" viewBox="0 0 92.22 94.39"><defs><style>.cls-1{fill:#00a7e1;}</style></defs><title>fraud_icon</title><g id="Layer_2" data-name="Layer 2"><g id="Layer_1-2" data-name="Layer 1"><g id="fraud_icon"><path class="cls-1" d="M70.62,63.63,57.87,51.31a18.78,18.78,0,1,0-6.21,6.36L64.44,70a4.45,4.45,0,1,0,6.18-6.39ZM30.21,41.75A11.51,11.51,0,1,1,41.71,53.26,11.51,11.51,0,0,1,30.21,41.75Z"/><path class="cls-1" d="M41.71,51.41a9.62,9.62,0,0,0,6.82-2.82c-2-.77-4.09-1.58-4.08-2.37,0-1.16,1.29-1.8,1.49-4,.42,0,1-1.06,1.16-2s-.22-1.36-.63-1.45c.1-2.37-.66-5.12-4.84-5.12s-4.94,2.75-4.84,5.12c-.41.09-.77.53-.63,1.45s.73,2,1.15,2c.19,2.2,1.46,2.83,1.49,4,0,.78-2,1.57-4,2.33A9.62,9.62,0,0,0,41.71,51.41Z"/><path class="cls-1" d="M46.11,94.39C20.68,94.39,0,73.23,0,47.23S20.68,0,46.11,0,92.22,21.19,92.22,47.23,71.53,94.39,46.11,94.39Zm0-89.27c-22.6,0-41,18.89-41,42.1s18.38,42,41,42,41-18.86,41-42S68.71,5.12,46.11,5.12Z"/></g></g></g></svg>