<svg xmlns="http://www.w3.org/2000/svg" viewBox="0 0 151.68 151.68"><defs><style>.cls-1{fill:none;stroke:#fff;stroke-miterlimit:10;stroke-width:2px;}.cls-2{fill:#fff;}</style></defs><title>icon_3</title><g id="Layer_2" data-name="Layer 2"><g id="Layer_1-2" data-name="Layer 1"><circle class="cls-1" cx="75.84" cy="75.84" r="74.84"/><path class="cls-2" d="M91.42,81.24a32.24,32.24,0,1,0-12.55,13l28.53,28.53a2.62,2.62,0,0,0,3.7,0l9.08-9.08a2.61,2.61,0,0,0,0-3.7Zm17.83,36-15-15,5.38-5.38,15,15ZM83.38,91.35,88.75,86l7.19,7.19-5.38,5.38Zm-20.46-52A27,27,0,0,1,89.74,63.74c-3.1-2.56-11.78-9-22.62-10.36a13.47,13.47,0,0,0-8.4,0c-10.84,1.4-19.52,7.8-22.62,10.36A27,27,0,0,1,62.92,39.37Zm0,36a27.91,27.91,0,0,1-3.3-.21,9.41,9.41,0,0,1,0-17.63,25.9,25.9,0,0,1,6.59,0,9.41,9.41,0,0,1,0,17.63A27.89,27.89,0,0,1,62.92,75.35ZM51,72.89a48.44,48.44,0,0,1-11.42-6.57A48.29,48.29,0,0,1,51,59.74a13.56,13.56,0,0,0,0,13.15ZM74.83,59.74a48.31,48.31,0,0,1,11.42,6.57,48.41,48.41,0,0,1-11.42,6.57,13.56,13.56,0,0,0,0-13.15ZM36.09,68.9c3.1,2.56,11.78,9,22.62,10.36a13.5,13.5,0,0,0,8.4,0C78,77.86,86.64,71.46,89.74,68.9A26.87,26.87,0,0,1,82,85.34l-.05.06A26.93,26.93,0,0,1,36.09,68.9Z"/><path class="cls-2" d="M65,66.84a2.61,2.61,0,0,1-1.11-5,4.57,4.57,0,1,0,3.59,4.46,4.66,4.66,0,0,0-.11-1A2.61,2.61,0,0,1,65,66.84Z"/></g></g></svg>