<svg xmlns="http://www.w3.org/2000/svg" viewBox="0 0 89.31 89.03"><defs><style>.cls-1,.cls-2{fill:#00a7e1;}.cls-2{fill-rule:evenodd;}</style></defs><title>localization_icon</title><g id="Layer_2" data-name="Layer 2"><g id="Layer_1-2" data-name="Layer 1"><g id="localization_icon"><path class="cls-1" d="M51.46,27.43A16.11,16.11,0,0,1,52.83,30a16.34,16.34,0,0,1,2.64.56,3.69,3.69,0,0,1,.14,1c0,2.31-.44,1.64-.44,3.61.15,1.57,1.7.65,2.11.51a8.85,8.85,0,0,0,2.88-2.89,16.42,16.42,0,0,1,3.72,3.61,5.73,5.73,0,0,0-1.14,1.82c0,.68,0,0,.86.68s.49,1.18,1.66.67a.87.87,0,0,0,.35-.26c.19.42.37.85.53,1.29a1.86,1.86,0,0,0-.88.15c-1,.49-2.41-.57-3.42.67a7.52,7.52,0,0,0-1.46,2.39c-.23.7-1.12,2.65,1.72,1.68a5,5,0,0,1,3.16-.33,2.24,2.24,0,0,0,1.8-.21c0,.4,0,.8,0,1.2s0,.92-.06,1.37H67c-2.54.17-2-.76-3.89-1.06a11.13,11.13,0,0,0-2.63-.09,1.82,1.82,0,0,0-1.12.87C58.17,49.51,56.16,51.43,58,53c2,1.7,4.75.51,5.26,1.36.22.37.58.75.87,1.27a16.31,16.31,0,0,1-11.38,6.8c.19-.93.5-1,2.17-2.56,2-1.86,1.71-2.09,0-3.1s-1.33-1-2.44-2.23a4.52,4.52,0,0,0-4.65-1.64,2.64,2.64,0,0,0-.94-.19,2.17,2.17,0,0,0-.75-.54c-1.49-.68-1-.37-1.82-1a16,16,0,0,1-1.86.66c1.14.71,2.17,1.27,2.78,1.58.19.1.66.38,1.05.61-.19,1.4-1.32,3.53,0,4.57a4.59,4.59,0,0,1,1.83,3.74,16.35,16.35,0,0,1-12.5-10,16.08,16.08,0,0,1-2.81-.67A18.76,18.76,0,1,0,51.46,27.43Z"/><path class="cls-1" d="M15.42,58.17a3.46,3.46,0,0,0,4.89.08l9.93-9.6a14.59,14.59,0,1,0-4.83-4.95l-9.91,9.58A3.46,3.46,0,0,0,15.42,58.17ZM38,45.22a8.94,8.94,0,1,1,8.94-8.94A8.94,8.94,0,0,1,38,45.22Z"/><path class="cls-2" d="M4.58,44.51a40.07,40.07,0,1,0,40-39.95A40,40,0,0,0,4.58,44.51ZM0,44.51A44.65,44.65,0,1,1,44.62,89,44.6,44.6,0,0,1,0,44.51Z"/></g></g></g></svg>