<svg xmlns="http://www.w3.org/2000/svg" viewBox="0 0 89.31 89.03"><defs><style>.cls-1,.cls-2{fill:#00a7e1;}.cls-2{fill-rule:evenodd;}</style></defs><title>private_icon</title><g id="Layer_2" data-name="Layer 2"><g id="Layer_1-2" data-name="Layer 1"><g id="private_stores_icon" data-name="private stores_icon"><rect class="cls-1" x="33.78" y="50.08" width="8.15" height="7.55"/><path class="cls-1" d="M67.58,62.46h-4V48.84A7.63,7.63,0,0,1,60.35,47c-.18.17-.37.33-.57.48V62.46H54V50.08H45.81V62.46H29.13V47.19L29,47a7.64,7.64,0,0,1-3.68,1.89V62.46H21.73a1.75,1.75,0,0,0-1.79,1.7v2H69.37v-2A1.75,1.75,0,0,0,67.58,62.46Z"/><path class="cls-1" d="M18.5,41.81a5.1,5.1,0,0,0,5.23,5,5.11,5.11,0,0,0,5.23-5h0a5.24,5.24,0,0,0,10.46,0H29l4.55-12.14h0l1.72-4.61h6.28L39.42,41.81h0a5.24,5.24,0,0,0,10.46,0h0L47.79,25.06h6.28l1,2.76.69,1.84h0l4.55,12.14H49.89a5.24,5.24,0,0,0,10.46,0h0a5.24,5.24,0,0,0,10.46,0h0L60.35,25.07V24a1.1,1.1,0,0,0-1.09-1.09H30.05A1.1,1.1,0,0,0,29,24v1.07h0L18.5,41.81h0Z"/><path class="cls-2" d="M4.58,44.51a40.07,40.07,0,1,0,40-39.95A40,40,0,0,0,4.58,44.51ZM0,44.51A44.65,44.65,0,1,1,44.62,89,44.6,44.6,0,0,1,0,44.51Z"/></g></g></g></svg>