<?xml version="1.0" encoding="utf-8"?>
<!-- Generator: Adobe Illustrator 19.1.0, SVG Export Plug-In . SVG Version: 6.00 Build 0)  -->
<svg version="1.1" id="Layer_1" xmlns="http://www.w3.org/2000/svg" xmlns:xlink="http://www.w3.org/1999/xlink" x="0px" y="0px"
	 viewBox="-26 207.8 557.9 378.3" style="enable-background:new -26 207.8 557.9 378.3;" xml:space="preserve">
<style type="text/css">
	.st0{opacity:0.44;fill:#646469;enable-background:new    ;}
	.st1{fill:#333333;}
	.st2{fill:#E6E6E6;}
	.st3{fill:#4D4D4D;}
</style>
<title>Asset 2</title>
<g id="Layer_2">
	<g id="layer">
		<ellipse class="st0" cx="253" cy="579.7" rx="279" ry="6.3"/>
		<rect x="74" y="273.4" class="st1" width="2.8" height="161.7"/>
		
			<rect x="114.6" y="263.6" transform="matrix(-0.8993 0.4373 -0.4373 -0.8993 375.6148 623.7018)" class="st1" width="2.8" height="183"/>
		
			<rect x="-62" y="355.7" transform="matrix(-0.4407 0.8976 -0.8976 -0.4407 366.1209 486.1297)" class="st1" width="187.3" height="2.8"/>
		<rect x="429.1" y="273.4" class="st1" width="2.8" height="161.7"/>
		
			<rect x="298.4" y="353.7" transform="matrix(-0.4376 0.8992 -0.8992 -0.4376 879.8012 159.8832)" class="st1" width="183" height="2.8"/>
		
			<rect x="472.9" y="263.5" transform="matrix(-0.8976 0.4409 -0.4409 -0.8976 1057.4067 468.551)" class="st1" width="2.8" height="187.3"/>
		<polygon class="st2" points="253,207.8 248.7,224.7 248.7,571.2 257.2,571.2 257.2,224.7 		"/>
		<polygon class="st3" points="257.2,571.2 257.2,224.7 253,207.8 253,571.2 		"/>
		<path class="st2" d="M75.4,269c0,0,9.3,2.1,31-3.3C207.8,240.4,252.9,250,252.9,250v-16.9c0,0-82.8,1.4-148.8,26.6
			c-16.2,6.2-28.7,5.1-28.7,5.1L75.4,269z"/>
		<path class="st2" d="M430.5,269c0,0-9.3,2.1-31-3.3C298.1,240.4,253,250,253,250v-16.9c0,0,82.8,1.4,148.8,26.6
			c16.2,6.2,28.7,5.1,28.7,5.1L430.5,269z"/>
		<circle class="st3" cx="75.4" cy="266.9" r="7.6"/>
		<circle class="st3" cx="253" cy="241.6" r="7.6"/>
		<circle class="st3" cx="430.5" cy="266.9" r="7.6"/>
		<path class="st1" d="M83,266.9c0-4.2-3.4-7.6-7.6-7.6l0,0v15.2C79.6,274.5,83,271.1,83,266.9L83,266.9z"/>
		<path class="st1" d="M260.5,241.6c0-4.2-3.4-7.6-7.6-7.6v15.2C257.1,249.2,260.5,245.8,260.5,241.6z"/>
		<path class="st1" d="M438.1,266.9c0-4.2-3.4-7.6-7.6-7.6v15.2C434.7,274.5,438.1,271.1,438.1,266.9z"/>
		<path class="st3" d="M350.2,571.2h-4.2V567c0-2.3-1.9-4.2-4.2-4.2c0,0,0,0,0,0h-4.2v-4.2c0-2.3-1.9-4.2-4.2-4.2c0,0,0,0,0,0h-54.9
			v-4.2c0-2.3-1.9-4.2-4.2-4.2c0,0,0,0,0,0h-4.2v-4.2c0-2.3-1.9-4.2-4.2-4.2c0,0,0,0,0,0h-25.3c-2.3,0-4.2,1.9-4.2,4.2c0,0,0,0,0,0
			v4.2h-4.2c-2.3,0-4.2,1.9-4.2,4.2l0,0v4.2h-54.9c-2.3,0-4.2,1.9-4.2,4.2l0,0v4.2h-4.2c-2.3,0-4.2,1.9-4.2,4.2l0,0v4.2h-4.2
			c-2.3,0-4.2,1.9-4.2,4.2l0,0v4.2h202.9v-4.2C354.4,573.1,352.5,571.2,350.2,571.2z"/>
		<path class="st1" d="M253,537.4h12.7c2.3,0,4.2,1.9,4.2,4.2c0,0,0,0,0,0v4.2h4.2c2.3,0,4.2,1.9,4.2,4.2c0,0,0,0,0,0v4.2h54.9
			c2.3,0,4.2,1.9,4.2,4.2c0,0,0,0,0,0v4.2h4.2c2.3,0,4.2,1.9,4.2,4.2c0,0,0,0,0,0v4.2h4.2c2.3,0,4.2,1.9,4.2,4.2c0,0,0,0,0,0v4.2
			H253V537.4z"/>
		<path class="st3" d="M172.6,436h-4.2v4.2c0,2.3-1.9,4.2-4.2,4.2H-13.3c-2.3,0-4.2-1.9-4.2-4.2V436h-4.2c-2.3,0-4.2-1.9-4.2-4.2
			v-4.2h202.9v4.2C176.9,434.1,175,436,172.6,436z"/>
		<path class="st1" d="M75.4,444.4h88.8c2.3,0,4.2-1.9,4.2-4.2V436h4.2c2.3,0,4.2-1.9,4.2-4.2v-4.2H75.4V444.4z"/>
		<path class="st3" d="M527.7,436h-4.2v4.2c0,2.3-1.9,4.2-4.2,4.2H341.7c-2.3,0-4.2-1.9-4.2-4.2l0,0V436h-4.2
			c-2.3,0-4.2-1.9-4.2-4.2c0,0,0,0,0,0v-4.2h202.9v4.2C531.9,434.1,530,436,527.7,436z"/>
		<path class="st1" d="M430.5,444.4h88.8c2.3,0,4.2-1.9,4.2-4.2V436h4.2c2.3,0,4.2-1.9,4.2-4.2v-4.2H430.5V444.4z"/>
	</g>
</g>
</svg>
