<?xml version="1.0" encoding="utf-8"?>
<!-- Generator: Adobe Illustrator 19.1.0, SVG Export Plug-In . SVG Version: 6.00 Build 0)  -->
<svg version="1.1" id="Layer_1" xmlns="http://www.w3.org/2000/svg" xmlns:xlink="http://www.w3.org/1999/xlink" x="0px" y="0px"
	 viewBox="0 0 155.9 176.9" style="enable-background:new 0 0 155.9 176.9;" xml:space="preserve">
<style type="text/css">
	.st0{fill-rule:evenodd;clip-rule:evenodd;fill:#10A6E0;}
	.st1{fill-rule:evenodd;clip-rule:evenodd;fill:#EDEDED;}
	.st2{fill:#EDEDED;}
	.st3{clip-path:url(#SVGID_2_);}
	.st4{fill:#A8C638;stroke:#A8C638;stroke-miterlimit:10;}
	.st5{fill-rule:evenodd;clip-rule:evenodd;fill:#A8C638;stroke:#A8C638;stroke-miterlimit:10;}
	.st6{clip-path:url(#SVGID_4_);}
	.st7{fill:#F8D318;}
	.st8{fill:#4BC8F1;}
</style>
<polygon class="st0" points="9.2,74.8 21.1,55 48.9,36.5 70.2,31.9 92.1,31.9 116.7,40.9 132.2,55.2 143.9,72.9 143.9,77.9 
	136.1,77.9 126.1,77.9 112.6,76.5 104.2,78.5 91.7,74.9 78.9,77.4 64.3,74.5 52.6,77.2 39.7,74.5 29.1,77 "/>
<polygon class="st1" points="30.9,74.8 39.4,53.5 54.7,36 68.1,33.4 58.1,53.5 52.6,77.2 "/>
<polygon class="st1" points="78.3,75.2 78,30.9 82.1,30.9 87.1,33.7 96.9,46.4 103.7,77.3 88.6,75 78.9,77.6 "/>
<polygon class="st1" points="100.3,36.9 113.5,50.5 126.4,76.9 131.1,76.9 138.7,74.9 144.1,74.9 142.5,67.4 132.9,52.9 124.3,46.3 
	109.1,36.9 "/>
<g>
	<g>
		<path class="st2" d="M80.6,176.9V81.9c0-0.2,0-0.3,0-0.5c0-1.1,3.2-4.1,10.4-4.1c6.5,0,9.7,2.4,10.3,3.7c0,0.2,0.1,0.5,0.1,0.7
			c0.1,1.3,1.3,2.3,2.6,2.3c0,0,0,0,0,0c0,0,0,0,0,0c0,0,0,0,0,0c0,0,0,0,0,0c1.4,0,2.6-1.2,2.6-2.6c0-1.7,3.5-4.1,9.1-4.1
			c4.6,0,7.8,1.7,8.8,3.2c0.1,0.5,0.2,0.9,0.3,1.4c0.2,1.2,1.3,2.1,2.5,2.1c0,0,0,0,0,0c0,0,0,0,0,0c0,0,0,0,0,0c0,0,0,0,0,0
			c1.4,0,2.6-1.2,2.6-2.6c0-1.9,3.3-4.1,7.8-4.1c4.5,0,7.8,2.2,7.8,4.1c0,1.4,1.2,2.6,2.6,2.6c0.1,0,0.1,0,0.2,0c0,0,0.1,0,0.1,0
			c0.2,0,0.5,0,0.7-0.1c1.4-0.4,2.2-1.8,1.8-3.2l0,0c-4.4-15.2-14-28.9-26.9-38.6c-12.6-9.5-27.6-14.7-43.5-15.2v-5.6
			c0-1.4-1.2-2.6-2.6-2.6c-1.4,0-2.6,1.2-2.6,2.6v5.6c-15.9,0.5-30.9,5.8-43.5,15.2C19,51.8,9.4,65.5,5,80.7
			c-0.4,1.4,0.4,2.8,1.8,3.2c0.3,0.1,0.6,0.1,0.9,0.1c0,0,0.1,0,0.1,0c1.4,0,2.6-1.2,2.6-2.6c0-1.9,3.3-4.1,7.8-4.1s7.8,2.2,7.8,4.1
			c0,1.4,1.2,2.6,2.6,2.6c0,0,0,0,0,0c0,0,0,0,0,0c0,0,0,0,0,0c1.2,0,2.3-0.8,2.6-2.1c0.1-0.5,0.2-0.9,0.3-1.4
			c0.9-1.5,4.2-3.2,8.8-3.2c5.5,0,9.1,2.4,9.1,4.1c0,1.4,1.2,2.6,2.6,2.6c0,0,0,0,0,0c0.5,0,0.9-0.1,1.3-0.3c0,0,0,0,0,0
			c0.1,0,0.1-0.1,0.2-0.1c0,0,0,0,0,0c0.1,0,0.1-0.1,0.2-0.1l0,0c0.1-0.1,0.1-0.1,0.2-0.2c0,0,0,0,0,0c0.1-0.1,0.1-0.1,0.2-0.2
			c0,0,0,0,0,0c0-0.1,0.1-0.1,0.1-0.2c0,0,0,0,0,0c0-0.1,0.1-0.1,0.1-0.2c0,0,0,0,0-0.1c0-0.1,0.1-0.1,0.1-0.2c0,0,0-0.1,0-0.1
			c0,0,0-0.1,0-0.1c0-0.1,0-0.1,0-0.2c0,0,0-0.1,0-0.1c0-0.1,0-0.1,0-0.2c0,0,0,0,0-0.1c0,0,0,0,0,0c0,0,0,0,0,0
			c0-0.2,0-0.3,0.1-0.5c0.4-1.3,3.6-3.8,10.3-3.8c7.2,0,10.4,3,10.4,4.1v95.4 M18.2,72.2c-1.6,0-3.2,0.2-4.6,0.6
			C18.3,62.4,25.7,53.3,35,46.3c4.6-3.5,9.6-6.3,14.8-8.5c-1.7,1.4-3.3,3-4.9,4.7C37.1,50.8,31,62.2,27.5,75
			C25.2,73.2,21.9,72.2,18.2,72.2L18.2,72.2z M40.3,72.2c-2.5,0-4.8,0.4-6.9,1.1C36.8,62.6,42,53.1,48.7,46
			c4.8-5.1,10-8.8,15.6-11.2c-1.7,2.2-3.4,4.9-5.1,8.2c-4.1,8.4-7.2,19.2-9,31.7C47.7,73.2,44.2,72.2,40.3,72.2L40.3,72.2z M91,72.2
			c-4.1,0-7.7,0.8-10.4,2.3v-39c0-1.4-1.2-2.6-2.6-2.6c-1.4,0-2.6,1.2-2.6,2.6v39c-2.7-1.4-6.3-2.2-10.4-2.2c-3.6,0-6.8,0.6-9.4,1.8
			c1.8-11.2,4.6-21.2,8.3-28.6c3.5-7.1,7.5-11.5,11.5-12.8v10c0,1.4,1.2,2.6,2.6,2.6c1.4,0,2.6-1.2,2.6-2.6v-10
			c4,1.4,8,5.8,11.5,12.8c3.6,7.4,6.5,17.4,8.3,28.6C97.8,72.8,94.6,72.2,91,72.2L91,72.2z M115.7,72.2c-3.9,0-7.4,1-10,2.6
			c-1.8-12.5-4.9-23.4-9-31.7c-1.7-3.4-3.4-6.1-5.1-8.2c5.6,2.3,10.9,6.1,15.6,11.2c6.7,7.1,11.9,16.6,15.3,27.3
			C120.6,72.6,118.2,72.2,115.7,72.2L115.7,72.2z M128.5,75c-3.5-12.7-9.5-24.1-17.4-32.5c-1.6-1.7-3.2-3.3-4.9-4.7
			c5.2,2.2,10.2,5.1,14.8,8.5c9.3,7,16.7,16.1,21.5,26.5c-1.4-0.4-3-0.6-4.6-0.6C134.1,72.2,130.8,73.2,128.5,75L128.5,75z
			 M128.5,75"/>
	</g>
</g>
<g>
	<g>
		<defs>
			<rect id="SVGID_1_" x="91.7" y="128.7" width="38.4" height="16.5"/>
		</defs>
		<clipPath id="SVGID_2_">
			<use xlink:href="#SVGID_1_"  style="overflow:visible;"/>
		</clipPath>
		<g class="st3">
			<path class="st4" d="M122,145.6c0.8-0.6,1.5-1.2,2.2-1.8c1.4-1.4,2.4-3.2,2.7-5c0.3-1.9-0.2-3.7-1.4-4.9c-1-1-2.2-1.5-3.7-1.5
				c-2.1,0-4.4,1-6.1,2.8c-2.8,2.8-4.5,6.8-5.4,9.6c-0.7-2.8-2-6.6-4.5-9.2c-1.4-1.4-3.1-2.1-4.8-2.1c-1.4,0-2.6,0.5-3.6,1.4
				c-2.1,2.1-1.9,5.9,0.6,8.4c0.9,0.9,1.9,1.6,3,2.2h-9.3v11h2.7v19.2h32.9v-19.2h2.7v-11H122z M117.8,137.4c1.2-1.2,2.7-1.9,4-1.9
				c0.5,0,1.1,0.1,1.6,0.6c1.1,1.1,0.5,3.7-1.3,5.5c-1.9,1.9-4.4,3.2-6.6,4h-2.2C114,143.1,115.4,139.8,117.8,137.4L117.8,137.4z
				 M99,138.8c0-0.4,0-1.1,0.5-1.6c0.4-0.4,1-0.5,1.4-0.5c0.9,0,1.9,0.4,2.6,1.2c1.5,1.4,2.6,3.8,3.5,6.7c0,0.1,0,0.2,0.1,0.2
				c-0.1,0-0.2,0-0.2-0.1c-2.9-0.8-5.2-2-6.7-3.5C99.5,140.5,99,139.6,99,138.8L99,138.8z M108.1,173h-11v-17.8h11V173z
				 M108.1,153.8H94.4v-5.5h13.7V153.8z M124.6,173h-11v-17.8h11V173z M127.3,153.8h-13.7v-5.5h13.7V153.8z M127.3,153.8"/>
		</g>
	</g>
	<rect x="94.4" y="156" class="st1" width="32.9" height="19.3"/>
	<rect x="91.7" y="145.2" class="st1" width="38.4" height="10.8"/>
	<polygon class="st5" points="114.8,174.9 107.2,174.8 107.2,145.2 114.8,145.2 	"/>
</g>
<g>
	<rect x="40.2" y="162.5" class="st5" width="23.6" height="13.9"/>
	<rect x="38.2" y="154.7" class="st5" width="27.5" height="7.8"/>
	<rect x="49.4" y="154.2" class="st1" width="5.4" height="22.7"/>
	<g>
		<defs>
			<rect id="SVGID_3_" x="38.2" y="141.6" width="27.5" height="12.1"/>
		</defs>
		<clipPath id="SVGID_4_">
			<use xlink:href="#SVGID_3_"  style="overflow:visible;"/>
		</clipPath>
		<g class="st6">
			<path class="st2" d="M60,154.3c0.6-0.4,1.1-0.8,1.6-1.3c1-1,1.7-2.3,1.9-3.6c0.2-1.4-0.1-2.7-1-3.5c-0.7-0.7-1.6-1-2.7-1
				c-1.5,0-3.1,0.7-4.4,2c-2,2-3.2,4.9-3.9,6.9c-0.5-2-1.4-4.7-3.3-6.6c-1-1-2.2-1.5-3.4-1.5c-1,0-1.9,0.3-2.6,1
				c-1.5,1.5-1.3,4.2,0.5,6c0.6,0.6,1.4,1.2,2.2,1.6h-6.7v7.9h2v13.8h23.6v-13.8h2v-7.9H60z M57,148.4c0.9-0.9,1.9-1.4,2.8-1.4
				c0.3,0,0.8,0.1,1.1,0.4c0.8,0.8,0.4,2.7-1,4c-1.3,1.3-3.2,2.3-4.7,2.9h-1.6C54.3,152.6,55.3,150.1,57,148.4L57,148.4z
				 M43.5,149.4c0-0.3,0-0.8,0.4-1.2c0.3-0.3,0.7-0.4,1-0.4c0.7,0,1.3,0.3,1.9,0.8c1,1,1.9,2.7,2.5,4.8c0,0.1,0,0.1,0,0.2
				c-0.1,0-0.1,0-0.2,0c-2.1-0.6-3.7-1.4-4.8-2.5C43.8,150.7,43.5,150,43.5,149.4L43.5,149.4z M50,174h-7.9v-12.8H50V174z M50,160.2
				h-9.8v-3.9H50V160.2z M61.8,174H54v-12.8h7.9V174z M63.8,160.2H54v-3.9h9.8V160.2z M63.8,160.2"/>
		</g>
	</g>
</g>
<g>
	<g>
		<g>
			<g>
				<path class="st7" d="M87.7,7.1c-0.2-0.5-0.6-0.8-1.1-0.9l-5.1-0.8l-2.2-4.6C79.1,0.3,78.6,0,78,0c-0.6,0-1.1,0.3-1.3,0.8
					l-2.2,4.6l-5.1,0.8c-0.5,0.1-1,0.4-1.1,0.9c-0.2,0.5,0,1,0.3,1.4l3.7,3.7l-0.9,5.2c-0.1,0.5,0.1,1,0.6,1.3
					c0.2,0.2,0.5,0.3,0.8,0.3c0.2,0,0.5-0.1,0.7-0.2l4.4-2.4l4.4,2.4c0.2,0.1,0.4,0.2,0.7,0.2c0.3,0,0.6-0.1,0.8-0.3
					c0.4-0.3,0.7-0.8,0.6-1.3l-0.9-5.2l3.7-3.7C87.8,8.1,87.9,7.6,87.7,7.1L87.7,7.1z M87.7,7.1c-0.2-0.5-0.6-0.8-1.1-0.9l-5.1-0.8
					l-2.2-4.6C79.1,0.3,78.6,0,78,0c-0.6,0-1.1,0.3-1.3,0.8l-2.2,4.6l-5.1,0.8c-0.5,0.1-1,0.4-1.1,0.9c-0.2,0.5,0,1,0.3,1.4l3.7,3.7
					l-0.9,5.2c-0.1,0.5,0.1,1,0.6,1.3c0.2,0.2,0.5,0.3,0.8,0.3c0.2,0,0.5-0.1,0.7-0.2l4.4-2.4l4.4,2.4c0.2,0.1,0.4,0.2,0.7,0.2
					c0.3,0,0.6-0.1,0.8-0.3c0.4-0.3,0.7-0.8,0.6-1.3l-0.9-5.2l3.7-3.7C87.8,8.1,87.9,7.6,87.7,7.1L87.7,7.1z M82.7,11.3"/>
			</g>
		</g>
	</g>
</g>
<g>
	<path class="st8" d="M11.6,100.2l-1.6,1.2l-1.6-1.2l-1.6,1.2l-1.6-1.2l-1.6,1.2l-1.6-1.2L1,100.9c1.2,1.9,3.3,3.2,5.8,3.2
		s4.6-1.3,5.8-3.2L11.6,100.2z M11.6,100.2"/>
	<path class="st2" d="M10,95l-1.6,1.2L6.8,95l-1.6,1.2L3.5,95l-1.6,1.2l-1.6-1.2C0.1,95.8,0,96.5,0,97.3c0,0.8,0.1,1.5,0.4,2.2
		l1.6-1.2l1.6,1.2l1.6-1.2l1.6,1.2l1.6-1.2l1.6,1.2l1.6-1.2l1.6,1.2c0.2-0.7,0.4-1.4,0.4-2.2c0-0.8-0.1-1.5-0.4-2.3l-1.6,1.2L10,95z
		 M10,95"/>
	<path class="st8" d="M1.9,94.4l1.6-1.2l1.6,1.2l1.6-1.2l1.6,1.2l1.6-1.2l1.6,1.2l0.9-0.7c-0.7-1.1-1.7-2-3-2.6l-0.1,0v-1.7
		c0,0-0.2-0.1-0.5-0.2c0.1-0.2,0.1-0.5,0.1-0.7c0-1.3-1-2.3-2.3-2.3c-1.3,0-2.3,1-2.3,2.3c0,0.2,0,0.5,0.1,0.7
		C4.2,89.3,4,89.4,4,89.4v1.8l-0.1,0c-1.2,0.6-2.3,1.5-3,2.6L1.9,94.4z M6.8,87.2c0.7,0,1.3,0.6,1.3,1.3c0,0.2,0,0.3-0.1,0.5
		c-0.3,0-0.7-0.1-1.2-0.1c-0.5,0-0.9,0-1.2,0.1c-0.1-0.1-0.1-0.3-0.1-0.5C5.5,87.8,6.1,87.2,6.8,87.2L6.8,87.2z M6.8,87.2"/>
</g>
<g>
	<path class="st8" d="M33.6,100.2l-1.6,1.2l-1.6-1.2l-1.6,1.2l-1.6-1.2l-1.6,1.2l-1.6-1.2l-0.9,0.7c1.2,1.9,3.3,3.2,5.8,3.2
		s4.6-1.3,5.8-3.2L33.6,100.2z M33.6,100.2"/>
	<path class="st2" d="M32,95l-1.6,1.2L28.8,95l-1.6,1.2L25.5,95l-1.6,1.2l-1.6-1.2c-0.3,0.7-0.4,1.5-0.4,2.3c0,0.8,0.1,1.5,0.4,2.2
		l1.6-1.2l1.6,1.2l1.6-1.2l1.6,1.2l1.6-1.2l1.6,1.2l1.6-1.2l1.6,1.2c0.2-0.7,0.4-1.4,0.4-2.2c0-0.8-0.1-1.5-0.4-2.3l-1.6,1.2L32,95z
		 M32,95"/>
	<path class="st8" d="M23.9,94.4l1.6-1.2l1.6,1.2l1.6-1.2l1.6,1.2l1.6-1.2l1.6,1.2l0.9-0.7c-0.7-1.1-1.7-2-3-2.6l-0.1,0v-1.7
		c0,0-0.2-0.1-0.5-0.2c0.1-0.2,0.1-0.5,0.1-0.7c0-1.3-1-2.3-2.3-2.3c-1.3,0-2.3,1-2.3,2.3c0,0.2,0,0.5,0.1,0.7
		c-0.4,0.1-0.5,0.2-0.5,0.2v1.8l-0.1,0c-1.2,0.6-2.3,1.5-3,2.6L23.9,94.4z M28.8,87.2c0.7,0,1.3,0.6,1.3,1.3c0,0.2,0,0.3-0.1,0.5
		c-0.3,0-0.7-0.1-1.2-0.1c-0.5,0-0.9,0-1.2,0.1c-0.1-0.1-0.1-0.3-0.1-0.5C27.5,87.8,28.1,87.2,28.8,87.2L28.8,87.2z M28.8,87.2"/>
</g>
<g>
	<path class="st8" d="M56.6,100.2l-1.6,1.2l-1.6-1.2l-1.6,1.2l-1.6-1.2l-1.6,1.2l-1.6-1.2l-0.9,0.7c1.2,1.9,3.3,3.2,5.8,3.2
		s4.6-1.3,5.8-3.2L56.6,100.2z M56.6,100.2"/>
	<path class="st2" d="M55,95l-1.6,1.2L51.8,95l-1.6,1.2L48.5,95l-1.6,1.2l-1.6-1.2c-0.3,0.7-0.4,1.5-0.4,2.3c0,0.8,0.1,1.5,0.4,2.2
		l1.6-1.2l1.6,1.2l1.6-1.2l1.6,1.2l1.6-1.2l1.6,1.2l1.6-1.2l1.6,1.2c0.2-0.7,0.4-1.4,0.4-2.2c0-0.8-0.1-1.5-0.4-2.3l-1.6,1.2L55,95z
		 M55,95"/>
	<path class="st8" d="M46.9,94.4l1.6-1.2l1.6,1.2l1.6-1.2l1.6,1.2l1.6-1.2l1.6,1.2l0.9-0.7c-0.7-1.1-1.7-2-3-2.6l-0.1,0v-1.7
		c0,0-0.2-0.1-0.5-0.2c0.1-0.2,0.1-0.5,0.1-0.7c0-1.3-1-2.3-2.3-2.3c-1.3,0-2.3,1-2.3,2.3c0,0.2,0,0.5,0.1,0.7
		c-0.4,0.1-0.5,0.2-0.5,0.2v1.8l-0.1,0c-1.2,0.6-2.3,1.5-3,2.6L46.9,94.4z M51.8,87.2c0.7,0,1.3,0.6,1.3,1.3c0,0.2,0,0.3-0.1,0.5
		c-0.3,0-0.7-0.1-1.2-0.1c-0.5,0-0.9,0-1.2,0.1c-0.1-0.1-0.1-0.3-0.1-0.5C50.5,87.8,51.1,87.2,51.8,87.2L51.8,87.2z M51.8,87.2"/>
</g>
<g>
	<path class="st8" d="M109,100.2l-1.6,1.2l-1.6-1.2l-1.6,1.2l-1.6-1.2l-1.6,1.2l-1.6-1.2l-0.9,0.7c1.2,1.9,3.3,3.2,5.8,3.2
		s4.6-1.3,5.8-3.2L109,100.2z M109,100.2"/>
	<path class="st2" d="M107.3,95l-1.6,1.2l-1.6-1.2l-1.6,1.2l-1.6-1.2l-1.6,1.2l-1.6-1.2c-0.3,0.7-0.4,1.5-0.4,2.3
		c0,0.8,0.1,1.5,0.4,2.2l1.6-1.2l1.6,1.2l1.6-1.2l1.6,1.2l1.6-1.2l1.6,1.2l1.6-1.2l1.6,1.2c0.2-0.7,0.4-1.4,0.4-2.2
		c0-0.8-0.1-1.5-0.4-2.3l-1.6,1.2L107.3,95z M107.3,95"/>
	<path class="st8" d="M99.3,94.4l1.6-1.2l1.6,1.2l1.6-1.2l1.6,1.2l1.6-1.2l1.6,1.2l0.9-0.7c-0.7-1.1-1.7-2-3-2.6l-0.1,0v-1.7
		c0,0-0.2-0.1-0.5-0.2c0.1-0.2,0.1-0.5,0.1-0.7c0-1.3-1-2.3-2.3-2.3c-1.3,0-2.3,1-2.3,2.3c0,0.2,0,0.5,0.1,0.7
		c-0.4,0.1-0.5,0.2-0.5,0.2v1.8l-0.1,0c-1.2,0.6-2.3,1.5-3,2.6L99.3,94.4z M104.1,87.2c0.7,0,1.3,0.6,1.3,1.3c0,0.2,0,0.3-0.1,0.5
		c-0.3,0-0.7-0.1-1.2-0.1c-0.5,0-0.9,0-1.2,0.1c-0.1-0.1-0.1-0.3-0.1-0.5C102.8,87.8,103.4,87.2,104.1,87.2L104.1,87.2z M104.1,87.2
		"/>
</g>
<g>
	<path class="st8" d="M131,100.2l-1.6,1.2l-1.6-1.2l-1.6,1.2l-1.6-1.2l-1.6,1.2l-1.6-1.2l-0.9,0.7c1.2,1.9,3.3,3.2,5.8,3.2
		s4.6-1.3,5.8-3.2L131,100.2z M131,100.2"/>
	<path class="st2" d="M129.3,95l-1.6,1.2l-1.6-1.2l-1.6,1.2l-1.6-1.2l-1.6,1.2l-1.6-1.2c-0.3,0.7-0.4,1.5-0.4,2.3
		c0,0.8,0.1,1.5,0.4,2.2l1.6-1.2l1.6,1.2l1.6-1.2l1.6,1.2l1.6-1.2l1.6,1.2l1.6-1.2l1.6,1.2c0.2-0.7,0.4-1.4,0.4-2.2
		c0-0.8-0.1-1.5-0.4-2.3l-1.6,1.2L129.3,95z M129.3,95"/>
	<path class="st8" d="M121.3,94.4l1.6-1.2l1.6,1.2l1.6-1.2l1.6,1.2l1.6-1.2l1.6,1.2l0.9-0.7c-0.7-1.1-1.7-2-3-2.6l-0.1,0v-1.7
		c0,0-0.2-0.1-0.5-0.2c0.1-0.2,0.1-0.5,0.1-0.7c0-1.3-1-2.3-2.3-2.3c-1.3,0-2.3,1-2.3,2.3c0,0.2,0,0.5,0.1,0.7
		c-0.4,0.1-0.5,0.2-0.5,0.2v1.8l-0.1,0c-1.2,0.6-2.3,1.5-3,2.6L121.3,94.4z M126.1,87.2c0.7,0,1.3,0.6,1.3,1.3c0,0.2,0,0.3-0.1,0.5
		c-0.3,0-0.7-0.1-1.2-0.1c-0.5,0-0.9,0-1.2,0.1c-0.1-0.1-0.1-0.3-0.1-0.5C124.8,87.8,125.4,87.2,126.1,87.2L126.1,87.2z M126.1,87.2
		"/>
</g>
<g>
	<path class="st8" d="M154,100.2l-1.6,1.2l-1.6-1.2l-1.6,1.2l-1.6-1.2l-1.6,1.2l-1.6-1.2l-0.9,0.7c1.2,1.9,3.3,3.2,5.8,3.2
		s4.6-1.3,5.8-3.2L154,100.2z M154,100.2"/>
	<path class="st2" d="M152.3,95l-1.6,1.2l-1.6-1.2l-1.6,1.2l-1.6-1.2l-1.6,1.2l-1.6-1.2c-0.3,0.7-0.4,1.5-0.4,2.3
		c0,0.8,0.1,1.5,0.4,2.2l1.6-1.2l1.6,1.2l1.6-1.2l1.6,1.2l1.6-1.2l1.6,1.2l1.6-1.2l1.6,1.2c0.2-0.7,0.4-1.4,0.4-2.2
		c0-0.8-0.1-1.5-0.4-2.3l-1.6,1.2L152.3,95z M152.3,95"/>
	<path class="st8" d="M144.3,94.4l1.6-1.2l1.6,1.2l1.6-1.2l1.6,1.2l1.6-1.2l1.6,1.2l0.9-0.7c-0.7-1.1-1.7-2-3-2.6l-0.1,0v-1.7
		c0,0-0.2-0.1-0.5-0.2c0.1-0.2,0.1-0.5,0.1-0.7c0-1.3-1-2.3-2.3-2.3c-1.3,0-2.3,1-2.3,2.3c0,0.2,0,0.5,0.1,0.7
		c-0.4,0.1-0.5,0.2-0.5,0.2v1.8l-0.1,0c-1.2,0.6-2.3,1.5-3,2.6L144.3,94.4z M149.1,87.2c0.7,0,1.3,0.6,1.3,1.3c0,0.2,0,0.3-0.1,0.5
		c-0.3,0-0.7-0.1-1.2-0.1c-0.5,0-0.9,0-1.2,0.1c-0.1-0.1-0.1-0.3-0.1-0.5C147.8,87.8,148.4,87.2,149.1,87.2L149.1,87.2z M149.1,87.2
		"/>
</g>
</svg>
