<?xml version="1.0" encoding="utf-8"?>
<!-- Generator: Adobe Illustrator 19.1.0, SVG Export Plug-In . SVG Version: 6.00 Build 0)  -->
<svg version="1.1" id="Layer_1" xmlns="http://www.w3.org/2000/svg" xmlns:xlink="http://www.w3.org/1999/xlink" x="0px" y="0px"
	 viewBox="0 0 194.9 196.7" style="enable-background:new 0 0 194.9 196.7;" xml:space="preserve">
<style type="text/css">
	.st0{fill:none;stroke:#484848;stroke-width:2;stroke-miterlimit:10;}
	.st1{fill:none;stroke:#484848;stroke-width:2;stroke-miterlimit:10;stroke-dasharray:4.1478,4.1478;}
	.st2{fill:#FFFFFF;}
	.st3{fill:#484848;}
	.st4{fill-rule:evenodd;clip-rule:evenodd;fill:#10A6E0;}
	.st5{fill:#10A6E0;}
	.st6{fill:#EDEDED;}
</style>
<g>
	<g>
		<path class="st0" d="M18.3,71.1c0-0.7,0-1.3,0-2"/>
		<path class="st1" d="M18.7,64.9C21.6,40,41.8,20.4,67,18.5"/>
		<path class="st0" d="M69.1,18.4c0.7,0,1.3,0,2,0"/>
	</g>
</g>
<g>
	<g>
		<path class="st0" d="M18.3,125.6c0,0.7,0,1.3,0,2"/>
		<path class="st1" d="M18.7,131.8c2.9,24.9,23.1,44.5,48.3,46.4"/>
		<path class="st0" d="M69.1,178.3c0.7,0,1.3,0,2,0"/>
	</g>
</g>
<circle class="st2" cx="18.3" cy="98.2" r="18.3"/>
<g>
	<g>
		<path class="st0" d="M176.5,71.1c0-0.7,0-1.3,0-2"/>
		<path class="st1" d="M176.2,64.9c-2.9-24.9-23.1-44.5-48.3-46.4"/>
		<path class="st0" d="M125.8,18.4c-0.7,0-1.3,0-2,0"/>
	</g>
</g>
<g>
	<g>
		<path class="st0" d="M176.5,125.6c0,0.7,0,1.3,0,2"/>
		<path class="st1" d="M176.2,131.8c-2.9,24.9-23.1,44.5-48.3,46.4"/>
		<path class="st0" d="M125.8,178.3c-0.7,0-1.3,0-2,0"/>
	</g>
</g>
<circle class="st2" cx="176.5" cy="98.2" r="18.3"/>
<circle class="st2" cx="97.3" cy="18.3" r="18.3"/>
<circle class="st2" cx="97.3" cy="178.4" r="18.3"/>
<circle class="st3" cx="18.3" cy="125.6" r="3.8"/>
<circle class="st3" cx="18.3" cy="71.1" r="3.8"/>
<circle class="st3" cx="176.5" cy="125.6" r="3.8"/>
<circle class="st3" cx="123.8" cy="178.4" r="3.8"/>
<circle class="st3" cx="123.8" cy="18.3" r="3.8"/>
<circle class="st3" cx="176.5" cy="71.1" r="3.8"/>
<circle class="st3" cx="71.1" cy="178.4" r="3.8"/>
<circle class="st3" cx="71.1" cy="18.3" r="3.8"/>
<g>
	<g>
		<path class="st4" d="M114.6,81.6c-1.9-0.9-4.1-0.2-5.1,1.7c-0.9,1.9-0.2,4.1,1.7,5.1c1.9,0.9,4.1,0.2,5.1-1.7
			C117.2,84.8,116.4,82.6,114.6,81.6L114.6,81.6z M138.6,78.9c-1.8-7.6-6.8-14-13.8-17.5c-7-3.5-15.1-3.7-22.3-0.7
			c-1,0.4-1.4,1.5-1,2.5c0.2,0.4,0.5,0.7,0.9,0.9c0.5,0.2,1.1,0.3,1.6,0.1c6.2-2.7,13.2-2.5,19.1,0.6c6,3,10.3,8.5,11.8,15
			c0.1,0.6,0.5,1,1,1.3c0.4,0.2,0.8,0.3,1.3,0.1C138.2,81,138.8,80,138.6,78.9L138.6,78.9z M121.4,68.1c-5-2.5-10.8-2.7-15.9-0.5
			c-1,0.4-1.4,1.5-1,2.5c0.2,0.4,0.5,0.7,0.9,0.9c0.5,0.2,1.1,0.3,1.6,0.1c4.1-1.8,8.8-1.6,12.8,0.4c4,2,6.9,5.7,7.9,10
			c0.1,0.6,0.5,1,1,1.2c0.4,0.2,0.8,0.3,1.3,0.2c1-0.2,1.6-1.3,1.4-2.3C129.9,75.2,126.3,70.7,121.4,68.1L121.4,68.1z M118,74.9
			c-3-1.5-6.5-1.6-9.6-0.3c-1,0.4-1.4,1.5-1,2.5c0.2,0.4,0.5,0.7,0.9,0.9c0.5,0.2,1.1,0.3,1.6,0.1c2.1-0.9,4.4-0.8,6.4,0.2
			c2,1,3.4,2.8,3.9,5c0.1,0.6,0.5,1,1,1.3c0.4,0.2,0.8,0.3,1.3,0.1c1-0.2,1.6-1.3,1.4-2.3C123.1,79.1,121,76.4,118,74.9L118,74.9z
			 M118,74.9"/>
	</g>
</g>
<g>
	<g>
		<polygon class="st3" points="64.4,119.2 62.4,114.2 63.4,109.9 77.3,111.7 131,112 131.7,114.5 126.8,118.1 114.5,120.2 		"/>
		<polygon class="st2" points="63.3,109.4 62.1,97.2 64.9,97.2 69.4,102.7 78.2,103.2 84.6,99.5 87.8,96.2 102.4,105 108.2,106.6 
			112.5,105.6 116.9,101.3 125.1,101.9 131.7,104.6 132.6,109.3 129.9,111.3 75.8,111.5 64,110.1 		"/>
		<polygon class="st2" points="62.4,95.3 63.8,86.2 65.7,86.2 71,90.4 77.8,92 85.1,87.6 87.7,85.1 92.7,85.9 108,97 116.4,100.1 
			114.4,103.8 108.2,106.6 102.2,103.7 87.8,96 83.8,99.5 78.2,102.4 69.4,102.5 66.2,98.2 65,96.1 		"/>
		<g>
			<g>
				<path class="st3" d="M134.7,109.1c0-0.2,0-0.4,0-0.7c-0.1-6.7-4.7-7.4-10.1-8.2c-1.3-0.2-2.7-0.4-4.3-0.7
					c-10.5-2.2-19.6-7.3-27.1-15.4c-0.3-0.3-0.7-0.5-1.2-0.5h-5.5c-0.7,0-1.2,0.4-1.5,1c-1.5,3.5-4.8,5.7-8.5,5.7
					c-3.6,0-7-2.2-8.5-5.7c-0.3-0.6-0.8-1-1.5-1h-3.7c-0.9,0-1.6,0.7-1.6,1.6c0,2.4-0.3,4.9-0.5,7.3c-0.6,6.3-1.2,12.3,1.7,16.4
					c-1.1,1.1-1.7,2.8-1.7,4.5v1.7c0,3.4,2.4,6.2,5.3,6.2H110c11.5,0,19.9-2.4,23.3-6.6C134.5,113,135,111.1,134.7,109.1
					L134.7,109.1z M64,92.8c0.2-2,0.4-4,0.5-6h1.1c2.2,4.1,6.4,6.7,11,6.7c4.6,0,8.8-2.6,11-6.7h3.8c0.5,0.6,1.1,1.1,1.7,1.7
					l-1.2,1.5c-0.6,0.7-0.4,1.7,0.3,2.3c0.7,0.6,1.7,0.4,2.3-0.3l1.1-1.4c0.6,0.5,1.3,1.1,1.9,1.6l-1.1,1.4
					c-0.6,0.7-0.4,1.7,0.3,2.3c0.7,0.6,1.7,0.4,2.3-0.3l1.2-1.5c0.7,0.5,1.4,0.9,2.1,1.4l-1,1.3c-0.6,0.7-0.4,1.7,0.3,2.3
					c0.7,0.6,1.7,0.4,2.3-0.3l1.3-1.6c0.7,0.4,1.5,0.8,2.3,1.2l-0.9,1.1c-0.6,0.7-0.4,1.7,0.3,2.3c0.7,0.6,1.7,0.4,2.3-0.3l1.4-1.7
					c1.5,0.6,3,1.2,4.6,1.6c-2.2,3.2-6.4,4.5-10.1,3c-0.1,0-0.1-0.1-0.2-0.1c-5.5-2.6-10.7-5.8-16-9.8c-0.1,0-0.5-0.3-0.7-0.3
					c-0.3-0.1-1,0-1.3,0.4c-0.1,0.1-0.4,0.6-0.5,0.6c-1.4,3.3-5.4,5.6-9.7,5.6c-2,0-6.8-0.5-8.9-5.6c-0.3-0.6-0.8-1-1.5-1h-1.9
					C63.9,93.7,64,93.3,64,92.8L64,92.8z M110,118H66.1c-1.1,0-2.1-1.3-2.1-2.9v-1.7c0-0.9,0.3-1.7,0.8-2.2c2.1,1.4,4.9,2.1,8.6,2.1
					h56.8C127.2,116.2,119.7,118,110,118L110,118z M131.4,108.9c-0.1,0.3-0.2,0.5-0.4,0.7c-0.2,0.2-0.5,0.4-0.8,0.4H73.4
					c-3.4,0-5.9-0.7-7.4-2c0,0-0.4-0.4-0.5-0.5c-1.9-2.2-2.1-5.8-1.9-10h1.2c2.2,4.2,6.4,6.6,11.5,6.6c4.9,0,9.3-2.3,11.7-5.8
					c4.9,3.6,9.8,6.6,14.9,9c0.1,0.1,0.2,0.1,0.3,0.2c5.6,2.4,12.1,0.2,15-5c0.5,0.1,1,0.2,1.6,0.3c1.6,0.3,3.1,0.6,4.4,0.8
					c5.6,0.9,7.2,1.3,7.3,5C131.4,108.6,131.4,108.9,131.4,108.9L131.4,108.9z M131.4,108.9"/>
			</g>
		</g>
	</g>
</g>
<g>
	<g>
		<path class="st5" d="M97.4,12.7c0.8-1.8,2.5-3.1,4.5-3.1c2.7,0,4.7,2.3,4.9,5.1c0,0,0.1,0.7-0.2,1.9c-0.4,1.7-1.3,3.2-2.6,4.3
			l-6.7,6l-6.6-6c-1.3-1.1-2.2-2.7-2.6-4.3c-0.3-1.2-0.2-1.9-0.2-1.9c0.2-2.8,2.2-5.1,4.9-5.1C95,9.7,96.6,10.9,97.4,12.7L97.4,12.7
			z M97.4,12.7"/>
	</g>
	<path class="st2" d="M90.3,15.7"/>
</g>
<g>
	<g>
		<path class="st5" d="M182.7,90.3l0.5-0.8l0.4,0.2c0.2,0.1,0.4,0.2,0.6,0.2c0.5,0,0.9-0.2,1.1-0.6c0.2-0.3,0.2-0.6,0.1-1
			c-0.1-0.3-0.3-0.6-0.6-0.8l-1.5-0.9c-0.3-0.2-0.6-0.2-1-0.1c-0.3,0.1-0.6,0.3-0.8,0.6c-0.4,0.6-0.1,1.4,0.5,1.7l0.4,0.2l-0.5,0.8
			c-1.4-0.8-3-1.2-4.7-1.3v-0.9h1.3c0.7,0,1.3-0.6,1.3-1.3s-0.6-1.3-1.3-1.3h-3.5c-0.7,0-1.3,0.6-1.3,1.3s0.6,1.3,1.3,1.3h1.3v0.9
			c-5.8,0.2-10.4,5-10.4,10.8c0,6,4.9,10.8,10.8,10.8c6,0,10.8-4.9,10.8-10.8C187.8,95.7,185.8,92.3,182.7,90.3L182.7,90.3z
			 M176.9,109.5"/>
		<path d="M176.9,98.6"/>
	</g>
	<g>
		<path class="st2" d="M176.9,90.4c-5,0-9.1,4.1-9.1,9.1c0,5,4.1,9.1,9.1,9.1c5,0,9.1-4.1,9.1-9.1C186,94.5,181.9,90.4,176.9,90.4
			L176.9,90.4z M176.9,107.8"/>
		<circle class="st3" cx="176.9" cy="99.5" r="0.9"/>
		<path class="st5" d="M176.9,93c-0.2,0-0.4,0.2-0.4,0.4c0,0.2,0.2,0.4,0.4,0.4c3.1,0,5.7,2.5,5.7,5.7c0,3.1-2.5,5.7-5.7,5.7
			c-3,0-5.5-2.3-5.7-5.3h4c0.2,0.7,0.9,1.3,1.7,1.3c0.8,0,1.5-0.6,1.7-1.3h0.9c0.2,0,0.4-0.2,0.4-0.4c0-0.2-0.2-0.4-0.4-0.4h-0.9
			c-0.2-0.7-0.9-1.3-1.7-1.3c-0.8,0-1.5,0.6-1.7,1.3H170c-0.2,0-0.4,0.2-0.4,0.4c0,0.2,0.2,0.4,0.4,0.4h0.5c0.2,3.4,3,6.1,6.5,6.1
			c3.6,0,6.5-2.9,6.5-6.5S180.5,93,176.9,93L176.9,93z M176.9,98.6c0.5,0,0.9,0.4,0.9,0.9c0,0.5-0.4,0.9-0.9,0.9
			c-0.5,0-0.9-0.4-0.9-0.9C176,99,176.4,98.6,176.9,98.6L176.9,98.6z M176.9,98.6"/>
		<path class="st3" d="M179,87.1h-4.3c-0.1,0-0.3-0.1-0.3-0.3v-0.8c0-0.1,0.1-0.3,0.3-0.3h4.3c0.1,0,0.3,0.1,0.3,0.3v0.8
			C179.3,87,179.2,87.1,179,87.1z"/>
		<path class="st3" d="M184.5,89.4l-2.5-1.4c-0.1-0.1-0.1-0.2-0.1-0.3l0.3-0.6c0.1-0.1,0.2-0.1,0.3-0.1l2.5,1.4
			c0.1,0.1,0.1,0.2,0.1,0.3l-0.3,0.6C184.7,89.4,184.6,89.4,184.5,89.4z"/>
	</g>
</g>
<g>
	<path class="st5" d="M18.3,108.1c-5.5,0-10-4.5-10-10c0-5.5,4.5-10,10-10c5.5,0,10,4.5,10,10C28.4,103.6,23.9,108.1,18.3,108.1
		L18.3,108.1z"/>
	<path class="st2" d="M18.3,106.4c-4.6,0-8.3-3.7-8.3-8.3c0-4.6,3.7-8.3,8.3-8.3c4.6,0,8.3,3.7,8.3,8.3
		C26.7,102.6,22.9,106.4,18.3,106.4L18.3,106.4z"/>
	<g>
		<path class="st5" d="M24.5,98.1c0,0.2,0.1,0.3,0.3,0.3H26c0.2,0,0.3-0.1,0.3-0.3c0-0.2-0.1-0.3-0.3-0.3h-1.2
			C24.6,97.8,24.5,97.9,24.5,98.1L24.5,98.1z M24.5,98.1"/>
		<path class="st5" d="M25.7,95.8l-1.2,0.3c-0.2,0-0.3,0.2-0.2,0.4c0,0.1,0.2,0.2,0.3,0.2c0,0,0.1,0,0.1,0l1.2-0.3
			c0.2,0,0.3-0.2,0.2-0.4C26,95.9,25.8,95.8,25.7,95.8L25.7,95.8z M25.7,95.8"/>
		<path class="st3" d="M22.1,91.7c-1.1-0.7-2.4-1-3.7-1c-4.1,0-7.4,3.3-7.4,7.4c0,1.6,0.4,3.1,1.3,4.2c0.1,0.1,0.2,0.1,0.2,0.1
			c0.1,0,0.1,0,0.2-0.1c0.1-0.1,0.2-0.3,0.1-0.4c-0.8-1-1.2-2.3-1.2-3.8c0-3.7,3-6.8,6.8-6.8c1.2,0,2.4,0.3,3.4,0.9
			c0.1,0.1,0.3,0,0.4-0.1C22.3,92,22.2,91.8,22.1,91.7L22.1,91.7z M22.1,91.7"/>
		<path class="st5" d="M24.8,94l-1.1,0.6c-0.1,0.1-0.2,0.3-0.1,0.4c0.1,0.1,0.2,0.2,0.3,0.2c0.1,0,0.1,0,0.2,0l1.1-0.6
			c0.1-0.1,0.2-0.3,0.1-0.4C25.2,94,25,93.9,24.8,94L24.8,94z M24.8,94"/>
		<path class="st5" d="M23.3,92.7L19,97c-0.2-0.1-0.4-0.2-0.6-0.2c-0.7,0-1.2,0.6-1.2,1.2c0,0.2,0.1,0.4,0.2,0.6l-1,1
			c-0.1,0.1-0.1,0.3,0,0.4c0.1,0.1,0.1,0.1,0.2,0.1c0.1,0,0.2,0,0.2-0.1l1-1c0.2,0.1,0.4,0.2,0.6,0.2c0.7,0,1.2-0.6,1.2-1.2
			c0-0.2-0.1-0.4-0.2-0.6l4.4-4.4c0.1-0.1,0.1-0.3,0-0.4C23.7,92.5,23.5,92.5,23.3,92.7L23.3,92.7z M18.3,98.7
			c-0.3,0-0.6-0.3-0.6-0.6c0-0.3,0.3-0.6,0.6-0.6c0.3,0,0.6,0.3,0.6,0.6C19,98.4,18.7,98.7,18.3,98.7L18.3,98.7z M18.3,98.7"/>
	</g>
	<circle class="st6" cx="18.3" cy="98" r="0.7"/>
</g>
<polygon class="st5" points="91.8,176.2 91.8,169.2 102.8,169.2 102.8,178.7 101.4,180.9 97.9,183.3 97,184.3 95.8,182.3 94,182.4 
	91.6,179.3 "/>
<polygon class="st5" points="94.2,188.6 94.9,186.5 97.3,185.7 99.5,186.4 100.8,187.6 100.8,188.4 99.6,189.3 "/>
<path class="st5" d="M107.9,170.4c0-0.6-0.2-1.2-0.6-1.6c-0.4-0.4-1-0.7-1.6-0.7h-17c-0.6,0-1.2,0.2-1.6,0.7c-0.4,0.4-0.6,1-0.6,1.6
	c0.1,1.6,0.5,3.1,1.2,4.4c0.6,1.1,1.3,2,2.3,2.8c0.2,0.1,0.3,0.3,0.5,0.4c0.1,0.6,0.2,1.1,0.5,1.7c0.3,0.8,0.8,1.5,1.4,2.1
	c0.6,0.6,1.3,1.1,2.1,1.4c0.6,0.3,1.3,0.4,2,0.5v1.5c-0.7,0.1-1.3,0.4-1.9,0.7c-0.9,0.6-1.4,1.6-1.4,2.5v1.6h8.2v-1.6
	c0-1-0.5-1.9-1.4-2.5c-0.5-0.4-1.2-0.6-1.9-0.7v-1.5c0.7-0.1,1.4-0.2,2-0.5c0.8-0.3,1.5-0.8,2.1-1.4c0.6-0.6,1.1-1.3,1.4-2.1
	c0.2-0.5,0.4-1.1,0.5-1.7c0.2-0.1,0.3-0.2,0.5-0.4c0.9-0.8,1.7-1.7,2.3-2.8C107.5,173.5,107.9,172,107.9,170.4L107.9,170.4z
	 M102.1,179.1c-0.8,1.8-2.5,3-4.6,3h-0.4c-2.1,0-3.8-1.2-4.6-3c-0.3-0.6-0.4-1.3-0.4-2c0,0,0,0,0,0v-7.3h10.5v7.3c0,0,0,0,0,0
	C102.5,177.8,102.4,178.5,102.1,179.1L102.1,179.1z M88.2,170.3c0-0.3,0.2-0.6,0.6-0.6h1.7v6.1C89.4,174.7,88.4,172.9,88.2,170.3
	L88.2,170.3z M99.8,188.4h-5c0-0.9,1-1.7,2.2-1.8h0.5C98.8,186.8,99.8,187.5,99.8,188.4L99.8,188.4z M106.4,170.3
	c-0.1,2.6-1.1,4.4-2.3,5.5v-6.1h1.7C106.1,169.7,106.4,170,106.4,170.3L106.4,170.3z M106.4,170.3"/>
</svg>
