<?xml version="1.0" encoding="utf-8"?>
<!-- Generator: Adobe Illustrator 19.1.0, SVG Export Plug-In . SVG Version: 6.00 Build 0)  -->
<svg version="1.1" id="Layer_1" xmlns="http://www.w3.org/2000/svg" xmlns:xlink="http://www.w3.org/1999/xlink" x="0px" y="0px"
	 viewBox="0 0 271.3 209.4" style="enable-background:new 0 0 271.3 209.4;" xml:space="preserve">
<style type="text/css">
	.st0{fill:#FFFFFF;}
	.st1{fill:#10A6E0;}
	.st2{fill:#484848;}
	.st3{fill-rule:evenodd;clip-rule:evenodd;fill:#FFFFFF;}
	.st4{fill:#FEFDF4;}
	.st5{fill:none;stroke:#FEFDF4;stroke-width:2;stroke-miterlimit:10;}
	.st6{fill:none;stroke:#FEFDF4;stroke-width:2;stroke-linecap:round;stroke-linejoin:round;stroke-miterlimit:10;}
	.st7{fill-rule:evenodd;clip-rule:evenodd;fill:#484848;}
	.st8{fill:none;stroke:#000000;stroke-width:2;stroke-miterlimit:10;stroke-dasharray:4;}
	.st9{fill:none;stroke:#FFFFFF;stroke-width:3;stroke-miterlimit:10;}
</style>
<g>
	<g>
		<path class="st0" d="M87.5,123.9V3.3C87.5,1.5,86,0,84.1,0H3.3C1.5,0,0,1.5,0,3.3v120.6c0,1.7,1.3,3.1,2.9,3.3v2.4
			c-1.6,0.2-2.9,1.6-2.9,3.3v70.6c0,1.8,1.5,3.3,3.3,3.3h2.9c0.3,1.5,1.6,2.7,3.2,2.7c1.6,0,2.9-1.1,3.2-2.7h62
			c0.3,1.5,1.6,2.7,3.2,2.7c1.6,0,2.9-1.1,3.2-2.7h2.9c1.8,0,3.3-1.5,3.3-3.3v-70.6c0-1.7-1.3-3.1-2.9-3.3v-2.4
			C86.2,127,87.5,125.6,87.5,123.9L87.5,123.9z M11.3,136.1v18.8c0,2.4-1.9,4.3-4.3,4.3H6.6v-23.1H11.3z M9.5,129.5v-2.3H78v2.3H9.5
			z M11.3,120.6H6.6v-25h0.3c2.4,0,4.3,1.9,4.3,4.3V120.6z M80.8,6.6"/>
	</g>
	<path class="st0" d="M43.7,30.3c4,0,7.3-3.3,7.3-7.3c0-4-3.3-7.3-7.3-7.3c-4,0-7.3,3.3-7.3,7.3C36.4,27,39.7,30.3,43.7,30.3
		L43.7,30.3z M43.7,20.1"/>
	<path class="st1" d="M43.7,30.3c4,0,7.3-3.3,7.3-7.3c0-4-3.3-7.3-7.3-7.3c-4,0-7.3,3.3-7.3,7.3C36.4,27,39.7,30.3,43.7,30.3
		L43.7,30.3z M43.7,20.1c1.6,0,2.9,1.3,2.9,2.9c0,1.6-1.3,2.9-2.9,2.9c-1.6,0-2.9-1.3-2.9-2.9C40.9,21.4,42.1,20.1,43.7,20.1
		L43.7,20.1z M43.7,20.1"/>
	<g>
		<path class="st0" d="M87.5,123.9V3.3C87.5,1.5,86,0,84.1,0H3.3C1.5,0,0,1.5,0,3.3v120.6c0,1.7,1.3,3.1,2.9,3.3v2.4
			c-1.6,0.2-2.9,1.6-2.9,3.3v70.6c0,1.8,1.5,3.3,3.3,3.3h2.9c0.3,1.5,1.6,2.7,3.2,2.7c1.6,0,2.9-1.1,3.2-2.7h62
			c0.3,1.5,1.6,2.7,3.2,2.7c1.6,0,2.9-1.1,3.2-2.7h2.9c1.8,0,3.3-1.5,3.3-3.3v-70.6c0-1.7-1.3-3.1-2.9-3.3v-2.4
			C86.2,127,87.5,125.6,87.5,123.9L87.5,123.9z M80.8,200.1H6.6v-36.4h0.3c4.8,0,8.7-3.9,8.7-8.7v-18.8h65.1V200.1z M11.3,136.1
			v18.8c0,2.4-1.9,4.3-4.3,4.3H6.6v-23.1H11.3z M9.5,129.5v-2.3H78v2.3H9.5z M11.3,120.6H6.6v-25h0.3c2.4,0,4.3,1.9,4.3,4.3V120.6z
			 M80.8,6.6v114H15.7V99.9c0-4.8-3.9-8.7-8.7-8.7H6.6V6.6H80.8z M80.8,6.6"/>
	</g>
	<path class="st2" d="M45.3,81.1h-3.4c-6.9,0-12.4-5.6-12.4-12.4v0c0-6.9,5.6-12.4,12.4-12.4h3.4c6.9,0,12.4,5.6,12.4,12.4v0
		C57.8,75.5,52.2,81.1,45.3,81.1z"/>
	<g>
		<g>
			<path class="st3" d="M43.6,72.2c-0.9,0-1.7,0.7-1.7,1.6c0,0.9,0.7,1.7,1.6,1.7c0.9,0,1.7-0.7,1.7-1.6
				C45.3,73,44.6,72.2,43.6,72.2L43.6,72.2z M52.6,66.5c-2.2-2.7-5.4-4.2-8.8-4.2s-6.7,1.5-8.9,4.1c-0.3,0.3-0.3,0.9,0.1,1.2
				c0.2,0.1,0.3,0.2,0.5,0.2c0.2,0,0.5-0.1,0.6-0.3c1.9-2.2,4.7-3.5,7.7-3.5c2.9,0,5.7,1.4,7.6,3.6c0.2,0.2,0.4,0.3,0.6,0.3
				c0.2,0,0.4-0.1,0.5-0.2C52.8,67.4,52.9,66.8,52.6,66.5L52.6,66.5z M43.7,65.6c-2.4,0-4.8,1-6.4,2.9c-0.3,0.3-0.3,0.9,0.1,1.2
				c0.2,0.1,0.3,0.2,0.5,0.2c0.2,0,0.5-0.1,0.6-0.3c1.3-1.5,3.1-2.3,5.1-2.3s3.8,0.9,5.1,2.4c0.2,0.2,0.4,0.3,0.6,0.3
				c0.2,0,0.4-0.1,0.5-0.2c0.4-0.3,0.4-0.8,0.1-1.2C48.5,66.7,46.2,65.6,43.7,65.6L43.7,65.6z M43.7,68.9c-1.5,0-2.9,0.6-3.8,1.7
				c-0.3,0.3-0.3,0.9,0.1,1.2c0.2,0.1,0.3,0.2,0.5,0.2c0.2,0,0.5-0.1,0.6-0.3c0.6-0.8,1.6-1.2,2.5-1.2c1,0,1.9,0.4,2.5,1.2
				c0.2,0.2,0.4,0.3,0.6,0.3c0.2,0,0.4-0.1,0.5-0.2c0.4-0.3,0.4-0.8,0.1-1.2C46.5,69.5,45.1,68.9,43.7,68.9L43.7,68.9z M43.7,68.9"
				/>
		</g>
	</g>
</g>
<path d="M261.5,159.6"/>
<g>
	<g>
		<g id="XMLID_475_">
			<g>
				<polygon class="st4" points="209.6,95.6 204.4,116.2 169.9,116.2 164.8,95.6 				"/>
			</g>
			<g>
				<path class="st5" d="M163.6,128.3c0-3,2.4-5.4,5.4-5.4c3,0,5.4,2.4,5.4,5.4c0,3-2.4,5.4-5.4,5.4
					C166.1,133.7,163.6,131.3,163.6,128.3z"/>
				<path class="st5" d="M190.9,128.3c0-3,2.4-5.4,5.4-5.4s5.4,2.4,5.4,5.4c0,3-2.4,5.4-5.4,5.4S190.9,131.3,190.9,128.3z"/>
				<line class="st6" x1="190.9" y1="128.3" x2="174.5" y2="128.3"/>
				<polygon class="st5" points="204.4,116.2 169.9,116.2 164.8,95.6 209.6,95.6 				"/>
				<polyline class="st6" points="162.9,88.8 169.9,116.2 166.8,123.4 				"/>
				<rect x="153.7" y="88.8" class="st5" width="9.2" height="3.8"/>
			</g>
		</g>
	</g>
	<g>
		<g>
			<path class="st7" d="M186.5,108.8c-0.9,0-1.7,0.7-1.7,1.7c0,0.9,0.7,1.7,1.7,1.7c0.9,0,1.7-0.7,1.7-1.7
				C188.2,109.6,187.5,108.9,186.5,108.8L186.5,108.8z M195.6,103.1c-2.2-2.7-5.5-4.2-8.9-4.3s-6.7,1.5-9,4.1
				c-0.3,0.4-0.3,0.9,0.1,1.2c0.2,0.1,0.3,0.2,0.5,0.2c0.2,0,0.5-0.1,0.6-0.3c1.9-2.3,4.8-3.6,7.7-3.5c3,0,5.8,1.4,7.7,3.7
				c0.2,0.2,0.4,0.3,0.6,0.3c0.2,0,0.4-0.1,0.5-0.2C195.8,104,195.9,103.4,195.6,103.1L195.6,103.1z M186.6,102.1
				c-2.5,0-4.8,1-6.4,2.9c-0.3,0.4-0.3,0.9,0.1,1.2c0.2,0.1,0.3,0.2,0.5,0.2c0.2,0,0.5-0.1,0.6-0.3c1.3-1.5,3.2-2.4,5.1-2.4
				s3.8,0.9,5.1,2.4c0.2,0.2,0.4,0.3,0.6,0.3c0.2,0,0.4-0.1,0.5-0.2c0.4-0.3,0.4-0.8,0.1-1.2C191.4,103.3,189.1,102.2,186.6,102.1
				L186.6,102.1z M186.6,105.5c-1.5,0-2.9,0.6-3.9,1.8c-0.3,0.3-0.3,0.9,0.1,1.2c0.2,0.1,0.3,0.2,0.5,0.2c0.2,0,0.5-0.1,0.6-0.3
				c0.6-0.8,1.6-1.2,2.6-1.2c1,0,1.9,0.5,2.5,1.2c0.2,0.2,0.4,0.3,0.6,0.3c0.2,0,0.4-0.1,0.5-0.2c0.4-0.3,0.4-0.8,0.1-1.2
				C189.5,106.2,188.1,105.5,186.6,105.5L186.6,105.5z M186.6,105.5"/>
		</g>
	</g>
</g>
<line class="st8" x1="99.1" y1="109.6" x2="152.8" y2="109.6"/>
<path class="st9" d="M148.9,58.8c11.8-9.7,26.9-15.5,43.3-15.5c37.8,0,68.4,30.6,68.4,68.4s-30.6,68.4-68.4,68.4
	c-17.7,0-33.9-6.8-46.1-17.8"/>
<g>
	<circle class="st0" cx="155" cy="50" r="16.9"/>
	<g>
		<path class="st1" d="M166.8,46.5c0.2,0,0.4-0.2,0.4-0.4v-2.4c0-0.4-0.3-0.8-0.8-0.8h-20.8c-1.9,0-3.5,1.6-3.5,3.5v7.1
			c0,1.9,1.6,3.5,3.5,3.5h11c0.2,0,0.4-0.2,0.4-0.4c0-0.7,0.5-1.2,1.2-1.2c0.7,0,1.2,0.5,1.2,1.2c0,0.2,0.2,0.4,0.4,0.4h6.7
			c0.4,0,0.8-0.3,0.8-0.8v-7.9c0-0.2-0.2-0.4-0.4-0.4c-0.4,0-0.8-0.4-0.8-0.8S166.3,46.5,166.8,46.5L166.8,46.5z M166.4,48.8"/>
		<path class="st0" d="M149.1,48.9c-0.9,0-1.5,0.7-1.5,1.5c0,0.9,0.7,1.5,1.5,1.5c0.9,0,1.5-0.7,1.5-1.5
			C150.6,49.6,149.9,48.9,149.1,48.9L149.1,48.9z M149.1,51.2c-0.4,0-0.8-0.4-0.8-0.8c0-0.4,0.4-0.8,0.8-0.8c0.4,0,0.8,0.4,0.8,0.8
			C149.9,50.9,149.5,51.2,149.1,51.2L149.1,51.2z M149.1,51.2"/>
		<path class="st0" d="M158.3,50.4c0.1,0,0.1,0,0.2,0c0.9,0,1.5-0.7,1.5-1.5c0-0.9-0.7-1.5-1.5-1.5c-0.1,0-0.1,0-0.2,0
			c-0.4-0.5-1.1-0.8-1.8-0.8c-1.3,0-2.3,1-2.3,2.3c0,1.3,1,2.3,2.3,2.3C157.2,51.2,157.9,50.9,158.3,50.4L158.3,50.4z M157.9,49.7
			c-0.3,0.4-0.8,0.7-1.3,0.7c-0.9,0-1.6-0.7-1.6-1.6c0-0.9,0.7-1.6,1.6-1.6c0.5,0,1,0.3,1.3,0.7c0.1,0.1,0.3,0.2,0.4,0.1
			c0.1,0,0.2,0,0.2,0c0.4,0,0.8,0.4,0.8,0.8c0,0.4-0.4,0.8-0.8,0.8c-0.1,0-0.1,0-0.2,0C158.1,49.6,158,49.6,157.9,49.7L157.9,49.7z
			 M157.9,49.7"/>
		<path class="st0" d="M163.6,52c-0.9,0-1.5,0.7-1.5,1.5c0,0.9,0.7,1.5,1.5,1.5c0.9,0,1.5-0.7,1.5-1.5C165.2,52.7,164.5,52,163.6,52
			L163.6,52z M163.6,54.4c-0.4,0-0.8-0.4-0.8-0.8c0-0.4,0.4-0.8,0.8-0.8c0.4,0,0.8,0.4,0.8,0.8C164.4,54,164.1,54.4,163.6,54.4
			L163.6,54.4z M163.6,54.4"/>
		<path class="st0" d="M152.6,52.4c-0.6,0-1.2,0.5-1.2,1.2c0,0.6,0.5,1.2,1.2,1.2c0.6,0,1.2-0.5,1.2-1.2
			C153.8,52.9,153.3,52.4,152.6,52.4L152.6,52.4z M152.6,54c-0.2,0-0.4-0.2-0.4-0.4c0-0.2,0.2-0.4,0.4-0.4c0.2,0,0.4,0.2,0.4,0.4
			C153,53.8,152.9,54,152.6,54L152.6,54z M152.6,54"/>
		<path class="st0" d="M159.3,51.6c-0.6,0-1.2,0.5-1.2,1.2c0,0.6,0.5,1.2,1.2,1.2s1.2-0.5,1.2-1.2C160.5,52.1,159.9,51.6,159.3,51.6
			L159.3,51.6z M159.3,53.2c-0.2,0-0.4-0.2-0.4-0.4c0-0.2,0.2-0.4,0.4-0.4s0.4,0.2,0.4,0.4C159.7,53,159.5,53.2,159.3,53.2
			L159.3,53.2z M159.3,53.2"/>
		<path class="st0" d="M164,48.8c0-0.6-0.5-1.2-1.2-1.2c-0.6,0-1.2,0.5-1.2,1.2c0,0.6,0.5,1.2,1.2,1.2C163.5,50,164,49.5,164,48.8
			L164,48.8z M162.4,48.8c0-0.2,0.2-0.4,0.4-0.4s0.4,0.2,0.4,0.4c0,0.2-0.2,0.4-0.4,0.4S162.4,49.1,162.4,48.8L162.4,48.8z
			 M162.4,48.8"/>
		<path class="st0" d="M153,46.1c0-0.6-0.5-1.2-1.2-1.2c-0.6,0-1.2,0.5-1.2,1.2s0.5,1.2,1.2,1.2C152.5,47.2,153,46.7,153,46.1
			L153,46.1z M151.4,46.1c0-0.2,0.2-0.4,0.4-0.4c0.2,0,0.4,0.2,0.4,0.4s-0.2,0.4-0.4,0.4C151.6,46.5,151.4,46.3,151.4,46.1
			L151.4,46.1z M151.4,46.1"/>
		<path class="st0" d="M145.5,47.6c0.6,0,1.2-0.5,1.2-1.2s-0.5-1.2-1.2-1.2c-0.6,0-1.2,0.5-1.2,1.2S144.9,47.6,145.5,47.6
			L145.5,47.6z M145.5,46.1c0.2,0,0.4,0.2,0.4,0.4s-0.2,0.4-0.4,0.4c-0.2,0-0.4-0.2-0.4-0.4S145.3,46.1,145.5,46.1L145.5,46.1z
			 M145.5,46.1"/>
		<path class="st1" d="M166.8,46.5c0.2,0,0.4-0.2,0.4-0.4v-2.4c0-0.4-0.3-0.8-0.8-0.8h-20.8c-1.9,0-3.5,1.6-3.5,3.5v7.1
			c0,1.9,1.6,3.5,3.5,3.5h11c0.2,0,0.4-0.2,0.4-0.4c0-0.7,0.5-1.2,1.2-1.2c0.7,0,1.2,0.5,1.2,1.2c0,0.2,0.2,0.4,0.4,0.4h6.7
			c0.4,0,0.8-0.3,0.8-0.8v-7.9c0-0.2-0.2-0.4-0.4-0.4c-0.4,0-0.8-0.4-0.8-0.8S166.3,46.5,166.8,46.5L166.8,46.5z M166.4,48.8v7.5
			c0,0,0,0,0,0H160c-0.2-0.9-1-1.6-1.9-1.6c-0.9,0-1.7,0.7-1.9,1.6h-10.7c-1.5,0-2.8-1.2-2.8-2.8v-7.1c0-1.5,1.2-2.8,2.8-2.8h20.8
			c0,0,0,0,0,0v2c-0.7,0.2-1.2,0.8-1.2,1.5S165.7,48.6,166.4,48.8L166.4,48.8z M166.4,48.8"/>
		<path class="st0" d="M165.2,44.5h-0.8c-0.2,0-0.4,0.2-0.4,0.4c0,0.2,0.2,0.4,0.4,0.4h0.8c0.2,0,0.4-0.2,0.4-0.4
			C165.6,44.7,165.4,44.5,165.2,44.5L165.2,44.5z M165.2,44.5"/>
		<path class="st0" d="M157.3,45.3h5.5c0.2,0,0.4-0.2,0.4-0.4c0-0.2-0.2-0.4-0.4-0.4h-5.5c-0.2,0-0.4,0.2-0.4,0.4
			C157,45.1,157.1,45.3,157.3,45.3L157.3,45.3z M157.3,45.3"/>
		<path class="st0" d="M144,52c0.2,0,0.4-0.2,0.4-0.4v-0.8c0-0.2-0.2-0.4-0.4-0.4c-0.2,0-0.4,0.2-0.4,0.4v0.8
			C143.6,51.8,143.8,52,144,52L144,52z M144,52"/>
		<path class="st0" d="M148.3,54.8h-2.8c-0.7,0-1.2-0.5-1.2-1.2v-0.4c0-0.2-0.2-0.4-0.4-0.4c-0.2,0-0.4,0.2-0.4,0.4v0.4
			c0,1.1,0.9,1.9,1.9,1.9h2.8c0.2,0,0.4-0.2,0.4-0.4C148.7,54.9,148.5,54.8,148.3,54.8L148.3,54.8z M148.3,54.8"/>
	</g>
</g>
<g>
	<circle class="st0" cx="155" cy="167.2" r="16.9"/>
	<g>
		<g>
			<rect x="149.7" y="166.9" class="st1" width="10.7" height="5.6"/>
			<rect x="149.7" y="163.5" class="st1" width="10.7" height="2.4"/>
			<polygon class="st0" points="155,158.7 159.5,162.5 150.5,162.5 			"/>
			<rect x="149.7" y="173.5" class="st1" width="10.7" height="3.9"/>
		</g>
		<g>
			<path class="st1" d="M160.9,178.3c0.3,0,0.5-0.2,0.5-0.5V163c0-0.2-0.1-0.3-0.2-0.4l0,0l0,0l-5.6-4.7v-1.5c0-0.3-0.2-0.5-0.5-0.5
				c-0.3,0-0.5,0.2-0.5,0.5v1.5l-5.7,4.8h0c-0.1,0.1-0.2,0.2-0.2,0.4v14.8c0,0.3,0.2,0.5,0.5,0.5 M160.4,172.5h-10.7v-5.6h10.7
				V172.5z M149.7,165.9v-2.4h10.7v2.4H149.7z M155,158.7l4.5,3.8h-9L155,158.7z M149.7,177.4v-3.9h10.7v3.9H149.7z M149.7,177.4"/>
			<path class="st0" d="M150.6,171.3c0.3,0,0.5-0.2,0.5-0.5v-1l0.2,0.2c0.1,0.1,0.2,0.2,0.4,0.2c0.1,0,0.3-0.1,0.4-0.2l0.2-0.2v1
				c0,0.3,0.2,0.5,0.5,0.5s0.5-0.2,0.5-0.5v-2.3c0-0.2-0.1-0.4-0.3-0.5c-0.2-0.1-0.4,0-0.5,0.1l-0.7,0.8l-0.7-0.8
				c-0.1-0.2-0.4-0.2-0.5-0.1c-0.2,0.1-0.3,0.3-0.3,0.5v2.3C150.1,171.1,150.4,171.3,150.6,171.3L150.6,171.3z M150.6,171.3"/>
			<path class="st0" d="M154.1,171.3c0.3,0,0.5-0.2,0.5-0.5v-2.3c0-0.3-0.2-0.5-0.5-0.5s-0.5,0.2-0.5,0.5v2.3
				C153.6,171.1,153.9,171.3,154.1,171.3L154.1,171.3z M154.1,171.3"/>
			<path class="st0" d="M157.7,171.3c0.3,0,0.5-0.2,0.5-0.5v-0.5l0.8,0.9c0.1,0.1,0.2,0.2,0.4,0.2c0.1,0,0.2,0,0.3-0.1
				c0.2-0.2,0.2-0.5,0-0.7l-0.7-0.8l0.7-0.8c0.2-0.2,0.2-0.5,0-0.7c-0.2-0.2-0.5-0.2-0.7,0l-0.8,0.9v-0.5c0-0.3-0.2-0.5-0.5-0.5
				c-0.3,0-0.5,0.2-0.5,0.5v2.3C157.2,171.1,157.5,171.3,157.7,171.3L157.7,171.3z M157.7,171.3"/>
			<path class="st0" d="M155.6,171.3h0.9c0.3,0,0.5-0.2,0.5-0.5s-0.2-0.5-0.5-0.5h-0.4v-1.8c0-0.3-0.2-0.5-0.5-0.5
				c-0.3,0-0.5,0.2-0.5,0.5v2.3C155.1,171.1,155.3,171.3,155.6,171.3L155.6,171.3z M155.6,171.3"/>
		</g>
	</g>
</g>
<g>
	<circle class="st0" cx="209.4" cy="46.6" r="16.9"/>
	<g>
		<path class="st1" d="M221.6,42.8c0-3.8-3.1-6.9-6.9-6.9c-3.7,0-6.7,2.9-6.9,6.6c-1.3-1.6-3.3-2.7-5.4-2.7c-3.8,0-6.9,3.1-6.9,6.9
			s3.1,6.9,6.9,6.9c0.8,0,1.5-0.1,2.2-0.4c0.7,3.1,3.5,5.4,6.8,5.4c3.8,0,6.9-3.1,6.9-6.9c0-1-0.2-1.9-0.6-2.7
			C220,47.9,221.6,45.4,221.6,42.8L221.6,42.8z M217.2,48.2"/>
		<path class="st1" d="M202.3,52.7c-3.3,0-6-2.7-6-6c0-3.3,2.7-6,6-6c2.8,0,5.3,2,5.9,4.8c-2.4,1.2-3.9,3.6-3.9,6.2
			c0,0.2,0,0.4,0,0.6C203.7,52.6,203,52.7,202.3,52.7L202.3,52.7z M211.3,57.7c-3.3,0-6-2.7-6-6c0-3.3,2.7-6,5.9-6
			c0.1,0,0.2,0,0.2,0c0.1,0,0.1,0,0.2,0c2.1,0.2,3.9,1.4,4.9,3.2l0.2,0.4c0,0,0.6,1.5,0.6,2.4C217.3,55.1,214.6,57.7,211.3,57.7
			L211.3,57.7z M217.2,48.2c-1.1-1.9-3.2-3.2-5.5-3.3c-0.1,0-0.2,0-0.3,0c-0.1,0-0.1,0-0.2,0c0,0,0,0,0,0c0,0,0,0-0.1,0
			c-0.7,0-1.4,0.1-2,0.3c-0.3-0.7-0.5-1.5-0.5-2.4c0-3.3,2.7-6,6-6c3.3,0,6,2.7,6,6C220.6,45.1,219.3,47.2,217.2,48.2L217.2,48.2z
			 M217.2,48.2"/>
		<path class="st0" d="M212,48.5c-0.5-0.4-1.2-0.5-1.8-0.1l-1.3,0.9c-0.2,0.1-0.3,0.4-0.1,0.7c0.1,0.1,0.2,0.2,0.4,0.2
			c0.1,0,0.2,0,0.3-0.1l1.3-0.9c0.2-0.1,0.4-0.1,0.6,0l1,0.9c0.2,0.2,0.5,0.1,0.7-0.1c0.2-0.2,0.1-0.5-0.1-0.7L212,48.5z M212,48.5"
			/>
		<path class="st0" d="M210.7,47.6l0.2-0.8c0.1-0.3-0.1-0.5-0.3-0.6c-0.3-0.1-0.5,0.1-0.6,0.3l-0.2,0.8c0,0.1-0.2,0.2-0.4,0.2h-1.1
			c-0.3,0-0.5,0.2-0.5,0.5c0,0.3,0.2,0.5,0.5,0.5h1.1C210,48.5,210.6,48.1,210.7,47.6L210.7,47.6z M210.7,47.6"/>
		<path class="st0" d="M213.8,47.5l-1.4-0.1c-0.2,0-0.3-0.1-0.3-0.2l-0.1-0.7c0-0.3-0.2-0.5-0.5-0.4c-0.3,0-0.5,0.3-0.4,0.5l0.1,0.7
			c0,0.5,0.6,1,1.2,1l1.4,0.1c0,0,0,0,0,0c0.2,0,0.4-0.2,0.5-0.4C214.3,47.8,214.1,47.6,213.8,47.5L213.8,47.5z M213.8,47.5"/>
		<path class="st0" d="M203.1,43.5c-0.5-0.4-1.2-0.5-1.8-0.1l-1.3,0.9c-0.2,0.1-0.3,0.4-0.1,0.7c0.1,0.1,0.2,0.2,0.4,0.2
			c0.1,0,0.2,0,0.3-0.1l1.3-0.9c0.2-0.1,0.4-0.1,0.6,0l1,0.9c0.2,0.2,0.5,0.1,0.7-0.1c0.2-0.2,0.1-0.5-0.1-0.7L203.1,43.5z
			 M203.1,43.5"/>
		<path class="st0" d="M201.8,42.6l0.2-0.8c0.1-0.3-0.1-0.5-0.3-0.6c-0.3-0.1-0.5,0.1-0.6,0.3l-0.2,0.8c0,0.1-0.2,0.2-0.4,0.2h-1.1
			c-0.3,0-0.5,0.2-0.5,0.5c0,0.3,0.2,0.5,0.5,0.5h1.1C201.1,43.5,201.7,43.1,201.8,42.6L201.8,42.6z M201.8,42.6"/>
		<path class="st0" d="M203.4,43.4l1.4,0.1c0,0,0,0,0,0c0.2,0,0.5-0.2,0.5-0.4c0-0.3-0.2-0.5-0.4-0.5l-1.4-0.1
			c-0.2,0-0.3-0.1-0.3-0.2l-0.1-0.7c0-0.3-0.2-0.5-0.5-0.4c-0.3,0-0.5,0.3-0.4,0.5l0.1,0.7C202.3,42.9,202.8,43.3,203.4,43.4
			L203.4,43.4z M203.4,43.4"/>
		<path class="st0" d="M215.4,39.5c-0.5-0.4-1.2-0.5-1.8-0.1l-1.3,0.9c-0.2,0.2-0.3,0.4-0.1,0.7c0.1,0.1,0.2,0.2,0.4,0.2
			c0.1,0,0.2,0,0.3-0.1l1.3-0.9c0.2-0.1,0.4-0.1,0.6,0l1,0.9c0.2,0.2,0.5,0.1,0.7-0.1c0.2-0.2,0.1-0.5-0.1-0.7L215.4,39.5z
			 M215.4,39.5"/>
		<path class="st0" d="M214.1,38.6l0.2-0.8c0.1-0.3-0.1-0.5-0.3-0.6c-0.3-0.1-0.5,0.1-0.6,0.3l-0.2,0.8c0,0.1-0.2,0.2-0.4,0.2h-1.1
			c-0.3,0-0.5,0.2-0.5,0.5c0,0.3,0.2,0.5,0.5,0.5h1.1C213.4,39.5,214,39.1,214.1,38.6L214.1,38.6z M214.1,38.6"/>
		<path class="st0" d="M217.2,38.5l-1.4-0.1c-0.2,0-0.3-0.1-0.3-0.2l-0.1-0.7c0-0.3-0.2-0.5-0.5-0.4c-0.3,0-0.5,0.3-0.4,0.5l0.1,0.7
			c0,0.5,0.6,1,1.2,1l1.4,0.1c0,0,0,0,0,0c0.2,0,0.4-0.2,0.5-0.4C217.7,38.8,217.5,38.6,217.2,38.5L217.2,38.5z M217.2,38.5"/>
	</g>
</g>
<g>
	<circle class="st0" cx="254.4" cy="84" r="16.9"/>
	<g>
		<g>
			<path class="st1" d="M259.2,81.1v-1.3c0-1.1-0.5-2.1-1.4-2.8c-0.6-0.5-0.9-1.3-0.8-1.9v0h0.3c0.2,0,0.4-0.2,0.4-0.4v-1.8
				c0-0.2-0.2-0.4-0.4-0.4h-5.9c-0.2,0-0.4,0.2-0.4,0.4v1.8c0,0.2,0.2,0.4,0.4,0.4h0.3c0,0.8-0.4,1.6-1.1,2.2c0,0,0,0,0,0
				c-0.8,0.7-1.2,1.6-1.1,2.6v1.3c0,0.1,0,0.2,0.1,0.3l0.8,0.8v6.1l-0.8,0.8c-0.1,0.1-0.1,0.2-0.1,0.3v6.4c0,0.2,0.2,0.4,0.4,0.4
				h8.8c0.2,0,0.4-0.2,0.4-0.4v-6.4c0-0.1,0-0.2-0.1-0.3l-0.9-0.8v-6.1l0.9-0.8C259.2,81.3,259.2,81.2,259.2,81.1L259.2,81.1z
				 M251.9,73.2h5.1v1h-5.1V73.2z M258.4,80.9"/>
			<path d="M252.3,93.9"/>
		</g>
		<g>
			<path d="M252.3,93.9"/>
			<path class="st1" d="M259.2,81.1v-1.3c0-1.1-0.5-2.1-1.4-2.8c-0.6-0.5-0.9-1.3-0.8-1.9v0h0.3c0.2,0,0.4-0.2,0.4-0.4v-1.8
				c0-0.2-0.2-0.4-0.4-0.4h-5.9c-0.2,0-0.4,0.2-0.4,0.4v1.8c0,0.2,0.2,0.4,0.4,0.4h0.3c0,0.8-0.4,1.6-1.1,2.2c0,0,0,0,0,0
				c-0.8,0.7-1.2,1.6-1.1,2.6v1.3c0,0.1,0,0.2,0.1,0.3l0.8,0.8v6.1l-0.8,0.8c-0.1,0.1-0.1,0.2-0.1,0.3v6.4c0,0.2,0.2,0.4,0.4,0.4
				h8.8c0.2,0,0.4-0.2,0.4-0.4v-6.4c0-0.1,0-0.2-0.1-0.3l-0.9-0.8v-6.1l0.9-0.8C259.2,81.3,259.2,81.2,259.2,81.1L259.2,81.1z
				 M251.9,73.2h5.1v1h-5.1V73.2z M258.4,80.9l-0.9,0.8c-0.1,0.1-0.1,0.2-0.1,0.3v6.4c0,0.1,0,0.2,0.1,0.3l0.9,0.8v5.8h-8v-5.8
				l0.8-0.8c0.1-0.1,0.1-0.2,0.1-0.3v-6.5c0-0.1-0.1-0.2-0.1-0.3l-0.8-0.8v-1.2c-0.1-0.7,0.2-1.4,0.8-1.9c0.9-0.8,1.4-1.8,1.4-2.8
				h3.6c-0.1,0.9,0.3,1.9,1.1,2.6c0,0,0,0,0,0c0.7,0.5,1.1,1.3,1.1,2.2V80.9z M258.4,80.9"/>
		</g>
		<path d="M251.9,92.9"/>
		<rect x="250.5" y="82.1" class="st1" width="7.7" height="6.1"/>
		<rect x="251.6" y="72.9" class="st0" width="5.6" height="1.4"/>
	</g>
</g>
<g>
	<circle class="st0" cx="209.4" cy="174.6" r="16.9"/>
</g>
<g>
	<circle class="st0" cx="254.4" cy="139.5" r="16.9"/>
</g>
<g>
	<path class="st1" d="M219.1,171c0.2-0.2,0.1-0.6-0.2-0.8c-0.7-0.3-0.4-1.3-1-1.3c-0.7,0.1-1.1-0.4-1.1-1.1c0.1-0.7-0.4-1.1-1.1-1.1
		c-0.7,0.1,0-1-1.1-1.1c0,0-0.7-0.3-0.8,0.4l0,2.8h-4.3c-4.2,0-7.6,3.4-7.6,7.6v6.5h6.5c4.3,0,7.7-3.4,7.7-7.7v-4.3l2.8,0
		C218.9,171.1,219,171,219.1,171L219.1,171z M219.1,171"/>
	<path class="st0" d="M210.2,180.9h-0.8c0-3-2.4-5.4-5.4-5.4v-0.8C207.5,174.8,210.2,177.5,210.2,180.9L210.2,180.9z M210.2,180.9"
		/>
	<path class="st0" d="M211.5,179.7h-0.8c0-3-2.4-5.4-5.4-5.4v-0.8C208.7,173.5,211.5,176.3,211.5,179.7L211.5,179.7z M211.5,179.7"
		/>
	<path class="st0" d="M212.7,178.5h-0.8c0-3-2.4-5.4-5.4-5.4v-0.8C209.9,172.3,212.7,175.1,212.7,178.5L212.7,178.5z M212.7,178.5"
		/>
	<path class="st0" d="M213.9,177.2h-0.8c0-3-2.4-5.4-5.4-5.4v-0.8C211.2,171.1,213.9,173.8,213.9,177.2L213.9,177.2z M213.9,177.2"
		/>
	<path class="st1" d="M207.5,169.2c-0.2-0.8-0.5-1.6-1.1-2.4c0,0-3.1,1.6-1.9,4C205.4,170,206.4,169.5,207.5,169.2L207.5,169.2z
		 M207.5,169.2"/>
	<path class="st1" d="M215.9,176.8c-0.2,1.2-0.8,2.4-1.5,3.3c1.1,0.1,2.7,0,4.3-1.1C218.7,178.9,217.6,176.8,215.9,176.8
		L215.9,176.8z M215.9,176.8"/>
	<path class="st0" d="M204.9,178.4c0,0.4-0.3,0.8-0.8,0.8c-0.4,0-0.8-0.3-0.8-0.8c0-0.4,0.3-0.8,0.8-0.8
		C204.5,177.6,204.9,178,204.9,178.4L204.9,178.4z M204.9,178.4"/>
</g>
<g>
	<path class="st1" d="M255.4,149.2h-0.4c-0.4,0-0.7-0.3-0.7-0.7v-2.9h1.8v2.9C256.2,148.8,255.8,149.2,255.4,149.2L255.4,149.2z
		 M255.4,149.2"/>
	<g>
		<path class="st1" d="M255.4,149.5h-0.4c-0.6,0-1.1-0.5-1.1-1.1v-3.2h2.5v3.2C256.5,149,256,149.5,255.4,149.5L255.4,149.5z
			 M254.7,146v2.5c0,0.2,0.2,0.4,0.4,0.4h0.4c0.2,0,0.4-0.2,0.4-0.4V146H254.7z M254.7,146"/>
		<path class="st1" d="M260.2,133.9c0-2.6-2.1-4.7-4.7-4.7h-0.4c-2.6,0-4.7,2.1-4.7,4.7v10.3c0,0.8,0.6,1.4,1.4,1.4h7
			c0.8,0,1.4-0.6,1.4-1.4V133.9z M260.2,133.9"/>
	</g>
	<path class="st0" d="M257.3,139.3c-0.7,0-1.3-0.6-1.3-1.3v-1.8c0-0.2,0.2-0.4,0.4-0.4s0.4,0.2,0.4,0.4v1.8c0,0.3,0.3,0.6,0.6,0.6
		c0.3,0,0.6-0.3,0.6-0.6v-1.8c0-0.2,0.2-0.4,0.4-0.4c0.2,0,0.4,0.2,0.4,0.4v1.8C258.7,138.7,258.1,139.3,257.3,139.3L257.3,139.3z
		 M257.3,139.3"/>
	<path class="st0" d="M253.9,143.5c-0.7,0-1.3-0.6-1.3-1.3v-1c0-0.2,0.2-0.4,0.4-0.4c0.2,0,0.4,0.2,0.4,0.4v1c0,0.3,0.3,0.6,0.6,0.6
		c0.3,0,0.6-0.3,0.6-0.6v-1c0-0.2,0.2-0.4,0.4-0.4c0.2,0,0.4,0.2,0.4,0.4v1C255.3,142.9,254.7,143.5,253.9,143.5L253.9,143.5z
		 M253.9,143.5"/>
	<path class="st0" d="M253.8,135.4c-0.7,0-1.3-0.6-1.3-1.3v-1c0-0.2,0.2-0.4,0.4-0.4c0.2,0,0.4,0.2,0.4,0.4v1c0,0.3,0.3,0.6,0.6,0.6
		c0.3,0,0.6-0.3,0.6-0.6v-1c0-0.2,0.2-0.4,0.4-0.4c0.2,0,0.4,0.2,0.4,0.4v1C255.1,134.8,254.5,135.4,253.8,135.4L253.8,135.4z
		 M253.8,135.4"/>
</g>
</svg>
