<?xml version="1.0" encoding="utf-8"?>
<!-- Generator: Adobe Illustrator 19.1.0, SVG Export Plug-In . SVG Version: 6.00 Build 0)  -->
<svg version="1.1" id="Layer_1" xmlns="http://www.w3.org/2000/svg" xmlns:xlink="http://www.w3.org/1999/xlink" x="0px" y="0px"
	 viewBox="0 0 410.7 170.4" style="enable-background:new 0 0 410.7 170.4;" xml:space="preserve">
<style type="text/css">
	.st0{fill-rule:evenodd;clip-rule:evenodd;fill:#10A6E0;}
	.st1{fill-rule:evenodd;clip-rule:evenodd;fill:#484848;}
	.st2{opacity:0.4;fill-rule:evenodd;clip-rule:evenodd;fill:url(#SVGID_1_);}
	.st3{opacity:0.4;fill-rule:evenodd;clip-rule:evenodd;fill:url(#SVGID_2_);}
	.st4{fill-rule:evenodd;clip-rule:evenodd;fill:#FFFFFF;}
	.st5{fill:#10A6E0;}
	.st6{fill:#FFFFFF;}
	.st7{fill:#EDEDED;}
	.st8{fill:#A8C638;}
	.st9{fill:none;}
	.st10{fill:#CECECE;}
	.st11{fill:#484848;}
</style>
<rect x="131.5" y="42" class="st0" width="147.5" height="103.1"/>
<g>
	
		<rect x="117.6" y="138.7" transform="matrix(-0.753 0.658 -0.658 -0.753 314.1528 177.9615)" class="st1" width="12.2" height="18.4"/>
	<polygon class="st1" points="105.2,142.5 121.9,128.2 122.2,137 113,145 	"/>
</g>
<linearGradient id="SVGID_1_" gradientUnits="userSpaceOnUse" x1="53.0532" y1="41.7731" x2="124.8726" y2="128.5253">
	<stop  offset="0" style="stop-color:#FFFFFF;stop-opacity:0"/>
	<stop  offset="1" style="stop-color:#FFFFFF"/>
</linearGradient>
<polyline class="st2" points="105.2,0 121,127.8 104.3,142 0,82.5 "/>
<g>
	
		<rect x="280.9" y="138.7" transform="matrix(0.753 0.658 -0.658 0.753 168.2411 -152.3203)" class="st1" width="12.2" height="18.4"/>
	<polygon class="st1" points="305.5,142.5 288.8,128.2 288.5,137 297.7,145 	"/>
</g>
<linearGradient id="SVGID_2_" gradientUnits="userSpaceOnUse" x1="361.2766" y1="37.0208" x2="292.3015" y2="128.0395">
	<stop  offset="0" style="stop-color:#FFFFFF;stop-opacity:0"/>
	<stop  offset="0.5877" style="stop-color:#FFFFFF;stop-opacity:0.5877"/>
	<stop  offset="1" style="stop-color:#FFFFFF"/>
</linearGradient>
<polyline class="st3" points="305.5,0 289.7,127.8 306.4,142 410.7,82.5 "/>
<rect x="169.1" y="4.6" class="st4" width="74.2" height="26.3"/>
<g>
	<path class="st5" d="M187,21.2c0,0.3,0,0.5,0,0.6c0,0.1,0.1,0.4,0.3,0.6c0.2,0.3,0.6,0.4,1.1,0.4c0.3,0,0.6-0.1,0.8-0.2
		c0.3-0.1,0.4-0.3,0.6-0.5c0.1-0.2,0.2-0.4,0.2-0.6c0-0.2,0-0.4,0-0.4v-1c0-0.3,0-0.5,0-0.7c0-0.1-0.1-0.3-0.3-0.5
		c-0.2-0.2-0.4-0.3-0.7-0.5s-0.8-0.3-1.5-0.6c-0.7-0.3-1.3-0.7-1.8-1.3c-0.5-0.6-0.7-1.3-0.7-2.3v-0.7c0-1,0.3-1.9,1-2.6
		c0.7-0.7,1.5-1.1,2.5-1.1c1,0,1.9,0.4,2.6,1.1c0.7,0.7,1,1.6,1,2.6v0.7h-2.1v-0.7c0-0.2,0-0.4,0-0.5c0-0.1-0.1-0.4-0.4-0.6
		c-0.2-0.3-0.6-0.4-1-0.4c-0.4,0-0.8,0.2-1.1,0.5c-0.3,0.3-0.4,0.7-0.4,1.1v0.7c0,0.3,0,0.5,0,0.6s0.1,0.3,0.2,0.4
		c0.1,0.2,0.3,0.3,0.6,0.4c0.3,0.1,0.7,0.3,1.5,0.6s1.3,0.7,1.9,1.3s0.8,1.4,0.8,2.4v1.2c0,0.5,0,0.9-0.1,1.3
		c-0.1,0.4-0.4,0.9-0.9,1.5c-0.5,0.7-1.4,1-2.6,1c-1.3,0-2.2-0.4-2.8-1.3c-0.6-0.8-0.9-1.7-0.9-2.6v-0.5h2.1V21.2z"/>
	<path class="st5" d="M195.8,24.9V12h-2.5v-2h7.1v2h-2.5v12.9H195.8z"/>
	<path class="st5" d="M202.4,11.5c0.3-0.5,0.8-0.8,1.3-1.1s1.1-0.4,1.6-0.4c0.5,0,1.1,0.1,1.5,0.3s0.9,0.5,1.2,0.9
		c0.3,0.4,0.5,0.8,0.7,1.2s0.2,0.8,0.2,1.3v7.5c0,0.4,0,0.8-0.1,1.2c-0.1,0.3-0.3,0.7-0.5,1.1c-0.3,0.4-0.7,0.8-1.2,1.1
		c-0.5,0.3-1.1,0.4-1.7,0.4c-0.7,0-1.3-0.2-1.9-0.5c-0.6-0.4-1-0.8-1.2-1.2c-0.2-0.5-0.4-0.8-0.4-1.1c0-0.3-0.1-0.6-0.1-1v-7.5
		c0-0.4,0-0.8,0.1-1.2C202,12.2,202.1,11.8,202.4,11.5z M206.5,12.6c-0.3-0.4-0.7-0.6-1.2-0.6c-0.3,0-0.5,0.1-0.7,0.2
		s-0.4,0.3-0.5,0.5c-0.1,0.2-0.2,0.3-0.2,0.5c0,0.2,0,0.3,0,0.4v7.5c0,0.1,0,0.3,0,0.5c0,0.2,0.1,0.4,0.4,0.7
		c0.2,0.3,0.6,0.5,1.1,0.5c0.3,0,0.5-0.1,0.7-0.2c0.2-0.1,0.4-0.3,0.5-0.4c0.1-0.2,0.2-0.3,0.2-0.5s0-0.3,0-0.6v-7.5
		c0-0.3,0-0.5,0-0.6C206.7,13,206.6,12.8,206.5,12.6z"/>
	<path class="st5" d="M211,24.9V10.1h3.7c1,0,1.8,0.3,2.5,1c0.7,0.7,1,1.5,1,2.5v1.4c0,1.4-0.6,2.4-1.7,3.1l2.2,6.8h-2.2l-2-6.4
		h-1.3v6.4H211z M215.7,16.2c0.1-0.2,0.2-0.3,0.3-0.6c0.1-0.2,0.1-0.4,0.1-0.7v-1.4c0-0.5-0.1-0.8-0.4-1.1c-0.3-0.3-0.6-0.4-1.1-0.4
		h-1.5v4.6h1.5C215,16.7,215.4,16.5,215.7,16.2z"/>
	<path class="st5" d="M226.5,22.8v2.1h-6.3V10.1h6.3v2h-4.2v4.4h3.7v2h-3.7v4.4H226.5z"/>
</g>
<rect x="175.6" y="31.5" class="st4" width="4.3" height="7.6"/>
<rect x="232.5" y="31.4" class="st4" width="4.3" height="7.7"/>
<path class="st6" d="M284.7,141.5V46.1c0-4.8-3.9-8.7-8.7-8.7h-70.7h-70.8c-4.8,0-8.7,3.9-8.7,8.7v95.4l-18.4,18.6
	c0,3.6,2.9,10.3,11.1,10.3h86.8h87c8.2,0,10.9-6.6,10.9-10.3L284.7,141.5z M205.2,154H187l2.3-6.4h15.9h15.9l2.3,6.4H205.2z
	 M276,141.5H134.5V46.1H276V141.5z"/>
<g>
	<polygon class="st7" points="161.9,76.1 164.1,81.3 168.6,84.3 171.9,85.1 174.8,83.1 176.7,82 178.9,79.1 179.2,76.4 178.6,75.8 	
		"/>
	<g>
		<g>
			<g>
				<path class="st8" d="M193.8,79.5l-6.3-3.1c-1.6-0.8-4-1.6-5-1.6l-3.1,0c-0.4,0-0.8,0.4-0.8,0.8c0,4.3-3.5,7.8-7.8,7.8
					c-4,0-7.4-3.1-7.8-7l17.8-0.2c0.4,0,0.8-0.4,0.8-0.8c0-0.4-0.4-0.8-0.8-0.8L159,74.9c-1,0-3.5,0.9-5,1.7l-6.2,3.1
					c-0.3,0.2-0.5,0.5-0.4,0.9l3.2,12.5c0.1,0.4,0.5,0.6,0.9,0.6l3.8-0.6l0.1,23.3c0,2.2,1.8,3.9,3.9,3.9l23.4-0.1
					c2.2,0,3.9-1.8,3.9-3.9l-0.1-23.3l3.8,0.6c0.4,0.1,0.8-0.2,0.9-0.6l3.1-12.5C194.3,80.1,194.1,79.7,193.8,79.5L193.8,79.5z
					 M189.8,91.9"/>
			</g>
		</g>
	</g>
</g>
<rect x="159.9" y="71.4" class="st9" width="26" height="50.7"/>
<g>
	<polygon class="st10" points="252.2,76.1 249.9,81.3 245.5,84.3 242.1,85.1 239.2,83.1 237.3,82 235.2,79.1 234.8,76.4 235.5,75.8 
			"/>
	<g>
		<g>
			<path class="st6" d="M220.3,79.5c-0.3,0.2-0.5,0.5-0.4,0.9l3.1,12.5c0.1,0.4,0.5,0.6,0.9,0.6l3.8-0.6l-0.1,23.3
				c0,2.2,1.7,3.9,3.9,3.9l23.4,0.1c2.2,0,3.9-1.7,3.9-3.9l0.1-23.3l3.8,0.6c0.4,0.1,0.8-0.2,0.9-0.6l3.2-12.5
				c0.1-0.4-0.1-0.7-0.4-0.9l-6.2-3.1c-1.5-0.8-4-1.7-5-1.7l-21.7-0.2c-0.4,0-0.8,0.3-0.8,0.8c0,0.4,0.3,0.8,0.8,0.8l17.8,0.2
				c-0.4,3.9-3.8,7-7.8,7c-4.3,0-7.8-3.5-7.8-7.8c0-0.4-0.3-0.8-0.8-0.8l-3.1,0c-1,0-3.5,0.9-5,1.6L220.3,79.5L220.3,79.5z
				 M224.3,91.9"/>
		</g>
	</g>
</g>
<rect x="250.5" y="71.4" class="st9" width="26" height="50.7"/>
<g>
	<polygon class="st7" points="194.6,69.3 197.6,76.1 203.5,80.2 208.1,81.2 211.9,78.6 214.4,77.1 217.3,73.3 217.7,69.7 
		216.9,68.9 	"/>
	<g>
		<g>
			<path class="st11" d="M237.2,73.8l-8.3-4.1c-2.1-1-5.4-2.2-6.7-2.2l-4.2,0c-0.6,0-1,0.5-1,1c0,5.7-4.6,10.4-10.4,10.5
				c-5.4,0-9.9-4.1-10.4-9.3l23.7-0.2c0.6,0,1-0.5,1-1c0-0.6-0.5-1-1-1l-29,0.2c-1.3,0-4.6,1.2-6.7,2.2l-8.3,4.2
				c-0.4,0.2-0.7,0.7-0.5,1.2l4.2,16.6c0.1,0.5,0.6,0.9,1.2,0.8l5-0.9l0.1,31.1c0,2.9,2.4,5.2,5.2,5.2l31.2-0.1
				c2.9,0,5.2-2.4,5.2-5.2l-0.1-31.1l5,0.8c0.5,0.1,1-0.3,1.2-0.8l4.1-16.7C237.8,74.5,237.6,74,237.2,73.8L237.2,73.8z M231.8,90.2
				"/>
		</g>
	</g>
</g>
</svg>
