<?xml version="1.0" encoding="utf-8"?>
<!-- Generator: Adobe Illustrator 19.1.0, SVG Export Plug-In . SVG Version: 6.00 Build 0)  -->
<svg version="1.1" id="Layer_1" xmlns="http://www.w3.org/2000/svg" xmlns:xlink="http://www.w3.org/1999/xlink" x="0px" y="0px"
	 viewBox="0 0 220.4 202" style="enable-background:new 0 0 220.4 202;" xml:space="preserve">
<style type="text/css">
	.st0{fill:#F5F6F6;stroke:#191919;stroke-width:0.5;stroke-miterlimit:10;}
	.st1{fill:#F5F6F6;}
	.st2{fill:#484848;}
	.st3{fill-rule:evenodd;clip-rule:evenodd;fill:#10A6E0;}
	.st4{fill:#10A6E0;}
	.st5{fill:#FFFFFF;}
	.st6{fill:#65C8CD;}
	.st7{fill:#F6A5B5;}
	.st8{fill:#FCBD1E;}
	.st9{fill:#FCFCFC;}
	.st10{fill:#111111;}
	.st11{fill-rule:evenodd;clip-rule:evenodd;fill:#F5F6F6;stroke:#191919;stroke-width:0.5;stroke-miterlimit:10;}
	.st12{fill:#D22027;stroke:#D22027;stroke-width:0.75;stroke-miterlimit:10;}
	.st13{fill:#ED7161;}
	.st14{fill:#434B60;}
</style>
<g>
	<g id="XMLID_953_">
		<g>
			<g>
				<path class="st0" d="M121.2,77.2c0.2,4.7-1,14.6-6.5,14.6c0.2-1.4,0.2-2.2,0.2-2.2s0.1-6,0.2-12.4h0
					C115.2,77.2,121,72.5,121.2,77.2z"/>
			</g>
			<g>
				<path class="st1" d="M103.8,108.4c-2,0.9-4.3,1.4-7.1,1.4c-2.7,0-5.1-0.5-7.1-1.4l6.3,1.2L103.8,108.4z"/>
			</g>
			<g>
				<path class="st0" d="M88.7,107.4c2,0.9,5.3,2.4,8.1,2.4c2.7,0,6.3-1,8.3-1.9l1.2,5l3,11.8l-12.5,7.5l-11-6.8l1.8-11.8
					L88.7,107.4z"/>
			</g>
			<g>
				<path class="st0" d="M78.5,89.6c0,0,0,0.9,0.2,2.2c-5.4,0-6.7-10-6.5-14.6c0.2-4.7,6.1,0,6.1,0h0C78.4,83.6,78.5,89.6,78.5,89.6
					z"/>
			</g>
			<g>
				<path class="st0" d="M115,64.5c0.2,2.7,0.2,7.8,0.2,12.7c0,6.4-0.2,12.4-0.2,12.4s0,0.9-0.2,2.2c-0.5,3.4-2,10-7,14.2
					c-1.1,1-2.5,1.8-4,2.4c0,0-2.4,1.2-7.8,1.2c-2.9,0-6.3-1.2-6.3-1.2c-1.5-0.6-2.8-1.4-4-2.4c-4.9-4.2-6.5-10.8-7-14.2
					c-0.2-1.4-0.2-2.2-0.2-2.2s-0.1-6-0.2-12.4c0-4.9,0-9.9,0.2-12.7c0.1-1.7,0.3-3.7,1-5.7c0,0,6.3,9.1,16.7,12l-1.8-5.1
					c0.5,0.2,9,3.5,20-5.2C114.8,61.9,114.9,63.3,115,64.5z"/>
			</g>
			<g>
				<path class="st2" d="M94.4,65.7l1.8,5.1c-10.4-2.9-16.7-12-16.7-12c1.6-4.6,5.8-8.9,17.2-8.9c12.8,0,16.5,5.4,17.7,10.5
					C103.4,69.2,94.9,65.9,94.4,65.7z"/>
			</g>
		</g>
	</g>
	<g>
		<g>
			<path class="st3" d="M88.5,109.8l-31.9,9.5v24.6l81-0.3v-24.9l-32-9l0,0c0,0-0.5,7.5-8.7,7.5C88.4,117.1,88.5,109.8,88.5,109.8
				L88.5,109.8z"/>
		</g>
	</g>
</g>
<circle class="st2" cx="27.6" cy="137.5" r="20.1"/>
<circle class="st4" cx="190.2" cy="101.9" r="30.2"/>
<circle class="st2" cx="136.9" cy="171.1" r="23.1"/>
<circle class="st4" cx="30.6" cy="55.6" r="30.6"/>
<g>
	<g>
		<g>
			<path class="st5" d="M47.9,36.7l-6.2-1.6c-1.5-0.4-3.9-0.7-4.8-0.5l-2.8,0.6c-0.4,0.1-0.6,0.5-0.5,0.9c0.9,3.8-1.6,7.7-5.4,8.5
				c-3.6,0.8-7.2-1.3-8.3-4.7l15.9-3.6c0.4-0.1,0.6-0.5,0.5-0.9c-0.1-0.4-0.5-0.6-0.9-0.5L16,39.4c-0.9,0.2-2.9,1.5-4.2,2.5l-5,4
				c-0.3,0.2-0.3,0.6-0.2,0.9l5.3,10.5c0.2,0.3,0.6,0.5,0.9,0.3l3.2-1.3l4.6,20.8c0.4,1.9,2.3,3.1,4.3,2.7l20.9-4.6
				c1.9-0.4,3.1-2.3,2.7-4.3l-4.6-20.8l3.5-0.2c0.4,0,0.7-0.3,0.7-0.7l0.3-11.8C48.4,37.1,48.2,36.8,47.9,36.7L47.9,36.7z
				 M46.7,48.5"/>
		</g>
	</g>
	<polygon class="st4" points="18.7,39.9 21.7,44.3 26.3,46.4 29.5,46.4 31.7,43.8 33.1,42.3 34.5,39.3 34.3,36.8 33.6,36.4 	"/>
</g>
<circle class="st4" cx="94.9" cy="14.9" r="14.9"/>
<g>
	<path class="st6" d="M139.5,175.7c0,0,0,0.1,0,0.1C139.5,175.8,139.5,175.8,139.5,175.7L139.5,175.7z M139.5,175.7"/>
	<path class="st6" d="M139.6,176.2c0,0,0-0.1-0.1-0.1C139.6,176.1,139.6,176.1,139.6,176.2L139.6,176.2z M139.6,176.2"/>
	<path class="st6" d="M139.8,176.5c0-0.1,0-0.1-0.1-0.2C139.7,176.4,139.8,176.4,139.8,176.5L139.8,176.5z M139.8,176.5"/>
	<path class="st6" d="M124.5,168c-0.1,0.3-0.2,0.6-0.3,0.8C124.3,168.5,124.4,168.3,124.5,168L124.5,168z M124.5,168"/>
	<path class="st7" d="M139.6,161.6c0-0.1-0.1-0.1-0.1-0.2C139.5,161.5,139.5,161.6,139.6,161.6L139.6,161.6z M139.6,161.6"/>
	<path class="st7" d="M139.4,161.4c0-0.1-0.1-0.2-0.1-0.2C139.3,161.2,139.4,161.3,139.4,161.4L139.4,161.4z M139.4,161.4"/>
	<path class="st7" d="M144.4,165.2C144.4,165.2,144.4,165.2,144.4,165.2C144.4,165.2,144.4,165.2,144.4,165.2L144.4,165.2z
		 M144.4,165.2"/>
	<path class="st7" d="M139.7,161.9c0,0,0-0.1-0.1-0.1C139.7,161.8,139.7,161.9,139.7,161.9L139.7,161.9z M139.7,161.9"/>
	<path class="st8" d="M146.5,169.7c0,0,0,0.1,0,0.1C146.5,169.8,146.5,169.7,146.5,169.7L146.5,169.7z M146.5,169.7"/>
	<path class="st8" d="M146.5,170.1c0,0.1,0,0.1,0,0.2C146.5,170.2,146.5,170.2,146.5,170.1L146.5,170.1z M146.5,170.1"/>
	<path class="st8" d="M146.3,169.2c0,0,0,0.1,0,0.1C146.4,169.3,146.3,169.2,146.3,169.2L146.3,169.2z M146.3,169.2"/>
	<path class="st8" d="M146.2,168.8c0,0,0,0.1,0,0.1C146.3,168.9,146.2,168.8,146.2,168.8L146.2,168.8z M146.2,168.8"/>
	<path class="st8" d="M146.6,170.5c0,0.1,0,0.1,0,0.2C146.6,170.7,146.6,170.6,146.6,170.5L146.6,170.5z M146.6,170.5"/>
	<path class="st8" d="M146.7,171.4c0,0.1,0,0.1,0,0.2C146.7,171.6,146.7,171.5,146.7,171.4L146.7,171.4z M146.7,171.4"/>
	<path class="st8" d="M146.6,171c0,0.1,0,0.1,0,0.2C146.7,171.1,146.7,171,146.6,171L146.6,171z M146.6,171"/>
	<path class="st8" d="M146.2,168.5c0-0.1,0-0.1,0-0.2C146.1,168.4,146.1,168.5,146.2,168.5L146.2,168.5z M146.2,168.5"/>
	<path class="st8" d="M145.4,166.6c0,0,0,0.1,0.1,0.1C145.5,166.7,145.4,166.7,145.4,166.6L145.4,166.6z M145.4,166.6"/>
	<path class="st8" d="M145.3,166.3C145.3,166.4,145.3,166.4,145.3,166.3C145.3,166.4,145.3,166.4,145.3,166.3L145.3,166.3z
		 M145.3,166.3"/>
	<path class="st8" d="M146,168c0,0.1,0,0.1,0.1,0.2C146,168.1,146,168.1,146,168L146,168z M146,168"/>
	<path class="st8" d="M145.9,167.6c0,0,0,0.1,0.1,0.2C145.9,167.7,145.9,167.7,145.9,167.6L145.9,167.6z M145.9,167.6"/>
	<path class="st8" d="M145.6,167c0,0,0,0.1,0.1,0.1C145.6,167.1,145.6,167,145.6,167L145.6,167z M145.6,167"/>
	<path class="st5" d="M138.9,174.9l8,0.4l0.3-1.9l-0.6-5.3l-1.9-3.6l-3.7-3.1l-2-0.7l-0.5,0.3c0,0,1.8,4,1.8,7.3
		S138.9,174.9,138.9,174.9z"/>
	<path class="st5" d="M123.6,168.9c0,0,2.5-5.8,5.8-7.4c3.3-1.6,6.4-1.7,6.4-1.7l2.3,0.6c0,0,2.7,3.1,2.2,7.8s-1.8,6.5-1.8,6.5
		s-6.7-1.5-7.9-2.2C129.4,172,124,169.5,123.6,168.9z"/>
	<path class="st5" d="M138.9,175.4c0,0,1.9,4.6,4.3,6c2.4,1.5,8.8,0.2,8.8,0.2l-0.3-0.8l-4.5-5.2l-4.4-0.2L138.9,175.4z"/>
	<polygon class="st9" points="124.3,167.1 126.7,168.4 127.4,165.3 125.7,164.8 	"/>
	<polygon class="st4" points="136.4,159.6 137.1,158.5 138.4,158.8 139.1,159.9 138.7,160.2 	"/>
	<g>
		<path class="st10" d="M145.7,167.3c0,0,0,0.1,0.1,0.1C145.8,167.4,145.7,167.3,145.7,167.3L145.7,167.3z M145.7,167.3"/>
		<path class="st5" d="M152.7,181.6c0-0.2,0-0.3-0.1-0.5l-4.9-5.8l0,0c1-9.1-3.8-13.1-6.8-14.6c-0.5-0.2-0.9-0.4-1.3-0.6
			c0.1-0.8-0.3-1.6-1-2c-0.2-0.1-0.4-0.2-0.6-0.2c-0.5-0.1-1,0-1.4,0.3c-0.4,0.3-0.7,0.7-0.8,1.1c-4.9-0.3-8,2-9.8,4.2
			c-2.2,2.6-3,5.5-3.1,5.6c-0.1,0.2,0,0.5,0.3,0.6l0,0c6.1,3.2,11.2,4.8,14.9,5.5c0.3,1.1,1.8,5.1,5.3,6.9l0,0
			c2.5,1.3,5.6,1.3,9-0.2C152.6,181.9,152.7,181.7,152.7,181.6L152.7,181.6z M145.1,166c1,1.7,1.6,3.8,1.7,6.5
			c-0.6-0.1-1.8-0.5-2.3-3C144.1,167.4,144.7,166.4,145.1,166L145.1,166z M136.9,159.4c0.1-0.1,0.2-0.3,0.3-0.3
			c0.2-0.1,0.4-0.2,0.6-0.1c0.1,0,0.2,0,0.3,0.1c0.3,0.1,0.4,0.4,0.5,0.7l-0.3,0 M124.1,169c0.1-0.3,0.2-0.7,0.5-1.2l1.9,1
			c0.1,0.1,0.3,0.1,0.5,0c0.1-0.1,0.3-0.2,0.3-0.3l0.8-2.8c0.1-0.2,0-0.5-0.3-0.6l-1.1-0.6c0.1-0.1,0.1-0.2,0.2-0.3
			c2.5-2.9,5.8-4.2,9.8-3.7l1,0.2c0.3,0.4,1.2,1.6,1.7,3.5c0.6,2.1,0.9,5.6-1.1,10.1C134.7,173.4,129.9,171.9,124.1,169L124.1,169z
			 M139.3,174.4c2-4.7,1.7-8.3,1-10.6c-0.3-1.1-0.7-2-1.1-2.7c0.3,0.1,0.7,0.3,1.1,0.5c1.4,0.7,2.9,1.9,4.1,3.5
			c-0.3,0.2-0.6,0.6-0.9,1.3c-0.1,0.1-0.1,0.3-0.1,0.5c0,0,0,0,0,0c0,0,0,0.1,0,0.1c0,0,0,0,0,0c0,0,0,0.1,0,0.1c0,0,0,0,0,0.1
			c0,0,0,0.1,0,0.1c0,0,0,0,0,0.1c0,0,0,0.1,0,0.1c0,0,0,0.1,0,0.1c0,0,0,0.1,0,0.1c0,0,0,0.1,0,0.1c0,0,0,0.1,0,0.1
			c0,0,0,0.1,0,0.1c0,0,0,0.1,0,0.1c0,0,0,0.1,0,0.1c0,0,0,0.1,0,0.1c0,0,0,0.1,0,0.1c0,0,0,0.1,0,0.1c0,0,0,0.1,0,0.1
			c0,0,0,0.1,0,0.1c0,0,0,0.1,0,0.1c0,0,0,0.1,0,0.2c0,0,0,0.1,0,0.1c0,0.1,0,0.1,0,0.2c0,0,0,0.1,0,0.1c0,0.1,0,0.2,0,0.3
			c0.4,2.2,1.4,3.1,2.1,3.5l0,0c0.5,0.2,0.9,0.3,1.2,0.3c0,0.2,0,0.5,0,0.7c0,0.2,0,0.3,0,0.5c-0.6,0.1-1.9,0.2-3.7,0
			c-0.8-0.1-1.8-0.2-3.1-0.4C139.7,174.4,139.5,174.4,139.3,174.4L139.3,174.4z M143.9,181.2L143.9,181.2c-2.7-1.4-4-4.3-4.6-5.7
			c0.1,0,0.2,0,0.3,0c0.4,0.1,0.8,0.1,1.1,0.2c0.8,0.1,1.5,0.2,2.1,0.2c2.3,0.2,3.4,0.1,3.9,0.1l4.5,5.3
			C148.5,182.3,146,182.3,143.9,181.2L143.9,181.2z M143.9,181.2"/>
	</g>
</g>
<g>
	<g>
		<polygon class="st4" points="87.1,21.5 86.3,20.1 86.4,18.8 90.5,18.8 106.3,16.7 106.6,17.5 105.3,18.7 101.8,19.8 		"/>
		<polygon class="st5" points="86.3,18.7 85.5,15.2 86.3,15 87.7,15 90.5,16.3 92.2,14.9 93,13.8 97.6,15.8 99.4,16.1 100.6,15.6 
			101.7,14.2 104.2,14 106.2,14.5 106.6,15.9 105.9,16.6 90.1,18.8 86.6,18.9 		"/>
		<polygon class="st4" points="85.5,14.6 85.6,11.9 86.1,11.9 87.8,12.8 89.9,13 91.8,11.4 92.5,10.6 94,10.6 99,13.3 101.5,13.8 
			101.1,15 99.4,16.1 97.5,15.5 93,13.8 92,15 90.4,16 87.9,16.4 86.7,15.3 86.3,14.7 		"/>
		<g>
			<g>
				<path class="st5" d="M107.3,15.7c0-0.1,0-0.1,0-0.2c-0.3-2-1.7-2-3.3-2c-0.4,0-0.8,0-1.3,0c-3.2-0.2-6.1-1.4-8.6-3.4
					C94,10,93.9,9.9,93.7,10l-1.6,0.2c-0.2,0-0.3,0.2-0.4,0.3c-0.3,1.1-1.2,1.9-2.3,2c-1.1,0.1-2.1-0.4-2.7-1.3
					c-0.1-0.2-0.3-0.3-0.5-0.2l-1.1,0.1c-0.3,0-0.4,0.3-0.4,0.5c0.1,0.7,0.1,1.4,0.1,2.2c0.1,1.9,0.1,3.7,1.1,4.7
					c-0.3,0.4-0.4,0.9-0.3,1.4l0.1,0.5c0.1,1,1,1.7,1.8,1.6l12.9-1.8c3.4-0.5,5.8-1.5,6.6-2.9C107.4,16.9,107.4,16.3,107.3,15.7
					L107.3,15.7z M85.9,13.8c0-0.6,0-1.2-0.1-1.8l0.3,0c0.8,1.1,2.1,1.7,3.5,1.5c1.3-0.2,2.5-1.1,3-2.4l1.1-0.2
					c0.2,0.1,0.4,0.3,0.6,0.4l-0.3,0.5c-0.1,0.2-0.1,0.5,0.2,0.7c0.2,0.1,0.5,0.1,0.7-0.2l0.3-0.4c0.2,0.1,0.4,0.3,0.6,0.4l-0.3,0.5
					c-0.1,0.2-0.1,0.5,0.2,0.7c0.2,0.1,0.5,0.1,0.7-0.2l0.3-0.5c0.2,0.1,0.4,0.2,0.7,0.3l-0.2,0.4c-0.1,0.2-0.1,0.5,0.2,0.7
					c0.2,0.1,0.5,0.1,0.7-0.2l0.3-0.5c0.2,0.1,0.5,0.2,0.7,0.2l-0.2,0.4c-0.1,0.2-0.1,0.5,0.2,0.7c0.2,0.1,0.5,0.1,0.7-0.2l0.3-0.6
					c0.5,0.1,0.9,0.2,1.4,0.3c-0.5,1-1.7,1.6-2.9,1.3c0,0,0,0-0.1,0c-1.7-0.5-3.4-1.3-5.1-2.2c0,0-0.2-0.1-0.2-0.1
					c-0.1,0-0.3,0-0.4,0.2c0,0-0.1,0.2-0.1,0.2c-0.3,1-1.4,1.9-2.6,2c-0.6,0.1-2,0.1-2.9-1.3c-0.1-0.2-0.3-0.3-0.5-0.2l-0.6,0.1
					C85.9,14.1,85.9,13.9,85.9,13.8L85.9,13.8z M100.4,19.3l-12.9,1.8c-0.3,0-0.7-0.3-0.7-0.8l-0.1-0.5c0-0.3,0-0.5,0.1-0.7
					c0.7,0.3,1.5,0.4,2.6,0.3l16.7-2.3C105.3,18.1,103.2,18.9,100.4,19.3L100.4,19.3z M106.3,15.8c0,0.1,0,0.1-0.1,0.2
					c-0.1,0.1-0.1,0.1-0.2,0.1l-16.7,2.3c-1,0.1-1.7,0-2.3-0.3c0,0-0.1-0.1-0.2-0.1c-0.7-0.6-0.9-1.6-0.9-2.9l0.3,0
					c1.3,1.9,1.7,1.7,3.6,1.5c1.4-0.2,2.6-1,3.2-2.2c1.6,0.9,3.1,1.5,4.7,2c0,0,0.1,0,0.1,0c1.7,0.5,3.5-0.4,4.2-2.1
					c0.2,0,0.3,0,0.5,0c0.5,0,0.9,0,1.3,0c1.7,0,2.2,0.1,2.3,1.2C106.3,15.7,106.3,15.8,106.3,15.8L106.3,15.8z M106.3,15.8"/>
			</g>
		</g>
	</g>
</g>
<g>
	<g>
		<path class="st5" d="M37.9,133c0.2-0.6,0.1-1.4-0.3-2c-4.1-5.7-12-6.9-17.6-2.9c-0.6,0.4-0.9,1.1-0.9,1.8c-1.8,1.7-3,4-3.4,6.6
			l-0.8,5.1c-0.1,0.8,0.4,1.6,1.2,1.7l1.5,0.2l-0.2,1.5c-0.1,0.8,0.4,1.6,1.2,1.7l2.2,0.4c0.8,0.1,1.6-0.4,1.7-1.2l1-5.9
			c0.1-0.8-0.4-1.6-1.2-1.7l-2.2-0.4c-0.8-0.1-1.6,0.4-1.7,1.2l0.4-2.2c0.3-1.9,1.2-3.5,2.4-4.8c0.5,0.1,1.1-0.1,1.6-0.4
			c3.7-2.6,8.8-1.8,11.4,1.9c0.3,0.5,0.8,0.8,1.4,0.9c0.8,1.6,1.1,3.4,0.8,5.3l-0.4,2.2c0.1-0.8-0.4-1.6-1.2-1.7l-2.2-0.4
			c-0.8-0.1-1.6,0.4-1.7,1.2l-1,5.9c-0.1,0.8,0.4,1.6,1.2,1.7l2.2,0.4c0.8,0.1,1.6-0.4,1.7-1.2l0.2-1.5l1.5,0.2
			c0.8,0.1,1.6-0.4,1.7-1.2l0.8-5.1C39.5,137.8,39,135.2,37.9,133L37.9,133z M37.9,133"/>
	</g>
</g>
<g>
	<path class="st5" d="M195.2,81.3l-17,3.2c-1.4,0.3-2.4,1.6-2.1,3.1l6.1,32.9c0.3,1.4,1.6,2.4,3.1,2.1l17-3.2
		c1.4-0.3,2.4-1.6,2.1-3.1l-6.1-32.9C198,82,196.6,81.1,195.2,81.3L195.2,81.3z M184.3,85.3l5.4-1c0.2,0,0.3,0.1,0.4,0.3
		c0,0.2-0.1,0.3-0.3,0.4l-5.4,1c-0.2,0-0.3-0.1-0.4-0.2C184,85.5,184.2,85.3,184.3,85.3L184.3,85.3z M193.6,119.7
		c-0.7,0.1-1.4-0.3-1.5-1c-0.1-0.7,0.3-1.4,1-1.5c0.7-0.1,1.4,0.3,1.5,1C194.7,118.9,194.3,119.5,193.6,119.7L193.6,119.7z
		 M202.2,114.5l-18.5,3.5l-5.5-29.2l18.5-3.5L202.2,114.5z M202.2,114.5"/>
</g>
<g>
	<path class="st4" d="M79.4,184.1c-0.1,0.6-0.7,0.9-1.2,0.8c-0.6-0.1-0.9-0.7-0.8-1.2c0.1-0.6,0.7-0.9,1.2-0.8
		C79.2,183,79.5,183.5,79.4,184.1L79.4,184.1z M79.4,184.1"/>
	<path class="st4" d="M81.4,182.8c-0.1,0.6-0.7,0.9-1.2,0.8c-0.6-0.1-0.9-0.7-0.8-1.2c0.1-0.6,0.7-0.9,1.2-0.8
		C81.2,181.7,81.5,182.3,81.4,182.8L81.4,182.8z M81.4,182.8"/>
	<path class="st4" d="M67.8,179.6l-1.5-0.3l-0.3,1.4l-1.4-0.3l-0.3,1.5l1.4,0.3l-0.3,1.4l1.5,0.3l0.3-1.4l1.4,0.3l0.3-1.5l-1.4-0.3
		L67.8,179.6z M67.8,179.6"/>
	<path class="st4" d="M76.9,167.6c-9.4-2-18.7,3.9-20.7,13.3c-2,9.4,3.9,18.7,13.3,20.7c9.4,2,18.7-3.9,20.7-13.3
		C92.3,178.9,86.4,169.6,76.9,167.6L76.9,167.6z M80.4,194l-1.5-0.3l-2.1-5.9l-8-1.7l-4.4,4.5l-1.5-0.3c-1.2-0.3-1.9-1.4-1.7-2.6
		l2.1-7.4c0,0,0,0,0-0.1c0,0,0,0,0-0.1c0.6-2.5,3.1-4.2,5.6-3.6c1.1,0.2,1.7,0.7,2.4,1.5c1.1-0.1,1.6-0.2,3,0l0.8,0.2
		c1.3,0.4,1.8,0.7,2.7,1.2c0.9-0.4,1.7-0.6,2.8-0.4c2.5,0.6,4.2,3.1,3.6,5.6c0,0,0,0,0,0.1c0,0,0,0,0,0.1l-1.2,7.6
		C82.7,193.5,81.6,194.2,80.4,194L80.4,194z M80.4,194"/>
	<path class="st4" d="M82.6,184.8c-0.1,0.6-0.7,0.9-1.2,0.8c-0.6-0.1-0.9-0.7-0.8-1.2c0.1-0.6,0.7-0.9,1.2-0.8
		C82.4,183.7,82.8,184.2,82.6,184.8L82.6,184.8z M82.6,184.8"/>
	<path class="st4" d="M80.7,186.1c-0.1,0.6-0.7,0.9-1.2,0.8c-0.6-0.1-0.9-0.7-0.8-1.2c0.1-0.6,0.7-0.9,1.2-0.8
		C80.5,185,80.8,185.5,80.7,186.1L80.7,186.1z M80.7,186.1"/>
</g>
<g>
	<g>
		<g>
			<path class="st11" d="M177.7,41.1c-1.5,13-13.3,22.3-26.3,20.8c-4.2-0.5-7.9-2-11.1-4.2l-13.6,2.7l5.7-12.1
				c-1.8-3.8-2.5-8.1-2-12.5c1.5-13,13.3-22.3,26.3-20.8C169.8,16.3,179.2,28.1,177.7,41.1L177.7,41.1z M165.4,45.1"/>
		</g>
	</g>
	<g>
		<g>
			<path class="st12" d="M154.2,32.7c1.1-1.9,3.2-3.1,5.4-2.9c3,0.3,4.9,3.2,4.9,6.3c0,0,0.1,0.8-0.4,2.1c-0.7,1.8-1.9,3.4-3.5,4.5
				l-8.2,5.8l-6.6-7.5c-1.3-1.4-2.1-3.2-2.4-5.2c-0.2-1.4,0.1-2.2,0.1-2.2c0.6-3.1,3.1-5.4,6.2-5.1
				C151.9,28.9,153.6,30.6,154.2,32.7L154.2,32.7z M154.2,32.7"/>
		</g>
		<path class="st13" d="M145.9,35.1"/>
	</g>
</g>
<g>
	<rect x="118.6" y="108.6" class="st5" width="19.3" height="35"/>
	<g>
		<path class="st14" d="M136.4,107.2l-16.5-0.1c-1.4,0-2.5,1.1-2.5,2.5l-0.2,32.1c0,1.4,1.1,2.5,2.5,2.5l16.5,0.1
			c1.4,0,2.5-1.1,2.5-2.5l0.2-32.1C138.9,108.3,137.8,107.2,136.4,107.2L136.4,107.2z M125.5,108.9l5.3,0c0.2,0,0.3,0.1,0.3,0.3
			c0,0.2-0.1,0.3-0.3,0.3l-5.3,0c-0.2,0-0.3-0.1-0.3-0.3C125.2,109,125.4,108.9,125.5,108.9L125.5,108.9z M127.9,142.9
			c-0.7,0-1.2-0.6-1.2-1.3c0-0.7,0.6-1.2,1.3-1.2c0.7,0,1.2,0.6,1.2,1.3C129.2,142.4,128.6,142.9,127.9,142.9L127.9,142.9z
			 M137,139.6l-18-0.1l0.2-28.5l18,0.1L137,139.6z M137,139.6"/>
	</g>
	<g>
		<path class="st4" d="M154.1,106.6l-29.1-0.2l-0.1,15.4l3.2,0l0,4.9l6.5-4.8L154,122L154.1,106.6z M154.1,106.6"/>
	</g>
	<path class="st5" d="M129.7,113.1l8.1,0c0.4,0,0.8-0.4,0.8-0.8c0-0.4-0.4-0.8-0.8-0.8l-8.1,0c-0.4,0-0.8,0.4-0.8,0.8
		C128.9,112.8,129.2,113.1,129.7,113.1L129.7,113.1z M129.7,113.1"/>
	<path class="st5" d="M149.2,115.5l-19.4-0.1c-0.4,0-0.8,0.4-0.8,0.8c0,0.4,0.4,0.8,0.8,0.8l19.4,0.1c0.4,0,0.8-0.4,0.8-0.8
		C150,115.9,149.6,115.5,149.2,115.5L149.2,115.5z M149.2,115.5"/>
</g>
</svg>
