<?xml version="1.0" encoding="utf-8"?>
<!-- Generator: Adobe Illustrator 19.1.0, SVG Export Plug-In . SVG Version: 6.00 Build 0)  -->
<svg version="1.1" id="Layer_1" xmlns="http://www.w3.org/2000/svg" xmlns:xlink="http://www.w3.org/1999/xlink" x="0px" y="0px"
	 viewBox="0 0 338.8 189.3" style="enable-background:new 0 0 338.8 189.3;" xml:space="preserve">
<style type="text/css">
	.st0{fill-rule:evenodd;clip-rule:evenodd;fill:#484848;}
	.st1{fill:#FFFFFF;}
	.st2{fill:#10A6E0;}
	.st3{fill:#484848;}
</style>
<rect x="102" y="79.1" class="st0" width="124.7" height="85.6"/>
<g>
	<path class="st1" d="M147.6,121.9v-17.4h7.4v2.3h-4.9v5.2h4.3v2.3h-4.3v7.5H147.6z"/>
	<path class="st1" d="M157.2,121.9v-17.4h4.4c1.1,0,2.1,0.4,2.9,1.2c0.8,0.8,1.2,1.8,1.2,2.9v1.6c0,1.6-0.7,2.8-2,3.7l2.6,8h-2.6
		l-2.4-7.5h-1.6v7.5H157.2z M162.7,111.7c0.2-0.2,0.3-0.4,0.3-0.7c0.1-0.2,0.1-0.5,0.1-0.8v-1.6c0-0.5-0.1-1-0.4-1.3
		s-0.7-0.5-1.3-0.5h-1.8v5.5h1.7C161.9,112.3,162.4,112.1,162.7,111.7z"/>
	<path class="st1" d="M175.4,119.5v2.5h-7.4v-17.4h7.4v2.3h-5v5.2h4.4v2.3h-4.4v5.2H175.4z"/>
	<path class="st1" d="M185.1,119.5v2.5h-7.4v-17.4h7.4v2.3h-5v5.2h4.4v2.3h-4.4v5.2H185.1z"/>
	<path class="st2" d="M127.9,142.5c0,0.3,0,0.6,0,0.7c0,0.2,0.2,0.4,0.4,0.8c0.2,0.3,0.7,0.5,1.3,0.5c0.4,0,0.7-0.1,1-0.2
		c0.3-0.1,0.5-0.3,0.7-0.6s0.2-0.5,0.2-0.7c0-0.3,0-0.4,0-0.5v-1.2c0-0.3,0-0.6,0-0.8c0-0.2-0.1-0.4-0.3-0.6
		c-0.2-0.2-0.4-0.4-0.8-0.5c-0.3-0.2-0.9-0.4-1.8-0.7c-0.8-0.3-1.6-0.8-2.1-1.5c-0.6-0.7-0.9-1.6-0.9-2.8v-0.8
		c0-1.2,0.4-2.2,1.2-3.1c0.8-0.9,1.8-1.3,3-1.3c1.2,0,2.2,0.4,3,1.3c0.8,0.8,1.2,1.9,1.2,3.1v0.8h-2.5v-0.8c0-0.2,0-0.5-0.1-0.6
		c0-0.2-0.2-0.4-0.4-0.8c-0.2-0.3-0.7-0.5-1.2-0.5c-0.5,0-0.9,0.2-1.2,0.5c-0.3,0.4-0.5,0.8-0.5,1.3v0.8c0,0.3,0,0.6,0,0.7
		c0,0.1,0.1,0.3,0.3,0.5s0.4,0.4,0.7,0.5s0.9,0.4,1.7,0.7c0.8,0.3,1.6,0.8,2.2,1.5c0.6,0.7,1,1.6,1,2.8v1.4c0,0.6-0.1,1.1-0.2,1.5
		c-0.1,0.4-0.5,1-1.1,1.8c-0.6,0.8-1.6,1.2-3.1,1.2c-1.5,0-2.6-0.5-3.3-1.5s-1-2-1-3v-0.6h2.5V142.5z"/>
	<path class="st2" d="M136.2,146.8v-17.4h2.5v7.5h3.1v-7.5h2.5v17.4h-2.5V139h-3.1v7.8H136.2z"/>
	<path class="st2" d="M147,146.8v-17.4h2.5v17.4H147z"/>
	<path class="st2" d="M152.2,146.8v-17.4h4.1c0.5,0,1,0.1,1.5,0.3c0.5,0.2,0.9,0.5,1.3,0.8s0.6,0.7,0.9,1.2c0.2,0.5,0.4,0.9,0.4,1.4
		v2.5c0,0.6-0.1,1.2-0.3,1.7s-0.5,1-0.9,1.4c-0.4,0.4-0.9,0.7-1.4,0.9c-0.5,0.2-1.1,0.3-1.7,0.3h-1.3v6.9H152.2z M157.5,137.1
		c0.2-0.2,0.3-0.3,0.3-0.5c0-0.2,0.1-0.4,0.1-0.7v-0.3v-2.3c0-0.5-0.1-0.9-0.4-1.2c-0.3-0.3-0.7-0.5-1.2-0.5h-1.5v5.9h1.3
		c0.3,0,0.6,0,0.8-0.1C157.1,137.4,157.3,137.3,157.5,137.1z"/>
	<path class="st2" d="M162,146.8v-17.4h4.1c0.5,0,1,0.1,1.5,0.3c0.5,0.2,0.9,0.5,1.3,0.8s0.6,0.7,0.9,1.2c0.2,0.5,0.4,0.9,0.4,1.4
		v2.5c0,0.6-0.1,1.2-0.3,1.7s-0.5,1-0.9,1.4c-0.4,0.4-0.9,0.7-1.4,0.9c-0.5,0.2-1.1,0.3-1.7,0.3h-1.3v6.9H162z M167.3,137.1
		c0.2-0.2,0.3-0.3,0.3-0.5c0-0.2,0.1-0.4,0.1-0.7v-0.3v-2.3c0-0.5-0.1-0.9-0.4-1.2c-0.3-0.3-0.7-0.5-1.2-0.5h-1.5v5.9h1.3
		c0.3,0,0.6,0,0.8-0.1C166.9,137.4,167.1,137.3,167.3,137.1z"/>
	<path class="st2" d="M171.9,146.8v-17.4h2.5v17.4H171.9z"/>
	<path class="st2" d="M183.4,146.8l-3.9-10.6v10.6h-2.5v-17.4h2.3l3.9,10.6v-10.6h2.5v17.4H183.4z"/>
	<path class="st2" d="M196,145c-0.4,0.6-0.9,1.1-1.5,1.5c-0.6,0.3-1.3,0.5-2.1,0.5c-0.7,0-1.3-0.2-1.9-0.5s-1.1-0.7-1.4-1.2
		c-0.3-0.5-0.6-0.9-0.7-1.4c-0.1-0.5-0.2-1-0.2-1.6v-8.7c0-0.5,0-0.9,0.1-1.3c0.1-0.4,0.4-1,1-1.9c0.5-0.8,1.6-1.3,3.2-1.3
		c0.7,0,1.3,0.2,2,0.5s1.1,0.7,1.4,1.2c0.3,0.5,0.5,0.9,0.6,1.3c0.1,0.4,0.1,0.9,0.1,1.3v0.7h-2.5v-0.7c0-0.3,0-0.5,0-0.7
		s-0.2-0.4-0.4-0.7c-0.2-0.3-0.6-0.5-1.2-0.5c-0.7,0-1.1,0.2-1.3,0.5c-0.2,0.4-0.3,0.6-0.4,0.8c0,0.2-0.1,0.4-0.1,0.6v8.7
		c0,0.3,0,0.6,0,0.7c0,0.2,0.2,0.4,0.4,0.8s0.7,0.5,1.3,0.5c0.7,0,1.1-0.2,1.3-0.5c0.2-0.4,0.3-0.6,0.3-0.8s0.1-0.4,0.1-0.7v-3.1h-2
		v-2.2h4.5v5.2c0,0.7,0,1.3-0.1,1.6C196.4,144.3,196.3,144.6,196,145z"/>
	<path class="st2" d="M202.2,138l1.3-2.1c0.3-0.4,0.4-1,0.4-1.6v-1.4c0-0.3-0.1-0.6-0.4-0.8s-0.6-0.3-0.9-0.3
		c-0.4,0-0.7,0.1-0.9,0.4s-0.3,0.6-0.3,1v1.2h-2.5v-1.2c0-1.1,0.4-2,1.1-2.8c0.7-0.8,1.6-1.1,2.8-1.1c1,0,1.8,0.4,2.5,1.1
		c0.7,0.7,1.1,1.6,1.1,2.6v1.5c0,0.9-0.2,1.6-0.6,2.4l-1.5,2.7c-0.2,0.4-0.3,1-0.3,1.6v1.4h-2.5v-1.4c0-0.7,0-1.2,0.1-1.7
		C201.6,139,201.9,138.5,202.2,138z M201.4,146.8v-2.5h2.5v2.5H201.4z"/>
</g>
<path class="st1" d="M232.5,164.8V83.6c0-4.1-3.3-7.4-7.4-7.4h-60.2h-60.2c-4.1,0-7.4,3.3-7.4,7.4v81.2l-15.7,15.8
	c0,3.1,2.5,8.7,9.5,8.7h73.8h74c7,0,9.3-5.7,9.3-8.7L232.5,164.8z M164.9,175.4h-15.5l2-5.4h13.5h13.5l2,5.4H164.9z M225.1,164.8
	H104.7V83.6h120.4V164.8z"/>
<g>
	<g>
		<polygon class="st1" points="42.8,127 40.9,119.6 35.5,119.6 39.7,127 		"/>
	</g>
	<g>
		<polygon class="st1" points="42.8,112.2 40.9,119.6 35.5,119.6 39.7,112.2 		"/>
	</g>
	<g>
		<polygon class="st3" points="12.7,121.6 23.2,143.1 25.6,143.1 23.9,121.6 		"/>
	</g>
	<g>
		<polygon class="st3" points="12.7,117.6 23.2,96.1 25.6,96.1 23.9,117.6 		"/>
	</g>
	<g>
		<g>
			<path class="st1" d="M0,119.6c0,2.1,3.1,3.9,6.9,3.9h17.8c3.8,0,18.9-1.7,18.9-3.9c0-2.1-15.1-3.9-18.9-3.9H6.9
				C3.1,115.7,0,117.5,0,119.6z"/>
		</g>
	</g>
	<g>
		<rect x="35.5" y="119.1" class="st1" width="6.1" height="0.9"/>
	</g>
	<g>
		<path class="st1" d="M3.6,117.9C3.2,118.3,3,119,3,119.6c0,0.6,0.2,1.2,0.6,1.7c0.4,0.5,0.9,0.8,1.5,0.8c-0.3-0.4-0.6-0.9-0.7-1.3
			c-0.2-0.4-0.2-0.8-0.2-1.2c0-0.4,0.1-0.8,0.2-1.3c0.2-0.4,0.4-0.8,0.8-1.3C4.5,117.1,4,117.4,3.6,117.9z"/>
	</g>
</g>
<g>
	<path class="st3" d="M157.1,28.3c-1.4,0-2.6-1.1-2.6-2.6s1.1-2.6,2.6-2.6s2.6,1.1,2.6,2.6S158.6,28.3,157.1,28.3z M163,25.7
		c0-3.2-2.6-5.8-5.8-5.8s-5.8,2.6-5.8,5.8s2.6,5.8,5.8,5.8S163,28.9,163,25.7z"/>
	<g>
		<path class="st1" d="M168.4,1c0-0.5-0.4-1-1-1h-22.9c-0.5,0-1,0.4-1,1v20.4c0,0.5-0.4,1-0.8,1c-0.4,0-0.8,0.4-0.8,1v1.9
			c0,0.5,0.4,1,0.8,1c0.4,0,1.2,0,1.8,0h4.4c0.5,0,1-0.1,0.9-0.3c0,0,0,0,0-0.2c0-4,3.2-7.2,7.2-7.2c4,0,7.2,3.2,7.2,7.2
			c0,0.2,0,0.2,0,0.2c0,0.2,0.4,0.3,0.9,0.3h2.2c0.5,0,1-0.4,1-1V1z"/>
	</g>
	<path class="st3" d="M175.6,28.3c-1.4,0-2.6-1.1-2.6-2.6s1.1-2.6,2.6-2.6c1.4,0,2.6,1.1,2.6,2.6S177.1,28.3,175.6,28.3z
		 M181.5,25.7c0-3.2-2.6-5.8-5.8-5.8c-3.2,0-5.8,2.6-5.8,5.8s2.6,5.8,5.8,5.8C178.9,31.5,181.5,28.9,181.5,25.7z"/>
	<path class="st1" d="M181.9,12.3c0.1,0.5-0.3,0.9-0.8,0.9h-7.8c-0.5,0-1-0.4-1-1V7c0-0.5,0.4-1,1-1c0,0,3.2,0,5.3,0
		C180.7,6.1,181.9,12.3,181.9,12.3z M186.1,22.3c-0.5,0-1-0.4-1-1v-5c0-0.5-0.1-1.4-0.2-1.9c0,0-1.8-10.6-6.6-10.6s-7.7,0-7.7,0
		c-0.5,0-1,0.4-1,1v15.7c0,0.5,0.3,0.7,0.7,0.3c0,0,2.7-2.4,5.1-2.4c4,0,7.2,3.2,7.2,7.2c0,0.2,0,0.2,0,0.2c0,0.2,0.4,0.4,0.9,0.4
		h2.6c0.5,0,1-0.4,1-1v-2c0-0.5-0.4-1-1-1H186.1z"/>
</g>
<g>
	<g>
		<path class="st1" d="M338.6,116.5l-4.1,7.4c-2.9,5.2-8.4,8.5-14.4,8.5h-28.8c-1.8,0-3.3-1.1-3.9-2.8l-4.4-13.3
			c-0.2-0.5,0.2-1.1,0.8-1.1H338C338.7,115.2,339,116,338.6,116.5L338.6,116.5z M296.9,122.2c0-0.9-0.7-1.6-1.6-1.6
			c-0.9,0-1.6,0.7-1.6,1.6c0,0.9,0.7,1.6,1.6,1.6C296.2,123.8,296.9,123.1,296.9,122.2L296.9,122.2z M303.5,122.2
			c0-0.9-0.7-1.6-1.6-1.6c-0.9,0-1.6,0.7-1.6,1.6c0,0.9,0.7,1.6,1.6,1.6C302.8,123.8,303.5,123.1,303.5,122.2L303.5,122.2z
			 M310.1,122.2c0-0.9-0.7-1.6-1.6-1.6c-0.9,0-1.6,0.7-1.6,1.6c0,0.9,0.7,1.6,1.6,1.6C309.4,123.8,310.1,123.1,310.1,122.2
			L310.1,122.2z M310.1,122.2"/>
	</g>
	<path class="st3" d="M311.6,114.4h-22.3v-5.7c0-0.5,0.4-0.8,0.8-0.8h17.7c0.3,0,0.6,0.2,0.7,0.5L311.6,114.4z"/>
	<rect x="293.3" y="101.2" class="st1" width="5.7" height="5.7"/>
	<rect x="293.3" y="96.3" class="st1" width="5.7" height="3.3"/>
</g>
<path class="st3" d="M245.1,114.4v10.5h14.3v7.9l15.7-13.1l-15.7-13.1v7.9H245.1z M238.4,114.4"/>
<path class="st3" d="M157.4,65.6h10.5V51.3h7.9l-13.1-15.7l-13.1,15.7h7.9V65.6z M157.4,72.3"/>
<path class="st3" d="M84.1,124.8v-10.5H69.7v-7.9L54,119.6l15.7,13.1v-7.9H84.1z M90.7,124.8"/>
</svg>
