<?xml version="1.0" encoding="utf-8"?>
<!-- Generator: Adobe Illustrator 19.1.0, SVG Export Plug-In . SVG Version: 6.00 Build 0)  -->
<svg version="1.1" id="Layer_1" xmlns="http://www.w3.org/2000/svg" xmlns:xlink="http://www.w3.org/1999/xlink" x="0px" y="0px"
	 viewBox="-268.5 700.5 1128.5 142.9" style="enable-background:new -268.5 700.5 1128.5 142.9;" xml:space="preserve">
<style type="text/css">
	.st0{fill:#FFFFFF;}
	.st1{opacity:0.5;fill:#FFFFFF;enable-background:new    ;}
</style>
<g>
	<path class="st0" d="M588.5,711.1c0.2-0.6,0.6-1.1,1.3-1.1h1.1c0.6,0,0.9,0.4,0.7,1.1l-19.4,71.8c-0.2,0.6-0.6,1.1-1.3,1.1h-1.1
		c-0.6,0-0.9-0.4-0.7-1.1L588.5,711.1z"/>
	<path class="st0" d="M634.1,781.6c0-0.6,0.2-0.9,0.4-1.3l27.1-36.3c3.9-5.2,6.2-10.3,6.2-15.7c0-9.2-6.2-15.3-15.3-15.3
		c-8.8,0-14,5.6-15.3,14.2c-0.2,0.6-0.6,0.9-1.3,0.7l-0.7-0.2c-0.6-0.2-0.9-0.6-0.9-1.1c1.3-8.8,7.7-16.5,18.3-16.5
		c10.8,0,18.5,7.5,18.5,18.3c0,6.2-2.8,11.6-7.5,18l-24.9,33.5v0.2h31.2c0.6,0,1.1,0.4,1.1,1.1v0.9c0,0.6-0.4,1.1-1.1,1.1H635
		c-0.6,0-1.1-0.4-1.1-1.1v-0.6H634.1z"/>
	<path class="st0" d="M703.9,747c0-17.4,1.1-22.3,1.9-24.7c2.6-8,8.6-12.3,17.6-12.3c8.8,0,15,4.3,17.6,12.3
		c0.7,2.2,1.9,7.1,1.9,24.7c0,17.4-1.1,22.3-1.9,24.7c-2.6,8-8.6,12.3-17.6,12.3c-8.8,0-15-4.3-17.6-12.3
		C705,769.3,703.9,764.4,703.9,747z M723.3,780.9c7.5,0,12.3-3.6,14.4-10.1c0.7-2.2,1.7-6.9,1.7-23.9c0-16.8-0.9-21.5-1.7-23.9
		c-2.2-6.7-6.9-10.1-14.4-10.1c-7.5,0-12.2,3.6-14.4,10.1c-0.7,2.2-1.7,6.9-1.7,23.9c0,16.8,0.9,21.5,1.7,23.9
		C711,777.5,715.8,780.9,723.3,780.9z"/>
	<path class="st0" d="M786.3,715.4L786.3,715.4l-14,10.1c-0.6,0.4-1.1,0.2-1.1-0.6v-1.3c0-0.7,0.2-1.1,0.7-1.5l14-10.3
		c0.6-0.4,0.9-0.6,1.5-0.6h1.1c0.6,0,1.1,0.4,1.1,1.1v69.7c0,0.6-0.4,1.1-1.1,1.1h-1.1c-0.6,0-1.1-0.4-1.1-1.1L786.3,715.4
		L786.3,715.4z"/>
</g>
<g>
	<path class="st0" d="M-216.9,745.9v3.4c0,7.3-0.9,15.5-2.1,18.9c-3.6,10.3-11.8,15.7-23.7,15.7c-12,0-20.2-5.4-23.7-15.7
		c-0.9-3-2.1-7.9-2.1-21.1c0-13.5,1.1-18.3,2.1-21.3c3.6-10.3,11.8-15.7,23.7-15.7c14.2,0,20.2,7.7,22.6,12.2
		c0.4,0.6,0.4,0.9,0.2,1.3c-0.2,0.4-0.4,0.6-0.6,0.7l-0.9,0.6c-0.7,0.4-1.5,0.2-1.9-0.4c-4.1-7.3-10.3-10.7-19.3-10.7
		c-9.9,0-16.8,4.5-19.8,13.1c-0.9,2.6-2.1,7.3-2.1,20.2s1.1,17.6,2.1,20.2c3,8.6,9.9,13.1,19.8,13.1c9.9,0,16.8-4.5,19.8-13.1
		c0.9-2.8,2.1-10.5,2.1-18.5c0-0.2,0-0.2-0.4-0.2h-17.2c-0.9,0-1.5-0.6-1.5-1.3v-0.9c0-0.7,0.6-1.3,1.5-1.3h20.2
		C-217.5,744.4-216.9,745.2-216.9,745.9z M-140,779.2h-38.3c-0.2,0-0.4,0-0.4-0.2v-66.6c0-0.7-0.6-1.3-1.5-1.3h-1.1
		c-0.9,0-1.5,0.6-1.5,1.3v69c0,0.7,0.6,1.3,1.5,1.3h41.3c0.9,0,1.5-0.6,1.5-1.3v-0.9C-138.7,779.8-139.3,779.2-140,779.2z
		 M-66,725.7c1.1,3.2,2.2,8,2.2,21.3c0,13.1-1.1,18.1-2.2,21.3c-3.6,10.5-11.6,15.7-23.6,15.7s-20.2-5.4-23.7-15.9
		c-1.1-3.2-2.2-8-2.2-21.3c0-13.1,1.1-18.1,2.2-21.3c3.6-10.5,11.6-15.7,23.6-15.7C-77.6,710-69.7,715.2-66,725.7z M-70.1,767
		c0.9-2.8,2.1-7.5,2.1-20.2s-1.1-17.4-2.1-20.2c-3-8.6-9.7-13.1-19.6-13.1s-16.6,4.3-19.6,13.1c-0.9,2.8-2.1,7.5-2.1,20.2
		s1.1,17.4,2.1,20.2c3,8.6,9.7,13.1,19.6,13.1C-79.6,780.1-73.1,775.8-70.1,767z M179.9,779.2h-38.3c-0.2,0-0.4,0-0.4-0.2v-66.6
		c0-0.7-0.6-1.3-1.5-1.3h-1.1c-0.9,0-1.5,0.6-1.5,1.3v69c0,0.7,0.6,1.3,1.5,1.3h41.3c0.9,0,1.5-0.6,1.5-1.3v-0.9
		C181.2,779.8,180.7,779.2,179.9,779.2z M457.2,711.1h-49.6c-0.9,0-1.5,0.6-1.5,1.3v0.9c0,0.7,0.6,1.3,1.5,1.3h22.4
		c0.2,0,0.4,0,0.4,0.2v66.4c0,0.7,0.6,1.3,1.5,1.3h1.3c0.9,0,1.5-0.6,1.5-1.3v-66.2c0-0.2,0-0.2,0.4-0.2h22.4c0.9,0,1.5-0.6,1.5-1.3
		v-1.1C458.7,711.7,458.2,711.1,457.2,711.1z M530.7,711.5c-0.2-0.4-0.6-0.6-1.1-0.6h-1.3c-0.9,0-1.5,0.2-1.9,1.1l-20.2,31.4
		l-20.6-31.4c-0.6-0.9-0.9-1.3-2.1-1.3h-1.3c-0.6,0-0.9,0.2-1.1,0.6c-0.2,0.4-0.2,0.7,0,1.3l22.8,35.5v33.1c0,0.7,0.6,1.3,1.5,1.3
		h1.1c0.9,0,1.5-0.6,1.5-1.3v-32.9l22.6-35.5C530.9,712.4,530.9,711.9,530.7,711.5z M374.4,711.1h-1.1c-0.9,0-1.5,0.6-1.5,1.3v69
		c0,0.7,0.6,1.3,1.5,1.3h1.1c0.9,0,1.5-0.6,1.5-1.3v-69C375.9,711.7,375.3,711.1,374.4,711.1z M314.2,713.7
		c8.2,0,14.4,3.4,18.3,10.5c0.4,0.7,1.3,0.9,1.9,0.6l1.1-0.6c0.4-0.2,0.6-0.6,0.6-0.7c0-0.4,0-0.7-0.2-1.1
		c-4.1-8-11.8-12.3-21.7-12.3c-11.8,0-19.4,5.2-23,15.3c-0.9,2.6-2.1,7.5-2.1,21.5c0,14,1.1,18.9,2.1,21.5
		c3.6,10.3,11.2,15.3,23,15.3c10.1,0,17.6-4.3,21.7-12.3c0.2-0.4,0.4-0.7,0.2-1.1c0-0.2-0.2-0.6-0.6-0.7l-1.1-0.6
		c-0.7-0.4-1.5-0.2-1.9,0.6c-4.1,6.9-10.1,10.5-18.3,10.5c-9.9,0-15.9-4.1-19.1-12.7c-0.7-2.2-1.9-6.9-1.9-20.6s1.1-18.1,1.9-20.6
		C298.3,717.9,304.3,713.7,314.2,713.7z M254.3,725.7c1.1,3.2,2.2,8,2.2,21.3c0,13.1-1.1,18.1-2.2,21.3
		c-3.6,10.5-11.6,15.7-23.6,15.7c-12.2,0-20-5.2-23.6-15.7c-1.1-3.2-2.2-8-2.2-21.3c0-13.1,1.1-18.1,2.2-21.3
		c3.6-10.5,11.6-15.7,23.6-15.7C242.9,710,250.8,715.2,254.3,725.7z M250.4,767c0.9-2.8,2.1-7.5,2.1-20.2s-1.1-17.4-2.1-20.2
		c-3-8.6-9.7-13.1-19.6-13.1s-16.6,4.3-19.6,13.1c-0.9,2.8-2.1,7.5-2.1,20.2s1.1,17.4,2.1,20.2c3,8.6,9.7,13.1,19.6,13.1
		S247.4,775.8,250.4,767z M20.2,764.4c0,11.8-8,18.3-22.3,18.3h-24.5c-0.7,0-1.5-0.6-1.5-1.1v-69c0-0.9,0.6-1.7,1.5-1.7h24.1
		c13.7,0,21.5,6.5,21.5,17.8c0,8.6-4.5,15.3-12,17.4C12.5,747.6,20.2,753.2,20.2,764.4z M16.1,764.4c0-10.1-6.7-16.1-18.1-16.1h-5.2
		c-0.9,0-1.5-0.6-1.5-1.3v-0.9c0-0.7,0.6-1.3,1.5-1.3h4.9c10.5,0,17.4-6.2,17.4-15.7c0-9.2-6-14-17.4-14h-21.1c-0.4,0-0.4,0-0.4,0.2
		V779c0,0.2,0,0.2,0.4,0.2H-2C9.9,779.2,16.1,774,16.1,764.4z M105.3,781.2l-26.4-69c-0.2-0.4-0.4-1.3-1.5-1.3h-1.5
		c-1.1,0-1.5,0.9-1.5,1.3l-26.6,69c-0.2,0.4-0.2,0.7,0,1.1s0.6,0.4,0.9,0.4h1.5c0.9,0,1.5-0.4,1.7-1.3l24.3-64l10.5,27.1
		c0,0-12.9,0-13.5,0c-0.4,0-0.7,0.4-0.9,0.6c-0.2,0.2-0.7,2.1-0.9,2.4c-0.2,0.4,0.2,0.7,0.6,0.7s16.1,0,16.1,0l12.5,33.3
		c0.4,0.9,0.9,1.3,1.9,1.3h1.5c0.4,0,0.7-0.2,0.9-0.4C105.5,782.2,105.5,781.8,105.3,781.2z"/>
</g>
<g>
	<g>
		<g>
			<path class="st0" d="M831.8,784.2c-0.7,0-1.1-0.6-0.9-1.3l25.8-68.3c0.2-0.7-0.2-1.3-0.9-1.3h-31.8c-0.7,0-1.3-0.6-1.3-1.3l0,0
				c0-0.7,0.6-1.3,1.3-1.3h34.8c0.7,0,1.3,0.6,1.3,1.3v0.9c0,0.7-0.2,1.9-0.6,2.6L834,783.1c-0.2,0.7-1.1,1.3-1.9,1.3L831.8,784.2z"
				/>
		</g>
	</g>
</g>
<g>
	<path class="st0" d="M549,723.3c-3.2,0-5.8-1.1-8-3.4c-2.2-2.2-3.4-4.9-3.4-8s1.1-5.8,3.4-8c2.2-2.2,4.9-3.4,8-3.4
		c3.2,0,5.8,1.1,8,3.4c2.2,2.2,3.4,4.9,3.4,8s-1.1,5.8-3.4,8C554.8,722.2,552.2,723.3,549,723.3z M549,701.8c-2.8,0-5,0.9-7.1,3
		c-2.1,2.1-3,4.3-3,7.1s0.9,5,3,7.1c1.9,2.1,4.3,3,7.1,3s5-0.9,7.1-3c1.9-2.1,3-4.3,3-7.1s-0.9-5-3-7.1
		C554.1,702.7,551.8,701.8,549,701.8z M552,718l-3-5.2h-2.2v5.2h-1.5v-12.7h4.1c1.1,0,2.1,0.4,2.8,1.1c0.7,0.7,1.1,1.7,1.1,2.6
		c0,0.9-0.2,1.7-0.7,2.2c-0.6,0.6-1.3,1.1-2.1,1.3l3.2,5.4L552,718L552,718z M549.4,706.6h-2.6v4.9h2.4c0.7,0,1.5-0.2,1.9-0.7
		c0.4-0.6,0.7-1.1,0.7-1.7c0-0.7-0.2-1.3-0.7-1.7C550.7,707,550.2,706.6,549.4,706.6z"/>
</g>
<g>
	<path class="st0" d="M-6.3,835.3v-16.6l-3.9,11.6h-2.1l-3.9-11.6v16.6h-3.9v-27.5h3.7l5.2,14.6l5-14.6h3.6v27.5H-6.3z"/>
	<path class="st0" d="M1.5,833.2c-0.2-0.4-0.4-0.7-0.4-1.1c0-0.4,0-0.7,0-1.3v-2.2c0-1.5,0.4-2.6,1.1-3.2s1.3-1.1,2.1-1.5
		s1.3-0.4,2.1-0.4H9v-1.7c0-0.4,0-0.7,0-0.9c0-0.2-0.2-0.6-0.6-0.9s-0.7-0.6-1.3-0.6s-0.9,0.2-1.5,0.6c-0.4,0.4-0.6,0.7-0.7,1.3H1
		c0-1.7,0.6-3,1.7-4.1c1.1-1.1,2.4-1.7,4.1-1.7s3,0.6,4.1,1.7c1.1,1.1,1.7,2.4,1.7,4.1v14H8.6v-2.1c-0.4,0.7-0.9,1.1-1.5,1.7
		c-0.6,0.4-1.3,0.6-2.1,0.6C3.6,835.5,2.3,834.7,1.5,833.2z M5.1,828.6v0.9c0,0.6,0.2,0.9,0.6,1.5c0.4,0.6,0.9,0.6,1.5,0.6
		c0.4,0,0.6,0,0.9-0.2c0.4-0.2,0.6-0.4,0.7-0.7c0.2-0.4,0.2-0.7,0.2-1.1c0-0.4,0-0.7,0-0.9v-1.9H7.5c-0.7,0-1.3,0.2-1.7,0.4
		C5.3,827.4,5.1,827.8,5.1,828.6z"/>
	<path class="st0" d="M16.9,843.1h-0.9v-3.7h0.7c0.6,0,0.9-0.2,1.5-0.4c0.4-0.2,0.7-0.7,0.7-1.1l0.9-3.4l-5.4-18.9h4.1l2.8,12.2
		l2.6-12.2h4.1l-5.6,22.8c-0.4,1.5-1.1,2.6-2.1,3.4C19.5,842.6,18.3,843.1,16.9,843.1z"/>
	<path class="st0" d="M37,821.5c-0.2-0.4-0.4-0.7-0.4-1.1s0-0.9,0-1.5v-5.6c0-0.6,0.2-1.1,0.4-1.7c0.2-0.6,0.7-1.3,1.5-2.4
		c0.7-1.1,2.1-1.7,4.1-1.7c1.9,0,3.4,0.6,4.3,1.9c1.1,1.3,1.5,2.6,1.5,4.3v4.5c0,1.1-0.2,2.1-0.7,3.2l-5.2,13.8H38l4.5-11.8
		c-0.7,0.4-1.3,0.4-1.7,0.4c-0.9,0-1.7-0.2-2.4-0.7C37.8,822.8,37.4,822.2,37,821.5z M42.5,811.5c-0.7,0-1.1,0.2-1.5,0.7
		c-0.4,0.4-0.6,0.9-0.6,1.7v4.5c0,0.7,0.2,1.3,0.6,1.7c0.4,0.4,0.9,0.7,1.5,0.7c0.6,0,1.1-0.2,1.3-0.6c0.4-0.4,0.4-0.9,0.4-1.7v-4.5
		c0-0.7-0.2-1.3-0.4-1.7C43.8,811.7,43.2,811.5,42.5,811.5z"/>
	<path class="st0" d="M52,826.5v-3.9h11.8v3.9H52z"/>
	<path class="st0" d="M72,835.3v-23.4l-3.9,3v-4.1l3.9-3h3.9v27.5H72z"/>
	<path class="st0" d="M86.6,835.3v-23.4l-3.9,3v-4.1l3.9-3h3.9v27.5H86.6z"/>
	<path class="st0" d="M96.7,838.1v-6.7h3.9v3.9L96.7,838.1z"/>
	<path class="st0" d="M123.1,835.3h-11.8v-3.6l7.3-14.2c0.4-0.7,0.6-1.3,0.6-2.1v-2.1c0-0.6-0.2-0.9-0.6-1.3
		c-0.4-0.4-0.9-0.6-1.5-0.6s-0.9,0.2-1.3,0.6c-0.4,0.4-0.6,0.7-0.6,1.3v2.4h-3.9v-2.1c0-1.1,0.4-2.4,1.1-3.9s2.4-2.2,4.9-2.2
		c1.5,0,2.8,0.6,3.9,1.7c1.1,1.1,1.7,2.6,1.7,4.1v2.4c0,0.6,0,1.1-0.2,1.7c-0.2,0.6-0.4,1.1-0.7,1.7l-6.2,12.2h7.1v3.9H123.1z"/>
	<path class="st0" d="M130.2,835.3c-2.8-0.6-4.5-2.2-5-5c0-3,0-5.8,0-8.8s0-6,0-8.8c0.4-2.1,1.3-3.6,2.8-4.3
		c1.5-0.7,3.4-0.9,5.2-0.4c0.9,0.6,1.9,1.3,2.4,1.9c0.6,0.7,0.9,1.7,1.3,2.8c0,3,0,6,0,8.8c0,3,0,5.8,0,8.8c-0.4,2.6-1.9,4.3-4.3,5
		c-0.4,0-0.6,0-0.7,0C131.7,835.3,131.1,835.3,130.2,835.3z M130.5,831.4c1.1,0,2.1-0.6,2.2-1.7c0-2.8,0-5.6,0-8.2
		c0-2.8,0-5.6,0-8.2c-0.2-0.6-0.4-0.9-0.6-1.3c-0.7-0.6-1.5-0.7-2.1-0.4c-0.6,0.4-0.9,0.9-1.1,1.7c0,2.8,0,5.4,0,8.2
		c0,2.8,0,5.4,0,8.2C129.4,830.6,129.8,831.2,130.5,831.4z"/>
	<path class="st0" d="M143.8,835.3v-23.4l-3.9,3v-4.1l3.9-3h3.9v27.5H143.8z"/>
	<path class="st0" d="M156.9,814.7h-3.4v-6.9h11.8v3.6l-6.4,23.9h-4.1l6.7-23.9h-4.3v3.4H156.9z"/>
	<path class="st1" d="M180.1,838.5h-4.3v-34.2h4.3V838.5z"/>
	<path class="st0" d="M200.1,832.5c-0.6,0.9-1.3,1.7-2.4,2.2c-0.9,0.6-2.1,0.7-3,0.7s-2.1-0.2-3-0.7c-0.9-0.4-1.7-1.1-2.4-1.9l3-2.4
		c0.6,0.7,1.3,0.9,2.2,0.9c1.1,0,1.9-0.4,2.1-0.9c0.4-0.6,0.4-1.1,0.6-1.3c0-0.2,0-0.6,0-0.9v-0.9v-19.8h3.9v20.4
		c0,1.3,0,2.2-0.2,2.6C200.7,830.8,200.5,831.9,200.1,832.5z"/>
	<path class="st0" d="M217.1,835.3l-3.2-16.6l-3.2,16.6h-3.6l-3.9-27.5h4.1l1.9,16.6l3.2-16.6h3l3.2,16.6l2.1-16.6h4.1l-3.9,27.5
		H217.1z"/>
	<path class="st0" d="M248.2,835.3v-16.6l-3.9,11.6h-2.1l-3.9-11.6v16.6h-3.9v-27.5h3.7l5.2,14.6l5-14.6h3.6v27.5H248.2z"/>
	<path class="st0" d="M256,833.2c-0.2-0.4-0.4-0.7-0.4-1.1c0-0.4,0-0.7,0-1.3v-2.2c0-1.5,0.4-2.6,1.1-3.2s1.3-1.1,2.1-1.5
		s1.3-0.4,2.1-0.4h2.6v-1.7c0-0.4,0-0.7,0-0.9c0-0.2-0.2-0.6-0.6-0.9c-0.4-0.4-0.7-0.6-1.3-0.6c-0.6,0-0.9,0.2-1.5,0.6
		c-0.4,0.4-0.6,0.7-0.7,1.3h-3.9c0-1.7,0.6-3,1.7-4.1c1.1-1.1,2.4-1.7,4.1-1.7c1.7,0,3,0.6,4.1,1.7s1.7,2.4,1.7,4.1v14h-3.9v-2.1
		c-0.4,0.7-0.9,1.1-1.5,1.7c-0.6,0.4-1.3,0.6-2.1,0.6C258.1,835.5,256.8,834.7,256,833.2z M259.4,828.6v0.9c0,0.6,0.2,0.9,0.6,1.5
		c0.4,0.6,0.9,0.6,1.5,0.6c0.4,0,0.6,0,0.9-0.2c0.4-0.2,0.6-0.4,0.7-0.7c0.2-0.4,0.2-0.7,0.2-1.1c0-0.4,0-0.7,0-0.9v-1.9h-1.5
		c-0.7,0-1.3,0.2-1.7,0.4C259.8,827.4,259.4,827.8,259.4,828.6z"/>
	<path class="st0" d="M279.8,815.5v4.1c-0.2,0-0.4,0-0.6,0c-0.2,0-0.4,0-0.6,0c-1.3,0-2.2,0.4-3,1.3c-0.7,0.9-0.9,1.9-0.9,3.2v11.4
		h-3.9v-19.6h3.9v2.1c0.7-0.9,1.5-1.5,2.6-1.9C278.1,815.7,279,815.5,279.8,815.5z"/>
	<path class="st0" d="M291.2,815.5v4.1c-0.2,0-0.4,0-0.6,0c-0.2,0-0.4,0-0.6,0c-1.3,0-2.2,0.4-3,1.3c-0.7,0.9-0.9,1.9-0.9,3.2v11.4
		h-3.9v-19.6h3.9v2.1c0.7-0.9,1.5-1.5,2.6-1.9C289.7,815.7,290.6,815.5,291.2,815.5z"/>
	<path class="st0" d="M293.8,811.7v-3.9h3.9v3.9H293.8z M293.8,835.3v-19.8h3.9v19.8H293.8z"/>
	<path class="st0" d="M302.2,817.7c0.6-0.7,1.3-1.3,2.1-1.7c0.7-0.4,1.7-0.6,2.6-0.6c0.9,0,1.9,0.2,2.6,0.6s1.5,0.9,2.2,1.9
		c0.7,0.9,0.9,2.1,0.9,3.6v7.9c0,1.5-0.4,2.6-0.9,3.6c-0.7,0.9-1.3,1.5-2.2,2.1c-0.7,0.4-1.7,0.7-2.4,0.7c-1.1,0-2.2-0.4-3.2-0.9
		s-1.7-1.3-2.1-2.1c-0.4-0.7-0.6-1.3-0.7-1.9c0-0.6-0.2-0.9-0.2-1.5v-7.9C300.9,820,301.3,818.6,302.2,817.7z M306.9,819.2
		c-0.6,0-1.1,0.2-1.5,0.6c-0.4,0.4-0.6,0.9-0.6,1.5v7.9c0,0.6,0.2,1.1,0.6,1.7c0.4,0.4,0.9,0.7,1.5,0.7c0.9,0,1.5-0.2,1.7-0.7
		c0.2-0.6,0.4-1.1,0.4-1.7v-7.9c0-0.6-0.2-1.1-0.6-1.5C307.8,819.6,307.4,819.2,306.9,819.2z"/>
	<path class="st0" d="M321.6,831.6h0.9v3.7h-1.3c-0.7,0-1.3,0-1.9-0.2c-0.6-0.2-1.1-0.4-1.7-0.9c-0.6-0.6-0.9-0.9-1.1-1.5
		c-0.2-0.6-0.4-1.3-0.4-2.1v-11.8h-1.9v-3.2h1.9v-6h3.9v6h2.4v3.2h-2.4v11c0,0.7,0,1.1,0.2,1.3C320.5,831.6,320.9,831.6,321.6,831.6
		z"/>
	<path class="st0" d="M331.4,831.6h0.9v3.7H331c-0.7,0-1.3,0-1.9-0.2c-0.6-0.2-1.1-0.4-1.7-0.9c-0.6-0.6-0.9-0.9-1.1-1.5
		c-0.2-0.6-0.4-1.3-0.4-2.1v-11.8h-1.9v-3.2h1.9v-6h3.9v6h2.4v3.2h-2.4v11c0,0.7,0,1.1,0.2,1.3C330.3,831.6,330.6,831.6,331.4,831.6
		z"/>
	<path class="st0" d="M354.6,835.3H343v-27.5h3.9v23.6h7.9v3.9H354.6z"/>
	<path class="st0" d="M357.4,835.3v-3.9h3.9v3.9H357.4z"/>
	<path class="st0" d="M363.3,835.3l5.8-27.5h3.7l6.2,27.5h-4.3l-1.1-6h-5l-1.1,6H363.3z M369.1,825.8h3.7L371,816L369.1,825.8z"/>
	<path class="st0" d="M380.7,835.3v-3.9h3.9v3.9H380.7z"/>
	<path class="st0" d="M407.9,835.3h-11.6v-27.5h3.9v23.6h7.9v3.9H407.9z"/>
	<path class="st0" d="M410.3,811.7v-3.9h3.9v3.9H410.3z M410.3,835.3v-19.8h3.9v19.8H410.3z"/>
	<path class="st0" d="M421.1,835.3l-5-19.6h4.1l2.6,12.7l2.8-12.7h4.1l-5.2,19.6H421.1z"/>
	<path class="st0" d="M436.6,831.6c0.6,0,1.1-0.2,1.5-0.6c0.4-0.4,0.6-0.7,0.7-1.3h3.9v0.4c0,0.6-0.2,1.1-0.4,1.9
		c-0.2,0.7-0.7,1.3-1.7,2.2c-0.7,0.9-2.1,1.3-3.9,1.3c-1.1,0-2.2-0.4-3.2-0.9s-1.7-1.3-1.9-2.1c-0.4-0.7-0.6-1.3-0.7-2.1
		c-0.2-0.6-0.2-1.1-0.2-1.7v-7.5c0-1.7,0.6-3,1.7-4.3c1.1-1.1,2.6-1.9,4.1-1.9c1.7,0,3,0.6,4.1,1.7s1.7,2.6,1.7,4.3v5.4h-7.9v3
		c0,0.4,0.2,0.7,0.6,1.1C435.9,831.4,436.3,831.6,436.6,831.6z M436.8,819.4c-0.6,0-0.9,0.2-1.3,0.6c-0.4,0.4-0.6,0.9-0.6,1.9v1.9
		h3.9v-1.9c0-0.7-0.2-1.3-0.4-1.7C438,819.6,437.6,819.4,436.8,819.4z"/>
	<path class="st1" d="M457.8,838.5h-4.3v-34.2h4.3V838.5z"/>
	<path class="st0" d="M481,835.3h-11.6v-27.5h3.9v23.6h7.9v3.9H481z"/>
	<path class="st0" d="M484.5,817.7c0.6-0.7,1.3-1.3,2.1-1.7c0.7-0.4,1.7-0.6,2.6-0.6s1.9,0.2,2.6,0.6c0.7,0.4,1.5,0.9,2.2,1.9
		c0.7,0.9,0.9,2.1,0.9,3.6v7.9c0,1.5-0.4,2.6-0.9,3.6c-0.7,0.9-1.3,1.5-2.2,2.1c-0.7,0.4-1.7,0.7-2.4,0.7c-1.1,0-2.2-0.4-3.2-0.9
		c-0.9-0.6-1.7-1.3-2.1-2.1c-0.4-0.7-0.6-1.3-0.7-1.9c0-0.6-0.2-0.9-0.2-1.5v-7.9C483.2,820,483.6,818.6,484.5,817.7z M489.2,819.2
		c-0.6,0-1.1,0.2-1.5,0.6c-0.4,0.4-0.6,0.9-0.6,1.5v7.9c0,0.6,0.2,1.1,0.6,1.7c0.4,0.4,0.9,0.7,1.5,0.7c0.9,0,1.5-0.2,1.7-0.7
		c0.2-0.6,0.4-1.1,0.4-1.7v-7.9c0-0.6-0.2-1.1-0.6-1.5C490.1,819.6,489.8,819.2,489.2,819.2z"/>
	<path class="st0" d="M503,831.9c0.6,0,1.1-0.2,1.5-0.6c0.4-0.4,0.7-0.9,0.7-1.5c0-0.7-0.2-1.3-0.6-1.5c-0.4-0.2-0.9-0.6-1.7-0.9
		l-0.7-0.4c-0.7-0.4-1.5-0.6-2.1-0.9c-0.6-0.4-1.1-0.7-1.7-1.5c-0.6-0.7-0.9-1.9-0.9-3.2c0-1.7,0.6-3,1.7-4.1
		c1.1-1.1,2.4-1.7,4.1-1.7c1.5,0,2.8,0.6,3.7,1.7c1.1,1.1,1.5,2.4,1.5,3.9h-3.6c0-0.6-0.2-1.1-0.6-1.5c-0.4-0.4-0.9-0.6-1.5-0.6
		c-0.6,0-0.9,0.2-1.3,0.6c-0.4,0.4-0.6,0.9-0.6,1.5c0,0.6,0.2,1.1,0.6,1.3c0.4,0.4,0.9,0.6,1.5,0.9l1.3,0.4c0.7,0.2,1.3,0.6,1.7,0.7
		c0.4,0.2,0.9,0.6,1.3,1.1c0.4,0.6,0.7,1.1,1.1,1.7c0.4,0.6,0.4,1.3,0.4,2.1c0,1.7-0.6,3-1.7,4.1c-1.1,1.1-2.4,1.9-4.1,1.9
		c-0.9,0-1.9-0.2-3-0.7c-0.9-0.6-1.7-1.3-2.2-2.1c-0.6-0.7-0.7-1.9-0.7-3h3.7c0,0.6,0.2,1.1,0.6,1.5
		C501.9,831.6,502.5,831.9,503,831.9z"/>
	<path class="st0" d="M517.2,835.3l5.8-27.5h3.7l6.2,27.5h-4.3l-1.1-6h-5l-1.1,6H517.2z M523.2,825.8h3.7l-1.9-9.7L523.2,825.8z"/>
	<path class="st0" d="M545.7,817.5c0.2,0.4,0.4,0.7,0.4,1.1c0,0.6,0.2,0.9,0.2,1.5v15.3h-3.9v-13.8c0-1.5-0.7-2.2-2.1-2.2
		c-0.6,0-1.1,0.2-1.5,0.6c-0.4,0.4-0.6,0.9-0.6,1.5v13.8h-3.9v-19.6h3.9v1.9c0.9-1.5,2.1-2.2,3.7-2.2
		C543.6,815.5,544.9,816.2,545.7,817.5z"/>
	<path class="st0" d="M560.3,840.7c-0.6,0.7-1.3,1.5-2.1,1.9c-0.9,0.6-1.7,0.7-2.8,0.7c-1.7,0-3.2-0.6-4.3-1.7
		c-1.1-1.1-1.9-2.6-1.9-4.3h3.9c0,0.6,0.2,0.9,0.6,1.3c0.4,0.4,0.7,0.6,1.5,0.6c0.7,0,1.5-0.4,1.9-1.1c0.2-0.2,0.2-0.7,0.2-1.3V833
		c-0.4,0.7-0.9,1.1-1.5,1.7c-0.7,0.4-1.3,0.6-2.1,0.6s-1.5-0.2-2.2-0.6c-0.7-0.4-1.1-0.9-1.5-1.5s-0.4-0.9-0.6-1.3
		c0-0.4,0-0.7,0-1.5v-10.7c0-0.6,0-0.9,0.2-1.3c0.2-0.4,0.6-0.9,1.1-1.9c0.6-0.7,1.5-1.1,3-1.1c0.7,0,1.5,0.2,2.1,0.6
		c0.6,0.4,1.1,0.9,1.7,1.5v-1.9h3.9V837c0,0.7,0,1.5-0.2,2.1C560.8,839.6,560.6,840.2,560.3,840.7z M556.9,820.1
		c-0.4-0.6-0.9-0.9-1.7-0.9c-0.7,0-1.3,0.2-1.5,0.7c-0.2,0.4-0.4,0.7-0.4,0.9c0,0.2,0,0.6,0,0.7v7.5c0,0.4,0,0.7,0,0.9
		s0.2,0.6,0.6,0.9c0.2,0.4,0.7,0.6,1.5,0.6c0.9,0,1.3-0.2,1.7-0.7c0.2-0.6,0.4-0.9,0.4-1.1s0-0.4,0-0.6V822c0-0.4,0-0.7,0-0.9
		C557.4,820.9,557.1,820.5,556.9,820.1z"/>
	<path class="st0" d="M570.2,831.6c0.6,0,1.1-0.2,1.5-0.6c0.4-0.4,0.6-0.7,0.7-1.3h3.9v0.4c0,0.6-0.2,1.1-0.4,1.9
		c-0.2,0.7-0.7,1.3-1.7,2.2c-0.7,0.9-2.1,1.3-3.9,1.3c-1.1,0-2.2-0.4-3.2-0.9c-0.9-0.6-1.7-1.3-1.9-2.1c-0.4-0.7-0.6-1.3-0.7-2.1
		c-0.2-0.6-0.2-1.1-0.2-1.7v-7.5c0-1.7,0.6-3,1.7-4.3c1.1-1.1,2.6-1.9,4.1-1.9c1.7,0,3,0.6,4.1,1.7c1.1,1.1,1.7,2.6,1.7,4.3v5.4
		h-7.9v3c0,0.4,0.2,0.7,0.6,1.1C569.2,831.4,569.6,831.6,570.2,831.6z M570.2,819.4c-0.6,0-0.9,0.2-1.3,0.6s-0.6,0.9-0.6,1.9v1.9
		h3.9v-1.9c0-0.7-0.2-1.3-0.4-1.7C571.5,819.6,570.9,819.4,570.2,819.4z"/>
	<path class="st0" d="M583.1,807.8v21.9c0,0.7,0.2,1.1,0.4,1.5c0.2,0.4,0.7,0.4,1.3,0.4h0.4v3.7h-0.9c-0.6,0-1.3,0-1.7-0.2
		c-0.6-0.2-1.1-0.4-1.7-0.9c-0.6-0.4-0.9-0.9-1.1-1.7c-0.2-0.7-0.4-1.3-0.4-2.2v-22.6h3.7V807.8z"/>
	<path class="st0" d="M593,831.6c0.6,0,1.1-0.2,1.5-0.6c0.4-0.4,0.6-0.7,0.7-1.3h3.9v0.4c0,0.6-0.2,1.1-0.4,1.9
		c-0.2,0.7-0.7,1.3-1.7,2.2c-0.7,0.9-2.1,1.3-3.9,1.3c-1.1,0-2.2-0.4-3.2-0.9c-0.9-0.6-1.7-1.3-1.9-2.1c-0.4-0.7-0.6-1.3-0.7-2.1
		c-0.2-0.6-0.2-1.1-0.2-1.7v-7.5c0-1.7,0.6-3,1.7-4.3c1.1-1.1,2.6-1.9,4.1-1.9c1.7,0,3,0.6,4.1,1.7c1.1,1.1,1.7,2.6,1.7,4.3v5.4
		h-7.9v3c0,0.4,0.2,0.7,0.6,1.1C592,831.4,592.4,831.6,593,831.6z M593,819.4c-0.6,0-0.9,0.2-1.3,0.6s-0.6,0.9-0.6,1.9v1.9h3.9v-1.9
		c0-0.7-0.2-1.3-0.4-1.7C594.3,819.6,593.7,819.4,593,819.4z"/>
	<path class="st0" d="M607,831.9c0.6,0,1.1-0.2,1.5-0.6c0.4-0.4,0.7-0.9,0.7-1.5c0-0.7-0.2-1.3-0.6-1.5c-0.4-0.2-0.9-0.6-1.7-0.9
		l-0.7-0.4c-0.7-0.4-1.5-0.6-2.1-0.9c-0.6-0.4-1.1-0.7-1.7-1.5c-0.6-0.7-0.9-1.9-0.9-3.2c0-1.7,0.6-3,1.7-4.1
		c1.1-1.1,2.4-1.7,4.1-1.7c1.5,0,2.8,0.6,3.7,1.7c1.1,1.1,1.5,2.4,1.5,3.9h-3.6c0-0.6-0.2-1.1-0.6-1.5c-0.4-0.4-0.9-0.6-1.5-0.6
		c-0.6,0-0.9,0.2-1.3,0.6c-0.4,0.4-0.6,0.9-0.6,1.5c0,0.6,0.2,1.1,0.6,1.3c0.4,0.4,0.9,0.6,1.5,0.9l1.3,0.4c0.7,0.2,1.3,0.6,1.7,0.7
		c0.4,0.2,0.9,0.6,1.3,1.1c0.4,0.6,0.7,1.1,1.1,1.7c0.4,0.6,0.4,1.3,0.4,2.1c0,1.7-0.6,3-1.7,4.1c-1.1,1.1-2.4,1.9-4.1,1.9
		c-0.9,0-1.9-0.2-3-0.7c-0.9-0.6-1.7-1.3-2.2-2.1c-0.6-0.7-0.7-1.9-0.7-3h3.7c0,0.6,0.2,1.1,0.6,1.5
		C605.9,831.6,606.4,831.9,607,831.9z"/>
</g>
</svg>
