<?xml version="1.0" encoding="utf-8"?>
<!-- Generator: Adobe Illustrator 19.1.0, SVG Export Plug-In . SVG Version: 6.00 Build 0)  -->
<svg version="1.1" id="Layer_1" xmlns="http://www.w3.org/2000/svg" xmlns:xlink="http://www.w3.org/1999/xlink" x="0px" y="0px"
	 viewBox="-181 330.4 247.4 133.6" style="enable-background:new -181 330.4 247.4 133.6;" xml:space="preserve">
<style type="text/css">
	.st0{fill:#4A4A4A;}
	.st1{fill:#F5F6F6;}
	.st2{fill:none;stroke:#ED1C24;stroke-width:2;stroke-miterlimit:10;}
	.st3{fill:#FFFFFF;}
	.st4{fill:#10A6E0;}
	.st5{fill:none;}
	.st6{fill:#E8E8E8;}
	.st7{fill:#010101;}
</style>
<g>
	<path class="st0" d="M5.8,416.5c0,0.7-2,1.3-2.1,2c-0.1,0.7,1.9,1.6,1.8,2.3c-0.1,0.7-2.2,1-2.3,1.7c-0.2,0.7,1.6,1.9,1.4,2.5
		c-0.2,0.7-2.3,0.6-2.6,1.3c-0.3,0.6,1.3,2.1,1,2.7c-0.3,0.6-2.4,0.3-2.7,0.9s1,2.2,0.6,2.8c-0.4,0.6-2.4-0.1-2.8,0.5
		c-0.4,0.5,0.6,2.4,0.2,2.9c-0.5,0.5-2.4-0.4-2.9,0c-0.5,0.5,0.3,2.4-0.3,2.9c-0.5,0.4-2.3-0.8-2.8-0.4c-0.6,0.4-0.1,2.4-0.7,2.8
		c-0.6,0.3-2.1-1.1-2.8-0.8c-0.6,0.3-0.4,2.4-1.1,2.7c-0.6,0.3-1.9-1.4-2.6-1.2c-0.7,0.2-0.8,2.3-1.5,2.5c-0.7,0.2-1.7-1.7-2.4-1.6
		s-1.1,2.2-1.8,2.2c-0.7,0.1-1.4-1.9-2.1-1.9c-0.7,0-1.5,2-2.1,1.9c-0.7-0.1-1.2-2.1-1.8-2.2c-0.7-0.1-1.7,1.7-2.4,1.6
		c-0.7-0.2-0.8-2.3-1.5-2.5c-0.7-0.2-2,1.5-2.6,1.2c-0.6-0.3-0.5-2.4-1.1-2.7c-0.6-0.3-2.2,1.1-2.8,0.8c-0.6-0.3-0.1-2.4-0.7-2.8
		c-0.6-0.4-2.3,0.8-2.8,0.4s0.2-2.4-0.3-2.9s-2.4,0.5-2.9,0s0.6-2.3,0.2-2.9c-0.4-0.5-2.4,0.1-2.8-0.5c-0.4-0.6,0.9-2.2,0.6-2.8
		c-0.3-0.6-2.4-0.3-2.7-0.9c-0.3-0.6,1.3-2,1-2.7c-0.3-0.6-2.4-0.6-2.6-1.3c-0.2-0.7,1.6-1.8,1.4-2.5c-0.2-0.7-2.2-1-2.3-1.7
		c-0.1-0.7,1.8-1.6,1.8-2.3c-0.1-0.7-2.1-1.3-2.1-2c0-0.7,2-1.3,2.1-2c0.1-0.7-1.9-1.6-1.8-2.3c0.1-0.7,2.2-1,2.3-1.7
		c0.2-0.7-1.6-1.9-1.4-2.5c0.2-0.7,2.3-0.6,2.6-1.3c0.3-0.6-1.3-2.1-1-2.7c0.3-0.6,2.4-0.3,2.7-0.9c0.3-0.6-1-2.2-0.6-2.8
		s2.4,0.1,2.8-0.5c0.4-0.5-0.6-2.4-0.2-2.9c0.5-0.5,2.4,0.4,2.9,0c0.5-0.5-0.3-2.4,0.3-2.9c0.5-0.4,2.3,0.8,2.8,0.4
		c0.6-0.4,0.1-2.4,0.7-2.8c0.6-0.3,2.1,1.1,2.8,0.8c0.6-0.3,0.4-2.4,1.1-2.7c0.6-0.3,1.9,1.4,2.6,1.2c0.7-0.2,0.8-2.3,1.5-2.5
		c0.7-0.2,1.7,1.7,2.4,1.6c0.7-0.1,1.1-2.2,1.8-2.2c0.7-0.1,1.4,1.9,2.1,1.9c0.7,0,1.5-2,2.1-1.9c0.7,0.1,1.2,2.1,1.8,2.2
		c0.7,0.1,1.7-1.7,2.4-1.6c0.7,0.2,0.8,2.3,1.5,2.5c0.7,0.2,2-1.5,2.6-1.2c0.6,0.3,0.5,2.4,1.1,2.7c0.6,0.3,2.2-1.1,2.8-0.8
		c0.6,0.3,0.1,2.4,0.7,2.8c0.6,0.4,2.3-0.8,2.8-0.4c0.5,0.4-0.2,2.4,0.3,2.9s2.4-0.5,2.9,0s-0.6,2.3-0.2,2.9
		c0.4,0.5,2.4-0.1,2.8,0.5c0.4,0.6-0.9,2.2-0.6,2.8c0.3,0.6,2.4,0.3,2.7,0.9c0.3,0.6-1.3,2-1,2.7c0.3,0.6,2.4,0.6,2.6,1.3
		c0.2,0.7-1.6,1.8-1.4,2.5c0.2,0.7,2.2,1,2.3,1.7c0.1,0.7-1.8,1.6-1.8,2.3C3.8,415.2,5.8,415.8,5.8,416.5z"/>
</g>
<g>
	<path class="st0" d="M46.8,424.4c0,0.4-2,0.7-2,1.1c0,0.4,1.9,1,1.9,1.4c-0.1,0.4-2.1,0.4-2.2,0.8c-0.1,0.4,1.7,1.3,1.6,1.7
		c-0.1,0.4-2.1,0.1-2.3,0.5c-0.1,0.4,1.5,1.5,1.4,1.9c-0.2,0.4-2.1-0.2-2.3,0.1c-0.2,0.3,1.3,1.8,1.1,2.1s-2.1-0.5-2.3-0.2
		c-0.2,0.3,1,1.9,0.7,2.2s-2-0.8-2.3-0.6c-0.3,0.3,0.7,2,0.4,2.3c-0.3,0.2-1.8-1.1-2.2-0.9c-0.3,0.2,0.4,2.1,0,2.3
		c-0.3,0.2-1.6-1.4-2-1.2c-0.4,0.2,0.1,2.2-0.3,2.3c-0.4,0.1-1.4-1.6-1.8-1.5c-0.4,0.1-0.3,2.2-0.6,2.2c-0.4,0.1-1.2-1.8-1.5-1.7
		c-0.4,0.1-0.6,2.1-1,2.1s-0.9-2-1.3-2c-0.4,0-0.9,2-1.3,2c-0.4,0-0.6-2.1-1-2.1c-0.4-0.1-1.2,1.8-1.5,1.7c-0.4-0.1-0.3-2.1-0.6-2.2
		c-0.4-0.1-1.4,1.6-1.8,1.5c-0.4-0.1,0.1-2.1-0.3-2.3c-0.4-0.2-1.7,1.4-2,1.2c-0.3-0.2,0.4-2.1,0-2.3c-0.3-0.2-1.8,1.1-2.2,0.9
		c-0.3-0.2,0.7-2,0.4-2.3s-2,0.9-2.3,0.6c-0.3-0.3,1-1.9,0.7-2.2c-0.2-0.3-2.1,0.6-2.3,0.2c-0.2-0.3,1.3-1.7,1.1-2.1
		c-0.2-0.3-2.2,0.2-2.3-0.1c-0.2-0.4,1.5-1.5,1.4-1.9s-2.2-0.1-2.3-0.5s1.7-1.3,1.6-1.7c-0.1-0.4-2.1-0.4-2.2-0.8
		c-0.1-0.4,1.9-1,1.9-1.4c0-0.4-2-0.7-2-1.1s2-0.7,2-1.1c0-0.4-1.9-1-1.9-1.4c0.1-0.4,2.1-0.4,2.2-0.8c0.1-0.4-1.7-1.3-1.6-1.7
		c0.1-0.4,2.1-0.1,2.3-0.5c0.1-0.4-1.5-1.5-1.4-1.9c0.2-0.4,2.1,0.2,2.3-0.1c0.2-0.3-1.3-1.8-1.1-2.1s2.1,0.5,2.3,0.2
		c0.2-0.3-1-1.9-0.7-2.2s2,0.8,2.3,0.6c0.3-0.3-0.7-2-0.4-2.3c0.3-0.2,1.8,1.1,2.2,0.9c0.3-0.2-0.4-2.1,0-2.3c0.3-0.2,1.6,1.4,2,1.2
		c0.4-0.2-0.1-2.2,0.3-2.3c0.4-0.1,1.4,1.6,1.8,1.5c0.4-0.1,0.3-2.2,0.6-2.2c0.4-0.1,1.2,1.8,1.5,1.7c0.4-0.1,0.6-2.1,1-2.1
		s0.9,2,1.3,2c0.4,0,0.9-2,1.3-2c0.4,0,0.6,2.1,1,2.1c0.4,0.1,1.2-1.8,1.5-1.7c0.4,0.1,0.3,2.1,0.6,2.2c0.4,0.1,1.4-1.6,1.8-1.5
		c0.4,0.1-0.1,2.1,0.3,2.3c0.4,0.2,1.7-1.4,2-1.2c0.3,0.2-0.4,2.1,0,2.3c0.3,0.2,1.8-1.1,2.2-0.9c0.3,0.2-0.7,2-0.4,2.3
		s2-0.9,2.3-0.6c0.3,0.3-1,1.9-0.7,2.2c0.2,0.3,2.1-0.6,2.3-0.2c0.2,0.3-1.3,1.7-1.1,2.1c0.2,0.3,2.2-0.2,2.3,0.1
		c0.2,0.4-1.5,1.5-1.4,1.9s2.2,0.1,2.3,0.5s-1.7,1.3-1.6,1.7c0.1,0.4,2.1,0.4,2.2,0.8c0.1,0.4-1.9,1-1.9,1.4
		C44.8,423.7,46.8,424,46.8,424.4z"/>
</g>
<g>
	<path class="st1" d="M-28.7,427.4l-9.7-0.2l0.1-3l6.3-11.6c0.3-0.5,0.4-1.1,0.4-1.7v-1.7c0-0.5-0.1-0.8-0.5-1.2
		c-0.3-0.3-0.7-0.5-1.2-0.5c-0.4,0-0.8,0.1-1.1,0.4c-0.3,0.3-0.5,0.6-0.5,1.1v2l-3.2-0.1v-1.6c0-0.9,0.4-1.9,1.1-3.2
		c0.7-1.2,2-1.8,4.1-1.8c1.3,0,2.4,0.5,3.3,1.5c0.9,1,1.4,2.1,1.3,3.4v2.1c0,0.5-0.1,0.9-0.2,1.4c-0.1,0.5-0.3,0.9-0.6,1.4l-5.3,9.9
		l5.9,0.1L-28.7,427.4z"/>
	<path class="st1" d="M-20,427.6l-2-5.1l-2.4,5.1l-3.4-0.1l4.3-8.3l-3.7-7.9l3.5,0.1l1.9,4.6l2.2-4.5l3.4,0.1l-4.1,7.8l3.8,8.5
		L-20,427.6z"/>
	<path class="st1" d="M-11.7,427.8l0.4-19.4l-3.3,2.4l0.1-3.4l3.3-2.4l3.2,0.1l-0.4,22.8L-11.7,427.8z"/>
</g>
<g>
	<path class="st1" d="M25.3,422.4l0.1-6.5h1.5c0.2,0,0.4,0,0.6,0.1c0.2,0.1,0.3,0.2,0.5,0.3c0.1,0.1,0.2,0.3,0.3,0.5
		c0.1,0.2,0.1,0.3,0.1,0.5v0.9c0,0.2,0,0.5-0.1,0.6c-0.1,0.2-0.2,0.4-0.3,0.5c-0.2,0.2-0.3,0.3-0.5,0.3s-0.4,0.1-0.6,0.1h-0.5v2.6
		L25.3,422.4z M27.3,418.8c0.1-0.1,0.1-0.1,0.1-0.2s0-0.1,0-0.2v-0.1v-0.9c0-0.2,0-0.3-0.2-0.5c-0.1-0.1-0.3-0.2-0.4-0.2h-0.6v2.2
		h0.5c0.1,0,0.2,0,0.3,0C27.2,419,27.3,418.9,27.3,418.8z"/>
	<path class="st1" d="M29,422.5l0.1-6.5h1.6c0.4,0,0.8,0.2,1.1,0.5c0.3,0.3,0.4,0.7,0.4,1.1v0.6c0,0.6-0.3,1-0.8,1.4l0.9,3h-1
		l-0.8-2.8h-0.6l-0.1,2.8L29,422.5z M31.1,418.7c0.1-0.1,0.1-0.2,0.1-0.2c0-0.1,0-0.2,0-0.3v-0.6c0-0.2,0-0.4-0.2-0.5
		c-0.1-0.1-0.3-0.2-0.5-0.2h-0.7v2h0.6C30.8,418.9,31,418.9,31.1,418.7z"/>
	<path class="st1" d="M35.8,421.7v0.9l-2.8-0.1l0.1-6.5l2.8,0.1v0.9h-1.8v1.9h1.6v0.9h-1.6v1.9H35.8z"/>
	<path class="st1" d="M21.3,425.3c0.2-0.2,0.3-0.4,0.6-0.5c0.2-0.1,0.5-0.2,0.7-0.2s0.5,0.1,0.7,0.2c0.2,0.1,0.4,0.2,0.5,0.4
		c0.1,0.2,0.2,0.3,0.3,0.5c0,0.2,0.1,0.4,0.1,0.6l-0.1,3.3c0,0.2,0,0.4-0.1,0.5c0,0.1-0.1,0.3-0.2,0.5c-0.1,0.2-0.3,0.3-0.5,0.5
		c-0.2,0.1-0.5,0.2-0.7,0.2c-0.3,0-0.6-0.1-0.8-0.2c-0.3-0.2-0.4-0.3-0.5-0.5c-0.1-0.2-0.2-0.4-0.2-0.5s0-0.3,0-0.4l0.1-3.3
		c0-0.2,0-0.4,0.1-0.5C21.1,425.6,21.2,425.5,21.3,425.3z M23.1,425.9c-0.1-0.2-0.3-0.3-0.5-0.3c-0.1,0-0.2,0-0.3,0.1
		s-0.2,0.1-0.2,0.2S22,426,22,426.1c0,0.1,0,0.1,0,0.2l-0.1,3.3c0,0.1,0,0.1,0,0.2c0,0.1,0.1,0.2,0.1,0.3c0.1,0.1,0.3,0.2,0.5,0.2
		c0.1,0,0.2,0,0.3-0.1s0.2-0.1,0.2-0.2c0-0.1,0.1-0.1,0.1-0.2s0-0.1,0-0.3l0.1-3.3c0-0.1,0-0.2,0-0.3C23.2,426,23.2,426,23.1,425.9z
		"/>
	<path class="st1" d="M25,431.3l0.1-6.5h1.6c0.4,0,0.8,0.2,1.1,0.5c0.3,0.3,0.4,0.7,0.4,1.1v0.6c0,0.6-0.3,1.1-0.8,1.4l0.9,3h-1
		l-0.8-2.8h-0.6l-0.1,2.8L25,431.3z M27.1,427.5c0.1-0.1,0.1-0.2,0.1-0.2c0-0.1,0-0.2,0-0.3v-0.6c0-0.2,0-0.4-0.2-0.5
		c-0.1-0.1-0.3-0.2-0.5-0.2h-0.7v2h0.7C26.8,427.7,27,427.6,27.1,427.5z"/>
	<path class="st1" d="M30.6,424.9c0.4,0,0.8,0.2,1.1,0.5s0.4,0.7,0.4,1.1l-0.1,3.4c0,0.5-0.2,0.8-0.5,1.1s-0.7,0.4-1.1,0.4H29
		l0.1-6.5H30.6z M31.1,429.8l0.1-3.4c0-0.2-0.1-0.3-0.2-0.5c-0.1-0.1-0.3-0.2-0.5-0.2H30l-0.1,4.8h0.4
		C30.8,430.5,31.1,430.3,31.1,429.8z"/>
	<path class="st1" d="M35.7,430.6v0.9l-2.8-0.1l0.1-6.5l2.8,0.1v0.9H34v1.9h1.6v0.9H34v1.9L35.7,430.6z"/>
	<path class="st1" d="M36.5,431.5l0.1-6.5h1.6c0.4,0,0.8,0.2,1.1,0.5c0.3,0.3,0.4,0.7,0.4,1.1v0.6c0,0.6-0.3,1.1-0.8,1.4l0.9,3h-1
		l-0.8-2.8h-0.6l-0.1,2.8L36.5,431.5z M38.7,427.7c0.1-0.1,0.1-0.2,0.1-0.2c0-0.1,0-0.2,0-0.3v-0.6c0-0.2,0-0.4-0.2-0.5
		c-0.1-0.1-0.3-0.2-0.5-0.2h-0.7v2h0.7C38.4,427.9,38.5,427.9,38.7,427.7z"/>
</g>
<line class="st2" x1="19.1" y1="416" x2="40.5" y2="432.8"/>
<g>
	<g>
		<path class="st0" d="M36.4,389.4c0,0.3-2,0.5-2,0.8c0,0.3,1.9,0.8,1.9,1.1s-2.1,0.2-2.1,0.5c-0.1,0.3,1.8,1.1,1.7,1.4
			c-0.1,0.3-2.1-0.1-2.2,0.2c-0.1,0.3,1.6,1.3,1.5,1.6s-2-0.4-2.2-0.2c-0.1,0.3,1.4,1.6,1.2,1.8c-0.2,0.2-2-0.7-2.1-0.5
			c-0.2,0.2,1.1,1.8,0.9,2c-0.2,0.2-1.8-1-2-0.8c-0.2,0.2,0.9,1.9,0.6,2.1c-0.2,0.2-1.7-1.2-1.9-1.1c-0.2,0.2,0.6,2,0.3,2.2
			c-0.3,0.1-1.5-1.5-1.7-1.4c-0.3,0.1,0.3,2.1,0,2.2s-1.2-1.7-1.5-1.6s-0.1,2.1-0.3,2.2c-0.3,0.1-0.9-1.8-1.2-1.8s-0.4,2.1-0.7,2.1
			s-0.7-2-1-2s-0.7,2-1,2s-0.4-2-0.7-2.1c-0.3,0-1,1.9-1.2,1.8c-0.3-0.1-0.1-2.1-0.3-2.2c-0.3-0.1-1.2,1.7-1.5,1.6s0.3-2.1,0-2.2
			c-0.3-0.1-1.5,1.5-1.7,1.4c-0.3-0.1,0.6-2,0.3-2.2c-0.2-0.2-1.7,1.3-1.9,1.1c-0.2-0.2,0.8-1.9,0.6-2.1c-0.2-0.2-1.8,1-2,0.8
			c-0.2-0.2,1.1-1.7,0.9-2c-0.2-0.2-2,0.7-2.1,0.5c-0.2-0.2,1.4-1.6,1.2-1.8c-0.1-0.3-2.1,0.4-2.2,0.2c-0.1-0.3,1.6-1.3,1.5-1.6
			s-2.1,0.1-2.2-0.2c-0.1-0.3,1.8-1.1,1.7-1.4c-0.1-0.3-2.1-0.2-2.1-0.5s1.9-0.8,1.9-1.1c0-0.3-2-0.5-2-0.8s2-0.5,2-0.8
			c0-0.3-1.9-0.8-1.9-1.1s2.1-0.2,2.1-0.5c0.1-0.3-1.8-1.1-1.7-1.4c0.1-0.3,2.1,0.1,2.2-0.2c0.1-0.3-1.6-1.3-1.5-1.6
			c0.1-0.3,2,0.4,2.2,0.2c0.1-0.3-1.4-1.6-1.2-1.8c0.2-0.2,2,0.7,2.1,0.5c0.2-0.2-1.1-1.8-0.9-2c0.2-0.2,1.8,1,2,0.8
			s-0.9-1.9-0.6-2.1c0.2-0.2,1.7,1.2,1.9,1.1c0.2-0.2-0.6-2-0.3-2.2c0.3-0.1,1.5,1.5,1.7,1.4c0.3-0.1-0.3-2.1,0-2.2s1.2,1.7,1.5,1.6
			s0.1-2.1,0.3-2.2c0.3-0.1,0.9,1.8,1.2,1.8s0.4-2.1,0.7-2.1s0.7,2,1,2s0.7-2,1-2s0.4,2,0.7,2.1c0.3,0,1-1.9,1.2-1.8
			c0.3,0.1,0.1,2.1,0.3,2.2c0.3,0.1,1.2-1.7,1.5-1.6s-0.3,2.1,0,2.2c0.3,0.1,1.5-1.5,1.7-1.4c0.3,0.1-0.6,2-0.3,2.2
			c0.2,0.2,1.7-1.3,1.9-1.1c0.2,0.2-0.8,1.9-0.6,2.1s1.8-1,2-0.8c0.2,0.2-1.1,1.7-0.9,2c0.2,0.2,2-0.7,2.1-0.5
			c0.2,0.2-1.4,1.6-1.2,1.8c0.1,0.3,2.1-0.4,2.2-0.2c0.1,0.3-1.6,1.3-1.5,1.6s2.1-0.1,2.2,0.2c0.1,0.3-1.8,1.1-1.7,1.4
			c0.1,0.3,2.1,0.2,2.1,0.5s-1.9,0.8-1.9,1.1C34.4,388.9,36.4,389.1,36.4,389.4z"/>
	</g>
	<g>
		<path class="st1" d="M20.5,391.3v0.1c0,0.1,0,0.1,0,0.2c0,0.1,0,0.2,0,0.3c-0.1,0.4-0.3,0.7-0.7,0.9c-0.3,0.2-0.7,0.3-1.1,0.3
			c-0.3,0-0.6-0.1-0.9-0.3c-0.3-0.2-0.5-0.4-0.5-0.6c-0.1-0.2-0.1-0.4-0.2-0.5c0-0.1,0-0.3,0-0.5v-0.5h1.1v0.4c0,0.1,0,0.2,0,0.3
			s0,0.2,0.1,0.3c0.1,0.1,0.2,0.2,0.4,0.2s0.4-0.1,0.4-0.2c0.1-0.1,0.1-0.3,0.1-0.5V390c0-0.2,0-0.3-0.1-0.4s-0.2-0.1-0.3-0.1
			s-0.2,0-0.3,0h-0.2v-1h0.2c0.5,0,0.7-0.2,0.7-0.7v-1c0-0.1,0-0.2,0-0.2c0-0.1-0.1-0.1-0.1-0.2c-0.1-0.1-0.2-0.2-0.4-0.2
			s-0.3,0.1-0.4,0.2c-0.1,0.1-0.1,0.3-0.2,0.5v0.6H17v-0.6c0-0.5,0.2-0.9,0.5-1.3c0.3-0.3,0.7-0.5,1.2-0.5c0.3,0,0.5,0.1,0.8,0.2
			s0.4,0.3,0.6,0.5c0.1,0.2,0.2,0.4,0.2,0.5c0,0.2,0.1,0.3,0,0.5v0.9c0,0.5-0.2,0.9-0.7,1.2c0.3,0.2,0.4,0.4,0.5,0.5
			c0.1,0.2,0.1,0.4,0.1,0.7L20.5,391.3z"/>
		<path class="st1" d="M22.6,393.2c-0.8-0.2-1.3-0.7-1.4-1.5c0-0.9,0-1.7,0-2.6c0-0.9,0-1.7,0-2.6c0.1-0.6,0.4-1,0.8-1.2
			c0.5-0.2,1-0.2,1.5-0.1c0.3,0.2,0.5,0.4,0.7,0.6c0.2,0.2,0.3,0.5,0.3,0.8c0,0.9,0,1.7,0,2.6s0,1.7,0,2.5c-0.1,0.8-0.5,1.3-1.3,1.5
			c-0.1,0-0.2,0-0.2,0C23,393.2,22.8,393.2,22.6,393.2z M22.7,392c0.4,0,0.6-0.1,0.7-0.5c0-0.8,0-1.6,0-2.4c0-0.8,0-1.6,0-2.4
			c0-0.1-0.1-0.3-0.1-0.4c-0.2-0.2-0.4-0.2-0.6-0.1c-0.2,0.1-0.3,0.3-0.4,0.5c0,0.8,0,1.6,0,2.4c0,0.8,0,1.6,0,2.4
			C22.4,391.8,22.5,391.9,22.7,392z"/>
		<path class="st1" d="M25.5,385.7c0.2-0.3,0.5-0.4,0.9-0.4c0.3,0,0.6,0.1,0.8,0.4c0.2,0.2,0.3,0.5,0.3,0.8v1.6
			c0,0.3-0.1,0.5-0.2,0.7c-0.1,0.2-0.3,0.3-0.4,0.4s-0.3,0.1-0.5,0.1s-0.4-0.1-0.6-0.2c-0.2-0.1-0.3-0.2-0.4-0.4
			c-0.1-0.2-0.1-0.3-0.1-0.4s0-0.2,0-0.3v-1.6c0-0.2,0-0.3,0.1-0.4C25.4,385.9,25.4,385.8,25.5,385.7z M25.5,393.4l4.5-8.1h0.6
			l-4.5,8.1H25.5z M26.4,386c-0.1,0-0.2,0-0.3,0.1c-0.1,0.1-0.1,0.2-0.1,0.3v1.6c0,0.3,0.1,0.5,0.4,0.5c0.1,0,0.2,0,0.3-0.1
			s0.1-0.2,0.1-0.3v-1.6c0-0.1,0-0.2-0.1-0.3C26.6,386.1,26.6,386,26.4,386z M28.9,389.9c0.2-0.3,0.5-0.4,0.9-0.4s0.6,0.1,0.8,0.4
			c0.2,0.2,0.3,0.5,0.3,0.8v1.6c0,0.3-0.1,0.5-0.2,0.7c-0.1,0.2-0.3,0.3-0.4,0.4c-0.2,0.1-0.3,0.1-0.5,0.1s-0.4-0.1-0.6-0.2
			c-0.2-0.1-0.3-0.2-0.4-0.4c-0.1-0.2-0.1-0.3-0.1-0.4c0-0.1,0-0.2,0-0.3v-1.6c0-0.2,0-0.3,0.1-0.4C28.7,390.1,28.8,390,28.9,389.9z
			 M29.8,390.2c-0.1,0-0.2,0-0.3,0.1s-0.1,0.2-0.1,0.3v1.6c0,0.3,0.1,0.5,0.4,0.5c0.1,0,0.2,0,0.3-0.1c0.1-0.1,0.1-0.2,0.1-0.3v-1.6
			c0-0.1,0-0.2-0.1-0.3C30,390.2,29.9,390.2,29.8,390.2z"/>
	</g>
	<line class="st2" x1="15.7" y1="383.8" x2="31.4" y2="396.2"/>
</g>
<g id="XMLID_35_">
	<g>
		<g id="XMLID_79_">
			<path id="XMLID_80_" class="st3" d="M62.4,401.3c0-4-3.3-7.3-7.3-7.3s-7.3,3.3-7.3,7.3s3.3,7.3,7.3,7.3
				C59.1,408.6,62.4,405.3,62.4,401.3z"/>
		</g>
		<g id="XMLID_78_">
			<path class="st3" d="M55,405.5v-0.8c-0.6,0-1-0.2-1.3-0.5c-0.3-0.3-0.4-0.9-0.5-1.6l1.3-0.2c0,0.4,0.1,0.7,0.2,0.9
				c0.1,0.2,0.2,0.3,0.4,0.3s0.4-0.2,0.4-0.5c0-0.2,0-0.3-0.1-0.5c-0.1-0.2-0.1-0.3-0.2-0.4c-0.1-0.1-0.2-0.2-0.4-0.4l-0.6-0.5
				c-0.1-0.1-0.3-0.2-0.4-0.3c-0.1-0.1-0.2-0.2-0.3-0.4c-0.1-0.1-0.2-0.3-0.2-0.5c0-0.2-0.1-0.4-0.1-0.6c0-0.5,0.1-0.9,0.4-1.2
				c0.3-0.3,0.7-0.5,1.2-0.5V397h0.4v0.8c0.2,0,0.3,0,0.5,0.1c0.1,0.1,0.3,0.1,0.4,0.2c0.1,0.1,0.2,0.2,0.3,0.3s0.1,0.2,0.2,0.3
				c0,0.1,0.1,0.2,0.1,0.3s0,0.2,0.1,0.3c0,0.1,0,0.2,0,0.3l-1.3,0.2c0-0.1,0-0.2,0-0.3s0-0.2,0-0.2c0-0.1,0-0.1,0-0.2
				s0-0.1-0.1-0.1l-0.1-0.1c0,0-0.1,0-0.2,0c-0.1,0-0.2,0.1-0.3,0.2s-0.1,0.2-0.1,0.4c0,0.1,0,0.2,0,0.3s0.1,0.2,0.2,0.3
				c0.1,0.1,0.1,0.2,0.2,0.2c0,0,0.1,0.1,0.2,0.2l0.6,0.5c0.2,0.1,0.3,0.3,0.4,0.4c0.1,0.1,0.2,0.3,0.3,0.4c0.1,0.2,0.2,0.3,0.2,0.5
				c0.1,0.2,0.1,0.4,0.1,0.6c0,0.4-0.1,0.8-0.4,1.1c-0.3,0.3-0.6,0.5-1.1,0.5v0.8H55V405.5z"/>
			<path class="st3" d="M55,405.5v-0.8c-0.6,0-1-0.2-1.3-0.5c-0.3-0.3-0.4-0.9-0.5-1.6l1.3-0.2c0,0.4,0.1,0.7,0.2,0.9
				c0.1,0.2,0.2,0.3,0.4,0.3s0.4-0.2,0.4-0.5c0-0.2,0-0.3-0.1-0.5c-0.1-0.2-0.1-0.3-0.2-0.4c-0.1-0.1-0.2-0.2-0.4-0.4l-0.6-0.5
				c-0.1-0.1-0.3-0.2-0.4-0.3c-0.1-0.1-0.2-0.2-0.3-0.4c-0.1-0.1-0.2-0.3-0.2-0.5c0-0.2-0.1-0.4-0.1-0.6c0-0.5,0.1-0.9,0.4-1.2
				c0.3-0.3,0.7-0.5,1.2-0.5V397h0.4v0.8c0.2,0,0.3,0,0.5,0.1c0.1,0.1,0.3,0.1,0.4,0.2c0.1,0.1,0.2,0.2,0.3,0.3s0.1,0.2,0.2,0.3
				c0,0.1,0.1,0.2,0.1,0.3s0,0.2,0.1,0.3c0,0.1,0,0.2,0,0.3l-1.3,0.2c0-0.1,0-0.2,0-0.3s0-0.2,0-0.2c0-0.1,0-0.1,0-0.2
				s0-0.1-0.1-0.1l-0.1-0.1c0,0-0.1,0-0.2,0c-0.1,0-0.2,0.1-0.3,0.2s-0.1,0.2-0.1,0.4c0,0.1,0,0.2,0,0.3s0.1,0.2,0.2,0.3
				c0.1,0.1,0.1,0.2,0.2,0.2c0,0,0.1,0.1,0.2,0.2l0.6,0.5c0.2,0.1,0.3,0.3,0.4,0.4c0.1,0.1,0.2,0.3,0.3,0.4c0.1,0.2,0.2,0.3,0.2,0.5
				c0.1,0.2,0.1,0.4,0.1,0.6c0,0.4-0.1,0.8-0.4,1.1c-0.3,0.3-0.6,0.5-1.1,0.5v0.8H55V405.5z"/>
		</g>
	</g>
	<g>
		<g id="XMLID_75_">
			<path id="XMLID_76_" class="st4" d="M62.4,401.3c0-4-3.3-7.3-7.3-7.3s-7.3,3.3-7.3,7.3s3.3,7.3,7.3,7.3
				C59.1,408.6,62.4,405.3,62.4,401.3z"/>
		</g>
		<g id="XMLID_74_">
			<path class="st1" d="M55,405.5v-0.8c-0.6,0-1-0.2-1.3-0.5c-0.3-0.3-0.4-0.9-0.5-1.6l1.3-0.2c0,0.4,0.1,0.7,0.2,0.9
				c0.1,0.2,0.2,0.3,0.4,0.3s0.4-0.2,0.4-0.5c0-0.2,0-0.3-0.1-0.5c-0.1-0.2-0.1-0.3-0.2-0.4c-0.1-0.1-0.2-0.2-0.4-0.4l-0.6-0.5
				c-0.1-0.1-0.3-0.2-0.4-0.3c-0.1-0.1-0.2-0.2-0.3-0.4c-0.1-0.1-0.2-0.3-0.2-0.5c0-0.2-0.1-0.4-0.1-0.6c0-0.5,0.1-0.9,0.4-1.2
				c0.3-0.3,0.7-0.5,1.2-0.5V397h0.4v0.8c0.2,0,0.3,0,0.5,0.1c0.1,0.1,0.3,0.1,0.4,0.2c0.1,0.1,0.2,0.2,0.3,0.3s0.1,0.2,0.2,0.3
				c0,0.1,0.1,0.2,0.1,0.3s0,0.2,0.1,0.3c0,0.1,0,0.2,0,0.3l-1.3,0.2c0-0.1,0-0.2,0-0.3s0-0.2,0-0.2c0-0.1,0-0.1,0-0.2
				s0-0.1-0.1-0.1l-0.1-0.1c0,0-0.1,0-0.2,0c-0.1,0-0.2,0.1-0.3,0.2s-0.1,0.2-0.1,0.4c0,0.1,0,0.2,0,0.3s0.1,0.2,0.2,0.3
				c0.1,0.1,0.1,0.2,0.2,0.2c0,0,0.1,0.1,0.2,0.2l0.6,0.5c0.2,0.1,0.3,0.3,0.4,0.4c0.1,0.1,0.2,0.3,0.3,0.4c0.1,0.2,0.2,0.3,0.2,0.5
				c0.1,0.2,0.1,0.4,0.1,0.6c0,0.4-0.1,0.8-0.4,1.1c-0.3,0.3-0.6,0.5-1.1,0.5v0.8H55V405.5z"/>
		</g>
	</g>
</g>
<g id="XMLID_18_">
	<g>
		<g id="XMLID_70_">
			<path id="XMLID_71_" class="st3" d="M42.7,363.2c0-4-3.3-7.3-7.3-7.3s-7.3,3.3-7.3,7.3s3.3,7.3,7.3,7.3
				C39.5,370.5,42.7,367.2,42.7,363.2z"/>
		</g>
		<g id="XMLID_69_">
			<path class="st3" d="M35.3,367.4v-0.8c-0.6,0-1-0.2-1.3-0.5c-0.3-0.3-0.4-0.9-0.5-1.6l1.3-0.2c0,0.4,0.1,0.7,0.2,0.9
				c0.1,0.2,0.2,0.3,0.4,0.3s0.4-0.2,0.4-0.5c0-0.2,0-0.3-0.1-0.5s-0.1-0.3-0.2-0.4c-0.1-0.1-0.2-0.2-0.4-0.4l-0.6-0.5
				c-0.1-0.1-0.3-0.2-0.4-0.3c-0.1-0.1-0.2-0.2-0.3-0.4c-0.1-0.1-0.2-0.3-0.2-0.5c0-0.2-0.1-0.4-0.1-0.6c0-0.5,0.1-0.9,0.4-1.2
				c0.3-0.3,0.7-0.5,1.2-0.5v-0.8h0.4v0.8c0.2,0,0.3,0,0.5,0.1c0.1,0.1,0.3,0.1,0.4,0.2c0.1,0.1,0.2,0.2,0.3,0.3s0.1,0.2,0.2,0.3
				c0,0.1,0.1,0.2,0.1,0.3s0,0.2,0.1,0.3c0,0.1,0,0.2,0,0.3l-1.3,0.2c0-0.1,0-0.2,0-0.3s0-0.2,0-0.2c0-0.1,0-0.1,0-0.2
				c0-0.1,0-0.1-0.1-0.1l-0.1-0.1c0,0-0.1,0-0.2,0c-0.1,0-0.2,0.1-0.3,0.2c-0.1,0.1-0.1,0.2-0.1,0.4c0,0.1,0,0.2,0,0.3
				s0.1,0.2,0.2,0.3c0.1,0.1,0.1,0.2,0.2,0.2c0,0,0.1,0.1,0.2,0.2l0.6,0.5c0.2,0.1,0.3,0.3,0.4,0.4c0.1,0.1,0.2,0.3,0.3,0.4
				c0.1,0.2,0.2,0.3,0.2,0.5c0.1,0.2,0.1,0.4,0.1,0.6c0,0.4-0.1,0.8-0.4,1.1c-0.3,0.3-0.6,0.5-1.1,0.5v1H35.3z"/>
			<path class="st3" d="M35.3,367.4v-0.8c-0.6,0-1-0.2-1.3-0.5c-0.3-0.3-0.4-0.9-0.5-1.6l1.3-0.2c0,0.4,0.1,0.7,0.2,0.9
				c0.1,0.2,0.2,0.3,0.4,0.3s0.4-0.2,0.4-0.5c0-0.2,0-0.3-0.1-0.5s-0.1-0.3-0.2-0.4c-0.1-0.1-0.2-0.2-0.4-0.4l-0.6-0.5
				c-0.1-0.1-0.3-0.2-0.4-0.3c-0.1-0.1-0.2-0.2-0.3-0.4c-0.1-0.1-0.2-0.3-0.2-0.5c0-0.2-0.1-0.4-0.1-0.6c0-0.5,0.1-0.9,0.4-1.2
				c0.3-0.3,0.7-0.5,1.2-0.5v-0.8h0.4v0.8c0.2,0,0.3,0,0.5,0.1c0.1,0.1,0.3,0.1,0.4,0.2c0.1,0.1,0.2,0.2,0.3,0.3s0.1,0.2,0.2,0.3
				c0,0.1,0.1,0.2,0.1,0.3s0,0.2,0.1,0.3c0,0.1,0,0.2,0,0.3l-1.3,0.2c0-0.1,0-0.2,0-0.3s0-0.2,0-0.2c0-0.1,0-0.1,0-0.2
				c0-0.1,0-0.1-0.1-0.1l-0.1-0.1c0,0-0.1,0-0.2,0c-0.1,0-0.2,0.1-0.3,0.2c-0.1,0.1-0.1,0.2-0.1,0.4c0,0.1,0,0.2,0,0.3
				s0.1,0.2,0.2,0.3c0.1,0.1,0.1,0.2,0.2,0.2c0,0,0.1,0.1,0.2,0.2l0.6,0.5c0.2,0.1,0.3,0.3,0.4,0.4c0.1,0.1,0.2,0.3,0.3,0.4
				c0.1,0.2,0.2,0.3,0.2,0.5c0.1,0.2,0.1,0.4,0.1,0.6c0,0.4-0.1,0.8-0.4,1.1c-0.3,0.3-0.6,0.5-1.1,0.5v1H35.3z"/>
		</g>
	</g>
	<g>
		<g id="XMLID_66_">
			<path id="XMLID_67_" class="st4" d="M42.7,363.2c0-4-3.3-7.3-7.3-7.3s-7.3,3.3-7.3,7.3s3.3,7.3,7.3,7.3
				C39.5,370.5,42.7,367.2,42.7,363.2z"/>
		</g>
		<g id="XMLID_65_">
			<path class="st1" d="M35.3,367.4v-0.8c-0.6,0-1-0.2-1.3-0.5c-0.3-0.3-0.4-0.9-0.5-1.6l1.3-0.2c0,0.4,0.1,0.7,0.2,0.9
				c0.1,0.2,0.2,0.3,0.4,0.3s0.4-0.2,0.4-0.5c0-0.2,0-0.3-0.1-0.5s-0.1-0.3-0.2-0.4c-0.1-0.1-0.2-0.2-0.4-0.4l-0.6-0.5
				c-0.1-0.1-0.3-0.2-0.4-0.3c-0.1-0.1-0.2-0.2-0.3-0.4c-0.1-0.1-0.2-0.3-0.2-0.5c0-0.2-0.1-0.4-0.1-0.6c0-0.5,0.1-0.9,0.4-1.2
				c0.3-0.3,0.7-0.5,1.2-0.5v-0.8h0.4v0.8c0.2,0,0.3,0,0.5,0.1c0.1,0.1,0.3,0.1,0.4,0.2c0.1,0.1,0.2,0.2,0.3,0.3s0.1,0.2,0.2,0.3
				c0,0.1,0.1,0.2,0.1,0.3s0,0.2,0.1,0.3c0,0.1,0,0.2,0,0.3l-1.3,0.2c0-0.1,0-0.2,0-0.3s0-0.2,0-0.2c0-0.1,0-0.1,0-0.2
				c0-0.1,0-0.1-0.1-0.1l-0.1-0.1c0,0-0.1,0-0.2,0c-0.1,0-0.2,0.1-0.3,0.2c-0.1,0.1-0.1,0.2-0.1,0.4c0,0.1,0,0.2,0,0.3
				s0.1,0.2,0.2,0.3c0.1,0.1,0.1,0.2,0.2,0.2c0,0,0.1,0.1,0.2,0.2l0.6,0.5c0.2,0.1,0.3,0.3,0.4,0.4c0.1,0.1,0.2,0.3,0.3,0.4
				c0.1,0.2,0.2,0.3,0.2,0.5c0.1,0.2,0.1,0.4,0.1,0.6c0,0.4-0.1,0.8-0.4,1.1c-0.3,0.3-0.6,0.5-1.1,0.5v1H35.3z"/>
		</g>
	</g>
</g>
<g id="XMLID_210_">
	<g>
		<g id="XMLID_61_">
			<path id="XMLID_62_" class="st3" d="M66.4,448c0-4-3.3-7.3-7.3-7.3s-7.3,3.3-7.3,7.3s3.3,7.3,7.3,7.3
				C63.2,455.3,66.4,452.1,66.4,448z"/>
		</g>
		<g id="XMLID_60_">
			<path class="st3" d="M59,452.2v-0.8c-0.6,0-1-0.2-1.3-0.5s-0.4-0.9-0.5-1.6l1.3-0.2c0,0.4,0.1,0.7,0.2,0.9
				c0.1,0.2,0.2,0.3,0.4,0.3s0.4-0.2,0.4-0.5c0-0.2,0-0.3-0.1-0.5c-0.1-0.2-0.1-0.3-0.2-0.4c-0.1-0.1-0.2-0.2-0.4-0.4l-0.6-0.5
				c-0.1-0.1-0.3-0.2-0.4-0.3c-0.1-0.1-0.2-0.2-0.3-0.4c-0.1-0.1-0.2-0.3-0.2-0.5c0-0.2-0.1-0.4-0.1-0.6c0-0.5,0.1-0.9,0.4-1.2
				c0.3-0.3,0.7-0.5,1.2-0.5v-0.8h0.4v0.8c0.2,0,0.3,0,0.5,0.1c0.1,0.1,0.3,0.1,0.4,0.2c0.1,0.1,0.2,0.2,0.3,0.3s0.1,0.2,0.2,0.3
				c0,0.1,0.1,0.2,0.1,0.3c0,0.1,0,0.2,0.1,0.3c0,0.1,0,0.2,0,0.3l-1.3,0.2c0-0.1,0-0.2,0-0.3s0-0.2,0-0.2c0-0.1,0-0.1,0-0.2
				s0-0.1-0.1-0.1l-0.1-0.1c0,0-0.1,0-0.2,0c-0.1,0-0.2,0.1-0.3,0.2s-0.1,0.2-0.1,0.4c0,0.1,0,0.2,0,0.3c0,0.1,0.1,0.2,0.2,0.3
				c0.1,0.1,0.1,0.2,0.2,0.2c0,0,0.1,0.1,0.2,0.2l0.6,0.5c0.2,0.1,0.3,0.3,0.4,0.4c0.1,0.1,0.2,0.3,0.3,0.4c0.1,0.2,0.2,0.3,0.2,0.5
				c0.1,0.2,0.1,0.4,0.1,0.6c0,0.4-0.1,0.8-0.4,1.1c-0.3,0.3-0.6,0.5-1.1,0.5v0.8H59V452.2z"/>
			<path class="st3" d="M59,452.2v-0.8c-0.6,0-1-0.2-1.3-0.5s-0.4-0.9-0.5-1.6l1.3-0.2c0,0.4,0.1,0.7,0.2,0.9
				c0.1,0.2,0.2,0.3,0.4,0.3s0.4-0.2,0.4-0.5c0-0.2,0-0.3-0.1-0.5c-0.1-0.2-0.1-0.3-0.2-0.4c-0.1-0.1-0.2-0.2-0.4-0.4l-0.6-0.5
				c-0.1-0.1-0.3-0.2-0.4-0.3c-0.1-0.1-0.2-0.2-0.3-0.4c-0.1-0.1-0.2-0.3-0.2-0.5c0-0.2-0.1-0.4-0.1-0.6c0-0.5,0.1-0.9,0.4-1.2
				c0.3-0.3,0.7-0.5,1.2-0.5v-0.8h0.4v0.8c0.2,0,0.3,0,0.5,0.1c0.1,0.1,0.3,0.1,0.4,0.2c0.1,0.1,0.2,0.2,0.3,0.3s0.1,0.2,0.2,0.3
				c0,0.1,0.1,0.2,0.1,0.3c0,0.1,0,0.2,0.1,0.3c0,0.1,0,0.2,0,0.3l-1.3,0.2c0-0.1,0-0.2,0-0.3s0-0.2,0-0.2c0-0.1,0-0.1,0-0.2
				s0-0.1-0.1-0.1l-0.1-0.1c0,0-0.1,0-0.2,0c-0.1,0-0.2,0.1-0.3,0.2s-0.1,0.2-0.1,0.4c0,0.1,0,0.2,0,0.3c0,0.1,0.1,0.2,0.2,0.3
				c0.1,0.1,0.1,0.2,0.2,0.2c0,0,0.1,0.1,0.2,0.2l0.6,0.5c0.2,0.1,0.3,0.3,0.4,0.4c0.1,0.1,0.2,0.3,0.3,0.4c0.1,0.2,0.2,0.3,0.2,0.5
				c0.1,0.2,0.1,0.4,0.1,0.6c0,0.4-0.1,0.8-0.4,1.1c-0.3,0.3-0.6,0.5-1.1,0.5v0.8H59V452.2z"/>
		</g>
	</g>
	<g>
		<g id="XMLID_57_">
			<path id="XMLID_58_" class="st4" d="M66.4,448c0-4-3.3-7.3-7.3-7.3s-7.3,3.3-7.3,7.3s3.3,7.3,7.3,7.3
				C63.2,455.3,66.4,452.1,66.4,448z"/>
		</g>
		<g id="XMLID_56_">
			<path class="st1" d="M59,452.2v-0.8c-0.6,0-1-0.2-1.3-0.5s-0.4-0.9-0.5-1.6l1.3-0.2c0,0.4,0.1,0.7,0.2,0.9
				c0.1,0.2,0.2,0.3,0.4,0.3s0.4-0.2,0.4-0.5c0-0.2,0-0.3-0.1-0.5c-0.1-0.2-0.1-0.3-0.2-0.4c-0.1-0.1-0.2-0.2-0.4-0.4l-0.6-0.5
				c-0.1-0.1-0.3-0.2-0.4-0.3c-0.1-0.1-0.2-0.2-0.3-0.4c-0.1-0.1-0.2-0.3-0.2-0.5c0-0.2-0.1-0.4-0.1-0.6c0-0.5,0.1-0.9,0.4-1.2
				c0.3-0.3,0.7-0.5,1.2-0.5v-0.8h0.4v0.8c0.2,0,0.3,0,0.5,0.1c0.1,0.1,0.3,0.1,0.4,0.2c0.1,0.1,0.2,0.2,0.3,0.3s0.1,0.2,0.2,0.3
				c0,0.1,0.1,0.2,0.1,0.3c0,0.1,0,0.2,0.1,0.3c0,0.1,0,0.2,0,0.3l-1.3,0.2c0-0.1,0-0.2,0-0.3s0-0.2,0-0.2c0-0.1,0-0.1,0-0.2
				s0-0.1-0.1-0.1l-0.1-0.1c0,0-0.1,0-0.2,0c-0.1,0-0.2,0.1-0.3,0.2s-0.1,0.2-0.1,0.4c0,0.1,0,0.2,0,0.3c0,0.1,0.1,0.2,0.2,0.3
				c0.1,0.1,0.1,0.2,0.2,0.2c0,0,0.1,0.1,0.2,0.2l0.6,0.5c0.2,0.1,0.3,0.3,0.4,0.4c0.1,0.1,0.2,0.3,0.3,0.4c0.1,0.2,0.2,0.3,0.2,0.5
				c0.1,0.2,0.1,0.4,0.1,0.6c0,0.4-0.1,0.8-0.4,1.1c-0.3,0.3-0.6,0.5-1.1,0.5v0.8H59V452.2z"/>
		</g>
	</g>
</g>
<g id="XMLID_1_">
	<g>
		<g id="XMLID_52_">
			<path id="XMLID_53_" class="st3" d="M22.3,453.4c0-5.9-4.8-10.6-10.6-10.6c-5.9,0-10.6,4.8-10.6,10.6c0,5.9,4.8,10.6,10.6,10.6
				C17.6,464,22.3,459.2,22.3,453.4z"/>
		</g>
		<g id="XMLID_49_">
			<path class="st3" d="M11.5,459.5v-1.2c-0.8,0-1.5-0.3-1.9-0.8s-0.6-1.3-0.7-2.3l1.8-0.3c0,0.6,0.1,1,0.2,1.3
				c0.1,0.3,0.3,0.4,0.6,0.4c0.4,0,0.5-0.2,0.5-0.7c0-0.3,0-0.5-0.1-0.7c-0.1-0.2-0.2-0.4-0.3-0.6s-0.3-0.3-0.6-0.6l-0.9-0.7
				c-0.2-0.2-0.4-0.3-0.5-0.5c-0.1-0.1-0.3-0.3-0.4-0.5c-0.1-0.2-0.2-0.4-0.3-0.7c-0.1-0.2-0.1-0.5-0.1-0.8c0-0.7,0.2-1.3,0.6-1.8
				c0.4-0.4,1-0.7,1.8-0.7v-1.1h0.6v1.1c0.3,0,0.5,0.1,0.7,0.1c0.2,0.1,0.4,0.2,0.5,0.3s0.3,0.2,0.4,0.4c0.1,0.2,0.2,0.3,0.3,0.5
				c0.1,0.1,0.1,0.3,0.2,0.5c0,0.2,0.1,0.4,0.1,0.5s0,0.3,0,0.5l-1.9,0.2c0-0.2,0-0.3,0-0.4c0-0.1,0-0.2,0-0.3s0-0.2-0.1-0.3
				c0-0.1-0.1-0.1-0.1-0.2s-0.1-0.1-0.2-0.1c-0.1,0-0.1,0-0.2,0c-0.2,0-0.3,0.1-0.4,0.2c-0.1,0.2-0.1,0.3-0.1,0.5
				c0,0.2,0,0.4,0.1,0.5c0,0.1,0.1,0.3,0.2,0.4c0.1,0.1,0.2,0.2,0.3,0.3c0.1,0.1,0.2,0.2,0.4,0.3l0.8,0.7c0.2,0.2,0.4,0.4,0.6,0.6
				c0.2,0.2,0.3,0.4,0.5,0.6c0.1,0.2,0.3,0.5,0.3,0.8c0.1,0.3,0.1,0.6,0.1,0.9c0,0.6-0.2,1.2-0.6,1.6c-0.4,0.4-0.9,0.7-1.6,0.8v1.2
				L11.5,459.5L11.5,459.5z"/>
			<path class="st3" d="M11.5,459.5v-1.2c-0.8,0-1.5-0.3-1.9-0.8s-0.6-1.3-0.7-2.3l1.8-0.3c0,0.6,0.1,1,0.2,1.3
				c0.1,0.3,0.3,0.4,0.6,0.4c0.4,0,0.5-0.2,0.5-0.7c0-0.3,0-0.5-0.1-0.7c-0.1-0.2-0.2-0.4-0.3-0.6s-0.3-0.3-0.6-0.6l-0.9-0.7
				c-0.2-0.2-0.4-0.3-0.5-0.5c-0.1-0.1-0.3-0.3-0.4-0.5c-0.1-0.2-0.2-0.4-0.3-0.7c-0.1-0.2-0.1-0.5-0.1-0.8c0-0.7,0.2-1.3,0.6-1.8
				c0.4-0.4,1-0.7,1.8-0.7v-1.1h0.6v1.1c0.3,0,0.5,0.1,0.7,0.1c0.2,0.1,0.4,0.2,0.5,0.3s0.3,0.2,0.4,0.4c0.1,0.2,0.2,0.3,0.3,0.5
				c0.1,0.1,0.1,0.3,0.2,0.5c0,0.2,0.1,0.4,0.1,0.5s0,0.3,0,0.5l-1.9,0.2c0-0.2,0-0.3,0-0.4c0-0.1,0-0.2,0-0.3s0-0.2-0.1-0.3
				c0-0.1-0.1-0.1-0.1-0.2s-0.1-0.1-0.2-0.1c-0.1,0-0.1,0-0.2,0c-0.2,0-0.3,0.1-0.4,0.2c-0.1,0.2-0.1,0.3-0.1,0.5
				c0,0.2,0,0.4,0.1,0.5c0,0.1,0.1,0.3,0.2,0.4c0.1,0.1,0.2,0.2,0.3,0.3c0.1,0.1,0.2,0.2,0.4,0.3l0.8,0.7c0.2,0.2,0.4,0.4,0.6,0.6
				c0.2,0.2,0.3,0.4,0.5,0.6c0.1,0.2,0.3,0.5,0.3,0.8c0.1,0.3,0.1,0.6,0.1,0.9c0,0.6-0.2,1.2-0.6,1.6c-0.4,0.4-0.9,0.7-1.6,0.8v1.2
				L11.5,459.5L11.5,459.5z"/>
		</g>
	</g>
	<g>
		<g id="XMLID_44_">
			<path id="XMLID_45_" class="st4" d="M22.3,453.4c0-5.9-4.8-10.6-10.6-10.6c-5.9,0-10.6,4.8-10.6,10.6c0,5.9,4.8,10.6,10.6,10.6
				C17.6,464,22.3,459.2,22.3,453.4z"/>
		</g>
		<g id="XMLID_43_">
			<path class="st1" d="M11.5,459.5v-1.2c-0.8,0-1.5-0.3-1.9-0.8s-0.6-1.3-0.7-2.3l1.8-0.3c0,0.6,0.1,1,0.2,1.3
				c0.1,0.3,0.3,0.4,0.6,0.4c0.4,0,0.5-0.2,0.5-0.7c0-0.3,0-0.5-0.1-0.7c-0.1-0.2-0.2-0.4-0.3-0.6s-0.3-0.3-0.6-0.6l-0.9-0.7
				c-0.2-0.2-0.4-0.3-0.5-0.5c-0.1-0.1-0.3-0.3-0.4-0.5c-0.1-0.2-0.2-0.4-0.3-0.7c-0.1-0.2-0.1-0.5-0.1-0.8c0-0.7,0.2-1.3,0.6-1.8
				c0.4-0.4,1-0.7,1.8-0.7v-1.1h0.6v1.1c0.3,0,0.5,0.1,0.7,0.1c0.2,0.1,0.4,0.2,0.5,0.3s0.3,0.2,0.4,0.4c0.1,0.2,0.2,0.3,0.3,0.5
				c0.1,0.1,0.1,0.3,0.2,0.5c0,0.2,0.1,0.4,0.1,0.5s0,0.3,0,0.5l-1.9,0.2c0-0.2,0-0.3,0-0.4c0-0.1,0-0.2,0-0.3s0-0.2-0.1-0.3
				c0-0.1-0.1-0.1-0.1-0.2s-0.1-0.1-0.2-0.1c-0.1,0-0.1,0-0.2,0c-0.2,0-0.3,0.1-0.4,0.2c-0.1,0.2-0.1,0.3-0.1,0.5
				c0,0.2,0,0.4,0.1,0.5c0,0.1,0.1,0.3,0.2,0.4c0.1,0.1,0.2,0.2,0.3,0.3c0.1,0.1,0.2,0.2,0.4,0.3l0.8,0.7c0.2,0.2,0.4,0.4,0.6,0.6
				c0.2,0.2,0.3,0.4,0.5,0.6c0.1,0.2,0.3,0.5,0.3,0.8c0.1,0.3,0.1,0.6,0.1,0.9c0,0.6-0.2,1.2-0.6,1.6c-0.4,0.4-0.9,0.7-1.6,0.8v1.2
				L11.5,459.5L11.5,459.5z"/>
		</g>
	</g>
</g>
<g id="XMLID_28_">
	<g>
		<g id="XMLID_39_">
			<path id="XMLID_40_" class="st3" d="M0.3,369.6c0-5.9-4.8-10.6-10.6-10.6c-5.9,0-10.6,4.8-10.6,10.6c0,5.9,4.8,10.6,10.6,10.6
				C-4.4,380.2,0.3,375.4,0.3,369.6z"/>
		</g>
		<g id="XMLID_38_">
			<path class="st3" d="M-10.4,375.7v-1.2c-0.8,0-1.5-0.3-1.9-0.8s-0.6-1.3-0.7-2.3l1.8-0.3c0,0.6,0.1,1,0.2,1.3
				c0.1,0.3,0.3,0.4,0.6,0.4c0.4,0,0.5-0.2,0.5-0.7c0-0.3,0-0.5-0.1-0.7s-0.2-0.4-0.3-0.6c-0.1-0.2-0.3-0.3-0.6-0.6l-0.9-0.7
				c-0.2-0.2-0.4-0.3-0.5-0.5c-0.1-0.1-0.3-0.3-0.4-0.5c-0.1-0.2-0.2-0.4-0.3-0.7c-0.1-0.2-0.1-0.5-0.1-0.8c0-0.7,0.2-1.3,0.6-1.8
				c0.4-0.4,1-0.7,1.8-0.7v-1.1h0.6v1.1c0.3,0,0.5,0.1,0.7,0.1c0.2,0.1,0.4,0.2,0.5,0.3s0.3,0.2,0.4,0.4c0.1,0.2,0.2,0.3,0.3,0.5
				c0.1,0.1,0.1,0.3,0.2,0.5c0,0.2,0.1,0.4,0.1,0.5c0,0.1,0,0.3,0,0.5l-1.9,0.2c0-0.2,0-0.3,0-0.4s0-0.2,0-0.3c0-0.1,0-0.2-0.1-0.3
				c0-0.1-0.1-0.1-0.1-0.2c0-0.1-0.1-0.1-0.2-0.1c-0.1,0-0.1,0-0.2,0c-0.2,0-0.3,0.1-0.4,0.2c-0.1,0.2-0.1,0.3-0.1,0.5
				c0,0.2,0,0.4,0.1,0.5c0,0.1,0.1,0.3,0.2,0.4c0.1,0.1,0.2,0.2,0.3,0.3s0.2,0.2,0.4,0.3l0.8,0.7c0.2,0.2,0.4,0.4,0.6,0.6
				c0.2,0.2,0.3,0.4,0.5,0.6c0.1,0.2,0.3,0.5,0.3,0.8c0.1,0.3,0.1,0.6,0.1,0.9c0,0.6-0.2,1.2-0.6,1.6c-0.4,0.4-0.9,0.7-1.6,0.8v1.2
				L-10.4,375.7L-10.4,375.7z"/>
			<path class="st3" d="M-10.4,375.7v-1.2c-0.8,0-1.5-0.3-1.9-0.8s-0.6-1.3-0.7-2.3l1.8-0.3c0,0.6,0.1,1,0.2,1.3
				c0.1,0.3,0.3,0.4,0.6,0.4c0.4,0,0.5-0.2,0.5-0.7c0-0.3,0-0.5-0.1-0.7s-0.2-0.4-0.3-0.6c-0.1-0.2-0.3-0.3-0.6-0.6l-0.9-0.7
				c-0.2-0.2-0.4-0.3-0.5-0.5c-0.1-0.1-0.3-0.3-0.4-0.5c-0.1-0.2-0.2-0.4-0.3-0.7c-0.1-0.2-0.1-0.5-0.1-0.8c0-0.7,0.2-1.3,0.6-1.8
				c0.4-0.4,1-0.7,1.8-0.7v-1.1h0.6v1.1c0.3,0,0.5,0.1,0.7,0.1c0.2,0.1,0.4,0.2,0.5,0.3s0.3,0.2,0.4,0.4c0.1,0.2,0.2,0.3,0.3,0.5
				c0.1,0.1,0.1,0.3,0.2,0.5c0,0.2,0.1,0.4,0.1,0.5c0,0.1,0,0.3,0,0.5l-1.9,0.2c0-0.2,0-0.3,0-0.4s0-0.2,0-0.3c0-0.1,0-0.2-0.1-0.3
				c0-0.1-0.1-0.1-0.1-0.2c0-0.1-0.1-0.1-0.2-0.1c-0.1,0-0.1,0-0.2,0c-0.2,0-0.3,0.1-0.4,0.2c-0.1,0.2-0.1,0.3-0.1,0.5
				c0,0.2,0,0.4,0.1,0.5c0,0.1,0.1,0.3,0.2,0.4c0.1,0.1,0.2,0.2,0.3,0.3s0.2,0.2,0.4,0.3l0.8,0.7c0.2,0.2,0.4,0.4,0.6,0.6
				c0.2,0.2,0.3,0.4,0.5,0.6c0.1,0.2,0.3,0.5,0.3,0.8c0.1,0.3,0.1,0.6,0.1,0.9c0,0.6-0.2,1.2-0.6,1.6c-0.4,0.4-0.9,0.7-1.6,0.8v1.2
				L-10.4,375.7L-10.4,375.7z"/>
		</g>
	</g>
	<g>
		<g id="XMLID_32_">
			<path id="XMLID_36_" class="st4" d="M0.3,369.6c0-5.9-4.8-10.6-10.6-10.6c-5.9,0-10.6,4.8-10.6,10.6c0,5.9,4.8,10.6,10.6,10.6
				C-4.4,380.2,0.3,375.4,0.3,369.6z"/>
		</g>
		<g id="XMLID_29_">
			<path class="st1" d="M-10.4,375.7v-1.2c-0.8,0-1.5-0.3-1.9-0.8s-0.6-1.3-0.7-2.3l1.8-0.3c0,0.6,0.1,1,0.2,1.3
				c0.1,0.3,0.3,0.4,0.6,0.4c0.4,0,0.5-0.2,0.5-0.7c0-0.3,0-0.5-0.1-0.7s-0.2-0.4-0.3-0.6c-0.1-0.2-0.3-0.3-0.6-0.6l-0.9-0.7
				c-0.2-0.2-0.4-0.3-0.5-0.5c-0.1-0.1-0.3-0.3-0.4-0.5c-0.1-0.2-0.2-0.4-0.3-0.7c-0.1-0.2-0.1-0.5-0.1-0.8c0-0.7,0.2-1.3,0.6-1.8
				c0.4-0.4,1-0.7,1.8-0.7v-1.1h0.6v1.1c0.3,0,0.5,0.1,0.7,0.1c0.2,0.1,0.4,0.2,0.5,0.3s0.3,0.2,0.4,0.4c0.1,0.2,0.2,0.3,0.3,0.5
				c0.1,0.1,0.1,0.3,0.2,0.5c0,0.2,0.1,0.4,0.1,0.5c0,0.1,0,0.3,0,0.5l-1.9,0.2c0-0.2,0-0.3,0-0.4s0-0.2,0-0.3c0-0.1,0-0.2-0.1-0.3
				c0-0.1-0.1-0.1-0.1-0.2c0-0.1-0.1-0.1-0.2-0.1c-0.1,0-0.1,0-0.2,0c-0.2,0-0.3,0.1-0.4,0.2c-0.1,0.2-0.1,0.3-0.1,0.5
				c0,0.2,0,0.4,0.1,0.5c0,0.1,0.1,0.3,0.2,0.4c0.1,0.1,0.2,0.2,0.3,0.3s0.2,0.2,0.4,0.3l0.8,0.7c0.2,0.2,0.4,0.4,0.6,0.6
				c0.2,0.2,0.3,0.4,0.5,0.6c0.1,0.2,0.3,0.5,0.3,0.8c0.1,0.3,0.1,0.6,0.1,0.9c0,0.6-0.2,1.2-0.6,1.6c-0.4,0.4-0.9,0.7-1.6,0.8v1.2
				L-10.4,375.7L-10.4,375.7z"/>
		</g>
	</g>
</g>
<g>
	<g>
		<g>
			<g>
				<g>
					<g>
						<path class="st4" d="M-49.4,382.2c-1.1-3.3-4-5.7-7.6-6.2l-34.1-5.1l-14.8-30.7c-1.5-3.2-4.9-5.3-8.5-5.3
							c-3.7,0-7,2.1-8.6,5.3l-14.9,30.8l-34.1,5c-3.5,0.6-6.4,3-7.5,6.2c-1.1,3.3-0.3,6.9,2.2,9.4l25,24.9l-5.8,34.6
							c-0.6,3.5,0.9,7,3.9,9c1.6,1.1,3.5,1.7,5.4,1.7c1.6,0,3.2-0.4,4.6-1.2l29.7-16l29.7,16c1.4,0.8,3,1.2,4.6,1.2
							c1.9,0,3.8-0.6,5.5-1.7c3-2,4.5-5.5,3.9-9l-5.8-34.6l25-24.9C-49.1,389.1-48.3,385.5-49.4,382.2L-49.4,382.2z M-49.4,382.2
							c-1.1-3.3-4-5.7-7.6-6.2l-34.1-5.1l-14.8-30.7c-1.5-3.2-4.9-5.3-8.5-5.3c-3.7,0-7,2.1-8.6,5.3l-14.9,30.8l-34.1,5
							c-3.5,0.6-6.4,3-7.5,6.2c-1.1,3.3-0.3,6.9,2.2,9.4l25,24.9l-5.8,34.6c-0.6,3.5,0.9,7,3.9,9c1.6,1.1,3.5,1.7,5.4,1.7
							c1.6,0,3.2-0.4,4.6-1.2l29.7-16l29.7,16c1.4,0.8,3,1.2,4.6,1.2c1.9,0,3.8-0.6,5.5-1.7c3-2,4.5-5.5,3.9-9l-5.8-34.6l25-24.9
							C-49.1,389.1-48.3,385.5-49.4,382.2L-49.4,382.2z"/>
					</g>
				</g>
			</g>
		</g>
	</g>
	<g>
		<path class="st5" d="M-48.7,381.2c-1.1-3.3-4-5.7-7.6-6.2l-34.1-5.1l-14.8-30.7c-1.6-3.2-4.9-5.3-8.6-5.3s-7,2.1-8.6,5.3
			l-14.8,30.8l-34.1,5c-3.5,0.5-6.4,2.9-7.6,6.2c-1.1,3.3-0.3,6.9,2.2,9.4l25,24.9l-4.1,24.7l29.1-7.6v-1.8c-4-4.2-6.4-10.2-7-14.1
			c-1.1-0.3-2.2-0.9-3.1-1.8c-3.4-3.6-4-11.3-3.8-14.8c0.1-2.1,1.1-2.9,1.9-3.3c1.4-0.6,3.1-0.1,4.5,0.7c0-4.9,0-8.5,0.2-10.6
			c0.1-1.7,0.3-4,1.1-6.3l0,0l0,0c2.4-6.7,8.9-10.1,19.3-10.1c11.4,0,17.9,3.9,19.8,12l0,0l0,0c0.4,1.6,0.5,3.2,0.6,4.4
			c0.1,2.1,0.2,5.6,0.2,10.6c1.4-0.7,3.1-1.3,4.5-0.7c0.8,0.4,1.8,1.2,1.9,3.3c0.2,3.5-0.4,11.2-3.8,14.8c-0.9,1-1.9,1.6-3.1,1.8
			c-0.7,3.9-2,9.9-7,14.1v1.8l29,7.6l-4.2-24.7l25-24.9C-48.4,388.1-47.6,384.5-48.7,381.2z"/>
		<path class="st6" d="M-89.7,400c0-0.6-0.2-0.8-0.2-0.8c-0.4-0.2-2.1,0.5-3.4,1.6c0,6.7-0.2,12.7-0.2,12.7s0,0.1,0,0.3
			c0.2-0.1,0.4-0.3,0.6-0.5C-90.2,410.4-89.5,403.5-89.7,400z"/>
		<path class="st1" d="M-106.3,433.7c-2.2,0.9-4.7,1.3-7.4,1.3c-2.7,0-5.2-0.5-7.4-1.3l-2.5,0.7v14.6l10-5.6l10,5.6v-14.6
			L-106.3,433.7z"/>
		<path class="st6" d="M-137.7,398.8c0,0-0.1,0.2-0.2,0.9c-0.2,3.8,0.5,10.7,3.2,13.6c0.2,0.2,0.4,0.4,0.6,0.5c0-0.2,0-0.3,0-0.3
			s-0.1-6.2-0.2-13.1C-135.6,399.3-137.3,398.5-137.7,398.8z"/>
		<path class="st1" d="M-134,413.3c-0.2-0.1-0.4-0.3-0.6-0.5c-2.5-2.7-3.2-9.2-3-12.7c0-0.6,0.2-0.8,0.2-0.8
			c0.4-0.2,1.9,0.5,3.3,1.4c0-0.2,0-0.5,0-0.7c0-0.9,0-1.8,0-2.7c-1.4-0.7-3.1-1.3-4.5-0.7c-0.8,0.4-1.8,1.2-1.9,3.3
			c-0.2,3.6,0.4,11.2,3.8,14.8c0.9,0.9,1.9,1.5,3.1,1.8c-0.1-0.4-0.1-0.8-0.2-1.1C-133.9,414.5-133.9,413.7-134,413.3z"/>
		<path class="st1" d="M-93.5,400.2c0,0.3,0,0.5,0,0.8c1.3-0.9,2.8-1.6,3.3-1.5c0,0,0.1,0.2,0.2,0.8c0.2,3.5-0.5,10-3,12.7
			c-0.2,0.2-0.4,0.4-0.6,0.5c0,0.4-0.1,1.2-0.2,2.2c-0.1,0.3-0.1,0.7-0.2,1.1c1.2-0.3,2.2-0.9,3.1-1.8c3.4-3.6,4-11.3,3.8-14.8
			c-0.1-2.1-1.1-2.9-1.9-3.3c-1.4-0.6-3.1-0.1-4.5,0.7C-93.5,398.4-93.5,399.3-93.5,400.2z"/>
		<g>
			<path class="st0" d="M-126.2,431.3c-0.2-0.2-0.3-0.3-0.5-0.5v1.8l1.7-0.4C-125.4,431.9-125.8,431.6-126.2,431.3z"/>
			<path class="st0" d="M-113.9,443.7l-7.1-9.5h-0.2c-0.2-0.1-0.3-0.1-0.5-0.2c-1.1-0.4-2.3-1.1-3.3-1.8l-1.7,0.4l-29.1,7.6
				l-0.5,3.1l-1.1,6.8c-0.6,3.5,0.9,7,3.9,9c1.6,1.1,3.5,1.7,5.4,1.7c1.6,0,3.2-0.4,4.6-1.2l16.8-9c0,0,0,0,0,0L-113.9,443.7z"/>
		</g>
		<path class="st0" d="M-70.5,450.7l-1.3-6.7l0-0.3l-0.5-3.6l-28.5-7.5v-1.9c-0.2,0.2-0.3,0.3-0.5,0.5c-0.4,0.3-0.8,0.6-1.2,0.9
			c-1.1,0.8-2.2,1.4-3.4,1.8c-0.1,0.1-0.2,0.1-0.3,0.1l-0.1,0l-0.1,0.1c0,0,0,0,0,0l0,0l-7.6,9.5l12,6.4h0l18,9.7
			c1.4,0.8,3,1.2,4.5,1.2c1.9,0,3.8-0.6,5.5-1.7C-71,457.3-69.9,454.2-70.5,450.7z"/>
		<path class="st1" d="M-93.4,386.8c-0.1-1.2-0.2-2.8-0.6-4.4c0.1,0.5,0,1.1-0.5,1.5c-0.7,0.5-1.3,1-1.9,1.4
			c0.1,0.6-0.1,0.8-0.1,0.2c-5.9,4.1-11.1,5.1-14.8,5.1c-0.9-0.1-1.8-0.2-2.6-0.3l1,2.8c0.2,0.5,0.1,1.1-0.3,1.5
			c-0.3,0.3-0.7,0.5-1.1,0.5c-0.1,0-0.3,0-0.4-0.1c-7.8-2.2-13.4-7.4-16.2-10.6c0-0.1,0-0.2,0-0.3c-1.2-1.3-1.8-2.3-1.9-2.4
			c-0.3-0.4-0.3-0.9-0.2-1.3c-0.8,2.3-1,4.5-1.1,6.3c-0.1,2.1-0.2,5.6-0.2,10.6c0,0.9,0,1.8,0,2.7c0,0.2,0,0.5,0,0.7
			c0,6.4,0.2,12.2,0.2,12.2s0,0.1,0,0.3c0,0.4,0.1,1.2,0.2,2.2c0,0.3,0.1,0.7,0.2,1.1c0.7,3.9,2.5,9.9,7,14.1
			c0.2,0.2,0.3,0.3,0.5,0.5c0.4,0.5,0.8,0.8,1.2,1.1c1.1,0.8,2.2,1.4,3.3,1.8c0.2,0.1,0.3,0.1,0.5,0.2c2.2,0.9,4.7,1.3,7.4,1.3
			s5.2-0.5,7.4-1.3c0.1-0.1,0.3-0.1,0.5-0.2c1.2-0.5,2.3-1.1,3.4-1.8c0.4-0.3,0.8-0.6,1.2-0.9c0.2-0.2,0.3-0.3,0.5-0.5
			c4.5-4.2,6.3-10.2,7-14.1c0.1-0.4,0.1-0.8,0.2-1.1c0.1-1,0.2-1.8,0.2-2.2c0-0.2,0-0.3,0-0.3s0.1-5.8,0.2-12.2c0-0.2,0-0.5,0-0.8
			c0-0.9,0-1.8,0-2.7C-93.2,392.4-93.2,388.9-93.4,386.8z"/>
		<path class="st7" d="M-117.6,388.5c0,0.1,0,0.2,0.1,0.3C-117.6,388.7-117.6,388.6-117.6,388.5z"/>
		<path class="st7" d="M-116.3,386.8c-0.1,0-0.2,0-0.2,0C-116.5,386.8-116.4,386.8-116.3,386.8z"/>
		<path class="st7" d="M-117.6,387.8C-117.6,387.8-117.5,387.7-117.6,387.8C-117.5,387.7-117.5,387.7-117.6,387.8L-117.6,387.8z"/>
		<path class="st7" d="M-117.6,388.3c0-0.1,0-0.2,0-0.3C-117.6,388.1-117.6,388.2-117.6,388.3z"/>
		<path class="st7" d="M-115.7,386.9c-0.1,0-0.2-0.1-0.3-0.1C-115.9,386.8-115.8,386.9-115.7,386.9z"/>
		<path class="st7" d="M-116.8,387c-0.1,0-0.2,0.1-0.3,0.2C-117,387.1-116.9,387-116.8,387z"/>
		<path class="st0" d="M-94,382.5c-1.3-8.4-8.5-12.2-19.9-12.2c-10.4,0-16.9,3.4-19.3,10.1c0.3-0.2,0,1.1,0.3,1.5
			c0.1,0.1,0.7,1.1,1.9,2.4c2.8,3.1,8.4,8.5,16.3,10.7c0.1,0,0.3,0.1,0.4,0.1c0.4,0,0.8-0.2,1.1-0.5c0.4-0.4,0.5-1,0.3-1.5l-1-2.8
			l0-0.1c0.8,0.1,1.7,0.2,2.7,0.2c3.7,0,8.9-1,14.7-5.1c0.6-0.4,1.3-0.9,1.9-1.4C-94.1,383.5-94,382.5-94,382.5z M-115,387.5"/>
	</g>
</g>
</svg>
