<?xml version="1.0" encoding="utf-8"?>
<!-- Generator: Adobe Illustrator 19.1.0, SVG Export Plug-In . SVG Version: 6.00 Build 0)  -->
<svg version="1.1" id="Layer_1" xmlns="http://www.w3.org/2000/svg" xmlns:xlink="http://www.w3.org/1999/xlink" x="0px" y="0px"
	 viewBox="-179 313.3 251.4 167.7" style="enable-background:new -179 313.3 251.4 167.7;" xml:space="preserve">
<style type="text/css">
	.st0{fill:#10A6E0;}
	.st1{fill:#65C8CD;}
	.st2{fill:#F6A5B5;}
	.st3{fill:#FCBD1E;}
	.st4{fill:#FCFCFC;}
	.st5{fill:#111111;}
	.st6{fill:#0294BB;}
	.st7{fill:#FFE888;}
	.st8{fill:#F8D318;}
	.st9{fill:#FFFFFF;}
	.st10{fill:none;stroke:#1C1C1C;stroke-width:0.5;stroke-miterlimit:10;}
	.st11{fill:#FDFEFF;stroke:#1C1C1C;stroke-width:0.5;stroke-miterlimit:10;}
	.st12{fill:#4A4A4A;}
	.st13{fill:none;stroke:#000000;stroke-width:0.5;stroke-miterlimit:10;}
	.st14{fill:none;}
	.st15{fill:#E8E8E8;}
	.st16{fill:#F5F6F6;}
	.st17{fill:#010101;}
	.st18{fill:none;stroke:#10A6E0;stroke-miterlimit:10;}
</style>
<g>
	<g>
		<g>
			<g>
				<path class="st0" d="M10.6,371.4c-1.1-3.3-4-5.7-7.6-6.2l-34-5l-14.8-30.8c-1.6-3.2-4.9-5.3-8.6-5.3c-3.7,0-7,2.1-8.6,5.3
					l-14.8,30.8l-34.1,5.1c-3.5,0.5-6.4,2.9-7.6,6.2c-1.1,3.3-0.3,6.9,2.2,9.4l25,24.9l-5.8,34.6c-0.6,3.5,0.9,7,3.9,9
					c1.6,1.1,3.5,1.7,5.4,1.7c1.6,0,3.2-0.4,4.6-1.2l29.7-16l29.7,16c1.4,0.8,3,1.2,4.6,1.2c1.9,0,3.8-0.6,5.5-1.7
					c3-2,4.5-5.5,3.9-9l-5.8-34.6l25-24.9C10.9,378.3,11.8,374.7,10.6,371.4L10.6,371.4z M10.6,371.4c-1.1-3.3-4-5.7-7.6-6.2l-34-5
					l-14.8-30.8c-1.6-3.2-4.9-5.3-8.6-5.3c-3.7,0-7,2.1-8.6,5.3l-14.8,30.8l-34.1,5.1c-3.5,0.5-6.4,2.9-7.6,6.2
					c-1.1,3.3-0.3,6.9,2.2,9.4l25,24.9l-5.8,34.6c-0.6,3.5,0.9,7,3.9,9c1.6,1.1,3.5,1.7,5.4,1.7c1.6,0,3.2-0.4,4.6-1.2l29.7-16
					l29.7,16c1.4,0.8,3,1.2,4.6,1.2c1.9,0,3.8-0.6,5.5-1.7c3-2,4.5-5.5,3.9-9l-5.8-34.6l25-24.9C10.9,378.3,11.8,374.7,10.6,371.4
					L10.6,371.4z"/>
			</g>
		</g>
	</g>
</g>
<g>
	<path class="st1" d="M44,444.8c0,0.1,0.1,0.1,0.1,0.2C44.1,444.9,44,444.9,44,444.8L44,444.8z"/>
	<path class="st1" d="M44.4,445.6c-0.1-0.1-0.1-0.2-0.2-0.3C44.3,445.4,44.4,445.5,44.4,445.6L44.4,445.6z"/>
	<path class="st1" d="M44.8,446.2c-0.1-0.1-0.1-0.2-0.2-0.3C44.7,446,44.8,446.1,44.8,446.2L44.8,446.2z"/>
	<path class="st1" d="M11.6,433.2c-0.2,0.7-0.3,1.2-0.4,1.7C11.2,434.4,11.4,433.9,11.6,433.2L11.6,433.2z"/>
	<path class="st2" d="M40.3,416.2c-0.1-0.1-0.1-0.2-0.2-0.3C40.1,416,40.2,416.1,40.3,416.2L40.3,416.2z"/>
	<path class="st2" d="M39.9,415.7c-0.1-0.2-0.2-0.3-0.3-0.5C39.7,415.4,39.8,415.6,39.9,415.7L39.9,415.7z"/>
	<path class="st2" d="M51,422.2L51,422.2L51,422.2L51,422.2z"/>
	<path class="st2" d="M40.6,416.8c-0.1-0.1-0.1-0.2-0.2-0.3C40.5,416.6,40.6,416.7,40.6,416.8L40.6,416.8z"/>
	<path class="st3" d="M56.4,430.7c0,0.1,0,0.1,0.1,0.2C56.5,430.8,56.5,430.7,56.4,430.7L56.4,430.7z"/>
	<path class="st3" d="M56.7,431.5c0,0.1,0.1,0.2,0.1,0.3C56.8,431.7,56.8,431.6,56.7,431.5L56.7,431.5z"/>
	<path class="st3" d="M56.1,429.6c0,0.1,0.1,0.2,0.1,0.2C56.1,429.8,56.1,429.7,56.1,429.6L56.1,429.6z"/>
	<path class="st3" d="M55.7,428.8c0,0.1,0.1,0.2,0.1,0.3C55.8,429,55.8,428.9,55.7,428.8L55.7,428.8z"/>
	<path class="st3" d="M57,432.3c0,0.1,0.1,0.3,0.1,0.4C57,432.6,57,432.5,57,432.3L57,432.3z"/>
	<path class="st3" d="M57.4,434.1c0,0.1,0.1,0.3,0.1,0.4C57.5,434.4,57.4,434.2,57.4,434.1L57.4,434.1z"/>
	<path class="st3" d="M57.2,433.2c0,0.1,0.1,0.3,0.1,0.4C57.3,433.5,57.2,433.3,57.2,433.2L57.2,433.2z"/>
	<path class="st3" d="M55.5,428.4c0-0.1-0.1-0.2-0.1-0.3C55.4,428.2,55.5,428.3,55.5,428.4L55.5,428.4z"/>
	<path class="st3" d="M53.5,424.8c0.1,0.1,0.1,0.2,0.2,0.2C53.6,424.9,53.6,424.8,53.5,424.8L53.5,424.8z"/>
	<path class="st3" d="M53.1,424.2c0,0.1,0.1,0.1,0.1,0.2C53.2,424.3,53.1,424.2,53.1,424.2L53.1,424.2z"/>
	<path class="st3" d="M55,427.4c0.1,0.1,0.1,0.2,0.1,0.3C55.1,427.6,55.1,427.5,55,427.4L55,427.4z"/>
	<path class="st3" d="M54.7,426.7c0.1,0.1,0.1,0.2,0.2,0.3C54.8,426.9,54.7,426.8,54.7,426.7L54.7,426.7z"/>
	<path class="st3" d="M53.9,425.4c0.1,0.1,0.1,0.2,0.2,0.3C54,425.6,54,425.5,53.9,425.4L53.9,425.4z"/>
	<path class="st0" d="M42.7,443.2l16.3-1.4l0.2-3.9l-2.6-10.6l-4.9-6.7l-8.4-5.2l-4.3-0.9l-1,0.8c0,0,4.8,7.6,5.7,14.2
		C44.5,436.2,42.7,443.2,42.7,443.2z"/>
	<path class="st0" d="M10,435.4c0,0,3.5-12.4,9.7-16.6s12.4-5.2,12.4-5.2l4.9,0.6c0,0,6.3,5.4,6.7,15.2C44.1,439.2,42,443,42,443
		s-14-1.2-16.6-2.2C22.7,440,10.9,436.4,10,435.4z"/>
	<path class="st4" d="M42.7,444.4c0,0,5,8.7,10.3,11s17.8-1.9,17.8-1.9l-0.9-1.6l-10.6-9.2l-9,0.9L42.7,444.4z"/>
	<polygon class="st4" points="52.4,422.8 51,426.5 51.5,430.7 54,436 59.4,437.4 58.1,432.8 55.2,425.8 	"/>
	<polygon class="st0" points="10.9,431.6 16.1,433.5 16.6,427 13.1,426.5 	"/>
	<polygon class="st0" points="33.4,413 34.5,410.7 37.1,410.8 38.8,412.9 38.1,413.6 	"/>
	<g>
		<path class="st5" d="M54.3,426c0.1,0.1,0.1,0.2,0.2,0.3C54.4,426.2,54.4,426.1,54.3,426L54.3,426z"/>
		<path class="st0" d="M72.4,453c0-0.3-0.1-0.7-0.4-0.9l-11.6-10.4l0,0C60,423,49.1,416.3,42.6,414c-1-0.4-2-0.6-2.8-0.8
			c0-1.7-1-3.2-2.6-3.8c-0.4-0.1-0.8-0.2-1.2-0.2c-1.1,0-2.1,0.3-2.8,1.1c-0.7,0.7-1.1,1.5-1.2,2.5c-9.9,0.8-15.6,6.3-18.7,11.2
			c-3.8,5.9-4.6,12-4.6,12.2c-0.1,0.5,0.2,1,0.7,1.2l0,0c13.3,4.8,24,6.5,31.7,7c1,2.1,5,9.7,12.6,12.5l0,0c5.5,2,11.6,1,18.1-2.9
			C72.2,453.6,72.4,453.3,72.4,453L72.4,453z M52.7,423.6c2.4,3.1,4.3,7.2,5.2,12.7c-1.2,0-3.9-0.4-5.4-5.3
			C51,426.6,52,424.5,52.7,423.6L52.7,423.6z M34.3,412.5c0.1-0.3,0.3-0.6,0.5-0.8c0.3-0.3,0.8-0.5,1.3-0.5c0.2,0,0.4,0,0.5,0.1
			c0.6,0.2,1,0.7,1.1,1.3h-0.6 M13.8,427.4l1.9,0.7l-0.6,3.8l-2.9-1C12.7,429.8,13.2,428.6,13.8,427.4L13.8,427.4z M11,435.4
			c0.1-0.6,0.3-1.4,0.6-2.5l4.1,1.5c0.3,0.1,0.7,0.1,0.9-0.1c0.3-0.2,0.5-0.5,0.5-0.8l0.9-6c0.1-0.5-0.2-1-0.7-1.2l-2.4-0.9
			c0.1-0.2,0.2-0.4,0.4-0.6c4.3-6.6,10.6-10.1,18.8-10.2l2.1,0.1c0.7,0.7,2.8,2.9,4.4,6.6c1.8,4.1,3.3,11,0.6,20.6
			C33.8,441.5,23.6,439.8,11,435.4L11,435.4z M43.4,442.1c2.7-10,1.1-17.3-0.9-21.7c-0.9-2.2-2-3.9-3-5.1c0.7,0.2,1.5,0.4,2.4,0.7
			c3.1,1.1,6.4,2.9,9.3,5.9c-0.5,0.5-1.1,1.5-1.5,2.8c-0.1,0.3-0.1,0.6-0.2,1l0,0c0,0.1,0,0.2,0,0.3v0.1c0,0.1,0,0.2,0,0.3v0.1
			c0,0.1,0,0.2,0,0.2v0.1c0,0.1,0,0.2,0,0.2c0,0.1,0,0.1,0,0.2s0,0.2,0,0.2c0,0.1,0,0.1,0,0.2c0,0.1,0,0.2,0,0.2c0,0.1,0,0.1,0,0.2
			s0,0.2,0,0.3c0,0.1,0,0.1,0,0.2s0,0.2,0,0.3c0,0.1,0,0.1,0,0.2s0,0.2,0,0.3c0,0.1,0,0.1,0,0.2s0,0.2,0.1,0.3c0,0.1,0,0.1,0,0.2
			s0,0.2,0.1,0.3c0,0.1,0,0.1,0,0.2s0.1,0.2,0.1,0.3c0,0.1,0,0.1,0,0.2c0.1,0.2,0.1,0.4,0.2,0.5c1.4,4.3,3.6,5.9,5.2,6.5l0,0
			c1,0.4,1.9,0.4,2.5,0.4c0,0.5,0.1,0.9,0.1,1.4c0,0.3,0,0.7,0.1,1c-1.2,0.3-3.7,0.9-7.6,1.1c-1.7,0.1-3.8,0.1-6.3,0.1
			C44.1,442.1,43.7,442.1,43.4,442.1L43.4,442.1z M54.5,454.6L54.5,454.6c-5.8-2.1-9.4-7.6-10.8-10.3c0.2,0,0.5,0,0.7,0
			c0.8,0,1.6,0,2.4,0c1.6,0,3-0.1,4.3-0.2c4.6-0.2,6.9-0.6,7.9-0.9l10.5,9.4C64,455.6,59,456.2,54.5,454.6L54.5,454.6z"/>
	</g>
</g>
<g>
	<g>
		<g>
			<path class="st0" d="M-117.9,423.7l-8.2-2.1c-2-0.5-5.2-0.9-6.4-0.6l-3.7,0.8c-0.5,0.1-0.8,0.6-0.7,1.1
				c1.1,5.1-2.1,10.2-7.2,11.3c-4.8,1.1-9.6-1.7-11.1-6.3l15.7-3.5c0.5-0.1,0.8-0.6,0.7-1.1c-0.1-0.5-0.6-0.8-1.1-0.7l-20.4,4.5
				c-1.2,0.3-3.9,1.9-5.5,3.3l-6.6,5.4c-0.3,0.3-0.5,0.8-0.3,1.2l7,14c0.2,0.4,0.7,0.6,1.2,0.5l4.3-1.7l6.1,27.6
				c0.6,2.6,3.1,4.2,5.7,3.6l27.8-6.2c2.6-0.6,4.2-3.1,3.6-5.7l-6.1-27.6l4.6-0.2c0.5,0,0.9-0.4,0.9-0.9l0.4-15.6
				C-117.2,424.2-117.5,423.8-117.9,423.7L-117.9,423.7z"/>
		</g>
	</g>
	<polygon class="st6" points="-156.7,427.9 -152.7,432.9 -146.6,434.8 -142.4,434.8 -139.5,432.3 -137.5,430.7 -135.7,426.9 
		-136,423.7 -136.9,423.2 	"/>
	<g>
		<g>
			<path class="st0" d="M-117.9,423.7l-8.2-2.1c-2-0.5-5.2-0.9-6.4-0.6l-3.7,0.8c-0.5,0.1-0.8,0.6-0.7,1.1
				c1.1,5.1-2.1,10.2-7.2,11.3c-4.8,1.1-9.6-1.7-11.1-6.3l20.3-4.5c0.5-0.1,0.8-0.6,0.7-1.1c-0.1-0.5-0.6-0.8-1.1-0.7l-25,5.5
				c-1.2,0.3-3.9,1.9-5.5,3.3l-6.6,5.4c-0.3,0.3-0.5,0.8-0.3,1.2l7,14c0.2,0.4,0.7,0.6,1.2,0.5l4.3-1.7l6.1,27.6
				c0.6,2.6,3.1,4.2,5.7,3.6l27.8-6.2c2.6-0.6,4.2-3.1,3.6-5.7l-6.1-27.6l4.6-0.2c0.5,0,0.9-0.4,0.9-0.9l0.4-15.6
				C-117.2,424.2-117.5,423.8-117.9,423.7L-117.9,423.7z M-119.5,439.4l-4.9,0.3c-0.3,0-0.5,0.2-0.7,0.4c-0.2,0.2-0.2,0.5-0.2,0.8
				l6.2,27.8l-30.6,6.8c-0.5,0.1-0.8,0.6-0.7,1.1c0.1,0.5,0.6,0.8,1.1,0.7l30.4-6.7c-0.1,1.2-1,2.2-2.2,2.4l-27.8,6.2
				c-1.5,0.3-3.1-0.6-3.4-2.2l-6.4-28.7c-0.1-0.3-0.2-0.5-0.5-0.6c-0.2-0.1-0.5-0.1-0.8,0l-4.5,1.8l-6.3-12.5l1.8-1.4l5.6,11.2
				c0.2,0.4,0.6,0.6,1.1,0.5c0.1,0,0.1,0,0.2-0.1c0.5-0.2,0.7-0.8,0.4-1.3l-5.7-11.6l2.7-2.2c1.7-1.4,4.1-2.8,4.8-2.9l2.8-0.6
				c1.7,5.6,7.5,9,13.3,7.7c5.8-1.3,9.6-6.8,8.8-12.6l2.8-0.6c0.6-0.1,3.4,0.1,5.5,0.6l3.4,0.8l-0.3,12.8c0,0.5,0.4,1,0.9,1
				c0.1,0,0.2,0,0.2,0c0.4-0.1,0.7-0.5,0.7-0.9l0.3-12.5l2.2,0.6L-119.5,439.4z"/>
		</g>
	</g>
</g>
<g>
	<path class="st7" d="M57.9,440"/>
	<path class="st8" d="M57.9,440"/>
</g>
<g>
	<g id="XMLID_669_">
		<g>
			<path class="st9" d="M-98.4,330.9l-2.3,7c-0.4,1.3-1.8,2-3.1,1.5l-20.8-6.9c-1.3-0.4-2-1.8-1.5-3.1l2.3-7L-98.4,330.9z
				 M-119.5,331.6l0.8-2.4l-4.3-1.4l-0.8,2.4L-119.5,331.6z"/>
			
				<rect x="-112.4" y="311.6" transform="matrix(-0.3166 0.9486 -0.9486 -0.3166 162.6131 532.7614)" class="st0" width="3.6" height="26.7"/>
			<path class="st9" d="M-96.8,326.1l-0.4,1.3l-25.4-8.5l0.4-1.3c0.4-1.3,1.8-2,3.1-1.5l20.8,6.9C-97.1,323.5-96.4,324.9-96.8,326.1
				z"/>
			
				<rect x="-122.4" y="327.4" transform="matrix(-0.3166 0.9486 -0.9486 -0.3166 153.2232 548.9797)" class="st0" width="2.5" height="4.5"/>
		</g>
		<g>
			<path class="st10" d="M-122.6,318.9l0.4-1.3c0.4-1.3,1.8-2,3.1-1.5l20.8,6.9c1.3,0.4,2,1.8,1.5,3.1l-0.4,1.3"/>
			<path class="st10" d="M-98.4,330.9l-2.3,7c-0.4,1.3-1.8,2-3.1,1.5l-20.8-6.9c-1.3-0.4-2-1.8-1.5-3.1l2.3-7"/>
		</g>
	</g>
</g>
<g>
	<polygon class="st11" points="8.2,351.3 15.3,313.6 40.8,319 44.6,319 64.5,335.7 40.1,365.6 28.8,356 	"/>
	<polygon class="st12" points="37.9,331.7 15.6,327.8 15.4,328.5 37.7,332.5 	"/>
	<polygon class="st12" points="37.3,334.8 15,330.8 14.9,331.6 37.2,335.5 	"/>
	<polygon class="st12" points="36.8,337.8 14.5,333.8 14.4,334.5 36.6,338.5 	"/>
	<polygon class="st12" points="36.2,340.8 13.9,336.9 13.8,337.6 36.1,341.6 	"/>
	<polygon class="st12" points="35.7,343.6 13.4,339.6 13.3,340.4 35.6,344.4 	"/>
	<polygon class="st12" points="35.2,346.7 12.9,342.7 12.8,343.5 35.1,347.4 	"/>
	<polygon class="st12" points="34.7,349.6 12.4,345.7 12.2,346.4 34.5,350.4 	"/>
	<polygon class="st12" points="34.1,352.7 11.8,348.8 11.7,349.5 34,353.5 	"/>
	<path class="st13" d="M44.3,319.8"/>
	<path class="st13" d="M63.8,336.2"/>
	<path class="st13" d="M40,364.5"/>
	<path class="st13" d="M31.3,357.3"/>
	<path class="st12" d="M36.7,357.5L36.7,357.5l4,3.2l-0.5,0.6l-4-3.2"/>
	<polyline class="st12" points="37.4,354.1 42.7,358.3 42.2,358.9 37.2,354.9 	"/>
	<path class="st12" d="M37.4,354.1"/>
	<polyline class="st12" points="38.1,350.8 44.5,356 44.1,356.6 37.9,351.7 	"/>
	<path class="st12" d="M38.1,350.8"/>
	<polyline class="st12" points="38.8,347.4 46.5,353.6 46,354.2 38.6,348.2 	"/>
	<path class="st12" d="M38.8,347.4"/>
	<polyline class="st12" points="39.4,344.3 48.2,351.4 47.7,352 39.2,345.1 	"/>
	<path class="st12" d="M39.4,344.3"/>
	<polyline class="st12" points="40.1,340.9 50.1,349 49.7,349.6 39.9,341.7 	"/>
	<path class="st12" d="M40.1,340.9"/>
	<polyline class="st12" points="40.7,337.6 52,346.7 51.5,347.2 40.6,338.4 	"/>
	<path class="st12" d="M40.7,337.6"/>
	<path class="st12" d="M41.3,335"/>
	<polyline class="st12" points="41.4,334.2 53.9,344.2 53.5,344.8 41.3,335 	"/>
	<path class="st13" d="M41.4,334.2"/>
	<path d="M63.8,336.2"/>
</g>
<g>
	<path class="st0" d="M-172.3,398.9l-6.3-16.6c0,0,0.7-2.9,0.8-2.7c0.1,0.2,7.8-3,7.8-3l5.9-6.5l1.7,0.4l2.5,2.3l2.8-0.9l1.7,0.7
		l2.2,5.9l0.5,0.8l1.2-0.2l2.2,5.9l-1.4,0.5l2.2,5.2l-0.6,1.5l-2,1.7l-18.2,6.5l-1.7-0.3L-172.3,398.9z"/>
	<polyline class="st0" points="-157.6,385.9 -158.6,384 -157.7,382.2 -156.2,380.9 -151.5,379.1 -149.5,384.5 -154.8,386.6 	"/>
	<polygon class="st12" points="-172.6,379.9 -164.6,370.7 -163.7,369.9 -157.8,374.7 -172.7,380.5 	"/>
	<g>
		<g>
			<g>
				<path class="st12" d="M-151.2,378.3l-1.2,0.5l-2.1-5.7c-0.5-1.4-2-2.1-3.4-1.5l-1.7,0.6l-2.9-2.4c-0.4-0.4-1-0.5-1.6-0.3
					c-0.3,0.1-0.5,0.3-0.6,0.5l-5.3,6.1l-7.3,2.8c-1.4,0.5-2.1,2-1.5,3.4l6.4,17c0.5,1.4,2,2.1,3.4,1.5l19.3-7.3
					c1.4-0.5,2.1-2,1.5-3.4l-1.9-5l1.2-0.5L-151.2,378.3z M-157.6,372.6c0.8-0.3,1.6,0.1,2,0.8l-1.9,0.7l-1.2-1L-157.6,372.6z
					 M-164,370.7c0.2-0.2,0.5-0.2,0.7-0.1l4.6,3.9l-12.5,4.7L-164,370.7z M-149.1,390.5c0.3,0.8-0.1,1.7-0.9,2l-19.4,7.3
					c-0.8,0.3-1.7-0.1-2-0.9l-6.4-17c-0.3-0.8,0.1-1.7,0.9-2l5.6-2.1l-1.9,2.2l-2.9,1.1c-0.3,0.1-0.4,0.4-0.3,0.7
					c0.1,0.3,0.4,0.4,0.7,0.3l20.5-7.8l1.8,4.9l-3.6,1.3c-1.7,0.6-2.5,2.5-1.9,4.2l0.1,0.2c0.6,1.7,2.5,2.5,4.2,1.9l3.6-1.4
					L-149.1,390.5z M-150.2,384l-4.8,1.9c-1.1,0.4-2.4-0.1-2.8-1.3l-0.1-0.2c-0.4-1.1,0.1-2.4,1.3-2.8l4.9-1.8L-150.2,384z
					 M-154.3,383.2c0.2,0.6-0.1,1.3-0.7,1.5c-0.6,0.2-1.3-0.1-1.5-0.7c-0.2-0.6,0.1-1.3,0.7-1.5
					C-155.2,382.3-154.5,382.6-154.3,383.2L-154.3,383.2z"/>
			</g>
		</g>
	</g>
</g>
<g>
	<g>
		<g>
			<g>
				<g>
					<g>
						<path class="st0" d="M10.2,372.1c-1.1-3.3-4-5.7-7.6-6.2l-34.1-5.1l-14.8-30.7c-1.5-3.2-4.9-5.3-8.5-5.3c-3.7,0-7,2.1-8.6,5.3
							l-14.9,30.8l-34.1,5c-3.5,0.6-6.4,3-7.5,6.2c-1.1,3.3-0.3,6.9,2.2,9.4l25,24.9l-5.8,34.6c-0.6,3.5,0.9,7,3.9,9
							c1.6,1.1,3.5,1.7,5.4,1.7c1.6,0,3.2-0.4,4.6-1.2l29.7-16l29.7,16c1.4,0.8,3,1.2,4.6,1.2c1.9,0,3.8-0.6,5.5-1.7
							c3-2,4.5-5.5,3.9-9l-5.8-34.6l25-24.9C10.5,379,11.3,375.4,10.2,372.1L10.2,372.1z M10.2,372.1c-1.1-3.3-4-5.7-7.6-6.2
							l-34.1-5.1l-14.8-30.7c-1.5-3.2-4.9-5.3-8.5-5.3c-3.7,0-7,2.1-8.6,5.3l-14.9,30.8l-34.1,5c-3.5,0.6-6.4,3-7.5,6.2
							c-1.1,3.3-0.3,6.9,2.2,9.4l25,24.9l-5.8,34.6c-0.6,3.5,0.9,7,3.9,9c1.6,1.1,3.5,1.7,5.4,1.7c1.6,0,3.2-0.4,4.6-1.2l29.7-16
							l29.7,16c1.4,0.8,3,1.2,4.6,1.2c1.9,0,3.8-0.6,5.5-1.7c3-2,4.5-5.5,3.9-9l-5.8-34.6l25-24.9C10.5,379,11.3,375.4,10.2,372.1
							L10.2,372.1z"/>
					</g>
				</g>
			</g>
		</g>
	</g>
	<g>
		<path class="st14" d="M10.9,371.1c-1.1-3.3-4-5.7-7.6-6.2l-34.1-5.1l-14.8-30.7c-1.6-3.2-4.9-5.3-8.6-5.3c-3.7,0-7,2.1-8.6,5.3
			l-14.8,30.8l-34.1,5c-3.5,0.5-6.4,2.9-7.6,6.2c-1.1,3.3-0.3,6.9,2.2,9.4l25,24.9l-4.1,24.7l29.1-7.6v-1.8c-4-4.2-6.4-10.2-7-14.1
			c-1.1-0.3-2.2-0.9-3.1-1.8c-3.4-3.6-4-11.3-3.8-14.8c0.1-2.1,1.1-2.9,1.9-3.3c1.4-0.6,3.1-0.1,4.5,0.7c0-4.9,0-8.5,0.2-10.6
			c0.1-1.7,0.3-4,1.1-6.3l0,0l0,0c2.4-6.7,8.9-10.1,19.3-10.1c11.4,0,17.9,3.9,19.8,12l0,0l0,0c0.4,1.6,0.5,3.2,0.6,4.4
			c0.1,2.1,0.2,5.6,0.2,10.6c1.4-0.7,3.1-1.3,4.5-0.7c0.8,0.4,1.8,1.2,1.9,3.3c0.2,3.5-0.4,11.2-3.8,14.8c-0.9,1-1.9,1.6-3.1,1.8
			c-0.7,3.9-2,9.9-7,14.1v1.8l29,7.6l-4.2-24.7l25-24.9C11.2,378,12,374.4,10.9,371.1z"/>
		<path class="st15" d="M-30.1,389.9c0-0.6-0.2-0.8-0.2-0.8c-0.4-0.2-2.1,0.5-3.4,1.6c0,6.7-0.2,12.7-0.2,12.7s0,0.1,0,0.3
			c0.2-0.1,0.4-0.3,0.6-0.5C-30.5,400.4-29.9,393.5-30.1,389.9z"/>
		<path class="st16" d="M-46.7,423.6c-2.2,0.9-4.7,1.3-7.4,1.3c-2.7,0-5.2-0.5-7.4-1.3l-2.5,0.7V439l10-5.6l10,5.6v-14.6
			L-46.7,423.6z"/>
		<path class="st15" d="M-78.1,388.7c0,0-0.1,0.2-0.2,0.9c-0.2,3.8,0.5,10.7,3.2,13.6c0.2,0.2,0.4,0.4,0.6,0.5c0-0.2,0-0.3,0-0.3
			s-0.1-6.2-0.2-13.1C-76,389.2-77.6,388.5-78.1,388.7z"/>
		<path class="st16" d="M-74.4,403.3c-0.2-0.1-0.4-0.3-0.6-0.5c-2.5-2.7-3.2-9.2-3-12.7c0-0.6,0.2-0.8,0.2-0.8
			c0.4-0.2,1.9,0.5,3.3,1.4c0-0.2,0-0.5,0-0.7c0-0.9,0-1.8,0-2.7c-1.4-0.7-3.1-1.3-4.5-0.7c-0.8,0.4-1.8,1.2-1.9,3.3
			c-0.2,3.6,0.4,11.2,3.8,14.8c0.9,0.9,1.9,1.5,3.1,1.8c-0.1-0.4-0.1-0.8-0.2-1.1C-74.3,404.5-74.3,403.7-74.4,403.3z"/>
		<path class="st16" d="M-33.8,390.1c0,0.3,0,0.5,0,0.8c1.3-0.9,2.8-1.6,3.3-1.5c0,0,0.1,0.2,0.2,0.8c0.2,3.5-0.5,10-3,12.7
			c-0.2,0.2-0.4,0.4-0.6,0.5c0,0.4-0.1,1.2-0.2,2.2c-0.1,0.3-0.1,0.7-0.2,1.1c1.2-0.3,2.2-0.9,3.1-1.8c3.4-3.6,4-11.3,3.8-14.8
			c-0.1-2.1-1.1-2.9-1.9-3.3c-1.4-0.6-3.1-0.1-4.5,0.7C-33.8,388.3-33.8,389.2-33.8,390.1z"/>
		<g>
			<path class="st12" d="M-66.6,421.2c-0.2-0.2-0.3-0.3-0.5-0.5v1.8l1.7-0.4C-65.8,421.8-66.2,421.5-66.6,421.2z"/>
			<path class="st12" d="M-54.3,433.6l-7.1-9.5h-0.2c-0.2-0.1-0.3-0.1-0.5-0.2c-1.1-0.4-2.3-1.1-3.3-1.8l-1.7,0.4l-29.1,7.6
				l-0.5,3.1l-1.1,6.8c-0.6,3.5,0.9,7,3.9,9c1.6,1.1,3.5,1.7,5.4,1.7c1.6,0,3.2-0.4,4.6-1.2l16.8-9c0,0,0,0,0,0L-54.3,433.6z"/>
		</g>
		<path class="st12" d="M-10.9,440.7l-1.3-6.7l0-0.3l-0.5-3.6l-28.5-7.5v-1.9c-0.2,0.2-0.3,0.3-0.5,0.5c-0.4,0.3-0.8,0.6-1.2,0.9
			c-1.1,0.8-2.2,1.4-3.4,1.8c-0.1,0.1-0.2,0.1-0.3,0.1l-0.1,0l-0.1,0.1c0,0,0,0,0,0l0,0l-7.6,9.5l12,6.4h0l18,9.7
			c1.4,0.8,3,1.2,4.5,1.2c1.9,0,3.8-0.6,5.5-1.7C-11.4,447.2-10.3,444.2-10.9,440.7z"/>
		<path class="st16" d="M-33.8,376.7c-0.1-1.2-0.2-2.8-0.6-4.4c0.1,0.5,0,1.1-0.5,1.5c-0.7,0.5-1.3,1-1.9,1.4
			c0.1,0.6-0.1,0.8-0.1,0.2c-5.9,4.1-11.1,5.1-14.8,5.1c-0.9-0.1-1.8-0.2-2.6-0.3l1,2.8c0.2,0.5,0.1,1.1-0.3,1.5
			c-0.3,0.3-0.7,0.5-1.1,0.5c-0.1,0-0.3,0-0.4-0.1c-7.8-2.2-13.4-7.4-16.2-10.6c0-0.1,0-0.2,0-0.3c-1.2-1.3-1.8-2.3-1.9-2.4
			c-0.3-0.4-0.3-0.9-0.2-1.3c-0.8,2.3-1,4.5-1.1,6.3c-0.1,2.1-0.2,5.6-0.2,10.6c0,0.9,0,1.8,0,2.7c0,0.2,0,0.5,0,0.7
			c0,6.4,0.2,12.2,0.2,12.2s0,0.1,0,0.3c0,0.4,0.1,1.2,0.2,2.2c0,0.3,0.1,0.7,0.2,1.1c0.7,3.9,2.5,9.9,7,14.1
			c0.2,0.2,0.3,0.3,0.5,0.5c0.4,0.5,0.8,0.8,1.2,1.1c1.1,0.8,2.2,1.4,3.3,1.8c0.2,0.1,0.3,0.1,0.5,0.2c2.2,0.9,4.7,1.3,7.4,1.3
			s5.2-0.5,7.4-1.3c0.1-0.1,0.3-0.1,0.5-0.2c1.2-0.5,2.3-1.1,3.4-1.8c0.4-0.3,0.8-0.6,1.2-0.9c0.2-0.2,0.3-0.3,0.5-0.5
			c4.5-4.2,6.3-10.2,7-14.1c0.1-0.4,0.1-0.8,0.2-1.1c0.1-1,0.2-1.8,0.2-2.2c0-0.2,0-0.3,0-0.3s0.1-5.8,0.2-12.2c0-0.2,0-0.5,0-0.8
			c0-0.9,0-1.8,0-2.7C-33.6,382.3-33.6,378.8-33.8,376.7z"/>
		<path class="st17" d="M-58,378.4c0,0.1,0,0.2,0.1,0.3C-58,378.6-58,378.5-58,378.4z"/>
		<path class="st17" d="M-56.7,376.7c-0.1,0-0.2,0-0.2,0C-56.9,376.7-56.8,376.7-56.7,376.7z"/>
		<path class="st17" d="M-58,377.7C-58,377.7-57.9,377.6-58,377.7C-57.9,377.6-57.9,377.6-58,377.7L-58,377.7z"/>
		<path class="st17" d="M-58,378.2c0-0.1,0-0.2,0-0.3C-58,378-58,378.1-58,378.2z"/>
		<path class="st17" d="M-56.1,376.8c-0.1,0-0.2-0.1-0.3-0.1C-56.3,376.7-56.2,376.8-56.1,376.8z"/>
		<path class="st17" d="M-57.2,376.9c-0.1,0-0.2,0.1-0.3,0.2C-57.4,377-57.3,376.9-57.2,376.9z"/>
		<path class="st12" d="M-34.4,372.5c-1.3-8.4-8.5-12.2-19.9-12.2c-10.4,0-16.9,3.4-19.3,10.1c0.3-0.2,0,1.1,0.3,1.5
			c0.1,0.1,0.7,1.1,1.9,2.4c2.8,3.1,8.4,8.5,16.3,10.7c0.1,0,0.3,0.1,0.4,0.1c0.4,0,0.8-0.2,1.1-0.5c0.4-0.4,0.5-1,0.3-1.5l-1-2.8
			l0-0.1c0.8,0.1,1.7,0.2,2.7,0.2c3.7,0,8.9-1,14.7-5.1c0.6-0.4,1.3-0.9,1.9-1.4C-34.5,373.5-34.4,372.5-34.4,372.5z M-55.4,377.5"
			/>
	</g>
</g>
<g>
	<g>
		<g>
			<g>
				<g>
					<path class="st18" d="M10.2,372.1c-1.1-3.3-4-5.7-7.6-6.2l-34.1-5.1l-14.8-30.7c-1.5-3.2-4.9-5.3-8.5-5.3c-3.7,0-7,2.1-8.6,5.3
						l-14.9,30.8l-34.1,5c-3.5,0.6-6.4,3-7.5,6.2c-1.1,3.3-0.3,6.9,2.2,9.4l25,24.9l-5.8,34.6c-0.6,3.5,0.9,7,3.9,9
						c1.6,1.1,3.5,1.7,5.4,1.7c1.6,0,3.2-0.4,4.6-1.2l29.7-16l29.7,16c1.4,0.8,3,1.2,4.6,1.2c1.9,0,3.8-0.6,5.5-1.7
						c3-2,4.5-5.5,3.9-9l-5.8-34.6l25-24.9C10.5,379,11.3,375.4,10.2,372.1L10.2,372.1z M10.2,372.1c-1.1-3.3-4-5.7-7.6-6.2
						l-34.1-5.1l-14.8-30.7c-1.5-3.2-4.9-5.3-8.5-5.3c-3.7,0-7,2.1-8.6,5.3l-14.9,30.8l-34.1,5c-3.5,0.6-6.4,3-7.5,6.2
						c-1.1,3.3-0.3,6.9,2.2,9.4l25,24.9l-5.8,34.6c-0.6,3.5,0.9,7,3.9,9c1.6,1.1,3.5,1.7,5.4,1.7c1.6,0,3.2-0.4,4.6-1.2l29.7-16
						l29.7,16c1.4,0.8,3,1.2,4.6,1.2c1.9,0,3.8-0.6,5.5-1.7c3-2,4.5-5.5,3.9-9l-5.8-34.6l25-24.9C10.5,379,11.3,375.4,10.2,372.1
						L10.2,372.1z"/>
				</g>
			</g>
		</g>
	</g>
</g>
</svg>
