<?xml version="1.0" encoding="utf-8"?>
<!-- Generator: Adobe Illustrator 19.1.0, SVG Export Plug-In . SVG Version: 6.00 Build 0)  -->
<svg version="1.1" id="Layer_1" xmlns="http://www.w3.org/2000/svg" xmlns:xlink="http://www.w3.org/1999/xlink" x="0px" y="0px"
	 viewBox="-162 303.9 286.2 187.1" style="enable-background:new -162 303.9 286.2 187.1;" xml:space="preserve">
<style type="text/css">
	.st0{fill:none;stroke:#8FA53C;stroke-width:0.5;stroke-miterlimit:10;}
	.st1{fill:#10A6E0;}
	.st2{fill:#FFFFFF;}
	.st3{fill:#E7E7E7;}
	.st4{fill:#E4E5E5;}
	.st5{fill:#E8E8E8;}
	.st6{fill:#F3F3F3;}
	.st7{fill:none;}
	.st8{fill:#F5F6F6;}
	.st9{fill:#4A4A4A;}
	.st10{fill:#010101;}
</style>
<g>
	<g>
		<g>
			<circle class="st0" cx="-97.7" cy="459.6" r="0.7"/>
			<circle class="st0" cx="-99.6" cy="459.6" r="0.7"/>
			<circle class="st0" cx="-101.5" cy="459.6" r="0.7"/>
			<circle class="st0" cx="-103.4" cy="459.6" r="0.7"/>
		</g>
		<path class="st1" d="M-94.6,405.3H-155c-3.8,0-7,3.1-7,7v46.5c0,3.8,3.1,7,7,7h60.4c3.8,0,7-3.1,7-7v-46.5
			C-87.6,408.5-90.8,405.3-94.6,405.3z M-96.9,456.4h-55.8v-41.8h55.8V456.4z"/>
		<g>
			<rect x="-157.8" y="410.9" class="st2" width="65.6" height="49.5"/>
		</g>
	</g>
	<g>
		<path class="st1" d="M-115,433h-5.2c-0.2-2.8-2.3-5.2-5.2-5.2c-2.8,0-5,2.3-5.2,5.2h-5.2l-1.7,22.4h25.6L-115,433z M-125.4,429.5
			c1.9,0,3.3,1.6,3.4,3.4h-6.9C-128.6,431.1-127.3,429.5-125.4,429.5L-125.4,429.5z"/>
	</g>
	<g id="XMLID_552_">
		<polygon id="XMLID_575_" class="st3" points="-157,410.9 -160.4,417.9 -160.4,420.3 -89.9,420.3 -89.5,418.1 -92.6,410.9 		"/>
		<path id="XMLID_574_" class="st1" d="M-154.8,418.1c-2.2,0-4.4,0-6.5,0c0,1.7,0,3.4,0,5.1c1.8,1.3,4.7,1.3,6.5,0
			C-154.8,421.5-154.8,419.8-154.8,418.1z"/>
		<path id="XMLID_573_" class="st4" d="M-148.3,418.1c-2.2,0-4.4,0-6.5,0c0,1.7,0,3.4,0,5.1c1.8,1.3,4.7,1.3,6.5,0
			C-148.3,421.5-148.3,419.8-148.3,418.1z"/>
		<path id="XMLID_572_" class="st1" d="M-141.8,418.1c-2.2,0-4.4,0-6.5,0c0,1.7,0,3.4,0,5.1c1.8,1.3,4.7,1.3,6.5,0
			C-141.8,421.5-141.8,419.8-141.8,418.1z"/>
		<path id="XMLID_571_" class="st4" d="M-135.3,418.1c-2.2,0-4.4,0-6.5,0c0,1.7,0,3.4,0,5.1c1.8,1.3,4.7,1.3,6.5,0
			C-135.3,421.5-135.3,419.8-135.3,418.1z"/>
		<path id="XMLID_570_" class="st1" d="M-128.7,418.1c-2.2,0-4.4,0-6.5,0c0,1.7,0,3.4,0,5.1c1.8,1.3,4.7,1.3,6.5,0
			C-128.7,421.5-128.7,419.8-128.7,418.1z"/>
		<path id="XMLID_569_" class="st4" d="M-122.2,418.1c-2.2,0-4.4,0-6.5,0c0,1.7,0,3.4,0,5.1c1.8,1.3,4.7,1.3,6.5,0
			C-122.2,421.5-122.2,419.8-122.2,418.1z"/>
		<path id="XMLID_568_" class="st1" d="M-115.7,418.1c-2.2,0-4.4,0-6.5,0c0,1.7,0,3.4,0,5.1c1.8,1.3,4.7,1.3,6.5,0
			C-115.7,421.5-115.7,419.8-115.7,418.1z"/>
		<path id="XMLID_567_" class="st4" d="M-109.1,418.1c-2.2,0-4.4,0-6.5,0c0,1.7,0,3.4,0,5.1c1.8,1.3,4.7,1.3,6.5,0
			C-109.1,421.5-109.1,419.8-109.1,418.1z"/>
		<path id="XMLID_566_" class="st1" d="M-102.6,418.1c-2.2,0-4.4,0-6.5,0c0,1.7,0,3.4,0,5.1c1.8,1.3,4.7,1.3,6.5,0
			C-102.6,421.5-102.6,419.8-102.6,418.1z"/>
		<path id="XMLID_565_" class="st4" d="M-96.1,418.1c-2.2,0-4.4,0-6.5,0c0,1.7,0,3.4,0,5.1c1.8,1.3,4.7,1.3,6.5,0
			C-96.1,421.5-96.1,419.8-96.1,418.1z"/>
		<path id="XMLID_564_" class="st1" d="M-89.5,418.1c-2.2,0-4.4,0-6.5,0c0,1.7,0,3.4,0,5.1c1.8,1.3,4.7,1.3,6.5,0
			C-89.5,421.5-89.5,419.8-89.5,418.1z"/>
		<path id="XMLID_563_" class="st1" d="M-151.7,410.9c-2,0-3.9,0-5.9,0c-1.2,2.4-2.5,4.8-3.7,7.2c2.2,0,4.4,0,6.5,0
			C-153.8,415.7-152.8,413.3-151.7,410.9z"/>
		<path id="XMLID_562_" class="st4" d="M-145.8,410.9c-2,0-3.9,0-5.9,0c-1,2.4-2.1,4.8-3.1,7.2c2.2,0,4.4,0,6.5,0
			C-147.5,415.7-146.7,413.3-145.8,410.9z"/>
		<path id="XMLID_561_" class="st1" d="M-139.9,410.9c-2,0-3.9,0-5.9,0c-0.8,2.4-1.7,4.8-2.5,7.2c2.2,0,4.4,0,6.5,0
			C-141.2,415.7-140.5,413.3-139.9,410.9z"/>
		<path id="XMLID_560_" class="st4" d="M-134,410.9c-2,0-3.9,0-5.9,0c-0.6,2.4-1.2,4.8-1.9,7.2c2.2,0,4.4,0,6.5,0
			C-134.8,415.7-134.4,413.3-134,410.9z"/>
		<path id="XMLID_559_" class="st1" d="M-128.1,410.9c-2,0-3.9,0-5.9,0c-0.4,2.4-0.8,4.8-1.2,7.2c2.2,0,4.4,0,6.5,0
			C-128.5,415.7-128.3,413.3-128.1,410.9z"/>
		<path id="XMLID_558_" class="st4" d="M-122.2,410.9c-2,0-3.9,0-5.9,0c-0.2,2.4-0.4,4.8-0.6,7.2c2.2,0,4.4,0,6.5,0
			C-122.2,415.7-122.2,413.3-122.2,410.9z"/>
		<path id="XMLID_557_" class="st1" d="M-116.3,410.9c-2,0-3.9,0-5.9,0c0,2.4,0,4.8,0,7.2c2.2,0,4.4,0,6.5,0
			C-115.9,415.7-116.1,413.3-116.3,410.9z"/>
		<path id="XMLID_556_" class="st4" d="M-110.4,410.9c-2,0-3.9,0-5.9,0c0.2,2.4,0.4,4.8,0.6,7.2c2.2,0,4.4,0,6.5,0
			C-109.5,415.7-110,413.3-110.4,410.9z"/>
		<path id="XMLID_555_" class="st1" d="M-104.5,410.9c-2,0-3.9,0-5.9,0c0.4,2.4,0.8,4.8,1.2,7.2c2.2,0,4.4,0,6.5,0
			C-103.2,415.7-103.8,413.3-104.5,410.9z"/>
		<path id="XMLID_554_" class="st4" d="M-98.6,410.9c-2,0-3.9,0-5.9,0c0.6,2.4,1.2,4.8,1.9,7.2c2.2,0,4.4,0,6.5,0
			C-96.9,415.7-97.7,413.3-98.6,410.9z"/>
		<path id="XMLID_553_" class="st1" d="M-92.6,410.9c-2,0-3.9,0-5.9,0c0.8,2.4,1.7,4.8,2.5,7.2c2.2,0,4.4,0,6.5,0
			C-90.6,415.7-91.6,413.3-92.6,410.9z"/>
	</g>
	<circle class="st2" cx="-129.6" cy="436.7" r="0.8"/>
	<circle class="st2" cx="-121.1" cy="436.7" r="0.8"/>
</g>
<g>
	<path id="XMLID_527_" class="st1" d="M-44.5,439.5l24.7-0.1c1.4,0,2.5,1.1,2.5,2.5l0.1,46.4c0,1.4-1.1,2.5-2.5,2.5l-24.7,0.1
		c-1.4,0-2.5-1.1-2.5-2.5L-47,442C-47,440.7-45.9,439.6-44.5,439.5z"/>
	
		<rect id="XMLID_526_" x="-46.3" y="448.6" transform="matrix(1 -2.547648e-003 2.547648e-003 1 -1.1849 -8.022626e-002)" class="st2" width="28.4" height="33"/>
	<circle id="XMLID_525_" class="st5" cx="-32.1" cy="443.3" r="0.6"/>
	<path id="XMLID_524_" class="st5" d="M-36,445h7.8c0.2,0,0.3,0.2,0.3,0.3l0,0c0,0.2-0.2,0.3-0.3,0.3H-36c-0.2,0-0.3-0.2-0.3-0.3
		l0,0C-36.3,445.1-36.2,445-36,445z"/>
	<g id="XMLID_489_">
		<polygon id="XMLID_523_" class="st3" points="-46,448.4 -47.5,451.4 -47.5,452.5 -16.6,452.5 -16.4,451.5 -17.8,448.4 		"/>
		<path id="XMLID_522_" class="st1" d="M-45.1,451.5c-1,0-1.9,0-2.9,0c0,0.7,0,1.5,0,2.2c0.8,0.6,2.1,0.6,2.9,0
			C-45.1,453-45.1,452.3-45.1,451.5z"/>
		<path id="XMLID_521_" class="st4" d="M-42.2,451.5c-1,0-1.9,0-2.9,0c0,0.7,0,1.5,0,2.2c0.8,0.6,2.1,0.6,2.9,0
			C-42.2,453-42.2,452.3-42.2,451.5z"/>
		<path id="XMLID_520_" class="st1" d="M-39.3,451.5c-1,0-1.9,0-2.9,0c0,0.7,0,1.5,0,2.2c0.8,0.6,2.1,0.6,2.9,0
			C-39.3,453-39.3,452.3-39.3,451.5z"/>
		<path id="XMLID_519_" class="st4" d="M-36.5,451.5c-1,0-1.9,0-2.9,0c0,0.7,0,1.5,0,2.2c0.8,0.6,2.1,0.6,2.9,0
			C-36.5,453-36.5,452.3-36.5,451.5z"/>
		<path id="XMLID_518_" class="st1" d="M-33.6,451.5c-1,0-1.9,0-2.9,0c0,0.7,0,1.5,0,2.2c0.8,0.6,2.1,0.6,2.9,0
			C-33.6,453-33.6,452.3-33.6,451.5z"/>
		<path id="XMLID_517_" class="st4" d="M-30.7,451.5c-1,0-1.9,0-2.9,0c0,0.7,0,1.5,0,2.2c0.8,0.6,2.1,0.6,2.9,0
			C-30.7,453-30.7,452.3-30.7,451.5z"/>
		<path id="XMLID_516_" class="st1" d="M-27.9,451.5c-1,0-1.9,0-2.9,0c0,0.7,0,1.5,0,2.2c0.8,0.6,2.1,0.6,2.9,0
			C-27.9,453-27.9,452.3-27.9,451.5z"/>
		<path id="XMLID_515_" class="st4" d="M-25,451.5c-1,0-1.9,0-2.9,0c0,0.7,0,1.5,0,2.2c0.8,0.6,2.1,0.6,2.9,0
			C-25,453-25,452.3-25,451.5z"/>
		<path id="XMLID_514_" class="st1" d="M-22.1,451.5c-1,0-1.9,0-2.9,0c0,0.7,0,1.5,0,2.2c0.8,0.6,2.1,0.6,2.9,0
			C-22.1,453-22.1,452.3-22.1,451.5z"/>
		<path id="XMLID_513_" class="st4" d="M-19.3,451.5c-1,0-1.9,0-2.9,0c0,0.7,0,1.5,0,2.2c0.8,0.6,2.1,0.6,2.9,0
			C-19.3,453-19.3,452.3-19.3,451.5z"/>
		<path id="XMLID_512_" class="st1" d="M-16.4,451.5c-1,0-1.9,0-2.9,0c0,0.7,0,1.5,0,2.2c0.8,0.6,2.1,0.6,2.9,0
			C-16.4,453-16.4,452.3-16.4,451.5z"/>
		<path id="XMLID_511_" class="st1" d="M-43.7,448.4c-0.9,0-1.7,0-2.6,0c-0.5,1.1-1.1,2.1-1.6,3.2c1,0,1.9,0,2.9,0
			C-44.6,450.5-44.1,449.4-43.7,448.4z"/>
		<path id="XMLID_499_" class="st4" d="M-41.1,448.4c-0.9,0-1.7,0-2.6,0c-0.5,1.1-0.9,2.1-1.4,3.2c1,0,1.9,0,2.9,0
			C-41.8,450.5-41.5,449.4-41.1,448.4z"/>
		<path id="XMLID_498_" class="st1" d="M-38.5,448.4c-0.9,0-1.7,0-2.6,0c-0.4,1.1-0.7,2.1-1.1,3.2c1,0,1.9,0,2.9,0
			C-39.1,450.5-38.8,449.4-38.5,448.4z"/>
		<path id="XMLID_497_" class="st4" d="M-35.9,448.4c-0.9,0-1.7,0-2.6,0c-0.3,1.1-0.5,2.1-0.8,3.2c1,0,1.9,0,2.9,0
			C-36.3,450.5-36.1,449.4-35.9,448.4z"/>
		<path id="XMLID_496_" class="st1" d="M-33.3,448.4c-0.9,0-1.7,0-2.6,0c-0.2,1.1-0.4,2.1-0.5,3.2c1,0,1.9,0,2.9,0
			C-33.5,450.5-33.4,449.4-33.3,448.4z"/>
		<path id="XMLID_495_" class="st4" d="M-30.7,448.4c-0.9,0-1.7,0-2.6,0c-0.1,1.1-0.2,2.1-0.3,3.2c1,0,1.9,0,2.9,0
			C-30.7,450.5-30.7,449.4-30.7,448.4z"/>
		<path id="XMLID_494_" class="st1" d="M-28.1,448.4c-0.9,0-1.7,0-2.6,0c0,1.1,0,2.1,0,3.2c1,0,1.9,0,2.9,0
			C-28,450.5-28.1,449.4-28.1,448.4z"/>
		<path id="XMLID_493_" class="st4" d="M-25.6,448.4c-0.9,0-1.7,0-2.6,0c0.1,1.1,0.2,2.1,0.3,3.2c1,0,1.9,0,2.9,0
			C-25.2,450.5-25.4,449.4-25.6,448.4z"/>
		<path id="XMLID_492_" class="st1" d="M-23,448.4c-0.9,0-1.7,0-2.6,0c0.2,1.1,0.4,2.1,0.5,3.2c1,0,1.9,0,2.9,0
			C-22.4,450.5-22.7,449.4-23,448.4z"/>
		<path id="XMLID_491_" class="st4" d="M-20.4,448.4c-0.9,0-1.7,0-2.6,0c0.3,1.1,0.5,2.1,0.8,3.2c1,0,1.9,0,2.9,0
			C-19.6,450.5-20,449.4-20.4,448.4z"/>
		<path id="XMLID_490_" class="st1" d="M-17.8,448.4c-0.9,0-1.7,0-2.6,0c0.4,1.1,0.7,2.1,1.1,3.2c1,0,1.9,0,2.9,0
			C-16.9,450.5-17.3,449.4-17.8,448.4z"/>
	</g>
	<g id="XMLID_458_">
		<path id="XMLID_465_" class="st1" d="M-38.6,477.4h13.8l3.1-8.8h0.8c0.3,0,0.5-0.2,0.5-0.5v-0.7c0-0.3-0.2-0.5-0.5-0.5h-21.7
			c-0.3,0-0.5,0.2-0.5,0.5v0.7c0,0.3,0.2,0.5,0.5,0.5h0.8L-38.6,477.4L-38.6,477.4z M-39.4,469.9L-39.4,469.9c0.4,0,0.8,0.3,0.9,0.7
			c0.2,1,0.5,1.9,0.7,2.7s0.4,1.5,0.6,2.2c0.1,0.2-0.1,0.4-0.4,0.4l0,0c-0.3,0-0.6-0.2-0.7-0.4c-0.2-0.7-0.4-1.4-0.7-2.2
			c-0.3-0.8-0.5-1.7-0.8-2.7C-40,470.2-39.8,469.9-39.4,469.9L-39.4,469.9z M-36.3,469.9L-36.3,469.9c0.4,0,0.7,0.3,0.8,0.7
			c0.1,1,0.2,1.9,0.4,2.7c0.1,0.8,0.2,1.5,0.3,2.2c0,0.2-0.2,0.4-0.5,0.4l0,0c-0.3,0-0.6-0.2-0.6-0.4c-0.1-0.7-0.3-1.4-0.4-2.2
			c-0.2-0.8-0.3-1.7-0.5-2.7C-36.9,470.2-36.7,469.9-36.3,469.9L-36.3,469.9z M-33.1,469.9L-33.1,469.9c0.4,0,0.7,0.3,0.7,0.7
			c0,1,0,1.9,0,2.7s0,1.5,0,2.2c0,0.2-0.2,0.4-0.5,0.4l0,0c-0.3,0-0.5-0.2-0.6-0.4c0-0.7-0.1-1.4-0.1-2.2c-0.1-0.8-0.1-1.7-0.2-2.7
			C-33.8,470.2-33.5,469.9-33.1,469.9L-33.1,469.9z M-30,469.9L-30,469.9c0.4,0,0.7,0.3,0.6,0.7c-0.1,1-0.2,1.9-0.3,2.7
			s-0.2,1.5-0.2,2.2c0,0.2-0.3,0.4-0.6,0.4l0,0c-0.3,0-0.5-0.2-0.5-0.4c0-0.7,0.1-1.4,0.1-2.2s0.1-1.7,0.2-2.7
			C-30.7,470.2-30.3,469.9-30,469.9L-30,469.9z M-26.8,469.9L-26.8,469.9c0.4,0,0.6,0.3,0.5,0.7c-0.2,1-0.4,1.9-0.6,2.7
			c-0.2,0.8-0.4,1.5-0.5,2.2c-0.1,0.2-0.3,0.4-0.6,0.4l0,0c-0.3,0-0.5-0.2-0.5-0.4c0.1-0.7,0.3-1.4,0.4-2.2c0.2-0.8,0.3-1.7,0.5-2.7
			C-27.5,470.2-27.2,469.9-26.8,469.9L-26.8,469.9z M-23.6,469.9L-23.6,469.9c0.4,0,0.6,0.3,0.5,0.7c-0.3,1-0.7,1.9-1,2.7
			s-0.5,1.5-0.8,2.2c-0.1,0.2-0.4,0.4-0.7,0.4l0,0c-0.3,0-0.5-0.2-0.4-0.4c0.2-0.7,0.4-1.4,0.7-2.2s0.5-1.7,0.8-2.7
			C-24.4,470.2-24,469.9-23.6,469.9z"/>
		<g id="XMLID_459_">
			<g id="XMLID_462_">
				<path id="XMLID_464_" class="st1" d="M-32.4,458.8l0.2,0.1c0.3,0.1,0.5,0.5,0.4,0.8l-2.8,8.5c-0.1,0.3-0.5,0.5-0.8,0.4l-0.2-0.1
					c-0.3-0.1-0.5-0.5-0.4-0.8l2.8-8.5C-33.1,458.8-32.7,458.7-32.4,458.8z"/>
				<path id="XMLID_463_" class="st1" d="M-31,458.8l-0.2,0.1c-0.3,0.1-0.5,0.5-0.4,0.8l2.8,8.5c0.1,0.3,0.5,0.5,0.8,0.4l0.2-0.1
					c0.3-0.1,0.5-0.5,0.4-0.8l-2.8-8.5C-30.3,458.8-30.7,458.7-31,458.8z"/>
			</g>
			<circle id="XMLID_461_" class="st2" cx="-35.2" cy="467.9" r="0.4"/>
			<circle id="XMLID_460_" class="st2" cx="-28.2" cy="467.9" r="0.4"/>
		</g>
	</g>
</g>
<g>
	<g>
		<g>
			<polygon class="st1" points="85.1,470.1 84.2,462.1 75.4,459.4 75.4,459.3 75.2,459.3 75,459.3 75,459.4 66.2,462.1 65.3,470.1 
				61.9,470.9 61.9,473.6 75,473.6 75.4,473.6 88.4,473.6 88.4,470.9 			"/>
			<path class="st1" d="M121.4,462c0,1.4-1.1,2.5-2.5,2.5H31.3c-1.4,0-2.5-1.1-2.5-2.5v-61.8c0-1.4,1.1-2.5,2.5-2.5h87.6
				c1.4,0,2.5,1.1,2.5,2.5V462z"/>
			<g>
				<path class="st1" d="M29.6,460.1v-59.9c0-1.2,0.8-2.3,1.7-2.3H119c0.9,0,1.7,1,1.7,2.3v59.9L29.6,460.1L29.6,460.1z"/>
			</g>
			<rect x="32" y="400.2" class="st6" width="86.4" height="57.7"/>
			<path class="st2" d="M33.7,400.1h29.5L97.9,458H31.4v-55C31.5,401.4,32.5,400.1,33.7,400.1z"/>
		</g>
		<g id="XMLID_528_">
			<polygon id="XMLID_551_" class="st3" points="32.2,400.2 27.5,409.8 27.5,413.1 123.6,413.1 124.2,410.1 119.9,400.2 			"/>
			<path id="XMLID_550_" class="st1" d="M35.1,410.1c-3,0-5.9,0-8.9,0c0,2.3,0,4.7,0,7c2.5,1.8,6.4,1.8,8.9,0
				C35.1,414.7,35.1,412.4,35.1,410.1z"/>
			<path id="XMLID_549_" class="st4" d="M44,410.1c-3,0-5.9,0-8.9,0c0,2.3,0,4.7,0,7c2.5,1.8,6.4,1.8,8.9,0
				C44,414.7,44,412.4,44,410.1z"/>
			<path id="XMLID_548_" class="st1" d="M52.9,410.1c-3,0-5.9,0-8.9,0c0,2.3,0,4.7,0,7c2.5,1.8,6.4,1.8,8.9,0
				C52.9,414.7,52.9,412.4,52.9,410.1z"/>
			<path id="XMLID_547_" class="st4" d="M61.8,410.1c-3,0-5.9,0-8.9,0c0,2.3,0,4.7,0,7c2.5,1.8,6.4,1.8,8.9,0
				C61.8,414.7,61.8,412.4,61.8,410.1z"/>
			<path id="XMLID_546_" class="st1" d="M70.8,410.1c-3,0-5.9,0-8.9,0c0,2.3,0,4.7,0,7c2.5,1.8,6.4,1.8,8.9,0
				C70.8,414.7,70.8,412.4,70.8,410.1z"/>
			<path id="XMLID_545_" class="st4" d="M79.7,410.1c-3,0-5.9,0-8.9,0c0,2.3,0,4.7,0,7c2.5,1.8,6.4,1.8,8.9,0
				C79.7,414.7,79.7,412.4,79.7,410.1z"/>
			<path id="XMLID_544_" class="st1" d="M88.6,410.1c-3,0-5.9,0-8.9,0c0,2.3,0,4.7,0,7c2.5,1.8,6.4,1.8,8.9,0
				C88.6,414.7,88.6,412.4,88.6,410.1z"/>
			<path id="XMLID_543_" class="st4" d="M97.5,410.1c-3,0-5.9,0-8.9,0c0,2.3,0,4.7,0,7c2.5,1.8,6.4,1.8,8.9,0
				C97.5,414.7,97.5,412.4,97.5,410.1z"/>
			<path id="XMLID_542_" class="st1" d="M106.4,410.1c-3,0-5.9,0-8.9,0c0,2.3,0,4.7,0,7c2.5,1.8,6.4,1.8,8.9,0
				C106.4,414.7,106.4,412.4,106.4,410.1z"/>
			<path id="XMLID_541_" class="st4" d="M115.3,410.1c-3,0-5.9,0-8.9,0c0,2.3,0,4.7,0,7c2.5,1.8,6.4,1.8,8.9,0
				C115.3,414.7,115.3,412.4,115.3,410.1z"/>
			<path id="XMLID_540_" class="st1" d="M124.2,410.1c-3,0-5.9,0-8.9,0c0,2.3,0,4.7,0,7c2.5,1.8,6.4,1.8,8.9,0
				C124.2,414.7,124.2,412.4,124.2,410.1z"/>
			<path id="XMLID_539_" class="st1" d="M39.4,400.2c-2.7,0-5.4,0-8.1,0c-1.7,3.3-3.4,6.6-5.1,9.8c3,0,5.9,0,8.9,0
				C36.5,406.8,38,403.5,39.4,400.2z"/>
			<path id="XMLID_538_" class="st4" d="M47.4,400.2c-2.7,0-5.4,0-8.1,0c-1.4,3.3-2.8,6.6-4.2,9.8c3,0,5.9,0,8.9,0
				C45.2,406.8,46.3,403.5,47.4,400.2z"/>
			<path id="XMLID_537_" class="st1" d="M55.5,400.2c-2.7,0-5.4,0-8.1,0c-1.1,3.3-2.3,6.6-3.4,9.8c3,0,5.9,0,8.9,0
				C53.8,406.8,54.6,403.5,55.5,400.2z"/>
			<path id="XMLID_536_" class="st4" d="M63.5,400.2c-2.7,0-5.4,0-8.1,0c-0.8,3.3-1.7,6.6-2.5,9.8c3,0,5.9,0,8.9,0
				C62.4,406.8,63,403.5,63.5,400.2z"/>
			<path id="XMLID_535_" class="st1" d="M71.6,400.2c-2.7,0-5.4,0-8.1,0c-0.6,3.3-1.1,6.6-1.7,9.8c3,0,5.9,0,8.9,0
				C71,406.8,71.3,403.5,71.6,400.2z"/>
			<path id="XMLID_534_" class="st4" d="M79.7,400.2c-2.7,0-5.4,0-8.1,0c-0.3,3.3-0.6,6.6-0.8,9.8c3,0,5.9,0,8.9,0
				C79.7,406.8,79.7,403.5,79.7,400.2z"/>
			<path id="XMLID_533_" class="st1" d="M87.7,400.2c-2.7,0-5.4,0-8.1,0c0,3.3,0,6.6,0,9.8c3,0,5.9,0,8.9,0
				C88.3,406.8,88,403.5,87.7,400.2z"/>
			<path id="XMLID_532_" class="st4" d="M95.8,400.2c-2.7,0-5.4,0-8.1,0c0.3,3.3,0.6,6.6,0.8,9.8c3,0,5.9,0,8.9,0
				C96.9,406.8,96.3,403.5,95.8,400.2z"/>
			<path id="XMLID_531_" class="st1" d="M103.8,400.2c-2.7,0-5.4,0-8.1,0c0.6,3.3,1.1,6.6,1.7,9.8c3,0,5.9,0,8.9,0
				C105.5,406.8,104.7,403.5,103.8,400.2z"/>
			<path id="XMLID_530_" class="st4" d="M111.9,400.2c-2.7,0-5.4,0-8.1,0c0.8,3.3,1.7,6.6,2.5,9.8c3,0,5.9,0,8.9,0
				C114.1,406.8,113,403.5,111.9,400.2z"/>
			<path id="XMLID_529_" class="st1" d="M119.9,400.2c-2.7,0-5.4,0-8.1,0c1.1,3.3,2.3,6.6,3.4,9.8c3,0,5.9,0,8.9,0
				C122.8,406.8,121.4,403.5,119.9,400.2z"/>
		</g>
	</g>
	<g>
		<g id="XMLID_576_">
			<g>
				<polygon class="st1" points="93.3,428.9 89.8,443.1 66.1,443.1 62.5,428.9 				"/>
			</g>
			<g>
				<g>
					<rect x="69.2" y="450.9" class="st1" width="11.3" height="1"/>
				</g>
				<g>
					<polygon class="st1" points="64.4,448.2 63.5,447.8 65.6,443 60.8,424.4 61.8,424.1 66.6,443.1 					"/>
				</g>
				<g>
					<path class="st1" d="M60.4,426.7h-4.6c-0.7,0-1.3-0.6-1.3-1.3v-0.9c0-0.7,0.6-1.4,1.3-1.4h4.6c0.7,0,1.4,0.6,1.4,1.4v0.9
						C61.8,426.1,61.2,426.7,60.4,426.7z M55.8,424.1c-0.2,0-0.3,0.2-0.3,0.4v0.9c0,0.2,0.2,0.3,0.3,0.3h4.6c0.2,0,0.4-0.2,0.4-0.3
						v-0.9c0-0.2-0.2-0.4-0.4-0.4H55.8z"/>
				</g>
				<g>
					<path class="st1" d="M65.5,456.1c-2.6,0-4.7-2.1-4.7-4.7c0-1.8,1.1-3.5,2.8-4.3c0.6-0.3,1.3-0.4,2-0.4c2.6,0,4.7,2.1,4.7,4.7
						C70.2,454,68.1,456.1,65.5,456.1z M65.5,448.6c-0.4,0-0.8,0.1-1.1,0.2c-1,0.4-1.6,1.4-1.6,2.5c0,1.5,1.2,2.7,2.7,2.7
						s2.7-1.2,2.7-2.7C68.2,449.8,67,448.6,65.5,448.6z"/>
				</g>
				<g>
					<path class="st1" d="M84.2,456.1c-2.6,0-4.7-2.1-4.7-4.7s2.1-4.7,4.7-4.7c2.6,0,4.7,2.1,4.7,4.7S86.8,456.1,84.2,456.1z
						 M84.2,448.6c-1.5,0-2.7,1.2-2.7,2.7s1.2,2.7,2.7,2.7s2.7-1.2,2.7-2.7S85.7,448.6,84.2,448.6z"/>
				</g>
			</g>
		</g>
	</g>
</g>
<g>
	<g>
		<g>
			<g>
				<g>
					<g>
						<path class="st1" d="M32.9,354.9c-1.1-3.3-4-5.7-7.6-6.2l-34.1-5.1l-14.8-30.7c-1.5-3.2-4.9-5.3-8.5-5.3c-3.7,0-7,2.1-8.6,5.3
							l-14.9,30.8l-34.1,5c-3.5,0.6-6.4,3-7.5,6.2c-1.1,3.3-0.3,6.9,2.2,9.4l25,24.9l-5.8,34.6c-0.6,3.5,0.9,7,3.9,9
							c1.6,1.1,3.5,1.7,5.4,1.7c1.6,0,3.2-0.4,4.6-1.2l29.7-16l29.7,16c1.4,0.8,3,1.2,4.6,1.2c1.9,0,3.8-0.6,5.5-1.7
							c3-2,4.5-5.5,3.9-9l-5.8-34.6l25-24.9C33.2,361.8,34,358.2,32.9,354.9L32.9,354.9z M32.9,354.9c-1.1-3.3-4-5.7-7.6-6.2
							l-34.1-5.1l-14.8-30.7c-1.5-3.2-4.9-5.3-8.5-5.3c-3.7,0-7,2.1-8.6,5.3l-14.9,30.8l-34.1,5c-3.5,0.6-6.4,3-7.5,6.2
							c-1.1,3.3-0.3,6.9,2.2,9.4l25,24.9l-5.8,34.6c-0.6,3.5,0.9,7,3.9,9c1.6,1.1,3.5,1.7,5.4,1.7c1.6,0,3.2-0.4,4.6-1.2l29.7-16
							l29.7,16c1.4,0.8,3,1.2,4.6,1.2c1.9,0,3.8-0.6,5.5-1.7c3-2,4.5-5.5,3.9-9l-5.8-34.6l25-24.9C33.2,361.8,34,358.2,32.9,354.9
							L32.9,354.9z"/>
					</g>
				</g>
			</g>
		</g>
	</g>
	<g>
		<path class="st7" d="M33.6,353.9c-1.1-3.3-4-5.7-7.6-6.2l-34.1-5.1l-14.8-30.7c-1.6-3.2-4.9-5.3-8.6-5.3c-3.7,0-7,2.1-8.6,5.3
			l-14.8,30.8l-34.1,5c-3.5,0.5-6.4,2.9-7.6,6.2c-1.1,3.3-0.3,6.9,2.2,9.4l25,24.9l-4.1,24.7l29.1-7.6v-1.8c-4-4.2-6.4-10.2-7-14.1
			c-1.1-0.3-2.2-0.9-3.1-1.8c-3.4-3.6-4-11.3-3.8-14.8c0.1-2.1,1.1-2.9,1.9-3.3c1.4-0.6,3.1-0.1,4.5,0.7c0-4.9,0-8.5,0.2-10.6
			c0.1-1.7,0.3-4,1.1-6.3l0,0l0,0c2.4-6.7,8.9-10.1,19.3-10.1c11.4,0,17.9,3.9,19.8,12l0,0l0,0c0.4,1.6,0.5,3.2,0.6,4.4
			c0.1,2.1,0.2,5.6,0.2,10.6c1.4-0.7,3.1-1.3,4.5-0.7c0.8,0.4,1.8,1.2,1.9,3.3c0.2,3.5-0.4,11.2-3.8,14.8c-0.9,1-1.9,1.6-3.1,1.8
			c-0.7,3.9-2,9.9-7,14.1v1.8l29,7.6l-4.2-24.7l25-24.9C33.9,360.8,34.7,357.2,33.6,353.9z"/>
		<path class="st5" d="M-7.4,372.7c0-0.6-0.2-0.8-0.2-0.8c-0.4-0.2-2.1,0.5-3.4,1.6c0,6.7-0.2,12.7-0.2,12.7s0,0.1,0,0.3
			c0.2-0.1,0.4-0.3,0.6-0.5C-7.8,383.2-7.2,376.3-7.4,372.7z"/>
		<path class="st8" d="M-24,406.4c-2.2,0.9-4.7,1.3-7.4,1.3c-2.7,0-5.2-0.5-7.4-1.3l-2.5,0.7v14.6l10-5.6l10,5.6v-14.6L-24,406.4z"
			/>
		<path class="st5" d="M-55.3,371.5c0,0-0.1,0.2-0.2,0.9c-0.2,3.8,0.5,10.7,3.2,13.6c0.2,0.2,0.4,0.4,0.6,0.5c0-0.2,0-0.3,0-0.3
			s-0.1-6.2-0.2-13.1C-53.3,372-54.9,371.3-55.3,371.5z"/>
		<path class="st8" d="M-51.6,386.1c-0.2-0.1-0.4-0.3-0.6-0.5c-2.5-2.7-3.2-9.2-3-12.7c0-0.6,0.2-0.8,0.2-0.8
			c0.4-0.2,1.9,0.5,3.3,1.4c0-0.2,0-0.5,0-0.7c0-0.9,0-1.8,0-2.7c-1.4-0.7-3.1-1.3-4.5-0.7c-0.8,0.4-1.8,1.2-1.9,3.3
			c-0.2,3.6,0.4,11.2,3.8,14.8c0.9,0.9,1.9,1.5,3.1,1.8c-0.1-0.4-0.1-0.8-0.2-1.1C-51.5,387.3-51.5,386.5-51.6,386.1z"/>
		<path class="st8" d="M-11.1,372.9c0,0.3,0,0.5,0,0.8c1.3-0.9,2.8-1.6,3.3-1.5c0,0,0.1,0.2,0.2,0.8c0.2,3.5-0.5,10-3,12.7
			c-0.2,0.2-0.4,0.4-0.6,0.5c0,0.4-0.1,1.2-0.2,2.2c-0.1,0.3-0.1,0.7-0.2,1.1c1.2-0.3,2.2-0.9,3.1-1.8c3.4-3.6,4-11.3,3.8-14.8
			c-0.1-2.1-1.1-2.9-1.9-3.3c-1.4-0.6-3.1-0.1-4.5,0.7C-11.1,371.1-11.1,372-11.1,372.9z"/>
		<g>
			<path class="st9" d="M-43.9,404c-0.2-0.2-0.3-0.3-0.5-0.5v1.8l1.7-0.4C-43.1,404.6-43.5,404.3-43.9,404z"/>
			<path class="st9" d="M-31.6,416.4l-7.1-9.5h-0.2c-0.2-0.1-0.3-0.1-0.5-0.2c-1.1-0.4-2.3-1.1-3.3-1.8l-1.7,0.4l-29.1,7.6L-74,416
				l-1.1,6.8c-0.6,3.5,0.9,7,3.9,9c1.6,1.1,3.5,1.7,5.4,1.7c1.6,0,3.2-0.4,4.6-1.2l16.8-9c0,0,0,0,0,0L-31.6,416.4z"/>
		</g>
		<path class="st9" d="M11.9,423.5l-1.3-6.7l0-0.3l-0.5-3.6l-28.5-7.5v-1.9c-0.2,0.2-0.3,0.3-0.5,0.5c-0.4,0.3-0.8,0.6-1.2,0.9
			c-1.1,0.8-2.2,1.4-3.4,1.8c-0.1,0.1-0.2,0.1-0.3,0.1l-0.1,0l-0.1,0.1c0,0,0,0,0,0l0,0l-7.6,9.5l12,6.4h0l18,9.7
			c1.4,0.8,3,1.2,4.5,1.2c1.9,0,3.8-0.6,5.5-1.7C11.3,430,12.5,427,11.9,423.5z"/>
		<path class="st8" d="M-11.1,359.5c-0.1-1.2-0.2-2.8-0.6-4.4c0.1,0.5,0,1.1-0.5,1.5c-0.7,0.5-1.3,1-1.9,1.4
			c0.1,0.6-0.1,0.8-0.1,0.2c-5.9,4.1-11.1,5.1-14.8,5.1c-0.9-0.1-1.8-0.2-2.6-0.3l1,2.8c0.2,0.5,0.1,1.1-0.3,1.5
			c-0.3,0.3-0.7,0.5-1.1,0.5c-0.1,0-0.3,0-0.4-0.1c-7.8-2.2-13.4-7.4-16.2-10.6c0-0.1,0-0.2,0-0.3c-1.2-1.3-1.8-2.3-1.9-2.4
			c-0.3-0.4-0.3-0.9-0.2-1.3c-0.8,2.3-1,4.5-1.1,6.3c-0.1,2.1-0.2,5.6-0.2,10.6c0,0.9,0,1.8,0,2.7c0,0.2,0,0.5,0,0.7
			c0,6.4,0.2,12.2,0.2,12.2s0,0.1,0,0.3c0,0.4,0.1,1.2,0.2,2.2c0,0.3,0.1,0.7,0.2,1.1c0.7,3.9,2.5,9.9,7,14.1
			c0.2,0.2,0.3,0.3,0.5,0.5c0.4,0.5,0.8,0.8,1.2,1.1c1.1,0.8,2.2,1.4,3.3,1.8c0.2,0.1,0.3,0.1,0.5,0.2c2.2,0.9,4.7,1.3,7.4,1.3
			s5.2-0.5,7.4-1.3c0.1-0.1,0.3-0.1,0.5-0.2c1.2-0.5,2.3-1.1,3.4-1.8c0.4-0.3,0.8-0.6,1.2-0.9c0.2-0.2,0.3-0.3,0.5-0.5
			c4.5-4.2,6.3-10.2,7-14.1c0.1-0.4,0.1-0.8,0.2-1.1c0.1-1,0.2-1.8,0.2-2.2c0-0.2,0-0.3,0-0.3s0.1-5.8,0.2-12.2c0-0.2,0-0.5,0-0.8
			c0-0.9,0-1.8,0-2.7C-10.9,365.1-10.9,361.6-11.1,359.5z"/>
		<path class="st10" d="M-35.3,361.2c0,0.1,0,0.2,0.1,0.3C-35.3,361.4-35.3,361.3-35.3,361.2z"/>
		<path class="st10" d="M-34,359.5c-0.1,0-0.2,0-0.2,0C-34.2,359.5-34.1,359.5-34,359.5z"/>
		<path class="st10" d="M-35.3,360.5C-35.3,360.5-35.2,360.4-35.3,360.5C-35.2,360.4-35.2,360.4-35.3,360.5L-35.3,360.5z"/>
		<path class="st10" d="M-35.3,361c0-0.1,0-0.2,0-0.3C-35.3,360.8-35.3,360.9-35.3,361z"/>
		<path class="st10" d="M-33.4,359.6c-0.1,0-0.2-0.1-0.3-0.1C-33.6,359.5-33.5,359.6-33.4,359.6z"/>
		<path class="st10" d="M-34.5,359.7c-0.1,0-0.2,0.1-0.3,0.2C-34.7,359.8-34.6,359.7-34.5,359.7z"/>
		<path class="st9" d="M-11.6,355.3c-1.3-8.4-8.5-12.2-19.9-12.2c-10.4,0-16.9,3.4-19.3,10.1c0.3-0.2,0,1.1,0.3,1.5
			c0.1,0.1,0.7,1.1,1.9,2.4c2.8,3.1,8.4,8.5,16.3,10.7c0.1,0,0.3,0.1,0.4,0.1c0.4,0,0.8-0.2,1.1-0.5c0.4-0.4,0.5-1,0.3-1.5l-1-2.8
			l0-0.1c0.8,0.1,1.7,0.2,2.7,0.2c3.7,0,8.9-1,14.7-5.1c0.6-0.4,1.3-0.9,1.9-1.4C-11.8,356.3-11.6,355.3-11.6,355.3z M-32.6,360.3"
			/>
	</g>
</g>
</svg>
