<?xml version="1.0" encoding="utf-8"?>
<!-- Generator: Adobe Illustrator 19.1.0, SVG Export Plug-In . SVG Version: 6.00 Build 0)  -->
<svg version="1.1" id="Layer_1" xmlns="http://www.w3.org/2000/svg" xmlns:xlink="http://www.w3.org/1999/xlink" x="0px" y="0px"
	 viewBox="0 0 397.4 234.7" style="enable-background:new 0 0 397.4 234.7;" xml:space="preserve">
<style type="text/css">
	.st0{opacity:0.2;fill-rule:evenodd;clip-rule:evenodd;fill:url(#SVGID_1_);}
	.st1{fill-rule:evenodd;clip-rule:evenodd;fill:#212121;}
	.st2{opacity:0.2;fill-rule:evenodd;clip-rule:evenodd;fill:url(#SVGID_2_);}
	.st3{fill:#FFFFFF;stroke:#0C0C0C;stroke-miterlimit:10;}
	.st4{fill:#070707;stroke:#0C0C0C;stroke-miterlimit:10;}
	.st5{fill:#EDEDED;stroke:#EDEDED;stroke-width:3;stroke-miterlimit:10;}
	.st6{fill:#D1D1D1;stroke:#D1D1D1;stroke-miterlimit:10;}
	.st7{fill:#A8C638;stroke:#0C0C0C;stroke-miterlimit:10;}
	.st8{fill-rule:evenodd;clip-rule:evenodd;fill:#D1D1D1;}
	.st9{fill:#EDEDED;}
	.st10{fill:#F9F9F9;}
	.st11{fill:#212121;}
	.st12{fill:#FFF0E7;stroke:#FFF0E7;stroke-width:0.5;stroke-miterlimit:10;}
	.st13{fill:#675753;stroke:#030303;stroke-width:0.5;stroke-miterlimit:10;}
	.st14{fill:#10A6E0;stroke:#10A6E0;stroke-miterlimit:10;}
	.st15{fill:#F9F9F9;stroke:#F9F9F9;stroke-miterlimit:10;}
	.st16{fill:#9A695E;stroke:#030303;stroke-width:0.5;stroke-miterlimit:10;}
	.st17{fill:#A8C638;stroke:#A8C638;stroke-miterlimit:10;}
	.st18{fill:#FFF0E7;}
	.st19{fill:#AE1F24;stroke:#AE1F24;stroke-width:0.5;stroke-miterlimit:10;}
	.st20{fill:#D52027;stroke:#D52027;stroke-width:0.5;stroke-miterlimit:10;}
	.st21{fill:#F5F6F6;}
	.st22{fill:#F5F6F6;stroke:#F5F6F6;stroke-miterlimit:10;}
	.st23{fill-rule:evenodd;clip-rule:evenodd;fill:#10A6E0;stroke:#10A6E0;stroke-miterlimit:10;}
	.st24{fill-rule:evenodd;clip-rule:evenodd;fill:#4A4A4A;}
	.st25{fill:#4A4A4A;}
	.st26{fill:none;stroke:#030303;stroke-miterlimit:10;}
	.st27{fill:#010101;stroke:#010101;stroke-miterlimit:10;}
	.st28{fill-rule:evenodd;clip-rule:evenodd;fill:#F9F9F9;stroke:#F9F9F9;stroke-miterlimit:10;}
	.st29{fill:#D22027;stroke:#D22027;stroke-width:0.75;stroke-miterlimit:10;}
	.st30{fill:#ED7161;}
	.st31{fill-rule:evenodd;clip-rule:evenodd;fill:#EDEDED;}
	.st32{fill:#10A6E0;}
	.st33{fill-rule:evenodd;clip-rule:evenodd;fill:#FFFFFF;}
</style>
<linearGradient id="SVGID_1_" gradientUnits="userSpaceOnUse" x1="45.1345" y1="52.7602" x2="106.2341" y2="126.5637">
	<stop  offset="0" style="stop-color:#FFFFFF;stop-opacity:0"/>
	<stop  offset="1" style="stop-color:#FFFFFF"/>
</linearGradient>
<polyline class="st0" points="89.5,17.2 102.9,125.9 88.7,138.1 0,87.4 "/>
<g>
	<rect x="287" y="135.3" transform="matrix(0.753 0.658 -0.658 0.753 166.3178 -156.916)" class="st1" width="10.4" height="15.7"/>
	<polygon class="st1" points="307.9,138.4 293.7,126.3 293.4,133.8 301.2,140.6 	"/>
</g>
<linearGradient id="SVGID_2_" gradientUnits="userSpaceOnUse" x1="355.3525" y1="48.7172" x2="296.6726" y2="126.1504">
	<stop  offset="0" style="stop-color:#FFFFFF;stop-opacity:0"/>
	<stop  offset="0.5877" style="stop-color:#FFFFFF;stop-opacity:0.5877"/>
	<stop  offset="1" style="stop-color:#FFFFFF"/>
</linearGradient>
<polyline class="st2" points="307.9,17.2 294.5,125.9 308.7,138.1 397.4,87.4 "/>
<g>
	<g>
		<g>
			<path class="st3" d="M109.8,146.6V44c0-2.8,2.1-5.1,4.7-5.1h169.1c2.6,0,4.7,2.3,4.7,5.1v102.7H109.8z"/>
		</g>
		<g>
			<g>
				<path class="st4" d="M283.5,39c2.5,0,4.6,2.2,4.6,5v102.5H109.9V44c0-2.7,2-5,4.6-5H283.5 M283.5,38.7H114.5
					c-2.7,0-4.9,2.4-4.9,5.3v102.8h178.8V44C288.4,41,286.2,38.7,283.5,38.7L283.5,38.7z"/>
			</g>
		</g>
	</g>
	<g>
		<path class="st5" d="M278.6,40.7v96.3H117.8V40.7H278.6 M287,30.8H109.4c-0.8,0-1.4,0.6-1.4,1.4v113.2c0,0.8,0.6,1.4,1.4,1.4H287
			c0.8,0,1.4-0.6,1.4-1.4V32.2C288.4,31.4,287.8,30.8,287,30.8L287,30.8z"/>
	</g>
	<g>
		<path class="st5" d="M301.1,156.2c0,2-1.6,3.5-3.5,3.5H100.5c-2,0-3.5-1.6-3.5-3.5v-5.8c0-2,1.6-3.5,3.5-3.5h197.1
			c2,0,3.5,1.6,3.5,3.5V156.2z"/>
		<path class="st6" d="M297.5,160H100.5c-2.1,0-3.9-1.7-3.9-3.9v-5.8c0-2.1,1.7-3.9,3.9-3.9h197.1c2.1,0,3.9,1.7,3.9,3.9v5.8
			C301.4,158.3,299.7,160,297.5,160z M100.5,147.1c-1.8,0-3.2,1.4-3.2,3.2v5.8c0,1.8,1.4,3.2,3.2,3.2h197.1c1.8,0,3.2-1.4,3.2-3.2
			v-5.8c0-1.8-1.4-3.2-3.2-3.2H100.5z"/>
	</g>
	<g>
		<path class="st7" d="M211.6,148.3c0,0.9-0.7,1.5-1.5,1.5h-22c-0.9,0-1.5-0.7-1.5-1.5l0,0c0-0.9,0.7-1.5,1.5-1.5h22
			C210.9,146.8,211.6,147.5,211.6,148.3L211.6,148.3z"/>
	</g>
</g>
<rect x="117.8" y="40.7" class="st8" width="160.7" height="96.3"/>
<path class="st9" d="M269.8,84.7v-0.9h-11.5v-4.9h-0.9v4.9h-11.5v0.9h6.3v4.5h-6.3V90h11.5v4.5h-11.5v0.9h6.3v4.9h0.9v-4.9h9.5v4.9
	h0.9v-4.9h6.3v-0.9h-11.5V90h11.5v-0.9h-6.3v-4.5H269.8z M262.6,89.1H253v-4.5h9.5V89.1z"/>
<path class="st9" d="M150.6,69.5v-0.9H139v-4.9h-0.9v4.9h-11.5v0.9h6.3v4.5h-6.3v0.9h11.5v4.5h-11.5v0.9h6.3v4.9h0.9v-4.9h9.5v4.9
	h0.9v-4.9h6.3v-0.9H139v-4.5h11.5v-0.9h-6.3v-4.5H150.6z M143.4,73.9h-9.5v-4.5h9.5V73.9z"/>
<path class="st10" d="M147.7,66.6L147.7,66.6c0,1.5,1.2,2.7,2.7,2.7h0.5c1.5,0,2.7-1.2,2.7-2.7l0,0H147.7z"/>
<path class="st10" d="M195.5,66.6L195.5,66.6c0,1.5,1.2,2.7,2.7,2.7h0.5c1.5,0,2.7-1.2,2.7-2.7l0,0H195.5z"/>
<path class="st10" d="M243.2,66.6L243.2,66.6c0,1.5,1.2,2.7,2.7,2.7h0.5c1.5,0,2.7-1.2,2.7-2.7l0,0H243.2z"/>
<polygon class="st11" points="279,47.6 279,45.1 117.8,45.1 117.8,47.6 149.4,47.6 149.4,62 142.5,66.6 158.7,66.6 151.8,62 
	151.8,47.6 197.3,47.6 197.3,62 190.3,66.6 206.5,66.6 199.6,62 199.6,47.6 245.1,47.6 245.1,62 238.2,66.6 254.3,66.6 247.4,62 
	247.4,47.6 "/>
<g>
	<path class="st12" d="M182.2,93h-47.9c-3.2,0-5.8,2.6-5.8,5.8v36h1.4v-3h56.8v3h1.4v-36C188.1,95.6,185.4,93,182.2,93z
		 M129.9,130.4V98.8c0-2.4,2-4.4,4.4-4.4h47.9c2.4,0,4.4,2,4.4,4.4v31.6H129.9z"/>
	<rect x="124.5" y="134.9" class="st11" width="9.3" height="2.2"/>
	<rect x="182.7" y="134.9" class="st11" width="9.3" height="2.2"/>
	<path class="st13" d="M145.3,99.8l-6.6-3.9v-2.3c0-0.5,0.4-1,1-1c0.5,0,1,0.4,1,1v0.3c0,0.1,0.1,0.3,0.3,0.3s0.3-0.1,0.3-0.3v-0.3
		c0-0.8-0.7-1.5-1.5-1.5s-1.5,0.7-1.5,1.5v2.3l-6.6,3.9c-0.1,0.1-0.2,0.2-0.1,0.3c0,0.1,0.1,0.2,0.3,0.2h13.4c0.1,0,0.2-0.1,0.3-0.2
		C145.5,100,145.4,99.9,145.3,99.8z M132.8,99.8l5.7-3.4l5.7,3.4H132.8z"/>
	<path class="st14" d="M148.4,101.7l-6.3-3.8h-1c-0.5,0.9-1.4,1.6-2.5,1.6s-2-0.6-2.5-1.6h-1l-6.3,3.8l1.5,2.4l3.1-1.6l-0.6,10.8
		h11.8l-0.6-10.8l3.1,1.6L148.4,101.7z"/>
	<path class="st13" d="M155.2,99.8l-6.6-3.9v-2.3c0-0.5,0.4-1,1-1s1,0.4,1,1v0.3c0,0.1,0.1,0.3,0.3,0.3c0.1,0,0.3-0.1,0.3-0.3v-0.3
		c0-0.8-0.7-1.5-1.5-1.5c-0.8,0-1.5,0.7-1.5,1.5v2.3l-6.6,3.9c-0.1,0.1-0.2,0.2-0.1,0.3c0,0.1,0.1,0.2,0.3,0.2h13.4
		c0.1,0,0.2-0.1,0.3-0.2C155.4,100,155.3,99.9,155.2,99.8z M142.6,99.8l5.7-3.4l5.7,3.4H142.6z"/>
	<path class="st15" d="M158.3,101.7l-6.3-3.8h-1c-0.5,0.9-1.4,1.6-2.5,1.6c-1.1,0-2-0.6-2.5-1.6h-1l-6.3,3.8l1.5,2.4l3.1-1.6
		l-0.6,10.8h11.8l-0.6-10.8l3.1,1.6L158.3,101.7z"/>
	<path class="st13" d="M165.1,99.8l-6.6-3.9v-2.3c0-0.5,0.4-1,1-1c0.5,0,1,0.4,1,1v0.3c0,0.1,0.1,0.3,0.3,0.3s0.3-0.1,0.3-0.3v-0.3
		c0-0.8-0.7-1.5-1.5-1.5c-0.8,0-1.5,0.7-1.5,1.5v2.3l-6.6,3.9c-0.1,0.1-0.2,0.2-0.1,0.3c0,0.1,0.1,0.2,0.3,0.2h13.4
		c0.1,0,0.2-0.1,0.3-0.2C165.2,100,165.2,99.9,165.1,99.8z M152.5,99.8l5.7-3.4l5.7,3.4H152.5z"/>
	<path class="st14" d="M168.1,101.7l-6.3-3.8h-1c-0.5,0.9-1.4,1.6-2.5,1.6c-1.1,0-2-0.6-2.5-1.6h-1l-6.3,3.8l1.5,2.4l3.1-1.6
		l-0.6,10.8h11.8l-0.6-10.8l3.1,1.6L168.1,101.7z"/>
	<path class="st13" d="M175,99.8l-6.6-3.9v-2.3c0-0.5,0.4-1,1-1c0.5,0,1,0.4,1,1v0.3c0,0.1,0.1,0.3,0.3,0.3s0.3-0.1,0.3-0.3v-0.3
		c0-0.8-0.7-1.5-1.5-1.5s-1.5,0.7-1.5,1.5v2.3l-6.6,3.9c-0.1,0.1-0.2,0.2-0.1,0.3c0,0.1,0.1,0.2,0.3,0.2h13.4c0.1,0,0.2-0.1,0.3-0.2
		C175.1,100,175.1,99.9,175,99.8z M162.4,99.8l5.7-3.4l5.7,3.4H162.4z"/>
	<path class="st15" d="M178,101.7l-6.3-3.8h-1c-0.5,0.9-1.4,1.6-2.5,1.6s-2-0.6-2.5-1.6h-1l-6.3,3.8l1.5,2.4l3.1-1.6l-0.6,10.8h11.8
		l-0.6-10.8l3.1,1.6L178,101.7z"/>
	<path class="st13" d="M184.9,99.8l-6.6-3.9v-2.3c0-0.5,0.4-1,1-1c0.5,0,1,0.4,1,1v0.3c0,0.1,0.1,0.3,0.3,0.3c0.1,0,0.3-0.1,0.3-0.3
		v-0.3c0-0.8-0.7-1.5-1.5-1.5c-0.8,0-1.5,0.7-1.5,1.5v2.3l-6.6,3.9c-0.1,0.1-0.2,0.2-0.1,0.3c0,0.1,0.1,0.2,0.3,0.2h13.4
		c0.1,0,0.2-0.1,0.3-0.2C185,100,185,99.9,184.9,99.8z M172.3,99.8l5.7-3.4l5.7,3.4H172.3z"/>
	<path class="st14" d="M187.9,101.7l-6.3-3.8h-1c-0.5,0.9-1.4,1.6-2.5,1.6c-1.1,0-2-0.6-2.5-1.6h-1l-6.3,3.8l1.5,2.4l3.1-1.6
		l-0.6,10.8H184l-0.6-10.8l3.1,1.6L187.9,101.7z"/>
</g>
<g>
	<g>
		<rect x="223.5" y="128.5" class="st16" width="45.9" height="3.1"/>
		<rect x="228" y="131.6" class="st13" width="2.9" height="5.5"/>
		<rect x="262" y="131.6" class="st13" width="2.9" height="5.5"/>
		<path class="st14" d="M232.9,122.7L232.9,122.7c-1.8,0-3.3,1.5-3.3,3.3v1.2h6.6V126C236.2,124.2,234.7,122.7,232.9,122.7z"/>
		<path class="st17" d="M237.3,129.2l-1.1-2h-6.6l-1.1,2c-0.1,0.2,0,0.5,0.3,0.5h8.3C237.3,129.7,237.4,129.5,237.3,129.2z"/>
		<rect x="231.8" y="124.5" class="st18" width="2.2" height="1.3"/>
		<path class="st17" d="M260,122.7L260,122.7c1.8,0,3.3,1.5,3.3,3.3v1.2h-6.6V126C256.7,124.2,258.1,122.7,260,122.7z"/>
		<path class="st14" d="M255.6,129.2l1.1-2h6.6l1.1,2c0.1,0.2,0,0.5-0.3,0.5h-8.3C255.6,129.7,255.4,129.5,255.6,129.2z"/>
		<rect x="258.9" y="124.5" class="st18" width="2.2" height="1.3"/>
		<g>
			<g>
				<path class="st14" d="M246.4,129.5c-5.5,0-6.5-1-6.5-1.5c0-0.3,0.2-0.5,0.4-0.5c0.2,0,0.4,0.1,0.5,0.3c0.1,0.1,1,0.8,5.6,0.8
					c4.6,0,5.5-0.7,5.6-0.8c0.1-0.2,0.3-0.3,0.5-0.3c0.3,0,0.4,0.3,0.4,0.5C252.9,128.6,252,129.5,246.4,129.5z"/>
			</g>
			<path class="st14" d="M246.4,128.6c1.7,0,2.9-0.1,3.7-0.2c0.4-1.5,0.1-3-0.7-4.2c-0.4-0.6-0.8-0.8-1.5-0.6
				c-0.6,0.2-1.1,0.7-1.5,1.1c-0.4-0.4-0.9-0.9-1.5-1.1c-0.7-0.2-1.1,0-1.5,0.6c-0.8,1.3-1.1,2.8-0.7,4.2
				C243.6,128.5,244.8,128.6,246.4,128.6z"/>
			<path class="st17" d="M246.4,127.9c-1.8,0-3-0.1-3.8-0.2c0,0.2,0.1,0.5,0.1,0.7c0.8,0.1,2,0.2,3.7,0.2c1.7,0,2.9-0.1,3.7-0.2
				c0.1-0.2,0.1-0.5,0.1-0.7C249.4,127.8,248.2,127.9,246.4,127.9z"/>
		</g>
	</g>
</g>
<rect x="180.3" y="136.9" class="st19" width="37.1" height="9.5"/>
<rect x="180.3" y="147.1" class="st20" width="37.1" height="7.7"/>
<rect x="180.3" y="155.6" class="st19" width="37.1" height="3.6"/>
<rect x="180.3" y="159.2" class="st20" width="37.1" height="75.2"/>
<g>
	<g>
		<path class="st21" d="M198.9,175.9c3,0,5.4-3.1,5.4-6.9c0-3.8-2.4-5.2-5.4-5.2s-5.4,1.4-5.4,5.2
			C193.5,172.8,195.9,175.9,198.9,175.9L198.9,175.9z M198.9,175.9"/>
	</g>
	<path class="st22" d="M189.5,201.8c0,0,0.2,2.5,2.2,4v-4.9L189.5,201.8z"/>
	<path class="st22" d="M206.9,201.8c0,0,0.8,2.5-2.2,4v-4.9L206.9,201.8z"/>
	<path class="st23" d="M189.5,201.5h2.2v5.4l13,0v-5.5h3V184c0,0-0.1-3.3-3.6-4.9c0,0-1.1-0.6-2.7-0.6s-5.5,0-5.5,0s-2,0.3-3.3,1.1
		c-1.2,0.9-3,2.8-3.1,5.2C189.4,187.3,189.5,201.5,189.5,201.5z"/>
	<g>
		<polygon class="st24" points="200.2,227 200.2,208 197.2,208 197.2,227 192.2,227 192.2,198 205.2,198 205.2,227 		"/>
		<path class="st25" d="M204.2,199v27h-3v-17.6V207h-1.1h-2.4h-1.5v1.4V226h-4v-27h5.7h2.5h0.1H204.2 M205.2,198h-4.6h-0.1h-2.5
			h-6.7v29h6v-19h3v19h5V198L205.2,198z"/>
	</g>
	<path class="st26" d="M191.6,187.8"/>
	<path class="st26" d="M191.6,199.8"/>
	<path class="st26" d="M204.9,187.8"/>
	<path class="st26" d="M204.9,199.8"/>
</g>
<path class="st27" d="M194.2,171.9c0,0,3.7,1.3,4.7,1.3s3.9-0.5,4.8-1c0,0,0.3-0.5,0.5-1.4c0.2-0.9-2.7-3-2.7-3l-7,0.3l-1,1.8
	C193.5,169.9,193.3,170.7,194.2,171.9z"/>
<g>
	<path class="st14" d="M198.9,160.7L198.9,160.7c-3,0-5.4,2.1-5.4,4.8v1.7h10.8v-1.7C204.3,162.9,201.9,160.7,198.9,160.7z"/>
	<path class="st17" d="M206.1,170.1l-1.8-2.9h-10.8l-1.8,2.9c-0.2,0.3,0.1,0.7,0.4,0.7h13.5C206,170.7,206.3,170.4,206.1,170.1z"/>
	<rect x="197.1" y="163.3" class="st18" width="3.6" height="1.8"/>
</g>
<g>
	<g>
		<path class="st28" d="M236.8,146.9c0,7.8-6.4,14.2-14.3,14.2c-2.5,0-4.9-0.6-6.9-1.8l-7.9,2.5l2.6-7.6c-1.3-2.1-2-4.6-2-7.3
			c0-7.8,6.4-14.2,14.3-14.2C230.4,132.7,236.8,139.1,236.8,146.9L236.8,146.9z M229.8,150.2"/>
	</g>
</g>
<g>
	<g>
		<path class="st29" d="M222.2,143.5c0.5-1.2,1.7-2.1,3-2.1c1.8,0,3.2,1.6,3.3,3.4c0,0,0.1,0.5-0.1,1.3c-0.3,1.1-0.9,2.2-1.8,2.9
			l-4.5,4l-4.4-4c-0.9-0.8-1.5-1.8-1.8-2.9c-0.2-0.8-0.1-1.3-0.1-1.3c0.2-1.9,1.5-3.4,3.3-3.4C220.6,141.4,221.7,142.3,222.2,143.5
			L222.2,143.5z M222.2,143.5"/>
	</g>
	<path class="st30" d="M217.5,145.5c-0.1,0-0.3-0.1-0.3-0.3c0-1.4,1.1-2.5,2.5-2.5c0.1,0,0.3,0.1,0.3,0.3c0,0.1-0.1,0.3-0.3,0.3
		c-1.1,0-2,0.9-2,2C217.7,145.4,217.6,145.5,217.5,145.5L217.5,145.5z M217.5,145.5"/>
</g>
<rect x="167.5" y="0" class="st31" width="63.2" height="22.4"/>
<g>
	<path class="st32" d="M182.8,14.1c0,0.2,0,0.4,0,0.5c0,0.1,0.1,0.3,0.3,0.5c0.2,0.2,0.5,0.4,0.9,0.4c0.3,0,0.5-0.1,0.7-0.2
		c0.2-0.1,0.4-0.2,0.5-0.4c0.1-0.2,0.2-0.3,0.2-0.5c0-0.2,0-0.3,0-0.4v-0.9c0-0.3,0-0.4,0-0.6c0-0.1-0.1-0.3-0.2-0.4
		s-0.3-0.3-0.6-0.4c-0.2-0.1-0.7-0.3-1.3-0.5c-0.6-0.2-1.1-0.6-1.5-1.1c-0.4-0.5-0.6-1.1-0.6-2V7.7c0-0.9,0.3-1.6,0.9-2.2
		s1.3-0.9,2.1-0.9c0.9,0,1.6,0.3,2.2,0.9c0.6,0.6,0.9,1.4,0.9,2.2v0.6h-1.8V7.7c0-0.2,0-0.3,0-0.5c0-0.1-0.1-0.3-0.3-0.5
		c-0.2-0.2-0.5-0.4-0.9-0.4c-0.4,0-0.7,0.1-0.9,0.4c-0.2,0.3-0.3,0.6-0.3,1v0.6c0,0.2,0,0.4,0,0.5c0,0.1,0.1,0.2,0.2,0.4
		s0.3,0.3,0.5,0.4s0.6,0.3,1.2,0.5c0.6,0.2,1.1,0.6,1.6,1.1c0.5,0.5,0.7,1.2,0.7,2v1c0,0.4,0,0.8-0.1,1.1c-0.1,0.3-0.3,0.8-0.8,1.3
		c-0.4,0.6-1.2,0.8-2.2,0.8c-1.1,0-1.9-0.4-2.4-1.1c-0.5-0.7-0.7-1.4-0.7-2.2v-0.5h1.8V14.1z"/>
	<path class="st32" d="M190.2,17.3V6.3h-2.1V4.6h6.1v1.7H192v10.9H190.2z"/>
	<path class="st32" d="M195.9,5.8c0.3-0.4,0.7-0.7,1.1-1c0.4-0.2,0.9-0.3,1.4-0.3c0.5,0,0.9,0.1,1.3,0.3c0.4,0.2,0.7,0.4,1,0.8
		c0.3,0.3,0.5,0.7,0.6,1c0.1,0.3,0.2,0.7,0.2,1.1v6.4c0,0.4,0,0.7-0.1,1c-0.1,0.3-0.2,0.6-0.4,1s-0.6,0.7-1,0.9
		c-0.4,0.3-0.9,0.4-1.4,0.4c-0.6,0-1.1-0.2-1.6-0.5c-0.5-0.3-0.8-0.6-1-1c-0.2-0.4-0.3-0.7-0.3-0.9c0-0.2-0.1-0.5-0.1-0.8V7.7
		c0-0.4,0-0.7,0.1-1C195.5,6.4,195.7,6.1,195.9,5.8z M199.4,6.8c-0.3-0.3-0.6-0.5-1-0.5c-0.2,0-0.4,0.1-0.6,0.2
		c-0.2,0.1-0.4,0.3-0.4,0.4s-0.1,0.3-0.2,0.4c0,0.2,0,0.3,0,0.4v6.4c0,0.1,0,0.3,0,0.4c0,0.2,0.1,0.4,0.3,0.6s0.5,0.4,0.9,0.4
		c0.2,0,0.4-0.1,0.6-0.2c0.2-0.1,0.3-0.2,0.4-0.4c0.1-0.1,0.1-0.3,0.2-0.4c0-0.1,0-0.3,0-0.5V7.7c0-0.3,0-0.4,0-0.5
		C199.5,7.1,199.5,7,199.4,6.8z"/>
	<path class="st32" d="M203.2,17.3V4.6h3.2c0.8,0,1.5,0.3,2.1,0.9c0.6,0.6,0.8,1.3,0.8,2.1v1.2c0,1.2-0.5,2-1.5,2.7l1.9,5.8h-1.9
		l-1.7-5.4H205v5.4H203.2z M207.2,9.9c0.1-0.1,0.2-0.3,0.2-0.5c0-0.2,0.1-0.4,0.1-0.6V7.6c0-0.4-0.1-0.7-0.3-0.9
		c-0.2-0.2-0.5-0.4-0.9-0.4H205v3.9h1.3C206.6,10.3,206.9,10.1,207.2,9.9z"/>
	<path class="st32" d="M216.4,15.5v1.8H211V4.6h5.4v1.7h-3.6V10h3.2v1.7h-3.2v3.7H216.4z"/>
</g>
<rect x="173.1" y="22.9" class="st31" width="3.6" height="6.5"/>
<rect x="221.5" y="22.8" class="st31" width="3.6" height="6.6"/>
<circle class="st33" cx="170.9" cy="171.4" r="4.2"/>
<circle class="st33" cx="170.9" cy="195.6" r="4.2"/>
<circle class="st33" cx="170.9" cy="219.8" r="4.2"/>
<circle class="st33" cx="227.8" cy="171.4" r="4.2"/>
<circle class="st33" cx="227.8" cy="195.6" r="4.2"/>
<circle class="st33" cx="227.8" cy="219.8" r="4.2"/>
</svg>
