<svg id="flexibleMonetization" class="img-responsive-pictogram" width="507" height="421" xmlns="http://www.w3.org/2000/svg" xmlns:xlink="http://www.w3.org/1999/xlink" viewBox="0 0 301.24 292.14"><defs><linearGradient id="linear-gradient" x1="90.4" y1="116.16" x2="237.97" y2="116.16" gradientUnits="userSpaceOnUse"><stop offset="0" stop-color="#b6e8fb"/><stop offset="1" stop-color="#5db6d9"/></linearGradient><clipPath id="clip-path" transform="translate(-196.87 -47.7)"><path d="M316.68,280.74l2.11,1.23c.58.34.84,1,.85,2.1a7.36,7.36,0,0,1-3.47,6L314,288.83a7.36,7.36,0,0,0,3.47-6C317.52,281.77,317.26,281.08,316.68,280.74Z" style="fill:none"/></clipPath><clipPath id="clip-path-2" transform="translate(-196.87 -47.7)"><path d="M314.76,284.15l2.11,1.23a.57.57,0,0,1,.25.54,2.33,2.33,0,0,1-1,1.81L314,286.5a2.33,2.33,0,0,0,1-1.81A.57.57,0,0,0,314.76,284.15Z" style="fill:none"/></clipPath><clipPath id="clip-path-3" transform="translate(-196.87 -47.7)"><path d="M314.76,284.15l2.11,1.23a1,1,0,0,0-.73,0L314,284.12A1,1,0,0,1,314.76,284.15Z" style="fill:none"/></clipPath><clipPath id="clip-path-4" transform="translate(-196.87 -47.7)"><path d="M311.64,291.21,309.53,290a4.65,4.65,0,0,0,3.63-.63l2.11,1.23A4.65,4.65,0,0,1,311.64,291.21Z" style="fill:none"/></clipPath><clipPath id="clip-path-5" transform="translate(-196.87 -47.7)"><path d="M316.68,280.74l2.11,1.23a3.53,3.53,0,0,0-2.65,0L314,280.77A3.53,3.53,0,0,1,316.68,280.74Z" style="fill:none"/></clipPath><clipPath id="clip-path-6" transform="translate(-196.87 -47.7)"><path d="M316.13,279.91,314,278.68a4.53,4.53,0,0,1,2.38-.42l2.11,1.23A4.53,4.53,0,0,0,316.13,279.91Z" style="fill:none"/></clipPath><clipPath id="clip-path-7" transform="translate(-196.87 -47.7)"><path d="M312.6,285.59l-2.11-1.23a3.64,3.64,0,0,0,2.66,0l2.11,1.23A3.64,3.64,0,0,1,312.6,285.59Z" style="fill:none"/></clipPath><clipPath id="clip-path-8" transform="translate(-196.87 -47.7)"><path d="M314.53,282.27,312.41,281a1,1,0,0,0,.72,0l2.11,1.23A1,1,0,0,1,314.53,282.27Z" style="fill:none"/></clipPath><clipPath id="clip-path-9" transform="translate(-196.87 -47.7)"><path d="M312.41,281c-.13-.08-.18-.23-.18-.44l2.11,1.23c0,.21,0,.37.18.44Z" style="fill:none"/></clipPath><clipPath id="clip-path-10" transform="translate(-196.87 -47.7)"><path d="M312.23,280.6a1.83,1.83,0,0,1,.9-1.43l2.11,1.23a1.83,1.83,0,0,0-.9,1.43Z" style="fill:none"/></clipPath><clipPath id="clip-path-11" transform="translate(-196.87 -47.7)"><path d="M316.13,277.58,314,276.35a4.8,4.8,0,0,1,2.93-.57l2.11,1.23A4.8,4.8,0,0,0,316.13,277.58Z" style="fill:none"/></clipPath><clipPath id="clip-path-12" transform="translate(-196.87 -47.7)"><path d="M312.6,285.59l-2.11-1.23c-.56-.33-.76-1-.76-1.94a6.85,6.85,0,0,1,3.4-5.56l2.11,1.23a6.85,6.85,0,0,0-3.4,5.56C311.84,284.6,312,285.27,312.6,285.59Z" style="fill:none"/></clipPath><clipPath id="clip-path-13" transform="translate(-196.87 -47.7)"><path d="M312.21,288.57l-2.11-1.23a4.32,4.32,0,0,0,3.06-.27l2.11,1.23A4.32,4.32,0,0,1,312.21,288.57Z" style="fill:none"/></clipPath><clipPath id="clip-path-14" transform="translate(-196.87 -47.7)"><path d="M320.67,282.74l2.11,1.23c.58.34.84,1,.84,2.11a7.33,7.33,0,0,1-3.47,6L318,290.83a7.33,7.33,0,0,0,3.47-6C321.52,283.78,321.25,283.08,320.67,282.74Z" style="fill:none"/></clipPath><clipPath id="clip-path-15" transform="translate(-196.87 -47.7)"><path d="M318.76,286.15l2.11,1.23a.58.58,0,0,1,.25.54,2.33,2.33,0,0,1-1,1.8L318,288.5a2.33,2.33,0,0,0,1-1.8A.58.58,0,0,0,318.76,286.15Z" style="fill:none"/></clipPath><clipPath id="clip-path-16" transform="translate(-196.87 -47.7)"><path d="M318.76,286.15l2.11,1.23a1,1,0,0,0-.73,0L318,286.12A1,1,0,0,1,318.76,286.15Z" style="fill:none"/></clipPath><clipPath id="clip-path-17" transform="translate(-196.87 -47.7)"><path d="M315.64,293.21,313.53,292a4.67,4.67,0,0,0,3.64-.62l2.11,1.23A4.67,4.67,0,0,1,315.64,293.21Z" style="fill:none"/></clipPath><clipPath id="clip-path-18" transform="translate(-196.87 -47.7)"><path d="M320.67,282.74l2.11,1.23a3.53,3.53,0,0,0-2.65,0L318,282.78A3.53,3.53,0,0,1,320.67,282.74Z" style="fill:none"/></clipPath><clipPath id="clip-path-19" transform="translate(-196.87 -47.7)"><path d="M316.21,290.57l-2.11-1.23a4.31,4.31,0,0,0,3.06-.27l2.11,1.23A4.31,4.31,0,0,1,316.21,290.57Z" style="fill:none"/></clipPath><clipPath id="clip-path-20" transform="translate(-196.87 -47.7)"><path d="M320.13,281.91,318,280.68a4.53,4.53,0,0,1,2.39-.42l2.11,1.23A4.53,4.53,0,0,0,320.13,281.91Z" style="fill:none"/></clipPath><clipPath id="clip-path-21" transform="translate(-196.87 -47.7)"><path d="M316.6,287.59l-2.11-1.23a3.65,3.65,0,0,0,2.66,0l2.11,1.23A3.65,3.65,0,0,1,316.6,287.59Z" style="fill:none"/></clipPath><clipPath id="clip-path-22" transform="translate(-196.87 -47.7)"><path d="M318.53,284.27,316.41,283a1,1,0,0,0,.72,0l2.11,1.23A1,1,0,0,1,318.53,284.27Z" style="fill:none"/></clipPath><clipPath id="clip-path-23" transform="translate(-196.87 -47.7)"><path d="M316.41,283a.46.46,0,0,1-.18-.44l2.11,1.23a.46.46,0,0,0,.18.44Z" style="fill:none"/></clipPath><clipPath id="clip-path-24" transform="translate(-196.87 -47.7)"><path d="M316.24,282.6a1.85,1.85,0,0,1,.9-1.44l2.11,1.23a1.85,1.85,0,0,0-.9,1.44Z" style="fill:none"/></clipPath><clipPath id="clip-path-25" transform="translate(-196.87 -47.7)"><path d="M320.12,279.58,318,278.35a4.8,4.8,0,0,1,2.93-.57l2.11,1.23A4.8,4.8,0,0,0,320.12,279.58Z" style="fill:none"/></clipPath><clipPath id="clip-path-26" transform="translate(-196.87 -47.7)"><path d="M316.6,287.59l-2.11-1.23c-.56-.32-.76-1-.76-1.93a6.88,6.88,0,0,1,3.41-5.57l2.11,1.23a6.88,6.88,0,0,0-3.41,5.57C315.84,286.61,316,287.27,316.6,287.59Z" style="fill:none"/></clipPath><clipPath id="clip-path-27" transform="translate(-196.87 -47.7)"><path d="M324.68,284.74l2.11,1.23c.58.34.84,1,.84,2.11a7.34,7.34,0,0,1-3.47,6L322,292.82a7.34,7.34,0,0,0,3.47-6C325.52,285.78,325.26,285.08,324.68,284.74Z" style="fill:none"/></clipPath><clipPath id="clip-path-28" transform="translate(-196.87 -47.7)"><path d="M322.77,288.15l2.11,1.23a.58.58,0,0,1,.25.54,2.36,2.36,0,0,1-1,1.81L322,290.51a2.36,2.36,0,0,0,1-1.81A.58.58,0,0,0,322.77,288.15Z" style="fill:none"/></clipPath><clipPath id="clip-path-29" transform="translate(-196.87 -47.7)"><path d="M322.77,288.15l2.11,1.23a1,1,0,0,0-.73,0L322,288.11A1,1,0,0,1,322.77,288.15Z" style="fill:none"/></clipPath><clipPath id="clip-path-30" transform="translate(-196.87 -47.7)"><path d="M319.64,295.21,317.53,294a4.62,4.62,0,0,0,3.64-.62l2.11,1.23A4.62,4.62,0,0,1,319.64,295.21Z" style="fill:none"/></clipPath><clipPath id="clip-path-31" transform="translate(-196.87 -47.7)"><path d="M324.68,284.74l2.11,1.23a3.53,3.53,0,0,0-2.65,0L322,284.78A3.53,3.53,0,0,1,324.68,284.74Z" style="fill:none"/></clipPath><clipPath id="clip-path-32" transform="translate(-196.87 -47.7)"><path d="M320.22,292.57l-2.11-1.23a4.29,4.29,0,0,0,3.06-.27l2.11,1.23A4.29,4.29,0,0,1,320.22,292.57Z" style="fill:none"/></clipPath><clipPath id="clip-path-33" transform="translate(-196.87 -47.7)"><path d="M324.13,283.91,322,282.68a4.59,4.59,0,0,1,2.39-.42l2.11,1.23A4.59,4.59,0,0,0,324.13,283.91Z" style="fill:none"/></clipPath><clipPath id="clip-path-34" transform="translate(-196.87 -47.7)"><path d="M320.61,289.6l-2.11-1.23a3.65,3.65,0,0,0,2.66,0l2.11,1.23A3.65,3.65,0,0,1,320.61,289.6Z" style="fill:none"/></clipPath><clipPath id="clip-path-35" transform="translate(-196.87 -47.7)"><path d="M322.53,286.27,320.41,285a1,1,0,0,0,.73,0l2.11,1.23A1,1,0,0,1,322.53,286.27Z" style="fill:none"/></clipPath><clipPath id="clip-path-36" transform="translate(-196.87 -47.7)"><path d="M320.41,285a.46.46,0,0,1-.18-.44l2.11,1.23a.46.46,0,0,0,.18.44Z" style="fill:none"/></clipPath><clipPath id="clip-path-37" transform="translate(-196.87 -47.7)"><path d="M320.23,284.61a1.83,1.83,0,0,1,.9-1.43l2.11,1.23a1.83,1.83,0,0,0-.9,1.43Z" style="fill:none"/></clipPath><clipPath id="clip-path-38" transform="translate(-196.87 -47.7)"><path d="M324.13,281.59,322,280.36a4.85,4.85,0,0,1,2.93-.57l2.11,1.23A4.85,4.85,0,0,0,324.13,281.59Z" style="fill:none"/></clipPath><clipPath id="clip-path-39" transform="translate(-196.87 -47.7)"><path d="M320.61,289.6l-2.11-1.23c-.56-.32-.76-1-.76-1.94a6.85,6.85,0,0,1,3.41-5.56l2.11,1.23a6.85,6.85,0,0,0-3.41,5.56C319.84,288.61,320,289.27,320.61,289.6Z" style="fill:none"/></clipPath></defs><title>flexible-monetization-billing</title><g id="closeLine"><polyline points="218.18 212.81 289.04 253.47 222.17 291.63 134.2 240.83" style="fill:none;stroke:#b6e8fb;stroke-linecap:round;stroke-linejoin:round;stroke-width:1.02477262470557px"/></g><g id="farLine"><polyline points="126.94 197.61 63.23 160.63 0.51 198.42 64.22 235.41" style="fill:none;stroke:#b6e8fb;stroke-linecap:round;stroke-linejoin:round;stroke-width:1.02477262470557px"/></g><g id="screen"><path d="M444.1,140.36v131.1l-156.83-221h0A18.18,18.18,0,0,1,306,50.13l129,74.48A18.18,18.18,0,0,1,444.1,140.36Z" transform="translate(-196.87 -47.7)" style="fill:#00406b"/><polygon points="237.97 87.95 237.97 229.55 90.4 144.36 90.4 2.76 237.97 87.95" style="fill:url(#linear-gradient)"/><polygon points="225.25 94.77 225.25 206.3 101.07 134.61 101.07 23.08 225.25 94.77" style="fill:#00406b"/></g><g id="onlineStore"><polygon points="236.45 169.76 236.45 253.2 301.24 215.8 301.24 132.36 236.45 169.76" style="fill:#00406b"/><polyline points="236.45 169.76 301.24 132.36 301.24 119.3 213.21 170.12 213.21 183.18 236.45 169.76" style="fill:#b6e8fb"/><polygon points="236.45 169.76 213.21 183.18 213.21 266.62 236.45 253.2 236.45 169.76" style="fill:#00406b"/><polygon points="236.45 169.76 213.21 183.18 213.21 266.62 236.45 253.2 236.45 169.76" style="fill:#b6e8fb;opacity:0.2"/><path d="M417.11,221.47a.83.83,0,0,0-.78-1.23,2,2,0,0,0-1.68,1.23.83.83,0,0,0,.78,1.23A2,2,0,0,0,417.11,221.47Z" transform="translate(-196.87 -47.7)" style="fill:#00406b"/><path d="M422.75,218.25A.83.83,0,0,0,422,217a2,2,0,0,0-1.68,1.23.83.83,0,0,0,.78,1.23A2,2,0,0,0,422.75,218.25Z" transform="translate(-196.87 -47.7)" style="fill:#00406b"/><path d="M428.4,214.81a.83.83,0,0,0-.78-1.23,2,2,0,0,0-1.68,1.23.83.83,0,0,0,.78,1.23A2,2,0,0,0,428.4,214.81Z" transform="translate(-196.87 -47.7)" style="fill:#00406b"/><polygon points="293.1 201.53 244.7 229.47 244.7 184.99 293.1 157.05 293.1 201.53" style="fill:#00b6e8"/><polygon points="293.1 150.98 244.7 178.92 244.7 173.13 293.1 145.19 293.1 150.98" style="fill:#b6e8fb;opacity:0.2"/><polygon points="289.28 228.23 256.68 247.05 256.68 231.13 289.28 212.3 289.28 228.23" style="fill:#9e79bb"/><path d="M459.26,284.18v-.44l.42-.24a1.87,1.87,0,0,1,0-.24,1.48,1.48,0,0,1,0-.21l-.42.24v-.44l.46-.26a4.06,4.06,0,0,1,2.05-2.84,2.43,2.43,0,0,1,1.18-.37v1a1.51,1.51,0,0,0-1,.25,1.53,1.53,0,0,0-.81,1.16l1-.55v.43l-1,.58a1.46,1.46,0,0,0,0,.21,1.79,1.79,0,0,0,0,.24l1-.58v.43l-1,.55c.12.43.38.45.81.2a3.67,3.67,0,0,0,1-.9v1a4.56,4.56,0,0,1-1.18,1c-1,.6-1.83.52-2.05-.47Z" transform="translate(-196.87 -47.7)" style="fill:#fff"/><path d="M463.68,280.42a5.07,5.07,0,0,1,2.43-4.33c1.39-.79,2.43-.3,2.43,1.55a5.08,5.08,0,0,1-2.43,4.34C464.71,282.78,463.68,282.28,463.68,280.42ZM467,278.5c0-1.3-.32-1.64-.92-1.29s-.92,1-.92,2.35.32,1.65.92,1.3S467,279.81,467,278.5Z" transform="translate(-196.87 -47.7)" style="fill:#fff"/><path d="M469.16,280.08v-1.39l1.39-.79v1.39Z" transform="translate(-196.87 -47.7)" style="fill:#fff"/><path d="M473.21,272c1-.55,2.23-.82,2.23,1.36a5.29,5.29,0,0,1-2.58,4.72,2.83,2.83,0,0,1-1.44.45v-1a2.56,2.56,0,0,0,1.25-.34,2.44,2.44,0,0,0,1.31-2.25,3.46,3.46,0,0,1-1.17,1.16c-1,.59-1.74.24-1.74-.87A4.05,4.05,0,0,1,473.21,272Zm.8,1.51c0-.62-.31-.83-.75-.58a1.61,1.61,0,0,0-.74,1.36c0,.54.25.8.71.54A1.54,1.54,0,0,0,474,273.55Z" transform="translate(-196.87 -47.7)" style="fill:#fff"/><path d="M478.28,269.15c1-.55,2.23-.82,2.23,1.36a5.29,5.29,0,0,1-2.58,4.72,2.84,2.84,0,0,1-1.44.45v-1a2.57,2.57,0,0,0,1.25-.34A2.45,2.45,0,0,0,479,272a3.46,3.46,0,0,1-1.17,1.15c-1,.59-1.74.24-1.74-.87A4.05,4.05,0,0,1,478.28,269.15Zm.8,1.51c0-.62-.31-.83-.75-.58a1.6,1.6,0,0,0-.74,1.36c0,.54.25.8.71.54A1.54,1.54,0,0,0,479.07,270.65Z" transform="translate(-196.87 -47.7)" style="fill:#fff"/><path d="M478.57,221.88l1.23,2.49L460.7,256.89l-2-1,17-33.53,2.87-.52m.78-1.42-4.45.8L457,256.58l4.14,2,20.11-34.25-1.9-3.86Z" transform="translate(-196.87 -47.7)" style="fill:#00406b"/><polygon points="265.68 210.15 259.92 207.37 257.83 211.19 263.6 213.97 265.68 210.15" style="fill:#00406b"/><polygon points="273.31 203.54 261.18 197.71 259.87 200.12 272 205.95 273.31 203.54" style="fill:#00406b"/><polygon points="261.76 210.67 282.08 173.48 277.93 174.43 260.32 209.98 261.76 210.67" style="fill:#00406b"/><line x1="230.14" y1="183.59" x2="219.47" y2="189.76" style="fill:none;stroke:#95d669;stroke-linecap:round;stroke-linejoin:round;stroke-width:2.04954524941114px"/><line x1="227.44" y1="193.26" x2="219.47" y2="197.86" style="fill:none;stroke:#95d669;stroke-linecap:round;stroke-linejoin:round;stroke-width:2.04954524941114px"/><line x1="230.14" y1="199.8" x2="219.47" y2="205.97" style="fill:none;stroke:#95d669;stroke-linecap:round;stroke-linejoin:round;stroke-width:2.04954524941114px"/><line x1="225.96" y1="210.32" x2="219.47" y2="214.07" style="fill:none;stroke:#95d669;stroke-linecap:round;stroke-linejoin:round;stroke-width:2.04954524941114px"/></g><g id="worldScreen"><polygon points="196.83 104.42 196.83 224.52 67.22 149.75 67.22 29.65 196.83 104.42" style="fill:#00b6e8"/><polygon points="95.82 66.32 95.82 86.09 56.24 62.41 56.24 42.64 95.82 66.32" style="fill:none;stroke:#b6e8fb;stroke-miterlimit:10;stroke-width:1.31966952201571px"/><polygon points="90.5 71.22 90.5 100.71 50.92 77.03 50.92 47.54 90.5 71.22" style="fill:#95d669"/><line x1="170.97" y1="119.48" x2="207.46" y2="140.54" style="fill:none;stroke:#95d669;stroke-linecap:round;stroke-linejoin:round;stroke-width:2.04954524941114px"/><line x1="170.97" y1="140.54" x2="193.62" y2="153.62" style="fill:none;stroke:#95d669;stroke-linecap:round;stroke-linejoin:round;stroke-width:2.04954524941114px"/><line x1="170.97" y1="150.54" x2="181.65" y2="156.7" style="fill:none;stroke:#95d669;stroke-linecap:round;stroke-linejoin:round;stroke-width:2.04954524941114px"/><line x1="169.99" y1="162.03" x2="190.4" y2="173.81" style="fill:none;stroke:#95d669;stroke-linecap:round;stroke-linejoin:round;stroke-width:2.04954524941114px"/><line x1="170.97" y1="131.21" x2="206.89" y2="151.94" style="fill:none;stroke:#95d669;stroke-linecap:round;stroke-linejoin:round;stroke-width:2.04954524941114px"/><circle cx="126.49" cy="127.07" r="33.69" style="fill:none;stroke:#b6e8fb;stroke-miterlimit:10"/><ellipse cx="126.49" cy="127.07" rx="29.05" ry="33.69" style="fill:none;stroke:#b6e8fb;stroke-miterlimit:10"/><ellipse cx="126.49" cy="127.07" rx="18.49" ry="33.69" style="fill:none;stroke:#b6e8fb;stroke-miterlimit:10"/><path d="M289.68,174.77c0,9.38,15.08,17,33.69,17s33.69-7.61,33.69-17" transform="translate(-196.87 -47.7)" style="fill:none;stroke:#b6e8fb;stroke-miterlimit:10"/><path d="M292.19,161.39c0,8.68,14,15.72,31.17,15.72s31.17-7,31.17-15.72" transform="translate(-196.87 -47.7)" style="fill:none;stroke:#b6e8fb;stroke-miterlimit:10"/><path d="M299.52,198.57l0,0c5.44,3.64,14.08,6,23.82,6s18.38-2.35,23.82-6l0,0" transform="translate(-196.87 -47.7)" style="fill:none;stroke:#b6e8fb;stroke-miterlimit:10"/><ellipse cx="126.49" cy="103.12" rx="18.49" ry="9.33" style="fill:none;stroke:#b6e8fb;stroke-miterlimit:10"/><line x1="126.49" y1="93.39" x2="126.49" y2="160.76" style="fill:none;stroke:#b6e8fb;stroke-miterlimit:10"/><polyline points="92.09 121.21 58.74 102.55 58.74 157.97" style="fill:none;stroke:#b6e8fb;stroke-linecap:round;stroke-linejoin:round;stroke-width:1.02477262470557px"/><line x1="126.49" y1="125.58" x2="126.49" y2="206.19" style="fill:none;stroke:#b6e8fb;stroke-linecap:round;stroke-linejoin:round;stroke-width:1.02477262470557px"/></g><g id="cards"><path d="M271.63,226.2l-35.81-20.67a11.87,11.87,0,0,1-5.94-10.28V177.91l47.68,27.53v17.33A4,4,0,0,1,271.63,226.2Z" transform="translate(-196.87 -47.7)" style="fill:#949799"/><path d="M235.82,167.21l35.81,20.67a11.87,11.87,0,0,1,5.94,10.28h0l-47.68-27.53h0A4,4,0,0,1,235.82,167.21Z" transform="translate(-196.87 -47.7)" style="fill:#949799"/><polygon points="80.7 150.47 80.7 157.61 33.02 130.08 33.02 122.94 80.7 150.47" style="fill:#949799"/><line x1="51.1" y1="147.04" x2="45.6" y2="143.86" style="fill:#949799"/><line x1="42.85" y1="142.28" x2="37.36" y2="139.1" style="fill:#949799"/><path d="M270.41,227.43,234.6,206.75a11.87,11.87,0,0,1-5.94-10.28V179.13l47.68,27.53V224A4,4,0,0,1,270.41,227.43Z" transform="translate(-196.87 -47.7)" style="fill:#d5d9dc"/><path d="M234.6,168.44l35.81,20.67a11.87,11.87,0,0,1,5.94,10.28h0l-47.68-27.53h0A4,4,0,0,1,234.6,168.44Z" transform="translate(-196.87 -47.7)" style="fill:#d5d9dc"/><polygon points="79.47 151.69 79.47 158.84 31.79 131.31 31.79 124.16 79.47 151.69" style="fill:#9e79bb"/><line x1="49.87" y1="148.26" x2="44.38" y2="145.09" style="fill:none;stroke:#00406b;stroke-linecap:round;stroke-linejoin:round;stroke-width:0.713254534616519px"/><line x1="41.63" y1="143.5" x2="36.14" y2="140.33" style="fill:none;stroke:#00406b;stroke-linecap:round;stroke-linejoin:round;stroke-width:0.713254534616519px"/><path d="M248.45,238.47,212.64,217.8a11.87,11.87,0,0,1-5.94-10.28V190.18l47.68,27.53V235A4,4,0,0,1,248.45,238.47Z" transform="translate(-196.87 -47.7)" style="fill:#949799"/><path d="M212.64,179.48l35.81,20.67a11.87,11.87,0,0,1,5.94,10.28h0L206.7,182.91h0A4,4,0,0,1,212.64,179.48Z" transform="translate(-196.87 -47.7)" style="fill:#949799"/><polygon points="57.52 162.74 57.52 169.88 9.83 142.35 9.83 135.21 57.52 162.74" style="fill:#949799"/><line x1="27.91" y1="159.3" x2="22.42" y2="156.13" style="fill:#949799"/><line x1="19.67" y1="154.55" x2="14.18" y2="151.37" style="fill:#949799"/><path d="M247.22,239.7,211.41,219a11.87,11.87,0,0,1-5.94-10.28V191.4l47.68,27.53v17.33A4,4,0,0,1,247.22,239.7Z" transform="translate(-196.87 -47.7)" style="fill:#d5d9dc"/><path d="M211.41,180.71l35.81,20.67a11.87,11.87,0,0,1,5.94,10.28h0l-47.68-27.53h0A4,4,0,0,1,211.41,180.71Z" transform="translate(-196.87 -47.7)" style="fill:#d5d9dc"/><polygon points="56.29 163.96 56.29 171.1 8.61 143.57 8.61 136.43 56.29 163.96" style="fill:#9e79bb"/><line x1="26.69" y1="160.53" x2="21.2" y2="157.36" style="fill:none;stroke:#00406b;stroke-linecap:round;stroke-linejoin:round;stroke-width:0.713254534616519px"/><line x1="18.45" y1="155.77" x2="12.95" y2="152.6" style="fill:none;stroke:#00406b;stroke-linecap:round;stroke-linejoin:round;stroke-width:0.713254534616519px"/></g><g id="mobilePayment"><path d="M262.53,324.06a3.59,3.59,0,0,1-1.75-3.15l.66-37.84.09-7.12,0-3.6a8.93,8.93,0,0,1,4.57-7.68l1.71-1,5.67-3.17,71.33-39.88a8.1,8.1,0,0,1,8.1.11l3.51,2.09,1.11.67L273.4,269.31l-1.17.65a8.93,8.93,0,0,0-4.57,7.68l0,2,1.19,48.3-2-1.27Z" transform="translate(-196.87 -47.7)" style="fill:#00406b"/><path d="M267.05,325a3.21,3.21,0,0,0,4.78,2.84l.81-.45,65.76-36.83,16.8-9.41a7.16,7.16,0,0,0,3.66-6.16l0-3,.57-43.83,0-1.69a3.14,3.14,0,0,0-4.67-2.78l-15.67,8.78L273.4,269.31l-1.17.65a8.93,8.93,0,0,0-4.57,7.68l0,2-.57,43.83Zm5.68-4.73.57-43.83,65.76-36.83-.57,43.83Z" transform="translate(-196.87 -47.7)" style="fill:#b6e8fb"/><path d="M354.42,259.3c-1.88,1.92-4.23,2-5.25.2s-.31-4.84,1.57-6.76,4.23-2,5.25-.2S356.3,257.38,354.42,259.3Z" transform="translate(-196.87 -47.7)" style="fill:#00406b"/><polygon points="75.87 272.56 76.44 228.73 149.05 188.05 148.48 231.87 75.87 272.56" style="fill:#00406b"/><line x1="100.15" y1="253.39" x2="104.64" y2="250.79" style="fill:none;stroke:#00406b;stroke-linecap:round;stroke-linejoin:round;stroke-width:0.713254534616519px"/><line x1="106.89" y1="249.5" x2="111.39" y2="246.9" style="fill:none;stroke:#00406b;stroke-linecap:round;stroke-linejoin:round;stroke-width:0.713254534616519px"/><polygon points="136.94 253.39 119.52 263.29 119.52 260.39 113.04 268.65 119.52 269.55 119.52 266.65 136.94 256.75 136.94 253.39" style="fill:#95d669"/><polygon points="95.87 229.4 113.29 219.5 113.29 222.4 119.77 214.13 113.29 213.23 113.29 216.14 95.87 226.04 95.87 229.4" style="fill:#95d669"/><g style="isolation:isolate"><polygon points="121.78 243.29 119.66 242.06 133.15 234.28 135.26 235.51 121.78 243.29" style="fill:#517439"/><polygon points="121.77 242.48 119.66 241.25 132.43 233.88 134.55 235.1 121.77 242.48" style="fill:#2f4522"/><polygon points="121.78 243.29 119.66 242.06 119.66 241.25 121.77 242.48 121.78 243.29" style="fill:#3c592c"/><polygon points="135.26 235.51 133.15 234.28 133.1 217.09 135.21 218.32 135.26 235.51" style="fill:#69964a"/><polygon points="134.55 235.1 132.43 233.88 132.39 218.31 134.5 219.54 134.55 235.1" style="fill:#3c592c"/><polygon points="118.41 244.69 116.3 243.46 117.18 242.94 119.3 244.17 118.41 244.69" style="fill:#517439"/><polygon points="119.3 244.17 117.18 242.94 117.18 241.13 119.29 242.35 119.3 244.17" style="fill:#69964a"/><polygon points="118.41 244.69 116.3 243.46 116.29 241.65 118.4 242.88 118.41 244.69" style="fill:#3c592c"/><polygon points="115.69 246.81 113.58 245.58 113.57 244.76 115.69 245.99 115.69 246.81" style="fill:#69964a"/><g style="isolation:isolate"><g style="clip-path:url(#clip-path)"><g style="isolation:isolate"><path d="M316.16,290.05,314,288.83l.41-.31,2.11,1.23-.41.31" transform="translate(-196.87 -47.7)" style="fill:#4d6f37"/><path d="M316.58,289.75l-2.11-1.23a9.79,9.79,0,0,0,.91-.8l2.11,1.23a9.79,9.79,0,0,1-.91.8" transform="translate(-196.87 -47.7)" style="fill:#507439"/><path d="M317.48,289l-2.11-1.23c.19-.19.38-.39.55-.6l2.11,1.23c-.17.21-.36.41-.55.6" transform="translate(-196.87 -47.7)" style="fill:#53783b"/><path d="M318,288.35l-2.11-1.23q.22-.26.41-.54l2.11,1.23q-.19.28-.41.54" transform="translate(-196.87 -47.7)" style="fill:#567c3d"/><path d="M318.45,287.8l-2.11-1.23q.18-.26.34-.54l2.11,1.23q-.16.28-.34.54" transform="translate(-196.87 -47.7)" style="fill:#59803f"/><path d="M318.79,287.26,316.67,286a6.77,6.77,0,0,0,.32-.64l2.11,1.23a6.77,6.77,0,0,1-.32.64" transform="translate(-196.87 -47.7)" style="fill:#5c8541"/><path d="M319.1,286.63,317,285.4a6.28,6.28,0,0,0,.53-2.56,4.91,4.91,0,0,0-.05-.74l2.11,1.23a4.91,4.91,0,0,1,.05.74,6.28,6.28,0,0,1-.53,2.56" transform="translate(-196.87 -47.7)" style="fill:#5f8943"/><path d="M319.58,283.33l-2.11-1.23a2.79,2.79,0,0,0-.14-.56l2.11,1.23a2.79,2.79,0,0,1,.14.56" transform="translate(-196.87 -47.7)" style="fill:#5c8541"/><path d="M319.44,282.77l-2.11-1.23a1.84,1.84,0,0,0-.17-.34l2.11,1.23a1.84,1.84,0,0,1,.17.34" transform="translate(-196.87 -47.7)" style="fill:#59803f"/><path d="M319.27,282.43l-2.11-1.23a1.46,1.46,0,0,0-.21-.26l2.11,1.23a1.46,1.46,0,0,1,.21.26" transform="translate(-196.87 -47.7)" style="fill:#567c3d"/><path d="M319.06,282.17l-2.11-1.23a1.38,1.38,0,0,0-.27-.2l2.11,1.23a1.38,1.38,0,0,1,.27.2" transform="translate(-196.87 -47.7)" style="fill:#53783b"/></g></g></g><g style="isolation:isolate"><g style="clip-path:url(#clip-path-2)"><g style="isolation:isolate"><path d="M316.15,287.73,314,286.5l.26-.23,2.11,1.23-.26.23" transform="translate(-196.87 -47.7)" style="fill:#2e4522"/><path d="M316.42,287.5l-2.11-1.23.17-.19,2.11,1.23-.17.19" transform="translate(-196.87 -47.7)" style="fill:#304723"/><path d="M316.59,287.31l-2.11-1.23.13-.18,2.11,1.23-.13.18" transform="translate(-196.87 -47.7)" style="fill:#324a25"/><path d="M316.73,287.13l-2.11-1.23.11-.18,2.11,1.23-.11.18" transform="translate(-196.87 -47.7)" style="fill:#344c26"/><path d="M316.84,286.95l-2.11-1.23.11-.22,2.11,1.23-.11.22" transform="translate(-196.87 -47.7)" style="fill:#354f27"/><path d="M316.95,286.73l-2.11-1.23a2,2,0,0,0,.17-.81,1.05,1.05,0,0,0,0-.16l2.11,1.23a1.05,1.05,0,0,1,0,.16,2,2,0,0,1-.17.81" transform="translate(-196.87 -47.7)" style="fill:#375128"/><path d="M317.11,285.76,315,284.53a.7.7,0,0,0,0-.14l2.11,1.23a.7.7,0,0,1,0,.14" transform="translate(-196.87 -47.7)" style="fill:#354f27"/><path d="M317.07,285.62,315,284.39l0-.1,2.11,1.23,0,.1" transform="translate(-196.87 -47.7)" style="fill:#344c26"/><path d="M317,285.52l-2.11-1.23-.06-.08,2.11,1.23.06.08" transform="translate(-196.87 -47.7)" style="fill:#324a25"/><path d="M317,285.45l-2.11-1.23-.09-.06,2.11,1.23.09.06" transform="translate(-196.87 -47.7)" style="fill:#304723"/></g></g></g><polygon points="119.28 240.03 117.17 238.8 117.16 236.42 119.28 237.65 119.28 240.03" style="fill:#69964a"/><g style="isolation:isolate"><g style="clip-path:url(#clip-path-3)"><g style="isolation:isolate"><path d="M316.15,285.34,314,284.12a1,1,0,0,1,.73,0l2.11,1.23a1,1,0,0,0-.73,0" transform="translate(-196.87 -47.7)" style="fill:#4d6f37"/></g></g></g><g style="isolation:isolate"><g style="clip-path:url(#clip-path-4)"><g style="isolation:isolate"><path d="M311.64,291.21,309.53,290a4.65,4.65,0,0,0,3.63-.63l2.11,1.23a4.65,4.65,0,0,1-3.63.63" transform="translate(-196.87 -47.7)" style="fill:#4d6f37"/></g></g></g><polygon points="121.65 231.79 119.53 230.56 120.07 228.09 122.18 229.32 121.65 231.79" style="fill:#69974a"/><g style="isolation:isolate"><g style="clip-path:url(#clip-path-5)"><g style="isolation:isolate"><path d="M316.14,282,314,280.77a3.53,3.53,0,0,1,2.65,0l2.11,1.23a3.53,3.53,0,0,0-2.65,0" transform="translate(-196.87 -47.7)" style="fill:#2d4221"/></g></g></g><g style="isolation:isolate"><g style="clip-path:url(#clip-path-6)"><g style="isolation:isolate"><path d="M316.13,279.91,314,278.68a4.53,4.53,0,0,1,2.38-.42l2.11,1.23a4.53,4.53,0,0,0-2.38.42" transform="translate(-196.87 -47.7)" style="fill:#4d6f37"/></g></g></g><polygon points="119.27 234.3 117.15 233.07 117.15 230.98 119.26 232.21 119.27 234.3" style="fill:#69964a"/><polygon points="118.4 240.6 116.28 239.37 116.28 236.63 118.39 237.86 118.4 240.6" style="fill:#3c592c"/><g style="isolation:isolate"><g style="clip-path:url(#clip-path-7)"><g style="isolation:isolate"><path d="M312.6,285.59l-2.11-1.23a3.64,3.64,0,0,0,2.66,0l2.11,1.23a3.64,3.64,0,0,1-2.66,0" transform="translate(-196.87 -47.7)" style="fill:#4d6f37"/></g></g></g><g style="isolation:isolate"><g style="clip-path:url(#clip-path-8)"><g style="isolation:isolate"><path d="M314.53,282.27,312.41,281a1,1,0,0,0,.72,0l2.11,1.23a1,1,0,0,1-.72,0" transform="translate(-196.87 -47.7)" style="fill:#2d4221"/></g></g></g><polygon points="118.38 234.55 116.27 233.32 116.26 231.47 118.38 232.7 118.38 234.55" style="fill:#3c592c"/><g style="isolation:isolate"><g style="clip-path:url(#clip-path-9)"><g style="isolation:isolate"><path d="M314.53,282.27,312.41,281l-.06,0,2.11,1.23.06,0" transform="translate(-196.87 -47.7)" style="fill:#53783b"/><path d="M314.47,282.22,312.35,281l0-.05,2.11,1.23,0,.05" transform="translate(-196.87 -47.7)" style="fill:#567c3d"/><path d="M314.42,282.17l-2.11-1.23,0-.07,2.11,1.23,0,.07" transform="translate(-196.87 -47.7)" style="fill:#59803f"/><path d="M314.39,282.1l-2.11-1.23a.57.57,0,0,1,0-.11l2.11,1.23a.57.57,0,0,0,0,.11" transform="translate(-196.87 -47.7)" style="fill:#5c8541"/><path d="M314.36,282l-2.11-1.23a1,1,0,0,1,0-.16l2.11,1.23a1,1,0,0,0,0,.16" transform="translate(-196.87 -47.7)" style="fill:#5f8943"/></g></g></g><g style="isolation:isolate"><g style="clip-path:url(#clip-path-10)"><g style="isolation:isolate"><path d="M314.35,281.83l-2.11-1.23a1.32,1.32,0,0,1,.11-.53l2.11,1.23a1.32,1.32,0,0,0-.11.53" transform="translate(-196.87 -47.7)" style="fill:#5f8943"/><path d="M314.46,281.29l-2.11-1.23.08-.15,2.11,1.23-.08.15" transform="translate(-196.87 -47.7)" style="fill:#5c8541"/><path d="M314.54,281.14l-2.11-1.23.08-.13,2.11,1.23-.08.13" transform="translate(-196.87 -47.7)" style="fill:#59803f"/><path d="M314.62,281l-2.11-1.23.11-.14,2.11,1.23-.11.14" transform="translate(-196.87 -47.7)" style="fill:#567c3d"/><path d="M314.73,280.87l-2.11-1.23.15-.16,2.11,1.23-.15.16" transform="translate(-196.87 -47.7)" style="fill:#53783b"/><path d="M314.88,280.7l-2.11-1.23.26-.23,2.11,1.23-.26.23" transform="translate(-196.87 -47.7)" style="fill:#507439"/><path d="M315.14,280.48,313,279.25l.11-.08,2.11,1.23-.11.08" transform="translate(-196.87 -47.7)" style="fill:#4d6f37"/></g></g></g><path d="M314.35,281.83a1.83,1.83,0,0,1,.9-1.43v1.85C314.55,282.44,314.35,282.27,314.35,281.83Z" transform="translate(-196.87 -47.7)" style="fill:#89c561"/><g style="isolation:isolate"><g style="clip-path:url(#clip-path-11)"><g style="isolation:isolate"><path d="M316.13,277.58,314,276.35a4.8,4.8,0,0,1,2.93-.57l2.11,1.23a4.8,4.8,0,0,0-2.93.57" transform="translate(-196.87 -47.7)" style="fill:#2d4221"/></g></g></g><polygon points="119.26 229.88 117.14 228.65 117.14 226.95 119.25 228.18 119.26 229.88" style="fill:#69964a"/><g style="isolation:isolate"><g style="clip-path:url(#clip-path-12)"><g style="isolation:isolate"><path d="M312.6,285.59l-2.11-1.23a1.26,1.26,0,0,1-.24-.18l2.11,1.23a1.26,1.26,0,0,0,.24.18" transform="translate(-196.87 -47.7)" style="fill:#304723"/><path d="M312.36,285.41l-2.11-1.23a1.3,1.3,0,0,1-.19-.23l2.11,1.23a1.3,1.3,0,0,0,.19.23" transform="translate(-196.87 -47.7)" style="fill:#324a25"/><path d="M312.17,285.18l-2.11-1.23a1.63,1.63,0,0,1-.15-.31l2.11,1.23a1.63,1.63,0,0,0,.15.31" transform="translate(-196.87 -47.7)" style="fill:#344c26"/><path d="M312,284.87l-2.11-1.23a2.52,2.52,0,0,1-.13-.5l2.11,1.23a2.52,2.52,0,0,0,.13.5" transform="translate(-196.87 -47.7)" style="fill:#354f27"/><path d="M311.89,284.37l-2.11-1.23a4.75,4.75,0,0,1-.05-.72,5.56,5.56,0,0,1,.48-2.25l2.11,1.23a5.56,5.56,0,0,0-.48,2.25,4.75,4.75,0,0,0,.05.72" transform="translate(-196.87 -47.7)" style="fill:#375128"/><path d="M312.32,281.4l-2.11-1.23a6.44,6.44,0,0,1,.3-.61l2.11,1.23a6.44,6.44,0,0,0-.3.61" transform="translate(-196.87 -47.7)" style="fill:#354f27"/><path d="M312.62,280.8l-2.11-1.23q.15-.26.32-.52l2.11,1.23q-.17.25-.32.52" transform="translate(-196.87 -47.7)" style="fill:#344c26"/><path d="M312.95,280.28l-2.11-1.23q.18-.26.39-.51l2.11,1.23q-.2.25-.39.51" transform="translate(-196.87 -47.7)" style="fill:#324a25"/><path d="M313.33,279.78l-2.11-1.23q.24-.29.5-.55l2.11,1.23q-.27.27-.5.55" transform="translate(-196.87 -47.7)" style="fill:#304723"/><path d="M313.84,279.22,311.72,278a8.46,8.46,0,0,1,.78-.69l2.11,1.23a8.46,8.46,0,0,0-.78.69" transform="translate(-196.87 -47.7)" style="fill:#2e4522"/><path d="M314.62,278.54l-2.11-1.23q.3-.23.62-.44l2.11,1.23q-.32.21-.62.44" transform="translate(-196.87 -47.7)" style="fill:#2d4221"/></g></g></g><path d="M316.14,282c2.47-.7,3.49,0,3.5,2.07a7.36,7.36,0,0,1-3.47,6v1.82l-.89.51v-1.8a4.65,4.65,0,0,1-3.63.63l.57-2.64a4.32,4.32,0,0,0,3.06-.27v-2.74c-2.66.7-3.42-.06-3.42-1.91a6.85,6.85,0,0,1,3.4-5.56v-1.7l.89-.51v1.7a4.8,4.8,0,0,1,2.93-.57l-.54,2.47a4.53,4.53,0,0,0-2.38.42Zm0,5.73a2.33,2.33,0,0,0,1-1.81c0-.5-.29-.72-1-.58v2.38m-.9-5.48V280.4a1.83,1.83,0,0,0-.9,1.43c0,.44.2.61.9.42" transform="translate(-196.87 -47.7)" style="fill:#4f753a"/><path d="M316.15,285.34c.68-.14,1,.08,1,.58a2.33,2.33,0,0,1-1,1.81Z" transform="translate(-196.87 -47.7)" style="fill:#89c561"/><g style="isolation:isolate"><g style="clip-path:url(#clip-path-13)"><g style="isolation:isolate"><path d="M312.21,288.57l-2.11-1.23a4.32,4.32,0,0,0,3.06-.27l2.11,1.23a4.32,4.32,0,0,1-3.06.27" transform="translate(-196.87 -47.7)" style="fill:#2d4221"/></g></g></g><polygon points="114.77 243.51 112.66 242.28 113.23 239.64 115.34 240.87 114.77 243.51" style="fill:#3d5a2d"/><polygon points="121.73 226.92 119.61 225.69 132.39 218.31 134.5 219.54 121.73 226.92" style="fill:#517439"/><polygon points="121.73 226.92 119.61 225.69 119.61 224.88 121.73 226.1 121.73 226.92" style="fill:#3c592c"/><polygon points="121.73 226.1 119.61 224.88 133.1 217.09 135.21 218.32 121.73 226.1" style="fill:#2f4522"/><polygon points="118.37 230.4 116.25 229.17 116.25 227.46 118.36 228.69 118.37 230.4" style="fill:#3c592c"/><polygon points="118.36 228.69 116.25 227.46 117.14 226.95 119.25 228.18 118.36 228.69" style="fill:#2f4522"/><polygon points="102.21 254.59 100.09 253.36 113.58 245.58 115.69 246.81 102.21 254.59" style="fill:#517439"/><polygon points="102.91 253.37 100.8 252.14 113.57 244.76 115.69 245.99 102.91 253.37" style="fill:#2f4522"/><polygon points="115.64 230.43 113.53 229.2 113.53 228.39 115.64 229.62 115.64 230.43" style="fill:#69964a"/><polygon points="102.91 253.37 100.8 252.14 100.75 236.58 102.87 237.81 102.91 253.37" style="fill:#69964a"/><polygon points="102.87 237.81 100.75 236.58 113.53 229.2 115.64 230.43 102.87 237.81" style="fill:#517439"/><polygon points="102.21 254.59 100.09 253.36 100.04 236.17 102.16 237.4 102.21 254.59" style="fill:#3c592c"/><polygon points="102.16 237.4 100.04 236.17 113.53 228.39 115.64 229.62 102.16 237.4" style="fill:#2f4522"/><path d="M297.19,283.79l36.92-21.32.06,21.92-36.92,21.32Zm15.37,10.72v-.81l-12.78,7.38,0-15.56,12.78-7.38v-.81L299,285.1l0,17.19,13.48-7.79m19.57-11.3,0-17.19L318.6,273.8v.81l12.78-7.38,0,15.56-12.78,7.38V291l13.48-7.79m-16,8.67v-1.82a7.36,7.36,0,0,0,3.47-6c0-2.11-1-2.77-3.5-2.07v-2.09a4.53,4.53,0,0,1,2.38-.42l.54-2.47a4.8,4.8,0,0,0-2.93.57v-1.7l-.89.51v1.7a6.85,6.85,0,0,0-3.4,5.56c0,1.85.76,2.62,3.42,1.91v2.74a4.32,4.32,0,0,1-3.06.27l-.57,2.64a4.65,4.65,0,0,0,3.63-.63v1.8l.89-.51" transform="translate(-196.87 -47.7)" style="fill:#89c561"/><polygon points="135.21 218.32 135.26 235.51 121.78 243.29 121.77 242.48 134.55 235.1 134.5 219.54 121.73 226.92 121.73 226.1 135.21 218.32" style="fill:#4f753a"/><polygon points="115.64 229.62 115.64 230.43 102.87 237.81 102.91 253.37 115.69 245.99 115.69 246.81 102.21 254.59 102.16 237.4 115.64 229.62" style="fill:#4f753a"/><polygon points="100.32 236.09 98.2 234.86 135.13 213.54 137.24 214.77 100.32 236.09" style="fill:#517439"/><polygon points="100.38 258.01 98.27 256.78 98.2 234.86 100.32 236.09 100.38 258.01" style="fill:#69964a"/></g><g style="isolation:isolate"><polygon points="125.78 245.3 123.67 244.07 137.14 236.29 139.26 237.52 125.78 245.3" style="fill:#517439"/><polygon points="125.78 244.49 123.66 243.26 136.43 235.88 138.55 237.11 125.78 244.49" style="fill:#2f4522"/><polygon points="125.78 245.3 123.67 244.07 123.66 243.26 125.78 244.49 125.78 245.3" style="fill:#3c592c"/><polygon points="139.26 237.52 137.14 236.29 137.09 219.09 139.21 220.32 139.26 237.52" style="fill:#69964a"/><polygon points="138.55 237.11 136.43 235.88 136.39 220.32 138.5 221.54 138.55 237.11" style="fill:#3c592c"/><polygon points="122.41 246.69 120.3 245.46 121.18 244.95 123.29 246.18 122.41 246.69" style="fill:#517439"/><polygon points="123.29 246.18 121.18 244.95 121.17 243.13 123.29 244.36 123.29 246.18" style="fill:#69964a"/><polygon points="122.41 246.69 120.3 245.46 120.29 243.66 122.41 244.89 122.41 246.69" style="fill:#3c592c"/><polygon points="119.69 248.81 117.58 247.58 117.58 246.77 119.69 248 119.69 248.81" style="fill:#69964a"/><g style="isolation:isolate"><g style="clip-path:url(#clip-path-14)"><g style="isolation:isolate"><path d="M320.16,292.06,318,290.83l.44-.32,2.11,1.23-.44.32" transform="translate(-196.87 -47.7)" style="fill:#4d6f37"/><path d="M320.59,291.73l-2.11-1.23a9.68,9.68,0,0,0,.9-.79l2.11,1.23a9.68,9.68,0,0,1-.9.79" transform="translate(-196.87 -47.7)" style="fill:#507439"/><path d="M321.49,290.95l-2.11-1.23c.19-.19.37-.39.55-.6l2.11,1.23c-.17.21-.36.41-.55.6" transform="translate(-196.87 -47.7)" style="fill:#53783b"/><path d="M322,290.35l-2.11-1.23q.21-.26.41-.54l2.11,1.23q-.19.28-.41.54" transform="translate(-196.87 -47.7)" style="fill:#567c3d"/><path d="M322.45,289.81l-2.11-1.23q.18-.26.34-.54l2.11,1.23q-.16.28-.34.54" transform="translate(-196.87 -47.7)" style="fill:#59803f"/><path d="M322.78,289.27,320.67,288a6.74,6.74,0,0,0,.32-.63l2.11,1.23a6.74,6.74,0,0,1-.32.63" transform="translate(-196.87 -47.7)" style="fill:#5c8541"/><path d="M323.1,288.64,321,287.41a6.28,6.28,0,0,0,.53-2.56,5,5,0,0,0-.05-.75l2.11,1.23a5,5,0,0,1,.05.75,6.28,6.28,0,0,1-.53,2.56" transform="translate(-196.87 -47.7)" style="fill:#5f8943"/><path d="M323.58,285.34l-2.11-1.23a2.8,2.8,0,0,0-.14-.56l2.11,1.23a2.8,2.8,0,0,1,.14.56" transform="translate(-196.87 -47.7)" style="fill:#5c8541"/><path d="M323.44,284.77l-2.11-1.23a1.83,1.83,0,0,0-.17-.34l2.11,1.23a1.83,1.83,0,0,1,.17.34" transform="translate(-196.87 -47.7)" style="fill:#59803f"/><path d="M323.27,284.43l-2.11-1.23a1.45,1.45,0,0,0-.21-.26l2.11,1.23a1.45,1.45,0,0,1,.21.26" transform="translate(-196.87 -47.7)" style="fill:#567c3d"/><path d="M323.05,284.17l-2.11-1.23a1.37,1.37,0,0,0-.27-.2l2.11,1.23a1.37,1.37,0,0,1,.27.2" transform="translate(-196.87 -47.7)" style="fill:#53783b"/></g></g></g><g style="isolation:isolate"><g style="clip-path:url(#clip-path-15)"><g style="isolation:isolate"><path d="M320.15,289.73,318,288.5l.27-.24,2.11,1.23-.27.24" transform="translate(-196.87 -47.7)" style="fill:#2e4522"/><path d="M320.42,289.49l-2.11-1.23.18-.19,2.11,1.23-.18.19" transform="translate(-196.87 -47.7)" style="fill:#304723"/><path d="M320.6,289.3l-2.11-1.23.13-.18,2.11,1.23-.13.18" transform="translate(-196.87 -47.7)" style="fill:#324a25"/><path d="M320.73,289.12l-2.11-1.23.11-.18,2.11,1.23-.11.18" transform="translate(-196.87 -47.7)" style="fill:#344c26"/><path d="M320.85,288.94l-2.11-1.23.11-.22,2.11,1.23-.11.22" transform="translate(-196.87 -47.7)" style="fill:#354f27"/><path d="M321,288.73l-2.11-1.23a2,2,0,0,0,.17-.8,1.05,1.05,0,0,0,0-.16l2.11,1.23a1.05,1.05,0,0,1,0,.16,2,2,0,0,1-.17.8" transform="translate(-196.87 -47.7)" style="fill:#375128"/><path d="M321.11,287.77,319,286.54a.71.71,0,0,0,0-.14l2.11,1.23a.71.71,0,0,1,0,.14" transform="translate(-196.87 -47.7)" style="fill:#354f27"/><path d="M321.08,287.62,319,286.4l0-.1,2.11,1.23,0,.1" transform="translate(-196.87 -47.7)" style="fill:#344c26"/><path d="M321,287.53l-2.11-1.23-.06-.08,2.11,1.23.06.08" transform="translate(-196.87 -47.7)" style="fill:#324a25"/><path d="M321,287.45l-2.11-1.23-.09-.07,2.11,1.23.09.07" transform="translate(-196.87 -47.7)" style="fill:#304723"/></g></g></g><polygon points="123.28 242.03 121.17 240.8 121.16 238.42 123.28 239.65 123.28 242.03" style="fill:#69964a"/><path d="M320.14,287.35c.69-.15,1,.08,1,.58a2.33,2.33,0,0,1-1,1.8Z" transform="translate(-196.87 -47.7)" style="fill:#89c561"/><g style="isolation:isolate"><g style="clip-path:url(#clip-path-16)"><g style="isolation:isolate"><path d="M320.14,287.35,318,286.12a1,1,0,0,1,.73,0l2.11,1.23a1,1,0,0,0-.73,0" transform="translate(-196.87 -47.7)" style="fill:#4d6f37"/></g></g></g><polygon points="122.4 242.6 120.29 241.38 120.28 238.63 122.39 239.86 122.4 242.6" style="fill:#3c592c"/><g style="isolation:isolate"><g style="clip-path:url(#clip-path-17)"><g style="isolation:isolate"><path d="M315.64,293.21,313.53,292a4.67,4.67,0,0,0,3.64-.62l2.11,1.23a4.67,4.67,0,0,1-3.64.62" transform="translate(-196.87 -47.7)" style="fill:#4d6f37"/></g></g></g><polygon points="125.65 233.78 123.54 232.56 124.07 230.09 126.19 231.31 125.65 233.78" style="fill:#69974a"/><g style="isolation:isolate"><g style="clip-path:url(#clip-path-18)"><g style="isolation:isolate"><path d="M320.14,284,318,282.78a3.53,3.53,0,0,1,2.65,0l2.11,1.23a3.53,3.53,0,0,0-2.65,0" transform="translate(-196.87 -47.7)" style="fill:#2d4221"/></g></g></g><g style="isolation:isolate"><g style="clip-path:url(#clip-path-19)"><g style="isolation:isolate"><path d="M316.21,290.57l-2.11-1.23a4.31,4.31,0,0,0,3.06-.27l2.11,1.23a4.31,4.31,0,0,1-3.06.27" transform="translate(-196.87 -47.7)" style="fill:#2d4221"/></g></g></g><polygon points="118.77 245.51 116.66 244.28 117.23 241.64 119.34 242.87 118.77 245.51" style="fill:#3d5a2d"/><g style="isolation:isolate"><g style="clip-path:url(#clip-path-20)"><g style="isolation:isolate"><path d="M320.13,281.91,318,280.68a4.53,4.53,0,0,1,2.39-.42l2.11,1.23a4.53,4.53,0,0,0-2.39.42" transform="translate(-196.87 -47.7)" style="fill:#4d6f37"/></g></g></g><polygon points="123.27 236.31 121.15 235.08 121.15 232.98 123.26 234.21 123.27 236.31" style="fill:#69964a"/><g style="isolation:isolate"><g style="clip-path:url(#clip-path-21)"><g style="isolation:isolate"><path d="M316.6,287.59l-2.11-1.23a3.65,3.65,0,0,0,2.66,0l2.11,1.23a3.65,3.65,0,0,1-2.66,0" transform="translate(-196.87 -47.7)" style="fill:#4d6f37"/></g></g></g><g style="isolation:isolate"><g style="clip-path:url(#clip-path-22)"><g style="isolation:isolate"><path d="M318.53,284.27,316.41,283a1,1,0,0,0,.72,0l2.11,1.23a1,1,0,0,1-.72,0" transform="translate(-196.87 -47.7)" style="fill:#2d4221"/></g></g></g><polygon points="122.38 236.54 120.27 235.32 120.26 233.47 122.38 234.7 122.38 236.54" style="fill:#3c592c"/><polygon points="125.73 228.92 123.62 227.69 136.39 220.32 138.5 221.54 125.73 228.92" style="fill:#517439"/><g style="isolation:isolate"><g style="clip-path:url(#clip-path-23)"><g style="isolation:isolate"><path d="M318.53,284.27,316.41,283l-.06,0,2.11,1.23.06,0" transform="translate(-196.87 -47.7)" style="fill:#53783b"/><path d="M318.47,284.23,316.36,283l0-.05,2.11,1.23,0,.05" transform="translate(-196.87 -47.7)" style="fill:#567c3d"/><path d="M318.43,284.17l-2.11-1.23,0-.07,2.11,1.23,0,.07" transform="translate(-196.87 -47.7)" style="fill:#59803f"/><path d="M318.39,284.1l-2.11-1.23a.57.57,0,0,1,0-.11l2.11,1.23a.57.57,0,0,0,0,.11" transform="translate(-196.87 -47.7)" style="fill:#5c8541"/><path d="M318.36,284l-2.11-1.23a1,1,0,0,1,0-.15l2.11,1.23a1,1,0,0,0,0,.15" transform="translate(-196.87 -47.7)" style="fill:#5f8943"/></g></g></g><g style="isolation:isolate"><g style="clip-path:url(#clip-path-24)"><g style="isolation:isolate"><path d="M318.35,283.83l-2.11-1.23a1.32,1.32,0,0,1,.12-.53l2.11,1.23a1.32,1.32,0,0,0-.12.53" transform="translate(-196.87 -47.7)" style="fill:#5f8943"/><path d="M318.47,283.3l-2.11-1.23.08-.15,2.11,1.23-.08.15" transform="translate(-196.87 -47.7)" style="fill:#5c8541"/><path d="M318.54,283.15l-2.11-1.23.09-.14,2.11,1.23-.09.14" transform="translate(-196.87 -47.7)" style="fill:#59803f"/><path d="M318.63,283l-2.11-1.23.11-.14,2.11,1.23-.11.14" transform="translate(-196.87 -47.7)" style="fill:#567c3d"/><path d="M318.74,282.87l-2.11-1.23.15-.17,2.11,1.23-.15.17" transform="translate(-196.87 -47.7)" style="fill:#53783b"/><path d="M318.89,282.7l-2.11-1.23.27-.23,2.11,1.23-.27.23" transform="translate(-196.87 -47.7)" style="fill:#507439"/><path d="M319.16,282.46,317,281.23l.09-.07,2.11,1.23-.09.07" transform="translate(-196.87 -47.7)" style="fill:#4d6f37"/></g></g></g><g style="isolation:isolate"><g style="clip-path:url(#clip-path-25)"><g style="isolation:isolate"><path d="M320.12,279.58,318,278.35a4.8,4.8,0,0,1,2.93-.57l2.11,1.23a4.8,4.8,0,0,0-2.93.57" transform="translate(-196.87 -47.7)" style="fill:#2d4221"/></g></g></g><polygon points="123.25 231.88 121.14 230.66 121.13 228.95 123.25 230.18 123.25 231.88" style="fill:#69964a"/><g style="isolation:isolate"><g style="clip-path:url(#clip-path-26)"><g style="isolation:isolate"><path d="M316.6,287.59l-2.11-1.23a1.26,1.26,0,0,1-.24-.18l2.11,1.23a1.26,1.26,0,0,0,.24.18" transform="translate(-196.87 -47.7)" style="fill:#304723"/><path d="M316.36,287.41l-2.11-1.23a1.3,1.3,0,0,1-.19-.23l2.11,1.23a1.3,1.3,0,0,0,.19.23" transform="translate(-196.87 -47.7)" style="fill:#324a25"/><path d="M316.17,287.18l-2.11-1.23a1.63,1.63,0,0,1-.15-.31l2.11,1.23a1.63,1.63,0,0,0,.15.31" transform="translate(-196.87 -47.7)" style="fill:#344c26"/><path d="M316,286.87l-2.11-1.23a2.51,2.51,0,0,1-.13-.5l2.11,1.23a2.51,2.51,0,0,0,.13.5" transform="translate(-196.87 -47.7)" style="fill:#354f27"/><path d="M315.89,286.37l-2.11-1.23a4.7,4.7,0,0,1-.05-.71,5.56,5.56,0,0,1,.48-2.25l2.11,1.23a5.56,5.56,0,0,0-.48,2.25,4.7,4.7,0,0,0,.05.71" transform="translate(-196.87 -47.7)" style="fill:#375128"/><path d="M316.32,283.41l-2.11-1.23a6.47,6.47,0,0,1,.31-.61l2.11,1.23a6.47,6.47,0,0,0-.31.61" transform="translate(-196.87 -47.7)" style="fill:#354f27"/><path d="M316.62,282.8l-2.11-1.23q.15-.26.33-.52l2.11,1.23q-.18.25-.33.52" transform="translate(-196.87 -47.7)" style="fill:#344c26"/><path d="M316.95,282.28l-2.11-1.23q.18-.26.39-.51l2.11,1.23q-.21.25-.39.51" transform="translate(-196.87 -47.7)" style="fill:#324a25"/><path d="M317.34,281.77l-2.11-1.23q.24-.29.51-.55l2.11,1.23q-.27.27-.51.55" transform="translate(-196.87 -47.7)" style="fill:#304723"/><path d="M317.84,281.22,315.73,280a8.47,8.47,0,0,1,.78-.69l2.11,1.23a8.47,8.47,0,0,0-.78.69" transform="translate(-196.87 -47.7)" style="fill:#2e4522"/><path d="M318.62,280.53l-2.11-1.23q.3-.23.62-.44l2.11,1.23q-.32.21-.62.44" transform="translate(-196.87 -47.7)" style="fill:#2d4221"/></g></g></g><path d="M320.14,284c2.48-.7,3.49,0,3.5,2.07a7.33,7.33,0,0,1-3.47,6v1.83l-.88.51v-1.8a4.67,4.67,0,0,1-3.64.62l.57-2.64a4.31,4.31,0,0,0,3.06-.27v-2.74c-2.66.7-3.42-.06-3.43-1.9a6.88,6.88,0,0,1,3.41-5.57v-1.7l.88-.51v1.7a4.8,4.8,0,0,1,2.93-.57l-.54,2.47a4.53,4.53,0,0,0-2.39.42Zm0,5.72a2.33,2.33,0,0,0,1-1.8c0-.5-.29-.73-1-.58v2.38m-.9-5.49V282.4a1.85,1.85,0,0,0-.9,1.44c0,.43.2.61.9.41" transform="translate(-196.87 -47.7)" style="fill:#4f753a"/><path d="M318.35,283.83a1.85,1.85,0,0,1,.9-1.44v1.85C318.55,284.44,318.35,284.27,318.35,283.83Z" transform="translate(-196.87 -47.7)" style="fill:#89c561"/><polygon points="125.73 228.92 123.62 227.69 123.62 226.87 125.73 228.1 125.73 228.92" style="fill:#3c592c"/><polygon points="125.73 228.1 123.62 226.87 137.09 219.09 139.21 220.32 125.73 228.1" style="fill:#2f4522"/><polygon points="122.37 232.39 120.26 231.16 120.25 229.46 122.37 230.69 122.37 232.39" style="fill:#3c592c"/><polygon points="122.37 230.69 120.25 229.46 121.13 228.95 123.25 230.18 122.37 230.69" style="fill:#2f4522"/><polygon points="106.21 256.6 104.1 255.37 117.58 247.58 119.69 248.81 106.21 256.6" style="fill:#517439"/><polygon points="106.92 255.37 104.8 254.15 117.58 246.77 119.69 248 106.92 255.37" style="fill:#2f4522"/><polygon points="119.65 232.43 117.53 231.2 117.53 230.39 119.65 231.62 119.65 232.43" style="fill:#69964a"/><polygon points="106.92 255.37 104.8 254.15 104.76 238.58 106.87 239.81 106.92 255.37" style="fill:#69964a"/><polygon points="106.87 239.81 104.76 238.58 117.53 231.2 119.65 232.43 106.87 239.81" style="fill:#517439"/><polygon points="106.21 256.6 104.1 255.37 104.05 238.17 106.16 239.4 106.21 256.6" style="fill:#3c592c"/><polygon points="106.16 239.4 104.05 238.17 117.53 230.39 119.65 231.62 106.16 239.4" style="fill:#2f4522"/><path d="M301.19,285.8l36.93-21.32.06,21.92-36.93,21.32Zm15.38,10.71v-.81l-12.78,7.38,0-15.57,12.78-7.38v-.81L303,287.1l0,17.2,13.48-7.79m19.56-11.29,0-17.2L322.6,275.8v.81l12.77-7.37,0,15.57-12.77,7.37V293l13.48-7.78m-16,8.67v-1.83a7.33,7.33,0,0,0,3.47-6c0-2.12-1-2.78-3.5-2.07v-2.1a4.53,4.53,0,0,1,2.39-.42l.54-2.47a4.8,4.8,0,0,0-2.93.57v-1.7l-.88.51v1.7a6.88,6.88,0,0,0-3.41,5.57c0,1.84.77,2.61,3.43,1.9v2.74a4.31,4.31,0,0,1-3.06.27l-.57,2.64a4.67,4.67,0,0,0,3.64-.62v1.8l.88-.51" transform="translate(-196.87 -47.7)" style="fill:#89c561"/><polygon points="139.21 220.32 139.26 237.52 125.78 245.3 125.78 244.49 138.55 237.11 138.5 221.54 125.73 228.92 125.73 228.1 139.21 220.32" style="fill:#4f753a"/><polygon points="119.65 231.62 119.65 232.43 106.87 239.81 106.92 255.37 119.69 248 119.69 248.81 106.21 256.6 106.16 239.4 119.65 231.62" style="fill:#4f753a"/><polygon points="104.32 238.1 102.2 236.87 139.13 215.55 141.25 216.78 104.32 238.1" style="fill:#517439"/><polygon points="104.38 260.02 102.26 258.79 102.2 236.87 104.32 238.1 104.38 260.02" style="fill:#69964a"/></g><g style="isolation:isolate"><polygon points="129.78 247.3 127.66 246.07 141.15 238.29 143.26 239.52 129.78 247.3" style="fill:#517439"/><polygon points="129.78 246.49 127.66 245.26 140.44 237.88 142.55 239.11 129.78 246.49" style="fill:#2f4522"/><polygon points="129.78 247.3 127.66 246.07 127.66 245.26 129.78 246.49 129.78 247.3" style="fill:#3c592c"/><polygon points="143.26 239.52 141.15 238.29 141.1 221.09 143.21 222.32 143.26 239.52" style="fill:#69964a"/><polygon points="142.55 239.11 140.44 237.88 140.39 222.32 142.51 223.55 142.55 239.11" style="fill:#3c592c"/><polygon points="126.42 248.69 124.3 247.46 125.19 246.95 127.3 248.18 126.42 248.69" style="fill:#517439"/><polygon points="127.3 248.18 125.19 246.95 125.18 245.13 127.29 246.35 127.3 248.18" style="fill:#69964a"/><polygon points="126.42 248.69 124.3 247.46 124.3 245.66 126.41 246.88 126.42 248.69" style="fill:#3c592c"/><polygon points="123.7 250.81 121.58 249.58 121.58 248.77 123.7 250 123.7 250.81" style="fill:#69964a"/><g style="isolation:isolate"><g style="clip-path:url(#clip-path-27)"><g style="isolation:isolate"><path d="M324.16,294.05,322,292.82l.43-.32,2.11,1.23-.43.32" transform="translate(-196.87 -47.7)" style="fill:#4d6f37"/><path d="M324.6,293.73l-2.11-1.23a9.68,9.68,0,0,0,.9-.79l2.11,1.23a9.68,9.68,0,0,1-.9.79" transform="translate(-196.87 -47.7)" style="fill:#507439"/><path d="M325.49,292.95l-2.11-1.23c.19-.19.37-.39.55-.6l2.11,1.23c-.17.21-.36.41-.55.6" transform="translate(-196.87 -47.7)" style="fill:#53783b"/><path d="M326,292.35l-2.11-1.23q.22-.26.41-.54l2.11,1.23q-.19.28-.41.54" transform="translate(-196.87 -47.7)" style="fill:#567c3d"/><path d="M326.45,291.81l-2.11-1.23q.18-.26.34-.54l2.11,1.23q-.16.28-.34.54" transform="translate(-196.87 -47.7)" style="fill:#59803f"/><path d="M326.79,291.27,324.67,290a6.75,6.75,0,0,0,.32-.63l2.11,1.23a6.75,6.75,0,0,1-.32.63" transform="translate(-196.87 -47.7)" style="fill:#5c8541"/><path d="M327.11,290.63,325,289.41a6.28,6.28,0,0,0,.53-2.55,4.93,4.93,0,0,0-.05-.74l2.11,1.23a4.93,4.93,0,0,1,.05.74,6.28,6.28,0,0,1-.53,2.55" transform="translate(-196.87 -47.7)" style="fill:#5f8943"/><path d="M327.58,287.34l-2.11-1.23a2.79,2.79,0,0,0-.14-.56l2.11,1.23a2.79,2.79,0,0,1,.14.56" transform="translate(-196.87 -47.7)" style="fill:#5c8541"/><path d="M327.44,286.78l-2.11-1.23a1.84,1.84,0,0,0-.17-.34l2.11,1.23a1.84,1.84,0,0,1,.17.34" transform="translate(-196.87 -47.7)" style="fill:#59803f"/><path d="M327.27,286.43l-2.11-1.23a1.45,1.45,0,0,0-.21-.26l2.11,1.23a1.45,1.45,0,0,1,.21.26" transform="translate(-196.87 -47.7)" style="fill:#567c3d"/><path d="M327.06,286.17l-2.11-1.23a1.37,1.37,0,0,0-.27-.2l2.11,1.23a1.37,1.37,0,0,1,.27.2" transform="translate(-196.87 -47.7)" style="fill:#53783b"/></g></g></g><g style="isolation:isolate"><g style="clip-path:url(#clip-path-28)"><g style="isolation:isolate"><path d="M324.16,291.73,322,290.51l.26-.23,2.11,1.23-.26.23" transform="translate(-196.87 -47.7)" style="fill:#2e4522"/><path d="M324.42,291.5l-2.11-1.23.18-.19,2.11,1.23-.18.19" transform="translate(-196.87 -47.7)" style="fill:#304723"/><path d="M324.59,291.31l-2.11-1.23.14-.18,2.11,1.23-.14.18" transform="translate(-196.87 -47.7)" style="fill:#324a25"/><path d="M324.73,291.13l-2.11-1.23.12-.19,2.11,1.23-.12.19" transform="translate(-196.87 -47.7)" style="fill:#344c26"/><path d="M324.85,290.95l-2.11-1.23.11-.22,2.11,1.23-.11.22" transform="translate(-196.87 -47.7)" style="fill:#354f27"/><path d="M325,290.73l-2.11-1.23a2,2,0,0,0,.17-.8,1.05,1.05,0,0,0,0-.16l2.11,1.23a1.05,1.05,0,0,1,0,.16,2,2,0,0,1-.17.8" transform="translate(-196.87 -47.7)" style="fill:#375128"/><path d="M325.12,289.76,323,288.54a.71.71,0,0,0,0-.14l2.11,1.23a.71.71,0,0,1,0,.14" transform="translate(-196.87 -47.7)" style="fill:#354f27"/><path d="M325.08,289.62,323,288.39l0-.1,2.11,1.23,0,.1" transform="translate(-196.87 -47.7)" style="fill:#344c26"/><path d="M325,289.53l-2.11-1.23-.06-.08,2.11,1.23.06.08" transform="translate(-196.87 -47.7)" style="fill:#324a25"/><path d="M325,289.45l-2.11-1.23-.09-.07,2.11,1.23.09.07" transform="translate(-196.87 -47.7)" style="fill:#304723"/></g></g></g><path d="M324.15,289.34c.69-.15,1,.08,1,.58a2.36,2.36,0,0,1-1,1.81Z" transform="translate(-196.87 -47.7)" style="fill:#89c561"/><polygon points="127.29 244.04 125.17 242.81 125.17 240.41 127.28 241.64 127.29 244.04" style="fill:#69964a"/><g style="isolation:isolate"><g style="clip-path:url(#clip-path-29)"><g style="isolation:isolate"><path d="M324.15,289.34,322,288.11a1,1,0,0,1,.73,0l2.11,1.23a1,1,0,0,0-.73,0" transform="translate(-196.87 -47.7)" style="fill:#4d6f37"/></g></g></g><polygon points="126.41 244.6 124.29 243.37 124.28 240.64 126.4 241.87 126.41 244.6" style="fill:#3c592c"/><g style="isolation:isolate"><g style="clip-path:url(#clip-path-30)"><g style="isolation:isolate"><path d="M319.64,295.21,317.53,294a4.62,4.62,0,0,0,3.64-.62l2.11,1.23a4.62,4.62,0,0,1-3.64.62" transform="translate(-196.87 -47.7)" style="fill:#4d6f37"/></g></g></g><polygon points="129.66 235.79 127.54 234.56 128.07 232.09 130.19 233.32 129.66 235.79" style="fill:#69984a"/><g style="isolation:isolate"><g style="clip-path:url(#clip-path-31)"><g style="isolation:isolate"><path d="M324.14,286,322,284.78a3.53,3.53,0,0,1,2.65,0l2.11,1.23a3.53,3.53,0,0,0-2.65,0" transform="translate(-196.87 -47.7)" style="fill:#2d4221"/></g></g></g><polygon points="122.78 247.51 120.66 246.28 121.24 243.64 123.35 244.87 122.78 247.51" style="fill:#3d5a2d"/><g style="isolation:isolate"><g style="clip-path:url(#clip-path-32)"><g style="isolation:isolate"><path d="M320.22,292.57l-2.11-1.23a4.29,4.29,0,0,0,3.06-.27l2.11,1.23a4.29,4.29,0,0,1-3.06.27" transform="translate(-196.87 -47.7)" style="fill:#2d4221"/></g></g></g><g style="isolation:isolate"><g style="clip-path:url(#clip-path-33)"><g style="isolation:isolate"><path d="M324.13,283.91,322,282.68a4.59,4.59,0,0,1,2.39-.42l2.11,1.23a4.59,4.59,0,0,0-2.39.42" transform="translate(-196.87 -47.7)" style="fill:#4d6f37"/></g></g></g><polygon points="127.27 238.31 125.16 237.08 125.15 234.98 127.27 236.21 127.27 238.31" style="fill:#69964a"/><g style="isolation:isolate"><g style="clip-path:url(#clip-path-34)"><g style="isolation:isolate"><path d="M320.61,289.6l-2.11-1.23a3.65,3.65,0,0,0,2.66,0l2.11,1.23a3.65,3.65,0,0,1-2.66,0" transform="translate(-196.87 -47.7)" style="fill:#4d6f37"/></g></g></g><g style="isolation:isolate"><g style="clip-path:url(#clip-path-35)"><g style="isolation:isolate"><path d="M322.53,286.27,320.41,285a1,1,0,0,0,.73,0l2.11,1.23a1,1,0,0,1-.73,0" transform="translate(-196.87 -47.7)" style="fill:#2d4221"/></g></g></g><polygon points="126.39 238.54 124.28 237.31 124.27 235.47 126.38 236.7 126.39 238.54" style="fill:#3c592c"/><polygon points="129.73 230.93 127.62 229.7 140.39 222.32 142.51 223.55 129.73 230.93" style="fill:#517439"/><g style="isolation:isolate"><g style="clip-path:url(#clip-path-36)"><g style="isolation:isolate"><path d="M322.53,286.27,320.41,285l-.06,0,2.11,1.23.06,0" transform="translate(-196.87 -47.7)" style="fill:#53783b"/><path d="M322.47,286.23,320.35,285l0-.05,2.11,1.23,0,.05" transform="translate(-196.87 -47.7)" style="fill:#567c3d"/><path d="M322.42,286.17l-2.11-1.23,0-.07,2.11,1.23,0,.07" transform="translate(-196.87 -47.7)" style="fill:#59803f"/><path d="M322.39,286.1l-2.11-1.23a.57.57,0,0,1,0-.11l2.11,1.23a.57.57,0,0,0,0,.11" transform="translate(-196.87 -47.7)" style="fill:#5c8541"/><path d="M322.36,286l-2.11-1.23a1,1,0,0,1,0-.15l2.11,1.23a1,1,0,0,0,0,.15" transform="translate(-196.87 -47.7)" style="fill:#5f8943"/></g></g></g><g style="isolation:isolate"><g style="clip-path:url(#clip-path-37)"><g style="isolation:isolate"><path d="M322.35,285.83l-2.11-1.23a1.31,1.31,0,0,1,.11-.53l2.11,1.23a1.31,1.31,0,0,0-.11.53" transform="translate(-196.87 -47.7)" style="fill:#5f8943"/><path d="M322.46,285.3l-2.11-1.23.08-.15,2.11,1.23-.08.15" transform="translate(-196.87 -47.7)" style="fill:#5c8541"/><path d="M322.54,285.15l-2.11-1.23.08-.13,2.11,1.23-.08.13" transform="translate(-196.87 -47.7)" style="fill:#59803f"/><path d="M322.62,285l-2.11-1.23.11-.14,2.11,1.23-.11.14" transform="translate(-196.87 -47.7)" style="fill:#567c3d"/><path d="M322.73,284.88l-2.11-1.23.15-.16,2.11,1.23-.15.16" transform="translate(-196.87 -47.7)" style="fill:#53783b"/><path d="M322.88,284.71l-2.11-1.23.26-.23,2.11,1.23-.26.23" transform="translate(-196.87 -47.7)" style="fill:#507439"/><path d="M323.14,284.48,321,283.26l.11-.08,2.11,1.23-.11.08" transform="translate(-196.87 -47.7)" style="fill:#4d6f37"/></g></g></g><path d="M322.35,285.83a1.83,1.83,0,0,1,.9-1.43v1.84C322.55,286.45,322.35,286.27,322.35,285.83Z" transform="translate(-196.87 -47.7)" style="fill:#89c561"/><polygon points="129.73 230.93 127.62 229.7 127.61 228.88 129.73 230.1 129.73 230.93" style="fill:#3c592c"/><polygon points="129.73 230.1 127.61 228.88 141.1 221.09 143.21 222.32 129.73 230.1" style="fill:#2f4522"/><g style="isolation:isolate"><g style="clip-path:url(#clip-path-38)"><g style="isolation:isolate"><path d="M324.13,281.59,322,280.36a4.85,4.85,0,0,1,2.93-.57l2.11,1.23a4.85,4.85,0,0,0-2.93.57" transform="translate(-196.87 -47.7)" style="fill:#2d4221"/></g></g></g><polygon points="127.26 233.89 125.14 232.66 125.14 230.96 127.25 232.19 127.26 233.89" style="fill:#69964a"/><polygon points="126.38 234.4 124.26 233.17 124.26 231.47 126.37 232.7 126.38 234.4" style="fill:#3c592c"/><polygon points="126.37 232.7 124.26 231.47 125.14 230.96 127.25 232.19 126.37 232.7" style="fill:#2f4522"/><g style="isolation:isolate"><g style="clip-path:url(#clip-path-39)"><g style="isolation:isolate"><path d="M320.61,289.6l-2.11-1.23a1.26,1.26,0,0,1-.24-.18l2.11,1.23a1.26,1.26,0,0,0,.24.18" transform="translate(-196.87 -47.7)" style="fill:#304723"/><path d="M320.36,289.41l-2.11-1.23a1.31,1.31,0,0,1-.19-.23l2.11,1.23a1.31,1.31,0,0,0,.19.23" transform="translate(-196.87 -47.7)" style="fill:#324a25"/><path d="M320.17,289.18,318.06,288a1.63,1.63,0,0,1-.15-.31l2.11,1.23a1.63,1.63,0,0,0,.15.31" transform="translate(-196.87 -47.7)" style="fill:#344c26"/><path d="M320,288.87l-2.11-1.23a2.52,2.52,0,0,1-.13-.5l2.11,1.23a2.52,2.52,0,0,0,.13.5" transform="translate(-196.87 -47.7)" style="fill:#354f27"/><path d="M319.89,288.37l-2.11-1.23a4.73,4.73,0,0,1-.05-.71,5.56,5.56,0,0,1,.48-2.25l2.11,1.23a5.56,5.56,0,0,0-.48,2.25,4.73,4.73,0,0,0,.05.71" transform="translate(-196.87 -47.7)" style="fill:#375128"/><path d="M320.32,285.41l-2.11-1.23a6.46,6.46,0,0,1,.3-.61l2.11,1.23a6.46,6.46,0,0,0-.3.61" transform="translate(-196.87 -47.7)" style="fill:#354f27"/><path d="M320.63,284.8l-2.11-1.23q.15-.26.32-.52l2.11,1.23q-.17.25-.32.52" transform="translate(-196.87 -47.7)" style="fill:#344c26"/><path d="M321,284.29l-2.11-1.23q.18-.26.39-.51l2.11,1.23q-.2.25-.39.51" transform="translate(-196.87 -47.7)" style="fill:#324a25"/><path d="M321.34,283.78l-2.11-1.23q.24-.28.5-.55l2.11,1.23q-.27.27-.5.55" transform="translate(-196.87 -47.7)" style="fill:#304723"/><path d="M321.84,283.23,319.73,282a8.4,8.4,0,0,1,.78-.68l2.11,1.23a8.4,8.4,0,0,0-.78.68" transform="translate(-196.87 -47.7)" style="fill:#2e4522"/><path d="M322.62,282.54l-2.11-1.23q.3-.24.63-.45l2.11,1.23q-.33.21-.63.45" transform="translate(-196.87 -47.7)" style="fill:#2d4221"/></g></g></g><path d="M324.14,286c2.48-.7,3.49,0,3.5,2.07a7.34,7.34,0,0,1-3.47,6v1.83l-.88.51v-1.8a4.62,4.62,0,0,1-3.64.62l.57-2.64a4.29,4.29,0,0,0,3.06-.27v-2.74c-2.66.7-3.42-.06-3.43-1.91a6.85,6.85,0,0,1,3.41-5.56v-1.7l.88-.51v1.7a4.85,4.85,0,0,1,2.93-.57l-.53,2.47a4.59,4.59,0,0,0-2.39.42Zm0,5.73a2.36,2.36,0,0,0,1-1.81c0-.5-.29-.73-1-.58v2.39m-.9-5.49V284.4a1.83,1.83,0,0,0-.9,1.43c0,.43.2.61.91.41" transform="translate(-196.87 -47.7)" style="fill:#4f753a"/><polygon points="110.22 258.6 108.1 257.37 121.58 249.58 123.7 250.81 110.22 258.6" style="fill:#517439"/><polygon points="110.92 257.37 108.81 256.14 121.58 248.77 123.7 250 110.92 257.37" style="fill:#2f4522"/><polygon points="123.65 234.44 121.54 233.21 121.54 232.38 123.65 233.61 123.65 234.44" style="fill:#69964a"/><polygon points="110.92 257.37 108.81 256.14 108.76 240.58 110.88 241.81 110.92 257.37" style="fill:#69964a"/><polygon points="110.88 241.81 108.76 240.58 121.54 233.21 123.65 234.44 110.88 241.81" style="fill:#517439"/><polygon points="110.22 258.6 108.1 257.37 108.05 240.17 110.17 241.4 110.22 258.6" style="fill:#3c592c"/><polygon points="110.17 241.4 108.05 240.17 121.54 232.38 123.65 233.61 110.17 241.4" style="fill:#2f4522"/><path d="M305.19,287.8l36.93-21.32.06,21.92-36.93,21.32Zm34.94-.58,0-17.2L326.6,277.8v.82l12.78-7.38,0,15.56-12.78,7.38V295l13.48-7.79m-19.56,11.29v-.81l-12.78,7.38,0-15.56,12.78-7.38v-.82L307,289.1l0,17.2,13.48-7.79m3.6-2.63v-1.83a7.34,7.34,0,0,0,3.47-6c0-2.11-1-2.78-3.5-2.07v-2.1a4.59,4.59,0,0,1,2.39-.42l.53-2.47a4.85,4.85,0,0,0-2.93.57v-1.7l-.88.51v1.7a6.85,6.85,0,0,0-3.41,5.56c0,1.85.77,2.61,3.43,1.91v2.74a4.29,4.29,0,0,1-3.06.27l-.57,2.64a4.62,4.62,0,0,0,3.64-.62v1.8l.88-.51" transform="translate(-196.87 -47.7)" style="fill:#89c561"/><polygon points="143.21 222.32 143.26 239.52 129.78 247.3 129.78 246.49 142.55 239.11 142.51 223.55 129.73 230.93 129.73 230.1 143.21 222.32" style="fill:#4f753a"/><polygon points="123.65 233.61 123.65 234.44 110.88 241.81 110.92 257.37 123.7 250 123.7 250.81 110.22 258.6 110.17 241.4 123.65 233.61" style="fill:#4f753a"/><polygon points="108.32 240.1 106.21 238.87 143.13 217.55 145.25 218.78 108.32 240.1" style="fill:#517439"/><polygon points="108.38 262.02 106.27 260.79 106.21 238.87 108.32 240.1 108.38 262.02" style="fill:#69964a"/></g></g></svg>