<svg id="f8fb3ffd-bc35-4259-86f5-4b43b4b81c8b" data-name="Layer 1" xmlns="http://www.w3.org/2000/svg" viewBox="0 0 20 35"><title>icons</title><path d="M17.09,28.5H10.7a1.46,1.46,0,0,1-1.28-.76L5.69,21A1.48,1.48,0,0,1,7,18.78l1,0a1.54,1.54,0,0,1,1.2.56l.83,1V12.47A1.33,1.33,0,0,1,11.3,11h1.45c.76,0,1.25.58,1.25,1.47v5l5.08,1.82A1.43,1.43,0,0,1,20,20.72a.5.5,0,0,1,0,.11l-1.52,6.68A1.48,1.48,0,0,1,17.09,28.5ZM8,19.77l-1,0a.48.48,0,0,0-.42.23.48.48,0,0,0,0,.47l3.73,6.77a.46.46,0,0,0,.41.25h6.39a.46.46,0,0,0,.43-.29L19,20.67c0-.18-.08-.39-.24-.44l-5.43-1.95a.5.5,0,0,1-.33-.47V12.47c0-.47-.18-.47-.25-.47H11.3c-.25,0-.3.26-.3.47v9.22a.5.5,0,0,1-.88.32L8.4,20A.55.55,0,0,0,8,19.77Z" style="fill:#003058"/><rect y="6.5" width="2" height="1" style="fill:#003058"/><rect y="10.5" width="2" height="1" style="fill:#003058"/><rect y="14.5" width="2" height="1" style="fill:#003058"/><rect x="5" y="6.5" width="2" height="1" style="fill:#003058"/><rect x="5" y="10.5" width="2" height="1" style="fill:#003058"/><rect x="5" y="14.5" width="2" height="1" style="fill:#003058"/><rect x="10" y="6.5" width="2" height="1" style="fill:#003058"/></svg>