<svg id="d704e031-81e7-493c-84e5-9dde4d89f720" data-name="Layer 1" xmlns="http://www.w3.org/2000/svg" viewBox="0 0 57.38 55.38"><title>renewals_icon</title><path d="M41.9,35.19h-20a2,2,0,0,1-2-2.09V18.28a2,2,0,0,1,2-2.09h20a2,2,0,0,1,2,2.09V33.1A2,2,0,0,1,41.9,35.19Zm-20-18a1,1,0,0,0-1,1.09V33.1a1,1,0,0,0,1,1.09h20a1,1,0,0,0,1-1.09V18.28a1,1,0,0,0-1-1.09Z" style="fill:#fff"/><path d="M38.9,37.19h-14a.5.5,0,1,1,0-1h14a.5.5,0,0,1,0,1Z" style="fill:#fff"/><path d="M31.9,37.19a.5.5,0,0,1-.5-.5v-2a.5.5,0,1,1,1,0v2A.5.5,0,0,1,31.9,37.19Z" style="fill:#fff"/><path d="M31.9,33.69a1,1,0,1,1,1-1A1,1,0,0,1,31.9,33.69Zm0-1h0Z" style="fill:#fff"/><rect x="20.4" y="30.19" width="23" height="1" style="fill:#fff"/><path d="M8.69,35.38a8.69,8.69,0,1,1,8.69-8.69A8.7,8.7,0,0,1,8.69,35.38Zm0-16.55a7.86,7.86,0,1,0,7.86,7.86A7.87,7.87,0,0,0,8.69,18.83Z" style="fill:#fff"/><path d="M8.81,30.54H4.31a.41.41,0,0,1-.41-.41v-.41A1.56,1.56,0,0,1,5,28.29l1.78-.51V27h.82v1.14a.41.41,0,0,1-.3.39l-2.08.59a.75.75,0,0,0-.49.65H8.81Z" style="fill:#fff"/><path d="M12.49,30.54H8v-.82h4.09a.75.75,0,0,0-.49-.65l-2.08-.59a.41.41,0,0,1-.3-.39V26.93H10v.85l1.78.51a1.56,1.56,0,0,1,1.08,1.44v.41A.41.41,0,0,1,12.49,30.54Z" style="fill:#fff"/><path d="M8.4,27.72a3.09,3.09,0,0,1,0-6.17,3.09,3.09,0,0,1,0,6.17Zm0-5.35a2.28,2.28,0,0,0,0,4.54,2.28,2.28,0,0,0,0-4.54Z" style="fill:#fff"/><path d="M10.06,24.83l-.3,0a1.82,1.82,0,0,1-1-.49,2.74,2.74,0,0,1-3,.1l.47-.67a1.94,1.94,0,0,0,2.28-.31.41.41,0,0,1,.35-.12.41.41,0,0,1,.3.21.94.94,0,0,0,.71.47.85.85,0,0,0,.66-.13l.58.58A1.5,1.5,0,0,1,10.06,24.83Z" style="fill:#fff"/><path d="M48.69,17.38a8.69,8.69,0,1,1,8.69-8.69A8.7,8.7,0,0,1,48.69,17.38Zm0-16.55a7.86,7.86,0,1,0,7.86,7.86A7.87,7.87,0,0,0,48.69.83Z" style="fill:#fff"/><path d="M48.81,12.54h-4.5a.41.41,0,0,1-.41-.41v-.41A1.56,1.56,0,0,1,45,10.29l1.78-.51V9h.82v1.14a.41.41,0,0,1-.3.39l-2.08.59a.75.75,0,0,0-.49.65h4.09Z" style="fill:#fff"/><path d="M52.49,12.54H48v-.82h4.09a.75.75,0,0,0-.49-.65l-2.08-.59a.41.41,0,0,1-.3-.39V8.93H50v.85l1.78.51a1.56,1.56,0,0,1,1.08,1.44v.41A.41.41,0,0,1,52.49,12.54Z" style="fill:#fff"/><path d="M48.4,9.72a3,3,0,0,1-2.86-3.09,2.87,2.87,0,1,1,5.73,0A3,3,0,0,1,48.4,9.72Zm0-5.35a2.17,2.17,0,0,0-2,2.27,2.06,2.06,0,1,0,4.09,0A2.17,2.17,0,0,0,48.4,4.36Z" style="fill:#fff"/><path d="M50.06,6.83l-.3,0a1.82,1.82,0,0,1-1-.49,2.74,2.74,0,0,1-3,.1l.47-.67a1.94,1.94,0,0,0,2.28-.31.41.41,0,0,1,.35-.12.41.41,0,0,1,.3.21.94.94,0,0,0,.71.47.85.85,0,0,0,.66-.13l.58.58A1.5,1.5,0,0,1,50.06,6.83Z" style="fill:#fff"/><path d="M36.29,49.79A23.49,23.49,0,0,1,9.77,34.63a8,8,0,0,1-.91.07A24.39,24.39,0,0,0,36.7,50.62,8,8,0,0,1,36.29,49.79Z" style="fill:#fff"/><path d="M9.77,18.75A23.5,23.5,0,0,1,41.47,5.22a8,8,0,0,1,.43-.78,24.37,24.37,0,0,0-33,14.24A8.06,8.06,0,0,1,9.77,18.75Z" style="fill:#fff"/><path d="M52.66,15.66A23.46,23.46,0,0,1,50,41.72a8,8,0,0,1,.52.75A24.34,24.34,0,0,0,53.4,15.17,8,8,0,0,1,52.66,15.66Z" style="fill:#fff"/><path d="M43.69,55.38a8.69,8.69,0,1,1,8.69-8.69A8.7,8.7,0,0,1,43.69,55.38Zm0-16.55a7.86,7.86,0,1,0,7.86,7.86A7.87,7.87,0,0,0,43.69,38.83Z" style="fill:#fff"/><path d="M43.81,50.54h-4.5a.41.41,0,0,1-.41-.41v-.41A1.56,1.56,0,0,1,40,48.29l1.78-.51V47h.82v1.14a.41.41,0,0,1-.3.39l-2.08.59a.75.75,0,0,0-.49.65h4.09Z" style="fill:#fff"/><path d="M47.49,50.54H43v-.82h4.09a.75.75,0,0,0-.49-.65l-2.08-.59a.41.41,0,0,1-.3-.39V46.93H45v.85l1.78.51a1.56,1.56,0,0,1,1.08,1.44v.41A.41.41,0,0,1,47.49,50.54Z" style="fill:#fff"/><path d="M43.4,47.72a3.09,3.09,0,1,1,2.86-3.09A3,3,0,0,1,43.4,47.72Zm0-5.35a2.28,2.28,0,1,0,2,2.27A2.17,2.17,0,0,0,43.4,42.36Z" style="fill:#fff"/><path d="M45.06,44.83l-.3,0a1.82,1.82,0,0,1-1-.49,2.74,2.74,0,0,1-3,.1l.47-.67a1.94,1.94,0,0,0,2.28-.31.41.41,0,0,1,.35-.12.41.41,0,0,1,.3.21.94.94,0,0,0,.71.47.85.85,0,0,0,.66-.13l.58.58A1.5,1.5,0,0,1,45.06,44.83Z" style="fill:#fff"/></svg>