<svg id="f8a18ae5-030a-4449-ae47-386b3553b1ab" data-name="Layer 1" xmlns="http://www.w3.org/2000/svg" viewBox="0 0 24 35"><title>icon-final</title><path d="M19.5,12.5H14V11a.5.5,0,0,0-.5-.5H12v-2a3,3,0,0,0-3-3H4.5a.5.5,0,0,0,0,1H9a2,2,0,0,1,2,2v2H9.5A.5.5,0,0,0,9,11v1.5H4.5A4.5,4.5,0,0,0,0,17V27a2.5,2.5,0,0,0,2.5,2.5c1.31,0,1.45-.24,2.73-2.55.54-1,1.34-2.41,2.56-4.45h8.43c1.22,2.05,2,3.5,2.55,4.47,1.21,2.2,1.39,2.53,2.73,2.53A2.5,2.5,0,0,0,24,27V17A4.5,4.5,0,0,0,19.5,12.5Zm-9.5-1h3v1H10ZM23,27a1.5,1.5,0,0,1-1.5,1.5c-.75,0-.75,0-1.86-2-.56-1-1.4-2.55-2.72-4.74a.5.5,0,0,0-.43-.24h-9a.5.5,0,0,0-.43.24c-1.31,2.18-2.16,3.71-2.72,4.72-1.13,2-1.13,2-1.85,2A1.5,1.5,0,0,1,1,27V17a3.5,3.5,0,0,1,3.5-3.5h15A3.5,3.5,0,0,1,23,17Z" style="fill:#00a7e1"/><path d="M17.79,15.29a1,1,0,1,0,1.41,0A1,1,0,0,0,17.79,15.29Zm.71.71h0l.35.35Z" style="fill:#00a7e1"/><path d="M19.79,17.29a1,1,0,1,0,1.41,0A1,1,0,0,0,19.79,17.29Zm.71.71h0l.35.35Z" style="fill:#00a7e1"/><path d="M15.79,17.29a1,1,0,0,0,1.41,1.41,1,1,0,0,0,0-1.42A1,1,0,0,0,15.79,17.29Zm.71.71h0l.35.35Z" style="fill:#00a7e1"/><path d="M17.79,19.29a1,1,0,1,0,1.41,0A1,1,0,0,0,17.79,19.29Zm.71.71h0l.35.35Z" style="fill:#00a7e1"/><path d="M7.5,17.5H6V16a.5.5,0,0,0-1,0v1.5H3.5a.5.5,0,0,0,0,1H5V20a.5.5,0,0,0,1,0V18.5H7.5a.5.5,0,0,0,0-1Z" style="fill:#00a7e1"/><path d="M11,19.5H10a.5.5,0,0,0,0,1h1a.5.5,0,0,0,0-1Z" style="fill:#00a7e1"/><path d="M14,19.5H13a.5.5,0,0,0,0,1h1a.5.5,0,0,0,0-1Z" style="fill:#00a7e1"/></svg>