<svg id="f9ad7de7-b7b7-4888-aae6-45ae94de188b" data-name="Layer 1" xmlns="http://www.w3.org/2000/svg" viewBox="0 0 24 35"><title>icons</title><path d="M3,9a.5.5,0,0,1-.35-.15l-.78-.78a.5.5,0,0,1,.71-.71l.78.78A.5.5,0,0,1,3,9Z" style="fill:#003058"/><path d="M12,9a.5.5,0,0,1-.35-.85l.78-.78a.5.5,0,0,1,.71.71l-.78.78A.5.5,0,0,1,12,9Z" style="fill:#003058"/><path d="M6,25.8a.49.49,0,0,1-.25-.07A5.53,5.53,0,0,1,3,21a5.47,5.47,0,0,1,4.57-5.42A6,6,0,0,1,19,14a3.42,3.42,0,0,1,2.85,1.4,3.46,3.46,0,0,1,.55,3.12,4.5,4.5,0,0,1,0,7,.5.5,0,0,1-.62-.78,3.5,3.5,0,0,0-.21-5.63.5.5,0,0,1-.18-.61A2.5,2.5,0,0,0,18.69,15a.5.5,0,0,1-.53-.32A5,5,0,0,0,13.5,11.5a5,5,0,0,0-5,4.57.5.5,0,0,1-.45.46A4.48,4.48,0,0,0,4,21a4.53,4.53,0,0,0,2.21,3.87A.5.5,0,0,1,6,25.8Z" style="fill:#003058"/><path d="M5,29.5a.5.5,0,0,1-.35-.85l5-5a.5.5,0,1,1,.71.71l-5,5A.5.5,0,0,1,5,29.5Z" style="fill:#003058"/><path d="M10,29.5a.5.5,0,0,1-.35-.85l5-5a.5.5,0,0,1,.71.71l-5,5A.5.5,0,0,1,10,29.5Z" style="fill:#003058"/><path d="M15,29.5a.5.5,0,0,1-.35-.85l5-5a.5.5,0,0,1,.71.71l-5,5A.5.5,0,0,1,15,29.5Z" style="fill:#003058"/><path d="M4.17,15.72a.5.5,0,0,1-.42-.22,4.5,4.5,0,0,1,6.59-6,.5.5,0,1,1-.63.77,3.5,3.5,0,0,0-5.13,4.65.5.5,0,0,1-.42.78Z" style="fill:#003058"/><path d="M1.5,12.5H.5a.5.5,0,0,1,0-1h1a.5.5,0,0,1,0,1Z" style="fill:#003058"/><path d="M7.5,7.5A.5.5,0,0,1,7,7V6A.5.5,0,0,1,8,6V7A.5.5,0,0,1,7.5,7.5Z" style="fill:#003058"/></svg>