<svg id="cce5c879-ad2c-4a62-bf2a-195e93d6963b" data-name="Layer 1" xmlns="http://www.w3.org/2000/svg" viewBox="0 0 24 35"><title>icons</title><path d="M16,16a1,1,0,0,1-1-1,.5.5,0,0,0-1,0,2,2,0,0,0,1.5,1.93v.57a.5.5,0,0,0,1,0v-.57A2,2,0,0,0,16,13a1,1,0,1,1,1-1,.5.5,0,0,0,1,0,2,2,0,0,0-1.5-1.93V9.5a.5.5,0,0,0-1,0v.57A2,2,0,0,0,16,14a1,1,0,0,1,0,2Z" style="fill:#003058"/><path d="M16,21.5h0a8,8,0,1,0-8-8v0a7.91,7.91,0,0,0-5.46,2.14A8,8,0,1,0,16,21.5Zm0-15a7,7,0,1,1-7,7A7,7,0,0,1,16,6.5ZM13.1,26.29a7,7,0,1,1-9.88-9.91,6.9,6.9,0,0,1,4.85-1.87A8,8,0,0,0,15,21.43,7,7,0,0,1,13.1,26.29Z" style="fill:#003058"/><path d="M8,19a.5.5,0,0,0,0-1,4,4,0,0,0-3.7,2.5H3.5a.5.5,0,0,0,0,1h.55A3.93,3.93,0,0,0,4,22a3.93,3.93,0,0,0,.05.5H3.5a.5.5,0,0,0,0,1h.8A4,4,0,0,0,8,26a.5.5,0,0,0,0-1,3,3,0,0,1-2.58-1.5H7.5a.5.5,0,0,0,0-1H5.05a2.5,2.5,0,0,1,0-1H7.5a.5.5,0,0,0,0-1H5.42A3,3,0,0,1,8,19Z" style="fill:#003058"/><path d="M2.62,12.87A.5.5,0,0,0,2.8,13l.1,0L3,13H3a.5.5,0,0,0,.35-.15l2-2a.5.5,0,1,0-.71-.71L3.51,11.3A4.49,4.49,0,0,1,8,7,.5.5,0,0,0,8,6H8a5.5,5.5,0,0,0-5.47,5.32L1.33,10.18a.5.5,0,0,0-.71.71Z" style="fill:#003058"/><path d="M21.37,22.12A.47.47,0,0,0,21,22h0a.5.5,0,0,0-.35.15l-2,2a.5.5,0,1,0,.71.71l1.12-1.13A4.49,4.49,0,0,1,16,28a.5.5,0,0,0,0,1h0a5.5,5.5,0,0,0,5.47-5.32l1.16,1.15a.5.5,0,1,0,.71-.71Z" style="fill:#003058"/></svg>