<svg id="0585d022-e625-44c4-89c1-c62fd3805406" data-name="Layer 1" xmlns="http://www.w3.org/2000/svg" viewBox="0 0 21 35"><title>icons</title><path d="M10.79,10.65a6.5,6.5,0,1,0,6.5,6.5A6.51,6.51,0,0,0,10.79,10.65Zm.38,12.22v-2.5l.49.49a.38.38,0,0,0,.54,0l1.15-1.15a.38.38,0,0,0-.54-.54l-.88.88-.88-.88a.38.38,0,0,0-.54,0L9.64,20l-.88-.88a.38.38,0,0,0-.54.54l1.15,1.15a.38.38,0,0,0,.54,0l.49-.49v2.5a5.74,5.74,0,1,1,.76,0Z" style="fill:#003058"/><path d="M12.7,24.41H8.88a.38.38,0,0,0,0,.76H12.7a.38.38,0,0,0,0-.76Z" style="fill:#003058"/><path d="M12.7,25.94H8.88a.38.38,0,0,0,0,.76H12.7a.38.38,0,0,0,0-.76Z" style="fill:#003058"/><path d="M12.7,27.47H8.88a.38.38,0,0,0,0,.76h1.53v.38a.38.38,0,0,0,.76,0v-.38H12.7a.38.38,0,0,0,0-.76Z" style="fill:#003058"/><path d="M10.5,9a.5.5,0,0,0,.5-.5v-2a.5.5,0,0,0-1,0v2A.5.5,0,0,0,10.5,9Z" style="fill:#003058"/><path d="M20.5,16h-2a.5.5,0,0,0,0,1h2a.5.5,0,0,0,0-1Z" style="fill:#003058"/><path d="M2.5,16H.5a.5.5,0,0,0,0,1h2a.5.5,0,0,0,0-1Z" style="fill:#003058"/><path d="M4.49,11.2a.5.5,0,0,0,.71-.71L3.07,8.37a.5.5,0,0,0-.71.71Z" style="fill:#003058"/><path d="M16.16,11.34a.5.5,0,0,0,.35-.15l2.12-2.12a.5.5,0,0,0-.71-.71L15.8,10.49a.5.5,0,0,0,.35.85Z" style="fill:#003058"/></svg>