<svg id="112f25f5-a597-48ca-b655-fcead7016e03" data-name="Layer 1" xmlns="http://www.w3.org/2000/svg" viewBox="0 0 24 35"><title>icons</title><path d="M23.5,9H9.5a.5.5,0,0,0-.5.5V11H5a.5.5,0,0,0-.44.26L2.1,15.7l-2,2A.5.5,0,0,0,0,18v5.5a.5.5,0,0,0,.5.5H2.55a2.5,2.5,0,0,0,4.9,0h9.1a2.5,2.5,0,0,0,4.9,0H23.5a.5.5,0,0,0,.5-.5V9.5A.5.5,0,0,0,23.5,9ZM10,10H23V21H10V10Zm6.55,13H7.45A2.48,2.48,0,0,0,7,22H17A2.48,2.48,0,0,0,16.55,23ZM2.85,16.35a.52.52,0,0,0,.08-.11L5.29,12H9v9H1V18.21ZM1,22H3a2.48,2.48,0,0,0-.46,1H1Zm4,3a1.5,1.5,0,1,1,1.5-1.5A1.5,1.5,0,0,1,5,25Zm14,0a1.5,1.5,0,1,1,1.5-1.5A1.5,1.5,0,0,1,19,25Zm2.45-2A2.48,2.48,0,0,0,21,22h2v1Z" style="fill:#003058"/><path d="M4.28,16.95a.5.5,0,0,0,.67-.22L6.31,14H7.5a.5.5,0,0,0,0-1H6a.5.5,0,0,0-.45.28l-1.5,3A.5.5,0,0,0,4.28,16.95Z" style="fill:#003058"/></svg>