<svg id="5a61279e-5b24-4926-9654-0cba63e78a3e" data-name="Layer 1" xmlns="http://www.w3.org/2000/svg" viewBox="0 0 24 35"><title>icons</title><path d="M23.5,5.5H.5A.5.5,0,0,0,0,6V20a.5.5,0,0,0,.5.5H4V28c0,1.39,4.21,1.5,5.5,1.5S15,29.39,15,28V20.5h8.5A.5.5,0,0,0,24,20V6A.5.5,0,0,0,23.5,5.5ZM14,27.88a11.14,11.14,0,0,1-4.5.62A11.14,11.14,0,0,1,5,27.88V27a15.75,15.75,0,0,0,4.5.54A15.75,15.75,0,0,0,14,27Zm0-2a11.14,11.14,0,0,1-4.5.62A11.14,11.14,0,0,1,5,25.88V25a15.75,15.75,0,0,0,4.5.54A15.75,15.75,0,0,0,14,25Zm0-2a11.14,11.14,0,0,1-4.5.62A11.14,11.14,0,0,1,5,23.88V23a15.75,15.75,0,0,0,4.5.54A15.75,15.75,0,0,0,14,23Zm0-2a11.14,11.14,0,0,1-4.5.62A11.14,11.14,0,0,1,5,21.88V21a15.75,15.75,0,0,0,4.5.54A15.75,15.75,0,0,0,14,21Zm0-2a11.14,11.14,0,0,1-4.5.62A11.14,11.14,0,0,1,5,19.88V19a15.75,15.75,0,0,0,4.5.54A15.75,15.75,0,0,0,14,19ZM5.25,18a14,14,0,0,1,4.25-.5,14,14,0,0,1,4.25.5,13.84,13.84,0,0,1-4.25.5A13.84,13.84,0,0,1,5.25,18Zm9.53-.5c-.88-.92-4.16-1-5.28-1s-4.33.08-5.25,1A1.5,1.5,0,0,1,3,16V10A1.5,1.5,0,0,1,4.5,8.5h15A1.5,1.5,0,0,1,21,10v6a1.5,1.5,0,0,1-1.5,1.5Zm8.22,2H15v-1h4.5A2.5,2.5,0,0,0,22,16V10a2.5,2.5,0,0,0-2.5-2.5H4.5A2.5,2.5,0,0,0,2,10v6a2.5,2.5,0,0,0,2,2.45V19.5H1V6.5H23Z" style="fill:#003058"/><path d="M12,9.5A3.5,3.5,0,1,0,15.5,13,3.5,3.5,0,0,0,12,9.5Zm0,6A2.5,2.5,0,1,1,14.5,13,2.5,2.5,0,0,1,12,15.5Z" style="fill:#003058"/><path d="M5,9.5a1,1,0,1,0,1,1A1,1,0,0,0,5,9.5Zm0,1H5Z" style="fill:#003058"/><path d="M20,15.5a1,1,0,1,0-1,1A1,1,0,0,0,20,15.5Zm-1,0h0Z" style="fill:#003058"/></svg>