<svg id="6ec6dd2f-f4ce-4244-8728-3ce9b716e4aa" data-name="Layer 1" xmlns="http://www.w3.org/2000/svg" viewBox="0 0 23 35"><title>icons</title><path d="M11.5,10A7.5,7.5,0,1,0,19,17.5,7.51,7.51,0,0,0,11.5,10Zm0,14A6.5,6.5,0,1,1,18,17.5,6.51,6.51,0,0,1,11.5,24Z" style="fill:#003058"/><path d="M11.5,26a.5.5,0,0,0-.5.5v2a.5.5,0,0,0,1,0v-2A.5.5,0,0,0,11.5,26Z" style="fill:#003058"/><path d="M22.5,17h-2a.5.5,0,0,0,0,1h2a.5.5,0,0,0,0-1Z" style="fill:#003058"/><path d="M11.5,9a.5.5,0,0,0,.5-.5v-2a.5.5,0,0,0-1,0v2A.5.5,0,0,0,11.5,9Z" style="fill:#003058"/><path d="M2.5,17H.5a.5.5,0,0,0,0,1h2a.5.5,0,0,0,0-1Z" style="fill:#003058"/><path d="M4.78,23.51,3.37,24.93a.5.5,0,1,0,.71.71l1.41-1.42a.5.5,0,0,0-.71-.71Z" style="fill:#003058"/><path d="M18.22,23.51a.5.5,0,0,0-.71.71l1.41,1.41a.5.5,0,0,0,.71-.71Z" style="fill:#003058"/><path d="M18.93,9.37l-1.41,1.41a.5.5,0,1,0,.71.71l1.41-1.41a.5.5,0,0,0-.71-.71Z" style="fill:#003058"/><path d="M4.78,11.49a.5.5,0,0,0,.71-.71L4.08,9.37a.5.5,0,0,0-.71.71Z" style="fill:#003058"/></svg>