<svg id="d2ad0cc7-a868-4186-8109-e7edd2df36bb" data-name="Layer 1" xmlns="http://www.w3.org/2000/svg" viewBox="0 0 24 35"><title>icons</title><path d="M22,8H7a2,2,0,0,0-2,2v1.17c-2,.42-5,1.91-5,7V21.5A5.51,5.51,0,0,0,5.5,27H13a2,2,0,0,0,2-2,2,2,0,0,0-.28-1H17a2,2,0,0,0,2-2,2,2,0,0,0-.28-1H22a2,2,0,0,0,2-2V10A2,2,0,0,0,22,8ZM17,23H10.5a.5.5,0,0,0,0,1H13a1,1,0,0,1,0,2H5.5A4.5,4.5,0,0,1,1,21.5V18.17C1,12.44,5.21,12,6.5,12h3c.6,0,1.5.27,1.5,1v.5c0,.79-1,1-1.5,1h-2a.5.5,0,0,0-.48.36C6.77,15.74,5.83,18,4.5,18a.5.5,0,0,0,0,1,2.16,2.16,0,0,0,.5-.06V19a2,2,0,0,0,2,2H17a1,1,0,0,1,0,2Zm6-4a1,1,0,0,1-1,1H7a1,1,0,0,1-1-1v-.56A6.87,6.87,0,0,0,7.86,15.5H9.5c1.24,0,2.5-.69,2.5-2V13H23Zm0-7H11.69A2.64,2.64,0,0,0,9.5,11h-3L6,11V10A1,1,0,0,1,7,9H22a1,1,0,0,1,1,1Z" style="fill:#003058"/><path d="M18.5,15h3a.5.5,0,0,0,0-1h-3a.5.5,0,0,0,0,1Z" style="fill:#003058"/></svg>