<svg id="221e6682-3be0-43de-a974-748c65c93e35" data-name="Layer 1" xmlns="http://www.w3.org/2000/svg" viewBox="0 0 24 35"><title>icons</title><path d="M21.52,8.53l-19-.05A2.5,2.5,0,0,0,0,11L0,24a2.5,2.5,0,0,0,2.49,2.51l19,.05A2.5,2.5,0,0,0,24,24l0-13A2.5,2.5,0,0,0,21.52,8.53ZM23,24a1.5,1.5,0,0,1-1.5,1.5l-19-.05A1.5,1.5,0,0,1,1,24L1,11a1.5,1.5,0,0,1,1.5-1.5l19,.05A1.5,1.5,0,0,1,23,11Z" style="fill:#003058"/><rect x="6" y="14.5" width="1" height="1" style="fill:#003058"/><rect x="10" y="14.5" width="1" height="1" style="fill:#003058"/><rect x="10" y="16.5" width="1" height="1" style="fill:#003058"/><rect x="10" y="18.5" width="1" height="1" style="fill:#003058"/><rect x="10" y="20.5" width="1" height="1" style="fill:#003058"/><rect x="6" y="16.5" width="1" height="1" style="fill:#003058"/><rect x="6" y="18.5" width="1" height="1" style="fill:#003058"/><rect x="6" y="20.5" width="1" height="1" style="fill:#003058"/><rect x="8" y="15.5" width="1" height="1" style="fill:#003058"/><rect x="8" y="17.5" width="1" height="1" style="fill:#003058"/><rect x="8" y="19.5" width="1" height="1" style="fill:#003058"/><path d="M16,12.5A5.47,5.47,0,0,0,12.26,14a5.5,5.5,0,1,0,0,8A5.49,5.49,0,1,0,16,12.5ZM10.52,22H10v.22a4.45,4.45,0,0,1-1,.23V21.5H8v.95a4.45,4.45,0,0,1-1-.23V22H6.48a4.52,4.52,0,0,1-1.72-1.5H5v-1H4.28a4.44,4.44,0,0,1-.23-1H5v-1H4.05a4.45,4.45,0,0,1,.23-1H5v-1H4.76A4.49,4.49,0,0,1,8,13.55v.95H9v-.95a4.49,4.49,0,0,1,3.24,1.95H12v1h.72a4.45,4.45,0,0,1,.23,1H12v1h.95a4.44,4.44,0,0,1-.23,1H12v1h.24A4.52,4.52,0,0,1,10.52,22Zm5.48.5a4.46,4.46,0,0,1-3.06-1.26,5.45,5.45,0,0,0,0-6.47A4.46,4.46,0,0,1,16,13.5a4.5,4.5,0,1,1,0,9Z" style="fill:#003058"/></svg>