<svg id="b3e4933b-9a7c-4d02-879c-b556ac73d4ee" data-name="Layer 1" xmlns="http://www.w3.org/2000/svg" viewBox="0 0 24 35"><title>icons</title><path d="M14.1,20.53,10,19.14V18.5h2.5a.5.5,0,0,0,0-1H10v-4a2,2,0,0,0-4,0v4H1v-8H12.5a.5.5,0,0,0,0-1H.5A.5.5,0,0,0,0,9v9a.5.5,0,0,0,.5.5H6v4.41c-1.49-2-2.5-2.41-3.57-2.41a1.23,1.23,0,0,0-1.14.65,2.22,2.22,0,0,0,.19,2.12l4,6a.5.5,0,0,0,.42.22h8a.5.5,0,0,0,.49-.41l1-5.48C15.68,22.42,15.38,20.94,14.1,20.53Zm.33,2.88-.94,5.09H6.18L2.31,22.73a1.27,1.27,0,0,1-.15-1.1c0-.06.08-.13.26-.13.74,0,1.69.25,3.65,3.27A.5.5,0,0,0,7,24.5v-11a1,1,0,0,1,2,0V18H9v1.5a.5.5,0,0,0,.34.47l4.44,1.5C14.48,21.7,14.6,22.62,14.42,23.41Z" style="fill:#003058"/><path d="M23.5,9.5h-1V9a3.5,3.5,0,0,0-7,0v.5h-1a.5.5,0,0,0-.5.5v7a.5.5,0,0,0,.5.5h9A.5.5,0,0,0,24,17V10A.5.5,0,0,0,23.5,9.5Zm-7-.5a2.5,2.5,0,0,1,5,0v.5h-5ZM23,16.5H15v-6h8Z" style="fill:#003058"/><path d="M19,11.5a1,1,0,0,0-1,1,1,1,0,0,0,.5.85V15a.5.5,0,0,0,1,0V13.35a1,1,0,0,0,.5-.85A1,1,0,0,0,19,11.5Zm0,1h0Z" style="fill:#003058"/></svg>