<svg id="cfc24922-bfa7-4f02-b44c-42c02c36416f" data-name="Layer 1" xmlns="http://www.w3.org/2000/svg" viewBox="0 0 24 35"><title>icons</title><path d="M11,18.5H2.5A1.5,1.5,0,0,1,1,17V10.5H17v5a.5.5,0,1,0,1,0V9a2.5,2.5,0,0,0-2.5-2.5H2.5A2.5,2.5,0,0,0,0,9v8a2.5,2.5,0,0,0,2.5,2.5H11a.5.5,0,0,0,0-1ZM2.5,7.5h13A1.5,1.5,0,0,1,17,9v.5H1V9A1.5,1.5,0,0,1,2.5,7.5Z" style="fill:#003058"/><path d="M9,12a.5.5,0,0,0-.5-.5h-5a.5.5,0,1,0,0,1h5A.5.5,0,0,0,9,12Z" style="fill:#003058"/><path d="M16,12a.5.5,0,0,0-.5-.5h-2a.5.5,0,1,0,0,1h2A.5.5,0,0,0,16,12Z" style="fill:#003058"/><path d="M3.5,13.5a.5.5,0,0,0,0,1h3a.5.5,0,1,0,0-1Z" style="fill:#003058"/><path d="M24,19.5a.5.5,0,0,0-1,0v.77a5.52,5.52,0,0,0-4-1.77,5.33,5.33,0,0,0-5,3.33.5.5,0,1,0,.94.33,4.37,4.37,0,0,1,4-2.67,4.49,4.49,0,0,1,3.69,2H21a.5.5,0,0,0,0,1h2.5l.17,0h0l.09-.05.07,0,.06-.08L24,22.2a.51.51,0,0,0,0-.08A.49.49,0,0,0,24,22h0Z" style="fill:#003058"/><path d="M23.67,24.53a.5.5,0,0,0-.64.31,4.37,4.37,0,0,1-4,2.67,4.49,4.49,0,0,1-3.69-2H17a.5.5,0,1,0,0-1H14.5l-.08,0h-.1l-.09.05-.07,0-.06.08L14,24.8a.51.51,0,0,0,0,.08A.49.49,0,0,0,14,25h0v2.5a.5.5,0,0,0,1,0v-.77a5.52,5.52,0,0,0,4,1.77,5.33,5.33,0,0,0,5-3.33A.5.5,0,0,0,23.67,24.53Z" style="fill:#003058"/></svg>