<svg id="d6ee6913-ee7e-4808-a49c-35a5f0dd32ad" data-name="fdd4e956-7beb-450e-9ae3-9597a407a683" xmlns="http://www.w3.org/2000/svg" viewBox="0 0 250 203.14"><title>icons_Twitter</title><g id="6f11b380-6bd5-4ab2-a19d-4c69d38de41d" data-name="8c8e8ec5-db64-47e3-a3bd-319fe0bb2561"><path d="M78.62,203.14C173,203.14,224.56,125,224.56,57.2c0-2.22,0-4.43-.15-6.63A104.36,104.36,0,0,0,250,24a102.38,102.38,0,0,1-29.46,8.07A51.47,51.47,0,0,0,243.09,3.72a102.79,102.79,0,0,1-32.57,12.45,51.34,51.34,0,0,0-87.41,46.78A145.62,145.62,0,0,1,17.4,9.36,51.33,51.33,0,0,0,33.28,77.83,50.91,50.91,0,0,1,10,71.41v.65a51.31,51.31,0,0,0,41.15,50.28,51.21,51.21,0,0,1-23.16.88,51.35,51.35,0,0,0,47.92,35.62,102.92,102.92,0,0,1-63.7,22A104.41,104.41,0,0,1,0,180.1a145.21,145.21,0,0,0,78.62,23" transform="translate(0 0)" style="fill:#03b5e8"/></g></svg>