<svg id="9c8b1e15-84c6-4909-a5fc-f8a6d1991e7a" data-name="Layer 1" xmlns="http://www.w3.org/2000/svg" viewBox="0 0 24 35"><title>icons</title><path d="M15.5,19.5A.5.5,0,0,1,15,19V15.5H14a.5.5,0,0,1,0-1h1.5a.5.5,0,0,1,.5.5v2.89l3.67-3.26A.5.5,0,0,1,20,14.5h3v-8H9V10a.5.5,0,0,1-1,0V6a.5.5,0,0,1,.5-.5h15A.5.5,0,0,1,24,6v9a.5.5,0,0,1-.5.5H20.19l-4.36,3.87A.5.5,0,0,1,15.5,19.5Z" style="fill:#003058"/><polygon points="20 10.5 19 10.5 19 11.5 20 11.5 20 10.5 20 10.5" style="fill:#003058"/><polygon points="17 10.5 16 10.5 16 11.5 17 11.5 17 10.5 17 10.5" style="fill:#003058"/><polygon points="14 10.5 13 10.5 13 11.5 14 11.5 14 10.5 14 10.5" style="fill:#003058"/><path d="M15.5,29.5H.5A.5.5,0,0,1,0,29V26.5c0-1,3.62-2.57,5.5-3.34V21.78a3,3,0,0,1-1-2.39A1.47,1.47,0,0,1,3.75,18a1.54,1.54,0,0,1,.6-1.3C4,16,3.6,15,4.1,14.34a1.13,1.13,0,0,1,1-.38c.56-1.07,2.06-1.46,3.29-1.46,1.38,0,3.1.49,3.45,1.88a3.74,3.74,0,0,1-.29,2.33A1.44,1.44,0,0,1,12,17.89a1.78,1.78,0,0,1-.63,1.47,3.19,3.19,0,0,1-.91,2.41v1.4c1.88.76,5.5,2.37,5.5,3.34V29A.5.5,0,0,1,15.5,29.5ZM1,28.5H15V26.6A22.78,22.78,0,0,0,9.81,24a.5.5,0,0,1-.31-.46v-2A.5.5,0,0,1,9.82,21h0s.6-.35.6-2a.5.5,0,0,1,.5-.5,1.43,1.43,0,0,0,.09-.88c0-.12-.07-.12-.1-.12a.5.5,0,0,1-.5-.5,1.29,1.29,0,0,1,.15-.51,3,3,0,0,0,.31-1.87c-.18-.74-1.39-1.12-2.48-1.12s-2.3.38-2.48,1.12a.5.5,0,0,1-.58.37c-.35-.07-.46,0-.46,0s0,.42.42,1.39A1.66,1.66,0,0,1,5.5,17a.5.5,0,0,1-.5.5c-.17,0-.25.29-.25.5s.08.5.25.5a.5.5,0,0,1,.5.5c0,1.7.68,2,.68,2a.54.54,0,0,1,.32.46v2a.5.5,0,0,1-.31.46A22.78,22.78,0,0,0,1,26.6Z" style="fill:#003058"/></svg>