<svg id="91a4b1da-9cf6-4979-ad5b-c996584932a5" data-name="514281dd-739c-45fa-8b3c-ee701d77dfdd" xmlns="http://www.w3.org/2000/svg" viewBox="0 0 24 35"><title>icons_BusinessGraphicPie</title><path d="M14.51,9.48h-11a.5.5,0,0,1,0-1h11a.5.5,0,0,1,0,1Z" style="fill:#003058"/><path d="M8.48,18.49h-5A.49.49,0,0,1,3,18H3V12a.49.49,0,0,1,.49-.49h5A.49.49,0,0,1,9,12H9v6a.49.49,0,0,1-.47.51h0ZM4,17.49H8v-5H4Z" style="fill:#003058"/><path d="M14.51,14.48h-3a.5.5,0,0,1,0-1h3a.5.5,0,0,1,0,1Z" style="fill:#003058"/><path d="M14.51,16.48h-4a.5.5,0,0,1,0-1h4a.5.5,0,0,1,0,1Z" style="fill:#003058"/><path d="M14.51,18.49h-4a.5.5,0,0,1,0-1h4a.5.5,0,0,1,0,1Z" style="fill:#003058"/><path d="M14.51,20.48h-11a.5.5,0,0,1,0-1h11a.5.5,0,0,1,0,1Z" style="fill:#003058"/><path d="M14.51,22.44h-11a.5.5,0,0,1,0-1h11a.5.5,0,1,1,0,1Z" style="fill:#003058"/><path d="M14.51,24.49h-11a.5.5,0,0,1,0-1h11a.5.5,0,0,1,0,1Z" style="fill:#003058"/><path d="M20.51,27.49A1.5,1.5,0,0,1,19,26h0V8H18V9.5a.5.5,0,0,1-1,0v-2a.49.49,0,0,1,.48-.5h2a.49.49,0,0,1,.49.49h0v3h1.5A.49.49,0,0,1,22,11h0V26A1.5,1.5,0,0,1,20.51,27.49Zm-.49-16V26a.5.5,0,0,0,1,0V11.48Z" style="fill:#003058"/><path d="M20.51,29.5h-17A3.5,3.5,0,0,1,0,26.06H0V6a.49.49,0,0,1,.47-.51h17A.49.49,0,0,1,18,6h0V26a2.5,2.5,0,0,0,5,0V9.48H19.51a.5.5,0,0,1,0-1h4A.49.49,0,0,1,24,9h0v17a3.5,3.5,0,0,1-3.41,3.59h-.08ZM1,6.48V26a2.5,2.5,0,0,0,2.5,2.5H18.07A3.49,3.49,0,0,1,17,26V6.48Z" style="fill:#003058"/></svg>