<svg id="3605bbac-7b18-4f50-b59a-cd54d6a9749b" data-name="Layer 1" xmlns="http://www.w3.org/2000/svg" viewBox="0 0 23 35"><title>icons</title><path d="M23,17.47s0,0,0,0a.5.5,0,0,0,0-.15h0L19.76,10h.74a.5.5,0,0,0,0-1H13.19A1.94,1.94,0,0,0,9.81,9H2.5a.5.5,0,0,0,0,1h.74L0,17.28H0a.5.5,0,0,0,0,.15s0,0,0,0H0a4,4,0,0,0,8,0,.49.49,0,0,0-.07-.25L4.76,10H9.54A2,2,0,0,0,11,11.85V26H8.58a.5.5,0,0,0,0,1h5.81a.5.5,0,0,0,0-1H12V11.85A2,2,0,0,0,13.46,10h4.78l-3.16,7.25a.49.49,0,0,0-.07.25,4,4,0,0,0,8,0ZM4,10.73,6.73,17H1.26Zm0,9.75A3,3,0,0,1,1,18H7A3,3,0,0,1,4,20.48Zm7.5-9.56a1,1,0,1,1,1-1A1,1,0,0,1,11.5,10.92ZM21.74,17H16.27L19,10.73ZM19,20.48A3,3,0,0,1,16,18H22A3,3,0,0,1,19,20.48Z" style="fill:#003058"/></svg>