<svg id="9f0e11cf-3eed-445a-8541-3f544fb7ad05" data-name="Layer 1" xmlns="http://www.w3.org/2000/svg" viewBox="0 0 22 35"><title>icons</title><path d="M20.35,13.52A3.5,3.5,0,0,0,17,9H17A6,6,0,0,0,5.57,10.58,5.5,5.5,0,0,0,6.5,21.5h11a4.5,4.5,0,0,0,2.85-8Zm-2.85,7H6.5a4.5,4.5,0,0,1-.43-9,.5.5,0,0,0,.45-.46,5,5,0,0,1,5-4.57,5,5,0,0,1,4.66,3.21.49.49,0,0,0,.53.32,2.5,2.5,0,0,1,2.6,3.47.5.5,0,0,0,.18.61,3.5,3.5,0,0,1-2,6.39Z" style="fill:#003058"/><path d="M15.15,23.65l-3.9,3.9a1,1,0,0,0-.25,0,1,1,0,1,0,1,1,1,1,0,0,0,0-.24l3.9-3.9a.5.5,0,0,0-.71-.71ZM11,28.5h0Z" style="fill:#003058"/><path d="M10.85,24.36a.5.5,0,0,0-.71-.71l-2.9,2.9a1,1,0,0,0-.25,0,1,1,0,1,0,1,1,1,1,0,0,0,0-.24ZM7,27.5H7Z" style="fill:#003058"/><path d="M5.85,23.65a.5.5,0,0,0-.71,0l-3.9,3.9a1,1,0,0,0-.25,0,1,1,0,1,0,1,1,1,1,0,0,0,0-.24l3.9-3.9A.5.5,0,0,0,5.85,23.65ZM1,28.5H1Z" style="fill:#003058"/></svg>