<svg id="f6cc0b16-ea8b-4ce0-a27d-25d4cef92033" data-name="Layer 1" xmlns="http://www.w3.org/2000/svg" viewBox="0 0 24 35"><title>icons</title><path d="M22,18.81a10,10,0,1,0-16.11,7.9L4.65,28a.5.5,0,1,0,.71.71L6.73,27.3a9.91,9.91,0,0,0,10.55,0l1.37,1.37a.5.5,0,0,0,.71-.71l-1.25-1.25A10,10,0,0,0,22,18.81Zm-10,9a9,9,0,1,1,9-9A9,9,0,0,1,12,27.81Z" style="fill:#003058"/><path d="M12.5,12.81a.5.5,0,0,0-.5.5v5.5H8.5a.5.5,0,0,0,0,1h4a.5.5,0,0,0,.5-.5v-6A.5.5,0,0,0,12.5,12.81Z" style="fill:#003058"/><path d="M2.35,13.67a.5.5,0,0,0,0-.71,3.32,3.32,0,0,1,0-4.79,3.39,3.39,0,0,1,4.79,0,.5.5,0,0,0,.71-.71,4.41,4.41,0,0,0-6.21,0,4.29,4.29,0,0,0,0,6.21.5.5,0,0,0,.71,0Z" style="fill:#003058"/><path d="M22.35,7.46a4.41,4.41,0,0,0-6.21,0,.5.5,0,0,0,.71.71,3.39,3.39,0,0,1,4.79,0,3.32,3.32,0,0,1,0,4.79.5.5,0,1,0,.71.71A4.29,4.29,0,0,0,22.35,7.46Z" style="fill:#003058"/></svg>