<svg id="6c6a0a8f-20d5-4225-8084-8661f6959ab6" data-name="Layer 1" xmlns="http://www.w3.org/2000/svg" width="109.28" height="94.51" viewBox="0 0 109.28 94.51"><title>icons_Vimeo</title><path d="M109.73,40.11Q109,56.06,87.44,83.79q-22.29,29-37.71,29-9.55,0-16.16-17.64Q29.15,79,24.75,62.78,19.83,45.14,14.22,45.14q-1.23,0-8.58,5.14L.5,43.66q8.08-7.09,16-14.22,10.79-9.32,16.19-9.81,12.75-1.23,15.7,17.44,3.19,20.13,4.42,25,3.69,16.71,8.1,16.7,3.42,0,10.3-10.84t7.36-16.5q1-9.34-7.36-9.35a20.52,20.52,0,0,0-8.09,1.79q8.07-26.38,30.78-25.65Q110.7,18.76,109.73,40.11Z" transform="translate(-0.5 -18.24)" style="fill:#00a7e1"/></svg>