<svg id="c6ba11dc-9490-497f-b082-7bae29570cb4" data-name="Layer 1" xmlns="http://www.w3.org/2000/svg" viewBox="0 0 24 35"><title>icons</title><path d="M21.5,10H2.5A2.5,2.5,0,0,0,0,12.5v10A2.5,2.5,0,0,0,2.5,25h19A2.5,2.5,0,0,0,24,22.5v-10A2.5,2.5,0,0,0,21.5,10ZM23,22.5A1.5,1.5,0,0,1,21.5,24H2.5A1.5,1.5,0,0,1,1,22.5V15H23ZM23,14H1V12.5A1.5,1.5,0,0,1,2.5,11h19A1.5,1.5,0,0,1,23,12.5Z" style="fill:#003058"/><path d="M17.5,18h3a.5.5,0,0,0,0-1h-3a.5.5,0,0,0,0,1Z" style="fill:#003058"/><path d="M3.5,18h8a.5.5,0,0,0,0-1h-8a.5.5,0,0,0,0,1Z" style="fill:#003058"/><path d="M3.5,20h3a.5.5,0,0,0,0-1h-3a.5.5,0,0,0,0,1Z" style="fill:#003058"/></svg>