<svg id="3408c4b5-b1b9-401c-a08d-aa6c9d3aa601" data-name="Layer 1" xmlns="http://www.w3.org/2000/svg" viewBox="0 0 14 35"><title>icons</title><path d="M11.5,5.5h-9A2.5,2.5,0,0,0,0,8V27a2.5,2.5,0,0,0,2.5,2.5h9A2.5,2.5,0,0,0,14,27V8A2.5,2.5,0,0,0,11.5,5.5ZM1,10.5H13v14H1Zm1.5-4h9A1.5,1.5,0,0,1,13,8V9.5H1V8A1.5,1.5,0,0,1,2.5,6.5Zm9,22h-9A1.5,1.5,0,0,1,1,27V25.5H13V27A1.5,1.5,0,0,1,11.5,28.5Z" style="fill:#003058"/><path d="M4.5,8.5h5a.5.5,0,0,0,0-1h-5a.5.5,0,0,0,0,1Z" style="fill:#003058"/><path d="M7,26a1,1,0,1,0,1,1A1,1,0,0,0,7,26Zm0,1.5V27H7Z" style="fill:#003058"/></svg>