<svg id="819fd2e9-6d34-43ca-9755-71ff80a9528b" data-name="Layer 1" xmlns="http://www.w3.org/2000/svg" viewBox="0 0 24 35"><title>icons</title><path d="M21.5,8.5H2.5A2.5,2.5,0,0,0,0,11V24a2.5,2.5,0,0,0,2.5,2.5h19A2.5,2.5,0,0,0,24,24V11A2.5,2.5,0,0,0,21.5,8.5ZM23,24a1.5,1.5,0,0,1-1.5,1.5H2.5A1.5,1.5,0,0,1,1,24V11A1.5,1.5,0,0,1,2.5,9.5h19A1.5,1.5,0,0,1,23,11Z" style="fill:#003058"/><path d="M9.51,14.94a.5.5,0,0,0-.67.24L7.08,18.86l-.35-3.41a.5.5,0,0,0-.5-.45H5a.5.5,0,0,0,0,1h.83l.36,3.55a.5.5,0,0,0,.5.45h.69a.5.5,0,0,0,.45-.28l2-4.11A.5.5,0,0,0,9.51,14.94Z" style="fill:#003058"/><path d="M11.21,15a.5.5,0,0,0-.59.39l-.81,4.06a.5.5,0,0,0,.39.59h.1a.5.5,0,0,0,.49-.4l.81-4.06A.5.5,0,0,0,11.21,15Z" style="fill:#003058"/><path d="M15,14.94a2.18,2.18,0,0,0-2.4.65c-.49.82-.19,1.58.92,2.26.45.27.7.55.65.73a.76.76,0,0,1-.37.48A1.66,1.66,0,0,1,12.48,19a.5.5,0,1,0-.33.94,3.45,3.45,0,0,0,1.13.21,2,2,0,0,0,.94-.22,1.76,1.76,0,0,0,.87-1.1c.12-.46,0-1.15-1.1-1.84-.82-.5-.69-.71-.58-.89.23-.38,1.08-.25,1.29-.19a.5.5,0,0,0,.25-1Z" style="fill:#003058"/><path d="M19.42,18.33a.48.48,0,0,0,0-.12l-.23-2.75a.5.5,0,0,0-.49-.46l-.73,0a.47.47,0,0,0-.46.28l-1.94,4a.5.5,0,0,0,.9.43l.44-.92h1.55l.06.68a.5.5,0,0,0,1-.08l-.09-1A.46.46,0,0,0,19.42,18.33Zm-2.05-.5.85-1.77.15,1.77Z" style="fill:#003058"/></svg>