<svg id="8a121588-69ae-4b99-9feb-fa696764b246" data-name="Layer 1" xmlns="http://www.w3.org/2000/svg" viewBox="0 0 22 35"><title>icons</title><path d="M22,8a1.5,1.5,0,0,0-1.5-1.5H1.5A1.5,1.5,0,0,0,0,8v5a1.49,1.49,0,0,0,.39,1A1.49,1.49,0,0,0,0,15v5a1.49,1.49,0,0,0,.39,1A1.49,1.49,0,0,0,0,22v5a1.5,1.5,0,0,0,1.5,1.5h19A1.5,1.5,0,0,0,22,27V22a1.49,1.49,0,0,0-.39-1A1.49,1.49,0,0,0,22,20V15a1.49,1.49,0,0,0-.39-1A1.49,1.49,0,0,0,22,13ZM1,8a.5.5,0,0,1,.5-.5h19A.5.5,0,0,1,21,8v5a.5.5,0,0,1-.5.5H1.5A.5.5,0,0,1,1,13Zm20,7v5a.5.5,0,0,1-.5.5H1.5A.5.5,0,0,1,1,20V15a.5.5,0,0,1,.5-.5h19A.5.5,0,0,1,21,15Zm0,12a.5.5,0,0,1-.5.5H1.5A.5.5,0,0,1,1,27V22a.5.5,0,0,1,.5-.5h19a.5.5,0,0,1,.5.5Z" style="fill:#003058"/><path d="M8,12.5H18a.5.5,0,0,0,0-1H8a.5.5,0,0,0,0,1Z" style="fill:#003058"/><path d="M8,10.5H18a.5.5,0,0,0,0-1H8a.5.5,0,0,0,0,1Z" style="fill:#003058"/><path d="M4,12a1.5,1.5,0,1,0-1.5-1.5A1.5,1.5,0,0,0,4,12Zm0-2a.5.5,0,1,1-.5.5A.5.5,0,0,1,4,10Z" style="fill:#003058"/><path d="M8,19.5H18a.5.5,0,0,0,0-1H8a.5.5,0,0,0,0,1Z" style="fill:#003058"/><path d="M8,17.5H18a.5.5,0,0,0,0-1H8a.5.5,0,0,0,0,1Z" style="fill:#003058"/><path d="M4,19a1.5,1.5,0,1,0-1.5-1.5A1.5,1.5,0,0,0,4,19Zm0-2a.5.5,0,1,1-.5.5A.5.5,0,0,1,4,17Z" style="fill:#003058"/><path d="M18,25.5H8a.5.5,0,0,0,0,1H18a.5.5,0,0,0,0-1Z" style="fill:#003058"/><path d="M18,23.5H8a.5.5,0,0,0,0,1H18a.5.5,0,0,0,0-1Z" style="fill:#003058"/><path d="M4,23a1.5,1.5,0,1,0,1.5,1.5A1.5,1.5,0,0,0,4,23Zm0,2a.5.5,0,1,1,.5-.5A.5.5,0,0,1,4,25Z" style="fill:#003058"/></svg>