<svg id="16d1165b-5bdf-4274-beab-0671b75d66a7" data-name="Layer 1" xmlns="http://www.w3.org/2000/svg" viewBox="0 0 24 35"><title>icons</title><path d="M23.71,22c-2.63-2.25-3.63-5-4.51-7.41C18.17,11.76,17.27,9.3,14,9a5.27,5.27,0,0,0-5,3.31.5.5,0,0,0,.07.49.48.48,0,0,0,.46.19,3.91,3.91,0,0,1,3.19.75A4.44,4.44,0,0,1,14,17a4.73,4.73,0,0,1-3.6,4.83,4.39,4.39,0,0,1-5-1.58.52.52,0,0,0-.83-.06S2.73,22.5.61,22a.51.51,0,0,0-.42.1.5.5,0,0,0-.19.39v3a.5.5,0,0,0,.5.5h23a.5.5,0,0,0,.5-.5v-3A.5.5,0,0,0,23.71,22ZM15,17a5.43,5.43,0,0,0-1.59-4,4.46,4.46,0,0,0-3.05-1h0A4.3,4.3,0,0,1,14,10c2.6.24,3.31,2.21,4.31,5a18.24,18.24,0,0,0,4,7.05,4.07,4.07,0,0,1-2.31-1.76.53.53,0,0,0-.87,0A3.34,3.34,0,0,1,16.64,22,3.93,3.93,0,0,1,13.55,21,5.86,5.86,0,0,0,15,17ZM1,25V23.09A5.62,5.62,0,0,0,4.94,21.3a5.51,5.51,0,0,0,5.71,1.5,6.13,6.13,0,0,0,2.16-1.08,5,5,0,0,0,4,1.23,4.4,4.4,0,0,0,2.73-1.57,4.41,4.41,0,0,0,3.29,1.7l.2,0V25Z" style="fill:#003058"/></svg>