<svg id="f8be4e47-352b-4174-a969-ef0c9febd5a1" data-name="Layer 1" xmlns="http://www.w3.org/2000/svg" viewBox="0 0 21 35"><title>icons</title><path d="M.5,29.21a.5.5,0,0,1-.35-.85l5-5a.5.5,0,0,1,.71.71l-5,5A.5.5,0,0,1,.5,29.21Z" style="fill:#003058"/><path d="M5.5,29.29a.5.5,0,0,1-.35-.85l5-5a.5.5,0,0,1,.71.71l-5,5A.5.5,0,0,1,5.5,29.29Z" style="fill:#003058"/><path d="M10.5,29.29a.5.5,0,0,1-.35-.85l5-5a.5.5,0,0,1,.71.71l-5,5A.5.5,0,0,1,10.5,29.29Z" style="fill:#003058"/><path d="M16.5,21.71H5.5a5.5,5.5,0,0,1-.93-10.92A6,6,0,0,1,16,9.22a3.5,3.5,0,0,1,3.4,4.52,4.5,4.5,0,0,1-2.85,8Zm-6-15a5,5,0,0,0-5,4.57.5.5,0,0,1-.45.46,4.5,4.5,0,0,0,.43,9h11a3.5,3.5,0,0,0,2-6.39.5.5,0,0,1-.18-.61,2.5,2.5,0,0,0-2.6-3.47.5.5,0,0,1-.53-.32A5,5,0,0,0,10.5,6.71Z" style="fill:#003058"/></svg>