<svg id="a3f98e2f-0209-4988-af7f-9648a2e3f629" data-name="Layer 1" xmlns="http://www.w3.org/2000/svg" viewBox="0 0 24 35"><title>icons</title><path d="M20.93,9.51a.49.49,0,0,0-.16-.18A12,12,0,0,0,15.48,6h0a12.07,12.07,0,1,0,5.48,3.5Zm-1,.4a5.08,5.08,0,0,1-2,3.06A4.67,4.67,0,0,0,14.08,14a.59.59,0,0,0-.11.64.63.63,0,0,0,.41.3A5.6,5.6,0,0,1,15,16.62a.5.5,0,0,0,.13.23,1.61,1.61,0,0,0,1.63.27c.06.54-.7,1.38-1.44,2.16-.56.58-.83.87-.83,1.22a1.19,1.19,0,0,0,.53.87c.07.06.2.17.22.15a.43.43,0,0,1-.1.12,3.88,3.88,0,0,1-1.3.88.5.5,0,0,0-.34.47c0,1.31-.82,2-2.43,2A5.18,5.18,0,0,1,10,23a1.51,1.51,0,0,1,.2-.53,2.18,2.18,0,0,0,.3-1,3.26,3.26,0,0,0-1-1.71A1.94,1.94,0,0,0,9,18.41,2.88,2.88,0,0,0,6.74,18L6,18c-1,0-1-1.44-1-1.5S5,13.41,7.1,13C8.54,12.7,9,13,9,13a.5.5,0,0,0,.15.35c.89.89,2.25.58,3.34.33a5.43,5.43,0,0,1,1-.18.5.5,0,0,0,.5-.43c.19-1.33.28-3-.37-3.48a.8.8,0,0,0-.85,0,1,1,0,0,1-.93.09A.84.84,0,0,1,11.5,9c-.06-.64,1.95-1.52,3.84-1.93A11,11,0,0,1,19.95,9.92ZM12,28.5A11,11,0,1,1,13.25,6.58c-1.37.49-2.86,1.3-2.75,2.47a1.79,1.79,0,0,0,.86,1.47,1.93,1.93,0,0,0,1.7,0,7.4,7.4,0,0,1,0,2c-.25,0-.52.1-.8.17-.84.2-1.78.41-2.31,0a1.1,1.1,0,0,0-.35-.48A3.3,3.3,0,0,0,6.9,12C4,12.58,4,16.34,4,16.5c0,.86.42,2.5,2,2.5.27,0,.53,0,.79,0,.63,0,1.23-.07,1.48.17A1.2,1.2,0,0,1,8.5,20a.5.5,0,0,0,.15.35A3.82,3.82,0,0,1,9.5,21.5a1.51,1.51,0,0,1-.2.53A2.18,2.18,0,0,0,9,23c0,.51,1,3,2,3,2.09,0,3.34-1,3.49-2.67a5.12,5.12,0,0,0,1.37-1,1.13,1.13,0,0,0,.39-.83,1.29,1.29,0,0,0-.56-.9l-.13-.1c.12-.14.33-.37.5-.54.94-1,2.51-2.61,1.3-3.82a.5.5,0,0,0-.58-.09,1.39,1.39,0,0,1-.84.14,5.3,5.3,0,0,0-.73-1.77A3.84,3.84,0,0,1,17.88,14a.5.5,0,0,0,.34,0,5.47,5.47,0,0,0,2.49-3.13A11,11,0,0,1,12,28.5Z" style="fill:#003058"/></svg>