<svg id="5469e0c1-aabd-4d87-b69f-efc01d90aab8" data-name="Layer 1" xmlns="http://www.w3.org/2000/svg" viewBox="0 0 18 35"><title>icons</title><path d="M17.78,5.83a.5.5,0,0,0-.47,0l-11,4.5a.5.5,0,0,0-.31.46v11.5H3.5a3.5,3.5,0,0,0,0,7A3.59,3.59,0,0,0,7,25.75V14.59l10-4.09v7.76H14.5a3.5,3.5,0,1,0,0,7,3.59,3.59,0,0,0,3.5-3.5V6.25A.5.5,0,0,0,17.78,5.83ZM6,25.75a2.6,2.6,0,0,1-2.5,2.5,2.5,2.5,0,0,1,0-5H6ZM7,13.5V11.09L17,7V9.41Zm10,8.24a2.6,2.6,0,0,1-2.5,2.5,2.5,2.5,0,1,1,0-5H17Z" style="fill:#003058"/></svg>