<svg id="4218b9de-8fbf-43b2-880e-c446725b2db2" data-name="Layer 1" xmlns="http://www.w3.org/2000/svg" viewBox="0 0 24.5 35"><title>icons</title><path d="M10.72,29.5a10.5,10.5,0,0,1,0-21,.5.5,0,0,1,.5.5l0,9.5,9.5,0a.5.5,0,0,1,.5.5A10.51,10.51,0,0,1,10.72,29.5Zm-.45-20a9.5,9.5,0,1,0,10,10l-9.49,0a.5.5,0,0,1-.5-.5Z" style="fill:#003058"/><path d="M23.75,16.53l-10,0a.5.5,0,0,1-.5-.5l0-10a.5.5,0,0,1,.5-.5A10.51,10.51,0,0,1,24.25,16,.5.5,0,0,1,23.75,16.53Zm-9.5-1,9,0a9.51,9.51,0,0,0-9-9Z" style="fill:#003058"/></svg>