<svg id="2b55b5fd-5b5c-46b1-8df0-e7619d4ed2cc" data-name="Layer 1" xmlns="http://www.w3.org/2000/svg" xmlns:xlink="http://www.w3.org/1999/xlink" viewBox="0 0 222 190"><defs><clipPath id="9157ff21-ba76-49c2-925c-6709b0af40cc"><polygon points="102.34 135.99 108.99 132.13 115.36 135.8 108.71 139.67 102.34 135.99" style="fill:#b6e8fb"/></clipPath><clipPath id="6e33c126-e5f5-4ac2-91ed-b6b8dea3d576"><polygon points="114.7 129.4 121.35 125.54 127.73 129.22 121.08 133.09 114.7 129.4" style="fill:none"/></clipPath><clipPath id="2b6aa72b-bdbb-4f7c-a761-a4a972d94537"><polygon points="127.04 122.92 133.69 119.06 140.06 122.74 133.41 126.6 127.04 122.92" style="fill:none"/></clipPath></defs><title>OurOffering</title><line x1="45.98" y1="75.17" x2="142.98" y2="17.17" style="fill:none;stroke:#b6e8fb;stroke-miterlimit:10;stroke-width:2px"/><g style="isolation:isolate"><path d="M145.37,15.34a8.41,8.41,0,0,0-7.69,0c-2.12,1.23-2.11,3.22,0,4.45a8.43,8.43,0,0,0,7.7,0c2.12-1.23,2.11-3.22,0-4.45Z" style="fill:#b6e8fb"/></g><path d="M16.14,155.52v2.65H14.05v-2.65h-5V154.4l5.35-7.13h1.71V154h2v1.53Zm-2.09-5.46L11.12,154h2.93Z" style="fill:#666"/><path d="M23.68,158.47c-2.5,0-4.43-2.14-4.43-5.74S21.18,147,23.68,147s4.43,2.15,4.43,5.73S26.2,158.47,23.68,158.47Zm0-9.79c-1.4,0-2.25,1.38-2.25,4s.86,4.07,2.25,4.07,2.25-1.39,2.25-4.07S25.08,148.68,23.68,148.68Z" style="fill:#666"/><path d="M34,158.47c-2.51,0-4.43-2.14-4.43-5.74S31.47,147,34,147s4.43,2.15,4.43,5.73S36.5,158.47,34,158.47Zm0-9.79c-1.41,0-2.26,1.38-2.26,4s.87,4.07,2.26,4.07,2.25-1.39,2.25-4.07S35.38,148.68,34,148.68Z" style="fill:#666"/><path d="M52.35,148.36H45.3a.36.36,0,0,1-.27.11c0,.91-.08,1.91-.18,2.9h5.56l.56.07a1.73,1.73,0,0,1,0,.32c-.25,4.75-.5,6.47-1.06,7.06-.36.41-.73.51-1.82.51-.53,0-1.21,0-1.88-.08a2.27,2.27,0,0,0-.33-.93c1.1.09,2.17.09,2.61.09a.83.83,0,0,0,.57-.16c.43-.41.68-2,.89-5.94h-5.2c-.4,2.77-1.45,5.53-4.41,7.11a3.19,3.19,0,0,0-.68-.74c4.11-2.09,4.33-6.61,4.41-10.31H39.91v-.94H52.35Z" style="fill:#666"/><path d="M66.58,152.76H61.39a15.16,15.16,0,0,0,5.33,4.93,3.46,3.46,0,0,0-.72.81,17.3,17.3,0,0,1-5.4-5.32v6.18h-1v-6.15a17.21,17.21,0,0,1-5.31,5.42,6.05,6.05,0,0,0-.72-.8,15,15,0,0,0,5.26-5.07H53.72v-1h5.89v-5.43l1.27.07c0,.11-.08.18-.28.19v5.17h6Zm-11-5.58a13.52,13.52,0,0,1,2,3.34l-.93.42a13.09,13.09,0,0,0-2-3.38Zm10.26.4a.38.38,0,0,1-.33.12A23.62,23.62,0,0,1,63.37,151l-.81-.4A20.29,20.29,0,0,0,64.65,147Z" style="fill:#666"/><path d="M76.4,154.2a50,50,0,0,0-4.92-2.28v7h-1V146.74l1.41.08c0,.16-.12.25-.36.29v4.12l.21-.31A50.57,50.57,0,0,1,77,153.26Zm-1.48-6.59a12.06,12.06,0,0,1,1.94,2l-.53.44a12.21,12.21,0,0,0-1.91-2Zm1.88-1.21a11.82,11.82,0,0,1,1.92,2l-.5.43a13.63,13.63,0,0,0-1.92-2Z" style="fill:#666"/><path d="M83.45,148.94c0,.12-.14.21-.32.23-.09,3.77-.4,7.2-2.55,9.71a7.55,7.55,0,0,0-.84-.53c2.08-2.27,2.34-5.77,2.38-9.54ZM87.08,157a9.19,9.19,0,0,0,4.66-5.63,5.3,5.3,0,0,0,.87.55,10.41,10.41,0,0,1-5.72,6.33.58.58,0,0,1-.23.28l-.73-.92.15-.21V147.11l1.3.07a.31.31,0,0,1-.3.27Z" style="fill:#666"/><path d="M23.1,168a.5.5,0,0,1-.25.19,17,17,0,0,1-3.35,5.22,7.87,7.87,0,0,0-1-.58,11.59,11.59,0,0,0,2.74-4l-6.13,1.6v4.15c0,1.56.94,2.09,2.22,2.09H20a23.37,23.37,0,0,0,2.39-.17c0,.35,0,.78,0,1.12-.64.08-1.76.13-2.37.13H17.36c-2,0-3.36-1-3.36-3.16v-3.87l-4,1-.27-1.07L14,169.6v-4.86l1.55.06c0,.19-.18.29-.4.32v4.18l6.77-1.74.18-.13Z" style="fill:#666"/><path d="M32.78,173.11l.58,5-1.15.12-.56-5-6,.77L25.5,173l6-.77-.41-3.6-5,.65L26,168.18l5-.64-.35-3.17,1.57-.06c0,.16-.15.28-.37.35l.29,2.72,4.86-.64.13,1.09-4.87.62.42,3.59,6-.76.14,1.06Z" style="fill:#666"/><path d="M51.87,176.07V177H41v-.93h6.51c.26-1.62.69-4.8.85-6.43h-6.1v-.93h6.42l.19-.07.79.39a.26.26,0,0,1-.2.14c-.21,1.68-.72,5.19-1,6.9Z" style="fill:#666"/><path d="M55.39,173.16v-7.78l1.52.09c0,.15-.13.26-.38.29v7.4Zm8.91-8.41c0,.16-.12.24-.38.28v5.09c0,3.36-1.15,6.43-5.75,8.21a4.82,4.82,0,0,0-.83-.87c4.44-1.65,5.43-4.38,5.43-7.34v-5.46Z" style="fill:#666"/><path d="M80.4,170.6H75l.27.08a.35.35,0,0,1-.32.19c-.43,3-1.52,5.63-4.94,7.31a11.63,11.63,0,0,0-.87-.8c3.33-1.6,4.26-3.84,4.63-6.78H67.53v-1.08H80.4Zm-1.58-4.52H69V165h9.83Z" style="fill:#666"/><path d="M92.21,168.05a.33.33,0,0,1-.27.11.91.91,0,0,1-.23,0,29.48,29.48,0,0,1-3.52,3,1.42,1.42,0,0,1,.35.15.44.44,0,0,1-.27.17v7h-1v-6.68A40.22,40.22,0,0,1,82,174.74a5.6,5.6,0,0,0-.58-.75,31.7,31.7,0,0,0,9.65-6.72Z" style="fill:#666"/><path d="M96,169.56a19.45,19.45,0,0,1-1.83,2.62,7.16,7.16,0,0,0-.56-1A21.47,21.47,0,0,0,97.45,164l1.27.42c0,.11-.16.18-.35.16A31.41,31.41,0,0,1,97,167.7l.37.11c0,.1-.11.18-.32.21v10.72H96Zm10.8,3.34.72.34c0,.08-.09.13-.14.16a8,8,0,0,1-2.77,3.17,15.62,15.62,0,0,0,4.47,1.23,4.09,4.09,0,0,0-.66.94,14.58,14.58,0,0,1-4.8-1.57,16.94,16.94,0,0,1-4.92,1.62,4.24,4.24,0,0,0-.52-1,16.18,16.18,0,0,0,4.46-1.26,8.25,8.25,0,0,1-2.32-2.47l.69-.25H99.63V173h7Zm1.86.5h-1v-1.73h-8.3v1.73h-1v-2.61h10.29Zm-1-8.89v5.17H99.2v-.88h7.38v-1.29H99.77v-.84h6.81v-1.28H99.44v-.88Zm-6.29,9.34a6.7,6.7,0,0,0,2.29,2.19,7,7,0,0,0,2.33-2.19Z" style="fill:#666"/><path d="M118,172.13h6.67v.93H110.33v-.93h6.56v-1.29H112V170h4.93V168.8h-4.37v-.89h4.37v-1.24l1.4.1c0,.11-.1.19-.32.22v.92h4.49v.89H118V170h5.14v.87H118Zm-6.12-5.63v1.81h-1v-2.79h6.08v-1.68l1.42.08c0,.11-.11.19-.32.23v1.37h6.23v2.79h-1.09V166.5Zm.79,12.24V174.1h9.82v4.58h-1.08v-.5h-7.7v.56Zm8.74-3.74h-7.7v2.27h7.7Z" style="fill:#666"/><path d="M134.4,166.77a.43.43,0,0,1-.4.26c-.58,5-2.24,9.31-4.9,9.31-1.34,0-2.56-1.34-2.56-3.87a7,7,0,0,1,7.2-7.06c4.63,0,6.63,2.93,6.63,6.05,0,3.81-2.21,5.65-6.08,6.55a7.15,7.15,0,0,0-.67-1c3.68-.7,5.57-2.5,5.57-5.52,0-2.64-1.7-5-5.45-5a3.75,3.75,0,0,0-.48,0Zm-1.54-.21a5.9,5.9,0,0,0-5.23,5.88c0,1.71.73,2.78,1.5,2.78C131.07,175.22,132.46,171,132.86,166.56Z" style="fill:#666"/><path d="M156.74,171.86v1.07H150v5.8h-1.1v-5.8h-6.66v-1.07h6.66V166h-5.81V165h12.76V166H150v5.83Zm-11-.9a15.86,15.86,0,0,0-1.53-3.81l1-.3a13.6,13.6,0,0,1,1.59,3.76Zm9.26-3.74c-.05.11-.16.14-.36.16a28.69,28.69,0,0,1-1.9,3.7l-.93-.37a24.35,24.35,0,0,0,1.84-4Z" style="fill:#666"/><path d="M161.36,168.69v5l2.13-.82.19.94c-1.83.77-3.76,1.59-5,2.07a.31.31,0,0,1-.19.27l-.54-1.22c.65-.22,1.47-.53,2.37-.86v-5.38h-2.1v-1h2.1v-3.83l1.36.08c0,.11-.1.19-.32.23v3.52h2v1Zm10.69-2.13.59,0c0,.12,0,.26,0,.37-.25,7.75-.48,10.34-1.15,11.13-.43.57-.93.65-2,.65-.53,0-1.19,0-1.83,0a2.66,2.66,0,0,0-.35-1.11c1.1.11,2.13.11,2.53.11a.8.8,0,0,0,.69-.25c.56-.58.81-3.09,1-9.86h-6.16a14.28,14.28,0,0,1-1.86,2.86,5.72,5.72,0,0,0-.85-.64,15.69,15.69,0,0,0,3-5.95l1.32.37c0,.11-.16.17-.35.17a19.38,19.38,0,0,1-.8,2.16Zm-8.28,8.57c1.48-.5,3.81-1.35,6-2.18l.19.93c-2,.8-4.11,1.63-5.44,2.13a.34.34,0,0,1-.17.27Zm.72-5.29h5.14v1h-5.14Z" style="fill:#666"/><path d="M186.26,166.55v10.83h-1.17v-.88H175v-1.07h10.09v-7.81h-9.93v-1.07Z" style="fill:#666"/><path d="M200.19,166a.32.32,0,0,1-.21.18,24.56,24.56,0,0,1-3.2,5.51,57.87,57.87,0,0,1,5.86,5.42l-1,.85a52.66,52.66,0,0,0-5.61-5.38,25,25,0,0,1-6.17,5.38,5.56,5.56,0,0,0-.83-.86,22.93,22.93,0,0,0,9.38-10.46h-7.86v-1.08h8.49l.2-.08Z" style="fill:#666"/><path d="M213.82,172.82a58.4,58.4,0,0,0-5.61-2.61v8H207V164.31l1.61.09c0,.18-.14.29-.41.34v4.67l.24-.34a55.76,55.76,0,0,1,6,2.68Z" style="fill:#666"/><g style="isolation:isolate"><polygon points="102.34 135.99 108.99 132.13 115.36 135.8 108.71 139.67 102.34 135.99" style="fill:#b6e8fb"/><g style="clip-path:url(#9157ff21-ba76-49c2-925c-6709b0af40cc)"><polygon points="115.36 135.8 108.99 132.13 102.34 135.99 108.71 139.67 115.36 135.8 115.36 135.8" style="fill:#b6e8fb"/></g></g><g style="isolation:isolate"><g style="clip-path:url(#6e33c126-e5f5-4ac2-91ed-b6b8dea3d576)"><polygon points="127.73 129.22 121.35 125.54 114.7 129.4 121.08 133.08 127.73 129.22 127.73 129.22" style="fill:#00a7e1"/></g></g><g style="isolation:isolate"><g style="clip-path:url(#2b6aa72b-bdbb-4f7c-a761-a4a972d94537)"><polygon points="140.06 122.74 133.69 119.06 127.04 122.92 133.41 126.6 140.06 122.74 140.06 122.74" style="fill:#b6e8fb"/></g></g><polygon points="27.71 130.17 104.78 87.47 104.78 19.3 27.71 62 27.71 130.17" style="fill:#e9e9e9"/><polygon points="27.71 50.86 104.78 8.17 104.78 17.35 27.71 60.04 27.71 50.86" style="fill:#e9e9e9"/><polygon points="45.49 113.72 87 90.73 87 90.73 87 76.41 45.49 99.4 45.49 113.72" style="fill:#b03478"/><polygon points="33.51 85.17 84.71 56.8 84.71 71.12 33.51 99.49 33.51 85.17" style="fill:#bebebe"/><polygon points="33.51 66.82 84.71 38.45 84.71 52.77 84.71 52.77 33.51 81.14 33.51 66.82" style="fill:#bebebe"/><path d="M89.6,61.25v5.31c0,.57.41.79.92.51l6-3.32a1.94,1.94,0,0,0,.92-1.53V56.9c0-.41-.23-.65-.55-.63h0V54.63c0-2.07-1.51-2.9-3.37-1.87a7.1,7.1,0,0,0-3.37,5.6V60h0A2,2,0,0,0,89.6,61.25Zm3.48.81c-.41,0-.71-.25-.71-.78a2.43,2.43,0,0,1,1.15-1.92c.64-.35,1.15-.06,1.15.64A2.41,2.41,0,0,1,94,61.58l.51,2-1.88,1Zm-1.5-4.49a4.07,4.07,0,0,1,1.94-3.22c1.07-.6,1.94-.12,1.94,1.07V57l-3.88,2.15Z" style="fill:#00a7e1"/><path d="M92,41.8c-1.18-.07-1.91-1.17-1.56-3a7,7,0,0,1,2.32-3.84c2.08-1.68,3.92-1,3.92,1.24a6.5,6.5,0,0,1-1.65,4c1.72-.48,3.16,0,3.76,1.18a3,3,0,0,1-1,3.41L89.3,49.39c-1,.56-1.57-.73-1-2.25A11.59,11.59,0,0,1,92,41.8Z" style="fill:#00a7e1"/><path d="M96.76,17.2c0,1.41,1,2,2.31,1.27a4.84,4.84,0,0,0,2.3-3.82c0-1.41-1-2-2.3-1.28A4.86,4.86,0,0,0,96.76,17.2Z" style="fill:#003058"/><path d="M90.47,20.68c0,1.41,1,2,2.3,1.28a4.84,4.84,0,0,0,2.3-3.83c0-1.41-1-2-2.3-1.27A4.83,4.83,0,0,0,90.47,20.68Z" style="fill:#00a7e1"/><path d="M84.18,24.17c0,1.41,1,2,2.3,1.28a4.86,4.86,0,0,0,2.3-3.83c0-1.41-1-2-2.3-1.28A4.86,4.86,0,0,0,84.18,24.17Z" style="fill:#b03478"/><path d="M90.77,87.67l25.7-14.84a2.8,2.8,0,0,1,2.8-.28l7.33,4.23a2.78,2.78,0,0,0-2.79.28L98.1,91.9a7.89,7.89,0,0,0-2.6,2.66l-7.33-4.24A7.86,7.86,0,0,1,90.77,87.67Z" style="fill:#003058"/><path d="M95.5,94.56a8.18,8.18,0,0,0-1.36,4.2v28.17a2.77,2.77,0,0,0,1.16,2.56L88,125.26a2.77,2.77,0,0,1-1.16-2.56V94.53a8.24,8.24,0,0,1,1.36-4.21Z" style="fill:#003058"/><path d="M98.1,91.9l25.71-14.84c2.18-1.26,4-.24,4,2.29v28.17a8.77,8.77,0,0,1-4,6.86L98.1,129.22c-2.19,1.26-4,.24-4-2.29V98.76A8.74,8.74,0,0,1,98.1,91.9Z" style="fill:#00a7e1"/><ellipse cx="110.95" cy="103.14" rx="14.19" ry="8.2" transform="translate(-33.85 147.66) rotate(-60)" style="fill:#00a7e1"/><path d="M110.21,114.23c5.54-3.2,10-11,10-17.38,0-2.8-.86-4.87-2.29-6,1.87,1,3,3.29,3,6.54,0,6.41-4.49,14.19-10,17.39-3.12,1.8-5.91,1.77-7.75.25C105,116,107.48,115.81,110.21,114.23Z" style="fill:#00a7e1"/><path d="M106.8,101.22A9.17,9.17,0,0,1,111,94c2.3-1.33,4.16-.25,4.16,2.4a9.25,9.25,0,0,1-2.59,5.93l1.84,7.52-6.81,3.93,1.83-9.64C107.87,104.33,106.8,103.23,106.8,101.22Z" style="fill:#003058"/><path d="M96.51,90.22a4.67,4.67,0,0,0,2.24-.54,1.69,1.69,0,0,0,0-3.14,4.9,4.9,0,0,0-4.47,0,1.69,1.69,0,0,0,0,3.14A4.63,4.63,0,0,0,96.51,90.22Z" style="fill:#b6e8fb"/><path d="M117.41,78.9a4.53,4.53,0,0,0,2.24-.54,1.87,1.87,0,0,0,1.07-1.57,1.84,1.84,0,0,0-1.07-1.57,4.84,4.84,0,0,0-4.48,0,1.84,1.84,0,0,0-1.07,1.57,1.87,1.87,0,0,0,1.07,1.57A4.55,4.55,0,0,0,117.41,78.9Z" style="fill:#b6e8fb"/><path d="M94.52,87a1.21,1.21,0,0,0,0,2.3,4.45,4.45,0,0,0,4,0,1.21,1.21,0,0,0,0-2.3A4.39,4.39,0,0,0,94.52,87Z" style="fill:#b3b3b3"/><path d="M115.41,75.63a1.22,1.22,0,0,0,0,2.31,4.41,4.41,0,0,0,4,0,1.22,1.22,0,0,0,0-2.31A4.41,4.41,0,0,0,115.41,75.63Z" style="fill:#b3b3b3"/><path d="M117.79,77.19l-3.19-.4V68.4c0-4.86-3.42-6.84-7.63-4.41a16.9,16.9,0,0,0-7.64,13.23V88.11l-4-.69c-.53.3-1.15.19-1.6.69V80.47c0-8.47,5.94-18.76,13.28-23h0c7.33-4.23,13.27-.8,13.27,7.66V76.79A7.84,7.84,0,0,0,117.79,77.19Z" style="fill:#b3b3b3"/><path d="M94.52,87a1.21,1.21,0,0,0,0,2.3,4.45,4.45,0,0,0,4,0,1.21,1.21,0,0,0,0-2.3A4.39,4.39,0,0,0,94.52,87Z" style="fill:#b3b3b3"/><path d="M115.41,75.63a1.22,1.22,0,0,0,0,2.31,4.41,4.41,0,0,0,4,0,1.22,1.22,0,0,0,0-2.31A4.41,4.41,0,0,0,115.41,75.63Z" style="fill:#b3b3b3"/><path d="M117.79,77.19l-3.19-.4V68.4c0-4.86-3.42-6.84-7.63-4.41a16.9,16.9,0,0,0-7.64,13.23V88.11l-4-.69c-.53.3-1.15.19-1.6.69V80.47c0-8.47,5.94-18.76,13.28-23h0c7.33-4.23,13.27-.8,13.27,7.66V76.79A7.84,7.84,0,0,0,117.79,77.19Z" style="fill:#b3b3b3"/><path d="M117.39,71.83v6.59a4.11,4.11,0,0,1-2-.48,1.33,1.33,0,0,1-.81-1.25V68.4c0-3.43-1.7-5.42-4.19-5.44C114.48,62.26,117.39,65.59,117.39,71.83Z" style="fill:#949494"/><path d="M112.8,97.91a2.49,2.49,0,0,0-.4-1.45c.89.08,1.49.82,1.49,2.08a6.53,6.53,0,0,1-1.83,4.19h0L111,102.1A6.53,6.53,0,0,0,112.8,97.91Z" style="fill:#003058"/><polygon points="108.81 109.41 112.27 107.42 113.36 108.05 108.55 110.83 108.81 109.41" style="fill:#003058"/><polygon points="112.27 107.42 110.97 102.1 110.97 102.1 112.06 102.73 113.36 108.05 113.36 108.05 112.27 107.42 112.27 107.42" style="fill:#003058"/></svg>