<svg id="e90e3896-fbb7-4a39-b8e1-8e8455f4f054" data-name="Layer 1" xmlns="http://www.w3.org/2000/svg" xmlns:xlink="http://www.w3.org/1999/xlink" viewBox="0 0 615.99 113.37"><defs><radialGradient id="c18e2b31-090a-4691-b1f7-d7f34798ecf7" cx="45.38" cy="-8.72" r="185.88" gradientUnits="userSpaceOnUse"><stop offset="0" stop-color="#ec202b"/><stop offset="0.15" stop-color="#e2202a"/><stop offset="0.4" stop-color="#c51e26"/><stop offset="0.73" stop-color="#981c20"/><stop offset="1" stop-color="#6d1a1b"/></radialGradient><linearGradient id="a83fb1ea-e1e0-4445-b09a-167f1806bbfe" x1="58.32" y1="20.06" x2="58.32" y2="92.59" gradientUnits="userSpaceOnUse"><stop offset="0.14" stop-color="#fff"/><stop offset="1" stop-color="#eaecea"/></linearGradient></defs><title>advertising_icon</title><path d="M150.81,63.44l-4,11.18c-.1.2-.15.26-.41.26h-2.76c-.25,0-.31-.1-.25-.36l11.39-31.46a4.36,4.36,0,0,0,.31-1.79.24.24,0,0,1,.26-.26h4.09c.2,0,.25,0,.31.2l12.1,33.3c.05.26,0,.36-.2.36h-3.12c-.15,0-.25-.05-.36-.26l-4-11.18Zm12.36-3.17c-1.12-3.32-4.7-13.07-5.67-16.5h-.05c-.92,3.27-3.52,10.42-5.67,16.5Z" transform="translate(-0.33 -0.12)"/><path d="M171.85,62.72c0-7.51,5.62-13,13.64-13a14.37,14.37,0,0,1,3.68.36V38.41c0-.2.1-.31.25-.31h2.91c.26,0,.26.1.26.31V71.15c0,.56.05,1.28.1,2,0,.2,0,.26-.2.36a18.29,18.29,0,0,1-8.17,1.84C177.26,75.39,171.85,71.1,171.85,62.72Zm17.31-9.4a10,10,0,0,0-3.78-.56c-6.33,0-10,4.34-10,9.81,0,7.1,4.55,9.75,9.24,9.75a12.31,12.31,0,0,0,4.55-.77Z" transform="translate(-0.33 -0.12)"/><path d="M219.34,62.52c0,7.66-4.65,12.87-11.39,12.87-8,0-11.49-6.69-11.49-12.82,0-7.25,4.6-12.82,11.49-12.82S219.34,55.06,219.34,62.52Zm-19.41,0c0,5.41,2.91,9.91,8.17,9.91,3.78,0,7.76-3,7.76-9.76,0-5-2.35-9.86-8.07-9.86C203.1,52.76,199.94,56.69,199.94,62.47Z" transform="translate(-0.33 -0.12)"/><path d="M226.49,38.1c.2,0,.31,0,.31.31V50.87a14.37,14.37,0,0,1,5.87-1.12c6.95,0,11.49,5,11.49,11.85,0,9.09-6.84,13.79-13.84,13.79a19.8,19.8,0,0,1-6.69-1,.38.38,0,0,1-.25-.41V38.41c0-.2.05-.31.25-.31Zm5.67,14.66a12.83,12.83,0,0,0-5.36,1V71.91a13.12,13.12,0,0,0,3.78.46c5.21,0,10.06-3.52,10.06-10.47C240.64,56.49,237.42,52.76,232.16,52.76Z" transform="translate(-0.33 -0.12)"/><path d="M249.78,62.67c-.15,5.41,2.86,9.6,8.89,9.6A13.86,13.86,0,0,0,265,70.89c.15-.1.26,0,.26.2v2.35c0,.26-.1.36-.26.41a13.92,13.92,0,0,1-7,1.53c-8.63,0-11.75-6.44-11.75-12.62,0-7.2,4.14-13,11-13,7.2,0,9.7,5.87,9.7,10a12,12,0,0,1-.15,2.4c0,.2-.15.31-.36.36-.77.1-3.11.15-5.26.15ZM260.15,60a23.7,23.7,0,0,0,3.52-.1c0-.15.05-.46.05-.61,0-2-1.28-6.64-6.54-6.64-4.55,0-6.84,3.57-7.35,7.35Z" transform="translate(-0.33 -0.12)"/><path d="M285.36,63.44l-4,11.18c-.1.2-.15.26-.41.26h-2.76c-.25,0-.31-.1-.25-.36l11.39-31.46a4.36,4.36,0,0,0,.31-1.79.24.24,0,0,1,.26-.26H294c.2,0,.25,0,.31.2l12.1,33.3c.05.26,0,.36-.2.36h-3.12c-.15,0-.25-.05-.36-.26l-4-11.18Zm12.36-3.17c-1.12-3.32-4.7-13.07-5.67-16.5H292c-.92,3.27-3.52,10.42-5.67,16.5Z" transform="translate(-0.33 -0.12)"/><path d="M307.61,62.72c0-7.51,5.62-13,13.64-13a14.37,14.37,0,0,1,3.68.36V38.41c0-.2.1-.31.25-.31h2.91c.26,0,.26.1.26.31V71.15c0,.56.05,1.28.1,2,0,.2,0,.26-.2.36a18.29,18.29,0,0,1-8.17,1.84C313,75.39,307.61,71.1,307.61,62.72Zm17.31-9.4a10,10,0,0,0-3.78-.56c-6.33,0-10,4.34-10,9.81,0,7.1,4.55,9.75,9.24,9.75a12.31,12.31,0,0,0,4.55-.77Z" transform="translate(-0.33 -0.12)"/><path d="M340.95,74.88c-.25,0-.36-.1-.41-.26-.82-2.35-7.66-21.35-8.68-24.11-.05-.15,0-.31.2-.31h3.12a.34.34,0,0,1,.36.26c4.6,13.38,6.64,19.2,7.25,21.3h.05c.66-2.09,2.71-7.76,7.51-21.3.1-.21.15-.26.36-.26h2.81c.15,0,.26.15.2.36-1.28,3.37-8.07,21.71-8.94,24.06a.45.45,0,0,1-.41.26Z" transform="translate(-0.33 -0.12)"/><path d="M358.19,62.67c-.15,5.41,2.86,9.6,8.89,9.6a13.86,13.86,0,0,0,6.38-1.38c.15-.1.26,0,.26.2v2.35c0,.26-.1.36-.26.41a13.92,13.92,0,0,1-7,1.53c-8.63,0-11.75-6.44-11.75-12.62,0-7.2,4.14-13,11-13,7.2,0,9.7,5.87,9.7,10a12,12,0,0,1-.15,2.4c0,.2-.15.31-.36.36-.77.1-3.11.15-5.26.15ZM368.56,60a23.7,23.7,0,0,0,3.52-.1c0-.15.05-.46.05-.61,0-2-1.28-6.64-6.54-6.64-4.55,0-6.84,3.57-7.35,7.35Z" transform="translate(-0.33 -0.12)"/><path d="M382.4,50.21c.26,0,.31.1.41.31a32,32,0,0,1,.36,3.73,10.65,10.65,0,0,1,8.27-4.49c.2,0,.31,0,.31.25v3c0,.2-.05.25-.31.25a9.89,9.89,0,0,0-8.12,4.14l-.05,17.16c0,.25-.05.31-.26.31H380.1c-.25,0-.25-.1-.25-.31V56.9c0-2.09-.15-5.06-.31-6.39-.05-.2.05-.31.2-.31Z" transform="translate(-0.33 -0.12)"/><path d="M406.71,74.21c0,.21,0,.36-.2.41a8.36,8.36,0,0,1-3.68.77c-3.52,0-5.67-1.69-5.67-6.49V53.22h-3.63c-.26,0-.31-.15-.31-.36V50.51c0-.2.05-.31.31-.31h3.63a56.19,56.19,0,0,1,.46-6.64c.05-.21.1-.31.25-.36l2.81-.46c.15,0,.31,0,.31.15-.2,1.84-.36,4.8-.36,7.3h5.57c.26,0,.31.1.31.36V53c0,.2-.1.26-.31.26h-5.57V68.6c0,2.4.92,3.78,3.22,3.78a6.35,6.35,0,0,0,2.6-.51c.15,0,.26,0,.26.2Z" transform="translate(-0.33 -0.12)"/><path d="M409.74,42.5a2.1,2.1,0,0,1,2.2-2.25,2.06,2.06,0,0,1,2.14,2.25,2.12,2.12,0,0,1-2.19,2.2A2.05,2.05,0,0,1,409.74,42.5Zm.46,8c0-.2,0-.31.25-.31h2.86c.2,0,.31,0,.31.31V74.57c0,.2,0,.31-.31.31h-2.76c-.31,0-.36-.1-.36-.36Z" transform="translate(-0.33 -0.12)"/><path d="M426.38,52.66c-3.63,0-4.9,1.84-4.9,3.52s1,3,5.11,4.6c4.85,1.89,7,3.88,7,7.56,0,4.6-3.88,7-8.73,7a14,14,0,0,1-6.69-1.48c-.15-.15-.26-.2-.26-.46V70.64c0-.26.15-.31.31-.2a11.84,11.84,0,0,0,6.74,2c3.47,0,5.26-1.63,5.26-3.78s-1.28-3.32-5-4.85c-4.85-1.89-7-3.88-7-7.41,0-3.68,3-6.64,8.27-6.64a13,13,0,0,1,5.77,1.07.48.48,0,0,1,.2.46v2.6c0,.26-.1.36-.31.21A11.75,11.75,0,0,0,426.38,52.66Z" transform="translate(-0.33 -0.12)"/><path d="M437.37,42.5a2.1,2.1,0,0,1,2.2-2.25,2.06,2.06,0,0,1,2.14,2.25,2.12,2.12,0,0,1-2.19,2.2A2.05,2.05,0,0,1,437.37,42.5Zm.46,8c0-.2,0-.31.25-.31h2.86c.2,0,.31,0,.31.31V74.57c0,.2,0,.31-.31.31h-2.76c-.31,0-.36-.1-.36-.36Z" transform="translate(-0.33 -0.12)"/><path d="M447.55,56c0-1.79-.15-4.7-.2-5.47,0-.2,0-.31.31-.31h2.5a.36.36,0,0,1,.41.31,20.39,20.39,0,0,1,.26,2.76,10.94,10.94,0,0,1,8-3.52c3.52,0,8.22,1.63,8.22,9.7V74.57c0,.2-.1.31-.36.31h-2.76c-.26,0-.36-.1-.36-.36V59.76c0-4-1.79-6.95-5.62-6.95a8.73,8.73,0,0,0-7,3.58V74.57c0,.2-.05.31-.31.31h-2.81c-.25,0-.31-.1-.31-.31Z" transform="translate(-0.33 -0.12)"/><path d="M483.94,71.15c6.08.36,9.86,2.4,9.86,7.1,0,5-4.75,9-12.05,9s-11-3.93-11-7.76c0-1.79,1.48-4.14,5.06-7.15a6.31,6.31,0,0,1-1.23-3.78,6.41,6.41,0,0,1,.82-3.22A8,8,0,0,1,472,58.38c0-4.75,3.42-8.63,9.24-8.63a15.66,15.66,0,0,1,3.57.36,3.85,3.85,0,0,0,1,.1h7.3c.21,0,.26.1.26.31v2.35c0,.2,0,.31-.31.31-1.48,0-3.78,0-5.06-.15a7.3,7.3,0,0,1,2.09,5.41c0,5.62-4.09,8.48-9,8.48a12,12,0,0,1-3.06-.41,4.22,4.22,0,0,0-.36,2.09,4.47,4.47,0,0,0,1,2.3ZM478,74c-2.4,1.63-3.93,4-3.93,5.31,0,2.55,3,5.21,7.92,5.21,5.92,0,8.63-3,8.63-5.82,0-3.32-3.47-4.19-7.35-4.39Zm-2.61-15.63c0,3.42,2,5.87,5.77,5.87,3.47,0,5.67-2.1,5.67-5.82,0-3.17-1.74-6-5.62-6A5.58,5.58,0,0,0,475.36,58.33Z" transform="translate(-0.33 -0.12)"/><path d="M531.38,74a.43.43,0,0,1-.26.46,17.71,17.71,0,0,1-6.79,1c-8.17,0-17.21-4.7-17.21-17.57,0-10.16,7.1-17.31,17.82-17.31,3.42,0,5.42.41,6.49.92.15.05.2.21.2.41v2.76c0,.31-.15.31-.31.2a14.76,14.76,0,0,0-6.54-1.17c-8.33,0-14.15,5.52-14.15,14.1,0,11.49,8.68,14.45,14,14.45a17.56,17.56,0,0,0,6.44-.87c.15-.1.31-.1.31.15Z" transform="translate(-0.33 -0.12)"/><path d="M535.66,38.41c0-.26.1-.31.36-.31h2.81c.2,0,.26.15.26.31V69.87c0,2.09.87,2.55,2.09,2.55a4.5,4.5,0,0,0,1.07-.15c.2,0,.2,0,.2.25v2.15c0,.26,0,.31-.2.41a7.08,7.08,0,0,1-2.15.31c-2.19,0-4.44-.77-4.44-5.26Z" transform="translate(-0.33 -0.12)"/><path d="M567.11,62.52c0,7.66-4.65,12.87-11.39,12.87-8,0-11.49-6.69-11.49-12.82,0-7.25,4.6-12.82,11.49-12.82S567.11,55.06,567.11,62.52Zm-19.41,0c0,5.41,2.91,9.91,8.17,9.91,3.78,0,7.76-3,7.76-9.76,0-5-2.35-9.86-8.07-9.86C550.87,52.76,547.7,56.69,547.7,62.47Z" transform="translate(-0.33 -0.12)"/><path d="M590.86,69.51a34,34,0,0,0,.26,5.06c.05.25,0,.31-.26.31H588.2a.28.28,0,0,1-.31-.26,14,14,0,0,1-.31-2.3,10.13,10.13,0,0,1-7.51,3.07c-4.14,0-8.37-2-8.37-9.5V50.51c0-.26,0-.31.31-.31h2.86c.21,0,.26.1.26.31V65.43c0,4.29,2,6.84,5.82,6.84a8.09,8.09,0,0,0,6.44-2.91V50.51c0-.2.1-.31.36-.31h2.86c.2,0,.25.1.25.31Z" transform="translate(-0.33 -0.12)"/><path d="M595.48,62.72c0-7.51,5.62-13,13.64-13a14.37,14.37,0,0,1,3.68.36V38.41c0-.2.1-.31.26-.31H616c.26,0,.26.1.26.31V71.15c0,.56,0,1.28.1,2,0,.2,0,.26-.21.36a18.27,18.27,0,0,1-8.17,1.84C600.89,75.39,595.48,71.1,595.48,62.72Zm17.31-9.4a10,10,0,0,0-3.78-.56c-6.33,0-10,4.34-10,9.81,0,7.1,4.54,9.75,9.24,9.75a12.31,12.31,0,0,0,4.55-.77Z" transform="translate(-0.33 -0.12)"/><rect id="d7fd36cd-c875-46c8-9a04-4b000a4fcd53" data-name="tile" width="116.28" height="113.37" style="fill:url(#c18e2b31-090a-4691-b1f7-d7f34798ecf7)"/><path d="M100.13,57c0-20.37-14.66-37-32.68-37-17.6,0-32,15.81-32.65,35.53H16.51c0,20.37,14.66,37,32.68,37,17.6,0,32-15.82,32.65-35.54ZM60.46,57c-2.52,6-9.12,18.27-20.52,18.27C29.89,75.32,23,68,22.63,57ZM49.18,91.14c-13.1,0-24.33-9.21-29-22.24A21.46,21.46,0,0,0,39.94,80.65c10.91,0,20.72-8.8,26.24-23.55l0-.05H80.38C79.73,76,66,91.14,49.18,91.14ZM66.77,55.6c3.75-9.35,7.82-13,14.24-13,6.93,0,12.41,5.67,12.74,13ZM81,37.23c-11.53,0-16.49,9.1-19.82,18l-.14.36H36.27c.65-18.92,14.39-34.08,31.19-34.08,15,0,27.55,12.08,30.54,28.13A17.94,17.94,0,0,0,81,37.23Z" transform="translate(-0.33 -0.12)" style="fill:url(#a83fb1ea-e1e0-4445-b09a-167f1806bbfe)"/></svg>