<svg xmlns="http://www.w3.org/2000/svg" viewBox="0 0 89.2 89.2"><defs><style>.cls-1{fill:#00a7e1;}</style></defs><title>creative_icon</title><g id="Layer_2" data-name="Layer 2"><g id="Layer_1-2" data-name="Layer 1"><g id="creative_icon"><path class="cls-1" d="M30.7,59.72A13.06,13.06,0,0,0,29,58.3l-.91,3.39c-.13.48.16.76.63.63l3.39-.91A13.26,13.26,0,0,0,30.7,59.72Z"/><path class="cls-1" d="M53.2,37.23a9.14,9.14,0,0,1,2.67,4.29L58.35,39c.87-.87,0-3.13-1.91-5.05s-4.18-2.78-5-1.91L48.9,34.57A9.1,9.1,0,0,1,53.2,37.23Z"/><path class="cls-1" d="M31.85,58.57a12.71,12.71,0,0,1,1.8,2.24l4-1.07A9,9,0,0,0,35,55.44a9,9,0,0,0-4.3-2.66l-1.07,4A12.59,12.59,0,0,1,31.85,58.57Z"/><path class="cls-1" d="M36,54.42a11.81,11.81,0,0,1,2.81,4.16l16-16a9,9,0,0,0-2.66-4.3,9.05,9.05,0,0,0-4.3-2.66l-16,16A11.8,11.8,0,0,1,36,54.42Z"/><path class="cls-1" d="M34,46.61l-6.12,6.12V20.9c0-.56.32-.69.72-.3l5,5L32.28,27a1,1,0,1,0,1.44,1.44L35,27.07l1.44,1.44,1,1L38.94,31l-1.32,1.32a1,1,0,0,0,1.44,1.44l1.32-1.32,1.44,1.44,1,1,1.44,1.44L39.9,40.68,34,34.74Zm35.59,15L64.8,56.83l-1.32,1.32A1,1,0,0,1,62,56.71l1.32-1.32-1.44-1.44-1-1-1.44-1.44-1.32,1.32a1,1,0,1,1-1.44-1.44L58,50.05l-1.44-1.44-1-1-1.45-1.45-4.37,4.37,5.85,5.85H43.91l-6,6H69.27C69.83,62.32,70,62,69.57,61.6Z"/><path class="cls-1" d="M44.6,89.2A44.6,44.6,0,1,1,89.2,44.6,44.65,44.65,0,0,1,44.6,89.2Zm0-84.5A39.9,39.9,0,1,0,84.5,44.6,39.95,39.95,0,0,0,44.6,4.69Z"/></g></g></g></svg>