<svg id="1ec07fb1-4a20-4b17-b913-80f04e6aee80" data-name="Layer 1" xmlns="http://www.w3.org/2000/svg" viewBox="0 0 721.13 113.12"><title>global_icon</title><rect width="113.12" height="113.12" style="fill:#00b6e8"/><path d="M81.81,97.05l-4.59-1.31V94.26a8.45,8.45,0,0,0,3.22-6.7c0-4.54-3.43-8.23-7.65-8.23S65.16,83,65.16,87.56a8.45,8.45,0,0,0,3.22,6.7v1.48l-4.59,1.31a4.23,4.23,0,0,0-2.93,3.89V102a1.2,1.2,0,0,0,1.2,1.2h21.5a1.2,1.2,0,0,0,1.2-1.2v-1.07A4.23,4.23,0,0,0,81.81,97.05Zm-11.9.74a1.2,1.2,0,0,0,.87-1.15V95.49a7.07,7.07,0,0,0,4.05,0v1.16a1.2,1.2,0,0,0,.87,1.15l5.45,1.56a1.88,1.88,0,0,1,1.19,1.46H63.26a1.88,1.88,0,0,1,1.19-1.46Zm6.74-12.06a2.27,2.27,0,0,1-1.71-1.12,1.2,1.2,0,0,0-.88-.62h-.17a1.2,1.2,0,0,0-.85.35,5.1,5.1,0,0,1-5.13,1.14,5.09,5.09,0,0,1,9.87.19A2.7,2.7,0,0,1,76.65,85.74ZM78,88.06a5.51,5.51,0,0,1-5.22,5.33,5.56,5.56,0,0,1-5.24-5.5,7.59,7.59,0,0,0,6.13-1A5,5,0,0,0,78,88.06Z" transform="translate(-0.88 -0.53)" style="fill:#fff"/><path d="M95.78,69.11,91.2,67.8V66.32a8.45,8.45,0,0,0,3.22-6.7c0-4.54-3.43-8.23-7.65-8.23a7,7,0,0,0-1,.08l-.25,0a7.19,7.19,0,0,0-.95.23h0a7.08,7.08,0,0,0-.93.39l-.2.1a7,7,0,0,0-1.65,1.19l-.12.12a8.18,8.18,0,0,0-1.3,1.67l-.07.12a8.55,8.55,0,0,0-.45.9h0v.1a8.66,8.66,0,0,0-.51,1.82c0,.27-.07.49-.09.71s0,.5,0,.75a8.45,8.45,0,0,0,3.22,6.7V67.8l-4.59,1.31A4.23,4.23,0,0,0,74.83,73v1.07a1.2,1.2,0,0,0,1.2,1.2h21.5a1.2,1.2,0,0,0,1.2-1.2V73A4.23,4.23,0,0,0,95.78,69.11Zm-11.9.74a1.2,1.2,0,0,0,.87-1.15V67.54a7.07,7.07,0,0,0,4.05,0V68.7a1.2,1.2,0,0,0,.87,1.15l5.45,1.56a1.88,1.88,0,0,1,1.19,1.46H77.23a1.88,1.88,0,0,1,1.19-1.46Zm7.52-12h-.15a2.74,2.74,0,0,1-.58,0,2.35,2.35,0,0,1-1.76-1.16,1.2,1.2,0,0,0-.88-.62h-.2a1.19,1.19,0,0,0-.4.08l-.07,0a1.18,1.18,0,0,0-.35.24,4.44,4.44,0,0,1-.54.45l-.14.1a4.65,4.65,0,0,1-.6.35h0a4.82,4.82,0,0,1-.58.22h0l-.12,0a5.24,5.24,0,0,1-.62.14h-.08l-.56.05h-.39a5.16,5.16,0,0,1-.63-.05h0l-.18,0a4.63,4.63,0,0,1-.6-.16,5.09,5.09,0,0,1,9.88.23Zm-8,2.35h.21a7.86,7.86,0,0,0,1-.07h0a7.61,7.61,0,0,0,1-.21l.21-.06.08,0c.24-.08.48-.17.71-.27l.07,0,.21-.1a7.23,7.23,0,0,0,.83-.47,4.86,4.86,0,0,0,2.66,1.26,4.75,4.75,0,0,0,1.68,0,5.23,5.23,0,1,1-10.46-.23,7.62,7.62,0,0,0,.75.15l.21,0h.07c.23,0,.47,0,.72.05Z" transform="translate(-0.88 -0.53)" style="fill:#fff"/><path d="M48.25,78.4a29.89,29.89,0,1,1,3.42-59.57c-3.72,1.34-7.79,3.54-7.49,6.72a4.85,4.85,0,0,0,2.34,4,5.24,5.24,0,0,0,4.61,0,20.1,20.1,0,0,1,0,5.48c-.68.1-1.41.27-2.16.45-2.28.53-4.84,1.12-6.27.07a3,3,0,0,0-.94-1.31c-1.39-1.14-3.79-1.35-7.34-.64-7.79,1.56-7.88,11.77-7.88,12.2,0,2.35,1.14,6.79,5.43,6.79.73,0,1.45,0,2.15-.08,1.71-.1,3.33-.19,4,.45a3.27,3.27,0,0,1,.62,2.35,1.36,1.36,0,0,0,.4,1,10.37,10.37,0,0,1,2.32,3.11,4.11,4.11,0,0,1-.54,1.43,5.93,5.93,0,0,0-.82,2.65c0,1.17,2,6.22,4.24,7.72a7.19,7.19,0,0,1,1.25-2.41,14.67,14.67,0,0,1-2.77-5.31A4.11,4.11,0,0,1,43.35,62a5.93,5.93,0,0,0,.82-2.65c0-1.53-1.69-3.54-2.73-4.64A5.28,5.28,0,0,0,40,51c-1.53-1.45-3.82-1.32-6-1.19-.65,0-1.33.08-2,.08-2.66,0-2.72-3.91-2.72-4.08s.07-8.41,5.7-9.54c3.93-.79,5.09-.05,5.17,0a1.36,1.36,0,0,0,.4,1c2.43,2.43,6.11,1.57,9.07.88a14.75,14.75,0,0,1,2.76-.49,1.36,1.36,0,0,0,1.35-1.17c.51-3.61.76-8.17-1-9.45a2.17,2.17,0,0,0-2.3-.11,2.79,2.79,0,0,1-2.52.23,2.29,2.29,0,0,1-1-1.86c-.16-1.75,5.29-4.13,10.43-5.26a29.93,29.93,0,0,1,12.54,7.86c-.45,1.71-1.93,6.26-5.5,8.32-4.82-.94-9.44,1.69-10.44,2.91a1.59,1.59,0,0,0-.3,1.75,1.72,1.72,0,0,0,1.1.81,15.21,15.21,0,0,1,1.73,4.45,1.36,1.36,0,0,0,.36.63,4.38,4.38,0,0,0,4.43.72,2.5,2.5,0,0,1-.28,1.29,10,10,0,0,1,2.55.94,4.05,4.05,0,0,0-.69-4.88,1.36,1.36,0,0,0-1.57-.25,3.77,3.77,0,0,1-2.28.39,14.39,14.39,0,0,0-2-4.82A10.44,10.44,0,0,1,64.22,39a1.37,1.37,0,0,0,.94-.1C69,36.92,71,33,71.94,30.32a29.77,29.77,0,0,1,5.61,24,11,11,0,0,1,3.23-3.8c0-.67.07-1.35.07-2a32.47,32.47,0,0,0-8.38-21.8l-.25-.27a32.66,32.66,0,0,0-14.5-9.12l-.07,0a32.61,32.61,0,1,0-5.21,63.54,4,4,0,0,1-.84-2.63A30,30,0,0,1,48.25,78.4Z" transform="translate(-0.88 -0.53)" style="fill:#fff"/><path d="M62,84.77h0a1.45,1.45,0,0,0,0-2l-5.37-5.37a1.44,1.44,0,0,0-.51-.32,1.39,1.39,0,0,0-1.58.38,1.29,1.29,0,0,0-.2.3,1.36,1.36,0,0,0-.11.31,1.41,1.41,0,0,0,0,.57,1.46,1.46,0,0,0,0,.22,1.32,1.32,0,0,0,.07.18,1.35,1.35,0,0,0,.27.41L60,84.77a1.44,1.44,0,0,0,2,0Z" transform="translate(-0.88 -0.53)" style="fill:#fff"/><path d="M49.82,69.11a3.6,3.6,0,0,0-.74.32l-.17.1a4.17,4.17,0,0,0-.58.43l-.06.05A4.37,4.37,0,0,0,47,72.19v0a3.59,3.59,0,0,0-.09.77v1.07a1.2,1.2,0,0,0,1.2,1.2h21.5a1.2,1.2,0,0,0,1.2-1.2V73a3.13,3.13,0,0,0,0-.5c0-.09,0-.19,0-.28a4,4,0,0,0-.21-.67l0-.05a4.32,4.32,0,0,0-.31-.59l0-.05a4.49,4.49,0,0,0-.4-.53l0,0a4.21,4.21,0,0,0-1.12-.89l0,0a3.6,3.6,0,0,0-.68-.28L63.25,67.8V66.32a8.45,8.45,0,0,0,3.22-6.7,8.77,8.77,0,0,0-.08-1.09c0-.09,0-.18,0-.27a8.91,8.91,0,0,0-.21-1v0a8.38,8.38,0,0,0-.36-1l-.07-.16v0a8.41,8.41,0,0,0-.46-.89l0,0a8.3,8.3,0,0,0-.62-.88l-.07-.08a7.9,7.9,0,0,0-1.6-1.46,7.53,7.53,0,0,0-.95-.55,7.37,7.37,0,0,0-.7-.3,7.19,7.19,0,0,0-1.5-.37,7.05,7.05,0,0,0-.95-.07c-4.22,0-7.65,3.69-7.65,8.23a8.88,8.88,0,0,0,.07,1.07l0,.09v.07a8.64,8.64,0,0,0,.17.89l0,.08a8.8,8.8,0,0,0,.3.93v0a8.7,8.7,0,0,0,.42.91,8.33,8.33,0,0,0,1,1.46l.05.05,0,0c.16.18.33.37.51.54a8,8,0,0,0,.63.54V67.8ZM63.46,57.84h-.14a2.65,2.65,0,0,1-.57,0A2.36,2.36,0,0,1,61,56.68a1.2,1.2,0,0,0-.88-.62h-.2a1.19,1.19,0,0,0-.4.08l-.07,0a1.18,1.18,0,0,0-.35.24,4.54,4.54,0,0,1-.71.57l-.13.08-.08,0a5.06,5.06,0,0,1-.45.25l-.15.06-.09,0-.45.16-.21,0-.11,0-.38.08-.26,0h-.12l-.31,0h-.22a5.45,5.45,0,0,1-.74-.07h-.12a4.43,4.43,0,0,1-.6-.16,6.21,6.21,0,0,1,.35-.81l.09-.16.06-.1a6,6,0,0,1,.38-.58l.2-.25a5.64,5.64,0,0,1,.48-.5l.07-.07.12-.11a5.21,5.21,0,0,1,.76-.54l.08,0,.07,0a4.81,4.81,0,0,1,.51-.24l.22-.07h0l.49-.13h.06l.17,0a4.28,4.28,0,0,1,1.57,0,4.93,4.93,0,0,1,.78.21l.29.12.11.05.29.14.34.2.31.22,0,0,.25.19a5.5,5.5,0,0,1,.51.5l.08.1.06.08c.14.17.25.31.34.45l.13.21,0,0c.1.16.18.32.26.49l0,.06.08.18a6.6,6.6,0,0,1,.24.66Zm-8,2.35h.21a7.48,7.48,0,0,0,4.09-1.25,4.9,4.9,0,0,0,2.68,1.26,4.84,4.84,0,0,0,1.66,0,5.51,5.51,0,0,1-5.22,5.26,4.63,4.63,0,0,1-.88-.09h-.08a4.7,4.7,0,0,1-.81-.25l-.08,0a5,5,0,0,1-.76-.4l-.07.1,0-.14a5.25,5.25,0,0,1-1.14-1l0,0a5.93,5.93,0,0,1-1-1.73,6.44,6.44,0,0,1-.4-1.9,7.55,7.55,0,0,0,.75.15l.21,0h.07c.23,0,.47,0,.72.05ZM68.07,72.11l0,.06a1.92,1.92,0,0,1,.19.38l0,.05a1.54,1.54,0,0,1,.06.27H49.29a1.88,1.88,0,0,1,1.19-1.46l5.46-1.56a1.2,1.2,0,0,0,.87-1.15V67.54a7.07,7.07,0,0,0,4.05,0V68.7a1.2,1.2,0,0,0,.87,1.15l5.45,1.56.21.09a1.64,1.64,0,0,1,.35.25l.08-.09,0,.12A2.06,2.06,0,0,1,68.07,72.11Z" transform="translate(-0.88 -0.53)" style="fill:#fff"/><path d="M89,77.35,83.6,82.73a1.44,1.44,0,1,0,2,2L91,79.4a1.44,1.44,0,1,0-2-2Z" transform="translate(-0.88 -0.53)" style="fill:#fff"/><path d="M145.62,56.55c0-10.48,7.88-16.9,17.23-16.9A19.76,19.76,0,0,1,174.08,43v4.48a16.17,16.17,0,0,0-11.23-4.27c-7.45,0-12.74,5.18-12.74,13.28S155.4,70,162.85,70a16.83,16.83,0,0,0,8.26-1.89V60.81h-6.64V57.2h11V70.26c-1.78.76-6.59,3.4-12.58,3.4C153.51,73.67,145.62,67,145.62,56.55Z" transform="translate(-0.88 -0.53)" style="fill:#003058"/><path d="M182.18,40.35h4.1v32.4h-4.1Z" transform="translate(-0.88 -0.53)" style="fill:#003058"/><path d="M191.36,61.08A12.72,12.72,0,1,1,204.1,73.61,12.38,12.38,0,0,1,191.36,61.08Zm21.33,0c0-5.08-3.29-9.23-8.59-9.23s-8.64,4.16-8.64,9.23,3.35,9.23,8.64,9.23S212.69,66.21,212.69,61.08Z" transform="translate(-0.88 -0.53)" style="fill:#003058"/><path d="M225.6,68.54l-.16,4.21h-3.56V40.35H226V53.09a10.87,10.87,0,0,1,8.8-4.32c6.43,0,11.12,5.51,11.12,12.31S241.2,73.4,234.78,73.4A10.91,10.91,0,0,1,225.6,68.54Zm16.2-7.45c0-5.62-3.62-9-8-9s-8,3.4-8,9,3.62,9,8,9S241.8,66.7,241.8,61.08Z" transform="translate(-0.88 -0.53)" style="fill:#003058"/><path d="M249.9,61.08c0-6.8,4.7-12.31,11.12-12.31a10.9,10.9,0,0,1,9.18,4.86l.16-4.21h3.56V72.75h-3.56l-.16-4.21A10.9,10.9,0,0,1,261,73.4C254.59,73.4,249.9,67.89,249.9,61.08Zm20.2,0c0-5.62-3.62-9-8-9s-8,3.4-8,9,3.62,9,8,9S270.09,66.7,270.09,61.08Z" transform="translate(-0.88 -0.53)" style="fill:#003058"/><path d="M280.62,40.35h4.1v32.4h-4.1Z" transform="translate(-0.88 -0.53)" style="fill:#003058"/><path d="M300.33,56.55c0-10.48,7.88-16.9,17.23-16.9A19.76,19.76,0,0,1,328.79,43v4.48a16.17,16.17,0,0,0-11.23-4.27c-7.45,0-12.74,5.18-12.74,13.28s5.29,13.28,12.74,13.28a16.17,16.17,0,0,0,11.23-4.27V70a19.77,19.77,0,0,1-11.23,3.4C308.21,73.45,300.33,67,300.33,56.55Z" transform="translate(-0.88 -0.53)" style="fill:#003058"/><path d="M332.62,61.08a12.72,12.72,0,1,1,12.74,12.53A12.38,12.38,0,0,1,332.62,61.08Zm21.33,0c0-5.08-3.29-9.23-8.59-9.23s-8.64,4.16-8.64,9.23,3.35,9.23,8.64,9.23S354,66.21,354,61.08Z" transform="translate(-0.88 -0.53)" style="fill:#003058"/><path d="M363.13,49.42h3.56L367,53.9c1.94-3,4.91-5.13,8.59-5.13,4.37,0,6.48,2.11,7.4,5.35,2.54-3.56,5.67-5.35,8.91-5.35,6.21,0,7.88,4.32,7.88,10.1V72.75h-4.1V59.19c0-5.13-1.57-6.91-5-6.91s-7.18,2.92-7.18,6.7V72.75h-4.1V59.19c0-5.13-1.57-6.91-5-6.91s-7.18,2.92-7.18,6.7V72.75h-4.1Z" transform="translate(-0.88 -0.53)" style="fill:#003058"/><path d="M406.38,49.42h3.56l.27,4.48c1.94-3,4.91-5.13,8.59-5.13,4.37,0,6.48,2.11,7.4,5.35,2.54-3.56,5.67-5.35,8.91-5.35,6.21,0,7.88,4.32,7.88,10.1V72.75h-4.1V59.19c0-5.13-1.57-6.91-5-6.91s-7.18,2.92-7.18,6.7V72.75h-4.1V59.19c0-5.13-1.57-6.91-5-6.91s-7.18,2.92-7.18,6.7V72.75h-4.1Z" transform="translate(-0.88 -0.53)" style="fill:#003058"/><path d="M448.34,60.92c0-7.51,5.56-12.15,11.29-12.15s9.94,3.78,9.94,9.07a14.76,14.76,0,0,1-.32,2.65H452.39c-.32,4.1,1.62,9.56,9.07,9.56a12.13,12.13,0,0,0,7.67-3v3.62a15,15,0,0,1-9.07,2.75C453.2,73.4,448.34,68.16,448.34,60.92Zm17.28-3.29c.49-3.13-2-5.62-5.83-5.62-3.29,0-6.32,1.78-7,5.62Z" transform="translate(-0.88 -0.53)" style="fill:#003058"/><path d="M475.23,49.42h3.56l.27,4.48a10.49,10.49,0,0,1,9.07-5.13V53.2c-4.43-.81-8.8,1.73-8.8,5.67V72.75h-4.1Z" transform="translate(-0.88 -0.53)" style="fill:#003058"/><path d="M490.95,61.08c0-7.29,5.08-12.31,12.15-12.31a13.12,13.12,0,0,1,8.15,2.38v3.73a11.21,11.21,0,0,0-7.78-2.75c-5,0-8.42,3.83-8.42,9s3.4,9,8.42,9a11.21,11.21,0,0,0,7.78-2.75V71a13.11,13.11,0,0,1-8.15,2.38C496,73.4,490.95,68.38,490.95,61.08Z" transform="translate(-0.88 -0.53)" style="fill:#003058"/><path d="M515.25,60.92c0-7.51,5.56-12.15,11.29-12.15s9.94,3.78,9.94,9.07a14.76,14.76,0,0,1-.32,2.65H519.3c-.32,4.1,1.62,9.56,9.07,9.56A12.13,12.13,0,0,0,536,67v3.62A15,15,0,0,1,527,73.4C520.11,73.4,515.25,68.16,515.25,60.92Zm17.28-3.29c.49-3.13-2-5.62-5.83-5.62-3.29,0-6.32,1.78-7,5.62Z" transform="translate(-0.88 -0.53)" style="fill:#003058"/><path d="M550.94,69.51l1-4a13.21,13.21,0,0,0,9.83,4.43c3.83,0,6.8-2.16,6.8-5.67,0-3.29-1.62-5.13-7.67-6.75s-9-4.91-9-9.45,3.78-8.42,10.42-8.42a14.56,14.56,0,0,1,8.8,3l-1,3.4a14.45,14.45,0,0,0-7.83-2.86c-4,0-6.37,1.89-6.37,4.91,0,2.32,1.46,4.27,6.53,5.62,7,1.84,10.15,4.86,10.15,10.21,0,6.32-5.29,9.56-10.85,9.56C556.45,73.45,552.72,71.34,550.94,69.51Z" transform="translate(-0.88 -0.53)" style="fill:#003058"/><path d="M576.48,60.92c0-7.51,5.56-12.15,11.29-12.15s9.94,3.78,9.94,9.07a14.76,14.76,0,0,1-.32,2.65H580.53c-.32,4.1,1.62,9.56,9.07,9.56a12.13,12.13,0,0,0,7.67-3v3.62a15,15,0,0,1-9.07,2.75C581.34,73.4,576.48,68.16,576.48,60.92Zm17.28-3.29c.49-3.13-2-5.62-5.83-5.62-3.29,0-6.32,1.78-7,5.62Z" transform="translate(-0.88 -0.53)" style="fill:#003058"/><path d="M603.38,49.42h3.56l.27,4.48a10.49,10.49,0,0,1,9.07-5.13V53.2c-4.43-.81-8.8,1.73-8.8,5.67V72.75h-4.1Z" transform="translate(-0.88 -0.53)" style="fill:#003058"/><path d="M618.49,49.42h4.21l7.56,17.5,7.51-17.5h4L631.51,72.8h-2.75Z" transform="translate(-0.88 -0.53)" style="fill:#003058"/><path d="M645.22,40.35h4.1v4.48h-4.1Zm0,9.07h4.1V72.75h-4.1Z" transform="translate(-0.88 -0.53)" style="fill:#003058"/><path d="M654.73,61.08c0-7.29,5.08-12.31,12.15-12.31A13.12,13.12,0,0,1,675,51.15v3.73a11.21,11.21,0,0,0-7.78-2.75c-5,0-8.42,3.83-8.42,9s3.4,9,8.42,9A11.21,11.21,0,0,0,675,67.29V71a13.11,13.11,0,0,1-8.15,2.38C659.8,73.4,654.73,68.38,654.73,61.08Z" transform="translate(-0.88 -0.53)" style="fill:#003058"/><path d="M679,60.92c0-7.51,5.56-12.15,11.29-12.15s9.94,3.78,9.94,9.07a14.76,14.76,0,0,1-.32,2.65H683.08c-.32,4.1,1.62,9.56,9.07,9.56a12.13,12.13,0,0,0,7.67-3v3.62a15,15,0,0,1-9.07,2.75C683.89,73.4,679,68.16,679,60.92Zm17.28-3.29c.49-3.13-2-5.62-5.83-5.62-3.29,0-6.32,1.78-7,5.62Z" transform="translate(-0.88 -0.53)" style="fill:#003058"/><path d="M704.3,71l.81-3.24A15.86,15.86,0,0,0,713,70.21c2.92,0,5.18-1,5.18-3.62,0-2.05-2.11-3.19-5.94-4.16-5-1.24-7.24-3.89-7.24-6.91,0-3.67,2.81-6.8,8.53-6.8a16.18,16.18,0,0,1,7.24,1.94L720,53.79a12.33,12.33,0,0,0-6.43-1.89c-3.19,0-4.75,1.19-4.75,3.08s1.94,3.19,5,3.94c5.35,1.3,8.15,3.73,8.15,6.8,0,4.91-3.73,7.72-9.07,7.72A16.88,16.88,0,0,1,704.3,71Z" transform="translate(-0.88 -0.53)" style="fill:#003058"/></svg>