<svg xmlns="http://www.w3.org/2000/svg" viewBox="0 0 151.68 151.68"><defs><style>.cls-1{fill:none;stroke:#fff;stroke-miterlimit:10;stroke-width:2px;}.cls-2{fill:#fff;}</style></defs><title>icon_4</title><g id="Layer_2" data-name="Layer 2"><g id="Layer_1-2" data-name="Layer 1"><circle class="cls-1" cx="75.84" cy="75.84" r="74.84"/><path class="cls-2" d="M122.89,79.27l.1-.11.06-.06c1.23-1.39,2.5-2.82,3.69-4a.38.38,0,0,0,0-.11,8.84,8.84,0,0,0-1.9-3,3,3,0,0,0-3.56.29L119,73.87l-.26.18c-2.26,1.58-4.61,3.21-6.93,4.73a4.84,4.84,0,0,1-.94.48l-.28.17a23.34,23.34,0,0,1-2.09,1.12c-1,.48-2,.91-3,1.29A24.17,24.17,0,0,1,102,83a4,4,0,0,1-1.05.1,3.33,3.33,0,0,0-.7.05c-.3.06-1.39.1-2.53.12a9.35,9.35,0,0,1,.94,1.65A4.82,4.82,0,0,1,99,86.56a5.14,5.14,0,0,1,0,.83l0,.17c0,.05,0,.1,0,.15l-.09.44a6.38,6.38,0,0,1-1.54,2.94c-1.6,1.68-4,2-5.69,2.09a42,42,0,0,1-5.22-.14h-.15a65.61,65.61,0,0,0-9.07-.29,20.08,20.08,0,0,0-6,1.22,1.66,1.66,0,0,1-.62.12,1.7,1.7,0,0,1-.62-3.29,23.48,23.48,0,0,1,7-1.44,67.21,67.21,0,0,1,9.54.29h.14a39.42,39.42,0,0,0,4.79.14c1.72-.1,2.85-.44,3.43-1.06a3,3,0,0,0,.67-1.34l.1-.5a1.93,1.93,0,0,0,0-.24,1.42,1.42,0,0,0-.11-.49A14.72,14.72,0,0,0,93.19,83l0,0c-3.19-1.92-10.58-2.62-13-2.85l-.89-.1a17.51,17.51,0,0,1-3.9-1.92,39.55,39.55,0,0,0-11.44-4.9,15.43,15.43,0,0,0-3.21-.31,44.09,44.09,0,0,0-11.06,1.94,18.68,18.68,0,0,1-3.61.79h-.17c-.93-.08-.94-.09-1.11-.25a4.42,4.42,0,0,0-1-.35c-3.9-1.12-7.9-2.31-12.23-3.63l0,0C27,74.05,23.21,89.56,25.74,95.06h.09c.66.16,2.38.43,4,.68s3.31.5,3.94.66c1.1.27,2.23.5,3.32.73,1.27.27,2.66.56,4,.9,1.14.29,2.3.64,3.32.94,1.55.46,3.07.91,4.58,1.23a15.24,15.24,0,0,0,2.7.22,17,17,0,0,1,2.49.17c4.29.74,8.47,1.6,12,2.34,2,.42,4,.87,6,1.33l.15,0c1.14.26,4,1,6.82,1.7,3.15.8,6.72,1.71,7.07,1.75h.24c1-.07,2.09-1,3.12-1.9.4-.35.79-.69,1.16-1,.57-.43,1.13-.88,1.69-1.33a24.7,24.7,0,0,1,4.36-3l.44-.28.42-.27,1.14-.85,4-2.27A29.06,29.06,0,0,1,107,94.46a7.61,7.61,0,0,0,2.33-2c.37-.42.74-.83,1.11-1.19l1-1c1.18-1.14,2.37-2.28,3.56-3.35.57-.52,1.19-1,1.69-1.44.71-.58,1.43-1.18,2.11-1.83C120.17,82.35,121.55,80.79,122.89,79.27Z"/><path class="cls-2" d="M74,61.35a31.57,31.57,0,0,0,3.2,3.3c1.49,1.33,3.07,2.59,4.64,3.85.67.53,1.41,1,2.13,1.48.54.36,2.54,1.79,3,2.11.85.57,1.72,1.11,2.6,1.65a1.22,1.22,0,0,0,.53.2h.11a1.22,1.22,0,0,0,.53-.2c.87-.54,1.75-1.08,2.59-1.65.48-.33,2.48-1.76,3-2.11.72-.48,1.46-.95,2.13-1.48,1.57-1.26,3.16-2.51,4.64-3.85a31.42,31.42,0,0,0,3.2-3.3,26.94,26.94,0,0,0,3.21-4.6,13.34,13.34,0,0,0,1.65-6.89A9.63,9.63,0,0,0,109.81,45a11.14,11.14,0,0,0-1.32-1.93,10.32,10.32,0,0,0-6.6-3.55,14.08,14.08,0,0,0-6.55.72,13.89,13.89,0,0,0-4.66,3.41c-.22.22-.34.33-.45.33h-.11c-.12,0-.23-.1-.45-.33A13.89,13.89,0,0,0,85,40.27a14.08,14.08,0,0,0-6.55-.72,10.3,10.3,0,0,0-6.59,3.55A11,11,0,0,0,70.56,45a9.59,9.59,0,0,0-1.41,4.84,13.32,13.32,0,0,0,1.64,6.89A26.94,26.94,0,0,0,74,61.35Z"/></g></g></svg>