<svg xmlns="http://www.w3.org/2000/svg" viewBox="0 0 151.68 151.68"><defs><style>.cls-1{fill:none;stroke:#fff;stroke-miterlimit:10;stroke-width:2px;}.cls-2{fill:#fff;}</style></defs><title>icon_2</title><g id="Layer_2" data-name="Layer 2"><g id="Layer_1-2" data-name="Layer 1"><circle class="cls-1" cx="75.84" cy="75.84" r="74.84"/><rect class="cls-2" x="100.18" y="71.41" width="11.61" height="11.61"/><rect class="cls-2" x="100.18" y="93.52" width="11.61" height="11.61"/><path class="cls-2" d="M100.18,62h11.61V56.14l-2.61,4.13a1.39,1.39,0,0,1-1.1.64H108a1.39,1.39,0,0,1-1.08-.52l-4.7-5.91a1.38,1.38,0,1,1,2.17-1.72l3.48,4.39L111.78,51V50.4H100.18Z"/><path class="cls-2" d="M28.34,113.59h95V39.66h-95ZM68.27,84.51l-5.19-2.73-5.19,2.73,1-5.78-4.2-4.09,5.8-.84,2.6-5.26,2.59,5.26,5.8.84-4.2,4.09ZM97.41,47.63h16.48L115,45.81a1.38,1.38,0,0,1,2.34,1.48l-2.83,4.47v13H97.41Zm0,21h17.14V85.78H97.41Zm0,22.11h17.14v17.14H97.41Zm-15.92-38,2.6-5.26,2.59,5.26,5.8.84-4.2,4.09,1,5.78-5.19-2.73L78.9,63.51l1-5.78-4.2-4.09Zm-21,0,2.6-5.26,2.59,5.26,5.8.84-4.2,4.09,1,5.78-5.19-2.73-5.19,2.73,1-5.78-4.2-4.09Zm-19.9,0,2.6-5.26,2.59,5.26,5.8.84-4.2,4.09,1,5.78-5.19-2.73L38,63.51l1-5.78-4.2-4.09Zm7.79,31.72-5.19-2.73L38,84.51l1-5.78-4.2-4.09,5.8-.84,2.6-5.26,2.59,5.26,5.8.84-4.2,4.09Zm-7.79,11,2.6-5.26,2.59,5.26,5.8.84-4.2,4.09,1,5.78-5.19-2.73L38,106.26l1-5.78-4.2-4.09Z"/></g></g></svg>