<svg xmlns="http://www.w3.org/2000/svg" viewBox="0 0 92.68 94.87"><defs><style>.cls-1{fill:#00a7e1;}</style></defs><title>legal_icon</title><g id="Layer_2" data-name="Layer 2"><g id="Layer_1-2" data-name="Layer 1"><g id="legal_icon"><path class="cls-1" d="M41.72,28.55l-2.34,2.34L37,33.22a1.18,1.18,0,0,0,0,1.67l8,8a1.19,1.19,0,0,0,1.67,0l.5-.5a1.19,1.19,0,0,1,1.67,0C50.77,43.67,61.94,61,68.18,61.65a2.86,2.86,0,1,0,2-2c-.6-6.23-18-17.41-19.29-19.33a1.19,1.19,0,0,1,0-1.67l.5-.5a1.19,1.19,0,0,0,0-1.67l-8-8A1.18,1.18,0,0,0,41.72,28.55Z"/><path class="cls-1" d="M53.38,35.35a1.2,1.2,0,0,0,1.67,0l1.67-1.66A1.88,1.88,0,0,0,57,31.73a19.37,19.37,0,0,0-8.87-8.87,1.87,1.87,0,0,0-1.95.33l-1.67,1.67a1.2,1.2,0,0,0,0,1.67Z"/><path class="cls-1" d="M35,36.06a1.19,1.19,0,0,0-1.67,0l-1.67,1.67a1.86,1.86,0,0,0-.33,1.94,19.37,19.37,0,0,0,8.87,8.88,1.87,1.87,0,0,0,1.95-.33l1.67-1.67a1.2,1.2,0,0,0,0-1.67Z"/><path class="cls-1" d="M55.42,59V56.6a1.18,1.18,0,0,0-1.18-1.18H26a1.18,1.18,0,0,0-1.18,1.18V59s-2.07,1.36-2.07,2v3.18a1.18,1.18,0,0,0,1.18,1.18H56.31a1.18,1.18,0,0,0,1.18-1.18V61C57.49,60.32,55.42,59,55.42,59Z"/><path class="cls-1" d="M46.34,94.87C20.79,94.87,0,73.61,0,47.47S20.79,0,46.34,0,92.68,21.29,92.68,47.47,71.89,94.87,46.34,94.87Zm0-89.75c-22.73,0-41.22,19-41.22,42.34S23.61,89.75,46.34,89.75s41.22-19,41.22-42.28S69.07,5.12,46.34,5.12Z"/></g></g></g></svg>