<svg id="165ac2d2-a811-4018-bc1f-e45c444cc898" data-name="Layer 1" xmlns="http://www.w3.org/2000/svg" xmlns:xlink="http://www.w3.org/1999/xlink" viewBox="0 0 627.92 111.13"><defs><radialGradient id="49e891d9-0620-428c-ba5c-80575566e6fe" cx="542.95" cy="467.17" r="372.82" gradientTransform="translate(-220.87 -236.86) scale(0.49)" gradientUnits="userSpaceOnUse"><stop offset="0" stop-color="#ec202b"/><stop offset="0.15" stop-color="#e2202a"/><stop offset="0.4" stop-color="#c51e26"/><stop offset="0.73" stop-color="#981c20"/><stop offset="1" stop-color="#6d1a1b"/></radialGradient><linearGradient id="8d3bd948-d2fe-4a84-b20e-e19324a73fe9" x1="20.14" y1="56.35" x2="95.68" y2="56.35" gradientUnits="userSpaceOnUse"><stop offset="0.14" stop-color="#000"/><stop offset="1" stop-color="#ebedeb"/></linearGradient></defs><title>marketing_icon</title><rect id="f525095d-3492-405d-b6e6-60a33f03a729" data-name="tile" width="113.98" height="111.13" style="fill:url(#49e891d9-0620-428c-ba5c-80575566e6fe)"/><path d="M57.87,42.23a13.1,13.1,0,1,1-11.43,19.7l1.76-1a11,11,0,0,1-1.57-5.56A11.17,11.17,0,0,1,57.87,44.27Zm0,27.55a14.45,14.45,0,1,0,0-28.9v-2A16.6,16.6,0,0,0,41.19,55.33a16.37,16.37,0,0,0,2.33,8.32l1.74-1A14.68,14.68,0,0,0,57.91,69.78Zm21.68-2A25.19,25.19,0,0,1,32.77,55.33a25,25,0,0,1,25.1-24.76v2A22.93,22.93,0,0,1,80.94,55.33a22.41,22.41,0,0,1-3.11,11.45ZM57.91,81.45A26.54,26.54,0,0,0,80.75,68.5l1.75,1a27.82,27.82,0,0,0,3.87-14.21,28.36,28.36,0,0,0-28.5-28.15v2a26.12,26.12,0,1,0,0,52.23Zm0-62c20.08,0,36.41,16.11,36.41,35.92a35.34,35.34,0,0,1-5,18.11l-1.75-1a34.62,34.62,0,0,1-59.38,0l-1.75,1a35.33,35.33,0,0,1-5-18.11C21.49,35.53,37.83,19.41,57.91,19.41Zm32.6,54.72a36.67,36.67,0,0,0,5.16-18.8c0-20.55-16.94-37.27-37.77-37.27S20.14,34.78,20.14,55.33a36.67,36.67,0,0,0,5.16,18.8l-1.75,1a40.05,40.05,0,0,0,68.72,0Z" transform="translate(-0.88 -1.15)" style="fill-rule:evenodd;fill:url(#8d3bd948-d2fe-4a84-b20e-e19324a73fe9)"/><path d="M152.45,64.18,148.2,76.11c-.11.22-.16.27-.44.27h-2.94c-.27,0-.33-.11-.27-.38L156.7,42.45a4.65,4.65,0,0,0,.33-1.91.26.26,0,0,1,.27-.27h4.36c.22,0,.27.05.33.22L174.89,76c.05.27,0,.38-.22.38h-3.32c-.16,0-.27-.06-.38-.27l-4.3-11.93Zm13.18-3.38c-1.2-3.54-5-13.94-6-17.59h-.05c-1,3.49-3.76,11.11-6,17.59Z" transform="translate(-0.88 -1.15)"/><path d="M174.89,63.42c0-8,6-13.83,14.54-13.83a15.32,15.32,0,0,1,3.92.38V37.49c0-.22.11-.33.27-.33h3.1c.27,0,.27.11.27.33V72.4c0,.6.05,1.36.11,2.18,0,.22,0,.27-.22.38a19.5,19.5,0,0,1-8.71,2C180.66,76.92,174.89,72.35,174.89,63.42Zm18.46-10a10.65,10.65,0,0,0-4-.6c-6.75,0-10.68,4.63-10.68,10.46,0,7.57,4.85,10.4,9.86,10.4a13.12,13.12,0,0,0,4.85-.82Z" transform="translate(-0.88 -1.15)"/><path d="M225.53,63.2c0,8.17-5,13.73-12.15,13.73-8.55,0-12.25-7.14-12.25-13.67,0-7.73,4.9-13.67,12.25-13.67S225.53,55.25,225.53,63.2Zm-20.7-.05c0,5.77,3.1,10.57,8.71,10.57,4,0,8.28-3.16,8.28-10.4,0-5.34-2.51-10.51-8.61-10.51C208.21,52.8,204.84,57,204.84,63.15Z" transform="translate(-0.88 -1.15)"/><path d="M233.16,37.16c.22,0,.33.05.33.33V50.78a15.32,15.32,0,0,1,6.26-1.2c7.41,0,12.25,5.28,12.25,12.64,0,9.69-7.3,14.7-14.76,14.7a21.11,21.11,0,0,1-7.14-1.09.41.41,0,0,1-.27-.43V37.49c0-.22.05-.33.27-.33Zm6,15.63a13.68,13.68,0,0,0-5.72,1.09V73.22a14,14,0,0,0,4,.49c5.56,0,10.73-3.76,10.73-11.17C248.24,56.77,244.81,52.8,239.2,52.8Z" transform="translate(-0.88 -1.15)"/><path d="M258,63.36c-.16,5.77,3.05,10.24,9.48,10.24a14.79,14.79,0,0,0,6.81-1.47c.16-.11.27,0,.27.22v2.51c0,.27-.11.38-.27.43a14.84,14.84,0,0,1-7.46,1.64c-9.2,0-12.53-6.86-12.53-13.45,0-7.68,4.41-13.89,11.71-13.89,7.68,0,10.35,6.26,10.35,10.67a12.94,12.94,0,0,1-.16,2.56c0,.22-.16.33-.38.38-.82.11-3.32.16-5.61.16ZM269,60.53a25.26,25.26,0,0,0,3.76-.11c0-.16.06-.49.06-.65,0-2.18-1.36-7.08-7-7.08-4.85,0-7.3,3.81-7.84,7.84Z" transform="translate(-0.88 -1.15)"/><path d="M294.19,40.27h4.9c.27,0,.33.11.38.27,2,5.72,9.31,26.74,10.51,31.26H310c1.31-4.47,9.31-25.65,11.27-31.21.05-.22.11-.33.33-.33h4.74c.27,0,.27.05.33.27l2,35.51a.29.29,0,0,1-.33.33h-3.16c-.27,0-.38-.06-.38-.27-.6-12.91-1.31-30.06-1.31-33.28h-.05c-1.36,4.79-9.37,26.41-11.66,33.28a.45.45,0,0,1-.43.27h-3.16a.38.38,0,0,1-.44-.33c-3.1-9.37-9.48-28.16-10.89-33.28h-.11c-.06,4.41-1.2,21.9-1.91,33.28,0,.27-.05.33-.33.33h-2.94c-.22,0-.33-.06-.33-.33l2.56-35.46C293.92,40.32,294,40.27,294.19,40.27Z" transform="translate(-0.88 -1.15)"/><path d="M352.89,72.13c0,.82.06,1.52.11,2.29,0,.11,0,.16-.11.22a20.83,20.83,0,0,1-9.69,2.29c-5.66,0-9.8-2.83-9.8-8.39,0-5.77,5.45-8.23,12-8.23a36.77,36.77,0,0,1,3.87.16V58.89c0-1.85-.82-6-6.37-6a14.14,14.14,0,0,0-6.81,1.64c-.16.05-.33,0-.33-.22V51.6c0-.22.05-.33.22-.38a16.48,16.48,0,0,1,7.52-1.63c6.7,0,9.37,4.47,9.37,10Zm-3.59-8.66a25.74,25.74,0,0,0-3.76-.22c-5.72,0-8.55,1.91-8.55,5.28,0,2.61,1.74,5.34,6.92,5.34a12.73,12.73,0,0,0,5.39-1.09Z" transform="translate(-0.88 -1.15)"/><path d="M362.18,50.07c.27,0,.33.11.44.33a34.58,34.58,0,0,1,.38,4,11.35,11.35,0,0,1,8.82-4.79c.22,0,.33,0,.33.27v3.22c0,.22-.06.27-.33.27a10.55,10.55,0,0,0-8.66,4.41l-.05,18.3c0,.27-.06.33-.27.33h-3.1c-.27,0-.27-.11-.27-.33V57.21c0-2.23-.16-5.39-.33-6.81-.06-.22.05-.33.22-.33Z" transform="translate(-0.88 -1.15)"/><path d="M395.37,50.07c.27,0,.33.22.16.38-1.52,1.63-10.18,9.75-12.2,11.71-.05.06,0,.11,0,.16C386.93,66,393.14,72,397.28,76a.22.22,0,0,1-.16.38h-4.19a.67.67,0,0,1-.55-.27c-3.1-3-10.46-10.35-13.12-13.07-.06-.05-.06-.11-.11-.11V76.05c0,.22-.06.33-.27.33h-3.05c-.27,0-.33-.11-.33-.33V37.49c0-.22.06-.33.33-.33h3.05c.22,0,.27.11.27.33V62.44c.05,0,.05-.06.11-.11,2.34-2.29,10.57-10.46,12.09-12a.52.52,0,0,1,.49-.27Z" transform="translate(-0.88 -1.15)"/><path d="M400.36,63.36c-.16,5.77,3.05,10.24,9.48,10.24a14.78,14.78,0,0,0,6.81-1.47c.16-.11.27,0,.27.22v2.51c0,.27-.11.38-.27.43a14.84,14.84,0,0,1-7.46,1.64c-9.2,0-12.53-6.86-12.53-13.45,0-7.68,4.41-13.89,11.71-13.89,7.68,0,10.35,6.26,10.35,10.67a12.76,12.76,0,0,1-.16,2.56c0,.22-.16.33-.38.38-.82.11-3.32.16-5.61.16Zm11.06-2.83a25.29,25.29,0,0,0,3.76-.11c0-.16.05-.49.05-.65,0-2.18-1.36-7.08-7-7.08-4.85,0-7.3,3.81-7.84,7.84Z" transform="translate(-0.88 -1.15)"/><path d="M434.75,75.67c0,.22,0,.38-.22.44a8.92,8.92,0,0,1-3.92.82c-3.76,0-6-1.8-6-6.92V53.29H420.7c-.27,0-.33-.16-.33-.38V50.4c0-.22.05-.33.33-.33h3.87a60.13,60.13,0,0,1,.49-7.08c.05-.22.11-.33.27-.38l3-.49c.16-.05.33,0,.33.16-.22,2-.38,5.12-.38,7.79h5.94c.27,0,.33.11.33.38V53c0,.22-.11.27-.33.27h-5.94V69.68c0,2.56,1,4,3.43,4a6.78,6.78,0,0,0,2.78-.55c.16,0,.27,0,.27.22Z" transform="translate(-0.88 -1.15)"/><path d="M438,41.85a2.24,2.24,0,0,1,2.34-2.4,2.2,2.2,0,0,1,2.29,2.4,2.26,2.26,0,0,1-2.34,2.34A2.19,2.19,0,0,1,438,41.85Zm.49,8.55c0-.22.06-.33.27-.33h3c.22,0,.33.05.33.33V76.05c0,.22-.06.33-.33.33h-2.94c-.33,0-.38-.11-.38-.38Z" transform="translate(-0.88 -1.15)"/><path d="M448.83,56.23c0-1.91-.16-5-.22-5.83,0-.22.05-.33.33-.33h2.67a.38.38,0,0,1,.44.33,21.75,21.75,0,0,1,.27,2.94,11.67,11.67,0,0,1,8.55-3.76c3.76,0,8.77,1.74,8.77,10.35V76.05c0,.22-.11.33-.38.33h-2.94c-.27,0-.38-.11-.38-.38V60.26c0-4.3-1.91-7.41-6-7.41a9.31,9.31,0,0,0-7.46,3.81V76.05c0,.22-.06.33-.33.33h-3c-.27,0-.33-.11-.33-.33Z" transform="translate(-0.88 -1.15)"/><path d="M487.64,72.4c6.48.38,10.51,2.56,10.51,7.57,0,5.34-5.07,9.59-12.85,9.59s-11.71-4.19-11.71-8.28c0-1.91,1.58-4.41,5.39-7.62a6.72,6.72,0,0,1-1.31-4,6.85,6.85,0,0,1,.87-3.43,8.49,8.49,0,0,1-3.65-7.41c0-5.07,3.65-9.2,9.86-9.2a16.68,16.68,0,0,1,3.81.38,4.11,4.11,0,0,0,1.09.11h7.79c.22,0,.27.11.27.33V52.9c0,.22-.06.33-.33.33-1.58,0-4-.05-5.39-.16a7.79,7.79,0,0,1,2.23,5.77c0,6-4.36,9-9.59,9a12.79,12.79,0,0,1-3.27-.44,4.55,4.55,0,0,0-.38,2.23,4.75,4.75,0,0,0,1.09,2.45Zm-6.37,3c-2.56,1.74-4.19,4.3-4.19,5.66,0,2.72,3.21,5.56,8.44,5.56,6.32,0,9.2-3.21,9.2-6.21,0-3.54-3.7-4.47-7.84-4.68Zm-2.78-16.67c0,3.65,2.18,6.26,6.15,6.26,3.7,0,6-2.23,6-6.21,0-3.38-1.85-6.37-6-6.37A6,6,0,0,0,478.49,58.73Z" transform="translate(-0.88 -1.15)"/><path d="M538.23,75.4a.46.46,0,0,1-.27.49,18.9,18.9,0,0,1-7.24,1c-8.71,0-18.35-5-18.35-18.74,0-10.84,7.57-18.46,19-18.46,3.65,0,5.77.44,6.92,1,.16.06.22.22.22.44v2.94c0,.33-.16.33-.33.22a15.73,15.73,0,0,0-7-1.25c-8.88,0-15.09,5.88-15.09,15,0,12.26,9.26,15.41,14.92,15.41a18.7,18.7,0,0,0,6.86-.92c.16-.11.33-.11.33.16Z" transform="translate(-0.88 -1.15)"/><path d="M542.79,37.49c0-.27.11-.33.38-.33h3c.22,0,.27.16.27.33V71c0,2.23.93,2.72,2.23,2.72a4.8,4.8,0,0,0,1.14-.16c.22,0,.22.05.22.27v2.29c0,.27-.05.33-.22.43a7.55,7.55,0,0,1-2.29.33c-2.34,0-4.74-.82-4.74-5.61Z" transform="translate(-0.88 -1.15)"/><path d="M576.33,63.2c0,8.17-5,13.73-12.15,13.73-8.55,0-12.25-7.14-12.25-13.67,0-7.73,4.9-13.67,12.25-13.67S576.33,55.25,576.33,63.2Zm-20.7-.05c0,5.77,3.1,10.57,8.72,10.57,4,0,8.28-3.16,8.28-10.4,0-5.34-2.51-10.51-8.61-10.51C559,52.8,555.63,57,555.63,63.15Z" transform="translate(-0.88 -1.15)"/><path d="M601.65,70.66a36.22,36.22,0,0,0,.27,5.39c.06.27-.05.33-.27.33h-2.83a.3.3,0,0,1-.33-.27,14.88,14.88,0,0,1-.33-2.45,10.8,10.8,0,0,1-8,3.27c-4.41,0-8.93-2.13-8.93-10.13V50.4c0-.27.05-.33.33-.33h3c.22,0,.27.11.27.33V66.3c0,4.58,2.18,7.3,6.21,7.3a8.63,8.63,0,0,0,6.86-3.1V50.4c0-.22.11-.33.38-.33h3.05c.22,0,.27.11.27.33Z" transform="translate(-0.88 -1.15)"/><path d="M606.58,63.42c0-8,6-13.83,14.54-13.83A15.32,15.32,0,0,1,625,50V37.49c0-.22.11-.33.27-.33h3.1c.27,0,.27.11.27.33V72.4c0,.6.05,1.36.11,2.18,0,.22,0,.27-.22.38a19.49,19.49,0,0,1-8.71,2C612.35,76.92,606.58,72.35,606.58,63.42Zm18.46-10a10.65,10.65,0,0,0-4-.6c-6.75,0-10.67,4.63-10.67,10.46,0,7.57,4.85,10.4,9.86,10.4a13.12,13.12,0,0,0,4.85-.82Z" transform="translate(-0.88 -1.15)"/></svg>