<svg id="dbf5eef9-dde5-4c86-b64c-0941235890bf" data-name="Layer 1" xmlns="http://www.w3.org/2000/svg" xmlns:xlink="http://www.w3.org/1999/xlink" viewBox="0 0 618.17 496.57"><defs><clipPath id="20983172-b533-4574-96c0-67114be06b9e" transform="translate(0.4 -0.93)"><path d="M311.41,48.85l11.69,6.79c-1.67-1-4-.83-6.54.63L304.88,49.5C307.43,48,309.75,47.88,311.41,48.85Z" style="fill:#4e4e4f"/></clipPath><clipPath id="51b2a0bd-bfec-4acb-b43d-142c2addd65a" transform="translate(0.4 -0.93)"><path d="M122.15,313.05l-11.68-6.78c-1.65-1-2.67-3-2.69-5.89l11.69,6.78C119.47,310.05,120.5,312.09,122.15,313.05Z" style="fill:#232324"/></clipPath><clipPath id="82d4ab49-f3f6-4132-925d-2e8ffffece1f" transform="translate(0.4 -0.93)"><path d="M119.12,180.8,107.45,174c0-5.83,4.07-12.92,9.15-15.84L128.27,165C123.21,167.88,119.11,175,119.12,180.8Z"/></clipPath></defs><title>mobile_awareness_block</title><g id="26547e7f-8abd-4a37-a235-c9c395a59506" data-name="awareness_block"><g id="a3f595b0-4d25-4606-a540-334b35217a61" data-name="green_brick"><g id="e8fd6c05-9dd2-4b2c-ac07-cdc9cb6db50e" data-name="yellow_brick"><polygon points="310.67 496.57 618.17 318.82 617.82 292.66 617.74 290.56 310.16 112.98 1.26 291.19 0.72 291.51 0 318.82 310.67 496.57 310.67 496.57" style="fill:#00b6e8"/><polygon points="310.67 496.57 1.4 320.07 0.72 291.51 310.16 469.14 310.67 496.57" style="fill:#fff;opacity:0.2"/><polygon points="618.17 318.82 310.67 496.57 310.38 468.64 617.82 289.99 618.17 318.82" style="fill:#fff;opacity:0.4"/></g></g><g id="eaf6341e-cf11-4a26-ac47-1e32bc895ee6" data-name="awareness_illustration"><g style="isolation:isolate"><polygon points="486.48 66.37 493.21 62.46 385.02 0 378.31 3.91 486.48 66.37" style="fill:#b698d3"/><polygon points="378.31 3.91 377.81 194.69 485.99 257.16 486.48 66.37 378.31 3.91" style="fill:#765496"/></g><g style="isolation:isolate"><polygon points="467.54 266.6 485.25 256.3 485.73 71.11 468 81.42 467.54 266.6" style="fill:#7e7f80"/><polygon points="468 81.42 485.73 71.11 385.39 13.19 367.68 23.5 468 81.42" style="fill:#e9e9e9"/><polygon points="367.68 23.5 367.2 208.67 467.54 266.6 468 81.42 367.68 23.5" style="fill:#f3f4f7"/></g><g style="isolation:isolate"><polygon points="461.3 271.43 468.03 267.52 468.52 76.74 461.8 80.64 461.3 271.43" style="fill:#805710"/><polygon points="461.8 80.64 468.52 76.74 360.33 14.27 353.6 18.19 461.8 80.64" style="fill:#b698d3"/><polygon points="353.6 18.19 353.13 208.97 461.3 271.43 461.8 80.64 353.6 18.19" style="fill:#765496"/></g><polygon points="461.3 271.43 492.72 253.25 493.21 62.46 461.8 80.64 461.3 271.43" style="fill:#9e79bb"/><polygon points="461.77 80.64 455.03 76.74 486.48 58.56 493.21 62.46 461.77 80.64" style="fill:#b698d3"/><g style="isolation:isolate"><polygon points="454.73 92.93 461.84 88.79 347.09 22.53 339.95 26.67 454.73 92.93" style="fill:#ace87e"/><polygon points="339.95 26.67 339.42 209.29 454.19 275.55 454.73 92.93 339.95 26.67" style="fill:#79b54b"/></g><g style="isolation:isolate"><polygon points="434.58 285.57 453.4 274.64 453.9 97.98 435.09 108.89 434.58 285.57" style="fill:#7e7f80"/><polygon points="435.09 108.89 453.9 97.98 347.47 36.52 328.67 47.44 435.09 108.89" style="fill:#e9e9e9"/><polygon points="425.31 94.6 409.87 85.67 409.87 58.88 417.59 70.49 425.31 67.81 425.31 94.6" style="fill:#9e79bb"/><polygon points="328.67 47.44 328.17 224.11 434.58 285.57 435.09 108.89 328.67 47.44" style="fill:#f3f4f7"/></g><g style="isolation:isolate"><polygon points="428 290.69 435.14 286.55 435.66 103.93 428.52 108.08 428 290.69" style="fill:#805710"/><polygon points="428.52 108.08 435.66 103.93 320.9 37.67 313.75 41.82 428.52 108.08" style="fill:#ace87e"/><polygon points="313.75 41.82 313.24 224.43 428 290.69 428.52 108.08 313.75 41.82" style="fill:#95d669"/></g><polygon points="428 290.69 461.33 271.4 461.84 88.79 428.52 108.08 428 290.69" style="fill:#79b54b"/><polygon points="428.5 108.08 421.36 103.93 454.73 84.64 461.84 88.79 428.5 108.08" style="fill:#ace87e"/><path d="M382.61,309.4a3.37,3.37,0,0,1-2,2.75l-3.45,2,0-4.38-6.9-4-6.76,3.91,3.86,2.25,2.91-1.68,3,1.76-2.91,1.68-6.9-4v.24l-3.3-1.92a11.24,11.24,0,0,0-1.18-2.78l2.2-1.27,0-4.48-6.89-4-1.56.89v-1.79l-6.89-4-1.54.88v-1.79l-6.91-4-6.77,3.91v1.08l-.94-.55L323,294v1.1l-1-.55-6.76,3.91v1.09l-1-.55-6.77,3.91V304l-.93-.54-6.78,3.91v1.08l-.94-.54-6.77,3.91v1.08l-.94-.54-6.77,3.9v1.09l-1-.55-6.76,3.91v1.09l-.94-.55L269,325.15v1.09l-.94-.55-6.77,3.92v1.07l-.94-.54-6.78,3.92v1.07l-.93-.54-6.78,3.9v1.09l-.93-.54L238.16,343h0V344l-.93-.55-6.77,3.9v4l-3.47-2-6.79,3.92v4.1L217,355.56a3.33,3.33,0,0,1-1.94-2.72l0,4.49A3.27,3.27,0,0,0,217,360l39.37,22.89a10.48,10.48,0,0,0,9.45,0l114.83-66.29a3.33,3.33,0,0,0,1.95-2.76Z" transform="translate(0.4 -0.93)" style="fill:#d7e7f7"/><path d="M380.68,306.67l-39.36-22.88a10.43,10.43,0,0,0-9.46,0L217,350.08c-2.6,1.51-2.62,4,0,5.48l39.37,22.88a10.44,10.44,0,0,0,9.45,0l114.82-66.29C383.26,310.64,383.26,308.18,380.68,306.67Z" transform="translate(0.4 -0.93)" style="fill:#f8f9fc"/><polygon points="337.83 284.71 344.74 288.72 337.97 292.63 331.06 288.63 337.83 284.71" style="fill:#22292b"/><polygon points="330.13 289.16 337.03 293.17 330.26 297.08 323.36 293.06 330.13 289.16" style="fill:#22292b"/><polygon points="322.41 293.62 329.32 297.62 322.55 301.53 315.65 297.52 322.41 293.62" style="fill:#22292b"/><polygon points="338.57 294.07 345.46 298.08 338.7 301.99 331.79 297.99 338.57 294.07" style="fill:#22292b"/><polygon points="354.73 294.53 361.61 298.54 354.85 302.44 347.95 298.44 354.73 294.53" style="fill:#22292b"/><polygon points="314.71 298.06 321.61 302.07 314.83 305.99 307.94 301.98 314.71 298.06" style="fill:#22292b"/><polygon points="347.01 298.97 353.9 302.98 347.14 306.89 340.24 302.88 347.01 298.97" style="fill:#22292b"/><polygon points="307.01 302.51 313.92 306.53 307.12 310.43 300.22 306.43 307.01 302.51" style="fill:#22292b"/><polygon points="339.31 303.43 346.2 307.44 339.42 311.34 332.53 307.34 339.31 303.43" style="fill:#22292b"/><polygon points="299.29 306.96 306.2 310.98 299.41 314.89 292.52 310.87 299.29 306.96" style="fill:#22292b"/><polygon points="319.86 304.87 326.76 308.88 307.85 319.79 300.95 315.78 319.86 304.87" style="fill:#22292b"/><polygon points="283.87 315.86 290.78 319.87 284.02 323.78 277.11 319.77 283.87 315.86" style="fill:#22292b"/><polygon points="300.03 316.32 306.92 320.33 300.14 324.24 293.26 320.23 300.03 316.32" style="fill:#22292b"/><polygon points="328.94 310.14 336.9 314.77 341.49 317.44 343.8 318.78 332.38 325.37 325.49 321.37 328.99 319.33 321.01 314.7 328.94 310.14" style="fill:#22292b"/><polygon points="276.17 320.31 283.07 324.33 276.3 328.24 269.4 324.22 276.17 320.31" style="fill:#22292b"/><polygon points="292.32 320.77 299.21 324.78 292.45 328.69 285.55 324.68 292.32 320.77" style="fill:#22292b"/><polygon points="303.28 324.22 310.18 328.24 303.4 332.14 296.51 328.13 303.28 324.22" style="fill:#22292b"/><polygon points="268.46 324.76 275.36 328.78 268.59 332.68 261.69 328.69 268.46 324.76" style="fill:#22292b"/><polygon points="284.61 325.22 291.51 329.22 284.74 333.14 277.84 329.13 284.61 325.22" style="fill:#22292b"/><polygon points="295.67 328.62 302.56 332.62 295.77 336.54 288.88 332.54 295.67 328.62" style="fill:#22292b"/><polygon points="260.76 329.21 267.66 333.22 260.88 337.15 253.97 333.13 260.76 329.21" style="fill:#22292b"/><polygon points="276.9 329.67 283.79 333.68 277.03 337.58 270.14 333.58 276.9 329.67" style="fill:#22292b"/><polygon points="329.18 328.89 336.06 332.89 322.6 340.66 315.72 336.66 329.18 328.89" style="fill:#22292b"/><polygon points="288.05 333.03 294.94 337.03 288.16 340.95 281.28 336.94 288.05 333.03" style="fill:#22292b"/><polygon points="253.04 333.67 259.94 337.68 253.17 341.59 246.26 337.57 253.04 333.67" style="fill:#22292b"/><polygon points="269.21 334.12 276.1 338.13 269.31 342.05 262.43 338.03 269.21 334.12" style="fill:#22292b"/><polygon points="280.41 337.43 287.31 341.43 280.54 345.33 273.65 341.34 280.41 337.43" style="fill:#22292b"/><polygon points="245.34 338.12 252.23 342.13 245.46 346.03 238.56 342.03 245.34 338.12" style="fill:#22292b"/><polygon points="261.5 338.57 268.38 342.57 261.6 346.49 254.72 342.48 261.5 338.57" style="fill:#22292b"/><polygon points="272.81 341.82 279.7 345.83 272.92 349.74 266.04 345.73 272.81 341.82" style="fill:#22292b"/><polygon points="237.63 342.57 244.54 346.57 237.77 350.49 230.86 346.47 237.63 342.57" style="fill:#22292b"/><polygon points="253.79 343.02 260.67 347.03 253.91 350.94 247.02 346.94 253.79 343.02" style="fill:#22292b"/><polygon points="265.18 346.22 272.08 350.23 265.32 354.14 258.42 350.13 265.18 346.22" style="fill:#22292b"/><polygon points="227.4 348.48 234.29 352.49 227.52 356.4 220.61 352.4 227.4 348.48" style="fill:#22292b"/><polygon points="257.56 350.63 264.46 354.63 257.69 358.53 250.8 354.54 257.56 350.63" style="fill:#22292b"/><polygon points="314.88 337.15 321.76 341.15 288.66 360.26 281.77 356.26 314.88 337.15" style="fill:#22292b"/><polygon points="245.75 347.66 252.63 351.68 235.95 361.3 229.05 357.3 245.75 347.66" style="fill:#22292b"/><polygon points="249.93 355.04 256.8 359.04 244.4 366.21 237.5 362.21 249.93 355.04" style="fill:#22292b"/><polygon points="280.72 356.85 287.61 360.87 276.18 367.47 269.27 363.46 280.72 356.85" style="fill:#22292b"/><polygon points="267.89 364.26 274.77 368.28 261.32 376.04 254.43 372.05 267.89 364.26" style="fill:#22292b"/><polygon points="346.28 289.62 353.17 293.63 346.4 297.52 339.51 293.53 346.28 289.62" style="fill:#22292b"/><polygon points="330.86 298.52 337.76 302.53 330.99 306.44 324.09 302.43 330.86 298.52" style="fill:#22292b"/><polygon points="370.68 304.82 377.58 308.82 370.81 312.75 363.92 308.73 370.68 304.82" style="fill:#22292b"/><polygon points="363.02 309.25 363.94 309.79 369.91 313.25 363.14 317.17 356.25 313.15 356.94 312.76 363.02 309.25" style="fill:#22292b"/><polygon points="355.56 304.82 356.48 305.35 362.46 308.82 355.69 312.75 348.78 308.73 349.49 308.32 355.56 304.82" style="fill:#22292b"/><polygon points="291.58 311.41 298.49 315.43 291.71 319.33 284.81 315.32 291.58 311.41" style="fill:#22292b"/><polygon points="355.56 313.55 362.46 317.56 355.68 321.48 348.78 317.46 355.56 313.55" style="fill:#22292b"/><polygon points="318.53 315.43 325.41 319.43 318.64 323.34 311.75 319.34 318.53 315.43" style="fill:#22292b"/><polygon points="310.89 319.83 317.8 323.83 311.03 327.74 304.13 323.74 310.89 319.83" style="fill:#22292b"/><polygon points="344.55 320.01 351.44 324.01 337.47 332.08 330.57 328.08 344.55 320.01" style="fill:#22292b"/><polygon points="270.33 353.02 277.22 357.04 270.46 360.95 263.55 356.94 270.33 353.02 270.33 353.02" style="fill:#22292b"/><polygon points="271.08 352.59 277.85 348.68 284.77 352.69 277.99 356.6 271.08 352.59 271.08 352.59" style="fill:#22292b"/><polygon points="278.7 348.19 285.48 344.28 292.38 348.29 285.61 352.2 278.7 348.19 278.7 348.19" style="fill:#22292b"/><polygon points="286.23 343.85 293.01 339.93 299.91 343.94 293.14 347.86 286.23 343.85 286.23 343.85" style="fill:#22292b"/><polygon points="294.11 339.31 300.88 335.39 307.78 339.4 301.01 343.31 294.11 339.31 294.11 339.31" style="fill:#22292b"/><polygon points="301.64 334.94 308.41 331.04 315.31 335.05 308.55 338.95 301.64 334.94 301.64 334.94" style="fill:#22292b"/><polygon points="309.27 330.55 316.03 326.64 322.94 330.65 316.17 334.56 309.27 330.55 309.27 330.55" style="fill:#22292b"/><polygon points="316.79 326.2 323.56 322.3 330.47 326.29 323.7 330.21 316.79 326.2 316.79 326.2" style="fill:#22292b"/><polygon points="245.95 367.11 262.62 357.47 269.52 361.48 252.83 371.12 245.95 367.11 245.95 367.11" style="fill:#22292b"/><g style="isolation:isolate"><polygon points="167.14 300.22 167.17 310.65 214.17 338.09 214.13 327.66 167.14 300.22" style="fill:#9cb5cc"/><polygon points="214.13 327.66 214.17 338.09 315 279.58 314.97 269.16 214.13 327.66" style="fill:#d7e7f7"/><polygon points="167.14 300.22 214.13 327.66 314.97 269.16 267.98 241.74 167.14 300.22" style="fill:#e9e9e9"/></g><g style="isolation:isolate"><polygon points="212.23 300.83 196.31 291.59 195.98 170.98 211.9 185.36 212.23 300.83" style="fill:#0f0f0f"/><polygon points="211.9 185.36 195.98 170.98 249.8 139.92 265.69 154.3 211.9 185.36" style="fill:#0d2d49"/><polygon points="265.69 154.3 266.04 269.78 212.23 300.83 211.9 185.36 265.69 154.3" style="fill:#232324"/></g><g style="isolation:isolate"><path d="M311.41,48.85l11.69,6.79c-1.67-1-4-.83-6.54.63L304.88,49.5C307.43,48,309.75,47.88,311.41,48.85Z" transform="translate(0.4 -0.93)" style="fill:#4e4e4f"/><g style="clip-path:url(#20983172-b533-4574-96c0-67114be06b9e)"><path d="M316.56,56.27,304.88,49.5c2.55-1.48,4.87-1.62,6.53-.65l11.69,6.79c-1.67-1-4-.83-6.54.63Z" transform="translate(0.4 -0.93)" style="fill:#232324"/></g><path d="M122.15,313.05l-11.68-6.78c-1.65-1-2.67-3-2.69-5.89l11.69,6.78C119.47,310.05,120.5,312.09,122.15,313.05Z" transform="translate(0.4 -0.93)" style="fill:#232324"/><g style="clip-path:url(#51b2a0bd-bfec-4acb-b43d-142c2addd65a)"><g style="isolation:isolate"><path d="M122.15,313.05l-11.68-6.78c-1.65-1-2.67-3-2.69-5.89l11.69,6.78c0,2.89,1,4.92,2.68,5.89Z" transform="translate(0.4 -0.93)" style="fill:#232324"/></g></g><polygon points="119.87 306.23 108.18 299.45 107.85 173.08 119.52 179.87 119.87 306.23" style="fill:#232324"/><polygon points="128.67 164.02 117.01 157.25 305.28 48.57 316.96 55.34 128.67 164.02" style="fill:#232324"/><g style="isolation:isolate"><path d="M119.12,180.8,107.45,174c0-5.83,4.07-12.92,9.15-15.84L128.27,165C123.21,167.88,119.11,175,119.12,180.8Z" transform="translate(0.4 -0.93)"/><g style="clip-path:url(#82d4ab49-f3f6-4132-925d-2e8ffffece1f)"><path d="M119.12,180.8,107.45,174c0-5.83,4.07-12.92,9.15-15.84L128.27,165c-5.06,2.93-9.16,10-9.15,15.85Z" transform="translate(0.4 -0.93)" style="fill:#232324"/></g></g><path d="M316.56,56.27c5.07-2.92,9.19-.58,9.19,5.26l.35,126.37c0,5.82-4.06,12.92-9.14,15.84L128.67,312.41c-5.06,2.92-9.19.58-9.2-5.25l-.35-126.37c0-5.82,4.09-12.92,9.15-15.85Z" transform="translate(0.4 -0.93)" style="fill:#31393d"/><path d="M128.15,180.76c0-2.58,2.37-6.69,4.63-8l184-106.18.34,121.35c0,2.59-2.38,6.71-4.64,8l-184,106.2Z" transform="translate(0.4 -0.93)" style="fill:#4bc8f1"/></g><g style="isolation:isolate"><polygon points="159.55 270.48 155.88 268.38 155.59 164.66 159.26 166.75 159.55 270.48" style="fill:#00243f"/><polygon points="159.26 166.75 155.59 164.66 300 81.3 303.66 83.4 159.26 166.75" style="fill:#00243f"/><polygon points="159.26 166.75 159.55 270.48 236.37 226.13 236.37 122.24 159.26 166.75" style="fill:#002f58"/><polygon points="303.66 83.4 236.37 122.24 236.37 226.13 303.95 187.11 303.66 83.4" style="fill:#002f58"/></g><path d="M299.65,90.15l.26,93.74s-8.93,37.67-62.1,39.52l-1.88-87.65,1.15-7.78C263.14,118.28,299.65,90.15,299.65,90.15Z" transform="translate(0.4 -0.93)" style="fill:#babbbd"/><g style="isolation:isolate"><polygon points="236.64 228.59 230.46 224.99 230.21 138.4 230.21 135.83 230.19 131.25 230.19 131.25 236.34 134.82 236.34 134.82 236.37 134.84 236.37 134.85 236.64 228.59" style="fill:#717274"/></g><path d="M224.33,135.34l11.64-5,.27,92.31s-22.62,39.09-71.43,40.94l-.3-93.75C222.73,146.45,224.33,135.34,224.33,135.34Z" transform="translate(0.4 -0.93)" style="fill:#babbbd"/><g style="isolation:isolate"><polygon points="171.38 266.27 165.21 262.67 164.94 168.93 171.11 172.52 171.38 266.27" style="fill:#717274"/></g><path d="M299.66,98l.25,94.85s-9.85,35.46-63.68,36.69L236,135.79C278,121.29,299.66,98,299.66,98Z" transform="translate(0.4 -0.93)" style="fill:#f2f2f2"/><path d="M305.33,114l1.22,99.49s-20,22.84-70.32,16L236,135.79C283,132.18,305.33,114,305.33,114Z" transform="translate(0.4 -0.93)" style="fill:#fff"/><path d="M300.22,198.05a54.1,54.1,0,0,1-8.82,5.3c-1.06.5-2.16,1-3.35,1.51a84,84,0,0,1-19.3,5.36l-.76.11a121,121,0,0,1-29.09.72v6a146.64,146.64,0,0,0,15.63.44,120.52,120.52,0,0,0,14.4-1.25,87.49,87.49,0,0,0,21-5.71A68.33,68.33,0,0,0,300.22,205Z" transform="translate(0.4 -0.93)" style="fill:#e6e6e6"/><path d="M300.22,180.91a58.35,58.35,0,0,1-9.77,5.84c-1,.49-2.15,1-3.32,1.48a90.8,90.8,0,0,1-19,5.43l-.76.13a126.15,126.15,0,0,1-28.45,1.45v5.95a151.91,151.91,0,0,0,15.58,0,131.92,131.92,0,0,0,14.3-1.61,89.77,89.77,0,0,0,19.46-5.37,86.34,86.34,0,0,0,11.4-6.07l.57-.33Z" transform="translate(0.4 -0.93)" style="fill:#e6e6e6"/><path d="M300.22,163.81a66.35,66.35,0,0,1-10.77,6.33c-1.06.48-2.15,1-3.3,1.44a98.5,98.5,0,0,1-18.75,5.5l-.73.14a134.13,134.13,0,0,1-27.78,2.2v5.94q8.12.09,15.47-.52c5-.43,9.75-1.13,14.2-1.95a94.54,94.54,0,0,0,17.89-5,96.09,96.09,0,0,0,10.61-5.36c1.15-.62,2.2-1.21,3.16-1.76Z" transform="translate(0.4 -0.93)" style="fill:#e6e6e6"/><path d="M300.22,146.9a83,83,0,0,1-11.78,6.67c-1,.48-2.11.93-3.25,1.41a110.2,110.2,0,0,1-18.46,5.58l-.73.15a144.88,144.88,0,0,1-27.1,2.91v5.94c5.39-.12,10.53-.47,15.36-1,5-.58,9.71-1.39,14.1-2.3a101.62,101.62,0,0,0,16.31-4.7,104.88,104.88,0,0,0,9.81-4.65c2.19-1.11,4.1-2.14,5.74-3.07Z" transform="translate(0.4 -0.93)" style="fill:#e6e6e6"/><path d="M300.22,130.41a4.77,4.77,0,0,0-.44.26,101,101,0,0,1-12.26,6.6c-1,.45-2.1.9-3.22,1.35a122.21,122.21,0,0,1-18.19,5.66l-.7.17a158.17,158.17,0,0,1-26.51,3.62v6c5.43-.3,10.53-.83,15.35-1.51,5-.72,9.68-1.64,14-2.64A115.9,115.9,0,0,0,283,145.53c3.56-1.35,6.54-2.79,9-3.95,3.27-1.55,6-3,8.25-4.25Z" transform="translate(0.4 -0.93)" style="fill:#e6e6e6"/><path d="M237.57,134.86h0c-.2.13-.4.27-.62.4s-.46.25-.69.36h0l-.31.14h0a14,14,0,0,1-6.13,1,12.74,12.74,0,0,1-5.47-1.42l5.46-3.16h0l7.3-4.22C240.25,129.88,240.41,132.84,237.57,134.86Z" transform="translate(0.4 -0.93)" style="fill:#4e4e4f"/><path d="M236,135.77l.27,93.75S224.16,265.35,171,267.2l-.27-93.74C221.88,157.56,236,135.77,236,135.77Z" transform="translate(0.4 -0.93)" style="fill:#d4d4d4"/><path d="M236,135.77l.26,93.75s-11.71,38.2-62.14,40.05V174.39C222.62,158.5,236,135.77,236,135.77Z" transform="translate(0.4 -0.93)" style="fill:#f7f7f7"/><path d="M233.22,213.52a52.62,52.62,0,0,1-9.73,14.86c-.73.81-1.52,1.63-2.34,2.45a64.07,64.07,0,0,1-15.27,11.25c-1.81,1-3.68,1.85-5.61,2.67a82.86,82.86,0,0,1-19.95,5.46v5.66a88.06,88.06,0,0,0,25.92-7.58,70.43,70.43,0,0,0,19.69-14,64.54,64.54,0,0,0,7.29-8.85Z" transform="translate(0.4 -0.93)" style="fill:#cfcfcf"/><path d="M233.22,197.66a52.83,52.83,0,0,1-10.31,14.54c-.74.78-1.54,1.58-2.39,2.38a70.15,70.15,0,0,1-15.39,11c-1.79,1-3.64,1.85-5.57,2.69a91.85,91.85,0,0,1-19.22,5.82v5.63a98.11,98.11,0,0,0,25.88-8.3,75.75,75.75,0,0,0,19.49-13.69,67.16,67.16,0,0,0,7.53-8.68Z" transform="translate(0.4 -0.93)" style="fill:#cfcfcf"/><path d="M233.22,181.91c-.68,1.41-3.78,7.23-10.84,14.11-.78.76-1.61,1.53-2.46,2.3a78.09,78.09,0,0,1-15.51,10.75c-1.76.95-3.61,1.85-5.54,2.71a105.22,105.22,0,0,1-18.53,6.17v5.65a111,111,0,0,0,25.84-9,83.43,83.43,0,0,0,19.32-13.39,70.2,70.2,0,0,0,7.73-8.47Z" transform="translate(0.4 -0.93)" style="fill:#cfcfcf"/><path d="M233.22,166.19c-.74,1.36-4,6.91-11.36,13.63-.8.72-1.64,1.45-2.52,2.21a88.64,88.64,0,0,1-15.62,10.5q-2.63,1.41-5.51,2.74a123.66,123.66,0,0,1-17.88,6.48v5.73a127.06,127.06,0,0,0,25.86-9.83,93,93,0,0,0,19.14-13.05,76.24,76.24,0,0,0,7.89-8.21Z" transform="translate(0.4 -0.93)" style="fill:#cfcfcf"/><path d="M233.22,150.47c-.84,1.39-4.24,6.62-11.85,13.1-.81.71-1.67,1.41-2.58,2.14A104.13,104.13,0,0,1,203.05,176c-1.75.94-3.58,1.85-5.48,2.77a146.2,146.2,0,0,1-17.24,6.76v5.9a149.22,149.22,0,0,0,25.91-10.66A105.5,105.5,0,0,0,225.18,168a78,78,0,0,0,8-7.9Z" transform="translate(0.4 -0.93)" style="fill:#cfcfcf"/><polygon points="428.35 167.96 428.35 167.96 456.34 151.81 428.35 167.96" style="fill:#fcc44c"/><polygon points="461.67 148.73 456.34 151.81 428.35 167.96 428.28 193.57 461.6 174.33 461.67 148.73" style="fill:#95d669"/><polygon points="428.42 144.16 428.39 157.33 461.71 138.09 461.75 124.91 428.42 144.16" style="fill:#95d669"/><polygon points="461.4 236.87 461.37 252.64 492.77 234.49 492.82 218.73 461.4 236.87" style="fill:#b698d3"/><polygon points="461.5 197.62 461.42 225.11 492.84 206.97 492.92 179.5 461.5 197.62" style="fill:#b698d3"/><g style="isolation:isolate"><polygon points="293.41 211.04 290.86 209.55 326.57 388.11 329.1 389.59 293.41 211.04" style="fill:#331b0d"/><polygon points="297.49 208.7 294.94 207.21 290.86 209.55 293.41 211.04 297.49 208.7" style="fill:#412210"/><polygon points="293.41 211.04 329.1 389.59 333.19 387.23 297.49 208.7 293.41 211.04" style="fill:#28150a"/></g><g style="isolation:isolate"><polygon points="295.5 386.52 323.17 370.53 325.73 372.01 295.5 389.46 295.5 386.52" style="fill:#412210"/><polygon points="295.5 389.46 325.73 372.01 326.17 374.07 295.5 391.73 295.5 389.46" style="fill:#28150a"/></g><g style="isolation:isolate"><polygon points="291.45 366.77 319.14 350.79 321.69 352.27 291.45 369.73 291.45 366.77" style="fill:#412210"/><polygon points="291.45 369.73 321.69 352.27 322.13 354.32 291.45 371.99 291.45 369.73" style="fill:#28150a"/></g><g style="isolation:isolate"><polygon points="287.73 347.51 315.39 331.54 317.95 333.01 287.73 350.46 287.73 347.51" style="fill:#412210"/><polygon points="287.73 350.46 317.95 333.01 318.4 335.06 287.73 352.71 287.73 350.46" style="fill:#28150a"/></g><g style="isolation:isolate"><polygon points="283.9 328.45 311.58 312.47 314.13 313.95 283.9 331.41 283.9 328.45" style="fill:#412210"/><polygon points="283.9 331.41 314.13 313.95 314.58 316.02 283.9 333.66 283.9 331.41" style="fill:#28150a"/></g><g style="isolation:isolate"><polygon points="280.14 309.7 307.81 293.72 310.36 295.2 280.14 312.66 280.14 309.7" style="fill:#412210"/><polygon points="280.14 312.66 310.36 295.2 310.81 297.26 280.14 314.91 280.14 312.66" style="fill:#28150a"/></g><g style="isolation:isolate"><polygon points="276.34 290.76 304.01 274.77 306.56 276.25 276.34 293.7 276.34 290.76" style="fill:#412210"/><polygon points="276.34 293.7 306.56 276.25 307.01 278.3 276.34 295.95 276.34 293.7" style="fill:#28150a"/></g><g style="isolation:isolate"><polygon points="272.73 271.75 300.41 255.78 302.98 257.27 272.73 274.71 272.73 271.75" style="fill:#412210"/><polygon points="272.73 274.71 302.98 257.27 303.42 259.32 272.73 276.97 272.73 274.71" style="fill:#28150a"/></g><g style="isolation:isolate"><polygon points="268.91 252.81 296.59 236.82 299.15 238.3 268.91 255.76 268.91 252.81" style="fill:#412210"/><polygon points="268.91 255.76 299.15 238.3 299.58 240.36 268.91 258.02 268.91 255.76" style="fill:#28150a"/></g><g style="isolation:isolate"><polygon points="261.97 229.19 259.42 227.71 295.12 406.26 297.67 407.75 261.97 229.19" style="fill:#331b0d"/><polygon points="266.04 226.84 263.48 225.36 259.42 227.71 261.97 229.19 266.04 226.84" style="fill:#412210"/><polygon points="261.97 229.19 297.67 407.75 301.73 405.39 266.04 226.84 261.97 229.19" style="fill:#28150a"/></g><path d="M327.8,351.41c-1.06,1.45-.43,2.83-.53,4.9l-.88,0c-.06-.76,0-3.17-.5-4.3a1.84,1.84,0,0,0-.44-.63Z" transform="translate(0.4 -0.93)" style="fill:#1a4b6c"/><path d="M317.48,345.77A40.14,40.14,0,0,0,318,338c0-1-.77-24.36-1.09-31.31l11.37-5.19c.25,4.45,1.45,20.51-.78,29.93-.33,1.34-1.6,7.61-1.79,9.13a9.16,9.16,0,0,0,.46,4.57c.16.36.65,1.42.81,1.94s0,.76.16,1.17c.32.92.37.6-.35.85-.46.18-1,.23-1.52.39a5.46,5.46,0,0,0-1.64,1c-.83.58-1.92.92-2.48,1.78s-.3,1.95-.65,2.8a2.09,2.09,0,0,1-2,1.47h-.07l-2.61-.73a5.28,5.28,0,0,1-1-.72,8.46,8.46,0,0,1-.91-.91c.25-.14,1-2.25,1.28-2.41S317.11,348.17,317.48,345.77Z" transform="translate(0.4 -0.93)" style="fill:#e9c2b0"/><path d="M313.61,351.91l2-.8a.76.76,0,0,0,.42.88,5,5,0,0,0,.55.21,3.83,3.83,0,0,0,1.48.19,3.71,3.71,0,0,0,2.23-1.09,21.7,21.7,0,0,1,5.2-3.72c.65-.33,1.28-1.33,1.42-1.11a10.12,10.12,0,0,1,1.13,2.26c.28,1.32.53,2.74-.14,3.46a2.91,2.91,0,0,1-2.92.58,3.85,3.85,0,0,0-2.82,0c-1,.77,0,4.4-1.78,4.08a47.23,47.23,0,0,1-5-1.2,18.2,18.2,0,0,1-2.4-.81,3.73,3.73,0,0,1-1.4-.83C310.44,352.62,313,352.13,313.61,351.91Z" transform="translate(0.4 -0.93)" style="fill:#002f58"/><path d="M293.69,224l-8.31,2-3.13,2.65c-.26.28-1.75,1.56-1.52,2.64.15.72,1.45,4.7,2.72,4,.85-.46,7.21-5.19,7.21-5.19.47-.28,2.07-.56,2.29-.91l1.45-2.34Z" transform="translate(0.4 -0.93)" style="fill:#e9c2b0"/><path d="M297,221a6.58,6.58,0,0,0-6.54,6.6h0a6.56,6.56,0,0,0,6.65,6.5l12.76-1.59a6.59,6.59,0,0,0,6.54-6.62h0a6.56,6.56,0,0,0-6.63-6.51Z" transform="translate(0.4 -0.93)" style="fill:#00a7e1"/><path d="M305.9,222.13c0-.68,5.3-2.77,5.89-2.31,2.23,1.76,4.89-.54,6.46-1.36a3.38,3.38,0,0,0,1.65-2.24,1.29,1.29,0,0,1,.46,0,3.44,3.44,0,0,1,1.92,1.08c2,2.2,3.25,6.5-5,8.11a12.28,12.28,0,0,1-7.51-.79C307.89,223.69,304.12,223.91,305.9,222.13Z" transform="translate(0.4 -0.93)" style="fill:#fff"/><path d="M312.47,357c-1.06,1.45-.45,2.84-.52,4.89l-.9,0a16.25,16.25,0,0,0-.49-4.32,2.3,2.3,0,0,0-.43-.62Z" transform="translate(0.4 -0.93)" style="fill:#063e70"/><path d="M302.14,351.35a40.78,40.78,0,0,0,.56-7.77c0-1-.77-24.36-1.1-31.32L313,307.08c.24,4.45,1.44,20.52-.81,29.94-.31,1.33-1.57,7.58-1.78,9.13a9.2,9.2,0,0,0,.46,4.55c.14.37.65,1.41.81,1.94s0,.76.14,1.18c.34.92.39.6-.34.86-.46.16-1,.22-1.51.37a5.55,5.55,0,0,0-1.65,1c-.81.58-1.91.93-2.48,1.78s-.28,2-.65,2.82a2.08,2.08,0,0,1-2,1.44h-.07l-2.61-.73a6.26,6.26,0,0,1-1-.74,7.79,7.79,0,0,1-.9-.9c.24-.15,1-2.27,1.27-2.41S301.76,353.74,302.14,351.35Z" transform="translate(0.4 -0.93)" style="fill:#e9c2b0"/><path d="M298.26,357.5l2-.81a.76.76,0,0,0,.42.88l.57.21a3.86,3.86,0,0,0,1.47.2,3.81,3.81,0,0,0,2.23-1.08,22,22,0,0,1,5.2-3.72c.64-.33,1.28-1.32,1.4-1.12a10.4,10.4,0,0,1,1.15,2.27c.28,1.32.53,2.72-.15,3.46a2.93,2.93,0,0,1-2.92.6,3.87,3.87,0,0,0-2.82,0c-1,.78,0,4.4-1.77,4.09a49.3,49.3,0,0,1-5-1.18c-.78-.24-1.58-.48-2.39-.81a4,4,0,0,1-1.4-.84C295.1,358.19,297.7,357.7,298.26,357.5Z" transform="translate(0.4 -0.93)" style="fill:#002f58"/><path d="M328.94,255.89c-.35-.87-.72-1.74-1.12-2.58-8.38-17.85,2.53-37-7.45-37.1,0,0,4.15,3.89-2.88,6.8s-10.26-1.85-10.26-1.85c-3.36,1.44-11.94,8.18-6.24,23.16,1,2.65.61,8.14-.17,15.44C314.56,265.27,324.22,261.78,328.94,255.89Z" transform="translate(0.4 -0.93)" style="fill:#002f58"/><path d="M328.94,255.89c-4.72,5.89-14.38,9.38-28.12,3.88-1.53,14.2-4.58,35.2-1.81,55.11,3.5,4.46,26.08-.88,31.33-5.54C330.21,304.08,337.52,277.39,328.94,255.89Z" transform="translate(0.4 -0.93)" style="fill:#666"/><path d="M320,218.26c.08,3.67-9.56,4.73-10.36,2.16-.58-1.88-.47-7.41-.47-7.41l10.35-1S320,218.21,320,218.26Z" transform="translate(0.4 -0.93)" style="fill:#d9b4a4"/><path d="M322.22,207.47c-5.31,5.58-7.39,5.48-12.71,1.76s-7.51-9-6.24-16.9c1.35-8.36,11.29-10.48,17.62-6.62C333,193.09,328.82,200.55,322.22,207.47Z" transform="translate(0.4 -0.93)" style="fill:#260905"/><path d="M319.92,202.1c-.32,2.36-1.69,9.31-3.17,10.59-2.07,1.78-8,3-10.69.83-3.64-2.89-3.13-9-3.13-16.58s4.91-9,9.08-5.78S320.92,194.61,319.92,202.1Z" transform="translate(0.4 -0.93)" style="fill:#e9c2b0"/><path d="M328.49,194.44c-.45-3.3-8.34-3.61-8.34-3.61-.57-.45-4-13.08-17.18-2.79-2.74,2.12-1.85,9.57-1.85,9.57s6,.59,6.69,1.18,3.22,4.72,5.33,8.44l.84,1.47c1.13,2,2.49,6.18,7.74,2.72C322.1,211.09,330.88,202,328.49,194.44Z" transform="translate(0.4 -0.93)" style="fill:#260905"/><path d="M313.41,204.47c-.56,1.6-1.32,2.55-2.34,2.43s-1.54-1.21-1.32-2.89,1.68-2.93,2.7-2.78S314,202.66,313.41,204.47Z" transform="translate(0.4 -0.93)" style="fill:#e9c2b0"/><path d="M321.47,220.17c.4-.88.85-1.77,1.31-2.67,11.86-17.91.37-22.19-1.24-24.42-.62-.87.9-5.72,4.76-4.27s12.9,2.33,11.76,22c-.33,5.82-4.54,11.9-.69,17.54,3.54,5.18-16.73,4.64-16.3-5.48C321.12,222,321.38,221.12,321.47,220.17Z" transform="translate(0.4 -0.93)" style="fill:#1b0e0d"/><path d="M273.77,248.27l-3.88-4.18L266,242c-.39-.23-2.57-1.4-3.64-1-.73.29-3,5.25-1.82,6.36.78.73,5.85,3.74,5.85,3.74a11.74,11.74,0,0,1,4.73,1.82l.9.14Z" transform="translate(0.4 -0.93)" style="fill:#e9c2b0"/><path d="M282.62,250.79a6.81,6.81,0,0,0,1.61,9.51h0a6.79,6.79,0,0,0,9.48-1.67l15.56-21.73a6.79,6.79,0,0,0-1.6-9.48h0a6.81,6.81,0,0,0-9.49,1.64Z" transform="translate(0.4 -0.93)" style="fill:#00a7e1"/><path d="M277,246.05a6.58,6.58,0,0,0-8.27,4.26h0a6.59,6.59,0,0,0,4.3,8.26L285.68,261a6.59,6.59,0,0,0,8.29-4.26h0a6.59,6.59,0,0,0-4.32-8.25Z" transform="translate(0.4 -0.93)" style="fill:#00a7e1"/></g></g></svg>