<svg xmlns="http://www.w3.org/2000/svg" xmlns:xlink="http://www.w3.org/1999/xlink" viewBox="0 0 617.11 476.8"><defs><clipPath id="887424d9-4cf5-4b5c-af09-195ff58c40c9" transform="translate(-0.75 -0.7)"><path d="M309.3,283.75l16.91-9.83a.94.94,0,0,0,.38-.9l-16.91,9.83A.94.94,0,0,1,309.3,283.75Z" style="fill:none"/></clipPath><clipPath id="14452a2a-18cc-49d4-b8d9-abe228e7f14c" transform="translate(-0.75 -0.7)"><path d="M495.79,213.72c.5-40.71-27.57-57.85-62.7-38.28s-64,68.45-64.51,109.16,27.57,57.85,62.7,38.28S495.29,254.43,495.79,213.72Z" style="fill:none"/></clipPath></defs><title>mobile_targeting_block</title><g style="isolation:isolate"><g id="428d62b3-9472-4c73-b047-917be4856e50" data-name="Layer 1"><g id="e084e460-1467-423d-bcbf-4b3dc179bfd2" data-name="yellow_brick"><polygon points="309.51 476.8 617.11 299.05 617.11 272.75 617.02 271.55 309.44 93.07 0.55 271.27 0 271.6 0.14 299.05 309.51 476.8 309.51 476.8" style="fill:#002f58"/><polygon points="309.51 476.8 0.14 299.05 0 271.6 309.69 449.48 309.51 476.8" style="fill:#fff;opacity:0.2"/><polygon points="617.11 299.05 309.51 476.8 309.69 449.48 617.02 271.55 617.11 299.05" style="fill:#fff;opacity:0.4"/></g><g id="ec5f33c8-e0da-4e00-b19e-018463a2e1d4" data-name="target_illustration"><path d="M254.71,404a21.16,21.16,0,0,0,10.44-2.6l258.06-149c4-2.31,6.3-5.92,6.31-9.91s-2.27-7.58-6.24-9.89L383.78,151.53a22.21,22.21,0,0,0-20.85,0l-258.06,149c-4,2.31-6.31,5.93-6.31,9.92s2.27,7.58,6.24,9.89l139.48,81.06A21,21,0,0,0,254.71,404Z" transform="translate(-0.75 -0.7)" style="fill:#e6e6e6;mix-blend-mode:multiply"/><g style="isolation:isolate"><path d="M108.18,295.69l139.48,81.06a15.55,15.55,0,0,0,14.12,0l258.06-149c2-1.14,2.95-2.63,2.95-4.12l0,17.33c0,1.49-1,3-2.95,4.12l-258.06,149a15.55,15.55,0,0,1-14.12,0L108.23,313c-1.93-1.12-2.89-2.59-2.9-4.06l0-17.33C105.29,293.1,106.25,294.57,108.18,295.69Z" transform="translate(-0.75 -0.7)" style="fill:#ccc"/></g><path d="M401.69,164.27a.8.8,0,0,0,0,1.52,2.89,2.89,0,0,0,2.62,0,.8.8,0,0,0,0-1.51A2.88,2.88,0,0,0,401.69,164.27Z" transform="translate(-0.75 -0.7)" style="fill:#1f1f1f"/><path d="M108.24,287.51c-3.92,2.26-3.94,5.92-.05,8.18l139.48,81.06a15.55,15.55,0,0,0,14.12,0l258.06-149c3.91-2.26,3.93-5.92,0-8.17L380.41,138.52a15.55,15.55,0,0,0-14.11,0Zm171,69.92-137.61-80,218.76-126.3L498,233.61,279.24,357.43Zm-76.08-21L177.67,321.6c-3.88-2.25-3.86-5.91,0-8.17a15.56,15.56,0,0,1,14.1,0l25.49,14.82c3.88,2.25,3.85,5.92,0,8.17a15.55,15.55,0,0,1-14.1,0ZM416.73,170l48.93,28.44c1.43.83,1.42,2.17,0,3a5.71,5.71,0,0,1-5.19,0L411.52,173c-1.43-.83-1.41-2.17,0-3a5.7,5.7,0,0,1,5.18,0Zm90.95,55.86a10.59,10.59,0,0,1-9.61,0c-2.64-1.54-2.63-4,0-5.56a10.59,10.59,0,0,1,9.61,0c2.64,1.54,2.63,4,0,5.56Zm-106-61.59a2.88,2.88,0,0,1,2.62,0,.8.8,0,0,1,0,1.51,2.89,2.89,0,0,1-2.62,0,.8.8,0,0,1,0-1.52Z" transform="translate(-0.75 -0.7)" style="fill:#e9e9e9"/><path d="M411.55,170c-1.44.83-1.45,2.17,0,3l48.93,28.44a5.71,5.71,0,0,0,5.19,0c1.44-.83,1.45-2.17,0-3L416.73,170A5.7,5.7,0,0,0,411.55,170Z" transform="translate(-0.75 -0.7)" style="fill:#bfbfbf"/><path d="M501.93,222.52a.59.59,0,0,0,0,1.11,2.1,2.1,0,0,0,1.92,0,.59.59,0,0,0,0-1.11A2.13,2.13,0,0,0,501.93,222.52Z" transform="translate(-0.75 -0.7)" style="fill:#1f1f1f"/><path d="M498.1,220.3c-2.66,1.54-2.67,4,0,5.56a10.59,10.59,0,0,0,9.61,0c2.66-1.54,2.67-4,0-5.56A10.59,10.59,0,0,0,498.1,220.3Zm5.74,3.34a2.1,2.1,0,0,1-1.92,0,.59.59,0,0,1,0-1.11,2.13,2.13,0,0,1,1.92,0,.59.59,0,0,1,0,1.11Z" transform="translate(-0.75 -0.7)" style="fill:#878787"/><path d="M177.72,313.43c-3.9,2.25-3.92,5.91,0,8.17l25.49,14.82a15.55,15.55,0,0,0,14.1,0c3.9-2.25,3.92-5.91,0-8.17l-25.49-14.82A15.56,15.56,0,0,0,177.72,313.43Zm27.61,21.73-25.49-14.82c-2.69-1.56-2.68-4.1,0-5.67a10.79,10.79,0,0,1,9.78,0l25.49,14.82c2.69,1.56,2.68,4.1,0,5.67a10.79,10.79,0,0,1-9.78,0Z" transform="translate(-0.75 -0.7)" style="fill:#c9c9c9"/><path d="M179.87,314.68c-2.71,1.56-2.72,4.1,0,5.67l25.49,14.82a10.79,10.79,0,0,0,9.78,0c2.71-1.56,2.72-4.1,0-5.67l-25.49-14.82A10.79,10.79,0,0,0,179.87,314.68Z" transform="translate(-0.75 -0.7)" style="fill:#f5f5f5"/><polygon points="278.49 359.21 497.25 232.91 359.64 152.94 138.29 278.3 278.49 359.21" style="fill:#002f58"/><g style="mix-blend-mode:multiply"><path d="M259.53,255c-2.06,1.19-2.06,3.12,0,4.3l11.72,6.81-10.9,6.37c-2.44,1.42-2.58,3.94-.38,5.48,6.21,4.35,21.66,14.11,25.18,12.11,13.58,6.92,26.09,15,33.48,19.56,42.72,26.44,31.94,47.24,29,59.39-1.18,4.85,9,7.77,15,4.3l60.66-35,60.66-35c6-3.47,1-9.37-7.38-8.7-21,1.68-56.92,7.86-102.43-17-7.88-4.3-21.77-11.57-33.66-19.46,3.46-2-13.35-11-20.83-14.63a11.59,11.59,0,0,0-9.46.2l-11,6.29-11.72-6.81a8.2,8.2,0,0,0-7.44,0l-10.21,5.89Z" transform="translate(-0.75 -0.7)" style="fill:#d9d9d9"/></g><g style="isolation:isolate"><path d="M296.21,251.33a.88.88,0,0,1,.85.05l1.64.85a1.45,1.45,0,0,0,1.42.09l-16.91,9.83a1.45,1.45,0,0,1-1.42-.09l-1.64-.85a.88.88,0,0,0-.85-.05Z" transform="translate(-0.75 -0.7)" style="fill:#fff"/><g style="isolation:isolate"><g style="clip-path:url(#887424d9-4cf5-4b5c-af09-195ff58c40c9)"><g style="isolation:isolate"><path d="M309.3,283.75l16.91-9.83a.94.94,0,0,0,.38-.9l-16.91,9.83a.94.94,0,0,1-.38.9Z" transform="translate(-0.75 -0.7)" style="fill:#858585"/></g></g></g><polygon points="308.93 282.15 325.85 272.32 325.73 269.08 308.81 278.91 308.93 282.15" style="fill:#7a7a7a"/><path d="M323.81,266.75l1.45.92a2.85,2.85,0,0,1,1.21,2.11l-16.91,9.83a2.85,2.85,0,0,0-1.21-2.11l-1.45-.92Z" transform="translate(-0.75 -0.7)" style="fill:#e6e6e6"/><path d="M304.7,263c0-13.08.63-32.94.66-34l16.91-9.83c0,1-.62,20.91-.66,34,0,5.22.08,8.31.17,10.1a4.76,4.76,0,0,0,2,3.46l-16.91,9.83a4.76,4.76,0,0,1-2-3.46C304.78,271.33,304.69,268.24,304.7,263Z" transform="translate(-0.75 -0.7)" style="fill:#757575"/><path d="M278.65,264.86a2.82,2.82,0,0,0,1.29,2.39l28.43,16.42c.74.43,1.34.06,1.3-.81l-.12-3.24a2.85,2.85,0,0,0-1.21-2.11l-1.45-.92a4.76,4.76,0,0,1-2-3.46c-.1-1.79-.19-4.88-.17-10.1,0-13.08.63-32.94.66-34l-25.73-14.86c.32.55,6.45,11,6.72,20.18.46,16-1.78,22.12-2.55,26.83-.17,1-1,1.41-2,.88l-1.64-.85c-.64-.33-1.16-.06-1.22.63Z" transform="translate(-0.75 -0.7)" style="fill:#f5f5f5"/><polygon points="304.61 228.33 321.53 218.5 295.8 203.64 278.88 213.47 304.61 228.33" style="fill:#dbdbdb"/></g><path d="M316.32,235.42c.07.26,1.33,5.19,2.76,9.38a35.67,35.67,0,0,0,3.54,7c.49.77.49,1.62.05,1.87L316,257.6c.44-.25.44-1.1-.05-1.87a35.67,35.67,0,0,1-3.54-7c-1.44-4.19-2.7-9.12-2.76-9.38Z" transform="translate(-0.75 -0.7)" style="fill:#b03478"/><path d="M309.63,239.31l0,16.38a5.47,5.47,0,0,0,1.38,1.12,7.56,7.56,0,0,0,4.85.86c.6-.12.67-1.07.12-1.93a35.67,35.67,0,0,1-3.54-7C311,244.5,309.7,239.57,309.63,239.31Z" transform="translate(-0.75 -0.7)" style="fill:#b03478"/><g style="isolation:isolate"><path d="M313.89,227.13c0,.16.44,3.24.59,4.32a5.82,5.82,0,0,0,2.6,4.5l-42.29-24.57a5.82,5.82,0,0,1-2.6-4.5c-.15-1.08-.57-4.16-.59-4.32Z" transform="translate(-0.75 -0.7)" style="fill:#616161"/><polygon points="337.22 212.53 294.93 187.96 270.86 201.86 313.14 226.43 337.22 212.53" style="fill:#dcdcdc"/><path d="M313.89,227.13c0,.16.44,3.24.59,4.32.66,4.87,4.58,6.51,9.19,3.85L338,227l0-13.8Z" transform="translate(-0.75 -0.7)" style="fill:#474747"/></g><path d="M264.3,175.4l.45.29Z" transform="translate(-0.75 -0.7)" style="fill:#fff"/><path d="M264.25,175.37l0,0Z" transform="translate(-0.75 -0.7)" style="fill:#fff"/><path d="M259.67,158.18c.26-.92.52-1.86.83-2.63.15-.39.34-.91.51-1.29.76-1.7.76-1.7,1.2-2.53s.44-.83,1.43-2.42c.22-.36.55-.81.79-1.15s1.09-1.46,1.77-2.24a27.93,27.93,0,0,1,2-2.05,23,23,0,0,1,2.24-1.85c.32-.22.73-.52,1.05-.72s1-.62,1.46-.85a17,17,0,0,1,3.15-1.3,14,14,0,0,1,2.86-.53,14.91,14.91,0,0,1,1.52,0c.27,0,.63.05.89.08a10.79,10.79,0,0,1,2.14.49c.36.12.84.32,1.19.48s.53.28.75.4c-2.6-1.51-6.17-1.34-10.14.87-8.07,4.5-14.71,15.73-14.82,25.08-.05,4.45,1.38,7.68,3.77,9.35l-.6-.41c-.21-.15-.46-.37-.65-.54a11.07,11.07,0,0,1-1.25-1.32,12.33,12.33,0,0,1-2.09-3.92,15,15,0,0,1-.6-2.64c-.07-.47-.12-1.09-.15-1.56s0-.85,0-1.21A23.77,23.77,0,0,1,259.67,158.18Z" transform="translate(-0.75 -0.7)" style="fill:#b03478"/><path d="M275.31,140.93c4-2.21,7.55-2.38,10.14-.87l12.29,7.14c-2.6-1.51-6.17-1.34-10.14.87-8.07,4.5-14.71,15.73-14.82,25.08-.06,4.75,1.58,8.11,4.26,9.67l-12.29-7.14c-2.68-1.56-4.32-4.92-4.26-9.67C260.6,156.66,267.24,145.43,275.31,140.93Z" transform="translate(-0.75 -0.7)" style="fill:#f0f0f0"/><path d="M259.34,181.87c0-.81.08-1.9.15-2.7s.2-2.13.36-3c.3-1.71.76-4,1.16-5.67.21-.92.57-2.13.87-3a60.45,60.45,0,0,1,2.13-5.78c.38-.85.85-2,1.27-2.84s1-2,1.41-2.79,1.06-1.93,1.54-2.74a67.62,67.62,0,0,1,9.42-12.46c.62-.64,1.47-1.49,2.12-2.1s1.69-1.51,2.43-2.15a34.54,34.54,0,0,1,2.8-2.17c1.32-.91,3.1-2.1,4.5-2.88.85-.47,2-1.05,2.89-1.46.63-.3,1.49-.65,2.14-.89a32,32,0,0,1,3.78-1.17c.58-.13,1.35-.31,1.93-.4.89-.13,2.07-.29,3-.33a22.74,22.74,0,0,1,4.3.18,19.9,19.9,0,0,1,3.92.94c.44.16,1,.39,1.45.57s1.18.52,1.68.75c2.56,1.17,4.51,2.16,4.88,2.35,2.78,1.42,3.73,1.94,5.44,2.9,1.42.79,2.71,1.57,3.74,2.2,1.37.84,2.16,1.38,3.73,2.45.63.43,1.44,1,2,1.5a37.24,37.24,0,0,1,4.41,4,20.44,20.44,0,0,1,1.46,1.69c.71,1,1.61,2.3,2.22,3.33a27.32,27.32,0,0,1,1.87,4.38,28.41,28.41,0,0,1,1.13,5,53.74,53.74,0,0,1,.34,5.52,48.42,48.42,0,0,1-1,8.9,61.34,61.34,0,0,1-2.56,9c-.34.89-.77,2.08-1.16,2.95s-.9,2-1.31,2.91-1,2-1.44,2.86-1.08,2-1.57,2.8-1.17,1.92-1.69,2.73-1.79,2.75-3.72,5.18c-.59.74-1.39,1.72-2,2.43s-1.48,1.62-2.11,2.31-1.52,1.54-2.2,2.18c-1.32,1.24-3.2,2.76-4.62,3.88a28,28,0,0,1-2.45,1.71c-1.14.7-2.65,1.64-3.85,2.22a50.37,50.37,0,0,1-5,2,17.76,17.76,0,0,1-2.44.66,36.92,36.92,0,0,1-4.76.61,20.16,20.16,0,0,1-2.3,0,34.23,34.23,0,0,1-3.66-.54c-.78-.17-1.82-.44-2.58-.69-1.23-.41-2.85-1-4-1.51-.14-.06-1.44-.59-4-1.9-1.15-.59-1.61-.85-3.82-2.09,0,0-1.32-.74-3.64-2.19-1.45-.9-2.81-1.8-3.4-2.19-2.3-1.52-5.29-3.64-6.52-4.62-.37-.29-.84-.7-1.18-1-.53-.53-1.21-1.26-1.7-1.83a22.66,22.66,0,0,1-2.46-3.69,26.15,26.15,0,0,1-2-5c-.18-.58-.39-1.36-.5-2-.22-1.09-.47-2.55-.6-3.65A42.88,42.88,0,0,1,259.34,181.87Zm56.61,33.57c16-8.92,29.17-31.2,29.4-49.75h0c.23-18.56-12.57-26.37-28.58-17.45s-29.17,31.2-29.4,49.75S299.94,224.37,315.95,215.45Z" transform="translate(-0.75 -0.7)" style="fill:#b03478"/><path d="M327.27,207c-.63.69-1.52,1.54-2.2,2.18-1.32,1.24-3.2,2.76-4.62,3.88a28,28,0,0,1-2.45,1.71c-1.14.7-2.65,1.64-3.85,2.22a50.37,50.37,0,0,1-5,2,17.76,17.76,0,0,1-2.44.66,36.92,36.92,0,0,1-4.76.61,20.16,20.16,0,0,1-2.3,0,34.23,34.23,0,0,1-3.66-.54c-.78-.17-1.82-.44-2.58-.69-1.23-.41-2.85-1-4-1.51-.14-.06-1.44-.59-4-1.9-1.15-.59-1.61-.85-3.82-2.09,0,0-1.32-.74-3.64-2.19-1.45-.9-2.81-1.8-3.4-2.19-2.3-1.52-5.29-3.64-6.52-4.62-.37-.29-.84-.7-1.18-1-.53-.53-1.21-1.26-1.7-1.83a22.66,22.66,0,0,1-2.46-3.69,26.15,26.15,0,0,1-2-5c-.18-.58-.39-1.36-.5-2-.22-1.09-.47-2.55-.6-3.65a42.88,42.88,0,0,1-.22-5.47c0-.81.08-1.9.15-2.7s.2-2.13.36-3c.3-1.71.76-4,1.16-5.67.21-.92.57-2.13.87-3,.34-1.05.65-1.95.92-2.7l28,16.15A52.41,52.41,0,0,0,287.37,198c-.23,18.56,12.57,26.37,28.58,17.45a51.74,51.74,0,0,0,14-11.94l.28.16-.86,1C328.77,205.39,327.91,206.3,327.27,207Z" transform="translate(-0.75 -0.7)" style="fill:#e6e6e6;mix-blend-mode:multiply"/><path d="M316.77,148.25c7.64-4.26,14.55-4.7,19.66-2,12.74,8.85,27.09,16,35.27,20.35,2.44,1.25,5.71,2.92,8.26,3.93,1.5.6,3.49,1.41,5,1.93,1.74.59,4.08,1.36,5.87,1.77,1.21.28,2.82.67,4,.89a45.9,45.9,0,0,0,4.8.65c.88,0,2,.14,2.92.15s2.34-.06,3.34-.11a16.35,16.35,0,0,0,1.66-.2,13,13,0,0,0,1.65-.36c-.39.15-.9.38-1.28.56s-.83.43-1.17.62a53.49,53.49,0,0,0-7.26,5c-1.73,1.44-3.94,3.47-5.58,5-.92.87-2.07,2.12-3,3a6.52,6.52,0,0,0,.75-1c.13-.2.3-.47.44-.67a37.12,37.12,0,0,1-3.69,4.24A163,163,0,0,0,361,239.44h0a37.08,37.08,0,0,1-1.86,5.31,5.15,5.15,0,0,1,.36-.72,10,10,0,0,0,.48-1.13c-.55,1.88-1.24,4.39-1.72,6.29-.27,1.09-.58,2.55-.78,3.66-.25,1.39-.56,3.25-.72,4.65s-.3,3.44-.34,4.91c0,.47,0,1.1,0,1.57s.09,1.25.15,1.79a15.81,15.81,0,0,0-.66-2c-.18-.48-.48-1.1-.69-1.57a24.41,24.41,0,0,0-1.57-2.89c-1-1.56-2.42-3.6-3.57-5.06-1-1.29-2.52-2.88-3.63-4.09a64.23,64.23,0,0,0-6.53-6c-2.73-2.17-6.55-4.81-9.44-6.76-7.83-5-21.14-13.88-35.14-20.57-5.05-3.2-8.11-9.74-8-18.9C287.6,179.45,300.76,157.17,316.77,148.25Z" transform="translate(-0.75 -0.7)" style="fill:#fff"/><path d="M361,239.44h0a35.76,35.76,0,0,1-1.84,5.26,7.09,7.09,0,0,1,.35-.67,10,10,0,0,0,.48-1.13c-.55,1.88-1.24,4.39-1.72,6.29-.27,1.09-.58,2.55-.78,3.66-.25,1.39-.56,3.25-.72,4.65s-.3,3.44-.34,4.91c0,.47,0,1.1,0,1.57s.09,1.25.15,1.79a15.81,15.81,0,0,0-.66-2c-.18-.48-.48-1.1-.69-1.57a24.41,24.41,0,0,0-1.57-2.89c-1-1.56-2.42-3.6-3.57-5.06-1-1.29-2.52-2.88-3.63-4.09a64.23,64.23,0,0,0-6.53-6c-2.73-2.17-6.55-4.81-9.44-6.76-7.83-5-21.14-13.88-35.14-20.57-5.05-3.2-8.11-9.74-8-18.9A48.52,48.52,0,0,1,289,186.43l75.76,43.74Q362.72,234.77,361,239.44Z" transform="translate(-0.75 -0.7)" style="fill:#e3e3e3"/><path d="M495.79,213.72c.5-40.71-27.57-57.85-62.7-38.28s-64,68.45-64.51,109.16,27.57,57.85,62.7,38.28S495.29,254.43,495.79,213.72Z" transform="translate(-0.75 -0.7)" style="fill:#ccc"/><path d="M352.81,278.72c.11-2,.24-4.61.43-6.58s.59-4.89.89-7,.8-4.83,1.29-6.86c1-4.09,2.49-9.51,3.7-13.55a161.8,161.8,0,0,1,33.07-56.89c.87-.93,2-2.19,2.9-3.11,1.52-1.56,3.57-3.61,5.16-5.09s3.56-3.24,5.15-4.56,4-3.19,5.7-4.49c1.59-1.18,3.8-2.63,5.43-3.76a61.18,61.18,0,0,1,6.3-3.75c3.21-1.63,7.57-3.65,10.9-5a62.93,62.93,0,0,1,6.32-2c1.5-.41,3.54-.77,5.05-1.1a48.92,48.92,0,0,1,6.41-.72,42.77,42.77,0,0,1,6.79.13,73,73,0,0,1,8.22,1.56,41.09,41.09,0,0,1,6.08,2.34c1.07.48,2.4,1.31,3.43,1.87a41.19,41.19,0,0,1,5.31,3.88,34.24,34.24,0,0,1,4.46,4.49,60.86,60.86,0,0,1,4.8,6.8,41.43,41.43,0,0,1,2.87,5.78c.64,1.69,1.51,3.94,2,5.67.47,1.49,1,3.51,1.31,5a53,53,0,0,1,1.06,6.14c.34,3.61.59,8.45.67,12.08h0c0,2.1-.16,4.91-.33,7s-.43,4.79-.77,6.83-.71,4.73-1.16,6.72-1,4.73-1.55,6.74-1.34,4.82-2,6.86c-1.69,5.53-4.26,11.92-5,13.46-.89,2-2,4.67-3,6.61s-2.25,4.57-3.28,6.5-2.45,4.48-3.57,6.36c-2.24,3.75-5.48,8.59-8,12.19-1.23,1.8-3.06,4.06-4.37,5.8s-6,7.28-9.42,10.82c-1.52,1.55-3.54,3.65-5.17,5.1-3.05,2.71-7.21,6.23-10.43,8.73-1.68,1.31-4,2.9-5.82,4s-4.41,2.76-6.38,3.8c-3.14,1.65-7.46,3.59-10.75,4.91a50.68,50.68,0,0,1-6.45,2c-1.47.35-3.44.84-4.94,1.07-2,.31-4.64.56-6.64.73a45.94,45.94,0,0,1-7-.18,48.14,48.14,0,0,1-8-1.55,36.53,36.53,0,0,1-6.17-2.38,38.91,38.91,0,0,1-5.48-3.22c-.94-.72-2.24-1.63-3.12-2.42a47.84,47.84,0,0,1-4.26-4.24c-.82-1-1.91-2.29-2.63-3.34-1-1.45-2.24-3.44-3.09-5a67.3,67.3,0,0,1-3.76-8.83,42.17,42.17,0,0,1-1.67-6.14c-.33-1.84-.82-4.29-1.07-6.14s-.4-4.17-.55-6A66,66,0,0,1,352.81,278.72Zm78.47,44.16c35.13-19.57,64-68.45,64.51-109.16h0c.5-40.71-27.57-57.85-62.7-38.28s-64,68.45-64.51,109.16S396.16,342.45,431.28,322.88Z" transform="translate(-0.75 -0.7)" style="fill:#b03478"/><path d="M412.81,190.54l-14.91-8.61c.82-.81,1.64-1.6,2.36-2.27s1.89-1.74,2.92-2.64l15.08,8.71Q415.48,188,412.81,190.54Z" transform="translate(-0.75 -0.7)" style="fill:#d9d9d9;mix-blend-mode:multiply"/><g style="mix-blend-mode:screen"><path d="M364.49,281.06a1,1,0,0,0,1-.93c2.72-37.16,23.87-74.41,43.36-92a1,1,0,0,0-1.34-1.48c-19.78,17.86-41.25,55.65-44,93.34a1,1,0,0,0,.92,1.07Z" transform="translate(-0.75 -0.7)" style="fill:#a3a3a3"/></g><g style="mix-blend-mode:screen"><path d="M285.49,208.06l.15,0a.6.6,0,0,0,.43-.73c-3.31-12.77,1.61-28.63,8-38.68a.6.6,0,1,0-1-.64c-6.48,10.27-11.5,26.51-8.1,39.62A.6.6,0,0,0,285.49,208.06Z" transform="translate(-0.75 -0.7)" style="fill:#a3a3a3"/></g><g style="clip-path:url(#14452a2a-18cc-49d4-b8d9-abe228e7f14c)"><path d="M367.2,185c6.5-3.62,12.32-3.7,16.38-.9,2.27,1.59,45.47,31.79,61.86,43.11-3.27-2.26-8-2.19-13.19.73-10,5.6-18.3,19.57-18.45,31.22-.08,6.26,2.21,10.57,5.9,12.35-17.95-8.64-65.57-31.22-68.08-32.41-4.58-2.21-7.42-7.56-7.33-15.33C344.48,209.35,354.73,192,367.2,185Z" transform="translate(-0.75 -0.7)" style="fill:#f7f7f7"/><path d="M432.25,228c5.24-2.92,9.92-3,13.19-.73a16.62,16.62,0,0,1,5.69,6.89,20.42,20.42,0,0,1,.89,2.41c.19.62.38,1.47.5,2.11a14.4,14.4,0,0,1,.21,1.44c.07.89.13,2.09.15,3a27.12,27.12,0,0,1-.27,3.45,30.58,30.58,0,0,1-.66,3.28,34.38,34.38,0,0,1-2.24,6.12c-.21.44-.49,1-.73,1.44s-.54,1-.79,1.41-.6,1-.85,1.38c-.52.84-1.19,1.71-1.9,2.64,0,0-1,1.24-2.16,2.48a29.22,29.22,0,0,1-2.45,2.29,26.93,26.93,0,0,1-2.81,2.07,21.87,21.87,0,0,1-2,1.14,27.26,27.26,0,0,1-2.69,1.19,17.35,17.35,0,0,1-2.52.74,22.64,22.64,0,0,1-2.64.4c-.63,0-1.46,0-2.09,0-.38,0-.89-.06-1.27-.1-.57-.06-1.31-.21-1.87-.33-.36-.08-.84-.23-1.2-.33a19.45,19.45,0,0,1-2.07-.82c-3.69-1.78-6-6.09-5.9-12.35C413.95,247.55,422.21,233.57,432.25,228Zm6.8,37.39c5.78-3.22,10.53-11.26,10.61-18s-4.53-9.51-10.31-6.3-10.53,11.26-10.61,18S433.27,268.59,439,265.37Z" transform="translate(-0.75 -0.7)" style="fill:#fff"/><path d="M450.21,249.27c.07-5.49-3.72-7.81-8.46-5.17s-8.64,9.24-8.7,14.73,3.72,7.81,8.46,5.17S450.14,254.77,450.21,249.27Z" transform="translate(-0.75 -0.7)" style="fill:#b03478"/><path d="M438.82,238.92c3.14-1.75,6-1.89,8-.69a8.67,8.67,0,0,1,3.42,3.72,10.76,10.76,0,0,1,.9,2.63,11.38,11.38,0,0,1,.18,1.14c.05.56.08,1.32.09,1.88a18.23,18.23,0,0,1-.61,4.39,23.55,23.55,0,0,1-1.53,4.17A24.66,24.66,0,0,1,447,260c-.19.27-.71,1-1.4,1.77a20.82,20.82,0,0,1-1.58,1.63,18,18,0,0,1-3.47,2.55,12.81,12.81,0,0,1-3.63,1.4,9.72,9.72,0,0,1-3.4.14,8.81,8.81,0,0,1-1.67-.41,8.6,8.6,0,0,1-1.42-.66c-2.12-1.23-3.42-3.89-3.37-7.65C427.18,251.37,432.43,242.48,438.82,238.92ZM441.5,264c4.74-2.64,8.64-9.24,8.7-14.73s-3.72-7.81-8.46-5.17-8.64,9.24-8.7,14.73S436.76,266.65,441.5,264Z" transform="translate(-0.75 -0.7)" style="fill:#fff"/><path d="M344.3,223.8A39,39,0,0,1,346,213.15l68.59,39.6a29.85,29.85,0,0,0-.83,6.44c-.08,6.26,2.21,10.57,5.9,12.35-17.95-8.64-65.57-31.22-68.08-32.41C347,236.93,344.2,231.58,344.3,223.8Z" transform="translate(-0.75 -0.7)" style="fill:#e6e6e6"/></g><g style="mix-blend-mode:screen"><path d="M448.79,294.61a1,1,0,0,0,.73-.32,137.3,137.3,0,0,0,17.53-23.66c11.22-19,17.52-39.25,17.74-57,.16-12.85-3-23.22-8.92-29.2-4-4-9.12-6-15.35-6a1,1,0,0,0,0,2c5.67,0,10.35,1.83,13.92,5.45,5.53,5.6,8.49,15.46,8.34,27.77-.21,17.46-6.42,37.36-17.46,56.06a135.29,135.29,0,0,1-17.27,23.32,1,1,0,0,0,.73,1.68Z" transform="translate(-0.75 -0.7)" style="fill:#a3a3a3"/></g><polygon points="213.93 10.99 197.83 1.7 195.88 1.06 193.85 0.56 191.75 0.22 189.59 0.03 187.36 0 185.07 0.13 182.72 0.41 180.31 0.86 177.86 1.47 175.36 2.25 172.81 3.2 170.22 4.31 167.6 5.6 164.94 7.06 162.27 8.67 159.65 10.42 157.06 12.29 154.51 14.29 152.01 16.4 149.55 18.62 147.15 20.95 144.8 23.38 142.51 25.89 140.28 28.5 138.11 31.19 136.01 33.96 133.98 36.79 132.03 39.69 130.15 42.66 128.35 45.67 126.64 48.73 125.02 51.84 123.48 54.98 122.04 58.16 120.69 61.36 119.44 64.58 118.3 67.82 117.26 71.06 116.34 74.31 115.52 77.56 114.83 80.8 114.25 84.02 113.79 87.22 113.46 90.41 113.27 93.56 113.2 96.67 113.27 99.7 113.46 102.62 113.79 105.42 114.25 108.1 114.83 110.66 115.52 113.09 116.34 115.39 117.26 117.57 118.3 119.61 119.44 121.53 120.69 123.31 122.04 124.96 123.48 126.47 125.02 127.84 141.11 137.13 139.58 135.76 138.13 134.25 136.79 132.61 135.54 130.82 134.4 128.91 133.36 126.86 132.44 124.69 131.62 122.38 130.92 119.95 130.35 117.39 129.89 114.72 129.56 111.92 129.36 109 129.29 105.96 129.36 102.85 129.56 99.7 129.89 96.52 130.35 93.31 130.92 90.09 131.62 86.85 132.44 83.61 133.36 80.36 134.4 77.11 135.54 73.88 136.79 70.66 138.13 67.45 139.58 64.28 141.11 61.13 142.74 58.03 144.45 54.97 146.25 51.95 148.13 48.99 150.08 46.09 152.11 43.25 154.21 40.48 156.38 37.8 158.61 35.19 160.9 32.67 163.25 30.24 165.65 27.92 168.1 25.7 170.61 23.58 173.16 21.59 175.74 19.71 178.37 17.97 181.03 16.35 183.69 14.89 186.32 13.61 188.91 12.49 191.46 11.55 193.96 10.77 196.41 10.16 198.82 9.71 201.16 9.42 203.46 9.29 205.69 9.33 207.85 9.51 209.95 9.86 211.98 10.35 213.93 10.99" style="fill:#89215f;fill-rule:evenodd"/><path d="M181.78,136.51C210.35,120,233.5,79.92,233.5,46.93S210.35.56,181.78,17.05,130,73.66,130,106.66,153.22,153,181.78,136.51Z" transform="translate(-0.75 -0.7)" style="fill:#b03478;fill-rule:evenodd"/><path d="M181.78,123.53c22.86-13.2,41.39-45.29,41.39-71.69s-18.53-37.11-41.39-23.91-41.41,45.3-41.41,71.72S158.92,136.72,181.78,123.53Z" transform="translate(-0.75 -0.7)" style="fill:#e9e9e9;fill-rule:evenodd"/><path d="M181.77,111.6c17.16-9.91,31.07-34,31.07-53.81S198.93,30,181.77,39.86s-31.07,34-31.07,53.81S164.61,121.51,181.77,111.6Z" transform="translate(-0.75 -0.7)" style="fill:#b03478;fill-rule:evenodd"/><path d="M181.77,52.84c11.46-6.61,20.74-1.25,20.74,12s-9.29,29.31-20.74,35.93S161,102,161,88.77,170.31,59.46,181.77,52.84Z" transform="translate(-0.75 -0.7)" style="fill:#e9e9e9;fill-rule:evenodd"/><path d="M181.77,87.74c-5.74,3.32-10.4.63-10.4-6s4.66-14.7,10.4-18,10.4-.63,10.4,6S187.52,84.42,181.77,87.74Z" transform="translate(-0.75 -0.7)" style="fill:#b03478;fill-rule:evenodd"/><polygon points="213.93 10.99 197.83 1.7 195.88 1.06 193.85 0.56 191.75 0.22 189.59 0.03 187.36 0 185.07 0.13 182.72 0.41 180.31 0.86 177.86 1.47 175.36 2.25 172.81 3.2 170.22 4.31 167.6 5.6 164.94 7.06 162.27 8.67 159.65 10.42 157.06 12.29 154.51 14.29 152.01 16.4 149.55 18.62 147.15 20.95 144.8 23.38 142.51 25.89 140.28 28.5 138.11 31.19 136.01 33.96 133.98 36.79 132.03 39.69 130.15 42.66 128.35 45.67 126.64 48.73 125.01 51.84 123.48 54.98 122.03 58.16 120.69 61.36 119.44 64.58 118.3 67.82 117.26 71.06 116.93 72.22 133.03 81.52 133.36 80.36 134.4 77.11 135.54 73.88 136.79 70.66 138.13 67.45 139.58 64.28 141.11 61.13 142.74 58.03 144.45 54.97 146.25 51.95 148.13 48.99 150.08 46.09 152.11 43.25 154.21 40.48 156.38 37.8 158.61 35.19 160.9 32.67 163.25 30.24 165.65 27.92 168.11 25.69 170.61 23.58 173.16 21.59 175.74 19.71 178.37 17.97 181.03 16.35 183.69 14.89 186.32 13.61 188.91 12.49 191.46 11.55 193.96 10.77 196.41 10.16 198.82 9.71 201.16 9.42 203.46 9.29 205.69 9.33 207.85 9.51 209.95 9.86 211.98 10.35 213.93 10.99" style="fill:#cc4a97;fill-rule:evenodd"/><path d="M181.78,136.51C210.35,120,233.5,79.92,233.5,46.93S210.35.56,181.78,17.05,130,73.66,130,106.66s23.17,46.34,51.74,29.85Zm0-1.39c-27.9,16.11-50.53,3.06-50.53-29.15s22.63-71.41,50.53-87.52,50.51-3.05,50.51,29.18S209.68,119,181.78,135.12Z" transform="translate(-0.75 -0.7)" style="fill:#b03478;fill-rule:evenodd"/><path d="M221,96.52l8.8-3.8c.39-.17.68.09,1,.27l23.66,13.61a1.87,1.87,0,0,1,1,2c-.17.76-2.87,2-3.83,2.5l-2.78,1.5Z" transform="translate(-0.75 -0.7)" style="fill:#b03478;fill-rule:evenodd"/><path d="M220.37,97.9l1.11,9.23c.05.43.42.54.74.73l23.61,13.71a1.87,1.87,0,0,0,2.2-.16c.58-.52.28-3.2.25-4.28l-.09-3.16Z" transform="translate(-0.75 -0.7)" style="fill:#b03478;fill-rule:evenodd"/><path d="M249,115.71l-67.7-39.08a1.45,1.45,0,0,1-.53-2l.48-.83a1.45,1.45,0,0,1,2-.53l67.68,39.11a1.45,1.45,0,0,1,.53,2l-.46.8A1.45,1.45,0,0,1,249,115.71Z" transform="translate(-0.75 -0.7)" style="fill:#2c3e50;fill-rule:evenodd"/></g></g></g></svg>