<svg xmlns="http://www.w3.org/2000/svg" viewBox="0 0 93.17 92.88"><defs><style>.cls-1,.cls-2{fill:#00a7e1;}.cls-2{fill-rule:evenodd;}</style></defs><title>order_icon</title><g id="Layer_2" data-name="Layer 2"><g id="Layer_1-2" data-name="Layer 1"><g id="order_icon"><path class="cls-1" d="M26.77,41.33,29.48,44A18.37,18.37,0,0,1,43.36,28.15L48,23.51l-3.79-3.79A26.49,26.49,0,0,0,21.26,45.17l3.84-3.85A1.19,1.19,0,0,1,26.77,41.33Z"/><path class="cls-1" d="M52.15,24.35l-3.31,3.31A18.37,18.37,0,0,1,65.58,41.6L70,46l4-4a26.5,26.5,0,0,0-25-22.5l3.17,3.17A1.19,1.19,0,0,1,52.15,24.35Z"/><path class="cls-1" d="M43.33,67.54l3.25-3.24A18.36,18.36,0,0,1,29.67,49.22l-3.73-3.74-4.4,4.4a26.5,26.5,0,0,0,25,22.56l-3.24-3.24A1.19,1.19,0,0,1,43.33,67.54Z"/><path class="cls-1" d="M69.13,50.15l-3.06-3.07A18.37,18.37,0,0,1,52,63.83l-4.54,4.54,3.86,3.85A26.5,26.5,0,0,0,74.22,46.72L70.8,50.15A1.19,1.19,0,0,1,69.13,50.15Z"/><path class="cls-2" d="M4.78,46.44A41.81,41.81,0,1,0,46.55,4.76,41.78,41.78,0,0,0,4.78,46.44ZM0,46.44A46.59,46.59,0,1,1,46.55,92.88,46.54,46.54,0,0,1,0,46.44Z"/></g></g></g></svg>