<svg xmlns="http://www.w3.org/2000/svg" viewBox="0 0 101.83 101.83"><defs><style>.cls-1{fill:#d8d8d8;}.cls-2{fill:red;}.cls-3{fill:#fff;}</style></defs><title>purchase_stat</title><g id="Layer_2" data-name="Layer 2"><g id="Layer_1-2" data-name="Layer 1"><path class="cls-1" d="M49.67,101.83A49.67,49.67,0,1,1,99.33,52.17,49.72,49.72,0,0,1,49.67,101.83Zm0-93.33A43.67,43.67,0,1,0,93.33,52.17,43.72,43.72,0,0,0,49.67,8.5Z"/><path class="cls-2" d="M68.37,100.42a5.5,5.5,0,0,1-2.21-10.54A41.17,41.17,0,0,0,49.92,11a5.5,5.5,0,0,1,0-11h0A52.17,52.17,0,0,1,70.58,100,5.49,5.49,0,0,1,68.37,100.42Z"/><path class="cls-3" d="M29.27,67.76V62.87H20.21V58.65L26.75,36h4.79L24.76,58.65h4.5V50h4.5v8.63H36v4.22H33.77v4.88Z"/><path class="cls-3" d="M51.32,60.45V61q0,.33,0,.74a8.66,8.66,0,0,1-.17,1.11,7,7,0,0,1-2.51,3.7A6.74,6.74,0,0,1,44.39,68a6.17,6.17,0,0,1-3.56-1.14,5.85,5.85,0,0,1-2.18-2.35A11.74,11.74,0,0,1,38,62.56a10.13,10.13,0,0,1-.17-2.11V58.61h4.5v1.47c0,.38,0,.75,0,1.11a3.24,3.24,0,0,0,.5,1.38,1.79,1.79,0,0,0,1.71.83,1.91,1.91,0,0,0,1.75-.83,3.91,3.91,0,0,0,.52-2.11V55.57a2.07,2.07,0,0,0-.57-1.66,2.44,2.44,0,0,0-1.11-.57A6.81,6.81,0,0,0,44,53.25h-.81v-4H44q2.84,0,2.84-2.64V42.85a4.7,4.7,0,0,0-.07-1,3,3,0,0,0-.57-.94,1.84,1.84,0,0,0-1.54-.64,2.12,2.12,0,0,0-1.75.7,2.82,2.82,0,0,0-.57,1.83v2.3H37.8V42.82a7,7,0,0,1,1.92-5,6.76,6.76,0,0,1,8.11-1.16,6.22,6.22,0,0,1,2.28,2,7.07,7.07,0,0,1,1,2.11,8.68,8.68,0,0,1,.24,2.06v3.7a5.15,5.15,0,0,1-2.7,4.69,6.65,6.65,0,0,1,2.11,2.11,5.92,5.92,0,0,1,.59,2.87Z"/><path class="cls-3" d="M55.39,37.93a4.59,4.59,0,0,1,6.92-.43,4.7,4.7,0,0,1,1.28,3.32V47a4.56,4.56,0,0,1-.81,2.82,5.59,5.59,0,0,1-1.71,1.56,4,4,0,0,1-2,.5,4.89,4.89,0,0,1-2.51-.66A3.71,3.71,0,0,1,55,49.64a5.94,5.94,0,0,1-.52-1.47A7.12,7.12,0,0,1,54.4,47V40.83a5.63,5.63,0,0,1,.19-1.61A3.42,3.42,0,0,1,55.39,37.93Zm.38,30.49L73.13,35.89h2.56L58.28,68.42ZM59,39.12a1.37,1.37,0,0,0-1.12.52,1.84,1.84,0,0,0-.42,1.19V47q0,1.8,1.59,1.8a1.21,1.21,0,0,0,1.1-.55A2.27,2.27,0,0,0,60.51,47V40.83a1.88,1.88,0,0,0-.4-1.21A1.33,1.33,0,0,0,59,39.12ZM69,54.2a4.63,4.63,0,0,1,7-.43,4.69,4.69,0,0,1,1.29,3.32v6.16a4.54,4.54,0,0,1-.81,2.82,5.6,5.6,0,0,1-1.72,1.56,4.08,4.08,0,0,1-2,.5,5,5,0,0,1-2.53-.66,3.72,3.72,0,0,1-1.57-1.56,5.94,5.94,0,0,1-.52-1.47A7.18,7.18,0,0,1,68,63.25V57.09a5.57,5.57,0,0,1,.19-1.61A3.43,3.43,0,0,1,69,54.2Zm3.65,1.19a1.39,1.39,0,0,0-1.14.52,1.82,1.82,0,0,0-.43,1.19v6.16q0,1.8,1.61,1.8a1.24,1.24,0,0,0,1.11-.54,2.25,2.25,0,0,0,.36-1.26V57.09a1.86,1.86,0,0,0-.4-1.21A1.36,1.36,0,0,0,72.65,55.38Z"/></g></g></svg>