<svg width="480" height="750" id="ec8125cd-dc4a-4afe-8ca0-a6cd20c74b6d" data-name="Layer 1" xmlns="http://www.w3.org/2000/svg" viewBox="0 0 617.11 872.32"><title>purchase_block</title><g id="dae071c8-a486-405f-8ff8-113e6b1f6dff" data-name="blue_brick"><g id="f6c06ec2-96b5-4cab-ad98-9cb79ef3e46a" data-name="purple_brick"><g id="84acb7a2-9dfa-4fb7-87c2-c598d3039a04" data-name="yellow_brick"><polygon points="309.44 871.07 617.11 692.44 617.11 337.28 617.02 335.18 309.44 157.6 0.55 335.81 0 336.13 0 692.44 307.67 870.07 309.44 871.07" style="fill:#002f58"/><polygon points="309.44 872.32 0 693.66 0 336.36 309.44 515.01 309.44 872.32" style="fill:#fff;opacity:0.2"/><polygon points="617.11 693.66 309.67 872.32 309.67 515.01 617.11 336.36 617.11 693.66" style="fill:#fff;opacity:0.4"/></g></g></g><g id="80081e05-eca6-4228-9d7a-6cf34f053890" data-name="purchase_illustration"><g id="246af51e-b64f-40ca-9adf-837fd1d05c0b" data-name="purchase_illustration"><polygon points="316.74 400.64 316.74 400.14 316.73 400.63 316.9 400.83 316.74 400.64" style="fill:#95d669"/><polygon points="318.51 397.67 318.53 397.66 318.53 396.6 318.51 397.08 318.51 397.67" style="fill:#95d669"/><polygon points="219.65 404.13 229.37 398.48 219.62 404.11 219.62 404.4 221.04 405.22 219.65 404.42 219.65 404.13" style="fill:#95d669"/><polygon points="241.85 404.91 241.83 405.07 241.85 405.17 241.86 405.24 241.92 405.04 241.85 405.19 241.85 404.91" style="fill:#95d669"/><polygon points="333.23 385.47 333.23 385.24 333.21 385.44 333.31 385.64 333.23 385.47" style="fill:#95d669"/><polygon points="309.22 397.99 309.2 397.55 309.2 398.74 309.22 399.18 309.22 397.99" style="fill:#95d669"/><polygon points="275.56 426.12 275.53 425.8 275.53 426.18 275.56 426.12" style="fill:#95d669"/><polygon points="330.48 385.26 330.48 386.45 330.5 386.89 330.5 385.7 330.48 385.26" style="fill:#95d669"/><polygon points="311.94 397.53 311.93 397.73 311.94 397.76 311.94 397.53" style="fill:#95d669"/><polygon points="315.83 398.1 315.97 397.91 315.83 398.1 315.83 398.1" style="fill:#95d669"/><polygon points="293.23 415.87 294.44 415.4 293.23 415.87 293.23 415.87" style="fill:#95d669"/><polygon points="385.43 358.87 385.27 358.47 385.41 358.86 385.43 358.87" style="fill:#95d669"/><polygon points="387.08 361.73 387.05 361.42 387.05 361.79 387.08 361.73" style="fill:#95d669"/><polygon points="339.8 385.38 339.82 385.38 339.82 384.31 339.8 384.79 339.8 385.38" style="fill:#95d669"/><polygon points="290.77 414.7 290.77 415.89 291.44 416.05 290.81 415.87 290.77 414.7" style="fill:#95d669"/><polygon points="338.02 388.35 338.02 387.86 338.01 388.34 338.19 388.54 338.02 388.35" style="fill:#95d669"/><polygon points="390.85 357.24 390.83 357.64 391.12 357.93 390.85 357.66 390.85 357.24" style="fill:#95d669"/><polygon points="288.09 411.65 288.11 411.67 287.98 411.5 288.09 411.65" style="fill:#95d669"/><polygon points="391.12 357.93 391.17 357.97 391.12 356.89 391.12 357.93" style="fill:#95d669"/><polygon points="273.91 423.25 273.75 422.85 273.89 423.24 273.91 423.25" style="fill:#95d669"/><polygon points="310.5 418.24 315.69 421.19 310.5 418.19 298.27 416.56 310.5 418.24" style="fill:#95d669"/><polygon points="293.03 415.84 291.69 415.44 291.67 414.27 291.67 415.46 293.03 415.84" style="fill:#95d669"/><polygon points="341.88 388.14 342.11 387.75 341.9 388.09 341.88 388.14" style="fill:#95d669"/><polygon points="263.42 431.2 263.44 431.22 263.44 430.8 263.42 431.2" style="fill:#95d669"/><polygon points="263.71 431.49 263.76 431.53 263.71 430.45 263.71 431.49" style="fill:#95d669"/><polygon points="270.92 431.14 270.92 431.19 271.08 431.06 270.92 431.14" style="fill:#95d669"/><polygon points="362.43 368.73 362.46 368.75 362.33 368.57 362.43 368.73" style="fill:#95d669"/><polygon points="381.46 366.88 378.69 363.94 378.68 363.59 378.68 363.93 381.46 366.88" style="fill:#95d669"/><polygon points="287.02 414.4 285.94 413.74 285.87 413.69 273.88 410.11 266.43 406.52 265.77 406.9 267.85 407.84 268.42 407.52 268.9 408.02 269.13 408.43 276.04 411.56 288.19 415.1 288.11 415.06 287.02 414.4" style="fill:#95d669"/><polygon points="266.6 406.42 266.6 406.13 256.95 411.71 251.92 408.81 251.92 409.09 256.95 412 265.77 406.9 266.43 406.52 266.6 406.42" style="fill:#95d669"/><path d="M174.38,406.74l.94,1.13,1.34,1,1,.58,95.09,54.9,1,.57,1.78.77,2,.55,2.07.31,2.12.08,2.11-.15,2-.38,1.91-.61,1.62-.79,7.48-4.32,17.48-10.09,24.09-13.91,27.31-15.77,27.14-15.67,23.59-13.62,16.64-9.61,6.3-3.64,1.42-1,1-1.11.62-1.18.22-1.22-.18-1.22-.58-1.19-1-1.12-1.38-1L406.3,349.83l.49.69,3.87,7.08,2.06,7.28.25,7.36-1.56,7.32L408,386.72l-5.18,6.86-7,6.45L387,406l-13.78,6.51L358,417.14,343.3,419.7l-61.83,35.7-5.19-3v-.29l54.53-31.48-5.91.35-5.15-.25-3.8,2.19-4.5-2.6-3.39-.17-10.35-1.68-.25.13-.21.11-.61.34-.79.4-.67.23-.46.07h-.43l-.41-.09-.39-.17-.26-.22-.11-.26v-1.19l0-.08-1.46-.23-.66-.16-.64.06-.59-.13-.66-.31-.69-.41L276.3,413l-6.9-3.13.19.32.22.76V412l-.19.76-.4.74-.6.7-.81.65-.58.36-2,1.14-1.57.91-1.7,1-1.63.94L259,420l-.87.5-.23.12-.26-.15-.54-.31-.71-.41-.8-.46-.78-.46-.68-.39-.48-.28-.18-.1v-.29l14.62-8.45-2.08-.94-8.82,5.09-5-2.9v-.29l8.25-4.77-1.78-1.11-8.58,5-4.4-2.54v-.29l8.62-5-1.57-1.23-10.24,5.92-.18.14-.13.15-.06.2.09.16.14.14.18.13,12.57,7.26v.29l-.42.24-1.11.64-1.57.91-1.81,1-1.82,1.05-1.6.92-1.16.67-.49.28-.9-.52-2.69-1.55-3.9-2.25-4.55-2.63-4.62-2.67-4.12-2.38-3-1.76-1.43-.82v-.29l9.76-5.63.17-.1.05,0,5.55,3.2.17.1.24.09.27.06.28,0h.28l.28,0,.27-.06.24-.09.22-.11,10.42-6,.23-.1.72.42-4.26-4.23-3.8-4.9-2.86-5.07-1.93-5.18-1-5.25-.07-5.28.1-1.05-58.14,33.57-1.37.94-1.06,1.1L174,403.1l-.26,1.22.14,1.22ZM232,398.59l.1-.05,3.46-2,.67-.35,1.16-.46,1.25-.34,1.31-.21,1.35-.09,1.35,0,1.33.15,1.29.28.67.26v.29l-.67.39-8.46,4.88-.26.14-.25-.15-.55-.31-.73-.42-.82-.47-.81-.47-.7-.4-.49-.29-.19-.11Zm31.68,39.14-.05.26-.24.23-5.11,3-.4.16-.45,0-.45-.06-.41-.17-.35-.26-.14-.25v-1.19l.06-.25.26-.24.7-.39-.37-.25-1.65-1-2.94-1.57-.39-.11h-.57l-.58,0-.48-.18-.39-.38-.05-.51v-1.19l.21-.48.45-.38.49-.22.47-.09.44,0,.41.17.32.2.58.35.51.31,6.18,3.57.16,0,.22,0,.59-.28.54-.34.24-.17.11-.07.35-.11h.49l.5.07.35.13.27.23.11.26Zm35.9-11.61,5.19,3v.29l-34.15,19.71-5.19-3v-.29Zm-28.18-5.43.05-.27.29-.25.63-.22h.32l.32.05,1.07.49.5.3,1.35.85.5.3.31.15.26.05.26,0,.31-.13.18-.09.09-.05-1.13-.6-.87-.47-.63-.35-.34-.26-.12-.26V418.7l.11-.26.33-.26.48-.19.48,0,.42.11.48.23,1.26.76.73.44.53.31.75.33.27,0,.2-.05.32-.26.22-.2.4-.13h.5l.44.11.4.18.22.19,0,.22v1.19l-.12.24-.16.14.19.12.49.28,1.38.77.49.27.3.24.12.27V425l-.07.26-.26.23-.41.16-.47.07-.47,0-.4-.14-.35-.22-.48-.31-.49-.32-.35-.22-1.51-.83-.11,0-.13,0-.42.13-1.7.85-.21.16-.22.16-.44.17-.48,0-.51-.1-.55-.24-2.1-1.13-2.05-1.16-.32-.25-.15-.27Zm-7.59,4.69.14-.34.35-.39.66-.49,1-.61,1.79-.9.74-.27.64-.14.83,0,.86.13.89.29.92.46.65.42.48.41.31.4.16.4.13,0,.72.06.76.22,1.18.58.65.42.49.4.32.4.15.39v1.52l-.12.34-.6.72-.82.59-1.31.79-1.09.55-.93.31-.77.06-.33-.06-.29-.13-.31-.25-.12-.3v-1.19l.08-.3.3-.26L274,429l1.13-.69.34-.28-.33-.23-.94-.44-.54,0-.48.16-.8.47-.36.22-.15.12-.24.22-.41.31-.43.17-.5.06-.5-.05-.43-.17-.26-.2-.12-.22v-1.19l0-.23.18-.25,1.14-.75.82-.43-.15-.1-.87-.38-.39-.08h-.37l-.65.19-.88.45-1.18.78-.17.14-.24.22-.46.37-.39.15-.44,0-.45-.06-.39-.16-.28-.25-.07-.29ZM256,430l0-.25.17-.28.72-.67,1.24-.8.9-.48.83-.36.76-.24.69-.12h.81l.84.15.86.3.88.44.58.38.44.38.3.39.15.39v1.58l-.14.4-.28.4-.42.4-.45.33-.46.32-.39.33,1,.5.51.14.45-.19.62-.32.6-.33,1.47-.88.11-.09.2-.18.18-.14.17-.11.48-.17.57,0,.52.11.47.21.28.23.08.26v1.19l-.11.26-.29.23v-1l-.16-.07v1.13l-.24.1-.37.16-4.13,2.38-.49.22-.46.08-.47-.05-.5-.2-1.53-.8-.72-.38-.78-.52-.42-.46-.08-.56v-1.19l.36-.61.62-.57.94-.75.42-.4-.21-.18-1-.42-.43-.07h-.4l-.66.22-1,.52-.61.4-.41.38-.63.63-.41.14h-.49l-.42-.1-.39-.17-.22-.19-.1-.22Zm-4.6-11,4.43,2.56v.29l-.22.14-.95.55-1.47.85-7.47,4.31-.63.34-1.12.47-1.21.35-1.28.23-1.31.11h-1.32l-1.31-.12-1.27-.24-.87-.28v-.29ZM238,418.45l5,2.9v.29L233,427.45l-5-2.9v-.29Zm-2.1-1.21v.29l-10.05,5.8-4.4-2.54v-.29l10.05-5.8Zm-11.45-6.61,5,2.86v.29l-10.05,5.8-5-2.86v-.29Zm-13.11,1.59.2-.77.41-.75.63-.71.84-.66.46-.28,3.85-2.22.06,0,4.56,2.63v.29l-6.51,3.76-1.58.91-1.18.68-.55.32-.52-.56-.44-.75-.22-.77v-1.07Z" transform="translate(-0.26 -1.45)" style="fill:#3eb6ff"/><path d="M235.17,372.65l1,5.25,1.93,5.18,2.86,5.07,3.8,4.9,4.26,4.23,4.08,2.36.09.09V400l-.47.27,1.57,1.23,1-.6,4.4,2.54v.29l-1.08.62,1.78,1.11.56-.32-.45-.27-.49-.3-.49-.3.67.11,1.49.35.13-.07.3.17,7.91,1.87,1,.23,2.37-1.08-.33-.14-5.91-1.82-.72-.22,8.75,1.16.3.11,1.15,1.89,6.89-.88.45-.1,5.82-2.23.37-.05,3-.38.24,0,2.6-.81.36.09,3.46.9.33.06,1.15-.2,1.74-1,2.09-1.13.88-.41.66-.19.37,0,.38.05.77.33,8,4.7.31.25.12.28v1.19l-.09.27-.3.25-.47.2-.32,0,.88.65h4.36l.38,0,6.17,1.39,17.61-10.17,5.19,3v.29l-12.31,7.11,5.64,3,12.36-7.14,5.19,3v.29l-11.92,6.88,2.74,1.47-6.86.91-1.65.95L358,417.14l15.28-4.68L387,406l8.81-5.92,7-6.45,5.18-6.86,3.37-7.15,1.56-7.32-.25-7.36-2.06-7.28-3.87-7.08-.49-.69L399.73,346l-.78.58-23.22-6.32,1.51-.49,19.29,5.59.79-.74-39.08-22.56-4.65-1-4.73-.87-4.79-.71-4.84-.56-4.87-.4-4.9-.25-4.91-.09-4.92.06-1-.08-5.12,3,.08,1.56.22,4.68,1.83,4.47,6,1.09,8.13-1.34-1.52-1.33-4.9-4.28,0-.53.1-1.73,9.34,5.39.09.84.26,2.81-1.73,1-6,3.46-.1,1.69-.29,5.93,1.33.25,4.78.82-1.21.71-4.52,2.61,1.69,1,6.42,3.7,1.3-.5,4.81-2-.58-1.44-2.37-5.56.57-.32,2.3-1.09-.11-.35-.5-1.37,1.33.1,5.51.45.86.1,3.37.4-.11.36-.64,1.52.46.06,2,.19.5-.69,2.12-3.11-2-.26-9.18-1,.56-.13,3.26-.56,2.07.31,9.55,1.52.09-.31-.39-1.67-.66-.26-3.24-1.11.29-.2,1.82-.9-.43-.83-2.46-4.18.67-.12,3.84-.12.12-.45.13-2.38.29.1,1.55.89,1,0,5.17-.24,0,.22-.68,1.3-.91.34-5.25,1.77-.55.57-2.24,3.05.77.34,5.19,1.47.89-.35,4.44-2.56.69.32L372.2,338l-.7.58L366,341.75l-1,.29-5.37,1.09,0,.26,1.41,1.5-.63.22-4.91,1.08-.53.15-2.14.69-.64-.23-4-1.93-.92.4-5.45,3.78-.45.45-1.23,1.91-.38.29-2.5,1.45-.16.43-.16,2.83.29.39,2.49,1.87.34.8,1.56,5.92.93.91L349.9,371l1.85.49,9.56,1.27-.77-.47-.78-.46-.33-.25-.16-.27v-1.19l0-.3.29-.26.32-.17.47-.21.49-.22.32-.17,2.08-1.4.14-.11.24-.2.22-.17.19-.13.44-.16.49,0,.49.06.44.17.38.35v1.19l-.07.37L366,369l-.53.34-1.65,1-.45.31.61.4.36.23.43.19.34,0,.66-.34,1.13-.65.26-.16.26-.16.19-.11.62-.3.64-.19H369l1-.95-.44-.24-2.05-1.15-.32-.25-.15-.27v-1.19l.05-.27.29-.25.63-.22h.32l.33.05,1.06.49.5.3,1.35.85.45.27.42-.4.22-.12-.31-.16-.87-.47-.63-.35-.34-.26-.12-.26v-1.19l.11-.26.33-.26.48-.19.48,0,.42.11.48.23,1.26.76.73.44.53.31.75.34.27,0,.2-.05.32-.26.22-.2.4-.13h.5l.44.11.4.19.22.19,0,.22v.35l2.77,2.94,1,.43,8.37,2.16,1,.66,3.52,5.06.76.52,5.16,1.22.8.38,4.19,3,.56.25,2.27-.1-2,4.24L401,394.41l-9,7.6-9.34,5.59-8,3.68-8.56,3.06-4.72,1.24-1.21-1.29.06-.28,2.26-1.93.05-.26-2.23-.85-.13-.17,1.4-1.13.14-.34-.08-3.08-.22-.42-3.16-1.33-.14-.36,3.18-3.18.3-.55-1-2.95-.38-.49-4.2-2.43-.47-.45.59-2.64,0-.42L354,389.26l-.57-.21-5.54.27-.89.12-1.87.8v.2l-.18.38-.4.43-.61.47-.84.52-.9.48-.82.35-.74.22-.66.1-.72,0-.78-.18-.84-.32-.9-.46,0,0-.21.22,1.1.62.31.25.1.28v1.19l-.11.28-.3.25-.43.18-.46.06-.46-.06-.43-.18-3.25-1.84-.28-.06-.32.11-.21.13-.28.19-.48.31-.92.48-.84.36-.77.23-.7.1-.77,0-.81-.18-.87-.32-.91-.47-.78-.51-.54-.48-.29-.46-.05-.43v-.37l-4.16-.52-1-.05-1.86,1.43-.52.29L309.14,395l-1,.39-.44,3.46-.14.58-2,.4-.41.11L303,401.14l-.45.16-2.66-1.62-.54-.29-2.58-.34-.52,0L294,400.35l-.47.18-2.2-2.35-.46-.46-2-.93-.39-.11-.08,2.93,0,.6-1.44,1.59-.34.31h-2.63l-.61,0-3.89-2.64-.8-.58.31-2.39.11-.54,2.67-2,.6-.45,1.72-1.71.43-.36,3.64.93.86.21,3.11-.22.66-.08-4.59-2.64L287,389l.57-3.87.1-.93-3.1-1-.75-.3.73-6.76.2-1.67,2.05.4.53.06,1.31-4.67.32-1.19-3.27,1.32-.87.34-2.7-1.07-.72-.3,1.22-2.43.34-.66,2.07,2,.6.54,6.2-3,1.73-.86-6.68-.51-1.93-.15-.54-1.57-.18-.46-15.15-1.36.76,1.75.23.53-3.21-.88-1-.28,1.4-5.59.44-1.78-8.35-2.28-8.54,4.93,7.63.63,1.37,4.92,3.24-1-1.85,4.33,6.89,4.1,3.56,5.36-7.07-2.55-11.46,1.47-.28-7.68,2.6-.53-2.12-3.11-3.09-5.66-15.09,8.71-.1,1.05Zm154.93-8.3-.12.34-.59.72-.82.59-1.31.79-1.09.55-.93.31-.77.06-.33-.06-.29-.12-.31-.26-.12-.3v-1.19l.08-.3.3-.25,1.69-.6,1.12-.69.34-.28-.33-.23-.94-.44-.54,0-.48.16-.8.47-.36.22-.15.12-.23.21-.41.31-.43.17-.49.06-.49-.05-.43-.17-.26-.2-.12-.22v-1.19l0-.23.18-.25,1.15-.75.81-.43-.15-.1-.87-.38-.4-.08h-.36l-.65.19-.88.45-1.17.78-.17.14-.23.22-.46.37-.39.15-.45,0-.45-.06-.39-.16-.28-.25-.07-.29V361l.14-.34.35-.39.66-.49,1-.61,1.79-.91.74-.27.64-.14.84,0,.86.13.89.3.92.46.66.42.48.41.31.4.16.4.13,0,.72.06.76.22,1.19.58.65.42.49.4.32.4.15.39v1.52Zm11.56-4.55-2.52-.61v.47l-.11.26-.28.23-.16.07-.24.1-.37.16-4.13,2.38-.49.22-.46.08-.47-.05-.5-.2-1.53-.79-.72-.39-.78-.52-.42-.46-.08-.56V359l.36-.61.62-.57.94-.75.42-.4-.21-.18-1-.42-.43-.07h-.4l-.66.22-1,.52-.61.4-.4.38-.64.63-.41.14h-.49l-.42-.1-.39-.18-.22-.18-.1-.22v-1.19l0-.25.16-.28.72-.67,1.24-.8.89-.48.83-.36.76-.24.69-.12h.81l.84.15.86.3.88.44.58.38.44.38.3.39.15.39v1.58l-.13.4-.28.4-.42.4-.45.33-.46.32-.39.33,1,.5.51.14.45-.18.62-.33.6-.33,1.46-.88.11-.09.2-.18.18-.14.16-.11.48-.17.57,0,.31.06,2.24-1.29,2.46,1.42Zm5.26-2.37.15-5,.33.53.48.84.46.84.43.85.4.85.38.85.35.85.33.85.19.56ZM309.46,399l.19-.38.39-.42.58-.46.78-.49.85-.45.79-.33.73-.21.67-.1.74,0,.77.16.81.3.85.43.82.54.37.43v1.06l.8-.14.82,0,.73.22,1,.5.81.52.56.49.31.45.06.41v1.19l-.18.38-.4.43-.61.48-.84.52-.9.48-.82.35-.74.22-.66.1-.72,0-.78-.18-.84-.32-.9-.47-.85-.58-.32-.46v-1l-.69.15-.49,0-.45,0-.76-.23-1-.49-.74-.49-.5-.47-.26-.45,0-.44Zm-43-20.19,6.75.22,2.38,1.18,4.13-2-2.26,5.23-5-2.06,2.19,5.41-5.11-5.09L265.64,384Z" transform="translate(-0.26 -1.45)" style="fill:#002f58"/><polygon points="348.8 414.92 360.72 408.04 360.72 407.75 355.53 404.76 343.16 411.89 331.49 418.63 330.54 419.18 276.02 450.66 276.02 450.95 281.2 453.94 343.04 418.25 344.68 417.3 348.8 414.92" style="fill:#002f58"/><polygon points="351.54 416.39 348.8 414.92 344.68 417.3 351.54 416.39" style="fill:#3eb6ff"/><path d="M267.32,356.4l-1.4,5.59,1,.28,3.21.88-.23-.53-.76-1.75,15.15,1.36.18.46.54,1.57,1.93.15,6.68.51-1.73.86-6.2,3-.6-.54-2.07-2-.34.66-1.22,2.43.72.3,2.7,1.07.87-.34,3.27-1.32-.32,1.19-1.31,4.67-.53-.06-2.05-.4-.2,1.67-.73,6.76.75.3,3.1,1-.1.93L287,389l1.06.66,4.59,2.64-.66.08-3.11.22-.86-.21-3.64-.93-.43.36-1.72,1.71-.6.45-2.67,2-.11.54-.31,2.39.8.58,3.89,2.64.61,0h2.63l.34-.31,1.44-1.59,0-.6.08-2.93.39.11,2,.93.46.46,2.2,2.35.47-.18,2.27-1.31.52,0,2.58.34.54.29,2.66,1.62.45-.16,2.13-1.23.41-.11,2-.4.14-.58.44-3.46,1-.39,6.15-1.65.52-.29,1.86-1.43,1,.05,4.16.52v-.82L323,391l.39-.44.6-.48.83-.52.87-.47.8-.34.72-.22.65-.1.7,0,.75.17.8.31.85.45,3.05,1.77,2.56,1.44.21-.22-.8-.55-.32-.46v-1l-.69.15-.49,0-.45,0-.76-.23-1-.49-.74-.49-.5-.47-.26-.46,0-.44v-1.19l.19-.39.39-.42.58-.45.78-.49.85-.45.79-.33.73-.21.67-.1.74,0,.77.16.81.3.85.43.82.54.37.43v1.06l.8-.14.82,0,.73.22,1,.5.81.52.56.49.31.45.06.41v1l1.87-.8.89-.12,5.54-.27.57.21,2.07,1.77,0,.42-.59,2.64.47.45,4.2,2.43.38.49,1,2.95-.3.55-3.18,3.18.14.36,3.16,1.33.22.42.08,3.08-.14.34-1.4,1.13.13.17,2.23.85-.05.26L360.24,414l-.06.28,1.21,1.29,4.72-1.24,8.56-3.06,8-3.68L392,402l9-7.6,6.36-8.22,2-4.24-2.27.1-.56-.25-4.19-3-.8-.38-5.16-1.22-.76-.52-3.52-5.06-1-.66-8.37-2.16-1-.43-2.78-2.95v.84l-.12.24-.16.14.19.12.49.28,1.39.77.49.27.3.24.12.27v1.19l-.06.26-.27.23-.4.16-.47.07-.47,0-.4-.14-.35-.22-.48-.31-.49-.32-.35-.22-1.51-.83-.11,0-.14,0-.42.13-1.69.85-.21.16-.22.16-.44.17-.48,0-.52-.1-.55-.24-1.66-.89-1,.95.54-.06.67,0,1.12.32,1.26.62.75.48.54.46.33.44.12.42v1.19l-.09.43-.3.45-.51.46-.73.48-.83.45-.21.11-.61.34-.79.39-.67.23-.46.08h-.43l-.41-.09-.38-.17-.27-.22-.1-.27V374.9l.07-.27.26-.22,1.23-.48,1.37-.57.65-.44-.58-.4-.37-.15-.45-.07-.45,0-.39.13-1.11.58-.61.33-.25.16-.29.23-.28.22-.22.14-.67.28-.64.06-.59-.12-.66-.31-.77-.46-1.08-.66-.32-.19-9.56-1.27L349.9,371l-7.34-4.67-.93-.91-1.56-5.92-.34-.8-2.49-1.87-.29-.39.16-2.83.16-.43,2.5-1.45.38-.29,1.23-1.91.45-.45,5.45-3.78.92-.4,4,1.93.64.23,2.14-.69.53-.15,4.91-1.08.63-.22-1.41-1.5,0-.26L365,342l1-.29,5.47-3.16.7-.58-3.39-2.71-.69-.32-4.44,2.56-.89.35-5.19-1.47-.77-.34,2.24-3.05.55-.57,5.25-1.77.91-.34.68-1.3,0-.22-5.17.24-1,0-1.55-.89-.29-.1-.13,2.38-.12.45-3.84.12-.67.12,2.46,4.18.43.83-1.82.9-.29.2,3.24,1.11.66.26.39,1.67-.09.31-9.55-1.52-2.07-.31-3.26.56-.56.13,9.18,1,2,.26-2.12,3.11-.5.69-2-.19-.46-.06.64-1.52.11-.36-3.37-.4-.86-.1-5.51-.45-1.33-.1.5,1.37.11.35-2.3,1.09-.57.32,2.37,5.56.58,1.44-4.81,2-1.3.5-6.42-3.7-1.69-1,4.52-2.61,1.21-.71-4.78-.82-1.33-.25.29-5.93.1-1.69,6-3.46,1.73-1-.26-2.81-.09-.84-9.34-5.39-.1,1.73,0,.53,4.9,4.28,1.52,1.33-8.13,1.34-6-1.09-1.83-4.47-.22-4.68-.08-1.56-28.77,16.61L280.79,346l4.27,6.89L273.29,354l-8.41-4.86-5.46,3.15,8.35,2.28Zm78.4,21.33.11-.28.31-.25.43-.18L347,377l.47.06.43.18L351.2,379l.29.08.28-.08.18-.13.24-.18.25-.18.18-.12.93-.49.85-.36.78-.24.7-.11.79,0,.84.17.87.32.92.47.74.49.51.48.28.47,0,.45v1.19l-.16.42-.36.44-.57.47-.77.49-.77.39-.77.28-.76.18L356,384l-.76,0-.76-.14-.75-.25-.75-.36-6.81-3.79-.31-.25-.1-.28Zm-7.8,4.67.09-.27.27-.24,2-1.17,2.09-1.13.88-.41.66-.19.37,0,.38.05.77.33,8,4.7.31.26.12.28v1.19l-.09.28-.3.25-.47.2-.46.07-.46-.07-.45-.21-3.65-2.1-3.66-2-.29-.11-.29,0-.29.05-.3.14-3.11,1.82-.42.18-.46.06-.47-.06-.43-.18-.27-.23-.09-.27Zm7.78-39.05.42,1.8-5.06-.75-.48-2.65Zm-28.46,1.57-4.3-2.48,1-2,2.81.84,2.54,2.47Zm-4-8.53,2.27,1.31,8.82,1.52-1.41,4.65-3.63-1.08-1.2-2.37-7.4-.36-.21-2.84Zm-15.7-1.21.22,3.43-1.88,1.65-7.8.38Z" transform="translate(-0.26 -1.45)" style="fill:#3eb6ff"/><polygon points="372.33 365.46 372.59 365.42 372.89 365.3 373.08 365.21 373.17 365.15 372.35 364.71 372.12 364.83 371.7 365.22 372.07 365.4 372.33 365.46" style="fill:#95d669"/><path d="M266.86,407.88l-.17.1,7.46,3.59,12,3.58-.71-.42-.33-.25-.16-.27V413l0-.3.29-.26.32-.17.47-.21.49-.22.32-.17,2.08-1.4.14-.11.23-.2.22-.16.19-.13.44-.16.49,0,.5.06.44.17.38.35v1.19l-.07.37-.27.26-.52.34-1.65,1-.45.31.61.4.37.23.43.19.34,0,.67-.34,1.12-.65.26-.16.25-.16.19-.12.62-.3.64-.18.66-.07.67,0,1.11.32,1.27.62.74.48.54.46.33.44.12.42v1.19l-.09.43-.3.44-.52.46-.49.32,12.22,1.63,16.54-9.55-6.17-1.39-.38,0h-4.36l-.88-.65-.14,0-.46-.07-.45-.2-3.65-2.1-3.66-2-.29-.11-.29,0-.29.05-.3.14-3.11,1.82-.42.18-.46.06-.46-.06-.43-.18-.27-.23-.09-.27v-1.19l.09-.27.27-.24.21-.12-1.15.2-.33-.06-3.46-.9-.36-.09-2.6.81-.24,0-3,.38-.37.05L284,405.89l-.45.1-6.89.88L275.52,405l-.3-.11-8.75-1.16.72.22,5.91,1.82.33.14L271.06,407l-1-.23-7.91-1.87,4.73,2.73Zm25.79.49.11-.28.31-.25.43-.18.47-.06.47.06.43.18,3.26,1.83.29.09.28-.08.18-.12.24-.18.25-.18.18-.12.93-.49.85-.37.78-.23.7-.11.8,0,.83.17.87.32.92.47.75.49.51.48.28.47,0,.45v1.19l-.16.42-.36.44-.57.47-.77.49-.77.39-.76.29-.76.18-.76.07-.76,0-.75-.14-.75-.25-.75-.36-6.81-3.79-.32-.25-.1-.28Z" transform="translate(-0.26 -1.45)" style="fill:#3eb6ff"/><polygon points="255.22 364.92 252.63 365.45 252.91 373.13 264.37 371.66 271.44 374.2 267.88 368.84 260.99 364.74 262.84 360.4 259.61 361.37 258.24 356.44 250.61 355.81 250.02 356.15 253.11 361.81 255.22 364.92" style="fill:#3eb6ff"/><polygon points="293.2 415.88 293.23 415.87 293.23 415.87 293.03 415.84 291.67 415.46 291.45 415.6 290.81 415.87 291.44 416.05 292.89 416.29 292.94 416.1 293.2 415.88" style="fill:#95d669"/><polygon points="310.5 418.24 298.27 416.56 298.03 416.72 297.45 417.03 307.8 418.71 311.19 418.88 310.5 418.48 310.5 418.24" style="fill:#002f58"/><polygon points="320.56 418.66 319.48 419.28 324.63 419.54 330.54 419.18 331.49 418.63 320.56 418.66" style="fill:#002f58"/><polygon points="337.52 408.87 349.84 401.76 349.84 401.47 344.65 398.47 327.03 408.64 310.5 418.19 315.69 421.19 310.5 418.24 310.5 418.48 311.19 418.88 315.69 421.47 319.48 419.28 320.56 418.66 337.52 408.87" style="fill:#002f58"/><polygon points="331.49 418.63 343.16 411.89 337.52 408.87 320.56 418.66 331.49 418.63" style="fill:#3eb6ff"/><polygon points="295.49 413.84 295.04 413.77 294.59 413.8 294.21 413.93 293.09 414.52 292.49 414.85 292.24 415.01 291.95 415.24 291.69 415.44 293.03 415.84 293.23 415.87 294.44 415.4 295.8 414.83 296.45 414.39 295.86 413.99 295.49 413.84" style="fill:#95d669"/><polygon points="259.96 402.95 259.29 402.84 259.78 403.15 260.28 403.45 260.73 403.72 261.45 403.3 259.96 402.95" style="fill:#95d669"/><polygon points="442.19 373.33 441.57 374.52 440.55 375.63 439.12 376.63 432.82 380.27 416.19 389.88 392.6 403.49 365.46 419.17 338.14 434.93 314.05 448.85 296.56 458.94 289.08 463.26 287.46 464.05 285.55 464.66 283.51 465.04 281.39 465.19 279.28 465.12 277.21 464.8 275.25 464.26 273.47 463.48 272.48 462.92 177.39 408.01 176.41 407.44 175.06 406.41 174.12 405.28 173.58 404.09 173.44 402.87 173.44 405.75 173.58 406.97 174.12 408.17 175.06 409.29 176.41 410.32 177.06 410.71 177.39 410.9 202.52 425.41 202.77 425.55 272.48 465.8 273.47 466.37 275.25 467.14 277.21 467.69 279.28 468 281.39 468.08 283.51 467.93 285.55 467.54 287.46 466.93 289.08 466.14 296.56 461.82 314.05 451.73 338.14 437.82 365.46 422.05 392.6 406.37 416.19 392.76 432.82 383.15 439.12 379.51 440.55 378.51 441.57 377.4 442.19 376.22 442.41 375 442.41 372.11 442.19 373.33" style="fill:#002f58"/><polygon points="324.29 316.72 329.2 316.81 334.11 317.06 338.98 317.47 343.82 318.02 348.61 318.74 353.34 319.61 357.99 320.63 342.53 311.71 340.78 310.91 338.84 310.35 336.78 310.01 334.66 309.91 332.54 310.03 330.49 310.39 328.57 310.98 326.83 311.8 318.34 316.7 319.37 316.78 324.29 316.72" style="fill:#3eb6ff"/><polygon points="376.99 338.35 375.48 338.83 398.69 345.16 399.47 344.58 397.07 343.2 396.28 343.94 376.99 338.35" style="fill:#002f58"/><polygon points="266.6 406.13 261.88 403.4 261.58 403.23 261.45 403.3 260.73 403.72 260.17 404.04 251.92 408.81 256.95 411.71 266.6 406.13" style="fill:#95d669"/><polygon points="259.48 402.01 249.82 407.59 245.42 405.05 245.42 405.34 249.82 407.88 258.39 402.93 259.48 402.3 259.48 402.01" style="fill:#95d669"/><polygon points="259.48 402.01 255.08 399.48 254.04 400.07 245.42 405.05 249.82 407.59 259.48 402.01" style="fill:#95d669"/><polygon points="252.94 398.28 242.23 404.47 242.05 404.6 241.92 404.75 241.85 404.91 241.85 405.19 241.92 405.04 242.05 404.89 242.23 404.76 252.47 398.84 252.94 398.57 252.94 398.28" style="fill:#95d669"/><polygon points="241.83 405.07 241.85 404.91 241.92 404.75 242.05 404.6 242.23 404.47 252.94 398.28 252.85 398.19 248.77 395.84 248.05 395.42 247.81 395.52 237.39 401.54 237.18 401.65 236.93 401.75 236.67 401.81 236.39 401.83 236.1 401.83 235.83 401.8 235.56 401.74 235.32 401.65 235.14 401.55 229.6 398.35 229.55 398.37 229.37 398.48 219.65 404.13 221.04 404.93 224.09 406.69 228.21 409.06 232.83 411.74 237.37 414.36 241.28 416.61 243.97 418.17 244.87 418.68 245.35 418.4 246.51 417.73 248.11 416.81 249.93 415.76 251.74 414.71 253.31 413.81 254.42 413.17 254.84 412.92 242.27 405.66 242.09 405.54 241.95 405.39 241.86 405.24 241.85 405.17 241.83 405.07" style="fill:#95d669"/><polygon points="268.42 407.52 267.85 407.84 253.22 416.29 253.4 416.39 253.88 416.67 254.56 417.06 255.34 417.51 256.14 417.97 256.85 418.38 257.39 418.69 257.65 418.85 257.88 418.73 258.75 418.22 260.1 417.45 261.73 416.51 263.43 415.52 265 414.62 266.97 413.48 267.55 413.12 268.36 412.47 268.96 411.77 269.35 411.04 269.55 410.28 269.53 409.51 269.32 408.75 269.13 408.43 268.9 408.02 268.42 407.52" style="fill:#95d669"/><polygon points="298.27 416.56 298.76 416.24 299.28 415.78 299.58 415.34 299.67 414.91 299.67 413.72 299.58 414.15 299.28 414.59 298.76 415.06 298.03 415.53 297.2 415.97 297 416.09 296.39 416.42 295.6 416.82 294.92 417.05 294.47 417.12 294.03 417.12 293.63 417.02 293.24 416.85 292.98 416.63 292.87 416.37 292.87 417.56 292.98 417.82 293.24 418.04 293.63 418.21 294.03 418.3 294.47 418.31 294.92 418.24 295.6 418.01 296.39 417.61 297 417.28 297.2 417.16 297.45 417.03 298.03 416.72 298.27 416.56" style="fill:#95d669"/><polygon points="291.95 415.24 292.24 415.01 292.49 414.85 293.09 414.52 294.21 413.93 294.59 413.8 295.04 413.77 295.49 413.84 295.86 413.99 296.45 414.39 296.66 414.25 296.7 414.19 296.91 413.9 296.96 413.81 296.91 413.62 296.7 413.38 295.86 412.8 295.49 412.65 295.04 412.58 294.59 412.61 294.21 412.75 293.09 413.33 292.49 413.66 292.24 413.82 291.95 414.05 291.67 414.27 291.69 415.44 291.95 415.24" style="fill:#95d669"/><polygon points="291.45 415.6 291.67 415.46 291.67 414.27 291.45 414.42 290.77 414.7 290.81 415.87 291.45 415.6" style="fill:#95d669"/><polygon points="373.37 365.04 373.54 364.93 373.87 364.71 374.01 364.51 373.54 364.16 372.04 363.36 371.16 362.89 370.54 362.55 370.2 362.29 370.08 362.03 370.08 363.22 370.2 363.48 370.54 363.74 371.16 364.08 372.04 364.55 372.35 364.71 373.17 365.15 373.37 365.04" style="fill:#95d669"/><polygon points="293.24 416.85 293.63 417.02 294.03 417.12 294.47 417.12 294.92 417.05 295.6 416.82 296.39 416.42 297 416.09 297.2 415.97 298.03 415.53 298.76 415.06 299.28 414.59 299.58 414.15 299.67 413.72 299.55 413.3 299.22 412.86 298.68 412.4 297.94 411.92 296.68 411.3 295.56 410.98 294.88 410.94 294.23 411.01 293.59 411.19 292.96 411.49 292.77 411.61 292.52 411.77 292.26 411.93 291.13 412.58 290.47 412.92 290.13 412.9 289.7 412.71 289.34 412.48 288.73 412.08 288.11 411.67 288.11 411.67 288.09 411.65 287.98 411.5 288.11 411.31 289.18 410.58 290.83 409.58 291.35 409.24 291.62 408.98 291.69 408.61 291.31 408.26 290.88 408.09 290.38 408.02 289.88 408.07 289.44 408.24 289.25 408.36 289.04 408.53 288.81 408.72 288.66 408.83 286.58 410.23 286.26 410.4 285.77 410.62 285.3 410.83 284.99 411 284.7 411.26 284.67 411.56 284.82 411.83 285.16 412.09 285.94 412.55 287.02 413.21 288.11 413.87 288.88 414.33 289.54 414.63 290.14 414.76 290.77 414.7 291.45 414.42 291.67 414.27 291.95 414.05 292.24 413.82 292.49 413.66 293.09 413.33 294.21 412.75 294.59 412.61 295.04 412.58 295.49 412.65 295.86 412.8 296.7 413.38 296.91 413.62 296.96 413.81 296.91 413.9 296.7 414.19 296.66 414.25 296.45 414.39 295.8 414.83 294.44 415.4 293.23 415.87 293.2 415.88 292.94 416.1 292.89 416.29 292.87 416.37 292.98 416.63 293.24 416.85" style="fill:#95d669"/><polygon points="300.58 402.13 300.48 402.4 300.57 402.67 300.84 402.9 301.28 403.08 301.74 403.14 302.2 403.08 302.62 402.9 305.73 401.08 306.02 400.94 306.32 400.89 306.61 400.92 306.89 401.02 310.55 403.01 314.2 405.11 314.65 405.31 315.11 405.38 315.57 405.31 316.04 405.11 316.34 404.87 316.43 404.59 316.31 404.31 316 404.06 307.95 399.35 307.18 399.02 306.8 398.97 306.43 398.99 305.77 399.17 304.89 399.59 302.8 400.72 301.05 401.76 300.84 401.89 300.58 402.13" style="fill:#95d669"/><path d="M330.92,389.38l-.85-.45-.8-.31-.75-.17-.7,0-.65.1-.72.22-.8.34-.87.47-.83.52-.6.48L323,391l-.17.39.05.43.29.46.54.48.78.51.91.47.87.32.81.18.77,0,.7-.1.77-.23.84-.36.92-.49.48-.31.28-.19.21-.13.32-.11.28.06,3.25,1.84.43.18.46.06.46-.06.43-.18.3-.25.11-.28-.1-.28-.31-.25-1.1-.62L334,391.15Zm-.71,2.06-.12.08-.28.21-.23.14-.14.09-.36.21-.8.4-.59.15-.64-.09-.79-.36-.27-.2-.25-.18-.15-.11-.15-.21,0-.18.31-.35.76-.5.81-.4.6-.13.6.13.79.39.77.44.28.23Z" transform="translate(-0.26 -1.45)" style="fill:#95d669"/><polygon points="344.71 388.18 344.32 388.61 343.7 389.08 342.87 389.6 341.97 390.08 341.15 390.43 340.42 390.65 339.76 390.75 339.04 390.71 338.26 390.53 337.42 390.21 336.52 389.75 335.68 389.17 335.36 388.71 335.45 388.31 335.77 387.6 334.67 387.85 334.18 387.88 333.73 387.84 332.96 387.6 332 387.11 331.26 386.63 330.76 386.16 330.5 385.7 330.5 386.89 330.76 387.35 331.26 387.81 332 388.3 332.96 388.79 333.73 389.03 334.18 389.06 334.67 389.04 335.36 388.88 335.36 389.9 335.68 390.36 336.48 390.91 336.52 390.94 337.42 391.4 338.26 391.72 339.04 391.9 339.76 391.94 340.42 391.84 341.15 391.62 341.97 391.27 342.87 390.79 343.7 390.27 344.32 389.79 344.71 389.37 344.89 388.99 344.89 388.79 344.89 387.8 344.71 388.18" style="fill:#95d669"/><polygon points="359.5 369.16 360.29 369.63 361.37 370.29 362.45 370.94 363.23 371.4 363.89 371.71 364.48 371.84 365.12 371.78 365.79 371.49 366.01 371.35 366.3 371.12 366.58 370.9 366.83 370.74 367.44 370.4 368.55 369.82 368.94 369.69 369.39 369.66 369.84 369.73 370.21 369.88 371.05 370.46 371.25 370.69 371.31 370.89 371.25 370.97 371.05 371.26 371.01 371.33 370.79 371.47 370.15 371.91 368.78 372.47 367.55 372.95 367.29 373.18 367.22 373.44 367.32 373.71 367.59 373.93 367.97 374.1 368.38 374.19 368.81 374.2 369.27 374.12 369.94 373.9 370.73 373.5 371.34 373.17 371.55 373.05 372.38 372.61 373.11 372.13 373.62 371.67 373.92 371.22 374.01 370.8 373.89 370.38 373.57 369.94 373.03 369.48 372.29 369 371.02 368.38 369.91 368.06 369.23 368.02 368.69 368.07 368.57 368.08 367.93 368.27 367.31 368.57 367.12 368.68 366.86 368.85 366.61 369.01 365.48 369.65 364.82 370 364.48 369.97 364.05 369.78 363.68 369.56 363.07 369.15 362.46 368.75 362.46 368.75 362.43 368.73 362.33 368.57 362.46 368.39 363.52 367.66 365.17 366.66 365.7 366.32 365.96 366.06 366.03 365.69 365.65 365.33 365.22 365.17 364.72 365.1 364.23 365.15 363.79 365.31 363.6 365.44 363.39 365.6 363.15 365.8 363.01 365.91 360.93 367.31 360.61 367.48 360.12 367.7 359.65 367.91 359.33 368.07 359.05 368.33 359.01 368.64 359.17 368.91 359.5 369.16" style="fill:#95d669"/><polygon points="367.19 364.55 369.25 365.7 371.35 366.83 371.9 367.07 372.42 367.17 372.89 367.14 373.33 366.97 373.55 366.8 373.76 366.64 375.45 365.79 375.87 365.65 376.01 365.7 376.12 365.74 377.63 366.57 377.98 366.79 378.46 367.1 378.95 367.42 379.29 367.64 379.69 367.78 380.16 367.82 380.63 367.75 381.03 367.59 381.3 367.36 381.36 367.1 381.24 366.83 380.94 366.59 380.46 366.32 379.07 365.55 378.59 365.28 378.4 365.16 378.27 365.08 377.76 364.76 377.64 364.69 377.63 364.6 377.76 364.45 378.27 364.09 378.56 363.83 378.68 363.59 378.63 363.37 378.41 363.19 378.01 363 377.56 362.89 377.06 362.88 376.66 363.02 376.44 363.22 376.12 363.47 375.92 363.53 375.65 363.49 374.9 363.15 374.36 362.84 373.63 362.41 372.38 361.64 371.9 361.42 371.48 361.3 371 361.32 370.52 361.52 370.19 361.77 370.08 362.03 370.2 362.29 370.54 362.55 371.16 362.89 372.04 363.36 373.54 364.16 374.01 364.51 373.87 364.71 373.54 364.93 373.37 365.04 373.17 365.15 373.08 365.21 372.89 365.3 372.59 365.42 372.33 365.46 372.07 365.4 371.7 365.22 371.26 364.96 369.91 364.11 369.41 363.81 368.34 363.32 368.01 363.27 367.7 363.28 367.07 363.5 366.78 363.75 366.73 364.03 366.88 364.3 367.19 364.55" style="fill:#95d669"/><path d="M331,387.61l.5.47.74.49,1,.49.76.23.45,0,.49,0,1.1-.24-.32.71-.09.4.32.46.85.58.9.46.84.32.78.18.72,0,.66-.1.74-.22.82-.35.9-.48.84-.52.61-.47.4-.43.18-.38-.06-.41-.31-.45-.56-.49-.81-.52-1-.5-.73-.22-.82,0-.8.14h0l-.39.07.39-.65,0-.48-.37-.43-.82-.54-.85-.43-.81-.3-.77-.16-.74,0-.67.1-.73.21-.79.33-.85.45-.78.49-.58.45-.39.42-.19.39,0,.44Zm7.26,1.7.17-.35.34-.51.92-.2.76-.08.6,0,.43.15.67.47.21.39-.23.39-.28.2-.39.27-.75.33-.73.12-.71-.08-.69-.29-.08-.08-.06-.07-.18-.2Zm-4.79-2.61.27-.34.64-.43.67-.33.56-.15.65,0,.67.28.58.44.18.4-.18.41,0,.06-.13.19-.17.26-.84.18-.67.12-.51,0-.55-.1-.53-.23-.15-.12-.2-.16-.19-.15-.1-.2Z" transform="translate(-0.26 -1.45)" style="fill:#95d669"/><polygon points="378.27 364.09 377.76 364.45 377.63 364.6 377.64 364.69 377.76 364.76 378.27 365.08 378.4 365.16 378.56 365.01 378.68 364.77 378.68 363.93 378.68 363.59 378.56 363.83 378.27 364.09" style="fill:#95d669"/><polygon points="268.96 411.77 268.36 412.47 267.55 413.12 266.97 413.48 265 414.62 263.43 415.52 261.73 416.51 260.1 417.45 258.75 418.22 257.88 418.73 257.65 418.85 257.39 418.69 256.85 418.38 256.14 417.97 255.34 417.51 254.56 417.06 253.88 416.67 253.4 416.39 253.22 416.29 253.22 416.58 253.4 416.68 253.88 416.96 254.56 417.35 255.34 417.8 256.14 418.26 256.85 418.67 257.39 418.98 257.65 419.13 257.88 419.01 258.75 418.51 260.1 417.73 261.73 416.79 263.43 415.81 265 414.9 266.97 413.77 267.55 413.41 268.36 412.76 268.96 412.06 269.35 411.32 269.55 410.57 269.55 410.28 269.35 411.04 268.96 411.77" style="fill:#95d669"/><polygon points="253.31 413.81 251.74 414.71 249.93 415.76 248.11 416.81 246.51 417.73 245.35 418.4 244.87 418.68 243.97 418.17 241.28 416.61 237.37 414.36 232.83 411.74 228.21 409.06 224.09 406.69 221.04 404.93 219.65 404.13 219.65 404.42 221.04 405.22 224.09 406.98 228.21 409.36 232.83 412.02 237.37 414.65 241.28 416.9 243.97 418.45 244.87 418.97 245.35 418.69 246.51 418.02 248.11 417.1 249.93 416.05 251.74 415 253.31 414.09 254.42 413.45 254.84 413.21 254.84 412.92 254.42 413.17 253.31 413.81" style="fill:#95d669"/><polygon points="290.14 414.76 289.54 414.63 288.88 414.33 288.11 413.87 287.02 413.21 285.94 412.55 285.16 412.09 284.82 411.83 284.67 411.56 284.67 412.75 284.82 413.02 285.16 413.27 285.87 413.69 285.94 413.74 287.02 414.4 288.11 415.06 288.19 415.1 288.88 415.51 289.54 415.82 290.14 415.95 290.77 415.89 290.77 414.7 290.14 414.76" style="fill:#95d669"/><polygon points="290.83 410.77 291.35 410.43 291.62 410.17 291.69 409.8 291.69 408.61 291.62 408.98 291.35 409.24 290.83 409.58 289.18 410.58 288.11 411.31 287.98 411.5 288.11 411.67 288.11 411.67 288.73 412.08 289.18 411.77 290.83 410.77" style="fill:#95d669"/><polygon points="316.04 405.11 315.57 405.31 315.11 405.38 314.65 405.31 314.2 405.11 310.55 403.01 306.89 401.02 306.61 400.92 306.32 400.89 306.02 400.94 305.73 401.08 302.62 402.9 302.2 403.08 301.74 403.14 301.28 403.08 300.84 402.9 300.57 402.67 300.48 402.4 300.48 403.59 300.57 403.86 300.84 404.09 301.28 404.27 301.74 404.33 302.2 404.27 302.62 404.09 305.73 402.27 306.02 402.13 306.32 402.08 306.61 402.1 306.89 402.21 310.55 404.2 314.2 406.3 314.65 406.5 315.11 406.57 315.25 406.55 315.57 406.5 316.04 406.3 316.34 406.05 316.43 405.78 316.43 404.59 316.34 404.87 316.04 405.11" style="fill:#95d669"/><polygon points="337.37 392.81 336.94 392.99 336.48 393.04 336.02 392.98 335.59 392.8 332.34 390.96 332.06 390.9 331.74 391.01 331.54 391.14 331.26 391.33 330.78 391.64 329.87 392.12 329.02 392.48 328.26 392.71 327.56 392.81 326.79 392.78 325.98 392.6 325.11 392.27 324.19 391.81 323.42 391.3 322.88 390.82 322.59 390.36 322.54 389.93 322.54 390.74 322.54 391.12 322.59 391.55 322.88 392 323.42 392.49 324.19 393 325.11 393.46 325.98 393.79 326.79 393.96 327.56 394 328.26 393.9 329.02 393.67 329.87 393.31 330.78 392.83 331.26 392.52 331.54 392.32 331.74 392.19 332.06 392.09 332.34 392.15 335.59 393.99 336.02 394.17 336.48 394.23 336.94 394.17 337.37 394 337.67 393.75 337.78 393.46 337.78 392.28 337.67 392.56 337.37 392.81" style="fill:#95d669"/><polygon points="373.62 371.67 373.11 372.13 372.38 372.61 371.55 373.05 371.34 373.17 370.73 373.5 369.94 373.9 369.27 374.12 368.81 374.2 368.38 374.19 367.97 374.1 367.59 373.93 367.32 373.71 367.22 373.44 367.22 374.63 367.32 374.9 367.59 375.12 367.97 375.29 368.38 375.38 368.81 375.39 369.27 375.31 369.94 375.08 370.73 374.69 371.34 374.35 371.55 374.24 372.38 373.79 373.11 373.32 373.62 372.86 373.92 372.41 374.01 371.98 374.01 370.8 373.92 371.22 373.62 371.67" style="fill:#95d669"/><polygon points="362.45 372.13 363.23 372.59 363.89 372.9 364.48 373.02 365.12 372.96 365.79 372.68 366.01 372.54 366.3 372.31 366.58 372.08 366.83 371.92 367.44 371.59 368.55 371.01 368.94 370.88 369.39 370.85 369.84 370.92 370.21 371.07 370.79 371.47 371.01 371.33 371.05 371.26 371.25 370.97 371.31 370.89 371.25 370.69 371.05 370.46 370.21 369.88 369.84 369.73 369.39 369.66 368.94 369.69 368.55 369.82 367.44 370.4 366.83 370.74 366.58 370.9 366.3 371.12 366.01 371.35 365.79 371.49 365.12 371.78 364.48 371.84 363.89 371.71 363.23 371.4 362.45 370.94 361.37 370.29 360.29 369.63 359.5 369.16 359.17 368.91 359.01 368.64 359.01 369.83 359.17 370.1 359.5 370.35 360.29 370.82 361.06 371.29 361.37 371.47 362.45 372.13" style="fill:#95d669"/><polygon points="365.7 366.32 365.17 366.66 363.52 367.66 362.46 368.39 362.33 368.57 362.46 368.75 362.46 368.75 363.07 369.15 363.52 368.84 365.17 367.85 365.7 367.51 365.96 367.25 366.03 366.88 366.03 365.69 365.96 366.06 365.7 366.32" style="fill:#95d669"/><polygon points="371.9 368.26 372.42 368.36 372.89 368.32 373.33 368.15 373.55 367.99 373.76 367.83 375.45 366.98 375.87 366.84 376.01 366.88 376.12 366.92 377.63 367.75 377.98 367.97 378.46 368.29 378.95 368.61 379.29 368.83 379.69 368.97 380.16 369.01 380.63 368.94 381.03 368.77 381.3 368.55 381.36 368.28 381.36 367.1 381.3 367.36 381.03 367.59 380.63 367.75 380.16 367.82 379.69 367.78 379.29 367.64 378.95 367.42 378.46 367.1 377.98 366.79 377.63 366.57 376.12 365.74 376.01 365.7 375.87 365.65 375.45 365.79 373.76 366.64 373.55 366.8 373.33 366.97 372.89 367.14 372.42 367.17 371.9 367.07 371.35 366.83 369.25 365.7 367.19 364.55 366.88 364.3 366.73 364.03 366.73 365.21 366.88 365.49 367.19 365.74 369.25 366.89 369.69 367.13 371.35 368.02 371.9 368.26" style="fill:#95d669"/><polygon points="339.41 385.45 339.8 385.38 339.8 384.79 339.41 385.45" style="fill:#95d669"/><polygon points="284.8 351.44 280.53 344.56 284.45 336.27 264.62 347.73 273.02 352.58 284.8 351.44" style="fill:#002f58"/><polygon points="211.3 412.31 211.73 413.06 212.25 413.63 212.8 413.3 213.98 412.63 215.56 411.71 222.07 407.95 217.51 405.32 217.45 405.36 213.6 407.58 213.14 407.86 212.3 408.52 211.67 409.23 211.26 409.99 211.06 410.76 211.06 411.05 211.07 411.54 211.3 412.31" style="fill:#95d669"/><polygon points="213.98 412.63 212.8 413.3 212.25 413.63 211.73 413.06 211.3 412.31 211.07 411.54 211.07 411.83 211.3 412.6 211.73 413.35 212.25 413.91 212.8 413.59 213.98 412.92 215.56 412 222.07 408.24 222.07 407.95 215.56 411.71 213.98 412.63" style="fill:#95d669"/><polygon points="232.71 425.7 242.76 419.9 237.73 417 227.68 422.8 232.71 425.7" style="fill:#95d669"/><polygon points="227.68 422.8 227.68 423.09 232.71 425.99 242.76 420.19 242.76 419.9 232.71 425.7 227.68 422.8" style="fill:#95d669"/><polygon points="232.38 397.81 233.08 398.22 233.9 398.69 234.72 399.16 235.45 399.59 236 399.9 236.25 400.05 236.51 399.91 244.97 395.02 245.64 394.64 245.64 394.35 244.97 394.73 236.51 399.62 236.25 399.76 236 399.61 235.45 399.3 234.72 398.88 233.9 398.4 233.08 397.93 232.38 397.53 231.88 397.24 231.7 397.13 231.7 397.42 231.88 397.53 232.38 397.81" style="fill:#95d669"/><polygon points="232.38 397.53 233.08 397.93 233.9 398.4 234.72 398.88 235.45 399.3 236 399.61 236.25 399.76 236.51 399.62 244.97 394.73 245.64 394.35 244.96 394.09 243.68 393.81 242.34 393.66 240.99 393.63 239.65 393.72 238.34 393.93 237.09 394.27 235.92 394.73 235.26 395.08 231.79 397.08 231.7 397.13 231.88 397.24 232.38 397.53" style="fill:#95d669"/><polygon points="235.98 427.03 237.25 427.27 238.56 427.39 239.89 427.4 241.2 427.29 242.47 427.06 243.69 426.72 244.81 426.25 245.44 425.91 252.91 421.6 254.37 420.75 255.32 420.21 255.55 420.06 251.12 417.5 235.1 426.75 235.98 427.03" style="fill:#95d669"/><polygon points="254.37 420.75 252.91 421.6 245.44 425.91 244.81 426.25 243.69 426.72 242.47 427.06 241.2 427.29 239.89 427.4 238.56 427.39 237.25 427.27 235.98 427.03 235.1 426.75 235.1 427.04 235.98 427.32 237.25 427.56 238.56 427.68 239.89 427.69 241.2 427.58 242.47 427.35 243.69 427 244.81 426.54 245.44 426.2 252.91 421.89 254.37 421.04 255.32 420.49 255.55 420.35 255.55 420.06 255.32 420.21 254.37 420.75" style="fill:#95d669"/><polygon points="221.18 419.05 221.18 419.34 225.58 421.87 235.63 416.07 235.63 415.78 225.58 421.58 221.18 419.05" style="fill:#95d669"/><polygon points="225.58 421.58 235.63 415.78 231.23 413.24 221.18 419.05 225.58 421.58" style="fill:#95d669"/><polygon points="214.12 414.97 214.12 415.26 219.08 418.12 229.13 412.32 229.13 412.03 219.08 417.83 214.12 414.97" style="fill:#95d669"/><polygon points="219.08 417.83 229.13 412.03 224.18 409.17 214.12 414.97 219.08 417.83" style="fill:#95d669"/><polygon points="265.13 444.67 270.32 447.66 304.47 427.95 304.47 427.66 299.28 424.66 265.13 444.38 265.13 444.67" style="fill:#002f58"/><polygon points="263 434.6 262.65 434.46 262.14 434.39 261.65 434.4 261.3 434.51 261.19 434.58 260.95 434.76 260.41 435.1 259.82 435.38 259.6 435.42 259.44 435.37 253.26 431.8 252.75 431.5 252.16 431.15 251.84 430.96 251.43 430.79 250.99 430.75 250.52 430.84 250.03 431.06 249.59 431.44 249.38 431.92 249.43 432.43 249.82 432.81 250.3 432.99 250.88 433.01 251.45 433.01 251.83 433.12 254.78 434.69 256.43 435.68 257.57 436.45 257.57 436.63 257.39 436.79 256.8 437.12 256.1 437.5 255.84 437.75 255.78 437.99 255.92 438.24 256.27 438.5 256.68 438.67 257.12 438.74 257.57 438.69 257.98 438.53 263.09 435.57 263.33 435.34 263.38 435.08 263.27 434.82 263 434.6" style="fill:#95d669"/><polygon points="257.57 436.63 257.57 436.45 256.43 435.68 254.78 434.69 251.83 433.12 251.45 433.01 250.88 433.01 250.3 432.99 249.82 432.81 249.43 432.43 249.38 431.92 249.38 433.11 249.43 433.62 249.82 434 250.3 434.18 250.88 434.2 251.45 434.2 251.83 434.3 254.78 435.88 256.43 436.87 256.8 437.12 257.39 436.79 257.57 436.63" style="fill:#95d669"/><polygon points="263.09 435.57 257.98 438.53 257.57 438.69 257.12 438.74 256.68 438.67 256.27 438.5 255.92 438.24 255.78 437.99 255.78 439.18 255.92 439.43 256.27 439.69 256.68 439.86 257.12 439.93 257.57 439.88 257.98 439.72 263.09 436.76 263.33 436.53 263.38 436.27 263.38 435.08 263.33 435.34 263.09 435.57" style="fill:#95d669"/><polygon points="256.04 428.95 256.43 429.13 256.85 429.23 257.35 429.23 257.76 429.08 258.39 428.45 258.8 428.07 259.4 427.67 260.4 427.14 261.06 426.92 261.46 426.91 261.89 426.98 262.85 427.4 263.29 427.77 263.4 428.19 263.29 428.43 263.18 428.65 263.06 428.77 262.64 429.17 261.7 429.92 261.08 430.49 260.72 431.1 260.8 431.67 261.22 432.13 262 432.65 262.73 433.04 264.25 433.83 264.76 434.02 265.22 434.08 265.68 434 266.17 433.78 270.31 431.39 270.68 431.23 270.92 431.14 271.08 431.06 271.36 430.83 271.47 430.57 271.38 430.32 271.11 430.08 270.64 429.88 270.11 429.77 269.54 429.79 269.06 429.96 268.9 430.07 268.71 430.21 268.52 430.38 268.41 430.47 266.94 431.35 266.34 431.69 265.72 432.01 265.27 432.2 264.75 432.06 263.8 431.56 263.76 431.54 263.76 431.53 263.71 431.49 263.44 431.22 263.44 431.22 263.42 431.2 263.44 430.8 263.71 430.45 264.19 430.04 264.65 429.72 265.09 429.4 265.52 428.99 265.8 428.59 265.94 428.19 265.93 427.8 265.77 427.41 265.48 427.02 265.04 426.64 264.45 426.25 263.57 425.81 262.71 425.51 261.87 425.36 261.06 425.35 260.37 425.47 259.61 425.71 258.78 426.07 257.88 426.54 256.64 427.35 255.92 428.01 255.75 428.3 255.72 428.55 255.82 428.77 256.04 428.95" style="fill:#95d669"/><polygon points="256.04 430.14 256.43 430.32 256.85 430.42 257.35 430.42 257.76 430.27 258.39 429.64 258.8 429.26 259.4 428.86 260.4 428.33 261.06 428.11 261.46 428.1 261.89 428.17 262.85 428.59 263.06 428.77 263.18 428.65 263.29 428.43 263.4 428.19 263.29 427.77 262.85 427.4 261.89 426.98 261.46 426.91 261.06 426.92 260.4 427.14 259.4 427.67 258.8 428.07 258.39 428.45 257.76 429.08 257.35 429.23 256.85 429.23 256.43 429.13 256.04 428.95 255.82 428.77 255.72 428.55 255.72 429.74 255.82 429.96 256.04 430.14" style="fill:#95d669"/><polygon points="263.44 430.8 263.44 431.22 263.44 431.22 263.71 431.49 263.71 430.45 263.44 430.8" style="fill:#95d669"/><polygon points="271.08 431.06 270.92 431.19 271.08 431.26 271.08 432.25 271.36 432.02 271.47 431.76 271.47 430.57 271.36 430.83 271.08 431.06" style="fill:#95d669"/><polygon points="270.68 431.23 270.31 431.39 266.17 433.78 265.68 434 265.22 434.08 264.76 434.02 264.25 433.83 262.73 433.04 262 432.65 261.22 432.13 260.8 431.67 260.72 431.1 260.72 432.29 260.8 432.86 261.22 433.32 262 433.84 262.73 434.22 264.25 435.02 264.76 435.21 265.22 435.27 265.68 435.19 266.17 434.97 270.31 432.58 270.68 432.42 270.92 432.32 270.92 431.19 270.92 431.14 270.68 431.23" style="fill:#95d669"/><polygon points="265.52 428.99 265.09 429.4 264.65 429.72 264.19 430.04 263.71 430.45 263.76 431.53 263.76 431.54 263.8 431.56 264.19 431.23 264.65 430.91 265.09 430.58 265.52 430.18 265.8 429.78 265.94 429.38 265.94 428.19 265.8 428.59 265.52 428.99" style="fill:#95d669"/><polygon points="277.61 427.15 276.79 427.75 275.48 428.54 274.39 429.09 273.46 429.4 272.69 429.46 272.36 429.4 272.07 429.27 271.76 429.02 271.64 428.72 271.64 429.91 271.76 430.21 272.07 430.46 272.36 430.59 272.69 430.65 273.46 430.59 274.39 430.28 275.48 429.73 276.79 428.93 277.61 428.34 278.2 427.63 278.32 427.29 278.32 426.1 278.2 426.44 277.61 427.15" style="fill:#95d669"/><polygon points="263.86 424.46 264.25 424.62 264.69 424.68 265.13 424.64 265.52 424.49 265.98 424.12 266.22 423.9 266.39 423.77 267.56 422.99 268.44 422.55 269.09 422.35 269.46 422.35 269.85 422.43 270.72 422.81 271.22 423.14 271.5 423.42 271.56 423.64 271.5 423.71 271.39 423.82 271.22 423.92 270.87 424.1 270.06 424.53 268.91 425.28 268.73 425.53 268.7 425.76 268.82 425.98 269.08 426.18 269.52 426.35 270.01 426.4 270.51 426.34 270.94 426.18 271.36 425.87 271.59 425.66 271.74 425.54 272.1 425.31 272.89 424.85 273.38 424.69 273.92 424.73 274.85 425.18 275.29 425.49 275.53 425.8 275.56 426.12 275.53 426.18 275.39 426.43 275.29 426.51 275.18 426.6 274.84 426.87 273.71 427.56 272.02 428.17 271.73 428.42 271.64 428.72 271.76 429.02 272.07 429.27 272.36 429.4 272.69 429.46 273.46 429.4 274.39 429.09 275.48 428.54 276.79 427.75 277.61 427.15 278.2 426.44 278.32 426.1 278.32 425.77 278.17 425.38 277.84 424.98 277.36 424.58 276.71 424.16 275.53 423.57 274.77 423.36 274.04 423.3 273.91 423.25 273.89 423.24 273.75 422.85 273.44 422.45 272.96 422.04 272.31 421.62 271.39 421.16 270.5 420.87 269.64 420.74 268.81 420.77 268.17 420.92 267.43 421.19 265.64 422.09 264.65 422.7 263.99 423.19 263.64 423.58 263.51 423.93 263.58 424.22 263.86 424.46" style="fill:#95d669"/><polygon points="275.39 426.43 275.53 426.18 275.53 425.8 275.29 425.49 274.85 425.18 273.92 424.73 273.38 424.69 272.89 424.85 272.1 425.31 271.74 425.54 271.59 425.66 271.36 425.87 270.94 426.18 270.51 426.34 270.01 426.4 269.52 426.35 269.08 426.18 268.82 425.98 268.7 425.76 268.7 426.95 268.82 427.17 269.08 427.37 269.52 427.54 270.01 427.59 270.51 427.53 270.94 427.36 271.36 427.06 271.59 426.84 271.74 426.72 272.1 426.5 272.89 426.04 273.38 425.88 273.92 425.92 274.85 426.36 275.18 426.6 275.29 426.51 275.39 426.43" style="fill:#95d669"/><polygon points="263.86 425.65 264.25 425.81 264.69 425.87 265.13 425.83 265.52 425.68 265.98 425.31 266.22 425.09 266.39 424.96 267.56 424.18 268.44 423.73 269.09 423.54 269.46 423.54 269.85 423.62 270.72 424 270.87 424.1 271.22 423.92 271.39 423.82 271.5 423.71 271.56 423.64 271.5 423.42 271.22 423.14 270.72 422.81 269.85 422.43 269.46 422.35 269.09 422.35 268.44 422.55 267.56 422.99 266.39 423.77 266.22 423.9 265.98 424.12 265.52 424.49 265.13 424.64 264.69 424.68 264.25 424.62 263.86 424.46 263.58 424.22 263.51 423.93 263.51 425.11 263.58 425.41 263.86 425.65" style="fill:#95d669"/><polygon points="271.57 419.76 273.62 420.91 275.72 422.04 276.27 422.28 276.79 422.38 277.27 422.35 277.7 422.18 277.92 422.01 278.13 421.86 279.82 421 280.25 420.87 280.38 420.91 280.49 420.95 282 421.78 282.35 422 282.83 422.31 283.32 422.63 283.66 422.85 284.07 422.99 284.54 423.03 285 422.96 285.41 422.8 285.67 422.57 285.74 422.31 285.61 422.04 285.31 421.8 284.83 421.53 283.45 420.76 282.96 420.49 282.77 420.37 282.64 420.29 282.13 419.97 282.01 419.9 282 419.81 282.13 419.66 282.64 419.3 282.93 419.04 283.05 418.8 283 418.58 282.78 418.4 282.38 418.21 281.94 418.11 281.43 418.1 281.03 418.23 280.81 418.43 280.49 418.68 280.29 418.74 280.02 418.7 279.27 418.37 278.73 418.05 278.01 417.62 276.75 416.86 276.27 416.63 275.85 416.52 275.37 416.54 274.89 416.73 274.56 416.98 274.45 417.24 274.57 417.5 274.91 417.76 275.53 418.11 276.41 418.57 277.91 419.37 278.38 419.73 278.24 419.92 277.91 420.14 277.75 420.25 277.54 420.36 277.45 420.42 277.27 420.51 276.96 420.64 276.7 420.67 276.44 420.62 276.13 420.47 275.63 420.17 274.28 419.32 273.78 419.02 272.71 418.53 272.39 418.48 272.07 418.49 271.44 418.71 271.15 418.96 271.1 419.24 271.25 419.51 271.57 419.76" style="fill:#95d669"/><polygon points="277.91 420.14 278.24 419.92 278.38 419.73 277.91 419.37 276.41 418.57 275.53 418.11 274.91 417.76 274.57 417.5 274.45 417.24 274.45 418.43 274.57 418.69 274.91 418.95 275.53 419.29 276.41 419.76 277.54 420.36 277.75 420.25 277.91 420.14" style="fill:#95d669"/><polygon points="282.64 419.3 282.13 419.66 282 419.81 282.01 419.9 282.13 419.97 282.64 420.29 282.77 420.37 282.93 420.23 283.05 419.99 283.05 418.8 282.93 419.04 282.64 419.3" style="fill:#95d669"/><polygon points="271.57 420.95 273.62 422.1 275.72 423.23 276.27 423.47 276.79 423.57 277.27 423.54 277.7 423.36 277.92 423.2 278.13 423.04 279.82 422.19 280.25 422.05 280.38 422.1 280.49 422.14 282 422.96 282.35 423.19 282.83 423.5 283.32 423.82 283.66 424.04 284.07 424.18 284.54 424.22 285 424.15 285.41 423.99 285.67 423.76 285.74 423.5 285.74 422.31 285.67 422.57 285.41 422.8 285 422.96 284.54 423.03 284.07 422.99 283.66 422.85 283.32 422.63 282.83 422.31 282.35 422 282 421.78 280.49 420.95 280.38 420.91 280.25 420.87 279.82 421 278.13 421.86 277.92 422.01 277.7 422.18 277.27 422.35 276.79 422.38 276.27 422.28 275.72 422.04 273.62 420.91 271.57 419.76 271.25 419.51 271.1 419.24 271.1 420.43 271.25 420.7 271.57 420.95" style="fill:#95d669"/><polygon points="292.81 408.63 299.62 412.41 300.37 412.77 301.12 413.02 301.87 413.17 302.63 413.21 303.39 413.14 304.15 412.96 304.92 412.68 305.69 412.29 306.46 411.79 307.03 411.33 307.39 410.88 307.55 410.46 307.55 409.28 307.39 409.69 307.03 410.14 306.46 410.61 305.69 411.1 304.92 411.49 304.15 411.77 303.39 411.95 302.63 412.02 301.87 411.98 301.12 411.83 300.37 411.58 299.62 411.22 292.81 407.44 292.49 407.19 292.39 406.91 292.39 408.1 292.49 408.38 292.81 408.63" style="fill:#95d669"/><path d="M293.07,408.89l6.81,3.79.75.36.75.25.75.15.76,0,.76-.07.76-.18.76-.28.77-.39.77-.49.57-.47.36-.44.16-.42,0-.45-.28-.47-.51-.48-.75-.49-.92-.47-.87-.32-.83-.17-.8,0-.7.11-.78.23-.85.37-.93.49-.18.12-.25.18-.24.18-.18.12-.28.08-.29-.09-3.26-1.83-.43-.18-.47-.06-.47.06-.43.18-.31.25-.11.28.1.28Zm7.42,1.69,1.21-.76.7-.32.64-.11.65.12.71.33.63.46.17.39-.17.22-.11.14-.26.17-.45.3-.5.25-.48.15-.45,0-.43-.05-.91-.38-.3-.17-.52-.3-.13-.14-.09-.1Z" transform="translate(-0.26 -1.45)" style="fill:#95d669"/><polygon points="303.44 409.24 302.79 409.12 302.14 409.23 301.44 409.55 300.89 409.9 301.19 410.07 302.1 410.45 302.53 410.5 302.98 410.46 303.46 410.31 303.96 410.06 304.41 409.76 304.15 409.57 303.44 409.24" style="fill:#00b6e8"/><polygon points="300.37 409.6 300.89 409.9 301.44 409.55 302.14 409.23 302.79 409.12 303.44 409.24 304.15 409.57 304.41 409.76 304.67 409.59 304.78 409.45 304.95 409.23 304.78 408.84 304.15 408.38 303.44 408.05 302.79 407.93 302.14 408.04 301.44 408.36 300.24 409.12 300.15 409.36 300.24 409.46 300.37 409.6" style="fill:#95d669"/><path d="M309.74,399.9l.5.47.74.49,1,.49.76.23.45,0,.49,0,1.1-.24-.32.71-.09.4.32.46.85.58.9.46.84.32.78.18.72,0,.66-.1.74-.22.82-.35.9-.48.84-.52.61-.47.4-.43.18-.38-.06-.41-.31-.45-.56-.49-.81-.52-1-.5-.73-.22-.82,0-.8.14h0l-.39.07.39-.65,0-.48-.37-.43-.82-.54-.85-.43-.81-.3-.77-.16-.74,0-.67.1-.73.21-.79.33-.85.45-.78.49-.58.46-.39.42-.19.38,0,.44Zm7.26,1.7.17-.35.34-.51.92-.2.76-.08.6,0,.43.15.67.47.21.39-.21.34,0,0-.28.2-.39.27-.75.33-.73.12-.71-.08-.69-.29-.08-.09-.06-.06-.18-.2ZM312.2,399l.27-.34.64-.43.67-.33.57-.15.64,0,.67.28.58.44.18.4-.18.41,0,.06-.14.19-.17.26-.84.18-.67.12-.51,0-.55-.1-.53-.23-.15-.12-.21-.16-.19-.15-.08-.17h0V399Z" transform="translate(-0.26 -1.45)" style="fill:#95d669"/><polygon points="323.04 400.89 322.42 401.37 321.59 401.89 320.69 402.37 319.87 402.72 319.13 402.94 318.48 403.04 317.75 403 316.98 402.82 316.14 402.5 315.24 402.04 314.39 401.46 314.08 401 314.16 400.6 314.49 399.89 313.38 400.13 312.9 400.16 312.45 400.13 311.68 399.89 310.71 399.4 309.98 398.91 309.48 398.44 309.22 397.99 309.22 399.18 309.48 399.63 309.98 400.1 310.71 400.59 311.68 401.08 312.45 401.31 312.9 401.35 313.38 401.32 314.08 401.17 314.08 402.19 314.39 402.64 315.24 403.22 316.14 403.69 316.98 404.01 317.75 404.19 318.48 404.23 319.13 404.13 319.87 403.9 320.69 403.55 321.59 403.08 322.42 402.56 323.04 402.08 323.43 401.65 323.61 401.27 323.61 400.09 323.43 400.47 323.04 400.89" style="fill:#95d669"/><polygon points="318.13 397.74 318.51 397.67 318.51 397.08 318.13 397.74" style="fill:#95d669"/><polygon points="315.41 397.79 314.74 397.51 314.09 397.47 313.53 397.62 312.86 397.95 312.42 398.24 312.57 398.36 313.1 398.59 313.64 398.69 314.16 398.67 314.82 398.55 315.66 398.37 315.83 398.1 315.83 398.1 315.41 397.79" style="fill:#002f58"/><polygon points="311.94 397.76 312.03 397.93 312.21 398.08 312.42 398.24 312.86 397.95 313.53 397.62 314.09 397.47 314.74 397.51 315.41 397.79 315.83 398.1 315.97 397.91 315.99 397.85 316.17 397.44 315.99 397.03 315.41 396.6 314.74 396.32 314.09 396.28 313.53 396.43 312.86 396.76 312.21 397.19 311.94 397.53 311.94 397.76 311.94 397.76" style="fill:#95d669"/><polygon points="319.52 400.22 318.92 400.18 318.16 400.27 317.25 400.47 316.96 400.89 317.05 400.98 317.74 401.27 318.45 401.35 319.18 401.23 319.92 400.89 320.31 400.62 319.95 400.36 319.52 400.22" style="fill:#002f58"/><polygon points="316.9 400.83 316.96 400.89 317.25 400.47 318.16 400.27 318.92 400.18 319.52 400.22 319.95 400.36 320.31 400.62 320.59 400.42 320.62 400.38 320.83 400.04 320.62 399.65 319.95 399.18 319.52 399.03 318.92 399 318.16 399.08 317.25 399.28 316.9 399.8 316.74 400.14 316.74 400.64 316.9 400.83" style="fill:#95d669"/><polygon points="329.06 389.08 328.26 388.69 327.66 388.56 327.06 388.69 326.25 389.09 325.48 389.58 325.17 389.93 325.19 390.12 325.34 390.32 325.48 390.43 325.74 390.61 326.25 390.28 327.06 389.88 327.66 389.75 328.26 389.88 329.06 390.26 329.31 390.41 329.55 390.27 329.83 390.06 329.94 389.98 330.11 389.75 329.83 389.52 329.06 389.08" style="fill:#95d669"/><polygon points="328.26 389.88 327.66 389.75 327.06 389.88 326.25 390.28 325.74 390.61 326.01 390.81 326.8 391.17 327.43 391.26 328.02 391.11 328.82 390.7 329.17 390.5 329.31 390.41 329.06 390.26 328.26 389.88" style="fill:#002f58"/><polygon points="336.02 385.22 335.37 385.18 334.81 385.33 334.14 385.66 333.7 385.95 333.85 386.07 334.38 386.31 334.93 386.41 335.44 386.38 336.1 386.26 336.94 386.08 337.12 385.82 336.69 385.5 336.02 385.22" style="fill:#00b6e8"/><polygon points="333.31 385.64 333.5 385.79 333.7 385.95 334.14 385.66 334.81 385.33 335.37 385.18 336.02 385.22 336.69 385.5 337.12 385.82 337.25 385.62 337.28 385.56 337.45 385.15 337.28 384.75 336.69 384.31 336.02 384.03 335.37 383.99 334.81 384.14 334.14 384.47 333.5 384.9 333.23 385.24 333.23 385.47 333.31 385.64" style="fill:#95d669"/><polygon points="340.8 387.93 340.2 387.9 339.45 387.98 338.53 388.18 338.25 388.61 338.33 388.69 339.02 388.98 339.73 389.06 340.46 388.94 341.2 388.61 341.6 388.33 341.23 388.07 340.8 387.93" style="fill:#00b6e8"/><polygon points="338.19 388.54 338.25 388.61 338.53 388.18 339.45 387.98 340.2 387.9 340.8 387.93 341.23 388.07 341.6 388.33 341.88 388.14 341.9 388.09 342.11 387.75 341.9 387.36 341.23 386.89 340.8 386.74 340.2 386.71 339.45 386.79 338.53 387 338.19 387.51 338.02 387.86 338.02 388.35 338.19 388.54" style="fill:#95d669"/><polygon points="338.02 382.63 338.45 382.81 338.91 382.87 339.37 382.81 339.79 382.63 342.9 380.81 343.2 380.67 343.49 380.62 343.78 380.64 344.06 380.75 347.73 382.74 351.38 384.83 351.83 385.04 352.28 385.11 352.75 385.04 353.21 384.84 353.51 384.59 353.6 384.31 353.6 383.13 353.51 383.4 353.21 383.65 352.75 383.85 352.28 383.92 351.83 383.85 351.38 383.64 347.73 381.55 344.06 379.56 343.78 379.45 343.49 379.43 343.2 379.48 342.9 379.62 339.79 381.44 339.37 381.62 338.91 381.68 338.45 381.62 338.02 381.44 337.74 381.21 337.66 380.94 337.66 382.13 337.74 382.4 338.02 382.63" style="fill:#95d669"/><polygon points="338.02 381.44 338.45 381.62 338.91 381.68 339.37 381.62 339.79 381.44 342.9 379.62 343.2 379.48 343.49 379.43 343.78 379.45 344.06 379.56 347.73 381.55 351.38 383.64 351.83 383.85 352.28 383.92 352.75 383.85 353.21 383.65 353.51 383.4 353.6 383.13 353.48 382.85 353.17 382.59 345.13 377.89 344.35 377.56 343.97 377.51 343.6 377.52 342.94 377.71 342.06 378.12 339.97 379.25 338.02 380.43 337.75 380.67 337.66 380.94 337.74 381.21 338.02 381.44" style="fill:#95d669"/><polygon points="345.87 377.99 352.68 381.77 353.43 382.13 354.18 382.39 354.94 382.53 355.69 382.57 356.45 382.5 357.21 382.33 357.98 382.04 358.75 381.65 359.52 381.16 360.09 380.69 360.46 380.25 360.62 379.83 360.62 378.64 360.46 379.06 360.09 379.5 359.52 379.97 358.75 380.46 357.98 380.85 357.21 381.14 356.45 381.31 355.69 381.38 354.94 381.35 354.18 381.2 353.43 380.95 352.68 380.58 345.87 376.8 345.56 376.55 345.46 376.27 345.46 377.46 345.56 377.74 345.87 377.99" style="fill:#95d669"/><path d="M346.13,378.25l6.81,3.79.75.36.75.25.76.15.76,0,.76-.07.76-.18.77-.28.77-.39.77-.49.57-.47.36-.44.16-.42,0-.45-.28-.47-.51-.48-.74-.49-.92-.47-.87-.32-.84-.17-.79,0-.7.11-.78.24-.85.36-.93.49-.18.12-.25.18-.24.18-.18.13-.28.08-.29-.08-3.26-1.83-.43-.18L347,377l-.47.06-.43.18-.31.25-.11.28.1.28Zm7.43,1.69,1.2-.76.7-.32.65-.11.65.11.71.33.64.46.17.39-.17.22-.12.14-.25.17-.45.3-.5.25-.48.15-.45,0-.42,0-.92-.38-.3-.17-.52-.3-.14-.14-.09-.1Z" transform="translate(-0.26 -1.45)" style="fill:#95d669"/><polygon points="356.5 378.6 355.85 378.49 355.2 378.59 354.5 378.91 353.95 379.26 354.25 379.44 355.17 379.82 355.59 379.87 356.04 379.82 356.52 379.67 357.02 379.42 357.47 379.12 357.21 378.93 356.5 378.6" style="fill:#00b6e8"/><polygon points="353.44 378.96 353.95 379.26 354.5 378.91 355.2 378.59 355.85 378.49 356.5 378.6 357.21 378.93 357.47 379.12 357.73 378.95 357.84 378.81 358.02 378.6 357.84 378.2 357.21 377.74 356.5 377.41 355.85 377.3 355.2 377.4 354.5 377.73 353.3 378.49 353.21 378.72 353.3 378.82 353.44 378.96" style="fill:#95d669"/><polygon points="389.13 362.77 388.31 363.36 387 364.15 385.91 364.71 384.98 365.01 384.2 365.07 383.88 365.01 383.59 364.89 383.28 364.63 383.16 364.34 383.16 365.52 383.28 365.82 383.59 366.08 383.88 366.2 384.2 366.26 384.98 366.2 385.91 365.9 387 365.34 388.31 364.55 389.13 363.96 389.72 363.24 389.84 362.9 389.84 361.71 389.72 362.05 389.13 362.77" style="fill:#95d669"/><polygon points="389.68 361 389.36 360.6 388.88 360.19 388.23 359.77 387.04 359.19 386.28 358.97 385.56 358.91 385.43 358.87 385.41 358.86 385.27 358.47 384.96 358.07 384.48 357.66 383.83 357.23 382.91 356.78 382.02 356.48 381.16 356.35 380.32 356.39 379.69 356.53 378.94 356.8 377.16 357.7 376.17 358.31 375.51 358.81 375.16 359.2 375.02 359.54 375.09 359.83 375.38 360.08 375.76 360.24 376.21 360.3 376.65 360.26 377.04 360.11 377.5 359.74 377.74 359.52 377.91 359.38 379.08 358.6 379.96 358.16 380.61 357.97 380.98 357.97 381.37 358.05 382.24 358.43 382.74 358.75 383.01 359.03 383.07 359.26 383.01 359.32 382.92 359.44 382.74 359.53 382.39 359.72 381.58 360.15 380.43 360.9 380.25 361.14 380.23 361.38 380.34 361.6 380.6 361.8 381.04 361.96 381.53 362.02 382.03 361.96 382.46 361.79 382.88 361.48 383.11 361.27 383.26 361.15 383.62 360.93 384.42 360.46 384.9 360.3 385.43 360.35 386.37 360.79 386.81 361.1 387.05 361.42 387.08 361.73 387.05 361.79 386.91 362.05 386.81 362.13 386.7 362.21 386.36 362.49 385.24 363.18 383.54 363.79 383.25 364.04 383.16 364.34 383.28 364.63 383.59 364.89 383.88 365.01 384.2 365.07 384.98 365.01 385.91 364.71 387 364.15 388.31 363.36 389.13 362.77 389.72 362.05 389.84 361.71 389.84 361.38 389.68 361" style="fill:#95d669"/><polygon points="386.91 362.05 387.05 361.79 387.05 361.42 386.81 361.1 386.37 360.79 385.43 360.35 384.9 360.3 384.42 360.46 383.62 360.93 383.26 361.15 383.11 361.27 382.88 361.48 382.46 361.79 382.03 361.96 381.53 362.02 381.04 361.96 380.6 361.8 380.34 361.6 380.23 361.38 380.23 362.57 380.34 362.78 380.6 362.98 381.04 363.15 381.53 363.2 382.03 363.14 382.46 362.98 382.88 362.67 383.11 362.46 383.26 362.34 383.62 362.12 384.42 361.65 384.9 361.49 385.43 361.54 386.37 361.98 386.7 362.21 386.81 362.13 386.91 362.05" style="fill:#95d669"/><polygon points="382.92 359.44 383.01 359.32 383.07 359.26 383.01 359.03 382.74 358.75 382.24 358.43 381.37 358.05 380.98 357.97 380.61 357.97 379.96 358.16 379.08 358.6 377.91 359.38 377.74 359.52 377.5 359.74 377.04 360.11 376.65 360.26 376.21 360.3 375.76 360.24 375.38 360.08 375.09 359.83 375.02 359.54 375.02 360.73 375.09 361.02 375.38 361.27 375.76 361.43 376.21 361.49 376.65 361.44 377.04 361.29 377.5 360.93 377.74 360.71 377.91 360.57 379.08 359.79 379.96 359.35 380.61 359.15 380.98 359.16 381.37 359.23 382.24 359.62 382.39 359.72 382.74 359.53 382.92 359.44" style="fill:#95d669"/><polygon points="398.77 357.27 398.49 357.5 398.33 357.58 398.09 357.67 397.71 357.83 393.58 360.22 393.09 360.44 392.63 360.52 392.17 360.46 391.66 360.27 390.13 359.48 389.41 359.09 388.63 358.57 388.21 358.11 388.13 357.54 388.13 358.73 388.21 359.3 388.63 359.76 389.41 360.28 390.13 360.66 391.66 361.46 392.17 361.65 392.63 361.71 393.09 361.63 393.58 361.41 397.71 359.02 398.09 358.86 398.33 358.76 398.49 358.69 398.77 358.46 398.88 358.2 398.88 357.74 398.88 357.01 398.77 357.27" style="fill:#95d669"/><polygon points="397.83 356.27 398.04 356.32 398.52 356.53 398.79 356.76 398.88 357.01 398.88 357.74 401.4 358.35 402.52 356.4 400.06 354.98 397.83 356.27" style="fill:#002f58"/><polygon points="388.63 358.57 389.41 359.09 390.13 359.48 391.66 360.27 392.17 360.46 392.63 360.52 393.09 360.44 393.58 360.22 397.71 357.83 398.09 357.67 398.33 357.58 398.49 357.5 398.77 357.27 398.88 357.01 398.79 356.76 398.52 356.53 398.04 356.32 397.83 356.27 397.52 356.21 396.95 356.23 396.47 356.4 396.31 356.51 396.13 356.65 395.93 356.82 395.81 356.91 394.35 357.8 393.75 358.13 393.13 358.46 392.67 358.64 392.16 358.5 391.21 358 391.17 357.98 391.17 357.97 391.12 357.93 390.83 357.64 390.85 357.24 391.12 356.89 391.6 356.48 392.05 356.16 392.5 355.84 392.93 355.43 393.21 355.03 393.34 354.63 393.33 354.24 393.18 353.85 392.88 353.46 392.44 353.08 391.86 352.69 390.98 352.25 390.12 351.95 389.28 351.8 388.47 351.8 387.78 351.91 387.01 352.15 386.19 352.51 385.29 352.98 384.05 353.79 383.33 354.46 383.17 354.74 383.13 354.99 383.23 355.21 383.45 355.39 383.84 355.57 384.26 355.67 384.75 355.67 385.17 355.53 385.8 354.89 386.2 354.51 386.81 354.11 387.81 353.59 388.47 353.36 388.87 353.35 389.3 353.42 390.26 353.84 390.7 354.21 390.81 354.63 390.7 354.87 390.6 355.1 390.47 355.21 390.05 355.61 389.1 356.36 388.49 356.93 388.13 357.54 388.21 358.11 388.63 358.57" style="fill:#95d669"/><polygon points="390.7 354.87 390.81 354.63 390.7 354.21 390.26 353.84 389.3 353.42 388.87 353.35 388.47 353.36 387.81 353.59 386.81 354.11 386.2 354.51 385.8 354.89 385.17 355.53 384.75 355.67 384.26 355.67 383.84 355.57 383.45 355.39 383.23 355.21 383.13 354.99 383.13 356.18 383.23 356.4 383.45 356.58 383.84 356.76 384.26 356.86 384.75 356.86 385.17 356.71 385.8 356.08 386.2 355.7 386.81 355.3 387.81 354.77 388.47 354.55 388.87 354.54 389.3 354.61 390.26 355.03 390.47 355.21 390.6 355.1 390.7 354.87" style="fill:#95d669"/><polygon points="390.85 357.24 390.85 357.66 391.12 357.93 391.12 356.89 390.85 357.24" style="fill:#95d669"/><polygon points="392.93 355.43 392.5 355.84 392.05 356.16 391.6 356.48 391.12 356.89 391.17 357.97 391.17 357.98 391.21 358 391.6 357.67 392.05 357.35 392.5 357.02 392.93 356.62 393.21 356.22 393.34 355.82 393.34 354.63 393.21 355.03 392.93 355.43" style="fill:#95d669"/><polygon points="274.4 385.34 272.21 379.93 277.25 381.99 279.51 376.76 275.39 378.77 273 377.58 266.25 377.36 265.38 382.51 269.29 380.25 274.4 385.34" style="fill:#3eb6ff"/><polygon points="409.98 357.44 409.65 356.59 409.3 355.74 408.92 354.88 408.51 354.04 408.08 353.19 407.62 352.35 407.14 351.52 406.8 350.99 406.66 355.98 410.17 358.01 409.98 357.44" style="fill:#002f58"/><polygon points="297.52 337.16 297.3 333.73 287.84 339.19 295.64 338.82 297.52 337.16" style="fill:#002f58"/><polygon points="345.85 343.69 345.43 341.89 340.32 340.29 340.79 342.94 345.85 343.69" style="fill:#002f58"/><polygon points="313.69 338.95 312.68 340.98 316.97 343.46 319.04 342.27 316.5 339.79 313.69 338.95" style="fill:#002f58"/><polygon points="317.86 338.97 319.06 341.34 322.69 342.42 324.1 337.77 315.27 336.25 313 334.94 310.25 335.76 310.46 338.6 317.86 338.97" style="fill:#002f58"/><path d="M390.6,111.26c0,19.2-6.73,40.49-17.64,59.38a140.64,140.64,0,0,1-19.68,26.53l-.18.17c-1,1-1.93,2-2.91,2.94a112.09,112.09,0,0,1-8.43,7.49,92.82,92.82,0,0,1-10.7,7.41l-.72.42-.22.13-.39.21c-.54.31-1.08.61-1.61.89a65.45,65.45,0,0,1-9.62,4.26,48.87,48.87,0,0,1-10.81,2.49c-.21,0-.4.05-.6.07a32.12,32.12,0,0,1-19.36-3.83c-10.89-6.3-17.64-19.79-17.64-39s6.75-40.5,17.64-59.39,26-35.37,42.61-45C363.63,57.26,390.6,72.83,390.6,111.26Z" transform="translate(-0.26 -1.45)" style="fill:#f8f9fc"/><polygon points="337.08 130.04 321.98 138.76 321.98 123.41 337.08 114.69 337.08 130.04" style="fill:#e9c2b0"/><path d="M337.36,126.18v33.67c-1.46,2.91-2.85,5.68-4,8-.37.69-.7,1.36-1,2l-10.06,5.81V134.91Z" transform="translate(-0.26 -1.45)" style="fill:#d7e7f7"/><path d="M332.69,130.48l-2.94.17v6a2,2,0,0,0,.49-.51l1.84-2.89.61-1C333,131.78,333,130.63,332.69,130.48Z" transform="translate(-0.26 -1.45)" style="fill:#f02222"/><path d="M326.79,133.88c-.35.55-.35,1.7,0,1.84l.61.25,1.85.75a.63.63,0,0,0,.49,0v-6Z" transform="translate(-0.26 -1.45)" style="fill:#f04646"/><path d="M342.33,100.77c0,9.82-5.6,21-12.52,25s-12.55-.72-12.55-10.54S318,94,329.8,87.17C342.33,79.94,342.33,91,342.33,100.77Z" transform="translate(-0.26 -1.45)" style="fill:#e9c2b0"/><path d="M318.9,114.6c.41,1.87-.07,4.07-1.08,4.92s-2.17,0-2.59-1.84.07-4.08,1.08-4.93S318.48,112.72,318.9,114.6Z" transform="translate(-0.26 -1.45)" style="fill:#e9c2b0"/><path d="M340.7,102c-.42,2.35.06,4,1.08,3.68s2.17-2.48,2.59-4.84-.07-4-1.09-3.68S341.12,99.66,340.7,102Z" transform="translate(-0.26 -1.45)" style="fill:#e9c2b0"/><path d="M343.15,84.08c-1.68-4.86-7.26-3.77-13.43.11-6.16,3.23-11.75,8.59-13.43,15.39-.62,2.51,0,11,.52,12.84.32,1.14,1.4,6.77,1.78,2,0-.87-.48-11.89.31-13.72,1.64-3.91,4.4-6.5,6.51-5.79,1.32.45,7.24-3.09,8.63-5,2.56-3.45,4.87-3.45,6.51-1.44.78.94.29,12.24.31,13.07.39,4.3,1.46-2.59,1.79-4.1C343.18,95,343.77,85.87,343.15,84.08Z" transform="translate(-0.26 -1.45)" style="fill:#393b42"/><polygon points="322.54 137.65 315.76 138.67 321.98 127.63 329.49 129.19 322.54 137.65" style="fill:#fdfffe"/><polygon points="336.43 129.63 343.19 122.83 336.98 118.97 329.48 129.2 336.43 129.63" style="fill:#fdfffe"/><path d="M366.12,138c-.87-3.53-4.16-21-5.34-21.17l-8.52,2.44h0c-3.15.88-7.48,2.11-11.12,3.21L329.8,174.09l-10.15-39.17c-3.63,3.1-8,6.87-11.1,9.62h0L300,151.92c-1.17,1.5-4.47,22.81-5.33,27.34-1.62,8.46-7.18,32.88-6.29,35,.45,1,17.69-26.11,18.24-30.69l.64-12.72.62,4.7s.4,19.85.2,26.31c-.07,1.73-.2,12.41-.39,21.75a48.87,48.87,0,0,0,10.81-2.49,65.45,65.45,0,0,0,9.62-4.26c.53-.28,1.07-.58,1.61-.89l.39-.21.22-.13.72-.42a92.82,92.82,0,0,0,10.7-7.41,112.09,112.09,0,0,0,8.43-7.49c1-1,2-1.94,2.91-2.94-.19-9.11-.33-19.61-.39-21.26-.2-6.23.2-26.54.2-26.54v-.17l.68,29.54c.56,3.93,9.35,1.34,14.12-9C369.15,166.8,367.74,144.61,366.12,138Z" transform="translate(-0.26 -1.45)" style="fill:#1a4b6c"/><path d="M332.9,156.25l-.82-23-1.84,2.9a2,2,0,0,1-.49.51h0a.63.63,0,0,1-.49,0L327.4,136l-1.28,34.23,3.62,4.59h0c.13-.23,1.1-2.11,2.56-5,.32-.6.66-1.27,1-2Z" transform="translate(-0.26 -1.45)" style="fill:#ff5542"/><path d="M311.67,157.55c-.68-1.51,4.67-8.94,4.67-8.94s-3.77-1.27-3.86-2.43c-.34-4.15,8.16-14.26,8.16-14.26l9.1,42.88S314.09,162.94,311.67,157.55Z" transform="translate(-0.26 -1.45)" style="fill:#022540"/><path d="M347.8,136.68c-1.25,4.26-6.1,14.41-10.45,23.17-1.46,2.91-2.85,5.68-4,8-.37.69-.7,1.36-1,2-1.46,2.84-2.43,4.72-2.56,5h0l.64-3.86,2.52-14.68,4.45-26.13,1.48-8.7s8.5.29,8.16,4.83c-.1,1.26-3.86,6.88-3.86,6.88S348.48,134.38,347.8,136.68Z" transform="translate(-0.26 -1.45)" style="fill:#022540"/><polygon points="327.42 154.66 322.72 156.59 324.92 133.24 330.81 130.84 327.42 154.66" style="fill:#728d96"/><path d="M333,133.08c.4-3.45-1.51-5.33-4.3-4.19s-5.37,4.84-5.77,8.3,1.52,5.32,4.29,4.19S332.56,136.53,333,133.08Z" transform="translate(-0.26 -1.45)" style="fill:#1c2326"/><path d="M316.24,156.84l4.46-7.08a5.27,5.27,0,0,1,1.66-1.72,37,37,0,0,1,4.23-2.27c2.65-.6,3.09-1.08,4.55.47.61.66.31,2.71-.72,3s-.73.26-.54,1.45c.14.82,0,1-.61,2.11-.76,1.36-.15,1.73-1.09,3.15-.63,1-.7.28-1,1.81-.14.78-.9,2.14-1.59,2.14-2.53,0-4.39,2.62-6,5.28s-3.21,6.76-4.67,8l-5.36-3.66S315.68,157.69,316.24,156.84Z" transform="translate(-0.26 -1.45)" style="fill:#e9c2b0"/><path d="M321.23,165.53l-9.32-2.34s-20.07,34.64-23.58,45.88c-3.17,10.08,4.36,11,7.14,8.31,5.41-5.23,8.33-10.46,11.43-17.28C313.39,185.87,321.23,165.53,321.23,165.53Z" transform="translate(-0.26 -1.45)" style="fill:#174361"/><path d="M379,100s-.14.54-.39,1.37c-.3,1.07-2.8,9.9-3.2,11.27-.14.49-.22.78-.23.79-.21.44-.4.57-.56.57-.43,0-.69-1.19-.76-1.65a16,16,0,0,1,.14-2.81,2,2,0,0,0-.33-1.52,1.44,1.44,0,0,0-1.4-.57.88.88,0,0,0-.58.81c0,7.47-1.59,10.54-.74,16.18a8.41,8.41,0,0,1-.39,3.33l1.43-.28c2-.37,3.93-.71,5.9-1.07a3.38,3.38,0,0,0,.16-.37,9.27,9.27,0,0,1,1.47-2.17c1-1.26,3.71-6.68,3.79-6.84a93.06,93.06,0,0,0,3.4-8.76c.48-1.47,1-3,1.38-4.42a6.32,6.32,0,0,0,.47-2.39c-.11-.29-.54-.29-.94.48-1,2.05-1.58,3.74-2.4,5.84-.09.22-.4,1.16-.56.62a5.83,5.83,0,0,1,.23-.72c.51-1.59,2.49-6.82,2.64-7.84.11-.64,0-1.14-.35-1.16s-.87.59-1.27,1.33-.75,1.73-.93,2.17c-1,2.35-2.47,7.88-3.54,7.86-.48,0,3.55-10.89,3.67-11.17.52-1.28,1-3.17-.43-2.48-1.14.57-1.47,2.18-1.91,3.44-.06.16-1.77,5.13-2.44,6.82-.16.4-1,2.83-1.36,3.07-.61.35-.22-.73-.14-1.13.58-2.52,1.1-4.47,1.47-6s.58-2.32.68-3c.15-1,0-1.31-.67-1.14A2.11,2.11,0,0,0,379,100Z" transform="translate(-0.26 -1.45)" style="fill:#e9c2b0"/><path d="M370,125.08l9.57-.07s-8.09,38.21-13.24,48.32c-1.58,3.12-3.48,6.25-6.86,8.06-2.76,1.47-5,.72-5.89-1.61-1.65-4.56,1-11.86,2.8-18C360.15,149,370,125.08,370,125.08Z" transform="translate(-0.26 -1.45)" style="fill:#174361"/><path d="M333.32,184.39c0-2.38-1.68-3.35-3.74-2.16a8.28,8.28,0,0,0-3.73,6.47c0,2.38,1.68,3.34,3.73,2.15A8.25,8.25,0,0,0,333.32,184.39Z" transform="translate(-0.26 -1.45)" style="fill:#022540"/><path d="M333.32,201.36c0-2.38-1.68-3.34-3.74-2.15a8.29,8.29,0,0,0-3.73,6.47c0,2.38,1.68,3.35,3.73,2.16A8.28,8.28,0,0,0,333.32,201.36Z" transform="translate(-0.26 -1.45)" style="fill:#022540"/><polygon points="398.62 211.55 265.99 288.13 265.99 278.64 398.62 202.07 398.62 211.55" style="fill:#d7e7f7"/><polygon points="343.77 233.73 265.99 278.64 265.99 288.13 343.77 243.22 343.77 233.73" style="fill:#ff5542"/><polygon points="308.11 231.88 318.94 232.85 308.11 246.33 308.11 231.88" style="fill:#022540"/><polygon points="342.02 226.72 329.55 233.92 329.55 219.52 342.02 212.32 342.02 226.72" style="fill:#022540"/><polygon points="359.48 216.65 355.56 218.91 355.56 204.51 359.48 202.24 359.48 216.65" style="fill:#022540"/><polygon points="366.07 212.84 362.16 215.1 362.16 200.7 366.07 198.44 366.07 212.84" style="fill:#022540"/><g style="isolation:isolate"><g style="isolation:isolate"><path d="M408.74,22.83l-14.37-8.35a2.86,2.86,0,0,0-1.19-2.59l14.35,8.36a2.77,2.77,0,0,1,1.21,2.58Z" transform="translate(-0.26 -1.45)" style="fill:#bfbfbf"/></g></g><g style="isolation:isolate"><g style="isolation:isolate"><path d="M404.68,20.5l-14.35-8.35a3.55,3.55,0,0,1,1.16-.46L405.86,20a3.81,3.81,0,0,0-1.17.47Z" transform="translate(-0.26 -1.45)" style="fill:#00d9d0"/><path d="M405.86,20l-14.37-8.35a2.27,2.27,0,0,1,1.68.21l14.37,8.36a2.34,2.34,0,0,0-1.68-.22Z" transform="translate(-0.26 -1.45)" style="fill:#00a39c"/></g></g><g style="isolation:isolate"><path d="M400.89,12,386.52,3.68a16.71,16.71,0,0,1,4.9-2l14.35,8.35a16.57,16.57,0,0,0-4.89,2Z" transform="translate(-0.26 -1.45)" style="fill:#d7e7f7"/><path d="M405.77,10.05,391.42,1.71a9.23,9.23,0,0,1,6.65.85l14.35,8.35a9.18,9.18,0,0,0-6.65-.86Z" transform="translate(-0.26 -1.45)" style="fill:#d7e7f7"/></g><g style="isolation:isolate"><g style="isolation:isolate"><path d="M250,323.79l-14.35-8.35c-2.91-1.68-4.72-5.28-4.74-10.37l14.37,8.35c0,5.1,1.82,8.68,4.72,10.38Z" transform="translate(-0.26 -1.45)" style="fill:#d7e7f7"/></g></g><path d="M338,259.12c3.51-2,6.38-.42,6.39,3.64a14.07,14.07,0,0,1-6.37,11l-13,7.51c-3.51,2-6.38.39-6.39-3.65a13.94,13.94,0,0,1,6.36-11Z" transform="translate(-0.26 -1.45)" style="fill:#9cb5cc"/><path d="M400.89,12c8.91-5.15,16.26-1,16.29,9.24l.55,199.11c0,10.25-7.27,16.3-16.2,21.45l-140,80.85c-8.9,5.15-16.23,1-16.24-9.26l-.55-192.58c0-10.23,7.23-22.83,16.15-28Zm8.37,196.7-.52-185.89c0-2.53-1.87-3.6-4.05-2.34L257.16,105.66a9.07,9.07,0,0,0-4,7l.52,185.89c0,2.51,1.87,3.56,4.09,2.29l147.51-85.17a9,9,0,0,0,4-7ZM338,273.78a14.07,14.07,0,0,0,6.37-11c0-4.06-2.88-5.66-6.39-3.64l-13,7.52a13.94,13.94,0,0,0-6.36,11c0,4,2.88,5.67,6.39,3.65l13-7.51Z" transform="translate(-0.26 -1.45)" style="fill:#e9e9e9"/><path d="M404.68,20.5c2.18-1.27,4.05-.2,4.05,2.34l.52,185.89a9,9,0,0,1-4,7L257.73,300.86c-2.22,1.27-4.09.22-4.09-2.29l-.52-185.89a9.07,9.07,0,0,1,4-7Z" transform="translate(-0.26 -1.45)" style="fill:#002f58"/><polygon points="244.98 311.96 230.62 303.61 230.07 111.04 244.44 119.38 244.98 311.96" style="fill:#d7e7f7"/><polygon points="260.58 91.41 246.22 83.07 386.26 2.22 400.63 10.56 260.58 91.41" style="fill:#d7e7f7"/><g style="isolation:isolate"><path d="M244.7,120.84l-14.36-8.34c0-7,3.33-15,8.31-21.1L253,99.74c-5,6.07-8.32,14.13-8.31,21.1Z" transform="translate(-0.26 -1.45)" style="fill:#d7e7f7"/><path d="M253,99.74l-14.37-8.34a29.13,29.13,0,0,1,7.84-6.87l14.37,8.34A29.46,29.46,0,0,0,253,99.74Z" transform="translate(-0.26 -1.45)" style="fill:#d7e7f7"/></g><polyline points="279.4 264.74 283.49 267.15 283.36 234.16 386.31 174.92 382.14 172.75" style="fill:#bd0a33"/><polygon points="382.35 205.5 279.4 264.74 279.52 232 382.14 172.75 382.35 205.5" style="fill:#8c2362"/><polygon points="386.31 207.78 283.49 267.15 283.49 234.28 386.31 174.92 386.31 207.78" style="fill:#b03478"/><path d="M311.7,227.51a2.67,2.67,0,0,1,1.18-.37,2.22,2.22,0,0,1,1.24.35q.65.38.65,2v1.21a5,5,0,0,1-1.22,3.27q1.22.12,1.22,1.91v1.84a6.54,6.54,0,0,1-.92,3.26,6.41,6.41,0,0,1-2.37,2.45l-3,1.73V229.36Zm1.14,4v-1c0-.49-.12-.81-.36-1a.94.94,0,0,0-1,.13l-1.08.63v4.38l1.14-.66a2.28,2.28,0,0,0,1-1A3.57,3.57,0,0,0,312.85,231.54Zm0,7.25v-1.84a1.12,1.12,0,0,0-.35-1c-.23-.16-.56-.11-1,.13l-1.08.63v5l1.1-.64a2.5,2.5,0,0,0,.94-1A2.75,2.75,0,0,0,312.85,238.79Z" transform="translate(-0.26 -1.45)" style="fill:#fff"/><path d="M322.6,235.3a8.11,8.11,0,0,1-1.14,2,5.51,5.51,0,0,1-1.55,1.39,2.78,2.78,0,0,1-1.62.43,1.32,1.32,0,0,1-1.07-.54,2.72,2.72,0,0,1-.4-.9,4.87,4.87,0,0,1-.09-1v-12l1.94-1.12v12a2.61,2.61,0,0,0,0,.51,1,1,0,0,0,.32.47q.28.27.91-.1a2.13,2.13,0,0,0,.89-1,3.16,3.16,0,0,0,.3-1.28v-12L323,221v12a6.42,6.42,0,0,1-.1,1.13A6.12,6.12,0,0,1,322.6,235.3Z" transform="translate(-0.26 -1.45)" style="fill:#fff"/><path d="M326.63,234.64v-6.78L324,220.41l2-1.18,1.57,5.33,1.61-7.17,2-1.18-2.69,10.53v6.78Z" transform="translate(-0.26 -1.45)" style="fill:#fff"/><path d="M340.81,226.46l-3-7.84v9.59l-1.94,1.12V213.58l1.83-1.06,3,7.81v-9.55l1.94-1.12v15.75Z" transform="translate(-0.26 -1.45)" style="fill:#fff"/><path d="M345.19,209.68a8.22,8.22,0,0,1,1.18-1.87,5.74,5.74,0,0,1,1.49-1.29,3.15,3.15,0,0,1,1.42-.46,1.57,1.57,0,0,1,1.1.33,1.83,1.83,0,0,1,.6.9,4.54,4.54,0,0,1,.16,1.29v8a7.09,7.09,0,0,1-.11,1.3,7.5,7.5,0,0,1-.48,1.46,7.35,7.35,0,0,1-1.08,1.75,5.61,5.61,0,0,1-1.55,1.37,2.85,2.85,0,0,1-1.76.45,1.41,1.41,0,0,1-1.12-.64,2.71,2.71,0,0,1-.38-.94,6.64,6.64,0,0,1-.06-1v-8a6.28,6.28,0,0,1,.13-1.32A6.84,6.84,0,0,1,345.19,209.68Zm3.77-.93a.81.81,0,0,0-1.06,0,2.56,2.56,0,0,0-.68.62,2.73,2.73,0,0,0-.64,1.42,3.9,3.9,0,0,0,0,.5v8a4.36,4.36,0,0,0,0,.5,1.06,1.06,0,0,0,.33.58q.3.31,1-.1a2.36,2.36,0,0,0,.66-.58A2.83,2.83,0,0,0,349,219a3,3,0,0,0,.17-.59,4.3,4.3,0,0,0,0-.64v-8a4.38,4.38,0,0,0,0-.64A.57.57,0,0,0,349,208.75Z" transform="translate(-0.26 -1.45)" style="fill:#fff"/><path d="M359.12,215.89l-1.59-8.6L356,217.71l-1.79,1-2-14.61,2.08-1.2,1,9,1.57-10.47,1.45-.84,1.59,8.64,1-10.13,2.06-1.19L361,214.82Z" transform="translate(-0.26 -1.45)" style="fill:#fff"/><path d="M442.63,210.34a7.92,7.92,0,0,0,8.56,7.2h0a7.92,7.92,0,0,0,7.16-8.6L455.78,178a7.91,7.91,0,0,0-8.56-7.19h0a7.9,7.9,0,0,0-7.15,8.6Z" transform="translate(-0.26 -1.45)" style="fill:#00a7e1"/><path d="M450.56,328.67c-1.22,1.68-.52,3.27-.68,8.1l-1,0c0-3.3.08-6.09-.48-7.41a2.66,2.66,0,0,0-.51-.73Z" transform="translate(-0.26 -1.45)" style="fill:#012944"/><path d="M438.58,322.13a46.52,46.52,0,0,0,.64-9c0-1.18-.89-28.29-1.26-36.38l13.22-6c.29,5.18,1.69,23.83-.92,34.76-.36,1.55-1.84,8.82-2.06,10.6a10.8,10.8,0,0,0,.54,5.3c.16.41.75,1.64.94,2.24s0,.88.17,1.36c.39,1.07.45.69-.4,1-.55.19-1.21.25-1.78.43a6.9,6.9,0,0,0-1.91,1.11c-1,.67-2.22,1.08-2.86,2.08s-.35,2.27-.76,3.27a2.39,2.39,0,0,1-2.35,1.68h-.07l-3.05-.85a7.74,7.74,0,0,1-1.2-.84,13.46,13.46,0,0,1-1.06-1.05c.31-.17,1.12-2.63,1.49-2.8C436.43,328.72,438.14,324.9,438.58,322.13Z" transform="translate(-0.26 -1.45)" style="fill:#e9c2b0"/><path d="M434.09,329.26l2.32-.93a.85.85,0,0,0,.49,1,5.33,5.33,0,0,0,.64.25,4.32,4.32,0,0,0,1.7.22,4.23,4.23,0,0,0,2.61-1.26,25,25,0,0,1,6-4.3c.74-.4,1.48-1.55,1.63-1.31a11.55,11.55,0,0,1,1.31,2.65c.33,1.54.63,3.18-.15,4a3.43,3.43,0,0,1-3.4.68,4.65,4.65,0,0,0-3.27,0c-1.17.9,0,5.12-2.05,4.75a56.3,56.3,0,0,1-5.86-1.38,25.74,25.74,0,0,1-2.77-1,3.94,3.94,0,0,1-1.62-1C430.41,330.08,433.42,329.51,434.09,329.26Z" transform="translate(-0.26 -1.45)" style="fill:#012944"/><path d="M432.63,203.15l-9.93,0-4.27,2.12c-.4.23-2.4,1.26-2.45,2.54,0,.86.33,5.7,1.95,5.28,1.08-.29,9.58-3.85,9.58-3.85.6-.17,2.49,0,2.81-.37l2.3-2.24Z" transform="translate(-0.26 -1.45)" style="fill:#e9c2b0"/><path d="M437.2,200.75a7.63,7.63,0,0,0-9.21,5.63h0a7.63,7.63,0,0,0,5.68,9.19l14.84,1.74a7.65,7.65,0,0,0,9.21-5.65h0a7.63,7.63,0,0,0-5.69-9.18Z" transform="translate(-0.26 -1.45)" style="fill:#00a7e1"/><path d="M425.14,178.52c0-.79,6.16-3.22,6.85-2.67,2.58,2,5.68-.64,7.49-1.59a3.86,3.86,0,0,0,1.91-2.61,4,4,0,0,1,2.77,1.27c2.3,2.54,3.79,7.55-5.75,9.41a14.28,14.28,0,0,1-8.73-.92C427.45,180.33,423.06,180.58,425.14,178.52Z" transform="translate(-0.26 -1.45)" style="fill:#e9e9e9"/><path d="M432.75,335.14c-1.22,1.68-.52,3.27-.52,8.68l-1,0c-.16-3.88-.08-6.67-.65-8a2.28,2.28,0,0,0-.52-.73Z" transform="translate(-0.26 -1.45)" style="fill:#012944"/><path d="M420.75,328.59a45.53,45.53,0,0,0,.66-9c0-1.17-.89-28.29-1.28-36.37l13.24-6c.27,5.18,1.67,23.81-.93,34.75-.37,1.56-1.85,8.83-2.06,10.6a10.52,10.52,0,0,0,.54,5.3c.15.42.73,1.64.93,2.24s0,.88.19,1.36c.37,1.07.45.69-.41,1-.54.2-1.2.26-1.76.44A6.86,6.86,0,0,0,428,334c-1,.67-2.22,1.09-2.88,2.07s-.34,2.29-.74,3.27A2.43,2.43,0,0,1,422,341h-.07l-3.05-.84a7.43,7.43,0,0,1-1.2-.85,8.78,8.78,0,0,1-1.06-1.06c.31-.16,1.12-2.61,1.48-2.8C418.62,335.2,420.33,331.37,420.75,328.59Z" transform="translate(-0.26 -1.45)" style="fill:#e9c2b0"/><path d="M416.26,335.72c.56-.21,2.32-.92,2.32-.92a.87.87,0,0,0,.49,1c.21.1.47.19.64.25a4,4,0,0,0,4.32-1,25.15,25.15,0,0,1,6-4.31c.75-.39,1.49-1.53,1.64-1.29a12.09,12.09,0,0,1,1.31,2.64c.33,1.53.63,3.17-.15,4a3.42,3.42,0,0,1-3.4.68,4.61,4.61,0,0,0-3.27,0c-1.17.89,0,5.11-2.06,4.74a56.23,56.23,0,0,1-5.86-1.38,24,24,0,0,1-2.77-.94,3.94,3.94,0,0,1-1.62-1C412.6,336.55,415.6,336,416.26,335.72Z" transform="translate(-0.26 -1.45)" style="fill:#012944"/><path d="M451.88,217.73c-.4-1-.82-2-1.29-3-9.74-20.73,2.92-42.92-8.64-43.09,0,0,5.9,6-3,8-8.7,1.91-12.31-2.24-12.31-2.24-3.88,1.69-13.85,9.51-7.23,26.91,1.16,3.07.72,9.46-.19,17.93C435.19,228.63,446.4,224.59,451.88,217.73Z" transform="translate(-0.26 -1.45)" style="fill:#002f58"/><path d="M451.88,217.73c-5.48,6.86-16.69,10.91-32.64,4.5-1.78,16.5-5.31,40.89-2.11,64,4.06,5.17,30.27-1,36.38-6.44C453.37,273.69,461.83,242.7,451.88,217.73Z" transform="translate(-0.26 -1.45)" style="fill:#646469"/><path d="M441.57,174c.1,4.26-11.12,5.51-12,2.51-.67-2.18-.55-8.58-.55-8.58l12-1.14S441.57,174,441.57,174Z" transform="translate(-0.26 -1.45)" style="fill:#d9b4a4"/><path d="M444.08,164.12c-6.17,6.48-8.59,6.38-14.74,2s-8.74-10.5-7.26-19.63c1.58-9.7,13.13-12.16,20.48-7.68C456.6,147.42,451.75,156.09,444.08,164.12Z" transform="translate(-0.26 -1.45)" style="fill:#260905"/><path d="M441.42,157.88c-.37,2.75-2,10.8-3.68,12.29-2.41,2.08-9.26,3.48-12.42,1-4.22-3.37-3.65-10.45-3.65-19.25s5.7-10.47,10.56-6.71S442.58,149.19,441.42,157.88Z" transform="translate(-0.26 -1.45)" style="fill:#e9c2b0"/><path d="M451.36,149c-.52-3.82-9.67-4.18-9.67-4.18-.66-.52-4.68-15.19-20-3.25-3.17,2.47-2.15,11.12-2.15,11.12s6.93.69,7.78,1.37,3.73,5.48,6.19,9.8l1,1.7c1.31,2.36,2.89,7.18,9,3.17C444,168.32,454.15,157.73,451.36,149Z" transform="translate(-0.26 -1.45)" style="fill:#260905"/><path d="M433.85,160.64c-.64,1.86-1.53,3-2.71,2.8s-1.81-1.4-1.55-3.36,2-3.38,3.14-3.23S434.58,158.54,433.85,160.64Z" transform="translate(-0.26 -1.45)" style="fill:#e9c2b0"/><path d="M443.21,176.25q.72-1.53,1.52-3.1c13.77-20.81-4.35-27.47-4.35-27.55a2.5,2.5,0,0,1,1.11-2.56,9.35,9.35,0,0,1,2.09-1.25,7.85,7.85,0,0,1,5.24-2c5-.08,12.66,2.7,13.66,25.6.21,4.61,2,15.89-.31,22.42a4.84,4.84,0,0,1-4,2.71h-1.31c-6.3-2.42-15.34-5.36-14.1-11.12A22.89,22.89,0,0,0,443.21,176.25Z" transform="translate(-0.26 -1.45)" style="fill:#1b0e0d"/><path d="M389.77,210.56l-5.78-4-5.33-2c-.53-.17-3.08-1.1-4.26-.3-.77.53-4.76,4-3.06,5,1.13.68,10.17,4.52,10.17,4.52a11.91,11.91,0,0,1,5.31,1l2.13,2Z" transform="translate(-0.26 -1.45)" style="fill:#e9c2b0"/><path d="M398.09,211.81a7.92,7.92,0,0,0,1.87,11h0a7.91,7.91,0,0,0,11-1.92l18.09-25.24a7.91,7.91,0,0,0-1.88-11h0a7.91,7.91,0,0,0-11,1.92Z" transform="translate(-0.26 -1.45)" style="fill:#00a7e1"/><path d="M391.61,206.31a7.64,7.64,0,0,0-9.61,4.95h0a7.64,7.64,0,0,0,5,9.58l14.66,2.82a7.65,7.65,0,0,0,9.62-4.95h0a7.65,7.65,0,0,0-5-9.58Z" transform="translate(-0.26 -1.45)" style="fill:#00a7e1"/></g><path d="M381.46,106.78c0,29.4-20.64,65.16-46.11,79.86s-46.11,2.78-46.11-26.62,20.64-65.16,46.11-79.86S381.46,77.38,381.46,106.78Z" transform="translate(-0.26 -1.45)" style="fill:#00b6e8"/><path d="M329.58,170.09l17.1-9.94a3.87,3.87,0,0,1-1.75-3l-17.1,9.94A3.87,3.87,0,0,0,329.58,170.09Z" transform="translate(-0.26 -1.45)" style="fill:#e1e1e1"/><path d="M338.06,174,353,165.33a.88.88,0,0,0,0-1.52l-6.32-3.65-17.1,9.94,6.78,3.92A1.69,1.69,0,0,0,338.06,174Z" transform="translate(-0.26 -1.45)" style="fill:#e1e1e1"/><polygon points="327.57 165.6 344.67 155.66 344.19 148.11 328.85 157.02 327.57 165.6" style="fill:#bebebe"/><polygon points="328.85 157.02 344.19 148.11 343.4 147.65 328.06 156.56 328.85 157.02" style="fill:#e0e0e0"/><path d="M328.32,158l.79.46L327.83,167a3.87,3.87,0,0,0,1.75,3l6.48,3.74h0l.3.17a1.69,1.69,0,0,0,1.69,0l.37-.22,13-7.53,1.2-.69h0l.41-.24s.07-.08.11-.11a.86.86,0,0,0,.32-.66h0v.53h0v.61h0a.62.62,0,0,1-.33.48l-.1.06-14.59,8.47a2.42,2.42,0,0,1-2.42,0l-6.61-3.82a5.18,5.18,0,0,1-2.34-4.06Z" transform="translate(-0.26 -1.45)" style="fill:#bebebe"/><path d="M304,174.38l64.94-37.49a3.52,3.52,0,0,0,1.47-2.81V90.6c0-1.08-.66-1.58-1.47-1.11L304,127a3.52,3.52,0,0,0-1.47,2.81v43.47C302.52,174.35,303.18,174.85,304,174.38Z" transform="translate(-0.26 -1.45)" style="fill:#1b1b1b"/><polygon points="367.77 133.21 367.77 91.29 304.63 127.75 304.63 169.67 367.77 133.21" style="fill:#3c4159"/><polygon points="369.5 87.9 369.5 87.9 369.5 87.9 369.5 87.9" style="fill:#bebebe"/><path d="M301.26,126.07,366.2,88.58a.94.94,0,0,1,.94-.08l2.61.85a1,1,0,0,0-.82.14L304,127a3.52,3.52,0,0,0-1.47,2.81v43.47a2.21,2.21,0,0,0,0,.41l0,.08a1.48,1.48,0,0,0,.09.27l0,0a1,1,0,0,0,.15.22l0,0a.76.76,0,0,0,.22.16h0l-2.57-.86-.16-.05h0a1.24,1.24,0,0,1-.57-1.21V128.88A3.52,3.52,0,0,1,301.26,126.07Z" transform="translate(-0.26 -1.45)" style="fill:#bebebe"/><polygon points="288 93.52 291.56 109.17 301.85 89.46 297.88 109.35 312.54 94.22 301.94 113.8 317.6 106.71 302.8 121.48 315.88 124.06 300.27 130.65 307.77 142.31 294.93 139.2 295.13 157.27 288 145.17 280.86 165.51 281.06 147.2 268.22 165.14 275.72 144.82 260.11 156.26 273.19 138.57 258.39 140.89 274.05 129.9 263.45 122.56 278.11 120.77 274.14 105.46 284.43 113.29 288 93.52" style="fill:#b03478"/><path d="M281.64,138l-2-5.28v6.46l-1.3.75V129.34l1.24-.71,2,5.26v-6.43l1.3-.75v10.61Z" transform="translate(-0.26 -1.45)" style="fill:#fff"/><path d="M288.2,132.72v1.51l-3.91,2.26V125.88l3.91-2.26V125l-2.61,1.51v3.14l2.29-1.32v1.43l-2.29,1.32v3.14Z" transform="translate(-0.26 -1.45)" style="fill:#fff"/><path d="M293.45,131.2l-1.07-5.79-1.06,7-1.21.7-1.33-9.84,1.4-.81.64,6.07,1.06-7,1-.56,1.07,5.82.66-6.82,1.39-.8-1.29,11.35Z" transform="translate(-0.26 -1.45)" style="fill:#fff"/><path d="M297.24,126.36l-.49-7.67,1.62-.94-.49,8.24Zm-.34,2.85V127.7l1.3-.75v1.51Z" transform="translate(-0.26 -1.45)" style="fill:#fff"/></g></svg>