<svg id="a295537b-855b-4932-9d85-b61c35e83705" data-name="Layer 1" xmlns="http://www.w3.org/2000/svg" viewBox="0 0 413 276.5"><title>gamingConsole1</title><path d="M102.56,37.46H73.92V29.65a2.6,2.6,0,0,0-2.6-2.6H63.5V16.63A15.64,15.64,0,0,0,47.88,1H24.44a2.6,2.6,0,1,0,0,5.21H47.88A10.43,10.43,0,0,1,58.29,16.63V27H50.48a2.6,2.6,0,0,0-2.6,2.6v7.81H24.44A23.46,23.46,0,0,0,1,60.9V113a13,13,0,0,0,13,13c6.84,0,7.54-1.26,14.2-13.28,2.79-5,7-12.56,13.31-23.18H85.46c6.38,10.68,10.51,18.22,13.29,23.27C105,124.25,106,126,113,126a13,13,0,0,0,13-13V60.9A23.46,23.46,0,0,0,102.56,37.46ZM53.08,32.25H68.71v5.21H53.08ZM120.79,113a7.82,7.82,0,0,1-7.81,7.81c-3.91,0-3.91,0-9.66-10.49C100.42,105,96,97,89.17,85.6a2.59,2.59,0,0,0-2.23-1.27H40.06a2.6,2.6,0,0,0-2.23,1.27C31,97,26.59,104.93,23.67,110.2c-5.88,10.59-5.88,10.59-9.65,10.59A7.82,7.82,0,0,1,6.21,113V60.9A18.25,18.25,0,0,1,24.44,42.67h78.12A18.25,18.25,0,0,1,120.79,60.9Z" transform="translate(-1 -1)" style="fill:#003058"/><path d="M93.67,52A5.21,5.21,0,1,0,101,52,5.22,5.22,0,0,0,93.67,52Zm3.68,3.68h0l1.84,1.84Z" transform="translate(-1 -1)" style="fill:#003058"/><path d="M104.09,62.42a5.21,5.21,0,1,0,7.36,0A5.22,5.22,0,0,0,104.09,62.42Zm3.68,3.68h0l1.84,1.85Z" transform="translate(-1 -1)" style="fill:#003058"/><path d="M83.26,62.42a5.21,5.21,0,0,0,7.36,7.36,5.22,5.22,0,0,0,0-7.37A5.34,5.34,0,0,0,83.26,62.42Zm3.68,3.68h0l1.84,1.85Z" transform="translate(-1 -1)" style="fill:#003058"/><path d="M93.67,72.84a5.21,5.21,0,1,0,7.36,0A5.22,5.22,0,0,0,93.67,72.84Zm3.68,3.68h0l1.84,1.85Z" transform="translate(-1 -1)" style="fill:#003058"/><path d="M40.06,63.5H32.25V55.69a2.6,2.6,0,1,0-5.21,0V63.5H19.23a2.6,2.6,0,1,0,0,5.21H27v7.81a2.6,2.6,0,1,0,5.21,0V68.71h7.81a2.6,2.6,0,1,0,0-5.21Z" transform="translate(-1 -1)" style="fill:#003058"/><path d="M58.29,73.92H53.08a2.6,2.6,0,0,0,0,5.21h5.21a2.6,2.6,0,0,0,0-5.21Z" transform="translate(-1 -1)" style="fill:#003058"/><path d="M73.92,73.92H68.71a2.6,2.6,0,0,0,0,5.21h5.21a2.6,2.6,0,0,0,0-5.21Z" transform="translate(-1 -1)" style="fill:#003058"/><path d="M249.56,37.46H220.92V29.65a2.6,2.6,0,0,0-2.6-2.6H210.5V16.63A15.64,15.64,0,0,0,194.88,1H171.44a2.6,2.6,0,0,0,0,5.21h23.44a10.43,10.43,0,0,1,10.42,10.42V27h-7.81a2.6,2.6,0,0,0-2.6,2.6v7.81H171.44A23.46,23.46,0,0,0,148,60.9V113a13,13,0,0,0,13,13c6.84,0,7.54-1.26,14.2-13.28,2.79-5,7-12.56,13.31-23.18h43.92c6.38,10.68,10.51,18.22,13.29,23.27C252,124.25,253,126,260,126a13,13,0,0,0,13-13V60.9A23.46,23.46,0,0,0,249.56,37.46Zm-49.48-5.21h15.63v5.21H200.08ZM267.79,113a7.82,7.82,0,0,1-7.81,7.81c-3.91,0-3.91,0-9.66-10.49C247.42,105,243,97,236.17,85.6a2.59,2.59,0,0,0-2.23-1.27H187.06a2.6,2.6,0,0,0-2.23,1.27C178,97,173.59,104.93,170.67,110.2c-5.88,10.59-5.88,10.59-9.65,10.59a7.82,7.82,0,0,1-7.81-7.81V60.9a18.25,18.25,0,0,1,18.23-18.23h78.12A18.25,18.25,0,0,1,267.79,60.9Z" transform="translate(-1 -1)" style="fill:#00a7e1"/><path d="M240.67,52A5.21,5.21,0,1,0,248,52,5.22,5.22,0,0,0,240.67,52Zm3.68,3.68h0l1.84,1.84Z" transform="translate(-1 -1)" style="fill:#00a7e1"/><path d="M251.09,62.42a5.21,5.21,0,1,0,7.36,0A5.22,5.22,0,0,0,251.09,62.42Zm3.68,3.68h0l1.84,1.85Z" transform="translate(-1 -1)" style="fill:#00a7e1"/><path d="M230.26,62.42a5.21,5.21,0,0,0,7.36,7.36,5.22,5.22,0,0,0,0-7.37A5.34,5.34,0,0,0,230.26,62.42Zm3.68,3.68h0l1.84,1.85Z" transform="translate(-1 -1)" style="fill:#00a7e1"/><path d="M240.67,72.84a5.21,5.21,0,1,0,7.36,0A5.22,5.22,0,0,0,240.67,72.84Zm3.68,3.68h0l1.84,1.85Z" transform="translate(-1 -1)" style="fill:#00a7e1"/><path d="M187.06,63.5h-7.81V55.69a2.6,2.6,0,1,0-5.21,0V63.5h-7.81a2.6,2.6,0,1,0,0,5.21H174v7.81a2.6,2.6,0,1,0,5.21,0V68.71h7.81a2.6,2.6,0,1,0,0-5.21Z" transform="translate(-1 -1)" style="fill:#00a7e1"/><path d="M205.29,73.92h-5.21a2.6,2.6,0,0,0,0,5.21h5.21a2.6,2.6,0,0,0,0-5.21Z" transform="translate(-1 -1)" style="fill:#00a7e1"/><path d="M220.92,73.92h-5.21a2.6,2.6,0,0,0,0,5.21h5.21a2.6,2.6,0,0,0,0-5.21Z" transform="translate(-1 -1)" style="fill:#00a7e1"/><path d="M218,260.5h-5.5V259a.5.5,0,0,0-.5-.5h-1.5v-2a3,3,0,0,0-3-3H203a.5.5,0,0,0,0,1h4.5a2,2,0,0,1,2,2v2H208a.5.5,0,0,0-.5.5v1.5H203a4.5,4.5,0,0,0-4.5,4.5v10a2.5,2.5,0,0,0,2.5,2.5c1.31,0,1.45-.24,2.73-2.55.54-1,1.34-2.41,2.56-4.45h8.43c1.22,2.05,2,3.5,2.55,4.47,1.21,2.2,1.39,2.53,2.73,2.53a2.5,2.5,0,0,0,2.5-2.5V265A4.5,4.5,0,0,0,218,260.5Zm-9.5-1h3v1h-3Zm13,15.5a1.5,1.5,0,0,1-1.5,1.5c-.75,0-.75,0-1.86-2-.56-1-1.4-2.55-2.72-4.74a.5.5,0,0,0-.43-.24h-9a.5.5,0,0,0-.43.24c-1.31,2.18-2.16,3.71-2.72,4.72-1.13,2-1.13,2-1.85,2a1.5,1.5,0,0,1-1.5-1.5V265a3.5,3.5,0,0,1,3.5-3.5h15a3.5,3.5,0,0,1,3.5,3.5Z" transform="translate(-1 -1)" style="fill:#00a7e1"/><path d="M216.29,263.29a1,1,0,1,0,1.41,0A1,1,0,0,0,216.29,263.29Zm.71.71h0l.35.35Z" transform="translate(-1 -1)" style="fill:#00a7e1"/><path d="M218.29,265.29a1,1,0,1,0,1.41,0A1,1,0,0,0,218.29,265.29Zm.71.71h0l.35.35Z" transform="translate(-1 -1)" style="fill:#00a7e1"/><path d="M214.29,265.29a1,1,0,0,0,1.41,1.41,1,1,0,0,0,0-1.42A1,1,0,0,0,214.29,265.29Zm.71.71h0l.35.35Z" transform="translate(-1 -1)" style="fill:#00a7e1"/><path d="M216.29,267.29a1,1,0,1,0,1.41,0A1,1,0,0,0,216.29,267.29Zm.71.71h0l.35.35Z" transform="translate(-1 -1)" style="fill:#00a7e1"/><path d="M206,265.5h-1.5V264a.5.5,0,0,0-1,0v1.5H202a.5.5,0,0,0,0,1h1.5V268a.5.5,0,0,0,1,0v-1.5H206a.5.5,0,0,0,0-1Z" transform="translate(-1 -1)" style="fill:#00a7e1"/><path d="M209.5,267.5h-1a.5.5,0,0,0,0,1h1a.5.5,0,0,0,0-1Z" transform="translate(-1 -1)" style="fill:#00a7e1"/><path d="M212.5,267.5h-1a.5.5,0,0,0,0,1h1a.5.5,0,0,0,0-1Z" transform="translate(-1 -1)" style="fill:#00a7e1"/><path d="M390.56,37.46H361.92V29.65a2.6,2.6,0,0,0-2.6-2.6H351.5V16.63A15.64,15.64,0,0,0,335.88,1H312.44a2.6,2.6,0,0,0,0,5.21h23.44a10.43,10.43,0,0,1,10.42,10.42V27h-7.81a2.6,2.6,0,0,0-2.6,2.6v7.81H312.44A23.46,23.46,0,0,0,289,60.9V113a13,13,0,0,0,13,13c6.84,0,7.54-1.26,14.2-13.28,2.79-5,7-12.56,13.31-23.18h43.92c6.38,10.68,10.51,18.22,13.29,23.27C393,124.25,394,126,401,126a13,13,0,0,0,13-13V60.9A23.46,23.46,0,0,0,390.56,37.46Zm-49.48-5.21h15.63v5.21H341.08ZM408.79,113a7.82,7.82,0,0,1-7.81,7.81c-3.91,0-3.91,0-9.66-10.49C388.42,105,384,97,377.17,85.6a2.59,2.59,0,0,0-2.23-1.27H328.06a2.6,2.6,0,0,0-2.23,1.27C319,97,314.59,104.93,311.67,110.2c-5.88,10.59-5.88,10.59-9.65,10.59a7.82,7.82,0,0,1-7.81-7.81V60.9a18.25,18.25,0,0,1,18.23-18.23h78.12A18.25,18.25,0,0,1,408.79,60.9Z" transform="translate(-1 -1)" style="fill:#fff"/><path d="M381.67,52A5.21,5.21,0,1,0,389,52,5.22,5.22,0,0,0,381.67,52Zm3.68,3.68h0l1.84,1.84Z" transform="translate(-1 -1)" style="fill:#fff"/><path d="M392.09,62.42a5.21,5.21,0,1,0,7.36,0A5.22,5.22,0,0,0,392.09,62.42Zm3.68,3.68h0l1.84,1.85Z" transform="translate(-1 -1)" style="fill:#fff"/><path d="M371.26,62.42a5.21,5.21,0,0,0,7.36,7.36,5.22,5.22,0,0,0,0-7.37A5.34,5.34,0,0,0,371.26,62.42Zm3.68,3.68h0l1.84,1.85Z" transform="translate(-1 -1)" style="fill:#fff"/><path d="M381.67,72.84a5.21,5.21,0,1,0,7.36,0A5.22,5.22,0,0,0,381.67,72.84Zm3.68,3.68h0l1.84,1.85Z" transform="translate(-1 -1)" style="fill:#fff"/><path d="M328.06,63.5h-7.81V55.69a2.6,2.6,0,1,0-5.21,0V63.5h-7.81a2.6,2.6,0,1,0,0,5.21H315v7.81a2.6,2.6,0,1,0,5.21,0V68.71h7.81a2.6,2.6,0,1,0,0-5.21Z" transform="translate(-1 -1)" style="fill:#fff"/><path d="M346.29,73.92h-5.21a2.6,2.6,0,0,0,0,5.21h5.21a2.6,2.6,0,0,0,0-5.21Z" transform="translate(-1 -1)" style="fill:#fff"/><path d="M361.92,73.92h-5.21a2.6,2.6,0,0,0,0,5.21h5.21a2.6,2.6,0,0,0,0-5.21Z" transform="translate(-1 -1)" style="fill:#fff"/></svg>