<svg id="e7920407-108d-4792-81d4-a176f40aa9ad" data-name="Layer 1" xmlns="http://www.w3.org/2000/svg" viewBox="0 0 24.5 35"><title>icons</title><path d="M24.12,7.21l-1.5-1.5A.5.5,0,0,0,22,5.66L18.44,8.12a.5.5,0,0,0-.07.76l.94.94-10,10L7.57,18a.5.5,0,0,0-.71.71l.71.71L1.35,25.65a2,2,0,0,0,1.41,3.41h0a2,2,0,0,0,1.42-.59l6.22-6.22.71.71a.5.5,0,0,0,.71-.71L10,20.5l10-10,.83.83a.5.5,0,0,0,.35.15h0a.5.5,0,0,0,.36-.2l2.57-3.43A.5.5,0,0,0,24.12,7.21ZM3.47,27.77h0a1,1,0,0,1-.71.29h0a1,1,0,0,1-.71-1.71l6.22-6.22,1.41,1.41ZM21.15,10.24,19.5,8.6l2.71-1.88.9.9Z" style="fill:#003058"/><path d="M6.17,14.36l3.52,3.51.71-.71L6.64,13.42a.5.5,0,0,0-.55-.11,3.47,3.47,0,0,1-4.8-3.8l1.48,1.42a.5.5,0,0,0,.35.14H5.27a.5.5,0,0,0,.5-.5V8.5a.5.5,0,0,0-.14-.35L4.17,6.63a3.38,3.38,0,0,1,3,1A3.49,3.49,0,0,1,8,11.44a.5.5,0,0,0,.11.55l3.75,3.74.71-.71L9,11.51A4.48,4.48,0,0,0,7.91,6.89,4.37,4.37,0,0,0,3,5.93a.5.5,0,0,0-.17.81l1.88,2v1.36H3.31L1.39,8.23a.5.5,0,0,0-.81.17,4.47,4.47,0,0,0,5.58,6Z" style="fill:#003058"/><path d="M18.15,20.67l-3.52-3.52-.71.71,3.75,3.75a.5.5,0,0,0,.55.11A3.5,3.5,0,0,1,23,25.59l-1.57-1.45a.5.5,0,0,0-.34-.13h-2a.5.5,0,0,0-.5.5v2a.5.5,0,0,0,.14.35l1.47,1.52a3.5,3.5,0,0,1-3.86-4.81.5.5,0,0,0-.11-.55l-3.75-3.75L11.8,20l3.52,3.52a4.5,4.5,0,0,0,6,5.58.5.5,0,0,0,.17-.81l-1.89-2V25h1.3l2,1.86a.5.5,0,0,0,.8-.17,4.5,4.5,0,0,0-5.58-6Z" style="fill:#003058"/></svg>