<svg id="d3bc3318-2ed4-4570-86c9-13014c26311d" data-name="Layer 1" xmlns="http://www.w3.org/2000/svg" viewBox="0 0 23 35"><title>icons</title><path d="M22.5,20.5H21V20a3.5,3.5,0,0,0-7,0v.5H12.5a.5.5,0,0,0-.5.5v8a.5.5,0,0,0,.5.5h10A.5.5,0,0,0,23,29V21A.5.5,0,0,0,22.5,20.5ZM15,20a2.5,2.5,0,0,1,5,0v.5H15Zm7,8.5H13v-7h9Z" style="fill:#003058"/><path d="M8,11.5H18a.5.5,0,0,0,0-1H8a.5.5,0,0,0,0,1Z" style="fill:#003058"/><path d="M8,9.5H18a.5.5,0,0,0,0-1H8a.5.5,0,0,0,0,1Z" style="fill:#003058"/><path d="M4,11A1.5,1.5,0,1,0,2.5,9.5,1.5,1.5,0,0,0,4,11ZM4,9a.5.5,0,1,1-.5.5A.5.5,0,0,1,4,9Z" style="fill:#003058"/><path d="M10,17.5H8a.5.5,0,0,0,0,1h2a.5.5,0,0,0,0-1Z" style="fill:#003058"/><path d="M11,15.5H8a.5.5,0,0,0,0,1h3a.5.5,0,0,0,0-1Z" style="fill:#003058"/><path d="M2.5,16.5A1.5,1.5,0,1,0,4,15,1.5,1.5,0,0,0,2.5,16.5Zm2,0A.5.5,0,1,1,4,16,.5.5,0,0,1,4.5,16.5Z" style="fill:#003058"/><path d="M10,26.5H1.5A.5.5,0,0,1,1,26V21a.5.5,0,0,1,.5-.5H9a.5.5,0,0,0,0-1H1.5A.5.5,0,0,1,1,19V14a.5.5,0,0,1,.5-.5h19a.5.5,0,0,1,.5.5v1.5a.5.5,0,0,0,1,0V14a1.49,1.49,0,0,0-.39-1A1.49,1.49,0,0,0,22,12V7a1.5,1.5,0,0,0-1.5-1.5H1.5A1.5,1.5,0,0,0,0,7v5a1.49,1.49,0,0,0,.39,1A1.49,1.49,0,0,0,0,14v5a1.49,1.49,0,0,0,.39,1A1.49,1.49,0,0,0,0,21v5a1.5,1.5,0,0,0,1.5,1.5H10a.5.5,0,0,0,0-1ZM1,7a.5.5,0,0,1,.5-.5h19A.5.5,0,0,1,21,7v5a.5.5,0,0,1-.5.5H1.5A.5.5,0,0,1,1,12Z" style="fill:#003058"/><path d="M2.5,23.5A1.5,1.5,0,1,0,4,22,1.5,1.5,0,0,0,2.5,23.5Zm2,0A.5.5,0,1,1,4,23,.5.5,0,0,1,4.5,23.5Z" style="fill:#003058"/><path d="M17.5,23a1,1,0,0,0-1,1,1,1,0,0,0,.5.85V26.5a.5.5,0,0,0,1,0V24.85a1,1,0,0,0,.5-.85A1,1,0,0,0,17.5,23Zm0,1h0Z" style="fill:#003058"/></svg>