<svg id="e0f9cc6b-278f-4159-bb2b-f99acc92b155" data-name="Layer 1" xmlns="http://www.w3.org/2000/svg" viewBox="0 0 24 35"><title>icons</title><path d="M22,20a2,2,0,1,0-2-2,2,2,0,0,0,.08.53L16.43,20.6a2,2,0,0,0-3.36.9H9.43A2,2,0,0,0,5.5,22a2,2,0,0,0,.09.57L1,25.58v-8l6.1-3.64a2,2,0,0,0,3.07-.35L14,14.95s0,0,0,.05a2,2,0,0,0,4,0,2,2,0,0,0-.42-1.22L21.1,9.28a2,2,0,0,0,.9.22,2,2,0,1,0-1.65-.88l-3.56,4.54a2,2,0,0,0-2.5.82l-3.8-1.36s0-.08,0-.13a2,2,0,0,0-4,0,2,2,0,0,0,.09.57L1,16.4V6A.5.5,0,0,0,0,6V29a.5.5,0,0,0,.5.5h23a.5.5,0,0,0,0-1H1V26.77l5.11-3.34a2,2,0,0,0,3.32-.93h3.64A2,2,0,0,0,17,22a2,2,0,0,0-.08-.53l3.66-2.07A2,2,0,0,0,22,20ZM22,6.5a1,1,0,1,1-1,1A1,1,0,0,1,22,6.5ZM16,14a1,1,0,1,1-1,1A1,1,0,0,1,16,14ZM8.5,11.5a1,1,0,1,1-1,1A1,1,0,0,1,8.5,11.5ZM7.5,23a1,1,0,1,1,1-1A1,1,0,0,1,7.5,23ZM15,23a1,1,0,1,1,1-1A1,1,0,0,1,15,23Zm7-6a1,1,0,1,1-1,1A1,1,0,0,1,22,17Z" style="fill:#003058"/></svg>