<svg id="6c60aa18-f7eb-4a20-9745-8c31bc702582" data-name="Layer 1" xmlns="http://www.w3.org/2000/svg" viewBox="0 0 21 35"><title>icons</title><path d="M7.5,29.49a.5.5,0,0,1-.35-.85L8.79,27H7.5a.5.5,0,0,1-.35-.85l2.5-2.51a.5.5,0,1,1,.71.71L8.7,26H10a.5.5,0,0,1,.35.85l-2.5,2.49A.5.5,0,0,1,7.5,29.49Z" style="fill:#003058"/><path d="M11,29.48a.5.5,0,0,1-.35-.85l5-5a.5.5,0,0,1,.71.71l-5,5A.5.5,0,0,1,11,29.48Z" style="fill:#003058"/><path d="M1,29.48a.5.5,0,0,1-.35-.85l5-5a.5.5,0,0,1,.71.71l-5,5A.5.5,0,0,1,1,29.48Z" style="fill:#003058"/><path d="M16.5,21.51H5.5a5.5,5.5,0,0,1-.93-10.92A6,6,0,0,1,16,9a3.5,3.5,0,0,1,3.4,4.52,4.5,4.5,0,0,1-2.85,8Zm-6-15a5,5,0,0,0-5,4.57.5.5,0,0,1-.45.46,4.5,4.5,0,0,0,.43,9h11a3.5,3.5,0,0,0,2-6.39.5.5,0,0,1-.18-.61A2.5,2.5,0,0,0,15.69,10a.49.49,0,0,1-.53-.32A5,5,0,0,0,10.5,6.51Z" style="fill:#003058"/></svg>