<svg id="868032f2-e487-4512-afcb-423181541426" data-name="Layer 1" xmlns="http://www.w3.org/2000/svg" viewBox="0 0 24 35"><title>icons</title><path d="M23.5,28.5H23V14a.5.5,0,0,0-.5-.5h-3a.5.5,0,0,0-.5.5V28.5H17V21a.5.5,0,0,0-.5-.5h-3a.5.5,0,0,0-.5.5v7.5H11V19a.5.5,0,0,0-.5-.5h-3A.5.5,0,0,0,7,19v9.5H5V24a.5.5,0,0,0-.5-.5h-3A.5.5,0,0,0,1,24v4.5H.5a.5.5,0,0,0,0,1h23a.5.5,0,0,0,0-1ZM2,28.5v-4H4v4Zm6,0v-9h2v9Zm6,0v-7h2v7Zm6,0v-14h2v14Z" style="fill:#003058"/><path d="M3,18.5A1.5,1.5,0,0,0,4.5,17a1.48,1.48,0,0,0-.1-.52l3.84-3.2a1.47,1.47,0,0,0,1.94-.37L13.5,14a1.5,1.5,0,0,0,3,0,1.48,1.48,0,0,0-.21-.74L20.46,8.4a1.52,1.52,0,1,0-.76-.65L15.54,12.6a1.47,1.47,0,0,0-1.71.48L10.5,12a1.5,1.5,0,0,0-3,0,1.48,1.48,0,0,0,.1.52l-3.84,3.2A1.48,1.48,0,0,0,3,15.5a1.5,1.5,0,0,0,0,3Zm18-12a.5.5,0,1,1-.5.5A.5.5,0,0,1,21,6.5Zm-6,7a.5.5,0,1,1-.5.5A.5.5,0,0,1,15,13.5Zm-6-2a.5.5,0,1,1-.5.5A.5.5,0,0,1,9,11.5Zm-6,5a.5.5,0,1,1-.5.5A.5.5,0,0,1,3,16.5Z" style="fill:#003058"/></svg>