<svg id="9545e6a4-c21d-4e5e-b9b4-ae87ec4196c4" data-name="f44d54a7-f794-49d6-910d-57d9acdaf252" xmlns="http://www.w3.org/2000/svg" viewBox="0 0 24 35"><title>icons_Newspaper</title><path d="M14.51,10h-11a.5.5,0,0,1,0-1h11a.5.5,0,0,1,0,1Z" style="fill:#003058"/><path d="M8.48,19h-5A.49.49,0,0,1,3,18.51H3v-6A.49.49,0,0,1,3.48,12h5a.49.49,0,0,1,.51.47H9v6a.49.49,0,0,1-.47.51h0ZM4,18H8V13H4Z" style="fill:#003058"/><path d="M14.51,15h-3a.5.5,0,0,1,0-1h3a.5.5,0,0,1,0,1Z" style="fill:#003058"/><path d="M14.51,17h-4a.5.5,0,0,1,0-1h4a.5.5,0,0,1,0,1Z" style="fill:#003058"/><path d="M14.51,19h-4a.5.5,0,0,1,0-1h4a.5.5,0,0,1,0,1Z" style="fill:#003058"/><path d="M14.51,21h-11a.5.5,0,0,1,0-1h11a.5.5,0,0,1,0,1Z" style="fill:#003058"/><path d="M14.51,22.95h-11a.5.5,0,0,1,0-1h11a.5.5,0,0,1,0,1Z" style="fill:#003058"/><path d="M14.51,25h-11a.5.5,0,0,1,0-1h11a.5.5,0,0,1,0,1Z" style="fill:#003058"/><path d="M20.51,28A1.5,1.5,0,0,1,19,26.52h0v-18H18V10a.5.5,0,0,1-1,0V8a.49.49,0,0,1,.48-.5h2A.49.49,0,0,1,20,8h0v3h1.5a.49.49,0,0,1,.51.47h0v15A1.5,1.5,0,0,1,20.51,28ZM20,12V26.51a.5.5,0,0,0,1,0V12Z" style="fill:#003058"/><path d="M20.51,30h-17A3.5,3.5,0,0,1,0,26.57H0V6.51A.49.49,0,0,1,.46,6h17a.49.49,0,0,1,.49.49h0v20a2.5,2.5,0,0,0,5,0V10H19.51a.5.5,0,0,1,0-1h4a.49.49,0,0,1,.49.49h0v17A3.5,3.5,0,0,1,20.59,30h-.08ZM1,7V26.51A2.5,2.5,0,0,0,3.49,29H18.07A3.49,3.49,0,0,1,17,26.51V7Z" style="fill:#003058"/></svg>