<svg id="97c122a0-181b-49e2-ba43-3cde2d42e3a4" data-name="Layer 1" xmlns="http://www.w3.org/2000/svg" viewBox="0 0 24 35"><title>icons</title><path d="M20.5,22.25H8.5a.5.5,0,0,0,0,1h12a.5.5,0,0,0,0-1Z" style="fill:#003058"/><path d="M12.5,19.25a.5.5,0,0,0,0,1h8a.5.5,0,0,0,0-1Z" style="fill:#003058"/><path d="M23.5,13.25H14.21l2.65-2.65a.5.5,0,0,0,0-.71l-2-2a.5.5,0,0,0-.71,0l-1.4,1.4-.9-.9a.5.5,0,0,0-.71,0l-3,3a.5.5,0,1,0,.71.71L11.5,9.46,12,10,8.79,13.25H.5a.5.5,0,0,0-.5.5v13a.5.5,0,0,0,.5.5h23a.5.5,0,0,0,.5-.5v-13A.5.5,0,0,0,23.5,13.25ZM3.72,20.18l.86.86-1.28.43Zm1.78.37L4.21,19.25,11,12.46l1.29,1.29ZM14.5,9l1.29,1.29L13,13l-1.29-1.29ZM23,26.25H1v-12H7.79L3.15,18.9a.49.49,0,0,0-.11.18H3l-1,3a.5.5,0,0,0,.47.66l.16,0,3-1h0a.49.49,0,0,0,.18-.11l7.35-7.35H23Z" style="fill:#003058"/></svg>