<svg id="97ee9eca-cfe2-4990-8acb-db45d63fee0e" data-name="Layer 1" xmlns="http://www.w3.org/2000/svg" viewBox="0 0 24 35"><title>icons</title><path d="M22.31,15.54A5.43,5.43,0,0,0,18.63,14a7.49,7.49,0,0,0-14.05,2.5A4.25,4.25,0,0,0,0,20.75a4,4,0,0,0,1.13,3A5.14,5.14,0,0,0,4.48,25H19.06S24,24.3,24,19.5A5.46,5.46,0,0,0,22.31,15.54ZM19,24H4.49a4.15,4.15,0,0,1-2.66-1A3,3,0,0,1,1,20.75,3.25,3.25,0,0,1,4.25,17.5a3.34,3.34,0,0,1,.67.07.5.5,0,0,0,.6-.46,6.49,6.49,0,0,1,12.35-2.39.53.53,0,0,0,.47.29,4.4,4.4,0,0,1,3.28,1.25A4.47,4.47,0,0,1,23,19.5C23,23.41,19.1,24,19,24Z" style="fill:#003058"/></svg>