<svg id="760cbfb1-3f1e-4d26-81db-ae4bcaad2e6c" data-name="Layer 1" xmlns="http://www.w3.org/2000/svg" viewBox="0 0 24 35"><title>icons</title><path d="M8.52,24.5A3.5,3.5,0,1,1,12,21,3.5,3.5,0,0,1,8.52,24.5Zm0-6A2.5,2.5,0,1,0,11,21,2.5,2.5,0,0,0,8.52,18.5Z" style="fill:#003058"/><path d="M10.52,29.5h-4A.5.5,0,0,1,6,29V27.53a7,7,0,0,1-1.91-1.1l-1.27.73A.5.5,0,0,1,2.15,27l-2-3.46a.5.5,0,0,1,.18-.68l1.27-.73a6.91,6.91,0,0,1,0-2.2L.34,19.17a.5.5,0,0,1-.18-.68l2-3.46a.5.5,0,0,1,.3-.23.51.51,0,0,1,.38,0l1.27.73A6.92,6.92,0,0,1,6,14.47V13a.5.5,0,0,1,.5-.5h4a.5.5,0,0,1,.5.5v1.47a7,7,0,0,1,1.91,1.1l1.27-.73a.5.5,0,0,1,.68.18l2,3.46a.5.5,0,0,1-.18.68l-1.27.73a6.92,6.92,0,0,1,0,2.2l1.27.73a.5.5,0,0,1,.18.68l-2,3.46a.5.5,0,0,1-.3.23.51.51,0,0,1-.38,0l-1.27-.73A6.92,6.92,0,0,1,11,27.53V29A.5.5,0,0,1,10.52,29.5ZM7,28.5h3V27.18a.5.5,0,0,1,.35-.48,5.94,5.94,0,0,0,2.17-1.25.5.5,0,0,1,.59-.06l1.14.66,1.5-2.6-1.14-.66a.5.5,0,0,1-.24-.54,6,6,0,0,0,0-2.51.5.5,0,0,1,.24-.54l1.14-.66L14.26,16l-1.14.66a.5.5,0,0,1-.58-.06,6,6,0,0,0-2.17-1.25.5.5,0,0,1-.35-.48V13.5H7v1.32a.5.5,0,0,1-.35.48A6,6,0,0,0,4.5,16.55a.5.5,0,0,1-.59.06L2.77,16l-1.5,2.6,1.15.66a.5.5,0,0,1,.24.54,6,6,0,0,0,0,2.5.5.5,0,0,1-.24.54l-1.15.66L2.77,26l1.14-.66a.5.5,0,0,1,.58.06A6,6,0,0,0,6.67,26.7a.5.5,0,0,1,.35.48Z" style="fill:#003058"/><path d="M19,12.5a2,2,0,1,1,2-2A2,2,0,0,1,19,12.5Zm0-3a1,1,0,1,0,1,1A1,1,0,0,0,19,9.5Z" style="fill:#003058"/><path d="M20,15.5H18a.5.5,0,0,1-.5-.5v-.8a3.91,3.91,0,0,1-.95-.55l-.7.4a.51.51,0,0,1-.38,0,.5.5,0,0,1-.3-.23l-1-1.73a.5.5,0,0,1,.18-.68l.7-.4a3.92,3.92,0,0,1,0-1.1l-.69-.4a.5.5,0,0,1-.18-.68l1-1.73A.5.5,0,0,1,15.87,7l.7.4a4,4,0,0,1,1-.55V6a.5.5,0,0,1,.5-.5h2a.5.5,0,0,1,.5.5v.8a3.91,3.91,0,0,1,.95.55l.7-.4a.5.5,0,0,1,.68.18l1,1.73a.5.5,0,0,1-.18.68L23,10A3.93,3.93,0,0,1,23,11l.7.4a.5.5,0,0,1,.18.68l-1,1.73a.5.5,0,0,1-.3.23.51.51,0,0,1-.38,0l-.7-.4a4,4,0,0,1-1,.55V15A.5.5,0,0,1,20,15.5Zm-1.5-1h1v-.66a.5.5,0,0,1,.36-.48,3,3,0,0,0,1.2-.69.5.5,0,0,1,.59-.07l.57.33.5-.87-.57-.33a.5.5,0,0,1-.24-.55,3,3,0,0,0,0-1.38.5.5,0,0,1,.24-.55l.57-.33-.5-.87-.57.33a.5.5,0,0,1-.59-.07,3,3,0,0,0-1.19-.69.5.5,0,0,1-.36-.48V6.5h-1v.66a.5.5,0,0,1-.36.48,3,3,0,0,0-1.2.69.5.5,0,0,1-.59.07l-.57-.33-.5.87.57.33a.5.5,0,0,1,.24.55,3,3,0,0,0,0,1.38.5.5,0,0,1-.24.55l-.57.33.5.87.57-.33a.5.5,0,0,1,.59.07,3,3,0,0,0,1.19.7.5.5,0,0,1,.36.48Z" style="fill:#003058"/></svg>