<svg id="311562aa-20de-4301-8b58-a5d97dfe0813" data-name="Layer 1" xmlns="http://www.w3.org/2000/svg" viewBox="0 0 22 35"><title>icons</title><path d="M20.35,13.52a3.46,3.46,0,0,0-.55-3.12A3.57,3.57,0,0,0,17,9,6,6,0,0,0,11.5,5.5a6,6,0,0,0-5.93,5.08A5.5,5.5,0,0,0,6.5,21.5h11a4.5,4.5,0,0,0,2.85-8Zm-2.85,7H6.5a4.5,4.5,0,0,1-.43-9,.5.5,0,0,0,.45-.46,5,5,0,0,1,5-4.57,5,5,0,0,1,4.66,3.21.49.49,0,0,0,.53.32,2.5,2.5,0,0,1,2.6,3.47.5.5,0,0,0,.18.61,3.5,3.5,0,0,1-2,6.39Z" style="fill:#003058"/><path d="M18.15,23.65l-3.9,3.9a1,1,0,0,0-.24,0,1,1,0,1,0,1,1,1,1,0,0,0,0-.24l3.9-3.9a.5.5,0,0,0-.71-.71ZM14,28.5h0Z" style="fill:#003058"/><path d="M5.15,23.65l-3.9,3.9a1,1,0,0,0-.25,0,1,1,0,1,0,1,1,1,1,0,0,0,0-.24l3.9-3.9a.5.5,0,0,0-.71-.71ZM1,28.5H1Z" style="fill:#003058"/><path d="M11.35,23.64a.5.5,0,0,0-.71,0l-2.5,2.51A.5.5,0,0,0,8.5,27H9.79L8.15,28.63a.5.5,0,1,0,.71.71l2.5-2.49A.5.5,0,0,0,11,26H9.71l1.65-1.65A.5.5,0,0,0,11.35,23.64Z" style="fill:#003058"/></svg>