<svg id="6febdb46-ca6e-4a24-a029-c6865d283a20" data-name="Layer 1" xmlns="http://www.w3.org/2000/svg" viewBox="0 0 25 35"><title>icons</title><path d="M4.33,29.5a.63.63,0,0,1-.41-.15.45.45,0,0,1,0-.71L5.84,27H4.33a.59.59,0,0,1-.54-.31.45.45,0,0,1,.13-.55l2.92-2.51a.66.66,0,0,1,.83,0,.45.45,0,0,1,0,.71L5.74,26H7.25a.59.59,0,0,1,.54.31.45.45,0,0,1-.13.55L4.74,29.35A.64.64,0,0,1,4.33,29.5Z" style="fill:#003058"/><path d="M10.17,29.5a.63.63,0,0,1-.41-.15.45.45,0,0,1,0-.71L11.67,27h-1.5a.59.59,0,0,1-.54-.31.45.45,0,0,1,.13-.55l2.92-2.51a.66.66,0,0,1,.83,0,.45.45,0,0,1,0,.71L11.57,26h1.51a.59.59,0,0,1,.54.31.45.45,0,0,1-.13.55l-2.92,2.49A.64.64,0,0,1,10.17,29.5Z" style="fill:#003058"/><path d="M16,29.5a.63.63,0,0,1-.41-.15.45.45,0,0,1,0-.71L17.5,27H16a.59.59,0,0,1-.54-.31.45.45,0,0,1,.13-.55l2.92-2.51a.66.66,0,0,1,.83,0,.45.45,0,0,1,0,.71L17.41,26h1.51a.59.59,0,0,1,.54.31.45.45,0,0,1-.13.55l-2.92,2.49A.64.64,0,0,1,16,29.5Z" style="fill:#003058"/><path d="M19.5,21.51H6.67C3.13,21.51.25,19,.25,16c0-2.72,2.26-5,5.34-5.42C6.11,7.7,9.06,5.5,12.5,5.5A7.19,7.19,0,0,1,18.86,9a4.42,4.42,0,0,1,3.32,1.4,3.07,3.07,0,0,1,.64,3.12A4.29,4.29,0,0,1,24.75,17C24.75,19.49,22.4,21.51,19.5,21.51Zm-7-15c-3,0-5.55,2-5.81,4.57a.55.55,0,0,1-.53.46c-2.71.22-4.75,2.14-4.75,4.48s2.35,4.5,5.25,4.5H19.5A3.83,3.83,0,0,0,23.58,17a3.4,3.4,0,0,0-1.79-2.89.46.46,0,0,1-.21-.61A2.19,2.19,0,0,0,21.25,11a3.1,3.1,0,0,0-2.69-1,.59.59,0,0,1-.62-.32A5.84,5.84,0,0,0,12.5,6.5Z" style="fill:#003058"/></svg>