<svg id="79983f07-271d-4edc-bd7b-59be69b1ecc0" data-name="Layer 1" xmlns="http://www.w3.org/2000/svg" viewBox="0 0 24 35"><title>icons</title><path d="M11.5,17.5h-9A1.5,1.5,0,0,1,1,16V9.5H17V12a.5.5,0,0,0,1,0V8a2.5,2.5,0,0,0-2.5-2.5H2.5A2.5,2.5,0,0,0,0,8v8a2.5,2.5,0,0,0,2.5,2.5h9a.5.5,0,0,0,0-1ZM1,8A1.5,1.5,0,0,1,2.5,6.5h13A1.5,1.5,0,0,1,17,8v.5H1Z" style="fill:#003058"/><path d="M9,11a.5.5,0,0,0-.5-.5h-5a.5.5,0,0,0,0,1h5A.5.5,0,0,0,9,11Z" style="fill:#003058"/><path d="M13.5,10.5a.5.5,0,0,0,0,1h2a.5.5,0,0,0,0-1Z" style="fill:#003058"/><path d="M3.5,12.5a.5.5,0,0,0,0,1h3a.5.5,0,0,0,0-1Z" style="fill:#003058"/><path d="M23.5,20.5H22V19a3.5,3.5,0,0,0-7,0v1.5H13.5a.5.5,0,0,0-.5.5v8a.5.5,0,0,0,.5.5h10A.5.5,0,0,0,24,29V21A.5.5,0,0,0,23.5,20.5ZM16,19a2.5,2.5,0,0,1,5,0v1.5H16Zm7,9.5H14v-7h9Z" style="fill:#003058"/><path d="M18,25.35V27a.5.5,0,0,0,1,0V25.35a1,1,0,0,0,.5-.85,1,1,0,0,0-2,0A1,1,0,0,0,18,25.35Zm.5-.85h0Z" style="fill:#003058"/></svg>