<svg id="ab95823d-3b29-4d35-9f3e-420f863d6168" data-name="Layer 1" xmlns="http://www.w3.org/2000/svg" viewBox="0 0 23.6 23.6"><title>additionalrev_icon</title><path d="M.3,23.6a.3.3,0,0,1,0-.6H1V18.3a.3.3,0,0,1,.3-.3h3a.3.3,0,0,1,.3.3V23H7V13.3a.3.3,0,0,1,.3-.3h3a.3.3,0,0,1,.3.3V23H13V15.3a.3.3,0,0,1,.3-.3h3a.3.3,0,0,1,.3.3V23H19V8.3a.3.3,0,0,1,.3-.3h3a.3.3,0,0,1,.3.3V23h.7a.3.3,0,0,1,0,.6ZM19.6,23H22V8.6H19.6Zm-6,0H16V15.6H13.6Zm-6,0H10V13.6H7.6Zm-6,0H4V18.6H1.6Z" style="fill:#fff"/><path d="M2.8,12.6a1.3,1.3,0,0,1,0-2.6,1.28,1.28,0,0,1,.66.19l.12.07L7.63,6.88l0-.13A1.28,1.28,0,0,1,7.5,6.3a1.3,1.3,0,0,1,2.6,0v.14l3.59,1.2.09-.11a1.27,1.27,0,0,1,1.48-.41l.13.05,4.35-5.08-.07-.12a1.28,1.28,0,0,1-.18-.64,1.31,1.31,0,1,1,.83,1.21l-.13-.05L15.85,7.53l.07.12a1.27,1.27,0,0,1,.18.64,1.3,1.3,0,0,1-2.6,0V8.18L9.91,7l-.09.11a1.29,1.29,0,0,1-1,.5,1.28,1.28,0,0,1-.66-.19L8,7.34,4,10.72l0,.13a1.27,1.27,0,0,1,.08.45A1.3,1.3,0,0,1,2.8,12.6Zm0-2a.7.7,0,1,0,.7.7A.7.7,0,0,0,2.8,10.6Zm12-3a.7.7,0,1,0,.7.7A.7.7,0,0,0,14.8,7.6Zm-6-2a.7.7,0,1,0,.7.7A.7.7,0,0,0,8.8,5.6Zm12-5a.7.7,0,1,0,.7.7A.7.7,0,0,0,20.8.6Z" style="fill:#fff"/></svg>