<svg id="1ffb3bcd-dfad-4935-b58c-5795027e4fa0" data-name="Layer 1" xmlns="http://www.w3.org/2000/svg" viewBox="0 0 23 35"><title>icons</title><path d="M7,21.26V8A2.5,2.5,0,0,0,2,8V21.26a4.5,4.5,0,1,0,5,0ZM4.5,28.5A3.5,3.5,0,0,1,2.75,22,.5.5,0,0,0,3,21.54V8A1.5,1.5,0,0,1,6,8V21.54a.5.5,0,0,0,.25.43A3.5,3.5,0,0,1,4.5,28.5Z" style="fill:#003058"/><path d="M5,23.59V13a.5.5,0,0,0-1,0V23.59a1.5,1.5,0,1,0,1,0ZM4.5,25.5A.5.5,0,1,1,5,25,.5.5,0,0,1,4.5,25.5Z" style="fill:#003058"/><path d="M11.5,10a7,7,0,0,0-2.1.32.5.5,0,1,0,.3,1,6,6,0,1,1,.45,11.57.5.5,0,0,0-.23,1A7,7,0,1,0,11.5,10Z" style="fill:#003058"/><path d="M11.5,8.5A.5.5,0,0,0,12,8V6a.5.5,0,0,0-1,0V8A.5.5,0,0,0,11.5,8.5Z" style="fill:#003058"/><path d="M22.5,16.5h-2a.5.5,0,0,0,0,1h2a.5.5,0,0,0,0-1Z" style="fill:#003058"/><path d="M18.22,23a.5.5,0,0,0-.71.71l1.41,1.41a.5.5,0,0,0,.71-.71Z" style="fill:#003058"/><path d="M17.86,11.14a.5.5,0,0,0,.35-.15l1.41-1.41a.5.5,0,0,0-.71-.71l-1.41,1.41a.5.5,0,0,0,.35.85Z" style="fill:#003058"/><path d="M11.5,25.5a.5.5,0,0,0-.5.5v2a.5.5,0,0,0,1,0V26A.5.5,0,0,0,11.5,25.5Z" style="fill:#003058"/></svg>