<svg id="06b4e143-ce67-4696-a757-fb45e8e30e94" data-name="Layer 1" xmlns="http://www.w3.org/2000/svg" viewBox="0 0 24 35"><title>icons</title><path d="M23.85,23.21a3.24,3.24,0,0,0-3.51-1.12L16.67,23.3A1.57,1.57,0,0,0,15,22.06H12.2a7.05,7.05,0,0,0-4.7-2H5v-.5a.5.5,0,0,0-.5-.5H.5a.5.5,0,0,0-.5.5v8a.5.5,0,0,0,.5.5h4a.5.5,0,0,0,.5-.5v-.85l2.26.77c2.62.91,4.09,1.41,5.42,1.41,1.62,0,3-.74,6.14-2.39,1.28-.68,2.88-1.53,4.91-2.55a.5.5,0,0,0,.13-.8ZM4,27.1H1v-7H4Zm14.34-1.43c-5.29,2.81-5.29,2.81-10.76.92L5,25.7V21.06H7.5a6.11,6.11,0,0,1,4.15,1.85.5.5,0,0,0,.35.15h3c.51,0,.7.27.7.5s-.18.5-.7.5H9.5a.5.5,0,0,0,0,1H15a1.69,1.69,0,0,0,1.38-.6L20.64,23a2,2,0,0,1,2,.4C20.88,24.32,19.49,25.06,18.34,25.67Z" style="fill:#003058"/><path d="M17.5,13.06A3.5,3.5,0,1,0,14,9.56,3.5,3.5,0,0,0,17.5,13.06Zm0-6A2.5,2.5,0,1,1,15,9.56,2.5,2.5,0,0,1,17.5,7.06Z" style="fill:#003058"/><path d="M12.5,20.06A3.5,3.5,0,1,0,9,16.56,3.5,3.5,0,0,0,12.5,20.06Zm0-6a2.5,2.5,0,1,1-2.5,2.5A2.5,2.5,0,0,1,12.5,14.06Z" style="fill:#003058"/><path d="M12.5,18.06a.5.5,0,0,0,.5-.5v-2a.5.5,0,0,0-1,0v2A.5.5,0,0,0,12.5,18.06Z" style="fill:#003058"/><path d="M17.5,11.06a.5.5,0,0,0,.5-.5v-2a.5.5,0,1,0-1,0v2A.5.5,0,0,0,17.5,11.06Z" style="fill:#003058"/></svg>