<svg id="e0844276-2558-4730-aac2-bd2bd5fb0313" data-name="Layer 1" xmlns="http://www.w3.org/2000/svg" viewBox="0 0 24 35"><title>icons</title><path d="M22.85,8.32,21.18,6.65a2.5,2.5,0,0,0-3.54,0L16.06,8.23h0l-1.5,1.5-12,12a.49.49,0,0,0-.11.19v0l-2,6.5a.5.5,0,0,0,.48.65l.15,0,6.5-2h0a.49.49,0,0,0,.19-.11l12-12,3.09-3.09a2.5,2.5,0,0,0,0-3.54Zm-3.44,5.56-3.79-3.79.79-.79,3.79,3.79ZM4.11,27.08,2.42,25.39,3.15,23l.41.41a.5.5,0,0,0,.35.15h2v2a.5.5,0,0,0,.15.35l.41.41Zm2.09-4.49H4.12l-.5-.5L14.92,10.79l1.54,1.54ZM2.09,26.47l.94.94-1.36.42Zm5.33-.59-.5-.5V23.29L17.17,13l1.54,1.54ZM22.15,11.15l-1.23,1.23L17.12,8.58l1.23-1.23a1.5,1.5,0,0,1,2.12,0L22.15,9a1.5,1.5,0,0,1,0,2.12Z" style="fill:#003058"/></svg>