<svg id="c23dff08-4a12-4993-a744-684eed361f59" data-name="Layer 1" xmlns="http://www.w3.org/2000/svg" viewBox="0 0 24 35"><title>icons</title><path d="M17,18.5a1,1,0,1,0,1,1A1,1,0,0,0,17,18.5Zm0,1h0Z" style="fill:#003058"/><path d="M5.5,12.5h-1a.5.5,0,0,0,0,1h1a.5.5,0,1,0,0-1Z" style="fill:#003058"/><path d="M8.5,12.5h-1a.5.5,0,0,0,0,1h1a.5.5,0,1,0,0-1Z" style="fill:#003058"/><path d="M11.5,12.5h-1a.5.5,0,1,0,0,1h1a.5.5,0,0,0,0-1Z" style="fill:#003058"/><path d="M13.5,13.5h1a.5.5,0,0,0,0-1h-1a.5.5,0,1,0,0,1Z" style="fill:#003058"/><path d="M16.5,13.5h1a.5.5,0,0,0,0-1h-1a.5.5,0,0,0,0,1Z" style="fill:#003058"/><path d="M5.5,25.5h-1a.5.5,0,0,0,0,1h1a.5.5,0,1,0,0-1Z" style="fill:#003058"/><path d="M8.5,25.5h-1a.5.5,0,0,0,0,1h1a.5.5,0,1,0,0-1Z" style="fill:#003058"/><path d="M11.5,25.5h-1a.5.5,0,1,0,0,1h1a.5.5,0,0,0,0-1Z" style="fill:#003058"/><path d="M14.5,25.5h-1a.5.5,0,1,0,0,1h1a.5.5,0,0,0,0-1Z" style="fill:#003058"/><path d="M16,26a.5.5,0,0,0,.5.5h1a.5.5,0,0,0,0-1h-1A.5.5,0,0,0,16,26Z" style="fill:#003058"/><path d="M21.5,16.5H21V14a3.5,3.5,0,0,0-2-3.15V9c0-1.38-1.57-2.5-3.5-2.5H3.5A3.5,3.5,0,0,0,0,10V25a3.5,3.5,0,0,0,3.5,3.5h14A3.5,3.5,0,0,0,21,25V22.5h.5A2.5,2.5,0,0,0,24,20V19A2.5,2.5,0,0,0,21.5,16.5ZM20,25a2.5,2.5,0,0,1-2.5,2.5H3.5A2.5,2.5,0,0,1,1,25V10A2.5,2.5,0,0,1,3.5,7.5h12c1.33,0,2.5.7,2.5,1.5v1.55a3.46,3.46,0,0,0-.5-.05H3.5a.5.5,0,0,1,0-1h12a.5.5,0,1,0,0-1H3.5A1.46,1.46,0,0,0,2.38,9,1.53,1.53,0,0,0,2,10,1.45,1.45,0,0,0,3.5,11.5h14A2.5,2.5,0,0,1,20,14v2.5H16.5A2.5,2.5,0,0,0,14,19v1a2.5,2.5,0,0,0,2.5,2.5H20Zm3-5a1.5,1.5,0,0,1-1.5,1.5h-5A1.5,1.5,0,0,1,15,20V19a1.5,1.5,0,0,1,1.5-1.5h5A1.5,1.5,0,0,1,23,19Z" style="fill:#003058"/></svg>