<svg id="f17ab500-e042-4194-91e8-831663861db4" data-name="Layer 1" xmlns="http://www.w3.org/2000/svg" viewBox="0 0 24 35"><title>icons</title><path d="M20.5,22h-5A2.5,2.5,0,0,1,13,19.5a.5.5,0,0,1,1,0A1.5,1.5,0,0,0,15.5,21h5A2.5,2.5,0,0,0,23,18.5v-2A2.5,2.5,0,0,0,20.5,14h-5A1.5,1.5,0,0,0,14,15.5a.5.5,0,0,1-1,0A2.5,2.5,0,0,1,15.5,13h5A3.5,3.5,0,0,1,24,16.5v2A3.5,3.5,0,0,1,20.5,22Z" style="fill:#003058"/><path d="M8.5,22h-5A3.5,3.5,0,0,1,0,18.5v-2A3.5,3.5,0,0,1,3.5,13h5A2.5,2.5,0,0,1,11,15.5a.5.5,0,0,1-1,0A1.5,1.5,0,0,0,8.5,14h-5A2.5,2.5,0,0,0,1,16.5v2A2.5,2.5,0,0,0,3.5,21h5A1.5,1.5,0,0,0,10,19.5a.5.5,0,0,1,1,0A2.5,2.5,0,0,1,8.5,22Z" style="fill:#003058"/><path d="M17.5,18H6.5a.5.5,0,0,1,0-1h11a.5.5,0,0,1,0,1Z" style="fill:#003058"/></svg>