<svg id="72366fc5-391c-492f-9746-4608fe8106d8" data-name="Layer 1" xmlns="http://www.w3.org/2000/svg" viewBox="0 0 18 35"><title>icons</title><path d="M17.89,28.64l-2.09-2a.5.5,0,0,0-.35-.14H6.91a2.5,2.5,0,0,0,0-1h9.55A.5.5,0,0,0,17,25V16a.5.5,0,0,0-.5-.5H14V11a.5.5,0,0,0-.5-.5h-7A.5.5,0,0,0,6,11v5H6v7.56a3.51,3.51,0,0,0-1-.71V6a.5.5,0,0,0-.5-.5h-3a.5.5,0,1,0,0,1H4V22.55a3.45,3.45,0,0,0-.5-.05,3.5,3.5,0,1,0,3.15,5h8.65l1.94,1.86a.5.5,0,1,0,.69-.72ZM16,24.5H7v-8h9Zm-9-13h6v4H7Zm-3.5,17a2.5,2.5,0,1,1,0-5,2.47,2.47,0,0,1,.8.14h0A2.5,2.5,0,0,1,6,26a2.47,2.47,0,0,1-.14.8v0A2.5,2.5,0,0,1,3.46,28.5Z" style="fill:#003058"/><path d="M12.46,23.5h2a.5.5,0,0,0,0-1h-2a.5.5,0,1,0,0,1Z" style="fill:#003058"/><path d="M9.46,13.5h-1a.5.5,0,1,0,0,1h1a.5.5,0,0,0,0-1Z" style="fill:#003058"/></svg>