<svg id="e98660de-13de-4989-af4e-9cb5cc107202" data-name="Layer 1" xmlns="http://www.w3.org/2000/svg" viewBox="0 0 16 35"><title>icons</title><path d="M8,29.5a.5.5,0,0,1-.42-.22C7.27,28.81,0,17.75,0,13.5a8,8,0,0,1,16,0c0,4.25-7.27,15.31-7.58,15.78A.5.5,0,0,1,8,29.5Zm0-23a7,7,0,0,0-7,7c0,3.4,5.43,12.13,7,14.58,1.57-2.45,7-11.18,7-14.58A7,7,0,0,0,8,6.5Z" style="fill:#003058"/><path d="M8,17a3.5,3.5,0,1,1,3.5-3.5A3.5,3.5,0,0,1,8,17Zm0-6a2.5,2.5,0,1,0,2.5,2.5A2.5,2.5,0,0,0,8,11Z" style="fill:#003058"/></svg>