<svg id="96734baa-57d9-4773-a80a-483719364979" data-name="Layer 1" xmlns="http://www.w3.org/2000/svg" viewBox="0 0 24 35"><title>icons</title><path d="M22,7H2A2,2,0,0,0,0,9.09V23.91A2,2,0,0,0,2,26h9.5v1H5a.5.5,0,0,0,0,1H19a.5.5,0,0,0,0-1H12.5V26H22a2,2,0,0,0,2-2.09V9.09A2,2,0,0,0,22,7Zm1,16.91A1,1,0,0,1,22,25H2a1,1,0,0,1-1-1.09V22H23ZM23,21H1V9.09A1,1,0,0,1,2,8H22a1,1,0,0,1,1,1.09Z" style="fill:#003058"/><path d="M12,24.5a1,1,0,1,0-1-1A1,1,0,0,0,12,24.5Zm0-1h0Z" style="fill:#003058"/><path d="M9.85,14.15a.5.5,0,0,0-.71.71l2,2a.5.5,0,0,0,.71,0l4-4a.5.5,0,0,0-.71-.71L11.5,15.79Z" style="fill:#003058"/><path d="M16.5,14a.5.5,0,0,0-.5.5,4,4,0,1,1-4-4,4,4,0,0,1,1.85.45.5.5,0,0,0,.46-.89A5,5,0,1,0,17,14.5.5.5,0,0,0,16.5,14Z" style="fill:#003058"/></svg>