<svg id="8e68a59c-4de5-4f6e-959b-7f1238efae20" data-name="Layer 1" xmlns="http://www.w3.org/2000/svg" viewBox="0 0 15 35"><title>icons</title><path d="M10.75,18.47a.5.5,0,0,1-.27-.92,6,6,0,1,0-6.46,0,.5.5,0,0,1-.54.84,7,7,0,1,1,7.54,0A.5.5,0,0,1,10.75,18.47Z" style="fill:#003058"/><path d="M13.15,29.5h-8a.5.5,0,0,1-.42-.22l-4-6a2.22,2.22,0,0,1-.19-2.12,1.23,1.23,0,0,1,1.14-.65c1.07,0,2.09.44,3.57,2.41V13.48a2,2,0,0,1,4,0v5.64l4.1,1.39c1.29.42,1.58,1.89,1.31,3.09l-1,5.48A.5.5,0,0,1,13.15,29.5Zm-7.72-1h7.3l.94-5.09c.18-.78.05-1.71-.64-1.93L8.59,20a.5.5,0,0,1-.34-.47v-6a1,1,0,0,0-2,0v11a.5.5,0,0,1-.92.27c-2-3-2.91-3.27-3.65-3.27-.17,0-.23.07-.26.13a1.27,1.27,0,0,0,.15,1.1Z" style="fill:#003058"/></svg>