<svg id="2355d5e5-11f5-4ac1-863e-b7c6d99a773a" data-name="Layer 1" xmlns="http://www.w3.org/2000/svg" xmlns:xlink="http://www.w3.org/1999/xlink" viewBox="0 0 230 220"><defs><clipPath id="7b46804a-e3c6-494a-a99f-9f6332ded64f"><polygon points="125.59 156.08 132.24 152.21 138.61 155.88 131.96 159.75 125.59 156.08" style="fill:#b6e8fb"/></clipPath><clipPath id="855c1e69-1ce8-433e-b177-53985a1a4d82"><polygon points="137.95 149.49 144.6 145.62 150.98 149.3 144.32 153.17 137.95 149.49" style="fill:none"/></clipPath><clipPath id="62012f30-8339-4535-933c-0ba615c7ba56"><polygon points="150.29 143.01 156.94 139.14 163.31 142.82 156.66 146.69 150.29 143.01" style="fill:none"/></clipPath></defs><title>OurOffering</title><g style="isolation:isolate"><polygon points="125.59 156.08 132.24 152.21 138.61 155.88 131.96 159.75 125.59 156.08" style="fill:#b6e8fb"/><g style="clip-path:url(#7b46804a-e3c6-494a-a99f-9f6332ded64f)"><polygon points="138.61 155.88 132.24 152.21 125.59 156.08 131.96 159.75 138.61 155.88 138.61 155.88" style="fill:#b6e8fb"/></g></g><g style="isolation:isolate"><g style="clip-path:url(#855c1e69-1ce8-433e-b177-53985a1a4d82)"><polygon points="150.98 149.3 144.6 145.62 137.95 149.49 144.32 153.17 150.98 149.3 150.98 149.3" style="fill:#00a7e1"/></g></g><g style="isolation:isolate"><g style="clip-path:url(#62012f30-8339-4535-933c-0ba615c7ba56)"><polygon points="163.31 142.82 156.94 139.14 150.29 143.01 156.66 146.69 163.31 142.82 163.31 142.82" style="fill:#b6e8fb"/></g></g><line x1="127.37" y1="182.37" x2="156.61" y2="164.71" style="fill:none;stroke:#b6e8fb;stroke-miterlimit:10;stroke-width:2px"/><line x1="156.44" y1="164.39" x2="173.05" y2="173.84" style="fill:none;stroke:#b6e8fb;stroke-miterlimit:10;stroke-width:2px"/><g style="isolation:isolate"><path d="M175.73,173.34a5.17,5.17,0,0,0-4.69,0c-1.29.75-1.28,2,0,2.71a5.19,5.19,0,0,0,4.7,0c1.29-.75,1.28-2,0-2.71Z" style="fill:#b6e8fb"/></g><line x1="94.56" y1="163.21" x2="171.85" y2="207.83" style="fill:none;stroke:#b6e8fb;stroke-miterlimit:10;stroke-width:2px"/><g style="isolation:isolate"><path d="M175.85,204.93a9.92,9.92,0,0,0-9,0c-2.49,1.45-2.48,3.79,0,5.23a10,10,0,0,0,9,0c2.49-1.44,2.48-3.78,0-5.23Z" style="fill:#b6e8fb"/></g><g style="isolation:isolate"><path d="M172.33,111.14c5,2.9-3.24,6.51-7.75,9.13L87.25,165.2c-8.8,5.11-11.16,7.17-15.73,4.54l-57.19-33c-4-2.3-3.4-2.64,7.76-9.12L99.42,82.65c9-5.24,11.19-7.14,15.73-4.52Z" style="fill:#bebebe"/><path d="M173.89,113.24a1,1,0,0,1,0,.18.37.37,0,0,0,0,.09,1.29,1.29,0,0,1-.06.21l0,.08a2.2,2.2,0,0,1-.15.31l0,.06c-.09.14-.18.28-.29.42l0,.06-.23.27,0,0-.32.32,0,0c-.17.16-.36.32-.56.48l-.06,0c-.2.16-.42.33-.65.49l0,0c-.24.17-.5.33-.76.5h0l-.78.48-.1.07c-.4.24-.81.47-1.22.7l0,0-.65.36h0c-.47.26-.93.52-1.39.76l-.47.26-.15.09-.52.29-.09,0-.53.3L87.25,165.2c-4.61,2.69-7.45,4.53-9.77,5.29a9.15,9.15,0,0,1-1.11.29l0,4.67a7,7,0,0,0,1.11-.29c2.33-.76,5.17-2.6,9.78-5.28l77.32-44.94.59-.33h0l2.72-1.51.31-.16.35-.2c.13-.08.26-.16.4-.23l.18-.11.49-.29.1-.06,0,0,.73-.45.06,0c.26-.16.5-.32.73-.49l.07,0,.62-.47a.2.2,0,0,0,.07-.06c.2-.15.38-.31.55-.46l0,0,0,0a3,3,0,0,0,.31-.3l.06-.07c.08-.08.15-.17.22-.25l0,0,0,0,.09-.11a.51.51,0,0,1,.09-.13l.06-.1a.47.47,0,0,1,.06-.09h0v0a2.2,2.2,0,0,0,.15-.31,0,0,0,0,1,0,0s0,0,0,0a1.72,1.72,0,0,0,.07-.21.13.13,0,0,0,0-.06v0a1.22,1.22,0,0,0,0-.17s0-.05,0-.07v0c0-1.56,0-3.12,0-4.68C173.9,113.18,173.89,113.21,173.89,113.24Z" style="fill:#003058"/><path d="M75.83,170.86l-.39,0h-.35l-.33,0-.35,0-.36-.06-.47-.12c-.22-.06-.45-.15-.68-.23a12.51,12.51,0,0,1-1.38-.68l-57.19-33c-1.42-.81-2.26-1.39-2.26-2.07,0,1.56,0,3.12,0,4.67,0,.69.84,1.26,2.26,2.08l57.19,33a9.86,9.86,0,0,0,1.38.69c.23.09.46.16.67.23l.48.12.36.06.34,0,.33,0h.35l.39,0a5.42,5.42,0,0,0,.54-.08l0-4.67Z" style="fill:#003058"/></g><g style="isolation:isolate"><path d="M15.09,135.25,14.91,73.3l-3.3-1.92.18,62A2.78,2.78,0,0,0,13,135.89l3.29,1.91A2.79,2.79,0,0,1,15.09,135.25Z" style="fill:#003058"/><path d="M114.61,11.15c2.2-1.27,4-.25,4,2.28l.16,62a8.74,8.74,0,0,1-4,6.87L19.08,137.53c-2.2,1.26-4,.25-4-2.28L14.91,73.3a8.73,8.73,0,0,1,4-6.88Z" style="fill:#003058"/><path d="M115.27,10.84l.28-.1.18-.05.16,0,.22,0h.4a1.43,1.43,0,0,1,.32.05h.07l.21.06.08,0,.25.13-1.09-.64,0,0-.07,0L114.15,9h0a.88.88,0,0,0-.2-.09l0,0-.07,0-.1,0-.12,0h-.11a1.57,1.57,0,0,0-.24,0H113l-.06,0h-.12l-.11,0-.12,0-.14,0-.1,0-.09,0-.27.1-.1,0-.07,0a4.55,4.55,0,0,0-.49.25L15.58,64.5c-.13.08-.26.16-.38.25l-.11.08-.26.19-.13.11-.23.2-.13.12-.09.08-.08.09-.26.27-.09.1-.08.09-.15.19a.94.94,0,0,0-.09.12l-.08.1-.11.15a.76.76,0,0,0-.08.11l-.13.18L13,67a.07.07,0,0,1,0,0l-.2.34v0s0,0,0,0-.1.19-.14.28a.39.39,0,0,0-.06.11.67.67,0,0,0-.06.12l-.06.1c0,.09-.09.19-.13.29a.08.08,0,0,1,0,0v0c0,.12-.09.24-.14.36s0,0,0,.06a1.12,1.12,0,0,0,0,.13l-.06.18a.88.88,0,0,0-.05.15c0,.06,0,.1,0,.15a.49.49,0,0,1,0,.11l0,.19-.06.19s0,0,0,.08a.39.39,0,0,0,0,.15l-.06.31s0,.06,0,.09a1.52,1.52,0,0,0,0,.21.62.62,0,0,1,0,.13c0,.15,0,.29,0,.44l3.3,1.92c0-.15,0-.29,0-.44s0-.1,0-.15l0-.28c0-.11,0-.22.07-.33l0-.2.06-.23c0-.08,0-.17.07-.26s0-.12.05-.18a2.81,2.81,0,0,0,.1-.31,1.34,1.34,0,0,1,.06-.12,3.47,3.47,0,0,1,.17-.45l0,0,.19-.39.05-.11.19-.35a.56.56,0,0,1,0-.08l.25-.41a.41.41,0,0,0,.07-.11c.07-.1.13-.2.21-.3l.1-.14.18-.23c.06-.06.11-.13.16-.19l.14-.16.27-.29c.06-.06.12-.11.17-.17l.14-.12L18,67l.13-.1.26-.2a.5.5,0,0,0,.12-.08,4,4,0,0,1,.38-.24l95.73-55.27.5-.25Z" style="fill:#003058"/></g><g style="isolation:isolate"><path d="M113.09,15.17l-91.88,53a8,8,0,0,0-3.6,6.25l.16,56.23c0,2.3,1.62,3.22,3.62,2.07l91.89-53a8,8,0,0,0,3.6-6.24l-.16-56.23c0-2.3-1.63-3.23-3.63-2.07Z" style="fill:#00a7e1"/></g><g style="isolation:isolate"><path d="M79.73,153a5,5,0,0,0-4.53,0l-4.32,2.56c-1.25.72-1.24,1.89,0,2.62a5,5,0,0,0,4.53,0l4.33-2.56c1.25-.72,1.23-1.89,0-2.62Z" style="fill:#003058"/></g><g style="isolation:isolate"><path d="M89.87,147.4a5,5,0,0,0-4.52,0L81,150c-1.26.74-1.24,1.9,0,2.63a5,5,0,0,0,4.53,0L89.89,150c1.25-.73,1.24-1.9,0-2.63Z" style="fill:#003058"/></g><g style="isolation:isolate"><path d="M140.07,99.88l-9.85-5.68a4.43,4.43,0,0,0-4,0l-8.74,5.07a1.23,1.23,0,0,0,0,2.32l9.84,5.68a4.41,4.41,0,0,0,4,0l8.73-5.08a1.22,1.22,0,0,0,0-2.31Z" style="fill:#003058"/></g><g style="isolation:isolate"><path d="M122,89.64a5.42,5.42,0,0,0-4.93,0L36.31,136.57c-1.35.78-1.35,2.06,0,2.85a5.42,5.42,0,0,0,4.93,0L122,92.5c1.36-.79,1.36-2.07,0-2.86Z" style="fill:#003058"/></g><g style="isolation:isolate"><path d="M148.05,104.14a5.44,5.44,0,0,0-4.94,0L62.36,151.07c-1.36.78-1.35,2.07,0,2.85a5.36,5.36,0,0,0,4.93,0L148.07,107c1.36-.79,1.35-2.07,0-2.86Z" style="fill:#003058"/></g><g style="isolation:isolate"><path d="M115.86,102.85a5.51,5.51,0,0,0-4.94,0L44.29,141.31c-1.36.79-1.36,2.07,0,2.86a5.44,5.44,0,0,0,4.94,0l66.63-38.45c1.36-.8,1.34-2.08,0-2.87Z" style="fill:#003058"/></g><g style="isolation:isolate"><path d="M142.86,116.6a5.44,5.44,0,0,0-4.94,0L91,143.64c-1.35.79-1.35,2.07,0,2.86a5.44,5.44,0,0,0,4.94,0l46.94-27c1.36-.79,1.35-2.07,0-2.86Z" style="fill:#003058"/></g><g style="isolation:isolate"><path d="M124.09,108.43a5.44,5.44,0,0,0-4.94,0L52.87,146.78c-1.36.78-1.35,2.07,0,2.86a5.51,5.51,0,0,0,4.94,0l66.29-38.35c1.36-.79,1.36-2.07,0-2.86Z" style="fill:#003058"/></g><g style="isolation:isolate"><path d="M153.55,110.63a5.39,5.39,0,0,0-4.9,0l-3.76,2.18c-1.35.79-1.33,2.06,0,2.84a5.32,5.32,0,0,0,4.91,0l3.76-2.17c1.34-.79,1.33-2.06,0-2.85Z" style="fill:#003058"/></g><path d="M82.57,88.27c-2.14,1.24-3.88.23-3.88-2.24a8.61,8.61,0,0,1,3.88-6.73c2.14-1.23,3.88-.23,3.88,2.25A8.58,8.58,0,0,1,82.57,88.27Zm0-6.72a4.27,4.27,0,0,0-1.94,3.36c0,1.23.87,1.74,1.94,1.12a4.3,4.3,0,0,0,1.94-3.36C84.51,81.43,83.64,80.93,82.57,81.55Z" style="fill:#b6e8fb"/><path d="M61.21,100.6c-2.14,1.24-3.88.24-3.88-2.24a8.58,8.58,0,0,1,3.88-6.72c2.14-1.24,3.88-.24,3.88,2.24A8.58,8.58,0,0,1,61.21,100.6Zm0-6.72a4.29,4.29,0,0,0-1.94,3.36c0,1.24.87,1.74,1.94,1.12A4.3,4.3,0,0,0,63.15,95C63.15,93.76,62.28,93.26,61.21,93.88Z" style="fill:#b6e8fb"/><path d="M82.57,81.55,61.21,93.88c-.45.26-.84.13-.94-.32l-7.6-32.87-6,3.48c-.54.31-1,.06-1-.56a2.13,2.13,0,0,1,1-1.68L53.44,58c.45-.26.84-.13,1,.32L62,91.19,82.57,79.3c.54-.31,1-.06,1,.56A2.15,2.15,0,0,1,82.57,81.55Z" style="fill:#b6e8fb"/><path d="M85.48,75.38,60.3,89.92c-.54.31-1,.06-1-.56a2.14,2.14,0,0,1,1-1.68L84.78,73.54,90,52.61,56.18,72.11c-.53.31-1,.06-1-.56a2.16,2.16,0,0,1,1-1.68L91.31,49.59a.61.61,0,0,1,.78,0,1,1,0,0,1,.14.93L86.4,74.08A2.14,2.14,0,0,1,85.48,75.38Z" style="fill:#b6e8fb"/><line x1="166.71" y1="170.06" x2="195.94" y2="152.4" style="fill:none;stroke:#b6e8fb;stroke-miterlimit:10;stroke-width:2px"/><line x1="195.77" y1="152.08" x2="212.39" y2="161.53" style="fill:none;stroke:#b6e8fb;stroke-miterlimit:10;stroke-width:2px"/><g style="isolation:isolate"><path d="M215.06,161a5.15,5.15,0,0,0-4.68,0c-1.29.75-1.29,2,0,2.71a5.17,5.17,0,0,0,4.69,0c1.29-.75,1.28-2,0-2.71Z" style="fill:#b6e8fb"/></g></svg>