<svg id="6465c38d-2a33-4d65-9eeb-785d29f911cf" data-name="Layer 1" xmlns="http://www.w3.org/2000/svg" viewBox="0 0 240 200"><title>OurOffering</title><path d="M46.09,163.34c0,.09-.08.16-.26.18V168H50.2v7.36h-.88v-.57h-9V174h9v-2.17H41.06v-.84h8.26v-2.06h-8.7V168H45v-4.76Zm-4.85.52a12.58,12.58,0,0,1,1.78,3l-.83.37a12.94,12.94,0,0,0-1.73-3.05Zm9.32.33c-.05.08-.14.11-.29.11a24.69,24.69,0,0,1-1.79,3.06l-.74-.34a21.65,21.65,0,0,0,1.73-3.27Z" style="fill:#666"/><path d="M57.73,166.06a.31.31,0,0,1-.16.13,13.36,13.36,0,0,1-1.87,3.07c.62.41,1.9,1.35,2.24,1.61l-.52.73c-.37-.37-1.2-1.06-1.84-1.56v5.33h-.87v-5a13.13,13.13,0,0,1-2,1.71,3.11,3.11,0,0,0-.47-.77,12.35,12.35,0,0,0,4.31-4.73h-4v-.81h2.17v-2.48l1.13.06c0,.09-.09.16-.26.18v2.24H57l.15,0Zm3.72,8.05h3.14V175H57.16v-.85h3.4v-5.63H57.68v-.85h2.88v-4.26l1.16.08c0,.09-.09.15-.27.18v4h2.87v.85H61.45Z" style="fill:#666"/><path d="M72.17,165.64a.33.33,0,0,1-.32.21c-.47,4-1.82,7.57-4,7.57-1.09,0-2.08-1.09-2.08-3.15a5.7,5.7,0,0,1,5.85-5.73c3.75,0,5.38,2.38,5.38,4.91,0,3.1-1.79,4.59-4.94,5.32a4.94,4.94,0,0,0-.55-.79c3-.58,4.53-2,4.53-4.49,0-2.14-1.38-4.09-4.42-4.09l-.39,0Zm-1.25-.17a4.8,4.8,0,0,0-4.25,4.78c0,1.39.6,2.26,1.22,2.26C69.47,172.51,70.6,169,70.92,165.47Z" style="fill:#666"/><path d="M79.66,174.25v-9.11H78.51v-1.35l3.24-.58v11Z" style="fill:#666"/><path d="M88.23,174.56c-2.32,0-4.21-1.28-4.21-3.26a3.24,3.24,0,0,1,2.39-3.06,2.63,2.63,0,0,1-1.74-2.47c0-1.58,1.69-2.68,3.56-2.68s3.55,1.1,3.55,2.68a2.65,2.65,0,0,1-1.73,2.47,3.24,3.24,0,0,1,2.38,3.06C92.43,173.28,90.55,174.56,88.23,174.56Zm-2.09-3.46a2,2,0,0,0,2.09,2,2,2,0,1,0-2.09-2Zm2.09-6.64A1.44,1.44,0,0,0,86.67,166a1.56,1.56,0,0,0,3.11,0A1.44,1.44,0,0,0,88.23,164.46Z" style="fill:#666"/><path d="M100.38,165.64a.33.33,0,0,1-.32.21c-.47,4-1.82,7.57-4,7.57-1.09,0-2.08-1.09-2.08-3.15a5.7,5.7,0,0,1,5.85-5.73c3.76,0,5.38,2.38,5.38,4.91,0,3.1-1.79,4.59-4.94,5.32a4.94,4.94,0,0,0-.55-.79c3-.58,4.53-2,4.53-4.49,0-2.14-1.38-4.09-4.42-4.09l-.39,0Zm-1.25-.17a4.8,4.8,0,0,0-4.25,4.78c0,1.39.6,2.26,1.22,2.26C97.68,172.51,98.81,169,99.13,165.47Z" style="fill:#666"/><path d="M107,167a11,11,0,0,1,2.66,1.21l-.47.75a11.11,11.11,0,0,0-2.63-1.29Zm0,7.61a42.52,42.52,0,0,0,2.39-4.26l.65.55a41.64,41.64,0,0,1-2.17,4,.37.37,0,0,1,.07.18.21.21,0,0,1-.07.15Zm.7-11.24a11.24,11.24,0,0,1,2.62,1.36l-.51.73a10.88,10.88,0,0,0-2.6-1.44Zm10.91,5.49v.84H113.6l.47.16a.36.36,0,0,1-.3.14,37.5,37.5,0,0,1-1.65,3.76l4.54-.26a20.07,20.07,0,0,0-1.5-1.95l.74-.39a17.46,17.46,0,0,1,2.63,3.73l-.82.47a9.08,9.08,0,0,0-.57-1.11c-2.39.2-4.9.36-6.48.47a.22.22,0,0,1-.19.18l-.37-1,1.08-.05a30.3,30.3,0,0,0,1.69-4.11h-2.78v-.84h3.75v-2.57h-3.11v-.83h3.11v-2.18l1.19.08c0,.13-.13.22-.3.24v1.86h3.17v.83h-3.17v2.57Z" style="fill:#666"/><path d="M126.26,163.79c0,.1-.1.16-.27.19l0,.38c.15,1.83.93,7.9,5.88,10.15a2.67,2.67,0,0,0-.66.73c-3.51-1.67-5-5.2-5.58-7.89h0a11,11,0,0,1-5.41,7.87,3.44,3.44,0,0,0-.7-.66c5.42-2.72,5.46-9.11,5.55-10.87Z" style="fill:#666"/><path d="M143.79,168.84a.13.13,0,0,1-.08,0,.36.36,0,0,1-.2-.08c-1,.33-2.43.86-3.51,1.33,0,.3,0,.63,0,1s0,.88,0,1.39l-.94,0c0-.46.06-1.06.06-1.57,0-.2,0-.38,0-.52-1.47.72-2.67,1.59-2.67,2.37s.9,1.11,2.69,1.11a28,28,0,0,0,3.27-.13v.88c-.77.07-1.94.1-3.28.1-2.49,0-3.6-.6-3.6-1.93,0-1.14,1.51-2.24,3.46-3.22-.08-.82-.44-1.22-1-1.22-.95,0-1.94.53-3.11,1.83-.36.4-.87.91-1.43,1.42l-.64-.64a9.06,9.06,0,0,0,3.28-4.8l-.73,0h-2.17v-.85c.79,0,1.72,0,2.25,0l.88,0a13.39,13.39,0,0,0,.35-1.86l1.28.16c0,.13-.13.21-.33.23-.09.52-.2,1-.32,1.45a17.87,17.87,0,0,0,4.47-.76l.16.87a19.58,19.58,0,0,1-4.88.73,9.26,9.26,0,0,1-.93,2.2h0a3.44,3.44,0,0,1,2.09-.85c.89,0,1.45.64,1.62,1.69,1.09-.49,2.46-1,3.5-1.43Z" style="fill:#666"/><path d="M145.52,166.94a10.65,10.65,0,0,1,2.43,1.34l-.5.73a11.17,11.17,0,0,0-2.4-1.4Zm-.09,7.66a43.67,43.67,0,0,0,2.35-4.29l.66.55a45,45,0,0,1-2.14,4,.3.3,0,0,1,.06.19.23.23,0,0,1,0,.14Zm.79-11.21a10.24,10.24,0,0,1,2.36,1.43l-.5.72a9.9,9.9,0,0,0-2.36-1.51ZM157.15,168h-3.89v2.26h3v5h-.89v-.49h-4.91v.59h-.86v-5.09h2.83V168h-3.83v-.85h3.83V164.9c-1,.17-2.12.33-3.14.44a2.84,2.84,0,0,0-.26-.74,33.81,33.81,0,0,0,6.64-1.31l.83.7c-.05,0-.08,0-.26,0a22.77,22.77,0,0,1-2.94.71v2.41h3.89Zm-1.82,6v-2.88h-4.91V174Z" style="fill:#666"/><path d="M169.18,164.21v9.88c0,1.2-.57,1.21-3,1.19a3.52,3.52,0,0,0-.31-.85l1.32,0c1.08,0,1.15,0,1.15-.37v-2.82h-3.75v3.95h-.84v-3.95H160.3a7.61,7.61,0,0,1-1.67,4.15,3.13,3.13,0,0,0-.66-.59c1.46-1.63,1.6-4,1.6-5.83v-4.79ZM160.43,169c0,.45,0,.93-.05,1.44h3.34v-2.27h-3.29Zm3.29-3.95h-3.29v2.3h3.29Zm4.59,2.3v-2.3h-3.75v2.3Zm-3.75,3.09h3.75v-2.27h-3.75Z" style="fill:#666"/><path d="M177.5,165.42c0-.28-.05-1.7-.08-2l1.34.06a.37.37,0,0,1-.34.27c0,.16,0,.31,0,1.68,1.59-.06,3.27-.09,4.25-.11v.9c-1.11,0-2.68,0-4.23.05,0,1,.05,1.95.09,2.67a4.42,4.42,0,0,1,.16,1.36,5.6,5.6,0,0,1-.13,1.26c-.34,1.52-1.46,2.86-3.75,3.77a6.48,6.48,0,0,0-.66-.74c2-.71,3.06-1.79,3.38-3h0a1.64,1.64,0,0,1-1.34.69A2.21,2.21,0,0,1,174,170a2.38,2.38,0,0,1,2.34-2.43,1.88,1.88,0,0,1,1.2.4c0-.22,0-1.09,0-1.65-1.35,0-5.46.17-6,.19l0-.86,3-.07Zm.24,4.57c0-.51,0-1.69-1.32-1.69a1.56,1.56,0,0,0-1.55,1.65,1.46,1.46,0,0,0,1.44,1.51A1.4,1.4,0,0,0,177.74,170Z" style="fill:#666"/><path d="M187.32,169a7.93,7.93,0,0,1,3.23-.75c2.07,0,3.37,1.21,3.37,3.12,0,2.35-2.07,3.65-4.68,3.65-1.69,0-2.85-.67-2.85-1.82a2,2,0,0,1,2.13-1.74,2.74,2.74,0,0,1,2.65,2.35,2.55,2.55,0,0,0,1.8-2.43c0-1.4-1-2.3-2.68-2.3a7.37,7.37,0,0,0-4.72,1.71c-.39.36-.9.91-1.25,1.31l-.66-.66c1.17-1.23,4.89-4.78,6.65-6.43-.75.11-3.35.21-4.83.26a.46.46,0,0,1-.27.2l-.11-1.11c1.76,0,5.11-.14,6.06-.28l.2-.09.68.84a.59.59,0,0,1-.31.12c-.92.75-3.39,3.07-4.41,4Zm1.8,5.21a5.53,5.53,0,0,0,1.18-.14,2,2,0,0,0-1.84-1.84c-.68,0-1.28.36-1.28,1C187.18,174,188.26,174.19,189.12,174.19Z" style="fill:#666"/><path d="M204.84,174a25,25,0,0,1-4,.29,15.33,15.33,0,0,1-2.54-.16,2.51,2.51,0,0,1-2.25-2.49,4.19,4.19,0,0,1,1.32-2.78l.76.39a3.57,3.57,0,0,0-1.15,2.31c0,.76.51,1.45,1.63,1.7a11.2,11.2,0,0,0,2.12.15,21.4,21.4,0,0,0,4-.35ZM199,167.45a15.94,15.94,0,0,1,2.3-1.51h0c-1,.12-3.25.17-4.69.16,0-.25,0-.68,0-.91a42.75,42.75,0,0,0,7.41-.42l.11,1a10.7,10.7,0,0,0-4.37,2.2Z" style="fill:#666"/><path d="M215.42,167.89a.2.2,0,0,1-.11,0,.53.53,0,0,1-.27-.08c-3.86,1.13-7.36,2.83-7.34,4.57,0,1.25,1.37,1.68,3.48,1.68a31.58,31.58,0,0,0,4.6-.3l.08.95a41.07,41.07,0,0,1-4.65.23c-2.58,0-4.45-.59-4.46-2.5,0-1.4,1.38-2.62,3.42-3.67-.45-.79-.6-2.3-.6-5.24l1.43.12c0,.17-.14.27-.4.31,0,2.27.06,3.69.42,4.39a38.2,38.2,0,0,1,4.06-1.56Z" style="fill:#666"/><path d="M217.43,165c1,0,9-.61,10.68-.62v1h-.48a3.74,3.74,0,0,0-2.22.66c-2,1.17-3.84,3.27-3.84,4.94,0,1.82,1.27,2.9,4.5,3.32l-.43.91c-3.69-.53-5.07-1.91-5.07-4.23,0-1.83,1.81-4.05,4.19-5.55-1.43.11-5.27.39-7,.55a.43.43,0,0,1-.28.21Zm8.43,2.56a10,10,0,0,1,1.77,1.8l-.5.4a8.87,8.87,0,0,0-1.71-1.81Zm1.4-1.14a8.32,8.32,0,0,1,1.77,1.79l-.49.39a9.58,9.58,0,0,0-1.72-1.79Z" style="fill:#666"/><path d="M230.12,171.77a25.08,25.08,0,0,1,2.94,2.87l-.78.72a28.3,28.3,0,0,0-2.85-3Z" style="fill:#666"/><path d="M47.25,189.16A25.09,25.09,0,0,0,50,189c0,.28,0,.65.05.93-.86.09-2.16.14-2.69.14H44.09c-2,0-2.91-.85-2.91-2.71v-7.58l1.27.08c0,.13-.11.21-.35.23v4.24a43.37,43.37,0,0,0,6.45-2.58l.66.9a.26.26,0,0,1-.15,0,.37.37,0,0,1-.18,0,49.24,49.24,0,0,1-6.78,2.56v2.17c0,1.32.64,1.81,2,1.81Zm1.22-9.79a10,10,0,0,1,1.61,1.91l-.49.38A10.47,10.47,0,0,0,48,179.75Zm1.6-.78a10.63,10.63,0,0,1,1.61,1.9l-.49.38A10.48,10.48,0,0,0,49.6,179Z" style="fill:#666"/><path d="M52.79,183a18.64,18.64,0,0,1,3.5,1.17l-.4.81a19.24,19.24,0,0,0-3.49-1.19Zm.78,6.35c4.17-1.4,7.12-3.69,8.84-7.56a8.9,8.9,0,0,0,.79.58,14.35,14.35,0,0,1-8.75,7.67.31.31,0,0,1-.14.33Zm.65-9.58a20.65,20.65,0,0,1,3.48,1.27l-.43.8a20.56,20.56,0,0,0-3.44-1.32Zm6.08-.43A10.18,10.18,0,0,1,62,181.26l-.51.37a10.86,10.86,0,0,0-1.65-1.89Zm1.81-.79a11.66,11.66,0,0,1,1.69,1.87l-.51.38A11.7,11.7,0,0,0,61.64,179Z" style="fill:#666"/><path d="M74.39,182.28c0,.07-.11.11-.23.12A18.83,18.83,0,0,1,71,185.48l.21.05a.32.32,0,0,1-.28.19v4.95H70v-4.51a25,25,0,0,1-4.64,2.47,9.22,9.22,0,0,0-.6-.73,20,20,0,0,0,7.92-5.19H66.11v-.84h7.45l.15-.09Zm-2.14-1A24.49,24.49,0,0,0,68,179.7l.43-.76a23.79,23.79,0,0,1,4.33,1.54Zm.09,4.17a27.69,27.69,0,0,1,3.8,2.39l-.67.71a25.64,25.64,0,0,0-3.73-2.45Z" style="fill:#666"/><path d="M86.37,180.58a.24.24,0,0,1-.17.14,20.32,20.32,0,0,1-2.6,4.48,47.25,47.25,0,0,1,4.76,4.4l-.8.69A42.68,42.68,0,0,0,83,185.92a20.51,20.51,0,0,1-5,4.37,5.56,5.56,0,0,0-.68-.7,18.68,18.68,0,0,0,7.62-8.49H78.55v-.88h6.89l.17-.07Z" style="fill:#666"/><path d="M96.35,181.24a.32.32,0,0,1-.32.21c-.47,4.05-1.82,7.57-4,7.57C91,189,90,187.93,90,185.87a5.7,5.7,0,0,1,5.85-5.73c3.76,0,5.38,2.38,5.38,4.91,0,3.1-1.79,4.59-4.94,5.32a4.94,4.94,0,0,0-.55-.79c3-.58,4.53-2,4.53-4.49,0-2.14-1.38-4.09-4.42-4.09l-.39,0Zm-1.25-.17a4.8,4.8,0,0,0-4.25,4.78c0,1.39.6,2.26,1.22,2.26C93.65,188.11,94.78,184.64,95.1,181.07Z" style="fill:#666"/><path d="M113.37,183.91h-8.53c0,2-.23,4.86-1.65,6.82a3.66,3.66,0,0,0-.72-.52c1.36-1.88,1.51-4.47,1.51-6.34v-2.66h9.39Zm.93-4.36v.77H102.88v-.77ZM107.87,185v-.91l1.08.07c0,.09-.08.16-.25.18v2.84a3.79,3.79,0,0,1-2.73,4,5.24,5.24,0,0,0-.69-.48,3.69,3.69,0,0,0,2.26-1.82c-.92.18-1.8.34-2.41.44a.22.22,0,0,1-.16.17l-.31-.83c.82-.09,1.93-.26,3.1-.43a3.72,3.72,0,0,0,.11-.94h-2.52v-.65h2.52v-.92h-2.69V185Zm4.64-3.06h-7.67v1.31h7.67Zm1.86,6.34v.69h-3.3v2h-.86V184l1.1.08c0,.09-.07.15-.24.17V185h3v.68h-3v.92h2.82v.65h-2.82v1Z" style="fill:#666"/><path d="M116.85,190.23a14.41,14.41,0,0,1-.56-4.58,33.87,33.87,0,0,1,.7-6.07l1.27.25a.34.34,0,0,1-.34.23,24.9,24.9,0,0,0-.76,5.6,15.85,15.85,0,0,0,.12,2.46c.29-.78.81-2,1.08-2.64l.59.55a15.13,15.13,0,0,0-1.34,3.47,1.57,1.57,0,0,0,.13.62Zm3.3-7.66c1.1,0,2.19,0,3.28,0-.05-1.12-.09-2.08-.12-3l1.32,0c0,.13-.13.24-.34.28,0,.83,0,1.67.06,2.66a11,11,0,0,0,2.55-.52l.12.91a12.18,12.18,0,0,1-2.63.47c0,1.44.12,3,.16,3.8a9.55,9.55,0,0,1,2.65,1.65l-.51.83a7.73,7.73,0,0,0-2.1-1.48c0,1.1-.22,2.34-2.17,2.34-1.53,0-2.54-.73-2.54-1.87,0-1.33,1.34-1.91,2.54-1.91a4.72,4.72,0,0,1,1.23.16c0-.81-.12-2.18-.18-3.45-.4,0-1,0-1.33,0h-2Zm3.57,5.11a4.44,4.44,0,0,0-1.29-.23c-.79,0-1.74.28-1.74,1.1s.78,1.09,1.73,1.09,1.31-.47,1.31-1.51Z" style="fill:#666"/><path d="M134,183.84h-3.9V191h-.86V179.45H134Zm-.83-3.7h-3.07v1.14h3.07Zm-3.07,3h3.07v-1.22h-3.07Zm8.1,4.56h-1.85v3h-.79v-3h-2a4.35,4.35,0,0,1-1.79,3.12,2.83,2.83,0,0,0-.59-.55,3.41,3.41,0,0,0,1.6-2.57h-1.7V187h1.73v-1.52h-1.47v-.74h6.56v.74h-1.56V187h1.85Zm-4.6-.75h2v-1.52h-2Zm6.5-7.51v10.32c0,1.12-.5,1.17-2.54,1.17a3.58,3.58,0,0,0-.28-.9l1.19,0c.69,0,.77,0,.77-.3v-5.91h-4v-4.41Zm-.86.69H136v1.14h3.17Zm-3.17,3h3.17v-1.24H136Z" style="fill:#666"/><path d="M146.6,179.5c0,.16-.19.22-.43.24-.15.72-.38,2-.54,2.76.59-.06,1.12-.11,1.45-.11,2,0,2.65,1.28,2.65,3.24a10.15,10.15,0,0,1-.44,2.91,2.39,2.39,0,0,1-2.32,2,3.85,3.85,0,0,1-2.35-1.13,5.12,5.12,0,0,0,.35-.79,3.5,3.5,0,0,0,2,1c.74,0,1.18-.46,1.44-1.3a9.51,9.51,0,0,0,.42-2.66c0-1.48-.49-2.37-1.79-2.35a14.28,14.28,0,0,0-1.59.13,25,25,0,0,1-2.67,7l-.85-.42a21.3,21.3,0,0,0,2.58-6.5c-.66.08-1.61.19-2.31.31l-.08-.91,2.57-.3c.2-1,.41-2.12.56-3.26Zm6,6.25a7.83,7.83,0,0,0-2.93-4.44l.7-.55a8.36,8.36,0,0,1,3.16,4.63Z" style="fill:#666"/><path d="M155.16,181.86a12.9,12.9,0,0,0,2.45-.2c0-.78,0-1.21.09-2.39l1.34.1c0,.14-.15.24-.37.26,0,.57-.1,1.38-.13,1.86l.41.16a6.2,6.2,0,0,0-.52,1.86c1.43-1.34,3-2.29,4.09-2.29s1.83.86,1.83,2.36c0,.17,0,.34,0,.51-.09,1.14-.22,2.77-.22,3.81,0,.78.09,1.2.63,1.2a3.49,3.49,0,0,0,1.73-.88,7.93,7.93,0,0,0,.19,1,4,4,0,0,1-2,.85c-1.09,0-1.45-.65-1.45-2,0-.68.23-4.26.23-4.27,0-1.13-.39-1.64-1-1.64-1,0-2.62,1.06-4,2.49,0,1.88,0,4.2,0,6h-.91c0-.75,0-4.46,0-5.29a13.67,13.67,0,0,1-2.37,3.14l-.47-.82a13.22,13.22,0,0,0,2.86-3.93c0-.38,0-.73,0-1.14a14.72,14.72,0,0,1-2.39.22Z" style="fill:#666"/><path d="M168.08,180.89c.81.06,1.89.06,2.77.06l1.8,0c0-.63,0-1.35,0-1.81l1.32.07c0,.15-.13.23-.36.27,0,.21,0,1.21,0,1.43a25.59,25.59,0,0,0,4.32-.51l.12.86a25.51,25.51,0,0,1-4.44.49c0,.78,0,1.59.06,2.4a22,22,0,0,0,3.66-.51l.11.85a26.17,26.17,0,0,1-3.76.45l.1,2.17a14.62,14.62,0,0,1,3.83,2l-.58.79a12.9,12.9,0,0,0-3.22-1.91c0,.21,0,.44,0,.61,0,1.24-.75,2-2.33,2s-2.85-.67-2.85-1.9,1.41-1.93,2.87-1.93a6,6,0,0,1,1.36.15c0-.56,0-1.23-.05-1.93l-1.26,0c-2.22,0-2.85-.35-2.85-1.1,0-.5.38-.9,1.21-1.43l.63.4c-.59.32-.9.61-.9.87s.61.47,2.26.47h.87l-.08-2.41c-.55,0-1.21,0-1.79,0-.83,0-2,0-2.8,0Zm4.82,6.78a5.25,5.25,0,0,0-1.46-.21c-1,0-2,.4-2,1.18s.91,1.15,2,1.15,1.42-.46,1.42-1.37Z" style="fill:#666"/><path d="M186,181c0-.28,0-1.7-.08-2l1.34.06c0,.1-.11.23-.34.27,0,.16,0,.31,0,1.68l4.25-.11v.9c-1.11,0-2.68,0-4.23.05,0,1,.05,1.95.09,2.67a4.42,4.42,0,0,1,.16,1.36,5.6,5.6,0,0,1-.13,1.26c-.34,1.52-1.46,2.86-3.75,3.77a6.48,6.48,0,0,0-.66-.74c2-.71,3.06-1.79,3.38-3h0a1.62,1.62,0,0,1-1.34.69,2.21,2.21,0,0,1-2.18-2.27,2.38,2.38,0,0,1,2.34-2.43,2,2,0,0,1,1.21.4c0-.22,0-1.09-.06-1.65-1.35,0-5.46.17-6,.19l0-.85,3-.08Zm.24,4.57c0-.51,0-1.69-1.32-1.69a1.56,1.56,0,0,0-1.55,1.65,1.45,1.45,0,0,0,1.44,1.5A1.39,1.39,0,0,0,186.19,185.59Z" style="fill:#666"/><path d="M194.72,189.13a1.82,1.82,0,1,1-1.82-1.82A1.83,1.83,0,0,1,194.72,189.13Zm-.47,0a1.35,1.35,0,1,0-1.35,1.34A1.34,1.34,0,0,0,194.25,189.13Z" style="fill:#666"/><line x1="103.23" y1="109.5" x2="6.23" y2="167.5" style="fill:none;stroke:#b6e8fb;stroke-miterlimit:10;stroke-width:2px"/><g style="isolation:isolate"><path d="M6.84,167.33a8.5,8.5,0,0,0,7.7,0c2.12-1.24,2.11-3.23,0-4.46a8.5,8.5,0,0,0-7.7,0c-2.12,1.23-2.11,3.22,0,4.46Z" style="fill:#b6e8fb"/></g><line x1="89.23" y1="101.5" x2="41.23" y2="130.5" style="fill:none;stroke:#b6e8fb;stroke-miterlimit:10;stroke-width:2px"/><line x1="41.52" y1="131.02" x2="14.23" y2="115.5" style="fill:none;stroke:#b6e8fb;stroke-miterlimit:10;stroke-width:2px"/><g style="isolation:isolate"><path d="M9.84,116.33a8.5,8.5,0,0,0,7.7,0c2.12-1.24,2.11-3.23,0-4.46a8.5,8.5,0,0,0-7.7,0c-2.12,1.23-2.11,3.22,0,4.46Z" style="fill:#b6e8fb"/></g><g style="isolation:isolate"><g style="isolation:isolate"><path d="M110.76,11.89l-1.66-1a3.47,3.47,0,0,1,3.53-.34l1.65,1a3.5,3.5,0,0,0-3.52.34Z" style="fill:#003058"/></g><g style="isolation:isolate"><path d="M41.59,102l-1.65-1a3.43,3.43,0,0,1-1.45-3.18l1.65,1A3.49,3.49,0,0,0,41.59,102Z" style="fill:#003058"/></g><polygon points="40.15 98.78 38.49 97.81 38.37 57.47 40.03 58.43 40.15 98.78" style="fill:#002035"/><polygon points="44.97 49.87 43.32 48.91 109.1 10.93 110.76 11.89 44.97 49.87" style="fill:#002035"/><g style="isolation:isolate"><path d="M40,58.43l-1.66-1a10.89,10.89,0,0,1,5-8.56l1.65,1A10.89,10.89,0,0,0,40,58.43Z" style="fill:#002035"/></g><path d="M110.76,11.89c2.73-1.58,5-.31,5,2.84l.11,40.34a10.88,10.88,0,0,1-4.94,8.56l-65.78,38c-2.74,1.59-5,.31-5-2.83L40,58.43A10.89,10.89,0,0,1,45,49.87Z" style="fill:#b03478"/></g><path d="M61.53,64.71c0,10.35,7.29,14.56,16.25,9.39S94,56.29,94,45.94s-7.29-14.56-16.26-9.38S61.53,54.36,61.53,64.71Zm4.61,7.69c-1.76-1.63-2.87-4.25-3-7.71L69.47,61a20.94,20.94,0,0,0,.91,5.32A38.26,38.26,0,0,0,66.14,72.4ZM85.07,57.79a33.24,33.24,0,0,0,.74-6.2l6.65-3.84a29.33,29.33,0,0,1-3,11.21A8.25,8.25,0,0,0,85.07,57.79Zm4.62-19.28c1.61,1.64,2.61,4.17,2.77,7.45l-6.67,3.85a20.89,20.89,0,0,0-.7-4.66A39.31,39.31,0,0,0,89.69,38.51ZM76.86,55,71,58.35a31.22,31.22,0,0,1,.51-4.81,15,15,0,0,0,5.35-1.67Zm-4.92-3.4a43.22,43.22,0,0,1,4.92-11.83V50.09A13.56,13.56,0,0,1,71.94,51.57Zm11.27-6.31a25.61,25.61,0,0,1-4.8,4V39.47A10.3,10.3,0,0,1,83.21,45.26Zm.45,1.45a19.54,19.54,0,0,1,.59,4l-5.84,3.38V51A28.25,28.25,0,0,0,83.66,46.71Zm0,11.17a15.46,15.46,0,0,0-5.23,1.78v-3.8l5.86-3.38A30.26,30.26,0,0,1,83.64,57.88Zm-.45,2a43.94,43.94,0,0,1-4.78,11.24V61.44A13.79,13.79,0,0,1,83.19,59.85ZM72.3,66.17a25.41,25.41,0,0,1,4.56-3.82v9A10.09,10.09,0,0,1,72.3,66.17Zm-.5-1.39A18.9,18.9,0,0,1,71,60.12l5.84-3.37v3.81A28.48,28.48,0,0,0,71.8,64.78ZM63.11,62.9a29.31,29.31,0,0,1,2.77-10.65,8.16,8.16,0,0,0,4.21,1.33,33.24,33.24,0,0,0-.63,5.66ZM75.17,40.13a47.14,47.14,0,0,0-4.63,11.44,7.24,7.24,0,0,1-3.67-1.29A32.86,32.86,0,0,1,75.17,40.13Zm13.54-2.45a36,36,0,0,1-4.09,6,11.09,11.09,0,0,0-5.23-6.18C83.07,35.86,86.34,36,88.71,37.68ZM80.05,70.79a47.47,47.47,0,0,0,4.54-11,7.37,7.37,0,0,1,3.83,1.12A32.34,32.34,0,0,1,80.05,70.79Zm-12.9,2.38a36.61,36.61,0,0,1,3.75-5.44,10.85,10.85,0,0,0,4.93,5.55C72.44,74.71,69.41,74.6,67.15,73.17Z" style="fill:#b6e8fb"/><path d="M96.78,26.57V40.12c0,1.46,1,2,2.29,1.31l11.73-6.77a5,5,0,0,0,2.28-3.95V17.16c0-1.37-.89-2-2-1.45l-.23.13L99.07,22.62A5,5,0,0,0,96.78,26.57Z" style="fill:#00a7e1"/><path d="M106.69,19.24V37l1.75-1V18.23a2,2,0,0,1,.88-1.53l1.71-1-.23.13-4,2.29A4.24,4.24,0,0,0,106.69,19.24Z" style="fill:#b03478"/><path d="M96.78,36.1v2.1a1.39,1.39,0,0,1,.39-.34l15.91-9.19v-2L97.17,35.83A3,3,0,0,0,96.78,36.1Z" style="fill:#b03478"/><path d="M96.78,30.88v2l4-2.34A5.84,5.84,0,0,0,103.47,26V20.08l-1.76,1V27a2,2,0,0,1-.88,1.53Z" style="fill:#b03478"/><path d="M89.68,71.41c0,.56.39.79.88.5L112.2,59.42a1.93,1.93,0,0,0,.88-1.52V56.5c0-.56-.39-.78-.88-.5L90.56,68.49A1.93,1.93,0,0,0,89.68,70Z" style="fill:#003058"/><path d="M68.58,83.59c0,.56.4.79.88.51l15.61-9a2,2,0,0,0,.87-1.53V72.17c0-.57-.39-.79-.87-.51l-15.61,9a2,2,0,0,0-.88,1.53Z" style="fill:#003058"/><g style="isolation:isolate"><g style="isolation:isolate"><path d="M138.44,30l-1.66-1a3.47,3.47,0,0,1,3.53-.34l1.65,1a3.5,3.5,0,0,0-3.52.34Z" style="fill:#003058"/></g><g style="isolation:isolate"><path d="M69.27,120l-1.65-1a3.48,3.48,0,0,1-1.45-3.19l1.66,1A3.46,3.46,0,0,0,69.27,120Z" style="fill:#003058"/></g><polygon points="67.83 116.86 66.17 115.89 66.05 75.55 67.72 76.51 67.83 116.86" style="fill:#002035"/><polygon points="72.65 67.95 71 66.99 136.78 29.01 138.44 29.97 72.65 67.95" style="fill:#002035"/><g style="isolation:isolate"><path d="M67.72,76.51l-1.67-1A10.93,10.93,0,0,1,71,67l1.65,1a10.85,10.85,0,0,0-4.93,8.56Z" style="fill:#002035"/></g><path d="M138.44,30c2.73-1.58,5-.31,5,2.84l.12,40.34a10.91,10.91,0,0,1-4.95,8.56l-65.78,38c-2.74,1.59-5,.31-5-2.83l-.11-40.35A10.85,10.85,0,0,1,72.65,68Z" style="fill:#00a7e1"/></g><path d="M89.21,82.79c0,10.35,7.3,14.56,16.25,9.39S121.72,74.38,121.72,64s-7.29-14.56-16.26-9.38S89.21,72.44,89.21,82.79Zm4.61,7.69c-1.76-1.63-2.87-4.25-3-7.71l6.36-3.67a21,21,0,0,0,.9,5.32A39.41,39.41,0,0,0,93.82,90.48Zm18.93-14.61a33.14,33.14,0,0,0,.74-6.2l6.65-3.84a29.33,29.33,0,0,1-3,11.21A8.25,8.25,0,0,0,112.75,75.87Zm4.62-19.28A11.12,11.12,0,0,1,120.14,64l-6.67,3.85a20.89,20.89,0,0,0-.7-4.66A38.74,38.74,0,0,0,117.37,56.59ZM104.54,73.05l-5.85,3.38a28.93,28.93,0,0,1,.51-4.81A15,15,0,0,0,104.54,70Zm-4.92-3.4a43.47,43.47,0,0,1,4.92-11.83V68.17A13.56,13.56,0,0,1,99.62,69.65Zm11.27-6.31a25.61,25.61,0,0,1-4.8,4V57.55A10.3,10.3,0,0,1,110.89,63.34Zm.45,1.45a19.54,19.54,0,0,1,.59,4l-5.84,3.38V69.07A28.25,28.25,0,0,0,111.34,64.79Zm0,11.17a15.43,15.43,0,0,0-5.24,1.78v-3.8L112,70.56A31.17,31.17,0,0,1,111.33,76Zm-.46,2a43.59,43.59,0,0,1-4.78,11.24V79.52A13.79,13.79,0,0,1,110.87,77.93ZM100,84.25a25.41,25.41,0,0,1,4.56-3.82v9A10.09,10.09,0,0,1,100,84.25Zm-.5-1.39a18.9,18.9,0,0,1-.78-4.66l5.84-3.37v3.81A28.84,28.84,0,0,0,99.48,82.86ZM90.8,81a28.92,28.92,0,0,1,2.77-10.65,8.12,8.12,0,0,0,4.2,1.33,33.24,33.24,0,0,0-.63,5.66Zm12-22.77a47.3,47.3,0,0,0-4.63,11.44,7.24,7.24,0,0,1-3.67-1.29A32.86,32.86,0,0,1,102.85,58.21Zm13.54-2.45a36,36,0,0,1-4.09,6,11.09,11.09,0,0,0-5.23-6.18C110.75,53.94,114,54.1,116.39,55.76Zm-8.66,33.11a48,48,0,0,0,4.55-11A7.36,7.36,0,0,1,116.1,79,32.2,32.2,0,0,1,107.73,88.87ZM94.84,91.25a35.82,35.82,0,0,1,3.74-5.44,10.85,10.85,0,0,0,4.93,5.55C100.12,92.79,97.09,92.68,94.84,91.25Z" style="fill:#b6e8fb"/><path d="M124.46,44.65V58.2c0,1.46,1,2,2.29,1.32l11.73-6.78a5,5,0,0,0,2.28-4V35.24c0-1.37-.89-2-2-1.45l-.23.13L126.75,40.7A5,5,0,0,0,124.46,44.65Z" style="fill:#b6e8fb"/><path d="M134.37,37.32v17.8l1.75-1V36.31a2,2,0,0,1,.88-1.53l1.71-1-.23.13-4,2.29A4.3,4.3,0,0,0,134.37,37.32Z" style="fill:#00a7e1"/><path d="M124.46,54.18v2.1a1.54,1.54,0,0,1,.39-.34l15.91-9.19v-2l-15.91,9.19A3,3,0,0,0,124.46,54.18Z" style="fill:#00a7e1"/><path d="M124.46,49v2l4-2.33a5.87,5.87,0,0,0,2.64-4.57V38.16l-1.76,1v5.92a2,2,0,0,1-.88,1.53Z" style="fill:#00a7e1"/><path d="M117.36,89.49c0,.56.39.79.88.51l21.64-12.5a1.93,1.93,0,0,0,.88-1.52v-1.4c0-.56-.39-.78-.88-.5L118.24,86.57a1.93,1.93,0,0,0-.88,1.52Z" style="fill:#bebebe"/><path d="M96.26,101.67c0,.56.4.79.88.51l15.61-9a2,2,0,0,0,.87-1.53V90.25c0-.56-.39-.79-.87-.51l-15.61,9a2,2,0,0,0-.88,1.53Z" style="fill:#bebebe"/><g style="isolation:isolate"><g style="isolation:isolate"><path d="M169.74,49.85l-1.65-1a3.48,3.48,0,0,1,3.52-.35l1.66,1a3.47,3.47,0,0,0-3.53.34Z" style="fill:#666"/></g><g style="isolation:isolate"><path d="M100.58,139.92l-1.66-1a3.45,3.45,0,0,1-1.44-3.18l1.65,1a3.48,3.48,0,0,0,1.45,3.19Z" style="fill:#666"/></g><polygon points="99.13 136.74 97.47 135.77 97.36 95.43 99.02 96.39 99.13 136.74" style="fill:#666"/><polygon points="103.96 87.83 102.3 86.86 168.09 48.89 169.74 49.85 103.96 87.83" style="fill:#666"/><g style="isolation:isolate"><path d="M99,96.39l-1.66-1a10.91,10.91,0,0,1,4.94-8.57l1.66,1A10.88,10.88,0,0,0,99,96.39Z" style="fill:#666"/></g><path d="M169.74,49.85c2.74-1.58,5-.31,5,2.83L174.83,93a10.89,10.89,0,0,1-4.94,8.56l-65.78,38c-2.74,1.58-5,.31-5-2.84L99,96.39A10.88,10.88,0,0,1,104,87.83Z" style="fill:#bebebe"/></g><path d="M120.52,102.67c0,10.35,7.29,14.56,16.25,9.38S153,94.25,153,83.9s-7.3-14.56-16.26-9.38S120.52,92.32,120.52,102.67Zm4.61,7.69c-1.77-1.63-2.87-4.26-3-7.71L128.46,99a20.51,20.51,0,0,0,.91,5.32A38.82,38.82,0,0,0,125.13,110.36Zm18.93-14.62a34,34,0,0,0,.74-6.19l6.65-3.84a29.49,29.49,0,0,1-3,11.2A8.22,8.22,0,0,0,144.06,95.74Zm4.61-19.27c1.62,1.64,2.62,4.17,2.78,7.45l-6.67,3.85a21.48,21.48,0,0,0-.7-4.67A38.78,38.78,0,0,0,148.67,76.47ZM135.85,92.92,130,96.31a30.27,30.27,0,0,1,.51-4.82,15,15,0,0,0,5.35-1.66Zm-4.93-3.4a43.64,43.64,0,0,1,4.93-11.82V88A13.22,13.22,0,0,1,130.92,89.52Zm11.27-6.3a24.85,24.85,0,0,1-4.8,3.94V77.43A10.22,10.22,0,0,1,142.19,83.22Zm.46,1.44a20.36,20.36,0,0,1,.59,4L137.39,92V89A28.3,28.3,0,0,0,142.65,84.66Zm0,11.17a15.84,15.84,0,0,0-5.24,1.79v-3.8l5.86-3.38A31.06,31.06,0,0,1,142.63,95.83Zm-.46,2a43.8,43.8,0,0,1-4.78,11.25V99.4A14,14,0,0,1,142.17,97.8Zm-10.88,6.33a25.41,25.41,0,0,1,4.56-3.82v9A10.07,10.07,0,0,1,131.29,104.13Zm-.5-1.4a18.74,18.74,0,0,1-.78-4.65l5.84-3.37v3.81A28.41,28.41,0,0,0,130.79,102.73Zm-8.69-1.87a28.87,28.87,0,0,1,2.77-10.65,8.16,8.16,0,0,0,4.21,1.33,32.15,32.15,0,0,0-.63,5.66Zm12.06-22.77a46.68,46.68,0,0,0-4.63,11.43,7.3,7.3,0,0,1-3.68-1.28A33,33,0,0,1,134.16,78.09Zm13.53-2.46a34.51,34.51,0,0,1-4.09,6,11,11,0,0,0-5.22-6.18C142.06,73.81,145.33,74,147.69,75.63ZM139,108.75a47.32,47.32,0,0,0,4.55-11,7.42,7.42,0,0,1,3.82,1.12A32.22,32.22,0,0,1,139,108.75Zm-12.89,2.38a34.85,34.85,0,0,1,3.74-5.44,10.88,10.88,0,0,0,4.94,5.54C131.42,112.67,128.39,112.56,126.14,111.13Z" style="fill:#003058"/><path d="M155.77,64.53V78.08c0,1.45,1,2,2.28,1.31l11.73-6.77a5,5,0,0,0,2.29-4V55.12c0-1.37-.9-2-2-1.45l-.24.13-11.73,6.77A5.07,5.07,0,0,0,155.77,64.53Z" style="fill:#b03478"/><path d="M165.67,57.2V75l1.76-1V56.19a1.93,1.93,0,0,1,.88-1.53l1.71-1-.24.13-3.95,2.28A4,4,0,0,0,165.67,57.2Z" style="fill:#bebebe"/><path d="M155.77,74.05v2.11a1.35,1.35,0,0,1,.38-.34l15.92-9.19v-2l-15.92,9.19A4.28,4.28,0,0,0,155.77,74.05Z" style="fill:#bebebe"/><path d="M155.77,68.83v2l4-2.34A5.84,5.84,0,0,0,162.45,64V58l-1.75,1V65a2,2,0,0,1-.88,1.52Z" style="fill:#bebebe"/><path d="M148.67,109.36c0,.56.39.79.87.51l21.65-12.49a2,2,0,0,0,.88-1.53V94.46c0-.56-.4-.79-.88-.51l-21.65,12.5a1.94,1.94,0,0,0-.87,1.52Z" style="fill:#b6e8fb"/><path d="M127.57,121.55c0,.56.39.78.87.5l15.62-9a1.94,1.94,0,0,0,.87-1.52v-1.39c0-.57-.39-.79-.87-.51l-15.62,9a1.94,1.94,0,0,0-.87,1.52Z" style="fill:#b6e8fb"/></svg>