<svg id="5e7810e9-64a1-46a6-9a0e-126e763a166c" data-name="Layer 1" xmlns="http://www.w3.org/2000/svg" xmlns:xlink="http://www.w3.org/1999/xlink" viewBox="0 0 280 155"><defs><clipPath id="db46cecd-967b-4d0a-a7e6-7f1bec174131"><polygon points="46.32 133.31 53.12 129.36 59.62 133.11 52.83 137.06 46.32 133.31" style="fill:#b6e8fb"/></clipPath><clipPath id="5590fc84-b0b8-4c0c-a301-7db83862ff1b"><polygon points="58.95 126.57 65.75 122.62 72.27 126.39 65.47 130.34 58.95 126.57" style="fill:none"/></clipPath><clipPath id="cc60490b-3f79-4583-ae79-70a8d6699df7"><polygon points="71.57 119.95 78.36 116 84.88 119.76 78.08 123.71 71.57 119.95" style="fill:none"/></clipPath></defs><title>OurOffering</title><g style="isolation:isolate"><polygon points="46.32 133.31 53.12 129.36 59.62 133.11 52.83 137.06 46.32 133.31" style="fill:#b6e8fb"/><g style="clip-path:url(#db46cecd-967b-4d0a-a7e6-7f1bec174131)"><polygon points="59.62 133.11 53.12 129.36 46.32 133.31 52.83 137.06 59.62 133.11 59.62 133.11" style="fill:#b6e8fb"/></g></g><g style="isolation:isolate"><g style="clip-path:url(#5590fc84-b0b8-4c0c-a301-7db83862ff1b)"><polygon points="72.27 126.39 65.75 122.62 58.95 126.57 65.47 130.34 72.27 126.39 72.27 126.39" style="fill:#00a7e1"/></g></g><g style="isolation:isolate"><g style="clip-path:url(#cc60490b-3f79-4583-ae79-70a8d6699df7)"><polygon points="84.88 119.76 78.36 116 71.57 119.95 78.08 123.71 84.88 119.76 84.88 119.76" style="fill:#b6e8fb"/></g></g><g style="isolation:isolate"><path d="M201,93.07a8.5,8.5,0,0,0-7.7,0c-2.11,1.23-2.11,3.23,0,4.46a8.52,8.52,0,0,0,7.71,0c2.11-1.23,2.1-3.23,0-4.46Z" style="fill:#b6e8fb"/></g><path d="M129.54,37c4.16-2.21,7.92-2.37,10.67-.78l-7.88-4.58a9,9,0,0,0-1-.47l-.53-.17-.14,0h0A37.42,37.42,0,0,1,129.54,37Z" style="fill:#003058"/><path d="M13,122.51c0-10.06,7.05-22.32,15.81-27.38L33,92.69a44,44,0,0,1-.43-6.14c-.07-23.78,16.66-52.77,37.37-64.73,10.42-6,19.84-6.56,26.66-2.6.73.46,1.68,1.11,2.36,1.63.44.34,1,.85,1.37,1.23a19.46,19.46,0,0,1,2.33,2.76,34.19,34.19,0,0,1,8.79-7.58,19.77,19.77,0,0,1,5.7-2.29,12.17,12.17,0,0,1,5-.11,10.12,10.12,0,0,1,1.48.43,9.91,9.91,0,0,1,1.36.64l-7.88-4.58a14,14,0,0,0-1.36-.64h0a10.17,10.17,0,0,0-3.67-.71,16,16,0,0,0-5.84,1.14,29.61,29.61,0,0,0-10.53,7.57l-7-4.07c-.35-.2-.72-.39-1.08-.57l-.4-.19A17,17,0,0,0,84,12.7a20.15,20.15,0,0,0-3.36-.57,25.72,25.72,0,0,0-3.55,0,28.23,28.23,0,0,0-3.7.5,31.75,31.75,0,0,0-3.84,1,43,43,0,0,0-7.89,3.6,56.45,56.45,0,0,0-6.34,4.27c-1.69,1.37-3.88,3.28-5.48,4.75-.88.8-2,1.94-2.78,2.82s-1.86,2-2.6,2.91C41.13,36,41.13,36,39.58,38.22a94.5,94.5,0,0,0-6.25,10.3c-.56,1.08-1.31,2.53-1.79,3.64-.95,2.17-2.15,5.09-3,7.3-1.05,2.77-2.27,7.55-2.32,7.79-.45,2.11-1,5-1.32,7.08-.18,1.18-.29,2.77-.37,4A48.24,48.24,0,0,0,24.9,88l-4,2.33-.42.25A29.23,29.23,0,0,0,12.16,98a37.4,37.4,0,0,0-3.6,5.64A34.34,34.34,0,0,0,6,109.83a27.89,27.89,0,0,0-1.17,6.33,19.84,19.84,0,0,0,.24,4.65,13.13,13.13,0,0,0,1.54,4.26,8.79,8.79,0,0,0,2,2.33l.05,0a7.44,7.44,0,0,0,1,.68l7.88,4.58C14.73,131,13,127.52,13,122.51Z" style="fill:#003058"/><path d="M28.76,95.13,33,92.69a44,44,0,0,1-.43-6.14c-.07-23.78,16.66-52.77,37.37-64.73,10.42-6,19.84-6.56,26.66-2.6.73.46,1.68,1.11,2.36,1.63.44.34,1,.85,1.37,1.23a19.46,19.46,0,0,1,2.33,2.76,34.19,34.19,0,0,1,8.79-7.58,19.77,19.77,0,0,1,5.7-2.29,12.17,12.17,0,0,1,5-.11,10.12,10.12,0,0,1,1.48.43,9.91,9.91,0,0,1,1.36.64h0a10,10,0,0,1,2,1.55,11,11,0,0,1,1.62,2.08,14.81,14.81,0,0,1,1.83,5.07,22.45,22.45,0,0,1,.23,6.31h0A37.42,37.42,0,0,1,129.54,37c4.16-2.22,7.92-2.37,10.67-.78,1.52.94,3.66,2.71,4.55,7.18a19.26,19.26,0,0,1,.26,4.75,28.3,28.3,0,0,1-1.16,6.35,35.56,35.56,0,0,1-2.53,6.17,38.17,38.17,0,0,1-3.6,5.65,30.61,30.61,0,0,1-5.65,5.7l-.2.14a24.75,24.75,0,0,1-2.44,1.65,21.41,21.41,0,0,0,2.21-1.49c-.58.41-1.15.81-1.74,1.15-18.35,10.6-88.22,51-100.71,58.15a12.06,12.06,0,0,1-6.28,1.83,12,12,0,0,0,6.38-1.82,19.7,19.7,0,0,1-2.61,1.26,14.51,14.51,0,0,1-3.47.89,10.12,10.12,0,0,1-3.12-.12,8.7,8.7,0,0,1-2.52-1C14.73,131,13,127.52,13,122.51,12.92,112.45,20,100.19,28.76,95.13Z" style="fill:#d8d8d8"/><path d="M183.28,36.92a17.24,17.24,0,0,1,.28,2.61l.35.21c3.32-1.92,6.36-2.31,8.73-1.42a7.22,7.22,0,0,1,1,.47l-4.55-2.65a9,9,0,0,0-1-.45l0,0a6.07,6.07,0,0,0-1.13-.33,8.5,8.5,0,0,0-2.64-.1,7.6,7.6,0,0,0-1.16.2l-.19.05,0,.09C183.07,36,183.17,36.38,183.28,36.92Z" style="fill:#00a7e1"/><path d="M197.48,45a11.18,11.18,0,0,0-1.3-3.61,7.19,7.19,0,0,0-2.57-2.57h0a7.22,7.22,0,0,0-1-.47c-2.37-.89-5.41-.5-8.73,1.42a.53.53,0,0,1,.18.16.53.53,0,0,0-.18-.16l-.34.19c0-.12,0-.25,0-.4a17.24,17.24,0,0,0-.28-2.61c-.11-.54-.21-1-.31-1.34l0-.09a12.74,12.74,0,0,0-.74-2A10,10,0,0,0,181,31.55a10.48,10.48,0,0,0-.92-1,12.14,12.14,0,0,0-1.34-1c-3-1.71-7-1.47-11.54,1.13-5.46,3.16-10.29,9.05-13.21,15.51h0a5.38,5.38,0,0,0-1.41-.33,8.62,8.62,0,0,0-5.06,1.35c-5.53,3.19-10,10.93-10,17.3a11.44,11.44,0,0,0,.16,1.91c-7.13,4.63-12.75,14.68-12.73,23,0,4.3,1.53,7.33,4,8.75A7.24,7.24,0,0,0,131,99a8.83,8.83,0,0,0,2.64.1,11.24,11.24,0,0,0,1.16-.2c.55-.14,1.26-.37,1.79-.56a15.14,15.14,0,0,0,2.23-1.08.38.38,0,0,0,.15-.19c-7.15,4.12-12.9.46-12.92-7.75,0-7.89,5.32-17.44,12.85-22.32a21.36,21.36,0,0,1-.29-2.58c0-5.93,4.15-13.15,9.3-16.12a7.21,7.21,0,0,1,6.6-.72c3.24-7.14,7.85-12.78,13.09-15.8,8.58-4.95,15.55-1,15.58,9.67l.58-.34.39-.22.08,0,.11-.06c7.14-4.12,13-.81,13,7.39a23.14,23.14,0,0,1-1.57,8.06c-2.23,6.08-6.6,12-11.53,14.82a21.79,21.79,0,0,0,3.32-2.38,23.61,23.61,0,0,0,2-1.92,28.28,28.28,0,0,0,1.84-2.16,32.65,32.65,0,0,0,3.11-4.87,30.24,30.24,0,0,0,2.18-5.34,23.53,23.53,0,0,0,1-5.45A16.85,16.85,0,0,0,197.48,45Z" style="fill:#b6e8fb"/><path d="M183.57,39.93l.34-.19h0l-.35-.21C183.56,39.68,183.57,39.81,183.57,39.93Z" style="fill:#00a7e1"/><path d="M149.4,43.59,154,46.24c2.92-6.46,7.75-12.35,13.21-15.51,4.51-2.6,8.59-2.84,11.54-1.13L174.16,27a7,7,0,0,0-1.17-.55l-.07,0a8.11,8.11,0,0,0-1.28-.36,10.13,10.13,0,0,0-3.13-.11,10.74,10.74,0,0,0-1.38.23c-.65.17-1.49.44-2.12.66a20.35,20.35,0,0,0-2.65,1.28,29,29,0,0,0-7.53,6.51c-.21.24-.47.57-.67.82s-.46.58-.64.84c-.73,1-1.13,1.55-1.82,2.65a41.23,41.23,0,0,0-2.49,4.64l.15,0Z" style="fill:#00a7e1"/><path d="M149.36,43.58l-.15,0-.24-.07.43.13Z" style="fill:#ffb300"/><path d="M124.93,89.46c0-8.31,5.6-18.36,12.73-23a11.44,11.44,0,0,1-.16-1.91c0-6.37,4.46-14.11,10-17.3a8.62,8.62,0,0,1,5.06-1.35,5.38,5.38,0,0,1,1.41.33h0l-4.56-2.65-.43-.13-.28-.08a6.41,6.41,0,0,0-2.11-.14,8.87,8.87,0,0,0-2.81.79,17.19,17.19,0,0,0-5.67,4.49A23.4,23.4,0,0,0,135.68,52a21.89,21.89,0,0,0-1.79,3.87,16.33,16.33,0,0,0-.9,7.89,22.28,22.28,0,0,0-3.12,2.44,24.59,24.59,0,0,0-1.92,2,27,27,0,0,0-1.76,2.17,33.44,33.44,0,0,0-2.94,4.76,30.48,30.48,0,0,0-2,5.14,22.67,22.67,0,0,0-.93,5.25,17.14,17.14,0,0,0,.2,3.94A11.2,11.2,0,0,0,121.79,93a7.91,7.91,0,0,0,1.15,1.47,6.45,6.45,0,0,0,1.42,1.1l4.55,2.65C126.46,96.79,125,93.76,124.93,89.46Z" style="fill:#00a7e1"/><path d="M195.78,56.24a23.45,23.45,0,0,0,1.57-8.06c0-8.2-5.84-11.51-13-7.39l-.11.06-.08,0-.39.22-.58.34c0-10.64-7-14.62-15.58-9.67-5.24,3-9.85,8.66-13.09,15.8a7.21,7.21,0,0,0-6.6.72c-5.15,3-9.31,10.19-9.3,16.12a21.36,21.36,0,0,0,.29,2.58c-7.53,4.88-12.88,14.43-12.85,22.32,0,8.21,5.77,11.87,12.92,7.75a.38.38,0,0,1-.15.19l4-2.31,4-2.32,4-2.31,4-2.32,4-2.31,4-2.31,4-2.32,4-2.31,4-2.32,4-2.31h0l.53-.31.53-.31.53-.3.53-.31.54-.31.53-.3.53-.31.53-.31.53-.3.53-.31C189.18,68.21,193.55,62.32,195.78,56.24Z" style="fill:#e9e9e9"/><rect x="181.82" y="71.45" width="2" height="31.39" transform="translate(16.68 202.96) rotate(-60.37)" style="fill:#b6e8fb"/><path d="M109.68,129.64v1.06h-6v3.66h-1.09V130.7H95v-1.06h2.69v-4.4h4.9v-2.63H98.48a15.14,15.14,0,0,1-2.56,3.24,5.6,5.6,0,0,0-.87-.71,14.71,14.71,0,0,0,3.73-5.71l1.36.43a.28.28,0,0,1-.36.14,15.51,15.51,0,0,1-.72,1.55h9.85v1.06H103.7v2.63h4.86v1H103.7v3.38Zm-10.88,0h3.81v-3.38H98.8Z" style="fill:#666"/><path d="M117.55,125.72h-4.77v8.66h-1V120.2h5.82Zm-1-4.68h-3.75v1.48h3.75Zm-3.75,3.83h3.75v-1.54h-3.75Zm8.55,8h-5v.85h-1V127h6Zm-1-5h-4v1.6h4Zm-4,4.13h4v-1.69h-4ZM125,120.2v12.67c0,1.43-.62,1.49-3.39,1.49a3.78,3.78,0,0,0-.37-1.12l1.43,0c1.16,0,1.26,0,1.26-.4v-7.14h-4.9V120.2ZM124,121h-3.86v1.48H124Zm-3.86,3.84H124v-1.55h-3.86Z" style="fill:#666"/><path d="M135.14,121.3h-1.49v13.06h-1v-3.3c-1.92.34-3.83.68-5.08.87a.27.27,0,0,1-.24.22l-.41-1.23,1.42-.19V121.3h-1.39v-1h8.23Zm-2.53,2.32V121.3h-3.28v2.32Zm0,3.34v-2.35h-3.28V127Zm-3.28,1v2.64l3.28-.48V128Zm11.25-6.15.67.23a.35.35,0,0,1-.13.2,20.56,20.56,0,0,1-2.57,7.94,9.24,9.24,0,0,0,3.34,3.32,3.61,3.61,0,0,0-.77.88,10,10,0,0,1-3.21-3.2,11.91,11.91,0,0,1-3.33,3.18,4.22,4.22,0,0,0-.72-.86,10.34,10.34,0,0,0,3.42-3.37,24.19,24.19,0,0,1-2.19-6.88l1-.19a22.11,22.11,0,0,0,1.86,6,20,20,0,0,0,2-6.16h-5.36v-1.06h5.8Z" style="fill:#666"/><path d="M149.46,127.3l.24,0,.64.13c0,.09,0,.22-.05.33-.31,4-.59,5.56-1.17,6.12-.4.43-.88.51-2,.51-.58,0-1.34,0-2.11-.08a2.5,2.5,0,0,0-.4-1.1c1.2.11,2.38.12,2.78.12a1.11,1.11,0,0,0,.77-.17c.42-.37.69-1.68.95-4.82h-4.33c-.06.3-.11.58-.17.83l-1.07-.17c.33-1.3.7-3.4.92-5h4.69v-2.8h-5.65v-1h6.73v5.28h-1.08V125h-3.76c-.13.77-.27,1.57-.4,2.3Zm5.44-7.67,1.39.1c0,.11-.1.19-.32.21v14.42H154.9Z" style="fill:#666"/><path d="M162.37,126.63v-2.1a10.43,10.43,0,0,1-3,2.48,4.08,4.08,0,0,0-.59-.81,8.3,8.3,0,0,0,3.25-2.71h-3.15v-.91h3.44v-3.07l1.31.08c0,.11-.1.19-.3.2v2.79h3.39v.91h-3.39v.37c.65.38,2.36,1.49,2.8,1.81l-.63.78c-.38-.37-1.41-1.16-2.17-1.73v1.91Zm4.46,2.51h-1.44a7.16,7.16,0,0,1-1.13,2.55,15.18,15.18,0,0,1,1.85,1.13l-.72.8a13.1,13.1,0,0,0-1.82-1.16,9.14,9.14,0,0,1-4,1.9,2.64,2.64,0,0,0-.51-.91,8,8,0,0,0,3.53-1.49c-.61-.3-1.23-.59-1.85-.85l-.32.58-.95-.35c.35-.6.79-1.38,1.2-2.2h-1.81v-.94h2.29c.26-.53.51-1.06.72-1.54l1.27.29c0,.11-.15.16-.35.14-.17.34-.34.72-.53,1.11h4.54ZM160.41,120a7.8,7.8,0,0,1,1.12,2.12l-.84.4a8.93,8.93,0,0,0-1.09-2.16Zm1.41,9.18c-.21.4-.41.8-.62,1.19.72.27,1.44.57,2.13.89a5.69,5.69,0,0,0,1-2.08Zm2.24-7a14.07,14.07,0,0,0,1.3-2.16l1.12.5c0,.11-.18.12-.32.11a17.35,17.35,0,0,1-1.36,1.93Zm9.72,1.42h-1.07a18.8,18.8,0,0,1-2,6.61,8.06,8.06,0,0,0,3.22,3.32,4.1,4.1,0,0,0-.77.93,9.07,9.07,0,0,1-3.11-3.22,10.12,10.12,0,0,1-3.9,3.22,4.24,4.24,0,0,0-.59-.92,8.9,8.9,0,0,0,3.93-3.37,21.23,21.23,0,0,1-1.52-4.64,10.56,10.56,0,0,1-1,1.93,4.21,4.21,0,0,0-.81-.69,19,19,0,0,0,2.41-7.2l1.36.29c0,.13-.14.19-.35.19-.16.85-.35,1.71-.57,2.55h4.83Zm-5.12,0,0,.16A21.82,21.82,0,0,0,170.1,129a18.89,18.89,0,0,0,1.52-5.43Z" style="fill:#666"/><path d="M175.52,129.69v-1.94h1.95v1.94Z" style="fill:#666"/><path d="M186.13,130.35V133H184v-2.65h-5v-1.11l5.34-7.13h1.72v6.71h2v1.53ZM184,124.9l-2.94,3.92H184Z" style="fill:#666"/><path d="M189.92,135.39l-.36-.54a2.09,2.09,0,0,0,1.1-1.85h-1.08v-2.18h2.18v1.86A2.75,2.75,0,0,1,189.92,135.39Z" style="fill:#666"/><path d="M193.21,133v-1.21l2.83-2.93c1-1.06,2-2.13,2-3.48a1.62,1.62,0,0,0-1.74-1.78,4.36,4.36,0,0,0-2.77,1.17V123a5.61,5.61,0,0,1,3.15-1.1c2,0,3.56,1.21,3.56,3.24a5.61,5.61,0,0,1-2.2,4.09l-2.21,2.09h4.64V133Z" style="fill:#666"/><path d="M206.27,133.31c-2.51,0-4.43-2.15-4.43-5.75s1.92-5.72,4.43-5.72,4.42,2.14,4.42,5.72S208.79,133.31,206.27,133.31Zm0-9.8c-1.41,0-2.25,1.39-2.25,4s.86,4.07,2.25,4.07,2.25-1.38,2.25-4.07S207.67,123.51,206.27,123.51Z" style="fill:#666"/><path d="M216.56,133.31c-2.5,0-4.43-2.15-4.43-5.75s1.93-5.72,4.43-5.72S221,124,221,127.56,219.08,133.31,216.56,133.31Zm0-9.8c-1.4,0-2.25,1.39-2.25,4s.87,4.07,2.25,4.07,2.25-1.38,2.25-4.07S218,123.51,216.56,123.51Z" style="fill:#666"/><path d="M222.75,135.39l-.36-.54a2.09,2.09,0,0,0,1.1-1.85h-1.08v-2.18h2.18v1.86A2.75,2.75,0,0,1,222.75,135.39Z" style="fill:#666"/><path d="M230.46,133.31c-2.5,0-4.43-2.15-4.43-5.75s1.93-5.72,4.43-5.72,4.43,2.14,4.43,5.72S233,133.31,230.46,133.31Zm0-9.8c-1.41,0-2.25,1.39-2.25,4s.86,4.07,2.25,4.07,2.25-1.38,2.25-4.07S231.86,123.51,230.46,123.51Z" style="fill:#666"/><path d="M240.75,133.31c-2.5,0-4.43-2.15-4.43-5.75s1.93-5.72,4.43-5.72,4.43,2.14,4.43,5.72S243.27,133.31,240.75,133.31Zm0-9.8c-1.4,0-2.25,1.39-2.25,4s.87,4.07,2.25,4.07,2.25-1.38,2.25-4.07S242.16,123.51,240.75,123.51Z" style="fill:#666"/><path d="M251.05,133.31c-2.5,0-4.43-2.15-4.43-5.75s1.93-5.72,4.43-5.72,4.43,2.14,4.43,5.72S253.57,133.31,251.05,133.31Zm0-9.8c-1.4,0-2.25,1.39-2.25,4s.86,4.07,2.25,4.07,2.25-1.38,2.25-4.07S252.45,123.51,251.05,123.51Z" style="fill:#666"/><path d="M258.93,125.14a19.19,19.19,0,0,1-1.95,2.67,7.18,7.18,0,0,0-.56-1,21.36,21.36,0,0,0,4-7.21l1.28.44c-.06.11-.17.16-.37.14a27.81,27.81,0,0,1-1.47,3.31l.43.11c0,.1-.11.18-.32.2v10.61h-1Zm12.82,2.63v1H267v5.57h-1.07v-5.57h-5v-1h5v-3.89H263a14.14,14.14,0,0,1-1.41,2.59,6.32,6.32,0,0,0-.88-.51,17.63,17.63,0,0,0,2.43-5.76l1.3.35c-.05.11-.16.17-.35.17-.19.71-.44,1.43-.69,2.13h2.48v-3.17l1.41.08c0,.13-.11.21-.34.23v2.86h4.2v1H267v3.89Z" style="fill:#666"/></svg>