<svg xmlns="http://www.w3.org/2000/svg" viewBox="0 0 97.33 97.33"><defs><style>.cls-1{fill:#00a7e1;}</style></defs><title>architecture_icon</title><g id="Layer_2" data-name="Layer 2"><g id="Layer_1-2" data-name="Layer 1"><path class="cls-1" d="M66.35,40.39a6.25,6.25,0,0,1-3.72,1.39h-.51A16,16,0,1,1,55.37,35v-.51a6.25,6.25,0,0,1,1.39-3.72,20.38,20.38,0,1,0,9.59,9.59Z"/><path class="cls-1" d="M58.42,44.24,55,47.69a7.16,7.16,0,1,1-5.51-5.5l3.45-3.45a11.57,11.57,0,1,0,5.51,5.51Z"/><path class="cls-1" d="M69.06,32.74,66.25,30.9,64.42,28.1c0-.71-.43-.88-.94-.38l-4.59,4.59A3.61,3.61,0,0,0,58,34.52v2.82l-9.21,9.21a2.76,2.76,0,1,0,1.83,1.84l9.21-9.21h2.82a3.61,3.61,0,0,0,2.21-.92l4.59-4.59C69.94,33.17,69.77,32.75,69.06,32.74Z"/><path class="cls-1" d="M48.67,97.33A48.67,48.67,0,1,1,97.33,48.67,48.72,48.72,0,0,1,48.67,97.33Zm0-92.21A43.54,43.54,0,1,0,92.21,48.67,43.59,43.59,0,0,0,48.67,5.12Z"/></g></g></svg>