<svg xmlns="http://www.w3.org/2000/svg" viewBox="0 0 94.38 96.61"><defs><style>.cls-1{fill:#00a7e1;}</style></defs><title>financial_icon</title><g id="Layer_2" data-name="Layer 2"><g id="Layer_1-2" data-name="Layer 1"><g id="financial_icon"><path class="cls-1" d="M39.69,37.07a.92.92,0,0,0,.31.5,10.63,10.63,0,0,0,6.37,2.68h0a7.58,7.58,0,0,0,5.33-2.37.92.92,0,0,0,.27-.74,17.27,17.27,0,0,1,1.85-9.9A.92.92,0,0,0,53,25.88h-.23a4.63,4.63,0,0,1-1.8-.34A1.49,1.49,0,0,1,50,24a.92.92,0,0,0-.61-.86L43.27,21a.92.92,0,0,0-1.21.74l-.5,3.49H38.08a.92.92,0,0,0-.89,1.13Z"/><path class="cls-1" d="M52.42,40.07a.92.92,0,0,0-1,.12,7.91,7.91,0,0,1-5.05,1.9h-.07a9.58,9.58,0,0,1-4.47-1.26.92.92,0,0,0-1,.05c-.91.56-12,7.62-10.78,17.37,1.29,10,5.29,13.32,15.88,13.32,5.95,0,12.51-.49,16.08-4.09C64,65.53,65,62.8,65,59.35A21,21,0,0,0,52.42,40.07ZM48.11,63.33v1.08a1,1,0,0,1-1.94,0v-1.1c-3.4-.32-4.95-2.11-4.95-3.48a1.3,1.3,0,0,1,1.39-1.32c1.56,0,1.41,1.92,3.56,2.41V57.16l-1.37-.34c-3-.74-3.53-2.33-3.53-3.83,0-2.79,2.39-4,4.9-4.23V47.68a1,1,0,1,1,1.94,0V48.8c2.27.32,4.53,1.58,4.53,3.18a1.36,1.36,0,0,1-1.51,1.26c-1.27,0-1.29-1.43-3-1.91v3.31l1.33.29c3,.66,3.78,2.39,3.78,4C53.22,61.3,51.52,63.08,48.11,63.33Z"/><path class="cls-1" d="M48.52,57.73l-.41-.1v3.32c1.18-.24,1.82-1,1.82-1.76C49.92,58.63,49.64,58,48.52,57.73Z"/><path class="cls-1" d="M44.44,52.82c0,.81.84,1.16,1.73,1.39v-3C45.05,51.39,44.44,52,44.44,52.82Z"/><path class="cls-1" d="M47.19,96.61C21.17,96.61,0,75,0,48.34S21.17,0,47.19,0,94.38,21.69,94.38,48.34,73.21,96.61,47.19,96.61Zm0-91.49C24,5.12,5.12,24.51,5.12,48.34S24,91.49,47.19,91.49,89.26,72.13,89.26,48.34,70.39,5.12,47.19,5.12Z"/></g></g></g></svg>