<svg width="480" height="709" id="de361418-106f-4399-abe0-afb211be4aa5" data-name="Layer 1" xmlns="http://www.w3.org/2000/svg" xmlns:xlink="http://www.w3.org/1999/xlink" viewBox="0 0 617 819.36"><defs><clipPath id="49b25b16-f1f3-4f87-8d7b-ec1b409663b5" transform="translate(-1 -1.92)"><path d="M308.24,241.54v-2.65a1.51,1.51,0,0,0,.89,1.23,4.69,4.69,0,0,0,4.21,0v2.65a4.63,4.63,0,0,1-4.22,0A1.48,1.48,0,0,1,308.24,241.54Z" style="fill:#9cb5cc"/></clipPath><clipPath id="c22c7d78-ab5e-4de6-ac90-1dcebc306d7e" transform="translate(-1 -1.92)"><path d="M359.12,230.5c0,.88,0,1.77,0,2.65a1.48,1.48,0,0,1-.87,1.21l0-2.65A1.5,1.5,0,0,0,359.12,230.5Z" style="fill:#9cb5cc"/></clipPath><clipPath id="607a50ec-208a-4a54-b521-3cba60023efe" transform="translate(-1 -1.92)"><path d="M198.45,308.62c0-.88,0-1.77,0-2.65a1.49,1.49,0,0,0,.88,1.22,4.63,4.63,0,0,0,4.21,0v2.65a4.65,4.65,0,0,1-4.21,0A1.48,1.48,0,0,1,198.45,308.62Z" style="fill:#9cb5cc"/></clipPath><clipPath id="b06029b1-ad3c-4ca3-8970-ebc806b8c6ac" transform="translate(-1 -1.92)"><path d="M249.26,297.59c0,.89,0,1.77,0,2.65a1.49,1.49,0,0,1-.87,1.22v-2.65A1.5,1.5,0,0,0,249.26,297.59Z" style="fill:#9cb5cc"/></clipPath><clipPath id="13409f5b-6693-4448-b9cb-1b337462d9da" transform="translate(-1 -1.92)"><path d="M357.93,324c0-.88,0-1.77,0-2.65a1.49,1.49,0,0,1-.88,1.23,4.63,4.63,0,0,1-4.22,0v2.65a4.63,4.63,0,0,0,4.22,0A1.5,1.5,0,0,0,357.93,324Z" style="fill:#9cb5cc"/></clipPath><clipPath id="978c11b0-56e7-443a-97dd-14ebabcbdc17" transform="translate(-1 -1.92)"><path d="M307,312.94c0,.88,0,1.77,0,2.65a1.48,1.48,0,0,0,.87,1.21v-2.65A1.52,1.52,0,0,1,307,312.94Z" style="fill:#9cb5cc"/></clipPath></defs><title>loyalty_block</title><g id="2b33981f-6ed6-4e79-83f2-5e6b6311b191" data-name="loyalty_block"><g id="92afc849-e534-4af3-80b3-f972aa3da83b" data-name="orange_brick" style="opacity:0.9"><g id="82f406eb-8e77-44fc-9308-ca4decb23bfc" data-name="purple_brick"><g id="4ff3043a-f574-41bc-aea9-86c19eb856a8" data-name="yellow_brick"><polygon points="309.53 817.47 616.38 639.32 616.38 285.11 616.29 283.02 309.53 105.91 1.47 283.64 0.92 283.97 0.92 639.32 307.76 816.48 309.53 817.47" style="fill:#b6e8fb"/><polygon points="309.46 818.61 0 641.55 0.92 283.97 309.21 463.19 309.46 818.61" style="fill:#fff;opacity:0.2"/><polygon points="617 639.23 309.46 819.36 309.46 463.01 616.75 283.06 617 639.23" style="fill:#fff;opacity:0.4"/></g></g></g><g id="d6fedce4-d6b2-4a51-a368-1ac3df24c5a4" data-name="loyalty_illustration"><g style="isolation:isolate"><polygon points="328.97 223.63 328.96 226.29 324.75 223.86 324.76 221.2 328.97 223.63" style="fill:#919191"/><polygon points="337.41 228.51 337.4 231.16 333.19 228.73 333.2 226.07 337.41 228.51" style="fill:#919191"/><polygon points="341.97 218.52 341.96 221.18 337.4 231.16 337.41 228.51 341.97 218.52" style="fill:#939393"/><polygon points="333.2 226.07 333.19 228.73 312.33 240.85 312.34 238.19 333.2 226.07" style="fill:#d1dce6"/><g style="isolation:isolate"><path d="M308.24,241.54v-2.65a1.51,1.51,0,0,0,.89,1.23,4.69,4.69,0,0,0,4.21,0v2.65a4.63,4.63,0,0,1-4.22,0A1.48,1.48,0,0,1,308.24,241.54Z" transform="translate(-1 -1.92)" style="fill:#9cb5cc"/><g style="clip-path:url(#49b25b16-f1f3-4f87-8d7b-ec1b409663b5)"><g style="isolation:isolate"><path d="M313.34,240.11v2.65l-.31.16v-2.66l.31-.15Z" transform="translate(-1 -1.92)" style="fill:#9e9e9e"/><path d="M313,240.27v2.66a4.6,4.6,0,0,1-1.35.33V240.6a4.55,4.55,0,0,0,1.35-.33Z" transform="translate(-1 -1.92)" style="fill:#a3a3a3"/><path d="M311.68,240.6v2.65a6,6,0,0,1-.7,0v-2.66a5.15,5.15,0,0,0,.7,0Z" transform="translate(-1 -1.92)" style="fill:#9e9e9e"/><path d="M311,240.61v2.66a3.79,3.79,0,0,1-.51-.05v-2.65l.51,0Z" transform="translate(-1 -1.92)" style="fill:#999"/><path d="M310.47,240.56v2.65l-.44-.09v-2.66a3.61,3.61,0,0,0,.44.1Z" transform="translate(-1 -1.92)" style="fill:#949494"/><path d="M310,240.46v2.66a3.29,3.29,0,0,1-.43-.14v-2.65a3.58,3.58,0,0,0,.42.12Z" transform="translate(-1 -1.92)" style="fill:#8f8f8f"/><path d="M309.6,240.34V243a3.26,3.26,0,0,1-.43-.19v-2.66a4,4,0,0,0,.43.2Z" transform="translate(-1 -1.92)" style="fill:#8a8a8a"/><path d="M309.17,240.14v2.66l0,0a1.48,1.48,0,0,1-.88-1.23v-2.65a1.51,1.51,0,0,0,.89,1.23l0,0Z" transform="translate(-1 -1.92)" style="fill:#858585"/></g></g></g><path d="M343,220.44l-4.56,10L334.19,228l-20.85,12.12a4.69,4.69,0,0,1-4.21,0,1.29,1.29,0,0,1,0-2.45L330,225.55l-4.22-2.44Z" transform="translate(-1 -1.92)" style="fill:#f8f9fc"/></g><g style="isolation:isolate"><g style="isolation:isolate"><path d="M359.12,230.5c0,.88,0,1.77,0,2.65a1.48,1.48,0,0,1-.87,1.21l0-2.65A1.5,1.5,0,0,0,359.12,230.5Z" transform="translate(-1 -1.92)" style="fill:#9cb5cc"/><g style="clip-path:url(#c22c7d78-ab5e-4de6-ac90-1dcebc306d7e)"><g style="isolation:isolate"><polygon points="358.13 228.58 358.12 231.23 358.12 231.23 358.13 228.58 358.13 228.58 358.13 228.58" style="fill:#858585"/><path d="M359.12,230.5v2.65a1.07,1.07,0,0,1-.05.33v-2.66a1.05,1.05,0,0,0,.05-.32Z" transform="translate(-1 -1.92)" style="fill:#8a8a8a"/><path d="M359.07,230.82v2.66a1.17,1.17,0,0,1-.13.27v-2.66a1,1,0,0,0,.13-.26Z" transform="translate(-1 -1.92)" style="fill:#8f8f8f"/><path d="M358.94,231.08v2.66a1.33,1.33,0,0,1-.2.24v-2.65a2,2,0,0,0,.2-.25Z" transform="translate(-1 -1.92)" style="fill:#949494"/><path d="M358.74,231.34V234a2.15,2.15,0,0,1-.28.25v-2.65c.11-.08.2-.16.29-.24Z" transform="translate(-1 -1.92)" style="fill:#999"/><path d="M358.46,231.58v2.65l-.21.13,0-2.65.19-.13Z" transform="translate(-1 -1.92)" style="fill:#9e9e9e"/></g></g></g><polygon points="357.27 229.79 357.25 232.44 336.4 244.57 336.4 241.91 357.27 229.79" style="fill:#d1dce6"/><polygon points="340.61 244.34 340.61 247 323.39 249.67 323.41 247.01 340.61 244.34" style="fill:#b2b2b2"/><path d="M358.25,229.26a1.3,1.3,0,0,1,0,2.45l-20.87,12.12,4.22,2.43-17.2,2.67L329,239l4.22,2.43L354,229.26A4.62,4.62,0,0,1,358.25,229.26Z" transform="translate(-1 -1.92)" style="fill:#f8f9fc"/></g><g style="isolation:isolate"><polygon points="219.16 290.74 219.15 293.39 214.93 290.96 214.94 288.31 219.16 290.74" style="fill:#919191"/><polygon points="227.58 295.6 227.57 298.26 223.36 295.83 223.36 293.18 227.58 295.6" style="fill:#919191"/><polygon points="232.13 285.64 232.12 288.29 227.57 298.26 227.58 295.6 232.13 285.64" style="fill:#939393"/><polygon points="223.36 293.18 223.36 295.83 202.55 307.93 202.55 305.27 223.36 293.18" style="fill:#d1dce6"/><g style="isolation:isolate"><path d="M198.45,308.62c0-.88,0-1.77,0-2.65a1.49,1.49,0,0,0,.88,1.22,4.63,4.63,0,0,0,4.21,0v2.65a4.65,4.65,0,0,1-4.21,0A1.48,1.48,0,0,1,198.45,308.62Z" transform="translate(-1 -1.92)" style="fill:#9cb5cc"/><g style="clip-path:url(#607a50ec-208a-4a54-b521-3cba60023efe)"><g style="isolation:isolate"><path d="M203.54,307.19v2.65a2.51,2.51,0,0,1-.32.15v-2.64l.31-.16Z" transform="translate(-1 -1.92)" style="fill:#9e9e9e"/><path d="M203.23,307.35V310a4.35,4.35,0,0,1-1.34.33v-2.65a4.41,4.41,0,0,0,1.35-.32Z" transform="translate(-1 -1.92)" style="fill:#a3a3a3"/><path d="M201.89,307.68v2.65a5.06,5.06,0,0,1-.7,0v-2.65a4.49,4.49,0,0,0,.7,0Z" transform="translate(-1 -1.92)" style="fill:#9e9e9e"/><path d="M201.18,307.69v2.65a4.48,4.48,0,0,1-.51-.05v-2.65a3.84,3.84,0,0,0,.51.05Z" transform="translate(-1 -1.92)" style="fill:#999"/><path d="M200.67,307.64v2.65l-.44-.09v-2.65l.44.09Z" transform="translate(-1 -1.92)" style="fill:#949494"/><path d="M200.23,307.55v2.65a2.79,2.79,0,0,1-.41-.13v-2.65l.41.13Z" transform="translate(-1 -1.92)" style="fill:#8f8f8f"/><path d="M199.81,307.42v2.65a2.41,2.41,0,0,1-.43-.2v-2.65a3.68,3.68,0,0,0,.43.2Z" transform="translate(-1 -1.92)" style="fill:#8a8a8a"/><path d="M199.38,307.22v2.65l0,0a1.48,1.48,0,0,1-.88-1.23V306a1.49,1.49,0,0,0,.88,1.22l0,0Z" transform="translate(-1 -1.92)" style="fill:#858585"/></g></g></g><path d="M233.12,287.56l-4.55,10-4.22-2.43-20.81,12.09a4.63,4.63,0,0,1-4.21,0,1.29,1.29,0,0,1,0-2.44l20.82-12.09-4.22-2.43Z" transform="translate(-1 -1.92)" style="fill:#f8f9fc"/></g><g style="isolation:isolate"><g style="isolation:isolate"><path d="M249.26,297.59c0,.89,0,1.77,0,2.65a1.49,1.49,0,0,1-.87,1.22v-2.65A1.5,1.5,0,0,0,249.26,297.59Z" transform="translate(-1 -1.92)" style="fill:#9cb5cc"/><g style="clip-path:url(#b06029b1-ad3c-4ca3-8970-ebc806b8c6ac)"><g style="isolation:isolate"><polygon points="248.27 295.67 248.26 298.32 248.26 298.33 248.27 295.68 248.27 295.67 248.27 295.67" style="fill:#858585"/><path d="M249.26,297.6v2.65a1,1,0,0,1-.06.32v-2.65a.82.82,0,0,0,.06-.32Z" transform="translate(-1 -1.92)" style="fill:#8a8a8a"/><path d="M249.2,297.92v2.65a.83.83,0,0,1-.13.26l0-2.65a1,1,0,0,0,.12-.26Z" transform="translate(-1 -1.92)" style="fill:#8f8f8f"/><path d="M249.08,298.18l0,2.65a1.53,1.53,0,0,1-.18.25v-2.65a2.14,2.14,0,0,0,.2-.25Z" transform="translate(-1 -1.92)" style="fill:#949494"/><path d="M248.88,298.44v2.65a2.34,2.34,0,0,1-.3.24v-2.65a2.26,2.26,0,0,0,.29-.24Z" transform="translate(-1 -1.92)" style="fill:#999"/><path d="M248.59,298.68v2.65l-.2.13v-2.65l.2-.13Z" transform="translate(-1 -1.92)" style="fill:#9e9e9e"/></g></g></g><polygon points="247.4 296.89 247.39 299.54 226.56 311.63 226.57 308.98 247.4 296.89" style="fill:#d1dce6"/><polygon points="230.78 311.42 230.77 314.07 213.59 316.74 213.59 314.08 230.78 311.42" style="fill:#b2b2b2"/><path d="M248.38,296.37c1.17.68,1.18,1.77,0,2.44L227.57,310.9l4.21,2.44L214.59,316l4.55-10,4.21,2.44,20.83-12.1A4.59,4.59,0,0,1,248.38,296.37Z" transform="translate(-1 -1.92)" style="fill:#f8f9fc"/></g><g style="isolation:isolate"><polygon points="335.2 306.08 335.21 308.73 339.42 306.3 339.41 303.64 335.2 306.08" style="fill:#919191"/><polygon points="326.77 310.95 326.77 313.61 330.98 311.18 330.98 308.51 326.77 310.95" style="fill:#919191"/><polygon points="322.2 300.97 322.21 303.62 326.77 313.61 326.77 310.95 322.2 300.97" style="fill:#939393"/><polygon points="330.98 308.51 330.98 311.18 351.83 323.29 351.83 320.64 330.98 308.51" style="fill:#d1dce6"/><g style="isolation:isolate"><path d="M357.93,324c0-.88,0-1.77,0-2.65a1.49,1.49,0,0,1-.88,1.23,4.63,4.63,0,0,1-4.22,0v2.65a4.63,4.63,0,0,0,4.22,0A1.5,1.5,0,0,0,357.93,324Z" transform="translate(-1 -1.92)" style="fill:#9cb5cc"/><g style="clip-path:url(#13409f5b-6693-4448-b9cb-1b337462d9da)"><g style="isolation:isolate"><path d="M352.83,322.56v2.65l.32.16v-2.66l-.31-.16Z" transform="translate(-1 -1.92)" style="fill:#9e9e9e"/><path d="M353.14,322.71v2.66a4.71,4.71,0,0,0,1.34.32V323a4.55,4.55,0,0,1-1.35-.33Z" transform="translate(-1 -1.92)" style="fill:#a3a3a3"/><path d="M354.49,323v2.65a4.56,4.56,0,0,0,.7,0v-2.66a5,5,0,0,1-.7,0Z" transform="translate(-1 -1.92)" style="fill:#9e9e9e"/><path d="M355.19,323.05v2.66l.52-.05V323a3.68,3.68,0,0,1-.51.06Z" transform="translate(-1 -1.92)" style="fill:#999"/><path d="M355.7,323v2.66l.44-.09v-2.65a3.48,3.48,0,0,1-.44.08Z" transform="translate(-1 -1.92)" style="fill:#949494"/><path d="M356.14,322.92v2.65a3.75,3.75,0,0,0,.41-.13v-2.65l-.41.13Z" transform="translate(-1 -1.92)" style="fill:#8f8f8f"/><path d="M356.56,322.78v2.65a2.69,2.69,0,0,0,.43-.19v-2.66a3.3,3.3,0,0,1-.44.2Z" transform="translate(-1 -1.92)" style="fill:#8a8a8a"/><path d="M357,322.58v2.66l0,0a1.5,1.5,0,0,0,.88-1.23v-2.65a1.49,1.49,0,0,1-.88,1.23l0,0Z" transform="translate(-1 -1.92)" style="fill:#858585"/></g></g></g><path d="M323.19,302.89l4.57,10,4.21-2.44,20.85,12.12a4.63,4.63,0,0,0,4.22,0,1.29,1.29,0,0,0,0-2.44L336.2,308l4.21-2.44Z" transform="translate(-1 -1.92)" style="fill:#f8f9fc"/></g><g style="isolation:isolate"><g style="isolation:isolate"><path d="M307,312.94c0,.88,0,1.77,0,2.65a1.48,1.48,0,0,0,.87,1.21v-2.65A1.52,1.52,0,0,1,307,312.94Z" transform="translate(-1 -1.92)" style="fill:#9cb5cc"/><g style="clip-path:url(#978c11b0-56e7-443a-97dd-14ebabcbdc17)"><g style="isolation:isolate"><polygon points="306.04 311.02 306.05 313.67 306.05 313.67 306.04 311.02 306.04 311.02 306.04 311.02" style="fill:#858585"/><path d="M307,312.94v2.65a1,1,0,0,0,.05.33v-2.65a1.46,1.46,0,0,1-.06-.33Z" transform="translate(-1 -1.92)" style="fill:#8a8a8a"/><path d="M307.1,313.27v2.65c0,.09.08.18.13.27v-2.66a1,1,0,0,1-.13-.26Z" transform="translate(-1 -1.92)" style="fill:#8f8f8f"/><path d="M307.23,313.53v2.66a1.91,1.91,0,0,0,.2.25v-2.66a1.12,1.12,0,0,1-.2-.25Z" transform="translate(-1 -1.92)" style="fill:#949494"/><path d="M307.43,313.78v2.66a2,2,0,0,0,.29.24V314a2.16,2.16,0,0,1-.28-.25Z" transform="translate(-1 -1.92)" style="fill:#999"/><path d="M307.71,314v2.65l.2.13v-2.65l-.2-.13Z" transform="translate(-1 -1.92)" style="fill:#9e9e9e"/></g></g></g><polygon points="306.91 312.23 306.92 314.89 327.77 327.01 327.77 324.35 306.91 312.23" style="fill:#d1dce6"/><polygon points="323.55 326.78 323.56 329.44 340.78 332.12 340.77 329.46 323.55 326.78" style="fill:#b2b2b2"/><path d="M307.92,311.71a1.29,1.29,0,0,0,0,2.44l20.86,12.11-4.22,2.44,17.21,2.67-4.56-10L333,323.83l-20.86-12.12A4.61,4.61,0,0,0,307.92,311.71Z" transform="translate(-1 -1.92)" style="fill:#f8f9fc"/></g><g style="isolation:isolate"><path d="M276.59,116.69l-8.84-5.14c-.25,1.08-.22,1.71.06,1.87l8.82,5.12c-.27-.15-.31-.78,0-1.86Z" transform="translate(-1 -1.92)" style="fill:#646469"/><g style="isolation:isolate"><g style="isolation:isolate"><path d="M327.46,28.15,318.64,23c1.24.73,2,2.26,2,4.46a15.17,15.17,0,0,1-6.9,11.93l8.82,5.13a15.21,15.21,0,0,0,6.9-11.94c0-2.19-.78-3.74-2-4.46Z" transform="translate(-1 -1.92)" style="fill:#9e7907"/></g></g><g style="isolation:isolate"><g style="isolation:isolate"><path d="M327.46,28.15,318.64,23c-1.26-.73-3-.63-4.91.48l8.83,5.13c1.91-1.11,3.65-1.21,4.91-.48Z" transform="translate(-1 -1.92)" style="fill:#9f9f9f"/></g></g><g style="isolation:isolate"><g style="isolation:isolate"><path d="M322.56,28.63l-8.83-5.13a15.22,15.22,0,0,0-6.91,12c0,2.17.78,3.69,2,4.42L317.66,45c-1.24-.72-2-2.26-2-4.42a15.18,15.18,0,0,1,6.91-12Z" transform="translate(-1 -1.92)" style="fill:#9f9f9f"/></g></g><polygon points="281.33 91.56 272.5 86.43 266.75 109.63 275.59 114.77 281.33 91.56" style="fill:#646469"/><g style="isolation:isolate"><g style="isolation:isolate"><path d="M306.22,40.41l-8.83-5.13c1.25.72,2,2.27,2,4.46a15.19,15.19,0,0,1-6.9,11.94l8.82,5.12a15.18,15.18,0,0,0,6.9-11.94c0-2.19-.78-3.74-2-4.45Z" transform="translate(-1 -1.92)" style="fill:#9e7907"/></g></g><g style="isolation:isolate"><g style="isolation:isolate"><path d="M306.22,40.41l-8.83-5.13c-1.26-.73-3-.63-4.91.49l8.81,5.12c1.91-1.1,3.66-1.2,4.92-.48Z" transform="translate(-1 -1.92)" style="fill:#9f9f9f"/></g></g><g style="isolation:isolate"><g style="isolation:isolate"><path d="M301.3,40.89l-8.81-5.12a15.22,15.22,0,0,0-6.9,12c0,2.18.78,3.7,2,4.43l8.84,5.12c-1.24-.72-2-2.25-2-4.43a15.23,15.23,0,0,1,6.88-12Z" transform="translate(-1 -1.92)" style="fill:#9f9f9f"/></g></g><path d="M301.3,40.89a15.23,15.23,0,0,0-6.88,12c0,4.38,3.12,6.16,6.93,4a15.18,15.18,0,0,0,6.9-11.94C308.23,40.46,305.12,38.69,301.3,40.89Z" transform="translate(-1 -1.92)" style="fill:#efefef"/><g style="isolation:isolate"><g style="isolation:isolate"><path d="M285,52.67l-8.83-5.12c1.25.72,2,2.26,2,4.45a15.22,15.22,0,0,1-6.88,11.94l8.81,5.12A15.17,15.17,0,0,0,287,57.13c0-2.2-.78-3.74-2-4.46Z" transform="translate(-1 -1.92)" style="fill:#9e7907"/></g></g><g style="isolation:isolate"><g style="isolation:isolate"><path d="M285,52.67l-8.83-5.12c-1.26-.73-2.71,15.06-4.63,16.17l8.55-10.56c1.91-1.1,3.65-1.21,4.91-.48Z" transform="translate(-1 -1.92)" style="fill:#9f9f9f"/></g></g><g style="isolation:isolate"><g style="isolation:isolate"><path d="M280.07,53.15l-8.55,10.56c-3.82,2.2-7.18-8.14-7.17-3.73,0,2.18.78,3.72,2,4.43l8.81,5.13c-1.24-.72-2-2.25-2-4.43a15.17,15.17,0,0,1,6.9-12Z" transform="translate(-1 -1.92)" style="fill:#9f9f9f"/></g></g><path d="M344.29,45.19c0,6.87-4.86,15.32-10.83,18.77l-23.92,13.8a6.55,6.55,0,0,1-.73,1.11L278.36,117.3a5.29,5.29,0,0,1-1.2,1.18c-.7.41-1-.21-.57-1.79l5.74-23.22-12.94,7.46c-6,3.45-10.87.66-10.9-6.2l.16-30.47c0-6.87,4.84-15.29,10.82-18.75l64.07-37c6-3.45,10.89-.67,10.9,6.19Z" transform="translate(-1 -1.92)" style="fill:#e9e9e9"/><path d="M341.27,7.79l-8.82-5.13c-2-1.15-4.73-1-7.74.74l8.83,5.12c3-1.73,5.76-1.89,7.73-.74Z" transform="translate(-1 -1.92)" style="fill:#8f9094"/><path d="M258.48,94.73l-8.82-5.12c0,3.4,1.23,5.82,3.18,7l8.83,5.12c-2-1.14-3.17-3.54-3.19-7Z" transform="translate(-1 -1.92)" style="fill:#646469"/><polygon points="257.65 62.34 248.81 57.22 248.67 87.69 257.49 92.81 257.65 62.34" style="fill:#646469"/><polygon points="332.54 6.6 323.72 1.48 259.65 38.47 268.47 43.6 332.54 6.6" style="fill:#8f9094"/><path d="M269.47,45.52l-8.82-5.13c-6,3.45-10.85,11.88-10.84,18.75l8.84,5.12c0-6.86,4.85-15.29,10.82-18.74Z" transform="translate(-1 -1.92)" style="fill:#8f9094"/></g><path d="M378.5,75.51c-1.6-.92-2.92-.17-2.93,1.67l-.16,59.88a6.4,6.4,0,0,0,2.91,5l94.36,54.49c1.61.92,2.93.18,2.93-1.65l.16-59.88a6.42,6.42,0,0,0-2.91-5Z" transform="translate(-1 -1.92)" style="fill:#00b6e8"/><path d="M308.24,181.3a.93.93,0,0,0,0,.21,1.56,1.56,0,0,0,0,.2,1.41,1.41,0,0,0,0,.19l.05.2s0,.11.08.16a1.23,1.23,0,0,0,.09.22l.09.15a1.47,1.47,0,0,0,.16.23l.12.14a3.53,3.53,0,0,0,.25.29l.15.13.18.16a1.35,1.35,0,0,0,.21.16,1.41,1.41,0,0,0,.22.15,4,4,0,0,0,.34.23l37.06,21.4v-2.23l8.18-4.76-11.81-6.87v-.88l-.77.44-16.07-9.32v-5.61l7.52-4.34,1.73,1v-2l2.52-1.45,5-2.89,8.71-5,2.17,1.26v-2.52L362,156l1.69,1V155l7.51-4.34,7.79,4.52v1.72l1.5-.86,7.78,4.52v1.71l1.49-.86,7.79,4.52v1.72l1.5-.87,7.78,4.53V173l1.5-.87,7.78,4.52v1.72l1.48-.86,7.8,4.52v1.71l1.48-.86,7.8,4.53v1.72l1.48-.86,7.79,4.52v1.72l1.47-.86,7.81,4.52,0,5.61-4.36,2.51,1.86,1.08v-2l7.52-4.34,7.78,4.52v5.61l-7.51,4.34-1.69-1v2l-7.51,4.34-1.69-1v1.95l-7.53,4.34-1.67-1v1.95l-7.52,4.34-1.72-1v2l-7.51,4.35-16.51-9.58V226.2l-1,.56L392,219.7v-1.29l-1.1.64-4.45-2.59,0,2.15-8.17,4.76,30.3,17.5a8.34,8.34,0,0,0,1,.45l.29.11c.22.07.45.14.68.2a5.51,5.51,0,0,0,.61.16c.29.06.59.12.89.15l.17,0a10.59,10.59,0,0,0,1.16.07h.18c.38,0,.76,0,1.13-.06l.19,0a10.62,10.62,0,0,0,1.08-.19l.21-.05c.34-.09.67-.18,1-.3l.11,0a7.83,7.83,0,0,0,1-.5L474.75,208a3.4,3.4,0,0,0,2-2.78c0,1.87,0,3.74,0,5.6a3.39,3.39,0,0,1-2,2.78L418.2,246.48a6.55,6.55,0,0,1-1,.49h0l-.12,0a4.73,4.73,0,0,1-.69.22,2.58,2.58,0,0,1-.29.07l-.22.06-.21,0c-.22,0-.45.09-.68.12l-.21,0-.16,0-.3,0-.67,0h-.36a2.7,2.7,0,0,1-.33,0,6.6,6.6,0,0,1-.76,0h-.06l-.17,0c-.21,0-.42,0-.63-.09l-.24-.06c-.21,0-.41-.09-.6-.14l-.38-.09-.31-.13-.27-.1a7.34,7.34,0,0,1-1-.45l-98.28-56.75-.22-.13-.11-.08-.23-.15-.21-.17-.17-.14s-.06,0-.08-.06a.49.49,0,0,1-.07-.09l-.26-.28-.06-.07s0,0,0-.06a2.86,2.86,0,0,1-.16-.24l-.07-.11s0,0,0,0l-.1-.23-.07-.11a.05.05,0,0,0,0,0l-.05-.22a.41.41,0,0,1,0-.14s0,0,0,0a.92.92,0,0,1,0-.21c0-.05,0-.1,0-.15v0C308.23,185,308.24,183.17,308.24,181.3Z" transform="translate(-1 -1.92)" style="fill:#d1dce6"/><path d="M310.22,178.52l56.54-32.85a10.69,10.69,0,0,1,9.69,0l98.28,56.74c2.67,1.55,2.69,4.06,0,5.61l-56.53,32.86a10.7,10.7,0,0,1-9.69,0l-98.28-56.74C307.58,182.59,307.56,180.05,310.22,178.52Z" transform="translate(-1 -1.92)" style="fill:#e9e9e9"/><polygon points="374.19 161.67 366.68 166.01 374.46 170.54 381.98 166.19 374.19 161.67" style="fill:#0c2f4b"/><polygon points="362.21 165.38 354.68 169.72 362.47 174.24 369.99 169.89 362.21 165.38" style="fill:#0c2f4b"/><polygon points="351.35 159.65 342.64 164.69 337.64 167.57 335.13 169.03 348.27 176.66 355.79 172.31 351.75 169.97 360.46 164.93 351.35 159.65" style="fill:#0c2f4b"/><polygon points="370.96 170.46 363.44 174.8 371.23 179.33 378.75 174.98 370.96 170.46" style="fill:#0c2f4b"/><polygon points="333.38 170.03 325.87 174.38 341.93 183.7 349.46 179.35 333.38 170.03" style="fill:#0c2f4b"/><polygon points="350.22 179.79 342.7 184.14 354.87 191.2 362.39 186.86 350.22 179.79" style="fill:#0c2f4b"/><polygon points="374.22 183.01 366.71 187.35 374.48 191.88 382.01 187.53 374.22 183.01" style="fill:#0c2f4b"/><polygon points="370.25 148.72 362.74 153.07 370.52 157.59 378.04 153.24 370.25 148.72" style="fill:#0c2f4b"/><polygon points="379.53 154.11 372.01 158.45 379.79 162.97 387.31 158.63 379.53 154.11" style="fill:#0c2f4b"/><polygon points="361.05 154.04 353.53 158.39 365.6 165.39 373.12 161.05 361.05 154.04" style="fill:#0c2f4b"/><polygon points="388.8 159.48 381.28 163.83 389.07 168.35 396.59 164 388.8 159.48" style="fill:#0c2f4b"/><polygon points="398.08 164.86 390.55 169.22 398.34 173.73 405.86 169.39 398.08 164.86" style="fill:#0c2f4b"/><polygon points="383.06 166.81 375.54 171.16 383.33 175.67 390.84 171.33 383.06 166.81" style="fill:#0c2f4b"/><polygon points="407.35 170.25 399.83 174.6 407.62 179.11 415.13 174.77 407.35 170.25" style="fill:#0c2f4b"/><polygon points="391.93 171.96 384.4 176.31 392.19 180.83 399.71 176.48 391.93 171.96" style="fill:#0c2f4b"/><polygon points="356.79 172.89 349.27 177.24 357.06 181.76 364.58 177.41 356.79 172.89" style="fill:#0c2f4b"/><polygon points="416.61 175.63 409.1 179.98 416.89 184.5 424.41 180.15 416.61 175.63" style="fill:#0c2f4b"/><polygon points="379.73 175.55 372.22 179.88 379.99 184.41 387.52 180.07 379.73 175.55" style="fill:#0c2f4b"/><polygon points="400.79 177.11 393.27 181.45 401.06 185.97 408.57 181.63 400.79 177.11" style="fill:#0c2f4b"/><polygon points="365.55 177.98 358.04 182.33 365.82 186.85 373.36 182.51 365.55 177.98" style="fill:#0c2f4b"/><polygon points="388.49 180.63 380.96 184.97 388.75 189.49 396.28 185.15 388.49 180.63" style="fill:#0c2f4b"/><polygon points="425.89 181.01 418.37 185.36 426.16 189.88 433.69 185.53 425.89 181.01" style="fill:#0c2f4b"/><polygon points="409.64 182.25 402.13 186.59 409.91 191.12 417.44 186.77 409.64 182.25" style="fill:#0c2f4b"/><polygon points="397.24 185.71 389.73 190.06 397.52 194.59 405.04 190.25 397.24 185.71" style="fill:#0c2f4b"/><polygon points="435.16 186.4 427.65 190.74 435.43 195.26 442.95 190.91 435.16 186.4" style="fill:#0c2f4b"/><polygon points="418.52 187.4 411 191.74 418.79 196.25 426.3 191.92 418.52 187.4" style="fill:#0c2f4b"/><polygon points="383.26 188.27 375.75 192.61 383.55 197.13 391.06 192.79 383.26 188.27" style="fill:#0c2f4b"/><polygon points="406.01 190.79 398.49 195.15 406.27 199.66 413.8 195.33 406.01 190.79" style="fill:#0c2f4b"/><polygon points="444.42 191.78 436.91 196.12 444.7 200.64 452.23 196.29 444.42 191.78" style="fill:#0c2f4b"/><polygon points="427.38 192.53 419.86 196.89 427.65 201.41 435.18 197.06 427.38 192.53" style="fill:#0c2f4b"/><polygon points="391.94 193.29 384.41 197.64 392.21 202.16 399.73 197.81 391.94 193.29" style="fill:#0c2f4b"/><polygon points="414.77 195.88 407.25 200.23 415.05 204.75 422.57 200.41 414.77 195.88" style="fill:#0c2f4b"/><polygon points="400.7 198.38 393.18 202.73 400.97 207.24 408.49 202.9 400.7 198.38" style="fill:#0c2f4b"/><polygon points="457.23 199.2 449.71 203.54 457.51 208.07 465.01 203.72 457.23 199.2" style="fill:#0c2f4b"/><polygon points="423.53 200.97 416.01 205.32 423.8 209.83 431.32 205.49 423.53 200.97" style="fill:#0c2f4b"/><polygon points="363.19 187.33 355.67 191.67 389.88 211.53 397.4 207.18 363.19 187.33" style="fill:#0c2f4b"/><polygon points="409.36 203.41 401.85 207.75 409.64 212.28 417.15 207.94 409.36 203.41" style="fill:#0c2f4b"/><polygon points="436.63 197.91 429.12 202.26 448.3 213.39 455.81 209.05 436.63 197.91" style="fill:#0c2f4b"/><polygon points="357.4 194.93 346.33 201.37 374.34 217.54 385.43 211.09 357.4 194.93" style="fill:#0c2f4b"/><polygon points="432.33 206.07 424.81 210.43 439.09 218.71 446.62 214.37 432.33 206.07" style="fill:#0c2f4b"/><polygon points="398.51 207.83 390.99 212.17 403.16 219.24 410.68 214.88 398.51 207.83" style="fill:#0c2f4b"/><polygon points="418.22 208.55 410.71 212.9 429.89 224.03 437.41 219.69 418.22 208.55" style="fill:#0c2f4b"/><polygon points="411.65 215.45 404.14 219.79 420.63 229.38 428.15 225.03 411.65 215.45" style="fill:#0c2f4b"/><path d="M373.63,68.76l.17-.1,1.39-.81,1.38-.8a3.42,3.42,0,0,1,3.46.33l98.28,56.74a10.72,10.72,0,0,1,4.85,8.38L483,197.9a3.37,3.37,0,0,1-1.42,3.1c-1.16.68-2.31,1.36-3.46,2a3.38,3.38,0,0,0,1.42-3.11l.19-65.38a10.71,10.71,0,0,0-4.85-8.39L376.56,69.4a3.4,3.4,0,0,0-3.45-.33Z" transform="translate(-1 -1.92)" style="fill:#d1dce6"/><path d="M474.84,126.14a10.71,10.71,0,0,1,4.85,8.39l-.19,65.38c0,3.08-2.19,4.33-4.87,2.79l-98.28-56.75a10.71,10.71,0,0,1-4.85-8.39l.18-65.38c0-3.08,2.2-4.31,4.88-2.77Zm-99.43,10.92a6.4,6.4,0,0,0,2.91,5l94.36,54.49c1.61.92,2.93.18,2.93-1.65l.16-59.88a6.42,6.42,0,0,0-2.91-5L378.5,75.51c-1.6-.92-2.92-.17-2.93,1.67l-.16,59.88Z" transform="translate(-1 -1.92)" style="fill:#e9e9e9"/><path d="M510.61,359.74l-2.34,1.35c0-2.19,0-4.37,0-6.57h0a1.67,1.67,0,0,0-1-1.38l-87-50.25a5.4,5.4,0,0,0-4.76,0L320.74,358a1.67,1.67,0,0,0-1,1.37c0,2.92,0,5.85,0,8.77a1.67,1.67,0,0,0,1,1.38l28.7,16.57a2,2,0,0,0-.36,1.1v4.06l-38.31-22.12c-2.65-1.53-4-3.54-4-5.56q0,4.38,0,8.76c0,2,1.32,4,4,5.57l82.59,47.68c5.26,3,10.51,5,15.73,1.93l101.55-59c2.6-1.51,3.9-3.49,3.9-5.49,0-2.91,0-5.83,0-8.76C514.51,356.24,513.21,358.22,510.61,359.74Z" transform="translate(-1 -1.92)" style="fill:#d1dce6"/><path d="M365.75,389.43c2.08,1.19,2.11,3.13,0,4.33a8.28,8.28,0,0,1-7.5,0l-7.67-4.42c-2.07-1.2-2.08-3.15,0-4.35a8.26,8.26,0,0,1,7.49,0Z" transform="translate(-1 -1.92)" style="fill:#9cb5cc"/><path d="M320.76,360.74l3.28,1.88.15.1,1.17.67,2.14,1.25.73.42,10.44,6,13,7.53h0l18.18,10.49,3.08,1.78,2.68,1.54,2.5,1.44h0l15.5,9,4.08,2.33h0l2.65,1.54h0l1,.59h0l6.29,3.65a5.22,5.22,0,0,0,4.76,0l7.93-4.6,6-3.48,5.81-3.37.77-.44,3.3-1.91L445.1,392l7-4,3.74-2.18,2-1.14,5.95-3.46,8.16-4.76.9-.5,2-1.15,3.93-2.3,4.8-2.78,1.18-.69,2.54-1.47,2-1.16,2.21-1.29.92-.52,7.24-4.21,3.9-2.27.39-.23.34-.19.07,0,3.05-1.77a1.47,1.47,0,0,0,0-2.77l-20.52-11.85-.41-.25-.43-.24-13.16-7.59-3.28-1.89-15.88-9.19h0l-1.32-.77-10.82-6.24-1.69-1v0l-18.33-10.58-.62-.37-.52-.29a2.91,2.91,0,0,0-.52-.25,5.36,5.36,0,0,0-1.93-.31,4.87,4.87,0,0,0-2.32.56l-9.72,5.65L399.86,312l-3.59,2.11h0L393,316l-4.38,2.53-.78.46-11.25,6.53-1.39.81-12.07,7-1,.6-1.9,1.12h0l-2.09,1.2-.37.22-1.05.61-2.23,1.31-12.2,7.07-4.61,2.69-9.55,5.55-4,2.33-1,.59L320.74,358A1.48,1.48,0,0,0,320.76,360.74Z" transform="translate(-1 -1.92)" style="fill:#00b6e8"/><path d="M510.56,348.68,428,301c-5.27-3-13.85-3-19.08,0l-98.2,57.07c-5.23,3-5.2,8,.06,11l82.6,47.69c5.26,3,10.51,5,15.72,1.94l101.55-59C515.84,356.69,515.81,351.72,510.56,348.68ZM365.79,393.76a8.28,8.28,0,0,1-7.5,0l-7.67-4.42c-2.07-1.2-2.08-3.15,0-4.35a8.26,8.26,0,0,1,7.49,0l7.66,4.41c2.08,1.2,2.11,3.14,0,4.35Zm141.53-37.87L412.54,411a5.37,5.37,0,0,1-4.78,0l-87-50.23a1.48,1.48,0,0,1,0-2.77l94.8-55.09a5.4,5.4,0,0,1,4.76,0l87,50.25a1.47,1.47,0,0,1,0,2.76Z" transform="translate(-1 -1.92)" style="fill:#fff"/><path d="M237.83,349.55c0,1.35-.86,2.69-2.59,3.73l-17.89,10.57v-4.19a2.46,2.46,0,0,0-1.27-2l6.24-3.7a1.78,1.78,0,0,0,1-1.48l0-8.62a1.83,1.83,0,0,0-1-1.47l-69.47-41.35a5.35,5.35,0,0,0-5,0l-16.5,9.76c0-1.25,0-2.47,0-3.54a1,1,0,0,0-.56-.82,3,3,0,0,0-2.75,0l-11.8,7a1,1,0,0,0-.59.83v5.84L107,325.2a1.79,1.79,0,0,0-1,1.49l0,5.15-7.32-4.35a4.51,4.51,0,0,1-2.55-3.67q0,4.31,0,8.61a4.44,4.44,0,0,0,2.55,3.67l83.56,49.75a13.45,13.45,0,0,0,12.46,0l40.53-24c1.73-1,2.58-2.37,2.58-3.73C237.84,355.29,237.84,352.42,237.83,349.55Z" transform="translate(-1 -1.92)" style="fill:#d1dce6"/><path d="M222.3,342.42l-69.47-41.35a5.35,5.35,0,0,0-5,0L107,325.2c-1.38.81-1.38,2.14,0,2.94l69.48,41.36a5.41,5.41,0,0,0,5,0l40.81-24.14A1.58,1.58,0,0,0,222.3,342.42Z" transform="translate(-1 -1.92)" style="fill:#00b6e8"/><path d="M208.67,357.55a7.7,7.7,0,0,1,7.19,0c2,1.18,2,3.08,0,4.27l-7.34,4.34a7.78,7.78,0,0,1-7.19,0c-2-1.18-2-3.1,0-4.27Z" transform="translate(-1 -1.92)" style="fill:#9cb5cc"/><path d="M139.26,296.13a13.45,13.45,0,0,1,12.45,0l83.58,49.75c3.42,2,3.4,5.36,0,7.4l-40.53,24a13.45,13.45,0,0,1-12.45,0L98.7,327.49c-3.42-2-3.4-5.36,0-7.39Zm83,46.29-69.47-41.35a5.35,5.35,0,0,0-5,0L107,325.2c-1.38.81-1.38,2.14,0,2.94l69.48,41.36a5.41,5.41,0,0,0,5,0l40.81-24.14a1.58,1.58,0,0,0,0-3Zm-6.48,19.4c2-1.18,2-3.09,0-4.27a7.7,7.7,0,0,0-7.19,0l-7.35,4.35c-2,1.17-2,3.08,0,4.27a7.78,7.78,0,0,0,7.19,0l7.34-4.34Zm-99.61-48.37a.88.88,0,0,0,0,1.65,3,3,0,0,0,2.76,0l11.8-7a.87.87,0,0,0,0-1.64,3,3,0,0,0-2.75,0l-11.8,7Z" transform="translate(-1 -1.92)" style="fill:#f8f9fc"/><path d="M128,306.46a3,3,0,0,1,2.75,0,.87.87,0,0,1,0,1.64l-11.8,7a3,3,0,0,1-2.76,0,.88.88,0,0,1,0-1.65Z" transform="translate(-1 -1.92)" style="fill:#9cb5cc"/><path d="M286.31,127.33c2.22.27,5.14-.6,5.8-1.63a26.09,26.09,0,0,0-1.42-4.18c-1-2.44-2.58-5-4.4-5.75-3.89-1.55-4.73,0-5.14,1.77C280.54,120.21,284.65,124.71,286.31,127.33Z" transform="translate(-1 -1.92)" style="fill:#e9c2b0"/><path d="M280.47,256.44a6.35,6.35,0,0,1-6.61,6.06h0a6.34,6.34,0,0,1-6.06-6.61l-2-34.84c.15-3.49,6.64-5.35,10.14-5.2h0a6.34,6.34,0,0,1,6.05,6.61Z" transform="translate(-1 -1.92)" style="fill:#e9c2b0"/><path d="M236.64,263.93c-2.75.61-5.55,1.42-6.79,1.71l-.51-1.23c2.64-.8,4.9-1.25,6.93-1.81Z" transform="translate(-1 -1.92)" style="fill:#002f58"/><path d="M275.08,262.44a13.41,13.41,0,0,0,.72-1.35c1.27-2.77,2-5.5.41-8.26a13,13,0,0,0-1.76-2.52c-2.35.38-4.35,1.86-6.52,2.72-8.09,3.19-16.4,5.61-24.35,9.13l-7.42.51-8.88,5.8,2.15,7.27c-.19-.63,13.08-6.61,14.44-7.21,3.66-1.61,7-2,10.91-2.65l15.06-2.47C271.63,263.12,273.38,262.89,275.08,262.44Z" transform="translate(-1 -1.92)" style="fill:#e9c2b0"/><path d="M229.44,275.74l-1.91.57L226,271a2.41,2.41,0,0,1,1.07-2.76l6.94-4.18,2.18-1.43,2.3-.16s-9.1,7.24-9,7.68,1.38,4.18,1.38,4.18l1.51-.31Z" transform="translate(-1 -1.92)" style="fill:#002f58"/><path d="M284.17,294.58c-.23,2.81-.31,5.72-.4,7l-1.32.12c0-2.75.27-5.06.36-7.15Z" transform="translate(-1 -1.92)" style="fill:#002f58"/><path d="M283.55,244.74q-.32,3.22-.63,6.45c-.33,3.42-1.15,6.88-.91,10.29.62,8.67,1.59,17.32,2.55,26l-1.73,7.23,2.88,10.21,7.58.12c-.67,0-2.39-14.46-2.56-15.94-.44-4,.18-7.29.74-11.2q1.08-7.56,2.16-15.11a33.22,33.22,0,0,0,.62-7.18,27.15,27.15,0,0,1,0-3.39c.05-.95.71-2.81.41-3.68-.45-1.29-2.66-1.41-3.9-1.77Z" transform="translate(-1 -1.92)" style="fill:#e9c2b0"/><path d="M293.28,305l0,2-5.49-.1a2.42,2.42,0,0,1-2.32-1.85l-1.9-7.88-.71-2.5.54-2.25s4.17,10.85,4.63,10.86,4.41-.06,4.41-.06l.15-1.54Z" transform="translate(-1 -1.92)" style="fill:#002f58"/><path d="M273.13,157.12c-.34-.75-.71-1.51-1.11-2.27-10.08-15.21,3.18-20.08,3.19-20.14a1.87,1.87,0,0,0-.82-1.89,7,7,0,0,0-1.53-.89,5.79,5.79,0,0,0-3.85-1.43c-3.63-.06-9.26,2-10,18.71-.15,3.37-1.47,11.61.23,16.39a3.52,3.52,0,0,0,2.92,2h1c4.6-1.76,11.23-3.91,10.32-8.12A19.06,19.06,0,0,1,273.13,157.12Z" transform="translate(-1 -1.92)" style="fill:#27242e"/><path d="M308.24,154a5.18,5.18,0,0,0-2.47-6.86h0a5.1,5.1,0,0,0-6.82,2.42L282,168.81a5.18,5.18,0,0,0,2.47,6.86h0c2.57,1.23,7,3.5,8.17.94Z" transform="translate(-1 -1.92)" style="fill:#00a7e1"/><path d="M289,141.65s0,0,0,0l-.06.07s0,0,0,0S288.91,141.67,289,141.65Z" transform="translate(-1 -1.92)" style="fill:#ed0047"/><path d="M297,250.14c10.18-5-5.1-45.46-5.1-45.46L280,207.52c-5.33-.82-8.29-5.13-11.69-2.83-4.72,3.18-6.16,13.37-6.72,17.55-1.21,9.09-3.7,24.81,2.72,27.55C273.23,253.59,289.93,253.58,297,250.14Z" transform="translate(-1 -1.92)" style="fill:#8f9094"/><path d="M271.37,167.68c0-4.66,4.32-7.47,9-7.47,2.05,0,4-.14,5.55,1,2,1.51,3.78,3.26,3.78,5.87,0,4.66-.68,25.93-5.35,25.93S271.37,172.33,271.37,167.68Z" transform="translate(-1 -1.92)" style="fill:#e9c2b0"/><path d="M272.13,165.73c.65-1,5.9.84,10.57.84s5-7.21,5-2.54,1.28,29-3.4,29S269.61,169.65,272.13,165.73Z" transform="translate(-1 -1.92)" style="fill:#dcdcdc"/><path d="M291.88,204.75c.28.86-5.66,2.81-7.27,3.14-6.27,1.26-11.46-.25-17-2.47a21.26,21.26,0,0,0,1-8.63c-.24-6.65-1-19.65-4.35-25.2,1.85-2.83,2.67-6.76,10.38-9.8,0,0,1.42,10.9,8,9.45s3.19-10,3.19-10c2.33,0,2.43.38,2.48.38,3.78,8.8,5.37,14.07,3.53,20.78C291.14,185.23,289.74,198.14,291.88,204.75Z" transform="translate(-1 -1.92)" style="fill:#002f58"/><path d="M291,201a33.38,33.38,0,0,1-6,2.54,21.84,21.84,0,0,1-5.9,1.17,37.54,37.54,0,0,1-6-.57c-1.87-.23-3.73-.43-5.59-.75.09.89.18,1.79.24,2.69,5.62,1.92,10.88,3.16,17.08,1.57,1.59-.42,7.42-2.68,7.1-3.52A19.69,19.69,0,0,1,291,201Z" transform="translate(-1 -1.92)" style="fill:#00a7e1"/><path d="M282.51,165.57a7.48,7.48,0,0,1-3.91-.28,5.91,5.91,0,0,1-3.07-2.35l-.09-6.46,8,.74.31,6C283.45,164.28,283.72,165.24,282.51,165.57Z" transform="translate(-1 -1.92)" style="fill:#e9c2b0"/><path d="M271.22,154.31c5,4.91,7.08,2.59,12.11-.7s6.88-11.66,6.56-13.45c-1.34-7.37-11.55-10.06-17.56-6.66C263.59,138.45,266.32,149.53,271.22,154.31Z" transform="translate(-1 -1.92)" style="fill:#2c2934"/><path d="M272.91,148a25.28,25.28,0,0,0,1.16,7.75c1.73,4.79,9.93,6.39,11.4,4.87,1.83-1.9,4.39-9.39,4.39-16.06s-3.62-5.81-8.76-6.55C277.9,137.54,273.08,141.21,272.91,148Z" transform="translate(-1 -1.92)" style="fill:#e9c2b0"/><path d="M274,150.13c.72,1.13.63,2.47-.22,3s-2.11.07-2.83-1.06a1.89,1.89,0,1,1,3-1.95Z" transform="translate(-1 -1.92)" style="fill:#e9c2b0"/><path d="M287.11,135.19c-2.49-1.86-5.41-.11-8,.32a10.08,10.08,0,0,0-7.74,6.49.66.66,0,0,0,.62.91c-.11,2-1.61,5.49-.74,7,.12.21,1.89-.89,2.07-1.05,1.65-1.6,3.89-1.45,6-1.42a.38.38,0,0,0,.37-.28c.17-.81.13-3.69.53-1.83a3.16,3.16,0,0,0,.87,1.52.38.38,0,0,0,.46.06c2.74-1.43,9.8-2.4,9.8-2.4S291.22,138.27,287.11,135.19Z" transform="translate(-1 -1.92)" style="fill:#2c2934"/><path d="M252.68,145.57a5.39,5.39,0,0,0-7.6-.47h0a5.37,5.37,0,0,0-.45,7.59l21.79,27.63c2,2.23,5.44-.52,7.66-2.49h0a5.38,5.38,0,0,0,.45-7.6Z" transform="translate(-1 -1.92)" style="fill:#00a7e1"/><path d="M306.75,155.36a5.12,5.12,0,0,0,1.82-7l-17-24.53a7.11,7.11,0,0,1-5.24,3.54l13.34,26.23A5.19,5.19,0,0,0,306.75,155.36Z" transform="translate(-1 -1.92)" style="fill:#00a7e1"/><path d="M262.08,127.87c-2.25.48-5.48.38-6.26-.62a27.85,27.85,0,0,1,1.07-4.43c.85-2.6,2.18-5.41,4-6.32,3.85-1.94,4.87-.41,5.45,1.38C267.21,120.58,263.14,124.29,262.08,127.87Z" transform="translate(-1 -1.92)" style="fill:#e9c2b0"/><path d="M246.33,153.6a5.33,5.33,0,0,1-2.53-7.1l12.56-21.79,5.73,3.16-8.63,23.26A5.32,5.32,0,0,1,246.33,153.6Z" transform="translate(-1 -1.92)" style="fill:#00a7e1"/><polygon points="270.26 60.53 272.48 65.02 277.43 63.09 273.84 69.64 274.69 75.49 270.26 75.06 265.83 80.61 266.68 73.78 263.1 71.36 268.05 67.58 270.26 60.53" style="fill:#95d669"/><polygon points="285.44 51.77 287.66 56.26 292.61 54.32 289.03 60.88 289.87 66.73 285.44 66.29 281.02 71.84 281.86 65.01 278.28 62.59 283.23 58.81 285.44 51.77" style="fill:#95d669"/><polygon points="300.63 43 302.84 47.49 307.79 45.55 304.21 52.11 305.06 57.96 300.63 57.52 296.2 63.07 297.05 56.25 293.46 53.83 298.42 50.05 300.63 43" style="fill:#95d669"/><polygon points="315.81 34.23 318.03 38.72 322.98 36.79 319.39 43.34 320.24 49.2 315.81 48.76 311.38 54.31 312.23 47.48 308.65 45.06 313.6 41.28 315.81 34.23" style="fill:#95d669"/><polygon points="331 25.47 333.21 29.96 338.16 28.02 334.58 34.58 335.42 40.43 331 39.99 326.57 45.54 327.41 38.72 323.83 36.3 328.78 32.51 331 25.47" style="fill:#95d669"/><polyline points="459.64 338.61 461.07 333.26 379.52 380.34 356.39 366.98 354.96 372.33" style="fill:#84235d"/><polygon points="436.68 325.5 355.13 372.58 378.27 385.94 459.81 338.86 436.68 325.5" style="fill:#84235d"/><polygon points="379 380.75 460.54 333.67 437.4 320.31 355.86 367.39 379 380.75" style="fill:#b03478"/><path d="M391.71,365.52a5.43,5.43,0,0,0,.62.32,3.84,3.84,0,0,0,1,.14,2.84,2.84,0,0,0,1.58-.45,2.14,2.14,0,0,0,.71-.61.69.69,0,0,0,.15-.6.81.81,0,0,0-.37-.45l-.39-.24-1-.56a5.58,5.58,0,0,0-.65-.33,2,2,0,0,0-.73-.09,5.46,5.46,0,0,0-1.14.16q-.66.15-2.17.6a10.66,10.66,0,0,1-3.09.44,5.82,5.82,0,0,1-2.94-.8l-.61-.35a2.19,2.19,0,0,1-1.33-2,2.78,2.78,0,0,1,1.67-2.13,7.77,7.77,0,0,1,3.73-1,6.55,6.55,0,0,1,3.53.77l.61.35-2.25,1.3-.61-.35a3.34,3.34,0,0,0-.54-.26,4,4,0,0,0-1-.12,2.75,2.75,0,0,0-1.5.42c-.46.26-.69.56-.7.89s.19.62.62.86l.61.35a4.48,4.48,0,0,0,.6.3,2,2,0,0,0,.65.09,4.09,4.09,0,0,0,1-.13q.57-.14,2.07-.59a12,12,0,0,1,3.19-.49,5.78,5.78,0,0,1,3.08.77l1.11.64a4.53,4.53,0,0,1,1,.78,2.43,2.43,0,0,1,.47,1.38q.11,1-1.86,2.13a7.17,7.17,0,0,1-4.11,1,7.58,7.58,0,0,1-3.29-.83l-.49-.28,2.25-1.3Z" transform="translate(-1 -1.92)" style="fill:#fff"/><path d="M402.65,363.15l-13.71-7.91,2.25-1.3,5.86,3.38,2.84-1.64L394,352.3l2.25-1.3L410,358.92l-2.25,1.3-6.13-3.54-2.84,1.64,6.13,3.54Z" transform="translate(-1 -1.92)" style="fill:#fff"/><path d="M411.24,358.19l-10.41-9.82,2.19-1.26L420.25,353l-2.42,1.4-3.59-1.34-2.92,1.68,2.32,2.07Zm-1.37-4.72,2.13-1.23-5.94-2.2Z" transform="translate(-1 -1.92)" style="fill:#fff"/><path d="M421.38,352.33l-13.71-7.91,4-2.28a7.54,7.54,0,0,1,3.57-1,6.21,6.21,0,0,1,3.37.71l1.27.74q1.89,1.09,1.05,2.73l8.67,2.25L427.19,349l-8-2.16-1.42.82,5.88,3.39Zm-3-7.53a.71.71,0,0,0-.22-.47,2.44,2.44,0,0,0-.56-.42l-1.28-.74a2.76,2.76,0,0,0-1.43-.36,3.05,3.05,0,0,0-1.53.43l-1.61.93,4.28,2.47,1.58-.92A1.26,1.26,0,0,0,418.37,344.8Z" transform="translate(-1 -1.92)" style="fill:#fff"/><path d="M436,341.67l1.95,1.12-6.74,3.89-13.71-7.91,6.74-3.89,1.8,1-4.49,2.59,4.06,2.34,4-2.28,1.84,1.06-4,2.28,4.06,2.34Z" transform="translate(-1 -1.92)" style="fill:#fff"/><polyline points="184.79 324.07 185.46 321.56 147.13 343.69 136.26 337.41 135.59 339.92" style="fill:#6810ba"/><polygon points="174 317.92 135.67 340.04 146.54 346.32 184.87 324.19 174 317.92" style="fill:#84235d"/><polygon points="146.89 343.88 185.22 321.75 174.34 315.47 136.01 337.6 146.89 343.88" style="fill:#b03478"/><path d="M153.42,337.74l.29.15a1.75,1.75,0,0,0,.45.07,1.33,1.33,0,0,0,.74-.21,1,1,0,0,0,.33-.29.32.32,0,0,0,.07-.28.39.39,0,0,0-.17-.21l-.18-.11-.45-.26-.3-.16a.91.91,0,0,0-.34,0,2.73,2.73,0,0,0-.54.07l-1,.29a5,5,0,0,1-1.45.21,2.74,2.74,0,0,1-1.38-.37l-.29-.17a1,1,0,0,1-.62-.94,1.3,1.3,0,0,1,.78-1,3.66,3.66,0,0,1,1.75-.47,3.09,3.09,0,0,1,1.66.36l.29.17-1.06.61-.29-.17-.25-.12a1.86,1.86,0,0,0-.46-.06,1.3,1.3,0,0,0-.71.2c-.22.12-.32.26-.33.42a.47.47,0,0,0,.29.41l.29.17.28.14a.93.93,0,0,0,.3,0,1.92,1.92,0,0,0,.47-.06l1-.28a5.66,5.66,0,0,1,1.5-.23,2.73,2.73,0,0,1,1.45.36l.52.3a2.12,2.12,0,0,1,.49.36,1.13,1.13,0,0,1,.22.65q.05.47-.87,1a3.37,3.37,0,0,1-1.93.49,3.55,3.55,0,0,1-1.55-.39l-.23-.13,1.06-.61Z" transform="translate(-1 -1.92)" style="fill:#fff"/><path d="M158.57,336.63l-6.44-3.72,1.06-.61,2.75,1.59,1.33-.77-2.75-1.59,1.06-.61,6.44,3.72-1.06.61-2.88-1.66-1.33.77,2.88,1.66Z" transform="translate(-1 -1.92)" style="fill:#fff"/><path d="M162.61,334.3l-4.89-4.62,1-.59,8.1,2.76-1.14.66-1.68-.63-1.37.79,1.09,1Zm-.64-2.22,1-.58-2.79-1Z" transform="translate(-1 -1.92)" style="fill:#fff"/><path d="M167.38,331.54l-6.44-3.72,1.86-1.07a3.54,3.54,0,0,1,1.68-.46,2.91,2.91,0,0,1,1.58.34l.6.34q.89.51.5,1.29l4.08,1.06-1.12.65-3.77-1-.67.38,2.76,1.6ZM166,328a.33.33,0,0,0-.1-.22,1.18,1.18,0,0,0-.26-.2l-.6-.35a1.29,1.29,0,0,0-.67-.17,1.43,1.43,0,0,0-.72.2l-.76.44,2,1.16.75-.43A.59.59,0,0,0,166,328Z" transform="translate(-1 -1.92)" style="fill:#fff"/><path d="M174.22,326.53l.92.53L172,328.89l-6.44-3.72,3.17-1.83.85.49L167.43,325l1.91,1.1,1.86-1.07.87.5-1.86,1.07,1.91,1.1Z" transform="translate(-1 -1.92)" style="fill:#fff"/><polyline points="386.77 97.49 381.92 99.43 455.96 142.18 455.96 170.19 460.82 168.25" style="fill:#84235d"/><polygon points="460.82 168.25 386.77 125.5 386.77 97.49 460.82 140.24 460.82 168.25" style="fill:#84235d"/><polygon points="455.96 170.19 381.92 127.44 381.92 99.43 455.96 142.18 455.96 170.19" style="fill:#b03478"/><path d="M401.51,129.48a6,6,0,0,0,0,.73,4,4,0,0,0,.32.91,2.47,2.47,0,0,0,1.07,1.1,1.64,1.64,0,0,0,.8.25.63.63,0,0,0,.54-.23,1,1,0,0,0,.18-.59c0-.23,0-.39,0-.48V130a6.61,6.61,0,0,0,0-.76,2.06,2.06,0,0,0-.26-.68,5,5,0,0,0-.64-.89q-.42-.48-1.46-1.53a9.83,9.83,0,0,1-1.75-2.41,6.46,6.46,0,0,1-.71-3V120a2.63,2.63,0,0,1,1-2.35,2.19,2.19,0,0,1,2.44.18,6.76,6.76,0,0,1,2.48,2.64,7.15,7.15,0,0,1,1,3.52v.74l-2-1.18v-.74a4.08,4.08,0,0,0,0-.62,4.18,4.18,0,0,0-.34-.92,2.38,2.38,0,0,0-1-1.05.91.91,0,0,0-1-.08,1.19,1.19,0,0,0-.4,1v.74a5.36,5.36,0,0,0,0,.7,2.13,2.13,0,0,0,.23.61,3.71,3.71,0,0,0,.56.79q.37.41,1.41,1.45a10.89,10.89,0,0,1,1.84,2.47,6.36,6.36,0,0,1,.79,3.13v1.34a5.56,5.56,0,0,1-.14,1.36,2.8,2.8,0,0,1-.87,1.22q-.73.68-2.51-.35a6.29,6.29,0,0,1-2.68-3,8.42,8.42,0,0,1-.84-3.35v-.6l2,1.18Z" transform="translate(-1 -1.92)" style="fill:#fff"/><path d="M408.34,137.57V121l2,1.18v7.09l2.58,1.49v-7.09l2,1.18v16.59l-2-1.18v-7.42l-2.58-1.49v7.42Z" transform="translate(-1 -1.92)" style="fill:#fff"/><path d="M416.14,142.07l3-14.86,2,1.15,3.2,18.44-2.2-1.27-.58-3.9-2.65-1.53-.58,3.24Zm3.09-4,1.93,1.12-1-6.46Z" transform="translate(-1 -1.92)" style="fill:#fff"/><path d="M425.35,147.39V130.8l3.59,2.07a6.55,6.55,0,0,1,2.39,2.52,6.74,6.74,0,0,1,1,3.34v1.54q0,2.29-1.67,2.54l2.17,8.87-2.16-1.25-1.94-8.24-1.29-.74v7.12Zm4.55-7.1a.87.87,0,0,0,.27-.47,3.05,3.05,0,0,0,.08-.73v-1.54a3,3,0,0,0-.37-1.46,2.66,2.66,0,0,0-1-1.07l-1.46-.84v5.18l1.44.83A1,1,0,0,0,429.9,140.29Z" transform="translate(-1 -1.92)" style="fill:#fff"/><path d="M440.34,153.69V156l-6.12-3.54V135.92l6.12,3.54v2.18l-4.08-2.36v4.91l3.59,2.07v2.23l-3.59-2.07v4.91Z" transform="translate(-1 -1.92)" style="fill:#fff"/></g></g></svg>