<?xml version="1.0" encoding="utf-8"?>
<!-- Generator: Adobe Illustrator 21.1.0, SVG Export Plug-In . SVG Version: 6.00 Build 0)  -->
<svg version="1.1" id="Layer_1" xmlns="http://www.w3.org/2000/svg" xmlns:xlink="http://www.w3.org/1999/xlink" x="0px" y="0px"
	 viewBox="0 0 617.1 551" style="enable-background:new 0 0 617.1 551;" xml:space="preserve">
<style type="text/css">
	.st0{opacity:0.9;}
	.st1{fill:#007EB5;}
	.st2{opacity:0.2;fill:#FFFFFF;enable-background:new    ;}
	.st3{opacity:0.4;fill:#FFFFFF;enable-background:new    ;}
	.st4{fill:none;}
	.st5{fill:#3199DE;}
	.st6{fill:#FFAC1F;}
	.st7{fill:#3EB6FF;}
	.st8{fill:#1463BE;}
	.st9{fill:#FFD900;}
	.st10{fill:#F8F9FC;}
	.st11{fill:#E9C2B0;}
	.st12{fill:#D7E7F7;}
	.st13{fill:#F02222;}
	.st14{fill:#F04646;}
	.st15{fill:#393B42;}
	.st16{fill:#FDFFFE;}
	.st17{fill:#1A4B6C;}
	.st18{fill:#FF5542;}
	.st19{fill:#022540;}
	.st20{fill:#728D96;}
	.st21{fill:#1C2326;}
	.st22{fill:#174361;}
	.st23{fill:#BFBFBF;}
	.st24{fill:#00D9D0;}
	.st25{fill:#00A39C;}
	.st26{fill:#9CB5CC;}
	.st27{fill:#4BC8F1;}
	.st28{fill:#BD0A33;}
	.st29{fill:#FF245E;}
	.st30{fill:#00A7E1;}
	.st31{fill:#FFFFFF;}
	.st32{fill:#646469;}
	.st33{fill:#D9B4A4;}
	.st34{fill:#260905;}
	.st35{fill:#1B0E0D;}
	.st36{fill:#FF5B00;}
	.st37{fill:#E1E1E1;}
	.st38{fill:#BEBEBE;}
	.st39{fill:#E0E0E0;}
	.st40{fill:#1B1B1B;}
	.st41{fill:#3C4159;}
	.st42{fill:#F1BD00;}
</style>
<g id="blue_brick" class="st0">
	<g id="purple_brick">
		<g id="yellow_brick">
			<polygon class="st1" points="309.4,543.4 617.1,364.9 617.1,339 617,336.9 309.4,159.4 0.6,337.6 0,337.9 0,364.9 307.7,542.4 
							"/>
			<polygon class="st2" points="309.4,542.9 0,364.4 0,336.4 309.4,515 			"/>
			<polygon class="st3" points="617.1,364.4 309.7,542.9 309.7,515 617.1,336.4 			"/>
		</g>
	</g>
</g>
<g id="purchase_illustration">
	<g id="purchase_illustration-2">
		<polygon class="st4" points="316.7,400.6 316.7,400.1 316.7,400.6 316.9,400.8 		"/>
		<polygon class="st4" points="318.5,397.7 318.5,397.7 318.5,396.6 318.5,397.1 		"/>
		<polygon class="st4" points="219.6,404.1 229.4,398.5 219.6,404.1 219.6,404.4 221,405.2 219.6,404.4 		"/>
		<polygon class="st4" points="241.9,404.9 241.8,405.1 241.9,405.2 241.9,405.2 241.9,405 241.9,405.2 		"/>
		<polygon class="st4" points="333.2,385.5 333.2,385.2 333.2,385.4 333.3,385.6 		"/>
		<polygon class="st4" points="309.2,398 309.2,397.5 309.2,398.7 309.2,399.2 		"/>
		<polygon class="st4" points="275.6,426.1 275.5,425.8 275.5,426.2 		"/>
		<polygon class="st4" points="330.5,385.3 330.5,386.5 330.5,386.9 330.5,385.7 		"/>
		<polygon class="st4" points="311.9,397.5 311.9,397.7 311.9,397.8 		"/>
		<path class="st4" d="M315.8,398.1l0.2-0.2L315.8,398.1z"/>
		<path class="st4" d="M293.2,415.9l1.2-0.5L293.2,415.9z"/>
		<path class="st4" d="M385.4,358.9l-0.1-0.4L385.4,358.9z"/>
		<polygon class="st4" points="387.1,361.7 387,361.4 387,361.8 		"/>
		<polygon class="st4" points="339.8,385.4 339.8,385.4 339.8,384.3 339.8,384.8 		"/>
		<polygon class="st4" points="290.8,414.7 290.8,415.9 291.4,416 290.8,415.9 		"/>
		<polygon class="st4" points="338,388.4 338,387.9 338,388.3 338.2,388.5 		"/>
		<polygon class="st4" points="390.9,357.2 390.8,357.6 391.1,357.9 390.9,357.7 		"/>
		<polygon class="st4" points="288.1,411.6 288.1,411.7 288,411.5 		"/>
		<polygon class="st4" points="391.1,357.9 391.2,358 391.1,356.9 		"/>
		<polygon class="st4" points="273.9,423.3 273.8,422.9 273.9,423.2 		"/>
		<polygon class="st4" points="310.5,418.2 315.7,421.2 310.5,418.2 298.3,416.6 		"/>
		<polygon class="st4" points="293,415.8 291.7,415.4 291.7,414.3 291.7,415.5 		"/>
		<path class="st4" d="M341.9,388.1l0.2-0.3L341.9,388.1z"/>
		<polygon class="st4" points="263.4,431.2 263.4,431.2 263.4,430.8 		"/>
		<polygon class="st4" points="263.7,431.5 263.8,431.5 263.7,430.5 		"/>
		<polygon class="st4" points="270.9,431.1 270.9,431.2 271.1,431.1 		"/>
		<polygon class="st4" points="362.4,368.7 362.5,368.8 362.3,368.6 		"/>
		<polygon class="st4" points="381.5,366.9 378.7,363.9 378.7,363.6 378.7,363.9 		"/>
		<polygon class="st5" points="287,414.4 285.9,413.7 285.9,413.7 273.9,410.1 266.4,406.5 265.8,406.9 267.9,407.8 268.4,407.5 
			268.9,408 269.1,408.4 276,411.6 288.2,415.1 288.1,415.1 		"/>
		<polygon class="st6" points="266.6,406.4 266.6,406.1 257,411.7 251.9,408.8 251.9,409.1 257,412 265.8,406.9 266.4,406.5 		"/>
		<path class="st7" d="M174.1,405.3l0.9,1.1l1.3,1l1,0.6l95.1,54.9l1,0.6l1.8,0.8l2,0.5l2.1,0.3l2.1,0.1l2.1-0.1l2-0.4l1.9-0.6
			l1.6-0.8l7.5-4.3l17.4-10.1L338,435l27.3-15.8l27.1-15.7l23.6-13.6l16.6-9.6l6.3-3.6l1.4-1l1-1.1l0.6-1.2l0.2-1.2l-0.2-1.2
			l-0.6-1.2l-1-1.1l-1.4-1L406,348.4l0.5,0.7l3.9,7.1l2.1,7.3l0.3,7.4l-1.6,7.3l-3.4,7.1l-5.2,6.9l-7,6.5l-8.8,5.9L373,411
			l-15.3,4.7l-14.7,2.6L281.2,454l-5.2-3v-0.3l54.5-31.5l-5.9,0.4l-5.1-0.3l-3.8,2.2l-4.5-2.6l-3.4-0.2l-10.3-1.7l-0.3,0.1l-0.2,0.1
			l-0.6,0.3l-0.8,0.4l-0.7,0.2l-0.5,0.1H294l-0.4-0.1l-0.4-0.2l-0.3-0.2l-0.1-0.3v-1.2v-0.1l-1.5-0.2l-0.7-0.2l-0.6,0.1l-0.6-0.1
			l-0.7-0.3L288,415l-12.1-3.5l-6.9-3.1l0.2,0.3l0.2,0.8v1l-0.2,0.8l-0.4,0.7l-0.6,0.7l-0.8,0.6l-0.6,0.4l-2,1.1l-1.6,0.9l-1.7,1
			l-1.6,0.9l-1.4,0.8l-0.9,0.5l-0.2,0.1l-0.3-0.1l-0.5-0.3l-0.7-0.4l-0.8-0.5l-0.8-0.5l-0.7-0.4l-0.5-0.3l-0.2-0.1v-0.3l14.6-8.5
			l-2.1-0.9L257,412l-5-2.9v-0.3l8.3-4.8l-1.8-1.1l-8.6,5l-4.4-2.5v-0.3l8.6-5l-1.6-1.2l-10.2,5.9l-0.2,0.1L242,405l-0.1,0.2
			l0.1,0.2l0.1,0.1l0.2,0.1l12.6,7.3v0.3l-0.4,0.2l-1.1,0.6l-1.6,0.9l-1.8,1l-1.8,1l-1.6,0.9l-1.2,0.7l-0.5,0.3l-0.9-0.5l-2.7-1.5
			l-3.9-2.3l-4.6-2.7l-4.6-2.7l-4.1-2.3l-3-1.8l-1.4-0.8v-0.3l9.8-5.6l0.2-0.1h0.1l5.6,3.2l0.2,0.1l0.2,0.1l0.3,0.1h0.3h0.3h0.3
			l0.3-0.1l0.2-0.1l0.2-0.1l10.4-6l0.2-0.1l0.7,0.4l-4.3-4.2l-3.8-4.9l-2.9-5.1l-1.9-5.2l-1-5.3l-0.1-5.3l0.1-1L177,398.3l-1.4,0.9
			l-1.1,1.1l-0.7,1.2l-0.3,1.2l0.1,1.2L174.1,405.3z M231.7,397.1h0.1l3.5-2l0.7-0.4l1.2-0.5l1.3-0.3l1.3-0.2l1.4-0.1h1.4l1.3,0.1
			l1.3,0.3l0.7,0.3v0.3L245,395l-8.5,4.9l-0.3,0.1l-0.3-0.1l-0.6-0.3l-0.7-0.4l-0.8-0.5l-0.8-0.5l-0.7-0.4l-0.5-0.3l-0.2-0.1
			L231.7,397.1z M263.4,436.3v0.3l-0.2,0.2l-5.1,3l-0.4,0.2h-0.5l-0.5-0.1l-0.4-0.2l-0.4-0.3l-0.1-0.3V438l0.1-0.3l0.3-0.2l0.7-0.4
			l-0.4-0.3l-1.6-1l-2.9-1.6l-0.4-0.1H251h-0.6l-0.5-0.2l-0.4-0.4l-0.1-0.5v-1.2l0.2-0.5l0.4-0.4l0.5-0.2l0.5-0.1h0.4l0.4,0.2
			l0.3,0.2l0.6,0.4l0.5,0.3l6.2,3.6h0.2h0.2l0.6-0.3l0.5-0.3l0.2-0.2l0.1-0.1l0.4-0.1h0.5l0.5,0.1l0.4,0.1l0.3,0.2l0.1,0.3
			L263.4,436.3z M299.3,424.7l5.2,3v0.3l-34.1,19.7l-5.2-3v-0.3L299.3,424.7z M271.1,419.2v-0.3l0.3-0.3l0.6-0.2h0.3h0.3l1.1,0.5
			l0.5,0.3l1.4,0.9l0.5,0.3l0.3,0.1h0.3h0.3l0.3-0.1l0.2-0.1h0.1l-1.1-0.6l-0.9-0.5l-0.6-0.4l-0.3-0.3l-0.1-0.3V417l0.1-0.3l0.3-0.3
			l0.5-0.2h0.5l0.4,0.1l0.5,0.2l1.3,0.8l0.7,0.4l0.5,0.3l0.8,0.3h0.3h0.2l0.3-0.3l0.2-0.2l0.4-0.1h0.5l0.4,0.1l0.4,0.2l0.2,0.2v0.2
			v1.2l-0.1,0.2l-0.2,0.1l0.2,0.1l0.5,0.3l1.4,0.8l0.5,0.3l0.3,0.2l0.1,0.3v1.2l-0.1,0.3l-0.3,0.2l-0.4,0.2l-0.5,0.1H284l-0.4-0.1
			l-0.4-0.2l-0.5-0.3l-0.5-0.3l-0.2,0l-1.5-0.8h-0.1h-0.1l-0.4,0.1l-1.7,0.9l-0.2,0.2l-0.2,0.2l-0.4,0.2h-0.5l-0.5-0.1l-0.5-0.2
			l-2.1-1.1l-2-1.2l-0.3-0.3l-0.1-0.3L271.1,419.2z M263.5,423.9l0.1-0.3l0.4-0.4l0.7-0.5l1-0.6l1.8-0.9l0.7-0.3l0.6-0.1h0.8
			l0.9,0.1l0.9,0.3l0.9,0.5l0.6,0.4l0.5,0.4l0.3,0.4l0.2,0.4h0.1l0.7,0.1l0.8,0.2l1.2,0.6l0.6,0.4l0.5,0.4l0.3,0.4l0.1,0.4v1.5
			l-0.1,0.3l-0.6,0.7l-0.8,0.6l-1.3,0.8l-1.1,0.5l-0.9,0.3l-0.8,0.1l-0.3-0.1l-0.3-0.1l-0.3-0.3l-0.1-0.3v-1.2l0.1-0.3l0.3-0.3
			l1.7-0.6l1.1-0.7l0.3-0.3l-0.3-0.2l-0.9-0.4h-0.5l-0.5,0.2l-0.8,0.5l-0.4,0.2l-0.1,0.1l-0.2,0.2l-0.4,0.3l-0.4,0.2l-0.5,0.1h-0.5
			l-0.4-0.2l-0.3-0.2l-0.1-0.2v-1.2v-0.2l0.2-0.3l1.1-0.8l0.8-0.4l-0.1-0.1l-0.9-0.4l-0.4-0.1h-0.4l-0.6,0.2l-0.9,0.5l-1.2,0.8
			l-0.2,0.1l-0.2,0.2l-0.5,0.4l-0.4,0.1h-0.4l-0.5-0.1l-0.4-0.2l-0.3-0.3l-0.1-0.3L263.5,423.9z M255.7,428.5v-0.3l0.2-0.3l0.7-0.7
			l1.2-0.8l0.9-0.5l0.8-0.4l0.8-0.2l0.7-0.1h0.8l0.8,0.1l0.9,0.3l0.9,0.4l0.6,0.4l0.4,0.4l0.3,0.4l0.1,0.4v1.6l-0.1,0.4l-0.3,0.4
			l-0.4,0.4l-0.5,0.3L264,431l-0.4,0.3l1,0.5l0.5,0.1l0.5-0.2l0.6-0.3l0.6-0.3l1.5-0.9l0.1-0.1l0.2-0.2l0.2-0.1l0.2-0.1l0.5-0.2h0.6
			l0.5,0.1l0.5,0.2l0.3,0.2l0.1,0.3v1.2l-0.1,0.3l-0.3,0.2v-1l-0.2-0.1v1.1l-0.2,0.1l-0.4,0.2l-4.1,2.4l-0.5,0.2l-0.5,0.1h-0.5
			l-0.5-0.2l-1.5-0.8l-0.7-0.4l-0.8-0.5l-0.4-0.5l-0.1-0.6v-1.2l0.4-0.6l0.6-0.6l0.9-0.8l0.4-0.4l-0.2-0.2l-1-0.4l-0.4-0.1H261
			l-0.7,0.2l-1,0.5l-0.6,0.4l-0.4,0.4l-0.6,0.6l-0.4,0.1h-0.5l-0.4-0.1l-0.4-0.2l-0.2-0.2l-0.1-0.2V428.5z M251.1,417.5l4.4,2.6v0.3
			l-0.2,0.1l-0.9,0.5l-1.5,0.9l-7.5,4.3l-0.6,0.3l-1.1,0.5l-1.2,0.4l-1.3,0.2l-1.3,0.1h-1.3l-1.3-0.1l-1.3-0.2l-0.9-0.3v-0.3
			L251.1,417.5z M237.7,417l5,2.9v0.3l-10,5.8l-5-2.9v-0.3L237.7,417z M235.6,415.8v0.3l-10.1,5.8l-4.4-2.5V419l10.1-5.8
			L235.6,415.8z M224.2,409.2l5,2.9v0.3l-10.1,5.8l-5-2.9V415L224.2,409.2z M211.1,410.8l0.2-0.8l0.4-0.8l0.6-0.7l0.8-0.7l0.5-0.3
			l3.9-2.2h0.1l4.6,2.6v0.3l-6.5,3.7l-1.6,0.9l-1.2,0.7l-0.6,0.3l-0.5-0.6l-0.4-0.8l-0.2-0.8v-0.8H211.1z"/>
		<path class="st5" d="M234.9,371.2l1,5.3l1.9,5.2l2.9,5.1l3.8,4.9l4.3,4.2l4.1,2.4l0.1,0.1v0.3l-0.5,0.3l1.6,1.2l1-0.6l4.4,2.5v0.3
			l-1.1,0.6l1.8,1.1l0.6-0.3l-0.5-0.3l-0.5-0.3l-0.5-0.3l0.7,0.1l1.5,0.4l0.1-0.1l0.3,0.2l7.9,1.9l1,0.2l2.4-1.1l-0.3-0.1l-5.9-1.8
			l-0.7-0.2l8.8,1.2l0.3,0.1l1.1,1.9l6.9-0.9l0.5-0.1l5.8-2.2h0.4l3-0.4h0.2l2.6-0.8l0.4,0.1l3.5,0.9l0.3,0.1l1.1-0.2l1.7-1l2.1-1.1
			l0.9-0.4l0.7-0.2h0.4h0.4l0.8,0.3l8,4.7l0.3,0.3l0.1,0.3v1.2l-0.1,0.3l-0.3,0.3l-0.5,0.2h-0.3l0.9,0.6h4.4h0.4l6.2,1.4l17.6-10.2
			l5.2,3v0.3l-12.3,7.1l5.6,3l12.4-7.1l5.2,3v0.3l-11.9,6.9l2.7,1.5l-6.9,0.9l-1.6,1l14.7-2.6l15-5.1l13.8-6.5l8.8-5.9l7-6.5
			l5.2-6.9l3.4-7.1l1.6-7.3l-0.3-7.4l-2.1-7.3l-3.9-7.1l-0.5-0.7l-6.6-3.8l-0.8,0.6l-23.2-6.3l1.5-0.5l19.3,5.6l0.8-0.7l-39-22.6
			l-4.6-1l-4.7-0.9l-4.8-0.7l-4.8-0.6l-4.9-0.4l-4.9-0.3l-4.9-0.1l-4.9,0.1l-1-0.1l-5.1,3l0.1,1.6l0.2,4.7l1.8,4.5l6,1.1l8.1-1.3
			l-1.5-1.4l-4.9-4.3V324l0.1-1.7l9.3,5.4l0.1,0.8l0.3,2.8l-1.7,1l-6,3.5l-0.1,1.7l-0.3,5.9l1.3,0.3l4.8,0.8l-1.2,0.7l-4.5,2.6
			l1.7,1l6.4,3.7l1.3-0.5l4.8-2l-0.6-1.4l-2.4-5.5l0.6-0.3l2.3-1.1l-0.1-0.4l-0.5-1.4l1.3,0.1l5.5,0.5l0.9,0.1l3.4,0.4l-0.1,0.4
			l-0.6,1.5l0.5,0.1l2,0.2l0.5-0.7l2.1-3.1l-2-0.3l-9.1-1l0.6-0.1l3.3-0.6l2.1,0.3l9.5,1.5l0.1-0.3l-0.4-1.7l-0.7-0.3l-3.2-1.1
			l0.3-0.2l1.8-0.9l-0.4-0.8l-2.5-4.2l0.7-0.1l3.8-0.1l0.1-0.5l0.1-2.4l0.3,0.1l1.5,0.9h1l5.2-0.2v0.2l-0.7,1.3l-0.9,0.3l-5.3,1.8
			l-0.5,0.6l-2.2,3l0.8,0.3l5.2,1.5l0.9-0.4l4.4-2.6l0.7,0.3l3.4,2.7l-0.7,0.6l-5.5,3.2l-1,0.3l-5.4,1.1v0.3l1.4,1.5l-0.6,0.2
			l-4.9,1.1l-0.5,0.1l-2.1,0.7l-0.6-0.2l-4-1.9l-0.9,0.4l-5.5,3.8l-0.5,0.5l-1.2,2l-0.4,0.3l-2.5,1.4l-0.2,0.4l-0.1,2.9l0.3,0.4
			l2.5,1.9l0.3,0.8l1.6,5.9l0.9,0.9l7.3,4.7l1.9,0.5l9.6,1.3l-0.8-0.5l-0.8-0.5l-0.3-0.3l-0.2-0.3v-1.2v-0.3l0.3-0.3l0.3-0.2
			l0.5-0.2l0.5-0.2l0.3-0.2l2.1-1.4l0.1-0.1l0.2-0.2l0.2-0.2l0.2-0.1l0.4-0.2h0.5l0.5,0.1l0.4,0.2l0.4,0.4v1.2l-0.1,0.4l-0.3,0.3
			l-0.5,0.3l-1.6,1l-0.5,0.3l0.6,0.4l0.4,0.2l0.4,0.2h0.3l0.7-0.3l1.1-0.6l0.3-0.2l0.3-0.2l0.2-0.1l0.6-0.3l0.6-0.2h0.1l1-1
			l-0.4-0.2l-2-1.1l-0.3-0.3l-0.1-0.3V364v-0.3l0.3-0.3l0.6-0.2h0.3h0.3l1.1,0.5l0.5,0.3l1.4,0.9l0.5,0.3l0.4-0.4l0.2-0.1l-0.3-0.2
			l-0.9-0.5l-0.6-0.4l-0.3-0.3l-0.1-0.3v-1l0.1-0.3l0.3-0.3l0.5-0.2h0.5l0.4,0.1l0.5,0.2l1.3,0.8l0.7,0.4l0.5,0.3l0.8,0.3h0.3h0.2
			l0.3-0.3l0.2-0.2l0.4-0.1h0.5l0.4,0.1l0.4,0.2l0.2,0.2v0.2v0.4l2.8,2.9l1,0.4l8.4,2.2l1,0.7l3.5,5.1l0.8,0.5l5.2,1.2l0.8,0.4
			l4.2,3l0.6,0.3l2.3-0.1l-2,4.2l-6.2,8.3l-9,7.6l-9.3,5.6l-8,3.7l-8.6,3.1l-4.7,1.2l-1.2-1.3l0.1-0.3l2.3-1.9v-0.3l-2.2-0.9
			l-0.1-0.2l1.4-1.1l0.1-0.3l-0.1-3.1l-0.2-0.4L358,403l-0.1-0.4l3.2-3.2l0.3-0.5l-1-3l-0.4-0.5l-4.2-2.4l-0.5-0.5l0.6-2.6v-0.4
			l-2.1-1.8l-0.6-0.2l-5.5,0.3l-0.9,0.1l-1.9,0.8v0.2l-0.2,0.4l-0.4,0.4l-0.6,0.5l-0.8,0.5l-0.9,0.5l-0.8,0.4l-0.7,0.2l-0.7,0.1
			h-0.7l-0.8-0.2l-0.8-0.3l-0.9-0.5l0,0l-0.2,0.2l1.1,0.6l0.3,0.3l0.1,0.3v1.2l-0.1,0.3l-0.3,0.3l-0.4,0.2l-0.5,0.1l-0.5-0.1
			l-0.4-0.2l-3.3-1.8l-0.3-0.1l-0.3,0.1l-0.2,0.1l-0.3,0.2l-0.5,0.3l-0.9,0.5l-0.8,0.4l-0.8,0.2l-0.7,0.1h-0.8l-0.8-0.2l-0.9-0.3
			l-0.9-0.5l-0.8-0.5l-0.5-0.5l-0.3-0.5v-0.4v-0.4l-4.2-0.5h-1l-1.9,1.4L315,392l-6.1,1.6l-1,0.4l-0.4,3.5l-0.1,0.6l-2,0.4l-0.4,0.1
			l-2.1,1.2l-0.5,0.2l-2.7-1.6l-0.5-0.3l-2.6-0.3H296l-2.3,1.3l-0.5,0.2l-2.2-2.4l-0.5-0.5l-2-0.9l-0.4-0.1l-0.1,2.9v0.6l-1.4,1.6
			l-0.3,0.3h-2.6h-0.6l-4-2.8l-0.8-0.6l0.3-2.4l0.1-0.5l2.7-2l0.6-0.5l1.7-1.7l0.4-0.4l3.6,0.9l0.9,0.2l3.1-0.2l0.7-0.1l-4.6-2.6
			l-1.1-0.7l0.6-3.9l0.1-0.9l-3.1-1l-0.8-0.3l0.7-6.8l0.2-1.7l2,0.4l0.5,0.1l1.3-4.7l0.3-1.2l-3.3,1.3l-0.9,0.3l-2.7-1.1l-0.7-0.3
			l1.2-2.4l0.3-0.7l2.1,2l0.6,0.5l6.2-3l1.7-0.9l-6.7-0.5l-1.9-0.1l-0.5-1.6l-0.2-0.5l-15.1-1.4l0.8,1.8l0.2,0.5l-3.2-0.9l-1-0.3
			l1.4-5.6l0.4-1.8l-8.4-2.3l-8.5,4.9l7.6,0.6l1.4,4.9l3.2-1l-1.8,4.4l6.9,4.1l3.6,5.4l-7.1-2.5l-11.5,1.5l-0.3-7.7l2.6-0.5
			l-2.1-3.1l-3.1-5.7l-15.1,8.7l-0.1,1L234.9,371.2z M389.8,362.9l-0.1,0.3l-0.6,0.7l-0.8,0.6l-1.3,0.8l-1.1,0.5l-0.9,0.3l-0.8,0.1
			l-0.3-0.1l-0.3-0.1l-0.3-0.3l-0.1-0.3v-1.2l0.1-0.3l0.3-0.3l1.7-0.6l1.1-0.7l0.3-0.3l-0.3-0.2l-0.9-0.4H385l-0.5,0.2l-0.8,0.5
			l-0.4,0.2l-0.1,0.1l-0.2,0.2l-0.4,0.3l-0.4,0.2l-0.5,0.1h-0.5l-0.4-0.2l-0.3-0.2l-0.1-0.2v-1.2v-0.2l0.2-0.3l1.1-0.8l0.8-0.4
			l-0.1-0.1l-0.9-0.4l-0.4-0.1h-0.4l-0.6,0.2l-0.9,0.5l-1.2,0.8l-0.2,0.1l-0.2,0.2l-0.5,0.4l-0.4,0.1h-0.5l-0.5-0.1l-0.4-0.2
			l-0.3-0.3l-0.1-0.3v-1.2l0.1-0.3l0.4-0.4l0.7-0.5l1-0.6l1.8-0.9l0.7-0.3l0.6-0.1h0.8l0.9,0.1l0.9,0.3l0.9,0.5l0.7,0.4l0.5,0.4
			l0.3,0.4l0.2,0.4h0.1l0.7,0.1l0.8,0.2l1.2,0.6l0.6,0.4l0.5,0.4l0.3,0.4l0.1,0.4L389.8,362.9L389.8,362.9z M401.4,358.4l-2.5-0.6
			v0.5l-0.1,0.3l-0.3,0.2l-0.2,0.1l-0.2,0.1l-0.4,0.2l-4.1,2.4l-0.5,0.2l-0.5,0.1h-0.5l-0.5-0.2l-1.5-0.8l-0.7-0.4l-0.8-0.5
			l-0.4-0.5l-0.1-0.6v-1.2l0.4-0.6l0.6-0.6l0.9-0.8l0.4-0.4l-0.2-0.2l-1-0.4l-0.4-0.1h-0.4l-0.7,0.2l-1,0.5l-0.6,0.4l-0.4,0.4
			l-0.6,0.6l-0.4,0.1h-0.5l-0.4-0.1l-0.4-0.2l-0.2-0.2l-0.1-0.2V355v-0.3l0.2-0.3l0.7-0.7l1.2-0.8l0.9-0.5l0.8-0.4l0.8-0.2l0.7-0.1
			h0.8l0.8,0.1l0.9,0.3l0.9,0.4l0.6,0.4l0.4,0.4l0.3,0.4l0.1,0.4v1.6l-0.1,0.4l-0.3,0.4l-0.4,0.4l-0.5,0.3l-0.5,0.3l-0.4,0.3l1,0.5
			l0.5,0.1l0.5-0.2l0.6-0.3l0.6-0.3l1.5-0.9l0.1-0.1l0.2-0.2l0.2-0.1l0.2-0.1l0.5-0.2h0.6l0.3,0.1l2.2-1.3l2.5,1.4L401.4,358.4z
			 M406.7,356l0.1-5l0.3,0.5l0.5,0.8l0.5,0.8l0.4,0.9l0.4,0.9l0.4,0.9l0.4,0.9l0.3,0.9l0.2,0.6L406.7,356z M309.2,397.5l0.2-0.4
			l0.4-0.4l0.6-0.5l0.8-0.5l0.9-0.5l0.8-0.3l0.7-0.2l0.7-0.1h0.7l0.8,0.2l0.8,0.3l0.9,0.4l0.8,0.5l0.4,0.4v1.1l0.8-0.1h0.8l0.7,0.2
			l1,0.5l0.8,0.5l0.6,0.5l0.3,0.5l0.1,0.4v1.2l-0.2,0.4l-0.4,0.4l-0.6,0.5l-0.8,0.5l-0.9,0.5l-0.8,0.4l-0.7,0.2l-0.7,0.1H318l-1-0.2
			l-0.8-0.3l-0.9-0.5l-0.9-0.6l-0.3-0.5v-1l-0.7,0.1h-0.5h-0.5l-0.8-0.2l-1-0.5l-0.7-0.5l-0.5-0.5l-0.3-0.5v-0.4L309.2,397.5z
			 M266.2,377.4l6.8,0.2l2.4,1.2l4.1-2l-2.2,5.2l-5-2.1l2.2,5.4l-5.1-5.1l-3.9,2.3L266.2,377.4z"/>
		<polygon class="st8" points="348.8,414.9 360.7,408 360.7,407.8 355.5,404.8 343.2,411.9 331.5,418.6 330.5,419.2 276,450.7 
			276,451 281.2,453.9 343,418.3 344.7,417.3 		"/>
		<polygon class="st7" points="351.5,416.4 348.8,414.9 344.7,417.3 		"/>
		<path class="st7" d="M267.1,354.9l-1.4,5.6l1,0.3l3.2,0.9l-0.2-0.5l-0.8-1.8l15.1,1.4l0.2,0.5l0.5,1.6l1.9,0.1l6.7,0.5l-1.7,0.9
			l-6.2,3l-0.6-0.5l-2.1-2l-0.3,0.7l-1.2,2.4l0.7,0.3l2.7,1.1l0.9-0.3l3.3-1.3l-0.3,1.2l-1.3,4.7l-0.5-0.1l-2-0.4l-0.2,1.7l-0.7,6.8
			l0.8,0.3l3.1,1l-0.1,0.9l-0.6,3.9l1.1,0.7l4.6,2.6l-0.7,0.1l-3.1,0.2l-0.9-0.2l-3.6-0.9l-0.4,0.4l-1.7,1.7l-0.6,0.5l-2.7,2
			l-0.1,0.5l-0.3,2.4l0.8,0.6l3.9,2.6h0.6h2.6l0.3-0.3l1.4-1.6v-0.6l0.1-2.9l0.4,0.1l2,0.9l0.5,0.5l2.2,2.4l0.5-0.2l2.3-1.3h0.5
			l2.6,0.3l0.5,0.3l2.7,1.6l0.5-0.2l2.1-1.2l0.4-0.1l2-0.4l0.1-0.6l0.4-3.5l1-0.4l6.1-1.6l0.5-0.3l1.9-1.4h1l4.2,0.5v-0.8l0.2-0.4
			l0.4-0.4l0.6-0.5l0.8-0.5l0.9-0.5l0.8-0.3l0.7-0.2l0.6-0.1h0.7l0.8,0.2l0.8,0.3l0.9,0.5l3,1.8l2.6,1.4l0.2-0.2l-0.8-0.5l-0.3-0.5
			v-1l-0.7,0.1h-0.5h-0.5l-0.8-0.2l-1-0.5l-0.7-0.5l-0.5-0.5l-0.3-0.5v-0.4v-1.2l0.2-0.4l0.4-0.4l0.6-0.5l0.8-0.5l0.9-0.5l0.8-0.3
			l0.7-0.2l0.7-0.1h0.7l0.8,0.2l0.8,0.3l0.9,0.4l0.8,0.5l0.4,0.4v1.1l0.8-0.1h0.8l0.7,0.2l1,0.5l0.8,0.5l0.6,0.5l0.3,0.5l0.1,0.4v1
			l1.9-0.8l0.9-0.1l5.5-0.3l0.6,0.2l2.1,1.8v0.4l-0.6,2.6l0.5,0.5l4.2,2.4l0.4,0.5l1,3l-0.3,0.5l-3.2,3.2l0.1,0.4l3.2,1.3l0.2,0.4
			l0.1,3.1l-0.1,0.3l-1.4,1.1l0.1,0.2l2.2,0.9v0.3l-2.1,2l-0.1,0.3l1.2,1.3l4.7-1.2l8.6-3.1l8-3.7l9.3-5.6l9-7.6l6.4-8.2l2-4.2
			l-2.3,0.1l-0.6-0.3l-4.2-3l-0.8-0.4l-5.2-1.2l-0.8-0.5l-3.5-5.1l-1-0.7l-8.4-2.2l-1-0.4l-2.8-3v0.8l-0.1,0.2l-0.2,0.1l0.2,0.1
			l0.5,0.3l1.4,0.8l0.5,0.3l0.3,0.2l0.1,0.3v1.2l-0.1,0.3l-0.3,0.2l-0.4,0.2l-0.5,0.1h-0.5l-0.4-0.1l-0.4-0.2l-0.5-0.3L378,368
			l-0.4-0.2l-1.5-0.8H376h-0.1l-0.4,0.1l-1.7,0.9l-0.2,0.2l-0.2,0.2l-0.4,0.2h-0.5l-0.5-0.1l-0.5-0.2l-1.7-0.9l-1,1l0.5-0.1h0.7
			l1.1,0.3l1.3,0.6l0.8,0.5l0.5,0.5l0.3,0.4l0.1,0.4v1.2l-0.1,0.4l-0.3,0.5l-0.5,0.5l-0.7,0.5l-0.8,0.5l-0.2,0.1l-0.6,0.3l-0.8,0.4
			l-0.7,0.2l-0.5,0.1h-0.4l-0.4-0.1l-0.4-0.2l-0.3-0.2l-0.1-0.3v-1.2l0.1-0.3l0.3-0.2l1.2-0.5l1.4-0.6l0.6-0.4l-0.6-0.4l-0.4-0.1
			l-0.5-0.1H369l-0.4,0.1l-1.1,0.6l-0.6,0.3l-0.3,0.2l-0.3,0.2l-0.3,0.2l-0.2,0.1l-0.7,0.3l-0.6,0.1l-0.6-0.1l-0.7-0.3l-0.8-0.5
			l-1.1-0.7l-0.3-0.2l-9.6-1.3l-1.9-0.5l-7.3-4.7l-0.9-0.9l-1.6-5.9l-0.3-0.8l-2.5-1.8l-0.3-0.4l0.2-2.8l0.2-0.4l2.5-1.5l0.4-0.3
			l1.2-1.9l0.5-0.5l5.5-3.8l0.9-0.4l4,1.9l0.6,0.2l2.1-0.7l0.5-0.1l4.9-1.1l0.6-0.2l-1.4-1.5v-0.3l5.4-1.1l1-0.3l5.5-3.2l0.7-0.6
			l-3.4-2.7l-0.7-0.3l-4.4,2.6l-0.9,0.4l-5.2-1.4l-0.8-0.3l2.2-3l0.5-0.6l5.3-1.8l0.9-0.3l0.7-1.3v-0.2l-5.2,0.2h-1l-1.5-0.9
			l-0.3-0.1L358,329l-0.1,0.5l-3.8,0.1l-0.7,0.1l2.5,4.2l0.4,0.8l-1.8,0.9l-0.3,0.2l3.2,1.1l0.7,0.3l0.4,1.7l-0.1,0.3l-9.5-1.5
			l-2.1-0.3l-3.3,0.6l-0.5,0l9.2,1l2,0.3l-2.2,3.1l-0.5,0.7l-2-0.2l-0.5-0.1l0.6-1.5l0.1-0.4l-3.4-0.4l-0.9-0.1L340,340l-1.3-0.1
			l0.5,1.4l0.1,0.4l-2.3,1.1l-0.6,0.3l2.4,5.6l0.6,1.4l-4.8,2l-1.3,0.5l-6.4-3.7l-1.7-1l4.5-2.6l1.2-0.7l-4.8-0.8l-1.3-0.3l0.3-5.9
			l0.1-1.7l6-3.5l1.7-1l-0.3-2.8l-0.1-0.8l-9.3-5.4l-0.1,1.7v0.5l4.9,4.3l1.5,1.3l-8.1,1.3l-6-1.1l-1.8-4.5l-0.2-4.7l-0.1-1.6
			l-28.8,16.6l-3.9,8.3l4.3,6.9l-11.8,1.1l-8.4-4.9l-5.5,3.1l8.4,2.3L267.1,354.9z M345.5,376.3l0.1-0.3l0.3-0.3l0.4-0.2l0.5-0.1
			l0.5,0.1l0.4,0.2l3.3,1.8l0.3,0.1l0.3-0.1l0.2-0.1l0.2-0.2l0.3-0.2l0.2-0.1l0.9-0.5l0.9-0.4l0.8-0.2l0.7-0.1h0.8l0.8,0.2l0.9,0.3
			l0.9,0.5l0.7,0.5l0.5,0.5l0.3,0.5v0.5v1.2l-0.2,0.4l-0.4,0.4l-0.6,0.5l-0.8,0.5L358,382l-0.8,0.3l-0.8,0.2l-0.8,0.1h-0.8l-0.8-0.1
			l-0.8-0.3l-0.8-0.4l-6.8-3.8l-0.3-0.3l-0.1-0.3v-1.1H345.5z M337.7,380.9l0.1-0.3l0.3-0.2l2-1.2l2.1-1.1l0.9-0.4l0.7-0.2h0.4h0.4
			l0.8,0.3l8,4.7l0.3,0.3l0.1,0.3v1.2l-0.1,0.3l-0.3,0.3l-0.5,0.2l-0.5,0.1l-0.5-0.1l-0.5-0.2l-3.6-2.1l-3.7-2l-0.3-0.1h-0.3h-0.3
			l-0.3,0.1l-3.1,1.8l-0.4,0.2l-0.5,0.1l-0.5-0.1l-0.4-0.2l-0.3-0.2l-0.1-0.3L337.7,380.9z M345.4,341.9l0.4,1.8l-5.1-0.8l-0.5-2.6
			L345.4,341.9z M317,343.5l-4.3-2.5l1-2l2.8,0.8l2.5,2.5L317,343.5z M313,334.9l2.3,1.3l8.8,1.5l-1.4,4.6l-3.6-1.1l-1.2-2.4
			l-7.4-0.4l-0.2-2.8L313,334.9z M297.3,333.7l0.2,3.4l-1.9,1.6l-7.8,0.4L297.3,333.7z"/>
		<polygon class="st7" points="372.3,365.5 372.6,365.4 372.9,365.3 373.1,365.2 373.2,365.1 372.4,364.7 372.1,364.8 371.7,365.2 
			372.1,365.4 		"/>
		<path class="st7" d="M266.6,406.4l-0.2,0.1l7.5,3.6l12,3.6l-0.7-0.4l-0.3-0.3l-0.2-0.3v-1.2v-0.3l0.3-0.3l0.3-0.2l0.5-0.2l0.5-0.2
			l0.3-0.2l2.1-1.4l0.1-0.1l0.2-0.2l0.2-0.2l0.2-0.1l0.4-0.2h0.5l0.5,0.1l0.4,0.2l0.4,0.4v1.2l-0.1,0.4l-0.3,0.3l-0.5,0.3l-1.6,1
			l-0.5,0.3l0.6,0.4l0.4,0.2l0.4,0.2h0.3l0.7-0.3l1.1-0.6l0.3-0.2l0.3-0.2l0.2-0.1l0.6-0.3l0.6-0.2l0.7-0.1h0.7l1.1,0.3l1.3,0.6
			l0.7,0.5l0.5,0.5l0.3,0.4l0.1,0.4v1.2l-0.1,0.4l-0.3,0.4l-0.5,0.5l-0.5,0.3l12.2,1.6l16.5-9.5l-6.2-1.4h-0.4h-4.4l-0.9-0.6h-0.1
			l-0.5-0.1l-0.5-0.2l-3.6-2.1l-3.7-2l-0.3-0.1h-0.3h-0.3l-0.3,0.1l-3.1,1.8l-0.4,0.2l-0.5,0.1l-0.5-0.1l-0.4-0.2l-0.3-0.2l-0.1-0.3
			v-1.2l0.1-0.3l0.3-0.2l0.2-0.1l-1.1,0.2l-0.3-0.1l-3.5-0.9l-0.4-0.1l-2.6,0.8h-0.2l-3,0.4h-0.4l-5.8,2.2l-0.5,0.1l-6.9,0.9
			l-1.1-1.9l-0.3-0.1l-8.8-1.2l0.7,0.2l5.9,1.8l0.3,0.1l-2.4,1.1l-1-0.2l-7.9-1.9l4.7,2.7L266.6,406.4z M292.4,406.9l0.1-0.3
			l0.3-0.3l0.4-0.2l0.5-0.1l0.5,0.1l0.4,0.2l3.3,1.8l0.3,0.1l0.3-0.1l0.2-0.1l0.2-0.2l0.3-0.2l0.2-0.1l0.9-0.5l0.9-0.4l0.8-0.2
			l0.7-0.1h0.8l0.8,0.2l0.9,0.3l0.9,0.5l0.8,0.5l0.5,0.5l0.3,0.5v0.5v1.2l-0.2,0.4l-0.4,0.4l-0.6,0.5l-0.8,0.5l-0.8,0.4l-0.8,0.3
			l-0.8,0.2l-0.8,0.1h-0.8l-0.8-0.1l-0.8-0.3l-0.8-0.4l-6.8-3.8l-0.3-0.3l-0.1-0.3L292.4,406.9z"/>
		<polygon class="st7" points="255.2,364.9 252.6,365.5 252.9,373.1 264.4,371.7 271.4,374.2 267.9,368.8 261,364.7 262.8,360.4 
			259.6,361.4 258.2,356.4 250.6,355.8 250,356.1 253.1,361.8 		"/>
		<polygon class="st5" points="293.2,415.9 293.2,415.9 293.2,415.9 293,415.8 291.7,415.5 291.5,415.6 290.8,415.9 291.4,416 
			292.9,416.3 292.9,416.1 		"/>
		<polygon class="st5" points="310.5,418.2 298.3,416.6 298,416.7 297.5,417 307.8,418.7 311.2,418.9 310.5,418.5 		"/>
		<polygon class="st5" points="320.6,418.7 319.5,419.3 324.6,419.5 330.5,419.2 331.5,418.6 		"/>
		<polygon class="st8" points="337.5,408.9 349.8,401.8 349.8,401.5 344.6,398.5 327,408.6 310.5,418.2 315.7,421.2 310.5,418.2 
			310.5,418.5 311.2,418.9 315.7,421.5 319.5,419.3 320.6,418.7 		"/>
		<polygon class="st7" points="331.5,418.6 343.2,411.9 337.5,408.9 320.6,418.7 		"/>
		<polygon class="st7" points="295.5,413.8 295,413.8 294.6,413.8 294.2,413.9 293.1,414.5 292.5,414.9 292.2,415 292,415.2 
			291.7,415.4 293,415.8 293.2,415.9 294.4,415.4 295.8,414.8 296.5,414.4 295.9,414 		"/>
		<polygon class="st7" points="260,403 259.3,402.8 259.8,403.1 260.3,403.5 260.7,403.7 261.5,403.3 		"/>
		<polygon class="st5" points="442.2,373.3 441.6,374.5 440.5,375.6 439.1,376.6 432.8,380.3 416.2,389.9 392.6,403.5 365.5,419.2 
			338.1,434.9 314,448.9 296.6,458.9 289.1,463.3 287.5,464 285.5,464.7 283.5,465 281.4,465.2 279.3,465.1 277.2,464.8 
			275.3,464.3 273.5,463.5 272.5,462.9 177.4,408 176.4,407.4 175.1,406.4 174.1,405.3 173.6,404.1 173.4,402.9 173.4,405.8 
			173.6,407 174.1,408.2 175.1,409.3 176.4,410.3 177.1,410.7 177.4,410.9 202.5,425.4 202.8,425.5 272.5,465.8 273.5,466.4 
			275.3,467.1 277.2,467.7 279.3,468 281.4,468.1 283.5,467.9 285.5,467.5 287.5,466.9 289.1,466.1 296.6,461.8 314,451.7 
			338.1,437.8 365.5,422 392.6,406.4 416.2,392.8 432.8,383.1 439.1,379.5 440.5,378.5 441.6,377.4 442.2,376.2 442.4,375 
			442.4,372.1 		"/>
		<polygon class="st7" points="324.3,316.7 329.2,316.8 334.1,317.1 339,317.5 343.8,318 348.6,318.7 353.3,319.6 358,320.6 
			342.5,311.7 340.8,310.9 338.8,310.4 336.8,310 334.7,309.9 332.5,310 330.5,310.4 328.6,311 326.8,311.8 318.3,316.7 
			319.4,316.8 		"/>
		<polygon class="st7" points="377,338.4 375.5,338.8 398.7,345.2 399.5,344.6 397.1,343.2 396.3,343.9 		"/>
		<polygon class="st9" points="266.6,406.1 261.9,403.4 261.6,403.2 261.5,403.3 260.7,403.7 260.2,404 251.9,408.8 257,411.7 		"/>
		<polygon class="st6" points="259.5,402 249.8,407.6 245.4,405 245.4,405.3 249.8,407.9 258.4,402.9 259.5,402.3 		"/>
		<polygon class="st9" points="259.5,402 255.1,399.5 254,400.1 245.4,405 249.8,407.6 		"/>
		<polygon class="st6" points="252.9,398.3 242.2,404.5 242.1,404.6 241.9,404.8 241.9,404.9 241.9,405.2 241.9,405 242.1,404.9 
			242.2,404.8 252.5,398.8 252.9,398.6 		"/>
		<polygon class="st9" points="241.8,405.1 241.9,404.9 241.9,404.8 242.1,404.6 242.2,404.5 252.9,398.3 252.9,398.2 248.8,395.8 
			248.1,395.4 247.8,395.5 237.4,401.5 237.2,401.6 236.9,401.8 236.7,401.8 236.4,401.8 236.1,401.8 235.8,401.8 235.6,401.7 
			235.3,401.6 235.1,401.5 229.6,398.4 229.6,398.4 229.4,398.5 219.6,404.1 221,404.9 224.1,406.7 228.2,409.1 232.8,411.7 
			237.4,414.4 241.3,416.6 244,418.2 244.9,418.7 245.4,418.4 246.5,417.7 248.1,416.8 249.9,415.8 251.7,414.7 253.3,413.8 
			254.4,413.2 254.8,412.9 242.3,405.7 242.1,405.5 241.9,405.4 241.9,405.2 241.9,405.2 		"/>
		<polygon class="st9" points="268.4,407.5 267.9,407.8 253.2,416.3 253.4,416.4 253.9,416.7 254.6,417.1 255.3,417.5 256.1,418 
			256.9,418.4 257.4,418.7 257.6,418.9 257.9,418.7 258.8,418.2 260.1,417.5 261.7,416.5 263.4,415.5 265,414.6 267,413.5 
			267.5,413.1 268.4,412.5 269,411.8 269.4,411 269.5,410.3 269.5,409.5 269.3,408.8 269.1,408.4 268.9,408 		"/>
		<polygon class="st6" points="298.3,416.6 298.8,416.2 299.3,415.8 299.6,415.3 299.7,414.9 299.7,413.7 299.6,414.1 299.3,414.6 
			298.8,415.1 298,415.5 297.2,416 297,416.1 296.4,416.4 295.6,416.8 294.9,417 294.5,417.1 294,417.1 293.6,417 293.2,416.9 
			293,416.6 292.9,416.4 292.9,417.6 293,417.8 293.2,418 293.6,418.2 294,418.3 294.5,418.3 294.9,418.2 295.6,418 296.4,417.6 
			297,417.3 297.2,417.2 297.5,417 298,416.7 		"/>
		<polygon class="st6" points="292,415.2 292.2,415 292.5,414.9 293.1,414.5 294.2,413.9 294.6,413.8 295,413.8 295.5,413.8 
			295.9,414 296.5,414.4 296.7,414.3 296.7,414.2 296.9,413.9 297,413.8 296.9,413.6 296.7,413.4 295.9,412.8 295.5,412.6 
			295,412.6 294.6,412.6 294.2,412.8 293.1,413.3 292.5,413.7 292.2,413.8 292,414 291.7,414.3 291.7,415.4 		"/>
		<polygon class="st6" points="291.5,415.6 291.7,415.5 291.7,414.3 291.5,414.4 290.8,414.7 290.8,415.9 		"/>
		<polygon class="st6" points="373.4,365 373.5,364.9 373.9,364.7 374,364.5 373.5,364.2 372,363.4 371.2,362.9 370.5,362.5 
			370.2,362.3 370.1,362 370.1,363.2 370.2,363.5 370.5,363.7 371.2,364.1 372,364.5 372.4,364.7 373.2,365.1 		"/>
		<polygon class="st9" points="293.2,416.9 293.6,417 294,417.1 294.5,417.1 294.9,417 295.6,416.8 296.4,416.4 297,416.1 
			297.2,416 298,415.5 298.8,415.1 299.3,414.6 299.6,414.1 299.7,413.7 299.5,413.3 299.2,412.9 298.7,412.4 297.9,411.9 
			296.7,411.3 295.6,411 294.9,410.9 294.2,411 293.6,411.2 293,411.5 292.8,411.6 292.5,411.8 292.3,411.9 291.1,412.6 
			290.5,412.9 290.1,412.9 289.7,412.7 289.3,412.5 288.7,412.1 288.1,411.7 288.1,411.7 288.1,411.6 288,411.5 288.1,411.3 
			289.2,410.6 290.8,409.6 291.4,409.2 291.6,409 291.7,408.6 291.3,408.3 290.9,408.1 290.4,408 289.9,408.1 289.4,408.2 
			289.3,408.4 289,408.5 288.8,408.7 288.7,408.8 286.6,410.2 286.3,410.4 285.8,410.6 285.3,410.8 285,411 284.7,411.3 
			284.7,411.6 284.8,411.8 285.2,412.1 285.9,412.5 287,413.2 288.1,413.9 288.9,414.3 289.5,414.6 290.1,414.8 290.8,414.7 
			291.5,414.4 291.7,414.3 292,414 292.2,413.8 292.5,413.7 293.1,413.3 294.2,412.8 294.6,412.6 295,412.6 295.5,412.6 
			295.9,412.8 296.7,413.4 296.9,413.6 297,413.8 296.9,413.9 296.7,414.2 296.7,414.3 296.5,414.4 295.8,414.8 294.4,415.4 
			293.2,415.9 293.2,415.9 292.9,416.1 292.9,416.3 292.9,416.4 293,416.6 		"/>
		<polygon class="st9" points="300.6,402.1 300.5,402.4 300.6,402.7 300.8,402.9 301.3,403.1 301.7,403.1 302.2,403.1 302.6,402.9 
			305.7,401.1 306,400.9 306.3,400.9 306.6,400.9 306.9,401 310.5,403 314.2,405.1 314.6,405.3 315.1,405.4 315.6,405.3 316,405.1 
			316.3,404.9 316.4,404.6 316.3,404.3 316,404.1 308,399.4 307.2,399 306.8,399 306.4,399 305.8,399.2 304.9,399.6 302.8,400.7 
			301,401.8 300.8,401.9 		"/>
		<path class="st9" d="M330.7,387.9l-0.9-0.5l-0.8-0.3l-0.8-0.2h-0.7l-0.6,0.1l-0.7,0.2l-0.8,0.3l-0.9,0.5l-0.8,0.5l-0.6,0.5
			l-0.4,0.4l-0.2,0.4v0.4l0.3,0.5l0.5,0.5l0.8,0.5l0.9,0.5l0.9,0.3l0.8,0.2h0.8l0.7-0.1l0.8-0.2l0.8-0.4l0.9-0.5l0.5-0.3l0.3-0.2
			l0.2-0.1l0.3-0.1l0.3,0.1l3.3,1.8l0.4,0.2l0.5,0.1l0.5-0.1l0.4-0.2l0.3-0.3l0.1-0.3l-0.1-0.3l-0.3-0.3l-1.1-0.6l-2.6-1.4
			L330.7,387.9z M330,390l-0.1,0.1l-0.3,0.2l-0.2,0.1l-0.1,0.1l-0.4,0.2l-0.8,0.4l-0.6,0.1l-0.6-0.1l-0.8-0.4l-0.3-0.2l-0.3-0.2
			l-0.1-0.1l-0.1-0.2v-0.2l0.3-0.4l0.8-0.5l0.8-0.4l0.6-0.1l0.6,0.1l0.8,0.4l0.8,0.4l0.3,0.2L330,390z"/>
		<polygon class="st6" points="344.7,388.2 344.3,388.6 343.7,389.1 342.9,389.6 342,390.1 341.1,390.4 340.4,390.6 339.8,390.8 
			339,390.7 338.3,390.5 337.4,390.2 336.5,389.8 335.7,389.2 335.4,388.7 335.5,388.3 335.8,387.6 334.7,387.9 334.2,387.9 
			333.7,387.8 333,387.6 332,387.1 331.3,386.6 330.8,386.2 330.5,385.7 330.5,386.9 330.8,387.4 331.3,387.8 332,388.3 333,388.8 
			333.7,389 334.2,389.1 334.7,389 335.4,388.9 335.4,389.9 335.7,390.4 336.5,390.9 336.5,390.9 337.4,391.4 338.3,391.7 
			339,391.9 339.8,391.9 340.4,391.8 341.1,391.6 342,391.3 342.9,390.8 343.7,390.3 344.3,389.8 344.7,389.4 344.9,389 
			344.9,388.8 344.9,387.8 		"/>
		<polygon class="st9" points="359.5,369.2 360.3,369.6 361.4,370.3 362.5,370.9 363.2,371.4 363.9,371.7 364.5,371.8 365.1,371.8 
			365.8,371.5 366,371.4 366.3,371.1 366.6,370.9 366.8,370.7 367.4,370.4 368.5,369.8 368.9,369.7 369.4,369.7 369.8,369.7 
			370.2,369.9 371,370.5 371.3,370.7 371.3,370.9 371.3,371 371,371.3 371,371.3 370.8,371.5 370.1,371.9 368.8,372.5 367.5,373 
			367.3,373.2 367.2,373.4 367.3,373.7 367.6,373.9 368,374.1 368.4,374.2 368.8,374.2 369.3,374.1 369.9,373.9 370.7,373.5 
			371.3,373.2 371.5,373 372.4,372.6 373.1,372.1 373.6,371.7 373.9,371.2 374,370.8 373.9,370.4 373.6,369.9 373,369.5 372.3,369 
			371,368.4 369.9,368.1 369.2,368 368.7,368.1 368.6,368.1 367.9,368.3 367.3,368.6 367.1,368.7 366.9,368.9 366.6,369 
			365.5,369.6 364.8,370 364.5,370 364,369.8 363.7,369.6 363.1,369.1 362.5,368.8 362.5,368.8 362.4,368.7 362.3,368.6 
			362.5,368.4 363.5,367.7 365.2,366.7 365.7,366.3 366,366.1 366,365.7 365.6,365.3 365.2,365.2 364.7,365.1 364.2,365.1 
			363.8,365.3 363.6,365.4 363.4,365.6 363.1,365.8 363,365.9 360.9,367.3 360.6,367.5 360.1,367.7 359.6,367.9 359.3,368.1 
			359,368.3 359,368.6 359.2,368.9 		"/>
		<polygon class="st9" points="367.2,364.5 369.3,365.7 371.4,366.8 371.9,367.1 372.4,367.2 372.9,367.1 373.3,367 373.5,366.8 
			373.8,366.6 375.5,365.8 375.9,365.6 376,365.7 376.1,365.7 377.6,366.6 378,366.8 378.5,367.1 379,367.4 379.3,367.6 
			379.7,367.8 380.2,367.8 380.6,367.8 381,367.6 381.3,367.4 381.4,367.1 381.2,366.8 380.9,366.6 380.5,366.3 379.1,365.5 
			378.6,365.3 378.4,365.2 378.3,365.1 377.8,364.8 377.6,364.7 377.6,364.6 377.8,364.5 378.3,364.1 378.6,363.8 378.7,363.6 
			378.6,363.4 378.4,363.2 378,363 377.6,362.9 377.1,362.9 376.7,363 376.4,363.2 376.1,363.5 375.9,363.5 375.6,363.5 
			374.9,363.1 374.4,362.8 373.6,362.4 372.4,361.6 371.9,361.4 371.5,361.3 371,361.3 370.5,361.5 370.2,361.8 370.1,362 
			370.2,362.3 370.5,362.5 371.2,362.9 372,363.4 373.5,364.2 374,364.5 373.9,364.7 373.5,364.9 373.4,365 373.2,365.1 
			373.1,365.2 372.9,365.3 372.6,365.4 372.3,365.5 372.1,365.4 371.7,365.2 371.3,365 369.9,364.1 369.4,363.8 368.3,363.3 
			368,363.3 367.7,363.3 367.1,363.5 366.8,363.8 366.7,364 366.9,364.3 		"/>
		<path class="st9" d="M330.8,386.2l0.5,0.5l0.7,0.5l1,0.5l0.8,0.2h0.5h0.5l1.1-0.2l-0.3,0.7l-0.1,0.4l0.3,0.5l0.9,0.6l0.9,0.5
			l0.8,0.3l0.8,0.2h0.7l0.7-0.1l0.7-0.2l0.8-0.4l0.9-0.5l0.8-0.5l0.6-0.5l0.4-0.4l0.2-0.4l-0.1-0.4l-0.3-0.5l-0.6-0.5l-0.8-0.5
			l-1-0.5l-0.7-0.2h-0.8l-0.8,0.1l0,0l-0.4,0.1l0.4-0.6v-0.5l-0.4-0.4l-0.8-0.5l-0.9-0.4l-0.8-0.3l-0.8-0.2h-0.7l-0.7,0.1l-0.7,0.2
			l-0.8,0.3l-0.9,0.5l-0.8,0.5l-0.6,0.5l-0.4,0.4l-0.2,0.4v0.4L330.8,386.2z M338,387.9l0.2-0.4l0.3-0.5l0.9-0.2l0.8-0.1h0.6
			l0.4,0.1l0.7,0.5l0.2,0.4l-0.2,0.4l-0.3,0.2l-0.4,0.3l-0.8,0.3l-0.7,0.1H339l-0.7-0.3l-0.1-0.1l-0.1-0.1l-0.2-0.2L338,387.9z
			 M333.2,385.3l0.3-0.3l0.6-0.4l0.7-0.3l0.6-0.1h0.6l0.7,0.3l0.6,0.4l0.2,0.4l-0.2,0.4v0.1l-0.1,0.2H337l-0.8,0.2l-0.7,0.1H335
			l-0.5-0.1L334,386l-0.1-0.1l-0.2-0.2l-0.2-0.1l-0.1-0.2L333.2,385.3z"/>
		<polygon class="st6" points="378.3,364.1 377.8,364.5 377.6,364.6 377.6,364.7 377.8,364.8 378.3,365.1 378.4,365.2 378.6,365 
			378.7,364.8 378.7,363.9 378.7,363.6 378.6,363.8 		"/>
		<polygon class="st6" points="269,411.8 268.4,412.5 267.5,413.1 267,413.5 265,414.6 263.4,415.5 261.7,416.5 260.1,417.5 
			258.8,418.2 257.9,418.7 257.6,418.9 257.4,418.7 256.9,418.4 256.1,418 255.3,417.5 254.6,417.1 253.9,416.7 253.4,416.4 
			253.2,416.3 253.2,416.6 253.4,416.7 253.9,417 254.6,417.4 255.3,417.8 256.1,418.3 256.9,418.7 257.4,419 257.6,419.1 
			257.9,419 258.8,418.5 260.1,417.7 261.7,416.8 263.4,415.8 265,414.9 267,413.8 267.5,413.4 268.4,412.8 269,412.1 269.4,411.3 
			269.5,410.6 269.5,410.3 269.4,411 		"/>
		<polygon class="st6" points="253.3,413.8 251.7,414.7 249.9,415.8 248.1,416.8 246.5,417.7 245.4,418.4 244.9,418.7 244,418.2 
			241.3,416.6 237.4,414.4 232.8,411.7 228.2,409.1 224.1,406.7 221,404.9 219.6,404.1 219.6,404.4 221,405.2 224.1,407 
			228.2,409.4 232.8,412 237.4,414.6 241.3,416.9 244,418.5 244.9,419 245.4,418.7 246.5,418 248.1,417.1 249.9,416 251.7,415 
			253.3,414.1 254.4,413.5 254.8,413.2 254.8,412.9 254.4,413.2 		"/>
		<polygon class="st6" points="290.1,414.8 289.5,414.6 288.9,414.3 288.1,413.9 287,413.2 285.9,412.5 285.2,412.1 284.8,411.8 
			284.7,411.6 284.7,412.8 284.8,413 285.2,413.3 285.9,413.7 285.9,413.7 287,414.4 288.1,415.1 288.2,415.1 288.9,415.5 
			289.5,415.8 290.1,416 290.8,415.9 290.8,414.7 		"/>
		<polygon class="st6" points="290.8,410.8 291.4,410.4 291.6,410.2 291.7,409.8 291.7,408.6 291.6,409 291.4,409.2 290.8,409.6 
			289.2,410.6 288.1,411.3 288,411.5 288.1,411.7 288.1,411.7 288.7,412.1 289.2,411.8 		"/>
		<polygon class="st6" points="316,405.1 315.6,405.3 315.1,405.4 314.6,405.3 314.2,405.1 310.5,403 306.9,401 306.6,400.9 
			306.3,400.9 306,400.9 305.7,401.1 302.6,402.9 302.2,403.1 301.7,403.1 301.3,403.1 300.8,402.9 300.6,402.7 300.5,402.4 
			300.5,403.6 300.6,403.9 300.8,404.1 301.3,404.3 301.7,404.3 302.2,404.3 302.6,404.1 305.7,402.3 306,402.1 306.3,402.1 
			306.6,402.1 306.9,402.2 310.5,404.2 314.2,406.3 314.6,406.5 315.1,406.6 315.3,406.5 315.6,406.5 316,406.3 316.3,406 
			316.4,405.8 316.4,404.6 316.3,404.9 		"/>
		<polygon class="st6" points="337.4,392.8 336.9,393 336.5,393 336,393 335.6,392.8 332.3,391 332.1,390.9 331.7,391 331.5,391.1 
			331.3,391.3 330.8,391.6 329.9,392.1 329,392.5 328.3,392.7 327.6,392.8 326.8,392.8 326,392.6 325.1,392.3 324.2,391.8 
			323.4,391.3 322.9,390.8 322.6,390.4 322.5,389.9 322.5,390.7 322.5,391.1 322.6,391.5 322.9,392 323.4,392.5 324.2,393 
			325.1,393.5 326,393.8 326.8,394 327.6,394 328.3,393.9 329,393.7 329.9,393.3 330.8,392.8 331.3,392.5 331.5,392.3 331.7,392.2 
			332.1,392.1 332.3,392.1 335.6,394 336,394.2 336.5,394.2 336.9,394.2 337.4,394 337.7,393.8 337.8,393.5 337.8,392.3 
			337.7,392.6 		"/>
		<polygon class="st6" points="373.6,371.7 373.1,372.1 372.4,372.6 371.5,373 371.3,373.2 370.7,373.5 369.9,373.9 369.3,374.1 
			368.8,374.2 368.4,374.2 368,374.1 367.6,373.9 367.3,373.7 367.2,373.4 367.2,374.6 367.3,374.9 367.6,375.1 368,375.3 
			368.4,375.4 368.8,375.4 369.3,375.3 369.9,375.1 370.7,374.7 371.3,374.4 371.5,374.2 372.4,373.8 373.1,373.3 373.6,372.9 
			373.9,372.4 374,372 374,370.8 373.9,371.2 		"/>
		<polygon class="st6" points="362.5,372.1 363.2,372.6 363.9,372.9 364.5,373 365.1,373 365.8,372.7 366,372.5 366.3,372.3 
			366.6,372.1 366.8,371.9 367.4,371.6 368.5,371 368.9,370.9 369.4,370.9 369.8,370.9 370.2,371.1 370.8,371.5 371,371.3 
			371,371.3 371.3,371 371.3,370.9 371.3,370.7 371,370.5 370.2,369.9 369.8,369.7 369.4,369.7 368.9,369.7 368.5,369.8 
			367.4,370.4 366.8,370.7 366.6,370.9 366.3,371.1 366,371.4 365.8,371.5 365.1,371.8 364.5,371.8 363.9,371.7 363.2,371.4 
			362.5,370.9 361.4,370.3 360.3,369.6 359.5,369.2 359.2,368.9 359,368.6 359,369.8 359.2,370.1 359.5,370.4 360.3,370.8 
			361.1,371.3 361.4,371.5 		"/>
		<polygon class="st6" points="365.7,366.3 365.2,366.7 363.5,367.7 362.5,368.4 362.3,368.6 362.5,368.8 362.5,368.8 363.1,369.1 
			363.5,368.8 365.2,367.9 365.7,367.5 366,367.3 366,366.9 366,365.7 366,366.1 		"/>
		<polygon class="st6" points="371.9,368.3 372.4,368.4 372.9,368.3 373.3,368.1 373.5,368 373.8,367.8 375.5,367 375.9,366.8 
			376,366.9 376.1,366.9 377.6,367.8 378,368 378.5,368.3 379,368.6 379.3,368.8 379.7,369 380.2,369 380.6,368.9 381,368.8 
			381.3,368.5 381.4,368.3 381.4,367.1 381.3,367.4 381,367.6 380.6,367.8 380.2,367.8 379.7,367.8 379.3,367.6 379,367.4 
			378.5,367.1 378,366.8 377.6,366.6 376.1,365.7 376,365.7 375.9,365.6 375.5,365.8 373.8,366.6 373.5,366.8 373.3,367 
			372.9,367.1 372.4,367.2 371.9,367.1 371.4,366.8 369.3,365.7 367.2,364.5 366.9,364.3 366.7,364 366.7,365.2 366.9,365.5 
			367.2,365.7 369.3,366.9 369.7,367.1 371.4,368 		"/>
		<polygon class="st6" points="339.4,385.5 339.8,385.4 339.8,384.8 		"/>
		<polygon class="st5" points="284.8,351.4 280.5,344.6 284.5,336.3 264.6,347.7 273,352.6 		"/>
		<polygon class="st9" points="211.3,412.3 211.7,413.1 212.3,413.6 212.8,413.3 214,412.6 215.6,411.7 222.1,408 217.5,405.3 
			217.4,405.4 213.6,407.6 213.1,407.9 212.3,408.5 211.7,409.2 211.3,410 211.1,410.8 211.1,411 211.1,411.5 		"/>
		<polygon class="st6" points="214,412.6 212.8,413.3 212.3,413.6 211.7,413.1 211.3,412.3 211.1,411.5 211.1,411.8 211.3,412.6 
			211.7,413.4 212.3,413.9 212.8,413.6 214,412.9 215.6,412 222.1,408.2 222.1,408 215.6,411.7 		"/>
		<polygon class="st9" points="232.7,425.7 242.8,419.9 237.7,417 227.7,422.8 		"/>
		<polygon class="st6" points="227.7,422.8 227.7,423.1 232.7,426 242.8,420.2 242.8,419.9 232.7,425.7 		"/>
		<polygon class="st6" points="232.4,397.8 233.1,398.2 233.9,398.7 234.7,399.2 235.4,399.6 236,399.9 236.3,400 236.5,399.9 
			245,395 245.6,394.6 245.6,394.4 245,394.7 236.5,399.6 236.3,399.8 236,399.6 235.4,399.3 234.7,398.9 233.9,398.4 233.1,397.9 
			232.4,397.5 231.9,397.2 231.7,397.1 231.7,397.4 231.9,397.5 		"/>
		<polygon class="st9" points="232.4,397.5 233.1,397.9 233.9,398.4 234.7,398.9 235.4,399.3 236,399.6 236.3,399.8 236.5,399.6 
			245,394.7 245.6,394.4 245,394.1 243.7,393.8 242.3,393.7 241,393.6 239.6,393.7 238.3,393.9 237.1,394.3 235.9,394.7 
			235.3,395.1 231.8,397.1 231.7,397.1 231.9,397.2 		"/>
		<polygon class="st9" points="236,427 237.3,427.3 238.6,427.4 239.9,427.4 241.2,427.3 242.5,427.1 243.7,426.7 244.8,426.3 
			245.4,425.9 252.9,421.6 254.4,420.8 255.3,420.2 255.6,420.1 251.1,417.5 235.1,426.8 		"/>
		<polygon class="st6" points="254.4,420.8 252.9,421.6 245.4,425.9 244.8,426.3 243.7,426.7 242.5,427.1 241.2,427.3 239.9,427.4 
			238.6,427.4 237.3,427.3 236,427 235.1,426.8 235.1,427 236,427.3 237.3,427.6 238.6,427.7 239.9,427.7 241.2,427.6 242.5,427.4 
			243.7,427 244.8,426.5 245.4,426.2 252.9,421.9 254.4,421 255.3,420.5 255.6,420.4 255.6,420.1 255.3,420.2 		"/>
		<polygon class="st6" points="221.2,419 221.2,419.3 225.6,421.9 235.6,416.1 235.6,415.8 225.6,421.6 		"/>
		<polygon class="st9" points="225.6,421.6 235.6,415.8 231.2,413.2 221.2,419 		"/>
		<polygon class="st6" points="214.1,415 214.1,415.3 219.1,418.1 229.1,412.3 229.1,412 219.1,417.8 		"/>
		<polygon class="st9" points="219.1,417.8 229.1,412 224.2,409.2 214.1,415 		"/>
		<polygon class="st8" points="265.1,444.7 270.3,447.7 304.5,428 304.5,427.7 299.3,424.7 265.1,444.4 		"/>
		<polygon class="st9" points="263,434.6 262.6,434.5 262.1,434.4 261.6,434.4 261.3,434.5 261.2,434.6 261,434.8 260.4,435.1 
			259.8,435.4 259.6,435.4 259.4,435.4 253.3,431.8 252.8,431.5 252.2,431.1 251.8,431 251.4,430.8 251,430.8 250.5,430.8 
			250,431.1 249.6,431.4 249.4,431.9 249.4,432.4 249.8,432.8 250.3,433 250.9,433 251.4,433 251.8,433.1 254.8,434.7 256.4,435.7 
			257.6,436.5 257.6,436.6 257.4,436.8 256.8,437.1 256.1,437.5 255.8,437.8 255.8,438 255.9,438.2 256.3,438.5 256.7,438.7 
			257.1,438.7 257.6,438.7 258,438.5 263.1,435.6 263.3,435.3 263.4,435.1 263.3,434.8 		"/>
		<polygon class="st6" points="257.6,436.6 257.6,436.5 256.4,435.7 254.8,434.7 251.8,433.1 251.4,433 250.9,433 250.3,433 
			249.8,432.8 249.4,432.4 249.4,431.9 249.4,433.1 249.4,433.6 249.8,434 250.3,434.2 250.9,434.2 251.4,434.2 251.8,434.3 
			254.8,435.9 256.4,436.9 256.8,437.1 257.4,436.8 		"/>
		<polygon class="st6" points="263.1,435.6 258,438.5 257.6,438.7 257.1,438.7 256.7,438.7 256.3,438.5 255.9,438.2 255.8,438 
			255.8,439.2 255.9,439.4 256.3,439.7 256.7,439.9 257.1,439.9 257.6,439.9 258,439.7 263.1,436.8 263.3,436.5 263.4,436.3 
			263.4,435.1 263.3,435.3 		"/>
		<polygon class="st9" points="256,429 256.4,429.1 256.9,429.2 257.4,429.2 257.8,429.1 258.4,428.5 258.8,428.1 259.4,427.7 
			260.4,427.1 261.1,426.9 261.5,426.9 261.9,427 262.9,427.4 263.3,427.8 263.4,428.2 263.3,428.4 263.2,428.6 263.1,428.8 
			262.6,429.2 261.7,429.9 261.1,430.5 260.7,431.1 260.8,431.7 261.2,432.1 262,432.6 262.7,433 264.3,433.8 264.8,434 
			265.2,434.1 265.7,434 266.2,433.8 270.3,431.4 270.7,431.2 270.9,431.1 271.1,431.1 271.4,430.8 271.5,430.6 271.4,430.3 
			271.1,430.1 270.6,429.9 270.1,429.8 269.5,429.8 269.1,430 268.9,430.1 268.7,430.2 268.5,430.4 268.4,430.5 266.9,431.4 
			266.3,431.7 265.7,432 265.3,432.2 264.8,432.1 263.8,431.6 263.8,431.5 263.8,431.5 263.7,431.5 263.4,431.2 263.4,431.2 
			263.4,431.2 263.4,430.8 263.7,430.5 264.2,430 264.6,429.7 265.1,429.4 265.5,429 265.8,428.6 265.9,428.2 265.9,427.8 
			265.8,427.4 265.5,427 265,426.6 264.5,426.3 263.6,425.8 262.7,425.5 261.9,425.4 261.1,425.4 260.4,425.5 259.6,425.7 
			258.8,426.1 257.9,426.5 256.6,427.4 255.9,428 255.8,428.3 255.7,428.5 255.8,428.8 		"/>
		<polygon class="st6" points="256,430.1 256.4,430.3 256.9,430.4 257.4,430.4 257.8,430.3 258.4,429.6 258.8,429.3 259.4,428.9 
			260.4,428.3 261.1,428.1 261.5,428.1 261.9,428.2 262.9,428.6 263.1,428.8 263.2,428.6 263.3,428.4 263.4,428.2 263.3,427.8 
			262.9,427.4 261.9,427 261.5,426.9 261.1,426.9 260.4,427.1 259.4,427.7 258.8,428.1 258.4,428.5 257.8,429.1 257.4,429.2 
			256.9,429.2 256.4,429.1 256,429 255.8,428.8 255.7,428.5 255.7,429.7 255.8,430 		"/>
		<polygon class="st6" points="263.4,430.8 263.4,431.2 263.4,431.2 263.7,431.5 263.7,430.5 		"/>
		<polygon class="st6" points="271.1,431.1 270.9,431.2 271.1,431.3 271.1,432.3 271.4,432 271.5,431.8 271.5,430.6 271.4,430.8 		
			"/>
		<polygon class="st6" points="270.7,431.2 270.3,431.4 266.2,433.8 265.7,434 265.2,434.1 264.8,434 264.3,433.8 262.7,433 
			262,432.6 261.2,432.1 260.8,431.7 260.7,431.1 260.7,432.3 260.8,432.9 261.2,433.3 262,433.8 262.7,434.2 264.3,435 
			264.8,435.2 265.2,435.3 265.7,435.2 266.2,435 270.3,432.6 270.7,432.4 270.9,432.3 270.9,431.2 270.9,431.1 		"/>
		<polygon class="st6" points="265.5,429 265.1,429.4 264.6,429.7 264.2,430 263.7,430.5 263.8,431.5 263.8,431.5 263.8,431.6 
			264.2,431.2 264.6,430.9 265.1,430.6 265.5,430.2 265.8,429.8 265.9,429.4 265.9,428.2 265.8,428.6 		"/>
		<polygon class="st6" points="277.6,427.1 276.8,427.8 275.5,428.5 274.4,429.1 273.5,429.4 272.7,429.5 272.4,429.4 272.1,429.3 
			271.8,429 271.6,428.7 271.6,429.9 271.8,430.2 272.1,430.5 272.4,430.6 272.7,430.6 273.5,430.6 274.4,430.3 275.5,429.7 
			276.8,428.9 277.6,428.3 278.2,427.6 278.3,427.3 278.3,426.1 278.2,426.4 		"/>
		<polygon class="st9" points="263.9,424.5 264.3,424.6 264.7,424.7 265.1,424.6 265.5,424.5 266,424.1 266.2,423.9 266.4,423.8 
			267.6,423 268.4,422.5 269.1,422.4 269.5,422.4 269.9,422.4 270.7,422.8 271.2,423.1 271.5,423.4 271.6,423.6 271.5,423.7 
			271.4,423.8 271.2,423.9 270.9,424.1 270.1,424.5 268.9,425.3 268.7,425.5 268.7,425.8 268.8,426 269.1,426.2 269.5,426.4 
			270,426.4 270.5,426.3 270.9,426.2 271.4,425.9 271.6,425.7 271.7,425.5 272.1,425.3 272.9,424.9 273.4,424.7 273.9,424.7 
			274.9,425.2 275.3,425.5 275.5,425.8 275.6,426.1 275.5,426.2 275.4,426.4 275.3,426.5 275.2,426.6 274.8,426.9 273.7,427.6 
			272,428.2 271.7,428.4 271.6,428.7 271.8,429 272.1,429.3 272.4,429.4 272.7,429.5 273.5,429.4 274.4,429.1 275.5,428.5 
			276.8,427.8 277.6,427.1 278.2,426.4 278.3,426.1 278.3,425.8 278.2,425.4 277.8,425 277.4,424.6 276.7,424.2 275.5,423.6 
			274.8,423.4 274,423.3 273.9,423.3 273.9,423.2 273.8,422.9 273.4,422.5 273,422 272.3,421.6 271.4,421.2 270.5,420.9 
			269.6,420.7 268.8,420.8 268.2,420.9 267.4,421.2 265.6,422.1 264.6,422.7 264,423.2 263.6,423.6 263.5,423.9 263.6,424.2 		"/>
		<polygon class="st6" points="275.4,426.4 275.5,426.2 275.5,425.8 275.3,425.5 274.9,425.2 273.9,424.7 273.4,424.7 272.9,424.9 
			272.1,425.3 271.7,425.5 271.6,425.7 271.4,425.9 270.9,426.2 270.5,426.3 270,426.4 269.5,426.4 269.1,426.2 268.8,426 
			268.7,425.8 268.7,427 268.8,427.2 269.1,427.4 269.5,427.5 270,427.6 270.5,427.5 270.9,427.4 271.4,427.1 271.6,426.8 
			271.7,426.7 272.1,426.5 272.9,426 273.4,425.9 273.9,425.9 274.9,426.4 275.2,426.6 275.3,426.5 		"/>
		<polygon class="st6" points="263.9,425.6 264.3,425.8 264.7,425.9 265.1,425.8 265.5,425.7 266,425.3 266.2,425.1 266.4,425 
			267.6,424.2 268.4,423.7 269.1,423.5 269.5,423.5 269.9,423.6 270.7,424 270.9,424.1 271.2,423.9 271.4,423.8 271.5,423.7 
			271.6,423.6 271.5,423.4 271.2,423.1 270.7,422.8 269.9,422.4 269.5,422.4 269.1,422.4 268.4,422.5 267.6,423 266.4,423.8 
			266.2,423.9 266,424.1 265.5,424.5 265.1,424.6 264.7,424.7 264.3,424.6 263.9,424.5 263.6,424.2 263.5,423.9 263.5,425.1 
			263.6,425.4 		"/>
		<polygon class="st9" points="271.6,419.8 273.6,420.9 275.7,422 276.3,422.3 276.8,422.4 277.3,422.4 277.7,422.2 277.9,422 
			278.1,421.9 279.8,421 280.3,420.9 280.4,420.9 280.5,421 282,421.8 282.4,422 282.8,422.3 283.3,422.6 283.7,422.9 284.1,423 
			284.5,423 285,423 285.4,422.8 285.7,422.6 285.7,422.3 285.6,422 285.3,421.8 284.8,421.5 283.5,420.8 283,420.5 282.8,420.4 
			282.6,420.3 282.1,420 282,419.9 282,419.8 282.1,419.7 282.6,419.3 282.9,419 283,418.8 283,418.6 282.8,418.4 282.4,418.2 
			281.9,418.1 281.4,418.1 281,418.2 280.8,418.4 280.5,418.7 280.3,418.7 280,418.7 279.3,418.4 278.7,418 278,417.6 276.8,416.9 
			276.3,416.6 275.9,416.5 275.4,416.5 274.9,416.7 274.6,417 274.5,417.2 274.6,417.5 274.9,417.8 275.5,418.1 276.4,418.6 
			277.9,419.4 278.4,419.7 278.2,419.9 277.9,420.1 277.8,420.3 277.5,420.4 277.5,420.4 277.3,420.5 277,420.6 276.7,420.7 
			276.4,420.6 276.1,420.5 275.6,420.2 274.3,419.3 273.8,419 272.7,418.5 272.4,418.5 272.1,418.5 271.4,418.7 271.1,419 
			271.1,419.2 271.3,419.5 		"/>
		<polygon class="st6" points="277.9,420.1 278.2,419.9 278.4,419.7 277.9,419.4 276.4,418.6 275.5,418.1 274.9,417.8 274.6,417.5 
			274.5,417.2 274.5,418.4 274.6,418.7 274.9,419 275.5,419.3 276.4,419.8 277.5,420.4 277.8,420.3 		"/>
		<polygon class="st6" points="282.6,419.3 282.1,419.7 282,419.8 282,419.9 282.1,420 282.6,420.3 282.8,420.4 282.9,420.2 
			283,420 283,418.8 282.9,419 		"/>
		<polygon class="st6" points="271.6,421 273.6,422.1 275.7,423.2 276.3,423.5 276.8,423.6 277.3,423.5 277.7,423.4 277.9,423.2 
			278.1,423 279.8,422.2 280.3,422 280.4,422.1 280.5,422.1 282,423 282.4,423.2 282.8,423.5 283.3,423.8 283.7,424 284.1,424.2 
			284.5,424.2 285,424.1 285.4,424 285.7,423.8 285.7,423.5 285.7,422.3 285.7,422.6 285.4,422.8 285,423 284.5,423 284.1,423 
			283.7,422.9 283.3,422.6 282.8,422.3 282.4,422 282,421.8 280.5,421 280.4,420.9 280.3,420.9 279.8,421 278.1,421.9 277.9,422 
			277.7,422.2 277.3,422.4 276.8,422.4 276.3,422.3 275.7,422 273.6,420.9 271.6,419.8 271.3,419.5 271.1,419.2 271.1,420.4 
			271.3,420.7 		"/>
		<polygon class="st6" points="292.8,408.6 299.6,412.4 300.4,412.8 301.1,413 301.9,413.2 302.6,413.2 303.4,413.1 304.1,413 
			304.9,412.7 305.7,412.3 306.5,411.8 307,411.3 307.4,410.9 307.5,410.5 307.5,409.3 307.4,409.7 307,410.1 306.5,410.6 
			305.7,411.1 304.9,411.5 304.1,411.8 303.4,412 302.6,412 301.9,412 301.1,411.8 300.4,411.6 299.6,411.2 292.8,407.4 
			292.5,407.2 292.4,406.9 292.4,408.1 292.5,408.4 		"/>
		<path class="st9" d="M292.8,407.4l6.8,3.8l0.8,0.4l0.8,0.3l0.8,0.1h0.8l0.8-0.1l0.8-0.2l0.8-0.3l0.8-0.4l0.8-0.5l0.6-0.5l0.4-0.4
			l0.2-0.4v-0.5l-0.3-0.5l-0.5-0.5l-0.8-0.5l-0.9-0.5l-0.9-0.3l-0.8-0.2H303l-0.7,0.1l-0.8,0.2l-0.9,0.4l-0.9,0.5l-0.2,0.1l-0.3,0.2
			l-0.2,0.2l-0.2,0.1l-0.3,0.1l-0.3-0.1l-3.3-1.8l-0.4-0.2l-0.5-0.1l-0.5,0.1l-0.4,0.2l-0.3,0.3l-0.1,0.3l0.1,0.3V407.4z
			 M300.2,409.1l1.2-0.8l0.7-0.3l0.6-0.1l0.6,0.1l0.7,0.3l0.6,0.5l0.2,0.4l-0.2,0.2l-0.1,0.1l-0.3,0.2l-0.5,0.3l-0.5,0.3l-0.5,0.1
			h-0.5h-0.4l-0.9-0.4l-0.3-0.2l-0.5-0.3l-0.1-0.1l-0.1-0.1L300.2,409.1z"/>
		<polygon class="st7" points="303.4,409.2 302.8,409.1 302.1,409.2 301.4,409.5 300.9,409.9 301.2,410.1 302.1,410.5 302.5,410.5 
			303,410.5 303.5,410.3 304,410.1 304.4,409.8 304.1,409.6 		"/>
		<polygon class="st6" points="300.4,409.6 300.9,409.9 301.4,409.5 302.1,409.2 302.8,409.1 303.4,409.2 304.1,409.6 304.4,409.8 
			304.7,409.6 304.8,409.5 305,409.2 304.8,408.8 304.1,408.4 303.4,408 302.8,407.9 302.1,408 301.4,408.4 300.2,409.1 
			300.1,409.4 300.2,409.5 		"/>
		<path class="st9" d="M309.5,398.4l0.5,0.5l0.7,0.5l1,0.5l0.8,0.2h0.5h0.5l1.1-0.2l-0.3,0.7l-0.1,0.4l0.3,0.5l0.9,0.6l0.9,0.5
			l0.8,0.3l0.8,0.2h0.7l0.7-0.1l0.7-0.2l0.8-0.4l0.9-0.5l0.8-0.5l0.6-0.5l0.4-0.4l0.2-0.4l-0.1-0.4l-0.3-0.5l-0.6-0.5l-0.8-0.5
			l-1-0.5l-0.7-0.2h-0.8l-0.8,0.1l0,0l-0.4,0.1l0.4-0.6v-0.5l-0.4-0.4l-0.8-0.5l-0.9-0.4l-0.8-0.3l-0.8-0.2h-0.7l-0.7,0.1l-0.7,0.2
			l-0.8,0.3l-0.9,0.5l-0.8,0.5l-0.6,0.5l-0.4,0.4l-0.2,0.4v0.4L309.5,398.4z M316.7,400.1l0.2-0.4l0.3-0.5l0.9-0.2l0.8-0.1h0.6
			l0.4,0.1l0.7,0.5l0.2,0.4l-0.2,0.3l0,0l-0.3,0.2l-0.4,0.3l-0.8,0.3l-0.7,0.1l-0.7-0.1l-0.7,0l-0.1-0.1l-0.1-0.1l-0.2-0.2
			L316.7,400.1z M312,397.5l0.3-0.3l0.6-0.4l0.7-0.3l0.6-0.1h0.6l0.7,0.3l0.6,0.4l0.2,0.4l-0.2,0.4v0.1l-0.1,0.2l-0.2,0.3l-0.8,0.2
			l-0.7,0.1h-0.5l-0.5-0.1l-0.5-0.2l-0.1-0.1l-0.2-0.2l-0.2-0.1l-0.1-0.2l0,0L312,397.5L312,397.5z"/>
		<polygon class="st6" points="323,400.9 322.4,401.4 321.6,401.9 320.7,402.4 319.9,402.7 319.1,402.9 318.5,403 317.8,403 
			317,402.8 316.1,402.5 315.2,402 314.4,401.5 314.1,401 314.2,400.6 314.5,399.9 313.4,400.1 312.9,400.2 312.5,400.1 
			311.7,399.9 310.7,399.4 310,398.9 309.5,398.4 309.2,398 309.2,399.2 309.5,399.6 310,400.1 310.7,400.6 311.7,401.1 
			312.5,401.3 312.9,401.4 313.4,401.3 314.1,401.2 314.1,402.2 314.4,402.6 315.2,403.2 316.1,403.7 317,404 317.8,404.2 
			318.5,404.2 319.1,404.1 319.9,403.9 320.7,403.5 321.6,403.1 322.4,402.6 323,402.1 323.4,401.6 323.6,401.3 323.6,400.1 
			323.4,400.5 		"/>
		<polygon class="st6" points="318.1,397.7 318.5,397.7 318.5,397.1 		"/>
		<polygon class="st5" points="315.4,397.8 314.7,397.5 314.1,397.5 313.5,397.6 312.9,398 312.4,398.2 312.6,398.4 313.1,398.6 
			313.6,398.7 314.2,398.7 314.8,398.5 315.7,398.4 315.8,398.1 315.8,398.1 		"/>
		<polygon class="st6" points="311.9,397.8 312,397.9 312.2,398.1 312.4,398.2 312.9,398 313.5,397.6 314.1,397.5 314.7,397.5 
			315.4,397.8 315.8,398.1 316,397.9 316,397.9 316.2,397.4 316,397 315.4,396.6 314.7,396.3 314.1,396.3 313.5,396.4 312.9,396.8 
			312.2,397.2 311.9,397.5 		"/>
		<polygon class="st5" points="319.5,400.2 318.9,400.2 318.2,400.3 317.3,400.5 317,400.9 317,401 317.7,401.3 318.5,401.4 
			319.2,401.2 319.9,400.9 320.3,400.6 320,400.4 		"/>
		<polygon class="st6" points="316.9,400.8 317,400.9 317.3,400.5 318.2,400.3 318.9,400.2 319.5,400.2 320,400.4 320.3,400.6 
			320.6,400.4 320.6,400.4 320.8,400 320.6,399.6 320,399.2 319.5,399 318.9,399 318.2,399.1 317.3,399.3 316.9,399.8 316.7,400.1 
			316.7,400.6 		"/>
		<polygon class="st6" points="329.1,389.1 328.3,388.7 327.7,388.6 327.1,388.7 326.3,389.1 325.5,389.6 325.2,389.9 325.2,390.1 
			325.3,390.3 325.5,390.4 325.7,390.6 326.3,390.3 327.1,389.9 327.7,389.8 328.3,389.9 329.1,390.3 329.3,390.4 329.5,390.3 
			329.8,390.1 329.9,390 330.1,389.8 329.8,389.5 		"/>
		<polygon class="st5" points="328.3,389.9 327.7,389.8 327.1,389.9 326.3,390.3 325.7,390.6 326,390.8 326.8,391.2 327.4,391.3 
			328,391.1 328.8,390.7 329.2,390.5 329.3,390.4 329.1,390.3 		"/>
		<polygon class="st7" points="336,385.2 335.4,385.2 334.8,385.3 334.1,385.7 333.7,386 333.9,386.1 334.4,386.3 334.9,386.4 
			335.4,386.4 336.1,386.3 336.9,386.1 337.1,385.8 336.7,385.5 		"/>
		<polygon class="st6" points="333.3,385.6 333.5,385.8 333.7,386 334.1,385.7 334.8,385.3 335.4,385.2 336,385.2 336.7,385.5 
			337.1,385.8 337.3,385.6 337.3,385.6 337.5,385.1 337.3,384.8 336.7,384.3 336,384 335.4,384 334.8,384.1 334.1,384.5 
			333.5,384.9 333.2,385.2 333.2,385.5 		"/>
		<polygon class="st7" points="340.8,387.9 340.2,387.9 339.5,388 338.5,388.2 338.3,388.6 338.3,388.7 339,389 339.7,389.1 
			340.5,388.9 341.2,388.6 341.6,388.3 341.2,388.1 		"/>
		<polygon class="st6" points="338.2,388.5 338.3,388.6 338.5,388.2 339.5,388 340.2,387.9 340.8,387.9 341.2,388.1 341.6,388.3 
			341.9,388.1 341.9,388.1 342.1,387.8 341.9,387.4 341.2,386.9 340.8,386.7 340.2,386.7 339.5,386.8 338.5,387 338.2,387.5 
			338,387.9 338,388.4 		"/>
		<polygon class="st6" points="338,382.6 338.5,382.8 338.9,382.9 339.4,382.8 339.8,382.6 342.9,380.8 343.2,380.7 343.5,380.6 
			343.8,380.6 344.1,380.8 347.7,382.7 351.4,384.8 351.8,385 352.3,385.1 352.8,385 353.2,384.8 353.5,384.6 353.6,384.3 
			353.6,383.1 353.5,383.4 353.2,383.6 352.8,383.9 352.3,383.9 351.8,383.9 351.4,383.6 347.7,381.5 344.1,379.6 343.8,379.5 
			343.5,379.4 343.2,379.5 342.9,379.6 339.8,381.4 339.4,381.6 338.9,381.7 338.5,381.6 338,381.4 337.7,381.2 337.7,380.9 
			337.7,382.1 337.7,382.4 		"/>
		<polygon class="st9" points="338,381.4 338.5,381.6 338.9,381.7 339.4,381.6 339.8,381.4 342.9,379.6 343.2,379.5 343.5,379.4 
			343.8,379.5 344.1,379.6 347.7,381.5 351.4,383.6 351.8,383.9 352.3,383.9 352.8,383.9 353.2,383.6 353.5,383.4 353.6,383.1 
			353.5,382.9 353.2,382.6 345.1,377.9 344.4,377.6 344,377.5 343.6,377.5 342.9,377.7 342.1,378.1 340,379.3 338,380.4 
			337.8,380.7 337.7,380.9 337.7,381.2 		"/>
		<polygon class="st6" points="345.9,378 352.7,381.8 353.4,382.1 354.2,382.4 354.9,382.5 355.7,382.6 356.5,382.5 357.2,382.3 
			358,382 358.8,381.6 359.5,381.2 360.1,380.7 360.5,380.3 360.6,379.8 360.6,378.6 360.5,379.1 360.1,379.5 359.5,380 
			358.8,380.5 358,380.9 357.2,381.1 356.5,381.3 355.7,381.4 354.9,381.4 354.2,381.2 353.4,381 352.7,380.6 345.9,376.8 
			345.6,376.5 345.5,376.3 345.5,377.5 345.6,377.7 		"/>
		<path class="st9" d="M345.9,376.8l6.8,3.8l0.8,0.4l0.8,0.3l0.8,0.1h0.8l0.8-0.1l0.8-0.2l0.8-0.3l0.8-0.4l0.8-0.5l0.6-0.5l0.4-0.4
			l0.2-0.4v-0.5l-0.3-0.5l-0.5-0.5l-0.7-0.5l-0.9-0.5l-0.9-0.3l-0.8-0.2h-0.8l-0.7,0.1l-0.8,0.2l-0.9,0.4l-0.9,0.5l-0.2,0.1
			l-0.3,0.2l-0.2,0.2l-0.2,0.1l-0.3,0.1l-0.3-0.1l-3.3-1.8l-0.4-0.2l-0.5-0.1l-0.5,0.1l-0.4,0.2l-0.3,0.3l-0.1,0.3l0.1,0.3
			L345.9,376.8z M353.3,378.5l1.2-0.8l0.7-0.3l0.6-0.1l0.6,0.1l0.7,0.3l0.6,0.5l0.2,0.4l-0.2,0.2l-0.1,0.1l-0.3,0.2l-0.5,0.3
			l-0.5,0.3l-0.5,0.1h-0.5h-0.4l-0.9-0.4l-0.3-0.2l-0.5-0.3l-0.1-0.1l-0.1-0.1L353.3,378.5z"/>
		<polygon class="st7" points="356.5,378.6 355.9,378.5 355.2,378.6 354.5,378.9 354,379.3 354.3,379.4 355.2,379.8 355.6,379.9 
			356,379.8 356.5,379.7 357,379.4 357.5,379.1 357.2,378.9 		"/>
		<polygon class="st6" points="353.4,379 354,379.3 354.5,378.9 355.2,378.6 355.9,378.5 356.5,378.6 357.2,378.9 357.5,379.1 
			357.7,379 357.8,378.8 358,378.6 357.8,378.2 357.2,377.7 356.5,377.4 355.9,377.3 355.2,377.4 354.5,377.7 353.3,378.5 
			353.2,378.7 353.3,378.8 		"/>
		<polygon class="st6" points="389.1,362.8 388.3,363.4 387,364.1 385.9,364.7 385,365 384.2,365.1 383.9,365 383.6,364.9 
			383.3,364.6 383.2,364.3 383.2,365.5 383.3,365.8 383.6,366.1 383.9,366.2 384.2,366.3 385,366.2 385.9,365.9 387,365.3 
			388.3,364.5 389.1,364 389.7,363.2 389.8,362.9 389.8,361.7 389.7,362 		"/>
		<polygon class="st9" points="389.7,361 389.4,360.6 388.9,360.2 388.2,359.8 387,359.2 386.3,359 385.6,358.9 385.4,358.9 
			385.4,358.9 385.3,358.5 385,358.1 384.5,357.7 383.8,357.2 382.9,356.8 382,356.5 381.2,356.4 380.3,356.4 379.7,356.5 
			378.9,356.8 377.2,357.7 376.2,358.3 375.5,358.8 375.2,359.2 375,359.5 375.1,359.8 375.4,360.1 375.8,360.2 376.2,360.3 
			376.6,360.3 377,360.1 377.5,359.7 377.7,359.5 377.9,359.4 379.1,358.6 380,358.2 380.6,358 381,358 381.4,358 382.2,358.4 
			382.7,358.8 383,359 383.1,359.3 383,359.3 382.9,359.4 382.7,359.5 382.4,359.7 381.6,360.1 380.4,360.9 380.3,361.1 
			380.2,361.4 380.3,361.6 380.6,361.8 381,362 381.5,362 382,362 382.5,361.8 382.9,361.5 383.1,361.3 383.3,361.1 383.6,360.9 
			384.4,360.5 384.9,360.3 385.4,360.4 386.4,360.8 386.8,361.1 387,361.4 387.1,361.7 387,361.8 386.9,362 386.8,362.1 
			386.7,362.2 386.4,362.5 385.2,363.2 383.5,363.8 383.3,364 383.2,364.3 383.3,364.6 383.6,364.9 383.9,365 384.2,365.1 385,365 
			385.9,364.7 387,364.1 388.3,363.4 389.1,362.8 389.7,362 389.8,361.7 389.8,361.4 		"/>
		<polygon class="st6" points="386.9,362 387,361.8 387,361.4 386.8,361.1 386.4,360.8 385.4,360.4 384.9,360.3 384.4,360.5 
			383.6,360.9 383.3,361.1 383.1,361.3 382.9,361.5 382.5,361.8 382,362 381.5,362 381,362 380.6,361.8 380.3,361.6 380.2,361.4 
			380.2,362.6 380.3,362.8 380.6,363 381,363.1 381.5,363.2 382,363.1 382.5,363 382.9,362.7 383.1,362.5 383.3,362.3 383.6,362.1 
			384.4,361.6 384.9,361.5 385.4,361.5 386.4,362 386.7,362.2 386.8,362.1 		"/>
		<polygon class="st6" points="382.9,359.4 383,359.3 383.1,359.3 383,359 382.7,358.8 382.2,358.4 381.4,358 381,358 380.6,358 
			380,358.2 379.1,358.6 377.9,359.4 377.7,359.5 377.5,359.7 377,360.1 376.6,360.3 376.2,360.3 375.8,360.2 375.4,360.1 
			375.1,359.8 375,359.5 375,360.7 375.1,361 375.4,361.3 375.8,361.4 376.2,361.5 376.6,361.4 377,361.3 377.5,360.9 377.7,360.7 
			377.9,360.6 379.1,359.8 380,359.4 380.6,359.1 381,359.2 381.4,359.2 382.2,359.6 382.4,359.7 382.7,359.5 		"/>
		<polygon class="st6" points="398.8,357.3 398.5,357.5 398.3,357.6 398.1,357.7 397.7,357.8 393.6,360.2 393.1,360.4 392.6,360.5 
			392.2,360.5 391.7,360.3 390.1,359.5 389.4,359.1 388.6,358.6 388.2,358.1 388.1,357.5 388.1,358.7 388.2,359.3 388.6,359.8 
			389.4,360.3 390.1,360.7 391.7,361.5 392.2,361.6 392.6,361.7 393.1,361.6 393.6,361.4 397.7,359 398.1,358.9 398.3,358.8 
			398.5,358.7 398.8,358.5 398.9,358.2 398.9,357.7 398.9,357 		"/>
		<polygon class="st7" points="397.8,356.3 398,356.3 398.5,356.5 398.8,356.8 398.9,357 398.9,357.7 401.4,358.4 402.5,356.4 
			400.1,355 		"/>
		<polygon class="st9" points="388.6,358.6 389.4,359.1 390.1,359.5 391.7,360.3 392.2,360.5 392.6,360.5 393.1,360.4 393.6,360.2 
			397.7,357.8 398.1,357.7 398.3,357.6 398.5,357.5 398.8,357.3 398.9,357 398.8,356.8 398.5,356.5 398,356.3 397.8,356.3 
			397.5,356.2 397,356.2 396.5,356.4 396.3,356.5 396.1,356.6 395.9,356.8 395.8,356.9 394.4,357.8 393.8,358.1 393.1,358.5 
			392.7,358.6 392.2,358.5 391.2,358 391.2,358 391.2,358 391.1,357.9 390.8,357.6 390.9,357.2 391.1,356.9 391.6,356.5 392,356.2 
			392.5,355.8 392.9,355.4 393.2,355 393.3,354.6 393.3,354.2 393.2,353.9 392.9,353.5 392.4,353.1 391.9,352.7 391,352.3 
			390.1,352 389.3,351.8 388.5,351.8 387.8,351.9 387,352.1 386.2,352.5 385.3,353 384,353.8 383.3,354.5 383.2,354.7 383.1,355 
			383.2,355.2 383.5,355.4 383.8,355.6 384.3,355.7 384.8,355.7 385.2,355.5 385.8,354.9 386.2,354.5 386.8,354.1 387.8,353.6 
			388.5,353.4 388.9,353.4 389.3,353.4 390.3,353.8 390.7,354.2 390.8,354.6 390.7,354.9 390.6,355.1 390.5,355.2 390,355.6 
			389.1,356.4 388.5,356.9 388.1,357.5 388.2,358.1 		"/>
		<polygon class="st6" points="390.7,354.9 390.8,354.6 390.7,354.2 390.3,353.8 389.3,353.4 388.9,353.4 388.5,353.4 387.8,353.6 
			386.8,354.1 386.2,354.5 385.8,354.9 385.2,355.5 384.8,355.7 384.3,355.7 383.8,355.6 383.5,355.4 383.2,355.2 383.1,355 
			383.1,356.2 383.2,356.4 383.5,356.6 383.8,356.8 384.3,356.9 384.8,356.9 385.2,356.7 385.8,356.1 386.2,355.7 386.8,355.3 
			387.8,354.8 388.5,354.5 388.9,354.5 389.3,354.6 390.3,355 390.5,355.2 390.6,355.1 		"/>
		<polygon class="st6" points="390.9,357.2 390.9,357.7 391.1,357.9 391.1,356.9 		"/>
		<polygon class="st6" points="392.9,355.4 392.5,355.8 392,356.2 391.6,356.5 391.1,356.9 391.2,358 391.2,358 391.2,358 
			391.6,357.7 392,357.4 392.5,357 392.9,356.6 393.2,356.2 393.3,355.8 393.3,354.6 393.2,355 		"/>
		<polygon class="st7" points="274.4,385.3 272.2,379.9 277.3,382 279.5,376.8 275.4,378.8 273,377.6 266.3,377.4 265.4,382.5 
			269.3,380.3 		"/>
		<polygon class="st7" points="410,357.4 409.6,356.6 409.3,355.7 408.9,354.9 408.5,354 408.1,353.2 407.6,352.4 407.1,351.5 
			406.8,351 406.7,356 410.2,358 		"/>
		<polygon class="st5" points="297.5,337.2 297.3,333.7 287.8,339.2 295.6,338.8 		"/>
		<polygon class="st5" points="345.9,343.7 345.4,341.9 340.3,340.3 340.8,342.9 		"/>
		<polygon class="st5" points="313.7,339 312.7,341 317,343.5 319,342.3 316.5,339.8 		"/>
		<polygon class="st5" points="317.9,339 319.1,341.3 322.7,342.4 324.1,337.8 315.3,336.3 313,334.9 310.3,335.8 310.5,338.6 		"/>
		<path class="st10" d="M390.3,109.8c0,19.2-6.7,40.5-17.6,59.4c-5.5,9.6-12.1,18.5-19.7,26.5l-0.2,0.2c-1,1-1.9,2-2.9,2.9
			c-2.7,2.6-5.5,5.1-8.4,7.5c-3.4,2.7-7,5.2-10.7,7.4l-0.7,0.4l-0.2,0.1l-0.4,0.2c-0.5,0.3-1.1,0.6-1.6,0.9
			c-3.1,1.7-6.3,3.1-9.6,4.3c-3.5,1.2-7.1,2.1-10.8,2.5c-0.2,0-0.4,0.1-0.6,0.1c-6.7,0.8-13.5-0.6-19.4-3.8
			c-10.9-6.3-17.6-19.8-17.6-39s6.8-40.5,17.6-59.4s26-35.4,42.6-45C363.4,55.8,390.3,71.4,390.3,109.8z"/>
		<polygon class="st11" points="337.1,130 322,138.8 322,123.4 337.1,114.7 		"/>
		<path class="st12" d="M337.1,124.7v33.7c-1.5,2.9-2.9,5.7-4,8c-0.4,0.7-0.7,1.4-1,2l-10.1,5.8v-40.7L337.1,124.7z"/>
		<path class="st13" d="M332.4,129l-2.9,0.2v6c0.2-0.1,0.4-0.3,0.5-0.5l1.8-2.9l0.6-1C332.8,130.3,332.8,129.2,332.4,129z"/>
		<path class="st14" d="M326.5,132.4c-0.4,0.6-0.4,1.7,0,1.8l0.6,0.3l1.9,0.8c0.2,0.1,0.3,0.1,0.5,0v-6L326.5,132.4z"/>
		<path class="st11" d="M342.1,99.3c0,9.8-5.6,21-12.5,25s-12.6-0.7-12.6-10.5s0.7-21.3,12.5-28.1C342.1,78.5,342.1,89.5,342.1,99.3
			z"/>
		<path class="st11" d="M318.6,113.2c0.4,1.9-0.1,4.1-1.1,4.9s-2.2,0-2.6-1.8s0.1-4.1,1.1-4.9S318.2,111.3,318.6,113.2z"/>
		<path class="st11" d="M340.4,100.6c-0.4,2.3,0.1,4,1.1,3.7s2.2-2.5,2.6-4.8s-0.1-4-1.1-3.7S340.9,98.2,340.4,100.6z"/>
		<path class="st15" d="M342.9,82.6c-1.7-4.9-7.3-3.8-13.4,0.1c-6.2,3.3-11.8,8.6-13.5,15.4c-0.6,2.5,0,11,0.5,12.8
			c0.3,1.1,1.4,6.8,1.8,2c0-0.9-0.5-11.9,0.3-13.7c1.6-3.9,4.4-6.5,6.5-5.8c1.3,0.4,7.2-3.1,8.6-5c2.6-3.4,4.9-3.4,6.5-1.4
			c0.8,0.9,0.3,12.2,0.3,13.1c0.4,4.3,1.5-2.6,1.8-4.1C342.9,93.5,343.5,84.4,342.9,82.6z"/>
		<polygon class="st16" points="322.5,137.6 315.8,138.7 322,127.6 329.5,129.2 		"/>
		<polygon class="st16" points="336.4,129.6 343.2,122.8 337,119 329.5,129.2 		"/>
		<path class="st17" d="M365.9,136.6c-0.9-3.5-4.2-21-5.3-21.2l-8.5,2.4l0,0c-3.1,0.9-7.5,2.1-11.1,3.2l-11.3,51.6l-10.1-39.2
			c-3.6,3.1-8,6.9-11.1,9.6l0,0l-8.5,7.4c-1.2,1.5-4.5,22.8-5.3,27.3c-1.6,8.5-7.2,32.9-6.3,35c0.5,1,17.7-26.1,18.2-30.7l0.6-12.7
			l0.6,4.7c0,0,0.4,19.9,0.2,26.3c-0.1,1.7-0.2,12.4-0.4,21.8c3.7-0.4,7.3-1.3,10.8-2.5c3.3-1.2,6.5-2.6,9.6-4.3
			c0.5-0.3,1.1-0.6,1.6-0.9l0.4-0.2l0.2-0.1l0.7-0.4c3.7-2.2,7.3-4.7,10.7-7.4c2.9-2.4,5.7-4.9,8.4-7.5c1-1,2-1.9,2.9-2.9
			c-0.2-9.1-0.3-19.6-0.4-21.3c-0.2-6.2,0.2-26.5,0.2-26.5v-0.2l0.7,29.5c0.6,3.9,9.4,1.3,14.1-9
			C368.9,165.3,367.5,143.2,365.9,136.6z"/>
		<path class="st18" d="M332.6,154.8l-0.8-23l-1.8,2.9c-0.1,0.2-0.3,0.4-0.5,0.5l0,0c-0.2,0.1-0.3,0.1-0.5,0l-1.9-0.8l-1.3,34.2
			l3.6,4.6l0,0c0.1-0.2,1.1-2.1,2.6-5c0.3-0.6,0.7-1.3,1-2L332.6,154.8z"/>
		<path class="st19" d="M311.4,156.1c-0.7-1.5,4.7-8.9,4.7-8.9s-3.8-1.3-3.9-2.4c-0.3-4.1,8.2-14.3,8.2-14.3l9.1,42.9
			C329.5,173.3,313.8,161.5,311.4,156.1z"/>
		<path class="st19" d="M347.5,135.2c-1.3,4.3-6.1,14.4-10.5,23.2c-1.5,2.9-2.9,5.7-4,8c-0.4,0.7-0.7,1.4-1,2
			c-1.5,2.8-2.4,4.7-2.6,5l0,0l0.6-3.9l2.5-14.7l4.5-26.1l1.5-8.7c0,0,8.5,0.3,8.2,4.8c-0.1,1.3-3.9,6.9-3.9,6.9
			S348.2,132.9,347.5,135.2z"/>
		<polygon class="st20" points="327.4,154.7 322.7,156.6 324.9,133.2 330.8,130.8 		"/>
		<path class="st21" d="M332.7,131.6c0.4-3.4-1.5-5.3-4.3-4.2s-5.4,4.8-5.8,8.3s1.5,5.3,4.3,4.2S332.3,135.1,332.7,131.6z"/>
		<path class="st11" d="M316,155.4l4.5-7.1c0.4-0.7,1-1.3,1.7-1.7c1.4-0.8,2.8-1.6,4.2-2.3c2.6-0.6,3.1-1.1,4.5,0.5
			c0.6,0.7,0.3,2.7-0.7,3s-0.7,0.3-0.5,1.4c0.1,0.8,0,1-0.6,2.1c-0.8,1.4-0.1,1.7-1.1,3.1c-0.6,1-0.7,0.3-1,1.8
			c-0.1,0.8-0.9,2.1-1.6,2.1c-2.5,0-4.4,2.6-6,5.3s-3.2,6.8-4.7,8l-5.4-3.7C309.3,168.1,315.4,156.2,316,155.4z"/>
		<path class="st22" d="M321,164.1l-9.3-2.3c0,0-20.1,34.6-23.6,45.9c-3.2,10.1,4.4,11,7.1,8.3c5.4-5.2,8.3-10.5,11.4-17.3
			C313.1,184.4,321,164.1,321,164.1z"/>
		<path class="st11" d="M378.8,98.6c0,0-0.1,0.5-0.4,1.4c-0.3,1.1-2.8,9.9-3.2,11.3c-0.1,0.5-0.2,0.8-0.2,0.8
			c-0.2,0.4-0.4,0.6-0.6,0.6c-0.4,0-0.7-1.2-0.8-1.7c0-0.9,0-1.9,0.1-2.8c0.1-0.5,0-1.1-0.3-1.5c-0.3-0.5-0.9-0.7-1.4-0.6
			c-0.3,0.1-0.6,0.4-0.6,0.8c0,7.5-1.6,10.5-0.7,16.2c0.1,1.1,0,2.3-0.4,3.3l1.4-0.3c2-0.4,3.9-0.7,5.9-1.1c0.1-0.1,0.1-0.2,0.2-0.4
			c0.4-0.8,0.9-1.5,1.5-2.2c1-1.3,3.7-6.7,3.8-6.8c1.3-2.9,2.4-5.8,3.4-8.8c0.5-1.5,1-3,1.4-4.4c0.3-0.8,0.5-1.6,0.5-2.4
			c-0.1-0.3-0.5-0.3-0.9,0.5c-1,2.1-1.6,3.7-2.4,5.8c-0.1,0.2-0.4,1.2-0.6,0.6c0.1-0.2,0.1-0.5,0.2-0.7c0.5-1.6,2.5-6.8,2.6-7.8
			c0.1-0.6,0-1.1-0.4-1.2s-0.9,0.6-1.3,1.3s-0.8,1.7-0.9,2.2c-1,2.3-2.5,7.9-3.5,7.9c-0.5,0,3.5-10.9,3.7-11.2
			c0.5-1.3,1-3.2-0.4-2.5c-1.1,0.6-1.5,2.2-1.9,3.4c-0.1,0.2-1.8,5.1-2.4,6.8c-0.2,0.4-1,2.8-1.4,3.1c-0.6,0.3-0.2-0.7-0.1-1.1
			c0.6-2.5,1.1-4.5,1.5-6s0.6-2.3,0.7-3c0.1-1,0-1.3-0.7-1.1C379.4,97.3,378.9,97.9,378.8,98.6z"/>
		<path class="st22" d="M369.8,123.6l9.6-0.1c0,0-8.1,38.2-13.2,48.3c-1.6,3.1-3.5,6.3-6.9,8.1c-2.8,1.5-5,0.7-5.9-1.6
			c-1.6-4.6,1-11.9,2.8-18C359.9,147.6,369.8,123.6,369.8,123.6z"/>
		<path class="st19" d="M333.1,182.9c0-2.4-1.7-3.4-3.7-2.2c-2.2,1.4-3.6,3.8-3.7,6.5c0,2.4,1.7,3.3,3.7,2.1
			C331.5,188,332.9,185.6,333.1,182.9z"/>
		<path class="st19" d="M333.1,199.9c0-2.4-1.7-3.3-3.7-2.1c-2.2,1.4-3.6,3.8-3.7,6.5c0,2.4,1.7,3.4,3.7,2.2
			C331.5,204.9,332.9,202.5,333.1,199.9z"/>
		<polygon class="st12" points="398.6,211.6 266,288.1 266,278.6 398.6,202.1 		"/>
		<polygon class="st18" points="343.8,233.7 266,278.6 266,288.1 343.8,243.2 		"/>
		<polygon class="st19" points="308.1,231.9 318.9,232.9 308.1,246.3 		"/>
		<polygon class="st19" points="342,226.7 329.5,233.9 329.5,219.5 342,212.3 		"/>
		<polygon class="st19" points="359.5,216.6 355.6,218.9 355.6,204.5 359.5,202.2 		"/>
		<polygon class="st19" points="366.1,212.8 362.2,215.1 362.2,200.7 366.1,198.4 		"/>
		<g>
			<g>
				<path class="st23" d="M408.5,21.4L394.1,13c0.1-1-0.4-2-1.2-2.6l14.4,8.4C408.1,19.3,408.6,20.3,408.5,21.4L408.5,21.4z"/>
			</g>
		</g>
		<g>
			<g>
				<path class="st24" d="M404.4,19L390,10.6c0.4-0.2,0.7-0.4,1.2-0.5l14.4,8.4C405.2,18.6,404.8,18.8,404.4,19L404.4,19z"/>
				<path class="st25" d="M405.6,18.6l-14.4-8.4c0.6-0.1,1.2-0.1,1.7,0.2l14.4,8.4C406.8,18.5,406.2,18.4,405.6,18.6z"/>
			</g>
		</g>
		<g>
			<path class="st12" d="M400.6,10.6l-14.4-8.3c1.5-0.9,3.2-1.6,4.9-2l14.4,8.4C403.8,9,402.1,9.7,400.6,10.6L400.6,10.6z"/>
			<path class="st12" d="M405.5,8.6l-14.4-8.4c2.2-0.6,4.6-0.3,6.6,0.9l14.4,8.4C410.1,8.3,407.8,8,405.5,8.6L405.5,8.6z"/>
		</g>
		<g>
			<g>
				<path class="st12" d="M249.7,322.3l-14.4-8.3c-2.9-1.7-4.7-5.3-4.7-10.4L245,312C245,317.1,246.8,320.7,249.7,322.3L249.7,322.3
					z"/>
			</g>
		</g>
		<path class="st26" d="M337.7,257.7c3.5-2,6.4-0.4,6.4,3.6c-0.3,4.5-2.6,8.6-6.4,11l-13,7.5c-3.5,2-6.4,0.4-6.4-3.6
			c0.2-4.5,2.6-8.6,6.4-11L337.7,257.7z"/>
		<path class="st10" d="M400.6,10.6c8.9-5.2,16.3-1,16.3,9.2l0.5,199.1c0,10.3-7.3,16.3-16.2,21.4l-140,80.8
			c-8.9,5.1-16.2,1-16.2-9.3l-0.6-192.6c0-10.2,7.2-22.8,16.1-28L400.6,10.6z M409,207.3l-0.5-185.9c0-2.5-1.9-3.6-4-2.3L257,104.3
			c-2.4,1.6-3.8,4.2-4,7l0.5,185.9c0,2.5,1.9,3.6,4.1,2.3L405,214.2C407.4,212.7,408.8,210.1,409,207.3L409,207.3z M337.8,272.3
			c3.8-2.4,6.1-6.5,6.4-11c0-4.1-2.9-5.7-6.4-3.6l-13,7.5c-3.8,2.4-6.1,6.5-6.4,11c0,4,2.9,5.7,6.4,3.6L337.8,272.3L337.8,272.3z"/>
		<path class="st27" d="M404.4,19c2.2-1.3,4-0.2,4,2.3l0.5,185.9c-0.2,2.8-1.6,5.4-4,7l-147.5,85.1c-2.2,1.3-4.1,0.2-4.1-2.3
			l-0.5-185.9c0.2-2.8,1.6-5.4,4-7L404.4,19z"/>
		<polygon class="st12" points="245,312 230.6,303.6 230.1,111 244.4,119.4 		"/>
		<polygon class="st12" points="260.6,91.4 246.2,83.1 386.3,2.2 400.6,10.6 		"/>
		<g>
			<path class="st12" d="M244.4,119.4L230,111c0-7,3.3-15,8.3-21.1l14.4,8.3C247.8,104.3,244.4,112.4,244.4,119.4L244.4,119.4z"/>
			<path class="st12" d="M252.8,98.3L238.4,90c2.2-2.7,4.8-5.1,7.8-6.9l14.4,8.3C257.6,93.2,254.9,95.5,252.8,98.3z"/>
		</g>
		<polyline class="st28" points="279.4,264.7 283.4,267 283.4,234.2 386.2,174.8 382.2,172.5 		"/>
		<polygon class="st28" points="382.4,205.5 279.5,264.9 279.5,232 382.4,172.6 		"/>
		<polygon class="st29" points="386.3,207.8 283.5,267.1 283.5,234.3 386.3,174.9 		"/>
		<path class="st30" d="M442.4,208.9c0.4,4.3,4.2,7.6,8.6,7.2l0,0c4.4-0.4,7.6-4.2,7.2-8.6l-2.6-30.9c-0.4-4.3-4.2-7.6-8.6-7.2l0,0
			c-4.3,0.4-7.5,4.2-7.2,8.6l0,0L442.4,208.9z"/>
		<path class="st17" d="M450.3,327.2c-1.2,1.7-0.5,3.3-0.6,5.7h-1c-0.1-0.9,0-3.7-0.6-5c-0.1-0.3-0.3-0.5-0.5-0.7H450.3z"/>
		<path class="st11" d="M438.3,320.7c0.5-3,0.7-6,0.6-9c0-1.2-0.9-28.3-1.3-36.4l13.2-6c0.3,5.2,1.7,23.8-0.9,34.8
			c-0.4,1.5-1.8,8.8-2.1,10.6c-0.3,1.8-0.1,3.6,0.5,5.3c0.2,0.4,0.8,1.6,0.9,2.2s0,0.9,0.2,1.4c0.4,1.1,0.5,0.7-0.4,1
			c-0.5,0.2-1.2,0.3-1.8,0.4c-0.7,0.3-1.3,0.6-1.9,1.1c-1,0.7-2.2,1.1-2.9,2.1s-0.4,2.3-0.8,3.3c-0.3,1-1.3,1.7-2.4,1.7h-0.1l-3-0.9
			c-0.4-0.2-0.8-0.5-1.2-0.8c-0.4-0.3-0.7-0.7-1.1-1c0.3-0.2,1.1-2.6,1.5-2.8C436.2,327.3,437.9,323.4,438.3,320.7z"/>
		<path class="st17" d="M433.8,327.8l2.3-0.9c-0.1,0.4,0.1,0.8,0.5,1c0.2,0.1,0.4,0.2,0.6,0.3c0.5,0.2,1.1,0.3,1.7,0.2
			c1-0.1,1.9-0.5,2.6-1.3c1.8-1.7,3.8-3.2,6-4.3c0.7-0.4,1.5-1.5,1.6-1.3c0.5,0.8,1,1.7,1.3,2.6c0.3,1.5,0.6,3.2-0.1,4
			c-0.9,0.8-2.2,1.1-3.4,0.7c-1.1-0.4-2.2-0.4-3.3,0c-1.2,0.9,0,5.1-2,4.8c-2-0.4-3.9-0.8-5.9-1.4c-0.9-0.3-1.9-0.6-2.8-1
			c-0.6-0.2-1.2-0.5-1.6-1C430.1,328.6,433.2,328,433.8,327.8z"/>
		<path class="st11" d="M432.4,201.7h-9.9l-4.3,2.1c-0.4,0.2-2.4,1.3-2.5,2.5c0,0.9,0.3,5.7,2,5.3c1.1-0.3,9.6-3.9,9.6-3.9
			c0.6-0.2,2.5,0,2.8-0.4l2.3-2.2V201.7z"/>
		<path class="st30" d="M436.9,199.3c-4.1-1-8.2,1.5-9.2,5.6l0,0l0,0c-1,4.1,1.6,8.2,5.7,9.2l0,0l14.8,1.7c4.1,1,8.2-1.5,9.2-5.6
			l0,0c1-4.1-1.6-8.2-5.7-9.2l0,0L436.9,199.3z"/>
		<path class="st31" d="M424.9,177.1c0-0.8,6.2-3.2,6.9-2.7c2.6,2,5.7-0.6,7.5-1.6c1-0.5,1.7-1.5,1.9-2.6c1.1,0,2.1,0.5,2.8,1.3
			c2.3,2.5,3.8,7.6-5.8,9.4c-2.9,0.6-6,0.3-8.7-0.9C427.2,178.9,422.8,179.1,424.9,177.1z"/>
		<path class="st17" d="M432.5,333.7c-1.2,1.7-0.5,3.3-0.6,5.7h-1c-0.1-0.9,0-3.7-0.6-5c-0.1-0.3-0.3-0.5-0.5-0.7H432.5z"/>
		<path class="st11" d="M420.5,327.1c0.5-3,0.7-6,0.7-9c0-1.2-0.9-28.3-1.3-36.4l13.2-6c0.3,5.2,1.7,23.8-0.9,34.8
			c-0.4,1.6-1.9,8.8-2.1,10.6c-0.3,1.8-0.1,3.6,0.5,5.3c0.1,0.4,0.7,1.6,0.9,2.2s0,0.9,0.2,1.4c0.4,1.1,0.5,0.7-0.4,1
			c-0.5,0.2-1.2,0.3-1.8,0.4c-0.7,0.3-1.3,0.6-1.9,1.1c-1,0.7-2.2,1.1-2.9,2.1s-0.3,2.3-0.7,3.3c-0.3,1-1.3,1.7-2.4,1.7h-0.1l-3-0.8
			c-0.4-0.2-0.8-0.5-1.2-0.9c-0.4-0.3-0.7-0.7-1.1-1.1c0.3-0.2,1.1-2.6,1.5-2.8C418.4,333.7,420.1,329.9,420.5,327.1z"/>
		<path class="st17" d="M416,334.3c0.6-0.2,2.3-0.9,2.3-0.9c-0.1,0.4,0.1,0.8,0.5,1c0.2,0.1,0.5,0.2,0.6,0.3c1.5,0.6,3.2,0.2,4.3-1
			c1.8-1.7,3.8-3.2,6-4.3c0.8-0.4,1.5-1.5,1.6-1.3c0.5,0.8,1,1.7,1.3,2.6c0.3,1.5,0.6,3.2-0.1,4c-0.9,0.8-2.2,1.1-3.4,0.7
			c-1.1-0.4-2.2-0.4-3.3,0c-1.2,0.9,0,5.1-2.1,4.7c-2-0.4-3.9-0.8-5.9-1.4c-0.9-0.3-1.9-0.6-2.8-0.9c-0.6-0.2-1.2-0.5-1.6-1
			C412.3,335.1,415.3,334.5,416,334.3z"/>
		<path class="st1" d="M451.6,216.3c-0.4-1-0.8-2-1.3-3c-9.7-20.7,2.9-42.9-8.6-43.1c0,0,5.9,6-3,8c-8.7,1.9-12.3-2.2-12.3-2.2
			c-3.9,1.7-13.9,9.5-7.2,26.9c1.2,3.1,0.7,9.5-0.2,17.9C434.9,227.2,446.1,223.1,451.6,216.3z"/>
		<path class="st32" d="M451.6,216.3c-5.5,6.9-16.7,10.9-32.6,4.5c-1.8,16.5-5.3,40.9-2.1,64c4.1,5.2,30.3-1,36.4-6.4
			C453.1,272.2,461.6,241.3,451.6,216.3z"/>
		<path class="st33" d="M441.3,172.6c0.1,4.3-11.1,5.5-12,2.5c-0.7-2.2-0.5-8.6-0.5-8.6l12-1.1C440.8,165.3,441.3,172.5,441.3,172.6
			z"/>
		<path class="st34" d="M443.8,162.7c-6.2,6.5-8.6,6.4-14.7,2s-8.7-10.5-7.3-19.6c1.6-9.7,13.1-12.2,20.5-7.7
			C456.3,146,451.5,154.6,443.8,162.7z"/>
		<path class="st11" d="M441.2,156.4c-0.4,2.8-2,10.8-3.7,12.3c-2.4,2.1-9.3,3.5-12.4,1c-4.2-3.4-3.6-10.4-3.6-19.3
			s5.7-10.5,10.6-6.7S442.3,147.7,441.2,156.4z"/>
		<path class="st34" d="M451.1,147.5c-0.5-3.8-9.7-4.2-9.7-4.2c-0.7-0.5-4.7-15.2-20-3.3c-3.2,2.5-2.1,11.1-2.1,11.1
			s6.9,0.7,7.8,1.4s3.7,5.5,6.2,9.8l1,1.7c1.3,2.4,2.9,7.2,9,3.2C443.7,166.9,453.9,156.3,451.1,147.5z"/>
		<path class="st11" d="M433.6,159.2c-0.6,1.9-1.5,3-2.7,2.8s-1.8-1.4-1.5-3.4s2-3.4,3.1-3.2S434.3,157.1,433.6,159.2z"/>
		<path class="st35" d="M443,174.8c0.5-1,1-2.1,1.5-3.1c13.8-20.8-4.4-27.5-4.4-27.6c-0.2-1,0.3-2,1.1-2.6c0.6-0.5,1.3-0.9,2.1-1.3
			c1.4-1.3,3.3-2,5.2-2c5-0.1,12.7,2.7,13.7,25.6c0.2,4.6,2,15.9-0.3,22.4c-0.8,1.6-2.3,2.6-4,2.7h-1.3c-6.3-2.4-15.3-5.4-14.1-11.1
			C442.7,176.9,442.9,175.9,443,174.8z"/>
		<path class="st11" d="M389.5,209.1l-5.8-4l-5.3-2c-0.5-0.2-3.1-1.1-4.3-0.3c-0.8,0.5-4.8,4-3.1,5c1.1,0.7,10.2,4.5,10.2,4.5
			c1.8-0.1,3.6,0.3,5.3,1l2.1,2L389.5,209.1z"/>
		<path class="st30" d="M397.8,210.4c-2.5,3.6-1.7,8.5,1.9,11l0,0c3.6,2.5,8.5,1.6,11-1.9l18.1-25.2c2.5-3.6,1.7-8.5-1.9-11l0,0
			c-3.6-2.5-8.5-1.6-11,1.9L397.8,210.4z"/>
		<path class="st30" d="M391.4,204.9c-4-1.3-8.3,0.9-9.6,4.9l0,0l0,0c-1.3,4,1,8.3,5,9.6l0,0l14.7,2.8c4,1.3,8.3-0.9,9.6-4.9l0,0
			l0,0c1.3-4-1-8.3-5-9.6L391.4,204.9z"/>
	</g>
	<path class="st36" d="M381.2,105.3c0,29.4-20.6,65.2-46.1,79.9S289,188,289,158.6s20.6-65.2,46.1-79.9S381.2,75.9,381.2,105.3z"/>
	<path class="st37" d="M329.3,168.6l17.1-9.9c-1-0.7-1.7-1.8-1.8-3l-17.1,9.9C327.6,166.9,328.3,168,329.3,168.6z"/>
	<path class="st37" d="M337.8,172.6l14.9-8.7c0.4-0.2,0.6-0.8,0.3-1.2c-0.1-0.1-0.2-0.2-0.3-0.3l-6.3-3.6l-17.1,9.9l6.8,3.9
		C336.6,172.9,337.3,172.9,337.8,172.6z"/>
	<polygon class="st38" points="327.6,165.6 344.7,155.7 344.2,148.1 328.9,157 	"/>
	<polygon class="st39" points="328.9,157 344.2,148.1 343.4,147.6 328.1,156.6 	"/>
	<path class="st38" d="M328.1,156.6l0.8,0.5l-1.3,8.6c0.1,1.2,0.7,2.3,1.8,3l6.5,3.7l0,0l0.3,0.2c0.5,0.3,1.2,0.3,1.7,0l0.4-0.2
		l13-7.5l1.2-0.7l0,0l0.4-0.2l0.1-0.1c0.2-0.2,0.3-0.4,0.3-0.7l0,0v0.5l0,0v0.6l0,0c0,0.2-0.1,0.4-0.3,0.5l-0.1,0.1l-14.6,8.5
		c-0.7,0.4-1.7,0.4-2.4,0l-6.6-3.8c-1.4-0.9-2.3-2.4-2.3-4.1L328.1,156.6z"/>
	<path class="st40" d="M303.7,172.9l64.9-37.5c0.9-0.7,1.5-1.7,1.5-2.8V89.2c0-1.1-0.7-1.6-1.5-1.1l-64.9,37.5
		c-0.9,0.7-1.5,1.7-1.5,2.8v43.5C302.3,172.9,302.9,173.4,303.7,172.9z"/>
	<polygon class="st41" points="367.8,133.2 367.8,91.3 304.6,127.8 304.6,169.7 	"/>
	<path class="st38" d="M369.5,87.9L369.5,87.9L369.5,87.9z"/>
	<path class="st38" d="M301,124.6l64.9-37.5c0.3-0.2,0.6-0.2,0.9-0.1l2.6,0.8c-0.3-0.1-0.6,0-0.8,0.1l-64.9,37.5
		c-0.9,0.7-1.5,1.7-1.5,2.8v43.5c0,0.1,0,0.3,0,0.4v0.1c0,0.1,0.1,0.2,0.1,0.3l0,0c0,0.1,0.1,0.2,0.1,0.2l0,0
		c0.1,0.1,0.1,0.1,0.2,0.2l0,0L300,172h0l0,0c-0.4-0.3-0.6-0.7-0.6-1.2v-43.4C299.5,126.3,300.1,125.2,301,124.6z"/>
	<polygon class="st42" points="288,93.5 291.6,109.2 301.9,89.5 297.9,109.3 312.5,94.2 301.9,113.8 317.6,106.7 302.8,121.5 
		315.9,124.1 300.3,130.6 307.8,142.3 294.9,139.2 295.1,157.3 288,145.2 280.9,165.5 281.1,147.2 268.2,165.1 275.7,144.8 
		260.1,156.3 273.2,138.6 258.4,140.9 274,129.9 263.5,122.6 278.1,120.8 274.1,105.5 284.4,113.3 	"/>
	<g>
		<path class="st31" d="M314.6,227c0.4-0.2,0.8-0.4,1.2-0.4c0.4,0,0.8,0.1,1.2,0.3c0.4,0.3,0.7,0.9,0.7,2v1.2c0,1.2-0.4,2.3-1.2,3.3
			c0.8,0.1,1.2,0.7,1.2,1.9v1.8c0,1.1-0.3,2.2-0.9,3.3s-1.4,1.9-2.4,2.4l-3,1.7v-15.8L314.6,227z M315.7,231v-1c0-0.5-0.1-0.8-0.4-1
			s-0.6-0.1-1,0.1l-1.1,0.6v4.4l1.1-0.7c0.4-0.3,0.8-0.6,1-1C315.6,232.1,315.7,231.6,315.7,231z M315.7,238.3v-1.8
			c0-0.5-0.1-0.8-0.4-1c-0.2-0.2-0.6-0.1-1,0.1l-1.1,0.6v5l1.1-0.6c0.4-0.2,0.7-0.6,0.9-1S315.7,238.7,315.7,238.3z"/>
		<path class="st31" d="M325.5,234.8c-0.3,0.7-0.7,1.4-1.1,2c-0.5,0.6-1,1.1-1.5,1.4c-0.6,0.3-1.1,0.5-1.6,0.4
			c-0.5,0-0.9-0.2-1.1-0.5s-0.3-0.6-0.4-0.9c-0.1-0.3-0.1-0.6-0.1-1v-12l1.9-1.1v12c0,0.2,0,0.4,0,0.5s0.1,0.3,0.3,0.5
			s0.5,0.1,0.9-0.1c0.4-0.2,0.7-0.6,0.9-1c0.2-0.4,0.3-0.9,0.3-1.3v-12l1.9-1.1v12c0,0.4,0,0.8-0.1,1.1
			C325.8,234,325.6,234.4,325.5,234.8z"/>
		<path class="st31" d="M329.5,234.1v-6.8l-2.6-7.5l2-1.2l1.6,5.3l1.6-7.2l2-1.2l-2.7,10.5v6.8L329.5,234.1z"/>
		<path class="st31" d="M343.7,226l-3-7.8v9.6l-1.9,1.1v-15.8l1.8-1.1l3,7.8v-9.6l1.9-1.1v15.8L343.7,226z"/>
		<path class="st31" d="M348.1,209.2c0.3-0.7,0.7-1.3,1.2-1.9c0.5-0.6,1-1,1.5-1.3s1-0.4,1.4-0.5c0.4,0,0.8,0.1,1.1,0.3
			c0.3,0.2,0.5,0.5,0.6,0.9s0.2,0.8,0.2,1.3v8c0,0.5,0,0.9-0.1,1.3s-0.2,0.9-0.5,1.5c-0.2,0.6-0.6,1.2-1.1,1.8s-1,1-1.5,1.4
			c-0.6,0.4-1.2,0.5-1.8,0.5s-0.9-0.3-1.1-0.6c-0.2-0.4-0.3-0.7-0.4-0.9c0-0.3-0.1-0.6-0.1-1v-8c0-0.5,0-0.9,0.1-1.3
			C347.7,210.1,347.9,209.7,348.1,209.2z M351.8,208.2c-0.3-0.3-0.6-0.3-1.1,0c-0.2,0.1-0.5,0.3-0.7,0.6s-0.4,0.5-0.5,0.8
			c-0.1,0.2-0.1,0.4-0.2,0.7s0,0.4,0,0.5v8c0,0.2,0,0.3,0,0.5s0.1,0.4,0.3,0.6c0.2,0.2,0.5,0.2,1-0.1c0.2-0.1,0.5-0.3,0.7-0.6
			c0.2-0.2,0.3-0.5,0.4-0.7s0.1-0.4,0.2-0.6c0-0.2,0-0.4,0-0.6v-8c0-0.3,0-0.5,0-0.6C352,208.5,352,208.3,351.8,208.2z"/>
		<path class="st31" d="M362,215.4l-1.6-8.6l-1.6,10.4l-1.8,1l-2-14.6l2.1-1.2l1,9l1.6-10.5l1.4-0.8l1.6,8.6l1-10.1l2.1-1.2
			l-1.9,16.9L362,215.4z"/>
	</g>
</g>
</svg>
