<svg id="8fa934b2-b80e-461b-90e5-d251b22c1a71" data-name="Layer 1" xmlns="http://www.w3.org/2000/svg" viewBox="0 0 617.23 455.71"><title>mobile_service_block</title><g id="034e29f4-3605-48d4-96fe-3761287f1eda" data-name="service_block"><g id="eacd2d3e-27a6-4259-be06-3f9081e929c6" data-name="red_brick"><g id="339d3607-e477-4aad-bb09-da8b2babe837" data-name="purple_brick"><g id="24bb6c4d-2521-4188-a14a-1859c4853182" data-name="yellow_brick"><polygon points="309.83 455.7 616.84 277.95 617.23 251.78 617.21 250.46 309.56 72.1 0.67 250.3 0.12 250.63 0 277.95 309.83 455.7 309.83 455.7" style="fill:#00b6e8"/><polygon points="309.83 455.7 0 277.95 0.12 250.63 309.56 427.76 309.83 455.7" style="fill:#fff;opacity:0.2"/><polygon points="616.84 277.95 309.83 455.7 309.79 427.76 617.21 250.46 616.84 277.95" style="fill:#fff;opacity:0.4"/></g></g></g><g id="b328e000-e4cf-408b-8d0f-505f079ef9be" data-name="service_illusration"><polygon points="153.21 252.54 215.29 216.71 220.16 219.5 220.16 236.32 219.42 236.77 219.42 243.48 220.16 243.89 220.16 278.45 219.42 278.86 219.42 285.57 220.19 286.02 220.19 302.45 153.21 263.68 153.21 252.54" style="fill:#002f58;fill-rule:evenodd"/><polygon points="215.29 216.71 153.21 252.54 153.23 180.88 177.71 195.01 177.71 199.47 194.4 209.11 198.26 206.87 215.29 216.71" style="fill:#002744;fill-rule:evenodd"/><polygon points="195.55 245.2 163.5 226.72 195.55 208.23 227.6 226.72 195.55 245.2" style="fill:#f6ca9f;fill-rule:evenodd"/><polygon points="195.55 245.2 163.5 226.72 195.55 208.23 227.6 226.72 195.55 245.2" style="fill:#f6ca9f;fill-rule:evenodd"/><polygon points="163.47 226.68 195.52 245.17 195.52 265.72 163.47 247.23 163.47 226.68" style="fill:#d2a06f;fill-rule:evenodd"/><polygon points="195.51 245.24 227.56 226.75 227.56 247.26 195.51 265.75 195.51 245.24" style="fill:#91633e;fill-rule:evenodd"/><polygon points="183.42 238.18 177.02 234.49 209.06 216.01 215.47 219.7 183.42 238.18" style="fill:#d2a06f;fill-rule:evenodd"/><polygon points="177 234.47 183.4 238.17 183.4 258.71 177 255.02 177 234.47" style="fill:#91633e;fill-rule:evenodd"/><polygon points="183 237.94 177.01 234.49 209.06 216 215.05 219.46 183 237.94" style="fill:#f9ebde;fill-rule:evenodd"/><polygon points="176.99 234.47 182.97 237.92 182.97 258.46 176.99 255.01 176.99 234.47" style="fill:#ada196;fill-rule:evenodd"/><path d="M215.44,225.69a2.31,2.31,0,0,1,2.46,0l2.52,1.45q1.23.71,0,1.42l-7,4a2.31,2.31,0,0,1-2.46,0l-2.52-1.45q-1.23-.71,0-1.42Z" transform="translate(-0.76 -0.79)" style="fill:#d2a06f;fill-rule:evenodd"/><path d="M215.44,225.27a2.31,2.31,0,0,1,2.46,0l2.52,1.45q1.23.71,0,1.42l-7,4a2.31,2.31,0,0,1-2.46,0l-2.52-1.45q-1.23-.71,0-1.42Z" transform="translate(-0.76 -0.79)" style="fill:#f9ebde;fill-rule:evenodd"/><path d="M201.53,255l-2.88,1.66,5-8.59,4.26,3.27-2.21,1.28v3.23l-4.13,2.38Zm-2.68,7.52V261.2l8.85-5.09v1.27Z" transform="translate(-0.76 -0.79)" style="fill:#b1865b;fill-rule:evenodd"/><polygon points="195.55 221.29 163.5 202.81 195.55 184.33 227.6 202.81 195.55 221.29" style="fill:#f6ca9f;fill-rule:evenodd"/><polygon points="195.55 221.29 163.5 202.81 195.55 184.33 227.6 202.81 195.55 221.29" style="fill:#f6ca9f;fill-rule:evenodd"/><polygon points="163.47 202.78 195.52 221.27 195.52 241.81 163.47 223.32 163.47 202.78" style="fill:#d2a06f;fill-rule:evenodd"/><polygon points="195.51 221.34 227.56 202.85 227.56 223.36 195.51 241.85 195.51 221.34" style="fill:#91633e;fill-rule:evenodd"/><polygon points="183.42 214.28 177.02 210.59 209.06 192.1 215.47 195.8 183.42 214.28" style="fill:#d2a06f;fill-rule:evenodd"/><polygon points="177 210.57 183.4 214.26 183.4 234.81 177 231.12 177 210.57" style="fill:#91633e;fill-rule:evenodd"/><polygon points="183 214.04 177.01 210.58 209.06 192.1 215.05 195.56 183 214.04" style="fill:#f9ebde;fill-rule:evenodd"/><polygon points="176.99 210.57 182.97 214.01 182.97 234.56 176.99 231.11 176.99 210.57" style="fill:#ada196;fill-rule:evenodd"/><path d="M215.44,201.79a2.31,2.31,0,0,1,2.46,0l2.52,1.45q1.23.71,0,1.42l-7,4a2.31,2.31,0,0,1-2.46,0l-2.52-1.45q-1.23-.71,0-1.42Z" transform="translate(-0.76 -0.79)" style="fill:#d2a06f;fill-rule:evenodd"/><path d="M215.44,201.37a2.31,2.31,0,0,1,2.46,0l2.52,1.45q1.23.71,0,1.42l-7,4a2.31,2.31,0,0,1-2.46,0l-2.52-1.45q-1.23-.71,0-1.42Z" transform="translate(-0.76 -0.79)" style="fill:#f9ebde;fill-rule:evenodd"/><path d="M201.53,231l-2.88,1.66,5-8.59,4.26,3.27-2.21,1.28v3.23l-4.13,2.38Zm-2.68,7.52V237.3l8.85-5.09v1.27Z" transform="translate(-0.76 -0.79)" style="fill:#b1865b;fill-rule:evenodd"/><path d="M429.84,43.33l.57-.35,5.82,3.37V47Zm38.34,22.16-6.39-3.72.6-.32,5.79,3.34Zm47.21,56.59-28.58.16L480.52,102ZM127,218.77v6.49l-1.43-.8V219.6ZM353,2.64,470.37,70.42l-226,130.48L127,133.12Zm47.82,23.91.57-.32,5.82,3.34v.7ZM421.7,38.63l-6.39-3.69.57-.35L421.7,38ZM375.21,11.79l-6.39-3.69.57-.35,5.82,3.37ZM473.93,88.7l0-.1.57.13ZM469.8,75,464,78.31v3.37l-.89-.51V77.8l5.82-3.34Zm-10,29.6,9.35,5.56v20l-8-4.8-.41.22v-.48l-.92-.54Zm8.93,24.83v-19l-8.52-5.09v19Zm-8.9-3.43,8.52,6v8.9l-1.65-1.08-1-.73-4.93-3.47-.89-.64ZM468,140.15v-8l-7.79-5.44v8Zm44.67,19.27-.89-.51v-3.34l5.82-3.37.86.51L512.63,156Zm-29.57,27.91,0,0-.25.19-.29.09ZM471,214.61l1.59.29,1.53-.13-.25.06-1.27.06h-.41l-1.11-.25ZM139.21,150.73v-3.37L133.39,144l.86-.51,5.82,3.37v3.34Zm7.19,50.93-.73-.45v-6.71l-2.89-1.68.7-.41,2.92,1.68Zm0,34.56v7.57l-.73-.45v-6.71L142.77,235l.7-.41Zm18.95-73.76.89-.51,5.79,3.37v3.37l-.86.48v-3.34Zm23.24,16.79v-3.37l-8.71-5,.89-.51,8.71,5.06v3.34Zm55.83,113.82-1.18-.7v-4.86l1.18-.67,158.27-91.41.57.35.83.48v4.87l-.83.48L244.64,293.2Zm-21.3-47.15v-6.71l-2.93-1.65.73-.45,2.92,1.68v6.71Zm0,42.13v-6.71l-2.93-1.68.73-.41,2.92,1.69v6.71Zm80.06,3.12-.25.06.29-.09Zm2.64,18h-.22l.25-.06Zm-14.08,9-.06,0,1.59.29,1.53-.13-.25.06-1.27.06h-.41Zm8.2-8.3-.25-.1h0Zm3.62-6.07-.29-.22h0Zm-1.84,9.89.06-.19.06,0ZM191.1,311.16l-21.27-12.3v-13l21.27,12.27ZM482.61,200l.16.16-.19-.16ZM479,206.21l.29.13-.25-.1Zm2.1,3.75,0,0-.09.22Z" transform="translate(-0.76 -0.79)" style="fill:#e9e9e9;fill-rule:evenodd"/><path d="M244.42,200.9l226-130.48,3.18-1.84,3.21,1.84v3.69l-2.39,1.53h-.22v5.79L480.52,102l6.3,20.28,2.35,7.69,37.87-.22V173l-17.68,10.17a24.13,24.13,0,0,0-2.54-9.35l-.13.1q-4.83-6.8-12.43-7.19h0l-5.4.89h0q-16,4.64-24.8,22.45l-4.26,8.87-8,25.66-1.27.73L330.55,294.57q-1.15-19.2-13.39-21.08l-2.73.29q-8.77-.67-17.07,6.55a49.16,49.16,0,0,0-12.49,16.76l-4.26,8.84-2.67,9-.92,8.52v2l-2.89,1.69-11.64,6.68-18.06,10.46V293.07l.22.13,158.62-91.6v48.64l44.86-25.88L456,199.7V93.57l-1.4.83L403.26,124v71.76l-.57-.35L244.42,286.84ZM459.82,126v9l.89.64v3.31l.13,1,.44.92.1.09.41.35.8.25.89-.1,1-.41,2.23-1.27,1.65,1.08.06,9.7-2,1.18L459,147.43l-.76.16-.48,1,.48.51,8.24,4.74,3.31-1.91.51-.7V140l.7-.35v-2.38l11.16-6.42,1-.73.92-1,.76-1.11.6-1.24.38-1.27.13-1.21-.13-1L475.43,90.1l-.35-.83-.6-.54-.57-.13,0,.1-1.14-.13-1,.41-7.38,4.26-1,.7-.89,1-.48.7L459,93.79l-.8.16-.48,1,.48.48,3.05,1.78-.41,1.3-.13,1.18v4.32l-.92.51v20l.92.54v.48ZM464,81.68l5.82-3.37V75l-.89-.51-5.82,3.34v3.37Zm54.43,71-.86-.51-5.82,3.37v3.34l.89.51,5.79-3.37ZM150.85,171.3v8.55l3.15,1.81,0,82.81-7.57,4.36h0V168.73Zm106.32,26.39-.86-.48-5.82,3.34v3.37l.89.51,5.79-3.37Z" transform="translate(-0.76 -0.79)" style="fill:#666;fill-rule:evenodd"/><path d="M146.4,243.79v25l-19.39-11V133.12L244.42,200.9v85.94l-1.18.67v4.86l1.18.7v51.22l-4.67-2.67V322.86L221,312v-25.2l2.16,1.24.73-.41v-6.71l-2.92-1.69V244.68l2.19,1.24.73-.41V238.8l-2.92-1.68V211.75L154.47,173.4l-3.62-2.1-4.45-2.58V194.1l-2.92-1.68-.7.41v6.71l2.89,1.68.73.45v34.56l-2.92-1.68-.7.41v6.71l2.89,1.68Zm256.86,4.83v-47l.83-.48v-4.87l-.83-.48V124L454.6,94.39V198.87l-7.88,24.67Zm5.47-110.18v28.82l.13,1,.38.83.19.16.41.38.76.26.89-.1,1-.41,35.67-20.6,1-.7.92-1,.76-1.14.6-1.24.38-1.24.13-1.21V103.2l-.13-1-.38-.83-.6-.54-.54-.19-.22-.06-.92.1-1,.41-35.67,20.6-1,.7-.89,1-.76,1.14-.6,1.24-.38,1.27-.13,1.18Zm43.37,17-1.59-.13-1.59,2v2.13l.35.22,1.62.16.67-.86,1,.54-.38,6.1.38.29.6-.35.54-2.07.19-5-1.37-.79v-2ZM133.39,144v3.34l5.82,3.37.86-.51v-3.34l-5.82-3.37Zm37.77,25.15.86-.48v-3.37L166.23,162l-.89.51v3.37Zm8.71,1.68v3.37l8.71,5,.89-.51v-3.34l-8.71-5.06Zm46.51,26.83v3.37l5.79,3.37.89-.51v-3.37l-5.82-3.34Z" transform="translate(-0.76 -0.79)" style="fill:#bebebe;fill-rule:evenodd"/><path d="M461.79,61.77l6.39,3.72,5.37,3.08-3.18,1.84L353,2.64,356.17.79l12.65,7.31,6.39,3.69,25.56,14.75,6.39,3.72,8.14,4.67,6.39,3.69,8.14,4.71L436.23,47Zm25,60.47,28.58-.16,10.33,6,1.3,1.65-37.87.22ZM473.93,88.7l.54,0,.6.54.35.83,10.3,33.19.13,1-.13,1.21-.38,1.27-.6,1.24-.76,1.11-.92,1-1,.73-11.16,6.42v-1.34l10-5.79,1-.7.89-1,.76-1.14.6-1.24.38-1.24.13-1.21-.13-1L474.28,89.43ZM403.26,248.63l43.46-25.09,7.88-24.67V94.39l1.4-.83V199.7l-7.88,24.67-44.86,25.88Zm6.17-79.33.92-.13,1-.41,25.13-14.51h0L447,148.16l1-.7.92-1,.76-1.14.6-1.24.38-1.27.13-1.18V102.53l-.13-1-.35-.89.54.19.6.54.38.83.13,1v39.14l-.13,1.21-.38,1.24-.6,1.24-.76,1.14-.92,1-1,.7-35.67,20.6-1,.41-.89.1-.76-.26ZM465.64,139l1,.73L464.46,141l-1,.41-.89.1-.8-.25-.41-.35.92-.16,1-.41Z" transform="translate(-0.76 -0.79)" style="fill:#bebebe;fill-rule:evenodd"/><path d="M500.36,175.44l2.38,2.58,1.75,3.34,1.08,4,.38,4.48V190l-.38,5-1.08,5.28-1.75,5.4L500.36,211l-3,5.12L494,220.87l-3.78,4.23-4,3.56L482,231.49l-4.17,2-4,1.08-3.78.16-1.21-.25-.29-.06-1.91-.45-3-1.72-2.42-2.58-1.75-3.34-1.08-4-.38-4.61.38-5,1.08-5.28,1.75-5.37,2.42-5.34,3-5.12,3.4-4.74,3.78-4.23,4-3.59,4.17-2.8,4.17-2,4-1.08L494,173l3.4.76ZM287.27,337.49l-3-1.75-2.38-2.58-1.78-3.34-1.08-4-.38-4.61.38-5,1.08-5.31,1.75-5.37,2.42-5.34,3-5.12,3.4-4.74,3.78-4.23,4-3.56,4.17-2.83,4.17-2,4-1.08,3.78-.13,3.43.8,3,1.65,2.38,2.61,1.75,3.34,1.08,4,.29,3.34.1,1.27-.38,5-1.08,5.28-1.75,5.37L321,314.53l-3,5.12-3.43,4.74-3.78,4.23-4,3.56L302.66,335l-4.17,2-4,1.08-3.82.13Zm-67.88-9.6v22.45L118.29,292V269.51l11.6,6.71v13l77.89,45v-13ZM469.67,129.81l1-.51.32,1.43Zm-8.43-32.56-3.05-1.78-.48-.48.48-1,.8-.16,3.12,1.81,5,2.89,3.15,5.44V108l-1.84-1.11v-2.61l-2.54-4.42Zm9,42.76v11.22l-.51.7-3.31,1.91-8.24-4.74-.48-.51.48-1,.76-.16,7.44,4.29,2-1.18-.06-9.7.06,0Zm-18.15,15.39.38.22v2l1.37.79-.19,5-.54,2.07-.6.35-.38-.29.38-6.1-1-.54-.67.86-1.62-.16-.35-.22v-2.13l1.59-2Zm17.33,49.22-.51,1.59-.64,3.15,0,.73-.16,1.78,0,.51.19,2.42.32,1.24.35,1.53,1,2,1.43,1.53,1.78,1,2.07.48,2.26-.06,2.42-.67,2.51-1.18L484.9,219l2.42-2.13,2.29-2.54,2-2.83,1.78-3.08,1.43-3.18,1.08-3.24.64-3.18.22-3-.22-2.77-.64-2.42-1.08-2L493.42,187l-1.78-1-2-.48-2.29.1-1.46.45-1.27.35-1.53.89-.57.32-.48.13-.38.25-1.11.76-.6.38-2.42,2.16-1.94,2.16-.38.41-2,2.8-.48.83-1.3,2.23L470,203ZM154,264.47l67,38.77V312l-.59-.33-74-42.83,0,0Zm152.56,25.13-1.24.35-2.1,1.18-.29.09-.19.06-.41.25-1.11.76-.6.38-2.42,2.16L296.24,297l-.38.41-2,2.8-.48.83-1.3,2.23-1.43,3.21-.54,1.65-.51,1.59-.6,3.18-.06.73-.16,1.75,0,.51.19,2.42.32,1.24.35,1.53,1,2,1.46,1.56,1.75,1,2.07.48,2.26-.09,2.42-.67,2.51-1.18,2.48-1.69,2.45-2.16,2.26-2.54,2.07-2.83,1.75-3.08,1.43-3.18,1.08-3.24.64-3.18.22-3-.22-2.77-.64-2.42-1.08-2-1.43-1.56-1.78-1-2-.48-2.29.1Zm-136.71-3.75v13l-28.3-16.34v-13Zm21.27,12.27,28.3,16.34L208.14,321l-17-9.82Z" transform="translate(-0.76 -0.79)" style="fill:#5b5b5b;fill-rule:evenodd"/><path d="M450.44,225.32l1.27-.73,8-25.66,4.26-8.87q8.81-17.8,24.8-22.45h0l1.87,1,7.92,5,1.75,1.91-3-1.72L494,173l-3.78.13-4,1.08-4.17,2-4.17,2.8-4,3.59L470,186.79l-3.4,4.74-3,5.12L461.22,202l-1.75,5.37-1.08,5.28-.38,5,.38,4.61,1.08,4,1.75,3.34,2.42,2.58,3,1.72-2.51-.57L455.81,229l-5-3.27Zm-188,108.51,11.64-6.68v13.42ZM231,327.89v22.45H219.39V327.89ZM481.63,188,483,188l1.49.35.64.35-.06.41-1.91,3.75-.6.38-.54-.48-1.49-3.94Zm6.17,10.68-1.62,0-.06-.29-.09-.25.16-1,1.49-4.39.13-.25.25.86.16,2-.16,2.19Zm-7.28,12.59.51-1.14.09-.22,0,0,.92-2,.54-.83.6-.6,1.72-.86h.25l-.64,1.11-3.15,3.91Zm-6.42,3.47-1.53.13-1.59-.29-.54-.48.29-.29.22-.16,3.85-2.35.67-.16.16-.06.32.32-.64,2.83-.19.25,0,0Zm1.46-21.27.38,2.73-.32,1-.83.45-2.1-.13.48-.83,2-2.8ZM290.1,308.14l2.35.86.38.7-.38.83-3.53,3.12.06-.73.6-3.18ZM296.24,297l.38,2.77-.32,1-.83.45-2.1-.13.48-.83,2-2.8Zm12.24-1,.25.86.16,2-.16,2.19-.22,1.14-1.65,0-.13-.54.13-1,1.49-4.39Zm-6.17-4.48,1.37-.06,1.49.35.64.38,0,.38-1.94,3.78-.6.35-.54-.48-1.49-3.94Zm-1,23.34.44-1.21.13-.22-.06,0,.92-2,.54-.83.6-.6,1.75-.86h.22l-.64,1.11L302,314.18Zm-6.49,3.4-1.53.13-1.59-.29-.54-.48.29-.29.22-.16,3.85-2.35.67-.16.16-.06.32.32-.64,2.83-.19.25,0,0Zm8.52-14.72h0l-.76,0-.86.32-.45.29-1.18,1.3-.54,1.11-.32,1.11,0,.54,0,.48.13.41.16.35.22.32-.6-.19-.32-.19-.25-.29-.19-.38-.13-.45,0-.48,0-.57.13-.57.45-1.18.7-1.08.89-.86.45-.32.45-.22.45-.13h.41l.38.1.35.19ZM482.58,200l-.38-.06-.38,0-.41.09-.89.51-.41.38-.76.92-.32.54-.41,1.11-.13.57,0,.51,0,.51.1.41.19.35.22.29,0,0-.64-.19-.32-.19-.26-.29-.19-.38-.13-.44,0-.51,0-.54.13-.57.45-1.21.7-1.08.86-.86.92-.51.44-.13h.41l.38.06.32.19.51.45Zm-14.34,10,0-.73.64-3.15.51-1.59,2.35.86.38.67-.38.86Z" transform="translate(-0.76 -0.79)" style="fill:#414141;fill-rule:evenodd"/><path d="M509.35,183.16,527,173v8.9l-17.68,10.17ZM274.11,331v-3.81l2.89-1.69v-2l.92-8.52,2.67-9,4.26-8.84a49.16,49.16,0,0,1,12.49-16.76q8.3-7.22,17.07-6.55l4.9,3.27,1.72,1.88-3-1.65-3.43-.8-3.78.13-4,1.08-4.17,2-4.17,2.83-4,3.56-3.78,4.23-3.4,4.74-3,5.12-2.42,5.34-1.75,5.37-1.08,5.31-.38,5,.38,4.61,1.08,4,1.78,3.34,2.38,2.58,3,1.75-2.51-.57-8.27-4.39ZM231,350.33V327.89l8.71-5v22.45ZM178.48,195.8,154,181.67l-3.15-1.81V171.3l3.62,2.1,0,4.09,24,13.86Zm42.44,24.5L199,207.66l-3.86-2.23V201l25.75,14.86Zm-79.39,62.22-11.64,6.74v-13l11.64-6.71Z" transform="translate(-0.76 -0.79)" style="fill:#2d2d2d;fill-rule:evenodd"/><path d="M129.89,289.26l11.64-6.74,28.3,16.34,21.27,12.3,17,9.82,11.26-6.52-28.3-16.34-21.27-12.27-28.3-16.34-11.64,6.71-11.6-6.71v-6.71l8.71-5,19.39,11v0l74,42.83.59.35v0l18.79,10.86-8.71,5H219.39l-11.6-6.71v13ZM483,187.36l0,0,1.53-.89,1.27-.35H488l1.91.38,1.68,1,1.34,1.43,1,1.91.6,2.26.22,2.58-.22,2.83-.6,3-1,3-1.34,3L488,213l-2.13,2.38-2.29,2L481.25,219l-2.35,1.11-2.26.6-2.13.09-1.94-.44-1.65-1-1.33-1.53-1-1.81-.32-1.24-.19-2.42,0-.51.22.8.06.32.86,1.62,1.14,1.21,1.43.83,1.62.38,1.81-.06,1.94-.54,2-1,2-1.34,3.75-3.75,3.05-4.74,2-5.12.7-5-.19-2.19-.51-1.94-.86-1.62L488,188.6l-1.43-.83-1.62-.38Zm-328.56-14,66.45,38.34v4.1L195.17,201v8.92l-16.69-9.63V195.8l0-4.45-24-13.86Zm149,117.67-.32.09,0,0,2.1-1.18,1.24-.35h2.13l1.91.38,1.69,1,1.34,1.46,1,1.88.6,2.26.22,2.61-.19,2.8-.64,3-1,3-1.34,3-1.65,2.86-1.94,2.67-2.13,2.38-2.26,2-2.35,1.59-2.35,1.11-2.26.6-2.13.1-1.94-.45-1.65-1-1.3-1.46-1-1.88-.32-1.24-.19-2.42,0-.51.22.79.06.32.86,1.62,1.14,1.24,1.43.79,1.62.38,1.84-.06,1.91-.51,2-1,2-1.37,3.75-3.75,3.05-4.71,2-5.15.7-5-.19-2.19-.51-1.94-.86-1.59-1.14-1.24-1.4-.83-1.65-.38-1.81.06Z" transform="translate(-0.76 -0.79)" style="fill:#7d7d7d;fill-rule:evenodd"/><path d="M506,189.87l-.38-4.48-1.08-4L502.74,178l-2.38-2.58-1.75-1.91-7.92-5-1.87-1,5.4-.89h0q7.6.38,12.43,7.19l.13-.1a24.13,24.13,0,0,1,2.54,9.35v8.9Zm-191.53,83.9,2.73-.29q12.24,1.88,13.39,21.08l-4-2.32-.29-3.34-1.08-4-1.75-3.34L321,278.92,319.32,277ZM199,207.66l-3.86,2.24v-4.47Z" transform="translate(-0.76 -0.79)" style="fill:#0b0b0b;fill-rule:evenodd"/><path d="M464,81.68V78.31L469.8,75v3.34Zm48.64,77.74V156l5.79-3.34V156Zm-373.42-8.68-5.82-3.37V144l5.82,3.34Zm6.45,50.49-2.89-1.68v-6.71l2.89,1.68Zm19.68-38.76,5.82,3.37v3.34l-5.82-3.34Zm23.24,16.79-8.71-5v-3.37l8.71,5Zm68.58,18.44v3.37l-5.79,3.37v-3.37Zm-30.78,0,5.79,3.37v3.37l-5.79-3.37Zm-5.47,47-.73-.41v-6.71l2.93,1.65v6.71Zm0,42.13-.76-.45v-6.71l2.93,1.68v6.71ZM142.77,235l2.89,1.68v6.71l-2.89-1.68Z" transform="translate(-0.76 -0.79)" style="fill:#f60;fill-rule:evenodd"/><path d="M251.38,204.43l-.89-.51v-3.37l5.82-3.34.86.48-5.79,3.37Zm-19.2,0v-3.37l-5.79-3.37.86-.48,5.82,3.34v3.37Z" transform="translate(-0.76 -0.79)" style="fill:#fc0;fill-rule:evenodd"/><path d="M485.86,186.09l1.46-.45,2.29-.1,2,.48,1.78,1,1.43,1.56,1.08,2,.64,2.42.22,2.77-.22,3-.64,3.18-1.08,3.24-1.43,3.18-1.78,3.08-2,2.83-2.29,2.54L484.9,219l-2.48,1.72-2.51,1.18-2.42.67-2.26.06-2.07-.48-1.78-1L470,219.57l-1-2-.35-1.53,1,1.81,1.33,1.53,1.65,1,1.94.44,2.13-.09,2.26-.6,2.35-1.11,2.32-1.59,2.29-2L488,213l3.59-5.56,1.34-3,1-3,.6-3,.22-2.83-.22-2.58-.6-2.26-1-1.91-1.34-1.43-1.68-1-1.91-.38ZM471,214.61l.06,0-.38-.1-1.33-.76-1-1.11-.22-.8.16-1.78,3.53-3.08.38-.86-.38-.67-2.35-.86L470,203l1.43-3.21,1.3-2.23,2.1.13.83-.45.32-1-.38-2.73,1.94-2.16,2.42-2.16.6-.38,1.49,3.94.54.48.6-.38,1.91-3.75.06-.41-.64-.35L483,188l-1.37.06.38-.25.48-.13.29-.09,1.49.35,1.3.76,1.08,1.11.92,1.84.22.89-.13.25-1.49,4.39-.16,1,.09.25.06.29,1.62,0-.22,1.14-1.81,4.67-.64,1.11h-.25l-1.72.86-.6.6-.54.83-.92,2-.06.19-.51,1.14-2.73,2.13-1.81.86-.86.22.19-.25.64-2.83-.32-.32-.16.06-.67.16-3.85,2.35-.22.16-.29.29Zm-181.73,105,1,1.88,1.3,1.46,1.65,1,1.94.45,2.13-.1,2.26-.6,2.35-1.11,2.35-1.59,2.26-2,2.13-2.38,1.94-2.67,1.65-2.86,1.34-3,1-3,.64-3,.19-2.8-.22-2.61-.6-2.26-1-1.88-1.34-1.46-1.69-1-1.91-.38h-2.13l1.46-.44,2.29-.1,2,.48,1.78,1,1.43,1.56,1.08,2,.64,2.42.22,2.77-.22,3-.64,3.18-1.08,3.24-1.43,3.18L312.36,315l-2.07,2.83L308,320.35l-2.45,2.16-2.48,1.69-2.51,1.18-2.42.67-2.26.09-2.07-.48-1.75-1-1.46-1.56-1-2Zm12.46-5.88-.44,1.21-1,.86L298.47,317l-1.81.86-.86.22.19-.25.64-2.83-.32-.32-.16.06-.67.16-3.85,2.35-.22.16-.29.29.54.48.06,0-.38-.1-1.3-.76-1-1.11-.22-.79.16-1.75,3.53-3.12.38-.83-.38-.7-2.35-.86.54-1.65,1.43-3.21,1.3-2.23,2.1.13.83-.45.32-1-.38-2.77,1.94-2.16,2.42-2.16.6-.38,1.49,3.94.54.48.6-.35,1.94-3.78,0-.38-.64-.38-1.49-.35-1.37.06.41-.25.19-.06.25-.06.32-.09,1.46.35,1.34.76,1,1.14.92,1.81.22.89-.13.25-1.49,4.39-.13,1,.13.54,1.65,0-.25,1.14L306.44,308l-.6,1-.25.06-1.75.86-.6.6-.54.83-.92,2Zm-2-3.91.25.1.44.13h.41l.86-.32.86-.67.73-1,.32-.54.45-1.11.16-1.08,0-.48-.13-.41-.19-.35-.25-.29-.25-.22-.48-.41-.35-.19-.38-.1h-.41l-.45.13-.45.22-.45.32-.89.86-.7,1.08-.45,1.18-.13.57,0,.57,0,.48.13.45.19.38.25.29.32.19ZM479,206.24l.25.1.41.13.38,0,.45-.09.86-.51.83-.79.67-1,.45-1.11.16-1.08,0-.48-.13-.45-.19-.35-.35-.32-.16-.16-.51-.45-.32-.19-.38-.06H481l-.44.13-.92.51-.86.86-.7,1.08-.45,1.21-.13.57,0,.54,0,.51.13.44.19.38.26.29.32.19Z" transform="translate(-0.76 -0.79)" style="fill:#b1b0b0;fill-rule:evenodd"/><path d="M482.77,187.55l.25-.19,1.91,0,1.62.38,1.43.83,1.14,1.21.86,1.62.51,1.94.19,2.19-.7,5-2,5.12-3.05,4.74-3.75,3.75-2,1.34-2,1-1.94.54-1.81.06-1.62-.38-1.43-.83-1.14-1.21-.86-1.62-.06-.32,1,1.11,1.33.76.38.1,1.11.25h.41l1.27-.06.25-.06,1-.22,0,0,.86-.22,1.81-.86,2.73-2.13.83-.64,3.15-3.91.64-1.11.64-1.11,1.81-4.67.22-1.14.25-1.14.16-2.19-.16-2-.25-.86-.22-.89-.92-1.84-1.08-1.11-1.3-.76ZM289,316.19l1,1.11,1.3.76.38.1,1.11.25h.41l1.27-.06.25-.06,1-.22,0,0,.86-.22,1.81-.86,1.81-1.21,1-.86.76-.7,3.15-3.91.64-1.11,0-.06.6-1,1.81-4.67.25-1.14.22-1.14.16-2.19-.16-2-.25-.86-.22-.89-.92-1.81-1-1.14-1.34-.76-1.46-.35.32-.1,1.81-.06,1.65.38,1.4.83,1.14,1.24.86,1.59.51,1.94.19,2.19-.7,5-2,5.15-3.05,4.71-3.75,3.75-2,1.37-2,1-1.91.51-1.84.06-1.62-.38-1.43-.79-1.14-1.24-.86-1.62Zm14.56-12.4.25.29.19.35.13.41,0,.48-.16,1.08-.45,1.11-.32.54-.73,1-.86.67-.86.32h-.41l-.44-.13-.22-.1h0l-.22-.32-.16-.35-.13-.41,0-.48,0-.54.32-1.11.54-1.11,1.18-1.3.45-.29.86-.32.76,0Zm175.72-97.45-.29-.13-.22-.29-.19-.35-.1-.41,0-.51,0-.51.13-.57.41-1.11.32-.54.76-.92.41-.38.89-.51.41-.09.38,0,.38.06.19.16.35.32.19.35.13.45,0,.48-.16,1.08-.45,1.11-.67,1-.83.79-.86.51-.45.09-.38,0Z" transform="translate(-0.76 -0.79)" style="fill:#dcdcdc;fill-rule:evenodd"/><path d="M469.13,110.13l-9.35-5.56.92-.51,1.49-.86,6.2,3.72,1.84,1.11,1.3.76Zm-.8,21.81-8.52-6,.89-.41.41-.22,8,4.8.54-.32,1.27.92Z" transform="translate(-0.76 -0.79)" style="fill:#a2a2a2;fill-rule:evenodd"/><path d="M468.34,131.94l2.61-1.21v8.93l-.7.35-1.84.86-.06,0Zm3.21-23.15v20l-.92.54-1,.51-.54.32v-20Z" transform="translate(-0.76 -0.79)" style="fill:#0a0a0a;fill-rule:evenodd"/><path d="M468.72,129.4l-8.52-5.09v-19l8.52,5.09ZM468,140.15l-7.79-5.44v-8l7.79,5.44Z" transform="translate(-0.76 -0.79)" style="fill:#96dace;fill-rule:evenodd"/><path d="M462.11,95.6l.48-.7.89-1,1-.7L471.84,89l1-.41,1.14.13.35.73,10.27,33.19.13,1-.13,1.21-.38,1.24-.6,1.24-.76,1.14-.89,1,.11-.13q-5.23-4.42-10.48-8.11V108.8l-1.3-.76v-4.1L467.1,98.5Zm-.86,1.65,4.61,2.64,2.54,4.42v2.61l-6.2-3.72-1.49.86V99.74l.13-1.18Zm-52.52,41.19q4.31,2.76,10.59,6.41,11.36,6.6,17.12,9.39L411.3,168.76l-1,.41-.92.13-.19-.16-.38-.83-.13-1Z" transform="translate(-0.76 -0.79)" style="fill:#1d3a46;fill-rule:evenodd"/><path d="M436.43,154.25q-5.76-2.8-17.12-9.39-6.27-3.64-10.59-6.41V128.13l.13-1.18.38-1.27.6-1.24.76-1.14.89-1,1-.7L448.15,101l1-.41.92-.1.22.06.35.89.13,1v39.14l-.13,1.18-.38,1.27-.6,1.24-.76,1.14-.92,1-1,.7-10.52,6.09Z" transform="translate(-0.76 -0.79)" style="fill:#2e5361;fill-rule:evenodd"/><path d="M470.95,135.95v-5.21l-.32-1.43.92-.54v-7.54q5.25,3.69,10.48,8.11l-.11.13-1,.7Zm-10.24-.38,4.93,3.47-2.35,1.34-1,.41-.92.16-.1-.09-.44-.92-.13-1Z" transform="translate(-0.76 -0.79)" style="fill:#719eb4;fill-rule:evenodd"/><path d="M238.18,276.4a10.89,10.89,0,0,1,1.62,5.45v31.29q0,2.64-1.62,3.54t-3.88-.37l-4.54-2.62a10.9,10.9,0,0,1-3.91-4.13,10.78,10.78,0,0,1-1.6-5.4V272.87q0-2.64,1.6-3.59t3.91.41l4.54,2.62A10.78,10.78,0,0,1,238.18,276.4Z" transform="translate(-0.76 -0.79)" style="fill:#724f03;fill-rule:evenodd"/><path d="M229.41,300.82a5.49,5.49,0,0,1,2.18-.53,3.2,3.2,0,0,1,2.08.46,7,7,0,0,1,2.22,1.88,10.85,10.85,0,0,1,1.65,2.81,7.75,7.75,0,0,1,.53,2.84,3.42,3.42,0,0,1-.63,2,7.07,7.07,0,0,1-1.62,1.62q-.46.13-.93.3c-.24,0-.47,0-.69,0a4.67,4.67,0,0,1-1-.23,7.32,7.32,0,0,1-2-1.39,18.11,18.11,0,0,1-2.18-2.48,6.14,6.14,0,0,1-.89-5,4.61,4.61,0,0,1,.4-1,2.9,2.9,0,0,1,.33-.56A3.93,3.93,0,0,1,229.41,300.82Z" transform="translate(-0.76 -0.79)" style="fill:#3b2800;fill-rule:evenodd"/><path d="M233.71,287.9a8.48,8.48,0,0,1,2.18,2,10.16,10.16,0,0,1,1.62,2.81,7.6,7.6,0,0,1,.56,2.88,3.27,3.27,0,0,1-.63,2,6.77,6.77,0,0,1-1.62,1.65l-.93.26c-.24,0-.47,0-.69,0a3.36,3.36,0,0,1-2.12-.66,10.23,10.23,0,0,1-2-2,25.49,25.49,0,0,1-2-3.14,5.23,5.23,0,0,1-.15-3.31,9.29,9.29,0,0,1,.4-1,2.57,2.57,0,0,1,.33-.6,6.53,6.53,0,0,1,.66-.69A3.42,3.42,0,0,1,233.71,287.9Z" transform="translate(-0.76 -0.79)" style="fill:#3b2800;fill-rule:evenodd"/><path d="M233.68,275.1A7.6,7.6,0,0,1,235.9,277a10.17,10.17,0,0,1,1.62,2.81,7.6,7.6,0,0,1,.56,2.88,3.42,3.42,0,0,1-.63,2,7.05,7.05,0,0,1-1.62,1.62q-.46.13-.93.3l-.69-.07A5,5,0,0,1,230,284q-.86-1.29-1.62-2.61a6.06,6.06,0,0,1-.3-3.9,5.63,5.63,0,0,1,.36-1,2.6,2.6,0,0,1,.33-.59,6.54,6.54,0,0,1,.66-.69,7.05,7.05,0,0,1,2.18-.63A3.56,3.56,0,0,1,233.68,275.1Z" transform="translate(-0.76 -0.79)" style="fill:#3b2800;fill-rule:evenodd"/><path d="M234,310.47a5.1,5.1,0,0,0,.89-4.16,9.09,9.09,0,0,0-.81-2.27q-.14-.28-.3-.56a9.38,9.38,0,0,0-1.91-2.35,4.86,4.86,0,0,0-2.16-1.14,4.6,4.6,0,0,0-1.88-.19,5.28,5.28,0,0,1,2.1-.51,3.08,3.08,0,0,1,2,.45,6.71,6.71,0,0,1,2.13,1.81,10.43,10.43,0,0,1,1.59,2.7,7.46,7.46,0,0,1,.51,2.73,3.29,3.29,0,0,1-.6,1.94A6.8,6.8,0,0,1,234,310.47Z" transform="translate(-0.76 -0.79)" style="fill:#7d7d7d;fill-rule:evenodd"/><path d="M232.83,302.12a12.21,12.21,0,0,0-2.05-1.45,7.5,7.5,0,0,0-1.91-.76,3.1,3.1,0,0,0-2,1.11,2.78,2.78,0,0,1,.32-.54,3.76,3.76,0,0,1,.6-.7,4.6,4.6,0,0,1,1.88.19,4.86,4.86,0,0,1,2.16,1.14A9.28,9.28,0,0,1,232.83,302.12Zm1.16,8.35q-.45.13-.89.29c-.23,0-.46,0-.67,0a5.18,5.18,0,0,0,1.21-.8,2.75,2.75,0,0,0,.89-1.4,5.72,5.72,0,0,0,.16-2.32,7.67,7.67,0,0,0-.62-2.18,9.09,9.09,0,0,1,.81,2.27,5.1,5.1,0,0,1-.89,4.16Z" transform="translate(-0.76 -0.79)" style="fill:#bbb;fill-rule:evenodd"/><path d="M226.9,301a3.1,3.1,0,0,1,2-1.11,7.5,7.5,0,0,1,1.91.76,12.21,12.21,0,0,1,2.05,1.45,18.24,18.24,0,0,1-.37,2.18,2.73,2.73,0,0,1-1.43,2,7.36,7.36,0,0,1-.92.45,9.81,9.81,0,0,1-2.73.06,5.91,5.91,0,0,1-.86-4.8A4.45,4.45,0,0,1,226.9,301Z" transform="translate(-0.76 -0.79)" style="fill:#f60;fill-rule:evenodd"/><path d="M234.07,304a7.67,7.67,0,0,1,.62,2.18,5.72,5.72,0,0,1-.16,2.32,2.75,2.75,0,0,1-.89,1.4,5.18,5.18,0,0,1-1.21.8,4.47,4.47,0,0,1-1-.22,7,7,0,0,1-2-1.33,17.47,17.47,0,0,1-2.1-2.38,9.81,9.81,0,0,0,2.73-.06,7.36,7.36,0,0,0,.92-.45,2.73,2.73,0,0,0,1.43-2,18.24,18.24,0,0,0,.37-2.18,9.29,9.29,0,0,1,.94,1.35Q233.93,303.75,234.07,304Z" transform="translate(-0.76 -0.79)" style="fill:#bf4c00;fill-rule:evenodd"/><path d="M234,298.19a4.19,4.19,0,0,0,1.21-4.26,12.08,12.08,0,0,0-2.07-4.23,5.38,5.38,0,0,0-3.4-2.07,5.73,5.73,0,0,0-1.91-.13,3.29,3.29,0,0,1,4.13-.19,8.17,8.17,0,0,1,2.1,1.91,9.78,9.78,0,0,1,1.56,2.7,7.31,7.31,0,0,1,.54,2.77,3.15,3.15,0,0,1-.6,1.91A6.51,6.51,0,0,1,234,298.19Z" transform="translate(-0.76 -0.79)" style="fill:#7d7d7d;fill-rule:evenodd"/><path d="M232.43,298.41a5.2,5.2,0,0,0,1.21-.79,2.76,2.76,0,0,0,.89-1.37,5.37,5.37,0,0,0,.13-2.32,8.41,8.41,0,0,0-2.13-4.42,14.82,14.82,0,0,0-1.68-1.24,2.88,2.88,0,0,0-4,.48,2.52,2.52,0,0,1,.32-.57,6.42,6.42,0,0,1,.64-.67,5.73,5.73,0,0,1,1.91.13,5.38,5.38,0,0,1,3.4,2.07,12.08,12.08,0,0,1,2.07,4.23,4.19,4.19,0,0,1-1.21,4.26l-.89.26C232.86,298.43,232.64,298.41,232.43,298.41Z" transform="translate(-0.76 -0.79)" style="fill:#bbb;fill-rule:evenodd"/><path d="M232.52,289.51a8,8,0,0,1-.92,2.89,2.33,2.33,0,0,1-1,1,4.85,4.85,0,0,1-2.23.38,2.63,2.63,0,0,1-.89-.48q-.41-.25-.84-.48a5,5,0,0,1-.14-3.18,9,9,0,0,1,.38-1,2.88,2.88,0,0,1,4-.48A14.82,14.82,0,0,1,232.52,289.51Z" transform="translate(-0.76 -0.79)" style="fill:#fff;fill-rule:evenodd"/><path d="M226.63,292.88q.43.22.84.48a2.63,2.63,0,0,0,.89.48,4.85,4.85,0,0,0,2.23-.38,2.33,2.33,0,0,0,1-1,8,8,0,0,0,.92-2.89,8.41,8.41,0,0,1,2.13,4.42,5.37,5.37,0,0,1-.13,2.32,2.76,2.76,0,0,1-.89,1.37,5.2,5.2,0,0,1-1.21.79,3.23,3.23,0,0,1-2-.64,9.85,9.85,0,0,1-1.88-1.88A24.41,24.41,0,0,1,226.63,292.88Z" transform="translate(-0.76 -0.79)" style="fill:#dadada;fill-rule:evenodd"/><path d="M226.87,276.41a2.5,2.5,0,0,1,.32-.57,6.27,6.27,0,0,1,.64-.67,4.6,4.6,0,0,1,1.88.19,4.86,4.86,0,0,1,2.16,1.14,10.17,10.17,0,0,1,1.94,2.32,14.67,14.67,0,0,1,1.24,2.83,3.82,3.82,0,0,1-1,4.2q-.45.13-.89.29l-.67-.06a3.29,3.29,0,0,0,.73-.35,2.68,2.68,0,0,0,1-1,3.61,3.61,0,0,0,.51-1.88,8.49,8.49,0,0,0-2.24-5.77,16.83,16.83,0,0,0-1.61-1.19A2.9,2.9,0,0,0,226.87,276.41Z" transform="translate(-0.76 -0.79)" style="fill:#bbb;fill-rule:evenodd"/><path d="M232.44,277.09a6.07,6.07,0,0,1-.21,1.38,6.33,6.33,0,0,1-1,2.23,2.41,2.41,0,0,1-2.13,1.08,8.34,8.34,0,0,1-2.26-.64,5.83,5.83,0,0,1-.29-3.75,5.42,5.42,0,0,1,.35-1,2.9,2.9,0,0,1,4-.51A16.83,16.83,0,0,1,232.44,277.09Z" transform="translate(-0.76 -0.79)" style="fill:red;fill-rule:evenodd"/><path d="M227.82,275.17a6.79,6.79,0,0,1,2.1-.6,3.42,3.42,0,0,1,2,.51,7.29,7.29,0,0,1,2.13,1.81,9.78,9.78,0,0,1,1.56,2.7,7.32,7.32,0,0,1,.54,2.77,3.29,3.29,0,0,1-.6,1.94,6.8,6.8,0,0,1-1.56,1.56,3.82,3.82,0,0,0,1-4.2,14.67,14.67,0,0,0-1.24-2.83,10.17,10.17,0,0,0-1.94-2.32,4.86,4.86,0,0,0-2.16-1.14A4.6,4.6,0,0,0,227.82,275.17Z" transform="translate(-0.76 -0.79)" style="fill:#7d7d7d;fill-rule:evenodd"/><path d="M232.43,286.07a4.85,4.85,0,0,1-4.07-2.42q-.83-1.24-1.56-2.51a8.34,8.34,0,0,0,2.26.64,2.41,2.41,0,0,0,2.13-1.08,6.33,6.33,0,0,0,1-2.23,6.07,6.07,0,0,0,.21-1.38,8.49,8.49,0,0,1,2.24,5.77,3.61,3.61,0,0,1-.51,1.88,2.68,2.68,0,0,1-1,1A3.29,3.29,0,0,1,232.43,286.07Z" transform="translate(-0.76 -0.79)" style="fill:#c80000;fill-rule:evenodd"/><path d="M143.07,219.36a10.9,10.9,0,0,1,1.62,5.45V256.1q0,2.64-1.62,3.54t-3.88-.37l-4.54-2.62a10.89,10.89,0,0,1-3.91-4.13,10.78,10.78,0,0,1-1.6-5.41V215.84q0-2.64,1.6-3.59t3.91.41l4.54,2.62A10.78,10.78,0,0,1,143.07,219.36Z" transform="translate(-0.76 -0.79)" style="fill:#724f03;fill-rule:evenodd"/><path d="M134.22,243.89a5.48,5.48,0,0,1,2.18-.53,3.21,3.21,0,0,1,2.08.46,7,7,0,0,1,2.22,1.89,10.85,10.85,0,0,1,1.65,2.81,7.75,7.75,0,0,1,.53,2.84,3.42,3.42,0,0,1-.63,2,7.06,7.06,0,0,1-1.62,1.62q-.46.13-.93.3-.36,0-.69,0a4.64,4.64,0,0,1-1-.23,7.31,7.31,0,0,1-2.05-1.39,18.17,18.17,0,0,1-2.18-2.48,6.15,6.15,0,0,1-.89-5,4.67,4.67,0,0,1,.4-1,2.9,2.9,0,0,1,.33-.56A3.88,3.88,0,0,1,134.22,243.89Z" transform="translate(-0.76 -0.79)" style="fill:#3b2800;fill-rule:evenodd"/><path d="M138.52,230.87a8.49,8.49,0,0,1,2.18,2,10.17,10.17,0,0,1,1.62,2.81,7.6,7.6,0,0,1,.56,2.88,3.27,3.27,0,0,1-.63,2,6.77,6.77,0,0,1-1.62,1.65l-.93.26q-.36,0-.69,0a3.36,3.36,0,0,1-2.12-.66,10.25,10.25,0,0,1-2-2,25.55,25.55,0,0,1-2-3.14,5.24,5.24,0,0,1-.15-3.31,9.21,9.21,0,0,1,.4-1,2.59,2.59,0,0,1,.33-.6,6.5,6.5,0,0,1,.66-.69A3.42,3.42,0,0,1,138.52,230.87Z" transform="translate(-0.76 -0.79)" style="fill:#3b2800;fill-rule:evenodd"/><path d="M138.49,218.14A7.59,7.59,0,0,1,140.7,220a10.18,10.18,0,0,1,1.62,2.81,7.6,7.6,0,0,1,.56,2.88,3.42,3.42,0,0,1-.63,2,7.05,7.05,0,0,1-1.62,1.62q-.46.13-.93.3l-.69-.07a5,5,0,0,1-4.23-2.51q-.86-1.29-1.62-2.61a6.07,6.07,0,0,1-.3-3.9,5.66,5.66,0,0,1,.36-1,2.6,2.6,0,0,1,.33-.59,6.5,6.5,0,0,1,.66-.69,7.06,7.06,0,0,1,2.18-.63A3.56,3.56,0,0,1,138.49,218.14Z" transform="translate(-0.76 -0.79)" style="fill:#3b2800;fill-rule:evenodd"/><path d="M138.95,253.7a5.1,5.1,0,0,0,.89-4.17,9.11,9.11,0,0,0-.81-2.27q-.14-.28-.3-.56a9.35,9.35,0,0,0-1.91-2.35,4.87,4.87,0,0,0-2.16-1.14,4.61,4.61,0,0,0-1.88-.19,5.27,5.27,0,0,1,2.1-.51,3.08,3.08,0,0,1,2,.45,6.7,6.7,0,0,1,2.13,1.81,10.42,10.42,0,0,1,1.59,2.7,7.45,7.45,0,0,1,.51,2.73,3.29,3.29,0,0,1-.6,1.94A6.78,6.78,0,0,1,138.95,253.7Z" transform="translate(-0.76 -0.79)" style="fill:#7d7d7d;fill-rule:evenodd"/><path d="M137.79,245.35a12.23,12.23,0,0,0-2.05-1.45,7.48,7.48,0,0,0-1.91-.76,3.1,3.1,0,0,0-2,1.11,2.77,2.77,0,0,1,.32-.54,3.77,3.77,0,0,1,.6-.7,4.61,4.61,0,0,1,1.88.19,4.87,4.87,0,0,1,2.16,1.14A9.26,9.26,0,0,1,137.79,245.35Zm1.16,8.35q-.44.13-.89.29-.35,0-.67,0a5.18,5.18,0,0,0,1.21-.79,2.75,2.75,0,0,0,.89-1.4,5.72,5.72,0,0,0,.16-2.32,7.69,7.69,0,0,0-.62-2.18,9.11,9.11,0,0,1,.81,2.27,5.1,5.1,0,0,1-.89,4.17Z" transform="translate(-0.76 -0.79)" style="fill:#bbb;fill-rule:evenodd"/><path d="M131.86,244.25a3.1,3.1,0,0,1,2-1.11,7.48,7.48,0,0,1,1.91.76,12.23,12.23,0,0,1,2.05,1.45,18.38,18.38,0,0,1-.37,2.18,2.74,2.74,0,0,1-1.43,2,7.44,7.44,0,0,1-.92.45,9.81,9.81,0,0,1-2.73.06,5.91,5.91,0,0,1-.86-4.8A4.46,4.46,0,0,1,131.86,244.25Z" transform="translate(-0.76 -0.79)" style="fill:#f60;fill-rule:evenodd"/><path d="M132.34,250a9.81,9.81,0,0,0,2.73-.06,7.44,7.44,0,0,0,.92-.45,2.74,2.74,0,0,0,1.43-2,18.38,18.38,0,0,0,.37-2.18,9.28,9.28,0,0,1,.94,1.35q.16.28.3.56a7.69,7.69,0,0,1,.62,2.18,5.72,5.72,0,0,1-.16,2.32,2.75,2.75,0,0,1-.89,1.4,5.18,5.18,0,0,1-1.21.79,4.44,4.44,0,0,1-1-.22,7,7,0,0,1-2-1.33A17.45,17.45,0,0,1,132.34,250Z" transform="translate(-0.76 -0.79)" style="fill:#bf4c00;fill-rule:evenodd"/><path d="M132.78,230.47a3.29,3.29,0,0,1,4.13-.19,8.16,8.16,0,0,1,2.1,1.91,9.77,9.77,0,0,1,1.56,2.7,7.31,7.31,0,0,1,.54,2.77,3.15,3.15,0,0,1-.6,1.91,6.51,6.51,0,0,1-1.56,1.59,4.19,4.19,0,0,0,1.21-4.26,12.07,12.07,0,0,0-2.07-4.23,5.38,5.38,0,0,0-3.4-2.07A5.73,5.73,0,0,0,132.78,230.47Z" transform="translate(-0.76 -0.79)" style="fill:#7d7d7d;fill-rule:evenodd"/><path d="M131.83,231.71a2.47,2.47,0,0,1,.32-.57,6.3,6.3,0,0,1,.64-.67,5.73,5.73,0,0,1,1.91.13,5.38,5.38,0,0,1,3.4,2.07,12.07,12.07,0,0,1,2.07,4.23,4.19,4.19,0,0,1-1.21,4.26l-.89.25-.67,0a5.2,5.2,0,0,0,1.21-.79,2.76,2.76,0,0,0,.89-1.37,5.37,5.37,0,0,0,.13-2.32,8.41,8.41,0,0,0-2.13-4.42,14.89,14.89,0,0,0-1.68-1.24A2.88,2.88,0,0,0,131.83,231.71Z" transform="translate(-0.76 -0.79)" style="fill:#bbb;fill-rule:evenodd"/><path d="M131.59,235.84a5,5,0,0,1-.14-3.18,8.89,8.89,0,0,1,.38-1,2.88,2.88,0,0,1,4-.48,14.89,14.89,0,0,1,1.68,1.24,8,8,0,0,1-.92,2.89,2.33,2.33,0,0,1-1,1,4.85,4.85,0,0,1-2.23.38,2.64,2.64,0,0,1-.89-.48Q132,236.07,131.59,235.84Z" transform="translate(-0.76 -0.79)" style="fill:#fff;fill-rule:evenodd"/><path d="M137.39,241.38a3.23,3.23,0,0,1-2-.64,9.85,9.85,0,0,1-1.88-1.88,24.54,24.54,0,0,1-1.89-3q.43.22.84.48a2.64,2.64,0,0,0,.89.48,4.85,4.85,0,0,0,2.23-.38,2.33,2.33,0,0,0,1-1,8,8,0,0,0,.92-2.89,8.41,8.41,0,0,1,2.13,4.42,5.37,5.37,0,0,1-.13,2.32,2.76,2.76,0,0,1-.89,1.37A5.2,5.2,0,0,1,137.39,241.38Z" transform="translate(-0.76 -0.79)" style="fill:#dadada;fill-rule:evenodd"/><path d="M131.83,219.44a2.45,2.45,0,0,1,.32-.57,6.16,6.16,0,0,1,.64-.67,4.61,4.61,0,0,1,1.88.19,4.87,4.87,0,0,1,2.16,1.14,10.16,10.16,0,0,1,1.94,2.32,14.72,14.72,0,0,1,1.24,2.83,3.82,3.82,0,0,1-1,4.2q-.44.13-.89.29l-.67-.06a3.27,3.27,0,0,0,.73-.35,2.69,2.69,0,0,0,1-1,3.62,3.62,0,0,0,.51-1.88,8.49,8.49,0,0,0-2.24-5.77,17.06,17.06,0,0,0-1.61-1.19A2.91,2.91,0,0,0,131.83,219.44Z" transform="translate(-0.76 -0.79)" style="fill:#bbb;fill-rule:evenodd"/><path d="M137.41,220.13a6.08,6.08,0,0,1-.21,1.38,6.33,6.33,0,0,1-1,2.23,2.41,2.41,0,0,1-2.13,1.08,8.3,8.3,0,0,1-2.26-.64,5.83,5.83,0,0,1-.29-3.75,5.41,5.41,0,0,1,.35-1,2.91,2.91,0,0,1,4-.51A17.06,17.06,0,0,1,137.41,220.13Z" transform="translate(-0.76 -0.79)" style="fill:red;fill-rule:evenodd"/><path d="M138.95,228.89a3.82,3.82,0,0,0,1-4.2,14.72,14.72,0,0,0-1.24-2.83,10.16,10.16,0,0,0-1.94-2.32,4.87,4.87,0,0,0-2.16-1.14,4.61,4.61,0,0,0-1.88-.19,6.77,6.77,0,0,1,2.1-.6,3.41,3.41,0,0,1,2,.51,7.29,7.29,0,0,1,2.13,1.81,9.78,9.78,0,0,1,1.56,2.7,7.31,7.31,0,0,1,.54,2.77,3.29,3.29,0,0,1-.6,1.94A6.78,6.78,0,0,1,138.95,228.89Z" transform="translate(-0.76 -0.79)" style="fill:#7d7d7d;fill-rule:evenodd"/><path d="M131.76,224.18a8.3,8.3,0,0,0,2.26.64,2.41,2.41,0,0,0,2.13-1.08,6.33,6.33,0,0,0,1-2.23,6.08,6.08,0,0,0,.21-1.38,8.49,8.49,0,0,1,2.24,5.77,3.62,3.62,0,0,1-.51,1.88,2.69,2.69,0,0,1-1,1,3.27,3.27,0,0,1-.73.35,4.85,4.85,0,0,1-4.07-2.42Q132.5,225.45,131.76,224.18Z" transform="translate(-0.76 -0.79)" style="fill:#c80000;fill-rule:evenodd"/><polygon points="193.97 201.07 194 204.25 190.72 206.16 190.53 203.58 193.97 201.07" style="fill:#706d6d;fill-rule:evenodd"/><polygon points="193.97 201.07 190.53 203.58 178.32 196.52 178.67 191.91 180.42 192.9 180.1 195.22 189.29 200.53 190.98 199.35 193.97 201.07" style="fill:#333;fill-rule:evenodd"/><polygon points="190.72 206.16 178.64 199.19 178.32 196.52 190.53 203.58 190.72 206.16" style="fill:#515151;fill-rule:evenodd"/><path d="M343.12,189.69a3.54,3.54,0,0,1,1.7,1.62,5.92,5.92,0,0,1,.6,2.8,10.43,10.43,0,0,1-.65,3.66,14.83,14.83,0,0,1-1.8,3.63l4.2,5.44-5.18,3-3.08-3.92-1.38.93v5.54l-4.38,2.51V192.94l4.38-2.51a9,9,0,0,1,3.08-1.07A4.93,4.93,0,0,1,343.12,189.69ZM338.9,195a5.63,5.63,0,0,0-1.35.49v6.21a7.45,7.45,0,0,0,1.35-1.06,7.5,7.5,0,0,0,1.88-2.72,3.54,3.54,0,0,0,.28-1.34,1.61,1.61,0,0,0-.28-1A1.75,1.75,0,0,0,340,195,2.59,2.59,0,0,0,338.9,195Zm-9.3-.12V200l-7.85,4.51v3.32l6.38-3.66v5.08l-6.38,3.66v3.49l7.85-4.51v5.05l-12.25,7V202Zm27-15.66,4.75-2.73-7.83,26.7-4.75,2.73,2.2-7.5-6.5-12.23,4.85-2.78,3.92,7.33Zm-108.95,62.6,4.38-2.51v0a8.7,8.7,0,0,1,3.58-1,5.1,5.1,0,0,1,2.93.77,5.37,5.37,0,0,1,2,2.34,9.5,9.5,0,0,1,.7,3.84,14.84,14.84,0,0,1-.7,4.56,20.75,20.75,0,0,1-1.93,4.51,23.5,23.5,0,0,1-2.9,4,16.82,16.82,0,0,1-3.63,3.06L247.63,264Zm6.25,2.16a4.71,4.71,0,0,0-1.87.44v12a9.54,9.54,0,0,0,1.9-1.73,12.35,12.35,0,0,0,1.5-2.1,12.51,12.51,0,0,0,1-2.36,8.3,8.3,0,0,0,.38-2.38,5.17,5.17,0,0,0-.37-2,3,3,0,0,0-1-1.3A2.64,2.64,0,0,0,253.88,244ZM279,223.93l4.38-2.51v17l7-4v5.05L279,246Zm-3.55,7.15-7.85,4.51v3.32l6.38-3.66v5.08L267.58,244v3.49l7.85-4.51V248l-12.25,7v-22L275.44,226Zm24-19,4.6-2.64L307.67,221l3.88-15.85,4.65-2.67-6.5,25.93-4.18,2.4Zm-6,3.56,4.38-2.51v22.06l-4.38,2.51Z" transform="translate(-0.76 -0.79)" style="fill:#002f58;fill-rule:evenodd"/><path d="M365.43,194.78l-.08-19,3.28-2,.08,19Zm8.5-4.91-3.32,2-.12-19,3.32-2Zm1.78-20.34,8.38-5.07,0-10.24L399,164.89l-14.85,31.87V183.54l-8.38,5Z" transform="translate(-0.76 -0.79)" style="fill:#002f58;fill-rule:evenodd"/><polygon points="526.22 139.25 455.2 180.25 455.2 169.94 526.22 128.93 526.22 139.25" style="fill:#002f58;fill-rule:evenodd"/><polygon points="402.52 210.91 243.76 302.57 243.76 292.25 402.52 200.59 402.52 210.91" style="fill:#002f58;fill-rule:evenodd"/><polygon points="453.89 178.79 402.5 208.46 402.5 198.15 453.89 168.47 453.89 178.79" style="fill:#002f58;fill-rule:evenodd"/><path d="M170.27,146.67a3.39,3.39,0,0,0,2.05-.32L333.16,53.48a1,1,0,0,0,.55-1.18,2.61,2.61,0,0,0-1.32-1.37l-.06,0a5.85,5.85,0,0,0-2.37-.76,3.39,3.39,0,0,0-2.05.32L167.07,143.32a1,1,0,0,0-.55,1.18,2.61,2.61,0,0,0,1.32,1.37l.06,0A5.85,5.85,0,0,0,170.27,146.67Z" transform="translate(-0.76 -0.79)" style="fill:#bebebe;fill-rule:evenodd"/><path d="M183.91,153.53a3.39,3.39,0,0,0,2.05-.32L346.8,60.34a1,1,0,0,0,.55-1.18A2.61,2.61,0,0,0,346,57.78l-.06,0A5.86,5.86,0,0,0,343.6,57a3.39,3.39,0,0,0-2,.32L180.71,150.18a1,1,0,0,0-.55,1.18,2.61,2.61,0,0,0,1.32,1.37l.06,0A5.85,5.85,0,0,0,183.91,153.53Z" transform="translate(-0.76 -0.79)" style="fill:#bebebe;fill-rule:evenodd"/><path d="M197.85,161.57a3.39,3.39,0,0,0,2.05-.32L360.74,68.38a1,1,0,0,0,.55-1.18A2.61,2.61,0,0,0,360,65.83l-.06,0a5.85,5.85,0,0,0-2.37-.76,3.39,3.39,0,0,0-2.05.32L194.65,158.23a1,1,0,0,0-.55,1.18,2.61,2.61,0,0,0,1.32,1.37l.06,0A5.85,5.85,0,0,0,197.85,161.57Z" transform="translate(-0.76 -0.79)" style="fill:#bebebe;fill-rule:evenodd"/><path d="M210.88,169.23a3.39,3.39,0,0,0,2.05-.32L373.77,76a1,1,0,0,0,.55-1.18A2.61,2.61,0,0,0,373,73.49l-.06,0a5.85,5.85,0,0,0-2.37-.76,3.39,3.39,0,0,0-2.05.32L207.68,165.89a1,1,0,0,0-.55,1.18,2.61,2.61,0,0,0,1.32,1.37l.06,0A5.85,5.85,0,0,0,210.88,169.23Z" transform="translate(-0.76 -0.79)" style="fill:#bebebe;fill-rule:evenodd"/><path d="M223.48,176.9a3.39,3.39,0,0,0,2.05-.32L386.37,83.7a1,1,0,0,0,.55-1.18,2.61,2.61,0,0,0-1.32-1.37l-.06,0a5.85,5.85,0,0,0-2.37-.76,3.39,3.39,0,0,0-2.05.32L220.28,173.55a1,1,0,0,0-.55,1.18A2.61,2.61,0,0,0,221,176.1l.06,0A5.85,5.85,0,0,0,223.48,176.9Z" transform="translate(-0.76 -0.79)" style="fill:#bebebe;fill-rule:evenodd"/></g></g></svg>