<svg width="480" height="683" id="2b63efdb-9cf2-4f26-8813-d0b52ca380f0" data-name="Layer 1" xmlns="http://www.w3.org/2000/svg" viewBox="0 0 617.11 785.57"><title>service_block</title><g id="0771e7e6-e74a-4900-ae0d-02d8f90baaed" data-name="service_block"><g id="e669968f-069e-4c57-99b1-bd17962c5b36" data-name="red_brick"><g id="8dc715e6-a968-4a3c-9172-0cf21671cdcf" data-name="purple_brick"><g id="702dead8-19ff-46c7-bc2a-1a2968dcc7ee" data-name="yellow_brick"><polygon points="309.44 785.57 617.11 606.94 617.11 251.78 617.02 249.68 309.44 72.1 0.55 250.3 0 250.63 0 606.94 307.67 784.57 309.44 785.57" style="fill:#00b6e8"/><polygon points="309.44 785.07 0 606.41 0 250.63 309.44 427.76 309.44 785.07" style="fill:#fff;opacity:0.2"/><polygon points="617.11 606.41 309.67 785.07 309.67 427.76 617.11 249.1 617.11 606.41" style="fill:#fff;opacity:0.4"/></g></g></g><g id="1bb398dd-8fb5-4304-a577-cc604d3a8fb4" data-name="service_illusration"><polygon points="153.09 252.54 215.17 216.71 220.03 219.5 220.03 236.32 219.3 236.77 219.3 243.48 220.03 243.89 220.03 278.45 219.3 278.86 219.3 285.57 220.06 286.02 220.06 302.45 153.09 263.68 153.09 252.54" style="fill:#002f58;fill-rule:evenodd"/><polygon points="215.17 216.71 153.09 252.54 153.11 180.88 177.59 195.01 177.59 199.47 194.28 209.11 198.14 206.87 215.17 216.71" style="fill:#002744;fill-rule:evenodd"/><polygon points="195.43 245.2 163.38 226.72 195.43 208.23 227.48 226.72 195.43 245.2" style="fill:#f6ca9f;fill-rule:evenodd"/><polygon points="195.43 245.2 163.38 226.72 195.43 208.23 227.48 226.72 195.43 245.2" style="fill:#f6ca9f;fill-rule:evenodd"/><polygon points="163.34 226.68 195.39 245.17 195.39 265.72 163.34 247.23 163.34 226.68" style="fill:#d2a06f;fill-rule:evenodd"/><polygon points="195.38 245.24 227.44 226.75 227.44 247.26 195.38 265.75 195.38 245.24" style="fill:#91633e;fill-rule:evenodd"/><polygon points="183.29 238.18 176.89 234.49 208.94 216.01 215.34 219.7 183.29 238.18" style="fill:#d2a06f;fill-rule:evenodd"/><polygon points="176.87 234.47 183.27 238.17 183.27 258.71 176.87 255.02 176.87 234.47" style="fill:#91633e;fill-rule:evenodd"/><polygon points="182.88 237.94 176.89 234.49 208.94 216 214.93 219.46 182.88 237.94" style="fill:#f9ebde;fill-rule:evenodd"/><polygon points="176.87 234.47 182.84 237.92 182.84 258.46 176.87 255.01 176.87 234.47" style="fill:#ada196;fill-rule:evenodd"/><path d="M216.3,226.47a2.31,2.31,0,0,1,2.46,0l2.52,1.45q1.23.71,0,1.42l-7,4a2.31,2.31,0,0,1-2.46,0l-2.52-1.45q-1.23-.71,0-1.42Z" transform="translate(-1.74 -1.58)" style="fill:#d2a06f;fill-rule:evenodd"/><path d="M216.3,226.05a2.31,2.31,0,0,1,2.46,0l2.52,1.45q1.23.71,0,1.42l-7,4a2.31,2.31,0,0,1-2.46,0l-2.52-1.45q-1.23-.71,0-1.42Z" transform="translate(-1.74 -1.58)" style="fill:#f9ebde;fill-rule:evenodd"/><path d="M202.39,255.73l-2.88,1.66,5-8.59,4.26,3.27-2.21,1.28v3.23L202.38,259Zm-2.68,7.52V262l8.85-5.09v1.27Z" transform="translate(-1.74 -1.58)" style="fill:#b1865b;fill-rule:evenodd"/><polygon points="195.43 221.29 163.38 202.81 195.43 184.33 227.48 202.81 195.43 221.29" style="fill:#f6ca9f;fill-rule:evenodd"/><polygon points="195.43 221.29 163.38 202.81 195.43 184.33 227.48 202.81 195.43 221.29" style="fill:#f6ca9f;fill-rule:evenodd"/><polygon points="163.34 202.78 195.39 221.27 195.39 241.81 163.34 223.32 163.34 202.78" style="fill:#d2a06f;fill-rule:evenodd"/><polygon points="195.38 221.34 227.44 202.85 227.44 223.36 195.38 241.85 195.38 221.34" style="fill:#91633e;fill-rule:evenodd"/><polygon points="183.29 214.28 176.89 210.59 208.94 192.1 215.34 195.8 183.29 214.28" style="fill:#d2a06f;fill-rule:evenodd"/><polygon points="176.87 210.57 183.27 214.26 183.27 234.81 176.87 231.12 176.87 210.57" style="fill:#91633e;fill-rule:evenodd"/><polygon points="182.88 214.04 176.89 210.58 208.94 192.1 214.93 195.56 182.88 214.04" style="fill:#f9ebde;fill-rule:evenodd"/><polygon points="176.87 210.57 182.84 214.01 182.84 234.56 176.87 231.11 176.87 210.57" style="fill:#ada196;fill-rule:evenodd"/><path d="M216.3,202.57a2.31,2.31,0,0,1,2.46,0l2.52,1.45q1.23.71,0,1.42l-7,4a2.31,2.31,0,0,1-2.46,0L209.34,208q-1.23-.71,0-1.42Z" transform="translate(-1.74 -1.58)" style="fill:#d2a06f;fill-rule:evenodd"/><path d="M216.3,202.15a2.31,2.31,0,0,1,2.46,0l2.52,1.45q1.23.71,0,1.42l-7,4a2.31,2.31,0,0,1-2.46,0l-2.52-1.45q-1.23-.71,0-1.42Z" transform="translate(-1.74 -1.58)" style="fill:#f9ebde;fill-rule:evenodd"/><path d="M202.39,231.83l-2.88,1.66,5-8.59,4.26,3.27-2.21,1.28v3.23l-4.13,2.38Zm-2.68,7.52v-1.27l8.85-5.09v1.27Z" transform="translate(-1.74 -1.58)" style="fill:#b1865b;fill-rule:evenodd"/><path d="M430.69,44.12l.57-.35,5.82,3.37v.67ZM469,66.28l-6.39-3.72.6-.32L469,65.58Zm47.21,56.59-28.58.16-6.3-20.28ZM127.86,219.55V226l-1.43-.8v-4.86Zm226-216.13L471.23,71.2l-226,130.48L127.86,133.9Zm47.82,23.91.57-.32L408,30.35V31Zm20.92,12.08-6.39-3.69.57-.35,5.82,3.37ZM376.07,12.58l-6.39-3.69.57-.35,5.82,3.37Zm98.72,76.91,0-.1.57.13Zm-4.13-13.73-5.82,3.34v3.37l-.89-.51V78.58l5.82-3.34Zm-10,29.6,9.35,5.56v20l-8-4.8-.41.22v-.48l-.92-.54Zm8.93,24.83v-19l-8.52-5.09v19Zm-8.9-3.43,8.52,6v8.9l-1.65-1.08-1-.73-4.93-3.47-.89-.64Zm8.14,14.18v-8L461,127.51v8Zm44.67,19.27-.89-.51v-3.34l5.82-3.37.86.51-5.79,3.34Zm-29.57,27.91,0,0-.25.19-.29.09Zm-12.08,27.28,1.59.29,1.53-.13-.25.06-1.27.06H473l-1.11-.25ZM140.07,151.51v-3.37l-5.82-3.34.86-.51,5.82,3.37V151Zm7.19,50.93-.73-.45v-6.71l-2.89-1.68.7-.41,2.92,1.68Zm0,34.56v7.57l-.73-.45v-6.71l-2.89-1.68.7-.41Zm18.95-73.76.89-.51,5.79,3.37v3.37L172,170v-3.34ZM189.44,180v-3.37l-8.71-5,.89-.51,8.71,5.06v3.34Zm55.83,113.82-1.18-.7v-4.86l1.18-.67,158.27-91.41.57.35.83.48v4.87l-.83.48L245.49,294ZM224,246.71V240L221,238.34l.73-.45,2.92,1.68v6.71Zm0,42.13v-6.71L221,280.44l.73-.41,2.92,1.69v6.71ZM304,291.95l-.25.06.29-.09Zm2.64,18h-.22l.25-.06Zm-14.08,9-.06,0,1.59.29,1.53-.13-.25.06-1.27.06h-.41Zm8.2-8.3-.25-.1h0Zm3.62-6.07-.29-.22h0Zm-1.84,9.89.06-.19.06,0ZM192,311.95l-21.27-12.3v-13L192,298.91ZM483.47,200.83l.16.16-.19-.16ZM479.85,207l.29.13-.25-.1Zm2.1,3.75,0,0-.09.22Z" transform="translate(-1.74 -1.58)" style="fill:#e9e9e9;fill-rule:evenodd"/><path d="M245.27,201.69l226-130.48,3.18-1.84,3.21,1.84v3.69l-2.39,1.53H475V82.2l6.36,20.54,6.3,20.28,2.35,7.69,37.87-.22v43.27l-17.68,10.17a24.13,24.13,0,0,0-2.54-9.35l-.13.1q-4.83-6.8-12.43-7.19h0l-5.4.89h0q-16,4.64-24.8,22.45l-4.26,8.87-8,25.66-1.27.73L331.4,295.35q-1.15-19.2-13.39-21.08l-2.73.29q-8.77-.67-17.07,6.55a49.16,49.16,0,0,0-12.49,16.76l-4.26,8.84-2.67,9-.92,8.52v2L275,327.94l-11.64,6.68-18.06,10.46V293.86l.22.13,158.62-91.6V251L449,225.15l7.88-24.67V94.35l-1.4.83-51.35,29.63v71.76l-.57-.35L245.27,287.62Zm215.4-74.94v9l.89.64v3.31l.13,1,.44.92.1.09.41.35.8.25.89-.1,1-.41,2.23-1.27,1.65,1.08.06,9.7-2,1.18-7.44-4.29-.76.16-.48,1,.48.51,8.24,4.74,3.31-1.91.51-.7V140.8l.7-.35v-2.38L483,131.64l1-.73.92-1,.76-1.11.6-1.24.38-1.27.13-1.21-.13-1-10.3-33.19-.35-.83-.6-.54-.57-.13,0,.1-1.14-.13-1,.41L465.32,94l-1,.7-.89,1-.48.7-3.12-1.81-.8.16-.48,1,.48.48L462.11,98l-.41,1.3-.13,1.18v4.32l-.92.51v20l.92.54v.48Zm4.17-44.29,5.82-3.37V75.75l-.89-.51L464,78.58v3.37Zm54.43,71-.86-.51-5.82,3.37v3.34l.89.51,5.79-3.37ZM151.7,172.09v8.55l3.15,1.81,0,82.81-7.57,4.36h0V169.51ZM258,198.47l-.86-.48-5.82,3.34v3.37l.89.51,5.79-3.37Z" transform="translate(-1.74 -1.58)" style="fill:#666;fill-rule:evenodd"/><path d="M147.25,244.57v25l-19.39-11V133.9l117.41,67.78v85.94l-1.18.67v4.86l1.18.7v51.22l-4.67-2.67V323.65l-18.79-10.86v-25.2l2.16,1.24.73-.41v-6.71L221.78,280V245.47l2.19,1.24.73-.41v-6.71l-2.92-1.68V212.53l-66.45-38.34-3.62-2.1-4.45-2.58v25.37l-2.92-1.68-.7.41v6.71l2.89,1.68.73.45V237l-2.92-1.68-.7.41v6.71l2.89,1.68Zm256.86,4.83v-47l.83-.48V197l-.83-.48V124.81l51.35-29.63V199.65l-7.88,24.67Zm5.47-110.18V168l.13,1,.38.83.19.16.41.38.76.26.89-.1,1-.41L449,149.61l1-.7.92-1,.76-1.14.6-1.24.38-1.24.13-1.21V104l-.13-1-.38-.83-.6-.54-.54-.19-.22-.06-.92.1-1,.41-35.67,20.6-1,.7-.89,1-.76,1.14-.6,1.24-.38,1.27-.13,1.18Zm43.37,17-1.59-.13-1.59,2v2.13l.35.22,1.62.16.67-.86,1,.54-.38,6.1.38.29.6-.35.54-2.07.19-5-1.37-.79v-2Zm-318.7-11.38v3.34l5.82,3.37.86-.51v-3.34l-5.82-3.37ZM172,170l.86-.48v-3.37l-5.79-3.37-.89.51v3.37Zm8.71,1.68V175l8.71,5,.89-.51v-3.34l-8.71-5.06Zm46.51,26.83v3.37l5.79,3.37.89-.51v-3.37L228.1,198Z" transform="translate(-1.74 -1.58)" style="fill:#bebebe;fill-rule:evenodd"/><path d="M462.65,62.56,469,66.28l5.37,3.08-3.18,1.84L353.82,3.42,357,1.58l12.65,7.31,6.39,3.69,25.56,14.75L408,31l8.14,4.67,6.39,3.69,8.14,4.71,6.39,3.69Zm25,60.47,28.58-.16,10.33,6,1.3,1.65-37.87.22ZM474.79,89.48l.54,0,.6.54.35.83,10.3,33.19.13,1-.13,1.21-.38,1.27-.6,1.24-.76,1.11-.92,1-1,.73-11.16,6.42v-1.34l10-5.79,1-.7.89-1,.76-1.14.6-1.24.38-1.24.13-1.21-.13-1L475.14,90.22ZM404.11,249.41l43.46-25.09,7.88-24.67V95.18l1.4-.83V200.48L449,225.15,404.11,251Zm6.17-79.33.92-.13,1-.41L437.29,155h0l10.52-6.09,1-.7.92-1,.76-1.14.6-1.24.38-1.27.13-1.18V103.32l-.13-1-.35-.89.54.19.6.54.38.83.13,1v39.14l-.13,1.21-.38,1.24-.6,1.24-.76,1.14-.92,1-1,.7-35.67,20.6-1,.41-.89.1-.76-.26Zm56.21-30.27,1,.73-2.23,1.27-1,.41-.89.1-.8-.25-.41-.35.92-.16,1-.41Z" transform="translate(-1.74 -1.58)" style="fill:#bebebe;fill-rule:evenodd"/><path d="M501.21,176.22l2.38,2.58,1.75,3.34,1.08,4,.38,4.48v.13l-.38,5L505.34,201l-1.75,5.4-2.38,5.34-3,5.12-3.43,4.74L491,225.88l-4,3.56-4.17,2.83-4.17,2-4,1.08-3.78.16-1.21-.25-.29-.06-1.91-.45-3-1.72-2.42-2.58-1.75-3.34-1.08-4-.38-4.61.38-5,1.08-5.28,1.75-5.37,2.42-5.34,3-5.12,3.4-4.74,3.78-4.23,4-3.59,4.17-2.8,4.17-2,4-1.08,3.78-.13,3.4.76ZM288.13,338.27l-3-1.75-2.38-2.58L281,330.61l-1.08-4-.38-4.61.38-5,1.08-5.31,1.75-5.37,2.42-5.34,3-5.12,3.4-4.74,3.78-4.23,4-3.56,4.17-2.83,4.17-2,4-1.08,3.78-.13,3.43.8,3,1.65,2.38,2.61,1.75,3.34,1.08,4,.29,3.34.1,1.27-.38,5L326,304.6,324.28,310l-2.38,5.34-3,5.12-3.43,4.74-3.78,4.23-4,3.56-4.17,2.83-4.17,2-4,1.08-3.82.13Zm-67.88-9.6v22.45l-101.1-58.37V270.3l11.6,6.71v13l77.89,45V322ZM470.53,130.59l1-.51.32,1.43ZM462.11,98l-3.05-1.78-.48-.48.48-1,.8-.16L463,96.38l5,2.89,3.15,5.44v4.1l-1.84-1.11V105.1l-2.54-4.42Zm9,42.76V152l-.51.7-3.31,1.91-8.24-4.74-.48-.51.48-1,.76-.16,7.44,4.29,2-1.18-.06-9.7.06,0Zm-18.15,15.39.38.22v2l1.37.79-.19,5-.54,2.07-.6.35-.38-.29.38-6.1-1-.54-.67.86-1.62-.16-.35-.22V158l1.59-2Zm17.33,49.22-.51,1.59-.64,3.15,0,.73-.16,1.78,0,.51.19,2.42.32,1.24.35,1.53,1,2,1.43,1.53,1.78,1,2.07.48,2.26-.06,2.42-.67,2.51-1.18,2.48-1.72,2.42-2.13,2.29-2.54,2-2.83,1.78-3.08,1.43-3.18,1.08-3.24.64-3.18.22-3-.22-2.77-.64-2.42-1.08-2-1.43-1.56-1.78-1-2-.48-2.29.1-1.46.45-1.27.35-1.53.89-.57.32-.48.13-.38.25-1.11.76-.6.38-2.42,2.16-1.94,2.16-.38.41-2,2.8-.48.83-1.3,2.23-1.43,3.21ZM154.83,265.26l67,38.77v8.76l-.59-.33-74-42.83,0,0ZM307.4,290.39l-1.24.35-2.1,1.18-.29.09-.19.06-.41.25-1.11.76-.6.38L299,295.64l-1.94,2.16-.38.41-2,2.8-.48.83-1.3,2.23-1.43,3.21-.54,1.65-.51,1.59-.6,3.18-.06.73-.16,1.75,0,.51.19,2.42.32,1.24.35,1.53,1,2,1.46,1.56,1.75,1,2.07.48,2.26-.09,2.42-.67L304,325l2.48-1.69,2.45-2.16,2.26-2.54,2.07-2.83,1.75-3.08,1.43-3.18,1.08-3.24.64-3.18.22-3-.22-2.77-.64-2.42-1.08-2L315,291.34l-1.78-1-2-.48-2.29.1Zm-136.71-3.75v13l-28.3-16.34v-13ZM192,298.91l28.3,16.34L209,321.77l-17-9.82Z" transform="translate(-1.74 -1.58)" style="fill:#5b5b5b;fill-rule:evenodd"/><path d="M451.3,226.1l1.27-.73,8-25.66,4.26-8.87q8.81-17.8,24.8-22.45h0l1.87,1,7.92,5,1.75,1.91-3-1.72-3.4-.76-3.78.13-4,1.08-4.17,2-4.17,2.8-4,3.59-3.78,4.23-3.4,4.74-3,5.12-2.42,5.34-1.75,5.37-1.08,5.28-.38,5,.38,4.61,1.08,4,1.75,3.34,2.42,2.58,3,1.72-2.51-.57-8.27-4.36-5-3.27Zm-188,108.51L275,327.94v13.42Zm-31.44-5.95v22.45H220.25V328.67Zm250.6-139.86,1.37-.06,1.49.35.64.35-.06.41L484,193.61l-.6.38-.54-.48-1.49-3.94Zm6.17,10.68-1.62,0-.06-.29-.09-.25.16-1,1.49-4.39.13-.25.25.86.16,2-.16,2.19Zm-7.28,12.59.51-1.14.09-.22,0,0,.92-2,.54-.83.6-.6,1.72-.86H486l-.64,1.11-3.15,3.91ZM475,215.55l-1.53.13-1.59-.29-.54-.48.29-.29.22-.16,3.85-2.35.67-.16.16-.06.32.32-.64,2.83-.19.25,0,0Zm1.46-21.27.38,2.73-.32,1-.83.45-2.1-.13.48-.83,2-2.8ZM291,308.93l2.35.86.38.7-.38.83-3.53,3.12.06-.73.6-3.18Zm6.14-11.13.38,2.77-.32,1-.83.45-2.1-.13.48-.83,2-2.8Zm12.24-1,.25.86.16,2-.16,2.19-.22,1.14-1.65,0-.13-.54.13-1,1.49-4.39Zm-6.17-4.48,1.37-.06,1.49.35.64.38,0,.38-1.94,3.78-.6.35-.54-.48-1.49-3.94Zm-1,23.34.44-1.21.13-.22-.06,0,.92-2,.54-.83.6-.6,1.75-.86h.22l-.64,1.11L302.88,315Zm-6.49,3.4-1.53.13-1.59-.29-.54-.48.29-.29.22-.16,3.85-2.35.67-.16.16-.06.32.32-.64,2.83-.19.25,0,0Zm8.52-14.72h0l-.76,0-.86.32-.45.29-1.18,1.3-.54,1.11-.32,1.11,0,.54,0,.48.13.41.16.35.22.32-.6-.19-.32-.19-.25-.29-.19-.38-.13-.45,0-.48,0-.57.13-.57.45-1.18.7-1.08.89-.86.45-.32.45-.22.45-.13h.41l.38.1.35.19ZM483.44,200.83l-.38-.06-.38,0-.41.09-.89.51-.41.38-.76.92-.32.54-.41,1.11-.13.57,0,.51,0,.51.1.41.19.35.22.29,0,0-.64-.19-.32-.19-.26-.29-.19-.38-.13-.44,0-.51,0-.54.13-.57.45-1.21.7-1.08.86-.86.92-.51.44-.13h.41l.38.06.32.19.51.45Zm-14.34,10,0-.73.64-3.15.51-1.59,2.35.86.38.67-.38.86Z" transform="translate(-1.74 -1.58)" style="fill:#414141;fill-rule:evenodd"/><path d="M510.21,183.94l17.68-10.17v8.9l-17.68,10.17ZM275,331.75v-3.81l2.89-1.69v-2l.92-8.52,2.67-9,4.26-8.84a49.16,49.16,0,0,1,12.49-16.76q8.3-7.22,17.07-6.55l4.9,3.27,1.72,1.88-3-1.65-3.43-.8-3.78.13-4,1.08-4.17,2-4.17,2.83-4,3.56-3.78,4.23-3.4,4.74-3,5.12-2.42,5.34L281,311.66,279.93,317l-.38,5,.38,4.61,1.08,4,1.78,3.34,2.38,2.58,3,1.75-2.51-.57-8.27-4.39Zm-43.08,19.36V328.67l8.71-5v22.45ZM179.33,196.58l-24.48-14.13-3.15-1.81v-8.55l3.62,2.1,0,4.09,24,13.86Zm42.44,24.5-21.89-12.64L196,206.22v-4.45l25.75,14.86ZM142.39,283.3,130.75,290V277l11.64-6.71Z" transform="translate(-1.74 -1.58)" style="fill:#2d2d2d;fill-rule:evenodd"/><path d="M130.75,290l11.64-6.74,28.3,16.34L192,311.95l17,9.82,11.26-6.52L192,298.91l-21.27-12.27-28.3-16.34L130.75,277l-11.6-6.71v-6.71l8.71-5,19.39,11v0l74,42.83.59.35v0l18.79,10.86-8.71,5H220.25L208.65,322v13Zm353.13-101.9,0,0,1.53-.89,1.27-.35h2.13l1.91.38,1.68,1,1.34,1.43,1,1.91.6,2.26.22,2.58-.22,2.83-.6,3-1,3-1.34,3-3.59,5.56-2.13,2.38-2.29,2-2.32,1.59-2.35,1.11-2.26.6-2.13.09-1.94-.44-1.65-1-1.33-1.53-1-1.81-.32-1.24-.19-2.42,0-.51.22.8.06.32.86,1.62,1.14,1.21,1.43.83,1.62.38,1.81-.06,1.94-.54,2-1,2-1.34,3.75-3.75,3.05-4.74,2-5.12.7-5-.19-2.19-.51-1.94-.86-1.62-1.14-1.21-1.43-.83-1.62-.38Zm-328.56-14,66.45,38.34v4.1L196,201.76v8.92L179.33,201v-4.47l0-4.45-24-13.86Zm149,117.67-.32.09,0,0,2.1-1.18,1.24-.35h2.13l1.91.38,1.69,1,1.34,1.46,1,1.88.6,2.26.22,2.61-.19,2.8-.64,3-1,3-1.34,3-1.65,2.86-1.94,2.67-2.13,2.38-2.26,2-2.35,1.59-2.35,1.11-2.26.6-2.13.1-1.94-.45-1.65-1-1.3-1.46-1-1.88-.32-1.24-.19-2.42,0-.51.22.79.06.32.86,1.62,1.14,1.24,1.43.79,1.62.38,1.84-.06,1.91-.51,2-1,2-1.37,3.75-3.75,3.05-4.71,2-5.15.7-5-.19-2.19-.51-1.94-.86-1.59-1.14-1.24-1.4-.83-1.65-.38-1.81.06Z" transform="translate(-1.74 -1.58)" style="fill:#7d7d7d;fill-rule:evenodd"/><path d="M506.81,190.65l-.38-4.48-1.08-4-1.75-3.34-2.38-2.58-1.75-1.91-7.92-5-1.87-1,5.4-.89h0q7.6.38,12.43,7.19l.13-.1a24.13,24.13,0,0,1,2.54,9.35v8.9Zm-191.53,83.9,2.73-.29q12.24,1.88,13.39,21.08l-4-2.32-.29-3.34-1.08-4-1.75-3.34-2.38-2.61-1.72-1.88Zm-115.4-66.12L196,210.68v-4.47Z" transform="translate(-1.74 -1.58)" style="fill:#0b0b0b;fill-rule:evenodd"/><path d="M464.84,82.46V79.09l5.82-3.34v3.34Zm48.64,77.74v-3.37l5.79-3.34v3.34Zm-373.42-8.68-5.82-3.37v-3.34l5.82,3.34ZM146.52,202l-2.89-1.68v-6.71l2.89,1.68Zm19.68-38.76,5.82,3.37V170l-5.82-3.34ZM189.44,180l-8.71-5v-3.37l8.71,5ZM258,198.47v3.37l-5.79,3.37v-3.37Zm-30.78,0,5.79,3.37v3.37l-5.79-3.37Zm-5.47,47-.73-.41v-6.71L224,240v6.71Zm0,42.13-.76-.45v-6.71l2.93,1.68v6.71Zm-78.18-51.85,2.89,1.68v6.71l-2.89-1.68Z" transform="translate(-1.74 -1.58)" style="fill:#f60;fill-rule:evenodd"/><path d="M252.23,205.21l-.89-.51v-3.37l5.82-3.34.86.48-5.79,3.37Zm-19.2,0v-3.37l-5.79-3.37.86-.48,5.82,3.34v3.37Z" transform="translate(-1.74 -1.58)" style="fill:#fc0;fill-rule:evenodd"/><path d="M486.71,186.87l1.46-.45,2.29-.1,2,.48,1.78,1,1.43,1.56,1.08,2,.64,2.42.22,2.77-.22,3-.64,3.18L495.71,206l-1.43,3.18-1.78,3.08-2,2.83-2.29,2.54-2.42,2.13-2.48,1.72-2.51,1.18-2.42.67-2.26.06-2.07-.48-1.78-1-1.43-1.53-1-2-.35-1.53,1,1.81,1.33,1.53,1.65,1,1.94.44,2.13-.09,2.26-.6,2.35-1.11,2.32-1.59,2.29-2,2.13-2.38,3.59-5.56,1.34-3,1-3,.6-3,.22-2.83-.22-2.58-.6-2.26-1-1.91-1.34-1.43-1.68-1-1.91-.38Zm-14.88,28.52.06,0-.38-.1-1.33-.76-1-1.11-.22-.8.16-1.78,3.53-3.08.38-.86-.38-.67-2.35-.86.54-1.65,1.43-3.21,1.3-2.23,2.1.13.83-.45.32-1-.38-2.73,1.94-2.16,2.42-2.16.6-.38,1.49,3.94.54.48.6-.38,1.91-3.75.06-.41-.64-.35-1.49-.35-1.37.06.38-.25.48-.13.29-.09,1.49.35,1.3.76,1.08,1.11.92,1.84.22.89-.13.25L487,197.93l-.16,1,.09.25.06.29,1.62,0-.22,1.14-1.81,4.67-.64,1.11h-.25l-1.72.86-.6.6-.54.83-.92,2-.06.19-.51,1.14-2.73,2.13-1.81.86-.86.22.19-.25.64-2.83-.32-.32-.16.06-.67.16-3.85,2.35-.22.16-.29.29Zm-181.73,105,1,1.88,1.3,1.46,1.65,1,1.94.45,2.13-.1,2.26-.6,2.35-1.11,2.35-1.59,2.26-2,2.13-2.38,1.94-2.67,1.65-2.86,1.34-3,1-3,.64-3,.19-2.8-.22-2.61-.6-2.26-1-1.88-1.34-1.46-1.69-1-1.91-.38H307.4l1.46-.44,2.29-.1,2,.48,1.78,1,1.43,1.56,1.08,2,.64,2.42.22,2.77-.22,3-.64,3.18-1.08,3.24L315,312.68l-1.75,3.08-2.07,2.83-2.26,2.54-2.45,2.16L304,325l-2.51,1.18-2.42.67-2.26.09-2.07-.48-1.75-1-1.46-1.56-1-2Zm12.46-5.88-.44,1.21-1,.86-1.81,1.21-1.81.86-.86.22.19-.25.64-2.83-.32-.32-.16.06-.67.16L292.49,318l-.22.16-.29.29.54.48.06,0-.38-.1-1.3-.76-1-1.11-.22-.79.16-1.75,3.53-3.12.38-.83-.38-.7-2.35-.86.54-1.65,1.43-3.21,1.3-2.23,2.1.13.83-.45.32-1-.38-2.77,1.94-2.16,2.42-2.16.6-.38,1.49,3.94.54.48.6-.35,1.94-3.78,0-.38-.64-.38-1.49-.35-1.37.06.41-.25.19-.06.25-.06.32-.09,1.46.35,1.34.76,1,1.14.92,1.81.22.89-.13.25-1.49,4.39-.13,1,.13.54,1.65,0-.25,1.14-1.81,4.67-.6,1-.25.06-1.75.86-.6.6-.54.83-.92,2Zm-2-3.91.25.1.44.13h.41l.86-.32.86-.67.73-1,.32-.54.45-1.11.16-1.08,0-.48-.13-.41-.19-.35-.25-.29-.25-.22-.48-.41-.35-.19-.38-.1h-.41l-.45.13-.45.22-.45.32-.89.86-.7,1.08-.45,1.18L299,308l0,.57,0,.48.13.45.19.38.25.29.32.19ZM479.88,207l.25.1.41.13.38,0,.45-.09.86-.51.83-.79.67-1,.45-1.11.16-1.08,0-.48-.13-.45-.19-.35-.35-.32-.16-.16-.51-.45-.32-.19-.38-.06h-.41l-.44.13-.92.51-.86.86-.7,1.08-.45,1.21-.13.57,0,.54,0,.51.13.44.19.38.26.29.32.19Z" transform="translate(-1.74 -1.58)" style="fill:#b1b0b0;fill-rule:evenodd"/><path d="M483.63,188.33l.25-.19,1.91,0,1.62.38,1.43.83,1.14,1.21.86,1.62.51,1.94.19,2.19-.7,5-2,5.12-3.05,4.74L482,214.91l-2,1.34-2,1-1.94.54-1.81.06-1.62-.38-1.43-.83-1.14-1.21-.86-1.62-.06-.32,1,1.11,1.33.76.38.1,1.11.25h.41l1.27-.06.25-.06,1-.22,0,0,.86-.22,1.81-.86,2.73-2.13.83-.64,3.15-3.91.64-1.11.64-1.11,1.81-4.67.22-1.14.25-1.14.16-2.19-.16-2-.25-.86-.22-.89-.92-1.84-1.08-1.11-1.3-.76ZM289.85,317l1,1.11,1.3.76.38.1,1.11.25h.41l1.27-.06.25-.06,1-.22,0,0,.86-.22,1.81-.86,1.81-1.21,1-.86.76-.7,3.15-3.91.64-1.11,0-.06.6-1,1.81-4.67.25-1.14.22-1.14.16-2.19-.16-2-.25-.86-.22-.89-.92-1.81-1-1.14-1.34-.76-1.46-.35.32-.1,1.81-.06,1.65.38,1.4.83,1.14,1.24.86,1.59.51,1.94.19,2.19-.7,5-2,5.15-3.05,4.71-3.75,3.75-2,1.37-2,1-1.91.51-1.84.06-1.62-.38-1.43-.79-1.14-1.24-.86-1.62Zm14.56-12.4.25.29.19.35.13.41,0,.48-.16,1.08-.45,1.11-.32.54-.73,1-.86.67-.86.32h-.41l-.44-.13-.22-.1h0l-.22-.32-.16-.35-.13-.41,0-.48,0-.54.32-1.11.54-1.11,1.18-1.3.45-.29.86-.32.76,0Zm175.72-97.45-.29-.13-.22-.29-.19-.35-.1-.41,0-.51,0-.51.13-.57.41-1.11.32-.54.76-.92.41-.38.89-.51.41-.09.38,0,.38.06.19.16.35.32.19.35.13.45,0,.48-.16,1.08-.45,1.11-.67,1-.83.79-.86.51-.45.09-.38,0Z" transform="translate(-1.74 -1.58)" style="fill:#dcdcdc;fill-rule:evenodd"/><path d="M470,110.91l-9.35-5.56.92-.51,1.49-.86,6.2,3.72,1.84,1.11,1.3.76Zm-.8,21.81-8.52-6,.89-.41.41-.22,8,4.8.54-.32,1.27.92Z" transform="translate(-1.74 -1.58)" style="fill:#a2a2a2;fill-rule:evenodd"/><path d="M469.2,132.72l2.61-1.21v8.93l-.7.35-1.84.86-.06,0Zm3.21-23.15v20l-.92.54-1,.51-.54.32v-20Z" transform="translate(-1.74 -1.58)" style="fill:#0a0a0a;fill-rule:evenodd"/><path d="M469.58,130.18l-8.52-5.09v-19l8.52,5.09Zm-.76,10.75L461,135.49v-8l7.79,5.44Z" transform="translate(-1.74 -1.58)" style="fill:#96dace;fill-rule:evenodd"/><path d="M463,96.38l.48-.7.89-1,1-.7,7.38-4.26,1-.41,1.14.13.35.73,10.27,33.19.13,1-.13,1.21-.38,1.24-.6,1.24-.76,1.14-.89,1,.11-.13q-5.23-4.42-10.48-8.11V109.58l-1.3-.76v-4.1L468,99.28ZM462.11,98l4.61,2.64,2.54,4.42v2.61l-6.2-3.72-1.49.86v-4.32l.13-1.18Zm-52.52,41.19q4.31,2.76,10.59,6.41,11.36,6.6,17.12,9.39l-25.13,14.51-1,.41-.92.13-.19-.16-.38-.83-.13-1Z" transform="translate(-1.74 -1.58)" style="fill:#1d3a46;fill-rule:evenodd"/><path d="M437.29,155q-5.76-2.8-17.12-9.39-6.27-3.64-10.59-6.41V128.91l.13-1.18.38-1.27.6-1.24.76-1.14.89-1,1-.7L449,101.82l1-.41.92-.1.22.06.35.89.13,1v39.14l-.13,1.18-.38,1.27-.6,1.24-.76,1.14-.92,1-1,.7L437.31,155Z" transform="translate(-1.74 -1.58)" style="fill:#2e5361;fill-rule:evenodd"/><path d="M471.8,136.73v-5.21l-.32-1.43.92-.54V122q5.25,3.69,10.48,8.11l-.11.13-1,.7Zm-10.24-.38,4.93,3.47-2.35,1.34-1,.41-.92.16-.1-.09-.44-.92-.13-1Z" transform="translate(-1.74 -1.58)" style="fill:#719eb4;fill-rule:evenodd"/><path d="M239,277.18a10.89,10.89,0,0,1,1.62,5.45v31.29q0,2.64-1.62,3.54t-3.88-.37l-4.54-2.62a10.9,10.9,0,0,1-3.91-4.13,10.78,10.78,0,0,1-1.6-5.4V273.66q0-2.64,1.6-3.59t3.91.41l4.54,2.62A10.78,10.78,0,0,1,239,277.18Z" transform="translate(-1.74 -1.58)" style="fill:#724f03;fill-rule:evenodd"/><path d="M230.27,301.6a5.49,5.49,0,0,1,2.18-.53,3.2,3.2,0,0,1,2.08.46,7,7,0,0,1,2.22,1.88,10.85,10.85,0,0,1,1.65,2.81,7.75,7.75,0,0,1,.53,2.84,3.42,3.42,0,0,1-.63,2,7.07,7.07,0,0,1-1.62,1.62q-.46.13-.93.3c-.24,0-.47,0-.69,0a4.67,4.67,0,0,1-1-.23,7.32,7.32,0,0,1-2-1.39,18.11,18.11,0,0,1-2.18-2.48,6.14,6.14,0,0,1-.89-5,4.61,4.61,0,0,1,.4-1,2.9,2.9,0,0,1,.33-.56A3.93,3.93,0,0,1,230.27,301.6Z" transform="translate(-1.74 -1.58)" style="fill:#3b2800;fill-rule:evenodd"/><path d="M234.57,288.69a8.48,8.48,0,0,1,2.18,2,10.16,10.16,0,0,1,1.62,2.81,7.6,7.6,0,0,1,.56,2.88,3.27,3.27,0,0,1-.63,2,6.77,6.77,0,0,1-1.62,1.65l-.93.26c-.24,0-.47,0-.69,0a3.36,3.36,0,0,1-2.12-.66,10.23,10.23,0,0,1-2-2,25.49,25.49,0,0,1-2-3.14,5.23,5.23,0,0,1-.15-3.31,9.29,9.29,0,0,1,.4-1,2.57,2.57,0,0,1,.33-.6,6.53,6.53,0,0,1,.66-.69A3.42,3.42,0,0,1,234.57,288.69Z" transform="translate(-1.74 -1.58)" style="fill:#3b2800;fill-rule:evenodd"/><path d="M234.54,275.88a7.6,7.6,0,0,1,2.22,1.88,10.17,10.17,0,0,1,1.62,2.81,7.6,7.6,0,0,1,.56,2.88,3.42,3.42,0,0,1-.63,2,7.05,7.05,0,0,1-1.62,1.62q-.46.13-.93.3l-.69-.07a5,5,0,0,1-4.23-2.51q-.86-1.29-1.62-2.61a6.06,6.06,0,0,1-.3-3.9,5.63,5.63,0,0,1,.36-1,2.6,2.6,0,0,1,.33-.59,6.54,6.54,0,0,1,.66-.69,7.05,7.05,0,0,1,2.18-.63A3.56,3.56,0,0,1,234.54,275.88Z" transform="translate(-1.74 -1.58)" style="fill:#3b2800;fill-rule:evenodd"/><path d="M234.84,311.25a5.1,5.1,0,0,0,.89-4.16,9.09,9.09,0,0,0-.81-2.27q-.14-.28-.3-.56a9.38,9.38,0,0,0-1.91-2.35,4.86,4.86,0,0,0-2.16-1.14,4.6,4.6,0,0,0-1.88-.19,5.28,5.28,0,0,1,2.1-.51,3.08,3.08,0,0,1,2,.45,6.71,6.71,0,0,1,2.13,1.81,10.43,10.43,0,0,1,1.59,2.7,7.46,7.46,0,0,1,.51,2.73,3.29,3.29,0,0,1-.6,1.94A6.8,6.8,0,0,1,234.84,311.25Z" transform="translate(-1.74 -1.58)" style="fill:#7d7d7d;fill-rule:evenodd"/><path d="M233.68,302.9a12.21,12.21,0,0,0-2.05-1.45,7.5,7.5,0,0,0-1.91-.76,3.1,3.1,0,0,0-2,1.11,2.78,2.78,0,0,1,.32-.54,3.76,3.76,0,0,1,.6-.7,4.6,4.6,0,0,1,1.88.19,4.86,4.86,0,0,1,2.16,1.14A9.28,9.28,0,0,1,233.68,302.9Zm1.16,8.35q-.45.13-.89.29c-.23,0-.46,0-.67,0a5.18,5.18,0,0,0,1.21-.8,2.75,2.75,0,0,0,.89-1.4,5.72,5.72,0,0,0,.16-2.32,7.67,7.67,0,0,0-.62-2.18,9.09,9.09,0,0,1,.81,2.27,5.1,5.1,0,0,1-.89,4.16Z" transform="translate(-1.74 -1.58)" style="fill:#bbb;fill-rule:evenodd"/><path d="M227.75,301.8a3.1,3.1,0,0,1,2-1.11,7.5,7.5,0,0,1,1.91.76,12.21,12.21,0,0,1,2.05,1.45,18.24,18.24,0,0,1-.37,2.18,2.73,2.73,0,0,1-1.43,2,7.36,7.36,0,0,1-.92.45,9.81,9.81,0,0,1-2.73.06,5.91,5.91,0,0,1-.86-4.8A4.45,4.45,0,0,1,227.75,301.8Z" transform="translate(-1.74 -1.58)" style="fill:#f60;fill-rule:evenodd"/><path d="M234.92,304.81a7.67,7.67,0,0,1,.62,2.18,5.72,5.72,0,0,1-.16,2.32,2.75,2.75,0,0,1-.89,1.4,5.18,5.18,0,0,1-1.21.8,4.47,4.47,0,0,1-1-.22,7,7,0,0,1-2-1.33,17.47,17.47,0,0,1-2.1-2.38,9.81,9.81,0,0,0,2.73-.06,7.36,7.36,0,0,0,.92-.45,2.73,2.73,0,0,0,1.43-2,18.24,18.24,0,0,0,.37-2.18,9.29,9.29,0,0,1,.94,1.35Q234.79,304.53,234.92,304.81Z" transform="translate(-1.74 -1.58)" style="fill:#bf4c00;fill-rule:evenodd"/><path d="M234.84,299a4.19,4.19,0,0,0,1.21-4.26,12.08,12.08,0,0,0-2.07-4.23,5.38,5.38,0,0,0-3.4-2.07,5.73,5.73,0,0,0-1.91-.13,3.29,3.29,0,0,1,4.13-.19,8.17,8.17,0,0,1,2.1,1.91,9.78,9.78,0,0,1,1.56,2.7,7.31,7.31,0,0,1,.54,2.77,3.15,3.15,0,0,1-.6,1.91A6.51,6.51,0,0,1,234.84,299Z" transform="translate(-1.74 -1.58)" style="fill:#7d7d7d;fill-rule:evenodd"/><path d="M233.29,299.2a5.2,5.2,0,0,0,1.21-.79,2.76,2.76,0,0,0,.89-1.37,5.37,5.37,0,0,0,.13-2.32,8.41,8.41,0,0,0-2.13-4.42,14.82,14.82,0,0,0-1.68-1.24,2.88,2.88,0,0,0-4,.48A2.52,2.52,0,0,1,228,289a6.42,6.42,0,0,1,.64-.67,5.73,5.73,0,0,1,1.91.13,5.38,5.38,0,0,1,3.4,2.07,12.08,12.08,0,0,1,2.07,4.23,4.19,4.19,0,0,1-1.21,4.26l-.89.26C233.72,299.21,233.5,299.2,233.29,299.2Z" transform="translate(-1.74 -1.58)" style="fill:#bbb;fill-rule:evenodd"/><path d="M233.38,290.29a8,8,0,0,1-.92,2.89,2.33,2.33,0,0,1-1,1,4.85,4.85,0,0,1-2.23.38,2.63,2.63,0,0,1-.89-.48q-.41-.25-.84-.48a5,5,0,0,1-.14-3.18,9,9,0,0,1,.38-1,2.88,2.88,0,0,1,4-.48A14.82,14.82,0,0,1,233.38,290.29Z" transform="translate(-1.74 -1.58)" style="fill:#fff;fill-rule:evenodd"/><path d="M227.48,293.66q.43.22.84.48a2.63,2.63,0,0,0,.89.48,4.85,4.85,0,0,0,2.23-.38,2.33,2.33,0,0,0,1-1,8,8,0,0,0,.92-2.89,8.41,8.41,0,0,1,2.13,4.42,5.37,5.37,0,0,1-.13,2.32,2.76,2.76,0,0,1-.89,1.37,5.2,5.2,0,0,1-1.21.79,3.23,3.23,0,0,1-2-.64,9.85,9.85,0,0,1-1.88-1.88A24.41,24.41,0,0,1,227.48,293.66Z" transform="translate(-1.74 -1.58)" style="fill:#dadada;fill-rule:evenodd"/><path d="M227.72,277.19a2.5,2.5,0,0,1,.32-.57,6.27,6.27,0,0,1,.64-.67,4.6,4.6,0,0,1,1.88.19,4.86,4.86,0,0,1,2.16,1.14,10.17,10.17,0,0,1,1.94,2.32,14.67,14.67,0,0,1,1.24,2.83,3.82,3.82,0,0,1-1,4.2q-.45.13-.89.29l-.67-.06a3.29,3.29,0,0,0,.73-.35,2.68,2.68,0,0,0,1-1,3.61,3.61,0,0,0,.51-1.88,8.49,8.49,0,0,0-2.24-5.77,16.83,16.83,0,0,0-1.61-1.19A2.9,2.9,0,0,0,227.72,277.19Z" transform="translate(-1.74 -1.58)" style="fill:#bbb;fill-rule:evenodd"/><path d="M233.3,277.87a6.07,6.07,0,0,1-.21,1.38,6.33,6.33,0,0,1-1,2.23,2.41,2.41,0,0,1-2.13,1.08,8.34,8.34,0,0,1-2.26-.64,5.83,5.83,0,0,1-.29-3.75,5.42,5.42,0,0,1,.35-1,2.9,2.9,0,0,1,4-.51A16.83,16.83,0,0,1,233.3,277.87Z" transform="translate(-1.74 -1.58)" style="fill:red;fill-rule:evenodd"/><path d="M228.68,275.95a6.79,6.79,0,0,1,2.1-.6,3.42,3.42,0,0,1,2,.51,7.29,7.29,0,0,1,2.13,1.81,9.78,9.78,0,0,1,1.56,2.7,7.32,7.32,0,0,1,.54,2.77,3.29,3.29,0,0,1-.6,1.94,6.8,6.8,0,0,1-1.56,1.56,3.82,3.82,0,0,0,1-4.2,14.67,14.67,0,0,0-1.24-2.83,10.17,10.17,0,0,0-1.94-2.32,4.86,4.86,0,0,0-2.16-1.14A4.6,4.6,0,0,0,228.68,275.95Z" transform="translate(-1.74 -1.58)" style="fill:#7d7d7d;fill-rule:evenodd"/><path d="M233.29,286.85a4.85,4.85,0,0,1-4.07-2.42q-.83-1.24-1.56-2.51a8.34,8.34,0,0,0,2.26.64,2.41,2.41,0,0,0,2.13-1.08,6.33,6.33,0,0,0,1-2.23,6.07,6.07,0,0,0,.21-1.38,8.49,8.49,0,0,1,2.24,5.77,3.61,3.61,0,0,1-.51,1.88,2.68,2.68,0,0,1-1,1A3.29,3.29,0,0,1,233.29,286.85Z" transform="translate(-1.74 -1.58)" style="fill:#c80000;fill-rule:evenodd"/><path d="M143.92,220.15a10.9,10.9,0,0,1,1.62,5.45v31.29q0,2.64-1.62,3.54t-3.88-.37l-4.54-2.62a10.89,10.89,0,0,1-3.91-4.13,10.78,10.78,0,0,1-1.6-5.41V216.62q0-2.64,1.6-3.59t3.91.41l4.54,2.62A10.78,10.78,0,0,1,143.92,220.15Z" transform="translate(-1.74 -1.58)" style="fill:#724f03;fill-rule:evenodd"/><path d="M135.08,244.67a5.48,5.48,0,0,1,2.18-.53,3.21,3.21,0,0,1,2.08.46,7,7,0,0,1,2.22,1.89,10.85,10.85,0,0,1,1.65,2.81,7.75,7.75,0,0,1,.53,2.84,3.42,3.42,0,0,1-.63,2,7.06,7.06,0,0,1-1.62,1.62q-.46.13-.93.3-.36,0-.69,0a4.64,4.64,0,0,1-1-.23,7.31,7.31,0,0,1-2.05-1.39,18.17,18.17,0,0,1-2.18-2.48,6.15,6.15,0,0,1-.89-5,4.67,4.67,0,0,1,.4-1,2.9,2.9,0,0,1,.33-.56A3.88,3.88,0,0,1,135.08,244.67Z" transform="translate(-1.74 -1.58)" style="fill:#3b2800;fill-rule:evenodd"/><path d="M139.38,231.65a8.49,8.49,0,0,1,2.18,2,10.17,10.17,0,0,1,1.62,2.81,7.6,7.6,0,0,1,.56,2.88,3.27,3.27,0,0,1-.63,2,6.77,6.77,0,0,1-1.62,1.65l-.93.26q-.36,0-.69,0a3.36,3.36,0,0,1-2.12-.66,10.25,10.25,0,0,1-2-2,25.55,25.55,0,0,1-2-3.14,5.24,5.24,0,0,1-.15-3.31,9.21,9.21,0,0,1,.4-1,2.59,2.59,0,0,1,.33-.6,6.5,6.5,0,0,1,.66-.69A3.42,3.42,0,0,1,139.38,231.65Z" transform="translate(-1.74 -1.58)" style="fill:#3b2800;fill-rule:evenodd"/><path d="M139.35,218.92a7.59,7.59,0,0,1,2.22,1.88,10.18,10.18,0,0,1,1.62,2.81,7.6,7.6,0,0,1,.56,2.88,3.42,3.42,0,0,1-.63,2,7.05,7.05,0,0,1-1.62,1.62q-.46.13-.93.3l-.69-.07a5,5,0,0,1-4.23-2.51q-.86-1.29-1.62-2.61a6.07,6.07,0,0,1-.3-3.9,5.66,5.66,0,0,1,.36-1,2.6,2.6,0,0,1,.33-.59,6.5,6.5,0,0,1,.66-.69,7.06,7.06,0,0,1,2.18-.63A3.56,3.56,0,0,1,139.35,218.92Z" transform="translate(-1.74 -1.58)" style="fill:#3b2800;fill-rule:evenodd"/><path d="M139.81,254.48a5.1,5.1,0,0,0,.89-4.17,9.11,9.11,0,0,0-.81-2.27q-.14-.28-.3-.56a9.35,9.35,0,0,0-1.91-2.35,4.87,4.87,0,0,0-2.16-1.14,4.61,4.61,0,0,0-1.88-.19,5.27,5.27,0,0,1,2.1-.51,3.08,3.08,0,0,1,2,.45,6.7,6.7,0,0,1,2.13,1.81,10.42,10.42,0,0,1,1.59,2.7A7.45,7.45,0,0,1,142,251a3.29,3.29,0,0,1-.6,1.94A6.78,6.78,0,0,1,139.81,254.48Z" transform="translate(-1.74 -1.58)" style="fill:#7d7d7d;fill-rule:evenodd"/><path d="M138.65,246.13a12.23,12.23,0,0,0-2.05-1.45,7.48,7.48,0,0,0-1.91-.76,3.1,3.1,0,0,0-2,1.11,2.77,2.77,0,0,1,.32-.54,3.77,3.77,0,0,1,.6-.7,4.61,4.61,0,0,1,1.88.19,4.87,4.87,0,0,1,2.16,1.14A9.26,9.26,0,0,1,138.65,246.13Zm1.16,8.35q-.44.13-.89.29-.35,0-.67,0a5.18,5.18,0,0,0,1.21-.79,2.75,2.75,0,0,0,.89-1.4,5.72,5.72,0,0,0,.16-2.32,7.69,7.69,0,0,0-.62-2.18,9.11,9.11,0,0,1,.81,2.27,5.1,5.1,0,0,1-.89,4.17Z" transform="translate(-1.74 -1.58)" style="fill:#bbb;fill-rule:evenodd"/><path d="M132.72,245a3.1,3.1,0,0,1,2-1.11,7.48,7.48,0,0,1,1.91.76,12.23,12.23,0,0,1,2.05,1.45,18.38,18.38,0,0,1-.37,2.18,2.74,2.74,0,0,1-1.43,2,7.44,7.44,0,0,1-.92.45,9.81,9.81,0,0,1-2.73.06,5.91,5.91,0,0,1-.86-4.8A4.46,4.46,0,0,1,132.72,245Z" transform="translate(-1.74 -1.58)" style="fill:#f60;fill-rule:evenodd"/><path d="M133.19,250.79a9.81,9.81,0,0,0,2.73-.06,7.44,7.44,0,0,0,.92-.45,2.74,2.74,0,0,0,1.43-2,18.38,18.38,0,0,0,.37-2.18,9.28,9.28,0,0,1,.94,1.35q.16.28.3.56a7.69,7.69,0,0,1,.62,2.18,5.72,5.72,0,0,1-.16,2.32,2.75,2.75,0,0,1-.89,1.4,5.18,5.18,0,0,1-1.21.79,4.44,4.44,0,0,1-1-.22,7,7,0,0,1-2-1.33A17.45,17.45,0,0,1,133.19,250.79Z" transform="translate(-1.74 -1.58)" style="fill:#bf4c00;fill-rule:evenodd"/><path d="M133.64,231.25a3.29,3.29,0,0,1,4.13-.19,8.16,8.16,0,0,1,2.1,1.91,9.77,9.77,0,0,1,1.56,2.7,7.31,7.31,0,0,1,.54,2.77,3.15,3.15,0,0,1-.6,1.91,6.51,6.51,0,0,1-1.56,1.59,4.19,4.19,0,0,0,1.21-4.26,12.07,12.07,0,0,0-2.07-4.23,5.38,5.38,0,0,0-3.4-2.07A5.73,5.73,0,0,0,133.64,231.25Z" transform="translate(-1.74 -1.58)" style="fill:#7d7d7d;fill-rule:evenodd"/><path d="M132.68,232.49a2.47,2.47,0,0,1,.32-.57,6.3,6.3,0,0,1,.64-.67,5.73,5.73,0,0,1,1.91.13,5.38,5.38,0,0,1,3.4,2.07,12.07,12.07,0,0,1,2.07,4.23,4.19,4.19,0,0,1-1.21,4.26l-.89.25-.67,0a5.2,5.2,0,0,0,1.21-.79,2.76,2.76,0,0,0,.89-1.37,5.37,5.37,0,0,0,.13-2.32,8.41,8.41,0,0,0-2.13-4.42,14.89,14.89,0,0,0-1.68-1.24A2.88,2.88,0,0,0,132.68,232.49Z" transform="translate(-1.74 -1.58)" style="fill:#bbb;fill-rule:evenodd"/><path d="M132.45,236.63a5,5,0,0,1-.14-3.18,8.89,8.89,0,0,1,.38-1,2.88,2.88,0,0,1,4-.48,14.89,14.89,0,0,1,1.68,1.24,8,8,0,0,1-.92,2.89,2.33,2.33,0,0,1-1,1,4.85,4.85,0,0,1-2.23.38,2.64,2.64,0,0,1-.89-.48Q132.87,236.85,132.45,236.63Z" transform="translate(-1.74 -1.58)" style="fill:#fff;fill-rule:evenodd"/><path d="M138.25,242.16a3.23,3.23,0,0,1-2-.64,9.85,9.85,0,0,1-1.88-1.88,24.54,24.54,0,0,1-1.89-3q.43.22.84.48a2.64,2.64,0,0,0,.89.48,4.85,4.85,0,0,0,2.23-.38,2.33,2.33,0,0,0,1-1,8,8,0,0,0,.92-2.89,8.41,8.41,0,0,1,2.13,4.42,5.37,5.37,0,0,1-.13,2.32,2.76,2.76,0,0,1-.89,1.37A5.2,5.2,0,0,1,138.25,242.16Z" transform="translate(-1.74 -1.58)" style="fill:#dadada;fill-rule:evenodd"/><path d="M132.68,220.23a2.45,2.45,0,0,1,.32-.57,6.16,6.16,0,0,1,.64-.67,4.61,4.61,0,0,1,1.88.19,4.87,4.87,0,0,1,2.16,1.14,10.16,10.16,0,0,1,1.94,2.32,14.72,14.72,0,0,1,1.24,2.83,3.82,3.82,0,0,1-1,4.2q-.44.13-.89.29l-.67-.06a3.27,3.27,0,0,0,.73-.35,2.69,2.69,0,0,0,1-1,3.62,3.62,0,0,0,.51-1.88,8.49,8.49,0,0,0-2.24-5.77,17.06,17.06,0,0,0-1.61-1.19A2.91,2.91,0,0,0,132.68,220.23Z" transform="translate(-1.74 -1.58)" style="fill:#bbb;fill-rule:evenodd"/><path d="M138.26,220.91a6.08,6.08,0,0,1-.21,1.38,6.33,6.33,0,0,1-1,2.23,2.41,2.41,0,0,1-2.13,1.08,8.3,8.3,0,0,1-2.26-.64,5.83,5.83,0,0,1-.29-3.75,5.41,5.41,0,0,1,.35-1,2.91,2.91,0,0,1,4-.51A17.06,17.06,0,0,1,138.26,220.91Z" transform="translate(-1.74 -1.58)" style="fill:red;fill-rule:evenodd"/><path d="M139.81,229.67a3.82,3.82,0,0,0,1-4.2,14.72,14.72,0,0,0-1.24-2.83,10.16,10.16,0,0,0-1.94-2.32,4.87,4.87,0,0,0-2.16-1.14,4.61,4.61,0,0,0-1.88-.19,6.77,6.77,0,0,1,2.1-.6,3.41,3.41,0,0,1,2,.51,7.29,7.29,0,0,1,2.13,1.81,9.78,9.78,0,0,1,1.56,2.7,7.31,7.31,0,0,1,.54,2.77,3.29,3.29,0,0,1-.6,1.94A6.78,6.78,0,0,1,139.81,229.67Z" transform="translate(-1.74 -1.58)" style="fill:#7d7d7d;fill-rule:evenodd"/><path d="M132.62,225a8.3,8.3,0,0,0,2.26.64,2.41,2.41,0,0,0,2.13-1.08,6.33,6.33,0,0,0,1-2.23,6.08,6.08,0,0,0,.21-1.38,8.49,8.49,0,0,1,2.24,5.77,3.62,3.62,0,0,1-.51,1.88,2.69,2.69,0,0,1-1,1,3.27,3.27,0,0,1-.73.35,4.85,4.85,0,0,1-4.07-2.42Q133.35,226.24,132.62,225Z" transform="translate(-1.74 -1.58)" style="fill:#c80000;fill-rule:evenodd"/><polygon points="193.84 201.07 193.87 204.25 190.6 206.16 190.41 203.58 193.84 201.07" style="fill:#706d6d;fill-rule:evenodd"/><polygon points="193.84 201.07 190.41 203.58 178.2 196.52 178.55 191.91 180.3 192.9 179.98 195.22 189.17 200.53 190.85 199.35 193.84 201.07" style="fill:#333;fill-rule:evenodd"/><polygon points="190.6 206.16 178.52 199.19 178.2 196.52 190.41 203.58 190.6 206.16" style="fill:#515151;fill-rule:evenodd"/><path d="M344,190.47a3.54,3.54,0,0,1,1.7,1.62,5.92,5.92,0,0,1,.6,2.8,10.43,10.43,0,0,1-.65,3.66,14.83,14.83,0,0,1-1.8,3.63l4.2,5.44-5.18,3-3.08-3.92-1.38.93v5.54L334,215.67V193.73l4.38-2.51a9,9,0,0,1,3.08-1.07A4.93,4.93,0,0,1,344,190.47Zm-4.23,5.34a5.63,5.63,0,0,0-1.35.49v6.21a7.45,7.45,0,0,0,1.35-1.06,7.5,7.5,0,0,0,1.88-2.72,3.54,3.54,0,0,0,.28-1.34,1.61,1.61,0,0,0-.28-1,1.75,1.75,0,0,0-.75-.55A2.59,2.59,0,0,0,339.76,195.81Zm-9.3-.12v5.08l-7.85,4.51v3.32l6.38-3.66V210l-6.38,3.66v3.49l7.85-4.51v5.05l-12.25,7v-22Zm27-15.66,4.75-2.73L354.36,204l-4.75,2.73,2.2-7.5L345.31,187l4.85-2.78,3.92,7.33Zm-108.95,62.6,4.38-2.51v0a8.7,8.7,0,0,1,3.58-1,5.1,5.1,0,0,1,2.93.77,5.37,5.37,0,0,1,2,2.34,9.5,9.5,0,0,1,.7,3.84,14.84,14.84,0,0,1-.7,4.56,20.75,20.75,0,0,1-1.93,4.51,23.5,23.5,0,0,1-2.9,4,16.82,16.82,0,0,1-3.63,3.06l-4.38,2.51Zm6.25,2.16a4.71,4.71,0,0,0-1.87.44v12a9.54,9.54,0,0,0,1.9-1.73,12.35,12.35,0,0,0,1.5-2.1,12.51,12.51,0,0,0,1-2.36,8.3,8.3,0,0,0,.38-2.38,5.17,5.17,0,0,0-.37-2,3,3,0,0,0-1-1.3A2.64,2.64,0,0,0,254.74,244.79Zm25.11-20.07,4.38-2.51v17l7-4v5.05l-11.35,6.52Zm-3.55,7.15-7.85,4.51v3.32l6.38-3.66v5.08l-6.38,3.66v3.49l7.85-4.51v5.05l-12.25,7v-22l12.25-7.06Zm24-19,4.6-2.64,3.68,11.52,3.88-15.85,4.65-2.67-6.5,25.93-4.18,2.4Zm-6,3.56,4.38-2.51V236l-4.38,2.51Z" transform="translate(-1.74 -1.58)" style="fill:#002f58;fill-rule:evenodd"/><path d="M366.29,195.56l-.08-19,3.28-2,.08,19Zm8.5-4.91-3.32,2-.12-19,3.32-2Zm1.78-20.34,8.38-5.07,0-10.24,14.93,10.66L385,197.55V184.32l-8.38,5Z" transform="translate(-1.74 -1.58)" style="fill:#002f58;fill-rule:evenodd"/><polygon points="526.1 139.25 455.08 180.25 455.08 169.94 526.1 128.93 526.1 139.25" style="fill:#002f58;fill-rule:evenodd"/><polygon points="402.4 210.91 243.64 302.57 243.64 292.25 402.4 200.59 402.4 210.91" style="fill:#002f58;fill-rule:evenodd"/><polygon points="453.77 178.79 402.37 208.46 402.37 198.15 453.77 168.47 453.77 178.79" style="fill:#002f58;fill-rule:evenodd"/><path d="M171.13,147.45a3.39,3.39,0,0,0,2.05-.32L334,54.26a1,1,0,0,0,.55-1.18,2.61,2.61,0,0,0-1.32-1.37l-.06,0a5.85,5.85,0,0,0-2.37-.76,3.39,3.39,0,0,0-2.05.32L167.93,144.11a1,1,0,0,0-.55,1.18,2.61,2.61,0,0,0,1.32,1.37l.06,0A5.85,5.85,0,0,0,171.13,147.45Z" transform="translate(-1.74 -1.58)" style="fill:#bebebe;fill-rule:evenodd"/><path d="M184.77,154.31a3.39,3.39,0,0,0,2.05-.32L347.66,61.12a1,1,0,0,0,.55-1.18,2.61,2.61,0,0,0-1.32-1.37l-.06,0a5.86,5.86,0,0,0-2.37-.76,3.39,3.39,0,0,0-2,.32L181.57,151a1,1,0,0,0-.55,1.18,2.61,2.61,0,0,0,1.32,1.37l.06,0A5.85,5.85,0,0,0,184.77,154.31Z" transform="translate(-1.74 -1.58)" style="fill:#bebebe;fill-rule:evenodd"/><path d="M198.71,162.35a3.39,3.39,0,0,0,2.05-.32L361.6,69.16a1,1,0,0,0,.55-1.18,2.61,2.61,0,0,0-1.32-1.37l-.06,0a5.85,5.85,0,0,0-2.37-.76,3.39,3.39,0,0,0-2.05.32L195.51,159a1,1,0,0,0-.55,1.18,2.61,2.61,0,0,0,1.32,1.37l.06,0A5.85,5.85,0,0,0,198.71,162.35Z" transform="translate(-1.74 -1.58)" style="fill:#bebebe;fill-rule:evenodd"/><path d="M211.73,170a3.39,3.39,0,0,0,2.05-.32L374.62,76.82a1,1,0,0,0,.55-1.18,2.61,2.61,0,0,0-1.32-1.37l-.06,0a5.85,5.85,0,0,0-2.37-.76,3.39,3.39,0,0,0-2.05.32L208.53,166.67a1,1,0,0,0-.55,1.18,2.61,2.61,0,0,0,1.32,1.37l.06,0A5.85,5.85,0,0,0,211.73,170Z" transform="translate(-1.74 -1.58)" style="fill:#bebebe;fill-rule:evenodd"/><path d="M224.34,177.68a3.39,3.39,0,0,0,2.05-.32L387.23,84.48a1,1,0,0,0,.55-1.18,2.61,2.61,0,0,0-1.32-1.37l-.06,0a5.85,5.85,0,0,0-2.37-.76,3.39,3.39,0,0,0-2.05.32L221.14,174.33a1,1,0,0,0-.55,1.18,2.61,2.61,0,0,0,1.32,1.37l.06,0A5.85,5.85,0,0,0,224.34,177.68Z" transform="translate(-1.74 -1.58)" style="fill:#bebebe;fill-rule:evenodd"/></g></g></svg>