<svg id="31a72798-43c6-4765-b12a-3fff9701e69b" data-name="Layer 1" xmlns="http://www.w3.org/2000/svg" viewBox="0 0 23 35"><title>icons</title><path d="M9.51,27.49h4A.5.5,0,0,0,14,27v-4.5h2a.5.5,0,0,0,.33-.87l-4.49-4a.5.5,0,0,0-.66,0l-4.5,4a.5.5,0,0,0,.33.87H9V27A.5.5,0,0,0,9.51,27.49Zm-1.19-6,3.18-2.83,3.18,2.83H13.51a.5.5,0,0,0-.5.5v4.5H10V22a.5.5,0,0,0-.5-.5Z" style="fill:#003058"/><path d="M5,20.73a.5.5,0,1,0,.87-.5,6.5,6.5,0,1,1,11.28,0,.5.5,0,1,0,.87.5,7.5,7.5,0,1,0-13,0Z" style="fill:#003058"/><path d="M11.49,8.48A.5.5,0,0,0,12,8V6a.5.5,0,0,0-1,0V8A.5.5,0,0,0,11.49,8.48Z" style="fill:#003058"/><path d="M17.88,11.12a.5.5,0,0,0,.35-.15l1.39-1.39a.5.5,0,0,0-.71-.71l-1.39,1.39a.5.5,0,0,0,.35.85Z" style="fill:#003058"/><path d="M20.52,17.5h2a.5.5,0,0,0,0-1h-2a.5.5,0,0,0,0,1Z" style="fill:#003058"/><path d="M18.24,23a.5.5,0,0,0-.71.71l1.39,1.39a.5.5,0,0,0,.71-.71Z" style="fill:#003058"/><path d="M4.77,23,3.38,24.42a.5.5,0,1,0,.71.71l1.39-1.39A.5.5,0,0,0,4.77,23Z" style="fill:#003058"/><path d="M.51,17.51h2a.5.5,0,0,0,0-1h-2a.5.5,0,0,0,0,1Z" style="fill:#003058"/><path d="M4.76,11a.5.5,0,0,0,.71-.71L4.08,8.88a.5.5,0,0,0-.71.71Z" style="fill:#003058"/><path d="M22.49,28.49H.51a.5.5,0,0,0,0,1h22a.5.5,0,1,0,0-1Z" style="fill:#003058"/></svg>