<svg id="177bce00-770b-4504-be55-3da76fcef744" data-name="f44d54a7-f794-49d6-910d-57d9acdaf252" xmlns="http://www.w3.org/2000/svg" viewBox="0 0 24 35"><title>icons_ArrowSquareRight</title><path d="M14.52,9.42h-11a.5.5,0,1,1,0-1h11a.5.5,0,0,1,0,1Z" style="fill:#003058"/><path d="M8.49,18.43h-5A.49.49,0,0,1,3,17.94H3v-6a.49.49,0,0,1,.49-.49h5a.49.49,0,0,1,.51.47v0H9v6a.49.49,0,0,1-.47.51h0ZM4,17.43H8v-5H4Z" style="fill:#003058"/><path d="M14.52,14.42h-3a.5.5,0,0,1,0-1h3a.5.5,0,0,1,0,1Z" style="fill:#003058"/><path d="M14.52,16.42h-4a.5.5,0,0,1,0-1h4a.5.5,0,0,1,0,1Z" style="fill:#003058"/><path d="M14.52,18.43h-4a.5.5,0,0,1,0-1h4a.5.5,0,0,1,0,1Z" style="fill:#003058"/><path d="M14.52,20.42h-11a.5.5,0,1,1,0-1h11a.5.5,0,0,1,0,1Z" style="fill:#003058"/><path d="M14.52,22.38h-11a.5.5,0,1,1,0-1h11a.5.5,0,1,1,0,1Z" style="fill:#003058"/><path d="M14.52,24.43h-11a.5.5,0,1,1,0-1h11a.5.5,0,0,1,0,1Z" style="fill:#003058"/><path d="M20.52,27.43A1.5,1.5,0,0,1,19,25.94h0v-18H18v1.5a.5.5,0,0,1-1,0v-2a.49.49,0,0,1,.48-.5h2a.49.49,0,0,1,.49.49h0v3h1.5a.49.49,0,0,1,.51.47s0,0,0,0h0v15A1.5,1.5,0,0,1,20.52,27.43Zm-.49-16V25.94a.5.5,0,0,0,1,0V11.42Z" style="fill:#003058"/><path d="M20.52,29.44h-17A3.5,3.5,0,0,1,0,26H0V5.94a.49.49,0,0,1,.47-.51h17a.49.49,0,0,1,.49.49h0v20a2.5,2.5,0,0,0,5,0V9.42H19.52a.5.5,0,0,1,0-1h4a.49.49,0,0,1,.49.49s0,0,0,0h0V25.86a3.5,3.5,0,0,1-3.41,3.59h-.08ZM1,6.42V25.94a2.5,2.5,0,0,0,2.5,2.5H18.08A3.49,3.49,0,0,1,17,25.94V6.42Z" style="fill:#003058"/></svg>