<svg id="833d746d-d744-4af2-b738-4f4430e6f7a3" data-name="Layer 1" xmlns="http://www.w3.org/2000/svg" viewBox="0 0 24 35"><title>icons</title><path d="M16.5,13.5h-9A.5.5,0,0,0,7,14V28a.5.5,0,0,0,.5.5h9A.5.5,0,0,0,17,28V14A.5.5,0,0,0,16.5,13.5Zm-.5,14H8v-13h8Z" style="fill:#003058"/><path d="M4.5,6.5H.5A.5.5,0,0,0,0,7V28a.5.5,0,0,0,.5.5h4A.5.5,0,0,0,5,28V7A.5.5,0,0,0,4.5,6.5ZM4,7.5v11H1V7.5Zm-3,20v-8H4v8Z" style="fill:#003058"/><path d="M23.5,6.5h-4A.5.5,0,0,0,19,7V28a.5.5,0,0,0,.5.5h4A.5.5,0,0,0,24,28V7A.5.5,0,0,0,23.5,6.5Zm-.5,1v11H20V7.5Zm-3,20v-8h3v8Z" style="fill:#003058"/><path d="M12,26.5a3,3,0,1,0-3-3A3,3,0,0,0,12,26.5Zm0-5a2,2,0,1,1-2,2A2,2,0,0,1,12,21.5Z" style="fill:#003058"/><circle cx="14.5" cy="16" r="0.5" style="fill:#003058"/><circle cx="9.5" cy="16" r="0.5" style="fill:#003058"/><path d="M12,19a1.5,1.5,0,1,0-1.5-1.5A1.5,1.5,0,0,0,12,19Zm0-2a.5.5,0,1,1-.5.5A.5.5,0,0,1,12,17Z" style="fill:#003058"/></svg>