<svg id="54316bc5-0a09-4238-86ab-882c378edf83" data-name="Layer 1" xmlns="http://www.w3.org/2000/svg" viewBox="0 0 21 35"><title>icons</title><path d="M20.71,22.82l-2.85-1.65,2.25-.6a.5.5,0,0,0,.35-.61.51.51,0,0,0-.61-.35l-3.22.86-1.55-.9.5-.87a.5.5,0,1,0-.87-.5l-.5.87L11.5,17.5l2.72-1.57.5.87a.5.5,0,1,0,.87-.5l-.5-.87,1.55-.89,3.22.86.13,0a.5.5,0,0,0,.13-1l-2.25-.6,2.85-1.65a.5.5,0,1,0-.5-.87L17.36,13l.6-2.25a.5.5,0,0,0-.35-.61.51.51,0,0,0-.61.35l-.86,3.22-1.55.9-.5-.87a.5.5,0,0,0-.87.5l.5.87L11,16.63V13.5h1a.5.5,0,0,0,0-1H11V10.71l2.35-2.35a.5.5,0,0,0-.71-.71L11,9.29V6a.5.5,0,1,0-1,0V9.29L8.35,7.65a.5.5,0,0,0-.71.71L10,10.71V12.5H9a.5.5,0,0,0,0,1h1v3.13L7.29,15.07l.5-.87a.5.5,0,0,0-.87-.5l-.5.87-1.55-.9L4,10.46a.5.5,0,1,0-1,.26L3.64,13,.79,11.32a.5.5,0,0,0-.5.87l2.85,1.65-2.25.6a.5.5,0,0,0,.13,1l.13,0,3.22-.86,1.55.9-.5.87a.5.5,0,1,0,.87.5l.5-.87L9.5,17.5,6.79,19.07l-.5-.87a.5.5,0,1,0-.87.5l.5.87-1.55.9L1.15,19.6a.5.5,0,0,0-.26,1l2.25.6L.29,22.82a.5.5,0,1,0,.5.87L3.64,22,3,24.29a.5.5,0,0,0,.35.61l.13,0A.5.5,0,0,0,4,24.55l.86-3.22,1.55-.9.5.87a.5.5,0,1,0,.87-.5l-.5-.87L10,18.37V21.5H9a.5.5,0,1,0,0,1h1v1.79L7.65,26.65a.5.5,0,0,0,.71.71L10,25.71V29a.5.5,0,0,0,1,0V25.71l1.65,1.65a.5.5,0,0,0,.71-.71L11,24.29V22.5h1a.5.5,0,1,0,0-1H11V18.37l2.71,1.57-.5.87a.5.5,0,1,0,.87.5l.5-.87,1.55.9L17,24.55a.5.5,0,0,0,.48.37l.13,0a.5.5,0,0,0,.35-.61L17.36,22l2.85,1.65a.5.5,0,0,0,.5-.87Z" style="fill:#003058"/></svg>