<svg id="f75ec053-d972-4da4-9b97-926d811683b2" data-name="Layer 1" xmlns="http://www.w3.org/2000/svg" viewBox="0 0 24 35"><title>icons</title><path d="M13.5,29.5h-3A.5.5,0,0,1,10,29V26.15a12.85,12.85,0,0,1-2.33-.78l-2,2a.51.51,0,0,1-.71,0L2.1,24.57a.5.5,0,0,1,0-.71l2-2a12.93,12.93,0,0,1-.78-2.33H.5A.5.5,0,0,1,0,19V16a.5.5,0,0,1,.5-.5H3.35a12.93,12.93,0,0,1,.78-2.33l-2-2a.5.5,0,0,1,0-.71L4.93,7.6a.5.5,0,0,1,.71,0l2,2A12.78,12.78,0,0,1,10,8.86V6a.5.5,0,0,1,.5-.5h3A.5.5,0,0,1,14,6V8.86a12.83,12.83,0,0,1,2.33.78l2-2a.5.5,0,0,1,.71,0l2.83,2.83a.5.5,0,0,1,0,.71l-2,2a12.78,12.78,0,0,1,.78,2.33H23.5a.5.5,0,0,1,.5.5v3a.5.5,0,0,1-.5.5H20.65a12.93,12.93,0,0,1-.78,2.33l2,2a.5.5,0,0,1,0,.71L19.07,27.4a.5.5,0,0,1-.71,0l-2-2a12.92,12.92,0,0,1-2.33.78V29A.5.5,0,0,1,13.5,29.5Zm-2.5-1h2V25.75a.5.5,0,0,1,.38-.49,11.89,11.89,0,0,0,2.78-.94.5.5,0,0,1,.61.07l1.94,1.94,2.12-2.12L18.9,22.27a.5.5,0,0,1-.07-.61,11.89,11.89,0,0,0,.94-2.78.5.5,0,0,1,.49-.38H23v-2H20.25a.5.5,0,0,1-.49-.38,11.85,11.85,0,0,0-.94-2.78.5.5,0,0,1,.07-.61l1.94-1.94L18.72,8.66,16.77,10.6a.5.5,0,0,1-.61.07,11.44,11.44,0,0,0-2.78-.94A.5.5,0,0,1,13,9.25V6.5H11V9.25a.5.5,0,0,1-.38.49,11.84,11.84,0,0,0-2.78.94.5.5,0,0,1-.61-.07L5.28,8.66,3.16,10.78,5.1,12.73a.5.5,0,0,1,.07.61,11.91,11.91,0,0,0-.94,2.78.5.5,0,0,1-.49.38H1v2H3.75a.5.5,0,0,1,.49.38,11.89,11.89,0,0,0,.94,2.78.5.5,0,0,1-.07.61L3.16,24.22l2.12,2.12L7.22,24.4a.5.5,0,0,1,.61-.07,11.88,11.88,0,0,0,2.78.95.5.5,0,0,1,.38.49Z" style="fill:#003058"/><path d="M12,22.5a5,5,0,1,1,5-5A5,5,0,0,1,12,22.5Zm0-9a4,4,0,1,0,4,4A4,4,0,0,0,12,13.5Z" style="fill:#003058"/></svg>