<svg id="7c4d06ae-0a9e-4a54-97f5-41bbbd0deb1d" data-name="6f2f798a-9183-45b1-8452-e4b8a4eb0908" xmlns="http://www.w3.org/2000/svg" viewBox="0 0 270.23 190"><title>icons_Youtube</title><g id="12f5dbd3-7f9c-4d08-b514-e66f72bf77ce" data-name="5ed76b47-0bcc-49b8-b087-67847161e21c"><path d="M267.52,41s-2.64-18.62-10.74-26.82C246.5,3.45,235,3.39,229.7,2.76,191.89,0,135.17,0,135.17,0h-.12S78.33,0,40.51,2.76c-5.28.63-16.8.68-27.08,11.45C5.34,22.38,2.7,41,2.7,41A408.67,408.67,0,0,0,0,84.77v20.5A408.67,408.67,0,0,0,2.7,149s2.64,18.62,10.74,26.82c10.28,10.76,23.78,10.42,29.8,11.55,21.61,2.05,91.87,2.66,91.87,2.66s56.78-.09,94.6-2.82c5.28-.63,16.8-.68,27.08-11.45,8.1-8.2,10.74-26.82,10.74-26.82a409.25,409.25,0,0,0,2.7-43.73V84.71A409.26,409.26,0,0,0,267.52,41ZM107.21,130.08V54.15l73,38.1Z" transform="translate(0 -0.03)" style="fill:#03b5e8"/></g></svg>