<svg id="60ff4d85-dc79-4b89-9e33-ac8927d9b200" data-name="Layer 1" xmlns="http://www.w3.org/2000/svg" viewBox="0 0 99.33 74"><title>region_icon</title><path d="M1.11,74A1.11,1.11,0,0,1,0,72.89V1.11A1.11,1.11,0,0,1,1.11,0H98.22a1.11,1.11,0,0,1,1.11,1.11V72.89A1.11,1.11,0,0,1,98.22,74Zm1.11-2.22H97.11V2.22H2.22Z" style="fill:#fff"/><path d="M9.56,65.56a1.11,1.11,0,0,1-1.11-1.11V9.56A1.11,1.11,0,0,1,9.56,8.44H89.78a1.11,1.11,0,0,1,1.11,1.11V64.44a1.11,1.11,0,0,1-1.11,1.11Zm1.11-2.22h78V10.67h-78Z" style="fill:#fff"/><path d="M22.22,57.11A1.11,1.11,0,0,1,21.11,56V47.56a1.11,1.11,0,1,1,2.22,0V56A1.11,1.11,0,0,1,22.22,57.11Z" style="fill:#fff"/><path d="M30.67,57.11A1.11,1.11,0,0,1,29.56,56V34.89a1.11,1.11,0,1,1,2.22,0V56A1.11,1.11,0,0,1,30.67,57.11Z" style="fill:#fff"/><path d="M39.11,57.11A1.11,1.11,0,0,1,38,56V43.33a1.11,1.11,0,0,1,2.22,0V56A1.11,1.11,0,0,1,39.11,57.11Z" style="fill:#fff"/><path d="M47.56,57.11A1.11,1.11,0,0,1,46.44,56V47.56a1.11,1.11,0,1,1,2.22,0V56A1.11,1.11,0,0,1,47.56,57.11Z" style="fill:#fff"/><path d="M72.89,57.11A1.11,1.11,0,0,1,71.78,56V26.44a1.11,1.11,0,1,1,2.22,0V56A1.11,1.11,0,0,1,72.89,57.11Z" style="fill:#fff"/><path d="M64.44,57.11A1.11,1.11,0,0,1,63.33,56V37a1.11,1.11,0,1,1,2.22,0V56A1.11,1.11,0,0,1,64.44,57.11Z" style="fill:#fff"/><path d="M56,57.11A1.11,1.11,0,0,1,54.89,56V18a1.11,1.11,0,1,1,2.22,0V56A1.11,1.11,0,0,1,56,57.11Z" style="fill:#fff"/></svg>