<svg id="89f58c44-237e-453a-a91e-0989ca26eac6" data-name="Layer 1" xmlns="http://www.w3.org/2000/svg" viewBox="0 0 24 35"><title>icons</title><path d="M9,21.5H5.5a5.5,5.5,0,0,1-.92-10.92A6,6,0,0,1,16,9H16a3.5,3.5,0,0,1,3.28,2.3.5.5,0,0,1-.94.35A2.51,2.51,0,0,0,15.7,10a.49.49,0,0,1-.53-.32A5,5,0,0,0,10.51,6.5a5,5,0,0,0-5,4.56.5.5,0,0,1-.45.45,4.5,4.5,0,0,0,.42,9H9a.5.5,0,1,1,0,1Z" style="fill:#003058"/><path d="M21.5,15.5h-11a.5.5,0,0,1,0-1h11a.5.5,0,0,1,0,1Z" style="fill:#003058"/><path d="M22.5,17.5h-10a.5.5,0,1,1,0-1h10a.5.5,0,1,1,0,1Z" style="fill:#003058"/><path d="M23.5,19.51h-9a.5.5,0,1,1,0-1h9a.5.5,0,0,1,0,1Z" style="fill:#003058"/><path d="M21.5,21.5h-10a.5.5,0,0,1,0-1h10a.5.5,0,0,1,0,1Z" style="fill:#003058"/><path d="M19.5,23.5h-7a.5.5,0,1,1,0-1h7a.5.5,0,0,1,0,1Z" style="fill:#003058"/><path d="M21.49,25.5h-6a.5.5,0,1,1,0-1h6a.5.5,0,0,1,0,1Z" style="fill:#003058"/><path d="M22.49,27.5h-4a.5.5,0,1,1,0-1h4a.5.5,0,0,1,0,1Z" style="fill:#003058"/><path d="M21,29.5H20a.5.5,0,0,1,0-1h1a.5.5,0,1,1,0,1Z" style="fill:#003058"/></svg>