<svg id="fc8205bd-7443-4a08-8b0c-9db092776178" data-name="Layer 1" xmlns="http://www.w3.org/2000/svg" viewBox="0 0 24 35"><title>icons</title><path d="M15,18.5a2,2,0,0,0-2-2V15a.5.5,0,1,0-1,0V16.5H11V15a.5.5,0,1,0-1,0V16.5H9.5A.5.5,0,0,0,9,17v6a.5.5,0,0,0,.5.5H10V25a.5.5,0,0,0,1,0V23.5h1V25a.5.5,0,0,0,1,0V23.5A2,2,0,0,0,14.31,20,2,2,0,0,0,15,18.5Zm-1,3a1,1,0,0,1-1,1H10v-2h3A1,1,0,0,1,14,21.5Zm-4-2v-2h3a1,1,0,0,1,0,2Z" style="fill:#003058"/><path d="M21.5,7.5H2.5A2.5,2.5,0,0,0,0,10V25a2.5,2.5,0,0,0,2.5,2.5h19A2.5,2.5,0,0,0,24,25V10A2.5,2.5,0,0,0,21.5,7.5Zm-19,1h19A1.5,1.5,0,0,1,23,10v2.5H1V10A1.5,1.5,0,0,1,2.5,8.5Zm19,18H2.5A1.5,1.5,0,0,1,1,25V13.5H23V25A1.5,1.5,0,0,1,21.5,26.5Z" style="fill:#003058"/><path d="M4,11.5a1,1,0,1,0-1-1A1,1,0,0,0,4,11.5Zm.5-1h0Z" style="fill:#003058"/><path d="M7,11.5a1,1,0,1,0-1-1A1,1,0,0,0,7,11.5Zm.5-1h0Z" style="fill:#003058"/><path d="M10,11.5a1,1,0,1,0-1-1A1,1,0,0,0,10,11.5Zm.5-1h0Z" style="fill:#003058"/></svg>