<svg id="9fd367be-e7cf-40e6-b921-52638abd723c" data-name="Layer 1" xmlns="http://www.w3.org/2000/svg" viewBox="0 0 24 35"><title>icons</title><path d="M23.5,10.5a.5.5,0,0,0-.5.5V28.5H5.5a.5.5,0,0,0,0,1h18A.5.5,0,0,0,24,29V11A.5.5,0,0,0,23.5,10.5Z" style="fill:#003058"/><path d="M22,27V8a.5.5,0,0,0-1,0V26.5H2.5a.5.5,0,0,0,0,1h19A.5.5,0,0,0,22,27Z" style="fill:#003058"/><path d="M20,25V6a.5.5,0,0,0-.5-.5H.5A.5.5,0,0,0,0,6V25a.5.5,0,0,0,.5.5h19A.5.5,0,0,0,20,25ZM19,6.5v14H17.35l-2.88-7.68a.5.5,0,0,0-.41-.32.51.51,0,0,0-.47.22L10,18.17,7.88,15.68a.5.5,0,0,0-.81.06L4.22,20.5H1V6.5Zm-2.72,14H5.38l2.18-3.64,2,2.46a.49.49,0,0,0,.41.18.5.5,0,0,0,.39-.22l3.46-5.19ZM1,24.5v-3H19v3Z" style="fill:#003058"/><path d="M6,12.5a2,2,0,1,0-2-2A2,2,0,0,0,6,12.5Zm0-3a1,1,0,1,1-1,1A1,1,0,0,1,6,9.5Z" style="fill:#003058"/></svg>