<svg id="59170f02-01c4-4da7-87df-797f705940ce" data-name="Layer 1" xmlns="http://www.w3.org/2000/svg" viewBox="0 0 24 35"><title>icons</title><path d="M22,7H2A2,2,0,0,0,0,9.09V23.91A2,2,0,0,0,2,26h9.5v1H5a.5.5,0,0,0,0,1H19a.5.5,0,0,0,0-1H12.5V26H22a2,2,0,0,0,2-2.09V9.09A2,2,0,0,0,22,7Zm1,16.91A1,1,0,0,1,22,25H2a1,1,0,0,1-1-1.09V22H23ZM23,21H1V9.09A1,1,0,0,1,2,8H22a1,1,0,0,1,1,1.09Z" style="fill:#003058"/><path d="M12,24.5a1,1,0,1,0-1-1A1,1,0,0,0,12,24.5Zm0-1h0Z" style="fill:#003058"/><path d="M18.5,12H5.5a.5.5,0,0,0-.5.5v4a.5.5,0,0,0,.5.5h13a.5.5,0,0,0,.5-.5v-4A.5.5,0,0,0,18.5,12ZM18,16H6V13H18Z" style="fill:#003058"/><path d="M8,15.5a1,1,0,1,0-1-1A1,1,0,0,0,8,15.5Zm0-1H8Z" style="fill:#003058"/><path d="M11,15.5a1,1,0,1,0-1-1A1,1,0,0,0,11,15.5Zm0-1h0Z" style="fill:#003058"/><path d="M14,15.5a1,1,0,1,0-1-1A1,1,0,0,0,14,15.5Zm0-1h0Z" style="fill:#003058"/></svg>