<svg id="baf66a59-f540-405b-8445-344a78459da1" data-name="Layer 1" xmlns="http://www.w3.org/2000/svg" viewBox="0 0 18 35"><title>icons</title><path d="M7.25,21.26V8a2.5,2.5,0,0,0-5,0V21.26a4.5,4.5,0,1,0,5,0ZM4.75,28.5A3.5,3.5,0,0,1,3,22a.5.5,0,0,0,.25-.43V8a1.5,1.5,0,0,1,3,0V21.54A.5.5,0,0,0,6.5,22,3.5,3.5,0,0,1,4.75,28.5Z" style="fill:#003058"/><path d="M5.25,23.59V13a.5.5,0,0,0-1,0V23.59a1.5,1.5,0,1,0,1,0Zm-.5,1.91a.5.5,0,1,1,.5-.5A.5.5,0,0,1,4.75,25.5Z" style="fill:#003058"/><path d="M17.25,10.5h-3v-3a.5.5,0,0,0-1,0v3h-3a.5.5,0,0,0,0,1h3v3a.5.5,0,0,0,1,0v-3h3a.5.5,0,0,0,0-1Z" style="fill:#003058"/></svg>