<svg id="753a5d56-d544-4d04-8c55-26e70c51da1d" data-name="Layer 1" xmlns="http://www.w3.org/2000/svg" viewBox="0 0 12 35"><title>icons</title><path d="M6,11.5a3,3,0,1,0-3-3A3,3,0,0,0,6,11.5Zm0-5a2,2,0,1,1-2,2A2,2,0,0,1,6,6.5Z" style="fill:#003058"/><path d="M11.64,13l-3.5-1a.5.5,0,0,0-.58.26L6,15.38,4.45,12.28A.5.5,0,0,0,3.86,12L.36,13A.5.5,0,0,0,0,13.5V21a.5.5,0,0,0,.5.5H2l1,7.56a.5.5,0,0,0,.5.44h5a.5.5,0,0,0,.5-.44l1-7.56H11.5A.5.5,0,0,0,12,21V13.5A.5.5,0,0,0,11.64,13ZM11,20.5H9.53a.5.5,0,0,0-.5.44l-1,7.56H3.94L3,20.94a.5.5,0,0,0-.5-.44H1V13.88l2.74-.78,1.81,3.63a.52.52,0,0,0,.89,0l1.81-3.63,2.74.78Z" style="fill:#003058"/></svg>