<svg id="3ca54072-6289-4630-84fd-dbcf2d851347" data-name="Layer 1" xmlns="http://www.w3.org/2000/svg" viewBox="0 0 20 35"><title>icons</title><path d="M19,6v6H14V10.5a.5.5,0,0,0-.5-.5H.5a.5.5,0,0,0-.5.5v4a.5.5,0,0,0,.5.5h13a.5.5,0,0,0,.5-.5V13h5v6H14V17.5a.5.5,0,0,0-.5-.5H.5a.5.5,0,0,0-.5.5v4a.5.5,0,0,0,.5.5h13a.5.5,0,0,0,.5-.5V20h5v6H14V24.5a.5.5,0,0,0-.5-.5H.5a.5.5,0,0,0-.5.5v4a.5.5,0,0,0,.5.5h13a.5.5,0,0,0,.5-.5V27h5.5a.5.5,0,0,0,.5-.5V6Zm-6,8H1V11H13Zm0,7H1V18H13Zm0,7H1V25H13Z" style="fill:#003058"/></svg>