<svg id="6c3b2ff6-113f-4080-81a6-b442c4b770e7" data-name="Layer 1" xmlns="http://www.w3.org/2000/svg" viewBox="0 0 24 35"><title>icons</title><path d="M20.5,29h-6a.5.5,0,0,1-.5-.5V22H10v6.5a.5.5,0,0,1-.5.5h-6a.5.5,0,0,1-.5-.5v-10a.5.5,0,0,1,1,0V28H9V21.5a.5.5,0,0,1,.5-.5h5a.5.5,0,0,1,.5.5V28h5V19a.5.5,0,0,1,1,0v9.5A.5.5,0,0,1,20.5,29Z" style="fill:#003058"/><path d="M23.5,18.5a.5.5,0,0,1-.35-.15L12,7.21.85,18.35a.5.5,0,0,1-.71-.71l11.5-11.5a.5.5,0,0,1,.71,0l11.5,11.5a.5.5,0,0,1-.35.85Z" style="fill:#003058"/><path d="M19.5,11.5A.5.5,0,0,1,19,11V8H16a.5.5,0,0,1,0-1h3.5a.5.5,0,0,1,.5.5V11A.5.5,0,0,1,19.5,11.5Z" style="fill:#003058"/></svg>