<svg id="3351cb26-f788-478a-83c3-8b5386b5ba80" data-name="Layer 1" xmlns="http://www.w3.org/2000/svg" viewBox="0 0 21 35"><title>icons</title><path d="M16.5,21.75H5.5a5.5,5.5,0,0,1-.93-10.92A6,6,0,0,1,16,9.25a3.5,3.5,0,0,1,3.4,4.52,4.5,4.5,0,0,1-2.85,8Zm-6-15a5,5,0,0,0-5,4.57.5.5,0,0,1-.45.46,4.5,4.5,0,0,0,.43,9h11a3.5,3.5,0,0,0,2-6.39.5.5,0,0,1-.18-.61,2.5,2.5,0,0,0-2.6-3.47.49.49,0,0,1-.53-.32A5,5,0,0,0,10.5,6.75Z" style="fill:#003058"/><path d="M10.5,23.75a.5.5,0,1,0,.5.5.5.5,0,0,0-.5-.5Z" style="fill:#003058"/><path d="M16.5,25.25a.5.5,0,1,0,.5.5.5.5,0,0,0-.5-.5Z" style="fill:#003058"/><path d="M16.5,28.25a.5.5,0,1,0,.5.5.5.5,0,0,0-.5-.5Z" style="fill:#003058"/><path d="M10.5,26.75a.5.5,0,1,0,.5.5.5.5,0,0,0-.5-.5Z" style="fill:#003058"/><path d="M14.5,26.75a.5.5,0,1,0,.5.5.5.5,0,0,0-.5-.5Z" style="fill:#003058"/><path d="M12.5,28.25a.5.5,0,1,0,.5.5.5.5,0,0,0-.5-.5Z" style="fill:#003058"/><path d="M14.5,23.75a.5.5,0,1,0,.5.5.5.5,0,0,0-.5-.5Z" style="fill:#003058"/><path d="M12.5,25.25a.5.5,0,1,0,.5.5.5.5,0,0,0-.5-.5Z" style="fill:#003058"/><path d="M8.5,25.25a.5.5,0,1,0,.5.5.5.5,0,0,0-.5-.5Z" style="fill:#003058"/><path d="M8.5,28.25a.5.5,0,1,0,.5.5.5.5,0,0,0-.5-.5Z" style="fill:#003058"/><path d="M6.5,26.75a.5.5,0,1,0,.5.5.5.5,0,0,0-.5-.5Z" style="fill:#003058"/><path d="M4.5,28.25a.5.5,0,1,0,.5.5.5.5,0,0,0-.5-.5Z" style="fill:#003058"/><path d="M6.5,23.75a.5.5,0,1,0,.5.5.5.5,0,0,0-.5-.5Z" style="fill:#003058"/><path d="M4.5,25.25a.5.5,0,1,0,.5.5.5.5,0,0,0-.5-.5Z" style="fill:#003058"/></svg>