<svg id="34de0bf6-df9f-470b-b403-77dc9286262a" data-name="Layer 1" xmlns="http://www.w3.org/2000/svg" viewBox="0 0 24 35"><title>icons</title><path d="M23.5,28H23V13.5a.5.5,0,0,0-.5-.5h-3a.5.5,0,0,0-.5.5V28H17V20.5a.5.5,0,0,0-.5-.5h-3a.5.5,0,0,0-.5.5V28H11V18.5a.5.5,0,0,0-.5-.5h-3a.5.5,0,0,0-.5.5V28H5V23.5a.5.5,0,0,0-.5-.5h-3a.5.5,0,0,0-.5.5V28H.5a.5.5,0,0,0,0,1h23a.5.5,0,0,0,0-1ZM20,14h2V28H20Zm-6,7h2v7H14ZM8,19h2v9H8ZM2,24H4v4H2Z" style="fill:#003058"/><path d="M3,17a.5.5,0,0,0,.32-.12l5.79-4.82L14.84,14a.5.5,0,0,0,.52-.13L21,7.77V10.5a.5.5,0,0,0,1,0v-4h0a.5.5,0,0,0,0-.12.52.52,0,0,0,0-.07l0-.06a.5.5,0,0,0-.07-.1h0l-.05,0L21.68,6l-.1,0L21.5,6h-4a.5.5,0,0,0,0,1h2.85l-5.5,5.92L9.16,11a.5.5,0,0,0-.48.09l-6,5A.5.5,0,0,0,3,17Z" style="fill:#003058"/></svg>