<svg id="bdf94a9a-c9d6-4a99-ac15-4408c02c0cfe" data-name="Layer 1" xmlns="http://www.w3.org/2000/svg" viewBox="0 0 24 35"><title>icons</title><path d="M20.21,11.15A11.21,11.21,0,0,0,12.5,7.71V6.19a.5.5,0,0,0-1,0V7.71a11.21,11.21,0,0,0-7.71,3.44A12.33,12.33,0,0,0,.5,20.21a.49.49,0,0,0,.51.48.5.5,0,0,0,.49-.5c0-1,1-1.5,2-1.51s2,.46,2,1.51a.5.5,0,0,0,.44.49.49.49,0,0,0,.54-.37A2.45,2.45,0,0,1,9,18.69a2.47,2.47,0,0,1,2.5,1.58v7.42a1.64,1.64,0,0,0,1.75,1.63A1.64,1.64,0,0,0,15,27.69a.5.5,0,0,0-1,0c0,.61-.67.63-.75.63s-.75,0-.75-.62V20.27A2.46,2.46,0,0,1,15,18.69a2.45,2.45,0,0,1,2.52,1.62.5.5,0,0,0,.48.38h.06a.5.5,0,0,0,.44-.49c0-1.05,1-1.51,2-1.51s2,.48,2,1.51a.5.5,0,0,0,1,0A12.33,12.33,0,0,0,20.21,11.15Zm.33,6.52h0a3.15,3.15,0,0,0-2.62,1.22A3.83,3.83,0,0,0,15,17.69,3.76,3.76,0,0,0,12,19a3.76,3.76,0,0,0-3-1.35A3.83,3.83,0,0,0,6.11,18.9a3.15,3.15,0,0,0-2.62-1.22h0a3.53,3.53,0,0,0-1.9.55,11,11,0,0,1,3-6.38A10.25,10.25,0,0,1,12,8.69a10.25,10.25,0,0,1,7.48,3.16,11,11,0,0,1,3,6.38A3.53,3.53,0,0,0,20.54,17.68Z" style="fill:#003058"/></svg>