<svg id="78e4ce29-deb0-41c8-9159-44def7b514ad" data-name="Layer 1" xmlns="http://www.w3.org/2000/svg" viewBox="0 0 24 35"><title>icons</title><path d="M23.5,26.5H.5A.5.5,0,0,1,0,26V9a.5.5,0,0,1,.5-.5h23A.5.5,0,0,1,24,9V26A.5.5,0,0,1,23.5,26.5ZM1,25.5H23V9.5H1Z" style="fill:#003058"/><path d="M21.5,24.5H2.5A.5.5,0,0,1,2,24V11a.5.5,0,0,1,.5-.5h19a.5.5,0,0,1,.5.5V24A.5.5,0,0,1,21.5,24.5ZM3,23.5H21v-12H3Z" style="fill:#003058"/><path d="M5.5,22.5A.5.5,0,0,1,5,22V20a.5.5,0,0,1,1,0v2A.5.5,0,0,1,5.5,22.5Z" style="fill:#003058"/><path d="M7.5,22.5A.5.5,0,0,1,7,22V17a.5.5,0,0,1,1,0v5A.5.5,0,0,1,7.5,22.5Z" style="fill:#003058"/><path d="M9.5,22.5A.5.5,0,0,1,9,22V19a.5.5,0,0,1,1,0v3A.5.5,0,0,1,9.5,22.5Z" style="fill:#003058"/><path d="M11.5,22.5A.5.5,0,0,1,11,22V20a.5.5,0,0,1,1,0v2A.5.5,0,0,1,11.5,22.5Z" style="fill:#003058"/><path d="M17.5,22.5A.5.5,0,0,1,17,22V15a.5.5,0,0,1,1,0v7A.5.5,0,0,1,17.5,22.5Z" style="fill:#003058"/><path d="M15.5,22.5A.5.5,0,0,1,15,22V17.5a.5.5,0,0,1,1,0V22A.5.5,0,0,1,15.5,22.5Z" style="fill:#003058"/><path d="M13.5,22.5A.5.5,0,0,1,13,22V13a.5.5,0,0,1,1,0v9A.5.5,0,0,1,13.5,22.5Z" style="fill:#003058"/></svg>