<svg xmlns="http://www.w3.org/2000/svg" viewBox="0 0 35 35"><title>vimeo0</title><g id="Layer_2" data-name="Layer 2"><g id="Layer_1-2" data-name="Layer 1"><circle cx="17.5" cy="17.5" r="17" style="fill:none;stroke-miterlimit:10"/><path d="M26.53,9.86a4,4,0,0,0-3.92-.31,6.2,6.2,0,0,0-3.68,3.67,2.23,2.23,0,0,1,2.28.39c.86.82.91,2.38.11,3.88C19,21.9,18,21.9,17.67,21.9c-1,0-1.47-1.44-2.35-5-.17-.68-.3-1.46-.44-2.29-.34-2-.72-4.31-1.75-5A1.42,1.42,0,0,0,12,9.39c-2.35.46-5.43,3.77-6.34,4.79l.39.51a4,4,0,0,1,2-.78,1.1,1.1,0,0,1,.88.39c.37.44,1,2.33,2.17,6.23.71,2.33,1.45,4.74,1.81,5.49a4.16,4.16,0,0,0,2.31,2.16A2.16,2.16,0,0,0,17,27.87c1.87-1.21,9.12-7.22,10.41-14.44C27.68,11.8,27.38,10.57,26.53,9.86Z" style="fill:#00a7e1"/></g></g></svg>