<svg xmlns="http://www.w3.org/2000/svg" viewBox="0 0 35.02 35.02"><defs><style>.cls-1{fill:none;stroke:#09a6e0;stroke-miterlimit:10;}.cls-2{fill:#09a6e0;}</style></defs><title>Asset 40</title><g id="Layer_2" data-name="Layer 2"><g id="rounded"><path class="cls-1" d="M17.51,34.52a17,17,0,1,0-17-17,17,17,0,0,0,17,17"/><path class="cls-2" d="M26,13.05a7,7,0,0,1-2,.55,3.5,3.5,0,0,0,1.54-1.93,7,7,0,0,1-2.22.85,3.5,3.5,0,0,0-6,3.19,9.92,9.92,0,0,1-7.2-3.65,3.5,3.5,0,0,0,1.08,4.67,3.5,3.5,0,0,1-1.58-.44v0a3.5,3.5,0,0,0,2.8,3.43,3.41,3.41,0,0,1-.92.12,3.46,3.46,0,0,1-.66-.06,3.5,3.5,0,0,0,3.26,2.43A7.07,7.07,0,0,1,9,23.69a9.94,9.94,0,0,0,15.3-8.37c0-.15,0-.3,0-.45A7.09,7.09,0,0,0,26,13.05"/></g></g></svg>