<svg id="84ba5b9f-1c35-4bcb-81f8-c2b0130d5219" data-name="Layer 1" xmlns="http://www.w3.org/2000/svg" viewBox="0 0 24 35"><title>icons</title><path d="M23.5,28.5H.5a.5.5,0,0,0,0,1h23a.5.5,0,0,0,0-1Z" style="fill:#003058"/><path d="M.5,27.5h23a.5.5,0,0,0,0-1H.5a.5.5,0,0,0,0,1Z" style="fill:#003058"/><path d="M6.5,17.5a.5.5,0,0,0,0-1h-5a.5.5,0,0,0,0,1H2v7H1.5a.5.5,0,0,0,0,1h5a.5.5,0,0,0,0-1H6v-7ZM5,24.5H3v-7H5Z" style="fill:#003058"/><path d="M14.5,17.5a.5.5,0,0,0,0-1h-5a.5.5,0,0,0,0,1H10v7H9.5a.5.5,0,0,0,0,1h5a.5.5,0,1,0,0-1H14v-7Zm-1.5,7H11v-7h2Z" style="fill:#003058"/><path d="M22.5,17.5a.5.5,0,0,0,0-1h-5a.5.5,0,0,0,0,1H18v7h-.5a.5.5,0,0,0,0,1h5a.5.5,0,0,0,0-1H22v-7Zm-1.5,7H19v-7h2Z" style="fill:#003058"/><path d="M.5,15.5h23a.5.5,0,0,0,.31-.89l-11.47-9a.5.5,0,0,0-.62,0l-11.53,9a.5.5,0,0,0,.31.89ZM12,6.63l10,7.87H2Z" style="fill:#003058"/></svg>