<svg id="17f1a96b-2cc5-4d1c-8757-b23af4c81d00" data-name="Layer 1" xmlns="http://www.w3.org/2000/svg" viewBox="0 0 51.65 60.19"><title>anualsubrev_icon</title><path d="M36.83,41.09h-23a.5.5,0,0,1-.5-.5,10.58,10.58,0,0,1,1.05-4.28c.73-1.47,3.24-2.39,6.71-3.67l1.24-.46V29.78a4.26,4.26,0,0,1-1.49-2.93,1.78,1.78,0,0,1-.51-1,2.19,2.19,0,0,1,.43-2.06l-.05-.17c-.34-1.12-1-3.2-.1-4.37A1.89,1.89,0,0,1,22,18.56c.61-1.13,2.61-1.5,4.27-1.46,1.9,0,4.24.69,4.57,2.34A8.29,8.29,0,0,1,30,23.62l-.09.23a2.21,2.21,0,0,1,.42,2,1.78,1.78,0,0,1-.51,1,4.26,4.26,0,0,1-1.49,2.93v2.41l1.24.46c3.47,1.28,6,2.2,6.71,3.67a10.58,10.58,0,0,1,1.05,4.28A.5.5,0,0,1,36.83,41.09Zm-22.47-1H36.3a9.69,9.69,0,0,0-.92-3.33c-.56-1.11-3.15-2.07-6.16-3.17L27.65,33a.5.5,0,0,1-.32-.47v-3a.5.5,0,0,1,.22-.42,3.23,3.23,0,0,0,1.28-2.58.5.5,0,0,1,.37-.48A1.75,1.75,0,0,0,29.39,25a.62.62,0,0,0-.29-.51.5.5,0,0,1-.28-.45,2.44,2.44,0,0,1,.25-.79,7.57,7.57,0,0,0,.76-3.61c-.17-.86-1.66-1.49-3.61-1.54s-3.28.52-3.41,1.06a.5.5,0,0,1-.48.38,1.06,1.06,0,0,0-.91.35c-.57.77,0,2.67.25,3.48a2.54,2.54,0,0,1,.16.67.5.5,0,0,1-.28.45.62.62,0,0,0-.29.51,1.75,1.75,0,0,0,.19,1.06.5.5,0,0,1,.37.48,3.24,3.24,0,0,0,1.28,2.58.5.5,0,0,1,.22.42v3A.5.5,0,0,1,23,33l-1.57.58c-3,1.1-5.6,2.06-6.16,3.17A9.7,9.7,0,0,0,14.36,40.09Z" style="fill:#fff"/><path d="M49.84,38.05a.73.73,0,0,1-.5-.89A23.91,23.91,0,0,0,14,10.28L8.55,13.54l12.71,1.53.12,0a.72.72,0,0,1,.51.78.73.73,0,0,1-.81.63L6.58,14.75A.74.74,0,0,1,6.05,14L11.81.43A.72.72,0,0,1,12.67,0a.76.76,0,0,1,.48.42.72.72,0,0,1,0,.56L8.65,11.53l5.51-3a25.36,25.36,0,0,1,36.59,29,.73.73,0,0,1-.89.51Z" style="fill:#fff"/><path d="M38.9,60.13a.7.7,0,0,1-.39-.39.72.72,0,0,1,0-.56L43,48.66l-5.51,3a25.36,25.36,0,0,1-36.59-29,.73.73,0,0,1,1.4.38A23.91,23.91,0,0,0,37.65,49.91l5.45-3.26L30.39,45.11l-.12,0a.72.72,0,0,1-.51-.78.73.73,0,0,1,.81-.63l14.51,1.76a.74.74,0,0,1,.53.71L39.84,59.75a.72.72,0,0,1-.86.41Z" style="fill:#fff"/></svg>