<svg id="79ee715b-919f-4f92-9d45-f5414e4ca8d7" data-name="Layer 1" xmlns="http://www.w3.org/2000/svg" viewBox="0 0 23 35"><title>icons</title><path d="M22.49,19.7a.5.5,0,0,0-.69-.16l-1.88,1.17-1-.56,1.36-.77a.5.5,0,0,0-.49-.87l-1.88,1.07-1.5-.86V15.29l1.5-.86,1.88,1.09a.5.5,0,1,0,.5-.87l-1.38-.8,1-.57,1.87,1.2a.5.5,0,1,0,.54-.84l-1.43-.92,1.22-.7a.5.5,0,1,0-.5-.87l-1.18.68V10a.5.5,0,0,0-1,0v2.41l-1,.58V11a.5.5,0,0,0-1,0v2.56L16,14.41l-3.52-2.46v-.76l2-1.22a.5.5,0,1,0-.52-.85l-1.46.9V8.54l2-1.22a.5.5,0,1,0-.52-.85l-1.49.9V6a.5.5,0,0,0-1,0V7.36L10,6.48a.5.5,0,0,0-.52.86l2,1.19V10L10,9.13a.5.5,0,0,0-.51.86l2,1.19v.76L9.14,13.48a.5.5,0,0,0,.56.83l2.23-1.5,3.51,2.45v3.48L11.93,21.2,9.7,19.71a.5.5,0,1,0-.56.83l2.29,1.54V28a.5.5,0,0,0,1,0V26.65l1.46.89a.5.5,0,0,0,.52-.85l-2-1.21V24l1.47.89a.5.5,0,0,0,.52-.85l-2-1.21v-.75L16,19.59l1.48.84V23a.5.5,0,0,0,1,0V21l1,.57V24a.5.5,0,0,0,1,0V22.15l1.21.69a.5.5,0,1,0,.5-.87l-1.23-.7,1.42-.88A.5.5,0,0,0,22.49,19.7Z" style="fill:#003058"/><path d="M7.43,21.26V8a2.5,2.5,0,0,0-5,0V21.26a4.5,4.5,0,1,0,5,0ZM4.93,28.5A3.5,3.5,0,0,1,3.18,22a.5.5,0,0,0,.25-.43V8a1.5,1.5,0,0,1,3,0V21.54a.5.5,0,0,0,.25.43A3.5,3.5,0,0,1,4.93,28.5Z" style="fill:#003058"/><path d="M5.43,23.59V13a.5.5,0,0,0-1,0V23.59a1.5,1.5,0,1,0,1,0Zm-.5,1.91a.5.5,0,1,1,.5-.5A.5.5,0,0,1,4.93,25.5Z" style="fill:#003058"/></svg>