<svg id="5e42202a-1e42-4c24-8089-21eff86e8a20" data-name="Layer 1" xmlns="http://www.w3.org/2000/svg" viewBox="0 0 20 35"><title>icons</title><path d="M13.75,14.5A4.5,4.5,0,1,0,9.25,19,4.5,4.5,0,0,0,13.75,14.5Zm-8,0A3.5,3.5,0,1,1,9.25,18,3.5,3.5,0,0,1,5.75,14.5Z" style="fill:#003058"/><path d="M9.25,8.5a.5.5,0,0,0,.5-.5V6a.5.5,0,0,0-1,0V8A.5.5,0,0,0,9.25,8.5Z" style="fill:#003058"/><path d="M15.25,14a.5.5,0,0,0,.5.5h2a.5.5,0,0,0,0-1h-2A.5.5,0,0,0,15.25,14Z" style="fill:#003058"/><path d="M9.25,20.5a.5.5,0,0,0-.5.5v2a.5.5,0,0,0,1,0V21A.5.5,0,0,0,9.25,20.5Z" style="fill:#003058"/><path d="M3.25,14a.5.5,0,0,0-.5-.5h-2a.5.5,0,0,0,0,1h2A.5.5,0,0,0,3.25,14Z" style="fill:#003058"/><path d="M4.3,10.26A.5.5,0,0,0,5,9.55L3.59,8.14a.5.5,0,0,0-.71.71Z" style="fill:#003058"/><path d="M13.49,10.05a.5.5,0,0,0,.35-.15l1.41-1.41a.5.5,0,0,0-.71-.71L13.14,9.2a.5.5,0,0,0,.35.85Z" style="fill:#003058"/><path d="M15.61,20.16,14.2,18.74a.5.5,0,0,0-.71.71l1.41,1.41a.5.5,0,0,0,.71-.71Z" style="fill:#003058"/><path d="M3.95,18.39,2.53,19.8a.5.5,0,1,0,.71.71L4.65,19.1a.5.5,0,0,0-.71-.71Z" style="fill:#003058"/><path d="M19.38,23a.51.51,0,0,0-.61.35l-1,3.73-1-3.73a.51.51,0,0,0-.61-.35.5.5,0,0,0-.35.61l1.5,5.5a.5.5,0,0,0,1,0l1.5-5.5A.5.5,0,0,0,19.38,23Z" style="fill:#003058"/><path d="M14.25,23a.5.5,0,0,0-.5.5v4a1,1,0,0,1-2,0v-4a.5.5,0,0,0-1,0v4a2,2,0,0,0,4,0v-4A.5.5,0,0,0,14.25,23Z" style="fill:#003058"/></svg>