<svg id="6cd86158-4bfa-4447-9524-31901060ce6b" data-name="Layer 1" xmlns="http://www.w3.org/2000/svg" viewBox="0 0 24 35"><title>icons</title><path d="M7.5,24.5H1v-14H14V17a.5.5,0,0,0,1,0V8a2.5,2.5,0,0,0-2.5-2.5H2.5A2.5,2.5,0,0,0,0,8V27a2.5,2.5,0,0,0,2.5,2.5h5a.5.5,0,0,0,0-1h-5A1.5,1.5,0,0,1,1,27V25.5H7.5a.5.5,0,0,0,0-1Zm-5-18h10A1.5,1.5,0,0,1,14,8V9.5H1V8A1.5,1.5,0,0,1,2.5,6.5Z" style="fill:#003058"/><path d="M5.5,8.5h4a.5.5,0,0,0,0-1h-4a.5.5,0,0,0,0,1Z" style="fill:#003058"/><path d="M8,26.5a.5.5,0,0,0-.5-.5,1,1,0,0,0,0,2,.5.5,0,0,0,0-1A.5.5,0,0,0,8,26.5Z" style="fill:#003058"/><path d="M15.5,23.5h-4a.5.5,0,0,0,0,1h4a.5.5,0,0,0,0-1Z" style="fill:#003058"/><path d="M21.5,23.5h-2a.5.5,0,0,0,0,1h2a.5.5,0,0,0,0-1Z" style="fill:#003058"/><path d="M13.5,25.5h-2a.5.5,0,0,0,0,1h2a.5.5,0,0,0,0-1Z" style="fill:#003058"/><path d="M21.5,18.5h-10A2.5,2.5,0,0,0,9,21v6a2.5,2.5,0,0,0,2.5,2.5h10A2.5,2.5,0,0,0,24,27V21A2.5,2.5,0,0,0,21.5,18.5Zm-10,1h10A1.5,1.5,0,0,1,23,21v.5H10V21A1.5,1.5,0,0,1,11.5,19.5Zm10,9h-10A1.5,1.5,0,0,1,10,27V22.5H23V27A1.5,1.5,0,0,1,21.5,28.5Z" style="fill:#003058"/><path d="M9.39,18.1A1.89,1.89,0,0,0,7.5,16.21a.89.89,0,1,1,.89-.89.5.5,0,0,0,1,0A1.89,1.89,0,0,0,8,13.5V13a.5.5,0,0,0-1,0v.5a1.89,1.89,0,0,0,.5,3.71.89.89,0,1,1-.89.89.5.5,0,0,0-1,0A1.89,1.89,0,0,0,7,19.92v.5a.5.5,0,0,0,1,0v-.5A1.89,1.89,0,0,0,9.39,18.1Z" style="fill:#003058"/></svg>