<svg id="8624db12-48e9-45d2-b9b1-cd84fee39109" data-name="Layer 1" xmlns="http://www.w3.org/2000/svg" viewBox="0 0 24 35"><title>icons</title><path d="M.5,26.5a.5.5,0,0,1,0-1H4.76A2.61,2.61,0,0,0,7,23a2.52,2.52,0,0,0-.78-1.83,2.47,2.47,0,0,0-1.86-.71.53.53,0,0,1-.47-.29A3.72,3.72,0,0,0,.5,18a.5.5,0,0,1,0-1,4.71,4.71,0,0,1,4.15,2.42,3.5,3.5,0,0,1,2.26,1,3.55,3.55,0,0,1-2.09,6.09Z" style="fill:#003058"/><path d="M23.5,26.5H19.24a3.55,3.55,0,0,1-2.15-6.1,3.5,3.5,0,0,1,2.26-1A4.71,4.71,0,0,1,23.5,17a.5.5,0,0,1,0,1,3.72,3.72,0,0,0-3.4,2.13.5.5,0,0,1-.47.29,2.48,2.48,0,0,0-1.86.71A2.52,2.52,0,0,0,17,23a2.62,2.62,0,0,0,2.31,2.55H23.5a.5.5,0,0,1,0,1Z" style="fill:#003058"/><path d="M2.51,15.5a.49.49,0,0,1-.21,0,.5.5,0,0,1-.24-.67A10.91,10.91,0,0,1,12,8.5h0a10.91,10.91,0,0,1,9.94,6.28.5.5,0,0,1-.9.43A9.92,9.92,0,0,0,12,9.5h0a9.92,9.92,0,0,0-9,5.71A.5.5,0,0,1,2.51,15.5Z" style="fill:#003058"/><path d="M18.54,17.5a.5.5,0,0,1-.47-.32A6.39,6.39,0,0,0,12,13a6.39,6.39,0,0,0-6.07,4.17A.5.5,0,0,1,5,16.82,7.35,7.35,0,0,1,12,12a7.35,7.35,0,0,1,7,4.81.5.5,0,0,1-.47.68Z" style="fill:#003058"/><path d="M15.5,20a.5.5,0,0,1-.5-.5,2.86,2.86,0,0,0-.92-2.23A3.12,3.12,0,0,0,12,16.53a2.86,2.86,0,0,0-3,3,.5.5,0,0,1-1,0,3.86,3.86,0,0,1,4-4,3.86,3.86,0,0,1,4,4A.5.5,0,0,1,15.5,20Z" style="fill:#003058"/></svg>