<svg id="22fc1de8-2be2-4c45-8d09-a30b30d81b3f" data-name="Layer 1" xmlns="http://www.w3.org/2000/svg" viewBox="0 0 23 35"><title>icons</title><path d="M17.5,12.5c-2.61,0-5.05,2.89-6,4.15-.92-1.26-3.31-4.15-5.92-4.15C2.41,12.5,0,14.65,0,17.5s2.39,5,5.57,5c2.61,0,5-2.89,5.92-4.15.94,1.26,3.39,4.15,6,4.15,3.18,0,5.48-2.1,5.48-5S20.68,12.5,17.5,12.5Zm-11.92,9C2.94,21.5,1,19.82,1,17.5s1.92-4,4.57-4c2.31,0,4.64,3.06,5.3,4C10.22,18.44,7.9,21.5,5.58,21.5Zm11.92,0c-2.31,0-4.69-3.06-5.37-4,.68-.95,3.06-4,5.38-4,2.6,0,4.48,1.68,4.48,4S20.1,21.5,17.5,21.5Z" style="fill:#003058"/></svg>