<svg id="da9a95e0-4bf8-48b8-87a4-6992761f8e0f" data-name="Layer 1" xmlns="http://www.w3.org/2000/svg" viewBox="0 0 23 35"><title>icons</title><path d="M21.38,12.86a5.22,5.22,0,0,0-3.53-1.47A7.18,7.18,0,0,0,4.38,13.78,4.09,4.09,0,0,0,0,17.86a3.84,3.84,0,0,0,1.09,2.85,4.93,4.93,0,0,0,3.22,1.23H7.19a.5.5,0,0,0,0-1H4.32a4,4,0,0,1-2.53-1A2.88,2.88,0,0,1,1,17.86a3.09,3.09,0,0,1,3.72-3,.5.5,0,0,0,.6-.46A6.19,6.19,0,0,1,17.09,12.1a.49.49,0,0,0,.47.29A4.27,4.27,0,0,1,22,16.66c0,3.72-3.71,4.27-3.8,4.28H15.8a.5.5,0,0,0,0,1h2.46S23,21.27,23,16.66A5.24,5.24,0,0,0,21.38,12.86Z" style="fill:#003058"/><path d="M11.85,15.59a.5.5,0,0,0-.71,0l-3,3a.5.5,0,0,0,.71.71L11,17.15v9.79a.5.5,0,0,0,1,0V17.15l2.15,2.15a.5.5,0,0,0,.71-.71Z" style="fill:#003058"/></svg>