<svg id="c1aea6be-101e-44fd-97d1-2361c7ebab81" data-name="Layer 1" xmlns="http://www.w3.org/2000/svg" viewBox="0 0 24 35"><title>icons</title><path d="M11.47,11a.5.5,0,0,0-.47.53.51.51,0,0,0,.53.47A7,7,0,0,1,16.2,13.4a.5.5,0,0,0,.6-.8A8,8,0,0,0,11.47,11Z" style="fill:#003058"/><path d="M23.5,14.5a.5.5,0,0,0-.5.5,1.5,1.5,0,0,1-1,1.42,8,8,0,0,0-3.12-5.61A11.17,11.17,0,0,0,9.78,8.72,4,4,0,0,0,4.5,7.54a.5.5,0,0,0,0,.87,3,3,0,0,1,1.41,1.86A8.43,8.43,0,0,0,2.16,15.5H.5A.5.5,0,0,0,0,16v4a.5.5,0,0,0,.5.5H2.89A9.14,9.14,0,0,0,7,24.35V27.5a.5.5,0,1,0,1,0V24.78a11.54,11.54,0,0,0,8,0V27.5a.5.5,0,1,0,1,0V24.35a8.45,8.45,0,0,0,5-6.9A2.5,2.5,0,0,0,24,15,.5.5,0,0,0,23.5,14.5ZM12,24.5a9.11,9.11,0,0,1-8.35-4.72.5.5,0,0,0-.45-.28H1v-3H2.57a.5.5,0,0,0,.49-.43,7.41,7.41,0,0,1,3.66-5.14.5.5,0,0,0,.24-.5A4,4,0,0,0,5.75,8.1,3,3,0,0,1,9.11,9.53a.5.5,0,0,0,.55.24,10.21,10.21,0,0,1,8.57,1.82A6.91,6.91,0,0,1,21,17C21,21.14,17,24.5,12,24.5Z" style="fill:#003058"/><path d="M6,14.5a1,1,0,1,0,1,1A1,1,0,0,0,6,14.5Zm0,1H6Z" style="fill:#003058"/></svg>