<svg id="49a7990e-14bb-4a7a-bc85-4f5eb0836f24" data-name="Layer 1" xmlns="http://www.w3.org/2000/svg" viewBox="0 0 24 35"><title>icons</title><path d="M17.5,16.5A6.5,6.5,0,1,0,24,23,6.51,6.51,0,0,0,17.5,16.5Zm0,12A5.5,5.5,0,1,1,23,23,5.51,5.51,0,0,1,17.5,28.5Z" style="fill:#003058"/><path d="M20.15,20.65,16.5,24.29l-1.65-1.65a.5.5,0,0,0-.71.71l2,2a.5.5,0,0,0,.71,0l4-4a.5.5,0,0,0-.71-.71Z" style="fill:#003058"/><path d="M11.5,18a.5.5,0,0,0-.5-.5H2.5A1.5,1.5,0,0,1,1,16V9.5H17v5a.5.5,0,0,0,1,0V8a2.5,2.5,0,0,0-2.5-2.5H2.5A2.5,2.5,0,0,0,0,8v8a2.5,2.5,0,0,0,2.5,2.5H11A.5.5,0,0,0,11.5,18ZM2.5,6.5h13A1.5,1.5,0,0,1,17,8v.5H1V8A1.5,1.5,0,0,1,2.5,6.5Z" style="fill:#003058"/><path d="M9,11a.5.5,0,0,0-.5-.5h-5a.5.5,0,0,0,0,1h5A.5.5,0,0,0,9,11Z" style="fill:#003058"/><path d="M13.5,10.5a.5.5,0,0,0,0,1h2a.5.5,0,0,0,0-1Z" style="fill:#003058"/><path d="M3.5,12.5a.5.5,0,0,0,0,1h3a.5.5,0,0,0,0-1Z" style="fill:#003058"/></svg>