<svg id="a555a354-8b35-460c-8250-5aeb7d8560c5" data-name="Layer 1" xmlns="http://www.w3.org/2000/svg" xmlns:xlink="http://www.w3.org/1999/xlink" viewBox="0 0 221 155"><defs><clipPath id="903908e7-e13d-4340-96a7-924a8a4a2852"><path d="M53.17,54.93l2.11,1.23a1.24,1.24,0,0,1,.55,1.19,5.19,5.19,0,0,1-2.14,4l-2.12-1.23a5.2,5.2,0,0,0,2.15-4A1.28,1.28,0,0,0,53.17,54.93Z" style="fill:none"/></clipPath><clipPath id="bdf0aa2c-3b9b-4b48-a0e3-21036b8177d0"><path d="M57.39,47.39l2.12,1.23c1.28.74,1.86,2.29,1.87,4.66,0,5.86-3.53,10.3-7.68,13.2l-2.11-1.23c4.14-2.9,7.69-7.34,7.67-13.2C59.25,49.68,58.68,48.13,57.39,47.39Z" style="fill:none"/></clipPath><clipPath id="b4439432-67b6-4fa1-b60e-ccefc35bfcd6"><path d="M53.17,54.93l2.11,1.23a2.23,2.23,0,0,0-1.61-.09l-2.11-1.23A2.29,2.29,0,0,1,53.17,54.93Z" style="fill:none"/></clipPath><clipPath id="afbe9f7c-4b8f-4af6-bf2b-14a851c31532"><path d="M43.72,69,41.6,67.79c1.57.53,4.32.63,8-1.37l2.12,1.23C48,69.65,45.28,69.55,43.72,69Z" style="fill:none"/></clipPath><clipPath id="2fe3f44c-9b92-45da-83f9-74748f7bb407"><path d="M57.39,47.39l2.12,1.23c-1.25-.73-3.16-.69-5.86.07l-2.11-1.22C54.23,46.7,56.15,46.66,57.39,47.39Z" style="fill:none"/></clipPath><clipPath id="932cca68-ac77-4034-9ea7-947e70840afb"><path d="M45,63.2,42.87,62a9.56,9.56,0,0,0,6.75-.59l2.11,1.23A9.56,9.56,0,0,1,45,63.2Z" style="fill:none"/></clipPath><clipPath id="cf6317cc-87e0-4444-859e-11da0b639ddf"><path d="M53.64,44.07l-2.12-1.23a10.06,10.06,0,0,1,5.28-.94l2.11,1.23A9.93,9.93,0,0,0,53.64,44.07Z" style="fill:none"/></clipPath><clipPath id="1d0d372c-0c6c-4b05-93b7-a2924239e379"><path d="M45.84,56.63,43.72,55.4c1.17.67,3,.68,5.88-.07l2.12,1.23C48.87,57.31,47,57.3,45.84,56.63Z" style="fill:none"/></clipPath><clipPath id="e13ad9e4-d93f-48e8-9392-4eda63e90c6c"><path d="M50.08,49.28,48,48.06A2.28,2.28,0,0,0,49.58,48l2.11,1.23A2.21,2.21,0,0,1,50.08,49.28Z" style="fill:none"/></clipPath><clipPath id="6caae7a5-4120-4089-b219-def9e86d6abf"><path d="M48,48.06c-.29-.17-.39-.5-.39-1l2.11,1.23c0,.47.11.81.39,1Z" style="fill:none"/></clipPath><clipPath id="00262552-60cb-470e-b4a3-f62d5bae9f36"><path d="M47.58,47.08a4,4,0,0,1,2-3.16l2.11,1.23a4.07,4.07,0,0,0-2,3.16Z" style="fill:none"/></clipPath><clipPath id="94d9fc08-146e-4e49-9ae4-2448e9e3c304"><path d="M53.62,38.93,51.51,37.7A10.71,10.71,0,0,1,58,36.44l2.11,1.23A10.73,10.73,0,0,0,53.62,38.93Z" style="fill:none"/></clipPath><clipPath id="8e3ecad1-7711-4ba0-b1b6-82f9adcc193e"><path d="M45.84,56.63,43.72,55.4C42.49,54.68,42,53.21,42,51.11c0-4.81,3-9.36,7.51-12.28l2.12,1.23c-4.51,2.92-7.53,7.47-7.52,12.28C44.16,54.44,44.6,55.91,45.84,56.63Z" style="fill:none"/></clipPath></defs><title>OurOffering</title><path d="M11.71,139v-1.21l2.83-2.93c1-1.06,2-2.13,2-3.48a1.62,1.62,0,0,0-1.75-1.78A4.38,4.38,0,0,0,12,130.77V129a5.64,5.64,0,0,1,3.15-1.1c2,0,3.57,1.21,3.57,3.24a5.61,5.61,0,0,1-2.2,4.09l-2.21,2.09h4.64V139Z" style="fill:#666"/><path d="M27.08,136.35V139H25v-2.65H20v-1.11l5.34-7.13h1.71v6.71h2v1.53ZM25,130.9l-2.94,3.92H25Z" style="fill:#666"/><path d="M37,136.35V139H34.86v-2.65h-5v-1.11l5.35-7.13H37v6.71h2v1.53Zm-2.09-5.45-2.93,3.92h2.93Z" style="fill:#666"/><path d="M47.16,129.73a.37.37,0,0,1-.35.22c-.51,4.36-2,8.15-4.29,8.15-1.18,0-2.24-1.17-2.24-3.39a6.14,6.14,0,0,1,6.3-6.17c4.05,0,5.8,2.56,5.8,5.29,0,3.34-1.93,4.95-5.32,5.73a6.27,6.27,0,0,0-.59-.85c3.22-.62,4.87-2.19,4.87-4.84,0-2.31-1.48-4.41-4.76-4.41a2.86,2.86,0,0,0-.42,0Zm-1.35-.19a5.16,5.16,0,0,0-4.58,5.15c0,1.49.65,2.43,1.32,2.43C44.24,137.12,45.46,133.38,45.81,129.54Z" style="fill:#666"/><path d="M54.48,127.85H66.26v12.37h-1v-.69H55.4v.69h-.92Zm.92,10.8h9.89v-9.9H55.4Zm5.32-2.21h3.63v.82H56.46v-.82h3.38v-2.58H57.09v-.8h2.75v-2.2H56.69v-.81H64v.81H60.72v2.2h3v.8h-3Zm2.43-.26a11.38,11.38,0,0,0-1.45-1.64l.62-.33a9.63,9.63,0,0,1,1.48,1.58Z" style="fill:#666"/><path d="M77.66,132.15h-.11a.49.49,0,0,1-.29-.08c-4.16,1.22-7.93,3-7.92,4.93,0,1.35,1.49,1.81,3.76,1.81a34.34,34.34,0,0,0,5-.32l.08,1a44.72,44.72,0,0,1-5,.25c-2.78,0-4.79-.64-4.81-2.7,0-1.5,1.49-2.82,3.69-3.95-.48-.86-.65-2.48-.65-5.65l1.54.13c0,.18-.15.29-.43.33,0,2.45.07,4,.46,4.74A38.27,38.27,0,0,1,77.3,131Z" style="fill:#666"/><path d="M82.35,135.83l1.63-.64.18.81c-1.46.67-3,1.33-4,1.75A.23.23,0,0,1,80,138l-.49-1.06c.53-.19,1.21-.45,1.93-.73v-4.65H79.76v-.9h1.69V127.3l1.18.09c0,.1-.1.15-.28.18v3.08h1.58v.9H82.35ZM86,138.08c0,.77.18.95,1.16.95h3.57c.85,0,1-.39,1.1-2.07a2.47,2.47,0,0,0,.85.37c-.15,1.94-.46,2.55-1.93,2.55H87.15c-1.58,0-2-.35-2-1.82v-4.72l-1.41.6-.37-.84,1.78-.75v-3.84l1.18.08c0,.1-.1.17-.28.2V132l2-.86v-3.91l1.16.07c0,.1-.08.17-.26.19v3.27l2.24-1,.2-.15.77.28A.33.33,0,0,1,92,130a51.61,51.61,0,0,1-.16,5.41c-.12.85-.6,1-2.09,1a3.35,3.35,0,0,0-.22-.84c.35,0,.84,0,1,0s.37-.07.44-.41a40.38,40.38,0,0,0,.12-4.44l-2.16.93v5.38h-.9v-5L86,133Z" style="fill:#666"/><path d="M97.75,135.74l.17.82c-1.39.58-2.83,1.15-3.77,1.52a.23.23,0,0,1-.15.22l-.49-1.07c.52-.16,1.16-.39,1.87-.64v-4.93H93.76v-.9h1.62v-3.48l1.15.08c0,.08-.08.15-.26.18v3.22h1.48v.9H96.27v4.62Zm-.49,2.49c1.15-.32,2.93-.91,4.64-1.47l.14.8c-1.5.56-3.08,1.12-4.11,1.47a.24.24,0,0,1-.15.22Zm6.36-8.08a45.71,45.71,0,0,0,.45,5.31,18.51,18.51,0,0,0,1.36-3.8l1.1.27c0,.11-.14.16-.3.16a18.74,18.74,0,0,1-1.92,4.7c.33,1.55.78,2.52,1.33,2.52.29,0,.45-.63.5-2.12a2.06,2.06,0,0,0,.67.53c-.18,1.88-.44,2.49-1.28,2.49s-1.45-.93-1.88-2.44a10.71,10.71,0,0,1-2.44,2.45,3.79,3.79,0,0,0-.64-.62,9.77,9.77,0,0,0,2.81-2.94,43.92,43.92,0,0,1-.63-6.51h-5v-.87h4.94c0-.69,0-1.37,0-2.07l1.19.07c0,.11-.1.18-.29.19,0,.6,0,1.21,0,1.81h3.07v.87Zm-5.48,1.57h3.6v4.16h-3.6Zm2.8,3.39v-2.62h-2v2.62Zm3.72-8a12.48,12.48,0,0,1,1.9,1.37l-.56.59a13.11,13.11,0,0,0-1.88-1.46Z" style="fill:#666"/><path d="M110.78,128.21c0,.16-.18.24-.46.23a33.56,33.56,0,0,0-.74,6.3,15.55,15.55,0,0,0,.18,2.78c.27-.69.87-2.16,1.07-2.65l.58.61c-.57,1.42-1,2.22-1.19,2.85a2.39,2.39,0,0,0-.11.66,1.55,1.55,0,0,0,.07.43l-1,.18a15.29,15.29,0,0,1-.62-4.82,41.84,41.84,0,0,1,.74-6.82Zm8.93,10.24c-.51,0-1,.05-1.54.05a18.85,18.85,0,0,1-2.61-.16c-1.72-.25-2.52-1.2-2.52-2.32a4.28,4.28,0,0,1,1.32-2.71l.91.4a3.29,3.29,0,0,0-1.19,2.19c0,1.63,2.38,1.63,3.83,1.63.59,0,1.22,0,1.81-.07Zm-6.49-8.56a44.1,44.1,0,0,0,6.11-.53l.08,1a51.19,51.19,0,0,1-6.16.52Z" style="fill:#666"/><path d="M129.94,138.26c.56,0,2.06-.07,2.94-.21,0,.31,0,.7.06,1-.93.09-2.33.15-2.9.15h-3.5c-2.12,0-3.14-.92-3.14-2.93v-8.16l1.37.08c0,.14-.12.22-.38.25V133a45.55,45.55,0,0,0,7-2.77l.72,1a.35.35,0,0,1-.17,0,.48.48,0,0,1-.2,0,53.84,53.84,0,0,1-7.3,2.76v2.34c0,1.41.69,1.95,2.13,1.95Zm1.32-10.55a10.82,10.82,0,0,1,1.73,2.06l-.53.41a11.34,11.34,0,0,0-1.71-2.06Zm1.72-.84a12,12,0,0,1,1.74,2l-.54.41a12.44,12.44,0,0,0-1.7-2Z" style="fill:#666"/><path d="M135.9,131.65a20.06,20.06,0,0,1,3.77,1.26l-.42.88a20.53,20.53,0,0,0-3.77-1.29Zm.84,6.85c4.5-1.52,7.68-4,9.53-8.16a8.1,8.1,0,0,0,.85.63,15.5,15.5,0,0,1-9.43,8.27.32.32,0,0,1-.15.35Zm.7-10.33a23.25,23.25,0,0,1,3.75,1.37l-.46.86A21.41,21.41,0,0,0,137,129Zm6.56-.46a11,11,0,0,1,1.8,2l-.54.41a12.7,12.7,0,0,0-1.78-2.05Zm1.94-.85a12,12,0,0,1,1.82,2l-.54.41a13.08,13.08,0,0,0-1.78-2Z" style="fill:#666"/><path d="M159.17,130.85a.29.29,0,0,1-.25.12,20.57,20.57,0,0,1-3.39,3.32l.23.06a.35.35,0,0,1-.31.19v5.34h-1V135a26.73,26.73,0,0,1-5,2.66c-.07-.09-.53-.67-.64-.78a21.58,21.58,0,0,0,8.53-5.59h-7.09v-.91h8l.15-.1Zm-2.31-1.1a26.87,26.87,0,0,0-4.61-1.69l.47-.81a25.63,25.63,0,0,1,4.66,1.65Zm.1,4.5a29.15,29.15,0,0,1,4.09,2.58l-.71.76a27.72,27.72,0,0,0-4-2.64Z" style="fill:#666"/><path d="M172.07,129a.32.32,0,0,1-.18.16,21.8,21.8,0,0,1-2.81,4.82,50.09,50.09,0,0,1,5.13,4.74l-.85.75a46.41,46.41,0,0,0-4.92-4.71,22.15,22.15,0,0,1-5.39,4.71,5.73,5.73,0,0,0-.73-.76,20.09,20.09,0,0,0,8.21-9.15h-6.88v-.95h7.42l.18-.07Z" style="fill:#666"/><path d="M187.57,133.17a.16.16,0,0,1-.09,0,.39.39,0,0,1-.21-.08c-1.06.35-2.62.92-3.78,1.42,0,.33,0,.69,0,1.1s0,1,0,1.5l-1,.05c0-.5.07-1.15.07-1.69a4.7,4.7,0,0,0,0-.56c-1.58.77-2.87,1.71-2.87,2.55s1,1.2,2.9,1.2a32,32,0,0,0,3.52-.14v.94c-.83.08-2.09.11-3.53.11-2.69,0-3.88-.64-3.88-2.07,0-1.23,1.63-2.42,3.73-3.48-.09-.88-.48-1.31-1-1.31-1,0-2.09.57-3.35,2-.39.44-.94,1-1.54,1.53l-.68-.69a9.87,9.87,0,0,0,3.53-5.17l-.79,0h-2.34v-.91h3.38c.15-.65.28-1.25.38-2l1.37.16c0,.14-.14.23-.35.26-.1.56-.23,1.05-.35,1.55a19.18,19.18,0,0,0,4.82-.81l.17.94a21.41,21.41,0,0,1-5.26.78,9.71,9.71,0,0,1-1,2.37h0a3.69,3.69,0,0,1,2.25-.91c1,0,1.56.68,1.74,1.82,1.18-.53,2.66-1.11,3.78-1.54Z" style="fill:#666"/><path d="M196.87,136a6.08,6.08,0,0,0,1.24,1.61,17.88,17.88,0,0,0,2.2-1.47l.84.62a.28.28,0,0,1-.28.07,24.38,24.38,0,0,1-2.15,1.29,8.37,8.37,0,0,0,3.25,1.35,2.84,2.84,0,0,0-.57.78A7.6,7.6,0,0,1,196,136h-1.81v2.79l3.21-.46,0,.75c-1.88.34-3.88.67-5.13.87a.21.21,0,0,1-.16.2l-.41-1,1.58-.23V136h-1.94v-.83H194v-1.58h-2.2v-.83H194v-1.44h-2.72V132c0,2.41-.19,5.85-1.66,8.17a5.27,5.27,0,0,0-.83-.48c1.43-2.25,1.55-5.4,1.55-7.69v-4.16H201v3.42h-2.13v0h.24c0,.09-.09.16-.28.19v1.23h2.44v.83h-2.44v1.58h3V136Zm-5.56-7.25v1.73H200v-1.73Zm3.87,2.59c0,.09-.08.16-.27.19v1.23h3v-1.44H195v0Zm-.27,2.25v1.58h3v-1.58Z" style="fill:#666"/><path d="M208.76,132.53h-4.2v7.68h-.93V127.79h5.13Zm-.9-4h-3.3v1.23h3.3Zm-3.3,3.25h3.3v-1.32h-3.3Zm8.72,4.9h-2v3.23h-.85v-3.23H208.3a4.65,4.65,0,0,1-1.94,3.36,3.24,3.24,0,0,0-.63-.59,3.67,3.67,0,0,0,1.73-2.77h-1.84v-.8h1.86v-1.64H205.9v-.8H213v.8h-1.69v1.64h2Zm-5-.8h2.12v-1.64h-2.12Zm7-8.1v11.13c0,1.2-.53,1.26-2.73,1.26a3.64,3.64,0,0,0-.31-1l1.29,0c.74,0,.82,0,.82-.32v-6.38h-4.32v-4.75Zm-.93.75H211v1.23h3.41ZM211,131.8h3.41v-1.33H211Z" style="fill:#666"/><line x1="51.65" y1="63" x2="148.65" y2="5" style="fill:none;stroke:#b6e8fb;stroke-miterlimit:10;stroke-width:2px"/><g style="isolation:isolate"><path d="M151,3.17a8.47,8.47,0,0,0-7.69,0c-2.12,1.23-2.11,3.23,0,4.46a8.5,8.5,0,0,0,7.7,0c2.12-1.23,2.11-3.23,0-4.46Z" style="fill:#b6e8fb"/></g><line x1="84.06" y1="66.9" x2="132.06" y2="37.9" style="fill:none;stroke:#b6e8fb;stroke-miterlimit:10;stroke-width:2px"/><line x1="131.78" y1="37.38" x2="159.06" y2="52.9" style="fill:none;stroke:#b6e8fb;stroke-miterlimit:10;stroke-width:2px"/><g style="isolation:isolate"><path d="M163.45,52.06a8.5,8.5,0,0,0-7.7,0c-2.11,1.24-2.1,3.23,0,4.46a8.5,8.5,0,0,0,7.7,0c2.12-1.23,2.11-3.22,0-4.46Z" style="fill:#b6e8fb"/></g><g style="isolation:isolate"><polygon points="59.19 68.07 57.07 66.84 86.43 49.9 88.54 51.12 59.19 68.07" style="fill:#5b6c16"/><polygon points="59.18 67.25 57.07 66.02 85.72 49.48 87.83 50.71 59.18 67.25" style="fill:#363f0d"/><polygon points="59.19 68.07 57.07 66.84 57.07 66.02 59.18 67.25 59.19 68.07" style="fill:#465111"/><polygon points="88.54 51.12 86.43 49.9 86.32 12.9 88.44 14.13 88.54 51.12" style="fill:#768b1c"/><polygon points="87.83 50.71 85.72 49.48 85.62 14.12 87.73 15.35 87.83 50.71" style="fill:#465111"/><polygon points="51.76 71.63 49.64 70.41 51.6 69.28 53.71 70.51 51.76 71.63" style="fill:#5b6c16"/><polygon points="53.71 70.51 51.6 69.28 51.59 65.25 53.7 66.48 53.71 70.51" style="fill:#768b1c"/><polygon points="51.76 71.63 49.64 70.41 49.63 66.42 51.75 67.65 51.76 71.63" style="fill:#465111"/><polygon points="45.75 75.83 43.64 74.6 43.63 73.78 45.75 75.01 45.75 75.83" style="fill:#768b1c"/><g style="isolation:isolate"><g style="clip-path:url(#903908e7-e13d-4340-96a7-924a8a4a2852)"><g style="isolation:isolate"><path d="M53.69,61.34l-2.12-1.23a5.71,5.71,0,0,0,.58-.51l2.11,1.23a6.91,6.91,0,0,1-.57.51" style="fill:#363f0d"/><path d="M54.26,60.83,52.15,59.6a5.11,5.11,0,0,0,.39-.42l2.11,1.23q-.18.21-.39.42" style="fill:#38410d"/><path d="M54.65,60.41l-2.11-1.23a3.79,3.79,0,0,0,.3-.4L55,60c-.09.13-.19.27-.3.4" style="fill:#3a430e"/><path d="M55,60l-2.11-1.23a4.37,4.37,0,0,0,.25-.4l2.12,1.22c-.08.14-.17.28-.26.41" style="fill:#3c460e"/><path d="M55.21,59.6l-2.12-1.22q.13-.24.24-.48l2.12,1.23a4.16,4.16,0,0,1-.24.47" style="fill:#3e480f"/><path d="M55.45,59.13,53.33,57.9a4.5,4.5,0,0,0,.39-1.78c0-.12,0-.24,0-.35L55.8,57a1.9,1.9,0,0,1,0,.35,4.49,4.49,0,0,1-.38,1.78" style="fill:#404a0f"/><path d="M55.8,57l-2.11-1.23a1.57,1.57,0,0,0-.08-.31l2.11,1.23a1,1,0,0,1,.08.31" style="fill:#3e480f"/><path d="M55.72,56.69l-2.11-1.23a1,1,0,0,0-.11-.21l2.12,1.23a1,1,0,0,1,.1.21" style="fill:#3c460e"/><path d="M55.62,56.48,53.5,55.25a.86.86,0,0,0-.14-.18l2.11,1.23a.65.65,0,0,1,.15.18" style="fill:#3a430e"/><path d="M55.47,56.3l-2.11-1.23a1.33,1.33,0,0,0-.19-.14l2.11,1.23a.94.94,0,0,1,.19.14" style="fill:#38410d"/></g></g></g><g style="isolation:isolate"><g style="clip-path:url(#bdf0aa2c-3b9b-4b48-a0e3-21036b8177d0)"><g style="isolation:isolate"><path d="M53.7,66.48l-2.11-1.23c.32-.22.63-.46.94-.7l2.12,1.23c-.31.24-.63.47-.95.7" style="fill:#576715"/><path d="M54.65,65.78l-2.12-1.23a20.59,20.59,0,0,0,2-1.75L56.63,64a20.48,20.48,0,0,1-2,1.75" style="fill:#5b6b16"/><path d="M56.63,64,54.52,62.8c.42-.42.83-.86,1.21-1.32l2.12,1.23c-.39.46-.79.9-1.22,1.32" style="fill:#5e6f16"/><path d="M57.85,62.71l-2.12-1.23c.32-.39.62-.78.91-1.19l2.11,1.23c-.28.41-.59.8-.9,1.19" style="fill:#617317"/><path d="M58.75,61.52l-2.11-1.23q.39-.59.75-1.2l2.11,1.23q-.34.61-.75,1.2" style="fill:#657718"/><path d="M59.5,60.32l-2.11-1.23a15.23,15.23,0,0,0,.7-1.4l2.11,1.23a14.06,14.06,0,0,1-.7,1.4" style="fill:#687b19"/><path d="M60.2,58.92l-2.11-1.23a13.84,13.84,0,0,0,1.17-5.64,10.26,10.26,0,0,0-.12-1.64l2.12,1.23a11.57,11.57,0,0,1,.12,1.64,13.84,13.84,0,0,1-1.18,5.64" style="fill:#6c7f1a"/><path d="M61.26,51.64l-2.12-1.23a6.18,6.18,0,0,0-.31-1.25l2.11,1.23a6.16,6.16,0,0,1,.32,1.25" style="fill:#687b19"/><path d="M60.94,50.39l-2.11-1.23a4.05,4.05,0,0,0-.38-.75l2.11,1.23a3.52,3.52,0,0,1,.38.75" style="fill:#657718"/><path d="M60.56,49.64l-2.11-1.23a3,3,0,0,0-.47-.58l2.12,1.23a2.94,2.94,0,0,1,.46.58" style="fill:#617317"/><path d="M60.1,49.06,58,47.83a2.93,2.93,0,0,0-.59-.44l2.12,1.23a3.12,3.12,0,0,1,.59.44" style="fill:#5e6f16"/></g></g></g><polygon points="53.69 61.34 51.57 60.11 51.56 54.84 53.67 56.07 53.69 61.34" style="fill:#768b1c"/><g style="isolation:isolate"><g style="clip-path:url(#b4439432-67b6-4fa1-b60e-ccefc35bfcd6)"><g style="isolation:isolate"><path d="M53.67,56.07l-2.11-1.23a2.29,2.29,0,0,1,1.61.09l2.11,1.23a2.23,2.23,0,0,0-1.61-.09" style="fill:#576715"/></g></g></g><polygon points="51.73 62.61 49.62 61.38 49.6 55.33 51.72 56.56 51.73 62.61" style="fill:#465111"/><g style="isolation:isolate"><g style="clip-path:url(#afbe9f7c-4b8f-4af6-bf2b-14a851c31532)"><g style="isolation:isolate"><path d="M43.72,69,41.6,67.79c1.57.53,4.32.63,8-1.37l2.12,1.23c-3.71,2-6.47,1.9-8,1.37" style="fill:#576715"/></g></g></g><polygon points="58.91 43.13 56.8 41.9 57.98 36.44 60.09 37.67 58.91 43.13" style="fill:#778c1c"/><g style="isolation:isolate"><g style="clip-path:url(#2fe3f44c-9b92-45da-83f9-74748f7bb407)"><g style="isolation:isolate"><path d="M53.65,48.69l-2.11-1.22c2.69-.77,4.61-.81,5.85-.08l2.12,1.23c-1.25-.73-3.16-.69-5.86.07" style="fill:#343c0c"/></g></g></g><polygon points="43.72 69.02 41.6 67.79 42.87 61.97 44.98 63.2 43.72 69.02" style="fill:#475211"/><g style="isolation:isolate"><g style="clip-path:url(#932cca68-ac77-4034-9ea7-947e70840afb)"><g style="isolation:isolate"><path d="M45,63.2,42.87,62a9.56,9.56,0,0,0,6.75-.59l2.11,1.23A9.56,9.56,0,0,1,45,63.2" style="fill:#343c0c"/></g></g></g><polygon points="53.65 48.7 51.54 47.47 51.52 42.84 53.64 44.06 53.65 48.7" style="fill:#768b1c"/><g style="isolation:isolate"><g style="clip-path:url(#cf6317cc-87e0-4444-859e-11da0b639ddf)"><g style="isolation:isolate"><path d="M53.64,44.07l-2.12-1.23a10.06,10.06,0,0,1,5.28-.94l2.11,1.23a9.93,9.93,0,0,0-5.27.94" style="fill:#576715"/></g></g></g><g style="isolation:isolate"><g style="clip-path:url(#1d0d372c-0c6c-4b05-93b7-a2924239e379)"><g style="isolation:isolate"><path d="M45.84,56.63,43.72,55.4c1.17.67,3,.68,5.88-.07l2.12,1.23c-2.85.75-4.72.74-5.88.07" style="fill:#576715"/></g></g></g><g style="isolation:isolate"><g style="clip-path:url(#e13ad9e4-d93f-48e8-9392-4eda63e90c6c)"><g style="isolation:isolate"><path d="M50.08,49.28,48,48.06A2.28,2.28,0,0,0,49.58,48l2.11,1.23a2.21,2.21,0,0,1-1.61.05" style="fill:#343c0c"/></g></g></g><polygon points="51.7 49.23 49.58 48 49.57 43.92 51.68 45.15 51.7 49.23" style="fill:#465111"/><g style="isolation:isolate"><g style="clip-path:url(#6caae7a5-4120-4089-b219-def9e86d6abf)"><g style="isolation:isolate"><path d="M50.08,49.28,48,48.06l-.13-.1L50,49.19l.12.09" style="fill:#5e6f16"/><path d="M50,49.19,47.84,48l-.1-.12,2.12,1.23.1.12" style="fill:#617317"/><path d="M49.86,49.07l-2.12-1.23-.08-.16,2.12,1.23a.8.8,0,0,0,.08.16" style="fill:#657718"/><path d="M49.78,48.91l-2.12-1.23a1.83,1.83,0,0,1-.06-.25l2.11,1.23a1.82,1.82,0,0,0,.07.25" style="fill:#687b19"/><path d="M49.71,48.66,47.6,47.43a1.94,1.94,0,0,1,0-.35l2.11,1.23c0,.13,0,.24,0,.35" style="fill:#6c7f1a"/></g></g></g><polygon points="59.08 31.89 56.97 30.66 85.62 14.12 87.73 15.35 59.08 31.89" style="fill:#5b6c16"/><polygon points="59.08 31.89 56.97 30.66 56.97 29.85 59.08 31.07 59.08 31.89" style="fill:#465111"/><polygon points="59.08 31.07 56.97 29.85 86.32 12.9 88.44 14.13 59.08 31.07" style="fill:#363f0d"/><polygon points="88.44 14.13 88.54 51.12 59.19 68.07 59.18 67.25 87.83 50.71 87.73 15.35 59.08 31.89 59.08 31.07 88.44 14.13" style="fill:#5c6b16"/><g style="isolation:isolate"><g style="clip-path:url(#00262552-60cb-470e-b4a3-f62d5bae9f36)"><g style="isolation:isolate"><path d="M49.69,48.31l-2.11-1.23a2.74,2.74,0,0,1,.25-1.17l2.11,1.23a2.9,2.9,0,0,0-.25,1.17" style="fill:#6c7f1a"/><path d="M49.94,47.14l-2.11-1.23a2.59,2.59,0,0,1,.17-.33l2.11,1.23c-.06.11-.12.22-.17.33" style="fill:#687b19"/><path d="M50.11,46.81,48,45.58a2.49,2.49,0,0,1,.19-.3l2.11,1.23c-.07.1-.13.2-.19.3" style="fill:#657718"/><path d="M50.3,46.51l-2.11-1.23.23-.31,2.11,1.23-.23.31" style="fill:#617317"/><path d="M50.53,46.2,48.42,45c.1-.12.22-.25.34-.37l2.11,1.23c-.12.12-.23.25-.34.37" style="fill:#5e6f16"/><path d="M50.87,45.83,48.76,44.6a7.53,7.53,0,0,1,.58-.51l2.11,1.23c-.21.17-.4.34-.58.51" style="fill:#5b6b16"/><path d="M51.45,45.32l-2.11-1.23.23-.17,2.11,1.23-.23.17" style="fill:#576715"/></g></g></g><g style="isolation:isolate"><g style="clip-path:url(#94d9fc08-146e-4e49-9ae4-2448e9e3c304)"><g style="isolation:isolate"><path d="M53.62,38.93,51.51,37.7A10.71,10.71,0,0,1,58,36.44l2.11,1.23a10.73,10.73,0,0,0-6.47,1.26" style="fill:#343c0c"/></g></g></g><polygon points="53.62 38.93 51.51 37.7 51.5 33.95 53.61 35.17 53.62 38.93" style="fill:#768b1c"/><polygon points="51.67 40.06 49.55 38.83 49.54 35.07 51.66 36.3 51.67 40.06" style="fill:#465111"/><polygon points="51.66 36.3 49.54 35.07 51.5 33.95 53.61 35.17 51.66 36.3" style="fill:#363f0d"/><g style="isolation:isolate"><g style="clip-path:url(#8e3ecad1-7711-4ba0-b1b6-82f9adcc193e)"><g style="isolation:isolate"><path d="M45.84,56.63,43.72,55.4a3.2,3.2,0,0,1-.54-.41l2.12,1.23a3.2,3.2,0,0,0,.54.41" style="fill:#38410d"/><path d="M45.3,56.22,43.18,55a3,3,0,0,1-.41-.51l2.11,1.23a2.92,2.92,0,0,0,.42.51" style="fill:#3a430e"/><path d="M44.88,55.71l-2.11-1.23a3.6,3.6,0,0,1-.34-.68L44.54,55a4.31,4.31,0,0,0,.34.68" style="fill:#3c460e"/><path d="M44.54,55,42.43,53.8a5,5,0,0,1-.28-1.11l2.11,1.23A6.42,6.42,0,0,0,44.54,55" style="fill:#3e480f"/><path d="M44.26,53.92l-2.11-1.23A9.64,9.64,0,0,1,42,51.11a12.22,12.22,0,0,1,1.06-5l2.11,1.23a12.38,12.38,0,0,0-1.06,5,10.88,10.88,0,0,0,.11,1.58" style="fill:#404a0f"/><path d="M45.21,47.38,43.1,46.15c.2-.45.42-.9.67-1.34L45.89,46c-.25.44-.48.89-.68,1.34" style="fill:#3e480f"/><path d="M45.89,46l-2.12-1.23q.33-.59.72-1.14l2.12,1.23q-.39.56-.72,1.14" style="fill:#3c460e"/><path d="M46.61,44.9l-2.12-1.23c.27-.38.55-.76.86-1.13l2.11,1.23c-.3.37-.59.74-.85,1.13" style="fill:#3a430e"/><path d="M47.46,43.77l-2.11-1.23a15.87,15.87,0,0,1,1.11-1.22l2.12,1.23a16,16,0,0,0-1.12,1.22" style="fill:#38410d"/><path d="M48.58,42.55l-2.12-1.23a19.58,19.58,0,0,1,1.73-1.52L50.3,41a18,18,0,0,0-1.72,1.52" style="fill:#363f0d"/><path d="M50.3,41,48.19,39.8c.44-.34.89-.66,1.36-1l2.12,1.23c-.47.3-.93.63-1.37,1" style="fill:#343c0c"/></g></g></g><polygon points="16.39 92.78 14.28 91.55 43.64 74.6 45.75 75.83 16.39 92.78" style="fill:#5b6c16"/><polygon points="17.1 91.55 14.99 90.32 43.63 73.78 45.75 75.01 17.1 91.55" style="fill:#363f0d"/><path d="M53.65,48.69c5.47-1.55,7.71-.09,7.73,4.59,0,5.86-3.53,10.3-7.68,13.2v4l-2,1.12v-4c-3.71,2-6.47,1.9-8,1.37L45,63.2a9.56,9.56,0,0,0,6.75-.59v-6c-5.88,1.55-7.56-.14-7.57-4.22,0-4.81,3-9.36,7.52-12.28V36.3l2-1.13v3.76a10.73,10.73,0,0,1,6.47-1.26l-1.18,5.46a9.93,9.93,0,0,0-5.27.94Zm0,12.65a5.19,5.19,0,0,0,2.14-4c0-1.1-.64-1.6-2.16-1.28l0,5.27m-2-12.11V45.15a4.07,4.07,0,0,0-2,3.16c0,1,.45,1.36,2,.92" style="fill:#5c6b16"/><polygon points="45.65 39.65 43.53 38.42 43.53 37.6 45.65 38.83 45.65 39.65" style="fill:#768b1c"/><polygon points="17 56.19 14.89 54.96 43.53 38.42 45.65 39.65 17 56.19" style="fill:#5b6c16"/><polygon points="17.1 91.55 14.99 90.32 14.89 54.96 17 56.19 17.1 91.55" style="fill:#768b1c"/><polygon points="16.4 92.78 14.28 91.55 14.18 54.55 16.29 55.78 16.4 92.78" style="fill:#465111"/><polygon points="45.65 38.83 45.65 39.65 17 56.19 17.1 91.55 45.75 75.01 45.75 75.83 16.4 92.78 16.29 55.78 45.65 38.83" style="fill:#5c6b16"/><polygon points="16.29 55.78 14.18 54.55 43.53 37.6 45.65 38.83 16.29 55.78" style="fill:#363f0d"/><path d="M93.36,5.55,11.79,52.65l.13,48.43L93.49,54Zm-77,87.23-.11-37,29.36-17v.82L17,56.19l.1,35.36L45.75,75v.82l-29.35,17M53.71,70.51l-2,1.12v-4c-3.71,2-6.47,1.9-8,1.37L45,63.2a9.56,9.56,0,0,0,6.75-.59v-6c-5.88,1.55-7.56-.14-7.57-4.22,0-4.81,3-9.36,7.52-12.28V36.3l2-1.13v3.76a10.73,10.73,0,0,1,6.47-1.26l-1.18,5.46a9.93,9.93,0,0,0-5.27.94v4.62c5.47-1.55,7.71-.09,7.73,4.59,0,5.86-3.53,10.3-7.68,13.2v4m5.48-2.44v-.82L87.83,50.71l-.1-35.36L59.08,31.89v-.81L88.44,14.13l.1,37L59.19,68.07" style="fill:#9bb625"/><path d="M53.67,56.07l0,5.27a5.19,5.19,0,0,0,2.14-4C55.83,56.25,55.19,55.75,53.67,56.07Z" style="fill:#9bb625"/><path d="M49.69,48.31a4.07,4.07,0,0,1,2-3.16v4.08C50.14,49.67,49.69,49.28,49.69,48.31Z" style="fill:#9bb625"/><polygon points="11.79 52.65 9.67 51.42 91.24 4.33 93.36 5.55 11.79 52.65" style="fill:#5b6c16"/><polygon points="11.92 101.08 9.81 99.85 9.67 51.42 11.79 52.65 11.92 101.08" style="fill:#768b1c"/></g><path d="M133.67,91.05l0,4.86c0,5-3.33,10.08-10,13.93-13.33,7.74-35,7.75-48.43,0-6.75-3.9-10.12-9-10.1-14.12V90.85c0,5.11,3.36,10.23,10.11,14.12,13.42,7.75,35.1,7.75,48.43,0,6.62-3.85,9.93-8.89,9.95-13.93" style="fill:#989696"/><path d="M123.56,76.92c13.42,7.75,13.49,20.31.16,28.06s-35,7.74-48.43,0-13.49-20.3-.16-28S110.14,69.18,123.56,76.92ZM78.05,103.37c11.88,6.86,31.08,6.86,42.89,0s11.74-18-.14-24.84-31.08-6.86-42.89,0-11.74,18,.14,24.84" style="fill:#dad9d9"/><path d="M134.66,85.08v4.86c0,5-3.33,10.08-10,13.93-13.33,7.74-35,7.75-48.43,0-6.75-3.9-10.12-9-10.11-14.13V84.88C66.16,90,69.53,95.11,76.28,99c13.42,7.75,35.1,7.75,48.43,0,6.62-3.85,9.94-8.89,10-13.93" style="fill:#989696"/><path d="M124.55,71C138,78.7,138,91.26,124.71,99s-35,7.74-48.43,0S62.8,78.7,76.12,71,111.14,63.21,124.55,71ZM79,97.4c11.89,6.86,31.09,6.86,42.89,0s11.74-18-.14-24.84-31.08-6.86-42.89,0S67.16,90.54,79,97.4" style="fill:#dad9d9"/><path d="M121.79,72.56c11.88,6.86,12,18,.14,24.84s-31,6.86-42.89,0-11.94-18-.14-24.84S109.91,65.7,121.79,72.56ZM84.25,94.37c9,5.19,23.51,5.19,32.44,0s8.88-13.6-.11-18.79-23.5-5.19-32.44,0-8.88,13.6.11,18.79" style="fill:#dad9d9"/><path d="M129.69,77.61l0,4.87c0,5-3.33,10.08-9.95,13.93-13.33,7.74-35,7.74-48.43,0-6.75-3.89-10.12-9-10.11-14.12l0-4.86c0,5.11,3.36,10.22,10.11,14.12,13.42,7.75,35.1,7.75,48.43,0,6.62-3.85,9.93-8.88,10-13.93" style="fill:#989696"/><path d="M119.58,63.49c13.42,7.75,13.49,20.31.16,28.05s-35,7.75-48.43,0-13.49-20.3-.16-28.05S106.16,55.74,119.58,63.49ZM74.07,89.94C86,96.8,105.15,96.8,117,89.94s11.75-18-.14-24.85-31.07-6.86-42.88,0-11.74,18,.14,24.84m0,0C86,96.8,105.15,96.8,117,89.94s11.75-18-.14-24.85-31.07-6.86-42.88,0-11.74,18,.14,24.84" style="fill:#dad9d9"/><path d="M116.58,63.14c9,5.19,9,13.61.11,18.8s-23.45,5.18-32.44,0-9-13.6-.11-18.78S107.6,58,116.58,63.14Z" style="fill:#dad9d9"/><path d="M121.79,60.12c11.88,6.86,12,18,.14,24.84s-31,6.86-42.89,0S67.1,67,78.9,60.12,109.91,53.26,121.79,60.12ZM84.25,81.93c9,5.19,23.51,5.19,32.44,0s8.88-13.61-.11-18.8-23.5-5.18-32.44,0-8.88,13.6.11,18.78" style="fill:#dad9d9;stroke:#c8c7c7;stroke-miterlimit:10"/><path d="M134.66,72.64V77.5c0,5-3.33,10.08-10,13.93-13.33,7.74-35,7.75-48.43,0-6.75-3.9-10.12-9-10.11-14.12V72.44c0,5.11,3.36,10.23,10.11,14.13,13.42,7.74,35.1,7.74,48.43,0,6.62-3.85,9.94-8.89,10-13.93" style="fill:#989696"/><path d="M124.55,58.51c13.42,7.75,13.49,20.31.16,28.06s-35,7.74-48.43,0S62.8,66.26,76.12,58.51,111.14,50.77,124.55,58.51ZM79,85c11.89,6.86,31.09,6.86,42.89,0s11.74-18-.14-24.84-31.08-6.86-42.89,0S67.16,78.1,79,85" style="fill:#dad9d9"/><path d="M117.94,73.9,116.08,75l-.58-.33a4.24,4.24,0,0,0-1.31-.5,7.73,7.73,0,0,0-1.8,0l-3.75.29L112,76.32l-1.58.92-4.55-2.63-3.58.24,6.13,3.55-1.57.91L100,75.39,97.23,77q-1,.57-1,.9c0,.21.39.54,1.13,1l1.51.87L97,80.83l-10-5.77L88.92,74l1.48.85a4,4,0,0,0,1.69.67,3.31,3.31,0,0,0,1.55-.56l2.79-1.62-6.58-3.8,1.58-.92,6,3.45.55-2-4.53-2.62L95,66.53l3.38,2,.46-1.5a2.45,2.45,0,0,0,.08-1.47,1.83,1.83,0,0,0-.88-.94l-.85-.49L99.06,63l9,5.18-1.86,1.08-1.25-.72a3.45,3.45,0,0,0-1-.43.84.84,0,0,0-.63.07,1,1,0,0,0-.26.25,3,3,0,0,0-.2.43l-1.25,4,7.43-.6a3.73,3.73,0,0,0,.66-.11,1.06,1.06,0,0,0,.39-.15c.15-.08.19-.19.12-.31a1.68,1.68,0,0,0-.56-.45l-1.52-.87L110,69.3Z" style="fill:#838181"/></svg>