<?xml version="1.0" encoding="utf-8"?>
<!-- Generator: Adobe Illustrator 21.0.2, SVG Export Plug-In . SVG Version: 6.00 Build 0)  -->
<svg version="1.1" id="labels" xmlns="http://www.w3.org/2000/svg" xmlns:xlink="http://www.w3.org/1999/xlink" x="0px" y="0px"
	 viewBox="0 0 27.9 21" style="enable-background:new 0 0 27.9 21;" xml:space="preserve">
<style type="text/css">
	.st0{fill:none;}
	.st1{fill:#00A7E1;}
</style>
<g>
	<path class="st0" d="M22.6,15.8h-20c-1.2,0-2.2-1-2.2-2.2c0-0.8,0.4-1.5,1.1-1.9l1.1-0.7L2.2,9.9C2,9.5,2,9.1,2,8.6
		c0-1.8,1.5-3.2,3.2-3.2c0.4,0,0.7,0.1,1.1,0.2L7.6,6l0.5-1.3c1.1-2.6,3.6-4.2,6.4-4.2c3,0,5.7,1.9,6.6,4.8l0.3,1.1l1.1,0
		c0.1,0,0.1,0,0.2,0c2.6,0,4.7,2.1,4.7,4.7C27.4,13.7,25.3,15.8,22.6,15.8z"/>
	<path class="st1" d="M22.6,5.9L22.6,5.9l-0.9,0l-0.2-0.7c-1-3.1-3.8-5.2-7.1-5.2c-3,0-5.7,1.8-6.8,4.5L7.3,5.4L6.4,5.1
		C6,5,5.6,4.9,5.2,4.9c-2.1,0-3.7,1.7-3.7,3.7c0,0.5,0.1,1,0.3,1.4l0.3,0.8l-0.7,0.4C0.5,11.8,0,12.7,0,13.6c0,1.5,1.2,2.7,2.7,2.7
		h1.9c0.1-0.3,0.1-0.7,0.3-1H2.7c-0.9,0-1.7-0.8-1.7-1.7c0-0.6,0.3-1.1,0.8-1.5l1.5-0.9L2.7,9.7C2.5,9.3,2.5,9,2.5,8.6
		c0-1.5,1.2-2.7,2.7-2.7c0.3,0,0.6,0.1,0.9,0.2l1.8,0.6l0.7-1.7c1-2.4,3.3-3.9,5.9-3.9c2.8,0,5.3,1.8,6.1,4.5L21,6.9l1.5,0
		c0.1,0,0.1,0,0.1,0c2.3,0,4.2,1.9,4.2,4.2c0,1.8-1.1,3.3-2.7,3.9c0.1,0.3,0.2,0.6,0.3,1c2-0.7,3.4-2.6,3.4-4.9
		C27.9,8.2,25.5,5.9,22.6,5.9z"/>
</g>
<g>
	<path class="st1" d="M20.8,21H5.1c-1.2,0-2.2-1-2.2-2.2c0-0.8,0.4-1.5,1.1-1.9l0.5-0.3l-0.2-0.5C4.1,15.7,4,15.3,4,14.9
		c0-1.7,1.4-3.1,3.1-3.1c0.3,0,0.7,0.1,1,0.2l0.6,0.2l0.2-0.6C9.8,9.4,12,8,14.3,8c2.6,0,4.9,1.7,5.6,4.1l0.1,0.5l0.6,0
		c2.3,0,4.2,1.9,4.2,4.2S23.1,21,20.8,21z M7.1,12.9c-1.1,0-2.1,0.9-2.1,2.1c0,0.3,0.1,0.5,0.2,0.8L5.7,17l-1.3,0.7
		c-0.4,0.2-0.6,0.6-0.6,1.1c0,0.7,0.5,1.2,1.2,1.2h15.7c1.8,0,3.2-1.4,3.2-3.2s-1.4-3.2-3.2-3.2c0,0-0.1,0-0.1,0l-1.3,0L19,12.5
		C18.4,10.4,16.5,9,14.3,9c-2,0-3.8,1.2-4.5,3l-0.6,1.4L7.7,13C7.5,12.9,7.3,12.9,7.1,12.9z"/>
</g>
</svg>
