<?xml version="1.0" encoding="utf-8"?>
<!-- Generator: Adobe Illustrator 21.0.2, SVG Export Plug-In . SVG Version: 6.00 Build 0)  -->
<svg version="1.1" id="Layer_1" xmlns="http://www.w3.org/2000/svg" xmlns:xlink="http://www.w3.org/1999/xlink" x="0px" y="0px"
	 viewBox="0 0 15.6 15.6" style="enable-background:new 0 0 15.6 15.6;" xml:space="preserve">
<style type="text/css">
	.st0{fill:#00A7E1;}
</style>
<path class="st0" d="M9.9,6.6H7.5c-0.1,0-0.2,0-0.2,0.1C7.2,6.7,7.2,6.8,7.2,6.9v8.4c0,0.1,0,0.2,0.1,0.2c0.1,0.1,0.1,0.1,0.2,0.1
	h2.4c0.1,0,0.2,0,0.2-0.1c0.1-0.1,0.1-0.1,0.1-0.2V6.9c0-0.1,0-0.2-0.1-0.2C10,6.6,10,6.6,9.9,6.6z M9.6,15H7.8V7.2h1.8V15z M6.3,9
	H3.9C3.8,9,3.7,9,3.7,9.1C3.6,9.1,3.6,9.2,3.6,9.3v6c0,0.1,0,0.2,0.1,0.2c0.1,0.1,0.1,0.1,0.2,0.1h2.4c0.1,0,0.2,0,0.2-0.1
	c0.1-0.1,0.1-0.1,0.1-0.2v-6c0-0.1,0-0.2-0.1-0.2C6.4,9,6.4,9,6.3,9z M4.2,15V9.6H6V15H4.2z M2.7,12H0.3c-0.1,0-0.2,0-0.2,0.1
	C0,12.1,0,12.2,0,12.3v3c0,0.1,0,0.2,0.1,0.2c0.1,0.1,0.1,0.1,0.2,0.1h2.4c0.1,0,0.2,0,0.2-0.1C3,15.4,3,15.4,3,15.3v-3
	c0-0.1,0-0.2-0.1-0.2C2.9,12,2.8,12,2.7,12z M0.6,15v-2.4h1.8V15H0.6z M15.5,4.3l-3-4.2C12.5,0,12.4,0,12.3,0c-0.1,0-0.2,0-0.2,0.1
	L9,4.3C9,4.4,9,4.5,9,4.6c0.1,0.1,0.2,0.2,0.3,0.2h1.5v10.5c0,0.1,0,0.2,0.1,0.2c0.1,0.1,0.1,0.1,0.2,0.1h2.4c0.1,0,0.2,0,0.2-0.1
	c0.1-0.1,0.1-0.1,0.1-0.2V4.8h1.5c0.1,0,0.2-0.1,0.3-0.2C15.6,4.5,15.6,4.4,15.5,4.3z M13.5,4.2c-0.1,0-0.2,0-0.2,0.1
	c-0.1,0.1-0.1,0.1-0.1,0.2V15h-1.8l0-10.5c0-0.1,0-0.2-0.1-0.2c-0.1-0.1-0.1-0.1-0.2-0.1H9.9l2.4-3.4l2.4,3.4H13.5z"/>
</svg>
