<?xml version="1.0" encoding="utf-8"?>
<!-- Generator: Adobe Illustrator 21.0.2, SVG Export Plug-In . SVG Version: 6.00 Build 0)  -->
<svg version="1.1" id="Layer_1" xmlns="http://www.w3.org/2000/svg" xmlns:xlink="http://www.w3.org/1999/xlink" x="0px" y="0px"
	 viewBox="0 0 489.1 489.1" style="enable-background:new 0 0 489.1 489.1;" xml:space="preserve">
<style type="text/css">
	.st0{fill:#00A7E1;}
</style>
<path class="st0" d="M487.3,215c-0.5-4.2-3.8-7.6-8-8.2l-57.4-8.2c-4.3-16.6-10.9-32.3-19.4-46.8l34.8-46.5
	c2.5-3.4,2.5-8.1-0.1-11.4c-12.2-15.6-26.3-29.6-41.9-41.8c-3.4-2.6-8-2.7-11.4-0.1l-46.4,34.8c-14.5-8.5-30.2-15.1-46.8-19.5
	l-8.2-57.4c-0.6-4.2-4-7.5-8.2-8C264.5,0.7,254.6,0,244.6,0c-10.1,0-20,0.7-29.6,1.8c-4.2,0.5-7.6,3.8-8.2,8l-8.2,57.4
	c-16.6,4.3-32.4,10.9-46.8,19.5l-0.5-0.4c5.4-8.7,8.6-18.9,8.7-29.9c0-31.2-25.3-56.4-56.4-56.4C72.3,0,47,25.2,47,56.4
	c0,31.2,25.3,56.4,56.4,56.4c13.3,0,25.6-4.7,35.3-12.4l6.9,5.2c3.1,2.4,7.4,2.5,10.7,0.4C172.2,95.8,190,88.3,209,84.1
	c3.8-0.9,6.7-4,7.3-7.8l8.1-56.5c6.7-0.6,13.4-1,20.2-1c6.8,0,13.5,0.4,20.2,1l8.1,56.5c0.5,3.9,3.4,7,7.3,7.8
	c19,4.3,36.8,11.8,52.7,21.9c3.3,2.1,7.6,1.9,10.7-0.4l45.7-34.3c10.4,8.7,19.9,18.2,28.6,28.5l-34.3,45.7
	c-2.4,3.1-2.5,7.4-0.4,10.7c10.2,15.9,17.7,33.7,21.9,52.7c0.8,3.8,4,6.7,7.9,7.3l56.5,8.1c0.6,6.7,1,13.4,1,20.2
	c0,6.8-0.4,13.5-1,20.2l-56.5,8.1c-3.9,0.5-7,3.5-7.9,7.3c-4.2,19-11.7,36.8-21.9,52.7c-2.1,3.3-1.9,7.6,0.4,10.7l34.3,45.7
	c-8.6,10.3-18.2,19.9-28.6,28.6l-45.7-34.3c-3.1-2.3-7.4-2.5-10.7-0.4c-15.9,10.2-33.7,17.7-52.7,21.9c-3.8,0.8-6.7,4-7.3,7.9
	l-8.1,56.5c-6.7,0.6-13.4,1-20.2,1c-6.8,0-13.5-0.4-20.2-1l-8.1-56.5c-0.6-3.9-3.5-7-7.3-7.9c-14-3.1-27.2-8.2-39.7-14.7v-61.9
	c20,17.9,46.3,29,75.3,29c62.3,0,112.9-50.5,112.9-112.9c0-62.3-50.5-112.8-112.9-112.9c-15.5,0-30.2,3.3-43.6,8.9
	c-5.1-8.7-13.1-15.6-23.1-18.9l-24.3-8.4c-3.4-1.2-7.2-0.3-9.7,2.3L103.5,156l-40.4-40.4c-2.5-2.6-6.3-3.4-9.7-2.3L29,121.8
	c-17.3,5.7-29,22-29,40.3v110.7c0,22.8,16.1,41.7,37.6,46.1v160.8c0,2.5,1,4.9,2.7,6.7c1.8,1.8,4.1,2.7,6.7,2.7h56.3
	c0,0,0.1,0,0.1,0c0,0,0.1,0,0.1,0h56.3c2.5,0,4.9-1,6.7-2.7c1.8-1.8,2.7-4.2,2.7-6.7v-68.4c9.4,4.3,19.1,7.9,29.3,10.6l8.2,57.4
	c0.6,4.2,4,7.5,8.2,8c9.6,1.1,19.5,1.8,29.6,1.8c10.1,0,19.9-0.7,29.5-1.8c4.2-0.5,7.6-3.8,8.2-8l8.2-57.4
	c16.6-4.3,32.3-10.9,46.8-19.5l46.4,34.8c3.4,2.5,8.1,2.5,11.4-0.1c15.6-12.2,29.6-26.3,41.9-41.8c2.6-3.3,2.7-8,0.1-11.4
	l-34.8-46.5c8.5-14.4,15.1-30.2,19.4-46.8l57.4-8.2c4.2-0.6,7.5-4,8-8.2c1.2-9.7,1.8-19.5,1.8-29.6
	C489.1,234.5,488.4,224.6,487.3,215z M103.5,94c-20.8,0-37.6-16.8-37.6-37.6c0-20.8,16.9-37.6,37.6-37.6c20.8,0,37.6,16.8,37.6,37.6
	C141,77.2,124.2,94,103.5,94z M244.6,150.5c51.9,0.1,94,42.1,94,94c-0.1,52-42.1,94-94,94.1c-24.3,0-46.3-9.3-62.9-24.4
	c15-7.9,25.3-23.4,25.3-41.5V162.1c0-1.2-0.2-2.3-0.3-3.4C218.3,153.5,231,150.5,244.6,150.5z M150.5,197.5v272.8h-37.6V310.4
	c0-5.2-4.2-9.4-9.4-9.4c-5.2,0-9.4,4.2-9.4,9.4v159.9H56.4V197.5c0-5.2-4.2-9.4-9.4-9.4c-5.2,0-9.4,4.2-9.4,9.4v101.7
	c-10.9-3.9-18.8-14.2-18.8-26.5V162.1c0-10.2,6.6-19.3,16.2-22.5l18.9-6.5l42.9,42.9c1.8,1.8,4.1,2.8,6.6,2.8c2.5,0,4.9-1,6.7-2.8
	l42.9-42.9l18.8,6.5c9.7,3.2,16.3,12.3,16.3,22.5v110.7c0,12.3-7.9,22.6-18.8,26.5V197.5c0-5.2-4.2-9.4-9.4-9.4
	C154.7,188.1,150.5,192.3,150.5,197.5z"/>
</svg>
