<?xml version="1.0" encoding="utf-8"?>
<!-- Generator: Adobe Illustrator 21.0.2, SVG Export Plug-In . SVG Version: 6.00 Build 0)  -->
<svg version="1.1" id="Layer_1" xmlns="http://www.w3.org/2000/svg" xmlns:xlink="http://www.w3.org/1999/xlink" x="0px" y="0px"
	 viewBox="0 0 14.9 14.9" style="enable-background:new 0 0 14.9 14.9;" xml:space="preserve">
<style type="text/css">
	.st0{fill:#00A7E1;}
</style>
<path class="st0" d="M7.2,11.2c-0.6,0-1.1,0.5-1.1,1.1s0.5,1.1,1.1,1.1s1.1-0.5,1.1-1.1S7.8,11.2,7.2,11.2z M7.2,12.9
	c-0.3,0-0.6-0.3-0.6-0.6s0.3-0.6,0.6-0.6c0.3,0,0.6,0.3,0.6,0.6C7.7,12.7,7.5,12.9,7.2,12.9z M14.9,9.5l-2-5.4
	c-0.1-0.1-0.2-0.2-0.4-0.2l-0.8,0.3l-1.5-4C10.2-0.1,9.9,0,9.9,0L4,2.2c-0.2,0-0.2,0.2-0.2,0.3l1.6,4.3l0,0l0,0l1.1,3
	C6.3,9.9,6.1,10,5.9,10.1l-2.5-7C3.3,2.7,2.9,2.4,2.5,2.3C2.4,2,2.1,1.7,1.7,1.7H0.9C0.4,1.7,0,2.1,0,2.6s0.4,0.9,0.9,0.9h0.9
	c0.4,0,0.7-0.2,0.8-0.5c0.1,0,0.2,0.1,0.3,0.3l2.6,7.1c-0.5,0.5-0.9,1.2-0.9,1.9c0,1.4,1.2,2.6,2.6,2.6c1.2,0,2.2-0.9,2.5-2l3.8-1.4
	c0.1-0.1,0.2-0.2,0.2-0.4c-0.1-0.1-0.2-0.2-0.4-0.2l-3.6,1.3c0-0.2,0-0.4-0.1-0.6l5.1-1.8c0.1,0,0.1-0.1,0.2-0.1
	C14.9,9.7,14.9,9.6,14.9,9.5z M2,2.6c0,0.2-0.1,0.3-0.3,0.3H0.9c-0.2,0-0.3-0.1-0.3-0.3s0.1-0.3,0.3-0.3h0.9C1.9,2.3,2,2.4,2,2.6
	L2,2.6L2,2.6z M7.4,1.5l0.4,1.1L7.3,2.8L6.9,1.7L7.4,1.5z M4.5,2.6l1.9-0.7l0.5,1.3C6.9,3.3,7,3.3,7,3.4h0.1h0.1L8.3,3
	c0.1,0,0.1,0,0.1-0.1s0-0.1,0-0.2L8,1.3l1.9-0.7l1.4,3.8l-5.4,2L4.5,2.6z M9.9,6.7L9.4,6.9L9,5.9l0.5-0.2L9.9,6.7z M7.2,14.3
	c-1.1,0-2-0.9-2-2s0.9-2,2-2s2,0.9,2,2S8.3,14.3,7.2,14.3z M9.5,11.2C9,10.3,8.2,9.8,7.2,9.8H7.1L6,6.9L8.5,6L9,7.3
	c0,0.2,0,0.2,0.1,0.3h0.1h0.1l1.1-0.4c0.1,0,0.1-0.1,0.2-0.1c0-0.1,0-0.1,0-0.2l-0.5-1.3l2.4-0.9l1.8,4.9L9.5,11.2z"/>
</svg>
