<?xml version="1.0" encoding="utf-8"?>
<!-- Generator: Adobe Illustrator 21.0.2, SVG Export Plug-In . SVG Version: 6.00 Build 0)  -->
<svg version="1.1" id="Layer_1" xmlns="http://www.w3.org/2000/svg" xmlns:xlink="http://www.w3.org/1999/xlink" x="0px" y="0px"
	 viewBox="0 0 12.8 17" style="enable-background:new 0 0 12.8 17;" xml:space="preserve">
<style type="text/css">
	.st0{fill:#00A7E1;}
</style>
<g>
	<path class="st0" d="M8.6,3.2C8.5,3.1,8.4,2.9,8.4,2.8l0.4-0.3C8.9,2.6,9,2.8,9.1,2.9L8.6,3.2z"/>
	<path class="st0" d="M8.1,2.5C8,2.4,7.9,2.3,7.8,2.2l0.3-0.4C8.2,1.9,8.4,2,8.5,2.1L8.1,2.5z"/>
	<path class="st0" d="M7.4,2C7.3,1.9,7.1,1.9,7,1.8l0.2-0.5c0.2,0.1,0.3,0.1,0.5,0.2L7.4,2z"/>
	<path class="st0" d="M2.7,5.5C2.2,3.7,3.2,1.7,5.1,1.2C5.6,1.1,6.2,1,6.7,1.2L6.6,1.7c-0.5-0.1-0.9-0.1-1.4,0c-1.5,0.4-2.4,2-2,3.6
		L2.7,5.5z"/>
	<polygon class="st0" points="2.8,5.8 1.7,4.7 2.1,4.3 2.8,5.1 3.6,4.3 3.9,4.7 	"/>
	<path class="st0" d="M3.8,0.7L3.6,0.2C3.8,0.1,4.1,0,4.3,0l0.1,0.5C4.2,0.6,4,0.6,3.8,0.7z"/>
	<path class="st0" d="M2.8,1.2L2.5,0.7c0.2-0.1,0.4-0.2,0.6-0.3l0.2,0.5C3.2,1,3,1.1,2.8,1.2z"/>
	<path class="st0" d="M1.9,2L1.5,1.7C1.6,1.5,1.8,1.3,2,1.2l0.4,0.4C2.2,1.7,2,1.9,1.9,2z"/>
	<path class="st0" d="M1.7,8C0.8,7,0.3,5.7,0.4,4.4c0-0.8,0.3-1.5,0.7-2.2l0.5,0.3C1.2,3.1,1,3.7,1,4.4C0.9,5.6,1.3,6.8,2.1,7.6
		L1.7,8z"/>
	<path class="st0" d="M3.7,15.6c-0.1-0.1-0.2-0.3-0.3-0.4L3.9,15c0.1,0.1,0.2,0.3,0.2,0.3L3.7,15.6z"/>
	<path class="st0" d="M4.4,16.3C4.3,16.3,4.1,16.1,4,16l0.4-0.4c0.1,0.1,0.2,0.2,0.3,0.3L4.4,16.3z"/>
	<path class="st0" d="M5.3,16.8c-0.2-0.1-0.3-0.1-0.5-0.2l0.3-0.5c0.1,0.1,0.3,0.1,0.4,0.2L5.3,16.8z"/>
	<path class="st0" d="M6.5,17C6.3,17,6,17,5.8,17l0.1-0.5c0.5,0.1,0.9,0.1,1.4,0C8.1,16.2,8.7,15.7,9,15c0.4-0.7,0.5-1.5,0.3-2.2
		l0.5-0.1c0.3,0.9,0.1,1.8-0.3,2.6c-0.4,0.8-1.2,1.4-2.1,1.6C7.1,17,6.8,17,6.5,17z"/>
	<polygon class="st0" points="9,13.8 8.6,13.4 9.7,12.3 10.8,13.4 10.4,13.8 9.7,13.1 	"/>
	<g>
		<path class="st0" d="M3.9,14.6c-2.2,0-3.9-1.8-3.9-3.9s1.8-3.9,3.9-3.9s3.9,1.8,3.9,3.9S6.1,14.6,3.9,14.6z M3.9,7.3
			c-1.9,0-3.4,1.5-3.4,3.4S2.1,14,3.9,14s3.4-1.5,3.4-3.4S5.8,7.3,3.9,7.3z"/>
	</g>
	<g>
		<path class="st0" d="M9,11.3c-2.1,0-3.8-1.7-3.8-3.8S6.9,3.7,9,3.7s3.8,1.7,3.8,3.8S11.1,11.3,9,11.3z M9,4.3
			c-1.8,0-3.3,1.5-3.3,3.3s1.5,3.3,3.3,3.3s3.3-1.5,3.3-3.3S10.8,4.3,9,4.3z"/>
	</g>
	<path class="st0" d="M9.2,9.2H8.7c-0.4,0-0.8-0.4-0.8-0.8h0.5c0,0.1,0.1,0.3,0.3,0.3h0.5c0.1,0,0.3-0.1,0.3-0.3V8.2
		c0-0.1-0.1-0.2-0.2-0.3L8.4,7.6C8.1,7.5,7.9,7.2,7.9,6.9V6.7c0-0.4,0.4-0.8,0.8-0.8h0.5c0.4,0,0.8,0.4,0.8,0.8H9.5
		c0-0.1-0.1-0.3-0.3-0.3H8.7c-0.1,0-0.3,0.1-0.3,0.3v0.2c0,0.1,0.1,0.2,0.2,0.3l0.9,0.3C9.8,7.5,10,7.8,10,8.2v0.2
		C10,8.8,9.7,9.2,9.2,9.2z"/>
	<rect x="8.7" y="5.4" class="st0" width="0.5" height="0.8"/>
	<rect x="8.7" y="8.9" class="st0" width="0.5" height="0.8"/>
	<path class="st0" d="M4.9,12.4H4.1c-0.7,0-1.4-0.6-1.4-1.4v-0.8c0-0.7,0.6-1.4,1.4-1.4h0.8v0.5H4.1c-0.4,0-0.8,0.4-0.8,0.8v0.8
		c0,0.4,0.4,0.8,0.8,0.8h0.8V12.4z"/>
	<rect x="2.2" y="10" class="st0" width="1.9" height="0.5"/>
	<rect x="2.2" y="10.8" class="st0" width="1.9" height="0.5"/>
</g>
</svg>
