<?xml version="1.0" encoding="utf-8"?>
<!-- Generator: Adobe Illustrator 21.0.2, SVG Export Plug-In . SVG Version: 6.00 Build 0)  -->
<svg version="1.1" id="labels" xmlns="http://www.w3.org/2000/svg" xmlns:xlink="http://www.w3.org/1999/xlink" x="0px" y="0px"
	 viewBox="0 0 24.6 17" style="enable-background:new 0 0 24.6 17;" xml:space="preserve">
<style type="text/css">
	.st0{fill:#00A7E1;}
	.st1{fill-rule:evenodd;clip-rule:evenodd;fill:#00A7E1;}
</style>
<g>
	<g>
		<path class="st0" d="M18.5,3.4H6.1c-1,0-1.8,0.8-1.8,1.8v6.7c0,1,0.8,1.8,1.8,1.8l12.6,0c0.9-0.1,1.5-0.9,1.6-1.8V5.2
			C20.3,4.2,19.5,3.4,18.5,3.4z M19.6,11.8c0,0.7-0.5,1.1-1.1,1.1H6.1c-0.6,0-1.1-0.5-1.1-1.1V5.2c0-0.6,0.5-1.1,1.1-1.1h12.4
			c0.6,0,1.1,0.5,1.1,1.1L19.6,11.8L19.6,11.8z"/>
		<rect x="4.7" y="5.2" class="st0" width="15.2" height="0.7"/>
		<rect x="4.7" y="7.3" class="st0" width="15.2" height="0.7"/>
		<rect x="5.8" y="8.7" class="st0" width="3.2" height="0.7"/>
		<rect x="9.7" y="8.7" class="st0" width="3.2" height="0.7"/>
	</g>
	<path class="st1" d="M11.5,15.8c-0.8,0.6-1.6,1-2.6,1.1c-0.9,0.2-1.9,0.2-2.8-0.1c-1.5-0.4-2.7-1.2-3.5-2.3c-0.7-0.9-1.2-2-1.3-3.2
		l-0.5,0.8L0,11.7l0.6-0.9l0.6-0.9l0.3-0.4l0.4,0.4l0.8,0.8l0.8,0.8L2.8,12l-0.7-0.7c0.1,1,0.5,2,1.2,2.8C4,15,5.1,15.7,6.3,16
		c0.8,0.2,1.6,0.2,2.4,0c0.8-0.2,1.6-0.5,2.2-1L11.5,15.8L11.5,15.8z"/>
	<path class="st1" d="M13.2,1.3c0.8-0.6,1.6-1,2.6-1.1c0.9-0.2,1.9-0.2,2.8,0.1C20,0.5,21.2,1.4,22,2.4c0.7,0.9,1.2,2,1.3,3.2
		l0.5-0.8l0.7,0.5L24,6.3l-0.6,0.9l-0.3,0.4l-0.4-0.4L22,6.4l-0.8-0.8l0.6-0.6l0.7,0.7c-0.1-1-0.5-2-1.2-2.8c-0.7-0.9-1.8-1.6-3.1-2
		c-0.8-0.2-1.6-0.2-2.4,0c-0.8,0.2-1.6,0.5-2.2,1L13.2,1.3L13.2,1.3z"/>
</g>
</svg>
