<svg xmlns="http://www.w3.org/2000/svg" viewBox="0 0 198.05 226.77"><defs><style>.cls-1{fill:#8f9094;}</style></defs><title>adobe_grey</title><g id="Layer_2" data-name="Layer 2"><g id="Livello_1" data-name="Livello 1"><path class="cls-1" d="M184.48,11.46h1.38c1.69,0,3.08-.56,3.08-2.05,0-1.13-.82-2.16-3-2.16a12.26,12.26,0,0,0-1.48,0Zm0,7.22h-2.31V5.87A22.91,22.91,0,0,1,186,5.51a6.74,6.74,0,0,1,4.15,1,3.17,3.17,0,0,1,1.13,2.66,3.12,3.12,0,0,1-2.45,3.08v.1c1.12.21,1.84,1.23,2.09,3.13a11.27,11.27,0,0,0,.77,3.18h-2.36a9.93,9.93,0,0,1-.82-3.28c-.25-1.54-1.12-2.16-2.71-2.16h-1.33Zm2.09-16.25A9.37,9.37,0,0,0,177.4,12a9.19,9.19,0,1,0,18.35,0,9.33,9.33,0,0,0-9.13-9.59Zm0-1.94A11.42,11.42,0,0,1,198.05,12,11.53,11.53,0,1,1,186.58.49Z"/><path class="cls-1" d="M22.06,206.07l-1.92-11.41c-.55-3.29-1.26-8.42-1.79-12h-.21c-.57,3.59-1.35,8.87-1.93,12l-2.07,11.39Zm-8.95,7.43L10.6,226.15H1.36l11.53-52.66H24.22L34.7,226.15H25.4L23,213.5Z"/><path class="cls-1" d="M55.74,202.64a13.54,13.54,0,0,0-.13-2.27c-.37-2.61-1.76-5-4-5-3.81,0-5.22,5.51-5.22,11.94,0,7.38,2,11.6,5.08,11.6,1.41,0,3-.73,3.92-3.82a7.51,7.51,0,0,0,.33-2.41Zm9.49-30.54v43.13c0,3.43.18,7.63.31,10.92H57.35l-.54-4.39h-.2a9.13,9.13,0,0,1-7.95,5c-7.85,0-11.74-8.66-11.74-19.6,0-13.33,5.81-19.81,12.13-19.81a6.73,6.73,0,0,1,6.53,4h.15V172.1Z"/><path class="cls-1" d="M85,219.48c3.62,0,4.52-6.83,4.52-12.48,0-5.37-.9-12.37-4.67-12.37-4,0-4.85,7-4.85,12.37,0,6.49,1.06,12.48,4.93,12.48Zm-.18,7.29c-8.74,0-14.23-7-14.23-19.59,0-13.72,7-19.82,14.44-19.82,8.62,0,14,7.37,14,19.59,0,15.71-8.48,19.82-14.18,19.82Z"/><path class="cls-1" d="M113.87,212.53a7.87,7.87,0,0,0,.38,2.43c.95,3.2,2.56,4,3.86,4,3.66,0,5.14-4.65,5.14-12.09,0-6.77-1.57-11.44-5.19-11.44-1.8,0-3.32,2-3.84,4.06a10.3,10.3,0,0,0-.36,2.4Zm-9.49-40.43h9.49V192H114c1.87-2.93,4.36-4.62,8-4.62,7.16,0,10.75,8.14,10.75,18.77,0,13.44-5.36,20.64-12.29,20.64-3.31,0-5.52-1.47-7.5-5.19h-.2l-.53,4.57h-8.14c.13-3.17.31-7.5.31-10.92Z"/><path class="cls-1" d="M155.48,203.43c0-5.36-1.52-9.11-4.52-9.11-3.44,0-4.9,5-5,9.11Zm-9.56,6.72c.11,6.89,3.74,9.15,8.24,9.15a20.09,20.09,0,0,0,7.12-1.32l1.27,6.83a27.49,27.49,0,0,1-10.12,1.77c-10.19,0-15.75-7-15.75-18.84,0-12.76,6.45-20.42,14.88-20.42,8.13,0,12.64,6.77,12.64,17.82a34.41,34.41,0,0,1-.27,5.06Z"/><polygon class="cls-1" points="103.51 0 164.21 0 164.21 145.33 103.51 0"/><polygon class="cls-1" points="60.75 0 0 0 0 145.33 60.75 0"/><polygon class="cls-1" points="82.13 53.56 120.81 145.32 95.46 145.32 83.89 116.1 55.59 116.1 82.13 53.56"/></g></g></svg>