<?xml version="1.0" encoding="utf-8"?>
<!-- Generator: Adobe Illustrator 21.1.0, SVG Export Plug-In . SVG Version: 6.00 Build 0)  -->
<svg version="1.1" id="Layer_1" xmlns="http://www.w3.org/2000/svg" xmlns:xlink="http://www.w3.org/1999/xlink" x="0px" y="0px"
	 viewBox="0 0 2500 756" style="enable-background:new 0 0 2500 756;" xml:space="preserve">
<style type="text/css">
	.st0{display:none;fill:none;}
	.st1{fill:#CC2131;}
	.st2{fill:none;}
</style>
<path class="st0" d="M0,1606h2500V-894H0V1606z"/>
<path d="M1017.4,477.4l-31.1,144.7h-71.6L1033,97.6h84.8l111.3,524.5h-72.4l-30.3-144.7H1017.4L1017.4,477.4z M1117.8,419
	l-24.1-125.3c-7-35.8-14-82.5-19.4-119.8h-3.1c-5.4,38.1-13.2,86.4-20.2,119.8L1026,419H1117.8L1117.8,419z M1502.3,83.6v441.2
	c0,28.8,1.6,70.8,3.1,97.3h-63l-4.7-45.9h-2.3c-12.5,26.4-41.2,52.1-79.4,52.1c-70,0-112.8-76.3-112.8-193.8
	c0-133.8,56.8-196.9,116.7-196.9c30.3,0,54.5,14,67.7,42.8h1.6V83.6H1502.3z M1429.2,387.9c0-7,0-15.6-0.8-23.4
	c-3.9-34.2-23.3-63.8-49.8-63.8c-45.9,0-61.5,63.8-61.5,133.8c0,77.8,20.2,132.3,59.1,132.3c16.3,0,38.1-8.6,50.6-53.7
	c1.6-6.2,2.3-15.6,2.3-24.1L1429.2,387.9L1429.2,387.9z M1676.6,628.4c-75.5,0-130-64.6-130-194.5c0-137.8,64.6-196.1,133.8-196.1
	c74.7,0,128.4,66.9,128.4,194.5c0,150.2-73.9,196.1-131.5,196.1H1676.6L1676.6,628.4z M1678.9,570.8c45.1,0,55.3-80.2,55.3-137.7
	c0-56.8-10.1-137.7-56.8-137.7c-48.3,0-57.6,80.9-57.6,137.7c0,63,10.9,137.7,58.4,137.7H1678.9z M1852.9,83.6h73.1v203.1h1.6
	c19.5-34.2,45.9-49,79.4-49c64.6,0,105.1,73.1,105.1,189.1c0,135.4-55.3,201.5-117.5,201.5c-37.4,0-58.4-20.2-74.7-53.7h-3.1
	l-3.9,47.5h-63c1.6-25.7,3.1-68.5,3.1-97.3L1852.9,83.6L1852.9,83.6z M1926.1,488.3c0,8.6,0.8,17.1,3.1,23.4
	c11.7,45.9,34.2,55.3,49,55.3c43.6,0,59.9-57.6,59.9-135.4c0-72.4-17.1-130.7-60.7-130.7c-24.1,0-43.6,28.8-49,56
	c-1.6,7.8-2.3,17.9-2.3,25.7L1926.1,488.3L1926.1,488.3L1926.1,488.3z M2220,447.8c0.8,97.3,42.8,121.4,87.1,121.4
	c26.5,0,49-6.2,65.4-14l10.9,52.9c-22.6,11.7-56.8,17.9-90.3,17.9c-94.9,0-144.7-71.6-144.7-188.3c0-123.7,56.8-200,135.4-200
	c78.6,0,115.2,75.5,115.2,170.4c0,18.7-0.8,30.3-1.6,40.5L2220,447.8L2220,447.8z M2329.7,395.7c0.8-66.9-22.6-102.7-51.3-102.7
	c-38.1,0-55.3,55.3-57.6,102.7H2329.7z"/>
<path class="st1" d="M502.5,99H721v523.1L502.5,99z M348.5,99H129.9v523.1L348.5,99z M425.5,291.8l139.2,330.3h-91.2l-41.6-105.2
	H330L425.5,291.8L425.5,291.8z"/>
<path d="M2392.8,236.7c9.2,0,16.6,7.5,16.5,16.7c0,0,0,0.1,0,0.1c0,9.5-7.3,16.9-16.6,16.9c-9.2,0-16.7-7.4-16.7-16.9
	c-0.1-9.2,7.4-16.8,16.6-16.8C2392.6,236.7,2392.7,236.7,2392.8,236.7L2392.8,236.7z M2392.7,239.3c-7.4,0-13.5,6.4-13.5,14.2
	c0,8,6.1,14.3,13.5,14.3c7.5,0.1,13.4-6.3,13.4-14.2C2406.2,245.7,2400.2,239.3,2392.7,239.3L2392.7,239.3L2392.7,239.3z
	 M2389.5,263.4h-3v-18.8c1.6-0.2,3.1-0.5,5.3-0.5c2.8,0,4.7,0.6,5.8,1.4c1.1,0.8,1.7,2.1,1.7,3.9c0,2.5-1.6,4-3.7,4.6v0.1
	c1.6,0.3,2.8,1.8,3.1,4.6c0.5,2.9,0.9,4,1.2,4.6h-3.1c-0.5-0.6-0.9-2.3-1.3-4.8c-0.5-2.4-1.6-3.3-4-3.3h-2.1L2389.5,263.4
	L2389.5,263.4z M2389.5,253h2.2c2.5,0,4.6-0.9,4.6-3.2c0-1.6-1.2-3.3-4.6-3.3c-1,0-1.6,0.1-2.2,0.2V253z M749.8,99
	c9.2,0,16.6,7.5,16.5,16.7c0,0,0,0.1,0,0.1c0,9.5-7.3,16.9-16.6,16.9c-9.2,0-16.7-7.4-16.7-16.9c-0.1-9.2,7.4-16.8,16.6-16.8
	C749.7,99,749.7,99,749.8,99L749.8,99z M749.7,101.6c-7.4,0-13.5,6.4-13.5,14.2c0,8,6.1,14.3,13.5,14.3c7.5,0.1,13.5-6.3,13.5-14.2
	S757.2,101.6,749.7,101.6L749.7,101.6z M746.6,125.7h-3v-18.8c1.8-0.3,3.5-0.4,5.3-0.4c2.8,0,4.7,0.6,5.8,1.4
	c1.1,0.8,1.7,2.1,1.7,3.9c0,2.5-1.6,4-3.7,4.6v0.1c1.6,0.3,2.8,1.8,3.2,4.6c0.4,2.9,0.9,4,1.2,4.6H754c-0.5-0.6-0.9-2.3-1.3-4.8
	c-0.5-2.4-1.6-3.3-4-3.3h-2.1V125.7L746.6,125.7z M746.6,115.3h2.2c2.5,0,4.6-0.9,4.6-3.2c0-1.6-1.2-3.3-4.6-3.3
	c-1,0-1.6,0.1-2.2,0.2V115.3z"/>
<rect class="st2" width="1500" height="650"/>
</svg>
