<svg id="Layer_1" data-name="Layer 1" xmlns="http://www.w3.org/2000/svg" xmlns:xlink="http://www.w3.org/1999/xlink" viewBox="0 0 2500 2500"><defs><style>.cls-1{fill:none;}.cls-2{clip-path:url(#clip-path);}.cls-3{fill:#cc2131;}</style><clipPath id="clip-path"><rect class="cls-1" x="7" y="1716" width="2500" height="756"/></clipPath></defs><title>Artboard 1</title><g class="cls-2"><path class="cls-1" d="M7,3322H2507V822H7Z"/><path d="M1024.41,2193.4l-31.13,144.72H921.69L1040,1813.64h84.81l111.28,524.47H1163.7l-30.35-144.72H1024.41ZM1124.79,2135l-24.12-125.3c-7-35.8-14-82.46-19.44-119.83h-3.13c-5.43,38.13-13.24,86.37-20.22,119.83L1033,2135h91.81Zm384.55-335.39v441.21c0,28.81,1.56,70.83,3.1,97.27h-63l-4.67-45.9h-2.33c-12.45,26.45-41.24,52.14-79.36,52.14-70,0-112.84-76.28-112.84-193.76,0-133.85,56.79-196.88,116.73-196.88,30.34,0,54.46,14,67.69,42.8h1.56V1799.65Zm-73.16,304.26c0-7,0-15.55-.78-23.36-3.89-34.23-23.35-63.8-49.79-63.8-45.93,0-61.48,63.8-61.48,133.85,0,77.82,20.23,132.28,59.14,132.28,16.34,0,38.12-8.56,50.57-53.68,1.56-6.23,2.33-15.58,2.33-24.11V2103.91Zm247.4,240.45c-75.47,0-130-64.59-130-194.52,0-137.75,64.58-196.12,133.84-196.12,74.71,0,128.39,66.92,128.39,194.55,0,150.19-73.93,196.09-131.5,196.09h-.77Zm2.32-57.57c45.12,0,55.25-80.15,55.25-137.73,0-56.82-10.12-137.74-56.79-137.74-48.26,0-57.59,80.92-57.59,137.74,0,63,10.89,137.73,58.36,137.73Zm174-487.13h73.14v203.09h1.56c19.45-34.23,45.91-49,79.37-49,64.58,0,105.06,73.15,105.06,189.1,0,135.39-55.25,201.54-117.51,201.54-37.35,0-58.36-20.25-74.72-53.71h-3.09l-3.9,47.47h-63c1.56-25.67,3.11-68.47,3.11-97.27V1799.65Zm73.14,404.62c0,8.59.78,17.15,3.11,23.36,11.66,45.93,34.24,55.25,49,55.25,43.58,0,59.92-57.57,59.92-135.39,0-72.37-17.11-130.74-60.7-130.74-24.12,0-43.58,28.79-49,56a143.4,143.4,0,0,0-2.33,25.68v105.81h0ZM2227,2163.81c.78,97.27,42.79,121.38,87.14,121.38,26.46,0,49-6.21,65.37-14l10.89,52.92c-22.57,11.67-56.81,17.91-90.27,17.91-94.93,0-144.73-71.59-144.73-188.32,0-123.73,56.79-200,135.39-200S2406,2029.19,2406,2124.14c0,18.66-.79,30.35-1.56,40.45l-177.41-.78Zm109.71-52.13c.78-66.92-22.57-102.71-51.35-102.71-38.14,0-55.26,55.25-57.59,102.71Z"/><path class="cls-3" d="M509.46,1815H728v523.07Zm-153.93,0H136.88v523.07Zm77,192.77,139.22,330.3H480.5l-41.63-105.2H337l95.55-225.1Z"/><path d="M2399.75,1952.74a16.6,16.6,0,0,1,16.52,16.68v.14a16.64,16.64,0,1,1-16.64-16.82h.12Zm-.08,2.61c-7.39,0-13.46,6.37-13.46,14.21,0,8,6.07,14.28,13.54,14.28s13.45-6.28,13.45-14.2-6-14.29-13.45-14.29h-.08Zm-3.14,24h-3v-18.78a34,34,0,0,1,5.32-.45,9.88,9.88,0,0,1,5.82,1.43,4.47,4.47,0,0,1,1.72,3.89,4.68,4.68,0,0,1-3.67,4.57v.14c1.65.3,2.78,1.8,3.14,4.57a15.26,15.26,0,0,0,1.21,4.64H2404c-.45-.61-.89-2.32-1.27-4.79s-1.65-3.29-4-3.29h-2.09v8.08Zm0-10.4h2.17c2.46,0,4.58-.89,4.58-3.22,0-1.65-1.21-3.29-4.58-3.29a14.08,14.08,0,0,0-2.17.16ZM756.77,1815a16.6,16.6,0,0,1,16.52,16.68s0,.1,0,.14A16.64,16.64,0,1,1,756.65,1815h.12Zm-.08,2.61c-7.41,0-13.46,6.37-13.46,14.21,0,8,6.06,14.28,13.54,14.28s13.46-6.28,13.46-14.2-6-14.29-13.46-14.29Zm-3.14,24h-3v-18.78a32.68,32.68,0,0,1,5.32-.44c2.84,0,4.71.58,5.82,1.41a4.48,4.48,0,0,1,1.72,3.89,4.68,4.68,0,0,1-3.67,4.57v.14c1.65.3,2.78,1.8,3.15,4.58a15.44,15.44,0,0,0,1.19,4.64H761a13.58,13.58,0,0,1-1.27-4.79c-.45-2.4-1.65-3.29-4-3.29h-2.09v8.07Zm0-10.4h2.17c2.46,0,4.57-.89,4.57-3.22,0-1.65-1.19-3.29-4.57-3.29a13.94,13.94,0,0,0-2.17.16Z"/></g></svg>