<svg xmlns="http://www.w3.org/2000/svg" viewBox="0 0 2409.3 650"><defs><style>.cls-1{fill:#cc2131;}.cls-2{fill:none;}</style></defs><title>Asset 1</title><g id="Layer_2" data-name="Layer 2"><g id="Layer_1-2" data-name="Layer 1"><path d="M1017.4,477.4,986.3,622.1H914.7L1033,97.6h84.8l111.3,524.5h-72.4l-30.3-144.7h-109ZM1117.8,419l-24.1-125.3c-7-35.8-14-82.5-19.4-119.8h-3.1c-5.4,38.1-13.2,86.4-20.2,119.8L1026,419ZM1502.3,83.6V524.8c0,28.8,1.6,70.8,3.1,97.3h-63l-4.7-45.9h-2.3c-12.5,26.4-41.2,52.1-79.4,52.1-70,0-112.8-76.3-112.8-193.8,0-133.8,56.8-196.9,116.7-196.9,30.3,0,54.5,14,67.7,42.8h1.6V83.6Zm-73.1,304.3c0-7,0-15.6-.8-23.4-3.9-34.2-23.3-63.8-49.8-63.8-45.9,0-61.5,63.8-61.5,133.8,0,77.8,20.2,132.3,59.1,132.3,16.3,0,38.1-8.6,50.6-53.7,1.6-6.2,2.3-15.6,2.3-24.1l.1-101.1Zm247.4,240.5c-75.5,0-130-64.6-130-194.5,0-137.8,64.6-196.1,133.8-196.1,74.7,0,128.4,66.9,128.4,194.5,0,150.2-73.9,196.1-131.5,196.1Zm2.3-57.6c45.1,0,55.3-80.2,55.3-137.7,0-56.8-10.1-137.7-56.8-137.7-48.3,0-57.6,80.9-57.6,137.7,0,63,10.9,137.7,58.4,137.7Zm174-487.2H1926V286.7h1.6c19.5-34.2,45.9-49,79.4-49,64.6,0,105.1,73.1,105.1,189.1,0,135.4-55.3,201.5-117.5,201.5-37.4,0-58.4-20.2-74.7-53.7h-3.1l-3.9,47.5h-63c1.6-25.7,3.1-68.5,3.1-97.3l-.1-441.2Zm73.2,404.7c0,8.6.8,17.1,3.1,23.4,11.7,45.9,34.2,55.3,49,55.3,43.6,0,59.9-57.6,59.9-135.4,0-72.4-17.1-130.7-60.7-130.7-24.1,0-43.6,28.8-49,56a139.56,139.56,0,0,0-2.3,25.7V488.3ZM2220,447.8c.8,97.3,42.8,121.4,87.1,121.4,26.5,0,49-6.2,65.4-14l10.9,52.9c-22.6,11.7-56.8,17.9-90.3,17.9-94.9,0-144.7-71.6-144.7-188.3,0-123.7,56.8-200,135.4-200S2399,313.2,2399,408.1c0,18.7-.8,30.3-1.6,40.5l-177.4-.8Zm109.7-52.1c.8-66.9-22.6-102.7-51.3-102.7-38.1,0-55.3,55.3-57.6,102.7Z"/><path class="cls-1" d="M502.5,99H721V622.1Zm-154,0H129.9V622.1Zm77,192.8L564.7,622.1H473.5L431.9,516.9H330l95.5-225.1Z"/><path d="M2392.8,236.7a16.5,16.5,0,0,1,16.5,16.7v.1a16.65,16.65,0,1,1-16.7-16.8Zm-.1,2.6c-7.4,0-13.5,6.4-13.5,14.2,0,8,6.1,14.3,13.5,14.3s13.4-6.3,13.4-14.2-5.9-14.3-13.4-14.3Zm-3.2,24.1h-3V244.6a36.78,36.78,0,0,1,5.3-.5,10,10,0,0,1,5.8,1.4,4.52,4.52,0,0,1,1.7,3.9,4.64,4.64,0,0,1-3.7,4.6v.1c1.6.3,2.8,1.8,3.1,4.6a17,17,0,0,0,1.2,4.6h-3.1c-.5-.6-.9-2.3-1.3-4.8s-1.6-3.3-4-3.3h-2.1l.1,8.2Zm0-10.4h2.2c2.5,0,4.6-.9,4.6-3.2,0-1.6-1.2-3.3-4.6-3.3a11.79,11.79,0,0,0-2.2.2ZM749.8,99a16.5,16.5,0,0,1,16.5,16.7v.1A16.65,16.65,0,1,1,749.6,99Zm-.1,2.6c-7.4,0-13.5,6.4-13.5,14.2,0,8,6.1,14.3,13.5,14.3s13.5-6.3,13.5-14.2-6-14.3-13.5-14.3Zm-3.1,24.1h-3V106.9a31.53,31.53,0,0,1,5.3-.4,10,10,0,0,1,5.8,1.4,4.52,4.52,0,0,1,1.7,3.9,4.64,4.64,0,0,1-3.7,4.6v.1c1.6.3,2.8,1.8,3.2,4.6a13.73,13.73,0,0,0,1.2,4.6H754c-.5-.6-.9-2.3-1.3-4.8s-1.6-3.3-4-3.3h-2.1v8.1Zm0-10.4h2.2c2.5,0,4.6-.9,4.6-3.2,0-1.6-1.2-3.3-4.6-3.3a11.8,11.8,0,0,0-2.2.2Z"/><rect class="cls-2" width="1500" height="650"/></g></g></svg>