<svg xmlns="http://www.w3.org/2000/svg" viewBox="0 0 396.16 68.96"><defs><style>.cls-1,.cls-2{fill:#8f9094;}.cls-1{fill-rule:evenodd;}</style></defs><title>autodesk_grey</title><g id="Layer_2" data-name="Layer 2"><g id="Layer_1-2" data-name="Layer 1"><path class="cls-1" d="M245.32,51.53v-40c9.14.54,18.43-1.76,26.9,3.54,7,4.37,10.32,12.35,8.65,21.15-1.39,7.35-8.45,14.51-16,15.17C258.43,52,251.91,51.53,245.32,51.53Zm7.26-33.59V45.36c3.59,0,7.06.42,10.38-.09a13.29,13.29,0,0,0,11.26-13.62c-.13-7-4.5-12.13-11.62-13.17C259.44,18,256.21,18.12,252.58,17.94Z"/><path class="cls-1" d="M195.15,31.46c.44-11.58,10.13-20.95,21.24-20.53,11.53.43,21.09,10.2,20.48,21.26-.7,12.76-10.1,20.61-21.22,20.46C204,52.48,194.74,42.54,195.15,31.46Zm7.08-.09c-.24,8,5.64,14.55,13.31,14.86s13.91-5.93,14.22-14c.3-7.89-5.73-14.6-13.32-14.84S202.48,23.39,202.23,31.37Z"/><path class="cls-1" d="M317.43,45.33v6.4H288.82V11.56h28.61v6.17H296.1V28.2h13.53v6.34H296V45.33Z"/><path class="cls-2" d="M376.24,30.41l17.93-19.5h-9.24L367.43,29.1V10.94h-6.87V51.15h7V31s12.59,12.84,19.13,20.19h9.47C389.73,44.46,381.75,36.16,376.24,30.41Z"/><path class="cls-2" d="M97.5,10.91,90.71,11,72.95,51.43h7.75l4-9.68h18.77l4.13,9.68h7.68ZM87.29,35.4l6.6-16,6.85,16Z"/><polygon class="cls-2" points="161.06 17.12 173.92 17.12 173.92 51.28 180.56 51.28 180.56 17.2 191.18 17.2 193.9 10.91 161.06 10.91 161.06 17.12"/><path class="cls-2" d="M339.41,28c-9.41-2.66-8.32-6.68-7.83-7.81s2.08-3.12,8.1-3.12a22,22,0,0,1,10.24,2.48l2.63-5.33c-.16-.27-5-3.18-13-3.34s-15.05,4.42-15.05,10.77,3.85,9.37,11.44,11.58c8.59,2.5,11.22,4.68,11.22,7.86s-1.76,5.49-8,5.49c-5.33,0-11.78-4.2-13.37-5.41l-2.52,5.37c2.07,1.37,9.66,5.69,16.34,5.69,7.55,0,13.9-3.72,14.12-11.41S348,30.46,339.41,28Z"/><path class="cls-2" d="M145.76,34.93a10.07,10.07,0,1,1-20.15,0v-24h-7.47V34.33a17.54,17.54,0,0,0,35.09,0V10.91h-7.47Z"/><path class="cls-2" d="M21.6.23a3.2,3.2,0,0,0-2.55,1.23v0h0L.34,45.94l-.06.17a3.57,3.57,0,0,0,0,2.82l.21.39a4.42,4.42,0,0,0,3.35,1.95H17.39l14.2-33.42C28,9.34,25.29,3,24.9,2.15A3.38,3.38,0,0,0,21.6.23Z"/><path class="cls-2" d="M3.85,51.27A4.42,4.42,0,0,1,.5,49.32l5.28,9.77L10.06,67c.94,1.69,3.32,1.88,3.32,1.88,2.46.17,7-2.12,7.9-2.63S42.86,53,45.63,51.27H3.85Z"/><path class="cls-2" d="M.5,49.32l-.21-.39A3.41,3.41,0,0,0,.5,49.32Z"/><polygon class="cls-2" points="19.04 1.49 19.04 1.48 19.04 1.48 19.04 1.49"/><polygon class="cls-2" points="19.04 1.48 19.04 1.48 19.04 1.48 19.04 1.48"/><path class="cls-2" d="M19.05,1.47v0h0Z"/><path class="cls-2" d="M44.15,1.74A2.78,2.78,0,0,0,41.27,0L34.12,0C28.66,0,22,0,21.52,0a3.47,3.47,0,0,0-2.47,1.44A3.2,3.2,0,0,1,21.6.23a3.38,3.38,0,0,1,3.3,1.92c.39.82,3.09,7.19,6.69,15.7C39.43,36.42,51.52,65.22,53.09,69H72.51Z"/></g></g></svg>