<svg xmlns="http://www.w3.org/2000/svg" viewBox="0 0 682.6 261.93"><defs><style>.cls-1{fill:none;}.cls-2{fill:#f8a831;}.cls-3{fill:#51626c;}</style></defs><title>avast_color</title><g id="Layer_2" data-name="Layer 2"><g id="svg2"><g id="layer1"><g id="g3040"><g id="Camada_1"><path id="path2993" class="cls-1" d="M187.22,94.86A30.18,30.18,0,0,1,197.4,76.19c10.66-9,21.49-6,31.87-13.41,20.57-14.69,16.3-47.91-3.18-57.85-14.09-7.2-33.47-8.25-46.39,8.89-5.85,7.76-6.09,20.15-9.65,26.5-3.9,6.94-15.36,15.86-25.84,15.51a144.72,144.72,0,0,0-39.42-.64"/><path id="path2995" class="cls-1" d="M105.08,55.15c-8.86,1-14.45-5-14.31-14.32.46-19.16-16.46-22.08-26-16.19S53.63,47.15,68.42,53.56c7.59,5.52,10.7,12.5,5.94,18.39-18.47,19.63-22,37.26-21,60.53"/><path id="path2997" class="cls-1" d="M53.37,132.48c0,7.77-10.45,12.56-19.38,12.8C5.72,140.33-3.48,161,1.13,176.68c5.31,18,30.88,27.94,47.42,1.68,5.7-10.23,23.71-12.07,31.11-3.82,14.92,11.38,34.09,15,43.72,13.69,20.3-3.21,41.73,8.84,46.23,37.22,8,44.45,65.55,45.64,84.26,17.74,15.56-23.21,10.06-65.35-30.8-73.32-22.89-2.75-34-21.6-35.92-37.62l.07-37.41"/><circle id="circle2999" class="cls-1" cx="119.48" cy="120.45" r="45.26"/><path id="path3001" class="cls-1" d="M133.76,123v21.21q12.64-1,13.58-12.59V119.46c-.22-24.91-30.44-35.94-47.38-19.38-17.6,18.09-5.11,43.17,10.32,46.53,7.86,1.86,16.06-2.66,17-11.88l-7.5.12c-17-2.32-17.46-19.42-9.44-25.4,10.88-8.11,24.52-.22,23.44,13.54Z"/><path id="path3003" class="cls-1" d="M252.51,145.16h28.43v9.33H244.17q-20.1-.65-20.93-20.79V106.13c-.07-12.55,10.35-21.13,23.34-19.8h42.29q20,1.4,21.07,18.39v49.78H290V104.43q-1-8-8.2-8.77H252.51c-5.73-.59-8.84,3.84-9.33,7.78V135c-.16,6.92,4.08,9.79,9.33,10.18Z"/><path id="path3005" class="cls-1" d="M343.45,92.55c-.23-5.3-5-6.48-9.9-6.58-5.31-.11-10.25,1.15-10.18,7.43v42q2.8,17.37,18.81,19.09h19.38q11.08.09,18.53-8.91L421.8,86.33H401L361.13,143c-6.21,7.5-17.34,5.6-17.68-4.38V92.55Z"/><path id="path3007" class="cls-1" d="M450.51,145.16h28.43v9.33H442.16q-20.1-.65-20.93-20.79V106.13c-.07-12.55,10.35-21.13,23.34-19.8h42.29q20,1.4,21.07,18.39v49.78H488V104.43q-1-8-8.2-8.77H450.51c-5.73-.59-8.84,3.84-9.33,7.78V135c-.16,6.92,4.08,9.79,9.33,10.18Z"/><path id="path3009" class="cls-1" d="M546.18,145.23q-7.49-1.83-7.5-11.31H519.17q.67,19.48,20.22,20.51h43.7c24.95,2.31,30.89-37,.85-38.18H546.18c-10.19-1.75-9.2-19.06,0-20.51H575q9.27.81,8.91,10.61l19.94.14c.8-10.78-8.44-20.11-18.39-20.08H537.7c-13,.38-18.42,9.29-18.75,19-.35,10.16,5.79,20.53,19.88,20.08h37.9c10.27,2.42,9.61,18.78-1.13,19.8H546.18Z"/><path id="path3011" class="cls-1" d="M614.77,69.14c-.87-7.66,19.77-8,19.94-.14V81.16q-9,1.15-15.84,11.46,9.65-7.57,16.12-6.22h16.83v9.19h-8.77q-8.49.68-8.34,9.9l-.14,31.26q1.61,8,10,8.63h9.48v9.05h-19.8q-16.37-.92-19.52-18.1V69.14Z"/><path id="path3013" class="cls-1" d="M682.52,70.56c-.21-6.11-5.41-7.12-10.4-7.2-5.55-.09-10.48.63-10.25,8.61v47c-.89,13.53,22.26,12.12,20.65,0Z"/><path id="path3015" class="cls-1" d="M672.41,134.56c-5.47,0-10.47.39-10.32,10s4.86,10,10.32,10,9.62-.82,9.9-10S677.87,134.56,672.41,134.56Z"/><path id="path3017" class="cls-2" d="M223.07,169.88c-22.89-2.75-34-21.6-35.92-37.62l.07-37.41A30.18,30.18,0,0,1,197.4,76.19c10.66-9,21.49-6,31.87-13.41,20.57-14.69,16.3-47.91-3.18-57.85-14.09-7.2-33.47-8.25-46.39,8.89-5.85,7.76-6.09,20.15-9.65,26.5-3.9,6.94-15.36,15.86-25.84,15.51a145,145,0,0,0-39.15-.67h0c-8.85,1-14.43-5-14.29-14.32.46-19.16-16.46-22.08-26-16.19S53.63,47.15,68.42,53.56c7.59,5.52,10.7,12.5,5.94,18.39-18.47,19.63-22,37.26-21,60.53,0,7.77-10.45,12.56-19.38,12.8C5.72,140.33-3.48,161,1.13,176.69c5.31,18,30.88,27.94,47.42,1.68,5.7-10.23,23.71-12.07,31.11-3.82,14.92,11.38,34.09,15,43.72,13.69,20.3-3.21,41.73,8.84,46.23,37.22,8,44.45,65.55,45.64,84.26,17.74,15.56-23.21,10.06-65.35-30.8-73.32Zm-58.34-49.43A45.26,45.26,0,1,1,119.48,75.2a45.26,45.26,0,0,1,45.26,45.26Z"/><path id="path3019" class="cls-3" d="M110.32,109.45c10.88-8.11,24.52-.22,23.44,13.54v21.21q12.64-1,13.58-12.59V119.46c-.22-24.91-30.44-35.94-47.38-19.38-17.6,18.09-5.11,43.17,10.32,46.53,7.86,1.86,16.06-2.66,17-11.88l-7.5.12c-17-2.32-17.46-19.42-9.44-25.4Z"/><path id="path3021" class="cls-3" d="M290,104.43V154.5h19.94V104.71q-1-17-21.07-18.39H246.57c-13-1.33-23.4,7.25-23.34,19.8v27.58q.83,20.14,20.93,20.79h36.77v-9.33H252.51c-5.25-.39-9.49-3.27-9.33-10.18V103.44c.5-3.94,3.61-8.37,9.33-7.78h29.27q7.22.72,8.2,8.77Z"/><path id="path3023" class="cls-3" d="M323.36,93.4v42q2.8,17.37,18.81,19.09h19.38q11.08.09,18.53-8.91L421.8,86.33H401L361.13,143c-6.21,7.5-17.34,5.6-17.68-4.38V92.55c-.23-5.3-5-6.48-9.9-6.58-5.31-.11-10.25,1.15-10.18,7.43Z"/><path id="path3025" class="cls-3" d="M421.23,106.13v27.58q.83,20.14,20.93,20.79h36.77v-9.33H450.51c-5.25-.39-9.49-3.27-9.33-10.18V103.44c.5-3.94,3.61-8.37,9.33-7.78h29.27q7.22.72,8.2,8.77V154.5h19.94V104.71q-1-17-21.07-18.39H444.57c-13-1.33-23.4,7.25-23.34,19.8Z"/><path id="path3027" class="cls-3" d="M518.95,105.36c-.35,10.16,5.79,20.53,19.88,20.08h37.9c10.27,2.42,9.61,18.78-1.13,19.8H546.18q-7.49-1.83-7.5-11.31H519.17q.67,19.48,20.22,20.51h43.7c24.95,2.31,30.89-37,.85-38.18H546.18c-10.19-1.75-9.2-19.06,0-20.51H575q9.27.81,8.91,10.61l19.94.14c.8-10.78-8.44-20.11-18.39-20.08H537.7c-13,.38-18.42,9.29-18.75,19Z"/><path id="path3029" class="cls-3" d="M614.77,69.14v67.18q3.15,17.18,19.52,18.1h19.8v-9.05h-9.48q-8.43-.67-10-8.63l.14-31.26q-.15-9.22,8.34-9.9h8.77V86.4H635q-6.48-1.35-16.12,6.22,6.85-10.3,15.84-11.46V69c-.17-7.84-20.82-7.51-19.94.14Z"/><path id="path3031" class="cls-3" d="M661.87,72v47c-.89,13.53,22.26,12.12,20.65,0V70.56c-.21-6.11-5.41-7.12-10.4-7.2-5.55-.09-10.48.63-10.25,8.61Z"/><path id="path3033" class="cls-3" d="M672.41,134.56c-5.47,0-10.47.39-10.32,10s4.86,10,10.32,10,9.62-.82,9.9-10S677.87,134.56,672.41,134.56Z"/></g></g></g></g></g></svg>