<svg xmlns="http://www.w3.org/2000/svg" viewBox="0 0 99.65 65.69"><defs><style>.cls-1{fill:#8f9094;fill-rule:evenodd;}</style></defs><title>intel_grey</title><g id="Layer_2" data-name="Layer 2"><g id="Layer_1-2" data-name="Layer 1"><path class="cls-1" d="M0,38.53v2.66A21.56,21.56,0,0,0,3.75,52.88C5.9,56.09,8.75,58,12,60.06a40.61,40.61,0,0,0,11.32,4.13,69.32,69.32,0,0,0,13.94,1.5h2.57c16,0,32.35-4.66,42.85-10.21V47.92a59.73,59.73,0,0,1-9.62,4.5c-.7.21-1.79.69-2.53,1-.9.33-1.78.55-2.67.9a45.57,45.57,0,0,1-5.5,1.56c-1.91.41-3.73.93-5.73,1.33s-3.9.63-6,1c-2,.35-4.33.47-6.44.61s-4.5.25-6.89.25h-.5c-8.51,0-16.63-1.34-22.31-4.18C9,52.13,3.9,47.06,3.9,38.95V38.2a24.38,24.38,0,0,1,2.28-9.52,23.51,23.51,0,0,1,2.09-3.8c.43-.65.79-1.13,1.24-1.74s1-1.15,1.36-1.63V18.85A28.43,28.43,0,0,0,7,22.65,31.09,31.09,0,0,0,3.77,27C2.21,29.34,0,34.73,0,38.53Z"/><path class="cls-1" d="M99.65,24.17V21.76s-.39-2.69-.45-3A15.43,15.43,0,0,0,98.43,16a18,18,0,0,0-2.5-4.56A23.39,23.39,0,0,0,88.3,5C82.63,1.9,74,0,65.19,0h-.75A84.26,84.26,0,0,0,40.72,3.52c-1.88.53-3.4,1.08-5.15,1.66A43.74,43.74,0,0,0,30.7,7.11c-1.55.77-3.1,1.44-4.62,2.19-.81.4-3.9,2.29-4.4,2.41v2c.68-.16,3.21-1.55,4.18-2,1.35-.57,3-1.42,4.39-1.84.61-.19,1.63-.57,2.24-.83s1.51-.51,2.3-.77c1.5-.5,3.18-1.07,4.76-1.47C43,6,46,5.27,49.71,4.62A71.19,71.19,0,0,1,61,3.49h3.74c7.28,0,15.15,1.67,19.82,4.26a20,20,0,0,1,6.69,5.35,16,16,0,0,1,3.31,8.82v1.41a17,17,0,0,1-3.29,9.17,21.78,21.78,0,0,1-2.92,3.31,21.29,21.29,0,0,1-3.68,2.64v5.48c1.17-.1,4.69-2.37,5.6-3a23.35,23.35,0,0,0,4.44-4.28,24.53,24.53,0,0,0,3.28-5.44A23.57,23.57,0,0,0,99,27.95c.14-.47.61-3.77.62-3.78Z"/><path class="cls-1" d="M54.89,33.38v1c0,5.71,3.5,9.88,9.22,9.88h1.08a10,10,0,0,0,4.2-.95c1.35-.57,2-1.55,3-2.23L69.17,38a5.41,5.41,0,0,1-4.07,1.91h-.91A4.18,4.18,0,0,1,60,36v-.58H73V33.22a11.66,11.66,0,0,0-2.1-6.7,7.82,7.82,0,0,0-5.79-3.09H63.53a9,9,0,0,0-6.25,3.05,11,11,0,0,0-2.38,6.91Zm5.15-2V32h7.8v-.41a3.74,3.74,0,0,0-3.65-3.9h-.42A4,4,0,0,0,60,31.39Z"/><path class="cls-1" d="M24.25,43.93h5.07v-16h4.57a1.79,1.79,0,0,1,1.83,1.74V43.93h5.15V29.73c0-3.37-2.29-6-5.65-6h-11V43.93Z"/><path class="cls-1" d="M44.59,37.95c0,3.41,2.22,6,5.56,6h3.49V39.61H51.07c-.76,0-1.33-.88-1.33-1.66v-10h3.9V23.75h-3.9V18.19H44.59V37.95Z"/><path class="cls-1" d="M76,39a5,5,0,0,0,1.56,3.34,4.9,4.9,0,0,0,1.57.93,11.29,11.29,0,0,0,2,.46V15.36H76V39Z"/><path class="cls-1" d="M14.43,28.48l0,10c0,3.4,2,5.57,5.23,5.65V23.75H14.55l-.12,4.73Z"/><polygon class="cls-1" points="14.53 20.93 19.68 20.93 19.68 16.03 14.53 16.03 14.53 20.93 14.53 20.93"/><path class="cls-1" d="M86.69,15.34a2.12,2.12,0,0,1,1,.27,1.89,1.89,0,0,1,.77.76,2.07,2.07,0,0,1,0,2.06,1.91,1.91,0,0,1-.76.76,2.07,2.07,0,0,1-2.05,0,1.92,1.92,0,0,1-.76-.76,2.06,2.06,0,0,1,0-2.06,1.9,1.9,0,0,1,.77-.76,2.12,2.12,0,0,1,1-.27Zm0,.34a1.76,1.76,0,0,0-.85.22,1.61,1.61,0,0,0-.64.64,1.71,1.71,0,0,0,0,1.72,1.63,1.63,0,0,0,.64.64,1.72,1.72,0,0,0,1.71,0,1.61,1.61,0,0,0,.64-.64,1.73,1.73,0,0,0,.23-.85,1.75,1.75,0,0,0-.23-.86,1.6,1.6,0,0,0-.64-.64,1.76,1.76,0,0,0-.84-.22Zm-.9,2.86V16.32h.76a1.88,1.88,0,0,1,.57.06.55.55,0,0,1,.28.21.57.57,0,0,1,.1.33.59.59,0,0,1-.17.42.69.69,0,0,1-.46.2.59.59,0,0,1,.19.12,2.46,2.46,0,0,1,.33.44l.27.43h-.44l-.2-.35a1.8,1.8,0,0,0-.37-.52.46.46,0,0,0-.29-.08h-.21v.94Zm.36-1.25h.43A.71.71,0,0,0,87,17.2a.3.3,0,0,0,.11-.25.3.3,0,0,0-.06-.18.32.32,0,0,0-.15-.12,1.1,1.1,0,0,0-.36,0h-.41v.67Z"/></g></g></svg>