<svg xmlns="http://www.w3.org/2000/svg" viewBox="0 0 283.46 61.71"><defs><style>.cls-1{fill:#ed1c24;}.cls-2{fill:#007360;}</style></defs><title>kaspersky_color</title><g id="Layer_2" data-name="Layer 2"><g id="Layer_1-2" data-name="Layer 1"><path class="cls-1" d="M262.31,49.88v-4H283v4ZM283,28.46v4h-1.44a4.42,4.42,0,0,1,1.89,3.93c0,4.22-3.31,6.69-7.12,6.69a6.72,6.72,0,0,1-7.09-6.69,4.48,4.48,0,0,1,1.87-3.93h-1.41v-4Zm-6.59,10.61a3.31,3.31,0,0,0,3.33-3.3A3.08,3.08,0,0,0,278.27,33a3.64,3.64,0,0,0-1.7-.55,3.4,3.4,0,0,0-1.75.34,3.15,3.15,0,0,0-1.84,3,3.28,3.28,0,0,0,3.42,3.28ZM262.31,25.74v-4h8.46a5.16,5.16,0,0,1-1.51-3.86c0-2.78,2-6.54,7-6.54,4.79,0,7.19,3.33,7.19,6.71a4.47,4.47,0,0,1-1.87,3.86H283v3.81Zm14-10.4a3.28,3.28,0,1,0,0,6.56,3.24,3.24,0,0,0,3.43-3.23,3.32,3.32,0,0,0-3.4-3.33ZM43.66,37l5.09,10.17L53.84,37Zm91.9-11.47-10.17,5.09,10.17,5.08Zm114,24.34-5.09-10.17-5.09,10.17Z"/><path class="cls-2" d="M67.4,49.88H60.13L48.75,25.47,37.37,49.88H30.1l18.65-40Zm73.33-31.25V11.36H117.84V49.88h22.89V42.61H125.1v-24ZM7.27,11.36H0V49.88H7.27Zm8.8,19.26L29.55,11.36H21L7.56,30.62,21,49.88h8.5ZM205.73,11.36h-7.27V49.88h7.27Zm8.79,19.26L228,11.36h-8.5L206,30.62l13.49,19.26H228ZM165.43,35a12.47,12.47,0,0,0,5.74-10.57,12,12,0,0,0-5.95-10.84c-2.54-1.49-5.66-2.19-9.81-2.19h-9.09V49.88h7.27V18.63h1.82c5,0,8.48,1.24,8.48,5.76,0,4.22-4.15,6.07-9,6.22h-1l13.48,19.26h8.5ZM107.89,13.55c-2.54-1.49-5.66-2.19-9.81-2.19H89V49.88h7.27V18.63h1.82c5,0,8.48,1.24,8.48,5.76,0,4.22-4.16,6.07-9,6.22h-1l4.83,6.89a18.08,18.08,0,0,0,6.32-2.29l.39-.26a12.48,12.48,0,0,0,5.74-10.57A12,12,0,0,0,107.89,13.55Zm145.52-2.19L244.5,26.82l-8.93-15.46H228.3l16.19,28,16.19-28ZM66.81,55.26l3,6.45C83.87,50.93,86.46,38.89,77.29,26,70,15.77,78,6.68,80.43,4.32L75,0c-3.53,3.87-12.78,16-4.68,28.12C78.19,39.9,77.37,46.28,66.81,55.26Zm109.47,0,3,6.45c14.09-10.78,16.68-22.82,7.51-35.72-7.27-10.22.73-19.31,3.14-21.67L184.51,0c-3.53,3.87-12.78,16-4.69,28.12C187.66,39.9,186.84,46.28,176.28,55.26Z"/></g></g></svg>