<?xml version="1.0" encoding="utf-8"?>
<!-- Generator: Adobe Illustrator 19.1.0, SVG Export Plug-In . SVG Version: 6.00 Build 0)  -->
<svg version="1.1" id="Layer_1" xmlns="http://www.w3.org/2000/svg" xmlns:xlink="http://www.w3.org/1999/xlink" x="0px" y="0px"
	 viewBox="0 0 173.3 169.2" style="enable-background:new 0 0 173.3 169.2;" xml:space="preserve">
<style type="text/css">
	.st0{fill:#646569;}
	.st1{clip-path:url(#SVGID_2_);fill:#00A8E1;}
	.st2{fill:#A7C739;}
</style>
<g>
	<path class="st0" d="M33.8,36.8c3,0,5.5-2.5,5.5-5.5V5.5c0-3-2.5-5.5-5.5-5.5s-5.5,2.5-5.5,5.5v25.8C28.3,34.3,30.8,36.8,33.8,36.8
		z M136.9,36.8c3,0,5.5-2.5,5.5-5.5V5.5c0-3-2.5-5.5-5.5-5.5c-3,0-5.5,2.5-5.5,5.5v25.8C131.3,34.3,133.8,36.8,136.9,36.8z
		 M57.8,84.6h22.1V62.5H57.8V84.6z M90.9,114.1H113V95.7H90.9V114.1z M90.9,147.2H113v-22.1H90.9V147.2z M57.8,114.1h22.1V95.7H57.8
		V114.1z M156.4,169.2c6.5,0,11.8-5.3,11.8-11.8l0-131c0-6.5-5.3-11.8-11.8-11.8l-10.3,0v7.6c1.9,1.9,3.1,4.4,3.5,7.2
		c0,0.2,0.1,0.5,0.1,0.8c0,0.4,0.1,0.7,0.1,1.1c0,7.1-5.8,12.9-12.9,12.9c-7.1,0-12.9-5.8-12.9-12.9c0-0.4,0.1-0.7,0.1-1.1
		c0-0.3,0-0.5,0.1-0.8c0.4-2.8,1.6-5.2,3.5-7.2v-7.6H43v7.6c1.9,1.9,3.1,4.4,3.5,7.2c0,0.2,0.1,0.5,0.1,0.8c0,0.4,0.1,0.7,0.1,1.1
		c0,7.1-5.8,12.9-12.9,12.9c-7.1,0-12.9-5.8-12.9-12.9c0-0.4,0.1-0.7,0.1-1.1c0-0.3,0-0.5,0.1-0.8c0.4-2.8,1.6-5.2,3.5-7.2v-7.6
		l-10.3,0C7.9,14.7,2.6,20,2.6,26.5v131c0,6.5,5.3,11.8,11.8,11.8L156.4,169.2z M157.1,150.8L157.1,150.8v7.4H13.6v-7.4l0,0V52.2
		l0,0v-0.7h143.5v0.7l0,0V150.8z M57.8,147.2h22.1v-22.1H57.8V147.2z M124,84.6h22.1V62.5H124V84.6z M124,114.1h22.1V95.7H124V114.1
		z M90.9,84.6H113V62.5H90.9V84.6z M24.7,114.1h22.1V95.7H24.7V114.1z M24.7,84.6h22.1V62.5H24.7V84.6z M24.7,147.2h22.1v-22.1H24.7
		V147.2z"/>
	<g>
		<defs>
			<path id="SVGID_1_" d="M156.4,169.2c6.5,0,11.8-5.3,11.8-11.8l0-131c0-6.5-5.3-11.8-11.8-11.8l-10.3,0v7.6
				c1.9,1.9,3.1,4.4,3.5,7.2c0,0.2,0.1,0.5,0.1,0.8c0,0.4,0.1,0.7,0.1,1.1c0,7.1-5.8,12.9-12.9,12.9c-7.1,0-12.9-5.8-12.9-12.9
				c0-0.4,0.1-0.7,0.1-1.1c0-0.3,0-0.5,0.1-0.8c0.4-2.8,1.6-5.2,3.5-7.2v-7.6H43v7.6c1.9,1.9,3.1,4.4,3.5,7.2c0,0.2,0.1,0.5,0.1,0.8
				c0,0.4,0.1,0.7,0.1,1.1c0,7.1-5.8,12.9-12.9,12.9c-7.1,0-12.9-5.8-12.9-12.9c0-0.4,0.1-0.7,0.1-1.1c0-0.3,0-0.5,0.1-0.8
				c0.4-2.8,1.6-5.2,3.5-7.2v-7.6l-10.3,0C7.9,14.7,2.6,20,2.6,26.5v131c0,6.5,5.3,11.8,11.8,11.8L156.4,169.2z"/>
		</defs>
		<clipPath id="SVGID_2_">
			<use xlink:href="#SVGID_1_"  style="overflow:visible;"/>
		</clipPath>
		<rect y="10.7" class="st1" width="173.3" height="42"/>
	</g>
	<rect x="57.8" y="95.7" class="st2" width="22.1" height="18.4"/>
</g>
</svg>
