<svg id="Layer_1" data-name="Layer 1" xmlns="http://www.w3.org/2000/svg" viewBox="0 0 316.77 260.3"><defs><style>.cls-1{fill:#00a7e1;}.cls-2{fill:none;stroke:#00a7e1;stroke-linecap:round;stroke-miterlimit:10;stroke-width:30px;}</style></defs><title>checkmark</title><path class="cls-1" d="M370.59,285.46l-169,169a15.5,15.5,0,0,1-21.92,0l-11-11-44.87-44.88a15.5,15.5,0,0,1,0-21.92h0a15.5,15.5,0,0,1,21.92,0l33.91,33.92a15.5,15.5,0,0,0,21.92,0l147.1-147.1a15.5,15.5,0,0,1,21.92,0h0A15.5,15.5,0,0,1,370.59,285.46Z" transform="translate(-58.36 -259)"/><path class="cls-2" d="M299.36,407.7a113.63,113.63,0,1,1-48.47-111" transform="translate(-58.36 -259)"/></svg>