<svg id="Layer_1" data-name="Layer 1" xmlns="http://www.w3.org/2000/svg" viewBox="0 0 46.4 48"><defs><style>.cls-1{fill:#fff;}</style></defs><title>icon</title><path class="cls-1" d="M309.2,400.8V420h19.2V400.8H309.2Zm17.6,17.6h-16v-16H318v10.07L314.57,409l-1.13,1.13,5.37,5.37,5.36-5.37L323,409l-3.43,3.43V402.4h7.2v16Zm0,0" transform="translate(-282 -372)"/><path class="cls-1" d="M319.6,383.67L307.93,372H282v48h24.8v-9.6h-16a0.8,0.8,0,1,1,0-1.6h16V404h-16a0.8,0.8,0,0,1,0-1.6h16v-4h12.8V383.67Zm-28.8-.47h8a0.8,0.8,0,0,1,0,1.6h-8a0.8,0.8,0,0,1,0-1.6h0Zm20,14.4h-20a0.8,0.8,0,0,1,0-1.6h20a0.8,0.8,0,0,1,0,1.6h0Zm0-6.4h-20a0.8,0.8,0,1,1,0-1.6h20a0.8,0.8,0,1,1,0,1.6h0Zm-4-6.4V373.6L318,384.8H306.8Zm0,0" transform="translate(-282 -372)"/></svg>