<?xml version="1.0" encoding="utf-8"?>
<!-- Generator: Adobe Illustrator 19.1.0, SVG Export Plug-In . SVG Version: 6.00 Build 0)  -->
<svg version="1.1" id="Layer_1" xmlns="http://www.w3.org/2000/svg" xmlns:xlink="http://www.w3.org/1999/xlink" x="0px" y="0px"
	 viewBox="-282 373 46.4 48" style="enable-background:new -282 373 46.4 48;" xml:space="preserve">
<style type="text/css">
	.st0{fill:#333333;}
</style>
<title>icon</title>
<path class="st0" d="M-254.8,401.8V421h19.2v-19.2H-254.8z M-237.2,419.4h-16v-16h7.2v10.1l-3.4-3.5l-1.1,1.1l5.4,5.4l5.4-5.4
	l-1.2-1.1l-3.4,3.4v-10h7.2L-237.2,419.4L-237.2,419.4z"/>
<path class="st0" d="M-244.4,384.7l-11.7-11.7H-282v48h24.8v-9.6h-16c-0.4,0-0.8-0.4-0.8-0.8c0-0.4,0.4-0.8,0.8-0.8l0,0h16V405h-16
	c-0.4,0-0.8-0.4-0.8-0.8c0-0.4,0.4-0.8,0.8-0.8l0,0h16v-4h12.8L-244.4,384.7L-244.4,384.7z M-273.2,384.2h8c0.4,0,0.8,0.4,0.8,0.8
	c0,0.4-0.4,0.8-0.8,0.8h-8c-0.4,0-0.8-0.4-0.8-0.8C-274,384.6-273.6,384.2-273.2,384.2L-273.2,384.2z M-253.2,398.6h-20
	c-0.4,0-0.8-0.4-0.8-0.8c0-0.4,0.4-0.8,0.8-0.8h20c0.4,0,0.8,0.4,0.8,0.8C-252.4,398.2-252.8,398.6-253.2,398.6L-253.2,398.6z
	 M-253.2,392.2h-20c-0.4,0-0.8-0.4-0.8-0.8c0-0.4,0.4-0.8,0.8-0.8h20c0.4,0,0.8,0.4,0.8,0.8C-252.4,391.8-252.8,392.2-253.2,392.2
	L-253.2,392.2z M-257.2,385.8v-11.2l11.2,11.2L-257.2,385.8L-257.2,385.8z"/>
</svg>
