<?xml version="1.0" encoding="utf-8"?>
<!-- Generator: Adobe Illustrator 19.1.0, SVG Export Plug-In . SVG Version: 6.00 Build 0)  -->
<svg version="1.1" id="Layer_1" xmlns="http://www.w3.org/2000/svg" xmlns:xlink="http://www.w3.org/1999/xlink" x="0px" y="0px"
	 viewBox="0 0 282.2 220.6" style="enable-background:new 0 0 282.2 220.6;" xml:space="preserve">
<style type="text/css">
	.st0{fill:none;stroke:#646569;stroke-width:8;stroke-linejoin:round;stroke-miterlimit:10;}
	.st1{fill:#646569;}
	.st2{fill:#FFFFFF;}
	.st3{fill:#A6C739;}
	.st4{fill:none;}
	.st5{fill:#00A8E1;}
</style>
<g>
	<path class="st0" d="M222.1,79.3c9.6,0,17.4-6.4,17.4-19.5c0-9.6-7.8-17.4-17.4-17.4c-2,0-3.8,0.3-5.6,0.9c0-0.1,0-0.2,0-0.2
		c0-8.5-6.9-15.3-15.3-15.3c-3,0-5.9,0.9-8.3,2.4C188.7,15.1,175,4,158.6,4c-16.5,0-30.3,11.3-34.3,26.5c-3.5-1.8-7.5-2.8-11.7-2.8
		c-14.2,0-25.8,11.5-25.8,25.8s11.5,25.8,25.8,25.8"/>
</g>
<g>
	<path class="st1" d="M151.6,99.6l-1.1,0h-9.3c-2.4,0-3,1.5-1.5,3.3c0,0,21.2,25.9,22.2,25.9c1,0,22.1-25.8,22.1-25.8
		c1.5-1.8,0.8-3.3-1.5-3.3h-9.2l-1.1,0l0.1-52h-19.8L151.6,99.6z"/>
</g>
<g>
	<g>
		<rect x="32.3" y="198.1" class="st1" width="10.3" height="5.2"/>
		<path class="st1" d="M74.8,196.5c0,1.4-1.2,2.6-2.6,2.6H2.6c-1.4,0-2.6-1.2-2.6-2.6v-46.9c0-1.4,1.2-2.6,2.6-2.6h69.6
			c1.4,0,2.6,1.2,2.6,2.6V196.5z"/>
		<path class="st2" d="M4.4,193.2c-1,0-1.7-0.8-1.7-1.7v-40.2c0-1,0.8-1.7,1.7-1.7h66.1c1,0,1.7,0.8,1.7,1.7v40.2
			c0,1-0.8,1.7-1.7,1.7H4.4z"/>
		<rect x="6" y="152.8" class="st3" width="62.9" height="37.2"/>
		<path class="st1" d="M52.1,207H22.8v-1.2c0-1.4,1.2-2.6,2.6-2.6h24c1.4,0,2.6,1.2,2.6,2.6V207z"/>
	</g>
	<rect x="57.2" y="171.8" class="st2" width="30.2" height="31.4"/>
	<rect x="38.4" y="172.6" class="st2" width="55.5" height="40.2"/>
	<g>
		<polygon class="st4" points="66.4,212.2 60.5,212.2 59.7,214.6 66.4,214.6 73.1,214.6 72.2,212.2 		"/>
		<path class="st4" d="M40.4,210h52v-35.1h-52V210z M43.6,178.2h45.6v28.6H43.6V178.2z"/>
		<path class="st1" d="M95.6,210v-35.1c0-1.8-1.4-3.2-3.2-3.2h-26h-26c-1.8,0-3.2,1.4-3.2,3.2V210l-6.8,6.8c0,1.3,1.1,3.8,4.1,3.8
			h31.9h32c3,0,4-2.4,4-3.8L95.6,210z M66.4,214.6h-6.7l0.9-2.3h5.8h5.8l0.9,2.3H66.4z M92.4,210h-52v-35.1h52V210z"/>
		<path class="st5" d="M89.2,178.2H43.6v28.6h45.6V178.2z"/>
	</g>
	<g>
		<g>
			<rect x="83.9" y="158.6" class="st2" width="19.1" height="29.2"/>
			<path class="st1" d="M97.7,188.2c0-0.6,0.1-1.1,0-1.5c-0.1-1.3-0.3-2.5-0.6-3.6H85.5c-0.5,0-1-0.5-1-1v-22c0-0.5,0.5-1,1-1h15.7
				c0.5,0,1,0.5,1,1v11.7l2,4v-15.7c0-1.6-1.4-3-3-3c-6.1,0-9.6,0-15.7,0c-1.7,0-3,1.4-3,3v26.6c0,1.6,0.6,3.3,2.9,4.3
				c0,0,7.5,2.3,15.9,0 M93.4,189.3c-1,0-1.8-0.8-1.8-1.8c0-1,0.8-1.8,1.8-1.8c1,0,1.8,0.8,1.8,1.8
				C95.2,188.4,94.4,189.3,93.4,189.3z"/>
			<path class="st1" d="M101.3,191c2.3-0.9,2.9-2.6,2.9-4.3v-26.6c0-1.6-1.4-3-3-3c-6.1,0-9.6,0-15.7,0c-1.7,0-3,1.4-3,3v15.7l2-4
				v-11.7c0-0.5,0.5-1,1-1h15.7c0.5,0,1,0.5,1,1v22c0,0.5-0.5,1-1,1H89.6c-0.3,1.1,0.6,3.6-0.6,3.6c-1.6,0-7.8,0.4,0.3,3.4"/>
			<rect x="86.4" y="161.3" class="st3" width="14" height="19.4"/>
		</g>
		<circle class="st2" cx="93.4" cy="187" r="1.8"/>
	</g>
</g>
<g>
	<path class="st1" d="M155.6,153.1c0-3.7,3-6.6,6.6-6.6s6.6,3,6.6,6.6c0,3.7-3,6.6-6.6,6.6S155.6,156.8,155.6,153.1z M174.1,179.4
		c0,0,0-6,0-10.3c0-4.2-3.6-5.3-3.6-5.3l-4.9-2.1l-3.4,7.6l-3.4-7.6l-4.9,2.1c0,0-3.6,1.1-3.6,5.3c0,4.2,0,10.3,0,10.3
		c0,2.5,0.8,4.5,3.3,4.5l-3.8,14.7c-0.1,0.8,0.5,1.5,1.3,1.5h5.3l2.1,14.5h3.7h3.7L168,200h5.3c0.8,0,1.4-0.7,1.3-1.5l-3.8-14.7
		C173.3,183.9,174.1,181.9,174.1,179.4z"/>
	<path class="st5" d="M133.6,158.1c0-3.5,2.8-6.3,6.3-6.3c3.5,0,6.3,2.8,6.3,6.3c0,3.5-2.8,6.3-6.3,6.3
		C136.4,164.4,133.6,161.6,133.6,158.1z M146.8,167.8l-4.5-1.6h-2.8h-2.8l-5.7,2c0,0-3.4,1-3.4,5s0,14.1,0,14.1
		c0,2.3,1.9,4.2,4.2,4.2v19.7h5.8l1.9-14.1l1.9,14.1h5.8v-19.7l1.6-6.3c-1.2-1.3-2-3.2-2-5.9V167.8z"/>
	<path class="st3" d="M184.5,164.4c-3.5,0-6.3-2.8-6.3-6.3c0-3.5,2.8-6.3,6.3-6.3c3.5,0,6.3,2.8,6.3,6.3
		C190.8,161.6,188,164.4,184.5,164.4z M177.6,179.4c0,2.7-0.8,4.7-2,5.9l1.6,6.3v19.7h5.8l1.9-14.1l1.9,14.1h5.8v-19.7
		c2.3,0,4.2-1.9,4.2-4.2c0,0,0-10.1,0-14.1s-3.4-5-3.4-5l-5.7-2h-2.8h-2.8l-4.5,1.6V179.4z"/>
</g>
<g>
	<g>
		<g>
			<path class="st1" d="M81.8,126c0.6,0.8,34.1,0.8,34.1,0.8c2.4,0,3.1-1.4,1.6-3.3l-5.9-7.2l-0.5-0.6c5.8-5.8,24.6-24.3,28.5-29.5
				l2-13.6h-12.1c-5.4,5.1-25.4,22.8-31.6,27.3l-1-1.2l-5.8-7.1c-1.5-1.8-3.1-1.4-3.5,0.9C87.7,92.6,81.1,125.3,81.8,126z"/>
		</g>
	</g>
</g>
<g>
	<g>
		<g>
			<path class="st1" d="M241.6,126c-0.6,0.8-34.1,0.8-34.1,0.8c-2.4,0-3.1-1.4-1.6-3.3l5.9-7.2l0.5-0.6
				c-5.8-5.8-24.6-24.3-28.5-29.5l-2-13.6h12.1c5.4,5.1,25.4,22.8,31.6,27.3l1-1.2l5.8-7.1c1.5-1.8,3.1-1.4,3.5,0.9
				C235.7,92.6,242.3,125.3,241.6,126z"/>
		</g>
	</g>
</g>
<g>
	<path class="st5" d="M257.1,206.3l-11-19.3l-10.9,19.3l-8.7,0l15.5-25.8L227.4,156l8.8,0l9.9,18l9.9-18l8.8,0l-14.5,24.5l15.6,25.8
		L257.1,206.3z"/>
</g>
<g>
	<path class="st1" d="M268.3,179.6v-3.8l8.5-9.9c0.4-0.5,0.7-1,0.9-1.4c0.2-0.4,0.3-0.9,0.3-1.4c0-0.9-0.2-1.5-0.7-2.1
		c-0.5-0.5-1.2-0.8-2-0.8c-0.8,0-1.5,0.2-2,0.7c-0.5,0.4-0.8,1.2-0.8,2.2h-4.2c0-2.1,0.7-3.7,2-4.9c1.3-1.2,3-1.8,5-1.8
		c2.1,0,3.7,0.6,5,1.8c1.3,1.2,1.9,2.8,1.9,4.9c0,1.1-0.2,1.9-0.5,2.6s-1,1.6-1.9,2.6l-6.4,7.4h8.9v3.8H268.3z"/>
</g>
</svg>
