<svg id="Layer_1" data-name="Layer 1" xmlns="http://www.w3.org/2000/svg" viewBox="0 0 455.14 250.83"><defs><style>.cls-1{fill:#81b315;}.cls-2{fill:#fff;}</style></defs><title>money</title><circle class="cls-1" cx="217.64" cy="74.63" r="70.43"/><path class="cls-2" d="M287.19,600.33v6.36a4.07,4.07,0,0,1-4.07,4.07h-4.39a4.07,4.07,0,0,1-4.07-4.07v-5.4a4,4,0,0,0-3.75-4,41.68,41.68,0,0,1-12.42-2.66,35.7,35.7,0,0,1-9.82-5.86,4.09,4.09,0,0,1-.25-6l5.48-5.48a4.09,4.09,0,0,1,5.37-.32,23.47,23.47,0,0,0,6,3.29,29,29,0,0,0,6.51,1.53,4,4,0,0,0,4.46-4.06V563.12a4.07,4.07,0,0,0-3.57-4l-0.4,0a36.16,36.16,0,0,1-9.92-2.61,30.37,30.37,0,0,1-8.87-6.52q-4.65-4.65-4.64-15.58a25.23,25.23,0,0,1,6.88-18.06,27.77,27.77,0,0,1,15.62-8,4,4,0,0,0,3.28-4v-3.45a4.07,4.07,0,0,1,4.07-4.07h4.39a4.07,4.07,0,0,1,4.07,4.07v3.1a4.07,4.07,0,0,0,3.71,4,31.79,31.79,0,0,1,9.55,2.37,34.41,34.41,0,0,1,7.72,4.6,4.09,4.09,0,0,1,.32,6.11l-5.22,5.17a4.07,4.07,0,0,1-5.17.43,21.56,21.56,0,0,0-4.45-2.29,24.77,24.77,0,0,0-3.18-1,4.09,4.09,0,0,0-5,4v13.52a4.07,4.07,0,0,0,3.44,4l1.27,0.2a41,41,0,0,1,9.92,2.54,24,24,0,0,1,7.19,4.71,19.53,19.53,0,0,1,4.9,7.63,31.18,31.18,0,0,1,1.66,10.66q0,11-7.31,17.91a31.81,31.81,0,0,1-16.09,7.85A4,4,0,0,0,287.19,600.33Zm-10.92-71.76a4.09,4.09,0,0,0-6.45-3.33,10.26,10.26,0,0,0-1.54,1.35A10.79,10.79,0,0,0,266,537.24a10.49,10.49,0,0,0,2.73,3.54,7.45,7.45,0,0,0,1.81,1.23,4,4,0,0,0,5.68-3.74v-9.7Zm18,35.08a8.24,8.24,0,0,0-3.66-2.11h0a4.05,4.05,0,0,0-5.1,3.94v11.08a4.09,4.09,0,0,0,5.76,3.73q5.77-2.61,5.77-9.19Q297,566.25,294.25,563.65Z" transform="translate(-62.36 -480)"/><path class="cls-1" d="M509.17,564.27l-7,.41a8.84,8.84,0,0,1-9.33-8.31L491,524,284.09,730.83l-1-1-0.89.88L185.53,634a9.1,9.1,0,0,0-12.88,0L82.3,724.39a9.1,9.1,0,0,1-12.88,0l-3.11-3.11a13.5,13.5,0,0,1,0-19.09L179,589.49l0.07-.07,97.68,97.68a9.11,9.11,0,0,0,12.87,0L469.52,507.22,439.64,509a8.85,8.85,0,0,1-9.34-8.31l-0.4-7a8.83,8.83,0,0,1,8.3-9.33L512.54,480l0,0.62,0.56,0,4.34,74.35A8.84,8.84,0,0,1,509.17,564.27Z" transform="translate(-62.36 -480)"/></svg>