<?xml version="1.0" encoding="utf-8"?>
<!-- Generator: Adobe Illustrator 19.1.0, SVG Export Plug-In . SVG Version: 6.00 Build 0)  -->
<svg version="1.1" id="Layer_1" xmlns="http://www.w3.org/2000/svg" xmlns:xlink="http://www.w3.org/1999/xlink" x="0px" y="0px"
	 viewBox="0 0 268.6 72" style="enable-background:new 0 0 268.6 72;" xml:space="preserve">
<style type="text/css">
	.st0{fill:#00A8E1;}
	.st1{fill:none;stroke:#646569;stroke-width:7;stroke-miterlimit:10;}
	.st2{fill:#646569;stroke:#646569;stroke-width:3.5815;stroke-linecap:round;stroke-linejoin:round;stroke-miterlimit:10;}
	.st3{fill:#FFFFFF;}
	.st4{fill:#646569;}
	.st5{fill:#A7C739;}
</style>
<g>
	<path class="st0" d="M129.5,68.9h-116c-4.6,0-8.3-3.7-8.3-8.3V11.4c0-4.6,3.7-8.3,8.3-8.3h116c4.6,0,8.3,3.7,8.3,8.3v49.2
		C137.9,65.2,134.1,68.9,129.5,68.9z"/>
	<path class="st1" d="M130.1,68.5H13c-5.2,0-9.5-4.3-9.5-9.5V13c0-5.2,4.3-9.5,9.5-9.5h117.1c5.2,0,9.5,4.3,9.5,9.5v46
		C139.6,64.2,135.3,68.5,130.1,68.5z"/>
	<g>
		<path class="st2" d="M175.3,19.7v11.5H187v2.9h-11.7v11.6H172V34.1h-11.7v-2.9H172V19.7H175.3z"/>
	</g>
	<g>
		<path class="st3" d="M28.3,22.6c0.7,0,1.4,0.2,2.2,0.5c0.7,0.3,1.5,0.9,2.3,1.7c0.8,0.8,1.2,2,1.2,3.7v1.9c0,1.9-0.7,3.3-2.2,4.1
			c1.5,0.9,2.2,2.3,2.2,4.2v2.9c0,1.8-0.6,3.2-1.7,4.3c-1.1,1.1-2.6,1.7-4.3,1.7h-5.5V22.6H28.3z M30.4,30.1v-1.6
			c0-0.8-0.2-1.4-0.7-1.9c-0.4-0.5-1-0.7-1.8-0.7h-2v7h2.1c0.8,0,1.4-0.3,1.8-0.8C30.3,31.6,30.4,30.9,30.4,30.1z M30.4,41.6v-2.9
			c0-0.8-0.2-1.4-0.6-1.9c-0.4-0.5-1-0.7-1.8-0.7h-2v8h2c0.7,0,1.3-0.2,1.7-0.7C30.2,42.9,30.4,42.3,30.4,41.6z"/>
		<path class="st3" d="M48.3,45c-0.5,0.9-1.2,1.5-2.1,2.1c-0.9,0.5-1.8,0.8-2.8,0.8c-1,0-2-0.3-3-0.8c-0.9-0.5-1.6-1.2-2-1.8
			c-0.4-0.7-0.6-1.3-0.7-1.8c-0.1-0.5-0.2-1.1-0.2-1.7V22.6h3.6v19.1c0,0.3,0,0.6,0.1,0.8c0,0.2,0.2,0.6,0.6,1
			c0.3,0.5,0.9,0.7,1.7,0.7c0.7,0,1.3-0.3,1.6-0.8c0.4-0.5,0.5-1.1,0.5-1.8V22.6h3.6v19.1c0,0.6-0.1,1.2-0.2,1.7
			C48.9,44,48.6,44.5,48.3,45z"/>
		<path class="st3" d="M55.8,47.7V36.9l-4.8-14.3h3.7l2.9,9.9l3-9.9h3.7l-4.9,14.3v10.8H55.8z"/>
		<path class="st3" d="M81.8,47.7l-5.6-15.3v15.3h-3.6V22.6H76l5.5,15.2V22.6h3.6v25.1H81.8z"/>
		<path class="st3" d="M89.9,25c0.6-0.8,1.3-1.4,2.2-1.9c0.9-0.5,1.8-0.7,2.7-0.7c0.9,0,1.8,0.2,2.6,0.6c0.8,0.4,1.5,0.9,2,1.5
			c0.5,0.7,0.9,1.3,1.1,2c0.2,0.7,0.3,1.4,0.3,2.2v12.7c0,0.7-0.1,1.4-0.2,2c-0.1,0.6-0.4,1.2-0.9,1.9c-0.5,0.7-1.1,1.3-2,1.8
			c-0.9,0.5-1.8,0.7-2.8,0.7c-1.2,0-2.3-0.3-3.2-0.9c-1-0.6-1.7-1.3-2.1-2c-0.4-0.8-0.6-1.4-0.7-1.8c-0.1-0.5-0.1-1-0.1-1.6V28.7
			c0-0.7,0.1-1.4,0.2-2C89.2,26.1,89.5,25.6,89.9,25z M96.8,27c-0.5-0.7-1.1-1-1.9-1c-0.4,0-0.8,0.1-1.3,0.4
			c-0.4,0.2-0.7,0.5-0.9,0.8c-0.2,0.3-0.3,0.6-0.3,0.9c-0.1,0.3-0.1,0.5-0.1,0.7v12.7c0,0.3,0,0.5,0.1,0.8c0,0.3,0.2,0.7,0.6,1.2
			s1,0.8,1.9,0.8c0.4,0,0.9-0.1,1.2-0.3c0.4-0.2,0.6-0.5,0.8-0.7c0.2-0.3,0.3-0.5,0.3-0.8c0-0.2,0.1-0.6,0.1-1V28.7
			c0-0.5,0-0.8-0.1-1C97.2,27.5,97,27.2,96.8,27z"/>
		<path class="st3" d="M115.5,47.7l-2.9-15.1l-2.9,15.1h-3.3l-3.6-25.1h3.8l1.8,15.2l2.9-15.2h2.7l2.9,15.2l1.8-15.2h3.8l-3.5,25.1
			H115.5z"/>
	</g>
	<g>
		<g>
			<g>
				<path class="st4" d="M261.9,34.7c-1.7-0.2-3.4,1-3.6,2.7c-1.6,11.6-11.8,20.3-23.7,20.3c-8.9,0-17-4.9-21.1-12.3h3.1
					c0,0,0,0,0,0c1,0,1.8-0.8,1.8-1.8c0-0.6-0.3-1.1-0.6-1.4l-6.7-6.7c-0.7-0.7-1.9-0.7-2.6,0l-6.8,6.8c-0.5,0.5-0.7,1.3-0.4,2
					c0.3,0.7,0.9,1.1,1.7,1.1h3.5c4.6,11.2,15.7,18.7,28.2,18.7c15.1,0,28-11.1,30.1-25.8C264.8,36.6,263.6,35,261.9,34.7z"/>
				<path class="st4" d="M207.8,31.7c1.7,0.2,3.4-1,3.6-2.7c1.6-11.6,11.8-20.3,23.7-20.3c8.9,0,17,4.9,21.1,12.3h-3.1c0,0,0,0,0,0
					c-1,0-1.8,0.8-1.8,1.8c0,0.6,0.3,1.1,0.6,1.4l6.7,6.7c0.7,0.7,1.9,0.7,2.6,0l6.8-6.8c0.5-0.5,0.7-1.3,0.4-2
					c-0.3-0.7-0.9-1.1-1.7-1.1h-3.5c-4.6-11.2-15.7-18.7-28.2-18.7c-15.1,0-28,11.1-30.1,25.8C204.8,29.8,206,31.4,207.8,31.7z"/>
			</g>
		</g>
		<g>
			<path class="st5" d="M242.3,33.5c-0.9-0.6-2.1-1.2-3.6-1.5l-1.7-0.4v-6.9c1,0.3,1.8,0.7,2.3,1.4c0.4,0.6,0.7,1.5,0.9,2.7l0,0.3
				h3.7v-0.4c0-2.7-0.9-4.7-2.6-5.9c-1.2-0.9-2.7-1.4-4.3-1.7v-2.3c0-0.4-0.3-0.8-0.8-0.8h-1.9c-0.4,0-0.8,0.4-0.8,0.8V21
				c-1.9,0.2-3.5,0.9-4.6,2c-1.5,1.4-2.2,3.2-2.2,5.4c0,2,0.8,3.6,2.3,4.6c0.9,0.6,2.3,1.1,4.3,1.6l0.2,0v7.7
				c-1.4-0.3-2.4-0.9-3.1-1.9c-0.5-0.8-0.8-1.8-0.8-3l0-0.4h-3.7l0,0.4c0,2.6,0.8,4.7,2.5,6.2c1.3,1.2,3.1,1.9,5.2,2.2V48
				c0,0.4,0.3,0.8,0.8,0.8h1.9c0.4,0,0.8-0.3,0.8-0.8v-2.1c1.7-0.2,3.3-0.7,4.7-1.6c1.9-1.2,2.9-3.1,2.9-5.8
				C244.6,36.3,243.8,34.7,242.3,33.5z M233.5,30.7c-0.9-0.3-1.6-0.5-1.9-0.7c-0.8-0.5-1.2-1.2-1.2-2.1c0-0.9,0.3-1.7,1-2.4
				c0.5-0.5,1.2-0.8,2.1-0.9V30.7z M238.3,42.1c-0.4,0.2-0.9,0.3-1.4,0.3v-7c1.2,0.3,2.2,0.7,2.8,1.1c0.7,0.5,1,1.2,1,2.4
				C240.8,40.5,240,41.5,238.3,42.1z"/>
		</g>
	</g>
</g>
</svg>
