<svg id="Layer_1" data-name="Layer 1" xmlns="http://www.w3.org/2000/svg" viewBox="0 0 127 144.5"><defs><style>.cls-1{fill:#fff;}.cls-1,.cls-2{stroke:#81b315;stroke-miterlimit:10;stroke-width:7px;}.cls-2{fill:none;}.cls-3{fill:#81b315;}</style></defs><title>subscription</title><polyline class="cls-1" points="123.5 128.83 123.5 3.5 42.83 3.5"/><polygon class="cls-2" points="30.83 15.67 3.5 42.31 3.5 141 111.5 141 111.5 15.67 30.83 15.67"/><path class="cls-2" d="M175,100.31H148.45a0.32,0.32,0,0,1-.22-0.55l26.19-25.53a0.34,0.34,0,0,1,.58.25v25.83Z" transform="translate(-144.17 -58)"/><path class="cls-3" d="M214.64,133.94a4.65,4.65,0,0,0-1.48-1,4.41,4.41,0,0,0-2.33-.62,4.26,4.26,0,0,0-4.36,4.34l19.74,18.44,18.4-17.1c0-3.5-4.53-6.65-7.74-3.44l-6.28,6.28V115.7a4.54,4.54,0,0,0-4.53-4.53H178.83c-5.84,0-5.85,9.07,0,9.07h42.69v20.59Z" transform="translate(-144.17 -58)"/><path class="cls-3" d="M188.69,146.44a4.65,4.65,0,0,0,1.48,1,4.41,4.41,0,0,0,2.33.62,4.26,4.26,0,0,0,4.36-4.34l-19.74-18.44-18.4,17.1c0,3.5,4.53,6.65,7.74,3.44l6.28-6.28v25.12a4.54,4.54,0,0,0,4.53,4.53H224.5c5.84,0,5.85-9.07,0-9.07H181.81V139.56Z" transform="translate(-144.17 -58)"/></svg>