<svg height="34" width="200" id="Layer_1" data-name="Layer 1" xmlns="http://www.w3.org/2000/svg" viewBox="0 0 301.09 51.09"><title>Go to the home page</title><path d="M9.42,38.84H16a19,19,0,0,0,7.53-1.52,19.39,19.39,0,0,0,0-35.76A19,19,0,0,0,16,0H0v38.8H5.49V5.56H16a13.78,13.78,0,0,1,5.32,1.06,13.56,13.56,0,0,1,7.53,7.53,14,14,0,0,1,0,10.68,13.63,13.63,0,0,1-7.53,7.5A13.76,13.76,0,0,1,16,33.39H11.46Zm30.76,0h5.49V11.56H40.18Zm0-33.31h5.49V0H40.18ZM54.72,48.65a23.21,23.21,0,0,0,10.19,2.44c6.4,0,13.94-3.62,13.94-14V11.56H73.36v3l-1.13-.86a15.57,15.57,0,0,0-3.85-2.11,13.94,13.94,0,0,0-5-.84A13.13,13.13,0,0,0,58,11.87,12.71,12.71,0,0,0,53.7,15a14.32,14.32,0,0,0-2.76,4.6,16.08,16.08,0,0,0-1,5.67,14,14,0,0,0,1.15,5.64,15,15,0,0,0,3.13,4.61,14.55,14.55,0,0,0,4.6,3.1,14.14,14.14,0,0,0,5.58,1.12h.12A14.44,14.44,0,0,0,69.17,39l-1.9-5.19a10.28,10.28,0,0,1-2.87.44,8.94,8.94,0,0,1-6.34-2.61,8.7,8.7,0,0,1-2.63-6.37,8.94,8.94,0,0,1,8.88-9h.12a8.69,8.69,0,0,1,6.35,2.62,9,9,0,0,1,2.62,6.35V36.73c0,7.9-5.91,9-9.15,9a20.58,20.58,0,0,1-7.64-2.06Zm30-9.81h5.49V11.56H84.72Zm0-33.31h5.49V0H84.72ZM96.08,4.2V30.06a8.48,8.48,0,0,0,.69,3.4,9.23,9.23,0,0,0,1.87,2.81,8.63,8.63,0,0,0,2.76,1.89,8.48,8.48,0,0,0,3.4.69h5.33l-2-5.49h-3.32a3.12,3.12,0,0,1-2.28-1,3.19,3.19,0,0,1-1-2.33V17h7.76l-2-5.49h-5.76V4.2Zm29.14,6.52a13.66,13.66,0,0,0-5.55,1.12,13.49,13.49,0,0,0-4.4,3.08,14.33,14.33,0,0,0-2.9,4.6,15.29,15.29,0,0,0-1,5.66,15.14,15.14,0,0,0,1,5.6,14.33,14.33,0,0,0,2.9,4.6,13.47,13.47,0,0,0,4.4,3.08,13.67,13.67,0,0,0,5.55,1.12,13.36,13.36,0,0,0,5.25-1l-1.81-5a10.24,10.24,0,0,1-2.87.43,9.31,9.31,0,0,1-3.45-.65,8.17,8.17,0,0,1-2.92-2A9,9,0,1,1,134.77,25s0,.08,0,.12V38.81h5.49V11.46h-5.49v3l-1.14-.9a14.42,14.42,0,0,0-3.63-2,12.9,12.9,0,0,0-4.74-.84Zm21.24,28.12H152V0h-5.5Z" style="fill:#003058"/><path d="M189.83,38.84h6.55l-8-12.34.72-.34a13.36,13.36,0,0,0,3.19-2.1,13.67,13.67,0,0,0,2.46-2.87,14.07,14.07,0,0,0,1.59-3.47,13.59,13.59,0,0,0,.57-4,13.14,13.14,0,0,0-1.09-5.32,14,14,0,0,0-7.31-7.31A13.14,13.14,0,0,0,183.19,0H168.9V38.8h5.49V5.56h8.86A8,8,0,0,1,189.09,8a8.18,8.18,0,0,1,1.76,8.92,8.81,8.81,0,0,1-1.75,2.64A8,8,0,0,1,183.25,22H180l-2,5.54h4.51Zm12,0h5.49V11.56h-5.49Zm0-33.31h5.49V0h-5.49Zm20,33.31h7.58l9.85-27.28h-5.85l-7.88,21.53-7.88-21.53H211.8ZM246.6,27.93h22.79a14,14,0,0,0,.26-2.75,14.28,14.28,0,0,0-1.12-5.64,14.43,14.43,0,0,0-7.7-7.7,14.74,14.74,0,0,0-11.28,0,14.43,14.43,0,0,0-7.7,7.7,14.27,14.27,0,0,0-1.12,5.64c0,10.07,8.13,14.35,15.74,14.22a22.14,22.14,0,0,0,8.81-2.06l-1.71-4.71a20.38,20.38,0,0,1-7.66,1.47c-5.83,0-8.63-3.24-9.4-6.17Zm17.19-5.49H246.51l.43-1a8.52,8.52,0,0,1,1.81-2.63,9,9,0,0,1,6.35-2.62,8.69,8.69,0,0,1,6.35,2.62,8.56,8.56,0,0,1,1.81,2.63Zm16-7.2V11.46H274.3V38.83h5.49V25.12a9,9,0,0,1,2.61-6.34,8.65,8.65,0,0,1,5.66-2.6v-5.5a10.58,10.58,0,0,0-8.33,4.55Z" style="fill:#00a7e1"/><path d="M292.13,13.47a4.48,4.48,0,1,1,4.49,4.47h0A4.47,4.47,0,0,1,292.13,13.47Zm8.37,0a3.9,3.9,0,1,0-3.91,3.89,3.9,3.9,0,0,0,3.91-3.89Zm-5.8-2.76h2.15a1.61,1.61,0,0,1,1.8,1.64,1.52,1.52,0,0,1-1.08,1.55l1.6,2.26H298L296.51,14h-.68v2.17H294.7Zm2,2.49a.85.85,0,1,0,0-1.7h-.89v1.7Z" style="fill:#00a7e1"/></svg>