<svg id="9be244a1-87be-4e0f-b78c-98cd37c29db5" data-name="2ef53ad6-ecfe-4e36-b414-285422eca1b8" xmlns="http://www.w3.org/2000/svg" viewBox="0 0 228.76 36.47"><title>forrester_logo</title><path d="M26.81,0a1.08,1.08,0,0,1,.55,1.1V7.34a1.5,1.5,0,0,1-.07.62c-.1.21-.28.5-.46.53a1.06,1.06,0,0,1-.73-.27,1.45,1.45,0,0,1-.38-.66C24.59,4,22.1,2.38,18.48,2.27c-1.8-.06-3.6-.17-5.39-.15-1.63,0-2.18.55-2.29,2.19s-.08,3-.07,4.55q0,3.36.1,6.73c0,.89.25,1.2,1,1.21,2.54,0,5.09,0,7.63-.09a3.84,3.84,0,0,0,3.66-3.05c.13-.45.23-.91.39-1.34s.4-.84,1-.76.65.55.64,1c0,1.56-.15,3.13-.12,4.69,0,2,.15,3.92.24,5.88a5,5,0,0,1,0,1.19c-.06.29-.31.73-.51.75a1.37,1.37,0,0,1-.9-.44,1.83,1.83,0,0,1-.31-.77c-.12-.38-.22-.76-.32-1.15-.74-2.66-2.14-3.83-4.9-3.92-1.94-.07-3.88,0-5.82,0-1.3,0-1.67.37-1.74,1.68-.08,1.56,0,3.13,0,4.7,0,2.34,0,4.67.09,7a2,2,0,0,0,1.93,2.07h.07c.49.06,1,.08,1.46.15s.78.31.73.84-.4.66-.83.65c-1.52,0-3-.14-4.55-.14-2.43,0-4.86.09-7.29.14H1.78c-.48,0-.9-.08-.94-.68s.41-.74.86-.81,1-.1,1.46-.17a2,2,0,0,0,1.92-2V31.1q0-12.73,0-25.46c0-2.94-.61-3.59-3.56-3.82A3.37,3.37,0,0,1,1,1.75C.54,1.64.09,1.57,0,1S.31.21.71,0h.7C2.59.08,3.77.24,4.94.24c6.81,0,13.62-.06,20.43-.1A4,4,0,0,0,26.1,0Z" transform="translate(0.05)" style="fill:#fff"/><path d="M214.08,22.66a8.68,8.68,0,0,1,2.4,3.23q2,3.47,3.94,7a3.4,3.4,0,0,0,2.54,2c.23,0,.41.4.61.61-.25.16-.49.45-.74.45H217.5a1.35,1.35,0,0,1-1.26-.93l-4.48-8.47c-.37-.7-.76-1.39-1.12-2.1a2.42,2.42,0,0,0-2.81-1,.84.84,0,0,0-.45.65v8.76a1.71,1.71,0,0,0,1.56,1.85h.22a4.29,4.29,0,0,1,1.11.13c.25.09.41.4.62.61-.23.17-.47.47-.7.47-1.38,0-2.75-.11-4.13-.11-1.8,0-3.59.08-5.39.12a1.81,1.81,0,0,1-.69,0c-.2-.08-.46-.3-.48-.47a.71.71,0,0,1,.38-.56,4.19,4.19,0,0,1,1.1-.17c1.35-.11,1.93-.64,1.94-2V13.19c0-1.24-.57-1.77-1.79-1.89a3.91,3.91,0,0,1-1-.13,1,1,0,0,1-.61-.6c-.08-.43.3-.5.66-.49,1.84,0,3.69.11,5.53.1,2.22,0,4.44-.14,6.66-.07a11,11,0,0,1,3.35.62,5.94,5.94,0,0,1,3.95,6.07,5.63,5.63,0,0,1-4.25,5.45C215,22.41,214.58,22.5,214.08,22.66Zm-6.72-5.54v4.07c0,.71.29,1.07,1,1.08a20.54,20.54,0,0,0,2.45-.06A4.28,4.28,0,0,0,215,18.08a8.69,8.69,0,0,0,0-1.47,5.36,5.36,0,0,0-5.3-5.42l-.48,0c-1.3,0-1.84.55-1.85,1.84S207.36,15.76,207.36,17.12Z" transform="translate(0.05)" style="fill:#fff"/><path d="M98.78,22.58c.66,1,1.35,1.91,1.93,2.9,1.4,2.4,2.74,4.83,4.11,7.25a3.48,3.48,0,0,0,2.62,2.09c.22,0,.39.41.58.63-.25.15-.49.43-.74.44H102a1.25,1.25,0,0,1-1.18-.83l-3.84-7.24c-.55-1-1.14-2-1.63-3.1a2.48,2.48,0,0,0-2.63-1.44c-.72,0-.9.41-.9,1v6c0,.86,0,1.73.08,2.59a1.66,1.66,0,0,0,1.62,1.7h.14a4.81,4.81,0,0,1,1.17.15c.22.08.37.39.55.6-.22.16-.43.46-.65.46-1.1,0-2.19-.08-3.29-.08-2.1,0-4.2.06-6.3.1a1.8,1.8,0,0,1-.69,0c-.2-.08-.45-.31-.46-.48a.7.7,0,0,1,.39-.55,5.13,5.13,0,0,1,1.17-.17A1.76,1.76,0,0,0,87.37,33s0-.08,0-.12a6.37,6.37,0,0,0,0-.84V13.83a6.5,6.5,0,0,0-.11-1.18,1.54,1.54,0,0,0-1.46-1.37,9.32,9.32,0,0,1-1.39-.17c-.22-.07-.36-.39-.54-.59.21-.16.41-.45.62-.45,1.91,0,3.83.08,5.74.08,2.22,0,4.44-.12,6.66-.09a7.27,7.27,0,0,1,5.57,2.21c3.19,3.52,1.56,8.77-3.1,10.08Zm-6.93-5.4h-.06v3.93c0,.89.23,1.13,1.12,1.16a14,14,0,0,0,2.17,0c2.74-.32,4-1.61,4.34-4.35.47-3.91-2.09-6.81-5.88-6.66-1.11,0-1.62.44-1.68,1.55C91.8,14.23,91.85,15.71,91.85,17.18Z" transform="translate(0.05)" style="fill:#fff"/><path d="M72.91,22.6c.61.88,1.26,1.72,1.79,2.64,1.46,2.5,2.86,5,4.29,7.56a3.47,3.47,0,0,0,2.59,2c.22,0,.39.41.58.63-.23.15-.45.43-.68.43H76c-.66,0-.92-.47-1.18-1l-4.95-9.35c-.15-.29-.33-.57-.45-.87a2.43,2.43,0,0,0-2.69-1.43.74.74,0,0,0-.81.84v8.63c0,1.25.64,1.8,1.89,1.89a3.29,3.29,0,0,1,1,.14c.24.1.39.41.58.63-.22.15-.44.44-.66.44-1.33,0-2.66-.11-4-.11-1.85,0-3.69.08-5.53.12a1.85,1.85,0,0,1-.69,0c-.2-.08-.45-.29-.47-.47a.7.7,0,0,1,.36-.56,5,5,0,0,1,1.17-.17c1.27-.12,1.82-.64,1.87-1.91,0-1.49.07-3,.07-4.48V14.78A12.33,12.33,0,0,0,61.43,13a1.61,1.61,0,0,0-1.56-1.66h-.08a6.4,6.4,0,0,1-1.25-.16.93.93,0,0,1-.51-.6c-.09-.41.25-.48.59-.48,1.82,0,3.64.11,5.46.11,2.29,0,4.58-.11,6.87-.1A7.84,7.84,0,0,1,76,11.75C79,14.15,79.3,20.17,74.39,22A6.17,6.17,0,0,1,72.91,22.6Zm-7-5.47h0V21.2c0,.7.31,1.06,1,1.07a23.4,23.4,0,0,0,2.52-.07,4.2,4.2,0,0,0,4.05-3.85,8.79,8.79,0,0,0,0-1.89,5.29,5.29,0,0,0-5.33-5.25h-.27c-1.43,0-2,.5-2,1.92s.06,2.65.06,4Z" transform="translate(0.05)" style="fill:#fff"/><path d="M29,22.88a13.19,13.19,0,0,1,11.18-13,14.53,14.53,0,0,1,12.24,3,12.93,12.93,0,0,1,2,17.79,14.3,14.3,0,0,1-23.36-.58A12.72,12.72,0,0,1,29,22.88Zm14.32,12.4,1,0a3.69,3.69,0,0,0,.48-.08,8,8,0,0,0,5.38-4.45A16.12,16.12,0,0,0,52,20.93a13.12,13.12,0,0,0-3.21-7.43,7.79,7.79,0,0,0-7.1-2.68,8,8,0,0,0-5.75,4A13.75,13.75,0,0,0,34,24.5a14.72,14.72,0,0,0,3.46,8,7.74,7.74,0,0,0,5.87,2.78Z" transform="translate(0.05)" style="fill:#fff"/><path d="M184.91,27.85v3.79c0,1.85.71,2.62,2.53,2.76a24.2,24.2,0,0,0,3.14,0,5.48,5.48,0,0,0,4.63-3c.29-.51.52-1,.85-1.53.14-.2.47-.27.71-.41.11.24.34.48.32.7-.17,1.6-.38,3.2-.6,4.79a1.12,1.12,0,0,1-1.22,1h0c-2.5,0-5,0-7.5,0h-8.83a7.77,7.77,0,0,1-1.26,0c-.24,0-.45-.3-.67-.46.18-.23.33-.58.56-.66a8.36,8.36,0,0,1,1.38-.21,1.59,1.59,0,0,0,1.56-1.62s0-.08,0-.12V28.86q0-7.33,0-14.66v-.91c-.08-1.34-.63-1.89-2-2a2.39,2.39,0,0,1-.89-.11,2.72,2.72,0,0,1-.65-.66c.24-.16.49-.44.73-.44,1.21,0,2.43.11,3.64.11h11.85c.77,0,1.54-.06,2.31-.11.39,0,.63.1.63.53v4.63a.66.66,0,0,1-.33.52.69.69,0,0,1-.53-.26,6.59,6.59,0,0,1-.67-1.23A3.8,3.8,0,0,0,192,12.06a16.26,16.26,0,0,0-5.67-.56c-1,.05-1.38.46-1.39,1.48v7.36a.9.9,0,0,0,.79,1h.06A11,11,0,0,0,191,21a4.16,4.16,0,0,0,1.48-1.39A9.73,9.73,0,0,0,193,18.3a2.42,2.42,0,0,1,.64-.53c.12.24.35.48.35.72,0,1.19-.13,2.38-.16,3.57s0,2.33,0,3.5a2.81,2.81,0,0,1,0,.77c-.06.21-.25.51-.42.53a.83.83,0,0,1-.6-.35,2.19,2.19,0,0,1-.26-.72c-.69-2.32-1.33-2.88-3.73-3.06a21.17,21.17,0,0,0-2.94,0c-.82,0-1,.3-1,1.12v.07Q184.91,25.92,184.91,27.85Z" transform="translate(0.05)" style="fill:#fff"/><path d="M117.68,27.83c0,1.52-.05,3,0,4.55a1.85,1.85,0,0,0,1.79,1.91h0a26.89,26.89,0,0,0,4.66,0,4.89,4.89,0,0,0,3.52-2.55c.37-.59.65-1.25,1-1.83.15-.23.48-.33.73-.49.11.26.34.52.32.76q-.24,2.4-.59,4.8a1.1,1.1,0,0,1-1.24.91h-16.4a8.23,8.23,0,0,1-1.33,0,.8.8,0,0,1-.52-.51.68.68,0,0,1,.39-.55,15.36,15.36,0,0,1,1.58-.27A1.54,1.54,0,0,0,113.07,33a10,10,0,0,0,.09-1.26V13.62c-.1-1.7-.57-2.16-2.27-2.27a1.73,1.73,0,0,1-.75-.13,2.54,2.54,0,0,1-.53-.62c.22-.16.43-.46.65-.46.93,0,1.87.08,2.8.08q7.36,0,14.72-.09c1,0,1,0,1,.93v4.07a2.09,2.09,0,0,1-.31.7,2.92,2.92,0,0,1-.7-.46,2.88,2.88,0,0,1-.46-.86A3.87,3.87,0,0,0,124.12,12a40.25,40.25,0,0,0-5.08-.43c-1.08,0-1.47.41-1.48,1.52v7.29a1,1,0,0,0,.91,1,13.12,13.12,0,0,0,5.07-.29,2.65,2.65,0,0,0,1.74-1.61,10.48,10.48,0,0,1,.49-1.23c.11-.2.41-.28.63-.42.11.21.31.42.3.62,0,1.54-.16,3.08-.21,4.62,0,1,.06,2,0,3a2.55,2.55,0,0,1-.38.86c-.25-.22-.6-.4-.74-.68-.28-.56-.41-1.19-.66-1.76a2.6,2.6,0,0,0-2.29-1.61c-1.21-.1-2.43-.12-3.64-.1-1,0-1.25.3-1.25,1.34v3.72Z" transform="translate(0.05)" style="fill:#fff"/><path d="M150.85,13v-2.1c0-.7.21-.76.79-.75q8.13.1,16.26.14c1.87,0,3.74-.05,5.6-.14.64,0,.9.17.9.8v4.21c0,.24-.21.47-.33.7a2.62,2.62,0,0,1-.71-.45,3.87,3.87,0,0,1-.52-1A3.68,3.68,0,0,0,170,12.05a28,28,0,0,0-3.87-.54c-1.06-.07-1.33.26-1.33,1.31V32.17c0,1.83.47,2.31,2.29,2.46a1.56,1.56,0,0,1,.68.09c.22.14.49.43.48.64a.8.8,0,0,1-.59.51c-.7.06-1.4,0-2.1,0h-7.49c-.46,0-1.12.17-1.16-.54s.6-.64,1.08-.7a5.55,5.55,0,0,0,.9-.12A1.61,1.61,0,0,0,160.4,33a5.48,5.48,0,0,0,0-.7V12.71c0-1.09-.16-1.31-1.26-1.21a31.24,31.24,0,0,0-4.08.58,3.58,3.58,0,0,0-2.66,2.27,4.87,4.87,0,0,1-.6,1.11.79.79,0,0,1-.62.32c-.14,0-.31-.37-.32-.59C150.82,14.5,150.85,13.7,150.85,13Z" transform="translate(0.05)" style="fill:#fff"/><path d="M147.45,13.67a11,11,0,0,1,0,1.54,1.11,1.11,0,0,1-.44.88c-.52.21-.7-.29-.86-.68s-.32-.88-.45-1.32c-1-3.3-3.65-3.89-6.17-3.25a3.8,3.8,0,0,0-2.93,3.08A3.56,3.56,0,0,0,138,17.77a31.78,31.78,0,0,0,3.67,2c1.14.59,2.35,1,3.44,1.71,2.86,1.71,4.36,4.19,3.88,7.6a7.87,7.87,0,0,1-5.47,6.76,12.87,12.87,0,0,1-8.78-.31,2,2,0,0,1-1.43-1.87c-.12-1.42-.25-2.84-.36-4.25a.78.78,0,0,1,0-.41,7.15,7.15,0,0,1,.49-.73c.17.23.42.43.48.68a8.35,8.35,0,0,0,2.87,4.85,5.63,5.63,0,0,0,6,1,4.51,4.51,0,0,0,1.76-7.3,11.65,11.65,0,0,0-3.84-2.65c-1.32-.65-2.68-1.23-3.94-2a6.67,6.67,0,0,1-3.45-7.71,7.32,7.32,0,0,1,6.35-5.43,16.41,16.41,0,0,1,6.78.66,1.07,1.07,0,0,1,.9,1.08c0,.75.08,1.49.12,2.24Z" transform="translate(0.05)" style="fill:#fff"/><path d="M228.71,13.57a3.56,3.56,0,1,1-3.66-3.46h.16a3.48,3.48,0,0,1,3.5,3.46Zm-6.22,0a2.68,2.68,0,0,0,2.6,2.76h.1a2.65,2.65,0,0,0,2.64-2.66s0-.05,0-.08a2.67,2.67,0,1,0-5.34,0h0Zm2.13,1.81h-.8V11.92a7,7,0,0,1,1.33-.11,2.16,2.16,0,0,1,1.2.25,1,1,0,0,1,.34.76.89.89,0,0,1-.72.8h0a1,1,0,0,1,.63.84,2.62,2.62,0,0,0,.25.86H226a3,3,0,0,1-.27-.84c-.06-.38-.27-.55-.72-.55h-.38Zm0-2H225c.44,0,.8-.15.8-.51s-.23-.53-.74-.53a1.89,1.89,0,0,0-.44,0Z" transform="translate(0.05)" style="fill:#fff"/></svg>