<?xml version="1.0" encoding="utf-8"?>
<!-- Generator: Adobe Illustrator 19.1.0, SVG Export Plug-In . SVG Version: 6.00 Build 0)  -->
<svg version="1.1" id="Layer_1" xmlns="http://www.w3.org/2000/svg" xmlns:xlink="http://www.w3.org/1999/xlink" x="0px" y="0px"
	 viewBox="-507 286.2 185 229.8" style="enable-background:new -507 286.2 185 229.8;" xml:space="preserve">
<style type="text/css">
	.st0{fill:#FFFFFF;}
	.st1{fill:#077FB6;}
	.st2{fill:#B2D23D;}
</style>
<path class="st0" d="M-370.3,423.9c0.4-10.9-33.3-16.3-33.3-16.3c-0.6-1.7,1.4-7,1.4-7c4.3-2.7,3.9-10.1,3.9-10.1
	c3.6-2.3,4.8-7.9,5.5-11.1c0.7-3.3-2.9-3-2.9-3c-0.1-0.8,0.4-4.8,0.4-4.8l0,0c0.2-1.1,0.3-2.2,0.3-3.4l0,0c0-9.5-7.8-17.3-17.3-17.3
	h-4.6c-9.5,0-17.3,7.8-17.3,17.3l0,0c0,1.2,0.1,2.3,0.3,3.4l0,0c0,0,0.5,4,0.4,4.8c0,0-3.6-0.2-2.9,3c0.7,3.3,1.8,8.8,5.5,11.1
	c0,0-0.3,7.4,3.9,10.1c0,0,2,5.2,1.4,7c0,0-33.7,5.4-33.3,16.3l0.5,10.4c0,0-1.4,9.1,41.4,9.8l0,0c0.8,0,1.6,0,2.3,0
	c0.8,0,1.5,0,2.3,0l0,0c42.8-0.6,41.4-9.8,41.4-9.8L-370.3,423.9z"/>
<g>
	<g>
		<path class="st1" d="M-401.4,286.2c0.8,0,1.5,0.3,2.1,0.9c1.2,1.2,1.1,3.1,0,4.2l-21.3,20.9l21.3,20.9c1.2,1.2,1.2,3,0,4.2
			c-1.2,1.2-3,1.2-4.2,0l-23.5-23.1c-0.6-0.6-0.9-1.3-0.9-2.1c0-0.8,0.3-1.6,0.9-2.1l23.5-23.1
			C-402.9,286.5-402.1,286.2-401.4,286.2z"/>
	</g>
	<g>
		<path class="st1" d="M-414.4,308.8c51,0,92.5,41.5,92.5,92.5c0,35.6-20.8,68.4-52.9,83.7c-1.5,0.7-3.3,0.1-4-1.4
			c-0.7-1.5-0.1-3.3,1.4-4c30.1-14.3,49.5-45,49.5-78.3c0-47.7-38.8-86.5-86.5-86.5c-2.5,0-5,0.1-7.5,0.3c-1.6,0.1-3.1-1.1-3.2-2.7
			c-0.1-1.6,1.1-3.1,2.7-3.2C-419.7,308.9-417.1,308.8-414.4,308.8z"/>
	</g>
</g>
<g>
	<g>
		<path class="st2" d="M-424.9,463.9c0.8,0,1.5,0.3,2.1,0.9l23.5,23c0.6,0.6,0.9,1.3,0.9,2.1c0,0.8-0.3,1.6-0.9,2.1l-23.5,23.1
			c-1.2,1.2-3.1,1.1-4.2,0c-1.2-1.2-1.1-3.1,0-4.2l21.4-21L-427,469c-1.2-1.2-1.2-3,0-4.2C-426.4,464.2-425.6,463.9-424.9,463.9z"/>
	</g>
	<g>
		<path class="st2" d="M-450.9,316.6c1.1,0,2.2,0.7,2.7,1.8c0.7,1.5,0,3.3-1.5,3.9c-31.1,13.9-51.3,44.9-51.3,79
			c0,47.7,38.8,86.5,86.5,86.5c3.3,0,6.5-0.2,9.7-0.5c1.6-0.2,3.1,1,3.3,2.6s-1,3.1-2.6,3.3c-3.4,0.4-6.9,0.6-10.4,0.6
			c-51,0-92.5-41.5-92.5-92.5c0-36.5,21.5-69.6,54.8-84.5C-451.7,316.7-451.3,316.6-450.9,316.6z"/>
	</g>
</g>
</svg>
