<?xml version="1.0" encoding="utf-8"?>
<!-- Generator: Adobe Illustrator 19.1.0, SVG Export Plug-In . SVG Version: 6.00 Build 0)  -->
<svg version="1.1" id="Layer_1" xmlns="http://www.w3.org/2000/svg" xmlns:xlink="http://www.w3.org/1999/xlink" x="0px" y="0px"
	 viewBox="0 0 216.6 228.8" style="enable-background:new 0 0 216.6 228.8;" xml:space="preserve">
<style type="text/css">
	.st0{fill:#353539;}
	.st1{fill:#B2D23D;}
</style>
<path class="st0" d="M187.1,39.8c0.1-2.6-7.8-3.8-7.8-3.8c-0.1-0.4,0.3-1.6,0.3-1.6c1-0.6,0.9-2.4,0.9-2.4c0.9-0.6,1.1-1.8,1.3-2.6
	c0.2-0.8-0.7-0.7-0.7-0.7c0-0.2,0.1-1.1,0.1-1.1l0,0c0.1-0.3,0.1-0.5,0.1-0.8v0c0-2.2-1.8-4.1-4.1-4.1h-1.1c-2.2,0-4.1,1.8-4.1,4.1
	v0c0,0.3,0,0.5,0.1,0.8l0,0c0,0,0.1,0.9,0.1,1.1c0,0-0.8-0.1-0.7,0.7c0.2,0.8,0.4,2.1,1.3,2.6c0,0-0.1,1.7,0.9,2.4
	c0,0,0.5,1.2,0.3,1.6c0,0-7.9,1.3-7.8,3.8l0.1,2.4c0,0-0.3,2.1,9.7,2.3v0c0.2,0,0.4,0,0.5,0c0.2,0,0.4,0,0.5,0v0
	c10-0.1,9.7-2.3,9.7-2.3L187.1,39.8z"/>
<path class="st0" d="M45,115.9c0.1-2.6-7.8-3.8-7.8-3.8c-0.1-0.4,0.3-1.6,0.3-1.6c1-0.6,0.9-2.4,0.9-2.4c0.9-0.6,1.1-1.8,1.3-2.6
	c0.2-0.8-0.7-0.7-0.7-0.7c0-0.2,0.1-1.1,0.1-1.1l0,0c0.1-0.3,0.1-0.5,0.1-0.8v0c0-2.2-1.8-4.1-4.1-4.1h-1.1c-2.2,0-4.1,1.8-4.1,4.1
	v0c0,0.3,0,0.5,0.1,0.8l0,0c0,0,0.1,0.9,0.1,1.1c0,0-0.8-0.1-0.7,0.7c0.2,0.8,0.4,2.1,1.3,2.6c0,0-0.1,1.7,0.9,2.4
	c0,0,0.5,1.2,0.3,1.6c0,0-7.9,1.3-7.8,3.8l0.1,2.4c0,0-0.3,2.1,9.7,2.3v0c0.2,0,0.4,0,0.5,0c0.2,0,0.4,0,0.5,0v0
	c10-0.1,9.7-2.3,9.7-2.3L45,115.9z"/>
<path class="st0" d="M161.2,199.4c0.1-2.6-7.8-3.8-7.8-3.8c-0.1-0.4,0.3-1.6,0.3-1.6c1-0.6,0.9-2.4,0.9-2.4c0.9-0.6,1.1-1.8,1.3-2.6
	c0.2-0.8-0.7-0.7-0.7-0.7c0-0.2,0.1-1.1,0.1-1.1l0,0c0.1-0.3,0.1-0.5,0.1-0.8v0c0-2.2-1.8-4.1-4.1-4.1h-1.1c-2.2,0-4.1,1.8-4.1,4.1
	v0c0,0.3,0,0.5,0.1,0.8l0,0c0,0,0.1,0.9,0.1,1.1c0,0-0.8-0.1-0.7,0.7s0.4,2.1,1.3,2.6c0,0-0.1,1.7,0.9,2.4c0,0,0.5,1.2,0.3,1.6
	c0,0-7.9,1.3-7.8,3.8l0.1,2.4c0,0-0.3,2.1,9.7,2.3v0c0.2,0,0.4,0,0.5,0c0.2,0,0.4,0,0.5,0v0c10-0.1,9.7-2.3,9.7-2.3L161.2,199.4z"/>
<path class="st0" d="M177.4,138.2l-9.8-9.7V75.8c0-2-1.6-3.6-3.6-3.6H85.6c-2,0-3.6,1.6-3.6,3.6v52.5l-10.1,9.9c0,0-0.5,5.5,6.1,5.5
	h35.5h22.4h35.5C177.9,143.7,177.4,138.2,177.4,138.2z M114.3,134.9l1.4-3.6h17.2l1.6,3.6H114.3z M162.9,128.2H86.3v-52h76.6V128.2z
	"/>
<g>
	<path class="st1" d="M43.2,142.1c-1.3,0.4-2.6,0.6-4,0.8c12.9,32.2,43.5,55.5,79.7,57.7c-0.3-1.3-0.4-2.7-0.5-4
		C84.4,194.2,55.6,172.4,43.2,142.1z"/>
	<path class="st1" d="M124.6,20.8c7.7,0,15.2,1,22.4,2.9c0.5-1.3,1-2.5,1.6-3.7c-7.7-2.1-15.7-3.2-24-3.2c-40,0-74.1,25.7-86.8,61.4
		c1.4,0.1,2.7,0.4,4,0.7C54.1,45.1,86.6,20.8,124.6,20.8z"/>
	<path class="st1" d="M216.6,108.8c0-19.6-6.2-37.8-16.6-52.7c-0.9,1-1.9,1.9-2.9,2.8c9.8,14.2,15.6,31.4,15.6,49.9
		c0,28-13.2,53-33.6,69.1c0.7,1.2,1.3,2.4,1.8,3.6C202.6,164.8,216.6,138.4,216.6,108.8z"/>
	<g>
		<path class="st1" d="M176.7,69.3c-19.1,0-34.6-15.5-34.6-34.6S157.6,0,176.7,0s34.6,15.5,34.6,34.6S195.8,69.3,176.7,69.3z
			 M176.7,4c-16.9,0-30.6,13.7-30.6,30.6c0,16.9,13.7,30.6,30.6,30.6s30.6-13.7,30.6-30.6C207.4,17.7,193.6,4,176.7,4z"/>
	</g>
	<g>
		<path class="st1" d="M34.6,145.3C15.5,145.3,0,129.8,0,110.7s15.5-34.6,34.6-34.6c19.1,0,34.6,15.5,34.6,34.6
			S53.7,145.3,34.6,145.3z M34.6,80.1C17.7,80.1,4,93.8,4,110.7c0,16.9,13.7,30.6,30.6,30.6s30.6-13.7,30.6-30.6
			C65.3,93.8,51.5,80.1,34.6,80.1z"/>
	</g>
	<g>
		<path class="st1" d="M150.8,228.8c-19.1,0-34.6-15.5-34.6-34.6s15.5-34.6,34.6-34.6c19.1,0,34.6,15.5,34.6,34.6
			S169.9,228.8,150.8,228.8z M150.8,163.6c-16.9,0-30.6,13.7-30.6,30.6s13.7,30.6,30.6,30.6s30.6-13.7,30.6-30.6
			S167.7,163.6,150.8,163.6z"/>
	</g>
</g>
</svg>
