<?xml version="1.0" encoding="utf-8"?>
<!-- Generator: Adobe Illustrator 19.1.0, SVG Export Plug-In . SVG Version: 6.00 Build 0)  -->
<svg version="1.1" id="Layer_1" xmlns="http://www.w3.org/2000/svg" xmlns:xlink="http://www.w3.org/1999/xlink" x="0px" y="0px"
	 viewBox="0 0 355 346.4" style="enable-background:new 0 0 355 346.4;" xml:space="preserve">
<style type="text/css">
	.st0{clip-path:url(#SVGID_2_);fill:#FFFFFF;}
	.st1{clip-path:url(#SVGID_2_);fill:#4DC8F1;}
	.st2{clip-path:url(#SVGID_4_);fill:url(#SVGID_5_);}
	.st3{clip-path:url(#SVGID_7_);fill:url(#SVGID_8_);}
	.st4{clip-path:url(#SVGID_10_);fill:url(#SVGID_11_);}
	.st5{clip-path:url(#SVGID_13_);fill:url(#SVGID_14_);}
	.st6{clip-path:url(#SVGID_16_);fill:url(#SVGID_17_);}
	.st7{clip-path:url(#SVGID_19_);fill:url(#SVGID_20_);}
	.st8{clip-path:url(#SVGID_22_);fill:url(#SVGID_23_);}
	.st9{clip-path:url(#SVGID_25_);fill:url(#SVGID_26_);}
	.st10{clip-path:url(#SVGID_28_);fill:url(#SVGID_29_);}
	.st11{clip-path:url(#SVGID_31_);fill:url(#SVGID_32_);}
	.st12{clip-path:url(#SVGID_34_);fill:url(#SVGID_35_);}
	.st13{clip-path:url(#SVGID_37_);fill:url(#SVGID_38_);}
	.st14{clip-path:url(#SVGID_40_);fill:url(#SVGID_41_);}
	.st15{clip-path:url(#SVGID_43_);fill:url(#SVGID_44_);}
	.st16{clip-path:url(#SVGID_46_);fill:url(#SVGID_47_);}
	.st17{clip-path:url(#SVGID_49_);fill:url(#SVGID_50_);}
	.st18{clip-path:url(#SVGID_52_);fill:url(#SVGID_53_);}
	.st19{clip-path:url(#SVGID_55_);fill:url(#SVGID_56_);}
	.st20{clip-path:url(#SVGID_58_);fill:url(#SVGID_59_);}
	.st21{clip-path:url(#SVGID_61_);fill:url(#SVGID_62_);}
	.st22{clip-path:url(#SVGID_64_);fill:url(#SVGID_65_);}
	.st23{clip-path:url(#SVGID_67_);fill:url(#SVGID_68_);}
	.st24{clip-path:url(#SVGID_70_);fill:url(#SVGID_71_);}
	.st25{clip-path:url(#SVGID_73_);fill:#FFFFFF;}
</style>
<g>
	<defs>
		<rect id="SVGID_1_" width="355" height="346.4"/>
	</defs>
	<clipPath id="SVGID_2_">
		<use xlink:href="#SVGID_1_"  style="overflow:visible;"/>
	</clipPath>
	<path class="st0" d="M184.8,323c-82.3,0-149.3-67-149.3-149.3c0-82.3,67-149.3,149.3-149.3c82.3,0,149.3,67,149.3,149.3
		C334,256,267.1,323,184.8,323 M184.8,25.4C103,25.4,36.5,91.9,36.5,173.7C36.5,255.5,103,322,184.8,322S333,255.5,333,173.7
		C333,91.9,266.5,25.4,184.8,25.4"/>
	<polygon class="st0" points="66.3,259.2 66.2,258.2 138.2,251.5 67.3,233.1 66,229.6 74.2,210.3 73.5,209.9 48.7,224.1 47.9,227 
		62.4,231 62.2,231.9 46.8,227.7 47.8,223.4 48,223.3 73.5,208.8 75.4,209.9 67.1,229.7 68,232.3 143.7,252 	"/>
	<polygon class="st0" points="160.9,316.4 156.6,295.3 158.8,289.6 173.4,267.2 174.4,264.3 146.3,253.2 144.1,254.2 157.7,290.7 
		155.9,293 118.3,283.2 116.7,280.3 140.6,253.7 141.3,254.3 117.9,280.4 118.9,282.4 155.5,291.9 156.6,290.5 142.9,253.7 
		146.3,252.1 146.5,252.2 175.6,263.8 174.2,267.6 159.7,290 157.6,295.4 161.6,314.9 188.5,301.3 219.4,265.5 217.9,262.6 
		177.1,264.5 178.4,216.1 144.9,250.1 144.2,249.4 179.4,213.7 178.1,263.5 218.4,261.6 220.6,265.7 220.4,265.9 189.1,302.1 
		189,302.1 	"/>
	<polygon class="st0" points="157.9,316.1 157.8,316.1 139,310.5 139.3,309.6 158,315.2 222.3,313.3 231.9,301.7 230.5,299.7 
		193.2,301.2 159.8,294.3 160,293.3 193.3,300.2 231,298.7 233.1,301.7 222.7,314.2 	"/>
	
		<rect x="192.6" y="305.5" transform="matrix(0.9573 0.2891 -0.2891 0.9573 97.3093 -46.8971)" class="st0" width="29.7" height="1"/>
	<path class="st0" d="M229.2,312.2l-0.4-0.9l35.6-15.4l6.3-3.9l22.5-21.4l5-5.6l18.9-38.9l0.3-4.9l-9.8-33.8L280.2,202h-3.8
		l-5.5-71.3l31.7,35.6l19.5-10.7l2.9,1.6l2.5,18.5l4.4-2.4l0.5,0.8l-4.8,2.5l1.4,10.8l-1.7,1l-8.4-7.2l-10.5,5.6l9.9,34.2l-0.3,5.3
		l-19.1,39.2l-5.1,5.7l-22.6,21.5l-6.5,4L229.2,312.2z M277.3,201h2.7l27.3-14.6l-5.4-18.4l2.7-0.2l14.4,12.3l7.5-4l-2.4-18.3
		l-2-1.1l-19.7,10.8l-30.4-34.1L277.3,201z M319.9,180.8l7.6,6.5l0.6-0.3l-1.3-9.8L319.9,180.8z M303.2,168.9l5,17.1l10-5.4
		l-13.9-11.8L303.2,168.9z"/>
	<rect x="326.8" y="189.9" transform="matrix(0.9697 0.2442 -0.2442 0.9697 58.9744 -73.8465)" class="st0" width="1" height="22"/>
	<polygon class="st0" points="221.8,258.8 220.9,258.6 235.1,172.9 275.9,201.1 275.4,201.9 235.8,174.5 	"/>
	<path class="st0" d="M135.6,310.4L83.7,284l28.6-1.6l-33.5-33.6l-15.1,12.5l1-28l14.2,14.2l32.8-27.1l0.7-2.3l-36.8-10l-13.4-28
		l-26,4.2l9.2-43.8L64,151.5l1.2-12.3l-17.5,1.5l-2.1-2.8l1.9-18.6l2-4.5l35.4-49.7l-13,37.5l20.3,14.8l1.2,18.5l45.7-3.9l-0.5-0.7
		l-45.4-12.7l1.2-3l0.1-0.1L187,53.9l2.3,2.3l-30.1,47.1l-15,25.1l-2.9,6.5L126.8,185l53.1,26.9l-63.6,5.6l9.3-32l-28.8-14.6
		l0.4-0.9l28.6,14.5l14.5-49.8l2.9-6.7l15-25.2l29.7-46.5l-1.2-1.2l-91.6,61.2l-0.7,1.7l44.7,12.5l1.6,2.3l-47.4,4l1.9,29.2
		l-3.6,2.3l-27.1-15.2l-0.3,3.1L62.8,179l2.3-0.4l26.7-9.9l3.5,1.3l18.5,46.8l-0.2,0.5l2.1,0.6v64.6L135.6,310.4z M87.4,284.8
		l45.1,23L114.8,283v-64.2l-1.5-0.4l-0.8,2.6l-0.1,0.1l-32.8,27.1l34.9,35L87.4,284.8z M65.7,235.6l-0.8,23.6l13.4-11.1L65.7,235.6z
		 M76.3,207.3l36.4,9.9l0.1-0.2l-18.2-46.1l-2.7-1.1l-26.4,9.7l-2.2,0.4L76.3,207.3z M126.6,185.9l-8.9,30.5l58.8-5.2L126.6,185.9z
		 M46.1,142l-8.7,41.1l24.4-4l1.7-23l0.3-3.5l-1.8-1L46.1,142z M64.9,152.1l26.9,15.1l2.6-1.7l-1.8-28.6l-26.4,2.2L64.9,152.1z
		 M46.6,137.6l1.6,2l17.1-1.4l3.6-37.2l1,0.1l-3.6,37l26.3-2.2l-1.2-18.1l-20.5-14.9l11-31.9l-31.5,44.2l-1.9,4.4L46.6,137.6z"/>
	<polygon class="st0" points="143,249.4 142,249.2 156.6,173.9 153.7,170.9 97.2,169.7 97.2,168.8 154.1,170 157.7,173.5 	"/>
	<polygon class="st0" points="324.2,154.8 301.1,109.1 301.1,86.9 299.5,84.8 278.1,79.8 299.7,105.9 297.5,108.9 297.2,108.9 
		213,112.3 212.9,112.2 129.2,70.7 157.8,40.5 124.2,38.2 124.3,37.3 159.9,39.7 130.8,70.4 213.2,111.3 297,108 298.5,105.9 
		275.6,78.2 300.1,83.9 302,86.6 302,108.9 325,154.4 	"/>
	<polygon class="st0" points="140.6,128.9 91.5,83.3 91.5,83.2 82.9,65.4 83.7,65 92.3,82.7 141.3,128.2 	"/>
	<polygon class="st0" points="92.1,83.4 91.7,82.5 123.9,70.8 83.3,65.7 83.4,64.8 128,70.4 	"/>
	<polygon class="st0" points="191.2,54.6 162.3,40.5 162.7,39.7 189,52.4 175.1,25.1 176,24.7 	"/>
	<polygon class="st0" points="232.9,67.8 204.1,26.8 199.7,25.4 160.6,38.2 160.3,37.3 199.7,24.4 204.7,25.9 204.8,26.1 232.8,66 
		247,41.2 247.8,41.7 	"/>
	<polygon class="st0" points="143.3,130.1 143.1,129.2 213,111.3 272.3,80.4 272.3,78.5 232.7,67.4 192.9,55 193.1,54 233,66.4 
		273.3,77.8 273.3,80.9 273.1,81.1 213.3,112.2 	"/>
	<polygon class="st0" points="232.7,172.8 232.3,172.7 145.2,132.5 145.6,131.6 232.4,171.7 268.3,131.5 322.6,154.1 322.2,155 
		268.5,132.6 	"/>
	
		<rect x="267.7" y="138.8" transform="matrix(8.736358e-002 0.9962 -0.9962 8.736358e-002 413.6992 -112.4548)" class="st0" width="1" height="61.6"/>
	<polygon class="st0" points="181.4,209.4 180.5,209.2 199.1,131.4 143.2,131.4 143.2,130.4 200.3,130.4 	"/>
	<polygon class="st0" points="183.7,209.7 183.1,208.9 230.7,174.4 230.7,172.7 158.8,170.9 158.8,168.2 158.9,168 213,111.2 
		271.2,132.6 201,131.4 201,130.4 265.5,131.5 213.2,112.4 159.7,168.5 159.7,170 231.7,171.8 231.7,174.9 	"/>
	
		<rect x="298.5" y="100.1" transform="matrix(0.2372 0.9715 -0.9715 0.2372 349.4934 -195.0714)" class="st0" width="1" height="49.9"/>
	
		<rect x="243.8" y="62.2" transform="matrix(0.7399 0.6727 -0.6727 0.7399 113.9595 -169.3535)" class="st0" width="64.3" height="1"/>
	<polygon class="st0" points="271.1,129.9 232.9,67.9 213.1,113 190.6,56.7 191.5,56.3 213.1,110.6 232.8,65.9 271.9,129.4 	"/>
	
		<rect x="194.2" y="141.2" transform="matrix(0.3391 0.9408 -0.9408 0.3391 281.2613 -116.9657)" class="st0" width="59.2" height="1"/>
	<path class="st0" d="M234,299.7l-13.1-37.4l-41-50.5l-23.3-41.2L142,131.1l-19.1-93.2l0.9-0.2l19.1,93.2l14.7,39.5l23.1,40.9
		l97.6-7.7l42.5,20.5L303,240.1l-5.4,25.4l-0.2,0.1l-21,10.4l1.3-67.8l-14.9,27.7l0.4,0.1l-39.3,25.9l51.5,14.1l-7.7,18.3L234,299.7
		z M222,262.4l12.7,36.2l32.4-5.3l7-16.8L222,262.4z M278.7,204.7l-1.4,69.7l19.4-9.6l5.3-25.3l17-15.4L278.7,204.7z M181,211.6
		l40.8,50.3l0.1,0.2l39-25.8L181,211.6z M185,211.8l76.8,23.7l16.7-30.9l-0.4-0.2L185,211.8z"/>
	<polygon class="st0" points="272.4,274.5 261.4,237.5 299.8,239.3 299.8,240.3 262.7,238.6 273.3,274.2 	"/>
	<path class="st1" d="M9.4,221.8c0,2.6-2.1,4.7-4.7,4.7S0,224.4,0,221.8c0-2.6,2.1-4.7,4.7-4.7S9.4,219.2,9.4,221.8"/>
	<path class="st1" d="M82.7,309c0,2.6-2.1,4.7-4.7,4.7c-2.6,0-4.7-2.1-4.7-4.7s2.1-4.7,4.7-4.7C80.6,304.3,82.7,306.4,82.7,309"/>
	<path class="st1" d="M131,4.7c0,2.6-2.1,4.7-4.7,4.7c-2.6,0-4.7-2.1-4.7-4.7c0-2.6,2.1-4.7,4.7-4.7C128.9,0,131,2.1,131,4.7"/>
	<path class="st1" d="M189.4,339.7c0,2.6-2.1,4.7-4.7,4.7c-2.6,0-4.7-2.1-4.7-4.7s2.1-4.7,4.7-4.7
		C187.3,335,189.4,337.1,189.4,339.7"/>
	<path class="st1" d="M285.6,34.7c0,2.6-2.1,4.7-4.7,4.7c-2.6,0-4.7-2.1-4.7-4.7c0-2.6,2.1-4.7,4.7-4.7
		C283.5,30,285.6,32.1,285.6,34.7"/>
	<path class="st1" d="M293.7,302.7c0,2.6-2.1,4.7-4.7,4.7c-2.6,0-4.7-2.1-4.7-4.7c0-2.6,2.1-4.7,4.7-4.7
		C291.6,298,293.7,300.1,293.7,302.7"/>
</g>
<g>
	<defs>
		<path id="SVGID_3_" d="M146.8,109c0,4.8,3.8,8.6,8.6,8.6c4.7,0,8.6-3.8,8.6-8.6s-3.9-8.6-8.6-8.6
			C150.6,100.4,146.8,104.3,146.8,109"/>
	</defs>
	<clipPath id="SVGID_4_">
		<use xlink:href="#SVGID_3_"  style="overflow:visible;"/>
	</clipPath>
	
		<radialGradient id="SVGID_5_" cx="0" cy="346.368" r="1" gradientTransform="matrix(0 178.6938 178.6938 0 -61710.1992 171.014)" gradientUnits="userSpaceOnUse">
		<stop  offset="0" style="stop-color:#00A8E1"/>
		<stop  offset="0.2288" style="stop-color:#00A8E1"/>
		<stop  offset="1" style="stop-color:#B2D23D"/>
	</radialGradient>
	<rect x="146.8" y="100.4" class="st2" width="17.2" height="17.2"/>
</g>
<g>
	<defs>
		<path id="SVGID_6_" d="M55.4,156.2c0,4.7,3.9,8.6,8.6,8.6c4.7,0,8.6-3.9,8.6-8.6c0-4.8-3.9-8.6-8.6-8.6
			C59.2,147.6,55.4,151.4,55.4,156.2"/>
	</defs>
	<clipPath id="SVGID_7_">
		<use xlink:href="#SVGID_6_"  style="overflow:visible;"/>
	</clipPath>
	
		<radialGradient id="SVGID_8_" cx="0" cy="346.368" r="1" gradientTransform="matrix(0 178.6938 178.6938 0 -61710.1992 171.014)" gradientUnits="userSpaceOnUse">
		<stop  offset="0" style="stop-color:#00A8E1"/>
		<stop  offset="0.2288" style="stop-color:#00A8E1"/>
		<stop  offset="1" style="stop-color:#B2D23D"/>
	</radialGradient>
	<rect x="55.4" y="147.6" class="st3" width="17.2" height="17.2"/>
</g>
<g>
	<defs>
		<path id="SVGID_9_" d="M74.7,40.1c0,4.8,3.9,8.6,8.6,8.6s8.6-3.8,8.6-8.6s-3.8-8.6-8.6-8.6S74.7,35.3,74.7,40.1"/>
	</defs>
	<clipPath id="SVGID_10_">
		<use xlink:href="#SVGID_9_"  style="overflow:visible;"/>
	</clipPath>
	
		<radialGradient id="SVGID_11_" cx="0" cy="346.368" r="1" gradientTransform="matrix(0 178.6938 178.6938 0 -61710.1992 171.014)" gradientUnits="userSpaceOnUse">
		<stop  offset="0" style="stop-color:#00A8E1"/>
		<stop  offset="0.2288" style="stop-color:#00A8E1"/>
		<stop  offset="1" style="stop-color:#B2D23D"/>
	</radialGradient>
	<rect x="74.7" y="31.5" class="st4" width="17.2" height="17.2"/>
</g>
<g>
	<defs>
		<path id="SVGID_12_" d="M220.4,26.5c0,4.8,3.8,8.6,8.6,8.6c4.7,0,8.6-3.9,8.6-8.6s-3.9-8.6-8.6-8.6
			C224.2,17.9,220.4,21.8,220.4,26.5"/>
	</defs>
	<clipPath id="SVGID_13_">
		<use xlink:href="#SVGID_12_"  style="overflow:visible;"/>
	</clipPath>
	
		<radialGradient id="SVGID_14_" cx="0" cy="346.368" r="1" gradientTransform="matrix(0 178.6938 178.6938 0 -61710.1992 171.014)" gradientUnits="userSpaceOnUse">
		<stop  offset="0" style="stop-color:#00A8E1"/>
		<stop  offset="0.2288" style="stop-color:#00A8E1"/>
		<stop  offset="1" style="stop-color:#B2D23D"/>
	</radialGradient>
	<rect x="220.4" y="17.9" class="st5" width="17.2" height="17.2"/>
</g>
<g>
	<defs>
		<path id="SVGID_15_" d="M322.4,86.7c0,4.7,3.9,8.6,8.6,8.6c4.7,0,8.6-3.9,8.6-8.6c0-4.7-3.9-8.6-8.6-8.6
			C326.3,78.1,322.4,82,322.4,86.7"/>
	</defs>
	<clipPath id="SVGID_16_">
		<use xlink:href="#SVGID_15_"  style="overflow:visible;"/>
	</clipPath>
	
		<radialGradient id="SVGID_17_" cx="0" cy="346.368" r="1" gradientTransform="matrix(0 178.6938 178.6938 0 -61710.1992 171.014)" gradientUnits="userSpaceOnUse">
		<stop  offset="0" style="stop-color:#00A8E1"/>
		<stop  offset="0.2288" style="stop-color:#00A8E1"/>
		<stop  offset="1" style="stop-color:#B2D23D"/>
	</radialGradient>
	<rect x="322.4" y="78.1" class="st6" width="17.2" height="17.2"/>
</g>
<g>
	<defs>
		<path id="SVGID_18_" d="M337.8,135.7c0,4.7,3.8,8.6,8.6,8.6s8.6-3.9,8.6-8.6c0-4.8-3.9-8.6-8.6-8.6S337.8,130.9,337.8,135.7"/>
	</defs>
	<clipPath id="SVGID_19_">
		<use xlink:href="#SVGID_18_"  style="overflow:visible;"/>
	</clipPath>
	
		<radialGradient id="SVGID_20_" cx="0" cy="346.368" r="1" gradientTransform="matrix(0 178.6938 178.6938 0 -61710.1992 171.014)" gradientUnits="userSpaceOnUse">
		<stop  offset="0" style="stop-color:#00A8E1"/>
		<stop  offset="0.2288" style="stop-color:#00A8E1"/>
		<stop  offset="1" style="stop-color:#B2D23D"/>
	</radialGradient>
	<rect x="337.8" y="127.1" class="st7" width="17.2" height="17.2"/>
</g>
<g>
	<defs>
		<path id="SVGID_21_" d="M105.9,195.8c0,4.8,3.9,8.6,8.6,8.6c4.8,0,8.6-3.9,8.6-8.6c0-4.7-3.9-8.6-8.6-8.6
			C109.7,187.2,105.9,191,105.9,195.8"/>
	</defs>
	<clipPath id="SVGID_22_">
		<use xlink:href="#SVGID_21_"  style="overflow:visible;"/>
	</clipPath>
	
		<radialGradient id="SVGID_23_" cx="0" cy="346.368" r="1" gradientTransform="matrix(0 178.6938 178.6938 0 -61710.1992 171.014)" gradientUnits="userSpaceOnUse">
		<stop  offset="0" style="stop-color:#00A8E1"/>
		<stop  offset="0.2288" style="stop-color:#00A8E1"/>
		<stop  offset="1" style="stop-color:#B2D23D"/>
	</radialGradient>
	<rect x="105.9" y="187.2" class="st8" width="17.2" height="17.2"/>
</g>
<g>
	<defs>
		<path id="SVGID_24_" d="M10.1,194.1c0,4.8,3.8,8.6,8.6,8.6c4.8,0,8.6-3.8,8.6-8.6c0-4.7-3.9-8.6-8.6-8.6
			C13.9,185.5,10.1,189.3,10.1,194.1"/>
	</defs>
	<clipPath id="SVGID_25_">
		<use xlink:href="#SVGID_24_"  style="overflow:visible;"/>
	</clipPath>
	
		<radialGradient id="SVGID_26_" cx="0" cy="346.368" r="1" gradientTransform="matrix(0 178.6938 178.6938 0 -61710.1992 171.014)" gradientUnits="userSpaceOnUse">
		<stop  offset="0" style="stop-color:#00A8E1"/>
		<stop  offset="0.2288" style="stop-color:#00A8E1"/>
		<stop  offset="1" style="stop-color:#B2D23D"/>
	</radialGradient>
	<rect x="10.1" y="185.5" class="st9" width="17.2" height="17.2"/>
</g>
<g>
	<defs>
		<path id="SVGID_27_" d="M89.5,269.4c0,4.8,3.9,8.6,8.6,8.6c4.7,0,8.6-3.9,8.6-8.6c0-4.8-3.9-8.6-8.6-8.6
			C93.4,260.8,89.5,264.7,89.5,269.4"/>
	</defs>
	<clipPath id="SVGID_28_">
		<use xlink:href="#SVGID_27_"  style="overflow:visible;"/>
	</clipPath>
	
		<radialGradient id="SVGID_29_" cx="0" cy="346.368" r="1" gradientTransform="matrix(0 178.6938 178.6938 0 -61710.1992 171.014)" gradientUnits="userSpaceOnUse">
		<stop  offset="0" style="stop-color:#00A8E1"/>
		<stop  offset="0.2288" style="stop-color:#00A8E1"/>
		<stop  offset="1" style="stop-color:#B2D23D"/>
	</radialGradient>
	<rect x="89.5" y="260.8" class="st10" width="17.2" height="17.2"/>
</g>
<g>
	<defs>
		<path id="SVGID_30_" d="M126.3,312.6c0,4.8,3.9,8.6,8.6,8.6c4.8,0,8.6-3.9,8.6-8.6c0-4.8-3.9-8.6-8.6-8.6
			C130.1,304,126.3,307.8,126.3,312.6"/>
	</defs>
	<clipPath id="SVGID_31_">
		<use xlink:href="#SVGID_30_"  style="overflow:visible;"/>
	</clipPath>
	
		<radialGradient id="SVGID_32_" cx="0" cy="346.368" r="1" gradientTransform="matrix(0 178.6938 178.6938 0 -61710.1992 171.014)" gradientUnits="userSpaceOnUse">
		<stop  offset="0" style="stop-color:#00A8E1"/>
		<stop  offset="0.2288" style="stop-color:#00A8E1"/>
		<stop  offset="1" style="stop-color:#B2D23D"/>
	</radialGradient>
	<rect x="126.3" y="304" class="st11" width="17.2" height="17.2"/>
</g>
<g>
	<defs>
		<path id="SVGID_33_" d="M182.5,248.4c0,4.8,3.9,8.6,8.6,8.6c4.8,0,8.6-3.9,8.6-8.6c0-4.7-3.8-8.6-8.6-8.6
			C186.3,239.8,182.5,243.7,182.5,248.4"/>
	</defs>
	<clipPath id="SVGID_34_">
		<use xlink:href="#SVGID_33_"  style="overflow:visible;"/>
	</clipPath>
	
		<radialGradient id="SVGID_35_" cx="0" cy="346.368" r="1" gradientTransform="matrix(0 178.6938 178.6938 0 -61710.1992 171.014)" gradientUnits="userSpaceOnUse">
		<stop  offset="0" style="stop-color:#00A8E1"/>
		<stop  offset="0.2288" style="stop-color:#00A8E1"/>
		<stop  offset="1" style="stop-color:#B2D23D"/>
	</radialGradient>
	<rect x="182.5" y="239.8" class="st12" width="17.2" height="17.2"/>
</g>
<g>
	<defs>
		<path id="SVGID_36_" d="M247.4,210.1c0,4.8,3.8,8.6,8.6,8.6c4.8,0,8.6-3.9,8.6-8.6s-3.9-8.6-8.6-8.6
			C251.2,201.5,247.4,205.4,247.4,210.1"/>
	</defs>
	<clipPath id="SVGID_37_">
		<use xlink:href="#SVGID_36_"  style="overflow:visible;"/>
	</clipPath>
	
		<radialGradient id="SVGID_38_" cx="0" cy="346.368" r="1" gradientTransform="matrix(0 178.6938 178.6938 0 -61710.1992 171.014)" gradientUnits="userSpaceOnUse">
		<stop  offset="0" style="stop-color:#00A8E1"/>
		<stop  offset="0.2288" style="stop-color:#00A8E1"/>
		<stop  offset="1" style="stop-color:#B2D23D"/>
	</radialGradient>
	<rect x="247.4" y="201.5" class="st13" width="17.2" height="17.2"/>
</g>
<g>
	<defs>
		<path id="SVGID_39_" d="M318.8,214.8c0,4.8,3.9,8.6,8.6,8.6c4.8,0,8.6-3.9,8.6-8.6s-3.9-8.6-8.6-8.6
			C322.6,206.2,318.8,210,318.8,214.8"/>
	</defs>
	<clipPath id="SVGID_40_">
		<use xlink:href="#SVGID_39_"  style="overflow:visible;"/>
	</clipPath>
	
		<radialGradient id="SVGID_41_" cx="0" cy="346.368" r="1" gradientTransform="matrix(0 178.6938 178.6938 0 -61710.1992 171.014)" gradientUnits="userSpaceOnUse">
		<stop  offset="0" style="stop-color:#00A8E1"/>
		<stop  offset="0.2288" style="stop-color:#00A8E1"/>
		<stop  offset="1" style="stop-color:#B2D23D"/>
	</radialGradient>
	<rect x="318.8" y="206.2" class="st14" width="17.2" height="17.2"/>
</g>
<g>
	<defs>
		<path id="SVGID_42_" d="M209.5,337.8c0,4.8,3.9,8.6,8.6,8.6c4.8,0,8.6-3.9,8.6-8.6c0-4.8-3.9-8.6-8.6-8.6
			C213.4,329.2,209.5,333,209.5,337.8"/>
	</defs>
	<clipPath id="SVGID_43_">
		<use xlink:href="#SVGID_42_"  style="overflow:visible;"/>
	</clipPath>
	
		<radialGradient id="SVGID_44_" cx="0" cy="346.368" r="1" gradientTransform="matrix(0 178.6938 178.6938 0 -61710.1992 171.014)" gradientUnits="userSpaceOnUse">
		<stop  offset="0" style="stop-color:#00A8E1"/>
		<stop  offset="0.2288" style="stop-color:#00A8E1"/>
		<stop  offset="1" style="stop-color:#B2D23D"/>
	</radialGradient>
	<rect x="209.5" y="329.2" class="st15" width="17.2" height="17.2"/>
</g>
<g>
	<defs>
		<path id="SVGID_45_" d="M229,118.1c0,4.7,3.8,8.6,8.6,8.6c4.8,0,8.6-3.9,8.6-8.6c0-4.8-3.9-8.6-8.6-8.6
			C232.8,109.5,229,113.3,229,118.1"/>
	</defs>
	<clipPath id="SVGID_46_">
		<use xlink:href="#SVGID_45_"  style="overflow:visible;"/>
	</clipPath>
	
		<radialGradient id="SVGID_47_" cx="0" cy="346.368" r="1" gradientTransform="matrix(0 178.6938 178.6938 0 -61710.1992 171.014)" gradientUnits="userSpaceOnUse">
		<stop  offset="0" style="stop-color:#00A8E1"/>
		<stop  offset="0.2288" style="stop-color:#00A8E1"/>
		<stop  offset="1" style="stop-color:#B2D23D"/>
	</radialGradient>
	<rect x="229" y="109.5" class="st16" width="17.2" height="17.2"/>
</g>
<g>
	<defs>
		<path id="SVGID_48_" d="M86.6,83c0,3,2.4,5.4,5.4,5.4s5.4-2.4,5.4-5.4s-2.4-5.4-5.4-5.4S86.6,80,86.6,83"/>
	</defs>
	<clipPath id="SVGID_49_">
		<use xlink:href="#SVGID_48_"  style="overflow:visible;"/>
	</clipPath>
	
		<radialGradient id="SVGID_50_" cx="0" cy="346.368" r="1" gradientTransform="matrix(0 178.6938 178.6938 0 -61710.1992 171.014)" gradientUnits="userSpaceOnUse">
		<stop  offset="0" style="stop-color:#00A8E1"/>
		<stop  offset="0.2288" style="stop-color:#00A8E1"/>
		<stop  offset="1" style="stop-color:#B2D23D"/>
	</radialGradient>
	<rect x="86.6" y="77.6" class="st17" width="10.7" height="10.7"/>
</g>
<g>
	<defs>
		<path id="SVGID_51_" d="M153.5,40.1c0,3,2.4,5.4,5.4,5.4s5.4-2.4,5.4-5.4s-2.4-5.4-5.4-5.4S153.5,37.1,153.5,40.1"/>
	</defs>
	<clipPath id="SVGID_52_">
		<use xlink:href="#SVGID_51_"  style="overflow:visible;"/>
	</clipPath>
	
		<radialGradient id="SVGID_53_" cx="0" cy="346.368" r="1" gradientTransform="matrix(0 178.6938 178.6938 0 -61710.1992 171.014)" gradientUnits="userSpaceOnUse">
		<stop  offset="0" style="stop-color:#00A8E1"/>
		<stop  offset="0.2288" style="stop-color:#00A8E1"/>
		<stop  offset="1" style="stop-color:#B2D23D"/>
	</radialGradient>
	<rect x="153.5" y="34.7" class="st18" width="10.7" height="10.7"/>
</g>
<g>
	<defs>
		<path id="SVGID_54_" d="M137,130.9c0,3,2.4,5.4,5.4,5.4s5.4-2.4,5.4-5.4c0-3-2.4-5.4-5.4-5.4S137,127.9,137,130.9"/>
	</defs>
	<clipPath id="SVGID_55_">
		<use xlink:href="#SVGID_54_"  style="overflow:visible;"/>
	</clipPath>
	
		<radialGradient id="SVGID_56_" cx="0" cy="346.368" r="1" gradientTransform="matrix(0 178.6938 178.6938 0 -61710.1992 171.014)" gradientUnits="userSpaceOnUse">
		<stop  offset="0" style="stop-color:#00A8E1"/>
		<stop  offset="0.2288" style="stop-color:#00A8E1"/>
		<stop  offset="1" style="stop-color:#B2D23D"/>
	</radialGradient>
	<rect x="137" y="125.5" class="st19" width="10.7" height="10.7"/>
</g>
<g>
	<defs>
		<path id="SVGID_57_" d="M269.4,276.3c0,3,2.4,5.4,5.4,5.4s5.4-2.4,5.4-5.4s-2.4-5.4-5.4-5.4S269.4,273.3,269.4,276.3"/>
	</defs>
	<clipPath id="SVGID_58_">
		<use xlink:href="#SVGID_57_"  style="overflow:visible;"/>
	</clipPath>
	
		<radialGradient id="SVGID_59_" cx="0" cy="346.368" r="1" gradientTransform="matrix(0 178.6938 178.6938 0 -61710.1992 171.014)" gradientUnits="userSpaceOnUse">
		<stop  offset="0" style="stop-color:#00A8E1"/>
		<stop  offset="0.2288" style="stop-color:#00A8E1"/>
		<stop  offset="1" style="stop-color:#B2D23D"/>
	</radialGradient>
	<rect x="269.4" y="270.9" class="st20" width="10.7" height="10.7"/>
</g>
<g>
	<defs>
		<path id="SVGID_60_" d="M297.2,166.9c0,3,2.4,5.4,5.4,5.4s5.4-2.4,5.4-5.4s-2.4-5.4-5.4-5.4S297.2,163.9,297.2,166.9"/>
	</defs>
	<clipPath id="SVGID_61_">
		<use xlink:href="#SVGID_60_"  style="overflow:visible;"/>
	</clipPath>
	
		<radialGradient id="SVGID_62_" cx="0" cy="346.368" r="1" gradientTransform="matrix(0 178.6938 178.6938 0 -61710.1992 171.014)" gradientUnits="userSpaceOnUse">
		<stop  offset="0" style="stop-color:#00A8E1"/>
		<stop  offset="0.2288" style="stop-color:#00A8E1"/>
		<stop  offset="1" style="stop-color:#B2D23D"/>
	</radialGradient>
	<rect x="297.2" y="161.5" class="st21" width="10.7" height="10.7"/>
</g>
<g>
	<defs>
		<path id="SVGID_63_" d="M59.9,232.7c0,3,2.4,5.4,5.4,5.4c3,0,5.4-2.4,5.4-5.4s-2.4-5.4-5.4-5.4C62.3,227.3,59.9,229.7,59.9,232.7"
			/>
	</defs>
	<clipPath id="SVGID_64_">
		<use xlink:href="#SVGID_63_"  style="overflow:visible;"/>
	</clipPath>
	
		<radialGradient id="SVGID_65_" cx="0" cy="346.368" r="1" gradientTransform="matrix(0 178.6938 178.6938 0 -61710.1992 171.014)" gradientUnits="userSpaceOnUse">
		<stop  offset="0" style="stop-color:#00A8E1"/>
		<stop  offset="0.2288" style="stop-color:#00A8E1"/>
		<stop  offset="1" style="stop-color:#B2D23D"/>
	</radialGradient>
	<rect x="59.9" y="227.3" class="st22" width="10.7" height="10.7"/>
</g>
<g>
	<defs>
		<path id="SVGID_66_" d="M295.5,108.5c0,3,2.4,5.4,5.4,5.4s5.4-2.4,5.4-5.4c0-3-2.4-5.4-5.4-5.4S295.5,105.5,295.5,108.5"/>
	</defs>
	<clipPath id="SVGID_67_">
		<use xlink:href="#SVGID_66_"  style="overflow:visible;"/>
	</clipPath>
	
		<radialGradient id="SVGID_68_" cx="0" cy="346.368" r="1" gradientTransform="matrix(0 178.6938 178.6938 0 -61710.1992 171.014)" gradientUnits="userSpaceOnUse">
		<stop  offset="0" style="stop-color:#00A8E1"/>
		<stop  offset="0.2288" style="stop-color:#00A8E1"/>
		<stop  offset="1" style="stop-color:#B2D23D"/>
	</radialGradient>
	<rect x="295.5" y="103.1" class="st23" width="10.7" height="10.7"/>
</g>
<g>
	<defs>
		<path id="SVGID_69_" d="M208.5,112.7c0,3,2.4,5.4,5.4,5.4s5.4-2.4,5.4-5.4c0-3-2.4-5.4-5.4-5.4S208.5,109.8,208.5,112.7"/>
	</defs>
	<clipPath id="SVGID_70_">
		<use xlink:href="#SVGID_69_"  style="overflow:visible;"/>
	</clipPath>
	
		<radialGradient id="SVGID_71_" cx="0" cy="346.368" r="1" gradientTransform="matrix(0 178.6938 178.6938 0 -61710.1992 171.014)" gradientUnits="userSpaceOnUse">
		<stop  offset="0" style="stop-color:#00A8E1"/>
		<stop  offset="0.2288" style="stop-color:#00A8E1"/>
		<stop  offset="1" style="stop-color:#B2D23D"/>
	</radialGradient>
	<rect x="208.5" y="107.4" class="st24" width="10.7" height="10.7"/>
</g>
<g>
	<defs>
		<rect id="SVGID_72_" width="355" height="346.4"/>
	</defs>
	<clipPath id="SVGID_73_">
		<use xlink:href="#SVGID_72_"  style="overflow:visible;"/>
	</clipPath>
	<path class="st25" d="M134,70.6c0,3-2.4,5.4-5.4,5.4s-5.4-2.4-5.4-5.4c0-3,2.4-5.4,5.4-5.4S134,67.6,134,70.6"/>
	<path class="st25" d="M180.9,22.3c0,3-2.4,5.4-5.4,5.4s-5.4-2.4-5.4-5.4c0-3,2.4-5.4,5.4-5.4S180.9,19.4,180.9,22.3"/>
	<path class="st25" d="M207.4,24.9c0,3-2.4,5.4-5.4,5.4s-5.4-2.4-5.4-5.4c0-3,2.4-5.4,5.4-5.4S207.4,22,207.4,24.9"/>
	<path class="st25" d="M195.5,53.5c0,3-2.4,5.4-5.4,5.4s-5.4-2.4-5.4-5.4c0-3,2.4-5.4,5.4-5.4S195.5,50.5,195.5,53.5"/>
	<path class="st25" d="M281.5,79c0,3-2.4,5.4-5.4,5.4s-5.4-2.4-5.4-5.4c0-3,2.4-5.4,5.4-5.4S281.5,76,281.5,79"/>
	<path class="st25" d="M97.2,117.2c0,3-2.4,5.4-5.4,5.4c-3,0-5.4-2.4-5.4-5.4c0-3,2.4-5.4,5.4-5.4C94.8,111.8,97.2,114.2,97.2,117.2
		"/>
	<path class="st25" d="M267.4,238c0,3-2.4,5.4-5.4,5.4s-5.4-2.4-5.4-5.4s2.4-5.4,5.4-5.4S267.4,235.1,267.4,238"/>
	<path class="st25" d="M67.7,179.1c0,3-2.4,5.4-5.4,5.4c-3,0-5.4-2.4-5.4-5.4c0-3,2.4-5.4,5.4-5.4C65.3,173.7,67.7,176.1,67.7,179.1
		"/>
	<path class="st25" d="M81.3,207.7c0,3-2.4,5.4-5.4,5.4c-3,0-5.4-2.4-5.4-5.4c0-3,2.4-5.4,5.4-5.4C78.9,202.3,81.3,204.7,81.3,207.7
		"/>
	<path class="st25" d="M51.1,226.1c0,3-2.4,5.4-5.4,5.4c-3,0-5.4-2.4-5.4-5.4c0-3,2.4-5.4,5.4-5.4C48.7,220.7,51.1,223.1,51.1,226.1
		"/>
	<path class="st25" d="M70.6,260.2c0,3-2.4,5.4-5.4,5.4c-3,0-5.4-2.4-5.4-5.4s2.4-5.4,5.4-5.4C68.2,254.9,70.6,257.3,70.6,260.2"/>
	<path class="st25" d="M90.9,284.4c0,3-2.4,5.4-5.4,5.4c-3,0-5.4-2.4-5.4-5.4c0-3,2.4-5.4,5.4-5.4C88.5,279,90.9,281.4,90.9,284.4"
		/>
	<path class="st25" d="M120.6,282.8c0,3-2.4,5.4-5.4,5.4c-3,0-5.4-2.4-5.4-5.4s2.4-5.4,5.4-5.4C118.2,277.4,120.6,279.8,120.6,282.8
		"/>
	<path class="st25" d="M163.3,292.4c0,3-2.4,5.4-5.4,5.4s-5.4-2.4-5.4-5.4c0-3,2.4-5.4,5.4-5.4S163.3,289.5,163.3,292.4"/>
	<path class="st25" d="M166.6,317.1c0,3-2.4,5.4-5.4,5.4s-5.4-2.4-5.4-5.4s2.4-5.4,5.4-5.4S166.6,314.2,166.6,317.1"/>
	<path class="st25" d="M196.4,301.7c0,3-2.4,5.4-5.4,5.4s-5.4-2.4-5.4-5.4s2.4-5.4,5.4-5.4S196.4,298.7,196.4,301.7"/>
	<path class="st25" d="M226.7,262.1c0,3-2.4,5.4-5.4,5.4s-5.4-2.4-5.4-5.4c0-3,2.4-5.4,5.4-5.4S226.7,259.1,226.7,262.1"/>
	<path class="st25" d="M239.7,299.2c0,3-2.4,5.4-5.4,5.4s-5.4-2.4-5.4-5.4s2.4-5.4,5.4-5.4S239.7,296.2,239.7,299.2"/>
	<path class="st25" d="M230.8,311.8c0,3-2.4,5.4-5.4,5.4s-5.4-2.4-5.4-5.4s2.4-5.4,5.4-5.4S230.8,308.8,230.8,311.8"/>
	<path class="st25" d="M272.7,293.8c0,3-2.4,5.4-5.4,5.4c-3,0-5.4-2.4-5.4-5.4s2.4-5.4,5.4-5.4C270.3,288.5,272.7,290.9,272.7,293.8
		"/>
	<path class="st25" d="M300.7,267.5c0,3-2.4,5.4-5.4,5.4s-5.4-2.4-5.4-5.4c0-3,2.4-5.4,5.4-5.4S300.7,264.5,300.7,267.5"/>
	<path class="st25" d="M306.9,239.8c0,3-2.4,5.4-5.4,5.4s-5.4-2.4-5.4-5.4c0-3,2.4-5.4,5.4-5.4S306.9,236.9,306.9,239.8"/>
	<path class="st25" d="M325.3,224.1c0,3-2.4,5.4-5.4,5.4s-5.4-2.4-5.4-5.4s2.4-5.4,5.4-5.4S325.3,221.1,325.3,224.1"/>
	<path class="st25" d="M283.6,204c0,3-2.4,5.4-5.4,5.4s-5.4-2.4-5.4-5.4c0-3,2.4-5.4,5.4-5.4S283.6,201,283.6,204"/>
	<path class="st25" d="M239.8,172.2c0,3-2.4,5.4-5.4,5.4s-5.4-2.4-5.4-5.4c0-3,2.4-5.4,5.4-5.4S239.8,169.3,239.8,172.2"/>
	<path class="st25" d="M276.8,132c0,3-2.4,5.4-5.4,5.4s-5.4-2.4-5.4-5.4c0-3,2.4-5.4,5.4-5.4S276.8,129.1,276.8,132"/>
	<path class="st25" d="M330,156.2c0,3-2.4,5.4-5.4,5.4s-5.4-2.4-5.4-5.4c0-3,2.4-5.4,5.4-5.4S330,153.2,330,156.2"/>
	<path class="st25" d="M338.9,173.7c0,3-2.4,5.4-5.4,5.4s-5.4-2.4-5.4-5.4c0-3,2.4-5.4,5.4-5.4S338.9,170.7,338.9,173.7"/>
	<path class="st25" d="M335.3,190.2c0,3-2.4,5.4-5.4,5.4s-5.4-2.4-5.4-5.4c0-3,2.4-5.4,5.4-5.4S335.3,187.3,335.3,190.2"/>
	<path class="st25" d="M180.9,264c0,3-2.4,5.4-5.4,5.4s-5.4-2.4-5.4-5.4s2.4-5.4,5.4-5.4S180.9,261.1,180.9,264"/>
	<path class="st25" d="M147.9,251.8c0,3-2.4,5.4-5.4,5.4s-5.4-2.4-5.4-5.4s2.4-5.4,5.4-5.4S147.9,248.8,147.9,251.8"/>
	<path class="st25" d="M185.7,211.5c0,3-2.4,5.4-5.4,5.4s-5.4-2.4-5.4-5.4c0-3,2.4-5.4,5.4-5.4S185.7,208.6,185.7,211.5"/>
	<path class="st25" d="M120.6,218.4c0,3-2.4,5.4-5.4,5.4c-3,0-5.4-2.4-5.4-5.4s2.4-5.4,5.4-5.4C118.2,213,120.6,215.4,120.6,218.4"
		/>
	<path class="st25" d="M41.3,184.4c0,3-2.4,5.4-5.4,5.4c-3,0-5.4-2.4-5.4-5.4c0-3,2.4-5.4,5.4-5.4C38.9,179.1,41.3,181.5,41.3,184.4
		"/>
	<path class="st25" d="M74.7,101.1c0,3-2.4,5.4-5.4,5.4c-3,0-5.4-2.4-5.4-5.4c0-3,2.4-5.4,5.4-5.4C72.3,95.7,74.7,98.1,74.7,101.1"
		/>
	<path class="st25" d="M53.3,117.2c0,3-2.4,5.4-5.4,5.4c-3,0-5.4-2.4-5.4-5.4c0-3,2.4-5.4,5.4-5.4C50.9,111.8,53.3,114.2,53.3,117.2
		"/>
	<path class="st25" d="M49.9,140.2c0,3-2.4,5.4-5.4,5.4c-3,0-5.4-2.4-5.4-5.4c0-3,2.4-5.4,5.4-5.4C47.5,134.8,49.9,137.2,49.9,140.2
		"/>
	<path class="st25" d="M100.3,169.3c0,3-2.4,5.4-5.4,5.4c-3,0-5.4-2.4-5.4-5.4c0-3,2.4-5.4,5.4-5.4
		C97.9,163.9,100.3,166.3,100.3,169.3"/>
	<path class="st25" d="M162.5,170.4c0,3-2.4,5.4-5.4,5.4s-5.4-2.4-5.4-5.4c0-3,2.4-5.4,5.4-5.4S162.5,167.5,162.5,170.4"/>
	<path class="st25" d="M307.9,84.3c0,3-2.4,5.4-5.4,5.4s-5.4-2.4-5.4-5.4c0-3,2.4-5.4,5.4-5.4S307.9,81.4,307.9,84.3"/>
	<path class="st25" d="M328.6,118.1c0,3-2.4,5.4-5.4,5.4s-5.4-2.4-5.4-5.4c0-3,2.4-5.4,5.4-5.4S328.6,115.1,328.6,118.1"/>
	<path class="st25" d="M254.4,40.1c0,3-2.4,5.4-5.4,5.4s-5.4-2.4-5.4-5.4c0-3,2.4-5.4,5.4-5.4S254.4,37.1,254.4,40.1"/>
	<path class="st25" d="M128.7,37.8c0,3-2.4,5.4-5.4,5.4c-3,0-5.4-2.4-5.4-5.4c0-3,2.4-5.4,5.4-5.4C126.3,32.4,128.7,34.8,128.7,37.8
		"/>
	<path class="st25" d="M203.9,130.9c0,3-2.4,5.4-5.4,5.4s-5.4-2.4-5.4-5.4c0-3,2.4-5.4,5.4-5.4S203.9,127.9,203.9,130.9"/>
	<path class="st25" d="M90.8,64.5c0,3-2.4,5.4-5.4,5.4c-3,0-5.4-2.4-5.4-5.4c0-3,2.4-5.4,5.4-5.4C88.4,59.1,90.8,61.5,90.8,64.5"/>
	<path class="st25" d="M126.6,172.2c0-32.7,26.5-59.3,59.3-59.3c32.7,0,59.3,26.5,59.3,59.3s-26.5,59.3-59.3,59.3
		C153.1,231.5,126.6,205,126.6,172.2"/>
</g>
</svg>
