<?xml version="1.0" encoding="utf-8"?>
<!-- Generator: Adobe Illustrator 23.0.6, SVG Export Plug-In . SVG Version: 6.00 Build 0)  -->
<svg version="1.1" id="Layer_1" xmlns="http://www.w3.org/2000/svg" xmlns:xlink="http://www.w3.org/1999/xlink" x="0px" y="0px"
	 viewBox="0 0 24 24" style="enable-background:new 0 0 24 24;" xml:space="preserve">
<style type="text/css">
	.st0{fill:#003058;}
</style>
<g>
	<g>
		<path class="st0" d="M14.5,4h-11C3.2,4,3,3.8,3,3.5S3.2,3,3.5,3h11C14.8,3,15,3.2,15,3.5S14.8,4,14.5,4z"/>
	</g>
	<g>
		<path class="st0" d="M8.5,13h-5C3.2,13,3,12.8,3,12.5v-6C3,6.2,3.2,6,3.5,6h5C8.8,6,9,6.2,9,6.5v6C9,12.8,8.8,13,8.5,13z M4,12h4
			V7H4V12z"/>
	</g>
	<g>
		<path class="st0" d="M14.5,9h-3C11.2,9,11,8.8,11,8.5S11.2,8,11.5,8h3C14.8,8,15,8.2,15,8.5S14.8,9,14.5,9z"/>
	</g>
	<g>
		<path class="st0" d="M14.5,11h-4c-0.3,0-0.5-0.2-0.5-0.5s0.2-0.5,0.5-0.5h4c0.3,0,0.5,0.2,0.5,0.5S14.8,11,14.5,11z"/>
	</g>
	<g>
		<path class="st0" d="M14.5,13h-4c-0.3,0-0.5-0.2-0.5-0.5s0.2-0.5,0.5-0.5h4c0.3,0,0.5,0.2,0.5,0.5S14.8,13,14.5,13z"/>
	</g>
	<g>
		<path class="st0" d="M14.5,15h-11C3.2,15,3,14.8,3,14.5S3.2,14,3.5,14h11c0.3,0,0.5,0.2,0.5,0.5S14.8,15,14.5,15z"/>
	</g>
	<g>
		<path class="st0" d="M14.5,17h-11C3.2,17,3,16.8,3,16.5S3.2,16,3.5,16h11c0.3,0,0.5,0.2,0.5,0.5S14.8,17,14.5,17z"/>
	</g>
	<g>
		<path class="st0" d="M14.5,19h-11C3.2,19,3,18.8,3,18.5S3.2,18,3.5,18h11c0.3,0,0.5,0.2,0.5,0.5S14.8,19,14.5,19z"/>
	</g>
	<g>
		<path class="st0" d="M20.5,22c-0.8,0-1.5-0.7-1.5-1.5v-18h-1V4c0,0.3-0.2,0.5-0.5,0.5S17,4.3,17,4V2c0-0.3,0.2-0.5,0.5-0.5h2
			C19.8,1.5,20,1.7,20,2v3h1.5C21.8,5,22,5.2,22,5.5v15C22,21.3,21.3,22,20.5,22z M20,6v14.5c0,0.3,0.2,0.5,0.5,0.5s0.5-0.2,0.5-0.5
			V6H20z"/>
	</g>
	<g>
		<path class="st0" d="M20.5,24h-17C1.6,24,0,22.4,0,20.5v-20C0,0.2,0.2,0,0.5,0h17C17.8,0,18,0.2,18,0.5v20c0,1.4,1.1,2.5,2.5,2.5
			s2.5-1.1,2.5-2.5V4h-3.5C19.2,4,19,3.8,19,3.5S19.2,3,19.5,3h4C23.8,3,24,3.2,24,3.5v17C24,22.4,22.4,24,20.5,24z M1,1v19.5
			C1,21.9,2.1,23,3.5,23h14.6c-0.6-0.6-1.1-1.5-1.1-2.5V1H1z"/>
	</g>
</g>
</svg>
