<?xml version="1.0" encoding="utf-8"?>
<!-- Generator: Adobe Illustrator 23.0.6, SVG Export Plug-In . SVG Version: 6.00 Build 0)  -->
<svg version="1.1" id="Capa_1" xmlns="http://www.w3.org/2000/svg" xmlns:xlink="http://www.w3.org/1999/xlink" x="0px" y="0px"
	 viewBox="0 0 295 295" style="enable-background:new 0 0 295 295;" xml:space="preserve">
<style type="text/css">
	.st0{fill:#A8C528;}
</style>
<g>
	<path class="st0" d="M286.4,98c-13.2-37.1-40.1-66.8-75.7-83.7C175.1-2.6,135.1-4.6,98,8.7S31.2,48.8,14.3,84.3
		C-2.6,119.9-4.6,159.9,8.6,197c1.1,3.1,4.5,4.7,7.7,3.6c3.1-1.1,4.8-4.5,3.6-7.7C7.8,158.9,9.6,122.2,25.1,89.5S68,32.1,102,20
		s70.8-10.3,103.5,5.2c32.7,15.5,57.4,42.8,69.5,76.9c12.1,34.1,10.3,70.8-5.2,103.5S227,262.9,193,275.1
		c-38.2,13.6-80.1,9.5-114.9-11.3c-2.8-1.7-6.5-0.8-8.2,2.1s-0.8,6.5,2.1,8.2c23.2,13.8,49.3,20.9,75.5,20.9
		c16.7,0,33.4-2.8,49.6-8.6c37.1-13.2,66.8-40.1,83.7-75.7C297.6,175.1,299.6,135.1,286.4,98z"/>
	<path class="st0" d="M213.5,147.5c0-3.3-2.7-6-6-6H58.1c-3.3,0-6,2.7-6,6s2.7,6,6,6h149.4C210.8,153.5,213.5,150.8,213.5,147.5z"/>
	<path class="st0" d="M165.7,210.3c-2.3,2.3-2.3,6.1,0,8.5c1.2,1.2,2.7,1.8,4.2,1.8s3.1-0.6,4.2-1.8l67-67c2.3-2.3,2.3-6.1,0-8.5
		l-67-67c-2.3-2.3-6.1-2.3-8.5,0c-2.3,2.3-2.3,6.1,0,8.5l62.8,62.8L165.7,210.3z"/>
</g>
</svg>
