<?xml version="1.0" encoding="utf-8"?>
<!-- Generator: Adobe Illustrator 23.0.6, SVG Export Plug-In . SVG Version: 6.00 Build 0)  -->
<svg version="1.1" id="Layer_1" xmlns="http://www.w3.org/2000/svg" xmlns:xlink="http://www.w3.org/1999/xlink" x="0px" y="0px"
	 viewBox="0 0 200 33.9" style="enable-background:new 0 0 200 33.9;" xml:space="preserve">
<style type="text/css">
	.st0{fill:#FFFFFF;}
	.st1{fill:#0DA7E0;}
</style>
<title>Go to the home page</title>
<path class="st0" d="M6.3,25.8h4.4c1.7,0,3.4-0.3,5-1c6.6-2.8,9.6-10.3,6.9-16.9c-1.3-3.1-3.8-5.6-6.9-6.9c-1.6-0.7-3.3-1-5-1H0
	v25.8h3.6V3.7h7c1.2,0,2.4,0.2,3.5,0.7c2.3,0.9,4.1,2.7,5,5c0.9,2.3,0.9,4.8,0,7.1c-0.9,2.3-2.7,4.1-5,5c-1.1,0.5-2.3,0.7-3.5,0.7
	h-3L6.3,25.8z M26.7,25.8h3.6V7.7h-3.6V25.8z M26.7,3.7h3.6V0h-3.6V3.7z M36.3,32.3c2.1,1,4.4,1.6,6.8,1.6c4.3,0,9.3-2.4,9.3-9.3
	v-17h-3.6v2L48,9.1c-0.8-0.6-1.6-1.1-2.6-1.4c-1.1-0.4-2.2-0.6-3.3-0.6c-1.2,0-2.4,0.2-3.6,0.7c-1.1,0.5-2.1,1.2-2.9,2.1
	c-0.8,0.9-1.4,1.9-1.8,3.1c-0.4,1.2-0.7,2.5-0.7,3.8c0,1.3,0.3,2.6,0.8,3.7c0.5,1.1,1.2,2.2,2.1,3.1c0.9,0.9,1.9,1.6,3.1,2.1
	c1.2,0.5,2.4,0.7,3.7,0.7h0.1c1,0,2.1-0.2,3.1-0.5l-1.3-3.4c-0.6,0.2-1.3,0.3-1.9,0.3c-1.6,0-3.1-0.6-4.2-1.7
	c-1.1-1.1-1.8-2.6-1.7-4.2c0-3.3,2.6-6,5.9-6c0,0,0,0,0,0h0.1c1.6,0,3.1,0.6,4.2,1.7c1.1,1.1,1.7,2.6,1.7,4.2v7.6c0,5.2-3.9,6-6.1,6
	c-1.8-0.1-3.5-0.6-5.1-1.4L36.3,32.3z M56.3,25.8h3.6V7.7h-3.6V25.8z M56.3,3.7h3.6V0h-3.6V3.7z M63.8,2.8V20c0,0.8,0.2,1.5,0.5,2.3
	c0.3,0.7,0.7,1.3,1.2,1.9c0.5,0.5,1.1,1,1.8,1.3c0.7,0.3,1.5,0.5,2.3,0.5h3.5l-1.3-3.6h-2.2c-0.6,0-1.1-0.2-1.5-0.7
	c-0.4-0.4-0.7-1-0.7-1.5v-8.7h5.2l-1.3-3.6h-3.8V2.8H63.8z M83.2,7.1c-1.3,0-2.5,0.2-3.7,0.7c-1.1,0.5-2.1,1.2-2.9,2
	c-0.8,0.9-1.5,1.9-1.9,3.1c-0.5,1.2-0.7,2.5-0.7,3.8c0,1.3,0.2,2.5,0.7,3.7c0.4,1.1,1.1,2.2,1.9,3.1c0.8,0.9,1.8,1.6,2.9,2
	c1.2,0.5,2.4,0.8,3.7,0.7c1.2,0,2.4-0.2,3.5-0.7l-1.2-3.3c-0.6,0.2-1.3,0.3-1.9,0.3c-0.8,0-1.6-0.1-2.3-0.4
	c-0.7-0.3-1.4-0.7-1.9-1.3c-2.3-2.3-2.3-6.1,0-8.5c2.3-2.3,6.1-2.3,8.5,0c1.1,1.1,1.8,2.7,1.8,4.2c0,0,0,0.1,0,0.1v9.1h3.6V7.6h-3.6
	v2L88.8,9c-0.7-0.6-1.5-1-2.4-1.3C85.3,7.3,84.3,7.1,83.2,7.1L83.2,7.1z M97.3,25.8h3.7V0h-3.7L97.3,25.8z"/>
<path class="st1" d="M126.1,25.8h4.4l-5.3-8.2l0.5-0.2c0.8-0.4,1.5-0.8,2.1-1.4c0.6-0.6,1.2-1.2,1.6-1.9c0.5-0.7,0.8-1.5,1.1-2.3
	c0.3-0.9,0.4-1.8,0.4-2.7c0-1.2-0.2-2.4-0.7-3.5c-0.9-2.2-2.7-3.9-4.9-4.9c-1.1-0.5-2.3-0.7-3.5-0.7h-9.5v25.8h3.6V3.7h5.9
	c1.5,0,2.9,0.6,3.9,1.6c1.6,1.6,2,3.9,1.2,5.9c-0.3,0.6-0.7,1.2-1.2,1.8c-1,1.1-2.4,1.6-3.9,1.6h-2.2l-1.3,3.7h3L126.1,25.8z
	 M134.1,25.8h3.6V7.7h-3.6V25.8z M134.1,3.7h3.6V0h-3.6V3.7z M147.4,25.8h5l6.5-18.1H155L149.8,22l-5.2-14.3h-3.9L147.4,25.8z
	 M163.8,18.6h15.1c0.1-0.6,0.2-1.2,0.2-1.8c0-1.3-0.2-2.6-0.7-3.7c-1-2.3-2.8-4.1-5.1-5.1c-2.4-1-5.1-1-7.5,0
	c-2.3,1-4.1,2.8-5.1,5.1c-0.5,1.2-0.8,2.5-0.7,3.7c0,6.7,5.4,9.5,10.5,9.4c2,0,4-0.5,5.9-1.4l-1.1-3.1c-1.6,0.7-3.3,1-5.1,1
	C166.1,22.7,164.3,20.5,163.8,18.6L163.8,18.6z M175.2,14.9h-11.5l0.3-0.7c0.3-0.7,0.7-1.2,1.2-1.7c1.1-1.1,2.6-1.7,4.2-1.7
	c1.6,0,3.1,0.6,4.2,1.7c0.5,0.5,0.9,1.1,1.2,1.7L175.2,14.9z M185.9,10.1V7.6h-3.6v18.2h3.6v-9.1c0-1.6,0.6-3.1,1.7-4.2
	c1-1,2.3-1.6,3.8-1.7V7.1C189.1,7.2,187.1,8.3,185.9,10.1L185.9,10.1z"/>
<path class="st1" d="M194,8.9c0-1.6,1.3-3,3-3c1.6,0,3,1.3,3,3c0,1.6-1.3,3-3,3l0,0C195.4,11.9,194.1,10.6,194,8.9
	C194,9,194,9,194,8.9z M199.6,8.9c0-1.4-1.2-2.6-2.6-2.6c-1.4,0-2.6,1.2-2.6,2.6c0,1.4,1.2,2.6,2.6,2.6
	C198.4,11.5,199.6,10.4,199.6,8.9C199.6,8.9,199.6,8.9,199.6,8.9z M195.8,7.1h1.4c0.6-0.1,1.1,0.3,1.2,0.9c0,0.1,0,0.1,0,0.2
	c0,0.5-0.3,0.9-0.7,1l1.1,1.5h-0.8l-1-1.4h-0.5v1.4h-0.8V7.1z M197.1,8.8c0.3,0,0.6-0.3,0.6-0.6c0-0.3-0.3-0.6-0.6-0.6c0,0,0,0,0,0
	h-0.6v1.1H197.1z"/>
</svg>
