<?xml version="1.0" encoding="utf-8"?>
<!-- Generator: Adobe Illustrator 23.0.6, SVG Export Plug-In . SVG Version: 6.00 Build 0)  -->
<svg version="1.1"
	 id="Layer_1" xmlns:cc="http://creativecommons.org/ns#" xmlns:dc="http://purl.org/dc/elements/1.1/" xmlns:inkscape="http://www.inkscape.org/namespaces/inkscape" xmlns:rdf="http://www.w3.org/1999/02/22-rdf-syntax-ns#" xmlns:sodipodi="http://sodipodi.sourceforge.net/DTD/sodipodi-0.dtd" xmlns:svg="http://www.w3.org/2000/svg"
	 xmlns="http://www.w3.org/2000/svg" xmlns:xlink="http://www.w3.org/1999/xlink" x="0px" y="0px" viewBox="0 0 618.2 464.1"
	 style="enable-background:new 0 0 618.2 464.1;" xml:space="preserve">
<style type="text/css">
	.st0{fill:#0ECAD4;}
</style>
<g id="Page-1">
	<g transform="translate(-72.000000, -44.000000)">
		<g id="logo-wp-engine" transform="translate(72.000000, 44.000000)">
			<g id="Group">
				<path id="Shape" class="st0" d="M38.4,288.9h36.5v-27.7l-8.8-8.8H47.3l-8.8,8.8V288.9L38.4,288.9z M85.7,214l-8.8,8.8v19.2
					l8.8,8.8h27.7v-36.5H85.7V214z M74.9,175.2H38.4v27.7l8.8,8.8h18.8l8.8-8.8V175.2L74.9,175.2z M113.7,288.9v-27.7l-8.8-8.8H77.2
					v36.5H113.7z M8.8,175.2L0,184v27.7h36.5v-36.5H8.8z M77.2,175.2v27.7l8.8,8.8h27.7v-36.5H77.2z M56.9,237.4c-2.7,0-5-2.3-5-5
					c0-2.7,2.3-5,5-5s5,2.3,5,5C61.9,235.1,59.6,237.4,56.9,237.4z M36.5,214H0v36.5h27.7l8.8-8.8V214z M36.5,261.3l-8.8-8.8H0v36.5
					h27.7l8.8-8.8V261.3z"/>
			</g>
			<g transform="translate(42.000000, 2.000000)">
				<path d="M170.9,263.1c-0.8,0-0.8-0.4-1.2-0.8l-9.2-32.3h-0.4l-9.2,32.3c-0.4,0.8-0.4,0.8-1.2,0.8H139c-0.8,0-0.8-0.4-1.2-0.8
					l-15.8-56.1c0-0.4,0-0.8,0.8-0.8H137c0.4,0,1.2,0.4,1.2,0.8l7.3,33.8h0.4l8.8-33.8c0.4-0.8,0.4-0.8,1.2-0.8h8.8
					c0.8,0,0.8,0.4,1.2,0.8l9.2,33.8h0.4l7.3-33.8c0-0.4,0.4-0.8,1.2-0.8h14.2c0.4,0,0.8,0.4,0.8,0.8l-15.8,56.1
					c-0.4,0.8-0.4,0.8-1.2,0.8H170.9L170.9,263.1z M209.7,263.1c-0.4,0-0.8-0.4-0.8-0.8v-56.1c0-0.4,0.4-0.8,0.8-0.8h23.1
					c14.2,0,21.5,8.1,21.5,19.2s-7.3,19.2-21.5,19.2h-8.5c-0.4,0-0.4,0.4-0.4,0.4V262c0,0.4-0.4,0.8-0.8,0.8L209.7,263.1
					L209.7,263.1z M239.2,224.7c0-3.8-2.7-6.5-7.3-6.5h-7.7c-0.4,0-0.4,0.4-0.4,0.4v11.9c0,0.4,0.4,0.4,0.4,0.4h7.7
					c3.5,0.4,6.9-1.9,7.3-5.4V224.7z M274.2,248.9c-1.2-4.6-1.9-9.6-1.5-14.6c0-5,0.4-9.6,1.5-14.6c3.5-10.8,15-16.1,25.4-12.7
					c6.1,1.9,10.8,6.9,12.7,12.7c1.2,4.2,1.9,8.8,1.5,13.4c0,0.8-0.4,1.2-1.2,1.2h-36.5c-0.4,0-0.8,0.4-0.8,0.8
					c0,4.2,0.4,8.5,1.2,12.3c1.9,7.3,8.8,12.3,16.5,11.9c6.5,0.4,12.7-2.7,16.5-7.7c0.4-0.4,0.8-0.8,1.2-0.4c0,0,0.4,0,0.4,0.4
					l0.8,0.8c0.4,0.4,0.8,0.8,0.4,1.2c0,0,0,0.4-0.4,0.4c-4.2,5.8-11.5,9.2-18.8,9.2C285,263.5,276.5,257.7,274.2,248.9L274.2,248.9
					z M310.3,231.6c0.4,0,0.8,0,0.8-0.4c0-3.1-0.4-6.5-1.2-9.6c-1.9-7.3-8.5-12.3-16.1-11.9c-7.7-0.4-14.2,4.6-16.1,11.9
					c-1.2,3.1-1.5,6.1-1.2,9.6c0,0.4,0,0.8,0.4,0.8h33.4V231.6z M365.6,262c-0.8,0-1.2-0.4-1.2-1.2v-32.7c0-13.1-5.4-18.4-15.8-18.4
					c-8.8-0.4-16.5,6.5-16.9,15.4v36.1c0,0.8-0.4,1.2-1.2,1.2h-1.2c-0.8,0-1.2-0.4-1.2-1.2v-52.3c0-0.8,0.4-1.2,1.2-1.2h1.2
					c0.8,0,1.2,0.4,1.2,1.2v7.7h0.4c3.1-6.5,9.6-10.4,16.9-10c12.3,0,19.2,6.9,19.2,21.1v33.4c0,0.8-0.4,1.2-1.2,1.2L365.6,262
					L365.6,262z M384.5,275.8c-0.4-0.8-0.4-1.2,0.4-1.5l0.8-0.8c0.8-0.4,1.2-0.4,1.5,0.4c3.5,4.2,8.8,6.9,14.6,6.5
					c10.4,0,16.9-5,16.9-18.4v-9.2h-0.4c-2.7,6.9-9.6,11.1-16.9,10.4c-8.5,0.4-15.8-5-18.1-13.1c-1.5-5-1.9-10.4-1.9-15.4
					c0-5,0.4-10.4,1.9-15.4c2.3-8.1,9.6-13.4,18.1-13.1c7.3-0.8,14.2,3.5,16.9,10.4h0.4v-7.7c0-0.8,0.4-1.2,1.2-1.2h1.2
					c0.8,0,1.2,0.4,1.2,1.2v53.4c0,15-8.1,21.5-20.4,21.5C394.8,284.2,388.3,281.2,384.5,275.8L384.5,275.8z M416.7,248.9
					c1.2-4.6,1.9-9.6,1.5-14.2c0.4-5-0.4-9.6-1.5-14.2c-1.9-6.9-8.1-11.5-15-10.8c-6.9-0.4-13.1,3.8-15,10.8
					c-1.2,4.6-1.9,9.6-1.9,14.2c0,5,0.4,9.6,1.9,14.2c1.9,6.5,8.1,11.1,15,10.8C408.7,260.4,415.2,255.8,416.7,248.9z M440.6,190.9
					c-0.8,0-1.2-0.4-1.2-1.2v-4.6c0-0.8,0.4-1.2,1.2-1.2h2.7c0.8,0,1.2,0.4,1.2,1.2v4.6c0,0.8-0.4,1.2-1.2,1.2H440.6L440.6,190.9z
					 M441.3,262c-0.8,0-1.2-0.4-1.2-1.2v-51.9c0-0.8,0.4-1.2,1.2-1.2h1.2c0.8,0,1.2,0.4,1.2,1.2v51.9c0,0.8-0.4,1.2-1.2,1.2H441.3z
					 M499,262c-0.8,0-1.2-0.4-1.2-1.2v-32.7c0-13.1-5.4-18.4-15.8-18.4c-8.8-0.4-16.5,6.5-16.9,15.4v36.1c0,0.8-0.4,1.2-1.2,1.2
					h-0.8c-0.8,0-1.2-0.4-1.2-1.2v-52.3c0-0.8,0.4-1.2,1.2-1.2h1.2c0.8,0,1.2,0.4,1.2,1.2v7.7h0.4c3.1-6.5,9.6-10.4,16.5-10
					c12.3,0,19.2,6.9,19.2,21.1v33.4c0,0.8-0.4,1.2-1.2,1.2L499,262L499,262z M516.6,248.9c-1.2-4.6-1.9-9.6-1.5-14.6
					c0-5,0.4-9.6,1.5-14.6c3.5-10.8,15-16.1,25.4-12.7c6.1,1.9,10.8,6.9,12.7,12.7c1.2,4.2,1.9,8.8,1.5,13.4c0,0.8-0.4,1.2-1.2,1.2
					h-36.5c-0.4,0-0.8,0.4-0.8,0.8c0,4.2,0.4,8.5,1.2,12.3c1.9,7.3,8.8,12.3,16.5,11.9c6.5,0.4,12.7-2.7,16.5-7.7
					c0.4-0.4,0.8-0.8,1.2-0.4c0,0,0.4,0,0.4,0.4l0.8,0.8c0.4,0.4,0.8,0.8,0.4,1.2c0,0,0,0.4-0.4,0.4c-4.2,5.8-11.5,9.2-18.8,9.2
					C527.4,263.9,518.9,257.7,516.6,248.9L516.6,248.9z M552.8,231.6c0.4,0,0.8,0,0.8-0.4c0-3.1-0.4-6.5-1.2-9.6
					c-1.9-7.3-8.5-12.3-16.1-11.9c-7.7-0.4-14.2,4.6-16.1,11.9c-1.2,3.1-1.5,6.1-1.2,9.6c0,0.4,0,0.8,0.4,0.8h33.4V231.6z
					 M563.1,213.2c0-3.8,3.1-6.5,6.5-6.5c3.8,0,6.5,3.1,6.5,6.5s-3.1,6.5-6.5,6.5C566.2,219.7,563.5,217,563.1,213.2z M575.4,213.2
					c0-3.1-2.3-5.4-5.8-5.4c-3.1,0-5.4,2.3-5.4,5.8c0,3.1,2.3,5.4,5.4,5.4c3.1,0,5.4-2.3,5.8-5V213.2z M567.7,217
					C567.4,217,567.4,217,567.7,217l-0.4-7.3c0-0.4,0-0.4,0.4-0.4h2.7c1.2,0,2.3,0.8,2.3,1.9v0.4c0,1.2-0.8,1.9-1.5,1.9l1.5,3.1
					c0.4,0.4,0,0.4-0.4,0.4h-0.8c-0.4,0-0.4-0.4-0.4-0.4l-1.5-3.1h-1.5v2.7c0,0,0,0.4-0.4,0.4V217L567.7,217z M571.6,211.6
					c0-0.8-0.4-1.2-1.2-1.2h-1.9v2.3h1.9C571.2,212.8,571.6,212.4,571.6,211.6L571.6,211.6z"/>
			</g>
		</g>
	</g>
</g>
</svg>
