<svg xmlns="http://www.w3.org/2000/svg" viewBox="0 0 840 30" width="840" height="30"><g fill="none" stroke="#ffffff" stroke-width="1.3786" stroke-miterlimit="10"><path d="M6.1 12.3S4.3 1.9 15 1.5c0 0 9.3-.5 9.2 10.8" stroke-dasharray="0,32.2252987630459" stroke-dashoffset="32.225299"/><path d="M7.6 12.3v8.3s-5.3.8-5.3-4.2c0 0-.5-4.3 5.3-4.1zm14.8-.6V20s5.3.8 5.3-4.2c0 0 .5-4.3-5.3-4.1zm-9.3 15c0-.6.4-1.6 2-1.7h1.7s1.8 0 1.8 1.8-1.8 1.8-1.8 1.8h-1.7s-2.1 0-2-1.9zM24 20.1s.6 6.3-5.5 6.7" stroke-dasharray="0,23.838105834173867" stroke-dashoffset="23.838106"/></g><g fill="none" stroke="#ffffff" stroke-width="1.3786" stroke-miterlimit="10"><path d="M36.1 12.3S34.3 1.9 45 1.5c0 0 9.3-.5 9.2 10.8" stroke-dasharray="0.317837900389011,31.90746086265689" stroke-dashoffset="32.225299"/><path d="M37.6 12.3v8.3s-5.3.8-5.3-4.2c0 0-.5-4.3 5.3-4.1zm14.8-.6V20s5.3.8 5.3-4.2c0 0 .5-4.3-5.3-4.1zm-9.3 15c0-.6.4-1.6 2-1.7h1.7s1.8 0 1.8 1.8-1.8 1.8-1.8 1.8h-1.7s-2.1 0-2-1.9zM54 20.1s.6 6.3-5.5 6.7" stroke-dasharray="0,23.838105834173867" stroke-dashoffset="23.838106"/></g><g fill="none" stroke="#ffffff" stroke-width="1.3786" stroke-miterlimit="10"><path d="M66.1 12.3S64.3 1.9 75 1.5c0 0 9.3-.5 9.2 10.8" stroke-dasharray="1.481623951222709,30.74367481182319" stroke-dashoffset="32.225299"/><path d="M67.6 12.3v8.3s-5.3.8-5.3-4.2c0 0-.5-4.3 5.3-4.1zm14.8-.6V20s5.3.8 5.3-4.2c0 0 .5-4.3-5.3-4.1zm-9.3 15c0-.6.4-1.6 2-1.7h1.7s1.8 0 1.8 1.8-1.8 1.8-1.8 1.8h-1.7s-2.1 0-2-1.9zM84 20.1s.6 6.3-5.5 6.7" stroke-dasharray="0,23.838105834173867" stroke-dashoffset="23.838106"/></g><g fill="none" stroke="#ffffff" stroke-width="1.3786" stroke-miterlimit="10"><path d="M96.1 12.3S94.3 1.9 105 1.5c0 0 9.3-.5 9.2 10.8" stroke-dasharray="3.948108452120946,28.277190310924954" stroke-dashoffset="32.225299"/><path d="M97.6 12.3v8.3s-5.3.8-5.3-4.2c0 0-.5-4.3 5.3-4.1zm14.8-.6V20s5.3.8 5.3-4.2c0 0 .5-4.3-5.3-4.1zm-9.3 15c0-.6.4-1.6 2-1.7h1.7s1.8 0 1.8 1.8-1.8 1.8-1.8 1.8h-1.7s-2.1 0-2-1.9zm10.9-6.6s.6 6.3-5.5 6.7" stroke-dasharray="0,23.838105834173867" stroke-dashoffset="23.838106"/></g><g fill="none" stroke="#ffffff" stroke-width="1.3786" stroke-miterlimit="10"><path d="M126.1 12.3S124.3 1.9 135 1.5c0 0 9.3-.5 9.2 10.8" stroke-dasharray="8.205533730583651,24.01976503246225" stroke-dashoffset="32.225299"/><path d="M127.6 12.3v8.3s-5.3.8-5.3-4.2c0 0-.5-4.3 5.3-4.1zm14.8-.6V20s5.3.8 5.3-4.2c0 0 .5-4.3-5.3-4.1zm-9.3 15c0-.6.4-1.6 2-1.7h1.7s1.8 0 1.8 1.8-1.8 1.8-1.8 1.8h-1.7s-2.1 0-2-1.9zm10.9-6.6s.6 6.3-5.5 6.7" stroke-dasharray="0,23.838105834173867" stroke-dashoffset="23.838106"/></g><g fill="none" stroke="#ffffff" stroke-width="1.3786" stroke-miterlimit="10"><path d="M156.1 12.3S154.3 1.9 165 1.5c0 0 9.3-.5 9.2 10.8" stroke-dasharray="13.742833637505745,18.482465125540156" stroke-dashoffset="32.225299"/><path d="M157.6 12.3v8.3s-5.3.8-5.3-4.2c0 0-.5-4.3 5.3-4.1zm14.8-.6V20s5.3.8 5.3-4.2c0 0 .5-4.3-5.3-4.1zm-9.3 15c0-.6.4-1.6 2-1.7h1.7s1.8 0 1.8 1.8-1.8 1.8-1.8 1.8h-1.7s-2.1 0-2-1.9zm10.9-6.6s.6 6.3-5.5 6.7" stroke-dasharray="0,23.838105834173867" stroke-dashoffset="23.838106"/></g><g fill="none" stroke="#ffffff" stroke-width="1.3786" stroke-miterlimit="10"><path d="M186.1 12.3S184.3 1.9 195 1.5c0 0 9.3-.5 9.2 10.8" stroke-dasharray="18.831871479729376,13.393427283316521" stroke-dashoffset="32.225299"/><path d="M187.6 12.3v8.3s-5.3.8-5.3-4.2c0 0-.5-4.3 5.3-4.1zm14.8-.6V20s5.3.8 5.3-4.2c0 0 .5-4.3-5.3-4.1zm-9.3 15c0-.6.4-1.6 2-1.7h1.7s1.8 0 1.8 1.8-1.8 1.8-1.8 1.8h-1.7s-2.1 0-2-1.9zm10.9-6.6s.6 6.3-5.5 6.7" stroke-dasharray="0,23.838105834173867" stroke-dashoffset="23.838106"/></g><g fill="none" stroke="#ffffff" stroke-width="1.3786" stroke-miterlimit="10"><path d="M216.1 12.3S214.3 1.9 225 1.5c0 0 9.3-.5 9.2 10.8" stroke-dasharray="22.7186036461773,9.506695116868597" stroke-dashoffset="32.225299"/><path d="M217.6 12.3v8.3s-5.3.8-5.3-4.2c0 0-.5-4.3 5.3-4.1zm14.8-.6V20s5.3.8 5.3-4.2c0 0 .5-4.3-5.3-4.1zm-9.3 15c0-.6.4-1.6 2-1.7h1.7s1.8 0 1.8 1.8-1.8 1.8-1.8 1.8h-1.7s-2.1 0-2-1.9zm10.9-6.6s.6 6.3-5.5 6.7" stroke-dasharray="0,23.838105834173867" stroke-dashoffset="23.838106"/></g><g fill="none" stroke="#ffffff" stroke-width="1.3786" stroke-miterlimit="10"><path d="M246.1 12.3S244.3 1.9 255 1.5c0 0 9.3-.5 9.2 10.8" stroke-dasharray="25.573480933832112,6.651817829213787" stroke-dashoffset="32.225299"/><path d="M247.6 12.3v8.3s-5.3.8-5.3-4.2c0 0-.5-4.3 5.3-4.1zm14.8-.6V20s5.3.8 5.3-4.2c0 0 .5-4.3-5.3-4.1zm-9.3 15c0-.6.4-1.6 2-1.7h1.7s1.8 0 1.8 1.8-1.8 1.8-1.8 1.8h-1.7s-2.1 0-2-1.9zm10.9-6.6s.6 6.3-5.5 6.7" stroke-dasharray="0,23.838105834173867" stroke-dashoffset="23.838106"/></g><g fill="none" stroke="#ffffff" stroke-width="1.3786" stroke-miterlimit="10"><path d="M276.1 12.3S274.3 1.9 285 1.5c0 0 9.3-.5 9.2 10.8" stroke-dasharray="27.67386220336651,4.55143655967939" stroke-dashoffset="32.225299"/><path d="M277.6 12.3v8.3s-5.3.8-5.3-4.2c0 0-.5-4.3 5.3-4.1zm14.8-.6V20s5.3.8 5.3-4.2c0 0 .5-4.3-5.3-4.1zm-9.3 15c0-.6.4-1.6 2-1.7h1.7s1.8 0 1.8 1.8-1.8 1.8-1.8 1.8h-1.7s-2.1 0-2-1.9zm10.9-6.6s.6 6.3-5.5 6.7" stroke-dasharray="0,23.838105834173867" stroke-dashoffset="23.838106"/></g><g fill="none" stroke="#ffffff" stroke-width="1.3786" stroke-miterlimit="10"><path d="M306.1 12.3S304.3 1.9 315 1.5c0 0 9.3-.5 9.2 10.8" stroke-dasharray="29.222285259814985,3.0030135032309135" stroke-dashoffset="32.225299"/><path d="M307.6 12.3v8.3s-5.3.8-5.3-4.2c0 0-.5-4.3 5.3-4.1zm14.8-.6V20s5.3.8 5.3-4.2c0 0 .5-4.3-5.3-4.1zm-9.3 15c0-.6.4-1.6 2-1.7h1.7s1.8 0 1.8 1.8-1.8 1.8-1.8 1.8h-1.7s-2.1 0-2-1.9zm10.9-6.6s.6 6.3-5.5 6.7" stroke-dasharray="0,23.838105834173867" stroke-dashoffset="23.838106"/></g><g fill="none" stroke="#ffffff" stroke-width="1.3786" stroke-miterlimit="10"><path d="M336.1 12.3S334.3 1.9 345 1.5c0 0 9.3-.5 9.2 10.8" stroke-dasharray="30.35447290055918,1.870825862486718" stroke-dashoffset="32.225299"/><path d="M337.6 12.3v8.3s-5.3.8-5.3-4.2c0 0-.5-4.3 5.3-4.1zm14.8-.6V20s5.3.8 5.3-4.2c0 0 .5-4.3-5.3-4.1zm-9.3 15c0-.6.4-1.6 2-1.7h1.7s1.8 0 1.8 1.8-1.8 1.8-1.8 1.8h-1.7s-2.1 0-2-1.9zm10.9-6.6s.6 6.3-5.5 6.7" stroke-dasharray="0,23.838105834173867" stroke-dashoffset="23.838106"/></g><g fill="none" stroke="#ffffff" stroke-width="1.3786" stroke-miterlimit="10"><path d="M366.1 12.3S364.3 1.9 375 1.5c0 0 9.3-.5 9.2 10.8" stroke-dasharray="31.162549693345404,1.0627490697004933" stroke-dashoffset="32.225299"/><path d="M367.6 12.3v8.3s-5.3.8-5.3-4.2c0 0-.5-4.3 5.3-4.1zm14.8-.6V20s5.3.8 5.3-4.2c0 0 .5-4.3-5.3-4.1zm-9.3 15c0-.6.4-1.6 2-1.7h1.7s1.8 0 1.8 1.8-1.8 1.8-1.8 1.8h-1.7s-2.1 0-2-1.9zm10.9-6.6s.6 6.3-5.5 6.7" stroke-dasharray="0.05081742728914615,23.78728840688472" stroke-dashoffset="23.838106"/></g><g fill="none" stroke="#ffffff" stroke-width="1.3786" stroke-miterlimit="10"><path d="M396.1 12.3S394.3 1.9 405 1.5c0 0 9.3-.5 9.2 10.8" stroke-dasharray="31.711064188246624,0.5142345747992741" stroke-dashoffset="32.225299"/><path d="M397.6 12.3v8.3s-5.3.8-5.3-4.2c0 0-.5-4.3 5.3-4.1zm14.8-.6V20s5.3.8 5.3-4.2c0 0 .5-4.3-5.3-4.1zm-9.3 15c0-.6.4-1.6 2-1.7h1.7s1.8 0 1.8 1.8-1.8 1.8-1.8 1.8h-1.7s-2.1 0-2-1.9zm10.9-6.6s.6 6.3-5.5 6.7" stroke-dasharray="0.5576757404347348,23.28043009373913" stroke-dashoffset="23.838106"/></g><g fill="none" stroke="#ffffff" stroke-width="1.3786" stroke-miterlimit="10"><path d="M426.1 12.3S424.3 1.9 435 1.5c0 0 9.3-.5 9.2 10.8" stroke-dasharray="32.04675325933568,0.1785455037102215" stroke-dashoffset="32.225299"/><path d="M427.6 12.3v8.3s-5.3.8-5.3-4.2c0 0-.5-4.3 5.3-4.1zm14.8-.6V20s5.3.8 5.3-4.2c0 0 .5-4.3-5.3-4.1zm-9.3 15c0-.6.4-1.6 2-1.7h1.7s1.8 0 1.8 1.8-1.8 1.8-1.8 1.8h-1.7s-2.1 0-2-1.9zm10.9-6.6s.6 6.3-5.5 6.7" stroke-dasharray="1.8427111731995605,21.995394660974306" stroke-dashoffset="23.838106"/></g><g fill="none" stroke="#ffffff" stroke-width="1.3786" stroke-miterlimit="10"><path d="M456.1 12.3S454.3 1.9 465 1.5c0 0 9.3-.5 9.2 10.8" stroke-dasharray="32.20447668418466,0.020822078861238946" stroke-dashoffset="32.225299"/><path d="M457.6 12.3v8.3s-5.3.8-5.3-4.2c0 0-.5-4.3 5.3-4.1zm14.8-.6V20s5.3.8 5.3-4.2c0 0 .5-4.3-5.3-4.1zm-9.3 15c0-.6.4-1.6 2-1.7h1.7s1.8 0 1.8 1.8-1.8 1.8-1.8 1.8h-1.7s-2.1 0-2-1.9zm10.9-6.6s.6 6.3-5.5 6.7" stroke-dasharray="4.3010511517496735,19.537054682424195" stroke-dashoffset="23.838106"/></g><g fill="none" stroke="#ffffff" stroke-width="1.3786" stroke-miterlimit="10"><path d="M486.1 12.3S484.3 1.9 495 1.5c0 0 9.3-.5 9.2 10.8"/><path d="M487.6 12.3v8.3s-5.3.8-5.3-4.2c0 0-.5-4.3 5.3-4.1zm14.8-.6V20s5.3.8 5.3-4.2c0 0 .5-4.3-5.3-4.1zm-9.3 15c0-.6.4-1.6 2-1.7h1.7s1.8 0 1.8 1.8-1.8 1.8-1.8 1.8h-1.7s-2.1 0-2-1.9zm10.9-6.6s.6 6.3-5.5 6.7" stroke-dasharray="8.067030741842448,15.771075092331419" stroke-dashoffset="23.838106"/></g><g fill="none" stroke="#ffffff" stroke-width="1.3786" stroke-miterlimit="10"><path d="M516.1 12.3S514.3 1.9 525 1.5c0 0 9.3-.5 9.2 10.8"/><path d="M517.6 12.3v8.3s-5.3.8-5.3-4.2c0 0-.5-4.3 5.3-4.1zm14.8-.6V20s5.3.8 5.3-4.2c0 0 .5-4.3-5.3-4.1zm-9.3 15c0-.6.4-1.6 2-1.7h1.7s1.8 0 1.8 1.8-1.8 1.8-1.8 1.8h-1.7s-2.1 0-2-1.9zm10.9-6.6s.6 6.3-5.5 6.7" stroke-dasharray="12.156128238484879,11.681977595688988" stroke-dashoffset="23.838106"/></g><g fill="none" stroke="#ffffff" stroke-width="1.3786" stroke-miterlimit="10"><path d="M546.1 12.3S544.3 1.9 555 1.5c0 0 9.3-.5 9.2 10.8"/><path d="M547.6 12.3v8.3s-5.3.8-5.3-4.2c0 0-.5-4.3 5.3-4.1zm14.8-.6V20s5.3.8 5.3-4.2c0 0 .5-4.3-5.3-4.1zm-9.3 15c0-.6.4-1.6 2-1.7h1.7s1.8 0 1.8 1.8-1.8 1.8-1.8 1.8h-1.7s-2.1 0-2-1.9zm10.9-6.6s.6 6.3-5.5 6.7" stroke-dasharray="15.491889966808628,8.346215867365238" stroke-dashoffset="23.838106"/></g><g fill="none" stroke="#ffffff" stroke-width="1.3786" stroke-miterlimit="10"><path d="M576.1 12.3S574.3 1.9 585 1.5c0 0 9.3-.5 9.2 10.8"/><path d="M577.6 12.3v8.3s-5.3.8-5.3-4.2c0 0-.5-4.3 5.3-4.1zm14.8-.6V20s5.3.8 5.3-4.2c0 0 .5-4.3-5.3-4.1zm-9.3 15c0-.6.4-1.6 2-1.7h1.7s1.8 0 1.8 1.8-1.8 1.8-1.8 1.8h-1.7s-2.1 0-2-1.9zm10.9-6.6s.6 6.3-5.5 6.7" stroke-dasharray="17.962036170282687,5.8760696638911805" stroke-dashoffset="23.838106"/></g><g fill="none" stroke="#ffffff" stroke-width="1.3786" stroke-miterlimit="10"><path d="M606.1 12.3S604.3 1.9 615 1.5c0 0 9.3-.5 9.2 10.8"/><path d="M607.6 12.3v8.3s-5.3.8-5.3-4.2c0 0-.5-4.3 5.3-4.1zm14.8-.6V20s5.3.8 5.3-4.2c0 0 .5-4.3-5.3-4.1zm-9.3 15c0-.6.4-1.6 2-1.7h1.7s1.8 0 1.8 1.8-1.8 1.8-1.8 1.8h-1.7s-2.1 0-2-1.9zm10.9-6.6s.6 6.3-5.5 6.7" stroke-dasharray="19.77329520985625,4.064810624317617" stroke-dashoffset="23.838106"/></g><g fill="none" stroke="#ffffff" stroke-width="1.3786" stroke-miterlimit="10"><path d="M636.1 12.3S634.3 1.9 645 1.5c0 0 9.3-.5 9.2 10.8"/><path d="M637.6 12.3v8.3s-5.3.8-5.3-4.2c0 0-.5-4.3 5.3-4.1zm14.8-.6V20s5.3.8 5.3-4.2c0 0 .5-4.3-5.3-4.1zm-9.3 15c0-.6.4-1.6 2-1.7h1.7s1.8 0 1.8 1.8-1.8 1.8-1.8 1.8h-1.7s-2.1 0-2-1.9zm10.9-6.6s.6 6.3-5.5 6.7" stroke-dasharray="21.106858145955563,2.731247688218303" stroke-dashoffset="23.838106"/></g><g fill="none" stroke="#ffffff" stroke-width="1.3786" stroke-miterlimit="10"><path d="M666.1 12.3S664.3 1.9 675 1.5c0 0 9.3-.5 9.2 10.8"/><path d="M667.6 12.3v8.3s-5.3.8-5.3-4.2c0 0-.5-4.3 5.3-4.1zm14.8-.6V20s5.3.8 5.3-4.2c0 0 .5-4.3-5.3-4.1zm-9.3 15c0-.6.4-1.6 2-1.7h1.7s1.8 0 1.8 1.8-1.8 1.8-1.8 1.8h-1.7s-2.1 0-2-1.9zm10.9-6.6s.6 6.3-5.5 6.7" stroke-dasharray="22.086231344895392,1.7518744892784737" stroke-dashoffset="23.838106"/></g><g fill="none" stroke="#ffffff" stroke-width="1.3786" stroke-miterlimit="10"><path d="M696.1 12.3S694.3 1.9 705 1.5c0 0 9.3-.5 9.2 10.8"/><path d="M697.6 12.3v8.3s-5.3.8-5.3-4.2c0 0-.5-4.3 5.3-4.1zm14.8-.6V20s5.3.8 5.3-4.2c0 0 .5-4.3-5.3-4.1zm-9.3 15c0-.6.4-1.6 2-1.7h1.7s1.8 0 1.8 1.8-1.8 1.8-1.8 1.8h-1.7s-2.1 0-2-1.9zm10.9-6.6s.6 6.3-5.5 6.7" stroke-dasharray="22.794215762474998,1.0438900716988682" stroke-dashoffset="23.838106"/></g><g fill="none" stroke="#ffffff" stroke-width="1.3786" stroke-miterlimit="10"><path d="M726.1 12.3S724.3 1.9 735 1.5c0 0 9.3-.5 9.2 10.8"/><path d="M727.6 12.3v8.3s-5.3.8-5.3-4.2c0 0-.5-4.3 5.3-4.1zm14.8-.6V20s5.3.8 5.3-4.2c0 0 .5-4.3-5.3-4.1zm-9.3 15c0-.6.4-1.6 2-1.7h1.7s1.8 0 1.8 1.8-1.8 1.8-1.8 1.8h-1.7s-2.1 0-2-1.9zm10.9-6.6s.6 6.3-5.5 6.7" stroke-dasharray="23.28782811604389,0.5502777181299758" stroke-dashoffset="23.838106"/></g><g fill="none" stroke="#ffffff" stroke-width="1.3786" stroke-miterlimit="10"><path d="M756.1 12.3S754.3 1.9 765 1.5c0 0 9.3-.5 9.2 10.8"/><path d="M757.6 12.3v8.3s-5.3.8-5.3-4.2c0 0-.5-4.3 5.3-4.1zm14.8-.6V20s5.3.8 5.3-4.2c0 0 .5-4.3-5.3-4.1zm-9.3 15c0-.6.4-1.6 2-1.7h1.7s1.8 0 1.8 1.8-1.8 1.8-1.8 1.8h-1.7s-2.1 0-2-1.9zm10.9-6.6s.6 6.3-5.5 6.7" stroke-dasharray="23.607668884842273,0.23043694933159548" stroke-dashoffset="23.838106"/></g><g fill="none" stroke="#ffffff" stroke-width="1.3786" stroke-miterlimit="10"><path d="M786.1 12.3S784.3 1.9 795 1.5c0 0 9.3-.5 9.2 10.8"/><path d="M787.6 12.3v8.3s-5.3.8-5.3-4.2c0 0-.5-4.3 5.3-4.1zm14.8-.6V20s5.3.8 5.3-4.2c0 0 .5-4.3-5.3-4.1zm-9.3 15c0-.6.4-1.6 2-1.7h1.7s1.8 0 1.8 1.8-1.8 1.8-1.8 1.8h-1.7s-2.1 0-2-1.9zm10.9-6.6s.6 6.3-5.5 6.7" stroke-dasharray="23.783577873941763,0.054527960232102594" stroke-dashoffset="23.838106"/></g><g fill="none" stroke="#ffffff" stroke-width="1.3786" stroke-miterlimit="10"><path d="M816.1 12.3S814.3 1.9 825 1.5c0 0 9.3-.5 9.2 10.8"/><path d="M817.6 12.3v8.3s-5.3.8-5.3-4.2c0 0-.5-4.3 5.3-4.1zm14.8-.6V20s5.3.8 5.3-4.2c0 0 .5-4.3-5.3-4.1zm-9.3 15c0-.6.4-1.6 2-1.7h1.7s1.8 0 1.8 1.8-1.8 1.8-1.8 1.8h-1.7s-2.1 0-2-1.9zm10.9-6.6s.6 6.3-5.5 6.7"/></g></svg>