<svg id="1aabcdb3-40e0-4277-8bf0-0496341b6d82" data-name="Layer 1" xmlns="http://www.w3.org/2000/svg" viewBox="0 0 24 35"><title>icons</title><path d="M23.5,14.5H.5A.5.5,0,0,0,0,15v2a.5.5,0,0,0,.5.5h.58L3,28.09a.5.5,0,0,0,.49.41h17a.5.5,0,0,0,.49-.41L22.92,17.5h.58A.5.5,0,0,0,24,17V15A.5.5,0,0,0,23.5,14.5Zm-3.42,13H3.92L2.1,17.5H21.9ZM23,16.5H1v-1H23Z" style="fill:#003058"/><path d="M3.5,13.5a.5.5,0,0,0,.35-.15l6-6a.5.5,0,0,0-.71-.71l-6,6a.5.5,0,0,0,.35.85Z" style="fill:#003058"/><path d="M20.15,13.35a.5.5,0,0,0,.71-.71l-6-6a.5.5,0,0,0-.71.71Z" style="fill:#003058"/></svg>