<svg id="88c84b3f-41b1-4b22-bfdb-f803c82e2ba0" data-name="Layer 1" xmlns="http://www.w3.org/2000/svg" viewBox="0 0 24 35"><title>icons</title><path d="M13.15,13.35a.5.5,0,0,0,.71,0l3-3a.5.5,0,0,0-.71-.71L14,11.79V6a.5.5,0,1,0-1,0v5.79L10.85,9.65a.5.5,0,0,0-.71.71Z" style="fill:#003058"/><path d="M21,24.16l3-9a.5.5,0,0,0-.47-.66H5.81L4.49,8.89A.5.5,0,0,0,4,8.5H.5a.5.5,0,0,0,0,1H3.6L7.39,25.6a2,2,0,1,0,2.33.9h7.56a2,2,0,0,0-.28,1,2,2,0,1,0,2-2H8.4l-.24-1H20.5A.5.5,0,0,0,21,24.16ZM9,27.5a1,1,0,1,1-1-1A1,1,0,0,1,9,27.5Zm11,0a1,1,0,1,1-1-1A1,1,0,0,1,20,27.5Zm-12.07-4L6,15.5H22.81l-2.67,8Z" style="fill:#003058"/></svg>