<svg xmlns="http://www.w3.org/2000/svg" viewBox="0 0 35.02 35.02"><defs><style>.cls-1{fill:none;stroke:#09a6e0;stroke-miterlimit:10;}.cls-2{}</style></defs><title>Asset 10</title><g id="Layer_2" data-name="Layer 2"><g id="rounded"><path class="cls-1" d="M17.51,34.52a17,17,0,1,0-17-17,17,17,0,0,0,17,17"/><path class="cls-2" d="M8.66,26.76a.4.4,0,0,1-.38-.52l1.6-5.19a.4.4,0,0,1,.1-.16l9.58-9.58a.4.4,0,0,1,.56,0l3.59,3.59a.4.4,0,0,1,0,.56L14.13,25a.4.4,0,0,1-.16.1l-5.19,1.6Zm1.95-5.38L9.26,25.76l4.37-1.35,9.23-9.23-3-3Zm3.24,3.38h0Z"/><path class="cls-2" d="M23.43,15.58a.4.4,0,0,1-.28-.68l2.46-2.46a1.2,1.2,0,0,0,0-1.69L24.28,9.41a1.2,1.2,0,0,0-1.69,0l-2.46,2.46a.4.4,0,1,1-.56-.56L22,8.84a2,2,0,0,1,2.82,0l1.33,1.33a2,2,0,0,1,0,2.82l-2.46,2.46A.4.4,0,0,1,23.43,15.58Z"/><path class="cls-2" d="M13,22.37a.4.4,0,0,1-.28-.68l8.58-8.58a.4.4,0,0,1,.56.56l-8.58,8.58A.4.4,0,0,1,13,22.37Z"/><path class="cls-2" d="M13.85,25.16a.4.4,0,0,1-.28-.12l-.8-.8a.4.4,0,0,1-.12-.28v-1.6h-1.6a.4.4,0,0,1-.28-.12l-.8-.8a.4.4,0,0,1,.56-.56l.68.68H13a.4.4,0,0,1,.4.4V23.8l.68.68a.4.4,0,0,1-.28.68Z"/><path class="cls-2" d="M11.05,26a.4.4,0,0,1-.28-.12l-1.6-1.6a.4.4,0,1,1,.56-.56l1.6,1.6a.4.4,0,0,1-.28.68Z"/><path class="cls-2" d="M24.63,14.38a.4.4,0,0,1-.28-.12l-3.59-3.59a.4.4,0,0,1,.56-.56l3.59,3.59a.4.4,0,0,1-.28.68Z"/></g></g></svg>