<svg id="2b7b3f91-f155-457f-932c-23127076193f" data-name="Layer 1" xmlns="http://www.w3.org/2000/svg" viewBox="0 0 24 35"><title>icons</title><path d="M23.5,7H.5a.5.5,0,0,0-.5.5v9a.5.5,0,0,0,.5.5H6v4.41C4.51,19.44,3.5,19,2.43,19a1.23,1.23,0,0,0-1.14.65,2.22,2.22,0,0,0,.19,2.12l4,6a.5.5,0,0,0,.42.22h8a.5.5,0,0,0,.49-.41l1-5.48c.27-1.19,0-2.67-1.31-3.09L10,17.64V17H23.5a.5.5,0,0,0,.5-.5v-9A.5.5,0,0,0,23.5,7ZM13.78,20c.69.22.82,1.15.64,1.93L13.48,27H6.18L2.31,21.23a1.27,1.27,0,0,1-.15-1.1c0-.06.08-.13.26-.13.74,0,1.69.25,3.65,3.27A.5.5,0,0,0,7,23V12a1,1,0,0,1,2,0v6a.5.5,0,0,0,.34.47ZM23,16H10V12a2,2,0,0,0-4,0v4H1V8H23Z" style="fill:#003058"/><path d="M16.65,14.35a.5.5,0,0,0,.71,0l4-4a.5.5,0,0,0-.71-.71L17,13.29l-1.65-1.65a.5.5,0,0,0-.71.71Z" style="fill:#003058"/></svg>