<svg id="c34ea993-857d-408c-82de-d8c9f45882ed" data-name="Layer 1" xmlns="http://www.w3.org/2000/svg" viewBox="0 0 24.5 35"><title>icons</title><path d="M23.93,19.53l-8.68-3.38V12a.5.5,0,0,0-.15-.35L11.25,7.79V6a.5.5,0,1,0-1,0V7.79L6.4,11.65a.5.5,0,0,0-.15.35v6.5H.75a.5.5,0,0,0-.5.5V29a.5.5,0,1,0,1,0V19.5h5V29a.5.5,0,0,0,1,0V12.5h7V29a.5.5,0,0,0,1,0V17.23l6,2.33V29a.5.5,0,0,0,1,0V20l1.32.51a.49.49,0,0,0,.18,0,.5.5,0,0,0,.18-1ZM10.75,8.71l2.79,2.79H8Z" style="fill:#003058"/><path d="M2.75,20.5a.5.5,0,0,0-.5.5v1a.5.5,0,0,0,1,0V21A.5.5,0,0,0,2.75,20.5Z" style="fill:#003058"/><path d="M4.75,20.5a.5.5,0,0,0-.5.5v1a.5.5,0,0,0,1,0V21A.5.5,0,0,0,4.75,20.5Z" style="fill:#003058"/><path d="M2.75,23.5a.5.5,0,0,0-.5.5v1a.5.5,0,0,0,1,0V24A.5.5,0,0,0,2.75,23.5Z" style="fill:#003058"/><path d="M4.75,23.5a.5.5,0,0,0-.5.5v1a.5.5,0,0,0,1,0V24A.5.5,0,0,0,4.75,23.5Z" style="fill:#003058"/><path d="M2.75,26.5a.5.5,0,0,0-.5.5v1a.5.5,0,0,0,1,0V27A.5.5,0,0,0,2.75,26.5Z" style="fill:#003058"/><path d="M4.75,26.5a.5.5,0,0,0-.5.5v1a.5.5,0,0,0,1,0V27A.5.5,0,0,0,4.75,26.5Z" style="fill:#003058"/><path d="M16.75,20.5a.5.5,0,0,0-.5.5v1a.5.5,0,0,0,1,0V21A.5.5,0,0,0,16.75,20.5Z" style="fill:#003058"/><path d="M19.75,20.5a.5.5,0,0,0-.5.5v1a.5.5,0,0,0,1,0V21A.5.5,0,0,0,19.75,20.5Z" style="fill:#003058"/><path d="M16.75,23.5a.5.5,0,0,0-.5.5v1a.5.5,0,0,0,1,0V24A.5.5,0,0,0,16.75,23.5Z" style="fill:#003058"/><path d="M19.75,23.5a.5.5,0,0,0-.5.5v1a.5.5,0,0,0,1,0V24A.5.5,0,0,0,19.75,23.5Z" style="fill:#003058"/><path d="M16.75,26.5a.5.5,0,0,0-.5.5v1a.5.5,0,0,0,1,0V27A.5.5,0,0,0,16.75,26.5Z" style="fill:#003058"/><path d="M19.75,26.5a.5.5,0,0,0-.5.5v1a.5.5,0,0,0,1,0V27A.5.5,0,0,0,19.75,26.5Z" style="fill:#003058"/><path d="M8.75,13.5a.5.5,0,0,0-.5.5V26a.5.5,0,0,0,1,0V14A.5.5,0,0,0,8.75,13.5Z" style="fill:#003058"/><path d="M10.75,13.5a.5.5,0,0,0-.5.5V26a.5.5,0,1,0,1,0V14A.5.5,0,0,0,10.75,13.5Z" style="fill:#003058"/><path d="M12.75,13.5a.5.5,0,0,0-.5.5V26a.5.5,0,0,0,1,0V14A.5.5,0,0,0,12.75,13.5Z" style="fill:#003058"/></svg>