<svg id="25bed62e-7224-4224-8779-b16c0300e0c2" data-name="Layer 1" xmlns="http://www.w3.org/2000/svg" viewBox="0 0 24 35"><title>icons</title><path d="M21.5,8.5H2.5A2.5,2.5,0,0,0,0,11V24a2.5,2.5,0,0,0,2.5,2.5h19A2.5,2.5,0,0,0,24,24V11A2.5,2.5,0,0,0,21.5,8.5ZM23,24a1.5,1.5,0,0,1-1.5,1.5H2.5A1.5,1.5,0,0,1,1,24V11A1.5,1.5,0,0,1,2.5,9.5h19A1.5,1.5,0,0,1,23,11Z" style="fill:#003058"/><path d="M4.25,15.5l-1.73,4H3.73l.32-1H5.75l.32,1H7.27l-1.72-4ZM4.33,18l.58-1.42L5.48,18Z" style="fill:#003058"/><polygon points="10.06 16.96 8.86 15.5 8 15.5 8 19.5 9 19.5 9 17.24 10 18.5 10.09 18.5 11 17.24 11 19.5 12.5 19.5 12.5 15.5 11.26 15.5 10.06 16.96" style="fill:#003058"/><polygon points="14.5 18 16 18 16 17 14.5 17 14.5 16.5 16 16.5 16 15.5 13.5 15.5 13.5 19.5 16.5 19.5 16.5 18.5 14.5 18.5 14.5 18" style="fill:#003058"/><path d="M21.25,15.5H19.78a12.48,12.48,0,0,0-.8,1.11c-.13-.17-.58-.78-.82-1.11h-1.5l1.58,1.92L16.58,19.5h1.49c.41-.5.48-.58.91-1.16.21.28.76.93,1,1.16h1.51l-1.71-2.08Z" style="fill:#003058"/></svg>