<svg id="485915f9-798b-4586-80e9-706370791a0b" data-name="Layer 1" xmlns="http://www.w3.org/2000/svg" viewBox="0 0 630.5 441.16"><title>icons_EmailEnvelopeDarker</title><g id="dedbbc48-d1ef-42de-a011-d21c8f7e4dad" data-name="Layer 2"><g id="fefbb271-aaeb-4c7d-ad88-37df3c88b6c1" data-name="Layer 1-2"><path d="M559,423.66H71.55a54.36,54.36,0,0,1-54-54.05V71.55a54.36,54.36,0,0,1,54.05-54H559a54.36,54.36,0,0,1,54,54.05V369.3A54.36,54.36,0,0,1,559,423.66Zm-487.4-379A27.18,27.18,0,0,0,44.37,71.86V369.61A27.18,27.18,0,0,0,71.55,396.8H559a27.18,27.18,0,0,0,27.18-27.19h0V71.55A27.18,27.18,0,0,0,559,44.37H71.55Z" style="fill:#00a7e1;stroke:#00a7e1;stroke-miterlimit:10;stroke-width:35px"/><path d="M314.31,274.63a13.38,13.38,0,0,1-8.43-2.81L35.93,55.3A13.94,13.94,0,0,1,52.81,33.12h0L314.31,244,577.69,33.12a13.57,13.57,0,0,1,16.88,21.25h0L323.69,271.82A13.43,13.43,0,0,1,314.31,274.63Z" style="fill:#00a7e1;stroke:#00a7e1;stroke-miterlimit:10;stroke-width:35px"/></g></g></svg>