<svg id="36a37bbb-76d8-46a9-bfa2-bc54690d0ede" data-name="Layer 1" xmlns="http://www.w3.org/2000/svg" viewBox="0 0 24 35"><title>icons</title><path d="M6.91,19.35a.82.82,0,0,0,.15.22l-.1.12a.5.5,0,0,0,.77.64l.4-.48a3.22,3.22,0,0,0,1.95-1.07,1.14,1.14,0,0,0,.29-1.24A1,1,0,0,0,9.43,17l.1-.13a2.21,2.21,0,0,1,1.42-.74h0l-.1.13a.5.5,0,0,0,.77.64,1.14,1.14,0,0,0,.29-1.24.82.82,0,0,0-.15-.22l.1-.12a.5.5,0,1,0-.77-.64l-.4.48a3.23,3.23,0,0,0-1.95,1.07,1.14,1.14,0,0,0-.29,1.25,1,1,0,0,0,.94.53l-.1.14a2.21,2.21,0,0,1-1.42.74h0l.1-.14a.5.5,0,0,0-.77-.63A1.14,1.14,0,0,0,6.91,19.35Z" style="fill:#003058"/><path d="M23.5,10.5H.5A.5.5,0,0,0,0,11v6a.5.5,0,0,0,.5.5H4.29L.15,21.65a.5.5,0,0,0,.35.85h10a.5.5,0,0,0,.35-.15l9-9a.5.5,0,0,0-.35-.85H9.5a.5.5,0,0,0-.35.15L5.29,16.5H1v-5H23v5H19.21l.65-.65a.5.5,0,0,0-.71-.71L10.79,23.5H.5a.5.5,0,0,0,0,1H11a.5.5,0,0,0,.35-.15l6.85-6.85H23.5A.5.5,0,0,0,24,17V11A.5.5,0,0,0,23.5,10.5Zm-13.79,3h8.59l-8,8H1.71Z" style="fill:#003058"/></svg>