<svg id="232bd345-1c87-48c7-b669-ec4819fa1e10" data-name="Layer 1" xmlns="http://www.w3.org/2000/svg" viewBox="0 0 24 35"><title>icons</title><path d="M23.5,7.5H20V6a.5.5,0,0,0-.5-.5h-3A.5.5,0,0,0,16,6V7.5H8V6a.5.5,0,0,0-.5-.5h-3A.5.5,0,0,0,4,6V7.5H.5A.5.5,0,0,0,0,8V29a.5.5,0,0,0,.5.5h23A.5.5,0,0,0,24,29V8A.5.5,0,0,0,23.5,7.5ZM17,6.5h2v3H17ZM5,6.5H7v3H5Zm-1,2V10a.5.5,0,0,0,.5.5h3A.5.5,0,0,0,8,10V8.5h8V10a.5.5,0,0,0,.5.5h3A.5.5,0,0,0,20,10V8.5h3v4H1v-4Zm-3,20v-15H23v15Z" style="fill:#003058"/><path d="M21.5,17.5a.5.5,0,0,0,0-1H17V15a.5.5,0,0,0-1,0v1.5H12V15a.5.5,0,0,0-1,0v1.5H7V15a.5.5,0,0,0-1,0v1.5H2.5a.5.5,0,0,0,0,1H6v3H2.5a.5.5,0,0,0,0,1H6v3H2.5a.5.5,0,0,0,0,1H6V27a.5.5,0,0,0,1,0V25.5h4V27a.5.5,0,0,0,1,0V25.5h4V27a.5.5,0,0,0,1,0V25.5h4.5a.5.5,0,0,0,0-1H17v-3h4.5a.5.5,0,0,0,0-1H17v-3ZM7,17.5h4v3H7Zm0,7v-3h4v3Zm9,0H12v-3h4Zm0-4H12v-3h4Z" style="fill:#003058"/></svg>