<svg id="6f561517-a1b0-4634-93b3-a35e136c7689" data-name="Layer 1" xmlns="http://www.w3.org/2000/svg" viewBox="0 0 24 35"><title>icons</title><path d="M16.5,29.5H5.5a5.5,5.5,0,0,1-.93-10.92A6,6,0,0,1,16,17a3.57,3.57,0,0,1,2.85,1.4,3.46,3.46,0,0,1,.55,3.11,4.5,4.5,0,0,1-2.85,8Zm-6-15a5,5,0,0,0-5,4.57.5.5,0,0,1-.45.46,4.5,4.5,0,0,0,.43,9h11a3.5,3.5,0,0,0,2-6.39.5.5,0,0,1-.18-.61A2.5,2.5,0,0,0,15.69,18a.5.5,0,0,1-.53-.32A5,5,0,0,0,10.5,14.5Z" style="fill:#003058"/><path d="M22,20.6a.5.5,0,0,1-.32-.89,3.5,3.5,0,0,0-.24-5.61.5.5,0,0,1-.18-.61A2.5,2.5,0,0,0,18.69,10a.5.5,0,0,1-.53-.32A5,5,0,0,0,13.5,6.5a5,5,0,0,0-5,4.57.5.5,0,0,1-.45.46A4.48,4.48,0,0,0,4,16a.5.5,0,0,1-1,0,5.47,5.47,0,0,1,4.57-5.42A6,6,0,0,1,19,9a3.5,3.5,0,0,1,3.4,4.52,4.5,4.5,0,0,1,0,7A.5.5,0,0,1,22,20.6Z" style="fill:#003058"/></svg>