<svg id="6226b9ab-532b-4255-bab2-a84950790c94" data-name="Layer 1" xmlns="http://www.w3.org/2000/svg" viewBox="0 0 24 35"><title>icons</title><path d="M16,18.5V8c0-1.72-4.15-2.5-8-2.5S0,6.28,0,8V23c0,1.72,4.15,2.5,8,2.5V27c0,1.72,4.15,2.5,8,2.5s8-.78,8-2.5V21C24,19.28,19.85,18.5,16,18.5ZM8,6.5c4.62,0,7,1.05,7,1.5S12.62,9.5,8,9.5,1,8.45,1,8,3.38,6.5,8,6.5ZM1,9.29c1.46.82,4.3,1.21,7,1.21s5.54-.39,7-1.21V11c0,.45-2.38,1.5-7,1.5S1,11.45,1,11Zm0,3c1.46.82,4.3,1.21,7,1.21s5.54-.39,7-1.21V14c0,.45-2.38,1.5-7,1.5S1,14.45,1,14Zm0,3c1.46.82,4.3,1.21,7,1.21s5.54-.39,7-1.21V17c0,.45-2.38,1.5-7,1.5S1,17.45,1,17Zm14,3v.23l-.5,0A4.86,4.86,0,0,0,15,18.29ZM8,24v.5c-4.62,0-7-1.05-7-1.5V21.29c1.46.82,4.3,1.21,7,1.21Zm0-3v.5c-4.62,0-7-1.05-7-1.5V18.29c1.46.82,4.3,1.21,7,1.21.5,0,1,0,1.5,0C8.58,19.85,8,20.36,8,21Zm15,6c0,.45-2.38,1.5-7,1.5S9,27.45,9,27V25.29c1.46.82,4.3,1.21,7,1.21s5.54-.39,7-1.21Zm0-3c0,.45-2.38,1.5-7,1.5S9,24.45,9,24V22.29c1.46.82,4.3,1.21,7,1.21s5.54-.39,7-1.21Zm-7-1.5c-4.62,0-7-1.05-7-1.5s2.38-1.5,7-1.5,7,1.05,7,1.5S20.62,22.5,16,22.5Z" style="fill:#003058"/></svg>