<svg id="47b3fb83-e469-4506-b535-8f4cb1150db5" data-name="Layer 1" xmlns="http://www.w3.org/2000/svg" viewBox="0 0 24 35"><title>icons</title><path d="M23.5,23H21V17.5a.5.5,0,0,0-.5-.5H12V11h7.5a.5.5,0,0,0,.5-.5v-4a.5.5,0,0,0-.5-.5H4.5a.5.5,0,0,0-.5.5v4a.5.5,0,0,0,.5.5H11v6H3.5a.5.5,0,0,0-.5.5V23H.5a.5.5,0,0,0-.5.5v5a.5.5,0,0,0,.5.5h5a.5.5,0,0,0,.5-.5v-5a.5.5,0,0,0-.5-.5H4V18h7v5H9.5a.5.5,0,0,0-.5.5v5a.5.5,0,0,0,.5.5h5a.5.5,0,0,0,.5-.5v-5a.5.5,0,0,0-.5-.5H12V18h8v5H18.5a.5.5,0,0,0-.5.5v5a.5.5,0,0,0,.5.5h5a.5.5,0,0,0,.5-.5v-5A.5.5,0,0,0,23.5,23ZM5,10V7H19v3H5ZM5,24v4H1V24H5Zm9,0v4H10V24h4Zm9,4H19V24h4Z" style="fill:#003058"/></svg>