<svg id="539a5ec8-1759-4dee-921f-106532459dcc" data-name="Layer 1" xmlns="http://www.w3.org/2000/svg" viewBox="0 0 24 35"><title>icons</title><path d="M23.5,6.95a.5.5,0,0,0-.5.5v6c0,2.57-1.56,3.74-3,3.74S17,16,17,13.45v-2.5a5.12,5.12,0,0,0-1.79-4.06,6,6,0,0,0-3.85-1.33C8.7,5.55,6,7.23,6,10.45H3.5A3.5,3.5,0,0,0,0,13.95v9a6.5,6.5,0,0,0,13,0v-9a3.5,3.5,0,0,0-3.5-3.5H7c0-2.67,2.26-3.89,4.36-3.89a5,5,0,0,1,3.2,1.1A4.15,4.15,0,0,1,16,10.95v2.5c0,3.11,2,4.74,4,4.74s4-1.63,4-4.74v-6A.5.5,0,0,0,23.5,6.95ZM1,13.95a2.5,2.5,0,0,1,2.5-2.5H6v4H1Zm11,9a5.5,5.5,0,0,1-11,0v-6.5H12ZM9.5,11.45a2.5,2.5,0,0,1,2.5,2.5v1.5H7v-4Z" style="fill:#003058"/></svg>