<svg id="e7dd9174-00ce-4e0e-a96f-47a004b2686c" data-name="Layer 1" xmlns="http://www.w3.org/2000/svg" viewBox="0 0 24 35"><title>icons</title><path d="M20,21.5V9.5a.5.5,0,0,0-.5-.5H.5a.5.5,0,0,0-.5.5v12a.5.5,0,0,0,.5.5h19A.5.5,0,0,0,20,21.5ZM19,21H1V10H19Z" style="fill:#003058"/><path d="M22,23.5v-12a.5.5,0,0,0-1,0V23H2.5a.5.5,0,0,0,0,1h19A.5.5,0,0,0,22,23.5Z" style="fill:#003058"/><path d="M23.5,13a.5.5,0,0,0-.5.5V25H4.5a.5.5,0,0,0,0,1h19a.5.5,0,0,0,.5-.5v-12A.5.5,0,0,0,23.5,13Z" style="fill:#003058"/><path d="M10,19a3.5,3.5,0,1,0-3.5-3.5A3.5,3.5,0,0,0,10,19Zm0-6a2.5,2.5,0,1,1-2.5,2.5A2.5,2.5,0,0,1,10,13Z" style="fill:#003058"/><path d="M2.5,20h2a.5.5,0,0,0,0-1h-2a.5.5,0,0,0,0,1Z" style="fill:#003058"/><path d="M15.5,12h2a.5.5,0,0,0,0-1h-2a.5.5,0,0,0,0,1Z" style="fill:#003058"/></svg>