<svg id="0403c011-e1ee-4a35-81ef-9fa9669213c2" data-name="Layer 1" xmlns="http://www.w3.org/2000/svg" viewBox="0 0 17 35"><title>icons</title><path d="M7,21.26V8A2.5,2.5,0,0,0,2,8V21.26a4.5,4.5,0,1,0,5,0ZM4.5,28.5A3.5,3.5,0,0,1,2.75,22,.5.5,0,0,0,3,21.54V8A1.5,1.5,0,0,1,6,8V21.54a.5.5,0,0,0,.25.43A3.5,3.5,0,0,1,4.5,28.5Z" style="fill:#003058"/><path d="M5,23.59V13a.5.5,0,0,0-1,0V23.59a1.5,1.5,0,1,0,1,0ZM4.5,25.5A.5.5,0,1,1,5,25,.5.5,0,0,1,4.5,25.5Z" style="fill:#003058"/><path d="M16.85,18.15a.5.5,0,0,0-.71,0L14,20.29V8a.5.5,0,0,0-1,0V20.29l-2.15-2.15a.5.5,0,0,0-.71.71l3,3a.5.5,0,0,0,.71,0l3-3A.5.5,0,0,0,16.85,18.15Z" style="fill:#003058"/></svg>