<svg id="62eb0a0d-ee48-4473-b649-742e76673204" data-name="Layer 1" xmlns="http://www.w3.org/2000/svg" viewBox="0 0 17.6 23.6"><title>ebookdownload_icon</title><path d="M.3,23.6a.3.3,0,0,1-.3-.3V.3A.3.3,0,0,1,.3,0h11a.3.3,0,0,1,.21.09l6,6a.3.3,0,0,1,.09.21v17a.3.3,0,0,1-.3.3ZM.6,23H17V6.42L11.18.6H.6Z" style="fill:#fff"/><path d="M11.3,6.6a.3.3,0,0,1-.3-.3V.3a.3.3,0,0,1,.6,0V6h5.7a.3.3,0,1,1,0,.6Z" style="fill:#fff"/><path d="M4.3,7.6a.3.3,0,1,1,0-.6H8.8a.3.3,0,0,1,0,.6Z" style="fill:#fff"/><path d="M4.3,10.6a.3.3,0,0,1,0-.6h9a.3.3,0,0,1,0,.6Z" style="fill:#fff"/><path d="M13,20.41a.28.28,0,0,1-.2-.08l-2.25-2.25a.29.29,0,0,1,.41-.41l2,2,2-2a.29.29,0,0,1,.41,0,.29.29,0,0,1,0,.41L13.2,20.33A.28.28,0,0,1,13,20.41Z" style="fill:#fff"/><path d="M8.69,23.6a.29.29,0,0,1-.29-.29V14.69a.29.29,0,0,1,.29-.29h8.63a.29.29,0,0,1,.29.29v8.63a.29.29,0,0,1-.29.29ZM9,23H17V15H9Z" style="fill:#fff"/><path d="M4.3,7.6a.3.3,0,1,1,0-.6H8.8a.3.3,0,0,1,0,.6Z" style="fill:#fff"/><path d="M4.3,10.6a.3.3,0,0,1,0-.6h9a.3.3,0,0,1,0,.6Z" style="fill:#fff"/><path d="M4.3,13.63a.3.3,0,0,1,0-.6h9a.3.3,0,0,1,0,.6Z" style="fill:#fff"/><path d="M4.3,16.6a.3.3,0,0,1,0-.6H7.71v.6Z" style="fill:#fff"/><path d="M4.3,19.6a.3.3,0,0,1,0-.6H7.71v.6Z" style="fill:#fff"/><path d="M.3,23.6a.3.3,0,0,1-.3-.3V.3A.3.3,0,0,1,.3,0h11l.12,0,.1.07,6,6a.28.28,0,0,1,.06.1.3.3,0,0,1,0,.12v6.3H17v-6H11.3a.3.3,0,0,1-.3-.3V.6H.6V23H6.91v.6ZM11.6,6h5l-5-5Z" style="fill:#fff"/></svg>