<svg id="b3e4d39a-2379-4d2f-821a-e6102535c260" data-name="Layer 1" xmlns="http://www.w3.org/2000/svg" viewBox="0 0 24 35"><title>icons</title><path d="M12.5,18h-8a.5.5,0,0,0-.5.5v6a.5.5,0,0,0,.5.5h8a.5.5,0,0,0,.5-.5v-6A.5.5,0,0,0,12.5,18ZM12,24H5V19h7Z" style="fill:#003058"/><path d="M24,11.29h0l-2-4A.5.5,0,0,0,21.5,7H2.5a.5.5,0,0,0-.45.28l-2,4H0a.49.49,0,0,0,0,.21v1a3.54,3.54,0,0,0,2,3.16V27.5a.5.5,0,0,0,.5.5h19a.5.5,0,0,0,.5-.5V15.67a3.54,3.54,0,0,0,2-3.17v-1A.49.49,0,0,0,24,11.29ZM21.19,8l1.5,3h-3.8l-.75-3ZM12.5,8h4.61l.75,3H12.5Zm0,4H18v2.33A3.73,3.73,0,0,1,15.24,16a3.44,3.44,0,0,1-2.74-1.06ZM6.89,8H11.5v3H6.14ZM6,12h5.5v2.92A3.36,3.36,0,0,1,8.77,16,3.74,3.74,0,0,1,6,14.33ZM2.81,8H5.86l-.75,3H1.31ZM1,12.5V12H5v2.27a2.25,2.25,0,0,1-2.46.54A2.56,2.56,0,0,1,1,12.5ZM19,27H15V19h4Zm2,0H20V18.5a.5.5,0,0,0-.5-.5h-5a.5.5,0,0,0-.5.5V27H3V16a3.29,3.29,0,0,0,2.42-.73A4.73,4.73,0,0,0,8.69,17H9a4.38,4.38,0,0,0,3-1.14A4.41,4.41,0,0,0,15.32,17a4.72,4.72,0,0,0,3.26-1.74A3.3,3.3,0,0,0,21,16Zm2-14.5a2.57,2.57,0,0,1-1.54,2.32A2.26,2.26,0,0,1,19,14.28V12h4Z" style="fill:#003058"/><circle cx="17.5" cy="23.5" r="0.5" style="fill:#003058"/></svg>