<svg id="999e1dff-0666-4242-ad44-5ccfe9ce9e1e" data-name="Layer 1" xmlns="http://www.w3.org/2000/svg" viewBox="0 0 24 35"><title>icons</title><path d="M24,15.21a.48.48,0,0,0,0-.14l0-.07v0a.49.49,0,0,0-.11-.11l0,0-11.5-8a.5.5,0,0,0-.57,0l-11.49,8h0l0,0A.49.49,0,0,0,.08,15v0l0,.07a.48.48,0,0,0,0,.14s0,0,0,0v11a2,2,0,0,0,2,2H22a2,2,0,0,0,2-2v-11S24,15.23,24,15.21Zm-1,11a1,1,0,0,1-1,1H2a1,1,0,0,1-1-1V16.18l5.22,3.48a.5.5,0,0,0,.55-.83L1.39,15.24,12,7.86l10.61,7.38-5.39,3.59a.5.5,0,1,0,.55.83L23,16.18Z" style="fill:#003058"/><path d="M15.5,20.25h-7a.5.5,0,0,0-.29.09l-5,3.5a.5.5,0,0,0,.57.82l4.87-3.41h6.68l4.87,3.41a.5.5,0,0,0,.57-.82l-5-3.5A.5.5,0,0,0,15.5,20.25Z" style="fill:#003058"/></svg>