<svg id="c302bdeb-662c-43b2-9580-b20a00ed4493" data-name="Layer 1" xmlns="http://www.w3.org/2000/svg" viewBox="0 0 23 35"><title>icons</title><path d="M15.25,15.73a.5.5,0,0,1-.47-.32l-1-2.7-2.7-1a.5.5,0,0,1,0-.94l2.7-1,1-2.7a.52.52,0,0,1,.94,0l1,2.7,2.7,1a.5.5,0,0,1,0,.94l-2.7,1-1,2.7A.5.5,0,0,1,15.25,15.73Zm-2.58-4.5,1.66.62a.5.5,0,0,1,.29.29l.62,1.66.62-1.66a.5.5,0,0,1,.29-.29l1.66-.62-1.66-.62a.5.5,0,0,1-.29-.29l-.62-1.66-.62,1.66a.5.5,0,0,1-.29.29Z" style="fill:#003058"/><path d="M20.25,19.73a.5.5,0,0,1-.47-.32l-.47-1.24-1.24-.47a.5.5,0,0,1,0-.94l1.24-.47.47-1.24a.52.52,0,0,1,.94,0l.47,1.24,1.24.47a.5.5,0,0,1,0,.94l-1.24.47-.47,1.24A.5.5,0,0,1,20.25,19.73Zm-.58-2.5.21.08a.5.5,0,0,1,.29.29l.08.21.08-.21a.5.5,0,0,1,.29-.29l.21-.08-.21-.08a.5.5,0,0,1-.29-.29l-.08-.21-.08.21a.5.5,0,0,1-.29.29Z" style="fill:#003058"/><path d="M9.25,28.23a9,9,0,0,1-.13-18,.48.48,0,0,1,.41.2.5.5,0,0,1,.08.45,8,8,0,0,0,7.65,10.35v.46l0-.46a.56.56,0,0,1,.46.18.51.51,0,0,1,.12.46A9,9,0,0,1,9.25,28.23Zm-.79-17a8,8,0,0,0,.79,16,8,8,0,0,0,7.42-5A9,9,0,0,1,8.46,11.28Z" style="fill:#003058"/></svg>