<svg id="8e4f0aee-7417-4ffb-b61c-52debf9eb873" data-name="Layer 1" xmlns="http://www.w3.org/2000/svg" viewBox="0 0 24 35"><title>icons</title><path d="M21.5,5.5H2.5A2.5,2.5,0,0,0,0,8V21a2.5,2.5,0,0,0,2.5,2.5h5a.5.5,0,0,0,0-1h-5A1.5,1.5,0,0,1,1,21V8A1.5,1.5,0,0,1,2.5,6.5h19A1.5,1.5,0,0,1,23,8v9a.5.5,0,0,0,1,0V8A2.5,2.5,0,0,0,21.5,5.5Z" style="fill:#003058"/><path d="M20.5,17.5A.5.5,0,0,0,21,17V8a.5.5,0,0,0-.5-.5H4.5A.5.5,0,0,0,4,8V21a.5.5,0,0,0,.5.5h3a.5.5,0,0,0,0-1H5V8.5H20V17A.5.5,0,0,0,20.5,17.5Z" style="fill:#003058"/><circle cx="22" cy="14.5" r="0.5" style="fill:#003058"/><path d="M23.08,20.28,18,18.46v-5c0-.89-.49-1.47-1.25-1.47H15.3A1.33,1.33,0,0,0,14,13.47v7.84l-.83-1a1.54,1.54,0,0,0-1.2-.56l-1,0A1.48,1.48,0,0,0,9.69,22l3.74,6.77a1.46,1.46,0,0,0,1.28.77h6.39a1.48,1.48,0,0,0,1.38-1L24,21.83a.54.54,0,0,0,0-.11A1.43,1.43,0,0,0,23.08,20.28Zm-1.56,7.93a.46.46,0,0,1-.43.29H14.7a.46.46,0,0,1-.41-.25l-3.73-6.77a.48.48,0,0,1,0-.47.48.48,0,0,1,.42-.23l1,0a.55.55,0,0,1,.41.19L14.12,23a.5.5,0,0,0,.88-.32V13.47c0-.21.05-.47.3-.47h1.45c.07,0,.25,0,.25.47v5.34a.5.5,0,0,0,.33.47l5.43,1.95c.16,0,.23.26.24.44Z" style="fill:#003058"/><path d="M1.5,14.5a1,1,0,1,0,1-1A1,1,0,0,0,1.5,14.5Zm1,0h0Z" style="fill:#003058"/></svg>