<svg id="f20d21db-cfad-4907-a0f4-c25f6a70cb69" data-name="Layer 1" xmlns="http://www.w3.org/2000/svg" viewBox="0 0 24 35"><title>icons</title><path d="M11.5,18a.5.5,0,0,0-.5-.5H2.5A1.5,1.5,0,0,1,1,16V9.5H17v5a.5.5,0,0,0,1,0V8a2.5,2.5,0,0,0-2.5-2.5H2.5A2.5,2.5,0,0,0,0,8v8a2.5,2.5,0,0,0,2.5,2.5H11A.5.5,0,0,0,11.5,18ZM2.5,6.5h13A1.5,1.5,0,0,1,17,8v.5H1V8A1.5,1.5,0,0,1,2.5,6.5Z" style="fill:#003058"/><path d="M9,11a.5.5,0,0,0-.5-.5h-5a.5.5,0,0,0,0,1h5A.5.5,0,0,0,9,11Z" style="fill:#003058"/><path d="M13.5,10.5a.5.5,0,0,0,0,1h2a.5.5,0,0,0,0-1Z" style="fill:#003058"/><path d="M3.5,12.5a.5.5,0,0,0,0,1h3a.5.5,0,0,0,0-1Z" style="fill:#003058"/><path d="M17.5,16.5A6.5,6.5,0,1,0,24,23,6.51,6.51,0,0,0,17.5,16.5Zm0,12A5.5,5.5,0,1,1,23,23,5.51,5.51,0,0,1,17.5,28.5Z" style="fill:#003058"/><path d="M20.35,20.15a.5.5,0,0,0-.71,0L17.5,22.29l-2.15-2.15a.5.5,0,0,0-.71.71L16.79,23l-2.15,2.15a.5.5,0,1,0,.71.71l2.15-2.15,2.15,2.15a.5.5,0,0,0,.71-.71L18.21,23l2.15-2.15A.5.5,0,0,0,20.35,20.15Z" style="fill:#003058"/></svg>