<svg id="d582f166-87bc-4676-9fc3-d4548a82f1ad" data-name="Layer 1" xmlns="http://www.w3.org/2000/svg" viewBox="0 0 18 35"><title>icons</title><path d="M18,11.81a.5.5,0,0,0-.11-.16l-6-6a.5.5,0,0,0-.35-.15H.5A.5.5,0,0,0,0,6V29a.5.5,0,0,0,.5.5h17A.5.5,0,0,0,18,29V12A.5.5,0,0,0,18,11.81Zm-6-4.6,4.29,4.29H12ZM1,28.5V6.5H11V12a.5.5,0,0,0,.5.5H17v16Z" style="fill:#003058"/><path d="M13.5,15.5h-4a.5.5,0,0,0,0,1h4a.5.5,0,0,0,0-1Z" style="fill:#003058"/><path d="M13.5,19.5h-4a.5.5,0,0,0,0,1h4a.5.5,0,0,0,0-1Z" style="fill:#003058"/><path d="M13.5,23.5h-4a.5.5,0,0,0,0,1h4a.5.5,0,0,0,0-1Z" style="fill:#003058"/><path d="M7.15,13.65,5,15.79,3.85,14.65a.5.5,0,0,0-.71.71l1.5,1.5a.5.5,0,0,0,.71,0l2.5-2.5a.5.5,0,0,0-.71-.71Z" style="fill:#003058"/><path d="M7.15,17.65,5,19.79,3.85,18.65a.5.5,0,0,0-.71.71l1.5,1.5a.5.5,0,0,0,.71,0l2.5-2.5a.5.5,0,0,0-.71-.71Z" style="fill:#003058"/><path d="M7.15,21.65,5,23.79,3.85,22.65a.5.5,0,0,0-.71.71l1.5,1.5a.5.5,0,0,0,.71,0l2.5-2.5a.5.5,0,0,0-.71-.71Z" style="fill:#003058"/></svg>