<svg id="1479fc56-11f0-4c3f-8c4d-28b320711be7" data-name="Layer 1" xmlns="http://www.w3.org/2000/svg" viewBox="0 0 23 35"><title>icons</title><path d="M22.5,11.5h-.75l.15-.2a.5.5,0,0,0-.4-.8,27.39,27.39,0,0,1-6.58-.6c-.55-.12-1.07-.22-1.67-.3l.69-1.38A.5.5,0,0,0,14,8,2.5,2.5,0,0,0,9,8a.5.5,0,0,0,.05.22L9.74,9.6c-.6.07-1.11.18-1.67.3a27.39,27.39,0,0,1-6.58.6.5.5,0,0,0-.4.8l.15.2H.5a.5.5,0,0,0,0,1H2c1.07,1.45,1.52,2,2.74,2H8.5v10h-2a.5.5,0,0,0-.48.38l-1,4a.5.5,0,0,0,.48.62h12a.5.5,0,0,0,.48-.62l-1-4a.5.5,0,0,0-.48-.38h-2v-10h3.76c1.22,0,1.66-.55,2.74-2h1.5a.5.5,0,0,0,0-1Zm-13,5a15,15,0,0,0,2,1.18v.82a.5.5,0,0,0,.5.5h1.5v1.94a8.62,8.62,0,0,1-4-2.16Zm4-2.5v4h-1V10.53c.37,0,.69.07,1,.11ZM10,7.89a1.5,1.5,0,0,1,3,0l-.81,1.62H10.82Zm-1.72,3a13.67,13.67,0,0,1,3.22-.37v2a9.05,9.05,0,0,1-3.56-1.52ZM4.74,13.5c-.71,0-.9-.19-2-1.72l-.21-.29a30.7,30.7,0,0,0,4.07-.3,11,11,0,0,0,4.93,2.28v3.09a15.09,15.09,0,0,1-2-1.3V14a.5.5,0,0,0-.5-.5Zm12.12,15H6.14l.75-3h9.22Zm-7.36-4V20.1a8.48,8.48,0,0,0,4,1.88V24.5Zm8.76-11H14.5V10.83l.22,0a26.75,26.75,0,0,0,5.79.62l-.22.29C19.16,13.31,19,13.5,18.26,13.5Z" style="fill:#003058"/></svg>