<svg id="6f1dc4d9-4354-4941-8166-97bb3e5949a0" data-name="Layer 1" xmlns="http://www.w3.org/2000/svg" viewBox="0 0 24 35"><title>icons</title><path d="M23.5,18.5a.5.5,0,0,0-.5.5v3.5H1V10.59A1,1,0,0,1,2,9.5H12.5a.5.5,0,0,0,0-1H2a2,2,0,0,0-2,2.09V25.41A2,2,0,0,0,2,27.5h9.5v1H5a.5.5,0,0,0,0,1H19a.5.5,0,0,0,0-1H12.5v-1H22a2,2,0,0,0,2-2.09V19A.5.5,0,0,0,23.5,18.5ZM23,25.41a1,1,0,0,1-1,1.09H2a1,1,0,0,1-1-1.09V23.5H23Z" style="fill:#003058"/><path d="M12,26a1,1,0,1,0-1-1A1,1,0,0,0,12,26Zm0-1h0Z" style="fill:#003058"/><path d="M5.85,15.65a.5.5,0,0,0-.71.71l2,2a.5.5,0,0,0,.71,0l4-4a.5.5,0,0,0-.71-.71L7.5,17.29Z" style="fill:#003058"/><path d="M10.31,11.56A5,5,0,1,0,13,16a.5.5,0,0,0-1,0,4,4,0,1,1-4-4,4,4,0,0,1,1.85.45.5.5,0,0,0,.46-.89Z" style="fill:#003058"/><path d="M23.5,9.5h-1V9a3.5,3.5,0,0,0-7,0v.5h-1a.5.5,0,0,0-.5.5v7a.5.5,0,0,0,.5.5h9A.5.5,0,0,0,24,17V10A.5.5,0,0,0,23.5,9.5Zm-7-.5a2.5,2.5,0,0,1,5,0v.5h-5ZM23,16.5H15v-6h8Z" style="fill:#003058"/><path d="M18.5,13.35V15a.5.5,0,0,0,1,0V13.35a1,1,0,0,0,.5-.85,1,1,0,0,0-2,0A1,1,0,0,0,18.5,13.35Zm.5-.85h0Z" style="fill:#003058"/></svg>