<svg id="00e450dc-e462-4cf3-b6f1-15968658363c" data-name="Layer 1" xmlns="http://www.w3.org/2000/svg" viewBox="0 0 24 35"><title>icons</title><path d="M23.85,12.65l-7-7a.5.5,0,0,0-.71,0l-2,2a.5.5,0,0,0,0,.71l.65.65-4.5,4.5H6.5a.5.5,0,0,0-.35.15l-1.5,1.5a.5.5,0,0,0,0,.71L8.79,20,.15,28.65a.5.5,0,1,0,.71.71L9.5,20.71l4.15,4.15a.5.5,0,0,0,.71,0l1.5-1.5A.5.5,0,0,0,16,23V19.21l4.5-4.5.65.65a.5.5,0,0,0,.71,0l2-2A.5.5,0,0,0,23.85,12.65ZM21.5,14.29l-.65-.65a.5.5,0,0,0-.71,0l-5,5A.5.5,0,0,0,15,19v3.79l-1,1L5.71,15.5l1-1H10.5a.5.5,0,0,0,.35-.15l5-5a.5.5,0,0,0,0-.71L15.21,8,16.5,6.71,22.79,13Z" style="fill:#003058"/></svg>