<svg id="dbcaf023-a645-43db-93a8-d4209d82ac26" data-name="Layer 1" xmlns="http://www.w3.org/2000/svg" viewBox="0 0 21 35"><title>icons</title><path d="M16.5,21.5H5.5a5.5,5.5,0,0,1-.93-10.92A6,6,0,0,1,10.5,5.5,6,6,0,0,1,16,9a3.57,3.57,0,0,1,2.85,1.4,3.46,3.46,0,0,1,.55,3.12,4.5,4.5,0,0,1-2.85,8Zm-6-15a5,5,0,0,0-5,4.57.5.5,0,0,1-.45.46,4.5,4.5,0,0,0,.43,9h11a3.5,3.5,0,0,0,2-6.39.5.5,0,0,1-.18-.61A2.5,2.5,0,0,0,15.69,10a.49.49,0,0,1-.53-.32A5,5,0,0,0,10.5,6.5Z" style="fill:#003058"/><path d="M16.5,25a.5.5,0,1,0,.5.5.5.5,0,0,0-.5-.5Z" style="fill:#003058"/><path d="M16.5,28a.5.5,0,1,0,.5.5.5.5,0,0,0-.5-.5Z" style="fill:#003058"/><path d="M14.5,26.5a.5.5,0,1,0,.5.5.5.5,0,0,0-.5-.5Z" style="fill:#003058"/><path d="M14.5,23.5a.5.5,0,1,0,.5.5.5.5,0,0,0-.5-.5Z" style="fill:#003058"/><path d="M6.5,26.5A.5.5,0,1,0,7,27a.5.5,0,0,0-.5-.5Z" style="fill:#003058"/><path d="M4.5,28a.5.5,0,1,0,.5.5.5.5,0,0,0-.5-.5Z" style="fill:#003058"/><path d="M6.5,23.5A.5.5,0,1,0,7,24a.5.5,0,0,0-.5-.5Z" style="fill:#003058"/><path d="M4.5,25a.5.5,0,1,0,.5.5.5.5,0,0,0-.5-.5Z" style="fill:#003058"/><path d="M9.5,29.5a.5.5,0,0,1-.35-.85L10.79,27H9.5a.5.5,0,0,1-.35-.85l2.5-2.51a.5.5,0,1,1,.71.71L10.71,26H12a.5.5,0,0,1,.35.85l-2.5,2.49A.5.5,0,0,1,9.5,29.5Z" style="fill:#003058"/></svg>