<svg id="3d708780-557f-48a8-9499-b7f234eec0c9" data-name="Layer 1" xmlns="http://www.w3.org/2000/svg" viewBox="0 0 24 35"><title>icons</title><path d="M13.34,19.59,12,19.1V17.18a4.13,4.13,0,0,0,1-2.84,1.47,1.47,0,0,0,.76-1.39,1.55,1.55,0,0,0-.58-1.28,4.24,4.24,0,0,0,.56-2.84C13.4,7.49,11.48,7,9.94,7c-1.37,0-3,.37-3.62,1.38a1.48,1.48,0,0,0-1.22.42c-.71.75-.35,2.15-.15,2.91l.06.22v2a3.61,3.61,0,0,0,2,3.34V19.1l-1.23.45c-2.61.94-4.86,1.75-5.27,3A22.18,22.18,0,0,0,0,27.48a.5.5,0,0,0,.5.5h18a.5.5,0,0,0,.5-.5,22.18,22.18,0,0,0-.5-4.94C18.09,21.29,16,20.54,13.34,19.59ZM1,27a18.54,18.54,0,0,1,.44-4.12c.26-.79,2.7-1.66,4.66-2.37l1.57-.58A.5.5,0,0,0,8,19.45v-2.5a.5.5,0,0,0-.35-.48A2.56,2.56,0,0,1,6,13.95v-2a2,2,0,0,0-.09-.47c-.1-.4-.42-1.62-.09-2,.15-.16.51-.11.71-.07a.5.5,0,0,0,.58-.37c.15-.6,1.36-1,2.83-1s2.68.45,2.83,1a3.58,3.58,0,0,1-.54,2.26,1.43,1.43,0,0,0-.23.62.5.5,0,0,0,.5.5c.17,0,.25.29.25.5s-.08.5-.25.5a.5.5,0,0,0-.5.5c0,2-.76,2.57-.76,2.57a.5.5,0,0,0-.24.43v2.5a.5.5,0,0,0,.32.47l1.68.61c2.11.76,4.29,1.54,4.55,2.33A18.54,18.54,0,0,1,18,27Z" style="fill:#003058"/><path d="M23.5,22.54c-.39-1.17-2.34-2.35-6.5-3.94v-.92a4.13,4.13,0,0,0,1-2.84,1.2,1.2,0,0,0,.49-.43,1.75,1.75,0,0,0,.27-1,1.54,1.54,0,0,0-.59-1.29,4.81,4.81,0,0,0,.57-3,3.11,3.11,0,0,0-1.88-1.81,2.67,2.67,0,0,0-2.51.22.5.5,0,0,0,.55.83,1.7,1.7,0,0,1,1.59-.11,2.22,2.22,0,0,1,1.27,1.12,4.16,4.16,0,0,1-.55,2.43,1.58,1.58,0,0,0-.21.63.5.5,0,0,0,.5.5c.17,0,.25.29.25.5a.77.77,0,0,1-.1.41.16.16,0,0,1-.15.09.5.5,0,0,0-.5.5c0,2-.76,2.57-.76,2.57a.5.5,0,0,0-.24.43v1.5a.5.5,0,0,0,.32.47c3.86,1.45,6,2.61,6.23,3.44A18.54,18.54,0,0,1,23,27H21a.5.5,0,0,0,0,1h2.5a.5.5,0,0,0,.5-.5A22.18,22.18,0,0,0,23.5,22.54Z" style="fill:#003058"/></svg>