<svg id="a29ac9f7-b6bf-4ff0-8b07-43f8d05cbc4e" data-name="Layer 1" xmlns="http://www.w3.org/2000/svg" viewBox="0 0 24 35"><title>icons</title><path d="M22,18a2,2,0,0,0-1.66.89l-2.71-1.12A4.42,4.42,0,0,0,17,13.21l4-4a2,2,0,0,0,1,.28,2,2,0,1,0-2-2,2,2,0,0,0,.28,1l-4,4A4.44,4.44,0,0,0,9.6,13.79L4,11.37a2,2,0,1,0-.43.9l5.68,2.44a4.29,4.29,0,0,0,.8,4.1l-7,7a2,2,0,0,0-1-.28,2,2,0,1,0,2,2,2,2,0,0,0-.28-1l7-7a4.45,4.45,0,0,0,2.28.94v5.12a2,2,0,1,0,1,0V20.45a4.48,4.48,0,0,0,3.12-1.8l2.9,1.2c0,.05,0,.1,0,.16a2,2,0,1,0,2-2ZM2,12a1,1,0,1,1,1-1A1,1,0,0,1,2,12ZM22,6.5a1,1,0,1,1-1,1A1,1,0,0,1,22,6.5ZM2,28.5a1,1,0,1,1,1-1A1,1,0,0,1,2,28.5Zm12.5-1a1,1,0,1,1-1-1A1,1,0,0,1,14.5,27.5Zm-1-8A3.5,3.5,0,1,1,17,16,3.5,3.5,0,0,1,13.5,19.5ZM22,21a1,1,0,1,1,1-1A1,1,0,0,1,22,21Z" style="fill:#003058"/></svg>