<svg id="c96088fa-3434-4152-90a1-b203b1a877ab" data-name="Layer 1" xmlns="http://www.w3.org/2000/svg" viewBox="0 0 24 35"><title>icons</title><path d="M9.5,7.5A.5.5,0,0,1,9,7V6a.5.5,0,0,1,1,0V7A.5.5,0,0,1,9.5,7.5Z" style="fill:#003058"/><path d="M3.5,9.5a.5.5,0,0,1-.35-.15l-1-1a.5.5,0,0,1,.71-.71l1,1a.5.5,0,0,1-.35.85Z" style="fill:#003058"/><path d="M15.5,9.5a.5.5,0,0,1-.35-.85l1-1a.5.5,0,0,1,.71.71l-1,1A.5.5,0,0,1,15.5,9.5Z" style="fill:#003058"/><path d="M1.5,15.5H.5a.5.5,0,1,1,0-1h1a.5.5,0,1,1,0,1Z" style="fill:#003058"/><path d="M19.5,29.5H8.5a5.52,5.52,0,0,1-.93-11A6,6,0,0,1,18.95,17a3.36,3.36,0,0,1,2.85,1.4,3.46,3.46,0,0,1,.55,3.11,4.52,4.52,0,0,1-2.85,8Zm-6-15a5,5,0,0,0-5,4.57.5.5,0,0,1-.45.46,4.51,4.51,0,0,0,.43,9h11a3.52,3.52,0,0,0,2-6.42.5.5,0,0,1-.18-.61A2.47,2.47,0,0,0,21,19a2.45,2.45,0,0,0-2.31-1,.5.5,0,0,1-.53-.32A5,5,0,0,0,13.5,14.47Z" style="fill:#003058"/><path d="M3.83,17.46a.5.5,0,0,1-.47-.33A6.4,6.4,0,0,1,3,15a6.5,6.5,0,0,1,11.36-4.31.5.5,0,1,1-.75.66A5.5,5.5,0,0,0,4,15a5.39,5.39,0,0,0,.31,1.79.5.5,0,0,1-.31.64A.49.49,0,0,1,3.83,17.46Z" style="fill:#003058"/></svg>