<svg id="47cf3808-849e-406d-a47d-f4a7499e5dc7" data-name="Layer 1" xmlns="http://www.w3.org/2000/svg" viewBox="0 0 24 35"><title>icons</title><path d="M7,19a.5.5,0,0,0,.5-.5V16.85A1,1,0,0,0,8,16a1,1,0,0,0-2,0,1,1,0,0,0,.5.85V18.5A.5.5,0,0,0,7,19Zm0-3H7Z" style="fill:#003058"/><path d="M13,13.5V18a.5.5,0,0,0,1,0V13a.5.5,0,0,0-.5-.5H12v-2a5,5,0,0,0-10,0v2H.5A.5.5,0,0,0,0,13V23a.5.5,0,0,0,.5.5h1a.5.5,0,0,0,0-1H1v-9Zm-10-3a4,4,0,0,1,8,0v2H3Z" style="fill:#003058"/><path d="M23.5,20.5H4.5A.5.5,0,0,0,4,21v8a.5.5,0,0,0,.5.5h19A.5.5,0,0,0,24,29V21A.5.5,0,0,0,23.5,20.5Zm-.5,8H5v-7H23Z" style="fill:#003058"/><path d="M6.65,26.85a.5.5,0,0,0,.71,0L8.5,25.71l1.15,1.15a.5.5,0,0,0,.71-.71L9.21,25l1.15-1.15a.5.5,0,1,0-.71-.71L8.5,24.29,7.35,23.15a.5.5,0,0,0-.71.71L7.79,25,6.65,26.15A.5.5,0,0,0,6.65,26.85Z" style="fill:#003058"/><path d="M12.15,26.85a.5.5,0,0,0,.71,0L14,25.71l1.15,1.15a.5.5,0,0,0,.71-.71L14.71,25l1.15-1.15a.5.5,0,0,0-.71-.71L14,24.29l-1.15-1.15a.5.5,0,0,0-.71.71L13.29,25l-1.15,1.15A.5.5,0,0,0,12.15,26.85Z" style="fill:#003058"/><path d="M17.5,27.5h4a.5.5,0,0,0,0-1h-4a.5.5,0,0,0,0,1Z" style="fill:#003058"/></svg>