<svg id="b0900c57-999b-49e8-b008-ee1312b21b59" data-name="Layer 1" xmlns="http://www.w3.org/2000/svg" xmlns:xlink="http://www.w3.org/1999/xlink" viewBox="0 0 230 167"><defs><clipPath id="81c99c66-7392-455c-8d6a-460434855e88"><polygon points="210.11 101.09 201.8 96.27 193.87 100.85 202.17 105.67 210.11 101.09" style="fill:none"/></clipPath><clipPath id="5a0d7b9b-f30f-4627-b530-78d86ed87755"><polygon points="194.7 92.86 186.42 88.05 178.49 92.63 186.77 97.44 194.7 92.86" style="fill:none"/></clipPath><clipPath id="4df44d60-0e8e-48c0-a347-15eab01041a1"><polygon points="179.32 84.78 171.01 79.96 163.06 84.55 171.36 89.37 179.32 84.78" style="fill:none"/></clipPath></defs><title>OurOffering</title><line x1="90.86" y1="98.08" x2="174.93" y2="148.35" style="fill:none;stroke:#b6e8fb;stroke-miterlimit:10;stroke-width:2px"/><g style="isolation:isolate"><path d="M174.4,148.2a7.33,7.33,0,0,1-6.67,0c-1.84-1.07-1.83-2.8,0-3.86a7.33,7.33,0,0,1,6.67,0c1.84,1.06,1.83,2.79,0,3.86Z" style="fill:#b6e8fb"/></g><line x1="102.99" y1="91.15" x2="144.59" y2="116.28" style="fill:none;stroke:#b6e8fb;stroke-miterlimit:10;stroke-width:2px"/><line x1="144.35" y1="116.73" x2="167.99" y2="103.28" style="fill:none;stroke:#b6e8fb;stroke-miterlimit:10;stroke-width:2px"/><g style="isolation:isolate"><path d="M171.8,104a7.33,7.33,0,0,1-6.67,0c-1.84-1.07-1.83-2.8,0-3.86a7.33,7.33,0,0,1,6.67,0c1.84,1.06,1.83,2.79,0,3.86Z" style="fill:#b6e8fb"/></g><g style="isolation:isolate"><g style="clip-path:url(#81c99c66-7392-455c-8d6a-460434855e88)"><polygon points="193.87 100.85 201.8 96.27 210.11 101.09 202.17 105.67 193.87 100.85 193.87 100.85" style="fill:#e9e9e9"/></g></g><g style="isolation:isolate"><g style="clip-path:url(#5a0d7b9b-f30f-4627-b530-78d86ed87755)"><polygon points="178.49 92.63 186.42 88.05 194.7 92.86 186.77 97.44 178.49 92.63 178.49 92.63" style="fill:#003058"/></g></g><g style="isolation:isolate"><g style="clip-path:url(#4df44d60-0e8e-48c0-a347-15eab01041a1)"><polygon points="163.06 84.55 171.01 79.96 179.32 84.78 171.36 89.37 163.06 84.55 163.06 84.55" style="fill:#e9e9e9"/></g></g><path d="M20.6,128.34a4.2,4.2,0,0,1-2.06-3.68l.77-44.33L19.42,72l.06-4.22a10.45,10.45,0,0,1,5.35-9l2-1.12,6.64-3.72L117,7.21a9.49,9.49,0,0,1,9.49.12l4.11,2.45,1.3.79L33.33,64.19,32,65a10.45,10.45,0,0,0-5.35,9l0,2.3L28,132.84l-2.32-1.48Z" style="fill:#003058"/><path d="M25.89,129.43a3.77,3.77,0,0,0,5.61,3.33l.94-.53,77-43.15,19.69-11a8.37,8.37,0,0,0,4.29-7.21l0-3.5L134.18,16l0-2a3.67,3.67,0,0,0-5.47-3.25L110.37,21l-77,43.15L32,65a10.45,10.45,0,0,0-5.35,9l0,2.3-.67,51.35Zm6.66-5.55.67-51.34,77-43.15-.67,51.34Z" style="fill:#b6e8fb"/><ellipse cx="126.09" cy="48.62" rx="5.97" ry="4.04" transform="translate(23.99 137.16) rotate(-62.02)" style="fill:#003058"/><polygon points="32.55 123.88 33.22 72.54 118.3 24.87 117.63 76.22 32.55 123.88" style="fill:#003058"/><path d="M62.2,125.62l.21.14a7.47,7.47,0,0,1-.63-.48Z" style="fill:#00a7e1"/><path d="M63.08,126.19c-.23-.13-.45-.28-.67-.43Z" style="fill:#00a7e1"/><path d="M83.89,78.89C72.33,85.57,63,101.76,63,115s9.44,18.65,21,12,20.91-22.86,20.87-36.15S95.46,72.22,83.89,78.89Z" style="fill:#a8c628"/><path d="M61.77,115.19c0-13.77,9.64-30.54,21.62-37.46,6-3.48,11.49-3.8,15.44-1.51l-5-2.91a9.67,9.67,0,0,0-1.12-.55l-.55-.24a11,11,0,0,0-1.68-.47,12.89,12.89,0,0,0-4.15-.15,12.62,12.62,0,0,0-1.84.31c-.87.22-2,.58-2.84.88a20.31,20.31,0,0,0-2,.87c-.48.23-1.1.59-1.57.84a33.28,33.28,0,0,0-5.28,3.8,37.64,37.64,0,0,0-3.17,3.05c-1.68,1.8-2.92,3.44-2.93,3.45a43.43,43.43,0,0,0-2.65,3.78c-.32.49-1.27,2-2.33,4a48.3,48.3,0,0,0-3.48,8.53,39.44,39.44,0,0,0-1.06,4.36,31.48,31.48,0,0,0-.54,4.33,27.53,27.53,0,0,0,.32,6.32,17.24,17.24,0,0,0,2.07,5.7,12.2,12.2,0,0,0,1.8,2.33c.22.21.5.46.77.68l.16.13a7.47,7.47,0,0,0,.63.48h0c.22.15.44.3.67.43h0l5,2.91C64.2,126.84,61.79,122,61.77,115.19Z" style="fill:#68a328"/><path d="M104.2,83.16a16.82,16.82,0,0,0-.75-1.81c-.15-.33-.41-.76-.59-1.08a12.06,12.06,0,0,0-1.06-1.51,9.1,9.1,0,0,0-1.26-1.3,14.89,14.89,0,0,0-1.71-1.24c-4-2.29-9.41-2-15.44,1.51-12,6.92-21.66,23.69-21.62,37.46,0,6.84,2.43,11.65,6.33,13.91a10.93,10.93,0,0,0,2.68,1.11,12.83,12.83,0,0,0,2.93.4,16.32,16.32,0,0,0,3.18-.29,19.72,19.72,0,0,0,3.8-1.17,26.83,26.83,0,0,0,3.4-1.71,32.6,32.6,0,0,0,3.39-2.31,39.56,39.56,0,0,0,3.24-2.8c.93-1,2.14-2.24,3-3.23.46-.51,1-1.25,1.45-1.79s1-1.28,1.36-1.85c.78-1.16,1.78-2.72,2.5-3.91.63-1,1.1-2,2.14-4.12,0,0,.91-1.91,1.74-4.25.62-1.76.86-2.66,1.3-4.31a41.21,41.21,0,0,0,.81-4.29,34.59,34.59,0,0,0,.27-4.21A22.59,22.59,0,0,0,104.2,83.16ZM84,127c-11.56,6.68-21,1.32-21-12s9.3-29.47,20.86-36.15,21-1.31,21,12S95.59,120.34,84,127Z" style="fill:#e9e9e9"/><path d="M73.45,106.81l5.84-3.37a2.57,2.57,0,0,0,1.17-2c0-.75-.52-1-1.17-.68l-4.67,2.7V98.05c0-.75-.52-1-1.17-.68a2.6,2.6,0,0,0-1.16,2v6.74C72.29,106.88,72.81,107.18,73.45,106.81Z" style="fill:#fff"/><path d="M73.45,106.81a2.67,2.67,0,0,0,1.11-1.53A22.69,22.69,0,0,1,84,92.65c4.11-2.37,8.16-1.61,9.41,1.76.22.58.88.56,1.49,0a2.3,2.3,0,0,0,.71-2.14C94,88,89.1,87,84,90s-10,9.56-11.61,15.69c-.21.83.11,1.41.71,1.31A1,1,0,0,0,73.45,106.81Z" style="fill:#fff"/><path d="M94.47,109.51a2.57,2.57,0,0,0,1.17-2v-6.75c0-.74-.52-1-1.17-.67l-5.84,3.37a2.59,2.59,0,0,0-1.16,2c0,.75.52,1.05,1.16.68l4.67-2.7v5.39C93.3,109.58,93.83,109.88,94.47,109.51Z" style="fill:#fff"/><path d="M84,116.92c5.14-3,10-9.56,11.61-15.69.22-.82-.1-1.41-.71-1.31a2.35,2.35,0,0,0-1.49,1.69A22.69,22.69,0,0,1,84,114.23c-4.11,2.37-8.15,1.61-9.4-1.76-.22-.58-.89-.55-1.5,0a2.33,2.33,0,0,0-.71,2.13C74,118.93,78.83,119.89,84,116.92Z" style="fill:#fff"/></svg>