<svg id="7913f2cc-8426-4262-a59f-365bd0ae9d08" data-name="Layer 1" xmlns="http://www.w3.org/2000/svg" xmlns:xlink="http://www.w3.org/1999/xlink" viewBox="0 0 226 210"><defs><clipPath id="7d7936cb-27d4-4f41-bca5-639691f6e3e1"><polygon points="134.11 37.92 125.8 33.1 117.87 37.68 126.17 42.51 134.11 37.92" style="fill:none"/></clipPath><clipPath id="7b8c4732-e378-4580-8c53-3577afaa64fa"><polygon points="118.7 29.69 110.42 24.88 102.49 29.46 110.77 34.27 118.7 29.69" style="fill:none"/></clipPath><clipPath id="aca85e1f-8408-4b09-a28c-c0bf0352b019"><polygon points="103.32 21.62 95.02 16.79 87.06 21.39 95.36 26.21 103.32 21.62" style="fill:none"/></clipPath></defs><title>OurOffering</title><line x1="88.86" y1="101.91" x2="172.93" y2="152.18" style="fill:none;stroke:#b6e8fb;stroke-miterlimit:10;stroke-width:2px"/><g style="isolation:isolate"><path d="M172.4,152a7.33,7.33,0,0,1-6.67,0c-1.84-1.07-1.83-2.79,0-3.86a7.33,7.33,0,0,1,6.67,0c1.84,1.07,1.83,2.79,0,3.86Z" style="fill:#b6e8fb"/></g><line x1="131" y1="126.83" x2="165.99" y2="107.11" style="fill:none;stroke:#b6e8fb;stroke-miterlimit:10;stroke-width:2px"/><g style="isolation:isolate"><path d="M169.8,107.83a7.33,7.33,0,0,1-6.67,0c-1.84-1.07-1.83-2.79,0-3.86a7.33,7.33,0,0,1,6.67,0c1.84,1.07,1.83,2.79,0,3.86Z" style="fill:#b6e8fb"/></g><path d="M11.43,172.83H9.18a35.19,35.19,0,0,1,4-9.09H7.9V162h7.6v1C14.62,164.32,12,169.43,11.43,172.83Z" style="fill:#666"/><path d="M19.89,173.14A5.12,5.12,0,0,1,16.61,172v-1.78a4.33,4.33,0,0,0,3,1.32,2.08,2.08,0,0,0,2.25-2.17A1.76,1.76,0,0,0,20,167.47a2.16,2.16,0,0,0-1.51.61l-.89-1L21,163.74H16.65V162h7.16v1l-3,3a3.21,3.21,0,0,1,3.19,3.4C24,171.75,22.16,173.14,19.89,173.14Z" style="fill:#666"/><path d="M29.79,173.14c-2.5,0-4.43-2.14-4.43-5.74s1.93-5.73,4.43-5.73,4.43,2.14,4.43,5.73S32.31,173.14,29.79,173.14Zm0-9.79c-1.41,0-2.25,1.38-2.25,4.05s.86,4.07,2.25,4.07S32,170.08,32,167.4,31.19,163.35,29.79,163.35Z" style="fill:#666"/><path d="M48.16,163h-7a.39.39,0,0,1-.26.11c-.05.91-.09,1.91-.18,2.9h5.56l.56.07c0,.09,0,.22,0,.32-.25,4.75-.51,6.47-1.07,7.06-.36.4-.73.5-1.82.5-.53,0-1.2,0-1.87-.07a2.33,2.33,0,0,0-.34-.94c1.11.1,2.17.1,2.62.1a.75.75,0,0,0,.56-.17c.43-.4.69-2,.9-5.94h-5.2c-.41,2.78-1.46,5.54-4.41,7.12a3.23,3.23,0,0,0-.69-.74c4.12-2.09,4.33-6.61,4.41-10.31H35.72v-.94H48.16Z" style="fill:#666"/><path d="M51.33,166a16.14,16.14,0,0,1-1.71,2.33,7.11,7.11,0,0,0-.49-.88,18.47,18.47,0,0,0,3.5-6.3l1.12.38c0,.1-.15.14-.32.12a24.89,24.89,0,0,1-1.29,2.9l.38.1c0,.08-.1.15-.28.17v9.29h-.91Zm11.22,2.29v.91h-4.2V174h-.94v-4.88H53v-.91h4.37v-3.4H54.89a12.86,12.86,0,0,1-1.23,2.27,7.37,7.37,0,0,0-.77-.45,15.68,15.68,0,0,0,2.13-5l1.13.3c0,.1-.14.16-.31.16-.17.62-.38,1.25-.6,1.86h2.17v-2.77l1.23.07c0,.11-.1.18-.29.19V164H62v.9H58.35v3.4Z" style="fill:#666"/><path d="M66.13,170.51l3.25-1,.14.88c-2.06.67-4.26,1.39-5.65,1.81a.23.23,0,0,1-.18.22l-.45-1.11c.54-.14,1.18-.32,1.89-.53L65,161.75l1.28.09c0,.09-.1.17-.28.19Zm9.16-8.59c0,.13-.13.18-.32.2a20.58,20.58,0,0,1-2.06,7.55,48.18,48.18,0,0,1,3.54,3.7l-.82.7a41.27,41.27,0,0,0-3.25-3.56,10.17,10.17,0,0,1-4.86,3.57,5.38,5.38,0,0,0-.69-.77c4.93-1.72,6.5-5.31,7.17-11.58Zm-6.46.72A12.36,12.36,0,0,1,71.1,166l-.91.48A12.36,12.36,0,0,0,68,163Z" style="fill:#666"/><path d="M83.53,172.4h6.36v.95H77.16v-.95h5.39V161.24l1.28.08c0,.1-.1.17-.3.19v4.15h5.38v1H83.53Z" style="fill:#666"/><path d="M98.33,163.56a.35.35,0,0,1-.35.22c-.5,4.36-2,8.16-4.28,8.16-1.18,0-2.24-1.18-2.24-3.39a6.14,6.14,0,0,1,6.3-6.18c4,0,5.8,2.56,5.8,5.29,0,3.34-1.94,5-5.33,5.73a5.37,5.37,0,0,0-.58-.85c3.22-.62,4.87-2.19,4.87-4.83,0-2.31-1.48-4.42-4.76-4.42l-.42,0ZM97,163.38a5.16,5.16,0,0,0-4.58,5.14c0,1.5.64,2.44,1.31,2.44C95.42,171,96.64,167.22,97,163.38Z" style="fill:#666"/><path d="M117.63,163H113.3c-.06.1-.2.12-.35.11a16.09,16.09,0,0,1-1.07,1.75l.4.11a.3.3,0,0,1-.3.18V174h-1V166a19.94,19.94,0,0,1-5.36,4.68,5.13,5.13,0,0,0-.63-.78,18.11,18.11,0,0,0,6.85-6.92h-6.47V162h12.22Zm-.38,7.53a32.46,32.46,0,0,0-4.86-3.61l.67-.64a32,32,0,0,1,4.9,3.48Z" style="fill:#666"/><path d="M126.18,172.45h5.71v.93H119.17v-.93h2v-6.77l1.26.08c0,.1-.1.17-.28.2v6.49h3.05V163h-5.46v-.91H131.4V163h-5.22v3.93h4.56v.93h-4.56Z" style="fill:#666"/><path d="M138.44,161.42a.46.46,0,0,1-.43.24c-.1.61-.23,1.34-.35,1.89a20,20,0,0,0,4.12-.69l.15.95a27.62,27.62,0,0,1-4.46.67,20.85,20.85,0,0,1-3,6.9l-.94-.38a18.76,18.76,0,0,0,2.84-6.49h-2.79v-.91h3a23,23,0,0,0,.39-2.37Zm3.73,6c0,1.14.1,1.91.18,2.88a14.15,14.15,0,0,1,3,1.62l-.5.9a12.7,12.7,0,0,0-2.48-1.47c0,1.4-.56,2.49-2.62,2.49-1.55,0-2.75-.7-2.73-2s1.47-2.07,2.76-2.07a6.16,6.16,0,0,1,1.58.25c-.05-.89-.13-1.81-.13-2.46Zm-.77,3.51a4.62,4.62,0,0,0-1.67-.33c-.84,0-1.84.34-1.85,1.21s.79,1.18,1.88,1.18,1.65-.5,1.65-1.42C141.41,171.31,141.41,171.1,141.4,170.89Zm3.83-4.95a20.18,20.18,0,0,0-4.95.69l-.16-.88a19.28,19.28,0,0,1,5.06-.76Z" style="fill:#666"/><path d="M154.22,162.59h-1.3V174H152v-2.88c-1.68.29-3.35.59-4.44.75a.24.24,0,0,1-.21.2L147,171c.37,0,.79-.1,1.25-.17v-8.25H147v-.88h7.2Zm-2.21,2v-2h-2.87v2Zm0,2.93v-2.06h-2.87v2.06Zm-2.87.87v2.31c.89-.12,1.89-.28,2.87-.42v-1.89ZM159,163l.59.2a.37.37,0,0,1-.11.18,17.89,17.89,0,0,1-2.26,7,8.13,8.13,0,0,0,2.93,2.9,3.29,3.29,0,0,0-.67.77,8.77,8.77,0,0,1-2.82-2.8,10.33,10.33,0,0,1-2.91,2.78,4,4,0,0,0-.63-.75,9.2,9.2,0,0,0,3-2.94,21.15,21.15,0,0,1-1.92-6l.87-.17a19.91,19.91,0,0,0,1.62,5.26,17.58,17.58,0,0,0,1.77-5.4h-4.7v-.92h5.07Z" style="fill:#666"/><path d="M166.75,167.85l.21,0,.56.11c0,.08,0,.2,0,.29-.27,3.49-.52,4.87-1,5.36-.35.37-.77.44-1.73.44-.5,0-1.17,0-1.85-.07a2,2,0,0,0-.35-1c1.05.1,2.09.11,2.44.11a1,1,0,0,0,.67-.15c.37-.33.61-1.48.83-4.22h-3.78c-.06.27-.1.5-.16.73l-.94-.16c.3-1.13.62-3,.82-4.35h4.1V162.5h-4.94v-.89h5.88v4.63h-.94v-.41h-3.29c-.11.67-.24,1.37-.35,2Zm4.76-6.71,1.22.08c0,.1-.08.17-.28.18V174h-.94Z" style="fill:#666"/><path d="M187.08,167l-.08,0a.33.33,0,0,1-.21-.08c-1.07.35-2.62.92-3.79,1.43,0,.32.05.69.05,1.09s0,.95-.05,1.5l-1,.06c0-.51.07-1.15.07-1.7,0-.21,0-.4,0-.56-1.58.77-2.87,1.71-2.87,2.55s1,1.2,2.9,1.2a32,32,0,0,0,3.51-.13l0,.93c-.83.09-2.09.12-3.53.12-2.69,0-3.88-.65-3.88-2.08,0-1.23,1.62-2.42,3.72-3.47-.08-.88-.47-1.32-1-1.32-1,0-2.09.58-3.35,2-.39.43-.94,1-1.54,1.52l-.69-.68a9.86,9.86,0,0,0,3.53-5.17h-3.12v-.91c.85,0,1.85,0,2.42,0l1,0a17,17,0,0,0,.38-2l1.37.17c0,.14-.14.22-.35.25-.09.56-.22,1-.35,1.55a18.66,18.66,0,0,0,4.82-.81l.17.94a20.87,20.87,0,0,1-5.25.78,10.17,10.17,0,0,1-1,2.37h0a3.77,3.77,0,0,1,2.26-.91c1,0,1.55.69,1.74,1.82,1.17-.53,2.66-1.1,3.78-1.54Z" style="fill:#666"/><path d="M192.8,161.59l.63.37a.37.37,0,0,1-.12.13c-.41,1.08-1,2.51-1.54,3.66a4.22,4.22,0,0,1,1.61,3c0,2.05-1.36,2-2.55,1.95a2.52,2.52,0,0,0-.24-.84c.38,0,.74,0,1,0a1.5,1.5,0,0,0,.52-.16c.25-.13.36-.54.36-1s0-1.42-1.62-2.92c.49-1.07,1-2.4,1.34-3.38h-2.27V174h-.88V161.63h3.6Zm8.63,2.7h-5c0,.76-.07,1.51-.12,2.27h3.46l.21,0,.52.06c0,.07,0,.2,0,.31-.18,4.55-.34,6.12-.77,6.62s-.57.48-1.64.48c-.38,0-.82,0-1.29,0a2.13,2.13,0,0,0-.28-.93c.83.07,1.63.07,2,.07a.57.57,0,0,0,.45-.16c.31-.35.49-1.76.61-5.52h-3.29c-.32,2.64-1.12,5.11-3.43,6.59a2.72,2.72,0,0,0-.66-.65c3-1.84,3.27-5.47,3.38-9.08h-2.41v-.9h3.44V161l1.21.07c0,.1-.08.17-.28.2v2.11h3.92Z" style="fill:#666"/><path d="M209.88,172.39h5.45v.92H202.6v-.92h2v-8.21l1.25.08c0,.1-.1.17-.28.2v7.93h3.33V161.05l1.28.09c0,.1-.1.17-.3.19v4.5h4.64v.94h-4.64Z" style="fill:#666"/><path d="M217,169.93v-1.69h1.71v1.69Z" style="fill:#666"/><path d="M11.5,193.59a7.08,7.08,0,0,1,0-11.38l.45.35a8,8,0,0,0,0,10.68Z" style="fill:#666"/><path d="M25.5,189.47H20.27c1,1.6,2.89,2.56,5.39,2.93a4.29,4.29,0,0,0-.57.84c-2.77-.52-4.75-1.71-5.81-3.77h-.21c-.72,1.43-2.29,2.76-5.62,3.77a3.7,3.7,0,0,0-.58-.77c2.93-.83,4.39-1.88,5.12-3H13v-.83h5.42a5.47,5.47,0,0,0,.26-1.29h-4v-.81h4v-1.2H14.33v-.8H18.7v-1.4l1.22.08c0,.1-.08.17-.27.2v1.12h4.47v-1.78H14.29v1.85h-.92v-2.69H18.7V180.2l1.25.08c0,.1-.1.17-.28.18v1.46h5.42v2.69h-.9v.73H19.65v1.2h4.22v.81H19.63a6.37,6.37,0,0,1-.24,1.29H25.5Z" style="fill:#666"/><path d="M30.18,180.79l.57.35a.26.26,0,0,1-.09.12c-.3,1.08-.73,2.55-1.12,3.73a5.38,5.38,0,0,1,1.17,3.12c0,1.95-.92,2-1.92,1.92a2.18,2.18,0,0,0-.19-.78h.5c.44,0,.8,0,.8-1.2a5.14,5.14,0,0,0-1.16-3c.35-1.06.7-2.39.94-3.39H28.11v11.56h-.84V180.83H30Zm2.35,1.91a8.77,8.77,0,0,1,1.07.73,9.51,9.51,0,0,0,.46-1.27H32.35a7.44,7.44,0,0,1-1.6,2.2,3.26,3.26,0,0,0-.6-.46,8.3,8.3,0,0,0,2.16-3.7l1,.26c0,.1-.13.14-.28.14-.08.27-.2.55-.31.82h1.72l.17,0a2.3,2.3,0,0,1,.53.22.46.46,0,0,1-.11.16,9.25,9.25,0,0,1-3.88,5.84,2.75,2.75,0,0,0-.54-.65,6.58,6.58,0,0,0,1.86-1.64,10,10,0,0,0-1.15-.95l.44-.42a8.38,8.38,0,0,1,1.07.86,7.34,7.34,0,0,0,.49-.79,6.15,6.15,0,0,0-1.14-.85Zm.54,7.47A9.31,9.31,0,0,1,31,192.75a4.76,4.76,0,0,0-.62-.55,7.65,7.65,0,0,0,1.94-2.51l1,.35C33.32,190.13,33.22,190.17,33.07,190.17Zm5.81-1.06H35.59v3.13c0,.89-.34,1-2.33,1a2.77,2.77,0,0,0-.31-.81h1.52c.18,0,.22-.05.22-.21v-3.11H31.55v-.82h7.33Zm-6-2.2v-.79h4.57v.79Zm6.17-5.54.6.37c0,.07-.1.1-.15.12a12.48,12.48,0,0,1-1.8,3.23,6.12,6.12,0,0,0,2.17,1.72,2.86,2.86,0,0,0-.58.71c-2.3-1.22-3.69-3.69-4.37-6.86l.75-.17a11.47,11.47,0,0,0,1.57,3.95,10,10,0,0,0,1.22-2.28h-2v-.74h2.42Zm-.27,11.27a12.13,12.13,0,0,0-2-2.46l.69-.43a12,12,0,0,1,2,2.4Z" style="fill:#666"/><path d="M43.9,181.25c0,.15-.18.24-.46.22a33.65,33.65,0,0,0-.74,6.3,15.49,15.49,0,0,0,.18,2.78c.26-.69.87-2.16,1.06-2.65l.59.62c-.57,1.41-1,2.21-1.19,2.84a2.39,2.39,0,0,0-.11.66,1.55,1.55,0,0,0,.07.43l-1,.19a15.65,15.65,0,0,1-.61-4.82,40.65,40.65,0,0,1,.74-6.82Zm8.92,10.24c-.5,0-1,0-1.54,0a20.73,20.73,0,0,1-2.6-.15c-1.73-.26-2.52-1.21-2.52-2.33a4.26,4.26,0,0,1,1.31-2.7l.91.39a3.32,3.32,0,0,0-1.19,2.2c0,1.62,2.38,1.62,3.84,1.62.59,0,1.22,0,1.81-.07Zm-6.48-8.56a46,46,0,0,0,6.11-.53l.08,1a55.84,55.84,0,0,1-6.16.52Z" style="fill:#666"/><path d="M56,192.44a15.24,15.24,0,0,1-.6-4.93,35.85,35.85,0,0,1,.75-6.54l1.36.26a.38.38,0,0,1-.36.26,26.51,26.51,0,0,0-.82,6,16.77,16.77,0,0,0,.13,2.65c.31-.84.87-2.18,1.16-2.84l.63.59a16.42,16.42,0,0,0-1.44,3.74,1.91,1.91,0,0,0,.14.67Zm3.56-8.25c1.17,0,2.35,0,3.53-.06-.06-1.2-.1-2.24-.13-3.28l1.41.05c0,.14-.14.25-.36.29,0,.9,0,1.81.07,2.87a11.74,11.74,0,0,0,2.74-.56l.13,1a13.56,13.56,0,0,1-2.83.51c.06,1.55.13,3.19.17,4.09a10.29,10.29,0,0,1,2.86,1.78l-.55.89a8.27,8.27,0,0,0-2.27-1.59c0,1.19-.24,2.52-2.34,2.52-1.64,0-2.73-.79-2.73-2,0-1.43,1.44-2.06,2.73-2.06a5,5,0,0,1,1.33.18c0-.88-.12-2.35-.19-3.72-.44,0-1,0-1.43,0H59.54Zm3.83,5.5a4.67,4.67,0,0,0-1.38-.25c-.86,0-1.88.31-1.88,1.19s.84,1.18,1.86,1.18,1.42-.5,1.42-1.63Z" style="fill:#666"/><path d="M71.42,192h-2A31.41,31.41,0,0,1,73,184H68.29v-1.52H75v.88A30.14,30.14,0,0,0,71.42,192Z" style="fill:#666"/><path d="M74.57,194.16l-.32-.48a1.87,1.87,0,0,0,1-1.65h-1V190.1h1.94v1.65A2.44,2.44,0,0,1,74.57,194.16Z" style="fill:#666"/><path d="M80.7,192.31a4.54,4.54,0,0,1-2.91-1v-1.58a3.86,3.86,0,0,0,2.67,1.17,1.84,1.84,0,0,0,2-1.92,1.57,1.57,0,0,0-1.68-1.72,1.9,1.9,0,0,0-1.34.55l-.79-.88,3-3H77.82v-1.52h6.37v.9L81.49,186a2.87,2.87,0,0,1,2.83,3A3.31,3.31,0,0,1,80.7,192.31Z" style="fill:#666"/><path d="M89.5,192.31c-2.22,0-3.94-1.91-3.94-5.11s1.72-5.09,3.94-5.09,3.94,1.9,3.94,5.09S91.74,192.31,89.5,192.31Zm0-8.71c-1.25,0-2,1.23-2,3.6s.77,3.62,2,3.62,2-1.24,2-3.62S90.75,183.6,89.5,183.6Z" style="fill:#666"/><path d="M95.63,192v-8.1h-1v-1.2l2.89-.51V192Z" style="fill:#666"/><path d="M99.64,194.16l-.32-.48a1.87,1.87,0,0,0,1-1.65h-1V190.1h1.94v1.65A2.44,2.44,0,0,1,99.64,194.16Z" style="fill:#666"/><path d="M108.88,189.68V192H107v-2.35H102.6v-1l4.76-6.34h1.52v6h1.74v1.36ZM107,184.83l-2.61,3.49H107Z" style="fill:#666"/><path d="M115.58,192.31c-2.22,0-3.94-1.91-3.94-5.11s1.72-5.09,3.94-5.09,3.94,1.9,3.94,5.09S117.82,192.31,115.58,192.31Zm0-8.71c-1.25,0-2,1.23-2,3.6s.77,3.62,2,3.62,2-1.24,2-3.62S116.83,183.6,115.58,183.6Z" style="fill:#666"/><path d="M123.61,192.27a4.14,4.14,0,0,1-2.29-.64v-1.45a4.22,4.22,0,0,0,2.12.67c1.42,0,2.46-.82,2.53-3.31a2.75,2.75,0,0,1-2.23,1.07,3,3,0,0,1-3-3.22,3.31,3.31,0,0,1,3.49-3.28c1.54,0,3.63.78,3.63,4.55C127.85,190.08,126.4,192.27,123.61,192.27Zm.69-8.85a1.71,1.71,0,0,0-1.68,1.92c0,1.11.54,1.94,1.62,1.94a1.72,1.72,0,0,0,1.73-1.76C126,184.16,125.18,183.42,124.3,183.42Z" style="fill:#666"/><path d="M131,185.16a16.83,16.83,0,0,1-1.71,2.34,6.55,6.55,0,0,0-.49-.89,18.47,18.47,0,0,0,3.5-6.3l1.12.38c-.05.1-.15.14-.32.12a24.89,24.89,0,0,1-1.29,2.9l.38.1c0,.09-.1.16-.28.17v9.29H131Zm11.22,2.29v.91H138v4.88H137v-4.88h-4.37v-.91H137v-3.4h-2.52a12.86,12.86,0,0,1-1.23,2.27,7.37,7.37,0,0,0-.77-.45,15.46,15.46,0,0,0,2.12-5l1.14.31c0,.09-.14.15-.31.15-.17.62-.38,1.25-.6,1.86H137v-2.77l1.23.07c0,.11-.1.18-.29.2v2.5h3.67v.9H138v3.4Z" style="fill:#666"/><path d="M143.28,193.59l-.43-.35a8,8,0,0,0,0-10.68l.45-.35a7.11,7.11,0,0,1,0,11.38Z" style="fill:#666"/><polyline points="56.64 24.61 121.77 62.18 121.77 55.05 45.14 9.89 45.14 17.03 56.64 24.61" style="fill:#dad9d9"/><polyline points="121.77 134.06 121.77 62.18 56.64 24.61 45.14 17.03 45.14 88.91" style="fill:#003058"/><polygon points="59.27 36.75 59.27 88.79 113.56 120.11 113.56 68.07 59.27 36.75" style="fill:#00a7e1"/><polygon points="52.53 45.51 66.55 53.6 66.55 44.4 52.53 36.31 52.53 45.51" style="fill:none;stroke:#b6e8fb;stroke-linecap:round;stroke-linejoin:round;stroke-width:1.02477262470557px"/><path d="M93.16,100.47l-9.7,3.17L73.75,90.15c-3.56-5-5.56-10.2-5.56-14.58v-19L98.73,72.75v19C98.73,96.18,96.72,99.3,93.16,100.47Z" style="fill:#b6e8fb"/><path d="M83.46,89.53h0c2.16,1.15,4.2,1.39,5.73.67s2.38-2.3,2.38-4.47a13.22,13.22,0,0,0-2.38-7,16.21,16.21,0,0,0-5.73-5.42h0c-2.17-1.15-4.21-1.39-5.74-.67s-2.38,2.3-2.37,4.47a13.29,13.29,0,0,0,2.37,7A16.15,16.15,0,0,0,83.46,89.53Z" style="fill:#003058"/><polygon points="90.93 78.55 81.8 82.31 79.13 78.22 77.87 78.93 81.34 84.29 82.25 84.77 92.21 80.57 90.93 78.55" style="fill:#b03478"/><polygon points="48.71 46.71 62.73 54.8 62.73 45.6 48.71 37.51 48.71 46.71" style="fill:#b03478"/><polygon points="99.86 119.02 100.05 119.12 99.86 119.02 101.82 109.97 102.6 110.41 100.66 119.39 100.63 119.45 100.05 119.12 99.86 119.02" style="fill:#006c8a"/><polygon points="120.9 98.95 121.69 99.39 121.71 99.38 129.04 95.14 128.26 94.7 122.27 98.15 120.9 98.95" style="fill:#989696"/><polygon points="113.33 103.32 114.12 103.76 114.14 103.75 121.69 99.39 120.9 98.95 114.7 102.53 113.33 103.32" style="fill:#006c8a"/><polygon points="128.26 94.7 129.04 95.14 129.06 95.13 135.82 91.23 135.03 90.78 129.63 93.91 128.26 94.7" style="fill:#006c8a"/><polygon points="104.79 108.25 105.57 108.69 105.58 108.69 114.12 103.76 113.33 103.32 106.13 107.48 104.79 108.25" style="fill:#989696"/><polygon points="101.82 109.97 102.6 110.41 105.57 108.7 105.57 108.69 104.79 108.25 101.82 109.97" style="fill:#006c8a"/><polygon points="135.03 90.78 135.82 91.23 140.26 88.67 140.26 88.67 139.47 88.22 136.38 90 135.03 90.78" style="fill:#989696"/><polygon points="136.46 98.78 138.3 97.72 139.5 92.17 136.46 98.78" style="fill:none;stroke:#00a7e1;stroke-miterlimit:10;stroke-width:0.25px"/><path d="M100.66,119.39l4.91-10.69-3,1.71Z" style="fill:#00a7e1"/><polygon points="109.19 114.53 116.76 110.16 121.7 99.4 121.69 99.39 114.14 103.75 114.13 103.77 109.19 114.53" style="fill:#00a7e1"/><polygon points="109.19 114.53 114.13 103.77 114.12 103.76 105.58 108.69 105.57 108.69 105.57 108.7 100.66 119.39 109.19 114.53" style="fill:#bebebe"/><polygon points="116.76 110.16 124.12 105.91 129.06 95.15 129.04 95.14 121.71 99.38 121.7 99.4 116.76 110.16" style="fill:#bebebe"/><polygon points="130.87 102.01 136.46 98.78 139.5 92.17 140.26 88.67 135.82 91.23 130.87 102.01" style="fill:#bebebe"/><polygon points="124.12 105.91 130.87 102.01 135.82 91.23 129.06 95.13 129.06 95.15 124.12 105.91" style="fill:#00a7e1"/><polygon points="109.54 105.91 106.88 107.44 106.79 107.49 105.65 106.87 108.39 105.26 109.54 105.91" style="fill:#dad9d9"/><polygon points="109.54 105.91 102.37 138.21 99.94 139.53 106.8 107.48 109.54 105.91" style="fill:#bebebe"/><polygon points="99.94 139.53 98.73 138.86 105.66 106.87 106.8 107.49 99.94 139.53" style="fill:#989696"/><polygon points="102.11 132.77 115.5 140.36 115.33 139.38 102.89 132.33 102.11 132.77" style="fill:#dad9d9"/><polygon points="101.7 134.69 115.93 142.75 115.5 140.36 102.11 132.77 102.11 132.77 101.7 134.69" style="fill:#989696"/><polygon points="106.88 107.48 107.77 106.96 109.56 105.93 110.82 106.64 108.08 108.23 107.99 108.18 106.89 107.56 106.81 107.51 106.88 107.48" style="fill:#dad9d9"/><polygon points="106.81 107.51 113.94 146.98 115.04 147.6 108.08 108.23 106.81 107.51" style="fill:#989696"/><polygon points="115.04 147.6 117.86 145.97 111.46 110.15 110.83 106.65 110.82 106.64 108.08 108.23 115.04 147.6" style="fill:#bebebe"/><polygon points="143.05 86.55 140.39 88.08 140.3 88.13 139.16 87.51 141.91 85.91 143.05 86.55" style="fill:#dad9d9"/><polygon points="143.05 86.55 135.88 118.85 133.45 120.17 140.31 88.13 143.05 86.55" style="fill:#bebebe"/><polygon points="133.45 120.17 132.24 119.5 139.17 87.51 140.31 88.13 133.45 120.17" style="fill:#989696"/><polygon points="140.39 88.12 141.28 87.6 143.07 86.57 144.33 87.29 141.59 88.88 141.5 88.83 140.41 88.2 140.32 88.16 140.39 88.12" style="fill:#dad9d9"/><polygon points="140.32 88.16 147.45 127.63 148.55 128.24 141.59 88.88 140.32 88.16" style="fill:#989696"/><polygon points="148.55 128.24 151.38 126.61 144.98 90.8 144.35 87.3 144.33 87.29 141.59 88.88 148.55 128.24" style="fill:#bebebe"/><path d="M105.69,105.17a1.78,1.78,0,0,0,.75,1.27h0l.06,0,.72.4a1.32,1.32,0,0,1-.3-.28,2.11,2.11,0,0,1-.4-1,4.42,4.42,0,0,1,1.52-4,1.67,1.67,0,0,1,1.17-.38,1.26,1.26,0,0,1,.38.1l-.68-.38h0l-.16-.1h0a1.5,1.5,0,0,0-1.55.28A4.42,4.42,0,0,0,105.69,105.17Z" style="fill:#989696"/><path d="M106.53,105.65a2.11,2.11,0,0,0,.4,1,1.32,1.32,0,0,0,.3.28h0l.18.09h0a1.52,1.52,0,0,0,1.52-.29,4.4,4.4,0,0,0,1.52-4,1.81,1.81,0,0,0-.72-1.26h0l0,0-.07,0h0a1.26,1.26,0,0,0-.38-.1,1.67,1.67,0,0,0-1.17.38A4.42,4.42,0,0,0,106.53,105.65Zm.76-.56a2.7,2.7,0,0,1,.93-2.45.85.85,0,0,1,1.44.47h0a1.21,1.21,0,0,1,0,.18,2.72,2.72,0,0,1-.94,2.45,1.24,1.24,0,0,1-.31.18h0C107.9,106.13,107.41,105.81,107.29,105.09Z" style="fill:#bebebe"/><path d="M107.29,105.09c.12.72.61,1,1.16.83h0a1.24,1.24,0,0,0,.31-.18,2.72,2.72,0,0,0,.94-2.45,1.21,1.21,0,0,0,0-.18h0a.85.85,0,0,0-1.44-.47A2.7,2.7,0,0,0,107.29,105.09Z" style="fill:#9e79bb"/><path d="M138.77,85.79a1.83,1.83,0,0,0,.74,1.28h0l.07,0,.72.4a1.13,1.13,0,0,1-.3-.28,2.11,2.11,0,0,1-.4-1,4.39,4.39,0,0,1,1.52-4,1.73,1.73,0,0,1,1.17-.39,1.27,1.27,0,0,1,.38.11l-.68-.39h0l-.16-.09h0a1.5,1.5,0,0,0-1.55.28A4.39,4.39,0,0,0,138.77,85.79Z" style="fill:#989696"/><path d="M139.61,86.27a2.11,2.11,0,0,0,.4,1,1.13,1.13,0,0,0,.3.28h0l.18.1h0a1.49,1.49,0,0,0,1.53-.29,4.39,4.39,0,0,0,1.52-4,1.85,1.85,0,0,0-.72-1.26h0l0,0-.07,0h0a1.27,1.27,0,0,0-.38-.11,1.73,1.73,0,0,0-1.17.39A4.39,4.39,0,0,0,139.61,86.27Zm.75-.56a2.74,2.74,0,0,1,.94-2.45.85.85,0,0,1,1.44.47h0c0,.06,0,.12,0,.19a2.74,2.74,0,0,1-.94,2.45,1.41,1.41,0,0,1-.32.17h0C141,86.75,140.49,86.43,140.36,85.71Z" style="fill:#bebebe"/><path d="M140.36,85.71c.13.72.62,1,1.17.83h0a1.41,1.41,0,0,0,.32-.17,2.74,2.74,0,0,0,.94-2.45c0-.07,0-.13,0-.19h0a.85.85,0,0,0-1.44-.47A2.74,2.74,0,0,0,140.36,85.71Z" style="fill:#9e79bb"/><polygon points="131.8 97.57 132.79 98.13 132.8 98.14 140.04 93.95 140.04 93.95 139.05 93.39 132.95 96.91 131.8 97.57" style="fill:#006c8a"/><polygon points="139.05 93.39 140.04 93.95 140.04 93.95 140.05 93.95 148.12 89.29 147.13 88.72 140.2 92.72 139.05 93.39" style="fill:#989696"/><polygon points="105.9 112.53 105.9 112.55 106.88 113.1 110.53 110.99 109.54 110.43 105.9 112.53" style="fill:#006c8a"/><polygon points="123.53 102.36 124.52 102.92 124.52 102.92 132.79 98.14 132.79 98.13 131.8 97.57 123.53 102.36" style="fill:#989696"/><polygon points="109.54 110.43 110.53 110.99 110.54 110.99 117.31 107.08 116.32 106.51 110.69 109.76 109.54 110.43" style="fill:#989696"/><polygon points="116.32 106.51 117.31 107.08 117.32 107.08 124.52 102.92 123.53 102.36 117.47 105.85 116.32 106.51" style="fill:#006c8a"/><polygon points="108.81 123.95 108.79 123.97 107.85 123.44 105.9 112.55 106.88 113.1 108.81 123.95" style="fill:#006c8a"/><polygon points="115.67 119.98 122.88 115.82 123.54 110.61 124.52 102.92 124.52 102.92 117.32 107.08 117.32 107.08 116.4 114.32 115.67 119.98" style="fill:#00a7e1"/><polygon points="122.88 115.82 131.14 111.05 131.67 106.97 132.79 98.14 124.52 102.92 124.52 102.92 123.54 110.61 122.88 115.82" style="fill:#dad9d9"/><polygon points="146.49 102.19 150.07 100.12 148.13 89.29 146.49 102.19" style="fill:#00a7e1"/><polygon points="131.14 111.05 138.4 106.86 139.06 101.69 140.04 93.95 132.8 98.14 132.79 98.14 131.67 106.97 131.14 111.05" style="fill:#00a7e1"/><path d="M106.88,113.1,108.82,124l.07,0,1.65-12.9h0Z" style="fill:#00a7e1"/><polygon points="108.89 123.9 115.67 119.98 116.4 114.32 117.32 107.08 117.31 107.08 110.54 110.99 110.54 111 108.89 123.9" style="fill:#dad9d9"/><polygon points="138.4 106.86 146.49 102.19 148.13 89.29 148.13 89.29 148.12 89.29 140.05 93.95 140.04 93.95 139.06 101.68 138.4 106.86" style="fill:#dad9d9"/><polygon points="66.7 106.41 66.51 106.51 66.7 106.41 64.74 97.36 63.95 97.8 65.9 106.78 65.93 106.84 66.51 106.51 66.7 106.41" style="fill:#006c8a"/><polygon points="45.65 86.34 44.87 86.78 44.85 86.77 37.51 82.53 38.3 82.09 44.28 85.54 45.65 86.34" style="fill:#989696"/><polygon points="53.22 90.71 52.44 91.15 52.42 91.14 44.87 86.78 45.65 86.34 51.85 89.92 53.22 90.71" style="fill:#006c8a"/><polygon points="38.3 82.09 37.51 82.53 37.49 82.52 30.74 78.62 31.52 78.17 36.93 81.3 38.3 82.09" style="fill:#006c8a"/><polygon points="61.77 95.64 60.98 96.08 60.98 96.08 52.44 91.15 53.22 90.71 60.43 94.87 61.77 95.64" style="fill:#989696"/><polygon points="64.74 97.36 63.95 97.8 60.99 96.09 60.98 96.08 61.77 95.64 64.74 97.36" style="fill:#006c8a"/><polygon points="31.52 78.17 30.74 78.62 26.3 76.06 26.3 76.06 27.08 75.61 30.17 77.39 31.52 78.17" style="fill:#989696"/><polygon points="30.09 86.17 28.26 85.11 27.05 79.56 30.09 86.17" style="fill:none;stroke:#00a7e1;stroke-miterlimit:10;stroke-width:0.25px"/><path d="M64,97.8l-3-1.71,4.91,10.69Z" style="fill:#00a7e1"/><polygon points="57.37 101.92 49.79 97.55 44.85 86.79 44.87 86.78 52.42 91.14 52.42 91.16 57.37 101.92" style="fill:#00a7e1"/><polygon points="57.37 101.92 52.42 91.16 52.44 91.15 60.98 96.08 60.98 96.08 60.99 96.09 65.9 106.78 57.37 101.92" style="fill:#bebebe"/><polygon points="49.79 97.55 42.44 93.3 37.5 82.54 37.51 82.53 44.85 86.77 44.85 86.79 49.79 97.55" style="fill:#bebebe"/><polygon points="35.68 89.4 30.09 86.17 27.05 79.56 26.3 76.06 30.74 78.62 35.68 89.4" style="fill:#bebebe"/><polygon points="42.44 93.3 35.68 89.4 30.74 78.62 37.49 82.52 37.5 82.54 42.44 93.3" style="fill:#00a7e1"/><polygon points="57.02 93.3 59.68 94.83 59.76 94.88 60.91 94.26 58.16 92.65 57.02 93.3" style="fill:#dad9d9"/><polygon points="57.02 93.3 64.18 125.6 66.62 126.92 59.76 94.87 57.02 93.3" style="fill:#bebebe"/><polygon points="66.62 126.92 67.83 126.25 60.9 94.26 59.76 94.88 66.62 126.92" style="fill:#989696"/><polygon points="64.44 120.16 51.06 127.75 51.23 126.77 63.66 119.72 64.44 120.16" style="fill:#dad9d9"/><polygon points="64.85 122.08 50.63 130.14 51.06 127.75 64.44 120.16 64.44 120.16 64.85 122.08" style="fill:#989696"/><polygon points="59.67 94.87 58.78 94.35 56.99 93.32 55.73 94.03 58.48 95.62 58.56 95.58 59.66 94.95 59.74 94.9 59.67 94.87" style="fill:#dad9d9"/><polygon points="59.74 94.9 52.61 134.37 51.51 134.99 58.48 95.62 59.74 94.9" style="fill:#989696"/><polygon points="51.51 134.99 48.69 133.36 55.09 97.54 55.72 94.04 55.73 94.03 58.48 95.62 51.51 134.99" style="fill:#bebebe"/><polygon points="23.51 73.94 26.17 75.47 26.25 75.52 27.4 74.9 24.65 73.3 23.51 73.94" style="fill:#dad9d9"/><polygon points="23.51 73.94 30.67 106.24 33.1 107.56 26.24 75.52 23.51 73.94" style="fill:#bebebe"/><polygon points="33.1 107.56 34.31 106.89 27.39 74.9 26.24 75.52 33.1 107.56" style="fill:#989696"/><polygon points="26.16 75.51 25.27 74.99 23.48 73.96 22.22 74.68 24.97 76.27 25.05 76.22 26.15 75.59 26.23 75.55 26.16 75.51" style="fill:#dad9d9"/><polygon points="26.23 75.55 19.1 115.02 18 115.63 24.97 76.27 26.23 75.55" style="fill:#989696"/><polygon points="18 115.63 15.18 114 21.58 78.19 22.21 74.69 22.22 74.68 24.97 76.27 18 115.63" style="fill:#bebebe"/><path d="M60.86,92.56a1.77,1.77,0,0,1-.74,1.27h0l-.07,0-.71.4a1.1,1.1,0,0,0,.29-.28,2.11,2.11,0,0,0,.4-1,4.44,4.44,0,0,0-1.51-4,1.69,1.69,0,0,0-1.18-.38.94.94,0,0,0-.37.11l.67-.39h0l.16-.1h0a1.5,1.5,0,0,1,1.55.28A4.44,4.44,0,0,1,60.86,92.56Z" style="fill:#989696"/><path d="M58.51,89.06a1.69,1.69,0,0,0-1.18-.38.94.94,0,0,0-.37.11h0l-.07,0,0,0h0a1.85,1.85,0,0,0-.72,1.26,4.45,4.45,0,0,0,1.52,4,1.54,1.54,0,0,0,1.53.29h0l.18-.09h0a1.1,1.1,0,0,0,.29-.28,2.11,2.11,0,0,0,.4-1A4.44,4.44,0,0,0,58.51,89.06Zm-.41,4.25h0a1.29,1.29,0,0,1-.32-.18,2.72,2.72,0,0,1-.93-2.45,1.16,1.16,0,0,1,0-.18h0A.85.85,0,0,1,58.33,90a2.73,2.73,0,0,1,.94,2.45C59.14,93.2,58.65,93.52,58.1,93.31Z" style="fill:#bebebe"/><path d="M59.27,92.48c-.13.72-.62,1-1.17.83h0a1.29,1.29,0,0,1-.32-.18,2.72,2.72,0,0,1-.93-2.45,1.16,1.16,0,0,1,0-.18h0A.85.85,0,0,1,58.33,90,2.73,2.73,0,0,1,59.27,92.48Z" style="fill:#9e79bb"/><path d="M27.79,73.18A1.84,1.84,0,0,1,27,74.46h0l-.07,0-.71.4a1,1,0,0,0,.29-.28,2.23,2.23,0,0,0,.41-1,4.44,4.44,0,0,0-1.52-4,1.75,1.75,0,0,0-1.17-.39,1.19,1.19,0,0,0-.38.11l.67-.39h0l.16-.09h0a1.5,1.5,0,0,1,1.55.28A4.44,4.44,0,0,1,27.79,73.18Z" style="fill:#989696"/><path d="M25.43,69.69a1.75,1.75,0,0,0-1.17-.39,1.19,1.19,0,0,0-.38.11h0l-.07,0-.05,0h0A1.85,1.85,0,0,0,23,70.75a4.44,4.44,0,0,0,1.52,4,1.49,1.49,0,0,0,1.53.29h0l.18-.1h0a1,1,0,0,0,.29-.28,2.23,2.23,0,0,0,.41-1A4.44,4.44,0,0,0,25.43,69.69ZM25,73.93h0a2,2,0,0,1-.32-.17,2.76,2.76,0,0,1-.93-2.45c0-.07,0-.13,0-.19h0a.86.86,0,0,1,1.45-.47,2.76,2.76,0,0,1,.93,2.45C26.06,73.82,25.57,74.14,25,73.93Z" style="fill:#bebebe"/><path d="M26.19,73.1c-.13.72-.62,1-1.17.83h0a2,2,0,0,1-.32-.17,2.76,2.76,0,0,1-.93-2.45c0-.07,0-.13,0-.19h0a.86.86,0,0,1,1.45-.47A2.76,2.76,0,0,1,26.19,73.1Z" style="fill:#9e79bb"/><polygon points="34.76 84.96 33.77 85.52 33.76 85.53 26.51 81.34 26.51 81.34 27.5 80.78 33.61 84.3 34.76 84.96" style="fill:#006c8a"/><polygon points="27.5 80.78 26.51 81.34 26.51 81.34 26.51 81.34 18.43 76.68 19.43 76.11 26.35 80.11 27.5 80.78" style="fill:#989696"/><polygon points="60.66 99.92 60.65 99.94 59.68 100.49 56.02 98.38 57.01 97.82 60.66 99.92" style="fill:#006c8a"/><polygon points="43.03 89.75 42.04 90.31 42.03 90.31 33.77 85.53 33.77 85.52 34.75 84.96 43.03 89.75" style="fill:#989696"/><polygon points="57.01 97.82 56.02 98.38 56.02 98.38 49.24 94.47 50.23 93.9 55.86 97.15 57.01 97.82" style="fill:#989696"/><polygon points="50.23 93.9 49.24 94.47 49.23 94.47 42.04 90.31 43.03 89.75 49.08 93.24 50.23 93.9" style="fill:#006c8a"/><polygon points="57.74 111.34 57.77 111.36 58.71 110.83 60.65 99.94 59.68 100.49 57.74 111.34" style="fill:#006c8a"/><polygon points="50.88 107.38 43.67 103.22 43.01 98 42.03 90.31 42.04 90.31 49.23 94.47 49.23 94.47 50.16 101.71 50.88 107.38" style="fill:#00a7e1"/><polygon points="43.67 103.22 35.41 98.44 34.89 94.36 33.77 85.53 42.03 90.31 42.03 90.31 43.01 98 43.67 103.22" style="fill:#dad9d9"/><polygon points="20.07 89.58 16.49 87.51 18.43 76.69 20.07 89.58" style="fill:#00a7e1"/><polygon points="35.41 98.44 28.16 94.25 27.5 89.08 26.52 81.34 33.75 85.53 33.77 85.53 34.89 94.36 35.41 98.44" style="fill:#00a7e1"/><path d="M56,98.38h0l1.64,12.9.08,0,1.94-10.85Z" style="fill:#00a7e1"/><polygon points="57.66 111.29 50.88 107.38 50.16 101.71 49.23 94.47 49.24 94.47 56.02 98.38 56.02 98.39 57.66 111.29" style="fill:#dad9d9"/><polygon points="28.15 94.25 20.07 89.58 18.43 76.68 18.43 76.68 18.43 76.68 26.51 81.34 26.51 81.34 27.5 89.07 28.15 94.25" style="fill:#dad9d9"/><g style="isolation:isolate"><g style="clip-path:url(#7d7936cb-27d4-4f41-bca5-639691f6e3e1)"><polygon points="117.87 37.68 125.8 33.1 134.11 37.92 126.17 42.51 117.87 37.68 117.87 37.68" style="fill:#e9e9e9"/></g></g><g style="isolation:isolate"><g style="clip-path:url(#7b8c4732-e378-4580-8c53-3577afaa64fa)"><polygon points="102.49 29.46 110.42 24.88 118.7 29.69 110.77 34.27 102.49 29.46 102.49 29.46" style="fill:#003058"/></g></g><g style="isolation:isolate"><g style="clip-path:url(#aca85e1f-8408-4b09-a28c-c0bf0352b019)"><polygon points="87.06 21.39 95.02 16.79 103.32 21.62 95.36 26.21 87.06 21.39 87.06 21.39" style="fill:#e9e9e9"/></g></g></svg>