<svg xmlns="http://www.w3.org/2000/svg" viewBox="0 0 104.33 104.33"><defs><style>.cls-1{fill:#d8d8d8;}.cls-2{fill:#00a7e1;}.cls-3{fill:#fff;}</style></defs><title>awareness_stat</title><g id="Layer_2" data-name="Layer 2"><g id="Layer_1-2" data-name="Layer 1"><path class="cls-1" d="M52.17,101.83a49.67,49.67,0,1,1,49.67-49.67A49.72,49.72,0,0,1,52.17,101.83Zm0-93.33A43.67,43.67,0,1,0,95.83,52.17,43.72,43.72,0,0,0,52.17,8.5Z"/><path class="cls-2" d="M52.17,104.33A52.17,52.17,0,0,1,9,22.89a5.5,5.5,0,1,1,9.1,6.17A41.17,41.17,0,1,0,52.17,11a5.5,5.5,0,0,1,0-11,52.17,52.17,0,0,1,0,104.33Z"/><path class="cls-3" d="M38.66,60.55a7,7,0,0,1-.69,2.9A6.35,6.35,0,0,1,35.71,66a5.86,5.86,0,0,1-3.4,1.08,6.84,6.84,0,0,1-3.63-1,5.58,5.58,0,0,1-2.25-2.28,8.4,8.4,0,0,1-.74-2.09,10.3,10.3,0,0,1-.14-1.7V54.66a4.32,4.32,0,0,1,.58-2.23,5.93,5.93,0,0,1,1.65-1.77,5.36,5.36,0,0,1-2.23-4.55V42a4.92,4.92,0,0,1,.34-1.77,12,12,0,0,1,1.66-2.6q1.31-1.7,4.67-1.7a5.77,5.77,0,0,1,2.44.53,9.06,9.06,0,0,1,2.58,2,5.59,5.59,0,0,1,1.43,4v4a4.92,4.92,0,0,1-2.21,4.23A4.94,4.94,0,0,1,38.66,55ZM32.15,40.27a2.19,2.19,0,0,0-2.23,2.21v4a2.94,2.94,0,0,0,.57,1.82A1.9,1.9,0,0,0,32.1,49a1.92,1.92,0,0,0,1.66-.71,3.07,3.07,0,0,0,.52-1.86v-4a2.21,2.21,0,0,0-.61-1.54A2,2,0,0,0,32.15,40.27Zm0,12a2.09,2.09,0,0,0-1.62.67,2.4,2.4,0,0,0-.61,1.69v5.4A3.18,3.18,0,0,0,30.47,62a2.06,2.06,0,0,0,1.77.74A1.68,1.68,0,0,0,33.85,62a3.87,3.87,0,0,0,.43-1.89v-5.4A2.51,2.51,0,0,0,33.72,53,2,2,0,0,0,32.15,52.32Z"/><path class="cls-3" d="M42.2,51.35a3.75,3.75,0,0,1-.39-1.22,15.82,15.82,0,0,1-.07-1.72V42.16a4.87,4.87,0,0,1,.34-1.79,15,15,0,0,1,1.61-2.67Q45,35.9,48.22,35.9A6,6,0,0,1,53.07,38a7.18,7.18,0,0,1,1.77,4.77v5a9.65,9.65,0,0,1-.74,3.59L48.31,66.89h-5l5.1-13.2a5.2,5.2,0,0,1-1.84.51,4.93,4.93,0,0,1-4.41-2.85Zm6.14-11.08a2,2,0,0,0-1.67.73,2.86,2.86,0,0,0-.56,1.78v5a2.85,2.85,0,0,0,.6,1.88,2.16,2.16,0,0,0,1.77.73A1.71,1.71,0,0,0,50,49.68a3.31,3.31,0,0,0,.49-1.9v-5A3.1,3.1,0,0,0,50,41,1.88,1.88,0,0,0,48.33,40.27Z"/><path class="cls-3" d="M59.12,38a4.45,4.45,0,0,1,6.71-.41,4.56,4.56,0,0,1,1.24,3.22v6a4.43,4.43,0,0,1-.78,2.74A5.42,5.42,0,0,1,64.63,51a3.92,3.92,0,0,1-1.93.48,4.74,4.74,0,0,1-2.44-.64,3.61,3.61,0,0,1-1.52-1.52,5.79,5.79,0,0,1-.51-1.43,7,7,0,0,1-.09-1.15v-6a5.48,5.48,0,0,1,.18-1.56A3.31,3.31,0,0,1,59.12,38Zm.37,29.56L76.31,36H78.8L61.92,67.54Zm3.15-28.42a1.32,1.32,0,0,0-1.09.51,1.78,1.78,0,0,0-.41,1.15v6q0,1.75,1.54,1.75A1.17,1.17,0,0,0,63.74,48a2.2,2.2,0,0,0,.34-1.22v-6a1.82,1.82,0,0,0-.39-1.17A1.28,1.28,0,0,0,62.63,39.12Zm9.68,14.62a4.49,4.49,0,0,1,6.75-.41,4.54,4.54,0,0,1,1.25,3.22v6a4.41,4.41,0,0,1-.79,2.74,5.42,5.42,0,0,1-1.66,1.52,4,4,0,0,1-1.94.48,4.8,4.8,0,0,1-2.45-.64,3.61,3.61,0,0,1-1.53-1.52,5.73,5.73,0,0,1-.51-1.43,7,7,0,0,1-.09-1.15v-6A5.44,5.44,0,0,1,71.53,55,3.33,3.33,0,0,1,72.32,53.74Zm3.54,1.15a1.35,1.35,0,0,0-1.1.51,1.77,1.77,0,0,0-.41,1.15v6q0,1.75,1.56,1.75A1.2,1.2,0,0,0,77,63.74a2.18,2.18,0,0,0,.34-1.22v-6a1.81,1.81,0,0,0-.39-1.17A1.31,1.31,0,0,0,75.85,54.89Z"/></g></g></svg>