<svg width="480" height="715" id="751c8021-33a1-43e3-9107-45348d9bfb75" data-name="Layer 1" xmlns="http://www.w3.org/2000/svg" xmlns:xlink="http://www.w3.org/1999/xlink" viewBox="0 0 617.11 826.45"><defs><clipPath id="7c9a487a-1eed-4282-9e23-2c1f0078743f" transform="translate(0.11 -1.72)"><path d="M311,49.64l11.69,6.79c-1.67-1-4-.83-6.54.63l-11.68-6.77C307,48.81,309.31,48.68,311,49.64Z" style="fill:#4e4e4f"/></clipPath><clipPath id="38f452d7-39e2-4272-9da0-5a05bd9a6341" transform="translate(0.11 -1.72)"><path d="M121.72,313.85,110,307.07c-1.65-1-2.67-3-2.69-5.89L119,308C119,310.84,120.07,312.88,121.72,313.85Z" style="fill:#232324"/></clipPath><clipPath id="3e3f134b-f8db-4839-b947-0a99b4b9fe6c" transform="translate(0.11 -1.72)"><path d="M118.69,181.59,107,174.8c0-5.83,4.07-12.92,9.15-15.84l11.67,6.77C122.77,168.67,118.68,175.77,118.69,181.59Z"/></clipPath></defs><title>awareness_block</title><g id="65ac5515-39f5-4567-90db-9e81e7e852d5" data-name="awareness_block"><g id="fb058214-2a87-4a79-87eb-d502a2162894" data-name="green_brick"><g id="5a032ce0-aff7-4ec2-95de-f01859a38ca4" data-name="yellow_brick"><polygon points="309.44 826.45 617.11 647.82 617.11 292.66 617.02 290.56 309.44 112.98 0.55 291.19 0 291.51 0 647.82 307.67 825.45 309.44 826.45" style="fill:#00b6e8"/><polygon points="309.44 825.95 0 647.3 0 289.99 309.44 468.64 309.44 825.95" style="fill:#fff;opacity:0.2"/><polygon points="617.11 647.3 309.67 825.95 309.67 468.64 617.11 289.99 617.11 647.3" style="fill:#fff;opacity:0.4"/></g></g><g id="5f388641-1326-4d4b-ac3a-7bf13fc40535" data-name="awareness_illustration"><g style="isolation:isolate"><polygon points="485.76 66.37 492.49 62.46 384.3 0 377.59 3.91 485.76 66.37" style="fill:#b698d3"/><polygon points="377.59 3.91 377.09 194.69 485.27 257.16 485.76 66.37 377.59 3.91" style="fill:#765496"/></g><g style="isolation:isolate"><polygon points="466.82 266.6 484.54 256.3 485.01 71.11 467.28 81.42 466.82 266.6" style="fill:#7e7f80"/><polygon points="467.28 81.42 485.01 71.11 384.68 13.19 366.96 23.5 467.28 81.42" style="fill:#e9e9e9"/><polygon points="366.96 23.5 366.48 208.67 466.82 266.6 467.28 81.42 366.96 23.5" style="fill:#f3f4f7"/></g><g style="isolation:isolate"><polygon points="460.59 271.43 467.31 267.52 467.8 76.74 461.08 80.64 460.59 271.43" style="fill:#805710"/><polygon points="461.08 80.64 467.8 76.74 359.61 14.27 352.88 18.19 461.08 80.64" style="fill:#b698d3"/><polygon points="352.88 18.19 352.41 208.97 460.59 271.43 461.08 80.64 352.88 18.19" style="fill:#765496"/></g><polygon points="460.59 271.43 492 253.25 492.49 62.46 461.08 80.64 460.59 271.43" style="fill:#9e79bb"/><polygon points="461.05 80.64 454.31 76.74 485.76 58.56 492.49 62.46 461.05 80.64" style="fill:#b698d3"/><g style="isolation:isolate"><polygon points="454.01 92.93 461.13 88.79 346.37 22.53 339.23 26.67 454.01 92.93" style="fill:#ace87e"/><polygon points="339.23 26.67 338.7 209.29 453.48 275.55 454.01 92.93 339.23 26.67" style="fill:#79b54b"/></g><g style="isolation:isolate"><polygon points="433.86 285.57 452.69 274.64 453.18 97.98 434.37 108.89 433.86 285.57" style="fill:#7e7f80"/><polygon points="434.37 108.89 453.18 97.98 346.75 36.52 327.95 47.44 434.37 108.89" style="fill:#e9e9e9"/><polygon points="424.6 94.6 409.15 85.67 409.15 58.88 416.88 70.49 424.6 67.81 424.6 94.6" style="fill:#9e79bb"/><polygon points="327.95 47.44 327.45 224.11 433.86 285.57 434.37 108.89 327.95 47.44" style="fill:#f3f4f7"/></g><g style="isolation:isolate"><polygon points="427.28 290.69 434.43 286.55 434.94 103.93 427.8 108.08 427.28 290.69" style="fill:#805710"/><polygon points="427.8 108.08 434.94 103.93 320.18 37.67 313.04 41.82 427.8 108.08" style="fill:#ace87e"/><polygon points="313.04 41.82 312.52 224.43 427.28 290.69 427.8 108.08 313.04 41.82" style="fill:#95d669"/></g><polygon points="427.28 290.69 460.61 271.4 461.13 88.79 427.8 108.08 427.28 290.69" style="fill:#79b54b"/><polygon points="427.78 108.08 420.64 103.93 454.01 84.64 461.13 88.79 427.78 108.08" style="fill:#ace87e"/><path d="M382.18,310.19a3.37,3.37,0,0,1-2,2.75l-3.45,2,0-4.38-6.9-4-6.76,3.91,3.86,2.25,2.91-1.68,3,1.76L370,314.47l-6.9-4v.24l-3.3-1.92A11.24,11.24,0,0,0,358.6,306l2.2-1.27,0-4.48-6.89-4-1.56.89v-1.79l-6.89-4-1.54.88v-1.79l-6.91-4-6.77,3.91v1.08l-.94-.55-6.77,3.9v1.1l-1-.55-6.76,3.91v1.09l-1-.55-6.77,3.91v1.07l-.93-.54-6.78,3.91v1.08l-.94-.54-6.77,3.91v1.08l-.94-.54L284,317v1.09l-1-.55-6.76,3.91v1.09l-.94-.55-6.77,3.91V327l-.94-.55-6.77,3.92v1.07l-.94-.54-6.78,3.92v1.07l-.93-.54-6.78,3.9v1.09l-.93-.54-6.78,3.91h0v1.09l-.93-.55L230,348.2v4l-3.47-2-6.79,3.92v4.1l-3.22-1.87a3.33,3.33,0,0,1-1.94-2.72l0,4.49a3.27,3.27,0,0,0,1.92,2.72L256,383.72a10.48,10.48,0,0,0,9.45,0l114.83-66.29a3.33,3.33,0,0,0,1.95-2.76Z" transform="translate(0.11 -1.72)" style="fill:#d7e7f7"/><path d="M380.24,307.46l-39.36-22.88a10.43,10.43,0,0,0-9.46,0L216.61,350.87c-2.6,1.51-2.62,4,0,5.48l39.37,22.88a10.44,10.44,0,0,0,9.45,0l114.82-66.29C382.83,311.44,382.83,309,380.24,307.46Z" transform="translate(0.11 -1.72)" style="fill:#f8f9fc"/><polygon points="337.11 284.71 344.02 288.72 337.25 292.63 330.34 288.63 337.11 284.71" style="fill:#22292b"/><polygon points="329.41 289.16 336.31 293.17 329.54 297.08 322.64 293.06 329.41 289.16" style="fill:#22292b"/><polygon points="321.69 293.62 328.6 297.62 321.83 301.53 314.93 297.52 321.69 293.62" style="fill:#22292b"/><polygon points="337.85 294.07 344.74 298.08 337.98 301.99 331.07 297.99 337.85 294.07" style="fill:#22292b"/><polygon points="354.01 294.53 360.89 298.54 354.13 302.44 347.24 298.44 354.01 294.53" style="fill:#22292b"/><polygon points="313.99 298.06 320.89 302.07 314.12 305.99 307.22 301.98 313.99 298.06" style="fill:#22292b"/><polygon points="346.3 298.97 353.18 302.98 346.42 306.89 339.53 302.88 346.3 298.97" style="fill:#22292b"/><polygon points="306.29 302.51 313.2 306.53 306.4 310.43 299.51 306.43 306.29 302.51" style="fill:#22292b"/><polygon points="338.6 303.43 345.48 307.44 338.7 311.34 331.81 307.34 338.6 303.43" style="fill:#22292b"/><polygon points="298.57 306.96 305.48 310.98 298.69 314.89 291.81 310.87 298.57 306.96" style="fill:#22292b"/><polygon points="319.14 304.87 326.04 308.88 307.13 319.79 300.24 315.78 319.14 304.87" style="fill:#22292b"/><polygon points="283.15 315.86 290.06 319.87 283.3 323.78 276.39 319.77 283.15 315.86" style="fill:#22292b"/><polygon points="299.32 316.32 306.2 320.33 299.42 324.24 292.55 320.23 299.32 316.32" style="fill:#22292b"/><polygon points="328.22 310.14 336.18 314.77 340.77 317.44 343.08 318.78 331.67 325.37 324.77 321.37 328.27 319.33 320.3 314.7 328.22 310.14" style="fill:#22292b"/><polygon points="275.45 320.31 282.35 324.33 275.58 328.24 268.68 324.22 275.45 320.31" style="fill:#22292b"/><polygon points="291.61 320.77 298.49 324.78 291.73 328.69 284.83 324.68 291.61 320.77" style="fill:#22292b"/><polygon points="302.56 324.22 309.46 328.24 302.68 332.14 295.79 328.13 302.56 324.22" style="fill:#22292b"/><polygon points="267.74 324.76 274.64 328.78 267.88 332.68 260.97 328.69 267.74 324.76" style="fill:#22292b"/><polygon points="283.89 325.22 290.79 329.22 284.02 333.14 277.12 329.13 283.89 325.22" style="fill:#22292b"/><polygon points="294.95 328.62 301.85 332.62 295.06 336.54 288.17 332.54 294.95 328.62" style="fill:#22292b"/><polygon points="260.04 329.21 266.94 333.22 260.17 337.15 253.26 333.13 260.04 329.21" style="fill:#22292b"/><polygon points="276.18 329.67 283.07 333.68 276.31 337.58 269.42 333.58 276.18 329.67" style="fill:#22292b"/><polygon points="328.46 328.89 335.35 332.89 321.88 340.66 315 336.66 328.46 328.89" style="fill:#22292b"/><polygon points="287.33 333.03 294.22 337.03 287.45 340.95 280.56 336.94 287.33 333.03" style="fill:#22292b"/><polygon points="252.33 333.67 259.22 337.68 252.45 341.59 245.55 337.57 252.33 333.67" style="fill:#22292b"/><polygon points="268.49 334.12 275.38 338.13 268.6 342.05 261.71 338.03 268.49 334.12" style="fill:#22292b"/><polygon points="279.69 337.43 286.59 341.43 279.82 345.33 272.93 341.34 279.69 337.43" style="fill:#22292b"/><polygon points="244.63 338.12 251.51 342.13 244.74 346.03 237.84 342.03 244.63 338.12" style="fill:#22292b"/><polygon points="260.78 338.57 267.66 342.57 260.88 346.49 254 342.48 260.78 338.57" style="fill:#22292b"/><polygon points="272.09 341.82 278.99 345.83 272.2 349.74 265.32 345.73 272.09 341.82" style="fill:#22292b"/><polygon points="236.91 342.57 243.82 346.57 237.05 350.49 230.15 346.47 236.91 342.57" style="fill:#22292b"/><polygon points="253.07 343.02 259.95 347.03 253.19 350.94 246.3 346.94 253.07 343.02" style="fill:#22292b"/><polygon points="264.46 346.22 271.37 350.23 264.6 354.14 257.7 350.13 264.46 346.22" style="fill:#22292b"/><polygon points="226.68 348.48 233.57 352.49 226.8 356.4 219.89 352.4 226.68 348.48" style="fill:#22292b"/><polygon points="256.84 350.63 263.74 354.63 256.97 358.53 250.08 354.54 256.84 350.63" style="fill:#22292b"/><polygon points="314.16 337.15 321.04 341.15 287.95 360.26 281.05 356.26 314.16 337.15" style="fill:#22292b"/><polygon points="245.03 347.66 251.91 351.68 235.23 361.3 228.33 357.3 245.03 347.66" style="fill:#22292b"/><polygon points="249.21 355.04 256.08 359.04 243.68 366.21 236.79 362.21 249.21 355.04" style="fill:#22292b"/><polygon points="280 356.85 286.89 360.87 275.46 367.47 268.56 363.46 280 356.85" style="fill:#22292b"/><polygon points="267.17 364.26 274.05 368.28 260.6 376.04 253.71 372.05 267.17 364.26" style="fill:#22292b"/><polygon points="345.56 289.62 352.45 293.63 345.68 297.52 338.8 293.53 345.56 289.62" style="fill:#22292b"/><polygon points="330.14 298.52 337.04 302.53 330.27 306.44 323.37 302.43 330.14 298.52" style="fill:#22292b"/><polygon points="369.96 304.82 376.86 308.82 370.1 312.75 363.2 308.73 369.96 304.82" style="fill:#22292b"/><polygon points="362.3 309.25 363.22 309.79 369.19 313.25 362.42 317.17 355.53 313.15 356.22 312.76 362.3 309.25" style="fill:#22292b"/><polygon points="354.84 304.82 355.76 305.35 361.74 308.82 354.97 312.75 348.06 308.73 348.77 308.32 354.84 304.82" style="fill:#22292b"/><polygon points="290.86 311.41 297.77 315.43 290.99 319.33 284.09 315.32 290.86 311.41" style="fill:#22292b"/><polygon points="354.84 313.55 361.74 317.56 354.96 321.48 348.06 317.46 354.84 313.55" style="fill:#22292b"/><polygon points="317.81 315.43 324.69 319.43 317.93 323.34 311.03 319.34 317.81 315.43" style="fill:#22292b"/><polygon points="310.17 319.83 317.08 323.83 310.31 327.74 303.41 323.74 310.17 319.83" style="fill:#22292b"/><polygon points="343.83 320.01 350.72 324.01 336.75 332.08 329.86 328.08 343.83 320.01" style="fill:#22292b"/><polygon points="269.61 353.02 276.5 357.04 269.74 360.95 262.83 356.94 269.61 353.02 269.61 353.02" style="fill:#22292b"/><polygon points="270.36 352.59 277.13 348.68 284.05 352.69 277.27 356.6 270.36 352.59 270.36 352.59" style="fill:#22292b"/><polygon points="277.98 348.19 284.76 344.28 291.66 348.29 284.89 352.2 277.98 348.19 277.98 348.19" style="fill:#22292b"/><polygon points="285.51 343.85 292.29 339.93 299.19 343.94 292.42 347.86 285.51 343.85 285.51 343.85" style="fill:#22292b"/><polygon points="293.39 339.31 300.16 335.39 307.06 339.4 300.29 343.31 293.39 339.31 293.39 339.31" style="fill:#22292b"/><polygon points="300.93 334.94 307.69 331.04 314.59 335.05 307.83 338.95 300.93 334.94 300.93 334.94" style="fill:#22292b"/><polygon points="308.55 330.55 315.31 326.64 322.22 330.65 315.45 334.56 308.55 330.55 308.55 330.55" style="fill:#22292b"/><polygon points="316.07 326.2 322.84 322.3 329.75 326.29 322.98 330.21 316.07 326.2 316.07 326.2" style="fill:#22292b"/><polygon points="245.23 367.11 261.9 357.47 268.81 361.48 252.11 371.12 245.23 367.11 245.23 367.11" style="fill:#22292b"/><g style="isolation:isolate"><polygon points="166.42 300.22 166.45 310.65 213.45 338.09 213.41 327.66 166.42 300.22" style="fill:#9cb5cc"/><polygon points="213.41 327.66 213.45 338.09 314.29 279.58 314.25 269.16 213.41 327.66" style="fill:#d7e7f7"/><polygon points="166.42 300.22 213.41 327.66 314.25 269.16 267.26 241.74 166.42 300.22" style="fill:#e9e9e9"/></g><g style="isolation:isolate"><polygon points="211.51 300.83 195.59 291.59 195.27 170.98 211.18 185.36 211.51 300.83" style="fill:#0f0f0f"/><polygon points="211.18 185.36 195.27 170.98 249.08 139.92 264.98 154.3 211.18 185.36" style="fill:#0d2d49"/><polygon points="264.98 154.3 265.32 269.78 211.51 300.83 211.18 185.36 264.98 154.3" style="fill:#232324"/></g><g style="isolation:isolate"><path d="M311,49.64l11.69,6.79c-1.67-1-4-.83-6.54.63l-11.68-6.77C307,48.81,309.31,48.68,311,49.64Z" transform="translate(0.11 -1.72)" style="fill:#4e4e4f"/><g style="clip-path:url(#7c9a487a-1eed-4282-9e23-2c1f0078743f)"><path d="M316.13,57.06l-11.68-6.77c2.55-1.48,4.87-1.62,6.53-.65l11.69,6.79c-1.67-1-4-.83-6.54.63Z" transform="translate(0.11 -1.72)" style="fill:#232324"/></g><path d="M121.72,313.85,110,307.07c-1.65-1-2.67-3-2.69-5.89L119,308C119,310.84,120.07,312.88,121.72,313.85Z" transform="translate(0.11 -1.72)" style="fill:#232324"/><g style="clip-path:url(#38f452d7-39e2-4272-9da0-5a05bd9a6341)"><g style="isolation:isolate"><path d="M121.72,313.85,110,307.07c-1.65-1-2.67-3-2.69-5.89L119,308c0,2.89,1,4.92,2.68,5.89Z" transform="translate(0.11 -1.72)" style="fill:#232324"/></g></g><polygon points="119.15 306.23 107.46 299.45 107.14 173.08 118.8 179.87 119.15 306.23" style="fill:#232324"/><polygon points="127.95 164.02 116.29 157.25 304.56 48.57 316.24 55.34 127.95 164.02" style="fill:#232324"/><g style="isolation:isolate"><path d="M118.69,181.59,107,174.8c0-5.83,4.07-12.92,9.15-15.84l11.67,6.77C122.77,168.67,118.68,175.77,118.69,181.59Z" transform="translate(0.11 -1.72)"/><g style="clip-path:url(#3e3f134b-f8db-4839-b947-0a99b4b9fe6c)"><path d="M118.69,181.59,107,174.8c0-5.83,4.07-12.92,9.15-15.84l11.67,6.77c-5.06,2.93-9.16,10-9.15,15.85Z" transform="translate(0.11 -1.72)" style="fill:#232324"/></g></g><path d="M316.13,57.06c5.07-2.92,9.19-.58,9.19,5.26l.35,126.37c0,5.82-4.06,12.92-9.14,15.84L128.24,313.2c-5.06,2.92-9.19.58-9.2-5.25l-.35-126.37c0-5.82,4.09-12.92,9.15-15.85Z" transform="translate(0.11 -1.72)" style="fill:#31393d"/><path d="M127.71,181.55c0-2.58,2.37-6.69,4.63-8l184-106.18.34,121.35c0,2.59-2.38,6.71-4.64,8L128,302.92Z" transform="translate(0.11 -1.72)" style="fill:#4bc8f1"/></g><g style="isolation:isolate"><polygon points="158.84 270.48 155.16 268.38 154.87 164.66 158.55 166.75 158.84 270.48" style="fill:#00243f"/><polygon points="158.55 166.75 154.87 164.66 299.29 81.3 302.94 83.4 158.55 166.75" style="fill:#00243f"/><polygon points="158.55 166.75 158.84 270.48 235.66 226.13 235.66 122.24 158.55 166.75" style="fill:#002f58"/><polygon points="302.94 83.4 235.66 122.24 235.66 226.13 303.23 187.11 302.94 83.4" style="fill:#002f58"/></g><path d="M299.22,90.94l.26,93.74s-8.93,37.67-62.1,39.52l-1.88-87.65,1.15-7.78C262.7,119.08,299.22,90.94,299.22,90.94Z" transform="translate(0.11 -1.72)" style="fill:#babbbd"/><g style="isolation:isolate"><polygon points="235.92 228.59 229.74 224.99 229.49 138.4 229.49 135.83 229.48 131.25 229.48 131.25 235.62 134.82 235.62 134.82 235.66 134.84 235.66 134.85 235.92 228.59" style="fill:#717274"/></g><path d="M223.9,136.13l11.64-5,.27,92.31s-22.62,39.09-71.43,40.94l-.3-93.75C222.3,147.24,223.9,136.13,223.9,136.13Z" transform="translate(0.11 -1.72)" style="fill:#babbbd"/><g style="isolation:isolate"><polygon points="170.66 266.27 164.49 262.67 164.22 168.93 170.4 172.52 170.66 266.27" style="fill:#717274"/></g><path d="M299.23,98.77l.25,94.85s-9.85,35.46-63.68,36.69l-.27-93.73C277.61,122.09,299.23,98.77,299.23,98.77Z" transform="translate(0.11 -1.72)" style="fill:#f2f2f2"/><path d="M304.9,114.8l1.22,99.49s-20,22.84-70.32,16l-.26-93.73C282.53,133,304.9,114.8,304.9,114.8Z" transform="translate(0.11 -1.72)" style="fill:#fff"/><path d="M299.79,198.84a54.1,54.1,0,0,1-8.82,5.3c-1.06.5-2.16,1-3.35,1.51a84,84,0,0,1-19.3,5.36l-.76.11a121,121,0,0,1-29.09.72v6a146.64,146.64,0,0,0,15.63.44A120.52,120.52,0,0,0,268.5,217a87.49,87.49,0,0,0,21-5.71,68.33,68.33,0,0,0,10.25-5.51Z" transform="translate(0.11 -1.72)" style="fill:#e6e6e6"/><path d="M299.79,181.71a58.35,58.35,0,0,1-9.77,5.84c-1,.49-2.15,1-3.32,1.48a90.8,90.8,0,0,1-19,5.43l-.76.13A126.15,126.15,0,0,1,238.47,196V202a151.91,151.91,0,0,0,15.58,0,131.92,131.92,0,0,0,14.3-1.61A89.77,89.77,0,0,0,287.82,195a86.34,86.34,0,0,0,11.4-6.07l.57-.33Z" transform="translate(0.11 -1.72)" style="fill:#e6e6e6"/><path d="M299.79,164.6A66.35,66.35,0,0,1,289,170.94c-1.06.48-2.15,1-3.3,1.44a98.5,98.5,0,0,1-18.75,5.5l-.73.14a134.13,134.13,0,0,1-27.78,2.2v5.94q8.12.09,15.47-.52c5-.43,9.75-1.13,14.2-1.95a94.54,94.54,0,0,0,17.89-5,96.09,96.09,0,0,0,10.61-5.36c1.15-.62,2.2-1.21,3.16-1.76Z" transform="translate(0.11 -1.72)" style="fill:#e6e6e6"/><path d="M299.79,147.7A83,83,0,0,1,288,154.37c-1,.48-2.11.93-3.25,1.41a110.2,110.2,0,0,1-18.46,5.58l-.73.15a144.88,144.88,0,0,1-27.1,2.91v5.94c5.39-.12,10.53-.47,15.36-1,5-.58,9.71-1.39,14.1-2.3a101.62,101.62,0,0,0,16.31-4.7A104.88,104.88,0,0,0,294,157.7c2.19-1.11,4.1-2.14,5.74-3.07Z" transform="translate(0.11 -1.72)" style="fill:#e6e6e6"/><path d="M299.79,131.2a4.77,4.77,0,0,0-.44.26,101,101,0,0,1-12.26,6.6c-1,.45-2.1.9-3.22,1.35a122.21,122.21,0,0,1-18.19,5.66l-.7.17a158.17,158.17,0,0,1-26.51,3.62v6c5.43-.3,10.53-.83,15.35-1.51,5-.72,9.68-1.64,14-2.64a115.9,115.9,0,0,0,14.74-4.36c3.56-1.35,6.54-2.79,9-3.95,3.27-1.55,6-3,8.25-4.25Z" transform="translate(0.11 -1.72)" style="fill:#e6e6e6"/><path d="M237.14,135.65h0c-.2.13-.4.27-.62.4s-.46.25-.69.36h0l-.31.14h0a14,14,0,0,1-6.13,1,12.74,12.74,0,0,1-5.47-1.42l5.46-3.16h0l7.3-4.22C239.82,130.67,240,133.63,237.14,135.65Z" transform="translate(0.11 -1.72)" style="fill:#4e4e4f"/><path d="M235.54,136.56l.27,93.75S223.72,266.14,170.55,268l-.27-93.74C221.45,158.35,235.54,136.56,235.54,136.56Z" transform="translate(0.11 -1.72)" style="fill:#d4d4d4"/><path d="M235.55,136.56l.26,93.75s-11.71,38.2-62.14,40.05V175.18C222.19,159.29,235.55,136.56,235.55,136.56Z" transform="translate(0.11 -1.72)" style="fill:#f7f7f7"/><path d="M232.79,214.31a52.62,52.62,0,0,1-9.73,14.86c-.73.81-1.52,1.63-2.34,2.45a64.07,64.07,0,0,1-15.27,11.25c-1.81,1-3.68,1.85-5.61,2.67A82.86,82.86,0,0,1,179.9,251v5.66a88.06,88.06,0,0,0,25.92-7.58,70.43,70.43,0,0,0,19.69-14,64.54,64.54,0,0,0,7.29-8.85Z" transform="translate(0.11 -1.72)" style="fill:#cfcfcf"/><path d="M232.79,198.46A52.83,52.83,0,0,1,222.48,213c-.74.78-1.54,1.58-2.39,2.38a70.15,70.15,0,0,1-15.39,11c-1.79,1-3.64,1.85-5.57,2.69a91.85,91.85,0,0,1-19.22,5.82v5.63a98.11,98.11,0,0,0,25.88-8.3,75.75,75.75,0,0,0,19.49-13.69,67.16,67.16,0,0,0,7.53-8.68Z" transform="translate(0.11 -1.72)" style="fill:#cfcfcf"/><path d="M232.79,182.71c-.68,1.41-3.78,7.23-10.84,14.11-.78.76-1.61,1.53-2.46,2.3A78.09,78.09,0,0,1,204,209.86c-1.76.95-3.61,1.85-5.54,2.71a105.22,105.22,0,0,1-18.53,6.17v5.65a111,111,0,0,0,25.84-9A83.43,83.43,0,0,0,225.06,202a70.2,70.2,0,0,0,7.73-8.47Z" transform="translate(0.11 -1.72)" style="fill:#cfcfcf"/><path d="M232.79,167c-.74,1.36-4,6.91-11.36,13.63-.8.72-1.64,1.45-2.52,2.21a88.64,88.64,0,0,1-15.62,10.5q-2.63,1.41-5.51,2.74a123.66,123.66,0,0,1-17.88,6.48v5.73a127.06,127.06,0,0,0,25.86-9.83A93,93,0,0,0,224.9,185.4a76.24,76.24,0,0,0,7.89-8.21Z" transform="translate(0.11 -1.72)" style="fill:#cfcfcf"/><path d="M232.79,151.26c-.84,1.39-4.24,6.62-11.85,13.1-.81.71-1.67,1.41-2.58,2.14a104.13,104.13,0,0,1-15.74,10.26c-1.75.94-3.58,1.85-5.48,2.77a146.2,146.2,0,0,1-17.24,6.76v5.9a149.22,149.22,0,0,0,25.91-10.66,105.5,105.5,0,0,0,18.95-12.75,78,78,0,0,0,8-7.9Z" transform="translate(0.11 -1.72)" style="fill:#cfcfcf"/><polygon points="427.63 167.96 427.63 167.96 455.62 151.81 427.63 167.96" style="fill:#fcc44c"/><polygon points="460.95 148.73 455.62 151.81 427.63 167.96 427.56 193.57 460.88 174.33 460.95 148.73" style="fill:#95d669"/><polygon points="427.7 144.16 427.68 157.33 460.99 138.09 461.03 124.91 427.7 144.16" style="fill:#95d669"/><polygon points="460.68 236.87 460.65 252.64 492.05 234.49 492.1 218.73 460.68 236.87" style="fill:#b698d3"/><polygon points="460.79 197.62 460.7 225.11 492.12 206.97 492.2 179.5 460.79 197.62" style="fill:#b698d3"/><g style="isolation:isolate"><polygon points="292.69 211.04 290.14 209.55 325.85 388.11 328.39 389.59 292.69 211.04" style="fill:#331b0d"/><polygon points="296.77 208.7 294.22 207.21 290.14 209.55 292.69 211.04 296.77 208.7" style="fill:#412210"/><polygon points="292.69 211.04 328.39 389.59 332.47 387.23 296.77 208.7 292.69 211.04" style="fill:#28150a"/></g><g style="isolation:isolate"><polygon points="294.78 386.52 322.45 370.53 325.01 372.01 294.78 389.46 294.78 386.52" style="fill:#412210"/><polygon points="294.78 389.46 325.01 372.01 325.45 374.07 294.78 391.73 294.78 389.46" style="fill:#28150a"/></g><g style="isolation:isolate"><polygon points="290.74 366.77 318.42 350.79 320.97 352.27 290.74 369.73 290.74 366.77" style="fill:#412210"/><polygon points="290.74 369.73 320.97 352.27 321.42 354.32 290.74 371.99 290.74 369.73" style="fill:#28150a"/></g><g style="isolation:isolate"><polygon points="287.01 347.51 314.68 331.54 317.24 333.01 287.01 350.46 287.01 347.51" style="fill:#412210"/><polygon points="287.01 350.46 317.24 333.01 317.68 335.06 287.01 352.71 287.01 350.46" style="fill:#28150a"/></g><g style="isolation:isolate"><polygon points="283.19 328.45 310.86 312.47 313.42 313.95 283.19 331.41 283.19 328.45" style="fill:#412210"/><polygon points="283.19 331.41 313.42 313.95 313.86 316.02 283.19 333.66 283.19 331.41" style="fill:#28150a"/></g><g style="isolation:isolate"><polygon points="279.42 309.7 307.09 293.72 309.64 295.2 279.42 312.66 279.42 309.7" style="fill:#412210"/><polygon points="279.42 312.66 309.64 295.2 310.1 297.26 279.42 314.91 279.42 312.66" style="fill:#28150a"/></g><g style="isolation:isolate"><polygon points="275.62 290.76 303.3 274.77 305.84 276.25 275.62 293.7 275.62 290.76" style="fill:#412210"/><polygon points="275.62 293.7 305.84 276.25 306.3 278.3 275.62 295.95 275.62 293.7" style="fill:#28150a"/></g><g style="isolation:isolate"><polygon points="272.01 271.75 299.7 255.78 302.26 257.27 272.01 274.71 272.01 271.75" style="fill:#412210"/><polygon points="272.01 274.71 302.26 257.27 302.7 259.32 272.01 276.97 272.01 274.71" style="fill:#28150a"/></g><g style="isolation:isolate"><polygon points="268.19 252.81 295.87 236.82 298.43 238.3 268.19 255.76 268.19 252.81" style="fill:#412210"/><polygon points="268.19 255.76 298.43 238.3 298.86 240.36 268.19 258.02 268.19 255.76" style="fill:#28150a"/></g><g style="isolation:isolate"><polygon points="261.26 229.19 258.7 227.71 294.4 406.26 296.95 407.75 261.26 229.19" style="fill:#331b0d"/><polygon points="265.32 226.84 262.76 225.36 258.7 227.71 261.26 229.19 265.32 226.84" style="fill:#412210"/><polygon points="261.26 229.19 296.95 407.75 301.01 405.39 265.32 226.84 261.26 229.19" style="fill:#28150a"/></g><path d="M327.37,352.2c-1.06,1.45-.43,2.83-.53,4.9l-.88,0c-.06-.76,0-3.17-.5-4.3a1.84,1.84,0,0,0-.44-.63Z" transform="translate(0.11 -1.72)" style="fill:#1a4b6c"/><path d="M317,346.57a40.14,40.14,0,0,0,.56-7.77c0-1-.77-24.36-1.09-31.31l11.37-5.19c.25,4.45,1.45,20.51-.78,29.93-.33,1.34-1.6,7.61-1.79,9.13a9.16,9.16,0,0,0,.46,4.57c.16.36.65,1.42.81,1.94s0,.76.16,1.17c.32.92.37.6-.35.85-.46.18-1,.23-1.52.39a5.46,5.46,0,0,0-1.64,1c-.83.58-1.92.92-2.48,1.78s-.3,1.95-.65,2.8a2.09,2.09,0,0,1-2,1.47H318l-2.61-.73a5.28,5.28,0,0,1-1-.72,8.46,8.46,0,0,1-.91-.91c.25-.14,1-2.25,1.28-2.41S316.68,349,317,346.57Z" transform="translate(0.11 -1.72)" style="fill:#e9c2b0"/><path d="M313.18,352.71l2-.8a.76.76,0,0,0,.42.88,5,5,0,0,0,.55.21,3.83,3.83,0,0,0,1.48.19,3.71,3.71,0,0,0,2.23-1.09,21.7,21.7,0,0,1,5.2-3.72c.65-.33,1.28-1.33,1.42-1.11a10.12,10.12,0,0,1,1.13,2.26c.28,1.32.53,2.74-.14,3.46a2.91,2.91,0,0,1-2.92.58,3.85,3.85,0,0,0-2.82,0c-1,.77,0,4.4-1.78,4.08a47.23,47.23,0,0,1-5-1.2,18.2,18.2,0,0,1-2.4-.81,3.73,3.73,0,0,1-1.4-.83C310,353.41,312.62,352.92,313.18,352.71Z" transform="translate(0.11 -1.72)" style="fill:#002f58"/><path d="M293.26,224.78l-8.31,2-3.13,2.65c-.26.28-1.75,1.56-1.52,2.64.15.72,1.45,4.7,2.72,4,.85-.46,7.21-5.19,7.21-5.19.47-.28,2.07-.56,2.29-.91l1.45-2.34Z" transform="translate(0.11 -1.72)" style="fill:#e9c2b0"/><path d="M296.58,221.83a6.58,6.58,0,0,0-6.54,6.6h0a6.56,6.56,0,0,0,6.65,6.5l12.76-1.59a6.59,6.59,0,0,0,6.54-6.62h0a6.56,6.56,0,0,0-6.63-6.51Z" transform="translate(0.11 -1.72)" style="fill:#00a7e1"/><path d="M305.47,222.92c0-.68,5.3-2.77,5.89-2.31,2.23,1.76,4.89-.54,6.46-1.36a3.38,3.38,0,0,0,1.65-2.24,1.29,1.29,0,0,1,.46,0,3.44,3.44,0,0,1,1.92,1.08c2,2.2,3.25,6.5-5,8.11a12.28,12.28,0,0,1-7.51-.79C307.46,224.49,303.69,224.7,305.47,222.92Z" transform="translate(0.11 -1.72)" style="fill:#fff"/><path d="M312,357.78c-1.06,1.45-.45,2.84-.52,4.89l-.9,0a16.25,16.25,0,0,0-.49-4.32,2.3,2.3,0,0,0-.43-.62Z" transform="translate(0.11 -1.72)" style="fill:#063e70"/><path d="M301.71,352.14a40.78,40.78,0,0,0,.56-7.77c0-1-.77-24.36-1.1-31.32l11.39-5.17c.24,4.45,1.44,20.52-.81,29.94-.31,1.33-1.57,7.58-1.78,9.13a9.2,9.2,0,0,0,.46,4.55c.14.37.65,1.41.81,1.94s0,.76.14,1.18c.34.92.39.6-.34.86-.46.16-1,.22-1.51.37a5.55,5.55,0,0,0-1.65,1c-.81.58-1.91.93-2.48,1.78s-.28,2-.65,2.82a2.08,2.08,0,0,1-2,1.44h-.07l-2.61-.73a6.26,6.26,0,0,1-1-.74,7.79,7.79,0,0,1-.9-.9c.24-.15,1-2.27,1.27-2.41S301.33,354.53,301.71,352.14Z" transform="translate(0.11 -1.72)" style="fill:#e9c2b0"/><path d="M297.83,358.29l2-.81a.76.76,0,0,0,.42.88l.57.21a3.86,3.86,0,0,0,1.47.2,3.81,3.81,0,0,0,2.23-1.08,22,22,0,0,1,5.2-3.72c.64-.33,1.28-1.32,1.4-1.12a10.4,10.4,0,0,1,1.15,2.27c.28,1.32.53,2.72-.15,3.46a2.93,2.93,0,0,1-2.92.6,3.87,3.87,0,0,0-2.82,0c-1,.78,0,4.4-1.77,4.09a49.3,49.3,0,0,1-5-1.18c-.78-.24-1.58-.48-2.39-.81a4,4,0,0,1-1.4-.84C294.67,359,297.27,358.49,297.83,358.29Z" transform="translate(0.11 -1.72)" style="fill:#002f58"/><path d="M328.5,256.68c-.35-.87-.72-1.74-1.12-2.58-8.38-17.85,2.53-37-7.45-37.1,0,0,4.15,3.89-2.88,6.8S306.8,222,306.8,222c-3.36,1.44-11.94,8.18-6.24,23.16,1,2.65.61,8.14-.17,15.44C314.13,266.06,323.79,262.57,328.5,256.68Z" transform="translate(0.11 -1.72)" style="fill:#002f58"/><path d="M328.5,256.68c-4.72,5.89-14.38,9.38-28.12,3.88-1.53,14.2-4.58,35.2-1.81,55.11,3.5,4.46,26.08-.88,31.33-5.54C329.78,304.87,337.08,278.18,328.5,256.68Z" transform="translate(0.11 -1.72)" style="fill:#666"/><path d="M319.62,219c.08,3.67-9.56,4.73-10.36,2.16-.58-1.88-.47-7.41-.47-7.41l10.35-1S319.62,219,319.62,219Z" transform="translate(0.11 -1.72)" style="fill:#d9b4a4"/><path d="M321.79,208.26c-5.31,5.58-7.39,5.48-12.71,1.76s-7.51-9-6.24-16.9c1.35-8.36,11.29-10.48,17.62-6.62C332.58,193.88,328.39,201.34,321.79,208.26Z" transform="translate(0.11 -1.72)" style="fill:#260905"/><path d="M319.49,202.89c-.32,2.36-1.69,9.31-3.17,10.59-2.07,1.78-8,3-10.69.83-3.64-2.89-3.13-9-3.13-16.58s4.91-9,9.08-5.78S320.49,195.41,319.49,202.89Z" transform="translate(0.11 -1.72)" style="fill:#e9c2b0"/><path d="M328.06,195.23c-.45-3.3-8.34-3.61-8.34-3.61-.57-.45-4-13.08-17.18-2.79-2.74,2.12-1.85,9.57-1.85,9.57s6,.59,6.69,1.18,3.22,4.72,5.33,8.44l.84,1.47c1.13,2,2.49,6.18,7.74,2.72C321.67,211.89,330.45,202.77,328.06,195.23Z" transform="translate(0.11 -1.72)" style="fill:#260905"/><path d="M313,205.26c-.56,1.6-1.32,2.55-2.34,2.43s-1.54-1.21-1.32-2.89S311,201.87,312,202,313.61,203.45,313,205.26Z" transform="translate(0.11 -1.72)" style="fill:#e9c2b0"/><path d="M321,221c.4-.88.85-1.77,1.31-2.67,11.86-17.91.37-22.19-1.24-24.42-.62-.87.9-5.72,4.76-4.27s12.9,2.33,11.76,22c-.33,5.82-4.54,11.9-.69,17.54,3.54,5.18-16.73,4.64-16.3-5.48C320.69,222.84,321,221.92,321,221Z" transform="translate(0.11 -1.72)" style="fill:#1b0e0d"/><path d="M273.34,249.06l-3.88-4.18-3.89-2.1c-.39-.23-2.57-1.4-3.64-1-.73.29-3,5.25-1.82,6.36.78.73,5.85,3.74,5.85,3.74a11.74,11.74,0,0,1,4.73,1.82l.9.14Z" transform="translate(0.11 -1.72)" style="fill:#e9c2b0"/><path d="M282.19,251.58a6.81,6.81,0,0,0,1.61,9.51h0a6.79,6.79,0,0,0,9.48-1.67l15.56-21.73a6.79,6.79,0,0,0-1.6-9.48h0a6.81,6.81,0,0,0-9.49,1.64Z" transform="translate(0.11 -1.72)" style="fill:#00a7e1"/><path d="M276.61,246.84a6.58,6.58,0,0,0-8.27,4.26h0a6.59,6.59,0,0,0,4.3,8.26l12.61,2.42a6.59,6.59,0,0,0,8.29-4.26h0a6.59,6.59,0,0,0-4.32-8.25Z" transform="translate(0.11 -1.72)" style="fill:#00a7e1"/></g></g></svg>