<svg xmlns="http://www.w3.org/2000/svg" viewBox="0 0 97.57 97.26"><defs><style>.cls-1,.cls-2{fill:#00a7e1;}.cls-2{fill-rule:evenodd;}</style></defs><title>channel_icon</title><g id="Layer_2" data-name="Layer 2"><g id="Layer_1-2" data-name="Layer 1"><g id="channel_icon"><path class="cls-1" d="M22.5,55.53c.47-.23.43-.75.65-1.13a5,5,0,0,1,4-2.68c4.6-.43,4.65-.4,7.19,3.41.67,1,1.36,2,2.12,3.14,1.22-2,2.4-3.84,3.51-5.74a1.46,1.46,0,0,1,1.5-.86c1.35.06,2.71,0,4.07,0a4.06,4.06,0,0,1,4.35,4.18c.09,4.2,0,8.4,0,12.61,0,1.08-.68.85-1.27.85H26.15c-3.49,0-3.49,0-3.49-3.53,0-2.89,0-5.78,0-8.68a2.28,2.28,0,0,0-.16-1.32Z"/><path class="cls-1" d="M36.88,29.21c.4.51,1,.26,1.5.36a10.43,10.43,0,1,1-3.54-.05c.33-.06.75.13,1-.31Zm-5.8,7.86h-.95c-3.31,0-3.31,0-2.71,3.27a2.23,2.23,0,0,0,1.8,1.94,16.16,16.16,0,0,0,3.77.15c1.82,0,2.4-.49,2.76-2.26.08-.4.13-.68.62-.66s.47.25.56.6c.49,1.94,1,2.32,3,2.34.81,0,1.63,0,2.44,0,1.93,0,2.63-.66,3-2.57a15.62,15.62,0,0,1,.24-1.6c.27-.94,0-1.26-1-1.22-1.89.08-3.79,0-5.69,0a1.86,1.86,0,0,0-1.77.72.83.83,0,0,1-1.46.05,1.88,1.88,0,0,0-1.87-.77C32.89,37.09,32,37.07,31.08,37.07Z"/><path class="cls-1" d="M58.89,56.12c0-1.54,0-3.07,0-4.61,0-.71-.19-1-.91-.92s-1.53,0-2.3,0a1,1,0,0,1-1.1-.94c0-.62.42-1,1.09-.92h.14c1-.07,2.28.43,2.86-.19s.19-2,.2-3c0-2.48,0-5,0-7.45.06-3.47,1.9-5.77,5-6.33.69-.13,1.34-.12,1.5.68s-.41,1-1.13,1.14a4,4,0,0,0-3.43,4.23c-.09,3.39,0,6.78,0,10.16,0,.58.16.8.76.77.9,0,1.81,0,2.71,0,.64,0,1.09.26,1.09.92s-.46.94-1.09.95c-.9,0-1.81,0-2.71,0-.6,0-.76.2-.76.78,0,3.16,0,6.33,0,9.49.07,2.44,1.19,3.7,3.56,4.24.65.15,1.16.37,1,1.14s-.77.75-1.38.7c-2.9-.26-5-2.78-5.08-6.21C58.85,59.19,58.89,57.65,58.89,56.12Z"/><path class="cls-1" d="M73.54,49.53a3.24,3.24,0,0,1-3.24,3.28A3.34,3.34,0,0,1,67,49.51a3.29,3.29,0,0,1,3.21-3.2A3.22,3.22,0,0,1,73.54,49.53Z"/><path class="cls-1" d="M73.54,32.78A3.16,3.16,0,0,1,70.3,36,3.3,3.3,0,0,1,67,32.75a3.34,3.34,0,0,1,3.21-3.22A3.3,3.3,0,0,1,73.54,32.78Z"/><path class="cls-1" d="M73.54,66.16a3.18,3.18,0,0,1-3.27,3.23,3.25,3.25,0,1,1,3.27-3.23Z"/><path class="cls-1" d="M38.11,53.29c-.52.68-1.1,1.47-1.73,2.22a7.3,7.3,0,0,1-1.72-2.45,4.38,4.38,0,0,1,1.72-1.82C36.57,51.12,38.15,52.88,38.11,53.29Z"/><path class="cls-1" d="M41.32,38.38a7.06,7.06,0,0,1,1.35,0c.52.1,1.37-.48,1.5.55.16,1.23-.4,2.09-1.46,2.17a32,32,0,0,1-3.38,0c-.68,0-1-.43-1.09-1.13-.11-1.1.07-1.86,1.46-1.62A9.77,9.77,0,0,0,41.32,38.38Z"/><path class="cls-1" d="M31.47,38.38H33c.81,0,1.61-.19,1.54,1.16-.06,1.16-.44,1.66-1.6,1.61-.9,0-1.8,0-2.7,0-.69,0-1.31-.18-1.47-1.08-.3-1.68-.34-1.67,1.39-1.67Z"/><path class="cls-2" d="M5,48.63A43.78,43.78,0,1,0,48.75,5,43.75,43.75,0,0,0,5,48.63Zm-5,0A48.79,48.79,0,1,1,48.75,97.26,48.73,48.73,0,0,1,0,48.63Z"/></g></g></g></svg>