<svg id="3d99115d-0ef5-4cd5-a0a7-cd4ca46f5654" data-name="Layer 1" xmlns="http://www.w3.org/2000/svg" viewBox="0 0 756.14 113.34"><title>commercecloud_icon</title><rect width="113.34" height="113.34" style="fill:#00b6e8"/><path d="M99.8,49.35A21.84,21.84,0,0,0,85,43.22h-.32l-.15-.28A30.2,30.2,0,0,0,27.88,53l-.07.5-.51,0A16.92,16.92,0,0,0,9.12,70.36c0,4.9,1.51,8.87,4.47,11.8,5,5,12.54,5.11,13.38,5.11h.08l59.76,0c.81-.12,19.74-3.12,19.74-22A21.88,21.88,0,0,0,99.8,49.35Zm-42-19.54A27.32,27.32,0,0,1,82.4,45.39a1.6,1.6,0,0,0,1.42.87,18.62,18.62,0,0,1,13.87,5.28,18.86,18.86,0,0,1,5.82,13.69c0,15.79-15.13,18.71-16.88,19H27c-.28,0-7,0-11.23-4.24-2.37-2.34-3.57-5.58-3.57-9.63A13.88,13.88,0,0,1,26,56.48a14.29,14.29,0,0,1,2.86.3,1.56,1.56,0,0,0,1.23-.28,1.53,1.53,0,0,0,.6-1.12A27.2,27.2,0,0,1,57.84,29.81Z" transform="translate(-0.66 -0.35)" style="fill:#fff"/><path d="M72.7,68.45l4.73-14.19a1.54,1.54,0,0,0-1.46-2H48.66L46.71,44a1.53,1.53,0,0,0-1.5-1.18H39.7a1.54,1.54,0,0,0,0,3.07H44l6.55,26.77A3.9,3.9,0,1,0,56.28,76a3.58,3.58,0,0,0-.1-.83h9.75a3.58,3.58,0,0,0-.1.83,3.9,3.9,0,1,0,3.9-3.9H53.38l-.6-2.64H71.24A1.54,1.54,0,0,0,72.7,68.45ZM52.38,76.88a.83.83,0,1,1,.83-.83A.83.83,0,0,1,52.38,76.88ZM52,66.43,49.38,55.31H73.84L70.13,66.43ZM69.73,76.88a.83.83,0,1,1,.83-.83A.83.83,0,0,1,69.73,76.88Z" transform="translate(-0.66 -0.35)" style="fill:#fff"/><path d="M144.61,39.33h4.32v32.4h-4.32Z" transform="translate(-0.66 -0.35)" style="fill:#003058"/><path d="M155.68,48.4h3.56l.27,4.48a10.89,10.89,0,0,1,9.07-5.13c6.21,0,8.42,4.32,8.42,10.1V71.73h-4.1V58.23c0-5.24-2.05-7-5.45-7s-7.67,2.92-7.67,6.7V71.73h-4.1Z" transform="translate(-0.66 -0.35)" style="fill:#003058"/><path d="M186.46,51.21h-5.24V48.4h5.24V42h4.1V48.4h5.29v2.81h-5.29V71.73h-4.1Z" transform="translate(-0.66 -0.35)" style="fill:#003058"/><path d="M198.82,59.91c0-7.51,5.56-12.15,11.29-12.15S220,51.54,220,56.83a14.76,14.76,0,0,1-.32,2.65H202.87c-.32,4.1,1.62,9.56,9.07,9.56a12.13,12.13,0,0,0,7.67-3v3.62a15,15,0,0,1-9.07,2.75C203.68,72.38,198.82,67.14,198.82,59.91Zm17.28-3.29c.49-3.13-2-5.62-5.83-5.62-3.29,0-6.32,1.78-7,5.62Z" transform="translate(-0.66 -0.35)" style="fill:#003058"/><path d="M226.41,80V76.38c3.56,2.16,6,3,10.1,3s7.78-2.43,7.78-9.29V68.06a10.87,10.87,0,0,1-8.8,4.32c-6.43,0-11.12-5.51-11.12-12.31s4.7-12.31,11.12-12.31a10.9,10.9,0,0,1,9.18,4.86l.16-4.21h3.56V69.68c0,10.8-6.75,13.07-12.37,13.07A20,20,0,0,1,226.41,80Zm18.14-20c0-5.62-3.62-9-8-9s-8,3.4-8,9,3.62,9,8,9S244.56,65.68,244.56,60.07Z" transform="translate(-0.66 -0.35)" style="fill:#003058"/><path d="M255.09,48.4h3.56l.27,4.48A10.49,10.49,0,0,1,268,47.76v4.43c-4.43-.81-8.8,1.73-8.8,5.67V71.73h-4.1Z" transform="translate(-0.66 -0.35)" style="fill:#003058"/><path d="M270.75,60.07c0-6.8,4.7-12.31,11.12-12.31a10.9,10.9,0,0,1,9.18,4.86l.16-4.21h3.56V71.73h-3.56l-.16-4.21a10.9,10.9,0,0,1-9.18,4.86C275.45,72.38,270.75,66.87,270.75,60.07Zm20.2,0c0-5.62-3.62-9-8-9s-8,3.4-8,9,3.62,9,8,9S290.94,65.68,290.94,60.07Z" transform="translate(-0.66 -0.35)" style="fill:#003058"/><path d="M304.28,51.21H299V48.4h5.24V42h4.1V48.4h5.29v2.81h-5.29V71.73h-4.1Z" transform="translate(-0.66 -0.35)" style="fill:#003058"/><path d="M316.65,59.91c0-7.51,5.56-12.15,11.29-12.15s9.94,3.78,9.94,9.07a14.76,14.76,0,0,1-.32,2.65H320.7c-.32,4.1,1.62,9.56,9.07,9.56a12.13,12.13,0,0,0,7.67-3v3.62a15,15,0,0,1-9.07,2.75C321.51,72.38,316.65,67.14,316.65,59.91Zm17.28-3.29c.49-3.13-2-5.62-5.83-5.62-3.29,0-6.32,1.78-7,5.62Z" transform="translate(-0.66 -0.35)" style="fill:#003058"/><path d="M342.19,60.07c0-6.8,4.7-12.31,11.12-12.31a10.87,10.87,0,0,1,8.8,4.32V39.33h4.1v32.4h-3.56l-.16-4.21a10.9,10.9,0,0,1-9.18,4.86C346.89,72.38,342.19,66.87,342.19,60.07Zm20.2,0c0-5.62-3.62-9-8-9s-8,3.4-8,9,3.62,9,8,9S362.38,65.68,362.38,60.07Z" transform="translate(-0.66 -0.35)" style="fill:#003058"/><path d="M381.82,55.53c0-10.48,7.88-16.9,17.23-16.9A19.76,19.76,0,0,1,410.28,42v4.48A16.17,16.17,0,0,0,399,42.25c-7.45,0-12.74,5.18-12.74,13.28S391.6,68.82,399,68.82a16.17,16.17,0,0,0,11.23-4.27V69A19.77,19.77,0,0,1,399,72.43C389.71,72.43,381.82,66,381.82,55.53Z" transform="translate(-0.66 -0.35)" style="fill:#003058"/><path d="M414.11,60.07A12.72,12.72,0,1,1,426.86,72.6,12.38,12.38,0,0,1,414.11,60.07Zm21.33,0c0-5.08-3.29-9.23-8.59-9.23s-8.64,4.16-8.64,9.23,3.35,9.23,8.64,9.23S435.45,65.2,435.45,60.07Z" transform="translate(-0.66 -0.35)" style="fill:#003058"/><path d="M444.62,48.4h3.56l.27,4.48c1.94-3,4.91-5.13,8.59-5.13,4.37,0,6.48,2.11,7.4,5.35,2.54-3.56,5.67-5.35,8.91-5.35,6.21,0,7.88,4.32,7.88,10.1V71.73h-4.1V58.18c0-5.13-1.57-6.91-5-6.91S465,54.18,465,58V71.73h-4.1V58.18c0-5.13-1.57-6.91-5-6.91s-7.18,2.92-7.18,6.7V71.73h-4.1Z" transform="translate(-0.66 -0.35)" style="fill:#003058"/><path d="M487.88,48.4h3.56l.27,4.48c1.94-3,4.91-5.13,8.59-5.13,4.37,0,6.48,2.11,7.4,5.35,2.54-3.56,5.67-5.35,8.91-5.35,6.21,0,7.88,4.32,7.88,10.1V71.73h-4.1V58.18c0-5.13-1.57-6.91-5-6.91s-7.18,2.92-7.18,6.7V71.73h-4.1V58.18c0-5.13-1.57-6.91-5-6.91S492,54.18,492,58V71.73h-4.1Z" transform="translate(-0.66 -0.35)" style="fill:#003058"/><path d="M529.84,59.91c0-7.51,5.56-12.15,11.29-12.15s9.94,3.78,9.94,9.07a14.76,14.76,0,0,1-.32,2.65H533.89c-.32,4.1,1.62,9.56,9.07,9.56a12.13,12.13,0,0,0,7.67-3v3.62a15,15,0,0,1-9.07,2.75C534.7,72.38,529.84,67.14,529.84,59.91Zm17.28-3.29c.49-3.13-2-5.62-5.83-5.62-3.29,0-6.32,1.78-7,5.62Z" transform="translate(-0.66 -0.35)" style="fill:#003058"/><path d="M556.73,48.4h3.56l.27,4.48a10.49,10.49,0,0,1,9.07-5.13v4.43c-4.43-.81-8.8,1.73-8.8,5.67V71.73h-4.1Z" transform="translate(-0.66 -0.35)" style="fill:#003058"/><path d="M572.44,60.07c0-7.29,5.08-12.31,12.15-12.31a13.12,13.12,0,0,1,8.15,2.38v3.73A11.21,11.21,0,0,0,585,51.1c-5,0-8.42,3.83-8.42,9s3.4,9,8.42,9a11.21,11.21,0,0,0,7.78-2.75V70a13.11,13.11,0,0,1-8.15,2.38C577.52,72.38,572.44,67.36,572.44,60.07Z" transform="translate(-0.66 -0.35)" style="fill:#003058"/><path d="M596.74,59.91c0-7.51,5.56-12.15,11.29-12.15S618,51.54,618,56.83a14.76,14.76,0,0,1-.32,2.65H600.79c-.32,4.1,1.62,9.56,9.07,9.56a12.13,12.13,0,0,0,7.67-3v3.62a15,15,0,0,1-9.07,2.75C601.6,72.38,596.74,67.14,596.74,59.91ZM614,56.61c.49-3.13-2-5.62-5.83-5.62-3.29,0-6.32,1.78-7,5.62Z" transform="translate(-0.66 -0.35)" style="fill:#003058"/><path d="M632.54,55.53c0-10.48,7.88-16.9,17.23-16.9A19.76,19.76,0,0,1,661,42v4.48a16.17,16.17,0,0,0-11.23-4.27c-7.45,0-12.75,5.18-12.75,13.28s5.29,13.28,12.75,13.28A16.17,16.17,0,0,0,661,64.55V69a19.77,19.77,0,0,1-11.23,3.4C640.43,72.43,632.54,66,632.54,55.53Z" transform="translate(-0.66 -0.35)" style="fill:#003058"/><path d="M666.45,39.33h4.1v32.4h-4.1Z" transform="translate(-0.66 -0.35)" style="fill:#003058"/><path d="M675.63,60.07A12.72,12.72,0,1,1,688.38,72.6,12.38,12.38,0,0,1,675.63,60.07Zm21.33,0c0-5.08-3.29-9.23-8.59-9.23s-8.64,4.16-8.64,9.23,3.35,9.23,8.64,9.23S697,65.2,697,60.07Z" transform="translate(-0.66 -0.35)" style="fill:#003058"/><path d="M706.09,62.28V48.4h4.1V61.9c0,5.24,2.05,7,5.45,7s7.67-2.92,7.67-6.7V48.4h4.1V71.73h-3.56l-.27-4.48a11,11,0,0,1-9.07,5.13C708.3,72.38,706.09,68.06,706.09,62.28Z" transform="translate(-0.66 -0.35)" style="fill:#003058"/><path d="M732.76,60.07c0-6.8,4.7-12.31,11.12-12.31a10.87,10.87,0,0,1,8.8,4.32V39.33h4.1v32.4h-3.56l-.16-4.21a10.9,10.9,0,0,1-9.18,4.86C737.46,72.38,732.76,66.87,732.76,60.07Zm20.2,0c0-5.62-3.62-9-8-9s-8,3.4-8,9,3.62,9,8,9S753,65.68,753,60.07Z" transform="translate(-0.66 -0.35)" style="fill:#003058"/></svg>