<svg xmlns="http://www.w3.org/2000/svg" viewBox="0 0 101.83 104.33"><defs><style>.cls-1{fill:#d8d8d8;}.cls-2{fill:#131031;}.cls-3{fill:#fff;}</style></defs><title>consideration_stat</title><g id="Layer_2" data-name="Layer 2"><g id="Layer_1-2" data-name="Layer 1"><path class="cls-1" d="M49.67,101.83A49.67,49.67,0,1,1,99.33,52.17,49.72,49.72,0,0,1,49.67,101.83Zm0-93.33A43.67,43.67,0,1,0,93.33,52.17,43.72,43.72,0,0,0,49.67,8.5Z"/><path class="cls-2" d="M50,104.33a5.5,5.5,0,0,1,0-11,41.17,41.17,0,0,0,0-82.33A5.5,5.5,0,1,1,50,0a52.17,52.17,0,0,1,0,104.33Z"/><path class="cls-3" d="M31.31,48.22a5,5,0,0,1,2.42.67,5.1,5.1,0,0,1,1.82,1.56,5.38,5.38,0,0,1,.81,1.87,9.7,9.7,0,0,1,.21,2.08v7.18q0,1.05-.07,1.77a8.89,8.89,0,0,1-.55,2,5.51,5.51,0,0,1-2.32,2.49,7.13,7.13,0,0,1-4,1.2,6.38,6.38,0,0,1-3.09-.79,6.51,6.51,0,0,1-2.27-1.94A6.82,6.82,0,0,1,23.22,64a10.12,10.12,0,0,1-.29-2.42v-.81h4.64v.82c0,.32,0,.65,0,1a2.61,2.61,0,0,0,.5,1.21,1.85,1.85,0,0,0,1.67.73,1.87,1.87,0,0,0,1.72-.7A3,3,0,0,0,32,62.69a7.61,7.61,0,0,0,0-.89V55q0-.43,0-.91a2.5,2.5,0,0,0-.53-1.2,1.87,1.87,0,0,0-1.65-.72,2.21,2.21,0,0,0-2.25,1.68H23.51V36.78H36.58V41h-9v8.57A5.71,5.71,0,0,1,31.31,48.22Z"/><path class="cls-3" d="M45.39,68.85A6.66,6.66,0,0,1,39.55,63V42.38q.62-3.73,3.3-5A9.18,9.18,0,0,1,49,36.83a12.39,12.39,0,0,1,2.78,2.23,6.63,6.63,0,0,1,1.44,3.33V62.87a6.69,6.69,0,0,1-5,5.94q-.53,0-.89,0T45.39,68.85Zm.48-4.6a2.52,2.52,0,0,0,2.68-1.87V43.1a7.77,7.77,0,0,0-.62-1.44q-1.39-1.05-2.35-.45a3.39,3.39,0,0,0-1.39,1.89v19.2A2.42,2.42,0,0,0,45.87,64.26Z"/><path class="cls-3" d="M56.64,38.69a4.63,4.63,0,0,1,7-.43,4.75,4.75,0,0,1,1.29,3.35v6.22a4.6,4.6,0,0,1-.81,2.85,5.65,5.65,0,0,1-1.72,1.58,4.09,4.09,0,0,1-2,.5,4.94,4.94,0,0,1-2.54-.67,3.75,3.75,0,0,1-1.58-1.58A6,6,0,0,1,55.73,49a7.2,7.2,0,0,1-.1-1.2V41.61A5.67,5.67,0,0,1,55.82,40,3.45,3.45,0,0,1,56.64,38.69ZM57,69.48,74.54,36.64h2.58L59.56,69.48ZM60.3,39.89a1.38,1.38,0,0,0-1.13.53,1.86,1.86,0,0,0-.42,1.2v6.22q0,1.82,1.6,1.82a1.22,1.22,0,0,0,1.11-.55,2.3,2.3,0,0,0,.35-1.27V41.61a1.9,1.9,0,0,0-.4-1.22A1.34,1.34,0,0,0,60.3,39.89ZM70.38,55.11a4.67,4.67,0,0,1,7-.43A4.73,4.73,0,0,1,78.71,58v6.22a4.59,4.59,0,0,1-.82,2.85,5.66,5.66,0,0,1-1.73,1.58,4.12,4.12,0,0,1-2,.5,5,5,0,0,1-2.55-.67A3.76,3.76,0,0,1,70,66.94a5.92,5.92,0,0,1-.53-1.48,7.22,7.22,0,0,1-.1-1.2V58a5.67,5.67,0,0,1,.19-1.63A3.47,3.47,0,0,1,70.38,55.11Zm3.68,1.2a1.41,1.41,0,0,0-1.15.53,1.84,1.84,0,0,0-.43,1.2v6.22q0,1.82,1.63,1.82a1.25,1.25,0,0,0,1.13-.55,2.27,2.27,0,0,0,.36-1.27V58a1.88,1.88,0,0,0-.41-1.22A1.37,1.37,0,0,0,74.06,56.31Z"/></g></g></svg>