<svg xmlns="http://www.w3.org/2000/svg" viewBox="0 0 151.68 151.68"><defs><style>.cls-1{fill:#fff;}.cls-2{fill:none;stroke:#fff;stroke-miterlimit:10;stroke-width:2px;}</style></defs><title>icon_1</title><g id="Layer_2" data-name="Layer 2"><g id="Layer_1-2" data-name="Layer 1"><path class="cls-1" d="M47.29,93.8a91.72,91.72,0,0,1,1.32-9.51,10.37,10.37,0,0,1,6.22-8.8,4.9,4.9,0,0,0-2.42-2l-7.87-2.7L43,70.35V69a15.44,15.44,0,0,0,3.26-5.85l.15,0c1.51.15,2.9-1.43,3.11-3.53s-.85-3.92-2.36-4.06h-.12c-.66-5.75-4.52-7.81-9.19-7.81s-8.54,2.06-9.2,7.82a1.86,1.86,0,0,0-.4,0c-1.51.17-2.53,2-2.29,4.1s1.66,3.65,3.17,3.47l.29-.06a15.65,15.65,0,0,0,3,5.64v1.73l-1.31.39-8.05,2.62A5,5,0,0,0,19.9,78s-2.06,9.6,0,11.67C24.43,94.2,37.93,95.8,47.29,93.8Z"/><path class="cls-1" d="M127.12,73.47l-7.87-2.7-1.5-.42V69A15.44,15.44,0,0,0,121,63.19l.15,0c1.51.15,2.9-1.43,3.11-3.53s-.85-3.92-2.36-4.06h-.12c-.66-5.75-4.52-7.81-9.19-7.81s-8.54,2.06-9.2,7.82a1.86,1.86,0,0,0-.4,0c-1.51.17-2.53,2-2.29,4.1s1.66,3.65,3.17,3.47l.3-.06a15.65,15.65,0,0,0,3,5.64v1.73l-1.31.39-8.05,2.62a4.6,4.6,0,0,0-2,1.4l.78.27a10.47,10.47,0,0,1,6.77,9.05,85,85,0,0,1,1.49,9.68c9.42,1.69,21.65.47,25.46-4.26,1.83-2.27,0-11.67,0-11.67A5.11,5.11,0,0,0,127.12,73.47Z"/><rect class="cls-1" x="73.06" y="76.63" width="5.92" height="4.42"/><path class="cls-1" d="M52.3,84.69s-.71,3.63-1.15,8c-.53,5.14-.68,11.27,1.15,13.53,7.45,9.22,39,8.38,47.43,0,2-2,1.89-8,1.32-13.16-.5-4.49-1.32-8.34-1.32-8.34a6.78,6.78,0,0,0-4.29-6l-.91-.31L85,75.1l-8.88,27.31L67.29,75.28,56.61,78.75a5.35,5.35,0,0,0-.77.33A6.71,6.71,0,0,0,52.3,84.69Z"/><polygon class="cls-1" points="74.16 82.28 73.93 83.76 73.21 88.44 76.11 96.47 78.84 88.95 78.11 84.35 77.78 82.28 74.16 82.28"/><path class="cls-1" d="M64.59,62.5a2.65,2.65,0,0,0,.39-.08c2,6.3,6.23,11.19,11.18,11.19a9.21,9.21,0,0,0,6.39-2.93l.25-.24a20.18,20.18,0,0,0,4.52-8l.2,0c2,.2,3.85-1.9,4.13-4.68s-1.13-5.2-3.13-5.39h-.16c-.88-7.63-6-10.36-12.2-10.36S64.83,44.8,64,52.45a2.56,2.56,0,0,0-.53,0c-2,.23-3.37,2.67-3,5.45S62.59,62.73,64.59,62.5Z"/><circle class="cls-2" cx="75.84" cy="75.84" r="74.84"/></g></g></svg>