<svg xmlns="http://www.w3.org/2000/svg" viewBox="0 0 97.33 97.33"><defs><style>.cls-1{fill:#00a7e1;}</style></defs><title>store_icon</title><g id="Layer_2" data-name="Layer 2"><g id="Layer_1-2" data-name="Layer 1"><g id="store_icon"><path class="cls-1" d="M57.74,30.3a1.08,1.08,0,0,0-.37-.07H52.52a4.85,4.85,0,0,0-9.7,0H38a1.08,1.08,0,0,0-1.08,1.08v5.22A1.08,1.08,0,0,0,38,37.61H53.52ZM47.67,32.41a2.18,2.18,0,1,1,2.18-2.18A2.19,2.19,0,0,1,47.67,32.41Z"/><path class="cls-1" d="M61.31,45.16c0,.09-.49.91-1.19,2.11v9.5c0,2.66-4.94,2.66-4.94,2.66a1,1,0,0,0-1,1s.13,4.31-2.72,4.31H35.22V33.78H33.38a2.16,2.16,0,0,0-2.16,2.16v30.9A2.16,2.16,0,0,0,33.38,69H62a2.16,2.16,0,0,0,2.16-2.16V40.3Z"/><path class="cls-1" d="M48.57,56.69a5.19,5.19,0,0,0-1.27-.52v.06l-.56,3c-.11.56.16.71.59.34l2.29-2,0,0A5.25,5.25,0,0,0,48.57,56.69Z"/><path class="cls-1" d="M64.32,29.42c-1.48-.86-3.2-.68-3.82.41h0L54.06,41s-5.43,8.74-6.42,13.9a6,6,0,0,1,3,1.72c4-3.44,8.83-12.51,8.83-12.51h0l6.44-11.15h0C66.51,31.85,65.81,30.28,64.32,29.42Z"/><polygon class="cls-1" points="41.83 50.17 38 44.97 41.83 46.74 47.83 41.84 41.83 50.17"/><path class="cls-1" d="M48.67,97.33A48.67,48.67,0,1,1,97.33,48.67,48.72,48.72,0,0,1,48.67,97.33Zm0-92.21A43.54,43.54,0,1,0,92.21,48.67,43.59,43.59,0,0,0,48.67,5.12Z"/></g></g></g></svg>