<svg xmlns="http://www.w3.org/2000/svg" viewBox="0 0 93.17 92.88"><defs><style>.cls-1,.cls-2{fill:#00a7e1;}.cls-2{fill-rule:evenodd;}</style></defs><title>subscriptions_icon</title><g id="Layer_2" data-name="Layer 2"><g id="Layer_1-2" data-name="Layer 1"><g id="subscription_icon"><path class="cls-1" d="M57.45,46.29a3.31,3.31,0,0,0-1.07.18s0,0,0,0A2.92,2.92,0,0,0,51.89,44,6.77,6.77,0,0,0,38.81,44a4.92,4.92,0,1,0-2.22,9.3H57.45c1.84,0,3.32-1.23,3.32-3.72A3.32,3.32,0,0,0,57.45,46.29Z"/><path class="cls-1" d="M69.36,49.75a2.79,2.79,0,0,0-3.15,2.38A20.86,20.86,0,0,1,45.45,69.85,21.11,21.11,0,0,1,27,59.09h2.7a1.6,1.6,0,0,0,1-2.81l-5.89-5.89a1.6,1.6,0,0,0-2.26,0l-6,6a1.6,1.6,0,0,0,1.13,2.72h3.09A26.65,26.65,0,0,0,71.74,52.9,2.79,2.79,0,0,0,69.36,49.75Z"/><path class="cls-1" d="M22,47.09a2.79,2.79,0,0,0,3.15-2.38A20.86,20.86,0,0,1,45.95,27,21.11,21.11,0,0,1,64.39,37.76h-2.7a1.6,1.6,0,0,0-1,2.81l5.89,5.89a1.6,1.6,0,0,0,2.26,0l6-6a1.6,1.6,0,0,0-1.13-2.72H70.57a26.65,26.65,0,0,0-50.91,6.19A2.79,2.79,0,0,0,22,47.09Z"/><path class="cls-2" d="M4.78,46.44A41.81,41.81,0,1,0,46.55,4.76,41.78,41.78,0,0,0,4.78,46.44ZM0,46.44A46.59,46.59,0,1,1,46.55,92.88,46.54,46.54,0,0,1,0,46.44Z"/></g></g></g></svg>