<svg xmlns="http://www.w3.org/2000/svg" viewBox="0 0 96.1 98.37"><defs><style>.cls-1{fill:#00a7e1;}</style></defs><title>tax_icon</title><g id="Layer_2" data-name="Layer 2"><g id="Layer_1-2" data-name="Layer 1"><g id="tax_icon"><path class="cls-1" d="M70.11,36.73a2.5,2.5,0,0,0-2.49-2.49h-22v-1a2.5,2.5,0,0,0-2.49-2.49H32.2a2.5,2.5,0,0,0-2.49,2.49v6.09H70.08Z"/><path class="cls-1" d="M47.22,51.59c0,.79.81,1.12,1.67,1.35V50C47.81,50.21,47.22,50.8,47.22,51.59Z"/><path class="cls-1" d="M51.17,56.35l-.4-.1v3.21c1.14-.23,1.76-1,1.76-1.7C52.53,57.22,52.25,56.62,51.17,56.35Z"/><path class="cls-1" d="M71.79,41.84H28a2.19,2.19,0,0,0-2.22,2.48l3.85,21a2.85,2.85,0,0,0,2.76,2.48h35a2.85,2.85,0,0,0,2.76-2.48l3.85-21A2.19,2.19,0,0,0,71.79,41.84Zm-21,19.94v1a.94.94,0,1,1-1.87,0V61.75c-3.29-.31-4.79-2-4.79-3.37a1.26,1.26,0,0,1,1.34-1.28c1.51,0,1.36,1.86,3.44,2.34V55.79l-1.32-.33c-2.9-.72-3.42-2.25-3.42-3.7,0-2.7,2.32-3.88,4.74-4.09v-1a.94.94,0,1,1,1.87,0v1.09c2.2.31,4.38,1.53,4.38,3.08A1.31,1.31,0,0,1,53.69,52c-1.22,0-1.25-1.38-2.92-1.85v3.21l1.29.28c2.92.64,3.66,2.31,3.66,3.89C55.72,59.8,54.07,61.53,50.77,61.77Z"/><path class="cls-1" d="M48,98.37c-26.49,0-48-22-48-49.15S21.56,0,48,0s48,22.08,48,49.22S74.54,98.37,48,98.37ZM48,5.12C24.38,5.12,5.12,24.9,5.12,49.22s19.26,44,42.93,44S91,73.5,91,49.22,71.72,5.12,48,5.12Z"/></g></g></g></svg>