<svg id="cloudCommerce" class="img-responsive-pictogram" width="507" height="421" xmlns="http://www.w3.org/2000/svg" xmlns:xlink="http://www.w3.org/1999/xlink" viewBox="0 0 338.41 281.26"><defs><linearGradient id="linear-gradient" x1="262.34" y1="86.88" x2="297.74" y2="67.35" gradientUnits="userSpaceOnUse"><stop offset="0" stop-color="#eaf2f2"/><stop offset="1" stop-color="#ccd9dc"/></linearGradient><linearGradient id="linear-gradient-2" x1="342.14" y1="42.6" x2="399.24" y2="75.23" xlink:href="#linear-gradient"/><linearGradient id="linear-gradient-3" x1="369.82" y1="54.92" x2="509.06" y2="135.32" xlink:href="#linear-gradient"/><linearGradient id="linear-gradient-4" x1="121.35" y1="219.76" x2="226.12" y2="160.42" gradientUnits="userSpaceOnUse"><stop offset="0" stop-color="#b6e8fb"/><stop offset="1" stop-color="#b3e7fa"/></linearGradient></defs><title>cloud-commerce-pictogram</title><g id="CCfarLine"><line x1="0.51" y1="165.61" x2="37.18" y2="144.46" style="fill:none;stroke:#b6e8fb;stroke-linecap:round;stroke-linejoin:round;stroke-width:1.02477262470557px"/><line x1="128.98" y1="160.27" x2="91.86" y2="139.04" style="fill:none;stroke:#b6e8fb;stroke-linecap:round;stroke-linejoin:round;stroke-width:1.02477262470557px"/><polyline points="155.4 137.87 155.4 203.14 82.61 160.9 37.63 186.84 0.51 165.61" style="fill:none;stroke:#b6e8fb;stroke-linecap:round;stroke-linejoin:round;stroke-width:1.02477262470557px"/></g><g id="CCfarCloud"><path d="M266.36,91.42c.13-9.32,9.76-11.54,9.76-11.54,3.57-10.08,9.26-14,13.56-12.93s4,5.58,4,5.58c3.47-3.55,5.75-1.88,6.72-.75Z" transform="translate(-177.12 -45.96)" style="fill:url(#linear-gradient)"/></g><g id="CCsideCloud"><path d="M337.18,52c1.72-5.56,6.22-10.91,18,1.53,0,0,13.54-17.23,30.76,4.92,8.8,11.33,8.72,26.75,8.72,26.75Z" transform="translate(-177.12 -45.96)" style="fill:url(#linear-gradient-2)"/><path d="M358.82,75.27c4-4.64,13.28-11.47,27.48,3.06,0,0-1.36-18.51,16.25-22.8S443.42,67.16,458,108.39c0,0,39.4,9.1,39.91,47.19Z" transform="translate(-177.12 -45.96)" style="fill:url(#linear-gradient-3)"/></g><g id="CCcloseLine"><polyline points="247.96 184.47 325.01 228.69 270.45 260.18" style="fill:none;stroke:#b6e8fb;stroke-linecap:round;stroke-linejoin:round;stroke-width:1.02477262470557px"/></g><g id="CClaptop"><polygon points="261.53 208.13 226 228.65 155.94 269.1 155.94 269.1 36.41 200.09 142 139.13 142.03 139.14 261.53 208.13" style="fill:url(#linear-gradient-4)"/><polygon points="261.53 208.13 226 228.65 155.94 269.1 155.94 269.1 36.41 200.09 142 139.13 142.03 139.14 261.53 208.13" style="fill:#00406b;opacity:0.1"/><polygon points="247.25 207.01 192.2 238.35 88.62 178.58 143.66 147.25 247.25 207.01" style="fill:none;stroke:#b6e8fb;stroke-miterlimit:10;stroke-width:1.31966952201571px"/><polygon points="139.97 220.28 131.64 225.09 115.23 234.56 115.23 234.56 87.23 218.4 111.96 204.11 111.97 204.12 139.97 220.28" style="fill:#00406b"/><polygon points="261.53 91.46 261.53 206.13 142.03 137.14 142.03 22.48 261.53 91.46" style="fill:#b6e8fb"/><polygon points="251.23 98.98 251.23 189.3 150.67 131.25 150.67 40.93 251.23 98.98" style="fill:#00406b"/><path d="M438.65,254.09V256a14.67,14.67,0,0,1-7.33,12.7L342.06,320.2a17.67,17.67,0,0,1-17.67,0L222.32,261.27A17.58,17.58,0,0,1,213.53,246h0l119.52,69h0l70.06-40.46Z" transform="translate(-177.12 -45.96)" style="fill:#00406b"/><polygon points="218.75 235.73 218.75 240.26 211.11 244.66 211.11 240.13 218.75 235.73" style="fill:#00b6e8"/><path d="M384,289.49v2.76l-6.1,3.52V293l6.1-3.52m.77-1.33-7.64,4.4v4.53l7.64-4.4v-4.53Z" transform="translate(-177.12 -45.96)" style="fill:#00b6e8"/></g><g id="CCmobilePayment"><path d="M502.57,167.28a2.91,2.91,0,0,0-2.92,0l-26.47,15.44-5,2.88-2.53,1.46a7.23,7.23,0,0,0-3.62,6.26v75.94a6.56,6.56,0,0,0,3.28,5.68l2.86,1.65V195.54a7.23,7.23,0,0,1,3.62-6.26l1.38-.8,32.92-19.17Z" transform="translate(-177.12 -45.96)" style="fill:#00406b"/><path d="M503.92,170.73l-30.74,17.75-1.38.8a7.23,7.23,0,0,0-3.62,6.26V276.6l5-2.88L503.92,256l2.1-1.21a5.8,5.8,0,0,0,2.9-5V172.36a2.6,2.6,0,0,0-3.9-2.26Zm0,66.29-30.74,17.75v-61L503.92,176Z" transform="translate(-177.12 -45.96)" style="fill:#00b6e8"/><path d="M493.74,254.77c.61-2.09-.26-3.79-1.94-3.79s-3.54,1.69-4.15,3.79.26,3.79,1.94,3.79S493.13,256.86,493.74,254.77Z" transform="translate(-177.12 -45.96)" style="fill:#00406b"/><polygon points="326.8 193.07 296.06 210.82 296.06 147.78 326.8 130.04 326.8 193.07" style="fill:#00406b"/><path d="M487.52,230.86l23.73-13.7a7.87,7.87,0,0,0,3.93-6.81V198.86L483.59,217.1v11.49A2.62,2.62,0,0,0,487.52,230.86Z" transform="translate(-177.12 -45.96)" style="fill:#b6e8fb"/><path d="M511.25,191.77l-23.73,13.7a7.87,7.87,0,0,0-3.93,6.81h0L515.18,194h0A2.62,2.62,0,0,0,511.25,191.77Z" transform="translate(-177.12 -45.96)" style="fill:#b6e8fb"/><polygon points="306.46 166.33 306.46 171.06 338.06 152.82 338.06 148.09 306.46 166.33" style="fill:#9e79bb"/><line x1="308.61" y1="172.92" x2="312.25" y2="170.81" style="fill:none;stroke:#00406b;stroke-linecap:round;stroke-linejoin:round;stroke-width:0.713254534616519px"/><line x1="314.07" y1="169.76" x2="317.71" y2="167.66" style="fill:none;stroke:#00406b;stroke-linecap:round;stroke-linejoin:round;stroke-width:0.713254534616519px"/><polygon points="338.41 174.54 324.3 182.56 324.3 180.2 319.05 186.9 324.3 187.63 324.3 185.28 338.41 177.26 338.41 174.54" style="fill:#95d669"/><polygon points="305.14 155.92 319.25 147.9 319.25 150.25 324.5 143.56 319.25 142.83 319.25 145.18 305.14 153.2 305.14 155.92" style="fill:#95d669"/></g><g id="CCfulfillment"><path d="M409.88,307.37a4.3,4.3,0,0,1-1.77,3h0l-.16.09-1.69,1a3.24,3.24,0,0,0,.7-.66,5.13,5.13,0,0,0,1-2.29,10.5,10.5,0,0,0-3.61-9.44,4,4,0,0,0-2.78-.91,2.76,2.76,0,0,0-.9.25l1.61-.92h0l.38-.22h0a3.56,3.56,0,0,1,3.68.66A10.51,10.51,0,0,1,409.88,307.37Z" transform="translate(-177.12 -45.96)" style="fill:#949799"/><path d="M404.27,299.07a4,4,0,0,0-2.78-.91,2.76,2.76,0,0,0-.9.25l0,0-.16.09-.12.07h0a4.34,4.34,0,0,0-1.71,3,10.5,10.5,0,0,0,3.61,9.44,3.59,3.59,0,0,0,3.63.69h0l.42-.24h0a3.24,3.24,0,0,0,.7-.66,5.13,5.13,0,0,0,1-2.29A10.5,10.5,0,0,0,404.27,299.07Zm-1,10.09h0a3.08,3.08,0,0,1-.75-.42,6.47,6.47,0,0,1-2.22-5.82,3.53,3.53,0,0,1,.11-.45h0a2,2,0,0,1,3.43-1.11,6.47,6.47,0,0,1,2.22,5.82C405.78,308.89,404.61,309.66,403.31,309.16Z" transform="translate(-177.12 -45.96)" style="fill:#bcbfc2"/><path d="M406.08,307.18c-.3,1.71-1.47,2.48-2.78,2h0a3.08,3.08,0,0,1-.75-.42,6.47,6.47,0,0,1-2.22-5.82,3.53,3.53,0,0,1,.11-.45h0a2,2,0,0,1,3.43-1.11A6.47,6.47,0,0,1,406.08,307.18Z" transform="translate(-177.12 -45.96)" style="fill:#d5d9dc"/><path d="M419.45,238.68a5.25,5.25,0,0,0-2.63.72,13,13,0,0,0-6.52,11.3v61.55l14.44-8.34V244A5.28,5.28,0,0,0,419.45,238.68Zm3.24,54.37-10.35,6V250a9.34,9.34,0,0,1,4.68-8.1l1-.59a3.11,3.11,0,0,1,4.66,2.69Z" transform="translate(-177.12 -45.96)" style="fill:#00406b"/><line x1="214.92" y1="240.57" x2="257.44" y2="265.12" style="fill:none;stroke:#b6e8fb;stroke-linecap:round;stroke-linejoin:round;stroke-width:1.02477262470557px"/><polygon points="276.72 268.04 276.72 241.65 276.7 241.63 253.85 254.83 253.85 281.25 276.72 268.04" style="fill:#969696"/><polygon points="268.19 259.98 268.19 246.66 268.18 246.66 262.39 250.01 262.39 263.33 268.19 259.98" style="fill:#d5d9dc"/><polygon points="230.99 241.63 230.99 268.03 253.85 281.25 253.85 254.83 230.99 241.63" style="fill:#bcbfc2"/><polygon points="253.85 228.44 230.99 241.63 253.85 254.83 276.7 241.63 253.85 228.44" style="fill:#d5d9dc"/><polygon points="246.27 232.92 240.49 236.1 262.39 250.01 268.08 246.52 246.27 232.92" style="fill:#fff"/><polygon points="266.14 239.58 266.14 221.45 266.12 221.44 250.43 230.51 250.43 248.65 266.14 239.58" style="fill:#969696"/><polygon points="260.27 234.04 260.27 224.9 260.27 224.9 256.29 227.19 256.29 236.34 260.27 234.04" style="fill:#d5d9dc"/><polygon points="234.73 221.44 234.73 239.57 250.43 248.65 250.43 230.51 234.73 221.44" style="fill:#bcbfc2"/><polygon points="250.43 212.38 234.73 221.44 250.43 230.51 266.12 221.44 250.43 212.38" style="fill:#d5d9dc"/><polygon points="245.22 215.46 241.26 217.64 256.24 226.98 260.2 224.8 245.22 215.46" style="fill:#fff"/></g><g id="CCfulfillmentManagement"><polygon points="51.9 93.39 51.9 160.95 104.36 130.66 104.36 63.1 51.9 93.39" style="fill:#00406b"/><polyline points="51.9 93.39 104.36 63.1 104.36 52.52 33.08 93.67 33.08 104.25 51.9 93.39" style="fill:#00b6e8"/><polygon points="51.9 93.39 33.08 104.25 33.08 171.82 51.9 160.95 51.9 93.39" style="fill:#b6e8fb"/><path d="M215.89,142.58a.67.67,0,0,0-.63-1,1.58,1.58,0,0,0-1.36,1,.67.67,0,0,0,.63,1A1.58,1.58,0,0,0,215.89,142.58Z" transform="translate(-177.12 -45.96)" style="fill:#00406b"/><path d="M220.46,140a.67.67,0,0,0-.63-1,1.58,1.58,0,0,0-1.36,1,.67.67,0,0,0,.63,1A1.58,1.58,0,0,0,220.46,140Z" transform="translate(-177.12 -45.96)" style="fill:#00406b"/><path d="M225,137.19a.67.67,0,0,0-.63-1,1.58,1.58,0,0,0-1.36,1,.67.67,0,0,0,.63,1A1.58,1.58,0,0,0,225,137.19Z" transform="translate(-177.12 -45.96)" style="fill:#00406b"/><path d="M273.87,128.9v30.51l-37.14,21.44V150.34l37.14-21.44m1-1.77L235.7,149.75v32.88L274.89,160V127.12Z" transform="translate(-177.12 -45.96)" style="fill:#9e79bb"/><path d="M273.87,166.84v8.33l-37.14,21.44v-8.33l37.14-21.44m1-1.77L235.7,187.69v10.7l39.19-22.63v-10.7Z" transform="translate(-177.12 -45.96)" style="fill:#9e79bb"/><polygon points="71.07 124.98 71.07 111.9 71.08 111.89 82.4 118.43 82.4 131.53 71.07 124.98" style="fill:#bcbfc2"/><polygon points="75.3 120.98 75.3 114.39 75.3 114.38 78.17 116.04 78.17 122.64 75.3 120.98" style="fill:#d5d9dc"/><polygon points="93.73 111.89 93.74 124.98 82.4 131.53 82.4 118.43 93.73 111.89" style="fill:#949799"/><polygon points="82.4 105.35 93.73 111.89 82.4 118.43 71.08 111.89 82.4 105.35" style="fill:#d5d9dc"/><polygon points="86.16 107.57 89.03 109.15 78.21 115.89 75.35 114.31 86.16 107.57" style="fill:#fff"/><path d="M210.46,195.22" transform="translate(-177.12 -45.96)" style="fill:none;stroke:#00406b;stroke-linecap:round;stroke-linejoin:round;stroke-width:3.95900856604713px"/><line x1="37.01" y1="118.77" x2="42.53" y2="115.59" style="fill:none;stroke:#95d669;stroke-linecap:round;stroke-linejoin:round;stroke-width:1.31966952201571px"/><line x1="37.01" y1="126.3" x2="46.6" y2="120.77" style="fill:none;stroke:#95d669;stroke-linecap:round;stroke-linejoin:round;stroke-width:1.31966952201571px"/><line x1="37.01" y1="133.83" x2="44.97" y2="129.23" style="fill:none;stroke:#95d669;stroke-linecap:round;stroke-linejoin:round;stroke-width:1.31966952201571px"/><line x1="37.01" y1="141.35" x2="46.51" y2="135.87" style="fill:none;stroke:#95d669;stroke-linecap:round;stroke-linejoin:round;stroke-width:1.31966952201571px"/><line x1="37.01" y1="148.88" x2="41.76" y2="146.14" style="fill:none;stroke:#95d669;stroke-linecap:round;stroke-linejoin:round;stroke-width:1.31966952201571px"/><line x1="37.01" y1="156.41" x2="43.21" y2="152.82" style="fill:none;stroke:#95d669;stroke-linecap:round;stroke-linejoin:round;stroke-width:1.31966952201571px"/><line x1="37.01" y1="111.25" x2="44.97" y2="106.65" style="fill:none;stroke:#95d669;stroke-linecap:round;stroke-linejoin:round;stroke-width:1.31966952201571px"/><line x1="58.58" y1="98.6" x2="66.54" y2="94.01" style="fill:none;stroke:#95d669;stroke-linecap:round;stroke-linejoin:round;stroke-width:1.31966952201571px"/><line x1="70.15" y1="91.93" x2="78.1" y2="87.33" style="fill:none;stroke:#9e79bb;stroke-linecap:round;stroke-linejoin:round;stroke-width:1.31966952201571px"/><line x1="84.09" y1="83.87" x2="97.77" y2="75.98" style="fill:none;stroke:#95d669;stroke-linecap:round;stroke-linejoin:round;stroke-width:1.31966952201571px"/></g><g id="CCorderScreen"><polygon points="228.21 106.8 228.21 204.05 123.26 143.51 123.26 46.25 228.21 106.8" style="fill:#00b6e8"/><polygon points="222.72 169.47 222.72 182.5 196.62 166.88 196.62 153.85 222.72 169.47" style="fill:none;stroke:#b6e8fb;stroke-miterlimit:10;stroke-width:1.31966952201571px"/><polygon points="217.14 175.04 217.14 188.08 191.04 172.46 191.04 159.43 217.14 175.04" style="fill:#95d669"/><line x1="206.34" y1="113.37" x2="235.89" y2="130.43" style="fill:none;stroke:#95d669;stroke-linecap:round;stroke-linejoin:round;stroke-width:2.04954524941114px"/><line x1="206.34" y1="130.43" x2="224.68" y2="141.01" style="fill:none;stroke:#95d669;stroke-linecap:round;stroke-linejoin:round;stroke-width:2.04954524941114px"/><line x1="206.34" y1="138.52" x2="214.99" y2="143.51" style="fill:none;stroke:#95d669;stroke-linecap:round;stroke-linejoin:round;stroke-width:2.04954524941114px"/><line x1="219.95" y1="146.38" x2="236.48" y2="155.92" style="fill:none;stroke:#95d669;stroke-linecap:round;stroke-linejoin:round;stroke-width:2.04954524941114px"/><line x1="206.34" y1="122.87" x2="240.39" y2="142.53" style="fill:none;stroke:#95d669;stroke-linecap:round;stroke-linejoin:round;stroke-width:2.04954524941114px"/><polygon points="176.49 154.01 176.39 159.58 171.56 156.81 132.78 134.56 132.89 128.99 176.46 153.99 176.49 154.01" style="fill:#d5d9dc"/><polygon points="187.74 153.03 176.39 159.58 176.45 153.99 187.76 147.46 187.74 153.03" style="fill:#969696"/><polyline points="176.45 153.99 132.89 128.99 144.31 122.38 144.32 122.38 144.31 122.38 144.32 122.38 187.76 147.46" style="fill:#bcbfc2"/><polygon points="176.63 126.56 176.42 126.64 161.67 132.4 154.85 135.07 154.82 135.09 154.77 135.04 150.41 128.16 148.15 124.6 146.09 121.36 141.8 114.59 133.8 101.97 145.59 108.74 145.85 95.55 145.85 95.01 145.88 93.76 145.94 90.07 145.96 90.06 149.77 92.24 150.22 92.5 161.36 98.9 165.18 101.08 165.12 104.81 165.09 106.65 165 110.44 164.83 119.79 164.88 119.8 176.6 126.54 176.63 126.56" style="fill:#d5d9dc"/><path d="M323,141" transform="translate(-177.12 -45.96)" style="fill:none;stroke:#000;stroke-miterlimit:10;stroke-width:0.25px"/><polygon points="133.8 101.97 145.39 95.29 145.85 95.55 145.59 108.74 133.8 101.97" style="fill:#949799"/><polygon points="188.07 119.92 176.6 126.54 164.88 119.8 176.37 113.16 176.42 113.2 188.07 119.92" style="fill:#949799"/><polygon points="176.42 94.61 176.42 113.13 176.37 113.16 164.88 119.8 164.83 119.79 165 110.44 165.09 106.65 165.12 104.81 165.18 101.08 176.41 94.61 176.42 94.61" style="fill:#969696"/><polygon points="176.41 94.61 157.25 83.55 145.96 90.06 165.18 101.08 176.41 94.61" style="fill:#bcbfc2"/></g></svg>