<?xml version="1.0" encoding="UTF-8"?>
<svg width="26px" height="26px" viewBox="0 0 26 26" version="1.1" xmlns="http://www.w3.org/2000/svg" xmlns:xlink="http://www.w3.org/1999/xlink">
    <!-- Generator: Sketch 64 (93537) - https://sketch.com -->
    <title>icon-check</title>
    <desc>Created with Sketch.</desc>
    <g id="Page-1" stroke="none" stroke-width="1" fill="none" fill-rule="evenodd">
        <g id="DigitalRiver_Salesforce" transform="translate(-128.000000, -843.000000)" fill="#00A7E0" fill-rule="nonzero">
            <g id="Group-6" transform="translate(128.000000, 435.000000)">
                <g id="Group-9" transform="translate(0.000000, 82.000000)">
                    <path d="M13,326 C5.82059524,326 0,331.820595 0,339 C0,346.179405 5.82059524,352 13,352 C20.1794048,352 26,346.179405 26,339 C26,331.820595 20.1794048,326 13,326 Z M19.7903333,333.418976 C20.0442388,333.409304 20.2787929,333.555603 20.3815857,333.787743 C20.4843569,334.021096 20.4335764,334.293133 20.2546314,334.473276 L10.6593933,344.378038 C10.5445321,344.496527 10.3861426,344.564235 10.2216957,344.566673 C10.056051,344.567865 9.8964481,344.503785 9.77916952,344.387714 L5.75536,340.363904 C5.63445381,340.249043 5.56553524,340.090654 5.56305184,339.925 C5.56069986,339.758148 5.62478119,339.598545 5.74205976,339.480059 C5.85934143,339.36157 6.0189381,339.295069 6.18458595,339.296279 C6.35143786,339.296279 6.50983357,339.363988 6.625905,339.483687 L10.2046193,343.062401 L19.3646669,333.61233 C19.4759036,333.495048 19.628245,333.424922 19.7902621,333.418877 L19.7903333,333.418976 Z" id="icon-check"></path>
                </g>
            </g>
        </g>
    </g>
</svg>