<svg id="Layer_1" data-name="Layer 1" xmlns="http://www.w3.org/2000/svg" viewBox="0 0 449.79 403.75"><defs><style>.cls-1{fill:none;}.cls-2{fill:#003058;}.cls-3{fill:#00a7e1;}</style></defs><title>DR_Logo_ALT_clr_p_RGB</title><rect class="cls-1" width="449.79" height="403.75"/><path class="cls-2" d="M291.27,346.8h27.25a79.06,79.06,0,0,0,31.41-6.35,80.87,80.87,0,0,0,43.13-43.13,80.91,80.91,0,0,0,0-62.83,80.85,80.85,0,0,0-43.13-43.13A79.14,79.14,0,0,0,318.52,185H252V346.8h22.89V207.92h43.63a57.44,57.44,0,0,1,22.2,4.41,56.53,56.53,0,0,1,31.39,31.39,58.3,58.3,0,0,1,0,44.52,56.81,56.81,0,0,1-31.38,31.25,57.38,57.38,0,0,1-22.2,4.42H299.61Z" transform="translate(-171.11 -104.12)"/><path class="cls-3" d="M508.17,346.8h27.3l-33.15-51.47,3-1.42a55.69,55.69,0,0,0,13.31-8.76,57,57,0,0,0,10.25-12,58.67,58.67,0,0,0,6.61-14.49,56.67,56.67,0,0,0,2.39-16.51A54.78,54.78,0,0,0,533.36,220a58.39,58.39,0,0,0-30.47-30.47A54.76,54.76,0,0,0,480.71,185H420.9V346.8h22.89V207.92h36.92A33.36,33.36,0,0,1,505,218.11a34.11,34.11,0,0,1,7.34,37.19,36.74,36.74,0,0,1-7.28,11.18,33.4,33.4,0,0,1-24.39,10.25H467.34L459,299.63h18.79Z" transform="translate(-171.11 -104.12)"/><path class="cls-2" d="M261.42,414.73H268a19,19,0,0,0,7.53-1.52,19.4,19.4,0,0,0,10.35-10.34,19.41,19.41,0,0,0,0-15.07,19.39,19.39,0,0,0-10.34-10.34,19,19,0,0,0-7.53-1.52H252v38.8h5.49V381.41H268a13.78,13.78,0,0,1,5.32,1.06,13.56,13.56,0,0,1,7.53,7.53,14,14,0,0,1,0,10.68,13.62,13.62,0,0,1-7.53,7.5,13.76,13.76,0,0,1-5.32,1.06h-4.54Zm30.76,0h5.49V387.41h-5.49Zm0-33.31h5.49v-5.49h-5.49Zm14.54,43.12A23.21,23.21,0,0,0,316.9,427c6.4,0,13.94-3.62,13.94-14v-25.6h-5.49v3l-1.13-.86a15.57,15.57,0,0,0-3.85-2.11,13.94,13.94,0,0,0-5-.84,13.13,13.13,0,0,0-5.43,1.12,12.71,12.71,0,0,0-4.25,3.08,14.32,14.32,0,0,0-2.76,4.6,16.08,16.08,0,0,0-1,5.67,14,14,0,0,0,1.15,5.64,15,15,0,0,0,3.13,4.61,14.55,14.55,0,0,0,4.6,3.1,14.14,14.14,0,0,0,5.58,1.12h.11a14.44,14.44,0,0,0,4.65-.74l-1.9-5.19a10.28,10.28,0,0,1-2.87.44,8.94,8.94,0,0,1-6.34-2.61,8.7,8.7,0,0,1-2.63-6.37,8.94,8.94,0,0,1,9-9,8.69,8.69,0,0,1,6.35,2.62,9,9,0,0,1,2.62,6.35v11.54c0,7.9-5.91,9-9.15,9a20.58,20.58,0,0,1-7.64-2.06Zm30-9.81h5.49V387.41h-5.49Zm0-33.31h5.49v-5.49h-5.49Zm11.36-1.33v25.86a8.48,8.48,0,0,0,.69,3.4,9.23,9.23,0,0,0,1.87,2.81,8.63,8.63,0,0,0,2.76,1.89,8.48,8.48,0,0,0,3.4.69h5.33l-2-5.49h-3.32a3.12,3.12,0,0,1-2.28-1,3.19,3.19,0,0,1-1-2.33V392.89h7.76l-2-5.49h-5.76v-7.32Zm29.14,6.52a13.66,13.66,0,0,0-5.55,1.12,13.49,13.49,0,0,0-4.4,3.08,14.32,14.32,0,0,0-2.9,4.6,15.72,15.72,0,0,0,0,11.26,14.33,14.33,0,0,0,2.9,4.6,13.47,13.47,0,0,0,4.4,3.08,13.67,13.67,0,0,0,5.55,1.12,13.36,13.36,0,0,0,5.25-1l-1.81-4.95a10.24,10.24,0,0,1-2.87.43,9.31,9.31,0,0,1-3.45-.65,8.17,8.17,0,0,1-2.92-2,9,9,0,0,1,0-12.64,9,9,0,0,1,6.35-2.62,8.94,8.94,0,0,1,9,9v13.66h5.49V387.35h-5.49v3l-1.14-.9a14.43,14.43,0,0,0-3.67-2.08A12.9,12.9,0,0,0,377.26,386.61Zm21.24,28.12H404v-38.8H398.5Z" transform="translate(-171.11 -104.12)"/><path class="cls-3" d="M441.83,414.73h6.55l-8-12.34.73-.34a13.36,13.36,0,0,0,3.19-2.1,13.67,13.67,0,0,0,2.46-2.87,14.08,14.08,0,0,0,1.59-3.47,13.59,13.59,0,0,0,.57-4,13.14,13.14,0,0,0-1.09-5.32,14,14,0,0,0-7.31-7.31,13.13,13.13,0,0,0-5.32-1.09H420.9v38.8h5.49V381.41h8.86a8,8,0,0,1,5.84,2.44,8.18,8.18,0,0,1,1.76,8.92,8.81,8.81,0,0,1-1.75,2.68,8,8,0,0,1-5.85,2.46H432l-2,5.49h4.51Zm12,0h5.49V387.41h-5.49Zm0-33.31h5.49v-5.49h-5.49Zm20,33.31h7.58l9.94-27.32h-5.85l-7.88,21.53-7.88-21.53H463.8Zm24.77-10.91H521.3a14,14,0,0,0,.26-2.75,14.28,14.28,0,0,0-1.12-5.64,14.43,14.43,0,0,0-7.7-7.7,14.74,14.74,0,0,0-11.28,0,14.43,14.43,0,0,0-7.7,7.7,14.27,14.27,0,0,0-1.12,5.64c0,10.07,8.13,14.35,15.74,14.22a22.14,22.14,0,0,0,8.81-2.06l-1.71-4.71a20.37,20.37,0,0,1-7.66,1.47C502.08,410,499.27,406.75,498.51,403.81Zm17.18-5.49H498.51l.43-1a8.51,8.51,0,0,1,1.81-2.63,9,9,0,0,1,6.35-2.62,8.69,8.69,0,0,1,6.35,2.62,8.56,8.56,0,0,1,1.81,2.63Zm16-7.2v-3.77h-5.49v27.37h5.49V401a9,9,0,0,1,2.61-6.34,8.65,8.65,0,0,1,5.66-2.6v-5.5A10.58,10.58,0,0,0,531.73,391.12Z" transform="translate(-171.11 -104.12)"/><path class="cls-3" d="M544.13,389.35a4.48,4.48,0,1,1,4.47,4.47A4.47,4.47,0,0,1,544.13,389.35Zm8.37,0a3.9,3.9,0,1,0-3.91,3.89A3.9,3.9,0,0,0,552.51,389.35Zm-5.8-2.76h2.15a1.61,1.61,0,0,1,1.8,1.64,1.53,1.53,0,0,1-1.08,1.55l1.61,2.26H550l-1.49-2.17h-.68V392h-1.08Zm2,2.49a.85.85,0,1,0,0-1.7h-.89v1.7Z" transform="translate(-171.11 -104.12)"/></svg>