<?xml version="1.0" encoding="utf-8"?>
<!-- Generator: Adobe Illustrator 23.0.6, SVG Export Plug-In . SVG Version: 6.00 Build 0)  -->
<svg version="1.1" id="Layer_1" xmlns="http://www.w3.org/2000/svg" xmlns:xlink="http://www.w3.org/1999/xlink" x="0px" y="0px"
	 viewBox="0 0 29 29" style="enable-background:new 0 0 29 29;" xml:space="preserve">
<style type="text/css">
	.st0{fill:none;stroke:#00A7E0;stroke-width:0.75;stroke-miterlimit:10;}
	.st1{fill:#00A7E0;}
</style>
<circle class="st0" cx="14.5" cy="14.5" r="14.1"/>
<g>
	<path class="st1" d="M11.6,8c0,0.9-0.7,1.6-1.8,1.6c-1,0-1.7-0.7-1.7-1.6c0-0.9,0.7-1.6,1.7-1.6C10.9,6.4,11.6,7.1,11.6,8z
		 M8.2,21.5V11h3.3v10.6H8.2z"/>
	<path class="st1" d="M13.5,14.3c0-1.3,0-2.4-0.1-3.4h2.9l0.2,1.5h0.1c0.4-0.7,1.5-1.7,3.3-1.7c2.2,0,3.8,1.4,3.8,4.6v6.2h-3.3v-5.9
		c0-1.4-0.5-2.3-1.7-2.3c-0.9,0-1.4,0.6-1.7,1.2c-0.1,0.2-0.1,0.5-0.1,0.8v6.1h-3.3V14.3z"/>
</g>
</svg>
