<svg xmlns="http://www.w3.org/2000/svg" viewBox="0 0 629.45 629.45"><defs><style>.cls-1,.cls-2{fill:#fff;}.cls-2{opacity:0.15;}</style></defs><title>circle_retain</title><g id="Layer_2" data-name="Layer 2"><g id="image"><path class="cls-1" d="M77.83,236.2,60.08,193.87l-42.89,18,1.49-4.11A314.82,314.82,0,0,1,594.76,171l.39.75-14.76,39.77L533,193.93l-.35-.62c-42.79-76.64-123.8-125.68-211.42-128A248.82,248.82,0,0,0,79.48,231.51Zm-15.7-47.35,15.42,36.77a253.34,253.34,0,0,1,458.15-34.79l42.43,15.75L591,172A311,311,0,0,0,23.8,204.92Z"/><path class="cls-1" d="M346.67,627.85l-38.53-25.18,25.61-39.18.94-.07a249.52,249.52,0,0,0,198-370.1l-2.54-4.55,48,17.8,14.65-39.46,2,3.87a315.08,315.08,0,0,1,34.58,152c-4.13,157.64-125.37,288.68-282,304.8Zm-33.22-26.29,34.18,22.34c154.39-16.24,273.8-145.52,277.87-301a311.38,311.38,0,0,0-32.18-146.23l-12.94,34.86L538.5,196a253.36,253.36,0,0,1-202.57,371.2Z"/><path class="cls-1" d="M306.47,629.34C133,624.79-4.44,480,.11,306.47a314.33,314.33,0,0,1,18.56-98.73L19,207l43.17-18.11,17.6,42-.25.7a249.31,249.31,0,0,0-14.15,76.67C61.73,445.7,170.67,560.51,308.19,564.12a253.8,253.8,0,0,0,26.5-.7l3.89-.31-25.13,38.45,39.28,25.67-5.38.55A319.25,319.25,0,0,1,306.47,629.34ZM22,209.84a310.48,310.48,0,0,0-18,96.73C-.55,477.94,135.21,621,306.58,625.51a315.36,315.36,0,0,0,34.93-1l-33.37-21.81,23-35.15c-7.69.49-15.42.64-23,.44C168.45,564.29,57.84,447.72,61.5,308.08a253.2,253.2,0,0,1,14.12-77.15L60.08,193.87Z"/><path class="cls-1" d="M79.48,231.51l-3.62-1.28A253.34,253.34,0,0,1,536,191.44l-3.35,1.87c-42.79-76.64-123.8-125.68-211.42-128A248.82,248.82,0,0,0,79.48,231.51Z"/><path class="cls-1" d="M335,567.24l-.3-3.82a249.52,249.52,0,0,0,198-370.1l3.35-1.87A253.35,253.35,0,0,1,335,567.24Z"/><path class="cls-1" d="M308.08,568C168.45,564.29,57.84,447.72,61.5,308.08a253.16,253.16,0,0,1,14.37-77.85l3.62,1.28a249.31,249.31,0,0,0-14.15,76.67C61.73,445.7,170.67,560.51,308.19,564.12a253.8,253.8,0,0,0,26.5-.7l.3,3.82A257.32,257.32,0,0,1,308.08,568Z"/><path class="cls-1" d="M252.65,57.41l-3-4.62-10.11,2.73-.34,5.54-5.79,1.56L236,31.35l4.35-1.18,18.07,25.67Zm-12.06-18.3-.8,11.31,7.07-1.91Z"/><path class="cls-1" d="M271.13,53.93a11.27,11.27,0,0,1-4.44-.09,11.72,11.72,0,0,1-4.19-2,7.79,7.79,0,0,1-2.91-3.79A45.07,45.07,0,0,1,257.94,41a43,43,0,0,1-.77-7.27,7.93,7.93,0,0,1,1.51-4.58,11.69,11.69,0,0,1,3.25-3.2,11.37,11.37,0,0,1,4.19-1.53,10.36,10.36,0,0,1,12.25,7.36l-5.75,1A6,6,0,0,0,270.45,30a4.65,4.65,0,0,0-3.43-.57,4.37,4.37,0,0,0-3.18,1.78,5.94,5.94,0,0,0-.88,3.11A36.06,36.06,0,0,0,263.6,40a37.29,37.29,0,0,0,1.25,5.62,5.88,5.88,0,0,0,1.84,2.56,4.35,4.35,0,0,0,3.62.67,4.64,4.64,0,0,0,3.05-1.67,5.93,5.93,0,0,0,1.14-3.28l5.75-1a10.44,10.44,0,0,1-9.13,11Z"/><path class="cls-1" d="M304.59,51.32l-2.79-2.4A10.66,10.66,0,0,1,296,51a11.42,11.42,0,0,1-4.47-.49,11.74,11.74,0,0,1-3.94-2.35A7.85,7.85,0,0,1,285,44a45.07,45.07,0,0,1-1-7.25,43.23,43.23,0,0,1-.07-7.31,8,8,0,0,1,1.94-4.41,11.78,11.78,0,0,1,3.53-2.87,12.52,12.52,0,0,1,8.81-.64,11.72,11.72,0,0,1,3.92,2.33A8.11,8.11,0,0,1,304.76,28a41.73,41.73,0,0,1,1,7.21,39.55,39.55,0,0,1,.1,7.09,9.32,9.32,0,0,1-1.16,3.44l2.7,2.34ZM298,27.5a4.63,4.63,0,0,0-3.79-1.3,5.18,5.18,0,0,0-2.09.57,5,5,0,0,0-1.6,1.38,4.72,4.72,0,0,0-.86,2.47,40.35,40.35,0,0,0,.14,5.77,43.29,43.29,0,0,0,.67,5.78A5.51,5.51,0,0,0,292,44.81a4.44,4.44,0,0,0,3.58,1,3.28,3.28,0,0,0,1.86-.67l-2.74-2.33,2.84-3.23,2.34,2a9.86,9.86,0,0,0,.24-2.38q0-1.53-.13-3.6a37.06,37.06,0,0,0-.7-5.71A5.2,5.2,0,0,0,298,27.5Z"/><path class="cls-1" d="M322.32,50.38a11,11,0,0,1-7.65-3.07,9.69,9.69,0,0,1-2.89-7.57l.55-19.35,5.75.16-.54,19.15a5.56,5.56,0,0,0,1.25,4,4.87,4.87,0,0,0,3.68,1.55,5,5,0,0,0,3.78-1.32,5.48,5.48,0,0,0,1.5-4l.54-19.15L334,21l-.55,19.35a9.72,9.72,0,0,1-3.29,7.4A11,11,0,0,1,322.32,50.38Z"/><path class="cls-1" d="M339,51.16l3-29.34,5.72.59-3,29.34Z"/><path class="cls-1" d="M366.47,55.12,362.88,42.5l-4.07-.73-2.07,11.61-5.66-1,5.18-29,11.36,2A9.43,9.43,0,0,1,374,29.13a8.73,8.73,0,0,1,1.41,6.78,7.83,7.83,0,0,1-2.37,4.56,8.26,8.26,0,0,1-4.29,2.11L373,56.29Zm-.12-24.77-5.34-1L359.66,37,365,38a4.26,4.26,0,0,0,3.16-.52,4,4,0,0,0,1-5.52A4.31,4.31,0,0,0,366.35,30.35Z"/><path class="cls-1" d="M377,57.35l7.95-28.4,18.68,5.23-1.38,4.94-13.14-3.68-1.86,6.65,11.19,3.13L397,50.16,385.84,47,383.9,54,397,57.64l-1.38,4.94Z"/><path class="cls-1" d="M528.93,521.3a11.28,11.28,0,0,1-3.63,2.56,11.73,11.73,0,0,1-4.54.91,7.81,7.81,0,0,1-4.59-1.33,44.78,44.78,0,0,1-5.55-4.76,43.45,43.45,0,0,1-4.93-5.4,8,8,0,0,1-1.5-4.58,11.72,11.72,0,0,1,.73-4.51,11.4,11.4,0,0,1,2.47-3.71,10.36,10.36,0,0,1,14.23-1.31l-4.06,4.19a6,6,0,0,0-3.35-.91,4.64,4.64,0,0,0-3.11,1.57,4.36,4.36,0,0,0-1.51,3.32,5.92,5.92,0,0,0,1.13,3,36.4,36.4,0,0,0,3.89,4.19,37.63,37.63,0,0,0,4.33,3.79,5.87,5.87,0,0,0,3,1,4.34,4.34,0,0,0,3.31-1.61,4.63,4.63,0,0,0,1.47-3.15,5.93,5.93,0,0,0-1-3.32l4.06-4.19a10.44,10.44,0,0,1-.85,14.26Z"/><path class="cls-1" d="M550,491.87a11.14,11.14,0,0,1-.31,4.26,11.28,11.28,0,0,1-2.13,4,11.44,11.44,0,0,1-3.39,3,11.74,11.74,0,0,1-4.4,1.3,7.87,7.87,0,0,1-4.72-.88,45.1,45.1,0,0,1-6-4.22,43.25,43.25,0,0,1-5.42-4.91,7.94,7.94,0,0,1-1.92-4.42,11.77,11.77,0,0,1,.28-4.54,12.52,12.52,0,0,1,5.51-6.9,11.66,11.66,0,0,1,4.37-1.3,8.09,8.09,0,0,1,4.78.91,41.58,41.58,0,0,1,6,4.16,43.26,43.26,0,0,1,5.42,4.91A8.5,8.5,0,0,1,550,491.87Zm-18.31-9.17a4.63,4.63,0,0,0-3.53,1.9,5.23,5.23,0,0,0-1,1.92,5,5,0,0,0-.07,2.11,4.71,4.71,0,0,0,1.23,2.31,40.53,40.53,0,0,0,4.34,3.81,42.48,42.48,0,0,0,4.7,3.43,5.5,5.5,0,0,0,3,.64,4.44,4.44,0,0,0,3.18-1.93,4.29,4.29,0,0,0,1.15-3.46,6.09,6.09,0,0,0-1.4-2.92,35.21,35.21,0,0,0-4.23-3.78,36.84,36.84,0,0,0-4.68-3.36A5.2,5.2,0,0,0,531.69,482.7Z"/><path class="cls-1" d="M568.66,469.8l-21.51,0,15.2,9.78-3.11,4.84-24.81-16,2.78-4.31,21.48-.05-15.17-9.76,3.11-4.84,24.81,16Z"/><path class="cls-1" d="M581,447.67l-2,3.83-30.68-4.81,2.72-5.3,19.78,3.5-14.38-14,2.74-5.34Z"/><path class="cls-1" d="M587.76,433.53l-27.35-11,7.27-18,4.75,1.92-5.11,12.66,6.41,2.59,4.35-10.78,4.76,1.92-4.35,10.78,6.68,2.69,5.11-12.66,4.76,1.92Z"/><path class="cls-1" d="M602.16,392.79,589.22,395l-1.17,4,11.3,3.35-1.63,5.51-28.28-8.37,3.28-11.07a9.42,9.42,0,0,1,4.46-6,8.73,8.73,0,0,1,6.9-.65,7.83,7.83,0,0,1,4.26,2.86,8.25,8.25,0,0,1,1.62,4.49l14.09-2.69Zm-24.63-2.63L576,395.35l7.42,2.2,1.54-5.2a4.28,4.28,0,0,0-.17-3.2,4,4,0,0,0-5.38-1.61A4.31,4.31,0,0,0,577.53,390.16Z"/><path class="cls-1" d="M583.88,363.56l23.91,4.71-1.11,5.64-23.91-4.71-1.49,7.55-5-1L580.34,355l5,1Z"/><path class="cls-1" d="M39.3,427.56l8.88-9.66-1.51-3.85-11,4.31L33.6,413l27.46-10.77L65.27,413a9.42,9.42,0,0,1,.14,7.43,8.74,8.74,0,0,1-5,4.75,7.84,7.84,0,0,1-5.12.37,8.23,8.23,0,0,1-4-2.55l-9.47,10.78Zm21.05-13.05-2-5-7.2,2.82,2,5a4.26,4.26,0,0,0,2.1,2.42,4,4,0,0,0,5.23-2A4.29,4.29,0,0,0,60.36,414.51Z"/><path class="cls-1" d="M44.85,440.36,71.17,427l8.76,17.31-4.58,2.32-6.17-12.18L63,437.61,68.28,448,63.7,450.3l-5.25-10.37L52,443.18l6.17,12.18-4.58,2.32Z"/><path class="cls-1" d="M84.23,461.24,63.54,474.12l-3-4.88,20.69-12.88-4.07-6.53,4.36-2.71,11.18,17.94-4.36,2.71Z"/><path class="cls-1" d="M81.8,499.85l3.14-4.56L78.61,487l-5.26,1.76-3.62-4.78,30-9.28,2.72,3.59-17,26.39Zm12.44-18-10.79,3.5,4.42,5.84Z"/><path class="cls-1" d="M89.23,508.73l22.17-19.45,3.79,4.32L93,513.05Z"/><path class="cls-1" d="M111.38,531.91l4.28-21.09L103,523.76l-4.12-4,20.61-21.11,3.67,3.58-4.25,21.06,12.6-12.9,4.12,4-20.6,21.11Z"/><path class="cls-2" d="M22,209.84a310.48,310.48,0,0,0-18,96.73C-.55,477.94,135.21,621,306.58,625.51a315.36,315.36,0,0,0,34.93-1l-33.37-21.81,23-35.15c-7.69.49-15.42.64-23,.44C168.45,564.29,57.84,447.72,61.5,308.08a253.2,253.2,0,0,1,14.12-77.15L60.08,193.87Z"/></g></g></svg>