<svg xmlns="http://www.w3.org/2000/svg" viewBox="0 0 630 630"><defs><style>.cls-1{fill:#fff;}</style></defs><title>circle_plain</title><g id="Layer_2" data-name="Layer 2"><g id="image"><path class="cls-1" d="M77.89,236.41,60.13,194,17.2,212l1.49-4.12a315.1,315.1,0,0,1,576.59-36.8l.39.75-14.78,39.81L533.5,194.1l-.35-.62C490.33,116.77,409.25,67.69,321.55,65.39a249,249,0,0,0-242,166.32ZM62.18,189l15.43,36.8A253.56,253.56,0,0,1,536.16,191l42.46,15.76,12.85-34.62a311.26,311.26,0,0,0-567.65,33Z"/><path class="cls-1" d="M347,628.4l-38.56-25.2L334,564l.94-.07A249.74,249.74,0,0,0,533.15,193.48l-2.54-4.55,48,17.82,14.66-39.5,2,3.87a315.35,315.35,0,0,1,34.61,152.13C625.75,481,504.42,612.19,347.65,628.33Zm-33.25-26.32,34.21,22.36c154.52-16.25,274-145.65,278.12-301.28A311.65,311.65,0,0,0,593.84,176.8l-13,34.89L539,196.13A253.58,253.58,0,0,1,336.23,567.66Z"/><path class="cls-1" d="M306.74,629.89C133.11,625.34-4.44,480.37.11,306.74a314.6,314.6,0,0,1,18.58-98.82l.29-.79L62.18,189,79.8,231l-.25.7a249.52,249.52,0,0,0-14.16,76.74C61.78,446.09,170.82,561,308.45,564.61a254,254,0,0,0,26.53-.7l3.9-.31-25.15,38.48L353,627.78l-5.39.55A319.53,319.53,0,0,1,306.74,629.89ZM22,210A310.75,310.75,0,0,0,4,306.84C-.55,478.36,135.33,621.55,306.84,626.05a315.63,315.63,0,0,0,35-1l-33.4-21.83,23-35.18c-7.7.49-15.43.64-23.05.44C168.6,564.78,57.89,448.11,61.55,308.35a253.43,253.43,0,0,1,14.13-77.22L60.13,194Z"/><path class="cls-1" d="M79.55,231.72l-3.62-1.28a253.56,253.56,0,0,1,460.58-38.83l-3.36,1.87C490.33,116.77,409.25,67.69,321.55,65.39A249,249,0,0,0,79.55,231.72Z"/><path class="cls-1" d="M335.28,567.73l-.3-3.83A249.74,249.74,0,0,0,533.15,193.48l3.36-1.87A253.57,253.57,0,0,1,335.28,567.73Z"/><path class="cls-1" d="M308.35,568.45C168.6,564.78,57.89,448.11,61.55,308.35a253.38,253.38,0,0,1,14.38-77.92l3.62,1.28a249.52,249.52,0,0,0-14.16,76.74C61.78,446.09,170.82,561,308.45,564.61a254,254,0,0,0,26.53-.7l.3,3.83A257.55,257.55,0,0,1,308.35,568.45Z"/><path class="cls-1" d="M252.87,57.46l-3-4.62L239.7,55.56l-.35,5.54-5.8,1.56,2.66-31.3,4.36-1.18,18.09,25.69ZM240.8,39.14,240,50.47l7.08-1.91Z"/><path class="cls-1" d="M271.37,54a11.28,11.28,0,0,1-4.45-.09,11.73,11.73,0,0,1-4.2-2,7.8,7.8,0,0,1-2.91-3.79A45.11,45.11,0,0,1,258.16,41a43.06,43.06,0,0,1-.77-7.28,7.94,7.94,0,0,1,1.51-4.58,11.7,11.7,0,0,1,3.26-3.2,11.38,11.38,0,0,1,4.19-1.53,10.36,10.36,0,0,1,12.26,7.37l-5.75,1A6,6,0,0,0,270.68,30a4.65,4.65,0,0,0-3.44-.57,4.37,4.37,0,0,0-3.18,1.78,6,6,0,0,0-.88,3.11,36.09,36.09,0,0,0,.65,5.69,37.32,37.32,0,0,0,1.25,5.63,5.88,5.88,0,0,0,1.84,2.56,4.35,4.35,0,0,0,3.62.67,4.64,4.64,0,0,0,3.05-1.67A5.94,5.94,0,0,0,274.75,44l5.76-1a10.45,10.45,0,0,1-9.13,11Z"/><path class="cls-1" d="M304.86,51.36,302.07,49a10.66,10.66,0,0,1-5.83,2,11.43,11.43,0,0,1-4.48-.49,11.75,11.75,0,0,1-3.95-2.35,7.86,7.86,0,0,1-2.56-4.07,45.11,45.11,0,0,1-1-7.26,43.27,43.27,0,0,1-.07-7.32,8,8,0,0,1,1.94-4.42,11.79,11.79,0,0,1,3.53-2.87,12.53,12.53,0,0,1,8.82-.64,11.73,11.73,0,0,1,3.92,2.33A8.11,8.11,0,0,1,305,28a41.76,41.76,0,0,1,1,7.21,39.59,39.59,0,0,1,.1,7.09A9.33,9.33,0,0,1,305,45.8l2.7,2.34Zm-6.62-23.84a4.63,4.63,0,0,0-3.79-1.31,5.18,5.18,0,0,0-2.1.57,5,5,0,0,0-1.6,1.38,4.72,4.72,0,0,0-.86,2.47,40.39,40.39,0,0,0,.14,5.78,43.33,43.33,0,0,0,.67,5.78,5.52,5.52,0,0,0,1.58,2.65,4.44,4.44,0,0,0,3.58,1,3.28,3.28,0,0,0,1.86-.67L295,42.87l2.84-3.23,2.35,2a9.87,9.87,0,0,0,.24-2.38q0-1.54-.14-3.6a37.09,37.09,0,0,0-.7-5.72A5.2,5.2,0,0,0,298.24,27.52Z"/><path class="cls-1" d="M322.6,50.42a11,11,0,0,1-7.66-3.08A9.7,9.7,0,0,1,312,39.77l.55-19.37,5.75.16-.54,19.16a5.57,5.57,0,0,0,1.25,4,4.87,4.87,0,0,0,3.68,1.55A5,5,0,0,0,326.53,44a5.49,5.49,0,0,0,1.5-4l.54-19.16,5.71.16-.55,19.37a9.73,9.73,0,0,1-3.3,7.4A11,11,0,0,1,322.6,50.42Z"/><path class="cls-1" d="M339.32,51.21l3-29.37,5.72.59L345,51.8Z"/><path class="cls-1" d="M366.79,55.17l-3.59-12.63-4.07-.73L357,53.43l-5.66-1,5.18-29.06,11.37,2a9.44,9.44,0,0,1,6.42,3.77,8.74,8.74,0,0,1,1.42,6.79,7.84,7.84,0,0,1-2.37,4.56,8.27,8.27,0,0,1-4.29,2.12l4.24,13.72Zm-.12-24.79-5.34-1L360,37l5.34,1a4.27,4.27,0,0,0,3.16-.52,4,4,0,0,0,1-5.53A4.31,4.31,0,0,0,366.67,30.38Z"/><path class="cls-1" d="M377.31,57.4l8-28.43L404,34.2l-1.38,4.94-13.16-3.68-1.87,6.66,11.2,3.13-1.38,4.94-11.2-3.14L384.24,54l13.16,3.68L396,62.63Z"/><path class="cls-1" d="M529.39,521.75a11.29,11.29,0,0,1-3.63,2.56,11.74,11.74,0,0,1-4.54.91,7.82,7.82,0,0,1-4.59-1.33,44.82,44.82,0,0,1-5.55-4.77,43.48,43.48,0,0,1-4.93-5.41,8,8,0,0,1-1.5-4.59,11.73,11.73,0,0,1,.73-4.51,11.41,11.41,0,0,1,2.47-3.71,10.37,10.37,0,0,1,14.24-1.31l-4.06,4.2a6,6,0,0,0-3.35-.91,4.64,4.64,0,0,0-3.11,1.57,4.36,4.36,0,0,0-1.51,3.32,5.92,5.92,0,0,0,1.13,3,36.43,36.43,0,0,0,3.89,4.2,37.66,37.66,0,0,0,4.34,3.79,5.88,5.88,0,0,0,3,1,4.34,4.34,0,0,0,3.31-1.61A4.64,4.64,0,0,0,527.2,515a5.93,5.93,0,0,0-1-3.32l4.06-4.19a10.45,10.45,0,0,1-.85,14.27Z"/><path class="cls-1" d="M550.47,492.29a11.15,11.15,0,0,1-.31,4.26,11.29,11.29,0,0,1-2.13,4,11.45,11.45,0,0,1-3.4,3,11.75,11.75,0,0,1-4.41,1.31,7.88,7.88,0,0,1-4.72-.89,45.14,45.14,0,0,1-6-4.22,43.29,43.29,0,0,1-5.43-4.91,8,8,0,0,1-1.92-4.42,11.78,11.78,0,0,1,.29-4.54,12.53,12.53,0,0,1,5.52-6.91,11.67,11.67,0,0,1,4.38-1.3,8.09,8.09,0,0,1,4.78.91,41.61,41.61,0,0,1,6,4.16,43.3,43.3,0,0,1,5.43,4.92A8.51,8.51,0,0,1,550.47,492.29Zm-18.32-9.17a4.63,4.63,0,0,0-3.53,1.9,5.24,5.24,0,0,0-1,1.92,5,5,0,0,0-.07,2.12,4.72,4.72,0,0,0,1.23,2.31,40.56,40.56,0,0,0,4.35,3.81,42.52,42.52,0,0,0,4.7,3.44,5.51,5.51,0,0,0,3,.64,4.45,4.45,0,0,0,3.18-1.93,4.29,4.29,0,0,0,1.15-3.46,6.09,6.09,0,0,0-1.4-2.92,35.24,35.24,0,0,0-4.24-3.78,36.88,36.88,0,0,0-4.68-3.37A5.2,5.2,0,0,0,532.15,483.12Z"/><path class="cls-1" d="M569.16,470.21l-21.53,0L562.84,480l-3.11,4.84-24.83-16,2.78-4.32,21.5-.05L544,454.76l3.11-4.84,24.83,16Z"/><path class="cls-1" d="M581.46,448.06l-2,3.83-30.71-4.81,2.72-5.3,19.8,3.5-14.39-14,2.74-5.34Z"/><path class="cls-1" d="M588.27,433.91,560.9,422.86l7.27-18,4.76,1.92-5.12,12.67,6.41,2.59,4.36-10.79,4.76,1.92L579,424l6.68,2.7L590.78,414l4.76,1.92Z"/><path class="cls-1" d="M602.69,393.13l-12.95,2.17-1.17,4,11.31,3.35-1.63,5.52-28.31-8.38,3.28-11.08a9.42,9.42,0,0,1,4.46-6,8.74,8.74,0,0,1,6.9-.65,7.84,7.84,0,0,1,4.27,2.86,8.26,8.26,0,0,1,1.63,4.5l14.11-2.69ZM578,390.5l-1.54,5.2,7.42,2.2,1.54-5.2a4.28,4.28,0,0,0-.17-3.2,4,4,0,0,0-5.39-1.61A4.32,4.32,0,0,0,578,390.5Z"/><path class="cls-1" d="M584.39,363.88l23.93,4.71-1.11,5.65-23.93-4.71-1.49,7.56-5-1,4.09-20.76,5,1Z"/><path class="cls-1" d="M39.34,427.94l8.88-9.67-1.51-3.85-11,4.31-2.1-5.36,27.48-10.78,4.22,10.75a9.43,9.43,0,0,1,.14,7.44,8.75,8.75,0,0,1-5,4.76,7.85,7.85,0,0,1-5.13.37,8.23,8.23,0,0,1-4-2.55l-9.48,10.79Zm21.07-13.07-2-5.05-7.21,2.83,2,5a4.26,4.26,0,0,0,2.1,2.42,4,4,0,0,0,5.24-2A4.29,4.29,0,0,0,60.41,414.87Z"/><path class="cls-1" d="M44.89,440.75l26.34-13.33L80,444.74l-4.58,2.32-6.17-12.19L63.08,438l5.26,10.38-4.58,2.32L58.5,440.31l-6.43,3.25,6.17,12.19-4.58,2.32Z"/><path class="cls-1" d="M84.3,461.64,63.6,474.54l-3-4.88,20.7-12.89-4.07-6.54,4.36-2.71,11.19,18-4.36,2.71Z"/><path class="cls-1" d="M81.87,500.29,85,495.73l-6.33-8.35-5.27,1.76-3.62-4.79,30-9.28,2.73,3.6-17,26.41Zm12.45-18.06-10.8,3.51,4.42,5.84Z"/><path class="cls-1" d="M89.31,509.17,111.5,489.7l3.8,4.33L93.1,513.5Z"/><path class="cls-1" d="M111.48,532.37l4.28-21.1-12.64,12.95-4.12-4,20.63-21.13,3.67,3.59L119,523.73l12.61-12.92,4.12,4L115.15,536Z"/></g></g></svg>