<svg xmlns="http://www.w3.org/2000/svg" viewBox="0 0 628.15 628.15"><defs><style>.cls-1,.cls-2{fill:#fff;}.cls-2{opacity:0.15;}</style></defs><title>circle_acquire</title><g id="Layer_2" data-name="Layer 2"><g id="image"><path class="cls-1" d="M77.67,235.71,60,193.47l-42.8,18,1.48-4.11a314.17,314.17,0,0,1,574.9-36.69l.39.75-14.73,39.69-47.25-17.54-.34-.62C488.89,116.43,408,67.49,320.6,65.2A248.31,248.31,0,0,0,79.32,231ZM62,188.46l15.39,36.69a252.82,252.82,0,0,1,457.2-34.72l42.34,15.71,12.81-34.52a310.34,310.34,0,0,0-566,32.87Z"/><path class="cls-1" d="M346,626.55,307.5,601.42l25.55-39.1.94-.07A249,249,0,0,0,531.59,192.91l-2.53-4.54,47.87,17.77,14.62-39.38,2,3.86A314.42,314.42,0,0,1,628,322.31c-4.13,157.32-125.11,288.08-281.41,304.17Zm-33.15-26.24,34.11,22.29C501,606.4,620.14,477.38,624.21,322.21a310.73,310.73,0,0,0-32.12-145.93l-12.91,34.79-41.79-15.51A252.84,252.84,0,0,1,335.24,566Z"/><path class="cls-1" d="M305.84,628C132.72,623.5-4.43,479,.11,305.84a313.68,313.68,0,0,1,18.52-98.53l.29-.79L62,188.46l17.56,41.88-.25.7A248.79,248.79,0,0,0,65.2,307.55C61.6,444.78,170.32,559.35,307.55,563a253.27,253.27,0,0,0,26.45-.7l3.89-.31-25.08,38.37L352,625.93l-5.37.55A318.59,318.59,0,0,1,305.84,628ZM21.95,209.41a309.84,309.84,0,0,0-18,96.53c-4.49,171,131,313.79,302,318.27a314.7,314.7,0,0,0,34.86-1l-33.3-21.76,22.93-35.08c-7.67.49-15.39.64-23,.44-139.34-3.65-249.73-120-246.08-259.33a252.68,252.68,0,0,1,14.09-77L60,193.47Z"/><path class="cls-1" d="M79.32,231l-3.61-1.28A252.82,252.82,0,0,1,534.93,191l-3.35,1.87C488.89,116.43,408,67.49,320.6,65.2A248.31,248.31,0,0,0,79.32,231Z"/><path class="cls-1" d="M334.3,566.07l-.3-3.82A249,249,0,0,0,531.59,192.91l3.35-1.87a252.83,252.83,0,0,1-200.63,375Z"/><path class="cls-1" d="M307.45,566.78c-139.34-3.65-249.73-120-246.08-259.33a252.64,252.64,0,0,1,14.34-77.69L79.32,231A248.79,248.79,0,0,0,65.2,307.55C61.6,444.78,170.32,559.35,307.55,563a253.27,253.27,0,0,0,26.45-.7l.3,3.82A256.79,256.79,0,0,1,307.45,566.78Z"/><path class="cls-1" d="M252.13,57.29l-3-4.61L239,55.4l-.34,5.53-5.78,1.56,2.65-31.2,4.34-1.17,18,25.62ZM240.09,39l-.8,11.29,7.05-1.91Z"/><path class="cls-1" d="M270.57,53.82a11.25,11.25,0,0,1-4.43-.09A11.7,11.7,0,0,1,262,51.78,7.77,7.77,0,0,1,259,48a45,45,0,0,1-1.65-7.11,42.93,42.93,0,0,1-.77-7.26,7.92,7.92,0,0,1,1.51-4.57,11.67,11.67,0,0,1,3.25-3.19,11.34,11.34,0,0,1,4.18-1.53,10.33,10.33,0,0,1,12.22,7.35l-5.74,1A5.94,5.94,0,0,0,269.89,30a4.64,4.64,0,0,0-3.43-.57,4.36,4.36,0,0,0-3.18,1.78,5.93,5.93,0,0,0-.88,3.1,36,36,0,0,0,.65,5.67,37.21,37.21,0,0,0,1.25,5.61,5.86,5.86,0,0,0,1.84,2.56,4.34,4.34,0,0,0,3.61.66,4.63,4.63,0,0,0,3-1.67,5.92,5.92,0,0,0,1.14-3.27l5.74-1a10.42,10.42,0,0,1-9.11,11Z"/><path class="cls-1" d="M304,51.21l-2.78-2.4a10.63,10.63,0,0,1-5.81,2,11.39,11.39,0,0,1-4.46-.48A11.72,11.72,0,0,1,287,48,7.84,7.84,0,0,1,284.42,44a45,45,0,0,1-1-7.24,43.14,43.14,0,0,1-.07-7.3,7.93,7.93,0,0,1,1.94-4.4,11.75,11.75,0,0,1,3.52-2.86,12.49,12.49,0,0,1,8.79-.63,11.7,11.7,0,0,1,3.91,2.33A8.09,8.09,0,0,1,304.13,28a41.64,41.64,0,0,1,1,7.19,39.47,39.47,0,0,1,.1,7.07,9.3,9.3,0,0,1-1.16,3.43L306.75,48Zm-6.6-23.77a4.62,4.62,0,0,0-3.78-1.3,5.17,5.17,0,0,0-2.09.56,5,5,0,0,0-1.6,1.38,4.71,4.71,0,0,0-.86,2.46,40.27,40.27,0,0,0,.14,5.76,43.2,43.2,0,0,0,.67,5.77,5.5,5.5,0,0,0,1.58,2.64,4.43,4.43,0,0,0,3.57,1,3.27,3.27,0,0,0,1.86-.67l-2.73-2.33L297,39.52l2.34,2a9.84,9.84,0,0,0,.24-2.38q0-1.53-.13-3.59a37,37,0,0,0-.7-5.7A5.19,5.19,0,0,0,297.37,27.44Z"/><path class="cls-1" d="M321.65,50.27A11,11,0,0,1,314,47.21a9.67,9.67,0,0,1-2.88-7.56l.55-19.31,5.74.16-.54,19.11a5.55,5.55,0,0,0,1.25,4,4.86,4.86,0,0,0,3.67,1.55,5,5,0,0,0,3.77-1.32,5.47,5.47,0,0,0,1.5-3.94l.54-19.11,5.69.16-.55,19.31a9.7,9.7,0,0,1-3.29,7.38A11,11,0,0,1,321.65,50.27Z"/><path class="cls-1" d="M338.33,51.05l3-29.28,5.71.59-3,29.28Z"/><path class="cls-1" d="M365.71,55l-3.58-12.59-4.06-.73L356,53.27l-5.65-1,5.17-29,11.34,2a9.41,9.41,0,0,1,6.4,3.76,8.71,8.71,0,0,1,1.41,6.77,7.81,7.81,0,0,1-2.36,4.55A8.25,8.25,0,0,1,368,42.5l4.23,13.68Zm-.12-24.72-5.32-1-1.36,7.6,5.33,1a4.25,4.25,0,0,0,3.15-.52,4,4,0,0,0,1-5.51A4.3,4.3,0,0,0,365.59,30.29Z"/><path class="cls-1" d="M376.2,57.23l7.93-28.34,18.65,5.22L401.4,39l-13.12-3.67L386.42,42l11.17,3.13-1.38,4.93L385,46.93l-1.94,6.92,13.12,3.67-1.38,4.93Z"/><path class="cls-1" d="M527.83,520.22a11.26,11.26,0,0,1-3.62,2.56,11.7,11.7,0,0,1-4.53.91,7.79,7.79,0,0,1-4.58-1.33,44.69,44.69,0,0,1-5.54-4.75,43.36,43.36,0,0,1-4.92-5.39,8,8,0,0,1-1.49-4.57,11.7,11.7,0,0,1,.73-4.5,11.38,11.38,0,0,1,2.46-3.7,10.34,10.34,0,0,1,14.2-1.31l-4,4.18a5.94,5.94,0,0,0-3.34-.91,4.63,4.63,0,0,0-3.1,1.57,4.35,4.35,0,0,0-1.51,3.31,5.9,5.9,0,0,0,1.13,3,36.33,36.33,0,0,0,3.88,4.19,37.55,37.55,0,0,0,4.32,3.78,5.86,5.86,0,0,0,3,1,4.33,4.33,0,0,0,3.3-1.6,4.62,4.62,0,0,0,1.47-3.14,5.91,5.91,0,0,0-1-3.31l4-4.18a10.42,10.42,0,0,1-.85,14.23Z"/><path class="cls-1" d="M548.86,490.85a11.12,11.12,0,0,1-.3,4.25,11.26,11.26,0,0,1-2.13,4A11.42,11.42,0,0,1,543,502a11.71,11.71,0,0,1-4.39,1.3,7.85,7.85,0,0,1-4.71-.88,45,45,0,0,1-6-4.21,43.16,43.16,0,0,1-5.41-4.9,7.92,7.92,0,0,1-1.92-4.41,11.75,11.75,0,0,1,.28-4.53,12.49,12.49,0,0,1,5.5-6.89,11.63,11.63,0,0,1,4.37-1.3,8.07,8.07,0,0,1,4.77.91,41.49,41.49,0,0,1,6,4.15,43.17,43.17,0,0,1,5.41,4.9A8.48,8.48,0,0,1,548.86,490.85Zm-18.27-9.15a4.62,4.62,0,0,0-3.52,1.89,5.22,5.22,0,0,0-1,1.92,5,5,0,0,0-.07,2.11,4.7,4.7,0,0,0,1.22,2.3,40.44,40.44,0,0,0,4.33,3.8,42.39,42.39,0,0,0,4.69,3.43,5.49,5.49,0,0,0,3,.63,4.43,4.43,0,0,0,3.18-1.93,4.28,4.28,0,0,0,1.14-3.45,6.08,6.08,0,0,0-1.4-2.91,35.14,35.14,0,0,0-4.22-3.77,36.77,36.77,0,0,0-4.67-3.36A5.19,5.19,0,0,0,530.59,481.7Z"/><path class="cls-1" d="M567.49,468.83l-21.47,0,15.17,9.76-3.1,4.83-24.75-15.93,2.77-4.31,21.44-.05-15.14-9.74,3.1-4.83,24.75,15.92Z"/><path class="cls-1" d="M579.75,446.75l-2,3.82-30.62-4.8,2.71-5.29L569.63,444l-14.35-14,2.73-5.33Z"/><path class="cls-1" d="M586.54,432.64l-27.3-11,7.25-18,4.74,1.92-5.1,12.63,6.39,2.58L576.88,410l4.75,1.92-4.34,10.76,6.66,2.69,5.1-12.63,4.75,1.92Z"/><path class="cls-1" d="M600.92,392,588,394.14l-1.17,4,11.28,3.34-1.63,5.5-28.23-8.36,3.27-11A9.4,9.4,0,0,1,576,381.6a8.72,8.72,0,0,1,6.88-.65,7.82,7.82,0,0,1,4.25,2.85,8.23,8.23,0,0,1,1.62,4.48l14.06-2.68Zm-24.58-2.63-1.54,5.18,7.4,2.19,1.54-5.19a4.27,4.27,0,0,0-.17-3.19,4,4,0,0,0-5.37-1.61A4.3,4.3,0,0,0,576.34,389.35Z"/><path class="cls-1" d="M582.67,362.81l23.86,4.7-1.11,5.63-23.86-4.7L580.08,376l-5-1,4.08-20.7,5,1Z"/><path class="cls-1" d="M39.22,426.68,48.08,417l-1.51-3.84-11,4.3-2.09-5.35,27.4-10.75,4.2,10.72a9.4,9.4,0,0,1,.14,7.42,8.72,8.72,0,0,1-5,4.74,7.83,7.83,0,0,1-5.11.36,8.21,8.21,0,0,1-4-2.54l-9.45,10.76Zm21-13-2-5-7.19,2.82,2,5a4.25,4.25,0,0,0,2.09,2.42,4,4,0,0,0,5.22-2A4.28,4.28,0,0,0,60.23,413.65Z"/><path class="cls-1" d="M44.76,439.45,71,426.16l8.75,17.28-4.57,2.31L69,433.59l-6.15,3.11,5.24,10.35-4.57,2.31L58.33,439l-6.41,3.24,6.15,12.15-4.57,2.31Z"/><path class="cls-1" d="M84.05,460.29,63.41,473.14l-3-4.87L81,455.42,77,448.9l4.35-2.71L92.46,464.1l-4.35,2.71Z"/><path class="cls-1" d="M81.63,498.82l3.13-4.55-6.31-8.32L73.2,487.7l-3.61-4.77,29.92-9.26,2.72,3.59-17,26.33Zm12.41-18-10.76,3.5,4.41,5.82Z"/><path class="cls-1" d="M89,507.68l22.12-19.41,3.79,4.31L92.83,512Z"/><path class="cls-1" d="M111.15,530.81l4.27-21-12.61,12.91-4.11-4,20.56-21.06,3.66,3.58-4.24,21,12.57-12.88,4.11,4-20.56,21.06Z"/><path class="cls-2" d="M62,188.46l15.39,36.69a252.82,252.82,0,0,1,457.2-34.72l42.34,15.71,12.81-34.52a310.34,310.34,0,0,0-566,32.87Z"/></g></g></svg>