<svg xmlns="http://www.w3.org/2000/svg" viewBox="0 0 152 151.6"><defs><style>.cls-1{fill:#343438;}.cls-2{fill:#00a7e1;}</style></defs><title>customer_experience_icon</title><g id="Layer_2" data-name="Layer 2"><g id="Layer_1-2" data-name="Layer 1"><path class="cls-1" d="M26.31,56.36a15,15,0,1,1,15-15A15,15,0,0,1,26.31,56.36Zm0-24.32a9.3,9.3,0,1,0,9.3,9.3A9.31,9.31,0,0,0,26.31,32Z"/><rect class="cls-1" x="23.45" y="115.13" width="5.72" height="36.48"/><path class="cls-1" d="M16.14,151.6H10.42V111H0V77.78A15.89,15.89,0,0,1,15.89,61.89H38.32v5.72H15.89A10.17,10.17,0,0,0,5.72,77.78v27.54H16.14Z"/><rect class="cls-1" x="23.45" y="72.76" width="5.72" height="5.72"/><polygon class="cls-1" points="42.2 151.6 36.48 151.6 36.48 105.32 49.76 105.32 49.76 111.04 42.2 111.04 42.2 151.6"/><path class="cls-1" d="M125.69,56.36a15,15,0,1,1,15-15A15,15,0,0,1,125.69,56.36Zm0-24.32a9.3,9.3,0,1,0,9.3,9.3A9.31,9.31,0,0,0,125.69,32Z"/><rect class="cls-1" x="122.83" y="115.13" width="5.72" height="36.48"/><path class="cls-1" d="M141.58,151.6h-5.72V105.32h10.42V77.78a10.17,10.17,0,0,0-10.17-10.17H113.68V61.89h22.43A15.89,15.89,0,0,1,152,77.78V111H141.58Z"/><rect class="cls-1" x="122.83" y="72.76" width="5.72" height="5.72"/><polygon class="cls-1" points="115.52 151.6 109.8 151.6 109.8 111.04 102.24 111.04 102.24 105.32 115.52 105.32 115.52 151.6"/><path class="cls-2" d="M100.37,48.55a16.12,16.12,0,0,0-11.43-4.74L76,56.75,63.07,43.82A16.17,16.17,0,0,0,46.9,60v29.1H59.83v11.32H92.17V89.09H105.1V60A16.12,16.12,0,0,0,100.37,48.55Z"/><path class="cls-1" d="M76,35.9A18,18,0,1,1,94,18,18,18,0,0,1,76,35.9ZM76,5.72A12.23,12.23,0,1,0,88.23,18,12.24,12.24,0,0,0,76,5.72Z"/><rect class="cls-1" x="73.14" y="106.33" width="5.72" height="45.27"/><rect class="cls-1" x="56.97" y="89.09" width="5.72" height="62.51"/><rect class="cls-1" x="89.31" y="89.09" width="5.72" height="62.51"/><path class="cls-1" d="M108,100.57H92.17V94.85h10.07V60A13.31,13.31,0,0,0,88.93,46.68H63.07A13.31,13.31,0,0,0,49.76,60V94.85H59.83v5.72H44V60a19,19,0,0,1,19-19H88.93a19,19,0,0,1,19,19Z"/><rect class="cls-1" x="73.14" y="62.14" width="5.72" height="5.72"/><rect class="cls-1" x="73.14" y="73.58" width="5.72" height="5.72"/></g></g></svg>