<svg xmlns="http://www.w3.org/2000/svg" viewBox="0 0 105.81 111.4"><defs><style>.cls-1{fill:#00a7e1;}</style></defs><title>experience_innovation_icon</title><g id="Layer_2" data-name="Layer 2"><g id="Layer_1-2" data-name="Layer 1"><path class="cls-1" d="M65.64,45.42a2.89,2.89,0,1,0-2.89-2.89,2.89,2.89,0,0,0,2.89,2.89ZM30.2,12.62c-9.14,0-9.35,9.17-6,15.51A3.52,3.52,0,0,1,18,31.41a33.44,33.44,0,0,1-1.58-3.52c-4.05,1.32-6.08,5.79-5.42,9.83a22,22,0,0,1,9.6,2.6,14.6,14.6,0,0,1,10.13-5.91A20.51,20.51,0,0,0,30,21.75a3.53,3.53,0,0,1,6.59-2.51,27.9,27.9,0,0,1,1.11,16.31,15.65,15.65,0,0,1,4.7,3.13,3.52,3.52,0,1,1-4.91,5c-3.53-3.43-8.14-3-11.2.74a27,27,0,0,1,4.42,5.61c2.15,3.62,5,7.14,8.79,9.15,1.55.82,7.42,2.62,7.42-.44V14.44c0-8.51-9.24-9.06-13.82-3.31a3.69,3.69,0,0,1-2.87,1.49Zm23,89.48c-3.52,12-19.31,12.31-26.42,1.51A18.86,18.86,0,0,1,15,98.36,19.75,19.75,0,0,1,8.83,84.79c-8.19-3.48-10.71-14.42-6-21.56C-1.38,56.87-.89,45.71,4.24,40,2.36,31.87,6.75,23,15.13,20.93c.1-8.13,5.06-14.55,13.39-15.29,8.52-8.91,21.75-7,24.79,3.66H65.7a8.18,8.18,0,1,1,0,5.29H54v10H81.63a2.65,2.65,0,0,1,2.65,2.65V48.66a8.18,8.18,0,1,1-5.29,0V29.89H54v10h3.94a8.18,8.18,0,1,1,0,5.29H54v10h6.74a2.64,2.64,0,0,1,1.87.78L77.08,70.46H95V50.28a8.18,8.18,0,1,1,5.29,0V73.11a2.65,2.65,0,0,1-2.65,2.65H76a2.68,2.68,0,0,1-1.9-.81L59.6,60.47H54v10h6.74a2.64,2.64,0,0,1,1.87.77L77.08,85.75h4.8a8.18,8.18,0,1,1,0,5.29H76a2.64,2.64,0,0,1-1.9-.81L59.6,75.75H54v21h3.94a8.18,8.18,0,1,1,0,5.29ZM15.93,82.56a12.9,12.9,0,0,0,3.94,10.7c2,1.93,5.38,3.57,8.43,3.29a3.75,3.75,0,0,1,3.77,2c4,7.89,14.82,7.94,14.82-2.24V89.13A19,19,0,0,1,44.47,89a3.52,3.52,0,1,1,.91-7,12.09,12.09,0,0,0,1.51.1V67.26a13,13,0,0,1-2.42.22,18.68,18.68,0,0,1-5.15-.79,17,17,0,0,1-6.19,6.8,19.44,19.44,0,0,1,.31,14.41,3.53,3.53,0,1,1-6.67-2.29c1-3,1.33-6.57-.2-9.51a29.43,29.43,0,0,1-5.55.64,3.52,3.52,0,0,1-.17-7c5-.13,9.76-1.54,12.19-6.26a33.22,33.22,0,0,1-8.41-9.79c-3.11-5.23-9-9.38-15.28-8.86-2.89,3.44-3.2,11.28-.32,15A8.59,8.59,0,0,0,15.6,57a3.52,3.52,0,1,1,5.35,4.58,15.71,15.71,0,0,1-12.06,5.3C6,70.56,7.71,77.75,12.93,78.75a3.59,3.59,0,0,1,3,3.81Zm73.7,8.73a2.89,2.89,0,1,0-2.89-2.89,2.89,2.89,0,0,0,2.89,2.89Zm8-45.86a2.89,2.89,0,1,0-2.89-2.89,2.89,2.89,0,0,0,2.89,2.89Zm-16,13.88a2.89,2.89,0,1,0-2.89-2.89,2.89,2.89,0,0,0,2.89,2.89Zm-16,43a2.89,2.89,0,1,0-2.89-2.89,2.89,2.89,0,0,0,2.89,2.89Zm7.81-87.49A2.89,2.89,0,1,0,70.55,12a2.89,2.89,0,0,0,2.89,2.89Z"/></g></g></svg>