<svg xmlns="http://www.w3.org/2000/svg" viewBox="0 0 142 142"><defs><style>.cls-1{fill:#8f9094;}.cls-2{fill:#00a7e1;}</style></defs><title>full_service_stat_icon</title><g id="Layer_2" data-name="Layer 2"><g id="Layer_1-2" data-name="Layer 1"><path class="cls-1" d="M71,139.53A68.53,68.53,0,1,1,139.53,71,68.61,68.61,0,0,1,71,139.53Zm0-127.2A58.66,58.66,0,1,0,129.66,71,58.73,58.73,0,0,0,71,12.34Z"/><path class="cls-2" d="M71,142A71,71,0,0,1,32.61,11.28a7.4,7.4,0,0,1,8,12.45A56.2,56.2,0,1,0,71,14.8,7.4,7.4,0,0,1,71,0a71,71,0,0,1,0,142Z"/><path class="cls-2" d="M35.2,72.85a4.94,4.94,0,0,1-.52-1.62,20.58,20.58,0,0,1-.09-2.3V60.59A6.47,6.47,0,0,1,35,58.2a19.91,19.91,0,0,1,2.14-3.55q1.69-2.39,6-2.39a8,8,0,0,1,6.46,2.79,9.58,9.58,0,0,1,2.36,6.35v6.69a12.89,12.89,0,0,1-1,4.79L43.35,93.56H36.73L43.54,76a6.92,6.92,0,0,1-2.45.67,6.57,6.57,0,0,1-5.88-3.8Zm8.18-14.77a2.63,2.63,0,0,0-2.23,1,3.8,3.8,0,0,0-.74,2.38v6.65a3.8,3.8,0,0,0,.8,2.5,2.87,2.87,0,0,0,2.35,1,2.28,2.28,0,0,0,2-.94,4.4,4.4,0,0,0,.65-2.53V61.44A4.14,4.14,0,0,0,45.58,59,2.51,2.51,0,0,0,43.39,58.08Z"/><path class="cls-2" d="M72.83,72.6a4.8,4.8,0,0,1,.64,1.72,14,14,0,0,1,.15,2.27v7.85a13.06,13.06,0,0,1-.27,2.79A14.06,14.06,0,0,1,71.51,91q-1.56,2.52-6,2.88a10.25,10.25,0,0,1-5-1.2,7.22,7.22,0,0,1-3.09-2.88A10.62,10.62,0,0,1,56.31,87a13.64,13.64,0,0,1-.21-2.55V78c0-.9,0-1.54.06-1.93a6.79,6.79,0,0,1,.43-1.56l8.08-21.91h6.63L64.66,69.79a8,8,0,0,1,2.64-.43h.55A6.44,6.44,0,0,1,72.83,72.6Zm-5.57,3.06a2.87,2.87,0,0,0-2.42-1.23,2.53,2.53,0,0,0-1.49.49,2.86,2.86,0,0,0-1,1.16A4.75,4.75,0,0,0,62,78v6.44a4.66,4.66,0,0,0,.73,2.51,2.38,2.38,0,0,0,2.49,1,2,2,0,0,0,2.06-1.07,5.77,5.77,0,0,0,.49-2.42V78a7.89,7.89,0,0,0-.09-1.32A2.38,2.38,0,0,0,67.26,75.67Z"/><path class="cls-2" d="M79.32,55a5.93,5.93,0,0,1,8.95-.55,6.07,6.07,0,0,1,1.66,4.29v8a5.9,5.9,0,0,1-1,3.65,7.22,7.22,0,0,1-2.2,2,5.24,5.24,0,0,1-2.57.64,6.31,6.31,0,0,1-3.25-.86,4.81,4.81,0,0,1-2-2,7.74,7.74,0,0,1-.67-1.9A9.26,9.26,0,0,1,78,66.72v-8a7.27,7.27,0,0,1,.24-2.08A4.41,4.41,0,0,1,79.32,55Zm.49,39.4,22.43-42h3.31l-22.49,42ZM84,56.55a1.77,1.77,0,0,0-1.45.67A2.38,2.38,0,0,0,82,58.76v8q0,2.33,2.05,2.33a1.57,1.57,0,0,0,1.42-.7,3,3,0,0,0,.45-1.62v-8a2.44,2.44,0,0,0-.51-1.56A1.71,1.71,0,0,0,84,56.55ZM96.92,76a6,6,0,0,1,9-.55,6.06,6.06,0,0,1,1.66,4.29v8a5.89,5.89,0,0,1-1,3.65,7.25,7.25,0,0,1-2.22,2,5.27,5.27,0,0,1-2.59.64,6.4,6.4,0,0,1-3.26-.86,4.82,4.82,0,0,1-2-2,7.66,7.66,0,0,1-.68-1.9,9.27,9.27,0,0,1-.12-1.53v-8a7.26,7.26,0,0,1,.25-2.08A4.43,4.43,0,0,1,96.92,76Zm4.71,1.53a1.81,1.81,0,0,0-1.47.67,2.35,2.35,0,0,0-.55,1.53v8q0,2.33,2.08,2.33a1.6,1.6,0,0,0,1.44-.71,2.9,2.9,0,0,0,.46-1.62v-8a2.41,2.41,0,0,0-.52-1.56A1.75,1.75,0,0,0,101.63,77.57Z"/></g></g></svg>