<svg xmlns="http://www.w3.org/2000/svg" viewBox="0 0 140.34 117.56"><defs><style>.cls-1,.cls-2{fill:#00a7e1;}.cls-1{stroke:#00a7e1;stroke-miterlimit:10;stroke-width:0.25px;}</style></defs><title>full_service_icon</title><g id="Layer_2" data-name="Layer 2"><g id="Layer_1-2" data-name="Layer 1"><path class="cls-1" d="M71.82,55H64.46a.92.92,0,0,0-.92.92V81.72a.92.92,0,0,0,.92.92h7.36a.92.92,0,0,0,.92-.92V56a.92.92,0,0,0-.92-.92ZM70.9,80.8H65.38V56.88H70.9ZM55.77,62.4H48.41a.92.92,0,0,0-.92.92v18.4a.92.92,0,0,0,.92.92h7.36a.92.92,0,0,0,.92-.92V63.32a.92.92,0,0,0-.92-.92ZM49.33,80.8V64.24h5.52V80.8ZM94.85,48.06l-9.2-12.88a.92.92,0,0,0-1.5,0l-9.2,12.88a.92.92,0,0,0,.75,1.45h4.6V81.72a.92.92,0,0,0,.92.92h7.36a.92.92,0,0,0,.92-.92V49.51h4.6a.92.92,0,0,0,.75-1.45Zm-6.27-.38a.91.91,0,0,0-.92.92V80.8H82.14V48.6a.92.92,0,0,0-.92-.92H77.48L84.9,37.3l7.41,10.38Z"/><g id="_Group_" data-name="&lt;Group&gt;"><path class="cls-2" d="M118.47,73.37,98.67,45.08h11.25A42.38,42.38,0,0,0,70.17,16.73a41.9,41.9,0,0,0-39,26.35l-.44,1.1L16.18,38.33l.45-1.11A57.48,57.48,0,0,1,70.17,1.07a58.14,58.14,0,0,1,56.05,44h12.06ZM103.24,47.46l15.23,21.76,15.23-21.76h-9.38l-.21-.93A55.72,55.72,0,0,0,70.17,3.45,55.1,55.1,0,0,0,19.29,37l10.11,4.07A44.26,44.26,0,0,1,70.17,14.35,44.75,44.75,0,0,1,112.7,45.93l.46,1.53Z"/><path class="cls-2" d="M118.47,75.24,96.61,44h11.78a41,41,0,0,0-76.25-.53l-.84,2.1L14.78,38.92l.84-2.1A58.55,58.55,0,0,1,70.17,0a59.4,59.4,0,0,1,56.88,44h13.29ZM100.73,46.15,118.47,71.5l17.75-25.35H125.38l-.2-.82a57.22,57.22,0,0,0-55-43.19A56.41,56.41,0,0,0,17.62,37.63l0,.11L30.1,42.79l0-.11a43.14,43.14,0,0,1,80.79,2.05l.49,1.42Zm17.75,24.94-17.29-24.7h10.54l0-.15a43.37,43.37,0,0,0-81.3-4.72l-.41,1L17.87,37.6l.43-1a56.4,56.4,0,0,1,106.86,9.7l0,.09h10.59ZM105.3,48.53l13.17,18.82,13.17-18.82h-8.18l-.4-1.75A54.26,54.26,0,0,0,20.71,36.43l8.12,3.27a45.52,45.52,0,0,1,84.89,5.91l.88,2.91Z"/><path class="cls-2" d="M70.17,116.49a58.21,58.21,0,0,1-56.05-44H2.06L21.87,44.2l19.8,28.29H30.43a42.45,42.45,0,0,0,39.74,28.35,41.92,41.92,0,0,0,38.95-26.15l.45-1.1,14.49,5.93-.45,1.1A57.53,57.53,0,0,1,70.17,116.49ZM6.63,70.11H16l.21.93a55.8,55.8,0,0,0,53.95,43.08,55.15,55.15,0,0,0,50.77-33.3l-10.09-4.12a44.28,44.28,0,0,1-40.69,26.53A44.84,44.84,0,0,1,27.65,71.64l-.47-1.54H37.1L21.87,48.34Z"/><path class="cls-2" d="M70.17,117.56c-26.4,0-50.19-18.46-56.88-44H0L21.87,42.33,43.73,73.56H32a41.66,41.66,0,0,0,38.2,26.21,40.84,40.84,0,0,0,38-25.48l.86-2.09,16.48,6.74L124.6,81A58.6,58.6,0,0,1,70.17,117.56Zm-66-46.15H15l.2.82c6.16,25,29.3,43.19,55,43.19A56.46,56.46,0,0,0,122.61,80.2l0-.11L110.15,75l0,.11a43.12,43.12,0,0,1-80.69-2.25l-.49-1.42H39.61L21.87,46.07Zm66,43.77a56.88,56.88,0,0,1-55-43.91l0-.09H4.57l17.29-24.7,17.29,24.7H28.63l0,.15a43.37,43.37,0,0,0,81.2,4.93l.42-1,12.07,4.93-.44,1A56.38,56.38,0,0,1,70.17,115.18ZM8.69,69h8.17l.4,1.75A54.26,54.26,0,0,0,119.51,81.38l-8.11-3.31A45.51,45.51,0,0,1,26.62,72L25.73,69H35L21.87,50.21Z"/></g></g></g></svg>