<svg xmlns="http://www.w3.org/2000/svg" viewBox="0 0 112.58 112.58"><defs><style>.cls-1{fill:#00a7e1;}</style></defs><title>global_localization_icon</title><g id="Layer_2" data-name="Layer 2"><g id="Layer_1-2" data-name="Layer 1"><path class="cls-1" d="M86.6,13a13,13,0,1,0,13,13A13,13,0,0,0,86.6,13Zm0,21.65A8.66,8.66,0,1,1,95.26,26,8.68,8.68,0,0,1,86.6,34.64Zm26-8.66A26,26,0,0,0,63.15,14.85,50.11,50.11,0,1,0,98.89,54.71c.46-.66.93-1.32,1.4-2C106.29,43.88,112.46,33.72,112.58,26Zm-82-4.33h2.51l-1.77,3.78a2.17,2.17,0,0,0,.39,2.41l6.05,6.39-8.62,5.52-.56.53-6.5,8.66a2.19,2.19,0,0,0-.43,1.3v3L21,52.59A2.17,2.17,0,0,0,19.49,52H15.15a2.17,2.17,0,0,0-2.05,1.48l-1.93,5.77-3.31-14A45.61,45.61,0,0,1,30.58,21.65ZM4.33,62.79a45.81,45.81,0,0,1,1-9.43L8.72,67.62A2.15,2.15,0,0,0,9.86,69l7.46,3.73V85.86a2.12,2.12,0,0,0,.41,1.28l10.23,14,.16,1.6A45.51,45.51,0,0,1,4.33,62.79ZM39,106.31l-.05.56a45,45,0,0,1-6.23-2l-.48-4.76a2.13,2.13,0,0,0-.41-1.06L21.65,85.15V73.61H36.14l11.48,7.65V92.87l-8.29,12.44A2.14,2.14,0,0,0,39,106.31Zm10.82,1.94a45.51,45.51,0,0,1-6.6-.54l0-.44L51.6,94.73a2.22,2.22,0,0,0,.36-1.2V80.11a2.18,2.18,0,0,0-1-1.81L38,69.64a2.23,2.23,0,0,0-1.2-.36H20L13.47,66l3.24-9.73h1.87L22.28,60A2.17,2.17,0,0,0,26,58.46V51l5.83-7.78,10.5-6.72a2.16,2.16,0,0,0,.4-3.31l-6.84-7.22,2.59-5.53a2.19,2.19,0,0,0,.09-1.61,44.2,44.2,0,0,1,23.08.11,26,26,0,0,0-1,7.07c.07,4.67,2.35,10.21,5.46,15.82L54.55,57.15a2.16,2.16,0,0,0-.12,2.41l6.49,10.83a2.19,2.19,0,0,0,1.59,1l16.05,2,6.95,17.38A45.42,45.42,0,0,1,49.79,108.25Zm38.68-21.7L82.11,70.64a2.17,2.17,0,0,0-1.74-1.35l-16.27-2-5.2-8.67,9.55-12.74c1.43,2.33,3,4.64,4.46,6.86,6,8.74,12,15.77,12,15.81a2.17,2.17,0,0,0,3.3,0s3-3.53,6.87-8.66c.07,1,.14,1.94.14,2.93A45.29,45.29,0,0,1,88.48,86.55Zm8.25-36.3c-4,5.78-8,10.81-10.13,13.47C84.44,61.06,80.46,56,76.48,50.25,70.56,41.8,64.83,31.39,64.95,26a21.65,21.65,0,0,1,43.3,0C108.37,31.39,102.64,41.8,96.73,50.25Z"/></g></g></svg>