<svg xmlns="http://www.w3.org/2000/svg" viewBox="0 0 115.43 98.24"><defs><style>.cls-1{fill:#00a7e1;}</style></defs><title>motivation_icon</title><g id="Layer_2" data-name="Layer 2"><g id="Layer_1-2" data-name="Layer 1"><path class="cls-1" d="M35.61,98.24A35.61,35.61,0,1,1,71.22,62.63,35.65,35.65,0,0,1,35.61,98.24Zm0-66.31a30.7,30.7,0,1,0,30.7,30.7A30.73,30.73,0,0,0,35.61,31.93Z"/><path class="cls-1" d="M81,68.77a34.38,34.38,0,1,1,34.38-34.38A34.42,34.42,0,0,1,81,68.77ZM81,4.91a29.47,29.47,0,1,0,29.47,29.47A29.5,29.5,0,0,0,81,4.91Z"/><path class="cls-1" d="M23.15,65a8.17,8.17,0,0,1-5.55-1.89,6.78,6.78,0,0,1-2.19-5.42V52.44a6.78,6.78,0,0,1,2.22-5.37,8.07,8.07,0,0,1,5.52-1.95A8.18,8.18,0,0,1,28.7,47a6.78,6.78,0,0,1,2.19,5.42v5.29a6.76,6.76,0,0,1-2.22,5.39A8.14,8.14,0,0,1,23.15,65Zm2.72-12.38q0-3-2.72-3t-2.72,3v4.86q0,3,2.72,3t2.72-3ZM29,83.45H23.58l18-38H47Zm18.37.32a8.18,8.18,0,0,1-5.55-1.89,6.78,6.78,0,0,1-2.19-5.42V71.18a6.77,6.77,0,0,1,2.22-5.37,8.07,8.07,0,0,1,5.53-1.95,8.19,8.19,0,0,1,5.55,1.89,6.79,6.79,0,0,1,2.19,5.42v5.29a6.76,6.76,0,0,1-2.21,5.39A8.13,8.13,0,0,1,47.39,83.78Zm2.72-12.38q0-3-2.72-3t-2.72,3v4.86q0,3,2.72,3t2.72-3Z"/><path class="cls-1" d="M83.81,51.1v5.39H79v-5.2a17.1,17.1,0,0,1-6.28-1.08,14.43,14.43,0,0,1-5.07-3.44l4.33-4.33a9.25,9.25,0,0,0,3.39,2.19,12.31,12.31,0,0,0,4.26.7V36.61L78,36.42a14,14,0,0,1-3.85-1,11.75,11.75,0,0,1-3.44-2.53q-1.81-1.81-1.8-6a9.8,9.8,0,0,1,2.67-7A11.3,11.3,0,0,1,79,16.52V12.24h4.86v4.28a13,13,0,0,1,5.15,1,14.24,14.24,0,0,1,4.33,3l-4.23,4.18a8,8,0,0,0-2.74-1.71,8.9,8.9,0,0,0-3.17-.6v8.37L85,31a16,16,0,0,1,3.85,1,9.34,9.34,0,0,1,2.79,1.83,7.55,7.55,0,0,1,1.9,3,12,12,0,0,1,.65,4.14,9.11,9.11,0,0,1-2.84,6.95A12.92,12.92,0,0,1,83.81,51.1ZM79.58,22.39a5.08,5.08,0,0,0-3.1,1.44,3.93,3.93,0,0,0-1.08,2.79A3.82,3.82,0,0,0,75.61,28a4.09,4.09,0,0,0,1.06,1.37,5.33,5.33,0,0,0,2.91,1.08Zm7,15.82a3.22,3.22,0,0,0-1.42-.82,18.11,18.11,0,0,0-2-.43v8.27q4.47-.53,4.47-4.14A3.8,3.8,0,0,0,86.55,38.21Z"/></g></g></svg>