<svg xmlns="http://www.w3.org/2000/svg" viewBox="0 0 124.82 152.31"><defs><style>.cls-1{fill:#fff;}.cls-2{fill:#343438;}.cls-3{fill:#e9eaeb;}.cls-4{fill:#00a7e1;}</style></defs><title>payments_billing_icon</title><g id="Layer_2" data-name="Layer 2"><g id="Isolation_Mode" data-name="Isolation Mode"><path class="cls-1" d="M100.46,57.32l-.53-.56c-2.72-2.86-3-7-.65-9.27l10-9.47c3.63-3.45,8.82-3.93,11.54-1.07l.53.56c2.72,2.86,2,8-1.66,11.47l-10,9.47C107.32,60.69,103.17,60.18,100.46,57.32Z"/><path class="cls-2" d="M106,61.66a8.17,8.17,0,0,1-1-.07,9.76,9.76,0,0,1-5.84-3L98.61,58c-3.41-3.59-3.68-8.9-.59-11.84l10-9.47c4.36-4.14,10.69-4.59,14.1-1l.53.56a8.23,8.23,0,0,1,2,7,12.21,12.21,0,0,1-3.76,7l-10,9.47A7,7,0,0,1,106,61.66ZM116.19,36.9a8.46,8.46,0,0,0-5.64,2.43l-10,9.47c-1.61,1.53-1.28,4.6.72,6.71l.53.56A6.13,6.13,0,0,0,105.42,58a3.63,3.63,0,0,0,3-.86l10-9.47a8.57,8.57,0,0,0,2.66-4.89,4.69,4.69,0,0,0-1.07-4l-.53-.56A4.5,4.5,0,0,0,116.19,36.9Z"/><path class="cls-1" d="M49.58,69.87l-13-4.81-17.36,55c1,.79,2,1.61,2.92,2.44a62.82,62.82,0,0,1,9,9.85L48,134.79c3.71-4,6.5-6.65,9.7-9.67,24.75,1.81,36.19-16.45,38.66-19.34S49.58,69.87,49.58,69.87Z"/><path class="cls-2" d="M48.65,136.72l-18.53-2.67-.45-.62a60.43,60.43,0,0,0-8.77-9.57c-.91-.81-1.86-1.6-2.84-2.37l-1-.77,18.31-58,15.19,5.67c17.51,11.75,47,32.15,47.62,36.82a2.23,2.23,0,0,1-.5,1.78c-.21.24-.48.6-.83,1.05-3.87,5-15.54,20.29-38.54,19-3,2.81-5.59,5.29-9,9Zm-16.51-6,15.14,2.18c3.3-3.55,5.87-6,8.81-8.75l.91-.86.8.06c21.56,1.6,32.58-12.79,36.2-17.51l.35-.46c-3.06-4.09-25-20-45.6-33.85l-11-4.08-16.42,52q1,.84,2,1.72A64.44,64.44,0,0,1,32.14,130.69Z"/><rect class="cls-3" x="45.65" y="1.81" width="62.86" height="106.38" rx="3" ry="3"/><path class="cls-2" d="M101.25,110H52.9a9.08,9.08,0,0,1-9.07-9.07V9.07A9.08,9.08,0,0,1,52.9,0h48.35a9.08,9.08,0,0,1,9.07,9.07v91.88A9.08,9.08,0,0,1,101.25,110ZM52.9,3.63a5.45,5.45,0,0,0-5.44,5.44v91.88a5.45,5.45,0,0,0,5.44,5.44h48.35a5.45,5.45,0,0,0,5.44-5.44V9.07a5.45,5.45,0,0,0-5.44-5.44Z"/><rect class="cls-1" x="45.64" y="13.9" width="62.86" height="74.95"/><path class="cls-2" d="M110.32,90.67H43.83V12.09h66.49ZM47.45,87h59.24V15.72H47.45Z"/><path class="cls-1" d="M107.14,106l-.53-.46c-2.73-2.35-3.74-5.68-2.25-7.4l6.33-7.28a6.48,6.48,0,0,1,9.11-.54l.53.46a6.47,6.47,0,0,1,.8,9.09l-6.33,7.28C113.31,108.9,109.86,108.39,107.14,106Z"/><path class="cls-2" d="M112.23,110a7.32,7.32,0,0,1-1.07-.08,10.57,10.57,0,0,1-5.21-2.52l-.53-.46a10.59,10.59,0,0,1-3.26-4.78A5.38,5.38,0,0,1,103,97l6.33-7.29A8.29,8.29,0,0,1,121,89l.53.46a8.28,8.28,0,0,1,1,11.65l-6.33,7.28A5.06,5.06,0,0,1,112.23,110Zm3.23-19.47a4.47,4.47,0,0,0-3.41,1.54l-6.33,7.29a2,2,0,0,0-.09,1.75,7,7,0,0,0,2.16,3.09l.53.46a7,7,0,0,0,3.37,1.68,2,2,0,0,0,1.72-.35l6.33-7.28a4.65,4.65,0,0,0-.61-6.53l-.53-.46A4.81,4.81,0,0,0,115.46,90.54Z"/><path class="cls-1" d="M47,69.4a86.84,86.84,0,0,0,4.36-21.74c.48-5.09-1.68-9.45-3.93-12.6s-7.92-2.48-9,1.13c-5,15.89-5.9,20.21-9,28.19C26,73.31,27.93,85.83,26.22,89.49c-.34.73-11.88,15.58-15.07,20.09,3.4,1.71,10.52,4.86,13.32,7.34a65.25,65.25,0,0,1,9.39,10.23l2.63.21,15.33-15.8C58.41,92.74,52.94,76.94,47,69.4Z"/><path class="cls-2" d="M36.34,129.18l-3.46-.28-.49-.68a63,63,0,0,0-9.12-9.95c-2-1.81-7.08-4.24-10.42-5.85-.95-.46-1.81-.87-2.51-1.23l-1.88-.95,1.22-1.72c1.66-2.34,5.52-7.41,8.92-11.88,2.67-3.51,5.71-7.49,6-8,.49-1.06.56-4.15.65-7.41.13-5.33.3-12,2.42-17.47,2-5.11,3-8.59,4.91-14.92,1-3.4,2.27-7.56,4-13.16A6.51,6.51,0,0,1,42,31.3,7,7,0,0,1,48.88,34c3.26,4.56,4.69,9.22,4.26,13.82A88.18,88.18,0,0,1,49,69.06c6.27,8.51,11,24.55,4.53,43.11L50.1,111c6.22-17.76,1.43-32.88-4.55-40.44l-.61-.77.31-.93a84.9,84.9,0,0,0,4.28-21.34c.35-3.72-.86-7.54-3.6-11.38a3.46,3.46,0,0,0-3.39-1.23,2.89,2.89,0,0,0-2.45,1.85c-1.74,5.58-3,9.74-4,13.12-1.86,6.21-3,9.95-5,15.19C29.19,70,29,76.25,28.91,81.29c-.1,4-.18,7.1-1,9-.21.46-1.11,1.66-6.38,8.59-2.69,3.53-5.67,7.45-7.59,10.05l.54.26c3.93,1.9,8.83,4.26,11.25,6.4a67.17,67.17,0,0,1,9.15,9.85l1.81.14Z"/><rect class="cls-4" x="18.45" y="98.26" width="18.56" height="52.63" transform="translate(-79.94 56.05) rotate(-44.98)"/><path class="cls-2" d="M39.76,152.31,0,112.52,15.69,96.84l39.76,39.79ZM5.13,112.52l34.64,34.66,10.56-10.55L15.69,102Z"/><path class="cls-1" d="M107.18,89.08l-.54-.47c-2.77-2.39-3.8-5.78-2.29-7.53l6.44-7.41a6.59,6.59,0,0,1,9.27-.55l.54.47a6.59,6.59,0,0,1,.81,9.25L115,90.24C113.46,92,110,91.47,107.18,89.08Z"/><path class="cls-2" d="M112.37,93.09a7.56,7.56,0,0,1-1.09-.08A10.73,10.73,0,0,1,106,90.45l-.54-.46a10.73,10.73,0,0,1-3.3-4.85,5.43,5.43,0,0,1,.82-5.24l6.44-7.41a8.13,8.13,0,0,1,5.73-2.81,8.52,8.52,0,0,1,6.1,2.07l.54.46a8.51,8.51,0,0,1,2.94,5.73A8.15,8.15,0,0,1,122.78,84l-6.44,7.41A5.11,5.11,0,0,1,112.37,93.09Zm3.29-19.8h-.3a4.54,4.54,0,0,0-3.2,1.56l-6.44,7.41a2,2,0,0,0-.09,1.81,7.2,7.2,0,0,0,2.2,3.16l.54.47a7.22,7.22,0,0,0,3.45,1.72,2,2,0,0,0,1.78-.36L120,81.64a4.54,4.54,0,0,0,1.07-3.39,4.9,4.9,0,0,0-1.69-3.3l-.54-.46A4.9,4.9,0,0,0,115.66,73.29Z"/><path class="cls-1" d="M107.18,72.61l-.54-.47c-2.77-2.39-3.8-5.78-2.29-7.53l6.44-7.41a6.59,6.59,0,0,1,9.27-.55l.54.47a6.59,6.59,0,0,1,.81,9.25L115,73.78C113.46,75.53,110,75,107.18,72.61Z"/><path class="cls-2" d="M112.38,76.63A10.1,10.1,0,0,1,106,74h0l-.54-.47a10.73,10.73,0,0,1-3.3-4.85,5.44,5.44,0,0,1,.82-5.24L109.42,56a8.4,8.4,0,0,1,11.82-.74l.54.47a8.5,8.5,0,0,1,2.94,5.72,8.15,8.15,0,0,1-1.94,6.08L116.34,75A5.08,5.08,0,0,1,112.38,76.63Zm-4-5.39c2.24,1.93,4.59,2.1,5.23,1.35L120,65.18a4.54,4.54,0,0,0,1.07-3.39,4.9,4.9,0,0,0-1.69-3.3l-.54-.47a4.76,4.76,0,0,0-6.71.37l-6.44,7.41a2,2,0,0,0-.09,1.81,7.18,7.18,0,0,0,2.2,3.16Z"/><rect class="cls-2" x="69.82" y="96.71" width="14.51" height="3.63"/><path class="cls-4" d="M67.65,43.64l-3.32-1.45a13.91,13.91,0,0,1,25.49,0l-3.32,1.45a10.28,10.28,0,0,0-18.84,0Z"/><path class="cls-4" d="M60.48,36.67l-3-2a23.58,23.58,0,0,1,39.2,0l-3,2a20,20,0,0,0-33.18,0Z"/><path class="cls-4" d="M80.12,73.74H74.65A6.66,6.66,0,0,1,68,67.09h3.63a3,3,0,0,0,3,3h5.46a2.4,2.4,0,0,0,.76-4.68l-8.75-2.92A6,6,0,0,1,74,50.77h5.46a6.66,6.66,0,0,1,6.65,6.65H82.51a3,3,0,0,0-3-3H74a2.4,2.4,0,0,0-.76,4.68L82,62a6,6,0,0,1-1.9,11.75Z"/><rect class="cls-4" x="75.26" y="45.33" width="3.63" height="7.25"/><rect class="cls-4" x="75.26" y="71.93" width="3.63" height="7.25"/></g></g></svg>