<svg xmlns="http://www.w3.org/2000/svg" viewBox="0 0 152 138.86"><defs><style>.cls-1{fill:#00a7e1;}.cls-2{fill:#343438;}</style></defs><title>platform_scale_icon</title><g id="Layer_2" data-name="Layer 2"><g id="Isolation_Mode" data-name="Isolation Mode"><path class="cls-1" d="M75.78,106.15a4.24,4.24,0,0,1-2.1-.56l-34-19.31a4.36,4.36,0,0,1,.51-7.81L74,64.78a4.22,4.22,0,0,1,3.26,0l34.62,14.7h0a4.36,4.36,0,0,1,.33,7.84l-34.45,18.3A4.25,4.25,0,0,1,75.78,106.15Zm-.16-38.59a1.17,1.17,0,0,0-.44.09L41.33,81.34a1.22,1.22,0,0,0-.77,1.08,1.25,1.25,0,0,0,.62,1.18l34,19.31a1.17,1.17,0,0,0,1.13,0l34.46-18.3a1.27,1.27,0,0,0-.09-2.27L76.07,67.65A1.16,1.16,0,0,0,75.61,67.56Z"/><path class="cls-1" d="M75.78,121.21a4.24,4.24,0,0,1-2.1-.56l-34-19.31a4.36,4.36,0,0,1,.51-7.81l4.37-1.77a1.54,1.54,0,0,1,1.16,2.86L41.33,96.4a1.24,1.24,0,0,0-.77,1.08,1.25,1.25,0,0,0,.62,1.18L75.2,118a1.16,1.16,0,0,0,1.13,0l34.46-18.3a1.27,1.27,0,0,0-.09-2.27l-4.8-2a1.54,1.54,0,0,1,1.21-2.84l4.8,2a4.36,4.36,0,0,1,.33,7.84l-34.45,18.3A4.25,4.25,0,0,1,75.78,121.21Z"/><path class="cls-1" d="M75.78,138.86a4.25,4.25,0,0,1-2.1-.56L39.67,119a4.36,4.36,0,0,1,.51-7.81l4.37-1.77a1.54,1.54,0,0,1,1.16,2.86L41.33,114a1.23,1.23,0,0,0-.77,1.08,1.25,1.25,0,0,0,.62,1.18l34,19.31a1.15,1.15,0,0,0,1.13,0l34.45-18.3a1.27,1.27,0,0,0-.09-2.27l-4.8-2a1.54,1.54,0,0,1,1.21-2.84l4.8,2a4.36,4.36,0,0,1,.33,7.84l-34.45,18.3A4.27,4.27,0,0,1,75.78,138.86Z"/><path class="cls-2" d="M125.81,100.58h-6.24a1.54,1.54,0,0,1,0-3.09h6.21a23.76,23.76,0,0,0,23.13-23.62A23.51,23.51,0,0,0,126,50.24,1.54,1.54,0,0,1,124.64,48,30.52,30.52,0,0,0,128,34,30.86,30.86,0,0,0,69.89,19.5a1.54,1.54,0,0,1-2.36.46A28.45,28.45,0,0,0,20.76,41.69a1.54,1.54,0,0,1-.91,1.41,28.45,28.45,0,0,0,12.7,54.38,1.54,1.54,0,0,1,.12,3.08,31.54,31.54,0,0,1-15-59.85A31.54,31.54,0,0,1,68.08,16.44a33.95,33.95,0,0,1,63,17.51,33.54,33.54,0,0,1-2.75,13.37A26.56,26.56,0,0,1,152,73.86a26.87,26.87,0,0,1-26,26.71Z"/></g></g></svg>