<svg xmlns="http://www.w3.org/2000/svg" viewBox="0 0 92.21 108.98"><defs><style>.cls-1{fill:#00a7e1;}</style></defs><title>scale_icon</title><g id="Layer_2" data-name="Layer 2"><g id="Layer_1-2" data-name="Layer 1"><path class="cls-1" d="M25.15,100.6h8.38a2.1,2.1,0,1,0,0-4.19H25.15a2.1,2.1,0,0,0,0,4.19ZM29.34,8.38a2.1,2.1,0,1,0,2.1,2.1A2.09,2.09,0,0,0,29.34,8.38Zm0,2.1h0ZM91.6,9a2.09,2.09,0,0,0-1.48-.61H65A2.1,2.1,0,0,0,63.48,12l6.9,6.9-11.7,11.7V8.38A8.38,8.38,0,0,0,50.3,0H8.38A8.38,8.38,0,0,0,0,8.38V100.6A8.38,8.38,0,0,0,8.38,109H50.3a8.38,8.38,0,0,0,8.38-8.38V92.21H85.92A2.1,2.1,0,0,0,88,90.12V36.49l.62.62a2.09,2.09,0,0,0,3.57-1.48V10.48A2.08,2.08,0,0,0,91.6,9ZM4.19,8.38A4.2,4.2,0,0,1,8.38,4.19H50.3a4.21,4.21,0,0,1,4.19,4.2v8.38H4.19ZM4.19,21h50.3v13.8L46.1,43.14,35,32.05a2.09,2.09,0,0,0-3,0L4.19,59.91Zm0,61.65L16.77,70V88H4.19Zm50.3,18a4.2,4.2,0,0,1-4.19,4.19H8.38a4.2,4.2,0,0,1-4.19-4.19V92.21h50.3ZM21,88V65.83L33.53,53.26h0V88Zm16.77,0V57.45l6.9,6.9a2.1,2.1,0,0,0,3,0l2.71-2.71V88Zm29.34,0H54.49V57.45L67.07,44.87Zm16.77,0H71.26V40.68L81.73,30.21l2.1,2.1ZM88,30.56l-4.81-4.8a2.09,2.09,0,0,0-3,0L46.1,59.91,35,48.81a2.09,2.09,0,0,0-3,0L4.19,76.68V65.84L33.53,36.5,44.62,47.59a2.1,2.1,0,0,0,3,0L74.83,20.34a2.1,2.1,0,0,0,0-3L70,12.57H88Z"/></g></g></svg>