<svg id="6bdd39b5-604b-4ef3-bb8d-c8e9037e29ba" data-name="Layer 1" xmlns="http://www.w3.org/2000/svg" viewBox="0 0 1020.92 192.57"><title>CiscoWebEx_logo</title><path d="M528.57,171.51c2.23-7.65,4.49-15.28,6.7-22.94Q546.94,108,558.59,67.44c1.78-6.2,8.4-9.4,13.88-6.26,1.55.89,2.49,3.4,3,5.36q14.22,49.71,28.25,99.47a12,12,0,0,0,2.48,4.93c.54-1.57,1.16-3.12,1.6-4.71q13.69-49.6,27.36-99.2c1.83-6.62,2.89-7.17,10.62-5.61-.32,1.7-.52,3.44-1,5.11q-15.28,55.38-30.59,110.74c-1.07,3.88-2,7-7.33,7s-7.92-1.79-9.34-6.82q-13.84-49-28-98a15.88,15.88,0,0,0-3.28-6.51c-1.75,5.8-3.57,11.57-5.24,17.39q-12.48,43.45-24.9,86.92c-1.9,6.62-2.75,6.91-9.46,6.91-5.27,0-6.71-3.29-7.84-7.4Q507.34,134.87,495.71,93c-2.4-8.67-4.86-17.32-7.14-26-.56-2.14-2.51-5.18,1.36-6.13,3.4-.84,6.78-.46,8,3.82q2.1,7.45,4.15,14.92,12.07,44.09,24.13,88.17c.34,1.25.84,2.46,1.26,3.69Z" transform="translate(-0.81 -0.7)" style="fill:#003058"/><path d="M764.41,169.25c-.55,4.44-.57,7.85-1.52,11-.47,1.53-2.72,3.59-4,3.51s-2.83-2.31-3.91-3.84c-.48-.68-.14-1.94-.14-2.94q0-54.47,0-108.93c0-3-1-6.72,3.82-7.35,4.53-.6,6.13.95,6.12,6.05q0,18.24-.12,36.48c0,1.64,0,3.28,0,6.38,1.8-1.95,2.76-2.87,3.58-3.89,9.45-11.76,21.77-15.25,36.17-12.42s22.44,12.08,26.39,25.65A67,67,0,0,1,829.15,163c-5.29,13.71-15.33,21.66-29.68,23.6-13.54,1.83-24.4-3.46-32.58-14.34C766.31,171.48,765.67,170.77,764.41,169.25Zm29.9-68.55c-12.91-.07-22.21,6-26.86,18.39a56.74,56.74,0,0,0-.53,39.65c4.6,13.06,14.29,20,26.88,20,12.44,0,22.08-7.29,26.88-20.16,4.62-12.37,3.92-24.78.5-37.26C817.4,107.53,808.65,100.77,794.31,100.7Z" transform="translate(-0.81 -0.7)" style="fill:#003058"/><path d="M855.58,122c0-18.5.12-37-.09-55.5-.05-4.53,1.29-6,5.92-6,20.16.22,40.33.1,60.5.09,3.26,0,6.8-.24,6.72,4.46s-3.78,4.56-6.91,4.55c-16.16-.09-32.31-.37-48.47-.51C865,69,865,69.1,865,77.45c0,11.33.12,22.67-.06,34-.06,4.13,1.55,5.63,5.59,5.59,14.5-.11,29,0,43.5,0,1.5,0,3,0,4.5.09,2.91.16,5.41.94,5.26,4.55-.14,3.39-2.7,3.93-5.32,3.94-15.33.08-30.66.07-46,.1-7.3,0-7.48.22-7.48,7.65,0,12.17.12,24.33-.06,36.5-.07,4.39,1.67,5.85,5.92,5.81,17.33-.13,34.67,0,52-.06,3.12,0,5.8.33,5.55,4.47-.16,2.53-1.16,4-4,4q-32.5-.06-65,0c-4,0-3.83-2.83-3.83-5.56Q855.59,150.25,855.58,122Z" transform="translate(-0.81 -0.7)" style="fill:#003058"/><path d="M266.59,160c0-18.83,14.86-33.19,33.94-32.87,18.9.31,33.4,14.79,33.33,33.29-.07,18.8-14.69,32.73-34.26,32.64C280.39,193,266.55,179.11,266.59,160Zm33.48-16.15a15.75,15.75,0,0,0-16.2,16c-.1,9.56,6.69,16.74,15.9,16.84a16.55,16.55,0,0,0,16.75-16.28A16.33,16.33,0,0,0,300.07,143.85Z" transform="translate(-0.81 -0.7)" style="fill:#003058"/><path d="M730.55,160.59C729,172.45,716.83,183.69,703.3,186c-27,4.59-47.65-11.29-50.79-38.51-1.4-12.14-.05-23.69,5.58-34.45,8.32-15.9,22.17-21.9,39.52-20.33,15.67,1.42,26.28,10,31.46,24.68,2.08,5.89,2.61,12.32,3.88,18.5,1,4.66-1,6.22-5.62,6.18-19.5-.16-39-.07-58.49-.06-7.3,0-7.68.5-6.25,7.76,3.88,19.61,15.77,29.86,34,28.88,10.37-.56,18.34-5.34,23.51-14.58C722.91,159,724.45,158.56,730.55,160.59Zm-67.93-27.74c.38.2.81.63,1.23.63,18.65.08,37.31.17,56,0,1,0,3-2.5,2.78-3.47-1.14-5.31-2-10.94-4.48-15.64-6.08-11.39-20.06-16.93-32-13.61C671.51,104.8,662.42,117.2,662.62,132.85Z" transform="translate(-0.81 -0.7)" style="fill:#003058"/><path d="M181.07,141.57c-6.16,0-11.17-.44-16,.21-2.11.28-3.91,2.82-5.85,4.34,1.61,1.72,2.93,4,4.89,5,2.88,1.58,6.26,2.21,9.34,3.47,7.83,3.22,12.41,9,12.42,17.59,0,9-4.67,15.24-12.83,18.49-9.3,3.7-19,2.85-28.56,1-1-.2-2.35-2-2.45-3.09-.32-3.59-.12-7.23-.12-11.64,3.65.56,6.52,1.29,9.42,1.39a56.41,56.41,0,0,0,12.35-.53c1.83-.35,4.36-2.68,4.55-4.35s-1.93-4-3.65-5.07c-2.66-1.6-5.87-2.28-8.82-3.41-10.14-3.88-15-11-13.84-20.54,1.05-9,8.27-15.77,18.44-16.7,4.93-.45,9.94,0,14.91.16,4.24.13,6.41,2.1,5.9,6.65A60.65,60.65,0,0,0,181.07,141.57Z" transform="translate(-0.81 -0.7)" style="fill:#003058"/><path d="M82.68,146.17c-10.84-2.79-21.19-5.66-28.35,4.91a15.56,15.56,0,0,0,.33,18.78c7.26,9.79,17.13,7.41,27.83,4.37,0,5.24.14,10.09-.13,14.92,0,.89-1.62,2.16-2.7,2.45-13,3.45-28.91,1.83-39.06-10.81-8.9-11.07-9.27-28-.95-39.69,10-14,26-15.81,39.75-12.37a5.31,5.31,0,0,1,3.13,3.74C82.93,136.72,82.68,141,82.68,146.17Z" transform="translate(-0.81 -0.7)" style="fill:#003058"/><path d="M249.86,175.82c0,2,0,4.46,0,6.94,0,8.93-.41,9.37-9.4,10.16-20.89,1.84-35.85-8.61-39-27.26A32.82,32.82,0,0,1,237,127.28c15.4,1.4,12.62,1,12.87,14.45a37.31,37.31,0,0,1-.41,4.17c-8.71-2-17.26-4.74-25,1.76A15.49,15.49,0,0,0,218.89,160c0,7.48,3.78,14.26,10.76,15.58C235.93,176.76,242.62,175.82,249.86,175.82Z" transform="translate(-0.81 -0.7)" style="fill:#003058"/><path d="M1016.79,95.94c-1.25,2-2.15,3.51-3.2,4.95-7.66,10.49-15.2,21.09-23.14,31.37-2.84,3.69-2.36,6.27.28,9.64,9.34,11.94,18.48,24,27.66,36.1,1.17,1.54,2.17,3.2,3.33,4.92-7.08,2.4-9.7,1.69-13.75-3.64-8.66-11.4-17.27-22.83-26.34-34.82-1.34,1.58-2.55,2.83-3.57,4.23C971,158.39,963.77,168,957,177.87c-3.55,5.22-7.68,7.58-14.65,5.53,1.14-1.87,2.07-3.69,3.26-5.3,8.8-11.93,17.51-23.94,26.56-35.68,2.91-3.77,2.76-6.49-.14-10.08-8.07-10-15.86-20.16-23.74-30.28-1.4-1.8-2.65-3.7-4-5.64,6-2.7,10.61-1.3,14.66,4q9.51,12.54,19,25.06c1,1.3,2.1,2.53,3.6,4.33,1.49-1.85,2.77-3.29,3.88-4.84,5.91-8.27,11.76-16.57,17.66-24.85C1006.84,95,1009.68,94,1016.79,95.94Z" transform="translate(-0.81 -0.7)" style="fill:#003058"/><path d="M88,50.86c0-13.32-.07-26.65,0-40,.05-6.47,2.91-10,7.91-10.15,4.42-.15,7.41,1.83,8.28,6.28a33.75,33.75,0,0,1,.46,6.45q0,37,0,73.94a32.68,32.68,0,0,1-.55,6.94c-.83,3.78-3.3,6.26-7.27,6.42-4.16.17-7-2.11-8.15-6A23.36,23.36,0,0,1,88,88.33C87.94,75.84,88,63.35,88,50.86Z" transform="translate(-0.81 -0.7)" style="fill:#003058"/><path d="M279,51.23c0,13.3,0,26.61,0,39.91,0,6-2.95,9.62-7.66,9.68S263,97,263,91.51q-.14-40.91,0-81.82c0-5.42,3.05-8.62,7.52-9,5.29-.4,8.45,2.62,8.49,8.58C279.08,23.29,279,37.26,279,51.23Z" transform="translate(-0.81 -0.7)" style="fill:#003058"/><path d="M120.8,160.2c0,8.83-.11,17.66,0,26.48.07,3.76-1.11,5.42-5.14,5.33-13.57-.31-11.71,1.58-11.79-11.61-.1-15.32.1-30.65-.09-46-.06-4.59,1.21-6.64,6.17-6.54,12.3.24,10.7-.46,10.79,10.82C120.85,145.88,120.81,153,120.8,160.2Z" transform="translate(-0.81 -0.7)" style="fill:#003058"/><path d="M235.8,57.85c0,5.83.11,11.66,0,17.49s-3.3,9.49-8.07,9.54-8.42-3.47-8.53-9.18q-.36-18,0-36c.14-5.91,3.66-9.38,8.39-9.35s8.12,3.94,8.22,10C235.88,46.19,235.8,52,235.8,57.85Z" transform="translate(-0.81 -0.7)" style="fill:#003058"/><path d="M148,57.82c0,6.16.09,12.31,0,18.47-.1,5.21-3.13,8.44-7.74,8.59s-8.13-2.95-8.23-8.16q-.36-19.21,0-38.43a8,8,0,0,1,8-7.92c4.54,0,7.79,3.36,7.9,8.49C148.11,45.18,148,51.5,148,57.82Z" transform="translate(-0.81 -0.7)" style="fill:#003058"/><path d="M60.89,57.34c0,6.15.11,12.31,0,18.46-.12,5.55-3.22,9-7.91,9.07-4.9.12-8.23-3.37-8.28-9.16q-.16-18.21,0-36.42c0-5.24,3.59-8.94,8.1-8.92s7.92,3.67,8.07,9C61,45.37,60.88,51.36,60.89,57.34Z" transform="translate(-0.81 -0.7)" style="fill:#003058"/><path d="M322.92,58.27c0,6,.11,12,0,18-.13,5.43-3.46,8.77-8.25,8.64-4.58-.12-7.75-3.36-7.81-8.58q-.2-18.47,0-36.94c.05-5.37,3.49-9,8-9s8,3.65,8.05,8.93C323,45.62,322.92,51.95,322.92,58.27Z" transform="translate(-0.81 -0.7)" style="fill:#003058"/><path d="M16.94,69c0,2.83.16,5.68,0,8.49A7.66,7.66,0,0,1,9,84.85C4.6,84.76,1.44,82.43,1.14,78A125.5,125.5,0,0,1,1.2,59.09c.36-4.31,3.54-6.69,8-6.68s7.42,3,7.72,7.55C17.11,62.95,17,66,16.94,69Z" transform="translate(-0.81 -0.7)" style="fill:#003058"/><path d="M350.7,68.59c0-2.83-.13-5.67,0-8.49.28-4.68,3.12-7.57,7.52-7.68s7.74,2.29,8.12,6.52a105.13,105.13,0,0,1,0,19.41c-.4,4.2-3.68,6.62-8.16,6.49-4.27-.13-7.25-3.2-7.5-7.76C350.57,74.26,350.7,71.42,350.7,68.59Z" transform="translate(-0.81 -0.7)" style="fill:#003058"/><path d="M175.82,68.29c0-2.83-.19-5.67,0-8.48a8,8,0,0,1,15.9-.07c.28,5.81.27,11.65,0,17.46a7.77,7.77,0,0,1-8.18,7.67c-4.24-.11-7.25-3.06-7.76-7.6a9,9,0,0,1-.05-1q0-4,0-8Z" transform="translate(-0.81 -0.7)" style="fill:#003058"/></svg>