<svg id="a1696f79-ac01-4871-a78e-0fe9bd37a544" data-name="Layer 1" xmlns="http://www.w3.org/2000/svg" viewBox="0 0 1600 533.33"><title>lenovo_logo</title><path d="M1346.61,228c-31.48,0-54.33,23.85-54.33,57.79,0,32.4,24.2,57.79,55.09,57.79,31.48,0,54.33-24.51,54.33-57.79C1401.7,253.42,1377.5,228,1346.61,228Z" transform="translate(0 0)" style="fill:#172e56"/><path d="M912.64,228c-31.48,0-54.33,23.85-54.33,57.79,0,32.4,24.2,57.79,55.09,57.79,31.48,0,54.33-24.51,54.33-57.79C967.74,253.42,943.53,228,912.64,228Z" transform="translate(0 0)" style="fill:#172e56"/><path d="M448.84,224.59c-18.47,0-33.76,7.56-43.36,20.45-8.76,11.76-14.12,28.16-11.43,49.12l98.47-40.85C484.56,236.19,469.15,224.59,448.84,224.59Z" transform="translate(0 0)" style="fill:#172e56"/><path d="M0,0V533.33H1600V0ZM333.73,388.46H148.49V121.81h57.12V336.7H333.73ZM454.86,347.1c21.63,0,35.19-4.2,58.91-21.75l35.64,27.4c-18.24,21.12-57.24,39.2-95.38,39.2-68.08,0-114.92-44.15-114.92-106.1,0-60.39,46.74-106.11,108.72-106.11,34.11,0,62.14,11.63,81.07,33.63,13,15.13,21.47,35,24.61,57.3L409.4,330.45C420.15,341.05,435.39,347.1,454.86,347.1Zm325.55,41.36H724V271.66c0-27.15-24.13-43.37-47.46-43.37-30.18,0-46.47,22.34-46.47,43.37v116.8H573.75V183.18h56.37v29.45c16.42-21.93,43.3-32.89,66.93-32.89,49.59,0,83.36,34.26,83.36,81.46Zm132.24,3.46C851,391.92,802.71,346,802.71,285.83c0-59.49,48.63-106.1,110.7-106.1,61.64,0,109.93,45.92,109.93,106.1C1023.34,345.31,974.71,391.92,912.64,391.92Zm186.54-3.52L1014.72,183.2h64.38l51,139.83,51-139.83h64.38l-84.46,205.19Zm247.42,3.52c-61.64,0-109.94-45.92-109.94-106.08,0-59.49,48.63-106.1,110.7-106.1,61.64,0,109.93,45.92,109.93,106.1C1457.3,345.31,1408.68,391.92,1346.61,391.92Zm133.17-27.83h-9.12v24.37H1465V364.09h-9.12V358.9h23.89Zm36.08,24.37h-5.47v-21l-9.12,14.2h-.58l-9.11-14.2v21h-5.47V358.9h6l8.93,14,8.92-14h5.86Z" transform="translate(0 0)" style="fill:#172e56"/></svg>