<svg id="d43bfbe7-580b-4664-825b-fc8033ee57e5" data-name="Layer 1" xmlns="http://www.w3.org/2000/svg" viewBox="0 0 1639 350"><title>msft_logo</title><path d="M0,0H166.5q0,83.25,0,166.5H0V0Z" style="fill:#003058"/><path d="M183.5,0H350q0,83.25,0,166.5H183.51q0-83.25,0-166.5Z" style="fill:#003058"/><path d="M1501.45,63.44c15.35-10,35.18-10.92,52.48-6.16.15,10.28,0,20.57.07,30.86-8.22-3.62-17.89-6-26.54-2.43-6.86,2.72-10.94,9.76-12,16.8-1.29,8.93-.45,18-.67,27,17.56,0,35.12,0,52.68,0,.13-11.4-.14-22.81.15-34.21,11.94-3.4,23.75-7.21,35.63-10.79.1,15-.14,30,.13,45.08,11.87-.17,23.75,0,35.63-.08v29.24c-11.92-.49-23.85-.13-35.77-.17.05,16.81,0,33.62,0,50.44.19,9.31-.5,18.67.59,27.95.66,5.47,2.65,11.53,7.78,14.36,8.59,4.81,19.49,2.71,27.38-2.57v29.53c-10.29,4.47-21.79,5.83-32.92,5-10.56-.78-21.5-4.62-28.39-13-8-9.49-10-22.34-10.17-34.36-.09-25.8,0-51.6,0-77.41q-26.36,0-52.7,0,0,60.74,0,121.47h-36q0-60.72,0-121.43c-8.35-.16-16.71,0-25.06-.13,0-9.61.07-19.23,0-28.85,8.31-.19,16.63-.11,25-.05.61-12.78-1.34-25.93,2.48-38.38a49.11,49.11,0,0,1,20.31-27.72Z" style="fill:#003058"/><path d="M730.47,65.54c7.26-1.1,15.12,1.38,19.93,7.06A20.53,20.53,0,0,1,752.9,96c-4.62,8.2-15,12-24,10-9.35-1.68-17.14-10.37-16.72-20.06-.27-10.2,8.26-19.29,18.26-20.43Z" style="fill:#003058"/><path d="M454.5,70h52.37q24.45,62.08,49,124.13c4.17,10.35,8.07,20.82,12.44,31.09,21-51.72,42.24-103.31,63.05-155.1,16.79-.27,33.59-.06,50.39-.1q-.06,105,0,210c-12.12,0-24.23.1-36.34-.07.13-51.65,0-103.3.06-155,0-2.32-.06-4.64-.22-7a27.75,27.75,0,0,0-1.89,3.36c-20.81,52.87-42,105.59-62.71,158.51-8.62.31-17.25,0-25.88.16-21.47-52.87-42.67-105.86-64-158.77-.56-1.1-1.16-2.17-1.81-3.2-.44,22.63-.07,45.28-.19,67.91q0,47,0,94c-11.43,0-22.86,0-34.28,0q0-105,0-210Z" style="fill:#003058"/><path d="M829.57,129.35a98.58,98.58,0,0,1,53.49.16,43.16,43.16,0,0,1,10.27,4.28c-.2,11.47,0,23-.11,34.43-11.61-8.87-26.34-14.49-41.1-12.63a42.29,42.29,0,0,0-29.91,16.61c-9,11.74-11.09,27.33-9.54,41.69,1.16,11.24,5.81,22.47,14.55,29.92,9.08,8.07,21.81,10.93,33.69,10,11.74-1.35,22.82-6.32,32.31-13.26.1,10.87,0,21.74.08,32.61-14.72,8.76-32.37,11-49.22,10.19-17.24-.91-34.43-7.44-46.91-19.56-13.56-13.07-20.92-31.71-21.79-50.38-.88-19.41,3.07-39.66,14.24-55.87,9.36-13.83,24-23.62,40-28.22Z" style="fill:#003058"/><path d="M1222.92,127.06c16.65-2.93,34.08-.78,49.84,5.19,0,11,0,22.07,0,33.1a63.46,63.46,0,0,0-37.82-11.17c-6.73.26-14.13,3.11-17.2,9.51-2.44,6.33-.75,14.63,5.22,18.42,10.21,6.83,22.39,9.73,33,15.85,8.33,4.68,16.41,10.8,20.63,19.62,7.93,16.52,4.57,38.35-9.37,50.67-13.31,12.44-32.48,15.88-50.11,15.22-12.52-.81-25.1-3.28-36.61-8.4.05-11.61-.07-23.21.06-34.81a78.75,78.75,0,0,0,32.67,14.1c8.23,1.34,17.18,1.4,24.85-2.28,7.34-3.65,8.66-14.08,4.3-20.46-4.08-4.92-10.07-7.63-15.72-10.29-10.61-4.77-21.76-8.76-31.08-15.91A37.26,37.26,0,0,1,1182.11,185c-2.88-12-2-25.46,5-35.92,8-12.19,21.76-19.5,35.83-22Z" style="fill:#003058"/><path d="M973.85,131.8c9.94-6,22.57-6.47,33.42-2.82-.05,12,0,24,0,36a38.27,38.27,0,0,0-24.34-5.72c-10.22,1.16-18.32,9-22.52,18-4.56,9.53-5.42,20.31-5.13,30.73q0,36,0,72h-35.5q0-75.21,0-150.43c11.85-.15,23.7-.09,35.55,0-.05,8.61,0,17.22,0,25.84,3.85-9.37,9.58-18.47,18.61-23.58Z" style="fill:#003058"/><path d="M715.48,129.54c11.94,0,23.89-.17,35.83.06-.14,50.13,0,100.27-.06,150.4H715.5q0-75.23,0-150.46Z" style="fill:#003058"/><path d="M1156.54,164.63a63.68,63.68,0,0,0-31.45-31.79c-16-7.3-34.27-8.28-51.55-6.08-18.15,2.29-35.82,10.83-47.34,25.3-10.52,12.92-15.64,29.52-16.62,46-1.45,19.41,1.79,40,13.19,56.21,9.71,14,25,23.59,41.6,27.13a103.42,103.42,0,0,0,42.16,0c16.19-3.33,31.31-12.29,41.34-25.51,9.8-12.45,14.72-28.15,15.83-43.82C1164.83,196,1163.21,179.43,1156.54,164.63Zm-34.78,69.08a32.89,32.89,0,0,1-17.69,17.38,48.55,48.55,0,0,1-29.35,1.29,35.94,35.94,0,0,1-22.57-18.62c-5.8-11.58-6.67-25-5.47-37.67,1.09-11.55,5.11-23.43,13.91-31.4,6.38-6,15.08-8.87,23.69-9.35,10.82-.71,22.34,2.35,30.12,10.22,8.32,8.18,11.54,20,12.43,31.37C1127.47,209.32,1127,222.23,1121.76,233.71Z" style="fill:#003058"/><path d="M1444.93,169A64.25,64.25,0,0,0,1414,134c-16.4-8.28-35.48-9.49-53.45-7.26-14.49,1.86-28.73,7.36-39.79,17.07-13.5,11.63-21.42,28.73-23.75,46.22s-1.47,35.91,5.66,52.28a66.73,66.73,0,0,0,36.58,35.49c16,6.31,33.85,7,50.72,4.29,17.25-2.85,33.59-11.92,44.27-25.88,11.41-14.42,16.32-33.08,16.29-51.26C1450.78,192.75,1449.26,180.41,1444.93,169Zm-32.48,51c-1.38,7.92-4.12,15.82-9.31,22.09s-13,10.14-21,11.32c-8.62,1.29-17.7.67-25.76-2.8-8.7-3.68-15.44-11.21-19-19.87-4.27-10.32-5.12-21.75-4.27-32.79.82-10.69,3.85-21.66,10.91-30,6.44-7.76,16.32-12,26.28-12.61,10.17-.71,21,1.64,28.85,8.51,7.21,6,11.2,14.94,13,24A91.44,91.44,0,0,1,1412.45,220Z" style="fill:#003058"/><path d="M0,183.49q83.25,0,166.5,0,0,83.25,0,166.49H0V183.49Z" style="fill:#003058"/><path d="M183.51,183.51q83.23,0,166.49,0V350H183.5q0-83.25,0-166.49Z" style="fill:#003058"/></svg>