<svg id="27d37d83-2744-4f7b-b269-c6f275076664" data-name="Layer 1" xmlns="http://www.w3.org/2000/svg" viewBox="0 0 187.09 29.17"><title>panasonic_logo</title><path d="M45,16.15c0-4.59-.55-8.23-9.66-8.23-7.6,0-10.14,2.73-10.09,7.23h6.81a2.8,2.8,0,0,1,2.8-2.38c.81,0,2.5.18,2.5,1.58,0,4.18-13.15.32-13.15,9.22,0,4,4.15,5.63,6.32,5.57,2.86-.07,5.07-.59,7.23-2.61h0l.83,2.06h6.75C45,27.85,45,16.15,45,16.15Zm-11.17,8.6a2,2,0,0,1-2.14-2c0-1.63,3.4-1.57,5.89-2.79.18,2.64-1.07,4.77-3.75,4.77Z" transform="translate(-0.05 -0.07)" style="fill:#153157;fill-rule:evenodd"/><path d="M179.83,20.51c-.22,1.51-1,3.37-3,3.37-2.4,0-3.72-2.34-3.72-5.24,0-2.28.85-5.33,3.72-5.33a2.57,2.57,0,0,1,2,.77,2.89,2.89,0,0,1,.81,2H187c-.55-5.69-5-7.9-10.14-7.9-6.35,0-11.06,3.78-11.06,10.35S170.65,29,176.86,29c5.32,0,9.62-2.68,10.28-8.51h-7.31Z" transform="translate(-0.05 -0.07)" style="fill:#153157;fill-rule:evenodd"/><polygon points="157.57 28.53 164.94 28.53 164.94 8.76 157.57 8.76 157.57 28.53 157.57 28.53 157.57 28.53" style="fill:#153157;fill-rule:evenodd"/><polygon points="157.57 5.73 164.94 5.73 164.94 0.68 157.57 0.68 157.57 5.73 157.57 5.73 157.57 5.73" style="fill:#153157;fill-rule:evenodd"/><path d="M122.94,8c-6.5,0-11,3.9-11,10.58S116.81,29,123,29s11-3.8,11-10.85c0-6-4.26-10.21-11.05-10.21Zm0,15.92c-1.95,0-3.45-2.09-3.45-5.72,0-2.17.92-4.85,3.53-4.85,2-.11,3.38,2.17,3.38,5,0,3.64-1.4,5.57-3.46,5.57Z" transform="translate(-0.05 -0.07)" style="fill:#153157;fill-rule:evenodd"/><path d="M98.6,13.62c0-1,1.06-1.4,2.38-1.4a3.28,3.28,0,0,1,1.82.48,2.42,2.42,0,0,1,.73,1.4h6.94c-.19-5.14-5.23-6.21-9.73-6.21-4,0-9.2,1.58-9.2,6.5,0,8.07,12.34,5.13,12.34,8.21,0,1.36-1,1.87-2.84,1.87a3.7,3.7,0,0,1-2-.86,2.2,2.2,0,0,1-.81-1.76H91.36c.13,5.39,5.05,7.4,9.46,7.4,8.17,0,10.53-3.55,10.56-7.56.05-7.72-12.83-5.29-12.78-8.07Z" transform="translate(-0.05 -0.07)" style="fill:#153157;fill-rule:evenodd"/><path d="M90.23,16.15c0-4.59-.55-8.23-9.66-8.23-7.6,0-10.14,2.73-10.09,7.23h6.81a2.8,2.8,0,0,1,2.81-2.38c.81,0,2.5.18,2.5,1.58,0,4.18-13.15.32-13.15,9.22,0,4,4.15,5.63,6.32,5.57,2.86-.07,5.07-.59,7.24-2.61h0l.83,2.06h6.75c-.32-.73-.35-12.44-.35-12.44Zm-11.17,8.6a2,2,0,0,1-2.14-2c0-1.63,3.4-1.57,5.9-2.79.18,2.64-1.07,4.77-3.75,4.77Z" transform="translate(-0.05 -0.07)" style="fill:#153157;fill-rule:evenodd"/><path d="M13.16.07H.05V28.58H8.52V19.74h4.93c7.6,0,11.31-4.09,11.31-9.78,0-5.44-4-9.89-11.6-9.89Zm-.39,13.4H8.52V7h3.11c1.84,0,4.63.5,4.63,3a3.23,3.23,0,0,1-3.49,3.47Z" transform="translate(-0.05 -0.07)" style="fill:#153157;fill-rule:evenodd"/><path d="M148.84,8c-2.9,0-4.13.48-6.82,2.95h0l0-2.19h-7V28.6h7V18.16h0c0-2.46,1.27-4,3.62-4,2.17,0,2.68,1.14,2.68,3h0V28.6H156V16.44h0c0-5.29-2.06-8.47-7.13-8.47Z" transform="translate(-0.05 -0.07)" style="fill:#153157;fill-rule:evenodd"/><path d="M61.05,8c-2.9,0-4.13.48-6.82,2.95h0l0-2.19h-7V28.6h7.37V18.16h0c0-2.46,1-4.24,3.32-4.24,2.17,0,2.6,1.41,2.6,3.32h0V28.6h7.64V16.44h0c0-5.29-2.06-8.47-7.13-8.47Z" transform="translate(-0.05 -0.07)" style="fill:#153157;fill-rule:evenodd"/></svg>