<svg xmlns="http://www.w3.org/2000/svg" viewBox="0 0 360.05 46.57"><title>Asset 1</title><g id="Layer_2" data-name="Layer 2"><g id="Layer_1-2" data-name="Layer 1"><path d="M357.81,31.31a1.51,1.51,0,0,0-1-.23H355V35.2h.52V33.3h.91l1.17,1.9h.61L357,33.3c.71,0,1.29-.31,1.29-1.12v0A1,1,0,0,0,357.81,31.31Zm-1.21,1.6h-1.07V31.47h1.17c.51,0,1.06.08,1.06.7S357.14,32.91,356.6,32.91Z" style="fill:#153157"/><path d="M356.38,29.48A3.67,3.67,0,1,0,360,33.14,3.66,3.66,0,0,0,356.38,29.48Zm0,6.79a3.13,3.13,0,1,1,3.12-3.12A3.11,3.11,0,0,1,356.38,36.28Z" style="fill:#153157"/><path d="M195.56,36.46h18.23c4.22,0,8.46-2.85,8.46-8.31V17.24c0-5.45-4.29-8.31-8.51-8.31H195.56c-4.22,0-8.5,2.85-8.5,8.31V28.15C187.06,33.61,191.34,36.46,195.56,36.46Zm.62-20.22a3.15,3.15,0,0,1,3.2-3h10.55a3.14,3.14,0,0,1,3.2,3V29a3.14,3.14,0,0,1-3.2,3.07H199.38a3.14,3.14,0,0,1-3.2-3.07Z" style="fill:#153157"/><path d="M122.94,8.94H97.83V36.47h8.73V13.21h13.32a2.74,2.74,0,0,1,2.84,2.69V36.47h8.72V17.23A8.4,8.4,0,0,0,122.94,8.94Z" style="fill:#153157"/><path d="M253.41,8.94H228.29V36.47H237V13.21h13.32a2.75,2.75,0,0,1,2.84,2.69V36.47h8.71V17.23A8.4,8.4,0,0,0,253.41,8.94Z" style="fill:#153157"/><polygon points="41.93 9.91 41.93 36.47 46 36.47 50.65 36.47 50.65 13.66 50.65 0 45.75 0 41.93 0 41.93 9.91" style="fill:#153157"/><path d="M171.33,36.47V16a2.8,2.8,0,0,1,2.87-2.74h9.53V8.94H171.09a8.4,8.4,0,0,0-8.5,8.29V36.47Z" style="fill:#153157"/><path d="M8.73,36.46h18a8.39,8.39,0,0,0,8.46-8.32V17.24a8.41,8.41,0,0,0-8.5-8.31H0V46.57H8.73Zm0-23.25H23.42a3.15,3.15,0,0,1,3.21,3.09V29A3.15,3.15,0,0,1,23.42,32H8.73Z" style="fill:#153157"/><path d="M138,28.2a8.29,8.29,0,0,0,8.46,8.27H157.2V32h-7.89a2.56,2.56,0,0,1-2.55-2.64V13.21H157.2V8.94H146.77V0H138Z" style="fill:#153157"/><polygon points="277.31 17.41 277.31 8.94 273.25 8.94 268.65 8.94 268.65 19.41 268.65 36.47 271.5 36.47 277.31 36.47 277.31 17.41" style="fill:#153157"/><polygon points="268.65 3.42 268.65 5.43 272.25 5.43 277.31 5.43 277.31 3.67 277.31 1.24 272.75 1.24 268.65 1.24 268.65 3.42" style="fill:#153157"/><path d="M292.29,28V17.42c0-3.63,2-4.22,4.29-4.22h16V8.94H292.1a8.41,8.41,0,0,0-8.5,8.3V28.16a8.4,8.4,0,0,0,8.5,8.3h20.51V32h-16C293.89,32,292.29,31.61,292.29,28Z" style="fill:#153157"/><path d="M341.83,20.32H330.39c-3.09,0-4-1.4-4-3.56,0-2.34,1.19-3.55,4-3.55h17.34V8.94h-22a8,8,0,0,0-8.18,7.82c-.14,4.46,3.68,7.8,8.18,7.8h12.1a3.51,3.51,0,0,1,3.35,3.75A3.57,3.57,0,0,1,337.83,32H317.35v4.42h24.46c3.92-.08,8.19-2,8.19-8.17C350,23.15,346.25,20.4,341.83,20.32Z" style="fill:#153157"/><path d="M65.4,36.46H91.19V17.29a8.35,8.35,0,0,0-8.46-8.36H60.39v4.27H79.57c2.17,0,2.89.57,2.89,2.21V18H65.38a8.62,8.62,0,0,0-8.49,7.7,23.24,23.24,0,0,0,0,2.43A8.24,8.24,0,0,0,65.4,36.46ZM82.46,22.33V32H68.28a2.66,2.66,0,0,1-2.84-2.64v-4.3a2.81,2.81,0,0,1,2.84-2.78Z" style="fill:#153157"/></g></g></svg>