<svg id="a08e6bdc-10c3-44c5-89fe-1217aa2c8873" data-name="Layer 1" xmlns="http://www.w3.org/2000/svg" viewBox="0 0 695 221.39"><title>ubisoft_logo</title><path id="68d4b784-0f83-44f3-af7d-01cac4beb078" data-name="SWIRL" d="M213.3,110.59C210.9-2.81,60.1-45.11,2,61.19c2.6,1.9,6.1,4.4,8.7,6.2a108.2,108.2,0,0,0-9,28.3A109.42,109.42,0,0,0,0,114.79a106.65,106.65,0,0,0,213.3,0Zm-187,19c-1.4,11.5-.5,15.1-.5,16.5l-2.6.9c-1-1.9-3.4-8.6-4.5-17.6-2.8-34.3,20.6-65.2,56.3-71,32.7-4.8,64,15.5,71.3,43.9l-2.6.9a82.39,82.39,0,0,0-7.1-8.1C97.1,55.59,35.1,73.69,26.3,129.59Zm101.5,19.2a29.09,29.09,0,1,1-26-45.6h0a23.61,23.61,0,0,1,18.1,40.1C122.6,145.19,125.2,147,127.8,148.79Zm60.7,1.1c-15.4,34.9-47.1,53.2-80.9,52.7-64.9-3.2-83.8-78.1-40.4-105.1l1.9,1.9a42.78,42.78,0,0,0-7.3,10.9c-4.7,9.6-6.2,19.2-5.6,25.2,3.4,52.3,76.7,63,101.9,11.2,32.1-70.9-53.1-143-128.7-87.9l-1.7-1.7c19.9-31.2,58.8-45.1,95.9-35.8C180.3,35.59,210.8,94.69,188.5,149.89Z" style="fill:#172e56"/><path id="498730eb-3268-40ad-a80f-9248f1623057" data-name="UBISOFT" d="M316.8,69v49.2c0,19.6-12,34.2-33.9,34.2s-33.9-14.6-33.9-34.2V69h17.8v47.8c0,11.9,5.6,18.7,16.1,18.7s16.1-6.8,16.1-18.7V69Zm66.3,58.3c0,14.2-11.1,24.4-29.1,24.4H325.6v-82h27.3c15.8,0,26.3,7.6,26.3,19.8,0,9.3-4.3,14.9-10.8,17.6C377.2,110.39,383.1,116.29,383.1,127.29Zm-39.6-41.9v17.3h9.4c5.5,0,9.3-3.2,9.3-8.7s-3.8-8.7-9.3-8.7h-9.4Zm9.9,50.6c7.6,0,12-3.5,12-10.3s-4.3-10.3-12-10.3h-9.9V136Zm36.7-66.3h17.8v82H390.1Zm60.9,33.2c14.1,4.9,21.3,11.2,21.3,23.9,0,17-13,26.4-28.4,26.4-14.2,0-25.1-6.3-29.7-18l14.2-10.5a17.36,17.36,0,0,0,16,11.9c5.9,0,10.1-3.2,10.1-8.4,0-4.9-3.2-8-14.9-12.2-12.7-4.6-22.1-10.9-22.1-24.5,0-13.1,10.9-23.1,26.7-23.1,12.6,0,22.3,5,26.9,15l-14.2,9.8c-2.7-6.1-6.9-9.5-13.4-9.5-5.4,0-9.4,2.9-9.4,7.1C434.2,95.59,438.7,98.49,451,102.89Zm109.8,7.8c0,24.1-17.4,42.4-41.8,42.4-25,0-41.8-17.9-41.8-39.6,0-14.1,5.5-24.3,13.6-30.9l-2.8-2.8c6.2-6.4,17.6-11.5,31-11.5C543.4,68.29,560.8,86.79,560.8,110.69Zm-18.1,0c0-14.8-9.4-25.5-23.7-25.5-8.3,0-14.5,3.2-18.3,7.3l2.8,2.8c-4.3,3.6-8.2,8.7-8.2,17.7,0,12.4,8.8,23.3,23.7,23.3C533.4,136.19,542.7,125.49,542.7,110.69Zm43.2-24.1v19h34.8v13.6H585.9v32.5H568.1v-82h56.2v16.9Zm109.1,0H672v65.1H654.2V86.59H631.1V69.69H695v16.9Z" style="fill:#172e56"/></svg>