<svg id="cce46a9e-4faa-450a-a1b0-7fc845b57ea5" data-name="Layer 1" xmlns="http://www.w3.org/2000/svg" viewBox="0 0 2000 463.63"><title>Zenimax-logo</title><path d="M796.12,326.09c6.83.06,13.66,0,20.49.21,2.89.08,3.87-1.19,3.69-3.88-.1-1.49,0-3,0-4.5q0-110.47,0-220.95c0-6.52,0-6.53,6.55-6.53,25.49,0,51,.13,76.48-.11,5,0,6.49,1.14,6.48,6.34q-.27,111-.12,221.95v7.27h30V318.4q0-154.71,0-309.42c0-2.66.2-5.32.31-8h142a4.37,4.37,0,0,0,0,1q22.5,92.65,45,185.3c.37,1.51,1,3,1.44,4.45l1.22,0L1176,1h142c0,2.16.14,4.33.14,6.49q0,155.75,0,311.49c0,7.27,0,7.27-7.27,7.27h-65.28l-1.08,5.37h-19.19V456.18h19.41v5.24h-65.42l-.31-4.86h19.58V331.67h-19.37v-5.21h44.22V119.1l-.75-.37c-.53,1.52-1.15,3-1.57,4.57q-20.62,76.16-41.2,152.33c-4.13,15.27-8.38,30.5-12.29,45.82-1,3.83-2.72,4.93-6.54,4.9q-32.25-.25-64.5,0c-4,0-5.43-1.47-6.39-5.06q-26.47-98.38-53.14-196.7a14.22,14.22,0,0,0-2.5-5.56V326.27c2.05,0,4,0,5.94,0,17,.21,34-.38,51,.84,23.43,1.68,41.12,13.7,51.06,34.91,11.56,24.67,9.76,49.33-4.83,72.46-10.63,16.86-26.84,25.44-46.41,26.3-22.79,1-45.65.65-68.47,1-3.62.05-4.4-1.47-3.15-5.17h18.95V331.66h-19l-1-5H983.29v35.82c-3.62,1.41-5.51.33-6.45-3.76a54.09,54.09,0,0,0-4.1-11.21c-3.85-8-10.06-13.69-19-14.56-12-1.18-24.12-1.3-36.53-1.89v57.43c15.24,4.33,28-3.81,29.81-19,.57-4.67.57-4.67,5.82-4.18v55.48c-3.47,1.1-5.71.82-5.91-3.65a39.17,39.17,0,0,0-1.48-7.83c-2-7.93-7.14-12.7-15.22-13.88-4.2-.61-8.5-.54-13.05-.79V456.5c14.39-.7,28.69,1.86,42.69-2.3,8.26-2.46,13.43-8.53,16.38-16.36a87.89,87.89,0,0,0,4.41-15.31c.76-4.22,2.46-5.43,6-4.21,0,8.1.08,16,0,24-.07,4.83-.71,9.66-.55,14.48.13,4-1.31,5.06-5.18,5-21.17-.17-42.33-.08-63.5-.08-14.17,0-28.33-.06-42.5,0-3.51,0-5.11-1-3.52-5.2h19.06V331.68H871c.38-5.18-2.11-6.11-6.1-5.9-5.63.3-11.29.07-17.16.07l-1.17,5.6H827.42V456.23h19.17l.5,5.1H781.31v-4.91H800.7V335.51c-.84,2.2-1.4,3.48-1.83,4.81q-18.56,58-37.16,116c-.63,2-2,4.51-3.64,5.15-3.17,1.23-5.18-.37-6.34-4.05-12-38.27-24.24-76.47-36.42-114.68a11.78,11.78,0,0,0-2.37-4.54c-.12,1.35-.34,2.69-.35,4,0,36.17.07,72.33-.12,108.5,0,4.71,1.48,6.14,6,5.79,4.29-.33,8.62-.07,13.34-.07l.26,4.93H686.2v-4.83h19.47v-125H686.29v-5.36c5.24,0,10.38-.15,15.5.05,3.31.13,4.74-.76,4.73-4.41-.17-44.33-.18-88.66-.34-133a50.56,50.56,0,0,0-1.38-10.37c-3-14-9.69-20.62-22.52-22.58-14.63-2.23-28.5,3.8-35.37,15.48-5.87,10-6.91,21.11-6.94,32.33-.11,38.33,0,76.67,0,115,0,7.06,0,7.06-7.08,7.07-25.33,0-50.67-.11-76,.1-4.66,0-5.89-1.45-5.88-6q.18-112,0-224c0-4.43,1.36-5.67,5.71-5.64q37.5.27,75,0c3.85,0,5.39,1,5.2,5.07-.3,6.32-.1,12.66-.06,19,0,1.75.2,3.5.4,6.8,2-2.13,3.17-3.15,4.09-4.33,16.07-20.47,37.6-30,63.12-31.72,16.66-1.1,33,.05,48.38,7.21,24.52,11.4,38.16,30.91,41.87,57.45a138.33,138.33,0,0,1,1,18.92q.12,75.25.06,150.5c0,2.31.28,4.62.43,6.93h-58l28.24,92.27c1.13-3.35,1.85-5.36,2.51-7.4Q782.54,368.57,796.12,326.09Zm269.17,5.55V456.13c6.41,0,12.53.22,18.63,0,18.7-.81,28-8,33.26-25.9,5.11-17.34,5.73-35.18,4.1-53-.89-9.67-3.32-19.27-5.82-28.7-1.66-6.25-6.5-10.34-12.58-12.68C1090.78,331.19,1078.15,331.85,1065.29,331.63Z" transform="translate(-2 -1)" style="fill:#003058"/><path d="M2,248a42.45,42.45,0,0,0,3.72-3.21q72.15-78,144.25-156c1-1.07,1.84-2.26,3.44-4.25-2.93-.23-5-.53-7-.53Q82.68,84,18.94,84c-7.72,0-7.72,0-7.72-7.94,0-22.83.11-45.66-.09-68.49,0-4.4,1.27-5.69,5.65-5.69q131.23.16,262.46,0c4.41,0,5.66,1.33,5.61,5.71-.21,20.49-.17,41,0,61.49A12.07,12.07,0,0,1,281.33,78q-72.46,80-144.76,160.24c-1.18,1.3-2.23,2.72-3.94,4.81H284.72c-1-7.91-2.08-15.45-2.75-23-5.13-57.66,27.33-115.54,89.39-130.77,37.12-9.11,73.92-6.09,108.46,11.35,28.43,14.36,44.15,39.1,52.62,69,4.89,17.26,6.19,35,7.28,52.79.28,4.57-1.33,5.58-5.61,5.57q-79.49-.19-159-.08c-9.12,0-9.28,0-7.35,9.15,3.66,17.31,12.48,30.86,30.27,35.74,18.76,5.15,36.3,2.36,50.92-11.84,1.3-1.26,3.28-2.58,5-2.59,25.66-.16,51.32-.11,77-.09a19.48,19.48,0,0,1,3,.56c-.71,2-1.23,3.63-1.93,5.24-11.15,25.67-29.67,44.43-55.37,54.91-48,19.59-95.53,18.23-141.29-7.38-17.39-9.74-30.39-24.2-39.8-41.82a10,10,0,0,0-3.6-4.16q0,2.53,0,5.06c0,15.33,0,30.66,0,46,0,10.43,1.17,9.17-8.92,9.17q-136.73,0-273.45,0c-2.5,0-5,.1-7.5.15Q2,287,2,248Zm365.77-66.41a6.45,6.45,0,0,0,1.79.53q40.45.07,80.89.09c3,0,3.62-1.47,3.42-4.12-1.23-16.43-12.42-31.12-28.44-34.66a67.68,67.68,0,0,0-24.63-.37C382.13,146,367.32,163.91,367.77,181.59Z" transform="translate(-2 -1)" style="fill:#003058"/><path d="M2002,143H1863.44a14.34,14.34,0,0,1-.53-2.6q0-69.7.09-139.4h139Zm-49.2-91.58h-40.51V92.53h40.51Z" transform="translate(-2 -1)" style="fill:#003058"/><path d="M1349.09,160.92c1.27-25.56,11.34-45.78,33.61-59.05,15.48-9.22,32.61-13.38,50.26-15.39,30.12-3.44,60.23-3.55,90,2.69a121.71,121.71,0,0,1,24.12,7.9c20.58,9.11,31.33,25.7,33.77,47.72a250.81,250.81,0,0,1,1.33,26.43c.16,34.5-.05,69,.18,103.5.07,10.09,1.14,20.18,1.76,30.27l1.61.32c.9-1.25,1.84-2.47,2.69-3.75q31.64-47.68,63.34-95.33c2.13-3.18,1.93-5.27-.11-8.34q-34.12-51.14-68-102.46c-1-1.48-1.87-3-3.25-5.26h5.68c29.17,0,58.33.1,87.5-.11,4.29,0,6.48,1.38,8.45,5.11,6.52,12.38,13.44,24.54,20.23,36.77.79,1.43,1.68,2.8,2.92,4.86,1.2-2,2.14-3.41,3-4.91,7.21-12.76,14.33-25.57,21.7-38.24.9-1.55,3.12-3.33,4.73-3.34,30.66-.2,61.31-.15,93-.15-1.32,2.21-2.21,3.83-3.23,5.38q-33.94,51.26-68,102.46c-1.86,2.8-2.38,4.75-.26,7.86q40.32,59.31,80.32,118.84a6.14,6.14,0,0,1,1.22,3.08c.09,12,.05,23.94.05,35.94-4,1.48-6,1-7-3.43-5-22.77-23-34.92-45.93-31.19-9.88,1.61-16.23,8.05-19.74,16.65-2.78,6.81-5,14.37-5.11,21.64-.37,20.12.45,40.26.87,60.39a29.42,29.42,0,0,0,1,5.4c2.63,12.29,8.87,21.69,21.66,24.89,13.44,3.36,25.85,1.22,36-9,6.64-6.68,10.26-15.1,13-23.9.77-2.45,1.59-4.93,4.49-3.76,1.27.51,2.32,3.16,2.35,4.86.2,12,.11,23.95.11,36.34-7.6,1.12-8.24-6.8-13.22-9a54.27,54.27,0,0,1-37.75,10.76c-22.82-1.86-38.45-14.93-49.21-34.08-20.8-37-6.91-82.55,30.75-102.29.51-.27,1-.64,2.62-1.79-10.63,0-19.89-.19-29.13.09-3.85.12-5.94-1.19-7.87-4.51-9.4-16.11-19.09-32.06-28.69-48.06-.91-1.52-1.88-3-3.3-5.23l-33.17,57.72h10.45c9.67,0,19.33-.09,29,.13,1.22,0,2.4,1.76,3.59,2.71-1.17.8-2.29,2.19-3.51,2.29a73.89,73.89,0,0,1-11.49.06c-4.12-.32-5.45,1.13-5.4,5.32.21,17.33.09,34.66.09,52q0,34.5,0,69c0,2,0,3.91,0,5.68-4.36,1.65-6.57.17-8.73-3.09q-39.08-58.94-78.39-117.71c-1.09-1.64-2.22-3.25-4-5.93-.26,2.51-.52,3.86-.52,5.21,0,36.33.06,72.66-.11,109,0,4.4,1.2,6,5.62,5.62s9-.08,13.36-.08c1.5,3.82.58,5.32-3.23,5.29q-19.25-.15-38.5,0c-3.7,0-4.29-1.63-3-5.28h18.89V331.66h-19c.06-4.84-2.81-5.51-6.47-5.42-5.48.14-11,0-16.65,0l-.94,5.15h-19.15V456.31h19.36v5h-65.52v-4.88h19.39V331.64h-19.34v-5.39h14.47l-3.17-21.58a6.56,6.56,0,0,0-1.83,1c-13.35,14.23-30.16,21.61-49.11,24.54-20.65,3.19-41.21,3.17-61.31-3.34-43.18-14-61.79-65.45-37.29-103,8.76-13.42,21.75-21.28,36.35-26.85,17.73-6.76,36.36-9.35,55-12.07,13.82-2,27.74-3.85,41.3-7.11,12.82-3.08,18.1-13.54,14.27-25.18-2.48-7.55-8.36-11.51-15.55-13.51a51.49,51.49,0,0,0-30.52.78c-8.72,2.91-14.25,8.82-16.11,18.08-.27,1.34-2.35,3.3-3.61,3.31-26,.17-52,.11-78,.07A11.93,11.93,0,0,1,1349.09,160.92Zm147.82,60.43c-14.41,4-27.33,7.6-40.24,11.25-4.15,1.18-8.34,2.3-12.36,3.87-8.61,3.36-14.06,9.28-14.41,19-.36,10,5.24,16.21,13.48,20.33,19.75,9.88,45.16-.89,50.42-22.25C1496.36,243.26,1496,232.22,1496.92,221.36Zm130.2,105.16,59.41,87.68V331.52c-4.65,0-9-.25-13.24.07-3.88.3-6.4-.61-6.45-5.08Zm205.09.15h-18.57l10.49,6.12Z" transform="translate(-2 -1)" style="fill:#003058"/><path d="M864.48,63.95c-13,0-26-.08-39,.05-3.61,0-5.37-.67-5.32-4.92.23-17.48.17-35,0-52.46,0-3.45,1.06-4.69,4.55-4.68q40.22.14,80.44,0c3.51,0,4.55,1.27,4.52,4.7-.14,17.49-.2,35,0,52.46.06,4.28-1.74,4.94-5.33,4.9C891.13,63.87,877.81,63.95,864.48,63.95Z" transform="translate(-2 -1)" style="fill:#003058"/><path d="M1396.47,461.43h-63.41v-4.89h20.58c-3-8.64-5.56-16.31-8.2-24-4-11.71-4.05-11.7-16.57-11.7-9.16,0-18.33-.07-27.48.08-1.43,0-3.75.7-4.11,1.66-4,10.87-7.79,21.86-11.93,33.71h20.23v5.15h-42.44v-5c3.47,0,6.81-.33,10.05.08,4.74.59,6.53-1.52,8.07-5.82q22.05-61.55,44.66-122.89a8.12,8.12,0,0,1,4.24-4.4c3.46-1.24,4.77,1.31,5.81,4.32,14.2,41,28.58,82,42.64,123.07,1.52,4.45,3.47,6.34,8.08,5.69,2.12-.3,4.33.08,6.49-.07C1396.85,456.2,1397.45,458,1396.47,461.43Zm-57.2-46-18.92-56-20.24,56Z" transform="translate(-2 -1)" style="fill:#003058"/><path d="M1779.82,30.84c-.05-15.56,12-27.84,27.28-27.9a27.44,27.44,0,0,1,27.58,27.67,27.44,27.44,0,1,1-54.86.23Zm27.23,23.23c12.5.14,22.29-9.89,22.45-23,.17-12.92-9.63-23.56-21.91-23.78s-22.4,10.34-22.51,23.19S1794.72,53.92,1807.06,54.06Z" transform="translate(-2 -1)" style="fill:#003058"/><path d="M1871.86,438.83a13.15,13.15,0,0,1,13,12.48c.21,6.79-6.1,13.3-12.86,13.29s-13.09-6.36-13-13.14S1865,438.91,1871.86,438.83Z" transform="translate(-2 -1)" style="fill:#003058"/><path d="M1797,15.23c4.45,0,8.26-.29,12,.08s7.77,1.44,8.89,6-.37,7.9-3.51,9.37l4.91,15.49c-5.32,2-6-.94-6.64-4.38-1.51-7.63-2.8-8.55-10.42-7.73V46.41c-2.84.51-5.23,1.54-5.23-2.43q0-11.5,0-23C1797,19.5,1797,18,1797,15.23Zm5.29,15.51c3.84-1.51,7.11-2.46,9.93-4.15.71-.42.63-3.7-.2-4.85-2.45-3.37-6.05-3.1-9.73-2.22Z" transform="translate(-2 -1)" style="fill:#003058"/></svg>