
<svg version="1.1" id="Layer_1" xmlns="http://www.w3.org/2000/svg" xmlns:xlink="http://www.w3.org/1999/xlink" 
	 viewBox="0 0 269 176" style="enable-background:new 0 0 269 176;" xml:space="preserve">
<style type="text/css">
	.st0{enable-background:new    ;}
	.st1{clip-path:url(#SVGID_2_);}
	.st2{fill:#B6E8FB;}
	.st3{clip-path:url(#SVGID_4_);}
	.st4{fill:#00A7E1;}
	.st5{clip-path:url(#SVGID_6_);}
	.st6{fill:none;stroke:#B6E8FB;stroke-width:2;stroke-miterlimit:10;}
	.st7{fill:#BEBEBE;}
	.st8{fill:#003058;}
</style>
<g>
	<g>
		<g>
			<g>
				<g class="st0">
					<defs>
						<polygon id="SVGID_1_" class="st0" points="143.6054,125.097 148.7072,122.1317 153.5903,124.9501 148.4871,127.9154 						
							"/>
					</defs>
					<use xlink:href="#SVGID_1_"  style="overflow:visible;fill:#B6E8FB;"/>
					<clipPath id="SVGID_2_">
						<use xlink:href="#SVGID_1_"  style="overflow:visible;"/>
					</clipPath>
					<g class="st1">
						<g>
							<g>
								<g>
									<g>
										<polygon class="st2" points="153.5903,124.9501 148.7072,122.1317 143.6054,125.097 148.4871,127.9154 153.5903,124.9501 
																					"/>
									</g>
								</g>
							</g>
						</g>
					</g>
				</g>
			</g>
		</g>
	</g>
	<g>
		<g>
			<g>
				<g class="st0">
					<defs>
						<polygon id="SVGID_3_" class="st0" points="153.0882,120.0411 158.1914,117.0759 163.0817,119.9001 157.9785,122.8654 						
							"/>
					</defs>
					<clipPath id="SVGID_4_">
						<use xlink:href="#SVGID_3_"  style="overflow:visible;"/>
					</clipPath>
					<g class="st3">
						<g>
							<g>
								<g>
									<g>
										<polygon class="st4" points="163.0817,119.9001 158.1914,117.0759 153.0882,120.0411 157.9785,122.8639 
											163.0817,119.9001 										"/>
									</g>
								</g>
							</g>
						</g>
					</g>
				</g>
			</g>
		</g>
	</g>
	<g>
		<g>
			<g>
				<g class="st0">
					<defs>
						<polygon id="SVGID_5_" class="st0" points="162.5551,115.0688 167.6584,112.1036 172.5486,114.9278 167.4454,117.8931 						
							"/>
					</defs>
					<clipPath id="SVGID_6_">
						<use xlink:href="#SVGID_5_"  style="overflow:visible;"/>
					</clipPath>
					<g class="st5">
						<g>
							<g>
								<g>
									<g>
										<polygon class="st2" points="172.5486,114.9278 167.6584,112.1036 162.5551,115.0688 167.4454,117.8931 
											172.5486,114.9278 										"/>
									</g>
								</g>
							</g>
						</g>
					</g>
				</g>
			</g>
		</g>
	</g>
</g>
<line class="st6" x1="144.9697" y1="145.2718" x2="167.4037" y2="131.7179"/>
<line class="st6" x1="166.1728" y1="131.6478" x2="178.9245" y2="138.9014"/>
<g>
	<g class="st0">
		<g>
			<g>
				<path class="st2" d="M182.6359,138.0142c-1.3066-0.7562-3.4224-0.7562-4.7232,0c-1.2988,0.7562-1.2949,1.9805,0.0137,2.7357
					c1.3106,0.7562,3.4263,0.7562,4.7271,0C183.9544,139.9947,183.9465,138.7703,182.6359,138.0142L182.6359,138.0142z"/>
			</g>
		</g>
	</g>
</g>
<line class="st6" x1="119.7945" y1="130.5706" x2="179.095" y2="164.8078"/>
<g>
	<g class="st0">
		<g>
			<g>
				<path class="st2" d="M182.1712,162.5806c-1.9164-1.1107-5.0212-1.1107-6.9319,0.0013c-1.9105,1.1107-1.902,2.9078,0.0172,4.0141
					c1.9279,1.1152,5.0299,1.1152,6.9434,0C184.1078,165.4898,184.0992,163.6927,182.1712,162.5806L182.1712,162.5806z"/>
			</g>
		</g>
	</g>
</g>
<g>
	<g>
		<g>
			<g>
				<g>
					<g class="st0">
						<g>
							<g>
								<path class="st7" d="M179.4704,90.6188c3.8444,2.2214-2.4919,4.9968-5.9506,7.0067l-59.3339,34.4752
									c-6.7505,3.9205-8.5662,5.5016-12.071,3.4789l-43.8846-25.3421c-3.079-1.7682-2.6042-2.0258,5.9535-7.0009l59.3367-34.4797
									c6.9175-4.0184,8.5893-5.4787,12.0682-3.4716L179.4704,90.6188z"/>
							</g>
						</g>
						<path class="st8" d="M180.6646,92.2303c-0.0029,0.0474-0.0087,0.0978-0.0172,0.1395
							c-0.003,0.0202-0.0115,0.0504-0.0115,0.0662c-0.0144,0.0546-0.0259,0.1108-0.0461,0.1611
							c-0.0085,0.0215-0.0145,0.0388-0.0259,0.0604c-0.0287,0.0806-0.069,0.1625-0.1121,0.2373
							c-0.0087,0.0173-0.0174,0.0332-0.0231,0.049c-0.069,0.1036-0.1381,0.2115-0.2244,0.3181
							c-0.0115,0.0143-0.0259,0.033-0.0403,0.0502c-0.0547,0.0691-0.1121,0.1352-0.1755,0.2028
							c-0.0115,0.0145-0.023,0.0302-0.0374,0.0432c-0.0806,0.0762-0.1612,0.1569-0.2476,0.2446
							c-0.0115,0.0087-0.02,0.0201-0.0372,0.0317c-0.1324,0.1209-0.2762,0.2432-0.426,0.3668
							c-0.0172,0.0102-0.0317,0.0217-0.0489,0.0317c-0.1555,0.1238-0.3223,0.249-0.4978,0.3727
							c-0.0087,0.0043-0.0173,0.0129-0.0259,0.0215c-0.1841,0.1295-0.3826,0.2561-0.5784,0.3843
							c-0.0028,0.0057-0.0115,0.007-0.0143,0.01c-0.1956,0.1265-0.3913,0.2488-0.5928,0.3711
							c-0.0287,0.0187-0.0575,0.0346-0.0806,0.0489c-0.305,0.1842-0.6215,0.3626-0.9323,0.541
							c-0.0085,0.0057-0.023,0.0115-0.0316,0.0174c-0.1641,0.0948-0.331,0.1884-0.5007,0.2805
							c-0.3568,0.1999-0.7165,0.3956-1.0646,0.5854c-0.1238,0.0676-0.2418,0.1339-0.3626,0.2001
							c-0.0374,0.0187-0.072,0.0417-0.1122,0.0619c-0.1324,0.0734-0.2648,0.1495-0.4,0.2244
							c-0.0229,0.013-0.0518,0.0244-0.0719,0.0389c-0.1352,0.0792-0.2762,0.1568-0.4057,0.2346l-59.3339,34.4752
							c-3.5363,2.0602-5.7205,3.4716-7.5016,4.0586c-0.2935,0.0936-0.5782,0.1669-0.8517,0.2202
							c-0.141,0.023-0.2762,0.0432-0.4143,0.059c-0.1008,0.0145-0.1985,0.0157-0.2935,0.0215c-0.092,0.0015-0.1841,0.0015-0.2705,0
							c-0.0892,0-0.1727-0.0057-0.2562-0.01c-0.0864-0.0115-0.1784-0.0215-0.2648-0.0331c-0.092-0.0157-0.187-0.0302-0.2762-0.0489
							c-0.1208-0.0258-0.2388-0.0517-0.3654-0.0921c-0.1669-0.0445-0.3396-0.1078-0.5151-0.1755
							c-0.3396-0.1353-0.6934-0.3107-1.0618-0.5208l-43.8846-25.342c-1.0906-0.6229-1.7352-1.0633-1.7352-1.5856
							c0,1.1943-0.0028,2.3884-0.0057,3.5825c-0.0057,0.5238,0.6446,0.9641,1.7323,1.5914l43.8818,25.3334
							c0.3683,0.2186,0.7251,0.387,1.0646,0.5251c0.1727,0.0676,0.3483,0.1237,0.5151,0.1769
							c0.1209,0.0361,0.2447,0.0663,0.3655,0.0908c0.0892,0.0229,0.1812,0.0344,0.2762,0.0474
							c0.0892,0.0144,0.1755,0.0245,0.2618,0.0287c0.0863,0.0043,0.1727,0.0159,0.2532,0.0187c0.0921,0,0.1784,0,0.2705-0.0028
							c0.0948-0.0045,0.1956-0.0116,0.2964-0.0201c0.1323-0.0159,0.2733-0.0332,0.4143-0.0619
							c0.2734-0.049,0.5582-0.1223,0.8517-0.2216c1.7869-0.5841,3.9651-1.9955,7.5016-4.05l59.3339-34.481
							c0.1437-0.0849,0.2905-0.1684,0.4489-0.2548v-0.0028c0.6503-0.3611,1.3638-0.7526,2.089-1.1553
							c0.0748-0.0417,0.1554-0.0849,0.236-0.1252c0.0834-0.056,0.1784-0.1049,0.2675-0.1553
							c0.1008-0.0591,0.2043-0.1223,0.3051-0.1741c0.049-0.0345,0.0978-0.0576,0.1438-0.0878
							c0.1295-0.0719,0.2503-0.1423,0.377-0.2216c0.0258-0.0157,0.0489-0.0258,0.0719-0.0417
							c0.0115-0.0085,0.0172-0.0143,0.0345-0.0173c0.1871-0.1165,0.3741-0.2345,0.5554-0.3495
							c0.0172-0.0145,0.0374-0.0245,0.0517-0.0317c0.1958-0.1266,0.377-0.2518,0.5584-0.3755
							c0.02-0.013,0.0344-0.0258,0.0517-0.0345c0.1639-0.1223,0.3251-0.2418,0.4749-0.3611
							c0.0229-0.0145,0.0402-0.0245,0.0574-0.0432c0.1497-0.1166,0.2906-0.2403,0.4202-0.3554
							c0.0057-0.0072,0.0202-0.0201,0.0317-0.0244c0.0028-0.0073,0.0057-0.013,0.0143-0.0217
							c0.0893-0.0776,0.1669-0.1539,0.239-0.233c0.0143-0.0157,0.0287-0.0317,0.046-0.0489
							c0.0604-0.0634,0.1151-0.1295,0.1697-0.1971c0.0087-0.0101,0.0231-0.0259,0.0317-0.0374
							c0.0087-0.0115,0.0145-0.0172,0.023-0.0302c0.0231-0.0287,0.0403-0.0546,0.0634-0.0791
							c0.0201-0.0345,0.0432-0.0691,0.0691-0.0993c0.0144-0.0287,0.0345-0.0532,0.046-0.0806
							c0.0117-0.0215,0.0317-0.0474,0.0461-0.069c0.0028-0.0029,0.0058-0.0101,0.0115-0.0217
							c0.0432-0.0806,0.0834-0.1597,0.1151-0.2416c0-0.0057,0.0029-0.0102,0.0029-0.0145c0.0057-0.0101,0.0115-0.0245,0.0143-0.0359
							c0.0202-0.0576,0.0347-0.1093,0.049-0.1639c0.0059-0.013,0.0087-0.0274,0.0116-0.0404c0-0.0085,0-0.0173,0-0.0272
							c0.0115-0.0447,0.0115-0.0921,0.0201-0.131c0-0.0187,0.0057-0.0359,0.0057-0.0519c0-0.01,0-0.0245,0-0.0345
							c0.0029-1.1942,0.0057-2.3898,0.0087-3.5853C180.6703,92.1842,180.6674,92.2043,180.6646,92.2303z"/>
					</g>
				</g>
				<path class="st8" d="M138.2533,15.64c-0.0057-0.9685-0.3511-1.6473-0.9045-1.9644c0.0013,0.0007,0.0027,0.0013,0.004,0.002
					l-0.0056-0.0032c-0.0016-0.001-0.0033-0.002-0.0049-0.0029l-0.8268-0.4802c-0.0173-0.01-0.0317-0.0202-0.0432-0.0287
					c-0.0172-0.0072-0.0344-0.0159-0.0489-0.0259l-1.5999-0.928c-0.0029-0.0043-0.0087-0.0043-0.0144-0.0115
					c-0.049-0.0273-0.1036-0.0532-0.1525-0.0704c-0.0087-0.0057-0.0202-0.0072-0.0317-0.0145
					c-0.0202-0.0043-0.0345-0.0087-0.0519-0.0172c-0.0258-0.0102-0.0517-0.0187-0.0806-0.0245
					c-0.0258-0.0129-0.0547-0.0159-0.0892-0.0229c-0.0087-0.0045-0.0345-0.0087-0.0489-0.013c0,0-0.0202-0.0029-0.0345-0.0072
					c-0.0576-0.0102-0.1152-0.0159-0.1841-0.0202c-0.003-0.0043-0.0057,0-0.0057,0c-0.0202-0.0043-0.0289,0-0.0432-0.0043
					C134.0349,12,133.989,12,133.9313,12c-0.0115,0.0029-0.0317,0.0115-0.0461,0.0115c-0.0287,0-0.0604,0.003-0.0891,0.0057
					c-0.0317,0.0059-0.0576,0.0059-0.0864,0.0102c-0.0259,0.0043-0.0546,0.0115-0.0863,0.0202
					c-0.0402,0.0043-0.0719,0.01-0.1122,0.0229c-0.0258,0.0057-0.049,0.0072-0.0747,0.0143
					c-0.0202,0.0087-0.0461,0.0187-0.0691,0.0245c-0.0721,0.0202-0.1353,0.0403-0.2043,0.0706
					c-0.0259,0.01-0.0604,0.0158-0.0834,0.0287c-0.0145,0.0057-0.0347,0.0159-0.049,0.0217
					c-0.1237,0.0546-0.2504,0.1136-0.3799,0.1913L59.1943,54.8315c-0.1008,0.0562-0.2014,0.1208-0.2935,0.1884
					c-0.0317,0.0173-0.0576,0.0404-0.0892,0.0619c-0.0662,0.0461-0.1295,0.0964-0.1929,0.1467
					c-0.0345,0.0289-0.0719,0.0547-0.1064,0.0878c-0.0604,0.0446-0.118,0.0963-0.1727,0.151
					c-0.0374,0.0289-0.0691,0.0619-0.1036,0.0921c-0.0201,0.0201-0.0403,0.0403-0.0661,0.0618
					c-0.0202,0.0231-0.0432,0.0476-0.0634,0.0706c-0.0662,0.0691-0.1353,0.138-0.1986,0.2071
					c-0.0287,0.0274-0.049,0.0532-0.069,0.0764c-0.0202,0.0229-0.0403,0.046-0.0576,0.0646
					c-0.0374,0.0504-0.0776,0.0993-0.1151,0.1453c-0.0231,0.0347-0.0546,0.0605-0.0748,0.0921
					c-0.023,0.0274-0.0432,0.0547-0.0604,0.0821c-0.0259,0.0389-0.0546,0.0748-0.0806,0.1151
					c-0.023,0.0244-0.0461,0.0504-0.0634,0.0806c-0.0345,0.0489-0.0634,0.0964-0.0978,0.1425
					c-0.0144,0.0259-0.0374,0.059-0.0519,0.0821c-0.0115,0.0187-0.0172,0.0272-0.0315,0.0402
					c-0.0519,0.0834-0.1036,0.1697-0.1526,0.256c-0.0057,0.0072-0.0085,0.0172-0.0143,0.0274
					c-0.0029,0.0085-0.0115,0.0172-0.0172,0.0229c-0.0374,0.0676-0.0806,0.1395-0.1123,0.2101
					c-0.0172,0.0287-0.0317,0.0589-0.0461,0.0891c-0.02,0.0317-0.0287,0.0605-0.0402,0.0863
					c-0.0173,0.0302-0.0374,0.0562-0.0461,0.0821c-0.0372,0.0691-0.0719,0.1467-0.1006,0.223
					c-0.003,0.0085-0.0087,0.0201-0.0202,0.0316c0,0.0044-0.0028,0.0102-0.0028,0.0102c-0.0346,0.092-0.0748,0.1841-0.1094,0.2747
					c-0.0085,0.0145-0.0115,0.0389-0.0173,0.0519c-0.0143,0.0345-0.0259,0.0647-0.0374,0.0991
					c-0.0143,0.0432-0.0315,0.0921-0.0489,0.1382c-0.0143,0.0359-0.0258,0.0734-0.0374,0.1108
					c-0.0085,0.0446-0.0258,0.0776-0.0345,0.1165c-0.0087,0.0287-0.0173,0.0562-0.0287,0.0834
					c-0.0115,0.0504-0.0202,0.1008-0.0289,0.1467c-0.0143,0.0533-0.0287,0.0993-0.0402,0.1497
					c-0.0057,0.0187-0.0087,0.0345-0.0145,0.0576c-0.0085,0.0374-0.0085,0.0762-0.0143,0.1151
					c-0.0144,0.0776-0.0317,0.1612-0.0461,0.2388c0,0.0244-0.0057,0.0432-0.0085,0.0661c-0.0087,0.0562-0.0087,0.1123-0.0174,0.1612
					c0,0.0331-0.0057,0.0634-0.0115,0.1008c-0.0085,0.1151-0.0143,0.2259-0.0143,0.3424l0.138,47.5319
					c0.003,0.9652,0.3396,1.6387,0.8892,1.9667c0.8431,0.4821,1.6863,0.9784,2.5293,1.4662
					c-0.0808-0.0477-0.1469-0.1187-0.2181-0.1816c0.5621,0.4921,1.4214,0.5291,2.3963-0.0314l73.4566-42.4142
					c1.6862-0.9711,3.053-3.3336,3.0444-5.2729L138.2533,15.64z M137.0994,13.5654c0.0143,0.0072,0.0402,0.0115,0.0575,0.0172
					c0.0623,0.0261,0.1194,0.0551,0.1766,0.0857c-0.1309-0.073-0.2735-0.1249-0.4255-0.1569
					c0.0087,0.002,0.0187,0.0036,0.0245,0.005C136.9929,13.5323,137.0505,13.5453,137.0994,13.5654z M136.0377,13.5424
					c0.0345-0.01,0.0834-0.0215,0.1208-0.0274c0.0547-0.01,0.1093-0.0186,0.1669-0.0302c0.0128-0.0005,0.0239-0.0009,0.0359-0.0017
					c-0.1662,0.0159-0.341,0.0569-0.5203,0.1148c0.0192-0.0063,0.0388-0.0146,0.0585-0.021
					C135.9484,13.5654,135.9888,13.5511,136.0377,13.5424z M60.1957,57.6528c0.0432-0.046,0.0834-0.0993,0.1208-0.1453
					c0.0374-0.0432,0.0776-0.0863,0.1122-0.1237c0.0146-0.0164,0.0292-0.0306,0.0439-0.0469
					c-0.1547,0.1694-0.3049,0.346-0.4445,0.5341c0.0091-0.0131,0.0174-0.0255,0.0266-0.0382
					C60.1036,57.7737,60.1525,57.7132,60.1957,57.6528z M59.764,58.2529c0.023-0.0274,0.0432-0.0562,0.0576-0.0878
					c0.0487-0.0746,0.1003-0.152,0.1577-0.2238c-0.1464,0.2021-0.2856,0.4115-0.4115,0.629
					c0.001-0.0023,0.0024-0.0045,0.0033-0.0067C59.6403,58.457,59.6979,58.3564,59.764,58.2529z M59.3928,58.8959
					c0.0363-0.0739,0.079-0.1489,0.1235-0.2254c-0.1102,0.1973-0.2137,0.3981-0.3046,0.603c0.0426-0.096,0.093-0.1956,0.1408-0.2943
					C59.364,58.9534,59.3785,58.9276,59.3928,58.8959z M59.0159,59.7549c0.0143-0.0331,0.0259-0.0662,0.0432-0.095
					c0.0189-0.0595,0.0457-0.1147,0.0683-0.1714c-0.0734,0.1813-0.1448,0.3633-0.201,0.5467
					c0.0039-0.0136,0.0067-0.0266,0.0118-0.04C58.967,59.9146,58.9929,59.8383,59.0159,59.7549z M58.8029,60.5059
					c0.0145-0.0605,0.0259-0.1152,0.0432-0.1713c0.0117-0.0647,0.0347-0.1323,0.0519-0.2029
					c0.0018-0.0055,0.0035-0.0117,0.0051-0.0173c-0.0629,0.2151-0.111,0.4302-0.1476,0.6438
					c0.0061-0.0327,0.0121-0.0658,0.0188-0.0984C58.7828,60.608,58.7886,60.5577,58.8029,60.5059z M58.6907,61.2411
					c0.0028-0.0389,0.0085-0.0719,0.0085-0.1108c0.0087-0.0719,0.0174-0.1395,0.0259-0.2144
					c0.0036-0.018,0.0068-0.0355,0.0102-0.0534c-0.0369,0.2436-0.0576,0.4847-0.0562,0.7195
					C58.6793,61.4655,58.6821,61.3591,58.6907,61.2411z M59.2564,110.6519c0.028,0.0375,0.0479,0.0855,0.0783,0.1198
					C59.3044,110.7372,59.2844,110.6895,59.2564,110.6519z M60.5927,57.2084c0.0144-0.0147,0.0289-0.0325,0.0433-0.0463
					c0.0432-0.0489,0.0863-0.0863,0.1295-0.1295c0.0374-0.0287,0.0691-0.0604,0.1036-0.0964
					c0.0576-0.0504,0.1208-0.1036,0.1727-0.1567c0.0374-0.0231,0.0718-0.0562,0.1006-0.0806
					c0.0691-0.0518,0.1324-0.0993,0.1986-0.1497c0.0345-0.0202,0.0604-0.0417,0.0893-0.0634
					c0.0978-0.0662,0.1956-0.1265,0.2935-0.1841C61.3231,56.5325,60.9429,56.8456,60.5927,57.2084z M135.1801,13.892
					c0.1324-0.0719,0.2562-0.1353,0.3828-0.1913c0.0432-0.0143,0.0836-0.0302,0.1238-0.0475
					c0.0172-0.0073,0.0325-0.0112,0.049-0.0175C135.5548,13.7017,135.3702,13.7822,135.1801,13.892z M136.3863,13.4818
					c0.0092-0.0005,0.0192-0.0013,0.0283-0.0013c0.0691-0.0057,0.1382-0.0057,0.2073-0.0057c0.0085,0,0.0172,0,0.0172,0
					c0.0814,0.0052,0.154,0.0154,0.2233,0.0289C136.712,13.4766,136.5533,13.468,136.3863,13.4818z"/>
				<g>
					<g class="st0">
						<g>
							<g>
								<path class="st4" d="M134.009,16.9767l-70.4956,40.702c-1.5279,0.8848-2.7709,3.0301-2.7652,4.7911l0.1266,43.145
									c0.0029,1.7654,1.243,2.4704,2.7768,1.5898l70.5041-40.7065c1.5309-0.8819,2.7681-3.027,2.7653-4.7895l-0.1267-43.1451
									C136.7886,16.7983,135.5426,16.0904,134.009,16.9767L134.009,16.9767z"/>
							</g>
						</g>
					</g>
				</g>
				<g>
					<g>
						<g class="st0">
							<g>
								<g>
									<path class="st8" d="M108.4138,122.7546c-0.9669-0.5553-2.5178-0.5612-3.4731-0.0043l-3.3178,1.9639
										c-0.961,0.5568-0.9525,1.456,0.0087,2.0128c0.961,0.5554,2.5149,0.5582,3.4759,0l3.3206-1.9624
										C109.3863,124.2092,109.3748,123.3128,108.4138,122.7546L108.4138,122.7546z"/>
								</g>
							</g>
						</g>
					</g>
					<g>
						<g class="st0">
							<g>
								<g>
									<path class="st8" d="M116.1974,118.4428c-0.964-0.5569-2.5208-0.5569-3.4731,0l-3.3206,1.9566
										c-0.9669,0.5625-0.9525,1.4561,0.0085,2.0186c0.964,0.5539,2.5206,0.5552,3.4788,0l3.3178-1.9639
										C117.1671,119.8987,117.1613,118.9981,116.1974,118.4428L116.1974,118.4428z"/>
								</g>
							</g>
						</g>
					</g>
					<g>
						<g class="st0">
							<g>
								<g>
									<path class="st8" d="M154.7154,81.9806l-7.5563-4.3637c-0.846-0.4849-2.2186-0.4849-3.0588-0.0015l-6.7016,3.8933
										c-0.8432,0.4921-0.8432,1.2876,0.0087,1.7797l7.5505,4.3594c0.8459,0.4878,2.2271,0.4878,3.0701-0.0015l6.7046-3.8946
										C155.5671,83.2654,155.5613,82.4684,154.7154,81.9806L154.7154,81.9806z"/>
								</g>
							</g>
						</g>
					</g>
					<g>
						<g class="st0">
							<g>
								<g>
									<path class="st8" d="M140.8517,74.1163c-1.0475-0.6057-2.7451-0.6057-3.7869,0l-61.9667,36.0104
										c-1.0388,0.6029-1.0331,1.587,0.0202,2.1927c1.0473,0.6057,2.745,0.6057,3.7868,0L140.866,76.312
										C141.9106,75.7076,141.9048,74.7235,140.8517,74.1163L140.8517,74.1163z"/>
								</g>
							</g>
						</g>
					</g>
					<g>
						<g class="st0">
							<g>
								<g>
									<path class="st8" d="M160.8388,85.2437c-1.0503-0.6058-2.7451-0.6058-3.7926,0l-61.958,36.0104
										c-1.0475,0.6014-1.0388,1.5869,0.0115,2.1912c1.0503,0.6085,2.7479,0.6085,3.7868,0l61.9639-36.0061
										C161.8976,86.8349,161.8891,85.8494,160.8388,85.2437L160.8388,85.2437z"/>
								</g>
							</g>
						</g>
					</g>
					<g>
						<g class="st0">
							<g>
								<g>
									<path class="st8" d="M136.1355,84.2596c-1.0503-0.6057-2.7422-0.6057-3.7897,0l-51.1244,29.5101
										c-1.0444,0.6057-1.0416,1.5869,0.0116,2.194c1.0473,0.6043,2.7479,0.6043,3.7896,0l51.1272-29.5072
										C137.1943,85.8479,137.1828,84.8652,136.1355,84.2596L136.1355,84.2596z"/>
								</g>
							</g>
						</g>
					</g>
					<g>
						<g class="st0">
							<g>
								<g>
									<path class="st8" d="M156.8505,94.8085c-1.0473-0.6073-2.7422-0.6073-3.7896,0l-36.0205,20.7467
										c-1.0387,0.6071-1.0359,1.5868,0.0116,2.1927c1.0531,0.6099,2.7479,0.6099,3.7925,0l36.0204-20.7453
										C157.9065,96.3953,157.9008,95.4156,156.8505,94.8085L156.8505,94.8085z"/>
								</g>
							</g>
						</g>
					</g>
					<g>
						<g class="st0">
							<g>
								<g>
									<path class="st8" d="M142.4516,88.5354c-1.0473-0.6027-2.7422-0.6027-3.7867,0l-50.8596,29.4253
										c-1.0445,0.6043-1.0388,1.5883,0.0057,2.1941c1.0531,0.6057,2.7509,0.6057,3.7925,0l50.8654-29.421
										C143.5104,90.1282,143.5076,89.1455,142.4516,88.5354L142.4516,88.5354z"/>
								</g>
							</g>
						</g>
					</g>
					<g>
						<g class="st0">
							<g>
								<g>
									<path class="st8" d="M165.0542,90.229c-1.0388-0.6014-2.725-0.6071-3.758-0.0044l-2.8832,1.6747
										c-1.0388,0.6029-1.0244,1.5798,0.0143,2.1812c1.0475,0.6071,2.7337,0.6071,3.7695,0l2.8804-1.6718
										C166.1073,91.8072,166.0988,90.8289,165.0542,90.229L165.0542,90.229z"/>
								</g>
							</g>
						</g>
					</g>
				</g>
			</g>
		</g>
	</g>
	<g>
		<g>
			<path class="st2" d="M110.5929,73.07c-1.6427,0.9484-2.9799,0.1773-2.9799-1.7205c0-1.8977,1.3372-4.2129,2.9799-5.1614
				s2.9799-0.1773,2.9799,1.7204S112.2356,72.1215,110.5929,73.07z M110.5929,67.9086c-0.8221,0.4746-1.49,1.6323-1.49,2.5807
				c0,0.9484,0.6679,1.3349,1.49,0.8602s1.49-1.6323,1.49-2.5807C112.0828,67.8204,111.415,67.4339,110.5929,67.9086z"/>
		</g>
		<g>
			<path class="st2" d="M94.2032,82.5325c-1.6427,0.9484-2.9799,0.1773-2.9799-1.7204c0-1.8977,1.3372-4.2129,2.9799-5.1614
				s2.9799-0.1773,2.9799,1.7204C97.1832,79.2689,95.846,81.5841,94.2032,82.5325z M94.2032,77.3712
				c-0.8221,0.4746-1.49,1.6323-1.49,2.5807s0.6679,1.3349,1.49,0.8602c0.8221-0.4746,1.49-1.6323,1.49-2.5807
				S95.0253,76.8965,94.2032,77.3712z"/>
		</g>
		<g>
			<path class="st2" d="M110.5929,67.9086l-16.3897,9.4626c-0.3463,0.1999-0.646,0.0983-0.7246-0.2445l-5.826-25.2213
				l-4.6241,2.6698c-0.4118,0.2377-0.745,0.0454-0.745-0.4301c0-0.4755,0.3332-1.0526,0.745-1.2903l5.2149-3.0108
				c0.3463-0.1999,0.646-0.0983,0.7246,0.2445l5.826,25.2213l15.7989-9.1215c0.4118-0.2377,0.745-0.0454,0.745,0.4301
				S111.0047,67.6708,110.5929,67.9086z"/>
		</g>
		<g>
			<path class="st2" d="M112.8278,63.1773L93.5019,74.3352c-0.4118,0.2377-0.745,0.0454-0.745-0.4301
				c0-0.4755,0.3332-1.0526,0.745-1.2904l18.789-10.8478l3.9737-16.0579L90.3473,60.6723c-0.4118,0.2377-0.745,0.0454-0.745-0.4301
				c0-0.4755,0.3332-1.0526,0.745-1.2903l26.9504-15.5598c0.2401-0.1386,0.4642-0.1353,0.6038,0.0084
				c0.1411,0.1428,0.179,0.41,0.1033,0.7157L113.535,62.181C113.4331,62.5909,113.1479,62.9925,112.8278,63.1773z"/>
		</g>
	</g>
</g>
<line class="st6" x1="175.1516" y1="135.8286" x2="197.5856" y2="122.2747"/>
<line class="st6" x1="196.6077" y1="122.5178" x2="209.3593" y2="129.7715"/>
<g>
	<g class="st0">
		<g>
			<g>
				<path class="st2" d="M212.3624,128.3641c-1.5042-0.8705-3.94-0.8705-5.4376,0c-1.4952,0.8705-1.4907,2.2801,0.0158,3.1495
					c1.5089,0.8705,3.9445,0.8705,5.4421,0C213.8803,130.6442,213.8713,129.2346,212.3624,128.3641L212.3624,128.3641z"/>
			</g>
		</g>
	</g>
</g>
</svg>
