<?xml version="1.0" encoding="utf-8"?>
<!-- Generator: Adobe Illustrator 19.1.0, SVG Export Plug-In . SVG Version: 6.00 Build 0)  -->
<svg version="1.1" id="Layer_1" xmlns="http://www.w3.org/2000/svg" xmlns:xlink="http://www.w3.org/1999/xlink" x="0px" y="0px"
	 viewBox="0 0 603.6 47.2" style="enable-background:new 0 0 603.6 47.2;" xml:space="preserve">
<style type="text/css">
	.st0{fill:#FFFFFF;}
</style>
<g>
	<path class="st0" d="M458.3,8.1c0.1-0.3,0.3-0.6,0.7-0.6h0.6c0.3,0,0.5,0.2,0.4,0.6l-10.4,38.4c-0.1,0.3-0.3,0.6-0.7,0.6h-0.6
		c-0.3,0-0.5-0.2-0.4-0.6L458.3,8.1z"/>
	<path class="st0" d="M482.7,45.8c0-0.3,0.1-0.5,0.2-0.7l14.5-19.4c2.1-2.8,3.3-5.5,3.3-8.4c0-4.9-3.3-8.2-8.2-8.2
		c-4.7,0-7.5,3-8.2,7.6c-0.1,0.3-0.3,0.5-0.7,0.4l-0.4-0.1c-0.3-0.1-0.5-0.3-0.5-0.6c0.7-4.7,4.1-8.8,9.8-8.8c5.8,0,9.9,4,9.9,9.8
		c0,3.3-1.5,6.2-4,9.6l-13.3,17.9v0.1h16.7c0.3,0,0.6,0.2,0.6,0.6v0.5c0,0.3-0.2,0.6-0.6,0.6h-18.6c-0.3,0-0.6-0.2-0.6-0.6V45.8z"/>
	<path class="st0" d="M520,27.3c0-9.3,0.6-11.9,1-13.2c1.4-4.3,4.6-6.6,9.4-6.6c4.7,0,8,2.3,9.4,6.6c0.4,1.2,1,3.8,1,13.2
		c0,9.3-0.6,11.9-1,13.2c-1.4,4.3-4.6,6.6-9.4,6.6c-4.7,0-8-2.3-9.4-6.6C520.6,39.2,520,36.6,520,27.3z M530.4,45.4
		c4,0,6.6-1.9,7.7-5.4c0.4-1.2,0.9-3.7,0.9-12.8c0-9-0.5-11.5-0.9-12.8c-1.2-3.6-3.7-5.4-7.7-5.4c-4,0-6.5,1.9-7.7,5.4
		c-0.4,1.2-0.9,3.7-0.9,12.8c0,9,0.5,11.5,0.9,12.8C523.8,43.6,526.4,45.4,530.4,45.4z"/>
	<path class="st0" d="M564.1,10.4h-0.1l-7.4,5.4c-0.3,0.2-0.6,0.1-0.6-0.3v-0.7c0-0.4,0.1-0.6,0.4-0.8l7.5-5.5
		c0.3-0.2,0.5-0.3,0.8-0.3h0.6c0.3,0,0.6,0.2,0.6,0.6v37.3c0,0.3-0.2,0.6-0.6,0.6h-0.6c-0.3,0-0.6-0.2-0.6-0.6V10.4z"/>
</g>
<g>
	<path class="st0" d="M27.6,26.7v1.8c0,3.9-0.5,8.3-1.1,10.1c-1.9,5.5-6.3,8.4-12.7,8.4C7.4,47,3,44.1,1.1,38.6
		C0.6,37,0,34.4,0,27.3c0-7.2,0.6-9.8,1.1-11.4C3,10.4,7.4,7.5,13.8,7.5c7.6,0,10.8,4.1,12.1,6.5c0.2,0.3,0.2,0.5,0.1,0.7
		c-0.1,0.2-0.2,0.3-0.3,0.4l-0.5,0.3c-0.4,0.2-0.8,0.1-1-0.2c-2.2-3.9-5.5-5.7-10.3-5.7c-5.3,0-9,2.4-10.6,7
		c-0.5,1.4-1.1,3.9-1.1,10.8c0,6.9,0.6,9.4,1.1,10.8c1.6,4.6,5.3,7,10.6,7c5.3,0,9-2.4,10.6-7c0.5-1.5,1.1-5.6,1.1-9.9
		c0-0.1,0-0.1-0.2-0.1h-9.2c-0.5,0-0.8-0.3-0.8-0.7v-0.5c0-0.4,0.3-0.7,0.8-0.7h10.8C27.3,25.9,27.6,26.3,27.6,26.7z M68.7,44.5
		H48.2c-0.1,0-0.2,0-0.2-0.1V8.8c0-0.4-0.3-0.7-0.8-0.7h-0.6c-0.5,0-0.8,0.3-0.8,0.7v36.9c0,0.4,0.3,0.7,0.8,0.7h22.1
		c0.5,0,0.8-0.3,0.8-0.7v-0.5C69.4,44.8,69.1,44.5,68.7,44.5z M108.3,15.9c0.6,1.7,1.2,4.3,1.2,11.4c0,7-0.6,9.7-1.2,11.4
		c-1.9,5.6-6.2,8.4-12.6,8.4S84.9,44.2,83,38.6c-0.6-1.7-1.2-4.3-1.2-11.4c0-7,0.6-9.7,1.2-11.4c1.9-5.6,6.2-8.4,12.6-8.4
		C102.1,7.5,106.3,10.3,108.3,15.9z M106.1,38c0.5-1.5,1.1-4,1.1-10.8c0-6.8-0.6-9.3-1.1-10.8c-1.6-4.6-5.2-7-10.5-7
		c-5.3,0-8.9,2.3-10.5,7c-0.5,1.5-1.1,4-1.1,10.8c0,6.8,0.6,9.3,1.1,10.8c1.6,4.6,5.2,7,10.5,7C101,45,104.5,42.7,106.1,38z
		 M239.8,44.5h-20.5c-0.1,0-0.2,0-0.2-0.1V8.8c0-0.4-0.3-0.7-0.8-0.7h-0.6c-0.5,0-0.8,0.3-0.8,0.7v36.9c0,0.4,0.3,0.7,0.8,0.7h22.1
		c0.5,0,0.8-0.3,0.8-0.7v-0.5C240.5,44.8,240.2,44.5,239.8,44.5z M388.1,8.1h-26.5c-0.5,0-0.8,0.3-0.8,0.7v0.5
		c0,0.4,0.3,0.7,0.8,0.7h12c0.1,0,0.2,0,0.2,0.1v35.5c0,0.4,0.3,0.7,0.8,0.7h0.7c0.5,0,0.8-0.3,0.8-0.7V10.2c0-0.1,0-0.1,0.2-0.1h12
		c0.5,0,0.8-0.3,0.8-0.7V8.8C388.9,8.4,388.6,8.1,388.1,8.1z M427.4,8.3c-0.1-0.2-0.3-0.3-0.6-0.3h-0.7c-0.5,0-0.8,0.1-1,0.6
		l-10.8,16.8l-11-16.8c-0.3-0.5-0.5-0.7-1.1-0.7h-0.7c-0.3,0-0.5,0.1-0.6,0.3c-0.1,0.2-0.1,0.4,0,0.7l12.2,19v17.7
		c0,0.4,0.3,0.7,0.8,0.7h0.6c0.5,0,0.8-0.3,0.8-0.7V28l12.1-19C427.5,8.8,427.5,8.5,427.4,8.3z M343.8,8.1h-0.6
		c-0.5,0-0.8,0.3-0.8,0.7v36.9c0,0.4,0.3,0.7,0.8,0.7h0.6c0.5,0,0.8-0.3,0.8-0.7V8.8C344.6,8.4,344.3,8.1,343.8,8.1z M311.6,9.5
		c4.4,0,7.7,1.8,9.8,5.6c0.2,0.4,0.7,0.5,1,0.3l0.6-0.3c0.2-0.1,0.3-0.3,0.3-0.4c0-0.2,0-0.4-0.1-0.6c-2.2-4.3-6.3-6.6-11.6-6.6
		c-6.3,0-10.4,2.8-12.3,8.2c-0.5,1.4-1.1,4-1.1,11.5c0,7.5,0.6,10.1,1.1,11.5c1.9,5.5,6,8.2,12.3,8.2c5.4,0,9.4-2.3,11.6-6.6
		c0.1-0.2,0.2-0.4,0.1-0.6c0-0.1-0.1-0.3-0.3-0.4l-0.6-0.3c-0.4-0.2-0.8-0.1-1,0.3c-2.2,3.7-5.4,5.6-9.8,5.6
		c-5.3,0-8.5-2.2-10.2-6.8c-0.4-1.2-1-3.7-1-11c0-7.3,0.6-9.7,1-11C303.1,11.7,306.3,9.5,311.6,9.5z M279.6,15.9
		c0.6,1.7,1.2,4.3,1.2,11.4c0,7-0.6,9.7-1.2,11.4c-1.9,5.6-6.2,8.4-12.6,8.4c-6.5,0-10.7-2.8-12.6-8.4c-0.6-1.7-1.2-4.3-1.2-11.4
		c0-7,0.6-9.7,1.2-11.4c1.9-5.6,6.2-8.4,12.6-8.4C273.5,7.5,277.7,10.3,279.6,15.9z M277.5,38c0.5-1.5,1.1-4,1.1-10.8
		c0-6.8-0.6-9.3-1.1-10.8c-1.6-4.6-5.2-7-10.5-7c-5.3,0-8.9,2.3-10.5,7c-0.5,1.5-1.1,4-1.1,10.8c0,6.8,0.6,9.3,1.1,10.8
		c1.6,4.6,5.2,7,10.5,7C272.3,45,275.9,42.7,277.5,38z M154.4,36.6c0,6.3-4.3,9.8-11.9,9.8h-13.1c-0.4,0-0.8-0.3-0.8-0.6V8.9
		c0-0.5,0.3-0.9,0.8-0.9h12.9c7.3,0,11.5,3.5,11.5,9.5c0,4.6-2.4,8.2-6.4,9.3C150.3,27.6,154.4,30.6,154.4,36.6z M152.2,36.6
		c0-5.4-3.6-8.6-9.7-8.6h-2.8c-0.5,0-0.8-0.3-0.8-0.7v-0.5c0-0.4,0.3-0.7,0.8-0.7l2.6,0c5.6,0,9.3-3.3,9.3-8.4
		c0-4.9-3.2-7.5-9.3-7.5H131c-0.2,0-0.2,0-0.2,0.1v34.1c0,0.1,0,0.1,0.2,0.1h11.5C148.9,44.5,152.2,41.7,152.2,36.6z M199.9,45.6
		L185.8,8.7c-0.1-0.2-0.2-0.7-0.8-0.7h-0.8c-0.6,0-0.8,0.5-0.8,0.7l-14.2,36.9c-0.1,0.2-0.1,0.4,0,0.6c0.1,0.2,0.3,0.2,0.5,0.2h0.8
		c0.5,0,0.8-0.2,0.9-0.7l13-34.2L190,26c0,0-6.9,0-7.2,0c-0.2,0-0.4,0.2-0.5,0.3c-0.1,0.1-0.4,1.1-0.5,1.3c-0.1,0.2,0.1,0.4,0.3,0.4
		c0.2,0,8.6,0,8.6,0l6.7,17.8c0.2,0.5,0.5,0.7,1,0.7h0.8c0.2,0,0.4-0.1,0.5-0.2C200,46.1,200,45.9,199.9,45.6z"/>
</g>
<g>
	<g>
		<g>
			<path class="st0" d="M588.4,47.2c-0.4,0-0.6-0.3-0.5-0.7L601.7,10c0.1-0.4-0.1-0.7-0.5-0.7h-17c-0.4,0-0.7-0.3-0.7-0.7V8.6
				c0-0.4,0.3-0.7,0.7-0.7h18.6c0.4,0,0.7,0.3,0.7,0.7l0,0.5c0,0.4-0.1,1-0.3,1.4l-13.6,36.1c-0.1,0.4-0.6,0.7-1,0.7L588.4,47.2z"/>
		</g>
	</g>
</g>
<g>
	<path class="st0" d="M437.2,14.6c-1.7,0-3.1-0.6-4.3-1.8c-1.2-1.2-1.8-2.6-1.8-4.3c0-1.7,0.6-3.1,1.8-4.3c1.2-1.2,2.6-1.8,4.3-1.8
		c1.7,0,3.1,0.6,4.3,1.8s1.8,2.6,1.8,4.3c0,1.7-0.6,3.1-1.8,4.3C440.3,14,438.9,14.6,437.2,14.6z M437.2,3.1c-1.5,0-2.7,0.5-3.8,1.6
		s-1.6,2.3-1.6,3.8c0,1.5,0.5,2.7,1.6,3.8c1,1.1,2.3,1.6,3.8,1.6c1.5,0,2.7-0.5,3.8-1.6c1-1.1,1.6-2.3,1.6-3.8
		c0-1.5-0.5-2.7-1.6-3.8S438.7,3.1,437.2,3.1z M438.8,11.8L437.2,9L436,9v2.8h-0.8V5h2.2c0.6,0,1.1,0.2,1.5,0.6
		c0.4,0.4,0.6,0.9,0.6,1.4c0,0.5-0.1,0.9-0.4,1.2c-0.3,0.3-0.7,0.6-1.1,0.7l1.7,2.9L438.8,11.8z M437.4,5.7H436v2.6h1.3
		c0.4,0,0.8-0.1,1-0.4s0.4-0.6,0.4-0.9c0-0.4-0.1-0.7-0.4-0.9C438.1,5.9,437.8,5.7,437.4,5.7z"/>
</g>
</svg>
