<svg id="Layer_1" data-name="Layer 1" xmlns="http://www.w3.org/2000/svg" viewBox="0 0 264.29 103.57"><defs><style>.cls-1{fill:#fff;}</style></defs><title>Artboard 1 copy 2</title><path class="cls-1" d="M42.55,28.54h8.59l4.34,13.6h.06l4.54-13.6h8.27V49H63l.09-15.71H63L57.82,49h-5l-5-15.71h-.06L47.89,49H42.55Z"/><path class="cls-1" d="M71,51.15a6.3,6.3,0,0,0,2.08.32,2.68,2.68,0,0,0,2.66-2.11L69.61,33.73h5.69l3.29,10h.06l3.13-10h5.28L81.45,48C80,51.79,78.81,55.52,74,55.52a15.42,15.42,0,0,1-3.28-.35Z"/><path class="cls-1" d="M103.29,31.92a8.23,8.23,0,0,0-4.22-1.14c-4.72,0-7.86,3.4-7.86,8a7.63,7.63,0,0,0,7.71,8,10.05,10.05,0,0,0,4.46-1l.18,2.85a12.84,12.84,0,0,1-4.66.73c-6.48,0-10.79-4.16-10.79-10.67,0-6.3,4.57-10.5,10.82-10.5a11.33,11.33,0,0,1,4.6.88Z"/><path class="cls-1" d="M111.23,33.7c4.54,0,7.59,3.28,7.59,7.83a7.61,7.61,0,1,1-15.21,0C103.61,37,106.66,33.7,111.23,33.7Zm0,13.43c3.23,0,4.66-2.93,4.66-5.6,0-2.84-1.73-5.6-4.66-5.6s-4.69,2.76-4.69,5.6C106.54,44.2,108,47.13,111.23,47.13Z"/><path class="cls-1" d="M120.29,34.05h2.58v2.17h.06a5.06,5.06,0,0,1,4.75-2.52,4.43,4.43,0,0,1,4.25,2.9,5.33,5.33,0,0,1,4.63-2.9c3.81,0,5.19,2.46,5.19,5.72V49H139V40.1c0-1.85-.44-4.16-2.67-4.16-2.82,0-3.93,2.76-3.93,5.54V49h-2.76V40.1c0-1.85-.44-4.16-2.67-4.16-2.81,0-3.93,2.76-3.93,5.54V49h-2.76Z"/><path class="cls-1" d="M144.16,34.05h2.58v2.17h.06a5.06,5.06,0,0,1,4.75-2.52,4.42,4.42,0,0,1,4.25,2.9,5.33,5.33,0,0,1,4.63-2.9c3.81,0,5.19,2.46,5.19,5.72V49h-2.76V40.1c0-1.85-.44-4.16-2.67-4.16-2.82,0-3.93,2.76-3.93,5.54V49h-2.76V40.1c0-1.85-.44-4.16-2.67-4.16-2.81,0-3.93,2.76-3.93,5.54V49h-2.75Z"/><path class="cls-1" d="M180.25,48.39a11.42,11.42,0,0,1-4.72,1c-5.3,0-7.74-3.22-7.74-8.09,0-4.43,2.78-7.56,7-7.56,5,0,6.6,3.63,6.6,8.44H170.72a4.89,4.89,0,0,0,4.92,5,8.85,8.85,0,0,0,4.61-1.5Zm-1.79-8.29c0-2.29-1.35-4.16-3.72-4.16-2.7,0-3.81,2.23-4,4.16Z"/><path class="cls-1" d="M182.88,34.05h2.58v2.31h.06a4.55,4.55,0,0,1,3.9-2.67,7.69,7.69,0,0,1,1.82.21v2.46a4.08,4.08,0,0,0-1.52-.26c-2.46,0-4.08,2.35-4.08,6.1V49h-2.76Z"/><path class="cls-1" d="M201.59,36.57a8,8,0,0,0-3-.64c-3.08,0-4.81,2.76-4.81,5.6,0,2.67,1.44,5.6,5,5.6a5.81,5.81,0,0,0,3-.85l.21,2.46a8.43,8.43,0,0,1-3.46.62,7.56,7.56,0,0,1-7.62-7.83c0-4.54,3-7.83,7.62-7.83a10.33,10.33,0,0,1,3.34.59Z"/><path class="cls-1" d="M215.1,48.39a11.4,11.4,0,0,1-4.72,1c-5.31,0-7.74-3.22-7.74-8.09,0-4.43,2.78-7.56,7-7.56,5,0,6.6,3.63,6.6,8.44H205.57a4.9,4.9,0,0,0,4.93,5,8.83,8.83,0,0,0,4.6-1.5Zm-1.79-8.29c0-2.29-1.35-4.16-3.72-4.16-2.7,0-3.81,2.23-4,4.16Z"/><path class="cls-1" d="M217.46,47h-.76v-.42h2V47h-.77V49h-.45Zm1.81-.42H220l.65,1.68.64-1.68h.7V49h-.45v-1.9h0l-.7,1.9h-.37l-.7-1.9h0V49h-.46Z"/><path class="cls-1" d="M48.54,68.42l-.64-1.87H44.22l-.64,1.87H42.07l3.42-9.32h1.14L50,68.42ZM46.09,61.2l-1.45,4.14H47.5Z"/><path class="cls-1" d="M58.89,67.53a3.39,3.39,0,0,1-2.46.89H53.06V59.1h3.37a3.39,3.39,0,0,1,2.46.89c1,1,.94,2.33.94,3.73S59.94,66.48,58.89,67.53Zm-1.27-6.23a1.63,1.63,0,0,0-1.36-.58H54.88v6.08h1.37a1.63,1.63,0,0,0,1.36-.58c.34-.42.39-1.09.39-2.5S58,61.71,57.62,61.29Z"/><path class="cls-1" d="M60.88,60.43V59h1.74v1.39Zm0,8V61.6h1.7v6.82Z"/><path class="cls-1" d="M66.21,71a3.19,3.19,0,0,1-2.47-.89L64.79,69a1.74,1.74,0,0,0,1.34.52,1.29,1.29,0,0,0,1.37-1.41v-.69a2,2,0,0,1-1.62.68,2.28,2.28,0,0,1-1.62-.6c-.64-.64-.69-1.52-.69-2.71s.05-2.06.69-2.7a2.3,2.3,0,0,1,1.64-.6,2,2,0,0,1,1.66.72V61.6H69.2v6.57A2.77,2.77,0,0,1,66.21,71Zm.17-7.95c-1,0-1.11.86-1.11,1.77s.1,1.78,1.11,1.78,1.13-.88,1.13-1.78S67.38,63.05,66.38,63.05Z"/><path class="cls-1" d="M70.43,60.43V59h1.74v1.39Zm0,8V61.6h1.7v6.82Z"/><path class="cls-1" d="M75.54,68.42a1.85,1.85,0,0,1-2-2V63.09h-.72v-1.3h.72v-2h1.7v2h1.2v1.3h-1.2v3.27c0,.39.18.62.59.62h.62v1.44Z"/><path class="cls-1" d="M80.82,68.42v-.59a2.07,2.07,0,0,1-1.68.65,2.33,2.33,0,0,1-1.74-.6,2.19,2.19,0,0,1-.56-1.53c0-1.09.75-2,2.33-2h1.61V64c0-.75-.37-1.07-1.27-1.07a1.46,1.46,0,0,0-1.31.56l-1.09-1.06a2.87,2.87,0,0,1,2.46-.94c1.91,0,2.91.81,2.91,2.41v4.49Zm0-2.88H79.43c-.62,0-1,.29-1,.77s.31.79,1,.79a1.34,1.34,0,0,0,1.07-.33,1.12,1.12,0,0,0,.25-.86Z"/><path class="cls-1" d="M85.58,68.42a1.85,1.85,0,0,1-2-2V59.1h1.7v7.27c0,.41.17.62.6.62h.65v1.44Z"/><path class="cls-1" d="M94.72,68.42,92.9,64.7H91.59v3.72H89.77V59.1h3.65a2.82,2.82,0,0,1,3,2.86,2.51,2.51,0,0,1-1.7,2.45l2.08,4Zm-1.41-7.7H91.59v2.46H93.3a1.23,1.23,0,1,0,0-2.46Z"/><path class="cls-1" d="M97.52,60.43V59h1.74v1.39Zm0,8V61.6h1.7v6.82Z"/><path class="cls-1" d="M103.43,68.42H102.1L99.59,61.6h1.79l1.39,4.21,1.38-4.21h1.79Z"/><path class="cls-1" d="M107.49,65.54A1.41,1.41,0,0,0,109,67.06a1.88,1.88,0,0,0,1.54-.64l1,1A3.24,3.24,0,0,1,109,68.5c-1.61,0-3.16-.73-3.16-3.5,0-2.22,1.2-3.48,3-3.48s3,1.39,3,3.26v.76Zm2.44-1.9a1.27,1.27,0,0,0-2.28,0,1.88,1.88,0,0,0-.16.73h2.59A1.88,1.88,0,0,0,109.93,63.64Z"/><path class="cls-1" d="M116.38,63.45a1.14,1.14,0,0,0-2,.85v4.11h-1.7V61.6h1.66v.65a2.31,2.31,0,0,1,1.71-.73,2.05,2.05,0,0,1,1.61.64Z"/><path class="cls-1" d="M123.74,68.5a3.38,3.38,0,0,1-2.45-1c-.92-.92-.9-2-.9-3.74s0-2.83.9-3.75a3.39,3.39,0,0,1,2.45-1,3.21,3.21,0,0,1,3.32,2.87h-1.44a1.93,1.93,0,0,0-3.26-1c-.46.5-.56,1-.56,2.91s.1,2.41.56,2.91a1.86,1.86,0,0,0,1.38.56,1.88,1.88,0,0,0,1.9-1.6h1.43A3.21,3.21,0,0,1,123.74,68.5Z"/><path class="cls-1" d="M132.57,67.71a2.69,2.69,0,0,1-2,.79,2.65,2.65,0,0,1-2-.79,3.5,3.5,0,0,1-.79-2.62,3.49,3.49,0,0,1,.79-2.61,2.65,2.65,0,0,1,2-.79,2.69,2.69,0,0,1,2,.79,3.5,3.5,0,0,1,.79,2.61A3.51,3.51,0,0,1,132.57,67.71Zm-1-4.44a1.34,1.34,0,0,0-1-.38,1.32,1.32,0,0,0-1,.38,2.56,2.56,0,0,0-.46,1.82,2.57,2.57,0,0,0,.46,1.82,1.33,1.33,0,0,0,1,.39,1.36,1.36,0,0,0,1-.39,2.57,2.57,0,0,0,.46-1.82A2.56,2.56,0,0,0,131.56,63.27Z"/><path class="cls-1" d="M142.6,68.42v-4a1.29,1.29,0,0,0-1.34-1.48,1.31,1.31,0,0,0-1.37,1.41v4.11h-1.34v-4c0-1-.59-1.48-1.33-1.48a1.32,1.32,0,0,0-1.37,1.48v4h-1.34V61.78h1.31v.67a2.4,2.4,0,0,1,1.77-.75,2.13,2.13,0,0,1,1.89,1,2.52,2.52,0,0,1,2.08-1,2.4,2.4,0,0,1,1.68.6,2.46,2.46,0,0,1,.71,1.87v4.24Z"/><path class="cls-1" d="M150,67.91a2.26,2.26,0,0,1-1.61.59,2.07,2.07,0,0,1-1.74-.76V71.1h-1.33V61.78h1.31v.71a2,2,0,0,1,1.75-.79,2.29,2.29,0,0,1,1.62.59,4,4,0,0,1,.75,2.8A4,4,0,0,1,150,67.91Zm-2-5c-1.21,0-1.39,1-1.39,2.2s.18,2.21,1.39,2.21,1.38-1,1.38-2.21S149.26,62.89,148.06,62.89Z"/><path class="cls-1" d="M155.49,68.42v-.6a2.18,2.18,0,0,1-1.77.68,2.34,2.34,0,0,1-1.78-.6,2,2,0,0,1-.52-1.43c0-1.11.77-1.91,2.29-1.91h1.75v-.47c0-.84-.42-1.24-1.45-1.24a1.55,1.55,0,0,0-1.45.64l-.88-.82a2.72,2.72,0,0,1,2.38-1c1.82,0,2.74.77,2.74,2.28v4.44Zm0-2.93h-1.56c-.79,0-1.19.35-1.19,1s.38.94,1.22.94a1.59,1.59,0,0,0,1.24-.38,1.34,1.34,0,0,0,.29-1Z"/><path class="cls-1" d="M162.25,68.42v-4a1.29,1.29,0,0,0-1.34-1.48,1.32,1.32,0,0,0-1.37,1.48v4H158.2V61.78h1.31v.67a2.38,2.38,0,0,1,1.77-.75,2.3,2.3,0,0,1,1.64.6,2.44,2.44,0,0,1,.67,1.87v4.24Z"/><path class="cls-1" d="M167.06,69.74a2.12,2.12,0,0,1-.48.82,1.84,1.84,0,0,1-1.36.48h-.54v-1.2H165c.56,0,.76-.17,1-.71l.37-1L164,61.78h1.41L167,66.45l1.55-4.67H170Z"/></svg>