<?xml version="1.0" encoding="utf-8"?>
<!-- Generator: Adobe Illustrator 19.1.0, SVG Export Plug-In . SVG Version: 6.00 Build 0)  -->
<svg version="1.1" id="Layer_1" xmlns="http://www.w3.org/2000/svg" xmlns:xlink="http://www.w3.org/1999/xlink" x="0px" y="0px"
	 viewBox="0 0 179.9 42.9" style="enable-background:new 0 0 179.9 42.9;" xml:space="preserve">
<style type="text/css">
	.st0{fill:#00B5DF;}
</style>
<g>
	<g>
		<g>
			<g>
				<path class="st0" d="M0.5,0.4h8.6L13.4,14h0.1L18,0.4h8.3v20.5h-5.3L21,5.1H21l-5.2,15.7h-5l-5-15.7H5.7l0.1,15.7H0.5V0.4z"/>
				<path class="st0" d="M29,23c0.7,0.2,1.3,0.3,2.1,0.3c1.3,0,2.3-0.8,2.7-2.1L27.5,5.5h5.7l3.3,10h0.1l3.1-10H45l-5.6,14.2
					c-1.5,3.8-2.6,7.6-7.5,7.6c-1.1,0-2.2-0.1-3.3-0.4L29,23z"/>
				<path d="M61.2,3.7C59.9,3,58.5,2.6,57,2.6c-4.7,0-7.9,3.4-7.9,8c0,4.8,3.5,8,7.7,8c1.5,0,3.4-0.4,4.5-1l0.2,2.8
					c-1.6,0.6-3.5,0.7-4.7,0.7C50.3,21.2,46,17,46,10.5C46,4.2,50.6,0,56.9,0c1.6,0,3.1,0.2,4.6,0.9L61.2,3.7z"/>
				<path d="M69.2,5.5c4.5,0,7.6,3.3,7.6,7.8c0,4.3-3.1,7.8-7.6,7.8c-4.5,0-7.6-3.5-7.6-7.8C61.5,8.8,64.6,5.5,69.2,5.5z M69.2,18.9
					c3.2,0,4.7-2.9,4.7-5.6c0-2.8-1.7-5.6-4.7-5.6c-3,0-4.7,2.8-4.7,5.6C64.5,16,65.9,18.9,69.2,18.9z"/>
				<path d="M78.2,5.9h2.6V8h0.1c1.1-1.7,2.5-2.5,4.8-2.5c1.7,0,3.5,0.9,4.3,2.9c1-2.1,3.3-2.9,4.6-2.9c3.8,0,5.2,2.5,5.2,5.7v9.6
					h-2.8v-8.9c0-1.8-0.4-4.2-2.7-4.2c-2.8,0-3.9,2.8-3.9,5.5v7.5h-2.8v-8.9c0-1.8-0.4-4.2-2.7-4.2c-2.8,0-3.9,2.8-3.9,5.5v7.5h-2.8
					V5.9z"/>
				<path d="M102.1,5.9h2.6V8h0.1c1.1-1.7,2.5-2.5,4.7-2.5c1.7,0,3.5,0.9,4.3,2.9c1-2.1,3.3-2.9,4.6-2.9c3.8,0,5.2,2.5,5.2,5.7v9.6
					h-2.8v-8.9c0-1.8-0.4-4.2-2.7-4.2c-2.8,0-3.9,2.8-3.9,5.5v7.5h-2.8v-8.9c0-1.8-0.4-4.2-2.7-4.2c-2.8,0-3.9,2.8-3.9,5.5v7.5h-2.8
					V5.9z"/>
				<path d="M138.2,20.2c-1.1,0.4-2.3,1-4.7,1c-5.3,0-7.7-3.2-7.7-8.1c0-4.4,2.8-7.6,7-7.6c5,0,6.6,3.6,6.6,8.4h-10.7
					c0,3,2.3,5,4.9,5c1.8,0,3.9-0.9,4.6-1.5V20.2z M136.4,11.9c0-2.3-1.3-4.2-3.7-4.2c-2.7,0-3.8,2.2-4,4.2H136.4z"/>
				<path d="M140.8,5.9h2.6v2.3h0.1c0.7-1.6,2.3-2.7,3.9-2.7c0.8,0,1.2,0.1,1.8,0.2v2.5c-0.5-0.2-1.1-0.3-1.5-0.3
					c-2.5,0-4.1,2.3-4.1,6.1v6.8h-2.8V5.9z"/>
				<path d="M159.5,8.4c-1.1-0.4-2.1-0.6-3-0.6c-3.1,0-4.8,2.8-4.8,5.6c0,2.7,1.4,5.6,5,5.6c0.9,0,2.1-0.3,3-0.8l0.2,2.5
					c-1.1,0.5-2.5,0.6-3.5,0.6c-4.5,0-7.6-3.5-7.6-7.8c0-4.5,3-7.8,7.6-7.8c1.1,0,2.6,0.3,3.3,0.6L159.5,8.4z"/>
				<path d="M173,20.2c-1.1,0.4-2.3,1-4.7,1c-5.3,0-7.7-3.2-7.7-8.1c0-4.4,2.8-7.6,7-7.6c5,0,6.6,3.6,6.6,8.4h-10.7c0,3,2.3,5,4.9,5
					c1.8,0,3.9-0.9,4.6-1.5V20.2z M171.2,11.9c0-2.3-1.4-4.2-3.7-4.2c-2.7,0-3.8,2.2-4,4.2H171.2z"/>
			</g>
			<g>
				<path d="M175.4,18.8h-0.8v-0.4h2v0.4h-0.8v2.1h-0.5V18.8z M177.2,18.3h0.7l0.6,1.7l0.6-1.7h0.7v2.5h-0.5v-1.9h0l-0.7,1.9h-0.4
					l-0.7-1.9h0v1.9h-0.5V18.3z"/>
			</g>
		</g>
		<g>
			<path d="M6.5,40.2l-0.6-1.9H2.1l-0.6,1.9H0l3.4-9.3h1.1L8,40.2H6.5z M4,33l-1.5,4.1h2.9L4,33z"/>
			<path d="M16.8,39.3c-0.6,0.6-1.5,0.9-2.5,0.9H11v-9.3h3.4c1,0,1.8,0.3,2.5,0.9c1,1,0.9,2.3,0.9,3.7
				C17.8,36.9,17.9,38.3,16.8,39.3z M15.6,33.1c-0.3-0.4-0.7-0.6-1.4-0.6h-1.4v6.1h1.4c0.6,0,1-0.2,1.4-0.6c0.3-0.4,0.4-1.1,0.4-2.5
				C15.9,34.1,15.9,33.5,15.6,33.1z"/>
			<path d="M18.8,32.2v-1.4h1.7v1.4H18.8z M18.8,40.2v-6.8h1.7v6.8H18.8z"/>
			<path d="M24.1,42.8c-1,0-1.8-0.2-2.5-0.9l1.1-1.1c0.4,0.4,0.8,0.5,1.3,0.5c1,0,1.4-0.7,1.4-1.4v-0.7c-0.4,0.5-1,0.7-1.6,0.7
				c-0.7,0-1.2-0.2-1.6-0.6c-0.6-0.6-0.7-1.5-0.7-2.7c0-1.2,0.1-2.1,0.7-2.7c0.4-0.4,1-0.6,1.6-0.6c0.7,0,1.2,0.2,1.7,0.7v-0.6h1.6
				V40C27.1,41.6,26,42.8,24.1,42.8z M24.3,34.9c-1,0-1.1,0.9-1.1,1.8c0,0.9,0.1,1.8,1.1,1.8s1.1-0.9,1.1-1.8
				C25.4,35.7,25.3,34.9,24.3,34.9z"/>
			<path d="M28.4,32.2v-1.4h1.7v1.4H28.4z M28.4,40.2v-6.8h1.7v6.8H28.4z"/>
			<path d="M33.5,40.2c-1.4,0-2-1-2-2v-3.4h-0.7v-1.3h0.7v-2h1.7v2h1.2v1.3h-1.2v3.3c0,0.4,0.2,0.6,0.6,0.6h0.6v1.4H33.5z"/>
			<path d="M38.7,40.2v-0.6c-0.5,0.5-0.9,0.7-1.7,0.7c-0.8,0-1.3-0.2-1.7-0.6c-0.4-0.4-0.6-0.9-0.6-1.5c0-1.1,0.7-2,2.3-2h1.6v-0.3
				c0-0.7-0.4-1.1-1.3-1.1c-0.7,0-1,0.2-1.3,0.6L35,34.3c0.7-0.7,1.3-0.9,2.5-0.9c1.9,0,2.9,0.8,2.9,2.4v4.5H38.7z M38.7,37.3h-1.3
				c-0.6,0-1,0.3-1,0.8c0,0.5,0.3,0.8,1,0.8c0.5,0,0.8,0,1.1-0.3c0.2-0.2,0.3-0.4,0.3-0.9V37.3z"/>
			<path d="M43.5,40.2c-1.4,0-2-1-2-2v-7.4h1.7v7.3c0,0.4,0.2,0.6,0.6,0.6h0.7v1.4H43.5z"/>
			<path d="M52.7,40.2l-1.8-3.7h-1.3v3.7h-1.8v-9.3h3.7c1.9,0,3,1.3,3,2.9c0,1.3-0.8,2.1-1.7,2.4l2.1,4H52.7z M51.2,32.5h-1.7V35
				h1.7c0.8,0,1.3-0.5,1.3-1.2C52.6,33,52,32.5,51.2,32.5z"/>
			<path d="M55.5,32.2v-1.4h1.7v1.4H55.5z M55.5,40.2v-6.8h1.7v6.8H55.5z"/>
			<path d="M61.4,40.2H60l-2.5-6.8h1.8l1.4,4.2l1.4-4.2h1.8L61.4,40.2z"/>
			<path d="M65.4,37.3c0,0.9,0.5,1.5,1.5,1.5c0.7,0,1.1-0.2,1.5-0.6l1,1c-0.7,0.7-1.4,1.1-2.6,1.1c-1.6,0-3.2-0.7-3.2-3.5
				c0-2.2,1.2-3.5,3-3.5c1.9,0,3,1.4,3,3.3v0.8H65.4z M67.9,35.4c-0.2-0.4-0.6-0.7-1.1-0.7c-0.6,0-1,0.3-1.1,0.7
				c-0.1,0.3-0.1,0.4-0.2,0.7H68C68,35.9,68,35.7,67.9,35.4z"/>
			<path d="M74.3,35.3c-0.3-0.3-0.5-0.4-0.9-0.4c-0.5,0-1.1,0.4-1.1,1.3v4.1h-1.7v-6.8h1.7v0.7c0.3-0.4,1-0.7,1.7-0.7
				c0.7,0,1.1,0.2,1.6,0.6L74.3,35.3z"/>
			<path d="M81.7,40.3c-1,0-1.8-0.4-2.4-1c-0.9-0.9-0.9-2-0.9-3.7c0-1.8,0-2.8,0.9-3.7c0.6-0.6,1.5-1,2.4-1c1.7,0,3,1,3.3,2.9h-1.4
				c-0.2-0.9-0.9-1.6-1.9-1.6c-0.6,0-1,0.2-1.4,0.6c-0.5,0.5-0.6,1-0.6,2.9c0,1.9,0.1,2.4,0.6,2.9c0.3,0.4,0.8,0.6,1.4,0.6
				c1,0,1.7-0.7,1.9-1.6H85C84.7,39.3,83.4,40.3,81.7,40.3z"/>
			<path d="M90.5,39.5c-0.4,0.4-1.1,0.8-2,0.8c-0.9,0-1.5-0.3-2-0.8c-0.6-0.7-0.8-1.5-0.8-2.6c0-1.1,0.2-1.9,0.8-2.6
				c0.4-0.4,1.1-0.8,2-0.8c0.9,0,1.6,0.3,2,0.8c0.6,0.7,0.8,1.5,0.8,2.6C91.3,38,91.1,38.9,90.5,39.5z M89.5,35.1
				c-0.2-0.3-0.6-0.4-1-0.4c-0.4,0-0.7,0.1-1,0.4c-0.4,0.4-0.5,1.1-0.5,1.8c0,0.7,0.1,1.4,0.5,1.8c0.2,0.2,0.6,0.4,1,0.4
				c0.4,0,0.7-0.1,1-0.4c0.4-0.4,0.5-1.1,0.5-1.8C90,36.2,89.9,35.5,89.5,35.1z"/>
			<path d="M100.5,40.2v-4c0-1-0.6-1.5-1.3-1.5c-0.7,0-1.4,0.5-1.4,1.4v4.1h-1.3v-4c0-1-0.6-1.5-1.3-1.5c-0.7,0-1.4,0.5-1.4,1.5v4
				h-1.3v-6.6h1.3v0.7c0.4-0.5,1.1-0.7,1.8-0.7c0.8,0,1.5,0.3,1.9,1c0.5-0.7,1.2-1,2.1-1c0.7,0,1.3,0.2,1.7,0.6
				c0.5,0.5,0.7,1.1,0.7,1.9v4.2H100.5z"/>
			<path d="M108,39.7c-0.4,0.4-0.9,0.6-1.6,0.6c-0.7,0-1.3-0.2-1.7-0.8v3.4h-1.3v-9.3h1.3v0.7c0.5-0.6,1-0.8,1.8-0.8
				c0.7,0,1.3,0.2,1.6,0.6c0.7,0.7,0.7,1.8,0.7,2.8C108.7,37.9,108.6,39,108,39.7z M106,34.7c-1.2,0-1.4,1-1.4,2.2
				c0,1.2,0.2,2.2,1.4,2.2c1.2,0,1.4-1,1.4-2.2C107.4,35.7,107.2,34.7,106,34.7z"/>
			<path d="M113.4,40.2v-0.6c-0.5,0.5-0.9,0.7-1.8,0.7c-0.8,0-1.4-0.2-1.8-0.6c-0.3-0.4-0.5-0.9-0.5-1.4c0-1.1,0.8-1.9,2.3-1.9h1.8
				v-0.5c0-0.8-0.4-1.2-1.5-1.2c-0.7,0-1.1,0.2-1.5,0.6l-0.9-0.8c0.6-0.7,1.3-1,2.4-1c1.8,0,2.7,0.8,2.7,2.3v4.4H113.4z M113.4,37.3
				h-1.6c-0.8,0-1.2,0.4-1.2,1c0,0.6,0.4,0.9,1.2,0.9c0.5,0,0.9,0,1.2-0.4c0.2-0.2,0.3-0.5,0.3-1V37.3z"/>
			<path d="M120.2,40.2v-4c0-1-0.6-1.5-1.3-1.5c-0.7,0-1.4,0.5-1.4,1.5v4h-1.3v-6.6h1.3v0.7c0.5-0.5,1.1-0.7,1.8-0.7
				c0.7,0,1.2,0.2,1.6,0.6c0.5,0.5,0.7,1.1,0.7,1.9v4.2H120.2z"/>
			<path d="M125,41.5c-0.1,0.4-0.3,0.6-0.5,0.8c-0.4,0.4-0.9,0.5-1.4,0.5h-0.5v-1.2h0.3c0.6,0,0.8-0.2,1-0.7l0.4-1l-2.3-6.3h1.4
				l1.6,4.7l1.5-4.7h1.4L125,41.5z"/>
		</g>
	</g>
</g>
</svg>
