<?xml version="1.0" encoding="utf-8"?>
<!-- Generator: Adobe Illustrator 19.1.0, SVG Export Plug-In . SVG Version: 6.00 Build 0)  -->
<svg version="1.1" xmlns="http://www.w3.org/2000/svg" xmlns:xlink="http://www.w3.org/1999/xlink" x="0px" y="0px"
	 viewBox="0 0 151 137.4" style="enable-background:new 0 0 151 137.4;" xml:space="preserve">
<defs>
<g id="blue">
	<g>
		<g>
			<path class="st0" d="M41.6,84.4h7l0-7.2c0-2.4,1.3-4.4,3.2-5.3h-5.6H12.4c0,2.5,0.2,5,0.4,7.5C16.5,83.3,23.9,84.1,41.6,84.4z"/>
			<path class="st0" d="M41.6,126.6c2.2,1.4,4.5,2.8,6.9,4l0-4H41.6z"/>
			<path class="st0" d="M78.7,92.2V71.8H56.3c0.6,0.3,1.2,0.6,1.8,1.2L78.7,92.2z"/>
			<path class="st0" d="M78.7,137.4v-6.7v-15l-20.2,18.7C64.8,136.4,71.6,137.4,78.7,137.4z"/>
			<path class="st0" d="M78.7,7.5c-9.3,6.3-16.9,14.6-22.4,24h22.4V7.5z"/>
			<path class="st0" d="M46.3,65.6h32.4v-28H53.1C49.1,46.3,46.7,55.8,46.3,65.6z"/>
			<path class="st0" d="M78.7,0L78.7,0C55.8,1,35.7,13.3,24,31.5h25.3C55.9,18.7,66,7.8,78.7,0z"/>
			<path class="st0" d="M46.3,37.7H20.4c-4.3,8.5-6.9,17.9-7.4,28h27C40.5,55.9,42.6,46.4,46.3,37.7z"/>
			<path class="st0" d="M123.6,65.6h27c-0.4-10-3.1-19.5-7.4-28h-25.7C121.1,46.4,123.2,55.9,123.6,65.6z"/>
			<path class="st0" d="M114.6,31.5h25.1C128,13.5,108.2,1.2,85.5,0C98,7.8,108,18.7,114.6,31.5z"/>
			<path class="st0" d="M85.4,137.4c22.4-1.2,42-13.1,53.8-30.8h-25.1C107.5,119.1,97.7,129.8,85.4,137.4z"/>
			<path class="st0" d="M117.1,100.5h25.7c4.5-8.6,7.3-18.4,7.7-28.7h-27C123.2,81.8,120.9,91.5,117.1,100.5z"/>
			<path class="st0" d="M107,106.7H87.7c-0.4,0.8-0.9,1.5-1.5,2.1l-1.3,1.2v20.4C94,124.2,101.5,116,107,106.7z"/>
			<path class="st0" d="M84.9,7.1v24.4h22.6C102,21.9,94.3,13.5,84.9,7.1z"/>
			<path class="st0" d="M110.7,37.7H84.9v28h32.4C116.9,55.8,114.6,46.4,110.7,37.7z"/>
			<path class="st0" d="M87.3,100.5h23c4.2-8.9,6.7-18.6,7.1-28.7H84.9V98l1.3,1.2C86.7,99.6,87,100,87.3,100.5z"/>
		</g>
		<path class="st0" d="M83.5,103.3L54.6,76.4c-0.7-0.7-1.3-0.4-1.3,0.6l0,12.4H41C8.1,88.9,5.2,85.6,2.4,65.6c-0.1-0.5-0.5-0.9-1-1
			c-0.3-0.1-0.7,0-0.9,0.2C0.2,65.1,0,65.4,0,65.7v17.7c0,25.7,14.2,39.3,41,39.3h12.2l0,9.3c0,1,0.6,1.3,1.3,0.6l28.9-26.9
			C84.2,105,84.2,103.9,83.5,103.3z"/>
	</g>
</g>
<g id="green">
	<g>
		<path class="st0" d="M39.1,63.5C19.2,63.5,3,79.7,3,99.6c0,19.9,16.2,36.1,36.1,36.1c19.9,0,36.1-16.2,36.1-36.1
			C75.2,79.7,59,63.5,39.1,63.5z M55.2,118.4c-2.4,2.2-5.1,3.3-8,3.3c-0.2,0-0.4,0-0.6,0c-2.3-0.1-4.4-0.8-6.4-1.4
			c-0.5-0.1-0.9-0.3-1.3-0.4c-1-0.3-2-0.7-3.1-0.9c-2.4-0.4-4.7,0-7,1.3c-0.4,0.2-0.7,0.4-1.1,0.6c-0.1,0.1-0.3,0.2-0.5,0.2
			c-0.2,0-0.4-0.1-0.6-0.4c-0.9-1.2-1.7-2.4-2.6-3.5c-0.4-0.6,0-0.9,0.2-1.1c1.9-1.7,3.8-3.5,5.4-5.8c1.4-2,2-4,1.8-6.1
			c-0.1-1.2-0.5-2.4-1.2-3.8c0-0.1,0-0.1-0.2-0.1h-5.7c-0.9,0-1.1-0.2-1.1-1.1c0-0.3,0-0.6,0-1c0-0.4,0-0.8,0-1.3
			c0-0.2,0-0.5,0.2-0.7c0.2-0.2,0.5-0.2,0.7-0.2c0.6,0,1.2,0,1.8,0h2c-0.6-1-1.2-2.1-1.8-3.3c-1.9-3.8-1.7-7.6,0.5-11.4
			c2.3-3.9,5.9-6.3,10.8-7.1c3.2-0.5,6.2-0.2,8.8,0.9c4.3,1.8,6.9,5,7.6,9.7c0.2,1.2,0.3,2.4,0.3,3.6c0,0.2,0,0.5-0.2,0.7
			c-0.2,0.2-0.5,0.2-0.6,0.2c-0.6,0-1.2,0-1.7,0l-2.8,0c-0.6,0-0.9-0.3-0.9-0.8c-0.1-1.2-0.2-2.2-0.5-3.3c-0.9-3.5-3.3-5.4-6.9-5.5
			c-0.2,0-0.5,0-0.7,0c-1.7,0-2.9,0.2-4,0.7c-2.4,1.1-3.8,3-4.2,5.8c-0.2,1.5,0.1,3.1,0.8,4.9c0.5,1.3,1.3,2.6,2,3.8
			c0.2,0.3,0.4,0.7,0.6,1c0.1,0.1,0.1,0.1,0.4,0.1h8.8c0.9,0,1.1,0.2,1.1,1.1v1.9c0,1.2-0.2,1.3-1.3,1.3h-6.7c-0.1,0-0.2,0-0.3,0
			c0,0.1,0,0.2,0.1,0.2c0.3,1.1,0.6,2.2,0.7,3.3c0.1,1.9-0.5,3.8-1.9,5.9c-1.1,1.7-2.4,3.2-3.7,4.5c1.1-0.5,2.2-0.8,3.4-1
			c1.9-0.3,3.9-0.2,6.2,0.5c1.5,0.4,2.8,0.8,4.2,1.1c1.9,0.4,3.7,0.1,5.6-1c0.5-0.3,0.8-0.4,1-0.4c0.4,0,0.6,0.3,1,0.9
			c0.6,0.9,1.2,1.9,1.8,2.8C55.6,117.7,55.6,118.1,55.2,118.4z"/>
		<path class="st0" d="M112.5,63.5c-19.9,0-36.1,16.2-36.1,36.1c0,19.9,16.2,36.1,36.1,36.1c19.9,0,36.1-16.2,36.1-36.1
			C148.6,79.7,132.5,63.5,112.5,63.5z M129.1,99.5c0,0.7-0.6,1.3-1.3,1.3l-12,0l0,3.8h12c0.7,0,1.3,0.6,1.3,1.3v3.4
			c0,0.7-0.6,1.3-1.3,1.3h-12l0,9.9c0,0.7-0.6,1.3-1.3,1.3h-4.2c-0.7,0-1.3-0.6-1.3-1.3l0-9.9h-12c-0.7,0-1.3-0.6-1.3-1.3v-3.4
			c0-0.7,0.6-1.3,1.3-1.3h12v-3.8h-12c-0.7,0-1.3-0.6-1.3-1.3v-3.4c0-0.7,0.6-1.3,1.3-1.3l8.5,0L97,78.6c-0.3-0.6,0-1.1,0.7-1.1h4.3
			c0.7,0,1.5,0.5,1.9,1.1l8.7,16.1l8.7-16.1c0.3-0.6,1.2-1.1,1.9-1.1h4.3c0.7,0,1,0.5,0.7,1.1l-8.6,16.1l8.5,0
			c0.7,0,1.3,0.6,1.3,1.3V99.5z"/>
		<g>
			<path class="st0" d="M83.3,40.4c-1-0.7-2.6-1.3-4.6-1.8v11.3c0.8-0.1,1.5-0.3,2.2-0.6c2.7-1,4-2.6,4-5.1
				C84.9,42.4,84.4,41.1,83.3,40.4z"/>
			<path class="st0" d="M68,26.1c0,1.6,0.6,2.8,1.9,3.5c0.6,0.3,1.6,0.7,3.1,1.1v-10c-1.5,0.3-2.6,0.7-3.3,1.5
				C68.6,23.3,68,24.6,68,26.1z"/>
			<path class="st0" d="M75.8,0C55.9,0,39.7,16.2,39.7,36.1c0,19.9,16.2,36.1,36.1,36.1s36.1-16.2,36.1-36.1
				C111.9,16.2,95.8,0,75.8,0z M86.4,52.9c-2.3,1.4-4.8,2.2-7.7,2.6v3.4c0,0.7-0.6,1.3-1.3,1.3h-3.1c-0.7,0-1.3-0.6-1.3-1.3v-3.4
				c-3.4-0.4-6.3-1.6-8.4-3.6c-2.7-2.5-4-5.9-4-10.1l0-0.6h6l0,0.6c0.1,2,0.6,3.7,1.4,4.9c1.1,1.6,2.7,2.6,5,3.1V37.2l-0.4-0.1
				c-3.3-0.8-5.6-1.6-7-2.6c-2.5-1.7-3.7-4.2-3.7-7.5c0-3.5,1.2-6.5,3.6-8.8c1.9-1.8,4.4-2.9,7.5-3.2v-3.8c0-0.7,0.6-1.3,1.3-1.3
				h3.1c0.7,0,1.3,0.6,1.3,1.3v3.8c2.6,0.4,5,1.3,7,2.7c2.8,2,4.3,5.3,4.3,9.6V28h-6L84,27.5c-0.2-1.9-0.7-3.3-1.4-4.3
				c-0.9-1.1-2.2-1.9-3.8-2.3v11.3l2.7,0.6c2.5,0.6,4.5,1.4,5.9,2.5c2.5,1.9,3.7,4.6,3.7,8.1C91.1,47.8,89.5,51,86.4,52.9z"/>
		</g>
	</g>
</g>
<g id="purple">
	<g>
		<path class="st0" d="M139.3,126.9H12.5c-1.9,0-3.5,1.6-3.5,3.5v6.6l133.8,0v-6.6C142.8,128.5,141.2,126.9,139.3,126.9z"/>
		<path class="st0" d="M138.6,0h-8l-16,16.1V120h24c2.3,0,4.2-1.9,4.2-4.2V4.2C142.8,1.9,140.9,0,138.6,0z"/>
		<path class="st0" d="M103.4,43.5h-8L79.4,59.6V120h28.3V47.8C107.6,45.5,105.7,43.5,103.4,43.5z"/>
		<path class="st0" d="M68.2,32.6h-8L44.2,48.6V120h28.3V36.8C72.5,34.5,70.6,32.6,68.2,32.6z"/>
		<path class="st0" d="M33.1,70.2h-8L9,86.3v29.5c0,2.3,1.9,4.2,4.2,4.2h24V74.5C37.3,72.1,35.4,70.2,33.1,70.2z"/>
	</g>
</g>
<g id="arrow">
	<polygon class="st0" points="78.4,7.4 41,7.5 98.5,68.5 41,129.6 78.4,129.7 139.6,68.5 	"/>
</g>
</defs>
</svg>
