<?xml version="1.0" encoding="utf-8"?>
<!-- Generator: Adobe Illustrator 17.1.0, SVG Export Plug-In . SVG Version: 6.00 Build 0)  -->
<!DOCTYPE svg PUBLIC "-//W3C//DTD SVG 1.1//EN" "http://www.w3.org/Graphics/SVG/1.1/DTD/svg11.dtd">
<svg version="1.1" id="Layer_1" xmlns="http://www.w3.org/2000/svg" xmlns:xlink="http://www.w3.org/1999/xlink" x="0px" y="0px"
	 viewBox="90.1 314.5 626.9 235.7" enable-background="new 90.1 314.5 626.9 235.7" xml:space="preserve">
<path fill="#FDFDFD" d="M372.7,314.6c114.3,0,228.7,0,343,0c1.2,0,1.3,0.4,1.3,1.9c0,77.3,0,154.6,0,231.9c0,1.6-0.2,1.9-1.3,1.9
	c-114.5,0-229,0-343.5,0c-0.5-0.9-0.2-1.9-0.1-2.8c1.5-9.3,2.9-18.7,4.4-28c1.9-12.1,3.7-24.2,5.6-36.2c2.6-16.4,5.2-32.8,7.8-49.2
	c0.2-1.5,0.3-2.9,0-4.4c-3.3-21.3-6.5-42.7-9.8-64c-2.4-15.5-4.7-30.9-7.1-46.4C372.7,317.7,372.3,316.1,372.7,314.6z"/>
<path fill="#0099DA" d="M344.4,550.2c-114,0-138.4,0-252.4,0c-1.6,0-1.9-0.4-1.9-1.9c0-77.3,0-154.6,0-231.9c0-1.5,0.2-1.9,1.9-1.9
	c114.2,0,138.6,0,252.8,0c0.4,0.5,0.5,1,0.7,1.6c2.6,11.8,5.2,23.6,7.9,35.4c2.9,13.2,5.9,26.3,8.8,39.4c2.9,13,5.8,25.9,8.6,38.9
	c0.4,1.7,0.4,3.3,0,5c-2.9,12.6-5.7,25.1-8.5,37.7c-4.3,19.4-8.8,38.8-13,58.2c-1.3,5.6-2.5,11.2-3.8,16.8
	C345.2,548.6,345.1,549.5,344.4,550.2z"/>
<path fill="#C3E3F2" d="M373.1,314.6c2.5,11.5,5,23.1,7.5,34.7c2.1,9.7,4.2,19.3,6.3,28.9c2.5,11.4,4.9,22.9,7.4,34.3
	c1.3,6,2.6,12.1,4,18.1c0.5,2-0.3,3.7-0.7,5.5c-3,13.6-6.1,27.1-9.2,40.7c-4.2,19-8.4,37.9-12.6,56.9c-1.2,5.5-2.4,11-3.5,16.6
	c-4.7,0-9.4,0-14.1,0c-0.7-0.7-0.4-1.6-0.2-2.4c2.5-10.6,4.7-21.2,7.1-31.8c1.9-8.4,3.8-16.8,5.6-25.3c1.8-8.4,3.8-16.7,5.7-25.1
	c2.4-10.9,4.9-21.8,7.3-32.8c0.2-0.9,0.1-1.8-0.1-2.7c-4.3-19.3-8.4-38.6-12.6-57.9c-3.5-16.2-7.1-32.3-10.6-48.5
	c-0.5-2.3-1.1-4.6-1.5-6.9c-0.1-0.7-0.5-1.5,0.1-2.3C363.7,314.6,368.4,314.6,373.1,314.6z"/>
<path fill="#97D0EB" d="M359,314.6c2.5,11.5,4.9,23,7.5,34.5c1.5,7,3.1,13.9,4.6,20.9c2.5,11.6,5,23.2,7.5,34.9
	c1.9,8.8,3.9,17.5,5.8,26.3c0.4,1.7-0.5,3.3-0.9,4.9c-2.9,13.5-6.1,27-9.1,40.5c-2.9,12.8-5.6,25.6-8.4,38.4
	c-1.5,7-3.3,13.9-4.8,20.9c-1,4.8-2.4,9.4-3.1,14.3c-4.6,0-9.2,0-13.7,0c1-4.6,1.9-9.2,2.9-13.7c4.6-20.4,9.2-40.8,13.8-61.1
	c3.1-13.9,6.1-27.8,9.3-41.7c0.5-2-0.3-3.9-0.7-5.7c-2.4-11.2-5-22.3-7.5-33.5c-3.1-14.1-6.3-28.2-9.4-42.3
	c-2.6-11.9-5.3-23.9-7.9-35.9c-0.1-0.5,0-1-0.1-1.6C349.5,314.6,354.2,314.6,359,314.6z"/>
</svg>
