<svg xmlns="http://www.w3.org/2000/svg"><path d="M297.583 194.08h9.953l-20.697-39.912h-9.88l-20.4 39.912h9.83l3.48-7.6h24.117l3.586 7.6zm-24.655-14.25l8.832-19.275 9.098 19.276h-17.93z"/><path fill-rule="evenodd" clip-rule="evenodd" fill="#EE3124" d="M26.778 81.248v-25.44c15.063-6.287 30.45-11.95 46.13-16.96v9.848c12.342-4.023 24.87-7.636 37.57-10.816v-9.634c13.355-3.28 26.893-6.095 40.596-8.423V29.3c12.39-2.147 24.918-3.885 37.57-5.21v-9.376c13.4-1.377 26.938-2.293 40.595-2.73v9.328c6.23-.205 12.5-.31 18.78-.31s12.55.105 18.78.31v-9.33c13.658.44 27.196 1.355 40.596 2.732v9.377c12.652 1.33 25.182 3.07 37.57 5.21v-9.47c13.704 2.33 27.242 5.146 40.597 8.426v9.634c12.7 3.18 25.227 6.793 37.57 10.816v-9.85c15.68 5.01 31.066 10.673 46.13 16.96v25.44c-67.74-29.65-142.574-46.1-221.248-46.1-78.677 0-153.508 16.45-221.25 46.1zm221.248-34.044c-78.833 0-153.722 16.887-221.248 47.238v39.844h46.13v-23.012c0-10.374 8.41-18.785 18.785-18.785s18.785 8.41 18.785 18.78v23.01h40.596v-31.89c0-10.377 8.41-18.79 18.786-18.79 10.375 0 18.784 8.413 18.784 18.787v31.9h40.595V97.52c0-10.375 8.41-18.786 18.78-18.786 10.37 0 18.78 8.412 18.78 18.786v36.77h40.6v-31.895c0-10.374 8.41-18.786 18.786-18.786s18.787 8.41 18.787 18.78v31.893h40.596V111.27c0-10.373 8.41-18.784 18.78-18.784s18.784 8.41 18.784 18.785v23.015h46.13V94.44c-67.52-30.352-142.41-47.24-221.24-47.24z"/><path d="M116.384 179.582h6.77c6.1 0 6.095-5.738 6.095-5.738v-12.32s0-5.586-6.71-5.586H90.6v38.143h8.133v-14.64h7.887l14.647 14.65h11.593l-16.476-14.5zm2.44-17.086c2.747 0 2.747 3.36 2.747 3.36v4.267c0 3.21-3.04 3.057-3.04 3.057H98.74v-10.684h20.092zm30.03 31.584h37.7v-6.82h-29.33v-9.963h17.12v-6.256h-17.12v-8.48h29.02v-6.613h-37.492m233.138 38.14h37.478v-6.467h-29.33v-10.17h17.127v-6.25h-17.127v-8.595h29.03v-6.436h-37.45M203.55 194.08v-38.142h6.054l27.53 25.422v-25.422h6.48v38.142h-5.403l-28.23-26.033v26.033m108.47 4.77l6.91.104V163.9l34.42 35.05 6-.1v-48.177h-6.5v34.807l-33.94-34.807h-6.86m110.76 5.417h41.197v6.364H453.91v31.626h-8.594v-31.626H429.24m50.9-2.7c.625-.26.93-.69.93-1.318 0-.434-.157-.793-.466-1.065-.31-.27-.795-.41-1.44-.41h-2.358v5.095h.985v-2.11h1.36l.85 2.11h1.032l-.95-2.266.06-.026zm-1.137-.52h-1.215v-1.59h1.296c.638 0 .96.262.96.78 0 .537-.35.81-1.04.81z"/><path d="M482.003 156.34c-.863-.872-1.916-1.314-3.13-1.314-1.237 0-2.305.442-3.173 1.314-.87.873-1.31 1.936-1.31 3.155 0 1.224.442 2.286 1.313 3.16.872.874 1.934 1.317 3.154 1.317 1.216 0 2.27-.443 3.137-1.318.87-.875 1.31-1.936 1.31-3.152 0-1.225-.438-2.29-1.3-3.162zm-.49 5.898c-.74.754-1.636 1.135-2.66 1.135-1.032 0-1.93-.38-2.67-1.135-.738-.752-1.113-1.676-1.113-2.743 0-1.058.373-1.978 1.11-2.733.736-.756 1.64-1.14 2.687-1.14 1.025 0 1.917.385 2.652 1.144.73.758 1.1 1.676 1.1 2.73 0 1.067-.38 1.99-1.11 2.742zm-411.91 37.116h9.866L54.8 150.022h-8.597l-24.36 49.332 10.128-.006 4.78-10.238h27.91l4.94 10.244zM39.78 182.61l10.693-22.932 11.057 22.93H39.78z"/></svg>