<svg id="de0a30ac-6d18-4b96-a592-208fb32af3e4" data-name="Layer 1" xmlns="http://www.w3.org/2000/svg" viewBox="0 0 4988.75 952"><title>Nvidia_logo_white</title><path d="M550,960c.25-4,.7-7.95.71-11.92q.09-42.49,0-85V851.84c3.26-.39,5.51-1.06,7.67-.84,43,4.32,85.81,2.65,128.62-1.94,158.41-17,310.28-59,457-120.34,55.43-23.17,108.9-50.22,158.73-84,11.57-7.85,22.62-16.47,33.84-24.83,2.34-1.74,4.37-3.9,7.54-6.77-3.38-3.1-5.87-6.18-9-8.17-18.9-11.84-37.78-23.74-57-35-31.87-18.72-64-37-96-55.45a26.36,26.36,0,0,0-3.65-1.31c-3,2.4-6.44,5-9.68,7.73-46.62,39.88-94.29,78.41-144.81,113.3-72,49.69-148.2,90.77-232.51,115.62-41,12.07-82.62,20.65-125.26,23.93-16.93,1.3-33.89,2.92-50.84,3.12-17.63.21-35.28-1-52.91-1.86-3.55-.17-7-1.45-11-2.31v-74.4a106.27,106.27,0,0,1,10.64.61c60.58,9.45,119.4,1.59,177.13-17.67,61.87-20.64,118.14-52,171.26-89.33,73.73-51.75,139.66-112.23,199.2-179.75,7.3-8.28,7.39-8.44-.11-17.35C1072.63,351,1031,312.19,985.72,277.34c-63.34-48.7-132.12-87.46-208-113a574.75,574.75,0,0,0-124.53-27.31c-32.22-3.31-64.4-5.06-96.72-2-1.26.12-2.58-.31-5.07-.64-.2-3.55-.57-7-.58-10.55,0-34.66,0-69.32-.06-104,0-4-.46-7.94-.71-11.92h900c-.19,4.32-.54,8.63-.54,12.95q0,463.05,0,926.1c0,4.32.35,8.63.54,12.95Z" transform="translate(-14.83 -8)" style="fill:#fff"/><path d="M3253.53,776.77V174.17h11.6c81.32,0,162.65-.22,244,.19,43,.22,85.91,2.79,128.17,11.78,57.38,12.21,106.05,38.74,142.06,86.14,22.59,29.74,35.81,63.72,44.51,99.64,12.19,50.34,14.8,101.38,10.73,152.89-2.9,36.69-9.36,72.65-21.71,107.41-24.73,69.58-74.42,111.91-144.54,131.48-28.7,8-58.31,10.58-88,12-17.3.83-34.65,1-52,1q-131,.14-262,0ZM3422.2,647.68c3,.21,5,.46,6.9.46,25,0,50,.06,75-.15a225.42,225.42,0,0,0,59.21-8.12c48.87-13.7,82-43.85,97-93a222.65,222.65,0,0,0,8.77-50.07c2.24-32.86-.14-65.28-11-96.63-12.16-35.08-34.89-60.8-68.69-76.63-25.19-11.8-51.92-16.73-79.4-17.48-26.64-.73-53.3-.4-80-.46a71.18,71.18,0,0,0-7.82.84Z" transform="translate(-14.83 -8)" style="fill:#fff"/><path d="M2079,775.48V763q0-122,0-243.94c0-29,.06-58.07-5-86.71-2.6-14.69-5.87-29.48-10.9-43.48-13.58-37.81-41.4-59.55-80.55-66.55a242,242,0,0,0-39.73-3.65c-41.32-.46-82.64-.18-124-.17-2,0-3.91.22-6.86.4-1,21.93-.35,43.46-.47,65-.12,22,0,44,0,66q0,32.49,0,65t0,65q0,32.49,0,65,0,33,0,66c0,21.58,0,43.16,0,65.37H1640.28V173.94c3.41-.2,6.32-.52,9.23-.51,105.64.09,211.28,0,316.92.43,41.12.15,81.82,4.49,121.42,16.32,38.74,11.57,73.07,30.53,100,61.36,25.17,28.82,39.66,62.84,48.11,99.75,7.18,31.35,9.48,63.23,9.53,95.26q.21,159.46.06,318.92c0,3.26,0,6.52,0,9.51C2237.25,777.15,2090.8,777.56,2079,775.48Z" transform="translate(-14.83 -8)" style="fill:#fff"/><path d="M4392.73,174.62H4620.2L4859,774.6c-7.39,2.39-165.41,3.2-181.69,1l-35.5-104.84H4360.5l-37.35,105.32H4155.38Zm4.66,390.91c22.22,2.19,200.56,1.26,207.7-.91-7.26-26.37-97.86-271.48-102.76-277.52Z" transform="translate(-14.83 -8)" style="fill:#fff"/><path d="M2455.23,174.9l135.06,473.55,1.91.15,141-473.86h173.7L2711.4,776.07H2465.49L2271.59,174.9Z" transform="translate(-14.83 -8)" style="fill:#fff"/><path d="M3148.42,175.07v600c-7.31,2.08-157.23,2.6-169.15.56V175.68C2986.64,173.76,3135.3,173.19,3148.42,175.07Z" transform="translate(-14.83 -8)" style="fill:#fff"/><path d="M3916.33,775.53V174.75h168c2,7.31,2.66,585.71.76,600.4C4077.67,777.18,3927.87,777.61,3916.33,775.53Z" transform="translate(-14.83 -8)" style="fill:#fff"/><path d="M4893.25,742.83c-.13-31.13,22.53-53.08,54.83-53.12s55.44,22,55.5,52.7-23.2,53.25-55.07,53.38S4893.38,773.77,4893.25,742.83Zm16-.09c.1,23.5,17.27,41,39.95,40.73,21.82-.27,38.86-18.29,38.81-41.05,0-23.1-17.49-40.71-40.15-40.54C4925.73,702,4909.13,719.61,4909.23,742.74Z" transform="translate(-14.83 -8)" style="fill:#fff"/><path d="M546.88,138.55c1.23,22.37.49,43.52.51,65.75-5.24.94-10,2.11-14.83,2.62C421.21,218.6,323.48,262,237.91,333.57a513,513,0,0,0-73.14,75c-5.1,6.43-6.47,12.12-3.44,20,36.93,96.09,90.35,181,168.62,249,55.43,48.11,119.2,79.9,191.33,94.45,6.19,1.25,12.48,2,18.73,2.92,4.93.74,7.61,3,7.55,8.56-.21,19.33-.07,38.66-.16,58,0,1.56-.7,3.11-1.26,5.47-11.17-1.34-22.06-2.23-32.8-4-42.82-7.11-84.54-18.17-124.76-34.73A589.5,589.5,0,0,1,220.84,703.16C132.55,624.83,67.7,529.78,21.34,421.77c-9.13-21.27-10.18-15.25,6.83-30.31,92-81.4,193-148.69,306.18-197.24,52.2-22.4,106.17-39.06,162.13-49C512.74,142.38,529.25,140.85,546.88,138.55Z" transform="translate(-14.83 -8)" style="fill:#fff"/><path d="M962.05,407.46c-3.74,5-7,9.55-10.5,13.92C905.88,478.31,855,529.8,795.08,571.94c-32.85,23.13-67.84,42.17-106.38,54.16C661.77,634.48,634.17,639,606,636.93c-15.49-1.16-30.87-4.62-46.14-7.81-9.19-1.92-9.13-2.58-9.13-12.29q0-82.46,0-164.92,0-35.48,0-71c0-3.57,0-7.14,0-11.79,5.14.6,9,.95,12.8,1.52,38.9,5.88,71.79,22.76,95,55.12,15.68,21.9,29.5,45.12,44.1,67.79,3.57,5.54,6.94,11.22,11.14,18,11.83-7.8,21.24-17.11,31.38-25.42,10.57-8.65,20.89-17.6,31.33-26.41q15.28-12.89,30.57-25.76c10.12-8.57,20.21-17.19,30.06-25.58-9.53-24.58-77.68-76.17-127.31-97.17-50.57-21.4-103.24-27.08-158.55-20.41-1-27.49-.29-53.94-.45-80.57,7.8-3.41,15.43-3.35,23-3.55,81.13-2.11,156,19.64,225.76,60,59.7,34.55,111.31,78.84,155.65,131.62C957.45,401.17,959.52,404.13,962.05,407.46Z" transform="translate(-14.83 -8)" style="fill:#fff"/><path d="M547.32,295.19c.29,23.41.27,46.13.05,69.42-7.65,0-13.89-.23-20.11,0-33.57,1.46-63.5,13.57-91.28,31.7a280.1,280.1,0,0,0-46.86,38.78c-4,4.09-5.08,8.13-3.17,13.47,19.69,55.24,49,104.07,94.48,142.16a205.07,205.07,0,0,0,59.08,34.86c6,2.27,8.25,5.37,8.11,11.69-.35,15.65-.08,31.31-.14,47,0,2.57-.49,5.15-.81,8.35-13.57-1.12-25.88-4.95-38.15-8.79-71.92-22.54-128.13-66.6-172.57-126.59A432.41,432.41,0,0,1,275.31,443c-5.72-16.23-7.27-12.5,5.72-24.52,60.05-55.65,129.8-93.7,209.23-113.61,16.42-4.12,33.27-6.5,49.94-9.59C542,294.9,544,295.19,547.32,295.19Z" transform="translate(-14.83 -8)" style="fill:#fff"/><path d="M4973.09,770.31h-13.84c-7.23-6.59-7.32-18.88-19.22-24.28v24.09h-12.8v-55.8c10.94-.5,21.75-1.37,32.45.79,8.76,1.77,12.36,6.08,13.15,14,.74,7.56-2.26,14.35-9.91,16.3a19.4,19.4,0,0,0-3.34,1.78Zm-33-32.93c4.66,0,8.27.31,11.81-.07,5.39-.57,8.07-3.18,7.8-7.13-.32-4.61-3.62-6-7.52-6.19s-7.74,0-12.08,0Z" transform="translate(-14.83 -8)" style="fill:#fff"/></svg>