<svg class="img-responsive-pictogram" width="507" height="421" id="fullServiceModels" xmlns="http://www.w3.org/2000/svg" viewBox="0 0 408.22 396.79"><title>global_service</title><g id="Layer_2" data-name="Layer 2"><g id="Layer_1-2" data-name="Layer 1"><polyline points="184.71 270.15 216.91 288.44 258.22 266.54" style="fill:none;stroke:#b6e8fb;stroke-linecap:round;stroke-linejoin:round;stroke-width:1.02477262470557px"/><line x1="65.34" y1="235.6" x2="103.58" y2="257.68" style="fill:none;stroke:#b6e8fb;stroke-linecap:round;stroke-linejoin:round;stroke-width:1.02477262470557px"/><polyline points="103.52 257.69 132.78 240.8 178.48 265.79" style="fill:none;stroke:#b6e8fb;stroke-linecap:round;stroke-linejoin:round;stroke-width:1.02477262470557px"/><polyline points="152.37 95.1 68.6 47.41 68.6 118.86" style="fill:none;stroke:#b6e8fb;stroke-linecap:round;stroke-linejoin:round;stroke-width:1.02477262470557px"/><polyline points="292.33 279.48 383.7 331.91 271.49 396.28 27.3 255.46 81.81 227.01" style="fill:none;stroke:#b6e8fb;stroke-linecap:round;stroke-linejoin:round;stroke-width:1.02477262470557px"/><polyline points="186.57 57.34 326.92 138.31 326.92 110.01 136.22 0 136.22 28.3 186.57 57.34" style="fill:#dad9d9"/><polygon points="186.57 57.34 136.22 28.3 136.22 209.05 186.57 238.1 326.92 319.06 326.92 138.31 186.57 57.34" style="fill:#003058"/><polygon points="171.08 65.08 120.73 36.04 120.73 186.13 171.08 215.17 171.08 65.08" style="fill:#00a7e1"/><path d="M150.46,25.47c.81-.85.71-2.92-.22-4.63s-2.34-2.39-3.15-1.53-.71,2.92.22,4.63S149.65,26.33,150.46,25.47Z" style="fill:#9e79bb"/><path d="M162.69,32.61c.81-.85.71-2.92-.22-4.63s-2.34-2.39-3.15-1.53-.71,2.92.22,4.63S161.89,33.47,162.69,32.61Z" style="fill:#a8c628"/><path d="M174.93,39.29c.81-.85.71-2.92-.22-4.63s-2.34-2.39-3.15-1.53-.71,2.92.22,4.63S174.12,40.15,174.93,39.29Z" style="fill:#00a7e1"/><line x1="133.83" y1="92.19" x2="148.6" y2="100.71" style="fill:none;stroke:#a8c628;stroke-linecap:round;stroke-linejoin:round;stroke-width:2px"/><line x1="133.83" y1="104.65" x2="159.48" y2="119.45" style="fill:none;stroke:#a8c628;stroke-linecap:round;stroke-linejoin:round;stroke-width:2px"/><line x1="133.83" y1="117.12" x2="155.12" y2="129.4" style="fill:none;stroke:#a8c628;stroke-linecap:round;stroke-linejoin:round;stroke-width:2px"/><line x1="133.83" y1="129.58" x2="159.24" y2="144.24" style="fill:none;stroke:#a8c628;stroke-linecap:round;stroke-linejoin:round;stroke-width:2px"/><line x1="133.83" y1="72.05" x2="155.12" y2="84.34" style="fill:none;stroke:#a8c628;stroke-linecap:round;stroke-linejoin:round;stroke-width:2px"/><polygon points="192.22 83.51 192.22 221.5 309.22 289 309.22 151 192.22 83.51" style="fill:#00a7e1"/><polygon points="379.07 251.85 379.07 268.13 400.9 255.06 400.9 238.78 379.07 251.85" style="fill:#9e79bb"/><polygon points="258.89 177.21 218.69 199.64 220.45 202.9 259.04 178.1 258.89 177.21" style="fill:#00a7e1"/><polygon points="188.49 111.01 218.68 128.44 218.68 108.61 188.49 91.17 188.49 111.01" style="fill:none;stroke:#b6e8fb;stroke-linecap:round;stroke-linejoin:round;stroke-width:1.02477262470557px"/><path d="M265.33,232.39l-20.91,6.85-20.91-29.08c-7.67-10.67-12-22-12-31.41V137.7l65.81,35v41.06C277.32,223.15,273,229.88,265.33,232.39Z" style="fill:#b6e8fb"/><path d="M244.42,208.83h0c4.67,2.48,9.06,3,12.36,1.45s5.12-5,5.12-9.64-1.82-10-5.12-15.08a34.81,34.81,0,0,0-12.36-11.69h0c-4.67-2.48-9.06-3-12.36-1.45s-5.12,5-5.12,9.64,1.82,10,5.12,15.08A34.81,34.81,0,0,0,244.42,208.83Z" style="fill:#003058"/><polygon points="260.52 185.16 240.84 193.27 235.09 184.46 232.38 185.98 239.86 197.53 241.81 198.57 263.27 189.51 260.52 185.16" style="fill:#a8c628"/><path d="M299.15,329.58c0-1.76,1.43-2.42,3.19-1.47a6.31,6.31,0,0,1,3.19,4.91c0,1.76-1.43,2.42-3.19,1.47A6.31,6.31,0,0,1,299.15,329.58Z" style="fill:#00a7e1"/><path d="M388.88,277.94V186.72a.88.88,0,0,0-1.32-.76L300,236.21a1.62,1.62,0,0,0-.82,1.41v92.12l6.37,3.24,85.08-47.26Z" style="fill:#dad9d9"/><polygon points="389.34 281.64 299.64 332.51 299.64 246.95 389.34 196.08 389.34 281.64" style="fill:#dad9d9;stroke:#fff;stroke-miterlimit:10;stroke-width:0.919176897718899px"/><polygon points="391.4 282.82 301.7 333.69 301.7 248.13 391.4 197.26 391.4 282.82" style="fill:#dad9d9;stroke:#fff;stroke-miterlimit:10;stroke-width:0.919176897718899px"/><polygon points="392.95 283.84 303.26 334.71 303.26 249.15 392.95 198.28 392.95 283.84" style="fill:#fff"/><path d="M335.7,237.58v-8.93a.88.88,0,0,0-1.32-.76l-28,16.19a1.62,1.62,0,0,0-.81,1.41V333l-.82,1.73,85.89-49a9.21,9.21,0,0,0,4.65-8v-73a.88.88,0,0,0-1.32-.76Z" style="fill:#dad9d9"/><path d="M312.12,348.23c0-1.76,1.43-2.42,3.19-1.47a6.31,6.31,0,0,1,3.19,4.91c0,1.76-1.43,2.42-3.19,1.47A6.31,6.31,0,0,1,312.12,348.23Z" style="fill:#00a7e1"/><path d="M401.85,296.58V205.37a.88.88,0,0,0-1.32-.76l-87.59,50.25a1.62,1.62,0,0,0-.82,1.41v92.12l6.37,3.24,85.08-47.26Z" style="fill:#b6e8fb"/><polygon points="402.87 300.31 312.13 351.18 312.13 265.62 402.87 214.75 402.87 300.31" style="fill:#dad9d9;stroke:#fff;stroke-miterlimit:10;stroke-width:0.919176897718899px"/><polygon points="404.9 301.47 314.49 352.34 314.49 266.78 404.9 215.91 404.9 301.47" style="fill:#dad9d9;stroke:#fff;stroke-miterlimit:10;stroke-width:0.919176897718899px"/><polygon points="405.93 302.49 316.23 353.36 316.23 267.8 405.93 216.93 405.93 302.49" style="fill:#fff"/><path d="M348.67,256.23V247.3a.88.88,0,0,0-1.32-.76l-28,16.19a1.62,1.62,0,0,0-.81,1.41v87.49l-.82,1.73,85.89-49a9.21,9.21,0,0,0,4.65-8v-73a.88.88,0,0,0-1.32-.76Z" style="fill:#b6e8fb"/><line x1="377.29" y1="265.38" x2="350.2" y2="281.02" style="fill:none;stroke:#a8c628;stroke-linecap:round;stroke-linejoin:round;stroke-width:2.31909686583643px"/><line x1="373.89" y1="277.51" x2="350.2" y2="291.19" style="fill:none;stroke:#a8c628;stroke-linecap:round;stroke-linejoin:round;stroke-width:2.31909686583643px"/><line x1="377.29" y1="285.72" x2="350.36" y2="301.27" style="fill:none;stroke:#a8c628;stroke-linecap:round;stroke-linejoin:round;stroke-width:2.31909686583643px"/><line x1="372.04" y1="298.92" x2="350.2" y2="311.53" style="fill:none;stroke:#a8c628;stroke-linecap:round;stroke-linejoin:round;stroke-width:2.31909686583643px"/><polygon points="180.26 113.59 210.46 131.03 210.46 111.19 180.26 93.75 180.26 113.59" style="fill:#9e79bb"/><path d="M205.75,271.34v3.47c0,3.6-2.37,7.19-7.1,9.93-9.5,5.52-25,5.52-34.54,0-4.81-2.78-7.22-6.43-7.21-10.07v-3.47c0,3.64,2.39,7.29,7.21,10.07,9.57,5.53,25,5.52,34.54,0,4.72-2.74,7.09-6.34,7.1-9.93" style="fill:#989696"/><path d="M198.54,261.27c9.57,5.53,9.62,14.48.11,20s-25,5.52-34.54,0-9.62-14.48-.11-20S189,255.75,198.54,261.27Zm-32.45,18.86c8.47,4.89,22.17,4.89,30.58,0s8.38-12.82-.1-17.72-22.16-4.89-30.58,0-8.37,12.82.1,17.71" style="fill:#dad9d9"/><path d="M206.46,267.09v3.47c0,3.6-2.37,7.19-7.1,9.93-9.5,5.52-25,5.52-34.54,0-4.81-2.78-7.22-6.43-7.21-10.07v-3.47c0,3.64,2.39,7.29,7.21,10.07,9.57,5.53,25,5.52,34.54,0,4.72-2.74,7.09-6.34,7.1-9.93" style="fill:#989696"/><path d="M199.25,257c9.57,5.53,9.62,14.48.11,20s-25,5.52-34.54,0-9.62-14.48-.11-20S189.68,251.49,199.25,257Zm-32.45,18.86c8.47,4.89,22.17,4.89,30.58,0s8.38-12.82-.1-17.72-22.16-4.89-30.58,0-8.37,12.82.1,17.71" style="fill:#dad9d9"/><path d="M197.28,258.16c8.47,4.89,8.52,12.82.1,17.72s-22.11,4.89-30.58,0-8.52-12.82-.1-17.71S188.81,253.27,197.28,258.16Zm-26.77,15.56c6.41,3.7,16.77,3.7,23.13,0s6.34-9.7-.08-13.4-16.76-3.7-23.13,0-6.33,9.7.08,13.4" style="fill:#dad9d9"/><path d="M202.91,261.76v3.47c0,3.6-2.37,7.19-7.1,9.93-9.5,5.52-25,5.52-34.54,0-4.81-2.78-7.22-6.43-7.21-10.07v-3.47c0,3.64,2.39,7.29,7.21,10.07,9.57,5.53,25,5.52,34.54,0,4.72-2.74,7.09-6.34,7.1-9.93" style="fill:#989696"/><path d="M195.7,251.69c9.57,5.53,9.62,14.48.11,20s-25,5.52-34.54,0-9.62-14.48-.11-20S186.13,246.17,195.7,251.69Zm-32.45,18.86c8.47,4.89,22.17,4.89,30.58,0s8.38-12.82-.1-17.72-22.16-4.89-30.58,0-8.37,12.82.1,17.71m0,0c8.47,4.89,22.17,4.89,30.58,0s8.38-12.82-.1-17.72-22.16-4.89-30.58,0-8.37,12.82.1,17.71" style="fill:#dad9d9"/><path d="M193.56,251.45c6.41,3.7,6.44,9.7.08,13.4s-16.72,3.7-23.13,0-6.44-9.7-.08-13.4S187.16,247.75,193.56,251.45Z" style="fill:#dad9d9"/><path d="M197.28,249.29c8.47,4.89,8.52,12.82.1,17.72s-22.11,4.89-30.58,0-8.52-12.82-.1-17.71S188.8,244.4,197.28,249.29Zm-26.77,15.56c6.41,3.7,16.77,3.7,23.13,0s6.34-9.7-.08-13.4-16.76-3.7-23.13,0-6.33,9.7.08,13.4" style="fill:#dad9d9;stroke:#c8c7c7;stroke-miterlimit:10"/><path d="M206.46,258.22v3.47c0,3.6-2.37,7.19-7.1,9.93-9.5,5.52-25,5.52-34.54,0-4.81-2.78-7.22-6.43-7.21-10.07v-3.47c0,3.64,2.39,7.29,7.21,10.07,9.57,5.53,25,5.52,34.54,0,4.72-2.74,7.09-6.34,7.1-9.93" style="fill:#989696"/><path d="M199.25,248.14c9.57,5.53,9.62,14.48.11,20s-25,5.52-34.54,0-9.62-14.48-.11-20S189.68,242.62,199.25,248.14ZM166.79,267c8.47,4.89,22.17,4.89,30.58,0s8.38-12.82-.1-17.72-22.16-4.89-30.58,0-8.37,12.82.1,17.71" style="fill:#dad9d9"/><path d="M194.53,259.11l-1.33.77-.41-.24a2.89,2.89,0,0,0-.94-.36,5.52,5.52,0,0,0-1.28,0l-2.68.2,2.38,1.37-1.12.65-3.25-1.88-2.56.18,4.38,2.53-1.12.65-4.85-2.8-2,1.16c-.46.27-.69.48-.68.63s.28.39.81.69l1.07.62-1.33.77-7.12-4.11,1.33-.77,1.05.61a3,3,0,0,0,1.21.48,2.38,2.38,0,0,0,1.1-.4l2-1.16L174.5,256l1.12-.65,4.27,2.46.39-1.43L177,254.51l1.12-.65,2.41,1.39.32-1.07a1.85,1.85,0,0,0,.06-1,1.3,1.3,0,0,0-.63-.67l-.61-.35,1.33-.77,6.4,3.69-1.33.77-.89-.51a2.57,2.57,0,0,0-.7-.31.58.58,0,0,0-.45.05.63.63,0,0,0-.19.18,1.28,1.28,0,0,0-.14.31l-.89,2.86,5.3-.43a3.51,3.51,0,0,0,.46-.07,1.14,1.14,0,0,0,.29-.11c.11-.06.13-.14.08-.22a1.14,1.14,0,0,0-.4-.32l-1.08-.62,1.33-.77Z" style="fill:#838181"/><polygon points="205.05 315.97 205.29 316.11 205.05 315.97 207.58 304.3 208.59 304.87 206.08 316.45 206.05 316.53 205.29 316.11 205.05 315.97" style="fill:#006c8a"/><polygon points="251.43 280.14 251.43 280.14 251.43 280.14 251.43 280.14" style="fill:none;stroke:#00a7e1;stroke-miterlimit:10;stroke-width:0.25px"/><polygon points="232.19 290.09 233.2 290.66 233.23 290.65 242.69 285.19 241.68 284.61 233.96 289.06 232.19 290.09" style="fill:#989696"/><polygon points="222.43 295.72 223.44 296.3 223.47 296.28 233.2 290.66 232.19 290.09 224.19 294.7 222.43 295.72" style="fill:#006c8a"/><polygon points="241.68 284.61 242.69 285.19 242.71 285.17 251.42 280.14 250.41 279.56 243.44 283.59 241.68 284.61" style="fill:#006c8a"/><polygon points="211.41 302.08 212.42 302.66 212.43 302.66 223.44 296.3 222.43 295.72 213.14 301.09 211.41 302.08" style="fill:#989696"/><polygon points="207.58 304.3 208.59 304.87 212.42 302.67 212.42 302.66 211.41 302.08 207.58 304.3" style="fill:#006c8a"/><polygon points="250.41 279.56 251.42 280.14 257.15 276.84 257.15 276.83 256.14 276.26 252.15 278.56 250.41 279.56" style="fill:#989696"/><polygon points="252.25 289.88 254.62 288.51 256.18 281.35 252.25 289.88" style="fill:none;stroke:#00a7e1;stroke-miterlimit:10;stroke-width:0.25px"/><path d="M206.09,316.45l6.33-13.79-3.82,2.21Z" style="fill:#00a7e1"/><polygon points="217.08 310.18 226.85 304.54 233.22 290.67 233.2 290.66 223.47 296.28 223.46 296.31 217.08 310.18" style="fill:#00a7e1"/><polygon points="217.08 310.18 223.46 296.31 223.44 296.3 212.43 302.66 212.42 302.66 212.42 302.67 206.09 316.45 217.08 310.18" style="fill:#bebebe"/><polygon points="226.85 304.54 236.33 299.07 242.7 285.19 242.69 285.19 233.23 290.65 233.22 290.67 226.85 304.54" style="fill:#bebebe"/><polygon points="245.05 294.04 252.25 289.88 256.18 281.35 257.15 276.84 251.42 280.14 245.05 294.04" style="fill:#bebebe"/><polygon points="236.33 299.07 245.05 294.04 251.42 280.14 242.71 285.17 242.7 285.19 236.33 299.07" style="fill:#00a7e1"/><polygon points="217.53 299.06 214.1 301.04 214 301.1 212.52 300.3 216.06 298.23 217.53 299.06" style="fill:#dad9d9"/><polygon points="217.53 299.06 208.29 340.71 205.16 342.42 214.01 301.09 217.53 299.06" style="fill:#bebebe"/><polygon points="205.16 342.42 203.6 341.56 212.53 300.3 214 301.1 205.16 342.42" style="fill:#989696"/><polygon points="207.97 333.7 207.97 333.7 207.97 333.7 207.97 333.7" style="fill:none;stroke:#a8c628;stroke-miterlimit:10;stroke-width:0.25px"/><polygon points="207.97 333.7 225.22 343.49 225 342.23 208.97 333.13 207.97 333.7" style="fill:#dad9d9"/><polygon points="207.44 336.17 225.77 346.57 225.22 343.49 207.97 333.7 207.97 333.7 207.44 336.17" style="fill:#989696"/><polygon points="214.11 301.09 215.26 300.42 217.57 299.09 219.19 300.01 215.65 302.06 215.54 302 214.13 301.19 214.02 301.13 214.11 301.09" style="fill:#dad9d9"/><polygon points="214.02 301.13 223.22 352.03 224.63 352.82 215.65 302.06 214.02 301.13" style="fill:#989696"/><polygon points="224.63 352.82 228.27 350.72 220.02 304.54 219.21 300.02 219.19 300.01 215.65 302.06 224.63 352.82" style="fill:#bebebe"/><polygon points="260.75 274.1 257.31 276.08 257.21 276.14 255.73 275.34 259.28 273.27 260.75 274.1" style="fill:#dad9d9"/><polygon points="260.75 274.1 251.51 315.76 248.37 317.46 257.22 276.13 260.75 274.1" style="fill:#bebebe"/><polygon points="248.37 317.46 246.81 316.6 255.74 275.35 257.22 276.14 248.37 317.46" style="fill:#989696"/><polygon points="257.32 276.13 258.47 275.46 260.78 274.13 262.4 275.06 258.86 277.1 258.76 277.04 257.34 276.24 257.23 276.17 257.32 276.13" style="fill:#dad9d9"/><polygon points="257.23 276.17 266.43 327.07 267.85 327.86 258.86 277.1 257.23 276.17" style="fill:#989696"/><polygon points="267.85 327.86 271.49 325.76 263.23 279.58 262.42 275.06 262.4 275.06 258.86 277.1 267.85 327.86" style="fill:#bebebe"/><path d="M212.58,298.11a2.33,2.33,0,0,0,1,1.64h0l.09.05.92.52a1.76,1.76,0,0,1-.38-.36,2.78,2.78,0,0,1-.52-1.24,5.7,5.7,0,0,1,2-5.12,2.17,2.17,0,0,1,1.51-.5,1.5,1.5,0,0,1,.49.14l-.87-.5h0l-.21-.12h0a1.93,1.93,0,0,0-2,.36A5.7,5.7,0,0,0,212.58,298.11Z" style="fill:#989696"/><path d="M213.66,298.73a2.78,2.78,0,0,0,.52,1.24,1.76,1.76,0,0,0,.38.36h0l.23.13h0a2,2,0,0,0,2-.37,5.7,5.7,0,0,0,2-5.12,2.35,2.35,0,0,0-.93-1.62h0l-.06,0-.09-.05h0a1.5,1.5,0,0,0-.49-.14,2.17,2.17,0,0,0-1.51.5A5.7,5.7,0,0,0,213.66,298.73Zm1-.72a3.51,3.51,0,0,1,1.21-3.16,1.1,1.1,0,0,1,1.86.6h0a1.92,1.92,0,0,1,.06.24,3.51,3.51,0,0,1-1.21,3.16,1.67,1.67,0,0,1-.41.23h0C215.43,299.35,214.8,298.93,214.63,298Z" style="fill:#bebebe"/><path d="M214.63,298c.16.93.8,1.34,1.51,1.07h0a1.67,1.67,0,0,0,.41-.23,3.51,3.51,0,0,0,1.21-3.16,1.92,1.92,0,0,0-.06-.24h0a1.1,1.1,0,0,0-1.86-.6A3.51,3.51,0,0,0,214.63,298Z" style="fill:#9e79bb"/><path d="M255.23,273.12a2.33,2.33,0,0,0,1,1.64h0l.09.05.92.52a1.76,1.76,0,0,1-.38-.36,2.78,2.78,0,0,1-.52-1.24,5.7,5.7,0,0,1,2-5.12,2.17,2.17,0,0,1,1.51-.5,1.5,1.5,0,0,1,.49.14l-.87-.5h0l-.21-.12h0a1.93,1.93,0,0,0-2,.36A5.7,5.7,0,0,0,255.23,273.12Z" style="fill:#989696"/><path d="M256.31,273.74a2.78,2.78,0,0,0,.52,1.24,1.76,1.76,0,0,0,.38.36h0l.23.13h0a2,2,0,0,0,2-.37,5.7,5.7,0,0,0,2-5.12,2.35,2.35,0,0,0-.93-1.62h0l-.06,0-.09-.05h0a1.5,1.5,0,0,0-.49-.14,2.17,2.17,0,0,0-1.51.5A5.7,5.7,0,0,0,256.31,273.74Zm1-.72a3.51,3.51,0,0,1,1.21-3.16,1.1,1.1,0,0,1,1.86.6h0a1.92,1.92,0,0,1,.06.24,3.51,3.51,0,0,1-1.21,3.16,1.67,1.67,0,0,1-.41.23h0C258.08,274.36,257.45,273.95,257.29,273Z" style="fill:#bebebe"/><path d="M257.29,273c.16.93.8,1.34,1.51,1.07h0a1.67,1.67,0,0,0,.41-.23,3.51,3.51,0,0,0,1.21-3.16,1.92,1.92,0,0,0-.06-.24h0a1.1,1.1,0,0,0-1.86-.6A3.51,3.51,0,0,0,257.29,273Z" style="fill:#9e79bb"/><polygon points="246.24 288.31 247.51 289.04 247.53 289.04 256.87 283.65 256.87 283.64 255.59 282.92 247.72 287.46 246.24 288.31" style="fill:#006c8a"/><polygon points="255.59 282.92 256.87 283.64 256.87 283.65 256.88 283.65 267.29 277.63 266.01 276.9 257.08 282.06 255.59 282.92" style="fill:#989696"/><polygon points="212.84 307.61 212.85 307.63 214.11 308.34 218.82 305.62 217.54 304.89 212.84 307.61" style="fill:#006c8a"/><polygon points="235.57 294.49 236.85 295.21 236.86 295.21 247.52 289.05 247.52 289.04 246.25 288.32 235.57 294.49" style="fill:#989696"/><polygon points="217.54 304.89 218.82 305.62 218.83 305.61 227.56 300.57 226.28 299.84 219.03 304.03 217.54 304.89" style="fill:#989696"/><polygon points="226.28 299.84 227.56 300.57 227.57 300.57 236.85 295.21 235.57 294.49 227.77 298.98 226.28 299.84" style="fill:#006c8a"/><polygon points="216.6 322.33 216.57 322.35 215.36 321.67 212.85 307.63 214.11 308.34 216.6 322.33" style="fill:#006c8a"/><polygon points="225.45 317.21 234.74 311.85 235.59 305.13 236.86 295.21 236.85 295.21 227.57 300.57 227.57 300.58 226.38 309.91 225.45 317.21" style="fill:#00a7e1"/><polygon points="234.74 311.85 245.4 305.7 246.07 300.43 247.52 289.05 236.86 295.21 236.86 295.21 235.59 305.13 234.74 311.85" style="fill:#dad9d9"/><polygon points="265.18 294.27 269.8 291.6 267.3 277.64 265.18 294.27" style="fill:#00a7e1"/><polygon points="245.4 305.7 254.75 300.29 255.6 293.62 256.87 283.65 247.53 289.04 247.52 289.05 246.07 300.43 245.4 305.7" style="fill:#00a7e1"/><path d="M214.11,308.34l2.5,14,.1-.06,2.12-16.64h0Z" style="fill:#00a7e1"/><polygon points="216.7 322.26 225.45 317.21 226.38 309.91 227.57 300.58 227.56 300.57 218.83 305.61 218.83 305.63 216.7 322.26" style="fill:#dad9d9"/><polygon points="254.76 300.29 265.18 294.27 267.29 277.64 267.29 277.63 267.29 277.63 256.88 283.65 256.87 283.65 255.6 293.62 254.76 300.29" style="fill:#dad9d9"/><polygon points="214.11 308.34 214.11 308.34 214.11 308.34 214.11 308.34" style="fill:none;stroke:#a8c628;stroke-miterlimit:10;stroke-width:0.25px"/><path d="M3.55,110.36v122.9l50.18,29V139.33Z" style="fill:#989696"/><polygon points="110.1 106.78 53.73 139.32 53.73 262.23 110.1 229.68 110.1 106.78" style="fill:#bebebe"/><polygon points="58.8 224.33 58.8 249.46 68.64 243.78 68.64 218.64 58.8 224.33" style="fill:#b6e8fb"/><polygon points="58.8 204.8 58.8 218.95 68.64 213.26 68.64 199.12 58.8 204.8" style="fill:#b6e8fb"/><polygon points="92.9 199.25 83.06 204.93 83.06 190.8 92.9 185.11 92.9 199.25" style="fill:#b6e8fb"/><polygon points="70.92 197.8 70.92 211.94 80.76 206.26 80.76 192.12 70.92 197.8" style="fill:#b6e8fb"/><polygon points="95.19 183.79 95.19 197.94 105.03 192.25 105.03 178.11 95.19 183.79" style="fill:#b6e8fb"/><polygon points="58.8 185.28 58.8 199.42 68.64 193.74 68.64 179.6 58.8 185.28" style="fill:#b6e8fb"/><polygon points="92.9 179.73 83.06 185.41 83.06 171.28 92.9 165.59 92.9 179.73" style="fill:#b6e8fb"/><polygon points="70.92 178.28 70.92 192.42 80.76 186.73 80.76 172.6 70.92 178.28" style="fill:#b6e8fb"/><polygon points="95.19 164.27 95.19 178.41 105.03 172.72 105.03 158.59 95.19 164.27" style="fill:#b6e8fb"/><polygon points="58.8 165.76 58.8 179.9 68.64 174.22 68.64 160.07 58.8 165.76" style="fill:#b6e8fb"/><polygon points="83.06 151.75 83.06 165.89 92.9 160.21 92.9 146.06 83.06 151.75" style="fill:#b6e8fb"/><polygon points="70.92 158.75 70.92 172.9 80.76 167.22 80.76 153.07 70.92 158.75" style="fill:#b6e8fb"/><polygon points="105.03 153.2 95.19 158.88 95.19 144.75 105.03 139.07 105.03 153.2" style="fill:#b6e8fb"/><polygon points="58.8 146.07 58.8 160.21 68.64 154.52 68.64 140.39 58.8 146.07" style="fill:#b6e8fb"/><polygon points="83.06 132.06 83.06 146.2 92.9 140.51 92.9 126.38 83.06 132.06" style="fill:#b6e8fb"/><polygon points="70.92 139.07 70.92 153.2 80.76 147.52 80.76 133.39 70.92 139.07" style="fill:#b6e8fb"/><polygon points="95.19 125.06 95.19 139.19 105.03 133.51 105.03 119.38 95.19 125.06" style="fill:#b6e8fb"/><polygon points="84.32 131.33 83.06 135.19 83.06 146.2 89.86 142.27 92.9 132.95 92.9 126.38 84.32 131.33" style="fill:#b6e8fb"/><polygon points="87.63 149.11 83.06 151.75 83.06 163.11 87.63 149.11" style="fill:#b6e8fb"/><polygon points="78.62 148.76 80.76 147.52 80.76 142.22 78.62 148.76" style="fill:#b6e8fb"/><polygon points="76.39 155.6 70.92 172.36 70.92 172.9 80.76 167.22 80.76 153.07 76.39 155.6" style="fill:#b6e8fb"/><polygon points="79.78 173.17 70.92 178.28 70.92 192.42 74.08 190.59 79.78 173.17" style="fill:#b6e8fb"/><polygon points="71.93 197.21 70.92 197.8 70.92 200.29 71.93 197.21" style="fill:#b6e8fb"/><polygon points="62.85 197.08 68.64 193.74 68.64 179.6 68.55 179.66 62.85 197.08" style="fill:#b6e8fb"/><polygon points="58.8 209.51 58.8 218.95 66.24 214.65 68.64 207.29 68.64 199.12 60.7 203.7 58.8 209.51" style="fill:#b6e8fb"/><polygon points="64.07 221.28 58.8 224.33 58.8 236.89 59.02 236.76 64.07 221.28" style="fill:#b6e8fb"/><polygon points="58.8 146.07 58.8 160.21 64.48 156.93 68.64 144.19 68.64 140.39 58.8 146.07" style="fill:#b6e8fb"/><polygon points="62.25 163.76 58.8 165.76 58.8 174.34 62.25 163.76" style="fill:#b6e8fb"/><polygon points="102.16 174.38 105.03 172.72 105.03 165.59 102.16 174.38" style="fill:#b6e8fb"/><polygon points="95.19 195.74 95.19 197.94 105.03 192.25 105.03 178.11 99.99 181.01 95.19 195.74" style="fill:#b6e8fb"/><polygon points="105.03 197.63 95.19 203.32 95.19 228.45 105.03 222.76 105.03 197.63" style="fill:#b6e8fb"/><polygon points="90.25 227.47 82.61 231.88 82.61 245.55 90.25 241.14 90.25 227.47" style="fill:#00a7e1"/><polygon points="73.58 237.09 73.58 250.76 81.22 246.35 81.22 232.68 73.58 237.09" style="fill:#00a7e1"/><polygon points="90.25 212.04 82.61 216.45 82.61 230.54 90.25 226.13 90.25 212.04" style="fill:#00a7e1"/><polygon points="73.58 221.67 73.58 235.75 81.22 231.34 81.22 217.26 73.58 221.67" style="fill:#00a7e1"/><polygon points="90.25 227.47 82.61 231.88 82.61 245.55 90.25 241.14 90.25 227.47" style="fill:#00a7e1"/><polygon points="73.58 237.09 73.58 250.76 81.22 246.35 81.22 232.68 73.58 237.09" style="fill:#00a7e1"/><polygon points="90.25 212.04 82.61 216.45 82.61 230.54 90.25 226.13 90.25 212.04" style="fill:#00a7e1"/><polygon points="73.58 221.67 73.58 235.75 81.22 231.34 81.22 217.26 73.58 221.67" style="fill:#00a7e1"/><path d="M71.5,220.65V252l1.31.76.77-14.65,7.64-4.41v12.69l1.31.76.08-14.25,7.64-4.41v12.69l1.31.76,2.09-32.52-1.31-.76Zm11.12,9.88V216.45L90.25,212v14.08Zm-9-8.87,7.64-4.41v14.08l-7.64,4.41Z" style="fill:#989696"/><path d="M72.81,221.41v31.31l2.09-1.2V237.85l7.64-4.41v13.67l1.39-.8V232.63l7.64-4.41V241.9l2.09-1.2V209.38Zm11.12,9.88V217.21l7.64-4.41v14.08Zm-9-8.87L82.54,218V232.1l-7.64,4.41Z" style="fill:#dad9d9"/><polygon points="60.13 72.96 0.14 107.6 53.73 138.41 113.72 103.77 60.13 72.96" style="fill:#f4f4f4"/><polygon points="59.55 78.89 10.44 107.25 54.31 132.47 103.42 104.12 59.55 78.89" style="fill:#a5a3a4"/><polygon points="59.52 86.25 16.75 110.94 54.35 132.47 97.11 107.78 59.52 86.25" style="fill:#dad9d9"/><polygon points="59.55 78.89 59.55 86.25 16.75 110.94 10.44 107.25 59.55 78.89" style="fill:#bebebe"/><polygon points="42.38 97.83 42.38 90.62 42.39 90.61 51.3 95.87 51.3 103.1 42.38 97.83" style="fill:#a5a3a4"/><polygon points="62.26 89.54 62.26 96.76 51.3 103.1 51.3 95.87 62.26 89.54" style="fill:#bebebe"/><polygon points="53.35 84.29 62.26 89.54 51.3 95.87 42.39 90.61 53.35 84.29" style="fill:#f4f4f4"/><ellipse cx="35" cy="117.47" rx="2.9" ry="1.66" style="fill:#989696"/><rect x="32.1" y="111.11" width="5.8" height="6.36" style="fill:#989696"/><ellipse cx="35" cy="111.11" rx="2.9" ry="1.66" style="fill:#f4f4f4"/><polygon points="40.45 200.06 49.21 205.12 49.21 219.26 40.45 214.21 40.45 200.06" style="fill:#00a7e1"/><polygon points="40.45 180.54 49.21 185.6 49.21 199.74 40.45 194.68 40.45 180.54" style="fill:#00a7e1"/><polygon points="29.66 154.78 38.42 159.84 38.42 173.99 29.66 168.93 29.66 154.78" style="fill:#00a7e1"/><polygon points="29.66 135.1 38.42 140.16 38.42 154.29 29.66 149.23 29.66 135.1" style="fill:#00a7e1"/><polygon points="18.85 207.12 27.61 212.18 27.61 226.32 18.85 221.26 18.85 207.12" style="fill:#00a7e1"/><polygon points="18.85 187.59 27.61 192.65 27.61 206.79 18.85 201.74 18.85 187.59" style="fill:#00a7e1"/><polygon points="18.85 168.07 27.61 173.13 27.61 187.27 18.85 182.21 18.85 168.07" style="fill:#00a7e1"/><polygon points="18.85 148.55 27.61 153.6 27.61 167.75 18.85 162.69 18.85 148.55" style="fill:#00a7e1"/><polygon points="8.06 200.89 16.82 205.94 16.82 220.09 8.06 215.03 8.06 200.89" style="fill:#00a7e1"/><polygon points="8.06 181.36 16.82 186.42 16.82 200.56 8.06 195.51 8.06 181.36" style="fill:#00a7e1"/><polygon points="8.06 161.84 16.82 166.9 16.82 181.04 8.06 175.98 8.06 161.84" style="fill:#00a7e1"/><polygon points="8.06 142.32 16.82 147.37 16.82 161.52 8.06 156.46 8.06 142.32" style="fill:#00a7e1"/><polygon points="8.06 181.36 8.06 195.51 16.82 200.56 16.82 186.42 8.06 181.36" style="fill:#00a7e1"/><polygon points="38.42 213.03 29.66 207.97 29.66 193.84 38.42 198.89 38.42 213.03" style="fill:#00a7e1"/><polygon points="18.85 187.59 18.85 201.74 27.61 206.79 27.61 192.65 18.85 187.59" style="fill:#00a7e1"/><polygon points="40.45 200.06 40.45 214.21 49.21 219.26 49.21 205.12 40.45 200.06" style="fill:#00a7e1"/><polygon points="38.42 193.51 29.66 188.45 29.66 174.31 38.42 179.37 38.42 193.51" style="fill:#00a7e1"/><polygon points="18.85 168.07 18.85 182.21 27.61 187.27 27.61 173.13 18.85 168.07" style="fill:#00a7e1"/><polygon points="18.85 148.55 18.85 162.69 27.61 167.75 27.61 153.6 18.85 148.55" style="fill:#00a7e1"/><polygon points="49.22 180.22 40.46 175.16 40.46 161.03 49.22 166.09 49.22 180.22" style="fill:#00a7e1"/><polygon points="8.06 122.63 8.06 136.76 16.82 141.82 16.82 127.69 8.06 122.63" style="fill:#00a7e1"/><polygon points="29.66 135.1 29.66 149.23 38.42 154.29 38.42 140.16 29.66 135.1" style="fill:#00a7e1"/><polygon points="40.45 141.33 40.45 155.47 49.21 160.53 49.21 146.39 40.45 141.33" style="fill:#00a7e1"/><polygon points="29.66 154.78 29.66 168.93 38.42 173.99 38.42 159.84 29.66 154.78" style="fill:#00a7e1"/><polygon points="18.85 128.86 18.85 143 27.61 148.05 27.61 133.92 18.85 128.86" style="fill:#00a7e1"/><polygon points="8.06 161.84 8.06 175.98 16.82 181.04 16.82 166.9 8.06 161.84" style="fill:#00a7e1"/><polygon points="8.06 142.32 8.06 156.46 16.82 161.52 16.82 147.37 8.06 142.32" style="fill:#00a7e1"/><polygon points="40.45 180.54 40.45 194.68 49.21 199.74 49.21 185.6 40.45 180.54" style="fill:#00a7e1"/><polygon points="8.06 200.89 8.06 215.03 16.82 220.09 16.82 205.94 8.06 200.89" style="fill:#00a7e1"/><polygon points="38.42 232.56 29.66 227.5 29.66 213.36 38.42 218.42 38.42 232.56" style="fill:#00a7e1"/><polygon points="18.85 207.12 18.85 221.26 27.61 226.32 27.61 212.18 18.85 207.12" style="fill:#00a7e1"/><polygon points="40.45 219.59 40.45 233.73 49.21 238.79 49.21 224.64 40.45 219.59" style="fill:#00a7e1"/><polygon points="53.73 152.18 113.74 117.53 113.74 103.75 53.73 138.41 53.73 152.18" style="fill:#dad9d9"/><polygon points="53.73 152.18 0 121.3 0 107.53 53.73 138.41 53.73 152.18" style="fill:#bebebe"/><polygon points="161.66 300.01 161.41 300.15 161.66 300.01 159.13 288.34 158.12 288.91 160.63 300.49 160.66 300.57 161.41 300.15 161.66 300.01" style="fill:#006c8a"/><polygon points="115.28 264.18 115.28 264.18 115.28 264.18 115.28 264.18" style="fill:none;stroke:#00a7e1;stroke-miterlimit:10;stroke-width:0.25px"/><polygon points="134.52 274.13 133.51 274.71 133.48 274.69 124.02 269.23 125.03 268.65 132.75 273.11 134.52 274.13" style="fill:#989696"/><polygon points="144.28 279.76 143.26 280.34 143.24 280.32 133.51 274.71 134.52 274.13 142.51 278.75 144.28 279.76" style="fill:#006c8a"/><polygon points="125.03 268.65 124.02 269.23 124 269.21 115.29 264.19 116.3 263.6 123.27 267.63 125.03 268.65" style="fill:#006c8a"/><polygon points="155.3 286.13 154.28 286.7 154.28 286.7 143.26 280.34 144.28 279.76 153.57 285.13 155.3 286.13" style="fill:#989696"/><polygon points="159.13 288.34 158.12 288.92 154.29 286.71 154.28 286.7 155.3 286.13 159.13 288.34" style="fill:#006c8a"/><polygon points="116.3 263.6 115.29 264.19 109.56 260.88 109.56 260.88 110.57 260.3 114.56 262.6 116.3 263.6" style="fill:#989696"/><polygon points="114.46 273.92 112.09 272.55 110.53 265.39 114.46 273.92" style="fill:none;stroke:#00a7e1;stroke-miterlimit:10;stroke-width:0.25px"/><path d="M158.12,288.91l-3.82-2.21,6.33,13.79Z" style="fill:#00a7e1"/><polygon points="149.63 294.23 139.85 288.58 133.49 274.71 133.51 274.71 143.24 280.32 143.25 280.35 149.63 294.23" style="fill:#00a7e1"/><polygon points="149.63 294.23 143.25 280.35 143.26 280.34 154.28 286.7 154.28 286.7 154.29 286.71 160.62 300.49 149.63 294.23" style="fill:#bebebe"/><polygon points="139.85 288.58 130.38 283.11 124.01 269.24 124.02 269.23 133.48 274.69 133.49 274.71 139.85 288.58" style="fill:#bebebe"/><polygon points="121.66 278.08 114.46 273.92 110.53 265.39 109.56 260.88 115.29 264.19 121.66 278.08" style="fill:#bebebe"/><polygon points="130.38 283.11 121.66 278.08 115.29 264.19 124 269.21 124.01 269.24 130.38 283.11" style="fill:#00a7e1"/><polygon points="149.18 283.1 152.61 285.08 152.72 285.14 154.19 284.35 150.65 282.27 149.18 283.1" style="fill:#dad9d9"/><polygon points="149.18 283.1 158.41 324.76 161.55 326.46 152.7 285.14 149.18 283.1" style="fill:#bebebe"/><polygon points="161.55 326.46 163.11 325.6 154.18 284.35 152.7 285.14 161.55 326.46" style="fill:#989696"/><polygon points="158.74 317.74 158.74 317.74 158.74 317.74 158.74 317.74" style="fill:none;stroke:#a8c628;stroke-miterlimit:10;stroke-width:0.25px"/><polygon points="158.75 317.74 141.49 327.53 141.71 326.27 157.74 317.17 158.75 317.74" style="fill:#dad9d9"/><polygon points="159.27 320.21 140.94 330.61 141.49 327.53 158.75 317.74 158.75 317.75 159.27 320.21" style="fill:#989696"/><polygon points="152.6 285.13 151.45 284.46 149.14 283.13 147.52 284.06 151.06 286.1 151.17 286.04 152.58 285.24 152.69 285.18 152.6 285.13" style="fill:#dad9d9"/><polygon points="152.69 285.18 143.49 336.07 142.08 336.87 151.06 286.1 152.69 285.18" style="fill:#989696"/><polygon points="142.08 336.87 138.44 334.76 146.69 288.58 147.5 284.06 147.52 284.06 151.06 286.1 142.08 336.87" style="fill:#bebebe"/><polygon points="105.96 258.14 109.39 260.12 109.5 260.19 110.98 259.39 107.43 257.32 105.96 258.14" style="fill:#dad9d9"/><polygon points="105.96 258.14 115.2 299.8 118.34 301.5 109.49 260.18 105.96 258.14" style="fill:#bebebe"/><polygon points="118.34 301.5 119.9 300.64 110.97 259.39 109.49 260.19 118.34 301.5" style="fill:#989696"/><polygon points="109.39 260.17 108.24 259.5 105.93 258.17 104.31 259.1 107.84 261.14 107.95 261.08 109.37 260.28 109.48 260.22 109.39 260.17" style="fill:#dad9d9"/><polygon points="109.48 260.22 100.28 311.11 98.86 311.91 107.84 261.14 109.48 260.22" style="fill:#989696"/><polygon points="98.86 311.91 95.22 309.81 103.48 263.62 104.29 259.11 104.31 259.1 107.84 261.14 98.86 311.91" style="fill:#bebebe"/><path d="M154.13,282.15a2.33,2.33,0,0,1-1,1.64h0l-.09.05-.92.52a1.76,1.76,0,0,0,.38-.36,2.78,2.78,0,0,0,.52-1.24,5.7,5.7,0,0,0-2-5.12,2.17,2.17,0,0,0-1.51-.5,1.5,1.5,0,0,0-.49.14l.87-.5h0l.21-.12h0a1.93,1.93,0,0,1,2,.36A5.7,5.7,0,0,1,154.13,282.15Z" style="fill:#989696"/><path d="M151.09,277.65a2.17,2.17,0,0,0-1.51-.5,1.5,1.5,0,0,0-.49.14h0l-.09.05-.06,0h0A2.35,2.35,0,0,0,148,279a5.7,5.7,0,0,0,2,5.12,2,2,0,0,0,2,.37h0l.23-.13h0a1.76,1.76,0,0,0,.38-.36,2.78,2.78,0,0,0,.52-1.24A5.7,5.7,0,0,0,151.09,277.65Zm-.52,5.47h0a1.67,1.67,0,0,1-.41-.23,3.51,3.51,0,0,1-1.21-3.16,1.92,1.92,0,0,1,.06-.24h0a1.1,1.1,0,0,1,1.86-.6,3.51,3.51,0,0,1,1.21,3.16C151.91,283,151.28,283.39,150.57,283.12Z" style="fill:#bebebe"/><path d="M152.08,282c-.16.93-.8,1.34-1.51,1.07h0a1.67,1.67,0,0,1-.41-.23,3.51,3.51,0,0,1-1.21-3.16,1.92,1.92,0,0,1,.06-.24h0a1.1,1.1,0,0,1,1.86-.6A3.51,3.51,0,0,1,152.08,282Z" style="fill:#9e79bb"/><path d="M111.48,257.16a2.33,2.33,0,0,1-1,1.64h0l-.09.05-.92.52a1.76,1.76,0,0,0,.38-.36,2.78,2.78,0,0,0,.52-1.24,5.7,5.7,0,0,0-2-5.12,2.17,2.17,0,0,0-1.51-.5,1.5,1.5,0,0,0-.49.14l.87-.5h0l.21-.12h0a1.93,1.93,0,0,1,2,.36A5.7,5.7,0,0,1,111.48,257.16Z" style="fill:#989696"/><path d="M108.44,252.66a2.17,2.17,0,0,0-1.51-.5,1.5,1.5,0,0,0-.49.14h0l-.09.05-.06,0h0a2.35,2.35,0,0,0-.93,1.62,5.7,5.7,0,0,0,2,5.12,2,2,0,0,0,2,.37h0l.23-.13h0a1.76,1.76,0,0,0,.38-.36,2.78,2.78,0,0,0,.52-1.24A5.7,5.7,0,0,0,108.44,252.66Zm-.52,5.47h0a1.67,1.67,0,0,1-.41-.23,3.51,3.51,0,0,1-1.21-3.16,1.92,1.92,0,0,1,.06-.24h0a1.1,1.1,0,0,1,1.86-.6,3.51,3.51,0,0,1,1.21,3.16C109.26,258,108.63,258.41,107.92,258.14Z" style="fill:#bebebe"/><path d="M109.42,257.06c-.16.93-.8,1.34-1.51,1.07h0a1.67,1.67,0,0,1-.41-.23,3.51,3.51,0,0,1-1.21-3.16,1.92,1.92,0,0,1,.06-.24h0a1.1,1.1,0,0,1,1.86-.6A3.51,3.51,0,0,1,109.42,257.06Z" style="fill:#9e79bb"/><polygon points="120.47 272.36 119.19 273.08 119.18 273.08 109.84 267.69 109.84 267.68 111.12 266.96 118.99 271.51 120.47 272.36" style="fill:#006c8a"/><polygon points="111.12 266.96 109.84 267.68 109.84 267.69 109.83 267.69 99.42 261.67 100.7 260.95 109.63 266.1 111.12 266.96" style="fill:#989696"/><polygon points="153.87 291.65 153.86 291.67 152.6 292.38 147.89 289.66 149.17 288.94 153.87 291.65" style="fill:#006c8a"/><polygon points="131.14 278.53 129.86 279.25 129.85 279.25 119.19 273.1 119.19 273.08 120.46 272.36 131.14 278.53" style="fill:#989696"/><polygon points="149.17 288.94 147.89 289.66 147.88 289.65 139.15 284.61 140.43 283.88 147.68 288.08 149.17 288.94" style="fill:#989696"/><polygon points="140.43 283.88 139.15 284.61 139.14 284.61 129.86 279.25 131.14 278.53 138.94 283.03 140.43 283.88" style="fill:#006c8a"/><polygon points="150.1 306.37 150.14 306.39 151.35 305.71 153.86 291.67 152.6 292.38 150.1 306.37" style="fill:#006c8a"/><polygon points="141.26 301.26 131.97 295.89 131.12 289.17 129.85 279.26 129.86 279.25 139.14 284.61 139.14 284.62 140.33 293.95 141.26 301.26" style="fill:#00a7e1"/><polygon points="131.97 295.89 121.31 289.74 120.64 284.48 119.19 273.1 129.85 279.25 129.85 279.26 131.12 289.17 131.97 295.89" style="fill:#dad9d9"/><polygon points="101.53 278.31 96.91 275.65 99.41 261.68 101.53 278.31" style="fill:#00a7e1"/><polygon points="121.31 289.74 111.96 284.34 111.11 277.66 109.84 267.69 119.18 273.09 119.19 273.1 120.64 284.48 121.31 289.74" style="fill:#00a7e1"/><path d="M147.89,289.66h0L150,306.31l.1.06,2.5-14Z" style="fill:#00a7e1"/><polygon points="150 306.31 141.26 301.26 140.33 293.95 139.14 284.62 139.15 284.61 147.88 289.65 147.88 289.67 150 306.31" style="fill:#dad9d9"/><polygon points="111.95 284.33 101.53 278.31 99.42 261.68 99.42 261.67 99.42 261.67 109.83 267.69 109.84 267.69 111.11 277.66 111.95 284.33" style="fill:#dad9d9"/><polygon points="50.42 221.41 53.38 222.96 113.16 173.65 110.2 172.11 50.42 206.62 50.42 221.41" style="fill:#bebebe"/><polygon points="53.38 222.96 113.16 188.44 113.16 173.65 53.38 208.17 53.38 222.96" style="fill:#dad9d9"/><path d="M69.79,209.61l-2.5,1.45v-6.19l2.4-1.39c1.33-.77,1.87-.35,1.87.54a3,3,0,0,1-.66,1.6c.61-.08,1,.31,1,1A3.64,3.64,0,0,1,69.79,209.61Zm-1.25-3,.94-.54a1.55,1.55,0,0,0,.89-1.32c0-.45-.26-.66-.89-.29l-.94.54Zm1,.28-1,.59v1.95l1-.6a1.89,1.89,0,0,0,1.09-1.61C70.66,206.69,70.36,206.46,69.57,206.91Z" style="fill:#989696"/><path d="M79.23,204.16,78.6,203l-2.51,1.45-.63,1.89-1.22.7,2.63-7.71,1-.57,2.63,4.67Zm-1.88-3.57-.92,2.78,1.83-1.06Z" style="fill:#989696"/><path d="M87.58,199.34l-3.24-2.21v4.08l-1.12.65v-6.19l.88-.51,3.24,2.21v-4.08l1.12-.65v6.19Z" style="fill:#989696"/><path d="M95.79,194.6,93,193.26v2.92l-1.26.73v-6.19L93,190v2.83l2.51-4.27,1.37-.79-2.67,4.49,3.08,1.46Z" style="fill:#989696"/></g></g></svg>