<?xml version="1.0" encoding="utf-8"?>
<!-- Generator: Adobe Illustrator 19.1.0, SVG Export Plug-In . SVG Version: 6.00 Build 0)  -->
<svg version="1.1" id="Layer_1" xmlns="http://www.w3.org/2000/svg" xmlns:xlink="http://www.w3.org/1999/xlink" x="0px" y="0px"
	 viewBox="-106 256.1 399 280.9" style="enable-background:new -106 256.1 399 280.9;" xml:space="preserve">
<style type="text/css">
	.st0{opacity:0.27;}
	.st1{fill:#FFFFFF;}
</style>
<title>Asset 1</title>
<g id="Layer_2">
	<g id="Layer_2-2">
		<g class="st0">
			<path class="st1" d="M75.5,527.9c-6.1,0-13.6-0.8-24.3-2.4c-15-2.3-31.8-4.9-56.7-12c-13.1-3.7-31.3-9.6-43.4-16.2
				c-5.3-2.9-18-9.7-27.8-21.9c-4.6-5.7-8.3-12.1-11-19c-1.4-3.4-5.7-13.9-5.4-49.2c0.2-16.7,1.3-40.2,9.4-50.7
				c2.7-3.4,5.7-6.5,8.9-9.4c3.7-3.3,5.9-5.3,9.5-6.6c3.3-1.2,5.8-1.1,8.8-1h1.7c3.7,0.1,7.5-0.3,11.1-1.1c2-0.4,4.2-0.8,7.1-1.2
				c3.6-0.4,8.6-0.8,26.9,0.5c16.8,1.2,30.1,2.1,47.9,5.1c9,1.4,18,3.4,26.8,6c5.1,1.5,8.4,2.8,11.1,3.7c1.3,0.5,2.4,0.9,3.7,1.3
				c11.2,3.8,19.1,3.2,30.2,2.3c9.1-0.8,18.3-1.2,27.4-0.9c17.8,0.5,26.8,0.8,34.5,5.2c16.5,9.4,22.2,27.9,25.3,37.8
				c0.2,0.5-0.1,1.1-0.6,1.3c0,0,0,0,0,0c-0.5,0.2-1.3-0.1-1.3-0.7l0,0c-3-9.7-8.6-27.6-24.4-36.6c-7.3-4.2-16.1-4.4-33.5-4.9
				c-9.1-0.2-18.2,0.1-27.2,0.9c-11.3,0.9-19.4,1.6-31-2.4c-1.2-0.4-2.4-0.9-3.7-1.3c-2.8-1-5.9-2.2-11-3.7
				c-8.7-2.6-17.6-4.5-26.5-5.9c-17.7-3-30.9-3.9-47.7-5c-18-1.2-23-0.9-26.5-0.5c-2.8,0.4-5,0.8-7,1.2c-3.8,0.9-7.7,1.2-11.5,1.2
				h-1.7c-2.8-0.1-5.1-0.2-8,0.9c-3.1,1.1-5,2.8-8.9,6.2c-3.1,2.8-6,5.8-8.6,9.1c-5.8,7.6-8.7,23.7-9,49.5
				c-0.4,34.9,3.8,45.1,5.2,48.5c2.6,6.7,6.2,12.9,10.7,18.5c9.6,11.8,22,18.5,27.3,21.3c12,6.5,30,12.3,43,16
				c24.7,7.1,41.5,9.6,56.4,11.9c20.1,3.1,28.6,3.2,38.2,0.5c5.6-1.6,16.1-4.5,23.4-14.3c3.6-5,5.9-10.8,6.7-16.9l0.1-0.9l0.9,0.1
				c3.5,0.2,7,0.3,10.5,0.3c16.5,0.1,24.8,0.2,32.7-3.1c9.7-4.1,14.8-11.4,20.7-19.9c5.6-8.1,9.6-17.2,11.9-26.8
				c0.1-0.6,0.6-1,1.2-0.9c0.6,0.1,1,0.6,0.9,1.2c0,0.1,0,0.1,0,0.2c-2.4,9.8-6.5,19.1-12.2,27.5c-5.8,8.4-11.4,16.3-21.6,20.6
				c-8.3,3.5-16.7,3.5-33.6,3.3c-3.2,0-6.5-0.1-9.7-0.3c-0.9,6.1-3.3,11.9-7,16.9c-7.6,10.3-18.6,13.4-24.5,15
				C85.5,527.2,80.5,527.9,75.5,527.9z"/>
			<path class="st1" d="M-21.9,346.3l3,0.2c2,0.1,4.9,0.3,8.6,0.6s8.2,0.7,13.3,1.2c5.2,0.5,10.9,1.1,17.2,2s13.1,2,20.3,3.4
				c3.6,0.7,7.2,1.5,11,2.3c3.7,0.8,7.6,1.7,11.4,2.7c0.9,0.3,1.9,0.5,2.9,0.8c1,0.3,1.9,0.6,2.9,0.9c1,0.4,1.9,0.6,2.9,1
				s1.9,0.7,2.9,1.1s1.9,0.8,2.9,1.2c1,0.4,1.9,0.8,2.8,1.3c1.9,0.9,3.7,1.7,5.7,2.6c3.8,1.8,7.5,3.9,11.1,6.2l0.7,0.5l0.6,0.5
				c0.4,0.3,0.9,0.6,1.3,0.9l1.2,1c0.2,0.2,0.4,0.4,0.6,0.5l0.6,0.5l0.6,0.6c0.2,0.2,0.4,0.4,0.6,0.6c0.4,0.4,0.8,0.8,1.1,1.2
				c0.7,0.8,1.4,1.6,2.1,2.5l0.5,0.6l0.2,0.3l0.2,0.3l0.9,1.3c0.1,0.1,0.1,0.2,0.2,0.3l0.2,0.3l0.4,0.7c0.3,0.5,0.5,0.9,0.8,1.4
				c0.9,1.9,1.7,4,2.3,6c0.6,2.1,1,4.1,1.4,6.2c0.4,2.1,0.7,4.2,1,6.2s0.6,4.1,0.9,6.2l0.4,3.1l0.4,3.1c0.4,4.1,0.7,8.1,0.9,12.1
				c0.2,4,0.3,7.9,0.2,11.7c0,1.9-0.1,3.8-0.2,5.7c-0.1,1.9-0.2,3.7-0.3,5.5c-0.2,3.6-0.4,7.2-0.7,10.6c-0.2,3.4-0.5,6.7-0.9,9.9
				c-0.4,3-1,6-1.9,9c-0.8,2.6-1.7,5.2-2.9,7.8c-1.8,4.1-4.1,8-6.7,11.6c-1.7,2.3-3.5,4.6-5.4,6.7c-0.3,0.4-0.6,0.7-0.9,0.9
				l-0.7,0.7l-0.5,0.6l0.5-0.6l0.6-0.7c0.3-0.3,0.6-0.6,0.9-1c1.9-2.2,3.6-4.4,5.3-6.8c2.5-3.7,4.7-7.6,6.5-11.7
				c1.1-2.5,2-5.1,2.7-7.7c0.8-2.9,1.4-5.9,1.7-8.9c0.4-3.1,0.7-6.4,0.9-9.9c0.2-3.4,0.4-7,0.6-10.6c0.1-1.8,0.2-3.7,0.3-5.5
				c0.1-1.9,0.1-3.7,0.1-5.7c0-3.8-0.1-7.7-0.3-11.7c-0.2-4-0.5-8-1-12l-0.4-3l-0.4-3.1c-0.3-2-0.6-4.1-0.9-6.2
				c-0.3-2.1-0.6-4.1-1-6.2c-0.4-2.1-0.8-4.1-1.4-6.1c-0.6-2-1.3-4-2.2-5.8c-0.2-0.5-0.5-0.9-0.7-1.4l-0.4-0.7l-0.2-0.3
				c-0.1-0.1-0.1-0.2-0.2-0.3l-0.9-1.3l-0.2-0.3l-0.2-0.3l-0.5-0.6c-0.6-0.9-1.3-1.6-2-2.4c-0.4-0.4-0.7-0.8-1.1-1.1
				c-0.2-0.2-0.4-0.4-0.5-0.6l-0.6-0.5l-0.6-0.5c-0.2-0.2-0.4-0.4-0.6-0.5l-1.2-1c-0.4-0.3-0.8-0.6-1.2-0.9l-0.6-0.5l-0.6-0.4
				c-3.5-2.3-7.1-4.4-10.9-6.2c-1.9-0.9-3.7-1.8-5.6-2.6c-0.9-0.4-1.9-0.9-2.8-1.3s-1.9-0.8-2.8-1.2s-1.9-0.7-2.8-1.1
				c-0.9-0.4-1.9-0.7-2.9-1c-1-0.3-1.9-0.6-2.9-0.9c-1-0.3-1.9-0.6-2.9-0.8c-3.8-1-7.6-1.9-11.4-2.8c-3.7-0.9-7.4-1.7-10.9-2.4
				c-7.1-1.5-13.9-2.7-20.2-3.6s-12.1-1.6-17.2-2.2c-5.1-0.6-9.6-1.1-13.3-1.4c-3.7-0.3-6.6-0.6-8.6-0.8L-21.9,346.3z"/>
			<path class="st1" d="M172.4,461.6c-3,0-6-0.9-8.6-2.4c-5.5-3.1-7.4-8.3-8.5-11.3c-2-5.3-1.7-9.7-1.4-14
				c0.5-8.3,1.1-16.8,7.5-23.4c6.2-6.3,11.4-6.8,14.8-6.1c2.4,0.5,4.5,1.7,6.3,3.4c0.2,0.2,0.2,0.6,0,0.8c-0.2,0.2-0.6,0.2-0.8,0
				l0,0c-1.6-1.5-3.5-2.6-5.7-3.1c-4.4-0.9-9.1,1.1-13.7,5.8c-6.1,6.2-6.7,14.6-7.2,22.6c-0.3,4.2-0.6,8.5,1.3,13.5
				c1.1,2.9,2.9,7.8,8,10.7c2,1.1,7.2,3.5,12.8,1.3c3.2-1.3,5.8-3.6,7.5-6.6c0.2-0.3,0.5-0.4,0.8-0.2c0.3,0.2,0.4,0.5,0.2,0.8
				c-1.8,3.3-4.7,5.8-8.1,7.2C175.9,461.2,174.1,461.5,172.4,461.6z"/>
			<path class="st1" d="M179.9,454.9c-2.3,0-4.5-0.6-6.4-1.7c-4.8-2.8-6.1-7.8-6.7-10c-1-3.9-0.5-6.8,0.4-12.2
				c0.7-3.9,1.3-7.2,3.3-10.8c1.8-3.2,4.4-5.9,7.4-7.9l0.1-0.1c6.2-4.4,22.1-18.1,50.1-43.2l0.3-0.3l0.4,0.3
				c6.5,4.4,11.4,10.8,14,18.2c1.8,5.4,2.3,11.2,1.4,16.8v0.2l-0.2,0.1l-48.2,40.8c-1.9,3.5-4.9,6.3-8.5,8
				C185,454.3,182.5,454.9,179.9,454.9z M228.4,370.2c-27.8,24.9-43.7,38.6-49.8,42.9l-0.1,0.1c-2.9,2-5.3,4.5-7.1,7.5
				c-1.9,3.4-2.5,6.5-3.2,10.4c-0.9,5.2-1.4,8.1-0.5,11.7c0.5,2,1.8,6.8,6.2,9.3c4.8,2.8,10.1,1.2,12.8,0c3.4-1.6,6.2-4.2,8-7.6
				l0.1-0.1l48.2-40.9c0.8-5.4,0.3-10.9-1.4-16.1C239.2,380.5,234.6,374.5,228.4,370.2L228.4,370.2z"/>
			<path class="st1" d="M248.4,411.2c-3.8,0-7.6-0.3-11.4-0.9c-0.4-0.1-0.7-0.5-0.7-0.9c0.1-0.4,0.5-0.7,0.9-0.7l0,0
				c4.2,0.7,8.5,1,12.7,0.9c3.5-0.1,14.3-0.3,19.8-3.6c10.8-6.3,9-28.7,7.1-52.4l-0.3-3.7c-1.7-21.5-2.8-34.5-10.4-50.4
				c-5.1-10.7-9.5-19.9-19-26.3c-9.8-6.7-23.6-9.4-58.7-1.3c-14.7,3.4-33.4,8.6-84.4,30.7c-8.3,3.6-15.4,6.8-21.7,9.5
				c-21.7,9.6-33.6,14.9-53.4,19.9c-13.5,3.4-27.2,5.9-41,7.4c-0.4,0-0.8-0.3-0.9-0.7c0-0.4,0.3-0.8,0.7-0.9
				c13.8-1.5,27.4-3.9,40.8-7.3c19.6-5,31.5-10.3,53.1-19.9c6.2-2.8,13.3-5.9,21.7-9.5c51.2-22.2,69.9-27.4,84.7-30.9
				c16.7-3.9,29-5.5,38.7-5c8.7,0.4,15.2,2.4,21.3,6.5c9.9,6.7,14.4,16.1,19.6,27c7.7,16.2,8.8,29.3,10.5,51l0.3,3.7
				c2,24.2,3.8,47.1-7.9,53.9c-5.9,3.4-17,3.7-20.6,3.7L248.4,411.2z"/>
			<path class="st1" d="M194.4,392.4c-0.4,0-0.8-0.4-0.8-0.8c0-0.3,0.1-0.5,0.4-0.7c11.2-6.6,21.7-14.4,31.1-23.4
				c7-6.6,15.7-14.8,23.3-27.9c6.5-11.2,14.7-25.2,10.9-40.8v-0.1c-2.4-10-6.9-15.5-10.3-18.3c-5.8-4.9-14-7.5-24.3-7.6
				c-9-0.1-19.7,1.5-31.8,5c-22.4,6.5-45.3,18-59.3,26.6c-11.6,7.2-37.9,25.1-40.9,27.1c-9.1,6.2-18.2,12.5-27.1,18.8
				c-0.4,0.3-0.9,0.2-1.1-0.2c-0.3-0.4-0.2-0.9,0.2-1.1c8.9-6.3,18-12.7,27.1-18.9c3-2,29.3-20,40.9-27.1
				c14.1-8.7,37.2-20.3,59.7-26.8c12.2-3.5,23-5.2,32.2-5.1c10.8,0.1,19.3,2.8,25.4,8c3.6,3,8.3,8.8,10.8,19.2v0.1
				c3.9,16.2-4.5,30.5-11.1,42c-7.7,13.2-16.5,21.5-23.6,28.2c-9.5,9-20.1,16.9-31.4,23.6C194.7,392.4,194.5,392.4,194.4,392.4z"/>
		</g>
	</g>
</g>
</svg>
