<?xml version="1.0" standalone="no"?>
<!DOCTYPE svg PUBLIC "-//W3C//DTD SVG 1.1//EN" "http://www.w3.org/Graphics/SVG/1.1/DTD/svg11.dtd" >
<svg xmlns="http://www.w3.org/2000/svg" xmlns:xlink="http://www.w3.org/1999/xlink" version="1.1">
<metadata>
Created by FontForge 20161116 at Fri Jan 27 11:56:19 2012
 By Jimmy Wärting
Mr Eaves is the sans-serif companion to Mrs Eaves.
</metadata>
<defs>
<font id="MrEavesXLModOT-UltraItalic" horiz-adv-x="566" >
  <font-face 
    font-family="MrEavesXLModOTUltra"
    font-weight="900"
    font-style="italic"
    font-stretch="normal"
    units-per-em="1000"
    panose-1="2 11 11 3 6 5 2 9 2 4"
    ascent="800"
    descent="-200"
    x-height="432"
    cap-height="600"
    bbox="-146 -235.676 1011.33 858"
    underline-thickness="30"
    underline-position="-100"
    slope="-12"
    stemh="150"
    stemv="180"
    unicode-range="U+0020-FB02"
  />
<missing-glyph horiz-adv-x="500" 
 />
    <glyph glyph-name="fi" unicode="fi" horiz-adv-x="622" 
d="M17 0l56 321h-65l21 111h63l1 10c11 114 95 174 232 174c15 0 66 -7 74 -10l-17 -106c-12 5 -26 7 -38 7c-43 0 -60 -21 -64 -65l-1 -10h94l-21 -111h-92l-56 -321h-187zM347 0l76 432h187l-76 -432h-187zM432 481l21 119h187l-21 -119h-187z" />
    <glyph glyph-name="fl" unicode="fl" horiz-adv-x="630" 
d="M17 0l56 321h-65l21 111h63l1 7c18 127 103 177 231 177c34 0 85 -9 113 -16l186 15l-108 -615h-187l87 495c-17 6 -48 12 -70 12c-45 0 -57 -25 -63 -58l-3 -17h74l-21 -111h-72l-56 -321h-187z" />
    <glyph glyph-name=".notdef" horiz-adv-x="500" 
 />
    <glyph glyph-name="Eth" unicode="&#xd0;" horiz-adv-x="668" 
d="M66 265h-58l12 71h58l47 264h229c238 0 325 -145 296 -310s-141 -290 -382 -290h-249zM278 336h75l-12 -71h-75l-21 -122h18c104 0 165 47 184 157s-28 157 -132 157h-16z" />
    <glyph glyph-name="eth" unicode="&#xf0;" horiz-adv-x="549" 
d="M255 110c31 0 68 18 83 103c15 84 -16 109 -53 109c-33 0 -67 -18 -82 -103s14 -109 52 -109zM361 432c-17 35 -40 60 -57 76l-98 -49l-18 41l78 41c-21 19 -42 36 -64 50l66 31c24 -14 48 -28 71 -44l84 43l20 -40l-65 -34c118 -120 163 -223 141 -346
c-23 -131 -146 -213 -273 -213c-151 0 -246 113 -224 243c22 131 146 213 273 213c25 0 47 -5 66 -12z" />
    <glyph glyph-name="Lslash" unicode="&#x141;" horiz-adv-x="484" 
d="M276 323l-32 -183h222l-25 -140h-422l40 224l-49 -24l-18 51l78 38l55 311h200l-37 -211l57 28l19 -51z" />
    <glyph glyph-name="lslash" unicode="&#x142;" horiz-adv-x="281" 
d="M252 321l-57 -321h-187l41 233l-44 -21l-18 49l73 34l54 305h187l-38 -216l49 23l18 -49z" />
    <glyph glyph-name="Scaron" unicode="&#x160;" horiz-adv-x="510" 
d="M214 -13c-105 0 -177 41 -224 81l60 143c44 -39 106 -79 181 -79c40 0 68 9 73 40c5 30 -18 36 -89 53c-142 33 -178 108 -166 200c15 120 116 189 254 189c85 0 156 -28 203 -63l-55 -132c-45 28 -106 50 -168 50c-29 0 -47 -9 -49 -28c-2 -21 5 -28 61 -41
c153 -36 208 -99 194 -211c-19 -151 -146 -202 -275 -202zM307 648l-115 123l41 37l86 -67l108 67l35 -38z" />
    <glyph glyph-name="scaron" unicode="&#x161;" horiz-adv-x="435" 
d="M188 -14c-81 0 -142 26 -190 56l36 108c43 -27 94 -54 163 -54c30 0 44 9 45 23c2 19 -18 21 -52 27c-131 22 -162 86 -154 155s70 144 207 144c70 0 127 -25 167 -46l-36 -102c-50 27 -97 38 -138 38c-24 0 -35 -7 -37 -18c-2 -14 14 -20 36 -24
c142 -24 177 -92 171 -146c-10 -96 -81 -161 -218 -161zM239 472l-115 123l41 37l86 -67l108 67l35 -38z" />
    <glyph glyph-name="Yacute" unicode="&#xdd;" horiz-adv-x="646" 
d="M182 0l43 242l-163 358h211l80 -194l148 194h217l-294 -363l-42 -237h-200zM350 648l-23 37l165 138l53 -83z" />
    <glyph glyph-name="yacute" unicode="&#xfd;" horiz-adv-x="502" 
d="M-7 -195l123 208l-99 419h177l41 -243l128 243h179l-368 -627h-181zM251 472l-23 37l165 138l53 -83z" />
    <glyph glyph-name="Thorn" unicode="&#xde;" horiz-adv-x="575" 
d="M125 600h200l-14 -80h90c141 0 198 -116 180 -221c-18 -106 -88 -201 -225 -201h-120l-17 -98h-200zM258 225h42c45 0 74 27 84 82s-14 88 -59 88h-36z" />
    <glyph glyph-name="thorn" unicode="&#xfe;" horiz-adv-x="573" 
d="M312 318c-44 0 -71 -41 -82 -102s4 -102 48 -102s71 41 82 102s-4 102 -48 102zM114 600h187l-34 -198c32 30 77 42 118 42c121 0 182 -110 160 -234c-23 -128 -116 -222 -249 -222c-23 0 -66 9 -97 29l-37 -212h-187z" />
    <glyph glyph-name="Zcaron" unicode="&#x17d;" horiz-adv-x="538" 
d="M329 648l-115 123l41 37l86 -67l108 67l35 -38zM-11 0l14 81l300 379h-223l25 140h476l-14 -81l-300 -379h228l-25 -140h-481z" />
    <glyph glyph-name="zcaron" unicode="&#x17e;" horiz-adv-x="464" 
d="M264 499l-115 123l41 37l86 -67l108 67l35 -38zM-13 0l10 54l206 257h-148l18 121h390l-10 -54l-206 -257h173l-18 -121h-415z" />
    <glyph glyph-name="DLE" horiz-adv-x="457" 
d="M368 65l-61 68c-26 -13 -55 -20 -84 -20s-57 7 -79 20l-74 -67l-67 75l73 66c-11 25 -15 53 -12 82s13 58 30 82l-59 67l82 75l59 -67c26 13 55 20 84 20s56 -7 79 -21l77 69l67 -74l-76 -69c10 -25 14 -53 11 -82s-13 -57 -29 -82l62 -68zM233 216c41 0 78 32 82 73
s-25 74 -66 74s-78 -33 -82 -74s25 -73 66 -73z" />
    <glyph glyph-name="onehalf" unicode="&#xbd;" horiz-adv-x="683" 
d="M103 280l45 252h-36l10 57l141 18l-58 -327h-102zM344 0l8 44l85 73c38 33 72 63 78 99c5 29 -19 40 -39 40c-25 0 -51 -9 -89 -35l13 75c25 17 78 33 115 33c66 0 116 -38 105 -100c-10 -54 -47 -91 -88 -120l-52 -37h123l-13 -72h-246zM97 -18l-39 22l481 614l39 -22z
" />
    <glyph glyph-name="onequarter" unicode="&#xbc;" horiz-adv-x="669" 
d="M418 0l11 64h-150l9 49l197 208h88l-34 -190h61l-12 -67h-61l-11 -64h-98zM366 131h75l17 94zM101 280l45 252h-36l10 57l141 18l-58 -327h-102zM95 -18l-39 22l481 614l39 -22z" />
    <glyph glyph-name="onesuperior" unicode="&#xb9;" horiz-adv-x="235" 
d="M81 280l45 252h-36l10 57l141 18l-58 -327h-102z" />
    <glyph glyph-name="threequarters" unicode="&#xbe;" horiz-adv-x="725" 
d="M176 271c-47 0 -87 15 -106 35l12 71c24 -25 56 -38 87 -38c33 0 59 17 64 46c4 26 -14 41 -39 41c-17 0 -38 -12 -45 -18l-27 38l106 82h-121l13 72h242l-8 -44l-95 -73c48 -8 82 -43 72 -100c-13 -71 -81 -112 -155 -112zM476 0l11 64h-150l9 49l197 208h88l-34 -190
h61l-12 -67h-61l-11 -64h-98zM424 131h75l17 94zM153 -18l-39 22l481 614l39 -22z" />
    <glyph glyph-name="threesuperior" unicode="&#xb3;" horiz-adv-x="315" 
d="M158 271c-47 0 -87 15 -106 35l12 71c24 -25 56 -38 87 -38c33 0 59 17 64 46c4 26 -14 41 -39 41c-17 0 -38 -12 -45 -18l-27 38l106 82h-121l13 72h242l-8 -44l-95 -73c48 -8 82 -43 72 -100c-13 -71 -81 -112 -155 -112z" />
    <glyph glyph-name="twosuperior" unicode="&#xb2;" horiz-adv-x="300" 
d="M36 280l8 44l85 73c38 33 72 63 78 99c5 29 -19 40 -39 40c-25 0 -51 -9 -89 -35l13 75c25 17 78 33 115 33c66 0 116 -38 105 -100c-10 -54 -47 -91 -88 -120l-52 -37h123l-13 -72h-246z" />
    <glyph glyph-name="brokenbar" unicode="&#xa6;" horiz-adv-x="243" 
d="M38 -96l59 337h57l-59 -337h-57zM117 349l59 337h57l-59 -337h-57z" />
    <glyph glyph-name="minus" unicode="&#x2212;" horiz-adv-x="444" 
d="M81 245l16 89h292l-16 -89h-292z" />
    <glyph glyph-name="multiply" unicode="&#xd7;" horiz-adv-x="444" 
d="M100 114l-52 68l125 109l-84 108l71 62l84 -108l125 109l55 -66l-126 -110l86 -106l-72 -62l-86 106z" />
    <glyph glyph-name="space" unicode=" " horiz-adv-x="172" 
 />
    <glyph glyph-name="exclam" unicode="!" horiz-adv-x="297" 
d="M94 214v386h242l-135 -386h-107zM36 0l27 151h150l-27 -151h-150z" />
    <glyph glyph-name="quotedbl" unicode="&#x22;" horiz-adv-x="433" 
d="M312 336l-4 264h162l-98 -264h-60zM102 336l-4 264h161l-98 -264h-59z" />
    <glyph glyph-name="numbersign" unicode="#" horiz-adv-x="454" 
d="M56 94l34 123h-69l20 75h70l29 111h-69l20 75h70l34 122h74l-34 -122h90l34 122h74l-34 -122h70l-21 -75h-69l-30 -111h70l-21 -75h-70l-34 -123h-74l34 123h-90l-34 -123h-74zM185 292h90l29 111h-89z" />
    <glyph glyph-name="dollar" unicode="$" horiz-adv-x="498" 
d="M293 602l14 81h59l-15 -84c61 -8 112 -31 148 -58l-53 -126c-43 26 -101 48 -161 48c-28 0 -45 -9 -47 -27c-2 -21 4 -27 59 -40c146 -34 200 -95 186 -202c-17 -135 -123 -186 -237 -193l-16 -89h-59l16 89c-84 8 -143 42 -183 77l57 137c43 -38 102 -76 174 -76
c38 0 65 9 70 38s-17 35 -85 51c-137 32 -172 104 -160 192c15 112 107 178 233 182z" />
    <glyph glyph-name="percent" unicode="%" horiz-adv-x="705" 
d="M146 -17l-37 22l480 614l37 -22zM505 63c29 0 46 23 55 75c9 51 0 74 -29 74s-45 -23 -54 -74c-9 -52 -1 -75 28 -75zM496 -12c-87 0 -143 68 -128 156c15 87 83 143 170 143c86 0 145 -66 130 -153c-15 -88 -86 -146 -172 -146zM205 391c29 0 46 23 55 75
c9 51 0 74 -29 74s-45 -23 -54 -74c-9 -52 -1 -75 28 -75zM196 316c-87 0 -143 68 -128 156c15 87 83 143 170 143c86 0 145 -66 130 -153c-15 -88 -86 -146 -172 -146z" />
    <glyph glyph-name="ampersand" unicode="&#x26;" horiz-adv-x="678" 
d="M288 396c39 24 68 50 72 85c2 20 -6 37 -33 37c-32 0 -46 -26 -50 -59c-3 -22 3 -43 11 -63zM272 91c13 0 26 3 37 6c-30 27 -62 71 -92 117c-12 -16 -20 -35 -22 -55c-4 -35 23 -68 77 -68zM243 -15c-143 0 -234 61 -222 172c8 73 63 123 128 162c-26 50 -41 97 -37 139
c10 98 110 159 213 159c121 0 185 -56 176 -137c-9 -80 -85 -125 -159 -170c22 -35 48 -69 68 -92c12 45 18 86 20 106h192l-9 -91h-89c-3 -10 -5 -24 -8 -37c-6 -26 -18 -53 -33 -78c22 -26 36 -33 60 -33c23 0 51 15 77 42l41 -61c-47 -62 -106 -81 -144 -81
c-39 0 -80 8 -127 38c-39 -23 -87 -38 -147 -38z" />
    <glyph glyph-name="quotesingle" unicode="'" horiz-adv-x="223" 
d="M102 336l-4 264h161l-98 -264h-59z" />
    <glyph glyph-name="parenleft" unicode="(" horiz-adv-x="328" 
d="M354 701l33 -33c-66 -63 -167 -183 -200 -373s20 -314 64 -377l-42 -29c-103 104 -160 236 -130 406s133 302 275 406z" />
    <glyph glyph-name="parenright" unicode=")" horiz-adv-x="328" 
d="M3 -111l-33 33c66 63 167 183 200 373s-20 314 -64 377l42 29c103 -104 160 -236 130 -406s-133 -302 -275 -406z" />
    <glyph glyph-name="asterisk" unicode="*" horiz-adv-x="405" 
d="M224 257c-29 0 -50 25 -47 53c3 26 33 50 49 101c-44 -33 -55 -68 -80 -81c-25 -14 -58 -6 -69 18c-11 23 2 57 27 71c22 13 56 1 108 18c-48 18 -82 7 -103 20c-22 14 -30 47 -14 70c17 24 52 32 74 19c23 -14 25 -49 63 -84c-5 52 -29 75 -27 103s28 52 57 52
c28 0 49 -24 46 -52s-33 -51 -48 -101c43 33 54 68 79 81c25 14 57 4 68 -18c12 -24 -1 -57 -26 -72c-24 -14 -57 0 -109 -18c48 -17 80 -6 104 -20c22 -13 29 -48 13 -69c-17 -23 -53 -33 -73 -19c-22 15 -25 48 -62 82c5 -51 29 -74 26 -101c-3 -28 -28 -53 -56 -53z" />
    <glyph glyph-name="plus" unicode="+" horiz-adv-x="444" 
d="M158 105l24 140h-133l16 89h133l24 139h90l-24 -139h133l-16 -89h-133l-24 -140h-90z" />
    <glyph glyph-name="comma" unicode="," horiz-adv-x="248" 
d="M11 -139l-18 38c55 28 87 63 94 101h-87l30 171h170l-24 -140c-12 -72 -83 -146 -165 -170z" />
    <glyph glyph-name="hyphen" unicode="-" horiz-adv-x="308" 
d="M38 194l20 112h224l-20 -112h-224z" />
    <glyph glyph-name="period" unicode="." horiz-adv-x="248" 
d="M0 0l30 171h170l-29 -171h-171z" />
    <glyph glyph-name="slash" unicode="/" horiz-adv-x="337" 
d="M20 -18l-44 17l371 621l45 -19z" />
    <glyph glyph-name="zero" unicode="0" horiz-adv-x="612" 
d="M276 -14c-165 0 -260 129 -226 321c34 191 148 310 313 310c164 0 259 -129 225 -320c-34 -192 -148 -311 -312 -311zM289 121c55 0 80 41 104 181c24 139 7 180 -44 180c-56 0 -80 -41 -104 -180c-24 -140 -6 -181 44 -181z" />
    <glyph glyph-name="one" unicode="1" horiz-adv-x="371" 
d="M55 0l81 461h-64l20 110l264 44l-108 -615h-193z" />
    <glyph glyph-name="two" unicode="2" horiz-adv-x="489" 
d="M-23 0l17 94l145 132c79 72 145 122 145 183c0 47 -30 68 -66 68c-57 0 -97 -25 -159 -64l18 141c46 32 127 63 209 63c127 0 211 -88 193 -209c-15 -101 -75 -147 -148 -202l-85 -64h200l-26 -142h-443z" />
    <glyph glyph-name="three" unicode="3" horiz-adv-x="516" 
d="M201 -14c-87 0 -157 27 -195 66l17 138c44 -53 106 -76 158 -76c58 0 95 33 102 84c6 43 -20 74 -68 74c-32 0 -58 -16 -72 -27l-43 91l179 124h-200l22 140h440l-18 -95l-169 -117c78 -18 138 -87 123 -192c-18 -128 -143 -210 -276 -210z" />
    <glyph glyph-name="four" unicode="4" horiz-adv-x="613" 
d="M244 0l22 126h-255l18 99l331 375h183l-62 -354h109l-22 -120h-109l-22 -126h-193zM176 246h112l27 158z" />
    <glyph glyph-name="five" unicode="5" horiz-adv-x="516" 
d="M206 -14c-87 0 -161 27 -199 66l17 138c44 -53 106 -76 158 -76c68 0 96 34 102 71c7 45 -27 74 -70 74c-39 0 -64 -15 -92 -41l-64 30l62 352h405l-26 -140h-263l-13 -83c17 6 53 15 80 15c116 0 191 -84 175 -196c-18 -128 -139 -210 -272 -210z" />
    <glyph glyph-name="six" unicode="6" 
d="M255 -14c-111 0 -245 49 -212 285c29 209 165 346 352 346c75 0 143 -26 160 -42l-19 -131c-35 26 -88 41 -136 41c-66 0 -127 -21 -150 -133c22 20 70 40 112 40c122 0 180 -85 163 -203c-17 -117 -133 -203 -270 -203zM264 100c37 0 66 30 76 88c11 62 -10 87 -44 87
c-28 0 -68 -14 -80 -84c-9 -50 6 -91 48 -91z" />
    <glyph glyph-name="seven" unicode="7" horiz-adv-x="504" 
d="M31 0c72 187 257 414 298 460h-274l24 140h465l-19 -103c-59 -76 -228 -308 -292 -497h-202z" />
    <glyph glyph-name="eight" unicode="8" horiz-adv-x="576" 
d="M253 -14c-153 0 -246 75 -230 184c11 76 71 132 146 164c-50 30 -67 82 -60 131c12 86 114 152 243 152c127 0 211 -66 199 -152c-7 -49 -46 -101 -106 -131c63 -32 99 -92 88 -168c-16 -109 -127 -180 -280 -180zM318 391c34 0 55 32 60 60c6 34 -5 61 -39 61
c-33 0 -53 -27 -59 -61c-5 -28 5 -60 38 -60zM266 98c44 0 74 35 83 85c9 49 -9 83 -53 83c-43 0 -74 -34 -83 -83c-9 -50 10 -85 53 -85z" />
    <glyph glyph-name="nine" unicode="9" 
d="M337 617c111 0 245 -49 212 -285c-29 -209 -165 -346 -352 -346c-75 0 -143 26 -160 42l19 131c35 -26 88 -41 136 -41c66 0 127 21 150 133c-22 -20 -70 -40 -112 -40c-122 0 -180 85 -163 203c17 117 133 203 270 203zM328 503c-37 0 -66 -30 -76 -88
c-11 -62 10 -87 44 -87c28 0 68 14 80 84c9 50 -6 91 -48 91z" />
    <glyph glyph-name="colon" unicode=":" horiz-adv-x="248" 
d="M5 0l28 161h162l-29 -161h-161zM53 270l28 162h161l-28 -162h-161z" />
    <glyph glyph-name="semicolon" unicode=";" horiz-adv-x="248" 
d="M53 270l28 162h161l-28 -162h-161zM17 -135l-15 38c54 28 79 59 86 97h-83l28 161h162l-23 -130c-13 -72 -73 -142 -155 -166z" />
    <glyph glyph-name="less" unicode="&#x3c;" horiz-adv-x="439" 
d="M330 68l-279 223l358 225l33 -73l-242 -156l187 -153z" />
    <glyph glyph-name="equal" unicode="=" horiz-adv-x="444" 
d="M94 320l16 89h292l-16 -89h-292zM68 170l16 89h292l-16 -89h-292z" />
    <glyph glyph-name="greater" unicode="&#x3e;" horiz-adv-x="439" 
d="M137 514l279 -223l-358 -225l-33 73l242 156l-187 153z" />
    <glyph glyph-name="question" unicode="?" horiz-adv-x="454" 
d="M114 214l21 125l49 23c65 31 85 54 87 76c2 25 -15 38 -39 38c-55 0 -124 -35 -184 -76l16 151c51 39 138 67 213 67c116 0 213 -49 201 -162c-10 -97 -83 -146 -197 -193l-12 -5l-8 -44h-147zM75 0l27 151h150l-27 -151h-150z" />
    <glyph glyph-name="at" unicode="@" horiz-adv-x="708" 
d="M328 -129c-181 0 -311 132 -293 307c20 194 197 352 391 352c160 0 271 -106 254 -267c-15 -140 -137 -251 -223 -251c-47 0 -65 19 -75 40c-21 -28 -52 -43 -86 -43c-89 0 -127 89 -97 193c33 113 119 187 205 187c27 0 52 -8 63 -16h82l-75 -262c-9 -30 -9 -44 10 -44
c46 0 122 72 135 195c14 132 -83 205 -195 205c-158 0 -285 -135 -300 -285c-16 -156 74 -259 217 -259c81 0 144 25 217 68l16 -33c-83 -58 -173 -87 -246 -87zM321 77c31 0 59 29 72 75l46 166c-7 5 -19 12 -39 12c-44 0 -78 -48 -101 -133c-20 -75 -17 -120 22 -120z" />
    <glyph glyph-name="A" unicode="A" horiz-adv-x="645" 
d="M-39 0l338 600h181l126 -600h-195l-13 90h-197l-47 -90h-193zM266 213h115l-27 170z" />
    <glyph glyph-name="B" unicode="B" horiz-adv-x="597" 
d="M19 0l106 600h283c132 0 182 -71 167 -157c-8 -46 -43 -92 -80 -118c50 -25 79 -91 68 -154c-17 -97 -81 -171 -227 -171h-317zM230 120h56c46 0 90 16 90 79c0 41 -26 57 -72 57h-50zM274 368h42c33 0 61 6 69 52s-22 60 -55 60h-36z" />
    <glyph glyph-name="C" unicode="C" horiz-adv-x="582" 
d="M326 -13c-186 0 -307 129 -280 323s184 303 360 303c80 0 149 -20 190 -58l-21 -166c-42 38 -86 66 -150 66c-86 0 -153 -45 -168 -150c-15 -104 40 -160 116 -160c74 0 121 31 169 66l-20 -166c-51 -38 -116 -58 -196 -58z" />
    <glyph glyph-name="D" unicode="D" horiz-adv-x="668" 
d="M19 0l106 600h229c238 0 325 -145 296 -310s-141 -290 -382 -290h-249zM245 143h18c104 0 165 47 184 157s-28 157 -132 157h-16z" />
    <glyph glyph-name="E" unicode="E" horiz-adv-x="521" 
d="M19 0l106 600h422l-25 -140h-222l-15 -85h175l-24 -137h-175l-17 -98h223l-26 -140h-422z" />
    <glyph glyph-name="F" unicode="F" horiz-adv-x="474" 
d="M19 0l106 600h412l-25 -140h-212l-16 -92h165l-25 -139h-165l-40 -229h-200z" />
    <glyph glyph-name="G" unicode="G" horiz-adv-x="656" 
d="M342 -17c-201 0 -324 133 -296 327s177 303 384 303c80 0 153 -20 196 -58l-21 -161c-43 38 -96 66 -170 66c-98 0 -172 -50 -188 -155c-18 -118 38 -183 124 -183c9 0 24 4 24 4l15 86h-68l21 116h252l-52 -292c-35 -16 -102 -53 -221 -53z" />
    <glyph glyph-name="H" unicode="H" horiz-adv-x="679" 
d="M19 0l106 600h200l-36 -205h162l36 205h200l-106 -600h-200l42 240h-162l-42 -240h-200z" />
    <glyph glyph-name="I" unicode="I" horiz-adv-x="316" 
d="M19 0l106 600h200l-106 -600h-200z" />
    <glyph glyph-name="J" unicode="J" horiz-adv-x="316" 
d="M-1 -199c-54 0 -112 22 -124 37l19 110c11 -10 36 -21 55 -21c40 0 61 20 73 88l103 585h200l-107 -603c-20 -112 -104 -196 -219 -196z" />
    <glyph glyph-name="K" unicode="K" horiz-adv-x="665" 
d="M19 0l106 600h200l-45 -256l222 256h207l-259 -286l193 -314h-232l-146 260l-46 -260h-200z" />
    <glyph glyph-name="L" unicode="L" horiz-adv-x="484" 
d="M19 0l106 600h200l-81 -460h222l-25 -140h-422z" />
    <glyph glyph-name="M" unicode="M" horiz-adv-x="817" 
d="M19 0l106 600h221l60 -379l194 379h225l-106 -600h-173l51 287c2 13 14 63 16 72c-3 -8 -26 -58 -33 -72l-148 -287h-130l-46 287c-2 13 -7 63 -8 72c-1 -8 -7 -58 -10 -72l-51 -287h-168z" />
    <glyph glyph-name="N" unicode="N" horiz-adv-x="672" 
d="M19 0l106 600h155l175 -300l53 300h172l-106 -600h-155l-175 300l-53 -300h-172z" />
    <glyph glyph-name="O" unicode="O" horiz-adv-x="714" 
d="M328 -17c-187 0 -314 148 -282 331s184 303 366 303c185 0 314 -148 283 -331s-187 -303 -367 -303zM344 133c50 0 117 34 140 162c22 124 -22 172 -88 172c-52 0 -116 -33 -139 -162c-21 -118 19 -172 87 -172z" />
    <glyph glyph-name="P" unicode="P" horiz-adv-x="575" 
d="M19 0l106 600h290c141 0 198 -116 180 -221c-18 -106 -88 -201 -225 -201h-120l-31 -178h-200zM272 305h42c45 0 74 27 84 82s-14 88 -59 88h-36z" />
    <glyph glyph-name="Q" unicode="Q" horiz-adv-x="714" 
d="M344 133c50 0 117 34 140 162c22 124 -22 172 -88 172c-52 0 -116 -33 -139 -162c-21 -118 19 -172 87 -172zM507 26l15 -44c13 -37 34 -52 69 -52c14 0 23 2 37 7l-13 -119c-20 -8 -58 -17 -85 -17c-81 0 -153 19 -188 129l-17 53c-185 2 -311 149 -279 331
c32 183 184 303 366 303c185 0 314 -148 283 -331c-20 -118 -92 -210 -188 -260z" />
    <glyph glyph-name="R" unicode="R" horiz-adv-x="618" 
d="M471 239l119 -239h-228l-78 224h-26l-39 -224h-200l106 600h307c129 0 186 -99 169 -196c-13 -72 -54 -136 -130 -165zM277 332h37c45 0 81 14 91 69s-19 78 -64 78h-37z" />
    <glyph glyph-name="S" unicode="S" horiz-adv-x="510" 
d="M214 -13c-105 0 -177 41 -224 81l60 143c44 -39 106 -79 181 -79c40 0 68 9 73 40c5 30 -18 36 -89 53c-142 33 -178 108 -166 200c15 120 116 189 254 189c85 0 156 -28 203 -63l-55 -132c-45 28 -106 50 -168 50c-29 0 -47 -9 -49 -28c-2 -21 5 -28 61 -41
c153 -36 208 -99 194 -211c-19 -151 -146 -202 -275 -202z" />
    <glyph glyph-name="T" unicode="T" horiz-adv-x="538" 
d="M130 0l81 460h-166l25 140h532l-25 -140h-166l-81 -460h-200z" />
    <glyph glyph-name="U" unicode="U" horiz-adv-x="701" 
d="M318 -17c-159 0 -286 91 -250 294l57 323h198l-56 -304c-19 -101 -9 -156 74 -156c74 0 98 55 117 156l56 304h195l-57 -323c-36 -203 -184 -294 -334 -294z" />
    <glyph glyph-name="V" unicode="V" horiz-adv-x="646" 
d="M200 0l-132 600h202l61 -341l181 341h200l-345 -600h-167z" />
    <glyph glyph-name="W" unicode="W" horiz-adv-x="898" 
d="M159 0l-91 600h192l30 -245c3 -21 3 -93 3 -94c1 4 29 72 39 94l108 245h156l21 -245c2 -22 6 -91 6 -94c1 4 26 73 36 94l116 245h189l-303 -600h-161l-29 255c-3 24 -3 71 -3 72l-30 -72l-118 -255h-161z" />
    <glyph glyph-name="X" unicode="X" horiz-adv-x="640" 
d="M-52 0l259 306l-141 294h224l71 -164l126 164h221l-245 -291l151 -309h-225l-78 179l-142 -179h-221z" />
    <glyph glyph-name="Y" unicode="Y" horiz-adv-x="646" 
d="M182 0l43 242l-163 358h211l80 -194l148 194h217l-294 -363l-42 -237h-200z" />
    <glyph glyph-name="Z" unicode="Z" horiz-adv-x="538" 
d="M-11 0l14 81l300 379h-223l25 140h476l-14 -81l-300 -379h228l-25 -140h-481z" />
    <glyph glyph-name="bracketleft" unicode="[" horiz-adv-x="312" 
d="M43 -88l136 766h184l-11 -60h-82l-114 -646h82l-11 -60h-184z" />
    <glyph glyph-name="backslash" unicode="\" horiz-adv-x="337" 
d="M235 -18l-153 619l50 19l154 -621z" />
    <glyph glyph-name="bracketright" unicode="]" horiz-adv-x="312" 
d="M-23 -88l11 60h81l114 646h-81l11 60h184l-136 -766h-184z" />
    <glyph glyph-name="asciicircum" unicode="^" horiz-adv-x="470" 
d="M95 244l-63 47l274 328l160 -328l-71 -47l-113 221z" />
    <glyph glyph-name="underscore" unicode="_" horiz-adv-x="320" 
d="M-51 -44l8 44h330l-8 -44h-330z" />
    <glyph glyph-name="grave" unicode="`" horiz-adv-x="300" 
d="M281 472l-195 92l53 83l165 -138z" />
    <glyph glyph-name="a" unicode="a" horiz-adv-x="570" 
d="M559 432l-52 -300c-11 -66 -15 -95 -15 -132h-169c-1 9 -1 42 0 57c-32 -50 -88 -69 -140 -69c-121 0 -182 110 -160 234c23 128 116 222 249 222c28 0 86 -12 117 -45l31 33h139zM256 114c44 0 71 41 82 102s-4 102 -48 102s-71 -41 -82 -102s4 -102 48 -102z" />
    <glyph glyph-name="b" unicode="b" horiz-adv-x="569" 
d="M114 600h187l-36 -199c32 31 84 43 119 43c121 0 182 -110 160 -234c-23 -128 -116 -222 -249 -222c-28 0 -86 12 -117 45l-30 -33h-139zM311 318c-44 0 -71 -41 -82 -102s4 -102 48 -102s71 41 82 102s-4 102 -48 102z" />
    <glyph glyph-name="c" unicode="c" horiz-adv-x="435" 
d="M226 -12c-144 0 -224 117 -202 241c23 127 135 215 269 215c61 0 108 -21 138 -41l-23 -123c-26 23 -58 37 -95 37c-42 0 -93 -28 -104 -91c-13 -73 33 -111 84 -111c34 0 60 8 96 34l-23 -117c-26 -20 -63 -44 -140 -44z" />
    <glyph glyph-name="d" unicode="d" horiz-adv-x="570" 
d="M369 415l32 185h187l-82 -468c-12 -66 -14 -95 -14 -132h-169c-1 9 -1 42 0 57c-32 -50 -88 -69 -140 -69c-121 0 -182 110 -160 234c23 128 116 222 249 222c23 0 66 -9 97 -29zM256 114c44 0 71 41 82 102s-4 102 -48 102s-71 -41 -82 -102s4 -102 48 -102z" />
    <glyph glyph-name="e" unicode="e" horiz-adv-x="497" 
d="M213 270h95s5 10 8 26c5 29 -10 49 -36 49c-24 0 -51 -16 -67 -75zM236 -12c-144 0 -227 97 -213 231c14 138 132 225 253 225c113 0 200 -67 189 -177c-3 -26 -9 -58 -15 -72h-248c-1 -58 31 -90 104 -90c48 0 105 18 139 41l-18 -107c-43 -30 -100 -51 -191 -51z" />
    <glyph glyph-name="f" unicode="f" horiz-adv-x="339" 
d="M17 0l56 321h-65l21 111h63l1 10c11 114 95 174 232 174c15 0 66 -7 74 -10l-17 -106c-12 5 -26 7 -38 7c-43 0 -60 -21 -64 -65l-1 -10h94l-21 -111h-92l-56 -321h-187z" />
    <glyph glyph-name="g" unicode="g" horiz-adv-x="569" 
d="M214 -204c-61 0 -152 24 -199 54l20 120c56 -40 107 -53 161 -53c59 0 97 31 105 105l1 9c-32 -31 -84 -43 -119 -43c-121 0 -182 110 -160 234c23 128 116 222 249 222c28 0 86 -12 117 -45l30 33h139l-66 -382c-36 -209 -166 -254 -278 -254zM256 114
c44 0 71 41 82 102s-4 102 -48 102s-71 -41 -82 -102s4 -102 48 -102z" />
    <glyph glyph-name="h" unicode="h" horiz-adv-x="579" 
d="M114 600h187l-40 -229c46 46 98 73 157 73c87 0 142 -63 124 -170l-47 -274h-187l42 242c7 41 -10 58 -37 58c-33 0 -70 -31 -83 -104l-34 -196h-187z" />
    <glyph glyph-name="i" unicode="i" horiz-adv-x="281" 
d="M8 0l76 432h187l-76 -432h-187zM93 481l21 119h187l-21 -119h-187z" />
    <glyph glyph-name="j" unicode="j" horiz-adv-x="283" 
d="M93 481l21 119h187l-21 -119h-187zM84 432h187l-78 -440c-24 -135 -91 -196 -206 -196c-50 0 -105 22 -116 37l16 98c10 -12 34 -22 51 -22c37 0 57 16 69 84z" />
    <glyph glyph-name="k" unicode="k" horiz-adv-x="558" 
d="M8 0l106 600h186l-62 -352l170 184h181l-185 -192l117 -240h-190l-98 222l-39 -222h-186z" />
    <glyph glyph-name="l" unicode="l" horiz-adv-x="281" 
d="M8 0l106 600h187l-106 -600h-187z" />
    <glyph glyph-name="m" unicode="m" horiz-adv-x="880" 
d="M539 360c62 60 112 84 180 84c87 0 142 -63 124 -170l-47 -274h-185l42 242c7 41 -12 58 -39 58c-33 0 -72 -31 -85 -104l-34 -196h-185l42 242c7 41 -12 58 -39 58c-33 0 -72 -31 -85 -104l-34 -196h-185l52 300c11 66 15 95 15 132h177c1 -16 2 -34 -1 -64
c48 51 103 76 166 76c62 0 106 -33 121 -84z" />
    <glyph glyph-name="n" unicode="n" horiz-adv-x="579" 
d="M254 368c48 51 101 76 164 76c87 0 142 -63 124 -170l-47 -274h-187l42 242c7 41 -10 58 -37 58c-33 0 -70 -31 -83 -104l-34 -196h-187l52 300c11 66 15 95 15 132h179c1 -16 2 -34 -1 -64z" />
    <glyph glyph-name="o" unicode="o" horiz-adv-x="549" 
d="M249 -16c-151 0 -246 117 -224 247c22 131 146 217 273 217c151 0 246 -117 224 -247c-22 -131 -146 -217 -273 -217zM258 110c31 0 68 18 83 103c15 84 -16 109 -53 109c-33 0 -67 -18 -82 -103s14 -109 52 -109z" />
    <glyph glyph-name="p" unicode="p" horiz-adv-x="569" 
d="M198 17l-37 -212h-187l87 495c12 66 14 95 14 132h169c1 -9 1 -42 0 -57c32 50 88 69 140 69c121 0 182 -110 160 -234c-23 -128 -116 -222 -249 -222c-23 0 -66 9 -97 29zM311 318c-44 0 -71 -41 -82 -102s4 -102 48 -102s71 41 82 102s-4 102 -48 102z" />
    <glyph glyph-name="q" unicode="q" horiz-adv-x="570" 
d="M448 -195h-187l41 226c-32 -31 -84 -43 -119 -43c-121 0 -182 110 -160 234c23 128 116 222 249 222c28 0 86 -12 117 -45l30 33h139zM256 114c44 0 71 41 82 102s-4 102 -48 102s-71 -41 -82 -102s4 -102 48 -102z" />
    <glyph glyph-name="r" unicode="r" horiz-adv-x="400" 
d="M9 0l52 300c11 66 15 95 15 132h179c1 -14 0 -43 -2 -68c27 43 79 86 162 80l-36 -200c-13 7 -36 14 -53 14c-54 0 -89 -24 -102 -100l-28 -158h-187z" />
    <glyph glyph-name="s" unicode="s" horiz-adv-x="435" 
d="M188 -14c-81 0 -142 26 -190 56l36 108c43 -27 94 -54 163 -54c30 0 44 9 45 23c2 19 -18 21 -52 27c-131 22 -162 86 -154 155s70 144 207 144c70 0 127 -25 167 -46l-36 -102c-50 27 -97 38 -138 38c-24 0 -35 -7 -37 -18c-2 -14 14 -20 36 -24
c142 -24 177 -92 171 -146c-10 -96 -81 -161 -218 -161z" />
    <glyph glyph-name="t" unicode="t" horiz-adv-x="367" 
d="M46 0l57 321h-78l21 111h77l21 118h187l-21 -118h79l-21 -111h-78l-57 -321h-187z" />
    <glyph glyph-name="u" unicode="u" horiz-adv-x="579" 
d="M323 64c-48 -51 -101 -76 -164 -76c-87 0 -142 63 -124 170l47 274h187l-42 -242c-7 -41 10 -58 37 -58c33 0 70 31 83 104l34 196h187l-52 -300c-11 -66 -15 -95 -15 -132h-179c-1 16 -2 34 1 64z" />
    <glyph glyph-name="v" unicode="v" horiz-adv-x="502" 
d="M124 0l-110 432h178l42 -238l127 238h179l-262 -432h-154z" />
    <glyph glyph-name="w" unicode="w" horiz-adv-x="749" 
d="M361 205l-112 -205h-125l-104 432h171l40 -202l110 202h127l40 -202l110 202h163l-255 -432h-125z" />
    <glyph glyph-name="x" unicode="x" horiz-adv-x="519" 
d="M-52 0l206 219l-120 213h192l51 -98l87 98h193l-195 -209l129 -223h-196l-55 106l-94 -106h-198z" />
    <glyph glyph-name="y" unicode="y" horiz-adv-x="502" 
d="M-10 -195l123 208l-99 419h177l41 -243l128 243h179l-368 -627h-181z" />
    <glyph glyph-name="z" unicode="z" horiz-adv-x="464" 
d="M-13 0l10 54l206 257h-148l18 121h390l-10 -54l-206 -257h173l-18 -121h-415z" />
    <glyph glyph-name="braceleft" unicode="{" horiz-adv-x="315" 
d="M196 -111c-78 50 -123 74 -97 215c26 143 9 154 -45 174l6 36c62 20 82 31 107 174c24 140 77 165 173 215l15 -36c-57 -39 -61 -72 -82 -187c-26 -145 -82 -167 -156 -184c68 -17 116 -39 91 -184c-20 -115 -27 -148 16 -187z" />
    <glyph glyph-name="bar" unicode="|" horiz-adv-x="243" 
d="M38 -96l138 782h57l-138 -782h-57z" />
    <glyph glyph-name="braceright" unicode="}" horiz-adv-x="315" 
d="M-1 -111l-15 36c57 39 61 72 82 187c26 145 82 167 156 184c-68 17 -116 39 -91 184c20 115 27 148 -16 187l28 36c78 -50 123 -74 97 -215c-26 -143 -9 -154 45 -174l-6 -36c-62 -20 -82 -31 -107 -174c-24 -140 -77 -165 -173 -215z" />
    <glyph glyph-name="asciitilde" unicode="~" horiz-adv-x="435" 
d="M278 168c-42 0 -84 50 -127 50c-18 0 -28 -8 -41 -46h-60c12 117 56 161 115 161c42 0 84 -50 127 -50c18 0 28 8 41 46h60c-12 -117 -56 -161 -115 -161z" />
    <glyph glyph-name="Adieresis" unicode="&#xc4;" horiz-adv-x="645" 
d="M-39 0l338 600h181l126 -600h-195l-13 90h-197l-47 -90h-193zM266 213h115l-27 170zM237 653l20 116h116l-20 -116h-116zM441 653l20 116h116l-20 -116h-116z" />
    <glyph glyph-name="Aring" unicode="&#xc5;" horiz-adv-x="645" 
d="M-39 0l338 600h181l126 -600h-195l-13 90h-197l-47 -90h-193zM266 213h115l-27 170zM513 751c-6 -60 -58 -106 -118 -106s-102 46 -96 106s58 107 118 107s102 -47 96 -107zM455 751c3 27 -17 50 -44 50s-51 -23 -54 -50s17 -49 44 -49s51 22 54 49z" />
    <glyph glyph-name="Ccedilla" unicode="&#xc7;" horiz-adv-x="582" 
d="M288 -11c-164 16 -267 140 -242 321c27 194 184 303 360 303c80 0 149 -20 190 -58l-21 -166c-42 38 -86 66 -150 66c-86 0 -153 -45 -168 -150c-15 -104 40 -160 116 -160c74 0 121 31 169 66l-20 -166c-46 -35 -104 -54 -175 -57c1 0 -48 -45 -48 -45
c48 -4 85 -33 80 -79c-8 -75 -101 -112 -192 -96l3 44c67 -9 101 13 105 49c3 29 -34 46 -82 30l2 30z" />
    <glyph glyph-name="Eacute" unicode="&#xc9;" horiz-adv-x="521" 
d="M19 0l106 600h422l-25 -140h-222l-15 -85h175l-24 -137h-175l-17 -98h223l-26 -140h-422zM289 648l-23 37l165 138l53 -83z" />
    <glyph glyph-name="Ntilde" unicode="&#xd1;" horiz-adv-x="672" 
d="M19 0l106 600h155l175 -300l53 300h172l-106 -600h-155l-175 300l-53 -300h-172zM459 655c-42 0 -76 46 -115 46c-19 0 -24 -10 -29 -44h-61c9 85 51 123 99 123c43 0 77 -46 115 -46c21 0 25 10 32 43h59c-9 -84 -51 -122 -100 -122z" />
    <glyph glyph-name="Odieresis" unicode="&#xd6;" horiz-adv-x="714" 
d="M328 -17c-187 0 -314 148 -282 331s184 303 366 303c185 0 314 -148 283 -331s-187 -303 -367 -303zM344 133c50 0 117 34 140 162c22 124 -22 172 -88 172c-52 0 -116 -33 -139 -162c-21 -118 19 -172 87 -172zM264 653l20 116h116l-20 -116h-116zM468 653l20 116h116
l-20 -116h-116z" />
    <glyph glyph-name="Udieresis" unicode="&#xdc;" horiz-adv-x="701" 
d="M318 -17c-159 0 -286 91 -250 294l57 323h198l-56 -304c-19 -101 -9 -156 74 -156c74 0 98 55 117 156l56 304h195l-57 -323c-36 -203 -184 -294 -334 -294zM263 653l20 116h116l-20 -116h-116zM467 653l20 116h116l-20 -116h-116z" />
    <glyph glyph-name="aacute" unicode="&#xe1;" horiz-adv-x="570" 
d="M559 432l-52 -300c-11 -66 -15 -95 -15 -132h-169c-1 9 -1 42 0 57c-32 -50 -88 -69 -140 -69c-121 0 -182 110 -160 234c23 128 116 222 249 222c28 0 86 -12 117 -45l31 33h139zM256 114c44 0 71 41 82 102s-4 102 -48 102s-71 -41 -82 -102s4 -102 48 -102zM270 472
l-23 37l165 138l53 -83z" />
    <glyph glyph-name="agrave" unicode="&#xe0;" horiz-adv-x="570" 
d="M559 432l-52 -300c-11 -66 -15 -95 -15 -132h-169c-1 9 -1 42 0 57c-32 -50 -88 -69 -140 -69c-121 0 -182 110 -160 234c23 128 116 222 249 222c28 0 86 -12 117 -45l31 33h139zM256 114c44 0 71 41 82 102s-4 102 -48 102s-71 -41 -82 -102s4 -102 48 -102zM389 472
l-195 92l53 83l165 -138z" />
    <glyph glyph-name="acircumflex" unicode="&#xe2;" horiz-adv-x="570" 
d="M559 432l-52 -300c-11 -66 -15 -95 -15 -132h-169c-1 9 -1 42 0 57c-32 -50 -88 -69 -140 -69c-121 0 -182 110 -160 234c23 128 116 222 249 222c28 0 86 -12 117 -45l31 33h139zM256 114c44 0 71 41 82 102s-4 102 -48 102s-71 -41 -82 -102s4 -102 48 -102zM235 473
l-35 38l155 122l115 -123l-41 -37l-86 67z" />
    <glyph glyph-name="adieresis" unicode="&#xe4;" horiz-adv-x="570" 
d="M559 432l-52 -300c-11 -66 -15 -95 -15 -132h-169c-1 9 -1 42 0 57c-32 -50 -88 -69 -140 -69c-121 0 -182 110 -160 234c23 128 116 222 249 222c28 0 86 -12 117 -45l31 33h139zM256 114c44 0 71 41 82 102s-4 102 -48 102s-71 -41 -82 -102s4 -102 48 -102zM166 481
l20 116h116l-20 -116h-116zM370 481l20 116h116l-20 -116h-116z" />
    <glyph glyph-name="atilde" unicode="&#xe3;" horiz-adv-x="570" 
d="M559 432l-52 -300c-11 -66 -15 -95 -15 -132h-169c-1 9 -1 42 0 57c-32 -50 -88 -69 -140 -69c-121 0 -182 110 -160 234c23 128 116 222 249 222c28 0 86 -12 117 -45l31 33h139zM256 114c44 0 71 41 82 102s-4 102 -48 102s-71 -41 -82 -102s4 -102 48 -102zM386 479
c-42 0 -76 46 -115 46c-19 0 -24 -10 -29 -44h-61c9 85 51 123 99 123c43 0 77 -46 115 -46c21 0 25 10 32 43h59c-9 -84 -51 -122 -100 -122z" />
    <glyph glyph-name="aring" unicode="&#xe5;" horiz-adv-x="570" 
d="M559 432l-52 -300c-11 -66 -15 -95 -15 -132h-169c-1 9 -1 42 0 57c-32 -50 -88 -69 -140 -69c-121 0 -182 110 -160 234c23 128 116 222 249 222c28 0 86 -12 117 -45l31 33h139zM256 114c44 0 71 41 82 102s-4 102 -48 102s-71 -41 -82 -102s4 -102 48 -102zM443 581
c-6 -60 -58 -106 -118 -106s-102 46 -96 106s58 107 118 107s102 -47 96 -107zM385 581c3 27 -17 50 -44 50s-51 -23 -54 -50s17 -49 44 -49s51 22 54 49z" />
    <glyph glyph-name="ccedilla" unicode="&#xe7;" horiz-adv-x="435" 
d="M190 -9c-119 16 -187 125 -166 238c23 127 135 215 269 215c61 0 108 -21 138 -41l-23 -123c-26 23 -58 37 -95 37c-42 0 -93 -28 -104 -91c-13 -73 33 -111 84 -111c34 0 60 8 96 34l-23 -117c-23 -18 -56 -39 -118 -43l-39 -36c48 -4 85 -33 80 -79
c-8 -75 -101 -112 -192 -96l3 44c67 -9 101 13 105 49c3 29 -34 46 -82 30l2 30z" />
    <glyph glyph-name="eacute" unicode="&#xe9;" horiz-adv-x="497" 
d="M213 270h95s5 10 8 26c5 29 -10 49 -36 49c-24 0 -51 -16 -67 -75zM236 -12c-144 0 -227 97 -213 231c14 138 132 225 253 225c113 0 200 -67 189 -177c-3 -26 -9 -58 -15 -72h-248c-1 -58 31 -90 104 -90c48 0 105 18 139 41l-18 -107c-43 -30 -100 -51 -191 -51z
M245 472l-23 37l165 138l53 -83z" />
    <glyph glyph-name="egrave" unicode="&#xe8;" horiz-adv-x="497" 
d="M213 270h95s5 10 8 26c5 29 -10 49 -36 49c-24 0 -51 -16 -67 -75zM236 -12c-144 0 -227 97 -213 231c14 138 132 225 253 225c113 0 200 -67 189 -177c-3 -26 -9 -58 -15 -72h-248c-1 -58 31 -90 104 -90c48 0 105 18 139 41l-18 -107c-43 -30 -100 -51 -191 -51z
M359 472l-195 92l53 83l165 -138z" />
    <glyph glyph-name="ecircumflex" unicode="&#xea;" horiz-adv-x="497" 
d="M213 270h95s5 10 8 26c5 29 -10 49 -36 49c-24 0 -51 -16 -67 -75zM236 -12c-144 0 -227 97 -213 231c14 138 132 225 253 225c113 0 200 -67 189 -177c-3 -26 -9 -58 -15 -72h-248c-1 -58 31 -90 104 -90c48 0 105 18 139 41l-18 -107c-43 -30 -100 -51 -191 -51z
M205 473l-35 38l155 122l115 -123l-41 -37l-86 67z" />
    <glyph glyph-name="edieresis" unicode="&#xeb;" horiz-adv-x="497" 
d="M213 270h95s5 10 8 26c5 29 -10 49 -36 49c-24 0 -51 -16 -67 -75zM236 -12c-144 0 -227 97 -213 231c14 138 132 225 253 225c113 0 200 -67 189 -177c-3 -26 -9 -58 -15 -72h-248c-1 -58 31 -90 104 -90c48 0 105 18 139 41l-18 -107c-43 -30 -100 -51 -191 -51z
M136 481l20 116h116l-20 -116h-116zM340 481l20 116h116l-20 -116h-116z" />
    <glyph glyph-name="iacute" unicode="&#xed;" horiz-adv-x="281" 
d="M8 0l76 432h187l-76 -432h-187zM136 472l-23 37l165 138l53 -83z" />
    <glyph glyph-name="igrave" unicode="&#xec;" horiz-adv-x="281" 
d="M8 0l76 432h187l-76 -432h-187zM252 472l-195 92l53 83l165 -138z" />
    <glyph glyph-name="icircumflex" unicode="&#xee;" horiz-adv-x="281" 
d="M8 0l76 432h187l-76 -432h-187zM93 473l-35 38l155 122l115 -123l-41 -37l-86 67z" />
    <glyph glyph-name="idieresis" unicode="&#xef;" horiz-adv-x="281" 
d="M8 0l76 432h187l-76 -432h-187zM30 481l20 116h116l-20 -116h-116zM234 481l20 116h116l-20 -116h-116z" />
    <glyph glyph-name="ntilde" unicode="&#xf1;" horiz-adv-x="579" 
d="M254 368c48 51 101 76 164 76c87 0 142 -63 124 -170l-47 -274h-187l42 242c7 41 -10 58 -37 58c-33 0 -70 -31 -83 -104l-34 -196h-187l52 300c11 66 15 95 15 132h179c1 -16 2 -34 -1 -64zM390 479c-42 0 -76 46 -115 46c-19 0 -24 -10 -29 -44h-61c9 85 51 123 99 123
c43 0 77 -46 115 -46c21 0 25 10 32 43h59c-9 -84 -51 -122 -100 -122z" />
    <glyph glyph-name="oacute" unicode="&#xf3;" horiz-adv-x="549" 
d="M249 -16c-151 0 -246 117 -224 247c22 131 146 217 273 217c151 0 246 -117 224 -247c-22 -131 -146 -217 -273 -217zM258 110c31 0 68 18 83 103c15 84 -16 109 -53 109c-33 0 -67 -18 -82 -103s14 -109 52 -109zM263 472l-23 37l165 138l53 -83z" />
    <glyph glyph-name="ograve" unicode="&#xf2;" horiz-adv-x="549" 
d="M249 -16c-151 0 -246 117 -224 247c22 131 146 217 273 217c151 0 246 -117 224 -247c-22 -131 -146 -217 -273 -217zM258 110c31 0 68 18 83 103c15 84 -16 109 -53 109c-33 0 -67 -18 -82 -103s14 -109 52 -109zM371 472l-195 92l53 83l165 -138z" />
    <glyph glyph-name="ocircumflex" unicode="&#xf4;" horiz-adv-x="549" 
d="M249 -16c-151 0 -246 117 -224 247c22 131 146 217 273 217c151 0 246 -117 224 -247c-22 -131 -146 -217 -273 -217zM258 110c31 0 68 18 83 103c15 84 -16 109 -53 109c-33 0 -67 -18 -82 -103s14 -109 52 -109zM218 473l-35 38l155 122l115 -123l-41 -37l-86 67z" />
    <glyph glyph-name="odieresis" unicode="&#xf6;" horiz-adv-x="549" 
d="M249 -16c-151 0 -246 117 -224 247c22 131 146 217 273 217c151 0 246 -117 224 -247c-22 -131 -146 -217 -273 -217zM258 110c31 0 68 18 83 103c15 84 -16 109 -53 109c-33 0 -67 -18 -82 -103s14 -109 52 -109zM149 481l20 116h116l-20 -116h-116zM353 481l20 116h116
l-20 -116h-116z" />
    <glyph glyph-name="otilde" unicode="&#xf5;" horiz-adv-x="549" 
d="M246 -16c-151 0 -246 117 -224 247c22 131 146 217 273 217c151 0 246 -117 224 -247c-22 -131 -146 -217 -273 -217zM255 110c31 0 68 18 83 103c15 84 -16 109 -53 109c-33 0 -67 -18 -82 -103s14 -109 52 -109zM366 479c-42 0 -76 46 -115 46c-19 0 -24 -10 -29 -44
h-61c9 85 51 123 99 123c43 0 77 -46 115 -46c21 0 25 10 32 43h59c-9 -84 -51 -122 -100 -122z" />
    <glyph glyph-name="uacute" unicode="&#xfa;" horiz-adv-x="579" 
d="M323 64c-48 -51 -101 -76 -164 -76c-87 0 -142 63 -124 170l47 274h187l-42 -242c-7 -41 10 -58 37 -58c33 0 70 31 83 104l34 196h187l-52 -300c-11 -66 -15 -95 -15 -132h-179c-1 16 -2 34 1 64zM283 472l-23 37l165 138l53 -83z" />
    <glyph glyph-name="ugrave" unicode="&#xf9;" horiz-adv-x="579" 
d="M323 64c-48 -51 -101 -76 -164 -76c-87 0 -142 63 -124 170l47 274h187l-42 -242c-7 -41 10 -58 37 -58c33 0 70 31 83 104l34 196h187l-52 -300c-11 -66 -15 -95 -15 -132h-179c-1 16 -2 34 1 64zM371 472l-195 92l53 83l165 -138z" />
    <glyph glyph-name="ucircumflex" unicode="&#xfb;" horiz-adv-x="579" 
d="M323 64c-48 -51 -101 -76 -164 -76c-87 0 -142 63 -124 170l47 274h187l-42 -242c-7 -41 10 -58 37 -58c33 0 70 31 83 104l34 196h187l-52 -300c-11 -66 -15 -95 -15 -132h-179c-1 16 -2 34 1 64zM238 473l-35 38l155 122l115 -123l-41 -37l-86 67z" />
    <glyph glyph-name="udieresis" unicode="&#xfc;" horiz-adv-x="579" 
d="M323 64c-48 -51 -101 -76 -164 -76c-87 0 -142 63 -124 170l47 274h187l-42 -242c-7 -41 10 -58 37 -58c33 0 70 31 83 104l34 196h187l-52 -300c-11 -66 -15 -95 -15 -132h-179c-1 16 -2 34 1 64zM169 481l20 116h116l-20 -116h-116zM373 481l20 116h116l-20 -116h-116z
" />
    <glyph glyph-name="dagger" unicode="&#x2020;" horiz-adv-x="448" 
d="M175 298h-133l19 109h133l34 192h125l-34 -192h133l-19 -109h-133l-87 -490h-125z" />
    <glyph glyph-name="degree" unicode="&#xb0;" horiz-adv-x="380" 
d="M214 311c-82 0 -143 71 -134 154c9 82 84 146 166 146c83 0 143 -72 134 -154c-9 -83 -83 -146 -166 -146zM221 371c48 0 88 43 93 90s-27 90 -75 90c-47 0 -88 -43 -93 -90s28 -90 75 -90z" />
    <glyph glyph-name="cent" unicode="&#xa2;" horiz-adv-x="455" 
d="M206 45c-126 17 -185 122 -165 235c21 118 120 199 242 210l23 127h59l-23 -128c46 -6 81 -23 106 -39l-23 -119c-26 23 -58 37 -95 37c-42 0 -93 -28 -104 -91c-13 -73 33 -111 84 -111c34 0 60 8 96 34l-23 -114c-23 -18 -56 -38 -119 -42l-23 -127h-59z" />
    <glyph glyph-name="sterling" unicode="&#xa3;" horiz-adv-x="545" 
d="M-15 0l24 138c58 0 89 21 102 85l6 30h-73l19 111h73l3 14c45 209 135 239 253 239c56 0 121 -21 146 -45l-25 -140c-30 29 -77 47 -114 47c-51 0 -75 -10 -93 -96l-4 -19h140l-19 -111h-140l-1 -3c-32 -96 -50 -99 -75 -112h277l-24 -138h-475z" />
    <glyph glyph-name="section" unicode="&#xa7;" horiz-adv-x="457" 
d="M152 -191c-74 0 -132 28 -167 53l49 112c46 -29 87 -46 141 -46c33 0 52 15 56 37c4 23 -8 35 -48 44c-129 29 -182 91 -167 178c10 59 47 105 100 133c-39 33 -49 77 -40 128c17 99 101 169 229 169c73 0 131 -27 167 -53l-48 -111c-48 29 -89 45 -142 45
c-33 0 -53 -14 -57 -36c-4 -24 9 -35 49 -44c128 -30 181 -92 166 -178c-11 -60 -47 -105 -100 -133c38 -33 49 -77 40 -129c-17 -98 -100 -169 -228 -169zM241 150c29 7 51 31 56 55c8 43 -24 59 -84 72c-28 -8 -50 -33 -54 -55c-7 -43 26 -59 82 -72z" />
    <glyph glyph-name="bullet" unicode="&#x2022;" horiz-adv-x="318" 
d="M157 155c-60 0 -104 49 -98 110c6 60 62 110 122 110c61 0 104 -50 98 -110c-6 -61 -61 -110 -122 -110z" />
    <glyph glyph-name="paragraph" unicode="&#xb6;" horiz-adv-x="546" 
d="M104 -191l80 453c-80 9 -131 91 -116 178c16 93 98 160 195 160h304l-15 -82h-54l-125 -709h-97l125 709h-75l-125 -709h-97z" />
    <glyph glyph-name="germandbls" unicode="&#xdf;" horiz-adv-x="623" 
d="M381 -10c-50 0 -93 12 -134 28l20 110c42 -23 72 -31 103 -31c29 0 41 7 44 25c7 40 -148 57 -127 178c15 84 91 103 100 151c4 23 -10 43 -45 43c-50 0 -67 -32 -74 -71l-75 -423h-184l74 422c23 133 150 188 272 188c129 0 220 -62 205 -144
c-16 -90 -98 -101 -108 -155c-10 -56 150 -69 128 -192c-16 -88 -84 -129 -199 -129z" />
    <glyph glyph-name="registered" unicode="&#xae;" horiz-adv-x="491" 
d="M245 155c-127 0 -220 103 -206 231s129 231 256 231c128 0 221 -103 207 -231s-129 -231 -257 -231zM249 184c111 0 209 91 222 202c13 110 -67 202 -179 202c-111 0 -210 -91 -222 -202s68 -202 179 -202zM299 253l-44 101h-16l-18 -101h-81l48 270h126
c58 0 89 -40 81 -84c-6 -35 -27 -68 -66 -79l59 -107h-89zM247 403h32c20 0 33 12 36 32s-6 32 -26 32h-30z" />
    <glyph glyph-name="copyright" unicode="&#xa9;" horiz-adv-x="675" 
d="M315 -17c-175 0 -302 144 -283 319s176 315 351 315s301 -144 282 -319s-175 -315 -350 -315zM319 14c157 0 297 129 314 286c17 158 -97 286 -254 286c-158 0 -297 -128 -314 -286c-17 -157 96 -286 254 -286zM327 106c-103 0 -184 74 -167 194s118 194 221 194
c53 0 97 -12 123 -36l-14 -102c-25 25 -54 41 -97 41c-57 0 -101 -32 -110 -97c-9 -64 25 -97 82 -97c43 0 78 16 109 41l-14 -102c-34 -24 -80 -36 -133 -36z" />
    <glyph glyph-name="trademark" unicode="&#x2122;" horiz-adv-x="828" 
d="M389 267l58 333h123l35 -210l109 210h125l-58 -333h-95l28 159l9 40c-1 -1 -14 -31 -19 -40l-83 -159h-74l-27 159c-2 7 -5 32 -5 39c-1 -6 -3 -31 -5 -39l-28 -159h-93zM128 267l45 254h-101l13 79h312l-13 -79h-102l-45 -254h-109z" />
    <glyph glyph-name="acute" unicode="&#xb4;" horiz-adv-x="300" 
d="M133 472l-23 37l165 138l53 -83z" />
    <glyph glyph-name="dieresis" unicode="&#xa8;" horiz-adv-x="300" 
d="M39 481l20 116h116l-20 -116h-116zM243 481l20 116h116l-20 -116h-116z" />
    <glyph glyph-name="notequal" unicode="&#x2260;" horiz-adv-x="444" 
d="M103 82l-42 29l46 59h-39l16 89h94l47 61h-131l16 89h186l72 90l42 -30l-48 -60h40l-16 -89h-94l-48 -61h132l-16 -89h-186z" />
    <glyph glyph-name="AE" unicode="&#xc6;" horiz-adv-x="890" 
d="M309 233h115l41 230zM911 600l-25 -140h-222l-15 -85h175l-24 -137h-175l-17 -98h223l-26 -140h-422l17 98h-182l-65 -98h-191l439 600h510z" />
    <glyph glyph-name="Oslash" unicode="&#xd8;" horiz-adv-x="714" 
d="M261 183l195 267c-16 13 -37 19 -60 19c-52 0 -119 -35 -142 -164c-9 -53 -6 -93 7 -122zM481 417l-196 -267c15 -13 36 -19 59 -19c50 0 120 36 143 164c10 54 6 94 -6 122zM588 563c82 -59 127 -161 107 -277c-31 -183 -187 -303 -367 -303c-53 0 -101 12 -142 33
l-44 -60l-33 21l44 59c-83 59 -127 162 -107 278c32 183 184 303 366 303c53 0 101 -12 142 -34l45 61l33 -21z" />
    <glyph glyph-name="infinity" unicode="&#x221e;" horiz-adv-x="668" 
d="M169 141c-89 0 -142 67 -131 147c11 82 84 148 173 148c47 0 106 -42 146 -83c49 41 121 83 168 83c88 0 142 -66 131 -148c-11 -80 -85 -147 -173 -147c-47 0 -106 41 -145 83c-50 -42 -122 -83 -169 -83zM499 239c25 0 49 23 53 49c4 28 -14 50 -39 50
c-23 0 -68 -28 -97 -50c23 -21 60 -49 83 -49zM180 239c24 0 64 29 88 49c-19 20 -50 50 -74 50c-26 0 -49 -22 -53 -50c-4 -26 13 -49 39 -49z" />
    <glyph glyph-name="plusminus" unicode="&#xb1;" horiz-adv-x="388" 
d="M130 105l24 140h-133l16 89h133l24 139h89l-24 -139h134l-16 -89h-134l-24 -140h-89zM-23 -5l14 81h356l-14 -81h-356z" />
    <glyph glyph-name="lessequal" unicode="&#x2264;" horiz-adv-x="424" 
d="M356 125l-318 159l374 157l-10 -96l-156 -65l134 -64zM-5 -5l14 81h357l-14 -81h-357z" />
    <glyph glyph-name="greaterequal" unicode="&#x2265;" horiz-adv-x="424" 
d="M37 125l11 97l155 64l-133 65l23 90l318 -157zM-5 -5l14 81h357l-14 -81h-357z" />
    <glyph glyph-name="yen" unicode="&#xa5;" horiz-adv-x="646" 
d="M182 0l23 128h-112l9 55h113l9 52h-113l10 55h82l-141 310h211l80 -194l148 194h217l-251 -310h82l-10 -55h-116l-9 -52h116l-9 -55h-116l-23 -128h-200z" />
    <glyph glyph-name="mu" unicode="&#xb5;" horiz-adv-x="587" 
d="M82 432h187l-42 -242c-7 -41 10 -58 37 -58c33 0 70 31 83 104l34 196h187l-52 -300c-11 -66 -15 -95 -15 -132h-179c-1 16 -2 34 1 64c-39 -42 -82 -66 -131 -74l-33 -185h-187z" />
    <glyph glyph-name="partialdiff" unicode="&#x2202;" horiz-adv-x="553" 
d="M219 -17c-138 0 -216 90 -184 223c28 117 115 189 234 189c42 0 83 -20 96 -40c19 101 -27 129 -92 129c-41 0 -97 -15 -143 -38l32 130c23 12 94 42 174 42c177 0 251 -131 198 -350c-57 -236 -208 -285 -315 -285zM247 96c40 0 75 41 95 149c-3 22 -26 36 -53 36
c-33 0 -54 -26 -70 -88c-14 -52 -8 -97 28 -97z" />
    <glyph glyph-name="summation" unicode="&#x2211;" horiz-adv-x="562" 
d="M-57 -170l13 75l285 316l-177 306l13 73h534l-25 -138h-283l137 -232l-237 -262h310l-24 -138h-546z" />
    <glyph glyph-name="product" unicode="&#x220f;" horiz-adv-x="652" 
d="M39 0l81 458h-59l25 142h616l-25 -142h-58l-81 -458h-177l81 458h-146l-81 -458h-176z" />
    <glyph glyph-name="pi" unicode="&#x3c0;" horiz-adv-x="604" 
d="M39 0l52 294h-59l24 138h567l-24 -138h-58l-52 -294h-176l52 294h-98l-52 -294h-176z" />
    <glyph glyph-name="integral" unicode="&#x222b;" horiz-adv-x="326" 
d="M-8 -198c-55 0 -108 21 -119 36l19 106c15 -12 39 -21 58 -21c38 0 57 19 69 85l82 464c22 125 109 180 232 180c17 0 54 -5 65 -8l-20 -113s-17 6 -28 6c-39 0 -66 -13 -75 -63l-86 -483c-19 -108 -83 -189 -197 -189z" />
    <glyph glyph-name="ordfeminine" unicode="&#xaa;" horiz-adv-x="460" 
d="M474 603l-40 -231c-9 -50 -11 -73 -11 -101h-131v44c-24 -39 -64 -50 -104 -50c-89 0 -136 82 -119 177c18 98 97 167 188 167c22 0 62 -6 86 -31l24 25h107zM244 361c30 0 50 29 59 76s-3 76 -33 76s-50 -29 -58 -76s2 -76 32 -76z" />
    <glyph glyph-name="ordmasculine" unicode="&#xba;" horiz-adv-x="438" 
d="M242 262c-116 0 -189 87 -172 187s112 163 209 163c116 0 189 -87 172 -187s-112 -163 -209 -163zM248 356c24 0 53 14 64 79c11 64 -12 83 -40 83c-26 0 -52 -14 -63 -79s10 -83 39 -83z" />
    <glyph glyph-name="Omega" unicode="&#x3a9;" horiz-adv-x="530" 
d="M-12 0l20 115h103l11 62c-60 39 -98 115 -82 200c22 120 144 227 295 227c149 0 233 -107 211 -227c-15 -84 -76 -159 -152 -199l-11 -63h103l-20 -115h-211l45 253c69 24 100 74 108 121c10 57 -13 118 -93 118c-82 0 -127 -61 -137 -118c-8 -47 3 -96 66 -121l-45 -253
h-211z" />
    <glyph glyph-name="ae" unicode="&#xe6;" horiz-adv-x="742" 
d="M458 270h95s5 10 8 26c5 29 -10 45 -36 45c-24 0 -51 -12 -67 -71zM307 65c-52 -47 -109 -73 -181 -73c-80 0 -129 51 -120 117c14 100 134 158 280 171l2 8c10 39 -26 37 -59 37c-44 0 -123 -23 -170 -53l17 118c36 20 145 50 206 50c39 0 87 -4 122 -27
c37 18 77 27 117 27c113 0 200 -63 189 -173c-3 -26 -9 -58 -15 -72h-248c-1 -58 31 -86 104 -86c48 0 105 18 139 41l-18 -107c-43 -30 -100 -51 -191 -51c-78 0 -138 27 -174 73zM195 93c18 0 52 14 77 46c-5 16 -4 34 -4 52c-61 -11 -97 -31 -102 -66
c-2 -16 6 -32 29 -32z" />
    <glyph glyph-name="oslash" unicode="&#xf8;" horiz-adv-x="549" 
d="M200 146l117 174c-9 4 -19 6 -28 6c-33 0 -76 -22 -91 -107c-6 -34 -4 -56 2 -73zM347 284l-117 -173c9 -3 18 -5 27 -5c31 0 77 22 92 107c5 31 4 54 -2 71zM430 408c70 -43 106 -121 92 -207c-22 -131 -146 -213 -273 -213c-33 0 -64 5 -91 15l-30 -45l-39 22l28 43
c-70 43 -106 122 -92 208c22 131 146 213 273 213c33 0 64 -6 91 -16l31 46l39 -22z" />
    <glyph glyph-name="questiondown" unicode="&#xbf;" horiz-adv-x="454" 
d="M368 432l-27 -151h-150l27 151h150zM329 218l-21 -125l-49 -23c-65 -31 -85 -54 -87 -76c-2 -25 15 -38 39 -38c55 0 124 35 184 76l-16 -151c-51 -39 -138 -67 -213 -67c-116 0 -213 49 -201 162c10 97 83 146 197 193l12 5l8 44h147z" />
    <glyph glyph-name="exclamdown" unicode="&#xa1;" horiz-adv-x="297" 
d="M261 432l-27 -151h-150l27 151h150zM-40 -162l135 386h107v-386h-242z" />
    <glyph glyph-name="logicalnot" unicode="&#xac;" horiz-adv-x="544" 
d="M344 145l18 103h-280l15 88h365l-33 -191h-85z" />
    <glyph glyph-name="radical" unicode="&#x221a;" horiz-adv-x="474" 
d="M117 -22l-73 314l113 45l39 -180l317 584h68l-414 -763h-50z" />
    <glyph glyph-name="florin" unicode="&#x192;" horiz-adv-x="351" 
d="M73 261h-61l21 111h68l18 70c31 120 111 174 248 174c15 0 65 -7 73 -10l-27 -106c-11 5 -25 7 -37 7c-43 0 -58 -17 -70 -65l-18 -70h89l-21 -111h-96l-71 -269c-36 -135 -108 -196 -223 -196c-50 0 -103 22 -112 37l24 98c9 -12 32 -22 49 -22c37 0 60 16 77 84z" />
    <glyph glyph-name="approxequal" unicode="&#x2248;" horiz-adv-x="444" 
d="M109 394c0 0 44 33 83 33c40 0 86 -33 127 -33c38 0 83 33 83 33l-16 -89s-43 -33 -82 -33c-40 0 -87 33 -128 33c-38 0 -82 -33 -82 -33zM83 245c0 0 44 33 83 33c40 0 86 -33 127 -33c38 0 83 33 83 33l-16 -89s-44 -34 -83 -34c-40 0 -86 34 -127 34
c-38 0 -83 -34 -83 -34z" />
    <glyph glyph-name="Delta" unicode="&#x394;" horiz-adv-x="620" 
d="M-8 0l344 607h96l120 -607h-560zM195 119h182l-43 247z" />
    <glyph glyph-name="guillemotleft" unicode="&#xab;" horiz-adv-x="462" 
d="M370 101l-157 150l210 149l27 -45l-115 -107l77 -108zM222 65l-194 186l260 184l27 -44l-154 -143l104 -144z" />
    <glyph glyph-name="guillemotright" unicode="&#xbb;" horiz-adv-x="462" 
d="M185 65l-28 45l155 144l-105 143l44 38l193 -184zM50 101l-28 45l115 108l-77 107l43 39l156 -149z" />
    <glyph glyph-name="ellipsis" unicode="&#x2026;" horiz-adv-x="744" 
d="M496 0l30 171h170l-29 -171h-171zM0 0l30 171h170l-29 -171h-171zM248 0l30 171h170l-29 -171h-171z" />
    <glyph glyph-name="Agrave" unicode="&#xc0;" horiz-adv-x="645" 
d="M-39 0l338 600h181l126 -600h-195l-13 90h-197l-47 -90h-193zM266 213h115l-27 170zM440 648l-195 92l53 83l165 -138z" />
    <glyph glyph-name="Atilde" unicode="&#xc3;" horiz-adv-x="645" 
d="M-39 0l338 600h181l126 -600h-195l-13 90h-197l-47 -90h-193zM266 213h115l-27 170zM456 655c-42 0 -76 46 -115 46c-19 0 -24 -10 -29 -44h-61c9 85 51 123 99 123c43 0 77 -46 115 -46c21 0 25 10 32 43h59c-9 -84 -51 -122 -100 -122z" />
    <glyph glyph-name="Otilde" unicode="&#xd5;" horiz-adv-x="714" 
d="M328 -17c-187 0 -314 148 -282 331s184 303 366 303c185 0 314 -148 283 -331s-187 -303 -367 -303zM344 133c50 0 117 34 140 162c22 124 -22 172 -88 172c-52 0 -116 -33 -139 -162c-21 -118 19 -172 87 -172zM481 655c-42 0 -76 46 -115 46c-19 0 -24 -10 -29 -44h-61
c9 85 51 123 99 123c43 0 77 -46 115 -46c21 0 25 10 32 43h59c-9 -84 -51 -122 -100 -122z" />
    <glyph glyph-name="OE" unicode="&#x152;" horiz-adv-x="871" 
d="M897 600l-25 -140h-222l-15 -85h175l-24 -137h-175l-17 -98h223l-26 -140h-451c-238 0 -325 145 -296 310s141 290 382 290h471zM449 457h-18c-104 0 -165 -47 -184 -157s28 -157 132 -157h16z" />
    <glyph glyph-name="oe" unicode="&#x153;" horiz-adv-x="816" 
d="M532 270h95s5 10 8 26c5 29 -10 45 -36 45c-24 0 -51 -12 -67 -71zM411 35c-47 -30 -104 -47 -162 -47c-151 0 -246 113 -224 243c22 131 146 213 273 213c60 0 112 -18 150 -48c43 29 95 44 147 44c113 0 200 -63 189 -173c-3 -26 -9 -58 -15 -72h-248
c-1 -58 31 -86 104 -86c48 0 105 18 139 41l-18 -107c-43 -30 -100 -51 -191 -51c-59 0 -108 16 -144 43zM258 110c31 0 68 18 83 103c15 84 -16 109 -53 109c-33 0 -67 -18 -82 -103s14 -109 52 -109z" />
    <glyph glyph-name="endash" unicode="&#x2013;" horiz-adv-x="391" 
d="M-2 210l14 80h393l-14 -80h-393z" />
    <glyph glyph-name="emdash" unicode="&#x2014;" horiz-adv-x="626" 
d="M-2 210l14 80h628l-14 -80h-628z" />
    <glyph glyph-name="quotedblleft" unicode="&#x201c;" horiz-adv-x="458" 
d="M462 611l16 -40c-56 -29 -83 -61 -90 -101h81l-29 -162h-162l23 130c13 75 76 148 161 173zM236 611l16 -40c-56 -29 -83 -61 -90 -101h81l-29 -162h-162l23 130c13 75 76 148 161 173z" />
    <glyph glyph-name="quotedblright" unicode="&#x201d;" horiz-adv-x="458" 
d="M76 297l-16 40c57 29 83 61 90 101h-81l29 162h162l-23 -130c-13 -75 -76 -148 -161 -173zM302 297l-16 40c57 29 83 61 90 101h-81l29 162h162l-23 -130c-13 -75 -76 -148 -161 -173z" />
    <glyph glyph-name="quoteleft" unicode="&#x2018;" horiz-adv-x="232" 
d="M236 611l16 -40c-56 -29 -83 -61 -90 -101h81l-29 -162h-162l23 130c13 75 76 148 161 173z" />
    <glyph glyph-name="quoteright" unicode="&#x2019;" horiz-adv-x="232" 
d="M76 297l-16 40c57 29 83 61 90 101h-81l29 162h162l-23 -130c-13 -75 -76 -148 -161 -173z" />
    <glyph glyph-name="divide" unicode="&#xf7;" horiz-adv-x="444" 
d="M49 245l16 89h356l-16 -89h-356zM196 379l19 108h108l-19 -108h-108zM146 92l19 108h108l-19 -108h-108z" />
    <glyph glyph-name="lozenge" unicode="&#x25ca;" horiz-adv-x="459" 
d="M185 -56l-139 352l261 340l141 -340zM209 77l161 219l-86 208l-161 -208z" />
    <glyph glyph-name="ydieresis" unicode="&#xff;" horiz-adv-x="502" 
d="M-7 -195l123 208l-99 419h177l41 -243l128 243h179l-368 -627h-181zM131 481l20 116h116l-20 -116h-116zM335 481l20 116h116l-20 -116h-116z" />
    <glyph glyph-name="Ydieresis" unicode="&#x178;" horiz-adv-x="646" 
d="M182 0l43 242l-163 358h211l80 -194l148 194h217l-294 -363l-42 -237h-200zM230 653l20 116h116l-20 -116h-116zM434 653l20 116h116l-20 -116h-116z" />
    <glyph glyph-name="fraction" unicode="&#x2044;" horiz-adv-x="233" 
d="M-45 -18l-37 14l389 622l37 -14z" />
    <glyph glyph-name="Euro" unicode="&#x20ac;" horiz-adv-x="556" 
d="M321 -14c-139 0 -234 71 -234 229h-60l10 55h54c1 11 2 21 4 32l6 28h-54l10 55h60c55 160 175 232 315 232c55 0 115 -16 149 -42l-24 -139c-34 31 -78 44 -126 44c-59 0 -97 -24 -123 -95h126l-10 -55h-131l-6 -28c-2 -11 -4 -22 -4 -32h131l-10 -55h-125
c2 -69 32 -92 89 -92c47 0 95 16 141 44l-24 -139c-38 -25 -109 -42 -164 -42z" />
    <glyph glyph-name="guilsinglleft" unicode="&#x2039;" horiz-adv-x="317" 
d="M222 65l-194 186l260 184l27 -44l-154 -143l104 -144z" />
    <glyph glyph-name="guilsinglright" unicode="&#x203a;" horiz-adv-x="317" 
d="M39 65l-28 45l155 144l-105 143l44 38l194 -184z" />
    <glyph glyph-name="daggerdbl" unicode="&#x2021;" horiz-adv-x="448" 
d="M141 109l34 189h-133l19 109h133l34 192h125l-34 -192h133l-19 -109h-133l-34 -189h133l-19 -109h-133l-34 -192h-125l34 192h-133l19 109h133z" />
    <glyph glyph-name="periodcentered" unicode="&#xb7;" horiz-adv-x="264" 
d="M38 180l30 171h170l-29 -171h-171z" />
    <glyph glyph-name="quotesinglbase" unicode="&#x201a;" horiz-adv-x="232" 
d="M-1 -141l-16 40c56 29 83 61 90 101h-81l29 162h162l-23 -130c-13 -75 -76 -148 -161 -173z" />
    <glyph glyph-name="quotedblbase" unicode="&#x201e;" horiz-adv-x="458" 
d="M-1 -141l-16 40c56 29 83 61 90 101h-81l29 162h162l-23 -130c-13 -75 -76 -148 -161 -173zM225 -141l-16 40c56 29 83 61 90 101h-81l29 162h162l-23 -130c-13 -75 -76 -148 -161 -173z" />
    <glyph glyph-name="perthousand" unicode="&#x2030;" horiz-adv-x="1046" 
d="M146 -17l-37 22l480 614l37 -22zM505 63c29 0 46 23 55 75c9 51 0 74 -29 74s-45 -23 -54 -74c-9 -52 -1 -75 28 -75zM496 -12c-87 0 -143 68 -128 156c15 87 83 143 170 143c86 0 145 -66 130 -153c-15 -88 -86 -146 -172 -146zM205 391c29 0 46 23 55 75
c9 51 0 74 -29 74s-45 -23 -54 -74c-9 -52 -1 -75 28 -75zM196 316c-87 0 -143 68 -128 156c15 87 83 143 170 143c86 0 145 -66 130 -153c-15 -88 -86 -146 -172 -146zM846 63c29 0 46 23 55 75c9 51 0 74 -29 74s-45 -23 -54 -74c-9 -52 -1 -75 28 -75zM837 -12
c-87 0 -143 68 -128 156c15 87 83 143 170 143c86 0 145 -66 130 -153c-15 -88 -86 -146 -172 -146z" />
    <glyph glyph-name="Acircumflex" unicode="&#xc2;" horiz-adv-x="645" 
d="M-39 0l338 600h181l126 -600h-195l-13 90h-197l-47 -90h-193zM266 213h115l-27 170zM295 649l-35 38l155 122l115 -123l-41 -37l-86 67z" />
    <glyph glyph-name="Ecircumflex" unicode="&#xca;" horiz-adv-x="521" 
d="M19 0l106 600h422l-25 -140h-222l-15 -85h175l-24 -137h-175l-17 -98h223l-26 -140h-422zM238 649l-35 38l155 122l115 -123l-41 -37l-86 67z" />
    <glyph glyph-name="Aacute" unicode="&#xc1;" horiz-adv-x="645" 
d="M-39 0l338 600h181l126 -600h-195l-13 90h-197l-47 -90h-193zM266 213h115l-27 170zM362 648l-23 37l165 138l53 -83z" />
    <glyph glyph-name="Edieresis" unicode="&#xcb;" horiz-adv-x="521" 
d="M19 0l106 600h422l-25 -140h-222l-15 -85h175l-24 -137h-175l-17 -98h223l-26 -140h-422zM180 653l20 116h116l-20 -116h-116zM384 653l20 116h116l-20 -116h-116z" />
    <glyph glyph-name="Egrave" unicode="&#xc8;" horiz-adv-x="521" 
d="M19 0l106 600h422l-25 -140h-222l-15 -85h175l-24 -137h-175l-17 -98h223l-26 -140h-422zM393 648l-195 92l53 83l165 -138z" />
    <glyph glyph-name="Iacute" unicode="&#xcd;" horiz-adv-x="316" 
d="M179 648l-23 37l165 138l53 -83zM19 0l106 600h200l-106 -600h-200z" />
    <glyph glyph-name="Icircumflex" unicode="&#xce;" horiz-adv-x="316" 
d="M136 649l-35 38l155 122l115 -123l-41 -37l-86 67zM19 0l106 600h200l-106 -600h-200z" />
    <glyph glyph-name="Idieresis" unicode="&#xcf;" horiz-adv-x="316" 
d="M68 653l20 116h116l-20 -116h-116zM272 653l20 116h116l-20 -116h-116zM19 0l106 600h200l-106 -600h-200z" />
    <glyph glyph-name="Igrave" unicode="&#xcc;" horiz-adv-x="316" 
d="M295 648l-195 92l53 83l165 -138zM19 0l106 600h200l-106 -600h-200z" />
    <glyph glyph-name="Oacute" unicode="&#xd3;" horiz-adv-x="714" 
d="M328 -17c-187 0 -314 148 -282 331s184 303 366 303c185 0 314 -148 283 -331s-187 -303 -367 -303zM344 133c50 0 117 34 140 162c22 124 -22 172 -88 172c-52 0 -116 -33 -139 -162c-21 -118 19 -172 87 -172zM375 648l-23 37l165 138l53 -83z" />
    <glyph glyph-name="Ocircumflex" unicode="&#xd4;" horiz-adv-x="714" 
d="M328 -17c-187 0 -314 148 -282 331s184 303 366 303c185 0 314 -148 283 -331s-187 -303 -367 -303zM344 133c50 0 117 34 140 162c22 124 -22 172 -88 172c-52 0 -116 -33 -139 -162c-21 -118 19 -172 87 -172zM327 649l-35 38l155 122l115 -123l-41 -37l-86 67z" />
    <glyph glyph-name="Ograve" unicode="&#xd2;" horiz-adv-x="714" 
d="M328 -17c-187 0 -314 148 -282 331s184 303 366 303c185 0 314 -148 283 -331s-187 -303 -367 -303zM344 133c50 0 117 34 140 162c22 124 -22 172 -88 172c-52 0 -116 -33 -139 -162c-21 -118 19 -172 87 -172zM487 648l-195 92l53 83l165 -138z" />
    <glyph glyph-name="Uacute" unicode="&#xda;" horiz-adv-x="701" 
d="M318 -17c-159 0 -286 91 -250 294l57 323h198l-56 -304c-19 -101 -9 -156 74 -156c74 0 98 55 117 156l56 304h195l-57 -323c-36 -203 -184 -294 -334 -294zM389 648l-23 37l165 138l53 -83z" />
    <glyph glyph-name="Ucircumflex" unicode="&#xdb;" horiz-adv-x="701" 
d="M318 -17c-159 0 -286 91 -250 294l57 323h198l-56 -304c-19 -101 -9 -156 74 -156c74 0 98 55 117 156l56 304h195l-57 -323c-36 -203 -184 -294 -334 -294zM326 649l-35 38l155 122l115 -123l-41 -37l-86 67z" />
    <glyph glyph-name="Ugrave" unicode="&#xd9;" horiz-adv-x="701" 
d="M318 -17c-159 0 -286 91 -250 294l57 323h198l-56 -304c-19 -101 -9 -156 74 -156c74 0 98 55 117 156l56 304h195l-57 -323c-36 -203 -184 -294 -334 -294zM461 648l-195 92l53 83l165 -138z" />
    <glyph glyph-name="dotlessi" unicode="&#x131;" horiz-adv-x="281" 
d="M8 0l76 432h187l-76 -432h-187z" />
    <glyph glyph-name="circumflex" unicode="&#x2c6;" horiz-adv-x="300" 
d="M108 473l-35 38l155 122l115 -123l-41 -37l-86 67z" />
    <glyph glyph-name="tilde" unicode="&#x2dc;" horiz-adv-x="300" 
d="M259 479c-42 0 -76 46 -115 46c-19 0 -24 -10 -29 -44h-61c9 85 51 123 99 123c43 0 77 -46 115 -46c21 0 25 10 32 43h59c-9 -84 -51 -122 -100 -122z" />
    <glyph glyph-name="macron" unicode="&#xaf;" horiz-adv-x="300" 
d="M90 475v57h232v-57h-232z" />
    <glyph glyph-name="breve" unicode="&#x2d8;" horiz-adv-x="300" 
d="M206 475c-60 0 -107 43 -107 117h29c12 -34 41 -57 78 -57c36 0 67 22 78 57h29c0 -74 -47 -117 -107 -117z" />
    <glyph glyph-name="dotaccent" unicode="&#x2d9;" horiz-adv-x="300" 
d="M143 481l20 116h116l-20 -116h-116z" />
    <glyph glyph-name="ring" unicode="&#x2da;" horiz-adv-x="300" 
d="M316 581c-6 -60 -58 -106 -118 -106s-102 46 -96 106s58 107 118 107s102 -47 96 -107zM258 581c3 27 -17 50 -44 50s-51 -23 -54 -50s17 -49 44 -49s51 22 54 49z" />
    <glyph glyph-name="cedilla" unicode="&#xb8;" horiz-adv-x="300" 
d="M6 -222l3 44c67 -9 101 13 105 49c3 29 -34 46 -82 30l2 30l110 102l47 -13l-73 -67c48 -4 85 -33 80 -79c-8 -75 -101 -112 -192 -96z" />
    <glyph glyph-name="hungarumlaut" unicode="&#x2dd;" horiz-adv-x="300" 
d="M207 474l-11 16l106 99c20 18 33 27 53 27s36 -16 36 -36c0 -19 -16 -34 -29 -40zM39 474l-13 16l107 99c20 18 33 27 53 27s36 -16 36 -36c0 -19 -16 -35 -28 -40z" />
    <glyph glyph-name="ogonek" unicode="&#x2db;" horiz-adv-x="300" 
d="M50 -135c-49 0 -84 39 -79 87c6 60 80 110 137 91l17 -1l-12 -27h-13c-26 0 -57 -19 -60 -43c-3 -23 9 -46 39 -46c16 0 35 4 45 23l17 31l9 -36l2 -5c-11 -44 -55 -74 -102 -74z" />
    <glyph glyph-name="caron" unicode="&#x2c7;" horiz-adv-x="300" 
d="M181 472l-115 123l41 37l86 -67l108 67l35 -38z" />
    <glyph glyph-name="currency" unicode="&#xa4;" horiz-adv-x="556" 
d="M321 -14c-139 0 -234 71 -234 229h-60l10 55h54c1 11 2 21 4 32l6 28h-54l10 55h60c55 160 175 232 315 232c55 0 115 -16 149 -42l-24 -139c-34 31 -78 44 -126 44c-59 0 -97 -24 -123 -95h126l-10 -55h-131l-6 -28c-2 -11 -4 -22 -4 -32h131l-10 -55h-125
c2 -69 32 -92 89 -92c47 0 95 16 141 44l-24 -139c-38 -25 -109 -42 -164 -42z" />
    <glyph glyph-name="zero.oprp" horiz-adv-x="581" 
d="M262 -12c-161 0 -262 113 -240 243c22 131 152 213 289 213c161 0 262 -113 240 -243c-22 -131 -152 -213 -289 -213zM271 110c31 0 70 18 85 103c15 84 -18 109 -55 109c-33 0 -69 -18 -84 -103s16 -109 54 -109z" />
    <glyph glyph-name="one.oprp" horiz-adv-x="371" 
d="M55 0l51 298h-64l20 110l264 39l-78 -447h-193z" />
    <glyph glyph-name="two.oprp" horiz-adv-x="510" 
d="M-6 0l21 116l170 84c60 29 96 50 96 76c0 23 -17 34 -48 34c-48 0 -118 -20 -189 -67l25 142c48 32 140 63 206 63c121 0 215 -49 206 -144c-7 -71 -80 -115 -152 -141l-58 -21h193l-26 -142h-444z" />
    <glyph glyph-name="three.oprp" horiz-adv-x="516" 
d="M168 -201c-87 0 -157 27 -195 66l17 138c44 -53 106 -76 158 -76c58 0 95 33 102 84c6 43 -20 74 -68 74c-32 0 -58 -16 -72 -27l-43 91l182 143h-200l22 140h440l-18 -96l-172 -135c78 -18 138 -87 123 -192c-18 -128 -143 -210 -276 -210z" />
    <glyph glyph-name="four.oprp" horiz-adv-x="613" 
d="M209 -195l34 195h-254l18 98l323 334h183l-55 -312h109l-22 -120h-109l-34 -195h-193zM153 120h112l24 141z" />
    <glyph glyph-name="five.oprp" horiz-adv-x="516" 
d="M172 -201c-87 0 -161 27 -199 66l17 138c44 -53 106 -76 158 -76c68 0 97 37 102 71c7 45 -27 74 -70 74c-39 0 -64 -15 -92 -41l-64 30l66 371h405l-26 -140h-263l-17 -102c17 6 53 15 80 15c116 0 191 -84 175 -196c-18 -128 -139 -210 -272 -210z" />
    <glyph glyph-name="six.oprp" 
d="M255 -14c-111 0 -245 49 -212 285c29 209 165 346 352 346c75 0 143 -26 160 -42l-19 -131c-35 26 -88 41 -136 41c-66 0 -127 -21 -150 -133c22 20 70 40 112 40c122 0 180 -85 163 -203c-17 -117 -133 -203 -270 -203zM264 100c37 0 66 30 76 88c11 62 -10 87 -44 87
c-28 0 -68 -14 -80 -84c-9 -50 6 -91 48 -91z" />
    <glyph glyph-name="seven.oprp" horiz-adv-x="504" 
d="M-4 -195c72 187 262 441 303 487h-274l24 140h465l-19 -103c-59 -76 -233 -335 -297 -524h-202z" />
    <glyph glyph-name="eight.oprp" horiz-adv-x="576" 
d="M253 -14c-153 0 -246 75 -230 184c11 76 71 132 146 164c-50 30 -67 82 -60 131c12 86 114 152 243 152c127 0 211 -66 199 -152c-7 -49 -46 -101 -106 -131c63 -32 99 -92 88 -168c-16 -109 -127 -180 -280 -180zM318 391c34 0 55 32 60 60c6 34 -5 61 -39 61
c-33 0 -53 -27 -59 -61c-5 -28 5 -60 38 -60zM266 98c44 0 74 35 83 85c9 49 -9 83 -53 83c-43 0 -74 -34 -83 -83c-9 -50 10 -85 53 -85z" />
    <glyph glyph-name="nine.oprp" 
d="M307 449c111 0 245 -49 212 -285c-29 -209 -165 -346 -352 -346c-75 0 -143 26 -160 42l19 131c35 -26 88 -41 136 -41c66 0 127 21 150 133c-22 -20 -70 -40 -112 -40c-122 0 -180 85 -163 203c17 117 133 203 270 203zM298 335c-37 0 -66 -30 -76 -88
c-11 -62 10 -87 44 -87c28 0 68 14 80 84c9 50 -6 91 -48 91z" />
    <glyph glyph-name="zero.otab" 
d="M255 -12c-161 0 -255 113 -233 243c22 131 145 213 282 213c161 0 255 -113 233 -243c-22 -131 -145 -213 -282 -213zM264 110c31 0 63 18 78 103c15 84 -11 109 -48 109c-33 0 -62 -18 -77 -103s9 -109 47 -109z" />
    <glyph glyph-name="one.otab" 
d="M152 0l51 298h-64l20 110l264 39l-78 -447h-193z" />
    <glyph glyph-name="two.otab" 
d="M38 0v112l179 88c60 30 96 50 96 76c0 23 -17 34 -48 34c-48 0 -118 -20 -189 -67l25 142c48 32 140 63 206 63c121 0 215 -49 206 -144c-7 -71 -80 -115 -152 -141l-58 -21h193l-26 -142h-432z" />
    <glyph glyph-name="three.otab" 
d="M193 -201c-87 0 -157 27 -195 66l17 138c44 -53 106 -76 158 -76c58 0 95 33 102 84c6 43 -20 74 -68 74c-32 0 -58 -16 -72 -27l-43 91l182 143h-200l22 140h432v-88l-182 -143c78 -18 138 -87 123 -192c-18 -128 -143 -210 -276 -210z" />
    <glyph glyph-name="four.otab" 
d="M186 -195l34 195h-231v87l318 345h183l-55 -312h93l-22 -120h-93l-34 -195h-193zM146 120h96l23 129z" />
    <glyph glyph-name="five.otab" 
d="M197 -201c-87 0 -161 27 -199 66l17 138c44 -53 106 -76 158 -76c68 0 97 37 102 71c7 45 -27 74 -70 74c-39 0 -64 -15 -92 -41l-64 30l66 371h405l-26 -140h-263l-17 -102c17 6 53 15 80 15c116 0 191 -84 175 -196c-18 -128 -139 -210 -272 -210z" />
    <glyph glyph-name="six.otab" 
d="M255 -14c-111 0 -245 49 -212 285c29 209 165 346 352 346c75 0 143 -26 160 -42l-19 -131c-35 26 -88 41 -136 41c-66 0 -127 -21 -150 -133c22 20 70 40 112 40c122 0 180 -85 163 -203c-17 -117 -133 -203 -270 -203zM264 100c37 0 66 30 76 88c11 62 -10 87 -44 87
c-28 0 -68 -14 -80 -84c-9 -50 6 -91 48 -91z" />
    <glyph glyph-name="seven.otab" 
d="M27 -195c72 187 262 441 303 487h-274l24 140h458v-88c-62 -76 -245 -350 -309 -539h-202z" />
    <glyph glyph-name="eight.otab" 
d="M248 -14c-153 0 -243 75 -227 184c11 76 68 132 143 164c-50 30 -64 82 -57 131c12 86 111 152 240 152c127 0 208 -66 196 -152c-7 -49 -43 -101 -103 -131c63 -32 96 -92 85 -168c-16 -109 -124 -180 -277 -180zM313 391c34 0 55 32 60 60c6 34 -5 61 -39 61
c-33 0 -53 -27 -59 -61c-5 -28 5 -60 38 -60zM261 98c44 0 74 35 83 85c9 49 -9 83 -53 83c-43 0 -74 -34 -83 -83c-9 -50 10 -85 53 -85z" />
    <glyph glyph-name="nine.otab" 
d="M307 449c111 0 245 -49 212 -285c-29 -209 -165 -346 -352 -346c-75 0 -143 26 -160 42l19 131c35 -26 88 -41 136 -41c66 0 127 21 150 133c-22 -20 -70 -40 -112 -40c-122 0 -180 85 -163 203c17 117 133 203 270 203zM298 335c-37 0 -66 -30 -76 -88
c-11 -62 10 -87 44 -87c28 0 68 14 80 84c9 50 -6 91 -48 91z" />
    <glyph glyph-name="zero.ltab" 
d="M253 -14c-165 0 -240 129 -206 321c34 191 128 310 293 310c164 0 239 -129 205 -320c-34 -192 -128 -311 -292 -311zM266 121c45 0 60 41 84 181c24 139 17 180 -24 180c-46 0 -60 -41 -84 -180c-24 -140 -16 -181 24 -181z" />
    <glyph glyph-name="one.ltab" 
d="M152 0l81 461h-64l20 110l264 44l-108 -615h-193z" />
    <glyph glyph-name="two.ltab" 
d="M22 0v85l155 141c79 72 145 122 145 183c0 47 -30 68 -66 68c-57 0 -97 -25 -159 -64l18 141c46 32 127 63 209 63c127 0 211 -88 193 -209c-15 -101 -75 -147 -148 -202l-85 -64h200l-26 -142h-436z" />
    <glyph glyph-name="three.ltab" 
d="M226 -14c-87 0 -157 27 -195 66l17 138c44 -53 106 -76 158 -76c58 0 95 33 102 84c6 43 -20 74 -68 74c-32 0 -58 -16 -72 -27l-43 91l179 124h-200l22 140h432v-88l-179 -124c78 -18 138 -87 123 -192c-18 -128 -143 -210 -276 -210z" />
    <glyph glyph-name="four.ltab" 
d="M221 0l22 126h-231v87l325 387h183l-62 -354h93l-22 -120h-93l-22 -126h-193zM169 246h96l27 148z" />
    <glyph glyph-name="five.ltab" 
d="M231 -14c-87 0 -161 27 -199 66l17 138c44 -53 106 -76 158 -76c68 0 96 34 102 71c7 45 -27 74 -70 74c-39 0 -64 -15 -92 -41l-64 30l62 352h405l-26 -140h-263l-13 -83c17 6 53 15 80 15c116 0 191 -84 175 -196c-18 -128 -139 -210 -272 -210z" />
    <glyph glyph-name="six.ltab" 
d="M255 -14c-111 0 -245 49 -212 285c29 209 165 346 352 346c75 0 143 -26 160 -42l-19 -131c-35 26 -88 41 -136 41c-66 0 -127 -21 -150 -133c22 20 70 40 112 40c122 0 180 -85 163 -203c-17 -117 -133 -203 -270 -203zM264 100c37 0 66 30 76 88c11 62 -10 87 -44 87
c-28 0 -68 -14 -80 -84c-9 -50 6 -91 48 -91z" />
    <glyph glyph-name="seven.ltab" 
d="M62 0c72 187 257 414 298 460h-274l24 140h458v-88c-62 -76 -240 -323 -304 -512h-202z" />
    <glyph glyph-name="eight.ltab" 
d="M248 -14c-153 0 -243 75 -227 184c11 76 68 132 143 164c-50 30 -64 82 -57 131c12 86 111 152 240 152c127 0 208 -66 196 -152c-7 -49 -43 -101 -103 -131c63 -32 96 -92 85 -168c-16 -109 -124 -180 -277 -180zM313 391c34 0 55 32 60 60c6 34 -5 61 -39 61
c-33 0 -53 -27 -59 -61c-5 -28 5 -60 38 -60zM261 98c44 0 74 35 83 85c9 49 -9 83 -53 83c-43 0 -74 -34 -83 -83c-9 -50 10 -85 53 -85z" />
    <glyph glyph-name="nine.ltab" 
d="M337 617c111 0 245 -49 212 -285c-29 -209 -165 -346 -352 -346c-75 0 -143 26 -160 42l19 131c35 -26 88 -41 136 -41c66 0 127 21 150 133c-22 -20 -70 -40 -112 -40c-122 0 -180 85 -163 203c17 117 133 203 270 203zM328 503c-37 0 -66 -30 -76 -88
c-11 -62 10 -87 44 -87c28 0 68 14 80 84c9 50 -6 91 -48 91z" />
    <glyph glyph-name="questiondown.caps" horiz-adv-x="454" 
d="M398 600l-27 -151h-150l27 151h150zM359 386l-21 -125l-49 -23c-65 -31 -85 -54 -87 -76c-2 -25 15 -38 39 -38c55 0 124 35 184 76l-16 -151c-51 -39 -138 -67 -213 -67c-116 0 -213 49 -201 162c10 97 83 146 197 193l12 5l8 44h147z" />
    <glyph glyph-name="exclamdown.caps" horiz-adv-x="297" 
d="M291 600l-27 -151h-150l27 151h150zM233 386v-386h-242l135 386h107z" />
    <glyph glyph-name="at.caps" horiz-adv-x="708" 
d="M344 -41c-181 0 -311 132 -293 307c20 194 197 352 391 352c160 0 271 -106 254 -267c-15 -140 -137 -251 -223 -251c-47 0 -65 19 -75 40c-21 -28 -52 -43 -86 -43c-89 0 -127 90 -97 193c33 113 119 187 205 187c27 0 52 -8 63 -16h82l-75 -262c-9 -30 -9 -44 10 -44
c46 0 122 72 135 195c14 132 -83 205 -195 205c-158 0 -285 -135 -300 -285c-16 -156 74 -259 217 -259c81 0 144 25 217 68l16 -33c-83 -58 -173 -87 -246 -87zM337 165c31 0 59 29 72 75l46 166c-7 5 -19 12 -39 12c-44 0 -78 -48 -101 -133c-20 -75 -17 -120 22 -120z
" />
    <glyph glyph-name="Q.alt" horiz-adv-x="714" 
d="M344 133c50 0 117 34 140 162c22 124 -22 172 -88 172c-52 0 -116 -33 -139 -162c-21 -118 19 -172 87 -172zM506 26l16 -44c13 -36 33 -52 68 -52c22 0 43 13 58 27l42 -85c-42 -45 -104 -71 -155 -71c-81 0 -158 20 -193 129l-17 53c-185 2 -311 149 -279 331
c32 183 184 303 366 303c185 0 314 -148 283 -331c-20 -118 -92 -210 -189 -260z" />
    <glyph glyph-name="Q.alt2" horiz-adv-x="714" 
d="M529 38l97 -172h-226l-63 117h-9c-187 0 -314 148 -282 331s184 303 366 303c185 0 314 -148 283 -331c-18 -108 -81 -195 -166 -248zM344 133c50 0 117 34 140 162c22 124 -22 172 -88 172c-52 0 -116 -33 -139 -162c-21 -118 19 -172 87 -172z" />
    <glyph glyph-name="a.alt" horiz-adv-x="593" 
d="M256 114c44 0 71 41 82 102s-4 102 -48 102s-71 -41 -82 -102s4 -102 48 -102zM506 128c-6 -32 4 -45 22 -45c12 0 19 4 27 7v-71c-23 -12 -62 -27 -123 -27c-50 0 -93 20 -110 63c-32 -48 -87 -67 -139 -67c-121 0 -182 110 -160 234c23 128 116 222 249 222
c28 0 86 -12 117 -45l31 33h139z" />
    <glyph glyph-name="aacute.alt" horiz-adv-x="593" 
d="M256 114c44 0 71 41 82 102s-4 102 -48 102s-71 -41 -82 -102s4 -102 48 -102zM506 128c-6 -32 4 -45 22 -45c12 0 19 4 27 7v-71c-23 -12 -62 -27 -123 -27c-50 0 -93 20 -110 63c-32 -48 -87 -67 -139 -67c-121 0 -182 110 -160 234c23 128 116 222 249 222
c28 0 86 -12 117 -45l31 33h139zM270 472l-23 37l165 138l53 -83z" />
    <glyph glyph-name="acircumflex.alt" horiz-adv-x="593" 
d="M256 114c44 0 71 41 82 102s-4 102 -48 102s-71 -41 -82 -102s4 -102 48 -102zM506 128c-6 -32 4 -45 22 -45c12 0 19 4 27 7v-71c-23 -12 -62 -27 -123 -27c-50 0 -93 20 -110 63c-32 -48 -87 -67 -139 -67c-121 0 -182 110 -160 234c23 128 116 222 249 222
c28 0 86 -12 117 -45l31 33h139zM235 473l-35 38l155 122l115 -123l-41 -37l-86 67z" />
    <glyph glyph-name="adieresis.alt" horiz-adv-x="593" 
d="M256 114c44 0 71 41 82 102s-4 102 -48 102s-71 -41 -82 -102s4 -102 48 -102zM506 128c-6 -32 4 -45 22 -45c12 0 19 4 27 7v-71c-23 -12 -62 -27 -123 -27c-50 0 -93 20 -110 63c-32 -48 -87 -67 -139 -67c-121 0 -182 110 -160 234c23 128 116 222 249 222
c28 0 86 -12 117 -45l31 33h139zM166 481l20 116h116l-20 -116h-116zM370 481l20 116h116l-20 -116h-116z" />
    <glyph glyph-name="agrave.alt" horiz-adv-x="593" 
d="M256 114c44 0 71 41 82 102s-4 102 -48 102s-71 -41 -82 -102s4 -102 48 -102zM506 128c-6 -32 4 -45 22 -45c12 0 19 4 27 7v-71c-23 -12 -62 -27 -123 -27c-50 0 -93 20 -110 63c-32 -48 -87 -67 -139 -67c-121 0 -182 110 -160 234c23 128 116 222 249 222
c28 0 86 -12 117 -45l31 33h139zM389 472l-195 92l53 83l165 -138z" />
    <glyph glyph-name="aring.alt" horiz-adv-x="593" 
d="M256 114c44 0 71 41 82 102s-4 102 -48 102s-71 -41 -82 -102s4 -102 48 -102zM506 128c-6 -32 4 -45 22 -45c12 0 19 4 27 7v-71c-23 -12 -62 -27 -123 -27c-50 0 -93 20 -110 63c-32 -48 -87 -67 -139 -67c-121 0 -182 110 -160 234c23 128 116 222 249 222
c28 0 86 -12 117 -45l31 33h139zM443 581c-6 -60 -58 -106 -118 -106s-102 46 -96 106s58 107 118 107s102 -47 96 -107zM385 581c3 27 -17 50 -44 50s-51 -23 -54 -50s17 -49 44 -49s51 22 54 49z" />
    <glyph glyph-name="atilde.alt" horiz-adv-x="593" 
d="M256 114c44 0 71 41 82 102s-4 102 -48 102s-71 -41 -82 -102s4 -102 48 -102zM506 128c-6 -32 4 -45 22 -45c12 0 19 4 27 7v-71c-23 -12 -62 -27 -123 -27c-50 0 -93 20 -110 63c-32 -48 -87 -67 -139 -67c-121 0 -182 110 -160 234c23 128 116 222 249 222
c28 0 86 -12 117 -45l31 33h139zM386 479c-42 0 -76 46 -115 46c-19 0 -24 -10 -29 -44h-61c9 85 51 123 99 123c43 0 77 -46 115 -46c21 0 25 10 32 43h59c-9 -84 -51 -122 -100 -122z" />
    <glyph glyph-name="d.alt" horiz-adv-x="593" 
d="M256 114c44 0 71 41 82 102s-4 102 -48 102s-71 -41 -82 -102s4 -102 48 -102zM506 129c-6 -34 3 -46 22 -46c12 0 19 4 27 7v-71c-23 -12 -62 -27 -123 -27c-50 0 -94 20 -110 63c-32 -48 -87 -67 -139 -67c-121 0 -182 110 -160 234c23 128 116 222 249 222
c23 0 66 -9 97 -29l32 185h187z" />
    <glyph glyph-name="f.alt" horiz-adv-x="339" 
d="M-18 -195l91 516h-65l21 111h63l1 10c11 114 95 174 232 174c15 0 66 -7 74 -10l-17 -106c-12 5 -26 7 -38 7c-43 0 -60 -21 -64 -65l-1 -10h94l-21 -111h-92l-91 -516h-187z" />
    <glyph glyph-name="t.alt" horiz-adv-x="375" 
d="M195 -8c-104 0 -162 62 -141 179l27 150h-56l21 111h54l20 113h187l-20 -113h90l-21 -111h-88l-23 -131c-10 -55 -1 -84 35 -84c20 0 34 6 48 14l9 -90c-25 -21 -75 -38 -142 -38z" />
    <glyph glyph-name="u.alt" horiz-adv-x="603" 
d="M328 69c-54 -59 -108 -81 -169 -81c-87 0 -142 63 -124 170l47 274h187l-42 -242c-7 -41 10 -58 37 -58c33 0 70 31 83 104l34 196h187l-53 -304c-5 -30 4 -45 23 -45c12 0 19 4 27 7v-71c-23 -12 -62 -27 -123 -27c-55 0 -102 25 -114 77z" />
    <glyph glyph-name="uacute.alt" horiz-adv-x="603" 
d="M328 69c-54 -59 -108 -81 -169 -81c-87 0 -142 63 -124 170l47 274h187l-42 -242c-7 -41 10 -58 37 -58c33 0 70 31 83 104l34 196h187l-53 -304c-5 -30 4 -45 23 -45c12 0 19 4 27 7v-71c-23 -12 -62 -27 -123 -27c-55 0 -102 25 -114 77zM283 472l-23 37l165 138
l53 -83z" />
    <glyph glyph-name="ucircumflex.alt" horiz-adv-x="603" 
d="M328 69c-54 -59 -108 -81 -169 -81c-87 0 -142 63 -124 170l47 274h187l-42 -242c-7 -41 10 -58 37 -58c33 0 70 31 83 104l34 196h187l-53 -304c-5 -30 4 -45 23 -45c12 0 19 4 27 7v-71c-23 -12 -62 -27 -123 -27c-55 0 -102 25 -114 77zM238 473l-35 38l155 122
l115 -123l-41 -37l-86 67z" />
    <glyph glyph-name="udieresis.alt" horiz-adv-x="603" 
d="M328 69c-54 -59 -108 -81 -169 -81c-87 0 -142 63 -124 170l47 274h187l-42 -242c-7 -41 10 -58 37 -58c33 0 70 31 83 104l34 196h187l-53 -304c-5 -30 4 -45 23 -45c12 0 19 4 27 7v-71c-23 -12 -62 -27 -123 -27c-55 0 -102 25 -114 77zM169 481l20 116h116l-20 -116
h-116zM373 481l20 116h116l-20 -116h-116z" />
    <glyph glyph-name="ugrave.alt" horiz-adv-x="603" 
d="M328 69c-54 -59 -108 -81 -169 -81c-87 0 -142 63 -124 170l47 274h187l-42 -242c-7 -41 10 -58 37 -58c33 0 70 31 83 104l34 196h187l-53 -304c-5 -30 4 -45 23 -45c12 0 19 4 27 7v-71c-23 -12 -62 -27 -123 -27c-55 0 -102 25 -114 77zM371 472l-195 92l53 83
l165 -138z" />
    <glyph glyph-name="y.alt" horiz-adv-x="578" 
d="M501 50c-37 -209 -167 -254 -287 -254c-61 0 -161 24 -208 54l20 120c56 -40 118 -53 172 -53c59 0 100 35 112 105l6 34c-47 -46 -97 -68 -157 -68c-87 0 -142 63 -124 170l47 274h187l-42 -242c-7 -41 10 -58 37 -58c33 0 70 31 83 104l34 196h187z" />
    <glyph glyph-name="yacute.alt" horiz-adv-x="578" 
d="M501 50c-37 -209 -167 -254 -287 -254c-61 0 -161 24 -208 54l20 120c56 -40 118 -53 172 -53c59 0 100 35 112 105l6 34c-47 -46 -97 -68 -157 -68c-87 0 -142 63 -124 170l47 274h187l-42 -242c-7 -41 10 -58 37 -58c33 0 70 31 83 104l34 196h187zM291 472l-23 37
l165 138l53 -83z" />
    <glyph glyph-name="ydieresis.alt" horiz-adv-x="578" 
d="M501 50c-37 -209 -167 -254 -287 -254c-61 0 -161 24 -208 54l20 120c56 -40 118 -53 172 -53c59 0 100 35 112 105l6 34c-47 -46 -97 -68 -157 -68c-87 0 -142 63 -124 170l47 274h187l-42 -242c-7 -41 10 -58 37 -58c33 0 70 31 83 104l34 196h187zM171 481l20 116h116
l-20 -116h-116zM375 481l20 116h116l-20 -116h-116z" />
    <glyph glyph-name="fi.alt" horiz-adv-x="622" 
d="M347 0l76 432h187l-76 -432h-187zM432 481l21 119h187l-21 -119h-187zM-18 -195l91 516h-65l21 111h63l1 10c11 114 95 174 232 174c15 0 66 -7 74 -10l-17 -106c-12 5 -26 7 -38 7c-43 0 -60 -21 -64 -65l-1 -10h94l-21 -111h-92l-91 -516h-187z" />
    <glyph glyph-name="fl.alt" horiz-adv-x="630" 
d="M-18 -195l91 516h-65l21 111h63l1 7c18 127 103 177 231 177c34 0 85 -9 113 -16l186 15l-108 -615h-187l87 495c-17 6 -48 12 -70 12c-45 0 -57 -25 -63 -58l-3 -17h74l-21 -111h-72l-91 -516h-187z" />
    <glyph glyph-name="mu.alt" horiz-adv-x="603" 
d="M82 432h187l-42 -242c-7 -41 10 -58 37 -58c33 0 70 31 83 104l34 196h187l-52 -300c-11 -66 -15 -95 -15 -132h-179c-1 16 -2 34 1 64c-39 -42 -82 -66 -131 -74l-33 -185h-187z" />
    <glyph glyph-name="ordfeminine.alt" horiz-adv-x="460" 
d="M474 603l-40 -231c-9 -50 -11 -73 -11 -101h-131v44c-24 -39 -64 -50 -104 -50c-89 0 -136 82 -119 177c18 98 97 167 188 167c22 0 62 -6 86 -31l24 25h107zM244 361c30 0 50 29 59 76s-3 76 -33 76s-50 -29 -58 -76s2 -76 32 -76z" />
    <glyph glyph-name="nbspace" unicode="&#xa0;" horiz-adv-x="172" 
 />
    </font>
</defs>
</svg>
