<svg id="cloudCommerce" class="img-responsive-pictogram" width="507" height="421" xmlns="http://www.w3.org/2000/svg" xmlns:xlink="http://www.w3.org/1999/xlink" viewBox="0 0 479.58 398.76"><defs><linearGradient id="Cloud_Gradation" x1="233.75" y1="-4.75" x2="314.7" y2="41.5" gradientUnits="userSpaceOnUse"><stop offset="0" stop-color="#eaf2f2"/><stop offset="1" stop-color="#ccd9dc"/></linearGradient><linearGradient id="Cloud_Gradation-2" x1="120.61" y1="58.02" x2="170.8" y2="30.33" xlink:href="#Cloud_Gradation"/><linearGradient id="Cloud_Gradation-3" x1="272.99" y1="12.71" x2="470.41" y2="126.7" xlink:href="#Cloud_Gradation"/><linearGradient id="linear-gradient" x1="171.84" y1="311.57" x2="320.37" y2="227.44" gradientUnits="userSpaceOnUse"><stop offset="0" stop-color="#bae9fb"/><stop offset="1" stop-color="#b6e8fb"/></linearGradient></defs><title>cloud_commerce</title><g id="Layer_2" data-name="Layer 2"><g id="Layer_1-2" data-name="Layer 1"><line x1="0.51" y1="234.8" x2="52.5" y2="204.82" style="fill:none;stroke:#b6e8fb;stroke-linecap:round;stroke-linejoin:round;stroke-width:1.02477262470557px"/><path d="M226.72,8.59c2.43-7.89,8.82-15.48,25.55,2.17,0,0,19.19-24.43,43.62,7,12.48,16.06,12.37,37.92,12.37,37.92Z" style="fill:url(#Cloud_Gradation)"/><line x1="182.66" y1="227.23" x2="130.03" y2="197.13" style="fill:none;stroke:#b6e8fb;stroke-linecap:round;stroke-linejoin:round;stroke-width:1.02477262470557px"/><line x1="0.51" y1="234.8" x2="52.5" y2="204.82" style="fill:none;stroke:#b6e8fb;stroke-linecap:round;stroke-linejoin:round;stroke-width:1.02477262470557px"/><path d="M126.31,64.46c.18-13.21,13.84-16.36,13.84-16.36,5.06-14.29,13.13-19.82,19.23-18.33S165,37.68,165,37.68c4.93-5,8.16-2.67,9.53-1.06Z" style="fill:url(#Cloud_Gradation-2)"/><path d="M257.39,41.57c5.6-6.58,18.83-16.26,39,4.34,0,0-1.92-26.24,23-32.33S377.34,30.07,398,88.52c0,0,55.86,12.9,56.59,66.91Z" style="fill:url(#Cloud_Gradation-3)"/><polyline points="351.35 261.54 460.59 324.23 383.24 368.89" style="fill:none;stroke:#b6e8fb;stroke-linecap:round;stroke-linejoin:round;stroke-width:1.02477262470557px"/><polygon points="370.59 295.09 320.21 324.17 220.88 381.53 220.87 381.53 51.41 283.69 201.12 197.25 201.16 197.28 370.59 295.09" style="fill:url(#linear-gradient)"/><polygon points="370.59 295.09 320.21 324.17 220.88 381.53 220.87 381.53 51.41 283.69 201.12 197.25 201.16 197.28 370.59 295.09" style="fill:#003058;opacity:0.1"/><polygon points="350.33 293.5 272.29 337.93 125.43 253.2 203.47 208.77 350.33 293.5" style="fill:none;stroke:#b6e8fb;stroke-miterlimit:10;stroke-width:1.31966952201571px"/><polygon points="370.59 129.68 370.59 292.25 201.16 194.44 201.16 31.87 370.59 129.68" style="fill:#b6e8fb"/><polygon points="355.98 140.34 355.98 268.39 213.41 186.09 213.41 58.03 355.98 140.34" style="fill:#003058"/><path d="M370.59,295.09v2.66a20.8,20.8,0,0,1-10.4,18L233.64,388.82a25.05,25.05,0,0,1-25,0L63.87,305.27a24.92,24.92,0,0,1-12.46-21.58h0l169.46,97.84h0l99.33-57.36Z" style="fill:#003058"/><polygon points="323.35 151.42 323.35 289.31 174.54 203.47 174.54 65.58 323.35 151.42" style="fill:#00a7e1"/><polygon points="198.23 312.31 186.43 319.13 163.16 332.56 163.16 332.56 123.45 309.64 158.53 289.39 158.54 289.4 198.23 312.31" style="fill:#003058"/><polygon points="309.93 334.21 309.93 340.64 299.1 346.89 299.1 340.46 309.93 334.21" style="fill:#00a7e1"/><path d="M293.44,344.73v4.65l-9.29,5.36v-4.65l9.29-5.36m.77-1.33-10.83,6.24v6.43l10.83-6.24V343.4Z" style="fill:#00a7e1"/><polyline points="220.11 195.47 220.11 288.01 116.92 228.12 53.14 264.9 0.51 234.8" style="fill:none;stroke:#b6e8fb;stroke-linecap:round;stroke-linejoin:round;stroke-width:1.02477262470557px"/><polygon points="315.55 240.27 315.55 258.75 278.55 236.61 278.55 218.13 315.55 240.27" style="fill:none;stroke:#b6e8fb;stroke-miterlimit:10;stroke-width:1.31966952201571px"/><polygon points="307.64 248.18 307.64 266.66 270.64 244.52 270.64 226.04 307.64 248.18" style="fill:#a8c628"/><line x1="292.34" y1="160.73" x2="334.23" y2="184.92" style="fill:none;stroke:#a8c628;stroke-linecap:round;stroke-linejoin:round;stroke-width:2.04954524941114px"/><line x1="292.34" y1="184.92" x2="318.33" y2="199.93" style="fill:none;stroke:#a8c628;stroke-linecap:round;stroke-linejoin:round;stroke-width:2.04954524941114px"/><line x1="292.34" y1="196.39" x2="304.59" y2="203.47" style="fill:none;stroke:#a8c628;stroke-linecap:round;stroke-linejoin:round;stroke-width:2.04954524941114px"/><line x1="311.63" y1="207.53" x2="335.07" y2="221.06" style="fill:none;stroke:#a8c628;stroke-linecap:round;stroke-linejoin:round;stroke-width:2.04954524941114px"/><line x1="292.34" y1="174.2" x2="340.61" y2="202.07" style="fill:none;stroke:#a8c628;stroke-linecap:round;stroke-linejoin:round;stroke-width:2.04954524941114px"/><path d="M461.21,172a4.12,4.12,0,0,0-4.13,0l-37.53,21.89L412.45,198l-3.58,2.07a10.25,10.25,0,0,0-5.13,8.88V316.62a9.3,9.3,0,0,0,4.65,8.05l4.06,2.34V212.08a10.25,10.25,0,0,1,5.13-8.88l2-1.13,46.67-27.17Z" style="fill:#003058"/><path d="M463.12,176.91l-43.58,25.16-2,1.13a10.25,10.25,0,0,0-5.13,8.88V327l7.08-4.09,43.58-25.16,3-1.72a8.22,8.22,0,0,0,4.11-7.12V179.22a3.69,3.69,0,0,0-5.53-3.2Zm0,94-43.58,25.16V209.53l43.58-25.16Z" style="fill:#00a7e1"/><path d="M448.69,296.06c.87-3-.36-5.37-2.75-5.37s-5,2.4-5.89,5.37.36,5.37,2.75,5.37S447.82,299,448.69,296.06Z" style="fill:#003058"/><polygon points="463.12 273.74 419.54 298.9 419.54 209.53 463.12 184.37 463.12 273.74" style="fill:#003058"/><path d="M439.87,262.16l33.64-19.42a11.15,11.15,0,0,0,5.58-9.66V216.79l-44.79,25.86v16.28A3.72,3.72,0,0,0,439.87,262.16Z" style="fill:#b6e8fb"/><path d="M473.51,206.74l-33.64,19.42a11.15,11.15,0,0,0-5.58,9.66h0L479.08,210h0A3.72,3.72,0,0,0,473.51,206.74Z" style="fill:#b6e8fb"/><polygon points="434.29 235.83 434.29 242.53 479.08 216.67 479.08 209.96 434.29 235.83" style="fill:#9e79bb"/><line x1="437.33" y1="245.16" x2="442.49" y2="242.18" style="fill:none;stroke:#003058;stroke-linecap:round;stroke-linejoin:round;stroke-width:0.713254534616519px"/><line x1="445.07" y1="240.69" x2="450.24" y2="237.71" style="fill:none;stroke:#003058;stroke-linecap:round;stroke-linejoin:round;stroke-width:0.713254534616519px"/><polygon points="479.58 247.46 459.57 258.83 459.57 255.49 452.13 264.98 459.57 266.02 459.57 262.69 479.58 251.32 479.58 247.46" style="fill:#a8c628"/><polygon points="432.42 221.06 452.42 209.7 452.42 213.03 459.86 203.54 452.42 202.51 452.42 205.84 432.42 217.2 432.42 221.06" style="fill:#a8c628"/><path d="M329.78,370.64a6.1,6.1,0,0,1-2.51,4.3l0,0-.23.13-2.4,1.36a4.6,4.6,0,0,0,1-.94,7.27,7.27,0,0,0,1.35-3.25c.83-4.68-1.46-10.68-5.12-13.39a5.68,5.68,0,0,0-3.95-1.29,3.91,3.91,0,0,0-1.27.35l2.28-1.3h0l.54-.31h0c1.49-.7,3.35-.44,5.22.94C328.33,360,330.62,366,329.78,370.64Z" style="fill:#989696"/><path d="M321.84,358.87a5.68,5.68,0,0,0-3.95-1.29,3.91,3.91,0,0,0-1.27.35l-.06,0-.23.13-.17.1h0a6.15,6.15,0,0,0-2.42,4.24c-.83,4.68,1.46,10.68,5.12,13.39,1.84,1.36,3.68,1.63,5.15,1h0l.6-.33,0,0a4.6,4.6,0,0,0,1-.94,7.27,7.27,0,0,0,1.35-3.25C327.78,367.57,325.49,361.58,321.84,358.87Zm-1.36,14.3h0a4.37,4.37,0,0,1-1.07-.59,9.17,9.17,0,0,1-3.15-8.25,5,5,0,0,1,.15-.63h0c.71-2.39,2.78-3.11,4.86-1.57a9.17,9.17,0,0,1,3.15,8.25C324,372.8,322.32,373.88,320.47,373.17Z" style="fill:#bebebe"/><path d="M324.41,370.37c-.43,2.42-2.08,3.51-3.94,2.8h0a4.37,4.37,0,0,1-1.07-.59,9.17,9.17,0,0,1-3.15-8.25,5,5,0,0,1,.15-.63h0c.71-2.39,2.78-3.11,4.86-1.57A9.17,9.17,0,0,1,324.41,370.37Z" style="fill:#dad9d9"/><path d="M343.35,273.25a7.44,7.44,0,0,0-3.73,1,18.5,18.5,0,0,0-9.25,16v87.27l20.47-11.82v-85A7.49,7.49,0,0,0,343.35,273.25Zm4.59,77.09-14.67,8.47V289.33a13.24,13.24,0,0,1,6.63-11.48l1.43-.83a4.4,4.4,0,0,1,6.6,3.81Z" style="fill:#003058"/><line x1="304.5" y1="341.09" x2="364.79" y2="375.89" style="fill:none;stroke:#b6e8fb;stroke-linecap:round;stroke-linejoin:round;stroke-width:1.02477262470557px"/><polygon points="392.13 380.03 392.13 342.61 392.1 342.59 359.7 361.3 359.7 398.76 392.13 380.03" style="fill:#a5a3a4"/><polygon points="380.02 368.6 380.02 349.72 380.02 349.72 371.8 354.46 371.8 373.35 380.02 368.6" style="fill:#dad9d9"/><polygon points="327.29 342.59 327.28 380.02 359.7 398.76 359.7 361.3 327.29 342.59" style="fill:#bebebe"/><polygon points="359.7 323.88 327.29 342.59 359.7 361.3 392.1 342.59 359.7 323.88" style="fill:#dad9d9"/><polygon points="348.95 330.24 340.76 334.74 371.8 354.46 379.87 349.52 348.95 330.24" style="fill:#fff"/><polygon points="377.12 339.67 377.12 313.98 377.1 313.96 354.85 326.81 354.85 352.54 377.12 339.67" style="fill:#a5a3a4"/><polygon points="368.81 331.82 368.81 318.86 368.8 318.86 363.16 322.12 363.16 335.09 368.81 331.82" style="fill:#dad9d9"/><polygon points="332.59 313.96 332.58 339.67 354.85 352.54 354.85 326.81 332.59 313.96" style="fill:#bebebe"/><polygon points="354.85 301.12 332.59 313.96 354.85 326.81 377.1 313.96 354.85 301.12" style="fill:#dad9d9"/><polygon points="347.46 305.48 341.84 308.57 363.08 321.82 368.7 318.72 347.46 305.48" style="fill:#fff"/><polygon points="73.37 132.4 73.37 228.2 147.75 185.25 147.75 89.46 73.37 132.4" style="fill:#003058"/><polyline points="73.37 132.4 147.75 89.46 147.75 74.46 46.69 132.81 46.69 147.81 73.37 132.4" style="fill:#00a7e1"/><polygon points="73.37 132.4 46.69 147.81 46.69 243.6 73.37 228.2 73.37 132.4" style="fill:#b6e8fb"/><path d="M54.75,137a1,1,0,0,0-.9-1.41A2.24,2.24,0,0,0,51.92,137a1,1,0,0,0,.9,1.41A2.24,2.24,0,0,0,54.75,137Z" style="fill:#003058"/><path d="M61.23,133.3a1,1,0,0,0-.9-1.41,2.24,2.24,0,0,0-1.93,1.41,1,1,0,0,0,.9,1.41A2.24,2.24,0,0,0,61.23,133.3Z" style="fill:#003058"/><path d="M67.72,129.36a1,1,0,0,0-.9-1.41,2.24,2.24,0,0,0-1.93,1.41,1,1,0,0,0,.9,1.41A2.24,2.24,0,0,0,67.72,129.36Z" style="fill:#003058"/><path d="M137.38,116.86v44.25L83.86,192V147.75l53.51-30.9m1-1.77L82.84,147.16v46.62L138.4,161.7V115.08Z" style="fill:#9e79bb"/><path d="M137.38,170.65v12.8l-53.51,30.9v-12.8l53.51-30.9m1-1.77L82.84,200.95v15.17L138.4,184V168.87Z" style="fill:#9e79bb"/><polygon points="100.55 177.2 100.55 158.65 100.56 158.64 116.62 167.91 116.62 186.48 100.55 177.2" style="fill:#bebebe"/><polygon points="106.55 171.53 106.55 162.18 106.55 162.17 110.62 164.53 110.62 173.89 106.55 171.53" style="fill:#dad9d9"/><polygon points="132.68 158.64 132.69 177.19 116.62 186.48 116.62 167.91 132.68 158.64" style="fill:#989696"/><polygon points="116.62 149.37 132.68 158.64 116.62 167.91 100.56 158.64 116.62 149.37" style="fill:#dad9d9"/><polygon points="121.95 152.52 126 154.75 110.68 164.31 106.62 162.08 121.95 152.52" style="fill:#fff"/><path d="M47.05,211.63" style="fill:none;stroke:#003058;stroke-linecap:round;stroke-linejoin:round;stroke-width:3.95900856604713px"/><line x1="52.26" y1="168.4" x2="60.09" y2="163.88" style="fill:none;stroke:#a8c628;stroke-linecap:round;stroke-linejoin:round;stroke-width:1.31966952201571px"/><line x1="52.26" y1="179.07" x2="65.85" y2="171.22" style="fill:none;stroke:#a8c628;stroke-linecap:round;stroke-linejoin:round;stroke-width:1.31966952201571px"/><line x1="52.26" y1="189.74" x2="63.54" y2="183.22" style="fill:none;stroke:#a8c628;stroke-linecap:round;stroke-linejoin:round;stroke-width:1.31966952201571px"/><line x1="52.26" y1="200.41" x2="65.72" y2="192.64" style="fill:none;stroke:#a8c628;stroke-linecap:round;stroke-linejoin:round;stroke-width:1.31966952201571px"/><line x1="52.26" y1="211.08" x2="58.99" y2="207.19" style="fill:none;stroke:#a8c628;stroke-linecap:round;stroke-linejoin:round;stroke-width:1.31966952201571px"/><line x1="52.26" y1="221.75" x2="61.05" y2="216.67" style="fill:none;stroke:#a8c628;stroke-linecap:round;stroke-linejoin:round;stroke-width:1.31966952201571px"/><line x1="52.26" y1="157.73" x2="63.54" y2="151.21" style="fill:none;stroke:#a8c628;stroke-linecap:round;stroke-linejoin:round;stroke-width:1.31966952201571px"/><line x1="82.84" y1="139.8" x2="94.12" y2="133.29" style="fill:none;stroke:#a8c628;stroke-linecap:round;stroke-linejoin:round;stroke-width:1.31966952201571px"/><line x1="99.24" y1="130.33" x2="110.52" y2="123.82" style="fill:none;stroke:#9e79bb;stroke-linecap:round;stroke-linejoin:round;stroke-width:1.31966952201571px"/><line x1="119.01" y1="118.92" x2="138.4" y2="107.72" style="fill:none;stroke:#a8c628;stroke-linecap:round;stroke-linejoin:round;stroke-width:1.31966952201571px"/><polygon points="250.01 218.35 249.87 226.25 243.03 222.32 188.04 190.78 188.2 182.88 249.96 218.33 250.01 218.35" style="fill:#dad9d9"/><polygon points="265.97 216.97 249.87 226.25 249.96 218.33 265.99 209.07 265.97 216.97" style="fill:#a5a3a4"/><polyline points="249.96 218.33 188.2 182.88 204.39 173.51 204.41 173.51 204.39 173.51 204.41 173.51 265.99 209.07" style="fill:#bebebe"/><polygon points="250.22 179.43 249.92 179.55 229 187.72 219.34 191.51 219.29 191.53 219.22 191.46 213.04 181.71 209.83 176.66 206.91 172.06 200.83 162.47 189.49 144.58 206.2 154.18 206.57 135.46 206.57 134.71 206.62 132.94 206.71 127.7 206.73 127.68 212.13 130.78 212.77 131.15 228.56 140.22 233.98 143.32 233.89 148.6 233.85 151.22 233.73 156.59 233.48 169.84 233.55 169.86 250.17 179.41 250.22 179.43" style="fill:#dad9d9"/><polygon points="189.49 144.58 205.93 135.1 206.57 135.46 206.2 154.18 189.49 144.58" style="fill:#989696"/><polygon points="266.43 170.02 250.17 179.41 233.55 169.86 249.85 160.44 249.92 160.49 266.43 170.02" style="fill:#989696"/><polygon points="249.92 134.13 249.92 160.4 249.85 160.44 233.55 169.86 233.48 169.84 233.73 156.59 233.85 151.22 233.89 148.6 233.98 143.32 249.9 134.13 249.92 134.13" style="fill:#a5a3a4"/><polygon points="249.9 134.13 222.73 118.45 206.73 127.68 233.98 143.32 249.9 134.13" style="fill:#bebebe"/></g></g></svg>