<svg id="flexibleMonetization" class="img-responsive-pictogram" width="507" height="421" xmlns="http://www.w3.org/2000/svg" xmlns:xlink="http://www.w3.org/1999/xlink" viewBox="0 0 408.05 396.51"><defs><linearGradient id="Blue_Gradation" x1="121.77" y1="157.73" x2="322.14" y2="157.73" gradientUnits="userSpaceOnUse"><stop offset="0" stop-color="#b6e8fb"/><stop offset="1" stop-color="#5db6d9"/></linearGradient><clipPath id="clip-path"><path d="M159.47,321.29l2.11,1.23a.78.78,0,0,1,.34.73,3.19,3.19,0,0,1-1.32,2.46l-2.11-1.23A3.19,3.19,0,0,0,159.8,322,.78.78,0,0,0,159.47,321.29Z" style="fill:none"/></clipPath><clipPath id="clip-path-2"><path d="M162.06,316.66l2.11,1.23c.79.46,1.14,1.41,1.15,2.86,0,3.61-2.16,6.33-4.72,8.12l-2.11-1.23c2.55-1.79,4.73-4.51,4.72-8.12C163.21,318.07,162.85,317.12,162.06,316.66Z" style="fill:none"/></clipPath><clipPath id="clip-path-3"><path d="M159.47,321.29l2.11,1.23a1.41,1.41,0,0,0-1-.05l-2.11-1.23A1.41,1.41,0,0,1,159.47,321.29Z" style="fill:none"/></clipPath><clipPath id="clip-path-4"><path d="M154.47,330.44l-2.11-1.23c1,.32,2.66.39,4.93-.84l2.11,1.23C157.13,330.82,155.43,330.76,154.47,330.44Z" style="fill:none"/></clipPath><clipPath id="clip-path-5"><path d="M162.06,316.66l2.11,1.23c-.77-.45-1.94-.42-3.6,0l-2.11-1.23C160.12,316.24,161.3,316.22,162.06,316.66Z" style="fill:none"/></clipPath><clipPath id="clip-path-6"><path d="M160.57,315.09l-2.11-1.23a6.07,6.07,0,0,1,3.24-.57l2.11,1.23A6.07,6.07,0,0,0,160.57,315.09Z" style="fill:none"/></clipPath><clipPath id="clip-path-7"><path d="M155.78,322.81l-2.11-1.23c.72.42,1.86.42,3.61,0l2.11,1.23C157.64,323.24,156.49,323.23,155.78,322.81Z" style="fill:none"/></clipPath><clipPath id="clip-path-8"><path d="M158.39,318.3l-2.11-1.23a1.36,1.36,0,0,0,1,0l2.11,1.23A1.36,1.36,0,0,1,158.39,318.3Z" style="fill:none"/></clipPath><clipPath id="clip-path-9"><path d="M156.27,317.07c-.18-.1-.24-.31-.24-.6l2.11,1.23c0,.29.07.49.24.6Z" style="fill:none"/></clipPath><clipPath id="clip-path-10"><path d="M156,316.48a2.49,2.49,0,0,1,1.22-1.95l2.11,1.23a2.49,2.49,0,0,0-1.22,1.95Z" style="fill:none"/></clipPath><clipPath id="clip-path-11"><path d="M160.56,311.94l-2.11-1.23a6.53,6.53,0,0,1,4-.77l2.11,1.23A6.53,6.53,0,0,0,160.56,311.94Z" style="fill:none"/></clipPath><clipPath id="clip-path-12"><path d="M155.78,322.81l-2.11-1.23c-.76-.44-1-1.34-1-2.64,0-3,1.85-5.76,4.62-7.55l2.11,1.23c-2.77,1.79-4.63,4.59-4.62,7.55C154.74,321.47,155,322.37,155.78,322.81Z" style="fill:none"/></clipPath><clipPath id="clip-path-13"><path d="M155.25,326.86l-2.11-1.23a5.88,5.88,0,0,0,4.15-.37l2.11,1.23A5.88,5.88,0,0,1,155.25,326.86Z" style="fill:none"/></clipPath><clipPath id="clip-path-14"><path d="M164.9,324l2.11,1.23a.78.78,0,0,1,.34.73,3.19,3.19,0,0,1-1.32,2.46l-2.11-1.23a3.19,3.19,0,0,0,1.32-2.46A.78.78,0,0,0,164.9,324Z" style="fill:none"/></clipPath><clipPath id="clip-path-15"><path d="M167.5,319.38l2.11,1.23c.79.46,1.14,1.41,1.15,2.86,0,3.61-2.17,6.33-4.72,8.12l-2.11-1.23c2.55-1.79,4.73-4.51,4.72-8.12C168.64,320.79,168.29,319.84,167.5,319.38Z" style="fill:none"/></clipPath><clipPath id="clip-path-16"><path d="M164.9,324l2.11,1.23a1.41,1.41,0,0,0-1-.05L163.91,324A1.41,1.41,0,0,1,164.9,324Z" style="fill:none"/></clipPath><clipPath id="clip-path-17"><path d="M159.91,333.15l-2.11-1.23c1,.32,2.66.38,4.93-.84l2.11,1.23C162.56,333.54,160.87,333.47,159.91,333.15Z" style="fill:none"/></clipPath><clipPath id="clip-path-18"><path d="M167.5,319.38l2.11,1.23c-.77-.45-1.94-.42-3.6,0l-2.11-1.23C165.56,319,166.73,318.94,167.5,319.38Z" style="fill:none"/></clipPath><clipPath id="clip-path-19"><path d="M166,317.81l-2.11-1.23a6.16,6.16,0,0,1,3.24-.58l2.11,1.23A6.16,6.16,0,0,0,166,317.81Z" style="fill:none"/></clipPath><clipPath id="clip-path-20"><path d="M161.21,325.53l-2.11-1.23c.72.42,1.86.42,3.61,0l2.11,1.23C163.07,326,161.93,325.95,161.21,325.53Z" style="fill:none"/></clipPath><clipPath id="clip-path-21"><path d="M163.82,321l-2.11-1.23a1.36,1.36,0,0,0,1,0l2.11,1.23A1.36,1.36,0,0,1,163.82,321Z" style="fill:none"/></clipPath><clipPath id="clip-path-22"><path d="M161.71,319.79c-.18-.1-.24-.31-.24-.6l2.11,1.23c0,.29.07.49.24.6Z" style="fill:none"/></clipPath><clipPath id="clip-path-23"><path d="M161.47,319.19a2.49,2.49,0,0,1,1.22-1.95l2.11,1.23a2.49,2.49,0,0,0-1.22,1.95Z" style="fill:none"/></clipPath><clipPath id="clip-path-24"><path d="M166,314.66l-2.11-1.23a6.53,6.53,0,0,1,4-.77l2.11,1.23A6.53,6.53,0,0,0,166,314.66Z" style="fill:none"/></clipPath><clipPath id="clip-path-25"><path d="M161.21,325.53l-2.11-1.23c-.76-.44-1-1.34-1-2.64,0-3,1.85-5.75,4.62-7.55l2.11,1.23c-2.77,1.8-4.63,4.59-4.62,7.55C160.18,324.19,160.45,325.09,161.21,325.53Z" style="fill:none"/></clipPath><clipPath id="clip-path-26"><path d="M160.69,329.58l-2.11-1.23a5.88,5.88,0,0,0,4.15-.37l2.11,1.23A5.88,5.88,0,0,1,160.69,329.58Z" style="fill:none"/></clipPath><clipPath id="clip-path-27"><path d="M170.34,326.73l2.11,1.23a.78.78,0,0,1,.34.73,3.19,3.19,0,0,1-1.32,2.46l-2.11-1.23a3.19,3.19,0,0,0,1.32-2.46A.78.78,0,0,0,170.34,326.73Z" style="fill:none"/></clipPath><clipPath id="clip-path-28"><path d="M172.94,322.1l2.11,1.23c.79.46,1.14,1.41,1.15,2.86,0,3.61-2.16,6.33-4.72,8.12l-2.11-1.23c2.55-1.79,4.73-4.51,4.72-8.12C174.08,323.5,173.72,322.56,172.94,322.1Z" style="fill:none"/></clipPath><clipPath id="clip-path-29"><path d="M170.34,326.73l2.11,1.23a1.41,1.41,0,0,0-1-.05l-2.11-1.23A1.41,1.41,0,0,1,170.34,326.73Z" style="fill:none"/></clipPath><clipPath id="clip-path-30"><path d="M165.35,335.87l-2.11-1.23c1,.32,2.66.39,4.93-.84l2.11,1.23C168,336.26,166.31,336.19,165.35,335.87Z" style="fill:none"/></clipPath><clipPath id="clip-path-31"><path d="M172.94,322.1l2.11,1.23c-.77-.45-1.94-.42-3.6,0l-2.11-1.23C171,321.67,172.17,321.65,172.94,322.1Z" style="fill:none"/></clipPath><clipPath id="clip-path-32"><path d="M171.44,320.53l-2.11-1.23a6.16,6.16,0,0,1,3.24-.58l2.11,1.23A6.16,6.16,0,0,0,171.44,320.53Z" style="fill:none"/></clipPath><clipPath id="clip-path-33"><path d="M166.65,328.25,164.53,327c.72.42,1.86.42,3.61,0l2.11,1.23C168.51,328.67,167.36,328.67,166.65,328.25Z" style="fill:none"/></clipPath><clipPath id="clip-path-34"><path d="M169.26,323.73l-2.11-1.23a1.36,1.36,0,0,0,1,0l2.11,1.23A1.36,1.36,0,0,1,169.26,323.73Z" style="fill:none"/></clipPath><clipPath id="clip-path-35"><path d="M167.15,322.5a.63.63,0,0,1-.24-.59l2.11,1.23a.63.63,0,0,0,.24.59Z" style="fill:none"/></clipPath><clipPath id="clip-path-36"><path d="M166.9,321.91a2.49,2.49,0,0,1,1.22-1.95l2.11,1.23a2.49,2.49,0,0,0-1.22,1.95Z" style="fill:none"/></clipPath><clipPath id="clip-path-37"><path d="M171.43,317.37l-2.11-1.23a6.53,6.53,0,0,1,4-.77l2.11,1.23A6.53,6.53,0,0,0,171.43,317.37Z" style="fill:none"/></clipPath><clipPath id="clip-path-38"><path d="M166.65,328.25,164.53,327c-.76-.44-1-1.34-1-2.64,0-3,1.85-5.75,4.62-7.55l2.11,1.23c-2.77,1.8-4.63,4.59-4.62,7.55C165.61,326.91,165.89,327.81,166.65,328.25Z" style="fill:none"/></clipPath><clipPath id="clip-path-39"><path d="M166.12,332.29,164,331.06a5.88,5.88,0,0,0,4.15-.37l2.11,1.23A5.88,5.88,0,0,1,166.12,332.29Z" style="fill:none"/></clipPath></defs><title>flexible_monetization</title><g id="Layer_2" data-name="Layer 2"><g id="Layer_1-2" data-name="Layer 1"><polyline points="87.01 320.58 0.51 270.36 54.24 237.12" style="fill:none;stroke:#b6e8fb;stroke-linecap:round;stroke-linejoin:round;stroke-width:1.02477262470557px"/><polyline points="295.27 288.97 391.48 344.19 300.68 396 181.24 327.02" style="fill:none;stroke:#b6e8fb;stroke-linecap:round;stroke-linejoin:round;stroke-width:1.02477262470557px"/><path d="M334.72,125.82v178L121.77,3.75h0a24.68,24.68,0,0,1,25.42-.45L322.38,104.45A24.68,24.68,0,0,1,334.72,125.82Z" style="fill:#003058"/><polygon points="322.14 119.43 322.14 311.7 121.77 196.03 121.77 3.75 322.14 119.43" style="fill:url(#Blue_Gradation)"/><polygon points="304.87 128.68 304.87 280.13 136.25 182.79 136.25 31.34 304.87 128.68" style="fill:#003058"/><polygon points="266.28 141.79 266.28 304.87 90.28 203.34 90.28 40.27 266.28 141.79" style="fill:#00a7e1"/><line x1="170.77" y1="207.29" x2="170.77" y2="316.74" style="fill:none;stroke:#b6e8fb;stroke-linecap:round;stroke-linejoin:round;stroke-width:1.02477262470557px"/><polygon points="129.12 90.06 129.12 116.89 75.38 84.74 75.38 57.9 129.12 90.06" style="fill:none;stroke:#b6e8fb;stroke-miterlimit:10;stroke-width:1.31966952201571px"/><polygon points="121.9 96.7 121.9 136.76 68.16 104.61 68.16 64.55 121.9 96.7" style="fill:#a8c628"/><line x1="231.17" y1="162.24" x2="280.72" y2="190.84" style="fill:none;stroke:#a8c628;stroke-linecap:round;stroke-linejoin:round;stroke-width:2.04954524941114px"/><line x1="231.17" y1="190.84" x2="261.92" y2="208.6" style="fill:none;stroke:#a8c628;stroke-linecap:round;stroke-linejoin:round;stroke-width:2.04954524941114px"/><line x1="231.17" y1="204.41" x2="245.67" y2="212.78" style="fill:none;stroke:#a8c628;stroke-linecap:round;stroke-linejoin:round;stroke-width:2.04954524941114px"/><line x1="229.83" y1="220.02" x2="257.54" y2="236.02" style="fill:none;stroke:#a8c628;stroke-linecap:round;stroke-linejoin:round;stroke-width:2.04954524941114px"/><line x1="231.17" y1="178.17" x2="279.93" y2="206.32" style="fill:none;stroke:#a8c628;stroke-linecap:round;stroke-linejoin:round;stroke-width:2.04954524941114px"/><path d="M310.31,334" style="fill:none;stroke:#003058;stroke-linecap:round;stroke-linejoin:round;stroke-width:3.95900856604713px"/><polygon points="320.08 230.52 320.08 343.82 408.05 293.03 408.05 179.73 320.08 230.52" style="fill:#003058"/><polyline points="320.08 230.52 408.05 179.73 408.05 162 288.52 231 288.52 248.74 320.08 230.52" style="fill:#b6e8fb"/><polygon points="320.08 230.52 288.52 248.74 288.52 362.04 320.08 343.82 320.08 230.52" style="fill:#003058"/><polygon points="320.08 230.52 288.52 248.74 288.52 362.04 320.08 343.82 320.08 230.52" style="fill:#b6e8fb;opacity:0.2"/><path d="M298.06,236a1.13,1.13,0,0,0-1.06-1.67,2.64,2.64,0,0,0-2.28,1.67,1.13,1.13,0,0,0,1.06,1.67A2.64,2.64,0,0,0,298.06,236Z" style="fill:#003058"/><path d="M305.73,231.59a1.13,1.13,0,0,0-1.06-1.67,2.64,2.64,0,0,0-2.28,1.67,1.13,1.13,0,0,0,1.06,1.67A2.64,2.64,0,0,0,305.73,231.59Z" style="fill:#003058"/><path d="M313.4,226.92a1.13,1.13,0,0,0-1.06-1.67,2.64,2.64,0,0,0-2.28,1.67,1.13,1.13,0,0,0,1.06,1.67A2.64,2.64,0,0,0,313.4,226.92Z" style="fill:#003058"/><polygon points="397 273.66 331.28 311.6 331.28 251.19 397 213.25 397 273.66" style="fill:#00a7e1"/><polygon points="397 205.01 331.28 242.95 331.28 235.08 397 197.15 397 205.01" style="fill:#b6e8fb;opacity:0.2"/><polygon points="391.82 309.91 347.55 335.47 347.55 313.84 391.82 288.28 391.82 309.91" style="fill:#9e79bb"/><path d="M355.31,321.12v-.59l.57-.32a2.63,2.63,0,0,1,0-.32,2.08,2.08,0,0,1,0-.28l-.57.32v-.59l.63-.36a5.52,5.52,0,0,1,2.79-3.86,3.28,3.28,0,0,1,1.61-.5V316a2,2,0,0,0-1.38.34,2.08,2.08,0,0,0-1.11,1.57l1.32-.75v.59l-1.38.79a2.23,2.23,0,0,0,0,.28,2.75,2.75,0,0,0,0,.32l1.38-.79v.59l-1.32.75c.16.59.52.61,1.11.27a5,5,0,0,0,1.38-1.23v1.36a6.22,6.22,0,0,1-1.61,1.33c-1.42.81-2.49.7-2.79-.65Z" style="fill:#fff"/><path d="M361.3,316a6.88,6.88,0,0,1,3.3-5.88c1.88-1.07,3.3-.4,3.3,2.11a6.9,6.9,0,0,1-3.3,5.9C362.71,319.21,361.3,318.53,361.3,316Zm4.56-2.6c0-1.77-.44-2.23-1.26-1.76s-1.26,1.42-1.26,3.19.44,2.24,1.26,1.77S365.86,315.18,365.86,313.4Z" style="fill:#fff"/><path d="M368.75,315.55v-1.89l1.88-1.07v1.88Z" style="fill:#fff"/><path d="M374.24,304.62c1.31-.75,3-1.11,3,1.84a7.19,7.19,0,0,1-3.51,6.41,3.85,3.85,0,0,1-2,.6v-1.42a3.5,3.5,0,0,0,1.7-.46,3.32,3.32,0,0,0,1.78-3.05,4.68,4.68,0,0,1-1.58,1.57c-1.41.8-2.36.33-2.36-1.18A5.5,5.5,0,0,1,374.24,304.62Zm1.08,2c0-.84-.42-1.13-1-.79a2.19,2.19,0,0,0-1,1.86c0,.73.34,1.09,1,.73A2.09,2.09,0,0,0,375.32,306.67Z" style="fill:#fff"/><path d="M381.13,300.69c1.31-.74,3-1.11,3,1.84a7.19,7.19,0,0,1-3.5,6.41,3.86,3.86,0,0,1-2,.6v-1.42a3.45,3.45,0,0,0,1.7-.46,3.32,3.32,0,0,0,1.78-3.05,4.71,4.71,0,0,1-1.58,1.57c-1.41.8-2.36.33-2.36-1.18A5.51,5.51,0,0,1,381.13,300.69Zm1.08,2c0-.84-.42-1.13-1-.79a2.18,2.18,0,0,0-1,1.86c0,.73.34,1.09,1,.73A2.1,2.1,0,0,0,382.21,302.74Z" style="fill:#fff"/><path d="M381.52,236.52l1.67,3.38-25.93,44.15-2.72-1.31,23.08-45.52,3.9-.7m1.05-1.93-6,1.09-24.31,47.95,5.62,2.7,27.31-46.51-2.58-5.24Z" style="fill:#003058"/><polygon points="359.78 285.36 351.95 281.59 349.12 286.78 356.94 290.54 359.78 285.36" style="fill:#003058"/><polygon points="370.14 276.39 353.66 268.46 351.87 271.73 368.35 279.66 370.14 276.39" style="fill:#003058"/><polygon points="354.44 286.07 382.04 235.57 376.4 236.85 352.49 285.13 354.44 286.07" style="fill:#003058"/><line x1="311.52" y1="249.3" x2="297.02" y2="257.67" style="fill:none;stroke:#a8c628;stroke-linecap:round;stroke-linejoin:round;stroke-width:2.04954524941114px"/><line x1="307.84" y1="262.43" x2="297.02" y2="268.67" style="fill:none;stroke:#a8c628;stroke-linecap:round;stroke-linejoin:round;stroke-width:2.04954524941114px"/><line x1="311.52" y1="271.31" x2="297.02" y2="279.68" style="fill:none;stroke:#a8c628;stroke-linecap:round;stroke-linejoin:round;stroke-width:2.04954524941114px"/><line x1="305.84" y1="285.59" x2="297.02" y2="290.68" style="fill:none;stroke:#a8c628;stroke-linecap:round;stroke-linejoin:round;stroke-width:2.04954524941114px"/><circle cx="170.77" cy="172.55" r="45.74" style="fill:none;stroke:#b6e8fb;stroke-miterlimit:10"/><ellipse cx="170.77" cy="172.55" rx="39.44" ry="45.74" style="fill:none;stroke:#b6e8fb;stroke-miterlimit:10"/><ellipse cx="170.77" cy="172.55" rx="25.11" ry="45.74" style="fill:none;stroke:#b6e8fb;stroke-miterlimit:10"/><path d="M125,172.55c0,12.74,20.48,23.07,45.74,23.07s45.74-10.33,45.74-23.07" style="fill:none;stroke:#b6e8fb;stroke-miterlimit:10"/><path d="M128.44,154.38c0,11.79,18.95,21.35,42.33,21.35s42.33-9.56,42.33-21.35" style="fill:none;stroke:#b6e8fb;stroke-miterlimit:10"/><path d="M138.4,204.87s0,0,0,0c7.38,4.94,19.12,8.14,32.34,8.14s25-3.2,32.34-8.14c0,0,0,0,0,0" style="fill:none;stroke:#b6e8fb;stroke-miterlimit:10"/><ellipse cx="170.77" cy="140.02" rx="25.11" ry="12.66" style="fill:none;stroke:#b6e8fb;stroke-miterlimit:10"/><line x1="170.77" y1="126.81" x2="170.77" y2="218.29" style="fill:none;stroke:#b6e8fb;stroke-miterlimit:10"/><polyline points="124.06 164.59 78.77 139.25 78.77 214.5" style="fill:none;stroke:#b6e8fb;stroke-linecap:round;stroke-linejoin:round;stroke-width:1.02477262470557px"/><path d="M100.52,242.39,51.9,214.31a16.12,16.12,0,0,1-8.06-14V176.81l64.75,37.38v23.54A5.37,5.37,0,0,1,100.52,242.39Z" style="fill:#989696"/><path d="M51.9,162.29l48.63,28.07a16.12,16.12,0,0,1,8.06,14h0L43.84,166.94h0A5.37,5.37,0,0,1,51.9,162.29Z" style="fill:#989696"/><polygon points="108.58 204.32 108.58 214.02 43.84 176.64 43.84 166.94 108.58 204.32" style="fill:#989696"/><line x1="68.39" y1="199.66" x2="60.93" y2="195.35" style="fill:#989696"/><line x1="57.2" y1="193.2" x2="49.74" y2="188.89" style="fill:#989696"/><path d="M98.86,244,50.24,216a16.12,16.12,0,0,1-8.06-14V178.47l64.75,37.38v23.54A5.37,5.37,0,0,1,98.86,244Z" style="fill:#dad9d9"/><path d="M50.24,163.95,98.86,192a16.12,16.12,0,0,1,8.06,14h0L42.18,168.6h0A5.37,5.37,0,0,1,50.24,163.95Z" style="fill:#dad9d9"/><polygon points="106.92 205.98 106.92 215.68 42.18 178.3 42.18 168.6 106.92 205.98" style="fill:#9e79bb"/><line x1="66.73" y1="201.32" x2="59.27" y2="197.01" style="fill:none;stroke:#003058;stroke-linecap:round;stroke-linejoin:round;stroke-width:0.713254534616519px"/><line x1="55.54" y1="194.86" x2="48.08" y2="190.55" style="fill:none;stroke:#003058;stroke-linecap:round;stroke-linejoin:round;stroke-width:0.713254534616519px"/><path d="M69,259,20.42,231a16.12,16.12,0,0,1-8.06-14V193.47l64.75,37.38v23.54A5.37,5.37,0,0,1,69,259Z" style="fill:#989696"/><path d="M20.42,178.95,69,207a16.12,16.12,0,0,1,8.06,14h0L12.36,183.6h0A5.37,5.37,0,0,1,20.42,178.95Z" style="fill:#989696"/><polygon points="77.11 220.98 77.11 230.68 12.36 193.3 12.36 183.6 77.11 220.98" style="fill:#989696"/><line x1="36.91" y1="216.32" x2="29.45" y2="212.01" style="fill:#989696"/><line x1="25.72" y1="209.86" x2="18.26" y2="205.55" style="fill:#989696"/><path d="M67.38,260.71,18.76,232.64a16.12,16.12,0,0,1-8.06-14V195.13l64.75,37.38v23.54A5.37,5.37,0,0,1,67.38,260.71Z" style="fill:#dad9d9"/><path d="M18.76,180.61l48.63,28.07a16.12,16.12,0,0,1,8.06,14h0L10.7,185.26h0A5.37,5.37,0,0,1,18.76,180.61Z" style="fill:#dad9d9"/><polygon points="75.44 222.64 75.44 232.34 10.7 194.96 10.7 185.26 75.44 222.64" style="fill:#9e79bb"/><line x1="35.25" y1="217.98" x2="27.79" y2="213.67" style="fill:none;stroke:#003058;stroke-linecap:round;stroke-linejoin:round;stroke-width:0.713254534616519px"/><line x1="24.06" y1="211.52" x2="16.6" y2="207.21" style="fill:none;stroke:#003058;stroke-linecap:round;stroke-linejoin:round;stroke-width:0.713254534616519px"/><path d="M88.17,375.27A4.87,4.87,0,0,1,85.79,371l.89-51.38.13-9.67.06-4.89a12.13,12.13,0,0,1,6.2-10.42l2.32-1.3,7.69-4.31,96.85-54.15a11,11,0,0,1,11,.14l4.76,2.83,1.51.91L102.93,300.92l-1.58.89a12.13,12.13,0,0,0-6.2,10.42l0,2.67,1.61,65.59L94,378.77Z" style="fill:#003058"/><path d="M94.31,376.53a4.36,4.36,0,0,0,6.5,3.86l1.1-.61,89.29-50L214,317a9.73,9.73,0,0,0,5-8.36l.05-4.06.78-59.51,0-2.3A4.26,4.26,0,0,0,213.5,239l-21.28,11.92-89.29,50-1.58.89a12.13,12.13,0,0,0-6.2,10.42l0,2.67-.78,59.51ZM102,370.1l.78-59.51,89.29-50-.78,59.51Z" style="fill:#b6e8fb"/><path d="M212.94,287.33c-2.56,2.61-5.75,2.73-7.13.27s-.42-6.57,2.13-9.18,5.75-2.73,7.13-.27S215.49,284.72,212.94,287.33Z" style="fill:#003058"/><polygon points="102.02 370.1 102.8 310.59 201.4 255.35 200.63 314.86 102.02 370.1" style="fill:#003058"/><line x1="135" y1="344.07" x2="141.1" y2="340.55" style="fill:none;stroke:#003058;stroke-linecap:round;stroke-linejoin:round;stroke-width:0.713254534616519px"/><line x1="144.15" y1="338.79" x2="150.26" y2="335.26" style="fill:none;stroke:#003058;stroke-linecap:round;stroke-linejoin:round;stroke-width:0.713254534616519px"/><polygon points="184.96 344.07 161.3 357.52 161.3 353.58 152.5 364.8 161.3 366.02 161.3 362.08 184.96 348.64 184.96 344.07" style="fill:#a8c628"/><polygon points="129.18 311.5 152.84 298.05 152.84 301.99 161.64 290.77 152.84 289.55 152.84 293.49 129.18 306.93 129.18 311.5" style="fill:#a8c628"/><g style="isolation:isolate"><polygon points="163.98 330 161.87 328.77 180.05 318.27 182.16 319.5 163.98 330" style="fill:#5b6c16"/><polygon points="163.98 329.19 161.87 327.96 179.34 317.87 181.45 319.1 163.98 329.19" style="fill:#363f0d"/><polygon points="163.98 330 161.87 328.77 161.87 327.96 163.98 329.19 163.98 330" style="fill:#465111"/><polygon points="182.16 319.5 180.05 318.27 179.99 295.22 182.1 296.45 182.16 319.5" style="fill:#768b1c"/><polygon points="181.45 319.1 179.34 317.87 179.28 296.45 181.39 297.68 181.45 319.1" style="fill:#465111"/><polygon points="159.41 332.04 157.3 330.81 158.5 330.12 160.62 331.35 159.41 332.04" style="fill:#5b6c16"/><polygon points="160.62 331.35 158.5 330.12 158.49 327.64 160.61 328.87 160.62 331.35" style="fill:#768b1c"/><polygon points="159.41 332.04 157.3 330.81 157.29 328.36 159.41 329.59 159.41 332.04" style="fill:#465111"/><polygon points="155.72 334.77 153.61 333.54 153.6 332.73 155.72 333.96 155.72 334.77" style="fill:#768b1c"/><g style="isolation:isolate"><g style="clip-path:url(#clip-path)"><g style="isolation:isolate"><path d="M160.6,325.72l-2.11-1.23a4,4,0,0,0,.35-.31L161,325.4a4,4,0,0,1-.35.31" style="fill:#363f0d"/><path d="M161,325.4l-2.11-1.23.24-.26,2.11,1.23-.24.26" style="fill:#38410d"/><path d="M161.19,325.14l-2.11-1.23.18-.24,2.11,1.23-.18.24" style="fill:#3a430e"/><path d="M161.38,324.9l-2.11-1.23.16-.25,2.11,1.23-.16.25" style="fill:#3c460e"/><path d="M161.53,324.65l-2.11-1.23a3.13,3.13,0,0,0,.15-.29l2.11,1.23a3.13,3.13,0,0,1-.15.29" style="fill:#3e480f"/><path d="M161.68,324.35l-2.11-1.23a2.71,2.71,0,0,0,.23-1.09,1.42,1.42,0,0,0,0-.22L161.9,323a1.42,1.42,0,0,1,0,.22,2.71,2.71,0,0,1-.23,1.09" style="fill:#404a0f"/><path d="M161.9,323l-2.11-1.23a1,1,0,0,0,0-.19l2.11,1.23a1,1,0,0,1,0,.19" style="fill:#3e480f"/><path d="M161.85,322.85l-2.11-1.23a.7.7,0,0,0-.07-.13l2.11,1.23a.7.7,0,0,1,.07.13" style="fill:#3c460e"/><path d="M161.79,322.72l-2.11-1.23-.09-.11,2.11,1.23.09.11" style="fill:#3a430e"/><path d="M161.7,322.61l-2.11-1.23-.12-.09,2.11,1.23.12.09" style="fill:#38410d"/></g></g></g><g style="isolation:isolate"><g style="clip-path:url(#clip-path-2)"><g style="isolation:isolate"><path d="M160.61,328.87l-2.11-1.23.58-.42,2.11,1.23-.58.42" style="fill:#576715"/><path d="M161.18,328.45l-2.11-1.23a13.24,13.24,0,0,0,1.23-1.08l2.11,1.23a13.24,13.24,0,0,1-1.23,1.08" style="fill:#5b6b16"/><path d="M162.41,327.37l-2.11-1.23c.26-.26.51-.53.75-.82l2.11,1.23c-.24.28-.48.56-.75.82" style="fill:#5e6f16"/><path d="M163.16,326.55,161,325.32q.29-.35.55-.73l2.11,1.23q-.26.38-.55.73" style="fill:#617317"/><path d="M163.71,325.82l-2.11-1.23q.25-.35.46-.73l2.11,1.23q-.21.38-.46.73" style="fill:#657718"/><path d="M164.17,325.09l-2.11-1.23a9.16,9.16,0,0,0,.43-.86l2.11,1.23a9.16,9.16,0,0,1-.43.86" style="fill:#687b19"/><path d="M164.6,324.23,162.49,323a8.54,8.54,0,0,0,.72-3.47,6.7,6.7,0,0,0-.07-1l2.11,1.23a6.7,6.7,0,0,1,.07,1,8.54,8.54,0,0,1-.72,3.47" style="fill:#6c7f1a"/><path d="M165.25,319.74l-2.11-1.23a3.8,3.8,0,0,0-.19-.76l2.11,1.23a3.8,3.8,0,0,1,.19.76" style="fill:#687b19"/><path d="M165.06,319l-2.11-1.23a2.49,2.49,0,0,0-.23-.47l2.11,1.23a2.49,2.49,0,0,1,.23.47" style="fill:#657718"/><path d="M164.83,318.52l-2.11-1.23a2,2,0,0,0-.29-.35l2.11,1.23a2,2,0,0,1,.29.35" style="fill:#617317"/><path d="M164.54,318.16l-2.11-1.23a1.86,1.86,0,0,0-.36-.27l2.11,1.23a1.86,1.86,0,0,1,.36.27" style="fill:#5e6f16"/></g></g></g><polygon points="160.6 325.72 158.49 324.49 158.48 321.25 160.59 322.47 160.6 325.72" style="fill:#768b1c"/><g style="isolation:isolate"><g style="clip-path:url(#clip-path-3)"><g style="isolation:isolate"><path d="M160.59,322.47l-2.11-1.23a1.41,1.41,0,0,1,1,.05l2.11,1.23a1.41,1.41,0,0,0-1-.05" style="fill:#576715"/></g></g></g><g style="isolation:isolate"><g style="clip-path:url(#clip-path-4)"><g style="isolation:isolate"><path d="M154.47,330.44l-2.11-1.23c1,.32,2.66.39,4.93-.84l2.11,1.23c-2.28,1.23-4,1.16-4.93.84" style="fill:#576715"/></g></g></g><polygon points="163.81 314.52 161.7 313.29 162.42 309.94 164.54 311.16 163.81 314.52" style="fill:#778c1c"/><g style="isolation:isolate"><g style="clip-path:url(#clip-path-5)"><g style="isolation:isolate"><path d="M160.58,317.94l-2.11-1.23c1.66-.47,2.83-.49,3.6,0l2.11,1.23c-.77-.45-1.94-.42-3.6,0" style="fill:#343c0c"/></g></g></g><g style="isolation:isolate"><g style="clip-path:url(#clip-path-6)"><g style="isolation:isolate"><path d="M160.57,315.09l-2.11-1.23a6.07,6.07,0,0,1,3.24-.57l2.11,1.23a6.07,6.07,0,0,0-3.24.57" style="fill:#576715"/></g></g></g><polygon points="160.58 317.94 158.46 316.71 158.46 313.86 160.57 315.09 160.58 317.94" style="fill:#768b1c"/><polygon points="159.4 326.49 157.28 325.26 157.28 321.54 159.39 322.77 159.4 326.49" style="fill:#465111"/><g style="isolation:isolate"><g style="clip-path:url(#clip-path-7)"><g style="isolation:isolate"><path d="M155.78,322.81l-2.11-1.23c.72.42,1.86.42,3.61,0l2.11,1.23c-1.75.47-2.9.46-3.61,0" style="fill:#576715"/></g></g></g><g style="isolation:isolate"><g style="clip-path:url(#clip-path-8)"><g style="isolation:isolate"><path d="M158.39,318.3l-2.11-1.23a1.36,1.36,0,0,0,1,0l2.11,1.23a1.36,1.36,0,0,1-1,0" style="fill:#343c0c"/></g></g></g><polygon points="159.38 318.27 157.26 317.04 157.25 314.53 159.37 315.76 159.38 318.27" style="fill:#465111"/><g style="isolation:isolate"><g style="clip-path:url(#clip-path-9)"><g style="isolation:isolate"><path d="M158.39,318.3l-2.11-1.23-.08-.06,2.11,1.23.08.06" style="fill:#5e6f16"/><path d="M158.31,318.24,156.19,317l-.06-.07,2.11,1.23.06.07" style="fill:#617317"/><path d="M158.25,318.17l-2.11-1.23,0-.1,2.11,1.23,0,.1" style="fill:#657718"/><path d="M158.2,318.07l-2.11-1.23a.77.77,0,0,1,0-.15l2.11,1.23a.77.77,0,0,0,0,.15" style="fill:#687b19"/><path d="M158.16,317.92,156,316.69a1.41,1.41,0,0,1,0-.21l2.11,1.23a1.41,1.41,0,0,0,0,.21" style="fill:#6c7f1a"/></g></g></g><g style="isolation:isolate"><g style="clip-path:url(#clip-path-10)"><g style="isolation:isolate"><path d="M158.15,317.7,156,316.48a1.8,1.8,0,0,1,.16-.73L158.3,317a1.8,1.8,0,0,0-.16.73" style="fill:#6c7f1a"/><path d="M158.3,317l-2.11-1.23.1-.21,2.11,1.23-.1.21" style="fill:#687b19"/><path d="M158.41,316.77l-2.11-1.23.12-.18,2.11,1.23-.12.18" style="fill:#657718"/><path d="M158.52,316.59l-2.11-1.23.14-.19,2.11,1.23-.14.19" style="fill:#617317"/><path d="M158.67,316.4l-2.11-1.23.2-.22,2.11,1.23-.2.22" style="fill:#5e6f16"/><path d="M158.87,316.17l-2.11-1.23a3.81,3.81,0,0,1,.35-.31l2.11,1.23a3.81,3.81,0,0,0-.35.31" style="fill:#5b6b16"/><path d="M159.22,315.86l-2.11-1.23.15-.11,2.11,1.23-.15.11" style="fill:#576715"/></g></g></g><g style="isolation:isolate"><g style="clip-path:url(#clip-path-11)"><g style="isolation:isolate"><path d="M160.56,311.94l-2.11-1.23a6.53,6.53,0,0,1,4-.77l2.11,1.23a6.53,6.53,0,0,0-4,.77" style="fill:#343c0c"/></g></g></g><polygon points="160.56 311.94 158.45 310.71 158.44 308.4 160.55 309.63 160.56 311.94" style="fill:#768b1c"/><g style="isolation:isolate"><g style="clip-path:url(#clip-path-12)"><g style="isolation:isolate"><path d="M155.78,322.81l-2.11-1.23a1.71,1.71,0,0,1-.33-.25l2.11,1.23a1.71,1.71,0,0,0,.33.25" style="fill:#38410d"/><path d="M155.45,322.56l-2.11-1.23a1.77,1.77,0,0,1-.26-.31l2.11,1.23a1.77,1.77,0,0,0,.26.31" style="fill:#3a430e"/><path d="M155.19,322.25,153.07,321a2.22,2.22,0,0,1-.21-.42l2.11,1.23a2.22,2.22,0,0,0,.21.42" style="fill:#3c460e"/><path d="M155,321.83l-2.11-1.23a3.42,3.42,0,0,1-.17-.68l2.11,1.23a3.42,3.42,0,0,0,.17.68" style="fill:#3e480f"/><path d="M154.81,321.15l-2.11-1.23a6.43,6.43,0,0,1-.07-1,7.55,7.55,0,0,1,.65-3l2.11,1.23a7.55,7.55,0,0,0-.65,3,6.43,6.43,0,0,0,.07,1" style="fill:#404a0f"/><path d="M155.39,317.13l-2.11-1.23a8.78,8.78,0,0,1,.41-.82l2.11,1.23a8.78,8.78,0,0,0-.41.82" style="fill:#3e480f"/><path d="M155.81,316.3l-2.11-1.23q.2-.36.44-.7l2.11,1.23q-.24.34-.44.7" style="fill:#3c460e"/><path d="M156.25,315.6l-2.11-1.23q.24-.35.52-.69l2.11,1.23q-.28.34-.52.69" style="fill:#3a430e"/><path d="M156.77,314.91l-2.11-1.23q.32-.39.68-.75l2.11,1.23q-.36.36-.68.75" style="fill:#38410d"/><path d="M157.45,314.16l-2.11-1.23a11.41,11.41,0,0,1,1.05-.93l2.11,1.23a11.41,11.41,0,0,0-1.05.93" style="fill:#363f0d"/><path d="M158.51,313.23,156.39,312q.41-.32.85-.6l2.11,1.23q-.44.29-.85.6" style="fill:#343c0c"/></g></g></g><path d="M160.58,317.94c3.36-1,4.74-.06,4.75,2.81,0,3.61-2.16,6.33-4.72,8.12v2.48l-1.2.69v-2.45c-2.28,1.23-4,1.16-4.93.84l.78-3.58a5.88,5.88,0,0,0,4.15-.37v-3.72c-3.61,1-4.64-.08-4.65-2.59,0-3,1.85-5.76,4.62-7.55v-2.31l1.2-.69v2.31a6.53,6.53,0,0,1,4-.77l-.73,3.36a6.07,6.07,0,0,0-3.24.57Zm0,7.78a3.19,3.19,0,0,0,1.32-2.46c0-.67-.39-1-1.33-.79v3.24m-1.22-7.45v-2.51a2.49,2.49,0,0,0-1.22,1.95c0,.59.27.83,1.23.56" style="fill:#5c6b16"/><path d="M160.59,322.47c.93-.2,1.32.11,1.33.79a3.19,3.19,0,0,1-1.32,2.46Z" style="fill:#9bb625"/><polygon points="154.47 330.44 152.36 329.21 153.14 325.63 155.25 326.86 154.47 330.44" style="fill:#475211"/><g style="isolation:isolate"><g style="clip-path:url(#clip-path-13)"><g style="isolation:isolate"><path d="M155.25,326.86l-2.11-1.23a5.88,5.88,0,0,0,4.15-.37l2.11,1.23a5.88,5.88,0,0,1-4.15.37" style="fill:#343c0c"/></g></g></g><polygon points="163.92 307.76 161.8 306.54 179.28 296.45 181.39 297.68 163.92 307.76" style="fill:#5b6c16"/><path d="M158.15,317.7a2.49,2.49,0,0,1,1.22-1.95v2.51C158.42,318.53,158.15,318.3,158.15,317.7Z" style="fill:#9bb625"/><polygon points="163.92 307.76 161.8 306.54 161.8 305.72 163.92 306.95 163.92 307.76" style="fill:#465111"/><polygon points="163.92 306.95 161.8 305.72 179.99 295.22 182.1 296.45 163.92 306.95" style="fill:#363f0d"/><polygon points="159.36 312.63 157.25 311.4 157.24 309.09 159.35 310.32 159.36 312.63" style="fill:#465111"/><polygon points="159.35 310.32 157.24 309.09 158.44 308.4 160.55 309.63 159.35 310.32" style="fill:#363f0d"/><polygon points="137.54 345.27 135.43 344.04 153.61 333.54 155.72 334.77 137.54 345.27" style="fill:#5b6c16"/><polygon points="138.25 344.04 136.13 342.81 153.6 332.73 155.72 333.96 138.25 344.04" style="fill:#363f0d"/><polygon points="155.66 312.54 153.54 311.31 153.54 310.49 155.66 311.72 155.66 312.54" style="fill:#768b1c"/><polygon points="138.25 344.04 136.13 342.81 136.07 321.39 138.19 322.62 138.25 344.04" style="fill:#768b1c"/><polygon points="138.19 322.62 136.07 321.39 153.54 311.31 155.66 312.54 138.19 322.62" style="fill:#5b6c16"/><polygon points="137.54 345.27 135.43 344.04 135.36 320.99 137.48 322.21 137.54 345.27" style="fill:#465111"/><polygon points="137.48 322.21 135.36 320.99 153.54 310.49 155.66 311.72 137.48 322.21" style="fill:#363f0d"/><path d="M134.84,320.37l50.15-29,.08,29.77-50.15,29Zm47.32-.87-.07-23.05L163.92,307v.81l17.47-10.09.06,21.42L164,329.19V330l18.18-10.5m-26.45,15.27V334L138.25,344l-.06-21.42,17.47-10.09v-.81l-18.18,10.49.07,23.05,18.18-10.49m4.9-3.42v-2.48c2.55-1.79,4.73-4.51,4.72-8.12,0-2.88-1.39-3.77-4.75-2.81v-2.85a6.07,6.07,0,0,1,3.24-.57l.73-3.36a6.53,6.53,0,0,0-4,.77v-2.31l-1.2.69v2.31c-2.77,1.79-4.63,4.59-4.62,7.55,0,2.51,1,3.55,4.65,2.59v3.72a5.88,5.88,0,0,1-4.15.37l-.78,3.58c1,.32,2.66.39,4.93-.84V332l1.2-.69" style="fill:#9bb625"/><polygon points="182.1 296.45 182.16 319.5 163.98 330 163.98 329.19 181.45 319.1 181.39 297.68 163.92 307.76 163.92 306.95 182.1 296.45" style="fill:#5c6b16"/><polygon points="155.66 311.72 155.66 312.54 138.19 322.62 138.25 344.04 155.72 333.96 155.72 334.77 137.54 345.27 137.48 322.21 155.66 311.72" style="fill:#5c6b16"/><polygon points="134.84 320.37 132.73 319.14 182.88 290.19 184.99 291.42 134.84 320.37" style="fill:#5b6c16"/><polygon points="134.93 350.14 132.81 348.91 132.73 319.14 134.84 320.37 134.93 350.14" style="fill:#768b1c"/></g><g style="isolation:isolate"><polygon points="169.42 332.72 167.3 331.49 185.49 320.99 187.6 322.22 169.42 332.72" style="fill:#5b6c16"/><polygon points="169.42 331.91 167.3 330.68 184.78 320.59 186.89 321.82 169.42 331.91" style="fill:#363f0d"/><polygon points="169.42 332.72 167.3 331.49 167.3 330.68 169.42 331.91 169.42 332.72" style="fill:#465111"/><polygon points="187.6 322.22 185.49 320.99 185.42 297.94 187.54 299.17 187.6 322.22" style="fill:#768b1c"/><polygon points="186.89 321.82 184.78 320.59 184.72 299.17 186.83 300.39 186.89 321.82" style="fill:#465111"/><polygon points="164.85 334.76 162.74 333.53 163.94 332.84 166.05 334.07 164.85 334.76" style="fill:#5b6c16"/><polygon points="166.05 334.07 163.94 332.84 163.93 330.36 166.04 331.59 166.05 334.07" style="fill:#768b1c"/><polygon points="164.85 334.76 162.74 333.53 162.73 331.08 164.84 332.31 164.85 334.76" style="fill:#465111"/><polygon points="161.16 337.49 159.04 336.26 159.04 335.45 161.15 336.68 161.16 337.49" style="fill:#768b1c"/><g style="isolation:isolate"><g style="clip-path:url(#clip-path-14)"><g style="isolation:isolate"><path d="M166,328.43l-2.11-1.23a4,4,0,0,0,.35-.31l2.11,1.23a4,4,0,0,1-.35.31" style="fill:#363f0d"/><path d="M166.39,328.12l-2.11-1.23.24-.26,2.11,1.23-.24.26" style="fill:#38410d"/><path d="M166.63,327.86l-2.11-1.23.18-.24,2.11,1.23-.18.24" style="fill:#3a430e"/><path d="M166.81,327.61l-2.11-1.23.16-.25,2.11,1.23-.16.25" style="fill:#3c460e"/><path d="M167,327.36l-2.11-1.23a3.12,3.12,0,0,0,.15-.29l2.11,1.23a3.12,3.12,0,0,1-.15.29" style="fill:#3e480f"/><path d="M167.12,327.07,165,325.84a2.71,2.71,0,0,0,.23-1.09,1.42,1.42,0,0,0,0-.22l2.11,1.23a1.42,1.42,0,0,1,0,.22,2.71,2.71,0,0,1-.23,1.09" style="fill:#404a0f"/><path d="M167.34,325.76l-2.11-1.23a1,1,0,0,0,0-.19l2.11,1.23a1,1,0,0,1,0,.19" style="fill:#3e480f"/><path d="M167.29,325.57l-2.11-1.23a.7.7,0,0,0-.07-.13l2.11,1.23a.7.7,0,0,1,.07.13" style="fill:#3c460e"/><path d="M167.22,325.44l-2.11-1.23-.09-.11,2.11,1.23.09.11" style="fill:#3a430e"/><path d="M167.13,325.33,165,324.1l-.12-.09,2.11,1.23.12.09" style="fill:#38410d"/></g></g></g><g style="isolation:isolate"><g style="clip-path:url(#clip-path-15)"><g style="isolation:isolate"><path d="M166,331.59l-2.11-1.23.57-.42,2.11,1.23-.57.42" style="fill:#576715"/><path d="M166.62,331.17l-2.11-1.23a13.25,13.25,0,0,0,1.23-1.08l2.11,1.23a13.25,13.25,0,0,1-1.23,1.08" style="fill:#5b6b16"/><path d="M167.84,330.09l-2.11-1.23c.26-.26.51-.53.75-.82l2.11,1.23c-.24.28-.49.56-.75.82" style="fill:#5e6f16"/><path d="M168.59,329.27,166.48,328q.29-.35.56-.73l2.11,1.23q-.26.38-.56.73" style="fill:#617317"/><path d="M169.15,328.54,167,327.31q.25-.36.46-.73l2.11,1.23q-.21.38-.46.73" style="fill:#657718"/><path d="M169.61,327.81l-2.11-1.23a9.17,9.17,0,0,0,.43-.86l2.11,1.23a9.17,9.17,0,0,1-.43.86" style="fill:#687b19"/><path d="M170,326.94l-2.11-1.23a8.53,8.53,0,0,0,.72-3.47,6.7,6.7,0,0,0-.07-1l2.11,1.23a6.7,6.7,0,0,1,.07,1,8.53,8.53,0,0,1-.72,3.47" style="fill:#6c7f1a"/><path d="M170.69,322.46l-2.11-1.23a3.8,3.8,0,0,0-.19-.76l2.11,1.23a3.8,3.8,0,0,1,.19.76" style="fill:#687b19"/><path d="M170.49,321.7l-2.11-1.23a2.49,2.49,0,0,0-.23-.47l2.11,1.23a2.49,2.49,0,0,1,.23.47" style="fill:#657718"/><path d="M170.26,321.23,168.15,320a2,2,0,0,0-.29-.35l2.11,1.23a2,2,0,0,1,.29.35" style="fill:#617317"/><path d="M170,320.88l-2.11-1.23a1.86,1.86,0,0,0-.36-.27l2.11,1.23a1.86,1.86,0,0,1,.36.27" style="fill:#5e6f16"/></g></g></g><polygon points="166.03 328.43 163.92 327.2 163.91 323.96 166.03 325.19 166.03 328.43" style="fill:#768b1c"/><g style="isolation:isolate"><g style="clip-path:url(#clip-path-16)"><g style="isolation:isolate"><path d="M166,325.19,163.91,324a1.41,1.41,0,0,1,1,.05l2.11,1.23a1.41,1.41,0,0,0-1-.05" style="fill:#576715"/></g></g></g><g style="isolation:isolate"><g style="clip-path:url(#clip-path-17)"><g style="isolation:isolate"><path d="M159.91,333.15l-2.11-1.23c1,.32,2.66.39,4.93-.84l2.11,1.23c-2.28,1.23-4,1.16-4.93.84" style="fill:#576715"/></g></g></g><polygon points="169.25 317.23 167.13 316 167.86 312.65 169.97 313.88 169.25 317.23" style="fill:#778c1c"/><g style="isolation:isolate"><g style="clip-path:url(#clip-path-18)"><g style="isolation:isolate"><path d="M166,320.66l-2.11-1.23c1.66-.47,2.83-.49,3.6,0l2.11,1.23c-.77-.45-1.94-.42-3.6,0" style="fill:#343c0c"/></g></g></g><g style="isolation:isolate"><g style="clip-path:url(#clip-path-19)"><g style="isolation:isolate"><path d="M166,317.81l-2.11-1.23a6.16,6.16,0,0,1,3.24-.58l2.11,1.23a6.16,6.16,0,0,0-3.24.58" style="fill:#576715"/></g></g></g><polygon points="166.01 320.66 163.9 319.43 163.89 316.58 166 317.81 166.01 320.66" style="fill:#768b1c"/><polygon points="164.84 329.21 162.72 327.98 162.71 324.26 164.82 325.49 164.84 329.21" style="fill:#465111"/><g style="isolation:isolate"><g style="clip-path:url(#clip-path-20)"><g style="isolation:isolate"><path d="M161.21,325.53l-2.11-1.23c.72.42,1.86.42,3.61,0l2.11,1.23c-1.75.47-2.9.46-3.61,0" style="fill:#576715"/></g></g></g><g style="isolation:isolate"><g style="clip-path:url(#clip-path-21)"><g style="isolation:isolate"><path d="M163.82,321l-2.11-1.23a1.36,1.36,0,0,0,1,0l2.11,1.23a1.36,1.36,0,0,1-1,0" style="fill:#343c0c"/></g></g></g><polygon points="164.81 320.98 162.7 319.75 162.69 317.25 164.81 318.48 164.81 320.98" style="fill:#465111"/><g style="isolation:isolate"><g style="clip-path:url(#clip-path-22)"><g style="isolation:isolate"><path d="M163.82,321l-2.11-1.23-.08-.06,2.11,1.23.08.06" style="fill:#5e6f16"/><path d="M163.74,321l-2.11-1.23-.06-.07,2.11,1.23.06.07" style="fill:#617317"/><path d="M163.68,320.88l-2.11-1.23,0-.1,2.11,1.23,0,.1" style="fill:#657718"/><path d="M163.64,320.79l-2.11-1.23a.77.77,0,0,1,0-.15l2.11,1.23a.77.77,0,0,0,0,.15" style="fill:#687b19"/><path d="M163.6,320.63l-2.11-1.23a1.41,1.41,0,0,1,0-.21l2.11,1.23a1.41,1.41,0,0,0,0,.21" style="fill:#6c7f1a"/></g></g></g><g style="isolation:isolate"><g style="clip-path:url(#clip-path-23)"><g style="isolation:isolate"><path d="M163.58,320.42l-2.11-1.23a1.8,1.8,0,0,1,.16-.73l2.11,1.23a1.8,1.8,0,0,0-.16.73" style="fill:#6c7f1a"/><path d="M163.74,319.7l-2.11-1.23.1-.21,2.11,1.23-.1.21" style="fill:#687b19"/><path d="M163.84,319.49l-2.11-1.23.12-.18L164,319.3l-.12.18" style="fill:#657718"/><path d="M164,319.3l-2.11-1.23.14-.19,2.11,1.23-.14.19" style="fill:#617317"/><path d="M164.1,319.11,162,317.89l.2-.22,2.11,1.23-.2.22" style="fill:#5e6f16"/><path d="M164.31,318.89l-2.11-1.23a3.81,3.81,0,0,1,.35-.31l2.11,1.23a3.81,3.81,0,0,0-.35.31" style="fill:#5b6b16"/><path d="M164.66,318.58l-2.11-1.23.15-.11,2.11,1.23-.15.11" style="fill:#576715"/></g></g></g><path d="M163.58,320.42a2.49,2.49,0,0,1,1.22-1.95V321C163.85,321.25,163.58,321,163.58,320.42Z" style="fill:#9bb625"/><g style="isolation:isolate"><g style="clip-path:url(#clip-path-24)"><g style="isolation:isolate"><path d="M166,314.66l-2.11-1.23a6.53,6.53,0,0,1,4-.77l2.11,1.23a6.53,6.53,0,0,0-4,.77" style="fill:#343c0c"/></g></g></g><polygon points="166 314.66 163.88 313.43 163.88 311.12 165.99 312.35 166 314.66" style="fill:#768b1c"/><g style="isolation:isolate"><g style="clip-path:url(#clip-path-25)"><g style="isolation:isolate"><path d="M161.21,325.53l-2.11-1.23a1.71,1.71,0,0,1-.33-.25l2.11,1.23a1.71,1.71,0,0,0,.33.25" style="fill:#38410d"/><path d="M160.88,325.28l-2.11-1.23a1.77,1.77,0,0,1-.26-.31l2.11,1.23a1.77,1.77,0,0,0,.26.31" style="fill:#3a430e"/><path d="M160.62,325l-2.11-1.23a2.22,2.22,0,0,1-.21-.42l2.11,1.23a2.22,2.22,0,0,0,.21.42" style="fill:#3c460e"/><path d="M160.42,324.55l-2.11-1.23a3.42,3.42,0,0,1-.17-.68l2.11,1.23a3.42,3.42,0,0,0,.17.68" style="fill:#3e480f"/><path d="M160.24,323.87l-2.11-1.23a6.43,6.43,0,0,1-.07-1,7.54,7.54,0,0,1,.65-3l2.11,1.23a7.54,7.54,0,0,0-.65,3,6.43,6.43,0,0,0,.07,1" style="fill:#404a0f"/><path d="M160.83,319.85l-2.11-1.23a8.77,8.77,0,0,1,.41-.82l2.11,1.23a8.77,8.77,0,0,0-.41.82" style="fill:#3e480f"/><path d="M161.24,319l-2.11-1.23q.2-.36.44-.7l2.11,1.23q-.24.34-.44.7" style="fill:#3c460e"/><path d="M161.68,318.33l-2.11-1.23q.25-.35.52-.69l2.11,1.23q-.28.34-.52.69" style="fill:#3a430e"/><path d="M162.21,317.63l-2.11-1.23q.32-.39.69-.75l2.11,1.23q-.36.36-.69.75" style="fill:#38410d"/><path d="M162.89,316.88l-2.11-1.23a11.5,11.5,0,0,1,1.06-.93l2.11,1.23a11.5,11.5,0,0,0-1.06.93" style="fill:#363f0d"/><path d="M164,315.95l-2.11-1.23q.4-.31.84-.6l2.11,1.23q-.44.28-.84.6" style="fill:#343c0c"/></g></g></g><path d="M166,320.66c3.36-1,4.74-.06,4.75,2.81,0,3.61-2.17,6.33-4.72,8.12v2.48l-1.2.69v-2.45c-2.28,1.23-4,1.16-4.93.84l.78-3.58a5.88,5.88,0,0,0,4.15-.37v-3.72c-3.61,1-4.64-.08-4.65-2.59,0-3,1.85-5.75,4.62-7.55V313l1.2-.69v2.31a6.53,6.53,0,0,1,4-.77l-.73,3.35a6.16,6.16,0,0,0-3.24.58Zm0,7.78a3.19,3.19,0,0,0,1.32-2.46c0-.67-.39-1-1.33-.78v3.24M164.81,321v-2.51a2.49,2.49,0,0,0-1.22,1.95c0,.59.27.83,1.23.56" style="fill:#5c6b16"/><path d="M166,325.19c.93-.2,1.32.11,1.33.78a3.19,3.19,0,0,1-1.32,2.46Z" style="fill:#9bb625"/><polygon points="159.91 333.15 157.79 331.93 158.57 328.35 160.69 329.57 159.91 333.15" style="fill:#475211"/><g style="isolation:isolate"><g style="clip-path:url(#clip-path-26)"><g style="isolation:isolate"><path d="M160.69,329.58l-2.11-1.23a5.88,5.88,0,0,0,4.15-.37l2.11,1.23a5.88,5.88,0,0,1-4.15.37" style="fill:#343c0c"/></g></g></g><polygon points="169.35 310.48 167.24 309.25 184.72 299.17 186.83 300.39 169.35 310.48" style="fill:#5b6c16"/><polygon points="187.54 299.17 187.6 322.22 169.42 332.72 169.42 331.91 186.89 321.82 186.83 300.39 169.35 310.48 169.35 309.67 187.54 299.17" style="fill:#5c6b16"/><polygon points="169.35 310.48 167.24 309.25 167.24 308.44 169.35 309.67 169.35 310.48" style="fill:#465111"/><polygon points="169.35 309.67 167.24 308.44 185.42 297.94 187.54 299.17 169.35 309.67" style="fill:#363f0d"/><polygon points="164.8 315.35 162.68 314.12 162.68 311.81 164.79 313.04 164.8 315.35" style="fill:#465111"/><polygon points="164.79 313.04 162.68 311.81 163.88 311.12 165.99 312.35 164.79 313.04" style="fill:#363f0d"/><polygon points="142.97 347.99 140.86 346.76 159.04 336.26 161.16 337.49 142.97 347.99" style="fill:#5b6c16"/><polygon points="143.69 346.76 141.57 345.53 159.04 335.45 161.15 336.68 143.69 346.76" style="fill:#363f0d"/><polygon points="161.09 315.25 158.98 314.02 158.98 313.21 161.09 314.44 161.09 315.25" style="fill:#768b1c"/><polygon points="143.69 346.76 141.57 345.53 141.51 324.11 143.63 325.34 143.69 346.76" style="fill:#768b1c"/><polygon points="143.63 325.34 141.51 324.11 158.98 314.02 161.09 315.25 143.63 325.34" style="fill:#5b6c16"/><polygon points="142.97 347.99 140.86 346.76 140.79 323.71 142.91 324.94 142.97 347.99" style="fill:#465111"/><polygon points="142.91 324.94 140.79 323.71 158.98 313.21 161.09 314.44 142.91 324.94" style="fill:#363f0d"/><path d="M140.28,323.09l50.15-29,.08,29.77-50.15,29Zm47.32-.87-.07-23.05-18.18,10.5v.81l17.47-10.09.06,21.42-17.47,10.09v.81l18.18-10.5m-26.45,15.27v-.81l-17.47,10.09-.06-21.42,17.47-10.09v-.81l-18.18,10.5L143,348l18.18-10.5m4.9-3.42v-2.48c2.55-1.79,4.73-4.51,4.72-8.12,0-2.88-1.39-3.77-4.75-2.81v-2.85a6.16,6.16,0,0,1,3.24-.58l.73-3.35a6.53,6.53,0,0,0-4,.77v-2.31l-1.2.69v2.31c-2.77,1.8-4.63,4.59-4.62,7.55,0,2.51,1,3.55,4.65,2.59v3.72a5.88,5.88,0,0,1-4.15.37l-.78,3.58c1,.32,2.66.39,4.93-.84v2.45l1.2-.69" style="fill:#9bb625"/><polygon points="161.09 314.44 161.09 315.25 143.63 325.34 143.69 346.76 161.15 336.68 161.16 337.49 142.97 347.99 142.91 324.94 161.09 314.44" style="fill:#5c6b16"/><polygon points="140.28 323.09 138.17 321.86 188.31 292.91 190.43 294.14 140.28 323.09" style="fill:#5b6c16"/><polygon points="140.36 352.86 138.25 351.63 138.17 321.86 140.28 323.09 140.36 352.86" style="fill:#768b1c"/></g><g style="isolation:isolate"><polygon points="174.85 335.44 172.74 334.21 190.92 323.71 193.04 324.94 174.85 335.44" style="fill:#5b6c16"/><polygon points="174.85 334.62 172.74 333.39 190.21 323.31 192.33 324.54 174.85 334.62" style="fill:#363f0d"/><polygon points="174.85 335.44 172.74 334.21 172.74 333.39 174.85 334.62 174.85 335.44" style="fill:#465111"/><polygon points="193.04 324.94 190.92 323.71 190.86 300.66 192.97 301.89 193.04 324.94" style="fill:#768b1c"/><polygon points="192.33 324.54 190.21 323.31 190.15 301.88 192.27 303.11 192.33 324.54" style="fill:#465111"/><polygon points="170.29 337.48 168.17 336.25 169.37 335.56 171.49 336.79 170.29 337.48" style="fill:#5b6c16"/><polygon points="171.49 336.79 169.37 335.56 169.37 333.08 171.48 334.31 171.49 336.79" style="fill:#768b1c"/><polygon points="170.29 337.48 168.17 336.25 168.17 333.8 170.28 335.03 170.29 337.48" style="fill:#465111"/><polygon points="166.59 340.21 164.48 338.98 164.47 338.17 166.59 339.39 166.59 340.21" style="fill:#768b1c"/><g style="isolation:isolate"><g style="clip-path:url(#clip-path-27)"><g style="isolation:isolate"><path d="M171.47,331.15l-2.11-1.23a4,4,0,0,0,.35-.31l2.11,1.23a4,4,0,0,1-.35.31" style="fill:#363f0d"/><path d="M171.82,330.84l-2.11-1.23.24-.26,2.11,1.23-.24.26" style="fill:#38410d"/><path d="M172.06,330.58,170,329.35l.18-.24,2.11,1.23-.18.24" style="fill:#3a430e"/><path d="M172.25,330.33l-2.11-1.23.16-.25,2.11,1.23-.16.25" style="fill:#3c460e"/><path d="M172.41,330.08l-2.11-1.23a3.13,3.13,0,0,0,.15-.29l2.11,1.23a3.13,3.13,0,0,1-.15.29" style="fill:#3e480f"/><path d="M172.55,329.79l-2.11-1.23a2.71,2.71,0,0,0,.23-1.09,1.42,1.42,0,0,0,0-.22l2.11,1.23a1.42,1.42,0,0,1,0,.22,2.71,2.71,0,0,1-.23,1.09" style="fill:#404a0f"/><path d="M172.77,328.48l-2.11-1.23a1,1,0,0,0,0-.19l2.11,1.23a1,1,0,0,1,0,.19" style="fill:#3e480f"/><path d="M172.72,328.29l-2.11-1.23a.7.7,0,0,0-.07-.13l2.11,1.23a.7.7,0,0,1,.07.13" style="fill:#3c460e"/><path d="M172.66,328.16l-2.11-1.23-.09-.11,2.11,1.23.09.11" style="fill:#3a430e"/><path d="M172.57,328l-2.11-1.23-.12-.09,2.11,1.23.12.09" style="fill:#38410d"/></g></g></g><g style="isolation:isolate"><g style="clip-path:url(#clip-path-28)"><g style="isolation:isolate"><path d="M171.48,334.31l-2.11-1.23.58-.42,2.11,1.23-.58.42" style="fill:#576715"/><path d="M172.06,333.88l-2.11-1.23a13.24,13.24,0,0,0,1.23-1.08l2.11,1.23a13.24,13.24,0,0,1-1.23,1.08" style="fill:#5b6b16"/><path d="M173.28,332.8l-2.11-1.23c.26-.26.51-.53.75-.82L174,332c-.24.28-.48.56-.75.82" style="fill:#5e6f16"/><path d="M174,332l-2.11-1.23q.29-.35.55-.73l2.11,1.23q-.26.38-.55.73" style="fill:#617317"/><path d="M174.58,331.26,172.47,330q.25-.35.46-.73l2.11,1.23q-.21.38-.46.73" style="fill:#657718"/><path d="M175,330.52l-2.11-1.23a9.16,9.16,0,0,0,.43-.86l2.11,1.23a9.16,9.16,0,0,1-.43.86" style="fill:#687b19"/><path d="M175.48,329.66l-2.11-1.23a8.54,8.54,0,0,0,.72-3.47,6.7,6.7,0,0,0-.07-1l2.11,1.23a6.7,6.7,0,0,1,.07,1,8.54,8.54,0,0,1-.72,3.47" style="fill:#6c7f1a"/><path d="M176.12,325.18,174,324a3.8,3.8,0,0,0-.19-.76l2.11,1.23a3.8,3.8,0,0,1,.19.76" style="fill:#687b19"/><path d="M175.93,324.42l-2.11-1.23a2.49,2.49,0,0,0-.23-.47L175.7,324a2.49,2.49,0,0,1,.23.47" style="fill:#657718"/><path d="M175.7,324l-2.11-1.23a2,2,0,0,0-.29-.35l2.11,1.23a2,2,0,0,1,.29.35" style="fill:#617317"/><path d="M175.41,323.6l-2.11-1.23a1.86,1.86,0,0,0-.36-.27l2.11,1.23a1.86,1.86,0,0,1,.36.27" style="fill:#5e6f16"/></g></g></g><polygon points="171.47 331.15 169.36 329.92 169.35 326.68 171.46 327.91 171.47 331.15" style="fill:#768b1c"/><g style="isolation:isolate"><g style="clip-path:url(#clip-path-29)"><g style="isolation:isolate"><path d="M171.46,327.91l-2.11-1.23a1.41,1.41,0,0,1,1,.05l2.11,1.23a1.41,1.41,0,0,0-1-.05" style="fill:#576715"/></g></g></g><g style="isolation:isolate"><g style="clip-path:url(#clip-path-30)"><g style="isolation:isolate"><path d="M165.35,335.87l-2.11-1.23c1,.32,2.66.39,4.93-.84l2.11,1.23c-2.28,1.23-4,1.16-4.93.84" style="fill:#576715"/></g></g></g><polygon points="174.68 319.95 172.57 318.72 173.29 315.37 175.41 316.6 174.68 319.95" style="fill:#778c1c"/><g style="isolation:isolate"><g style="clip-path:url(#clip-path-31)"><g style="isolation:isolate"><path d="M171.45,323.38l-2.11-1.23c1.66-.47,2.83-.49,3.6,0l2.11,1.23c-.77-.45-1.94-.42-3.6,0" style="fill:#343c0c"/></g></g></g><g style="isolation:isolate"><g style="clip-path:url(#clip-path-32)"><g style="isolation:isolate"><path d="M171.44,320.53l-2.11-1.23a6.16,6.16,0,0,1,3.24-.58l2.11,1.23a6.16,6.16,0,0,0-3.24.58" style="fill:#576715"/></g></g></g><polygon points="171.45 323.38 169.34 322.15 169.33 319.3 171.44 320.53 171.45 323.38" style="fill:#768b1c"/><polygon points="170.27 331.93 168.16 330.7 168.15 326.98 170.26 328.21 170.27 331.93" style="fill:#465111"/><g style="isolation:isolate"><g style="clip-path:url(#clip-path-33)"><g style="isolation:isolate"><path d="M166.65,328.25,164.53,327c.72.42,1.86.42,3.61,0l2.11,1.23c-1.75.47-2.9.46-3.61,0" style="fill:#576715"/></g></g></g><g style="isolation:isolate"><g style="clip-path:url(#clip-path-34)"><g style="isolation:isolate"><path d="M169.26,323.73l-2.11-1.23a1.36,1.36,0,0,0,1,0l2.11,1.23a1.36,1.36,0,0,1-1,0" style="fill:#343c0c"/></g></g></g><polygon points="170.25 323.7 168.13 322.47 168.13 319.96 170.24 321.19 170.25 323.7" style="fill:#465111"/><g style="isolation:isolate"><g style="clip-path:url(#clip-path-35)"><g style="isolation:isolate"><path d="M169.26,323.73l-2.11-1.23-.08-.06,2.11,1.23.08.06" style="fill:#5e6f16"/><path d="M169.18,323.67l-2.11-1.23-.06-.07,2.11,1.23.06.07" style="fill:#617317"/><path d="M169.12,323.6,167,322.37l0-.1,2.11,1.23,0,.1" style="fill:#657718"/><path d="M169.07,323.5,167,322.27a.77.77,0,0,1,0-.15l2.11,1.23a.77.77,0,0,0,0,.15" style="fill:#687b19"/><path d="M169,323.35l-2.11-1.23a1.39,1.39,0,0,1,0-.21l2.11,1.23a1.39,1.39,0,0,0,0,.21" style="fill:#6c7f1a"/></g></g></g><g style="isolation:isolate"><g style="clip-path:url(#clip-path-36)"><g style="isolation:isolate"><path d="M169,323.14l-2.11-1.23a1.8,1.8,0,0,1,.16-.73l2.11,1.23a1.8,1.8,0,0,0-.16.73" style="fill:#6c7f1a"/><path d="M169.18,322.41l-2.11-1.23.1-.21,2.11,1.23-.1.21" style="fill:#687b19"/><path d="M169.28,322.21,167.17,321l.12-.18L169.4,322l-.12.18" style="fill:#657718"/><path d="M169.4,322l-2.11-1.23.14-.19,2.11,1.23-.14.19" style="fill:#617317"/><path d="M169.54,321.83l-2.11-1.23.2-.22,2.11,1.23-.2.22" style="fill:#5e6f16"/><path d="M169.74,321.61l-2.11-1.23a3.81,3.81,0,0,1,.35-.31l2.11,1.23a3.81,3.81,0,0,0-.35.31" style="fill:#5b6b16"/><path d="M170.1,321.3,168,320.07l.15-.11,2.11,1.23-.15.11" style="fill:#576715"/></g></g></g><path d="M169,323.14a2.49,2.49,0,0,1,1.22-1.95v2.51C169.29,324,169,323.73,169,323.14Z" style="fill:#9bb625"/><g style="isolation:isolate"><g style="clip-path:url(#clip-path-37)"><g style="isolation:isolate"><path d="M171.43,317.37l-2.11-1.23a6.53,6.53,0,0,1,4-.77l2.11,1.23a6.53,6.53,0,0,0-4,.77" style="fill:#343c0c"/></g></g></g><polygon points="171.43 317.37 169.32 316.14 169.31 313.83 171.43 315.06 171.43 317.37" style="fill:#768b1c"/><g style="isolation:isolate"><g style="clip-path:url(#clip-path-38)"><g style="isolation:isolate"><path d="M166.65,328.25,164.53,327a1.71,1.71,0,0,1-.33-.25l2.11,1.23a1.71,1.71,0,0,0,.33.25" style="fill:#38410d"/><path d="M166.32,328l-2.11-1.23a1.77,1.77,0,0,1-.26-.31l2.11,1.23a1.77,1.77,0,0,0,.26.31" style="fill:#3a430e"/><path d="M166.06,327.69l-2.11-1.23a2.22,2.22,0,0,1-.21-.42l2.11,1.23a2.22,2.22,0,0,0,.21.42" style="fill:#3c460e"/><path d="M165.85,327.27,163.74,326a3.42,3.42,0,0,1-.17-.68l2.11,1.23a3.42,3.42,0,0,0,.17.68" style="fill:#3e480f"/><path d="M165.68,326.59l-2.11-1.23a6.43,6.43,0,0,1-.07-1,7.54,7.54,0,0,1,.65-3l2.11,1.23a7.54,7.54,0,0,0-.65,3,6.43,6.43,0,0,0,.07,1" style="fill:#404a0f"/><path d="M166.26,322.57l-2.11-1.23a8.77,8.77,0,0,1,.41-.82l2.11,1.23a8.77,8.77,0,0,0-.41.82" style="fill:#3e480f"/><path d="M166.68,321.75l-2.11-1.23q.2-.36.44-.7l2.11,1.23q-.24.34-.44.7" style="fill:#3c460e"/><path d="M167.12,321,165,319.81q.25-.35.52-.69l2.11,1.23q-.28.34-.52.69" style="fill:#3a430e"/><path d="M167.64,320.35l-2.11-1.23q.32-.39.69-.75l2.11,1.23q-.36.36-.69.75" style="fill:#38410d"/><path d="M168.33,319.6l-2.11-1.23a11.5,11.5,0,0,1,1.06-.93l2.11,1.23a11.5,11.5,0,0,0-1.06.93" style="fill:#363f0d"/><path d="M169.39,318.67l-2.11-1.23q.4-.31.84-.6l2.11,1.23q-.44.28-.84.6" style="fill:#343c0c"/></g></g></g><path d="M171.45,323.38c3.36-1,4.74-.06,4.75,2.81,0,3.61-2.16,6.33-4.72,8.12v2.48l-1.2.69V335c-2.28,1.23-4,1.16-4.93.84l.78-3.58a5.88,5.88,0,0,0,4.15-.37v-3.72c-3.61,1-4.64-.08-4.65-2.59,0-3,1.85-5.75,4.62-7.55v-2.31l1.2-.69v2.31a6.53,6.53,0,0,1,4-.77l-.73,3.35a6.16,6.16,0,0,0-3.24.58Zm0,7.78a3.19,3.19,0,0,0,1.32-2.46c0-.67-.39-1-1.33-.78v3.24m-1.22-7.45v-2.51a2.49,2.49,0,0,0-1.22,1.95c0,.59.27.83,1.23.56" style="fill:#5c6b16"/><g style="isolation:isolate"><g style="clip-path:url(#clip-path-39)"><g style="isolation:isolate"><path d="M166.12,332.29,164,331.06a5.88,5.88,0,0,0,4.15-.37l2.11,1.23a5.88,5.88,0,0,1-4.15.37" style="fill:#343c0c"/></g></g></g><polygon points="165.35 335.87 163.23 334.64 164.01 331.06 166.12 332.29 165.35 335.87" style="fill:#475211"/><polygon points="174.79 313.2 172.68 311.97 190.15 301.88 192.27 303.11 174.79 313.2" style="fill:#5b6c16"/><polygon points="174.79 313.2 172.68 311.97 172.67 311.16 174.79 312.39 174.79 313.2" style="fill:#465111"/><polygon points="174.79 312.39 172.67 311.16 190.86 300.66 192.97 301.89 174.79 312.39" style="fill:#363f0d"/><polygon points="170.23 318.07 168.12 316.84 168.11 314.53 170.23 315.76 170.23 318.07" style="fill:#465111"/><polygon points="170.23 315.76 168.11 314.53 169.31 313.83 171.43 315.06 170.23 315.76" style="fill:#363f0d"/><polygon points="148.41 350.71 146.29 349.48 164.48 338.98 166.59 340.21 148.41 350.71" style="fill:#5b6c16"/><polygon points="149.12 349.48 147.01 348.25 164.47 338.17 166.59 339.39 149.12 349.48" style="fill:#363f0d"/><polygon points="166.53 317.97 164.41 316.74 164.41 315.93 166.53 317.16 166.53 317.97" style="fill:#768b1c"/><polygon points="149.12 349.48 147.01 348.25 146.95 326.83 149.06 328.06 149.12 349.48" style="fill:#768b1c"/><polygon points="149.06 328.06 146.95 326.83 164.41 316.74 166.53 317.97 149.06 328.06" style="fill:#5b6c16"/><polygon points="148.41 350.71 146.29 349.48 146.23 326.43 148.34 327.65 148.41 350.71" style="fill:#465111"/><polygon points="148.34 327.65 146.23 326.43 164.41 315.93 166.53 317.16 148.34 327.65" style="fill:#363f0d"/><path d="M145.72,325.81l50.15-29,.08,29.77-50.15,29Zm20.88,14.4v-.81l-17.47,10.09-.06-21.42L166.53,318v-.81l-18.18,10.5.07,23.05,18.18-10.5M193,324.94,193,301.89l-18.18,10.5v.81l17.47-10.09.06,21.42-17.47,10.09v.81L193,324.94m-21.55,11.85v-2.48c2.55-1.79,4.73-4.51,4.72-8.12,0-2.88-1.39-3.77-4.75-2.81v-2.85a6.16,6.16,0,0,1,3.24-.58l.73-3.35a6.53,6.53,0,0,0-4,.77v-2.31l-1.2.69v2.31c-2.77,1.8-4.63,4.59-4.62,7.55,0,2.51,1,3.55,4.65,2.59v3.72a5.88,5.88,0,0,1-4.15.37l-.78,3.58c1,.32,2.66.39,4.93-.84v2.45l1.2-.69" style="fill:#9bb625"/><path d="M171.46,327.91c.93-.2,1.32.11,1.33.78a3.19,3.19,0,0,1-1.32,2.46Z" style="fill:#9bb625"/><polygon points="192.97 301.89 193.04 324.94 174.85 335.44 174.85 334.62 192.33 324.54 192.27 303.11 174.79 313.2 174.79 312.39 192.97 301.89" style="fill:#5c6b16"/><polygon points="166.53 317.16 166.53 317.97 149.06 328.06 149.12 349.48 166.59 339.39 166.59 340.21 148.41 350.71 148.34 327.65 166.53 317.16" style="fill:#5c6b16"/><polygon points="145.72 325.81 143.6 324.58 193.75 295.63 195.86 296.86 145.72 325.81" style="fill:#5b6c16"/><polygon points="145.8 355.58 143.69 354.35 143.6 324.58 145.72 325.81 145.8 355.58" style="fill:#768b1c"/></g></g></g></svg>