<svg id="svg3336" xmlns="http://www.w3.org/2000/svg" viewBox="0 0 496.76 113.02"><title>Gartner_logo</title><g id="g3343"><path id="path3345" d="M494.44,36.72,493,53.9h-7c-11.2,0-17,9-17,17.58v38.8H449.12V36.72h18.8l.43,9.18c3.94-6.3,10.85-9.18,19.36-9.18ZM356.81,110.28H336.94V71.39c0-8.14-.7-18.39-12.16-18.39-11,0-15.42,8-15.42,17.23v40.05H289.5V36.72h18.42l.42,9.4c4-6.29,11.3-11.2,22.14-11.2,20,0,26.34,14.3,26.34,29.17Zm-76-17.19-1.39,16.74a51.3,51.3,0,0,1-14.11,1.74c-18.72,0-24.15-8.59-24.15-25.84V16H261V36.72h19.77L279.44,53.9H261V84.24c0,6.92,1.9,10.66,9,10.66a32.45,32.45,0,0,0,10.78-1.81M234.65,36.72,233.12,53.9h-5.4c-11.18,0-16.74,9-16.74,17.58v38.8H191.11V36.72h18.81l.39,9.18c4-6.3,10.88-9.18,19.4-9.18ZM101.5,102.13C88,109.34,74.5,113.5,56.74,113,23.74,112,0,91.51,0,57S24,.5,56.75,0c16.6-.25,31.46,4,43.07,14.2l-14,14.15c-7.18-6.12-17.75-9.7-30.38-9.13-20.61,1-33,15.94-33.31,36.53C21.87,78.07,35.55,93.44,56.93,94c10.06.25,17.27-1.1,23.51-3.9V67.3H58.22l1.5-18.71H101.5ZM440.25,80.5H385.78c1.55,9.4,8.94,15,18.14,15.31,8.94.24,13.95-2.46,20.49-9.09l13,9.89c-9.21,11.35-20.26,15.48-32.86,15.48-22.15,0-38.74-15.49-38.74-38.58s16.51-38.58,37.91-38.58c23.6,0,36.57,14.3,36.57,39.67v5.9ZM420.34,65.11c-.61-9.29-7.57-15.17-17.16-14.79S387.11,57,385.78,65.11Zm-241.74-3v48.17H161.09l-.44-7.26c-5.37,6.66-14.1,9.06-23.08,9.06-13.53,0-26.31-6.67-26.57-22.21-.41-24.42,27.48-26.15,45-26.15h3.5v-1c0-8.07-5.34-12.43-15.41-12.43a29,29,0,0,0-19.59,7.87L113,46.5a49.87,49.87,0,0,1,32.77-11.59c22.79,0,32.83,10.53,32.83,27.19M159.5,78.2h-2.76c-9.41,0-25.93.48-25.87,10.32C131,102.37,159.5,98,159.5,81.26ZM479,101.72a8.11,8.11,0,1,1,0,.35c0-.12,0-.23,0-.35m8.06,9.93a9.94,9.94,0,1,0-.22,0H487m-2.1-9.15h2l3,5h2l-3.25-5a3,3,0,0,0,3-3v-.14c0-2.25-1.33-3.25-4-3.25h-4.34V107.5H485v-5Zm0-1.47V97.5h2.35c1.21,0,2.49.26,2.49,1.68,0,1.75-1.31,1.85-2.77,1.85Z" transform="translate(0 0)" style="fill:#fff"/></g></svg>