<svg id="Layer_1" data-name="Layer 1" xmlns="http://www.w3.org/2000/svg" viewBox="0 0 690.06 51.8"><title>Aquisition_Nurturing</title><path d="M86.41,38.86a9.72,9.72,0,0,1-7.2,2.64H69.45V13h9.76q4.56,0,6.86,2.3a9,9,0,0,1,2.72,4.77,43.22,43.22,0,0,1,.42,6.87v1.52a31.65,31.65,0,0,1-.5,6.13A8.24,8.24,0,0,1,86.41,38.86ZM84.29,17.79a6.26,6.26,0,0,0-2.46-1.58,9.39,9.39,0,0,0-3.14-.5h-6.2V38.78h6.2a9.66,9.66,0,0,0,3.14-.46,6.44,6.44,0,0,0,2.54-1.72,6.14,6.14,0,0,0,1.5-3.53,49.2,49.2,0,0,0,.3-6.15V25.6a21.45,21.45,0,0,0-.44-5.25A6.08,6.08,0,0,0,84.29,17.79Z" style="fill:#fff"/><path d="M95.7,16.14V12.9h3.24v3.24Zm.16,25.36V21.74h2.88V41.5Z" style="fill:#fff"/><path d="M112.3,50.5a9.67,9.67,0,0,1-3.62-.58,10.9,10.9,0,0,1-3.06-2.06L107.5,46a9,9,0,0,0,2.16,1.47,6.28,6.28,0,0,0,2.56.45,4.9,4.9,0,0,0,4.06-1.67A6.68,6.68,0,0,0,117.62,42V38.9a6.2,6.2,0,0,1-2.46,2,8,8,0,0,1-3.06.55,7.38,7.38,0,0,1-2.68-.48,6.93,6.93,0,0,1-2.34-1.56,6.57,6.57,0,0,1-1.62-3.18,19.77,19.77,0,0,1-.52-4.74,20.05,20.05,0,0,1,.5-4.8A6.48,6.48,0,0,1,107,23.58,6.57,6.57,0,0,1,109.38,22a8.52,8.52,0,0,1,5.8.06,6.32,6.32,0,0,1,2.43,2V21.78h2.88V42.06a8.56,8.56,0,0,1-2.2,6.08A7.81,7.81,0,0,1,112.3,50.5Zm.44-26.4q-2.88,0-3.9,2a12,12,0,0,0-1,5.35,12.14,12.14,0,0,0,1,5.38q1,2,3.92,2t3.9-2a12.34,12.34,0,0,0,1-5.4,12.33,12.33,0,0,0-1-5.39Q115.66,24.1,112.74,24.1Z" style="fill:#fff"/><path d="M127.54,16.14V12.9h3.24v3.24Zm.16,25.36V21.74h2.88V41.5Z" style="fill:#fff"/><path d="M143.35,41.5A4.71,4.71,0,0,1,139.61,40a5.57,5.57,0,0,1-1.3-3.81V24.1h-2.48V21.9h2.48V15.74h2.88V21.9h4.2v2.2h-4.2v12q0,2.89,2.68,2.89h1.52V41.5Z" style="fill:#fff"/><path d="M162.27,41.5V39.62a6.91,6.91,0,0,1-2.44,1.61,9.54,9.54,0,0,1-3.24.47,11.36,11.36,0,0,1-3.34-.4,6.16,6.16,0,0,1-2.48-1.64,5.16,5.16,0,0,1-1.22-3.76,5.21,5.21,0,0,1,1.76-4.16,7.49,7.49,0,0,1,5-1.52h5.92V28.34a4.19,4.19,0,0,0-1.17-3.26A5.64,5.64,0,0,0,157.27,24a7.28,7.28,0,0,0-3,.48,5.16,5.16,0,0,0-1.95,1.76l-2-1.8a6.74,6.74,0,0,1,2.86-2.3,11.4,11.4,0,0,1,4.1-.62q7.88,0,7.88,6.57V41.5Zm0-9.12h-5.52q-4.4,0-4.4,3.48t4.52,3.36a11,11,0,0,0,2.52-.24,4.28,4.28,0,0,0,1.94-1.14,4.59,4.59,0,0,0,.94-3.34Z" style="fill:#fff"/><path d="M177.08,41.5a4.74,4.74,0,0,1-3.74-1.42,5.56,5.56,0,0,1-1.26-3.83V13H175V36.14a3.39,3.39,0,0,0,.58,2.18,2.55,2.55,0,0,0,2.06.7h1.56V41.5Z" style="fill:#fff"/><path d="M210.88,41.51,204.4,28.82h-6.84V41.5h-3V13h10.92a8.69,8.69,0,0,1,6.1,2.14,7.45,7.45,0,0,1,2.34,5.78,7.57,7.57,0,0,1-1.68,5,7.81,7.81,0,0,1-4.52,2.6l6.76,13Zm-5.72-25.8h-7.6V26.14h7.6a6.15,6.15,0,0,0,4.14-1.32,4.83,4.83,0,0,0,1.54-3.88,4.87,4.87,0,0,0-1.56-3.88A6,6,0,0,0,205.17,15.7Z" style="fill:#fff"/><path d="M220.09,16.14V12.9h3.24v3.24Zm.16,25.36V21.74h2.88V41.5Z" style="fill:#fff"/><path d="M237,41.5h-2.56l-7.2-19.72h3.11l5.35,15.82,5.43-15.82h3.11Z" style="fill:#fff"/><path d="M250.06,32.38a7.49,7.49,0,0,0,1.5,5,5.32,5.32,0,0,0,4.3,1.77,7,7,0,0,0,2.8-.49A8.18,8.18,0,0,0,261,36.94l2,1.72A11.1,11.1,0,0,1,259.8,41a9.73,9.73,0,0,1-4,.72,8.12,8.12,0,0,1-6.32-2.5q-2.28-2.5-2.28-7.58,0-4.76,2.14-7.42a7.2,7.2,0,0,1,5.94-2.66,7.35,7.35,0,0,1,5.94,2.54,10.5,10.5,0,0,1,2.14,7v1.32Zm9.8-5.44a4.61,4.61,0,0,0-1.8-2.16,5.06,5.06,0,0,0-2.8-.8,5,5,0,0,0-2.78.8,4.33,4.33,0,0,0-1.68,1.86,8.67,8.67,0,0,0-.6,1.82,9.77,9.77,0,0,0-.14,1.76h10.4a11.11,11.11,0,0,0-.1-1.76A8,8,0,0,0,259.86,26.94Z" style="fill:#fff"/><path d="M280.47,25.54a5.17,5.17,0,0,0-1.54-1.12,4.72,4.72,0,0,0-1.86-.32,4.3,4.3,0,0,0-3.42,1.5,5.58,5.58,0,0,0-1.3,3.79V41.5h-2.88V21.78h2.88v2.4a5.59,5.59,0,0,1,2.3-1.92,7.35,7.35,0,0,1,3.22-.72,7.7,7.7,0,0,1,2.58.38,6,6,0,0,1,2.14,1.46Z" style="fill:#fff"/><path d="M313.36,41.52,311.11,35H298.73l-2.34,6.48h-3.24L303.63,13h2.56L316.63,41.5ZM305,17.39l-5.34,15h10.61Z" style="fill:#fff"/><path d="M332.44,50.26V39.14a6.2,6.2,0,0,1-2.46,2,8,8,0,0,1-3.1.56,6.3,6.3,0,0,1-4.64-1.56,7.56,7.56,0,0,1-2.06-3.64,21,21,0,0,1-.5-4.88,21.14,21.14,0,0,1,.5-4.86A6.11,6.11,0,0,1,324.12,22a7.82,7.82,0,0,1,2.73-.48,8.12,8.12,0,0,1,3.13.54,6.27,6.27,0,0,1,2.45,2V21.78h2.88V50.26ZM327.52,24.1q-2.92,0-3.94,2a12.37,12.37,0,0,0-1,5.48,12.52,12.52,0,0,0,1,5.52q1,2,4,2t3.9-2a12.36,12.36,0,0,0,1-5.48,12.53,12.53,0,0,0-1-5.52Q330.44,24.1,327.52,24.1Z" style="fill:#fff"/><path d="M354.93,41.5V39.3a7.75,7.75,0,0,1-10.69.5,7.35,7.35,0,0,1-1.92-5.46V21.78h2.88V33.9a5.49,5.49,0,0,0,1.26,3.9A4.62,4.62,0,0,0,350,39.14a4.79,4.79,0,0,0,3.6-1.36,5.34,5.34,0,0,0,1.32-3.88V21.78h2.88V41.5Z" style="fill:#fff"/><path d="M364.85,16.14V12.9h3.24v3.24ZM365,41.5V21.74h2.88V41.5Z" style="fill:#fff"/><path d="M381.33,41.7a14.29,14.29,0,0,1-4.52-.65,9.58,9.58,0,0,1-3.56-2.16l1.92-1.9a6.57,6.57,0,0,0,2.64,1.71,10.54,10.54,0,0,0,3.48.53,7.32,7.32,0,0,0,3.88-.85,2.87,2.87,0,0,0,1.36-2.6q0-2.58-3.28-2.86L380,32.62a6.2,6.2,0,0,1-4.36-1.41,5,5,0,0,1-1.52-3.89,5.06,5.06,0,0,1,2-4.23,8.34,8.34,0,0,1,5.24-1.55,10.89,10.89,0,0,1,7.08,2.12l-1.88,1.88A8.39,8.39,0,0,0,381.33,24a5.39,5.39,0,0,0-3.28.85,2.85,2.85,0,0,0-1.12,2.42,2.81,2.81,0,0,0,.8,2.13,3.75,3.75,0,0,0,2.64.76l3.16.28a7.78,7.78,0,0,1,4.3,1.46,4.66,4.66,0,0,1,1.5,3.85,5.14,5.14,0,0,1-2.16,4.41A9.72,9.72,0,0,1,381.33,41.7Z" style="fill:#fff"/><path d="M394.82,16.14V12.9h3.24v3.24ZM395,41.5V21.74h2.88V41.5Z" style="fill:#fff"/><path d="M410.62,41.5A4.71,4.71,0,0,1,406.88,40a5.56,5.56,0,0,1-1.3-3.81V24.1H403.1V21.9h2.48V15.74h2.88V21.9h4.2v2.2h-4.2v12q0,2.89,2.68,2.89h1.52V41.5Z" style="fill:#fff"/><path d="M418.22,16.14V12.9h3.24v3.24Zm.16,25.36V21.74h2.88V41.5Z" style="fill:#fff"/><path d="M441.15,39.46a7.64,7.64,0,0,1-2.46,1.66,9,9,0,0,1-6.34,0,8,8,0,0,1-2.64-1.84A6.9,6.9,0,0,1,428,36.16a17.7,17.7,0,0,1-.5-4.54,17.8,17.8,0,0,1,.5-4.5A6.91,6.91,0,0,1,429.71,24a8,8,0,0,1,11.6,0A6.9,6.9,0,0,1,443,27.08a17.7,17.7,0,0,1,.5,4.54,17.8,17.8,0,0,1-.5,4.5A7.43,7.43,0,0,1,441.15,39.46Zm-2-13.92a4.89,4.89,0,0,0-3.6-1.44,4.49,4.49,0,0,0-3.32,1.2,5.37,5.37,0,0,0-1.52,2.78,17.86,17.86,0,0,0-.32,3.54,18.37,18.37,0,0,0,.3,3.62,5.27,5.27,0,0,0,1.52,2.68,5.25,5.25,0,0,0,6.7,0,5.23,5.23,0,0,0,1.5-2.7,18.73,18.73,0,0,0,.3-3.62,18.82,18.82,0,0,0-.3-3.6A4.69,4.69,0,0,0,439.11,25.54Z" style="fill:#fff"/><path d="M462.31,41.5V29.36A5.45,5.45,0,0,0,461,25.45a4.68,4.68,0,0,0-3.56-1.34,4.75,4.75,0,0,0-3.58,1.34,5.4,5.4,0,0,0-1.3,3.91V41.5h-2.88V21.78h2.88v2.16a7.68,7.68,0,0,1,10.66-.48,7.28,7.28,0,0,1,1.94,5.41V41.5Z" style="fill:#fff"/><path d="M501.61,41.46l-2.55-3.13a15.81,15.81,0,0,1-3.4,2.33,10.76,10.76,0,0,1-5,1,9.24,9.24,0,0,1-6.57-2.28,7.83,7.83,0,0,1-2.44-6,7.52,7.52,0,0,1,1.18-4.08,17.6,17.6,0,0,1,5-4.44,25,25,0,0,1-2.32-3.18,5.88,5.88,0,0,1-.76-3,5.64,5.64,0,0,1,1.78-4.26,6.25,6.25,0,0,1,4.5-1.7,6.1,6.1,0,0,1,4.44,1.72,5.74,5.74,0,0,1,1.76,4.28,4.91,4.91,0,0,1-.82,2.84A8.8,8.8,0,0,1,494,23.82l-2.12,1.44L499.21,34a9.39,9.39,0,0,0,1.24-2.76,15.76,15.76,0,0,0,.36-3.76h2.88a17.55,17.55,0,0,1-.62,4.94,10.49,10.49,0,0,1-2,3.78l4.36,5.24ZM489.48,26.83a22.09,22.09,0,0,0-3.72,3,5,5,0,0,0-1.16,3.48,5.4,5.4,0,0,0,1.66,4.1A6,6,0,0,0,490.6,39a9.51,9.51,0,0,0,3.38-.58,11.19,11.19,0,0,0,3.34-2.18ZM491,15.3a3.16,3.16,0,0,0-2.35.92,3.28,3.28,0,0,0-.92,2.41,3.93,3.93,0,0,0,.54,1.93,21.63,21.63,0,0,0,2,2.77l1.5-1a10.23,10.23,0,0,0,1.88-1.67,2.88,2.88,0,0,0,.65-1.91,3.38,3.38,0,0,0-1-2.41A3.15,3.15,0,0,0,491,15.3Z" style="fill:#fff"/><path d="M540.38,41.5,525.25,18.62V41.5h-3V13h2.9l15.1,22.78V13h3V41.5Z" style="fill:#fff"/><path d="M563.38,41.5V39.3a7.75,7.75,0,0,1-10.69.5,7.35,7.35,0,0,1-1.92-5.46V21.78h2.88V33.9a5.49,5.49,0,0,0,1.26,3.9,4.62,4.62,0,0,0,3.54,1.34,4.79,4.79,0,0,0,3.6-1.36,5.34,5.34,0,0,0,1.32-3.88V21.78h2.88V41.5Z" style="fill:#fff"/><path d="M584.47,25.54a5.16,5.16,0,0,0-1.54-1.12,4.72,4.72,0,0,0-1.86-.32,4.3,4.3,0,0,0-3.42,1.5,5.58,5.58,0,0,0-1.3,3.79V41.5h-2.88V21.78h2.88v2.4a5.59,5.59,0,0,1,2.3-1.92,7.36,7.36,0,0,1,3.22-.72,7.7,7.7,0,0,1,2.58.38,6,6,0,0,1,2.14,1.46Z" style="fill:#fff"/><path d="M595.83,41.5A4.71,4.71,0,0,1,592.09,40a5.56,5.56,0,0,1-1.3-3.81V24.1h-2.48V21.9h2.48V15.74h2.88V21.9h4.2v2.2h-4.2v12q0,2.89,2.68,2.89h1.52V41.5Z" style="fill:#fff"/><path d="M616,41.5V39.3a7.75,7.75,0,0,1-10.69.5,7.35,7.35,0,0,1-1.91-5.46V21.78h2.88V33.9a5.49,5.49,0,0,0,1.26,3.9,4.63,4.63,0,0,0,3.54,1.34,4.79,4.79,0,0,0,3.6-1.36A5.34,5.34,0,0,0,616,33.9V21.78h2.88V41.5Z" style="fill:#fff"/><path d="M637.08,25.54a5.16,5.16,0,0,0-1.54-1.12,4.72,4.72,0,0,0-1.86-.32,4.3,4.3,0,0,0-3.42,1.5A5.58,5.58,0,0,0,629,29.4V41.5h-2.88V21.78H629v2.4a5.59,5.59,0,0,1,2.3-1.92,7.36,7.36,0,0,1,3.22-.72,7.7,7.7,0,0,1,2.58.38,6,6,0,0,1,2.14,1.46Z" style="fill:#fff"/><path d="M642.76,16.14V12.9H646v3.24Zm.16,25.36V21.74h2.88V41.5Z" style="fill:#fff"/><path d="M665.65,41.5V29.36a5.45,5.45,0,0,0-1.28-3.91,4.68,4.68,0,0,0-3.56-1.34,4.75,4.75,0,0,0-3.58,1.34,5.4,5.4,0,0,0-1.3,3.91V41.5H653V21.78h2.88v2.16a7.68,7.68,0,0,1,10.66-.48,7.28,7.28,0,0,1,1.94,5.41V41.5Z" style="fill:#fff"/><path d="M681.86,50.5a9.66,9.66,0,0,1-3.62-.58,10.9,10.9,0,0,1-3.06-2.06L677.05,46a9,9,0,0,0,2.16,1.47,6.27,6.27,0,0,0,2.56.45,4.9,4.9,0,0,0,4.06-1.67A6.68,6.68,0,0,0,687.18,42V38.9a6.2,6.2,0,0,1-2.46,2,8,8,0,0,1-3.06.55,7.38,7.38,0,0,1-2.68-.48,6.93,6.93,0,0,1-2.34-1.56A6.55,6.55,0,0,1,675,36.2a19.72,19.72,0,0,1-.52-4.74,20.11,20.11,0,0,1,.5-4.8,6.5,6.5,0,0,1,1.58-3.08A6.57,6.57,0,0,1,678.94,22a8.51,8.51,0,0,1,5.8.06,6.32,6.32,0,0,1,2.43,2V21.78h2.88V42.06a8.56,8.56,0,0,1-2.2,6.08A7.81,7.81,0,0,1,681.86,50.5Zm.44-26.4q-2.88,0-3.9,2a12,12,0,0,0-1,5.35,12.14,12.14,0,0,0,1,5.38q1,2,3.92,2t3.9-2a12.34,12.34,0,0,0,1-5.4,12.33,12.33,0,0,0-1-5.39Q685.22,24.1,682.29,24.1Z" style="fill:#fff"/><rect width="51.8" height="51.8" style="fill:#00a7e1"/><path d="M31.82,36.52a.7.7,0,0,0-.18-1l-3.77-2.6a1.5,1.5,0,0,1-.58-1.1V27.7a.7.7,0,0,0-.7-.7H26a.7.7,0,0,0-.7.7v4.14a1.5,1.5,0,0,1-.58,1.1L21,35.54a.7.7,0,0,0-.18,1l.33.48a.7.7,0,0,0,1,.18l3.63-2.51a1.1,1.1,0,0,1,1.16,0l3.63,2.51a.7.7,0,0,0,1-.18Z" style="fill:#fff"/><path d="M41.33,28.4a2.69,2.69,0,1,1-2.69-2.69A2.69,2.69,0,0,1,41.33,28.4Zm2.61,8.93V34.92a2.21,2.21,0,0,0-1.46-2.17L40,31.88l-1.4,4.75-1.4-4.75-2.45.87a2.21,2.21,0,0,0-1.46,2.17v2.87a.7.7,0,0,0,.7.7h9.21a.7.7,0,0,0,.7-.7h0Z" style="fill:#fff"/><path d="M14,25.71a2.69,2.69,0,1,1-2.69,2.69A2.69,2.69,0,0,1,14,25.71ZM8.66,37.79h0a.7.7,0,0,0,.7.7h9.21a.7.7,0,0,0,.7-.7V34.92a2.21,2.21,0,0,0-1.46-2.17l-2.45-.87L14,36.63l-1.4-4.75-2.45.87a2.21,2.21,0,0,0-1.46,2.17v2.87Z" style="fill:#fff"/><path d="M29,15.5a2.69,2.69,0,1,1-2.69-2.69A2.69,2.69,0,0,1,29,15.5Zm2.61,8.93V22a2.21,2.21,0,0,0-1.46-2.17L27.69,19l-1.4,4.75L24.9,19l-2.45.87A2.21,2.21,0,0,0,21,22v2.87a.7.7,0,0,0,.7.7H30.9a.7.7,0,0,0,.7-.7h0Z" style="fill:#fff"/></svg>