<svg id="Layer_1" data-name="Layer 1" xmlns="http://www.w3.org/2000/svg" viewBox="0 0 680.33 51.8"><title>Channel_Managment</title><rect width="51.8" height="51.8" style="fill:#00a7e1"/><path d="M86.85,38.32A9.72,9.72,0,0,1,79.65,41H69.88V12.45h9.76q4.56,0,6.86,2.3a9,9,0,0,1,2.72,4.77,43.22,43.22,0,0,1,.42,6.87v1.52a31.73,31.73,0,0,1-.5,6.13A8.25,8.25,0,0,1,86.85,38.32ZM84.73,17.25a6.26,6.26,0,0,0-2.46-1.58,9.39,9.39,0,0,0-3.14-.5h-6.2V38.25h6.2a9.66,9.66,0,0,0,3.14-.46,6.44,6.44,0,0,0,2.54-1.72,6.14,6.14,0,0,0,1.5-3.53,49.23,49.23,0,0,0,.3-6.15V25.06a21.47,21.47,0,0,0-.44-5.25A6.08,6.08,0,0,0,84.73,17.25Z" transform="translate(0 0)" style="fill:#fff"/><path d="M96.13,15.61V12.37h3.24v3.24ZM96.29,41V21.21h2.88V41Z" transform="translate(0 0)" style="fill:#fff"/><path d="M112.74,50a9.66,9.66,0,0,1-3.62-.58,10.88,10.88,0,0,1-3.06-2.06l1.88-1.84A9,9,0,0,0,110.09,47a6.27,6.27,0,0,0,2.56.45,4.91,4.91,0,0,0,4.06-1.67,6.68,6.68,0,0,0,1.34-4.32V38.37a6.2,6.2,0,0,1-2.46,2,8,8,0,0,1-3.06.55,7.38,7.38,0,0,1-2.68-.48,6.93,6.93,0,0,1-2.34-1.56,6.56,6.56,0,0,1-1.62-3.18,19.77,19.77,0,0,1-.52-4.74,20.11,20.11,0,0,1,.5-4.8A6.49,6.49,0,0,1,107.45,23a6.57,6.57,0,0,1,2.37-1.56,8.52,8.52,0,0,1,5.8.06,6.32,6.32,0,0,1,2.43,2V21.25h2.88V41.53a8.56,8.56,0,0,1-2.2,6.08A7.81,7.81,0,0,1,112.74,50Zm.44-26.4q-2.88,0-3.9,2a12,12,0,0,0-1,5.35,12.14,12.14,0,0,0,1,5.37q1,2,3.92,2t3.9-2a12.34,12.34,0,0,0,1-5.4,12.33,12.33,0,0,0-1-5.39Q116.1,23.57,113.18,23.57Z" transform="translate(0 0)" style="fill:#fff"/><path d="M128,15.61V12.37h3.24v3.24ZM128.14,41V21.21H131V41Z" transform="translate(0 0)" style="fill:#fff"/><path d="M143.78,41A4.71,4.71,0,0,1,140,39.48a5.56,5.56,0,0,1-1.3-3.81V23.57h-2.48v-2.2h2.48V15.21h2.88v6.16h4.2v2.2h-4.2v12q0,2.89,2.68,2.89h1.52V41Z" transform="translate(0 0)" style="fill:#fff"/><path d="M162.71,41V39.09a6.93,6.93,0,0,1-2.44,1.61,9.53,9.53,0,0,1-3.24.47,11.37,11.37,0,0,1-3.34-.4,6.16,6.16,0,0,1-2.48-1.64A5.16,5.16,0,0,1,150,35.37a5.21,5.21,0,0,1,1.76-4.16,7.49,7.49,0,0,1,5-1.52h5.92V27.81a4.19,4.19,0,0,0-1.17-3.26,5.64,5.64,0,0,0-3.83-1.06,7.28,7.28,0,0,0-3,.48,5.15,5.15,0,0,0-1.94,1.76l-2-1.8a6.74,6.74,0,0,1,2.86-2.3,11.39,11.39,0,0,1,4.1-.62q7.88,0,7.88,6.57V41Zm0-9.12h-5.52q-4.4,0-4.4,3.48t4.52,3.36a11.05,11.05,0,0,0,2.52-.24,4.27,4.27,0,0,0,1.94-1.14,4.59,4.59,0,0,0,.94-3.34Z" transform="translate(0 0)" style="fill:#fff"/><path d="M177.51,41a4.74,4.74,0,0,1-3.74-1.42,5.56,5.56,0,0,1-1.26-3.83V12.45h2.88V35.6a3.39,3.39,0,0,0,.58,2.18,2.55,2.55,0,0,0,2.06.7h1.56V41Z" transform="translate(0 0)" style="fill:#fff"/><path d="M211.32,41l-6.48-12.68H198V41h-3V12.45h10.92a8.69,8.69,0,0,1,6.1,2.14,7.45,7.45,0,0,1,2.34,5.78,7.57,7.57,0,0,1-1.68,5,7.81,7.81,0,0,1-4.52,2.6l6.76,13Zm-5.72-25.8H198V25.61h7.6a6.15,6.15,0,0,0,4.14-1.32,4.83,4.83,0,0,0,1.54-3.88,4.87,4.87,0,0,0-1.56-3.88A6.05,6.05,0,0,0,205.6,15.17Z" transform="translate(0 0)" style="fill:#fff"/><path d="M220.52,15.61V12.37h3.24v3.24ZM220.68,41V21.21h2.88V41Z" transform="translate(0 0)" style="fill:#fff"/><path d="M237.41,41h-2.56l-7.2-19.72h3.11l5.35,15.82,5.43-15.82h3.11Z" transform="translate(0 0)" style="fill:#fff"/><path d="M250.49,31.85a7.49,7.49,0,0,0,1.5,5,5.32,5.32,0,0,0,4.3,1.77,7,7,0,0,0,2.8-.49,8.16,8.16,0,0,0,2.36-1.71l2,1.72a11.12,11.12,0,0,1-3.18,2.32,9.73,9.73,0,0,1-4,.72,8.12,8.12,0,0,1-6.32-2.5q-2.28-2.5-2.28-7.58,0-4.76,2.14-7.42A7.2,7.2,0,0,1,255.69,21a7.35,7.35,0,0,1,5.94,2.54,10.5,10.5,0,0,1,2.14,7v1.32Zm9.8-5.44a4.61,4.61,0,0,0-1.8-2.16,5.06,5.06,0,0,0-2.8-.8,5,5,0,0,0-2.78.8,4.33,4.33,0,0,0-1.68,1.86,8.67,8.67,0,0,0-.6,1.82,9.77,9.77,0,0,0-.14,1.76h10.4a11.08,11.08,0,0,0-.1-1.76A7.83,7.83,0,0,0,260.29,26.41Z" transform="translate(0 0)" style="fill:#fff"/><path d="M280.9,25a5.17,5.17,0,0,0-1.54-1.12,4.71,4.71,0,0,0-1.86-.32,4.3,4.3,0,0,0-3.42,1.5,5.58,5.58,0,0,0-1.3,3.79V41H269.9V21.25h2.88v2.4a5.6,5.6,0,0,1,2.3-1.92A7.36,7.36,0,0,1,278.3,21a7.7,7.7,0,0,1,2.58.38A6,6,0,0,1,283,22.85Z" transform="translate(0 0)" style="fill:#fff"/><path d="M306.11,41.17a9.08,9.08,0,0,1-6.72-2.4,9.25,9.25,0,0,1-2.82-4.68,45.69,45.69,0,0,1-.42-7.4q0-4.24.24-6.78a8.59,8.59,0,0,1,2.82-5.12,9.33,9.33,0,0,1,6.9-2.58,9.74,9.74,0,0,1,6.52,2.24A10.25,10.25,0,0,1,316,20.69h-3.12a7.69,7.69,0,0,0-2.34-4.22,6.43,6.43,0,0,0-4.42-1.54,6.16,6.16,0,0,0-4.62,1.66,6.8,6.8,0,0,0-2,3.52,42.58,42.58,0,0,0-.34,6.58,42.64,42.64,0,0,0,.34,6.56,6.8,6.8,0,0,0,2,3.54,6.16,6.16,0,0,0,4.62,1.66,6.58,6.58,0,0,0,4.46-1.54,7.58,7.58,0,0,0,2.38-4.22h3a10.09,10.09,0,0,1-3.34,6.22A9.76,9.76,0,0,1,306.11,41.17Z" transform="translate(0 0)" style="fill:#fff"/><path d="M334.8,41V28.78a5.45,5.45,0,0,0-1.26-3.87A4.62,4.62,0,0,0,330,23.57a4.78,4.78,0,0,0-3.6,1.36,5.3,5.3,0,0,0-1.32,3.85V41h-2.88V12.45h2.88v11a7,7,0,0,1,5.52-2.4,6.86,6.86,0,0,1,5.2,2,7.39,7.39,0,0,1,1.88,5.33V41Z" transform="translate(0 0)" style="fill:#fff"/><path d="M355.84,41V39.09a6.93,6.93,0,0,1-2.44,1.61,9.53,9.53,0,0,1-3.24.47,11.37,11.37,0,0,1-3.34-.4,6.16,6.16,0,0,1-2.48-1.64,5.16,5.16,0,0,1-1.22-3.76,5.21,5.21,0,0,1,1.76-4.16,7.49,7.49,0,0,1,5-1.52h5.92V27.81a4.19,4.19,0,0,0-1.17-3.26,5.64,5.64,0,0,0-3.83-1.06,7.28,7.28,0,0,0-3,.48,5.15,5.15,0,0,0-1.94,1.76l-2-1.8a6.74,6.74,0,0,1,2.86-2.3,11.39,11.39,0,0,1,4.1-.62q7.88,0,7.88,6.57V41Zm0-9.12h-5.52q-4.4,0-4.4,3.48t4.52,3.36a11.05,11.05,0,0,0,2.52-.24,4.27,4.27,0,0,0,1.94-1.14,4.59,4.59,0,0,0,.94-3.34Z" transform="translate(0 0)" style="fill:#fff"/><path d="M378.33,41V28.82A5.46,5.46,0,0,0,377,24.91a4.69,4.69,0,0,0-3.56-1.34,4.75,4.75,0,0,0-3.58,1.34,5.4,5.4,0,0,0-1.3,3.91V41h-2.88V21.25h2.88v2.16a7.68,7.68,0,0,1,10.66-.48,7.28,7.28,0,0,1,1.94,5.41V41Z" transform="translate(0 0)" style="fill:#fff"/><path d="M400.81,41V28.82a5.46,5.46,0,0,0-1.28-3.91A4.69,4.69,0,0,0,396,23.57a4.75,4.75,0,0,0-3.58,1.34,5.4,5.4,0,0,0-1.3,3.91V41h-2.88V21.25h2.88v2.16a7.68,7.68,0,0,1,10.66-.48,7.28,7.28,0,0,1,1.94,5.41V41Z" transform="translate(0 0)" style="fill:#fff"/><path d="M412.5,31.85a7.49,7.49,0,0,0,1.5,5,5.32,5.32,0,0,0,4.3,1.77,7,7,0,0,0,2.8-.49,8.16,8.16,0,0,0,2.36-1.71l2,1.72a11.12,11.12,0,0,1-3.18,2.32,9.73,9.73,0,0,1-4,.72,8.12,8.12,0,0,1-6.32-2.5q-2.28-2.5-2.28-7.58,0-4.76,2.14-7.42A7.2,7.2,0,0,1,417.7,21a7.35,7.35,0,0,1,5.94,2.54,10.5,10.5,0,0,1,2.14,7v1.32Zm9.8-5.44a4.61,4.61,0,0,0-1.8-2.16,5.06,5.06,0,0,0-2.8-.8,5,5,0,0,0-2.78.8,4.33,4.33,0,0,0-1.68,1.86,8.67,8.67,0,0,0-.6,1.82,9.77,9.77,0,0,0-.14,1.76h10.4a11.08,11.08,0,0,0-.1-1.76A7.83,7.83,0,0,0,422.3,26.41Z" transform="translate(0 0)" style="fill:#fff"/><path d="M436.82,41a4.74,4.74,0,0,1-3.74-1.42,5.56,5.56,0,0,1-1.26-3.83V12.45h2.88V35.6a3.39,3.39,0,0,0,.58,2.18,2.55,2.55,0,0,0,2.06.7h1.56V41Z" transform="translate(0 0)" style="fill:#fff"/><path d="M475.63,41V19.3l-7.81,17.14h-2.61l-7.91-17.11V41h-3V12.45h3l9.28,20.2,9-20.2h3V41Z" transform="translate(0 0)" style="fill:#fff"/><path d="M497.56,41V39.09a6.93,6.93,0,0,1-2.44,1.61,9.53,9.53,0,0,1-3.24.47,11.37,11.37,0,0,1-3.34-.4,6.16,6.16,0,0,1-2.48-1.64,5.16,5.16,0,0,1-1.22-3.76,5.21,5.21,0,0,1,1.76-4.16,7.49,7.49,0,0,1,5-1.52h5.92V27.81a4.19,4.19,0,0,0-1.17-3.26,5.64,5.64,0,0,0-3.83-1.06,7.28,7.28,0,0,0-3,.48,5.15,5.15,0,0,0-1.94,1.76l-2-1.8a6.74,6.74,0,0,1,2.86-2.3,11.39,11.39,0,0,1,4.1-.62q7.88,0,7.88,6.57V41Zm0-9.12H492q-4.4,0-4.4,3.48t4.52,3.36a11.05,11.05,0,0,0,2.52-.24,4.27,4.27,0,0,0,1.94-1.14,4.59,4.59,0,0,0,.94-3.34Z" transform="translate(0 0)" style="fill:#fff"/><path d="M520,41V28.82a5.46,5.46,0,0,0-1.28-3.91,4.69,4.69,0,0,0-3.56-1.34,4.75,4.75,0,0,0-3.58,1.34,5.4,5.4,0,0,0-1.3,3.91V41h-2.88V21.25h2.88v2.16A7.68,7.68,0,0,1,521,22.93a7.28,7.28,0,0,1,1.94,5.41V41Z" transform="translate(0 0)" style="fill:#fff"/><path d="M541.09,41V39.09a6.93,6.93,0,0,1-2.44,1.61,9.53,9.53,0,0,1-3.24.47,11.37,11.37,0,0,1-3.34-.4,6.16,6.16,0,0,1-2.48-1.64,5.16,5.16,0,0,1-1.22-3.76,5.21,5.21,0,0,1,1.76-4.16,7.49,7.49,0,0,1,5-1.52h5.92V27.81a4.19,4.19,0,0,0-1.17-3.26,5.64,5.64,0,0,0-3.83-1.06,7.28,7.28,0,0,0-3,.48,5.15,5.15,0,0,0-1.94,1.76l-2-1.8a6.74,6.74,0,0,1,2.86-2.3,11.39,11.39,0,0,1,4.1-.62Q544,21,544,27.58V41Zm0-9.12h-5.52q-4.4,0-4.4,3.48t4.52,3.36a11.05,11.05,0,0,0,2.52-.24,4.27,4.27,0,0,0,1.94-1.14,4.59,4.59,0,0,0,.94-3.34Z" transform="translate(0 0)" style="fill:#fff"/><path d="M557.3,50a9.66,9.66,0,0,1-3.62-.58,10.88,10.88,0,0,1-3.06-2.06l1.88-1.84A9,9,0,0,0,554.66,47a6.27,6.27,0,0,0,2.56.45,4.91,4.91,0,0,0,4.06-1.67,6.68,6.68,0,0,0,1.34-4.32V38.37a6.2,6.2,0,0,1-2.46,2,8,8,0,0,1-3.06.55,7.38,7.38,0,0,1-2.68-.48,6.93,6.93,0,0,1-2.34-1.56,6.56,6.56,0,0,1-1.62-3.18,19.77,19.77,0,0,1-.52-4.74,20.11,20.11,0,0,1,.5-4.8A6.49,6.49,0,0,1,552,23a6.57,6.57,0,0,1,2.37-1.56,8.52,8.52,0,0,1,5.8.06,6.32,6.32,0,0,1,2.43,2V21.25h2.88V41.53a8.56,8.56,0,0,1-2.2,6.08A7.81,7.81,0,0,1,557.3,50Zm.44-26.4q-2.88,0-3.9,2a12,12,0,0,0-1,5.35,12.14,12.14,0,0,0,1,5.37q1,2,3.92,2t3.9-2a12.34,12.34,0,0,0,1-5.4,12.33,12.33,0,0,0-1-5.39Q560.66,23.57,557.74,23.57Z" transform="translate(0 0)" style="fill:#fff"/><path d="M574.5,31.85a7.49,7.49,0,0,0,1.5,5,5.32,5.32,0,0,0,4.3,1.77,7,7,0,0,0,2.8-.49,8.16,8.16,0,0,0,2.36-1.71l2,1.72a11.12,11.12,0,0,1-3.18,2.32,9.73,9.73,0,0,1-4,.72,8.12,8.12,0,0,1-6.32-2.5q-2.28-2.5-2.28-7.58,0-4.76,2.14-7.42A7.2,7.2,0,0,1,579.7,21a7.35,7.35,0,0,1,5.94,2.54,10.5,10.5,0,0,1,2.14,7v1.32Zm9.8-5.44a4.61,4.61,0,0,0-1.8-2.16,5.06,5.06,0,0,0-2.8-.8,5,5,0,0,0-2.78.8,4.33,4.33,0,0,0-1.68,1.86,8.67,8.67,0,0,0-.6,1.82,9.77,9.77,0,0,0-.14,1.76h10.4a11.08,11.08,0,0,0-.1-1.76A7.83,7.83,0,0,0,584.3,26.41Z" transform="translate(0 0)" style="fill:#fff"/><path d="M619.2,41V28.82a5.46,5.46,0,0,0-1.28-3.91,4.69,4.69,0,0,0-3.56-1.34,4.89,4.89,0,0,0-3.56,1.32,4.8,4.8,0,0,0-1.36,3.61V41h-2.88V28.82a5.45,5.45,0,0,0-1.28-3.91,4.68,4.68,0,0,0-3.56-1.34,4.78,4.78,0,0,0-3.6,1.36,5.36,5.36,0,0,0-1.32,3.89V41h-2.88V21.25h2.88v2.16a7.07,7.07,0,0,1,5.56-2.4,6.39,6.39,0,0,1,6,3.28A7.49,7.49,0,0,1,614.87,21a8.17,8.17,0,0,1,2.86.48,8.58,8.58,0,0,1,2.82,1.94q1.52,1.46,1.52,4.91V41Z" transform="translate(0 0)" style="fill:#fff"/><path d="M630.88,31.85a7.49,7.49,0,0,0,1.5,5,5.32,5.32,0,0,0,4.3,1.77,7,7,0,0,0,2.8-.49,8.16,8.16,0,0,0,2.36-1.71l2,1.72a11.12,11.12,0,0,1-3.18,2.32,9.73,9.73,0,0,1-4,.72,8.12,8.12,0,0,1-6.32-2.5Q628,36.17,628,31.09q0-4.76,2.14-7.42A7.2,7.2,0,0,1,636.08,21,7.35,7.35,0,0,1,642,23.55a10.5,10.5,0,0,1,2.14,7v1.32Zm9.8-5.44a4.61,4.61,0,0,0-1.8-2.16,5.06,5.06,0,0,0-2.8-.8,5,5,0,0,0-2.78.8,4.33,4.33,0,0,0-1.68,1.86,8.67,8.67,0,0,0-.6,1.82,9.77,9.77,0,0,0-.14,1.76h10.4a11.08,11.08,0,0,0-.1-1.76A7.83,7.83,0,0,0,640.68,26.41Z" transform="translate(0 0)" style="fill:#fff"/><path d="M662.89,41V28.82a5.46,5.46,0,0,0-1.28-3.91A4.69,4.69,0,0,0,658,23.57a4.75,4.75,0,0,0-3.58,1.34,5.4,5.4,0,0,0-1.3,3.91V41h-2.88V21.25h2.88v2.16a7.68,7.68,0,0,1,10.66-.48,7.28,7.28,0,0,1,1.94,5.41V41Z" transform="translate(0 0)" style="fill:#fff"/><path d="M678.29,41a4.71,4.71,0,0,1-3.74-1.48,5.56,5.56,0,0,1-1.3-3.81V23.57h-2.48v-2.2h2.48V15.21h2.88v6.16h4.2v2.2h-4.2v12q0,2.89,2.68,2.89h1.52V41Z" transform="translate(0 0)" style="fill:#fff"/><path d="M9.59,29.74c.31-.15.29-.5.43-.75a3.33,3.33,0,0,1,2.65-1.78c3-.29,3.08-.26,4.76,2.26l1.4,2.08c.81-1.32,1.59-2.55,2.32-3.8a1,1,0,0,1,1-.57c.9,0,1.8,0,2.69,0A2.69,2.69,0,0,1,27.73,30c.06,2.78,0,5.57,0,8.36,0,.72-.45.56-.84.56H12c-2.31,0-2.31,0-2.31-2.34,0-1.92,0-3.83,0-5.75a1.51,1.51,0,0,0-.1-.88Z" transform="translate(0 0)" style="fill:#fff"/><path d="M19.12,12.3c.26.34.66.17,1,.24a6.91,6.91,0,1,1-2.35,0c.22,0,.5.09.63-.2Zm-3.84,5.21h-.63c-2.19,0-2.19,0-1.8,2.17A1.48,1.48,0,0,0,14.05,21a10.71,10.71,0,0,0,2.5.1c1.21,0,1.59-.32,1.83-1.5.05-.27.08-.45.41-.44s.31.16.37.39c.33,1.29.66,1.54,2,1.55.54,0,1.08,0,1.62,0,1.28,0,1.74-.44,2-1.7a10.36,10.36,0,0,1,.16-1.06c.18-.62,0-.84-.66-.81-1.25.05-2.51,0-3.77,0a1.23,1.23,0,0,0-1.18.48.55.55,0,0,1-1,0,1.24,1.24,0,0,0-1.24-.51Z" transform="translate(0 0)" style="fill:#fff"/><path d="M33.71,30.13c0-1,0-2,0-3.05,0-.47-.12-.64-.6-.61s-1,0-1.53,0a.63.63,0,0,1-.73-.63c0-.41.28-.64.72-.61h.09c.65,0,1.51.28,1.9-.13s.12-1.31.13-2c0-1.65,0-3.29,0-4.94A4,4,0,0,1,37,14c.46-.08.89-.08,1,.45s-.27.67-.75.76A2.63,2.63,0,0,0,35,18c-.06,2.24,0,4.49,0,6.74,0,.39.11.53.5.51.6,0,1.2,0,1.8,0,.42,0,.72.17.72.61s-.3.62-.72.63c-.6,0-1.2,0-1.8,0-.4,0-.51.13-.5.52,0,2.1,0,4.19,0,6.29a2.64,2.64,0,0,0,2.36,2.81c.43.1.77.24.67.75s-.51.5-.92.46c-1.92-.17-3.3-1.84-3.37-4.12C33.69,32.16,33.71,31.15,33.71,30.13Z" transform="translate(0 0)" style="fill:#fff"/><path d="M43.42,25.76a2.15,2.15,0,0,1-2.15,2.17,2.21,2.21,0,0,1-2.16-2.19,2.18,2.18,0,0,1,2.13-2.12A2.13,2.13,0,0,1,43.42,25.76Z" transform="translate(0 0)" style="fill:#fff"/><path d="M43.42,14.66a2.1,2.1,0,0,1-2.15,2.16,2.19,2.19,0,0,1-2.16-2.18,2.21,2.21,0,0,1,2.13-2.14A2.19,2.19,0,0,1,43.42,14.66Z" transform="translate(0 0)" style="fill:#fff"/><path d="M43.42,36.78a2.11,2.11,0,0,1-2.17,2.14,2.15,2.15,0,1,1,2.17-2.14Z" transform="translate(0 0)" style="fill:#fff"/><path d="M19.94,28.25c-.35.45-.73,1-1.14,1.47a4.84,4.84,0,0,1-1.14-1.62,2.91,2.91,0,0,1,1.14-1.21C18.92,26.81,20,28,19.94,28.25Z" transform="translate(0 0)" style="fill:#fff"/><path d="M22.06,18.37a4.68,4.68,0,0,1,.89,0c.35.07.91-.32,1,.36s-.27,1.39-1,1.44a21.19,21.19,0,0,1-2.24,0c-.45,0-.68-.29-.72-.75-.07-.73,0-1.23,1-1.08A6.48,6.48,0,0,0,22.06,18.37Z" transform="translate(0 0)" style="fill:#fff"/><path d="M15.54,18.37h1c.54,0,1.07-.13,1,.77s-.29,1.1-1.06,1.07c-.6,0-1.2,0-1.79,0s-.87-.12-1-.71c-.2-1.11-.22-1.11.92-1.11Z" transform="translate(0 0)" style="fill:#fff"/></svg>