<svg id="Layer_1" data-name="Layer 1" xmlns="http://www.w3.org/2000/svg" viewBox="0 0 711.39 51.8"><title>Financial Reconciliation</title><rect width="51.8" height="51.8" style="fill:#00a7e1"/><path d="M85.93,39.74a9.72,9.72,0,0,1-7.2,2.64H69V13.86h9.76q4.56,0,6.86,2.3a9,9,0,0,1,2.72,4.77,43.22,43.22,0,0,1,.42,6.87v1.52a31.73,31.73,0,0,1-.5,6.13A8.25,8.25,0,0,1,85.93,39.74ZM83.81,18.67a6.26,6.26,0,0,0-2.46-1.58,9.39,9.39,0,0,0-3.14-.5H72V39.66h6.2a9.66,9.66,0,0,0,3.14-.46,6.44,6.44,0,0,0,2.54-1.72A6.14,6.14,0,0,0,85.39,34a49.23,49.23,0,0,0,.3-6.15V26.48a21.47,21.47,0,0,0-.44-5.25A6.08,6.08,0,0,0,83.81,18.67Z" transform="translate(0.01 0)" style="fill:#fff"/><path d="M95.21,17V13.78h3.24V17Zm.16,25.36V22.62h2.88V42.38Z" transform="translate(0.01 0)" style="fill:#fff"/><path d="M111.81,51.38a9.66,9.66,0,0,1-3.62-.58,10.88,10.88,0,0,1-3.06-2.06L107,46.9a9,9,0,0,0,2.16,1.47,6.27,6.27,0,0,0,2.56.45,4.91,4.91,0,0,0,4.06-1.67,6.68,6.68,0,0,0,1.34-4.32V39.78a6.2,6.2,0,0,1-2.46,2,8,8,0,0,1-3.06.55,7.38,7.38,0,0,1-2.68-.48,6.93,6.93,0,0,1-2.34-1.56A6.56,6.56,0,0,1,105,37.08a19.77,19.77,0,0,1-.52-4.74,20.11,20.11,0,0,1,.5-4.8,6.49,6.49,0,0,1,1.58-3.08,6.57,6.57,0,0,1,2.37-1.56,8.52,8.52,0,0,1,5.8.06,6.32,6.32,0,0,1,2.43,2V22.66H120V42.94a8.56,8.56,0,0,1-2.2,6.08A7.81,7.81,0,0,1,111.81,51.38Zm.44-26.4q-2.88,0-3.9,2a12,12,0,0,0-1,5.35,12.14,12.14,0,0,0,1,5.38q1,2,3.92,2t3.9-2a12.34,12.34,0,0,0,1-5.4,12.33,12.33,0,0,0-1-5.39Q115.18,25,112.26,25Z" transform="translate(0.01 0)" style="fill:#fff"/><path d="M127.06,17V13.78h3.24V17Zm.16,25.36V22.62h2.88V42.38Z" transform="translate(0.01 0)" style="fill:#fff"/><path d="M142.86,42.38a4.71,4.71,0,0,1-3.74-1.48,5.56,5.56,0,0,1-1.3-3.81V25h-2.48v-2.2h2.48V16.62h2.88v6.16h4.2V25h-4.2V37q0,2.89,2.68,2.89h1.52v2.48Z" transform="translate(0.01 0)" style="fill:#fff"/><path d="M161.79,42.38V40.5a6.93,6.93,0,0,1-2.44,1.61,9.53,9.53,0,0,1-3.24.47,11.37,11.37,0,0,1-3.34-.4,6.16,6.16,0,0,1-2.48-1.64,5.16,5.16,0,0,1-1.22-3.76,5.21,5.21,0,0,1,1.76-4.16,7.49,7.49,0,0,1,5-1.52h5.92V29.22A4.19,4.19,0,0,0,160.62,26a5.64,5.64,0,0,0-3.83-1.06,7.28,7.28,0,0,0-3,.48,5.15,5.15,0,0,0-1.94,1.76l-2-1.8a6.74,6.74,0,0,1,2.86-2.3,11.39,11.39,0,0,1,4.1-.62q7.88,0,7.88,6.57V42.38Zm0-9.12h-5.52q-4.4,0-4.4,3.48t4.52,3.36a11.05,11.05,0,0,0,2.52-.24,4.27,4.27,0,0,0,1.94-1.14,4.59,4.59,0,0,0,.94-3.34Z" transform="translate(0.01 0)" style="fill:#fff"/><path d="M176.59,42.38A4.74,4.74,0,0,1,172.85,41a5.56,5.56,0,0,1-1.26-3.83V13.86h2.88V37a3.39,3.39,0,0,0,.58,2.18,2.55,2.55,0,0,0,2.06.7h1.56v2.48Z" transform="translate(0.01 0)" style="fill:#fff"/><path d="M210.4,42.38,203.92,29.7h-6.84V42.38h-3V13.86H205a8.69,8.69,0,0,1,6.1,2.14,7.45,7.45,0,0,1,2.34,5.78,7.57,7.57,0,0,1-1.68,5,7.81,7.81,0,0,1-4.52,2.6l6.76,13Zm-5.72-25.8h-7.6V27h7.6a6.15,6.15,0,0,0,4.14-1.32,4.83,4.83,0,0,0,1.54-3.88,4.87,4.87,0,0,0-1.56-3.88A6.05,6.05,0,0,0,204.68,16.58Z" transform="translate(0.01 0)" style="fill:#fff"/><path d="M219.6,17V13.78h3.24V17Zm.16,25.36V22.62h2.88V42.38Z" transform="translate(0.01 0)" style="fill:#fff"/><path d="M236.49,42.38h-2.56l-7.2-19.72h3.11l5.35,15.82,5.43-15.82h3.11Z" transform="translate(0.01 0)" style="fill:#fff"/><path d="M249.57,33.26a7.49,7.49,0,0,0,1.5,5,5.32,5.32,0,0,0,4.3,1.77,7,7,0,0,0,2.8-.49,8.16,8.16,0,0,0,2.36-1.71l2,1.72a11.12,11.12,0,0,1-3.18,2.32,9.73,9.73,0,0,1-4,.72,8.12,8.12,0,0,1-6.32-2.5q-2.28-2.5-2.28-7.58,0-4.76,2.14-7.42a7.2,7.2,0,0,1,5.94-2.66A7.35,7.35,0,0,1,260.72,25a10.5,10.5,0,0,1,2.14,7v1.32Zm9.8-5.44a4.61,4.61,0,0,0-1.8-2.16,5.06,5.06,0,0,0-2.8-.8,5,5,0,0,0-2.78.8,4.33,4.33,0,0,0-1.68,1.86,8.67,8.67,0,0,0-.6,1.82,9.77,9.77,0,0,0-.14,1.76H260a11.08,11.08,0,0,0-.1-1.76A7.83,7.83,0,0,0,259.37,27.82Z" transform="translate(0.01 0)" style="fill:#fff"/><path d="M280,26.42a5.17,5.17,0,0,0-1.54-1.12,4.71,4.71,0,0,0-1.86-.32,4.3,4.3,0,0,0-3.42,1.5,5.58,5.58,0,0,0-1.3,3.79V42.38H269V22.66h2.88v2.4a5.6,5.6,0,0,1,2.3-1.92,7.36,7.36,0,0,1,3.22-.72,7.7,7.7,0,0,1,2.58.38,6,6,0,0,1,2.14,1.46Z" transform="translate(0.01 0)" style="fill:#fff"/><path d="M299.35,16.58V27.06h12.48v2.72H299.35v12.6h-3V13.86H314v2.72Z" transform="translate(0.01 0)" style="fill:#fff"/><path d="M318.83,17V13.78h3.24V17ZM319,42.38V22.62h2.88V42.38Z" transform="translate(0.01 0)" style="fill:#fff"/><path d="M341.72,42.38V30.23a5.46,5.46,0,0,0-1.28-3.91A4.69,4.69,0,0,0,336.88,25a4.75,4.75,0,0,0-3.58,1.34,5.4,5.4,0,0,0-1.3,3.91V42.38h-2.88V22.66H332v2.16a7.68,7.68,0,0,1,10.66-.48,7.28,7.28,0,0,1,1.94,5.41V42.38Z" transform="translate(0.01 0)" style="fill:#fff"/><path d="M362.76,42.38V40.5a6.93,6.93,0,0,1-2.44,1.61,9.53,9.53,0,0,1-3.24.47,11.37,11.37,0,0,1-3.34-.4,6.16,6.16,0,0,1-2.48-1.64A5.16,5.16,0,0,1,350,36.78a5.21,5.21,0,0,1,1.76-4.16,7.49,7.49,0,0,1,5-1.52h5.92V29.22A4.19,4.19,0,0,0,361.59,26a5.64,5.64,0,0,0-3.83-1.06,7.28,7.28,0,0,0-3,.48,5.15,5.15,0,0,0-1.94,1.76l-2-1.8a6.74,6.74,0,0,1,2.86-2.3,11.39,11.39,0,0,1,4.1-.62q7.88,0,7.88,6.57V42.38Zm0-9.12h-5.52q-4.4,0-4.4,3.48t4.52,3.36a11.05,11.05,0,0,0,2.52-.24,4.27,4.27,0,0,0,1.94-1.14,4.59,4.59,0,0,0,.94-3.34Z" transform="translate(0.01 0)" style="fill:#fff"/><path d="M385.25,42.38V30.23A5.46,5.46,0,0,0,384,26.32,4.69,4.69,0,0,0,380.41,25a4.75,4.75,0,0,0-3.58,1.34,5.4,5.4,0,0,0-1.3,3.91V42.38h-2.88V22.66h2.88v2.16a7.68,7.68,0,0,1,10.66-.48,7.28,7.28,0,0,1,1.94,5.41V42.38Z" transform="translate(0.01 0)" style="fill:#fff"/><path d="M402.77,42.58A8.2,8.2,0,0,1,396.49,40q-2.44-2.62-2.44-7.46T396.47,25a8.22,8.22,0,0,1,6.3-2.6,8.73,8.73,0,0,1,3.52.62,9.52,9.52,0,0,1,3,2.3l-2,1.84a7.24,7.24,0,0,0-2.12-1.72,5.5,5.5,0,0,0-2.4-.48,5,5,0,0,0-4.42,2,9.41,9.41,0,0,0-1.42,5.5,13.94,13.94,0,0,0,.28,3.08,8.53,8.53,0,0,0,1.42,2.82Q399.77,40,402.77,40a5.35,5.35,0,0,0,2.4-.48,7.74,7.74,0,0,0,2.12-1.76l2,1.88a9.4,9.4,0,0,1-3,2.28A8.66,8.66,0,0,1,402.77,42.58Z" transform="translate(0.01 0)" style="fill:#fff"/><path d="M414.58,17V13.78h3.24V17Zm.16,25.36V22.62h2.88V42.38Z" transform="translate(0.01 0)" style="fill:#fff"/><path d="M436,42.38V40.5a6.93,6.93,0,0,1-2.44,1.61,9.53,9.53,0,0,1-3.24.47,11.37,11.37,0,0,1-3.34-.4,6.16,6.16,0,0,1-2.48-1.64,5.16,5.16,0,0,1-1.22-3.76,5.21,5.21,0,0,1,1.76-4.16,7.49,7.49,0,0,1,5-1.52H436V29.22A4.19,4.19,0,0,0,434.85,26,5.64,5.64,0,0,0,431,24.9a7.28,7.28,0,0,0-3,.48,5.15,5.15,0,0,0-1.94,1.76l-2-1.8a6.74,6.74,0,0,1,2.86-2.3,11.39,11.39,0,0,1,4.1-.62q7.88,0,7.88,6.57V42.38Zm0-9.12H430.5q-4.4,0-4.4,3.48t4.52,3.36a11.05,11.05,0,0,0,2.52-.24,4.27,4.27,0,0,0,1.94-1.14,4.59,4.59,0,0,0,.94-3.34Z" transform="translate(0.01 0)" style="fill:#fff"/><path d="M450.83,42.38A4.74,4.74,0,0,1,447.09,41a5.56,5.56,0,0,1-1.26-3.83V13.86h2.88V37a3.39,3.39,0,0,0,.58,2.18,2.55,2.55,0,0,0,2.06.7h1.56v2.48Z" transform="translate(0.01 0)" style="fill:#fff"/><path d="M484.63,42.38,478.15,29.7h-6.84V42.38h-3V13.86h10.92A8.69,8.69,0,0,1,485.3,16a7.45,7.45,0,0,1,2.34,5.78,7.57,7.57,0,0,1-1.68,5,7.81,7.81,0,0,1-4.52,2.6l6.76,13Zm-5.72-25.8h-7.6V27h7.6a6.15,6.15,0,0,0,4.14-1.32,4.83,4.83,0,0,0,1.54-3.88A4.87,4.87,0,0,0,483,17.94,6.05,6.05,0,0,0,478.91,16.58Z" transform="translate(0.01 0)" style="fill:#fff"/><path d="M495.8,33.26a7.49,7.49,0,0,0,1.5,5A5.32,5.32,0,0,0,501.6,40a7,7,0,0,0,2.8-.49,8.16,8.16,0,0,0,2.36-1.71l2,1.72a11.12,11.12,0,0,1-3.18,2.32,9.73,9.73,0,0,1-4,.72,8.12,8.12,0,0,1-6.32-2.5q-2.28-2.5-2.28-7.58,0-4.76,2.14-7.42A7.2,7.2,0,0,1,501,22.42,7.35,7.35,0,0,1,506.94,25a10.5,10.5,0,0,1,2.14,7v1.32Zm9.8-5.44a4.61,4.61,0,0,0-1.8-2.16,5.06,5.06,0,0,0-2.8-.8,5,5,0,0,0-2.78.8,4.33,4.33,0,0,0-1.68,1.86,8.67,8.67,0,0,0-.6,1.82,9.77,9.77,0,0,0-.14,1.76h10.4a11.08,11.08,0,0,0-.1-1.76A7.83,7.83,0,0,0,505.6,27.82Z" transform="translate(0.01 0)" style="fill:#fff"/><path d="M522.85,42.58A8.2,8.2,0,0,1,516.56,40q-2.44-2.62-2.44-7.46T516.54,25a8.22,8.22,0,0,1,6.3-2.6,8.73,8.73,0,0,1,3.52.62,9.52,9.52,0,0,1,3,2.3l-2,1.84a7.24,7.24,0,0,0-2.12-1.72,5.5,5.5,0,0,0-2.4-.48,5,5,0,0,0-4.42,2A9.41,9.41,0,0,0,517,32.5a13.94,13.94,0,0,0,.28,3.08,8.53,8.53,0,0,0,1.42,2.82Q519.85,40,522.85,40a5.35,5.35,0,0,0,2.4-.48,7.74,7.74,0,0,0,2.12-1.76l2,1.88a9.4,9.4,0,0,1-3,2.28A8.66,8.66,0,0,1,522.85,42.58Z" transform="translate(0.01 0)" style="fill:#fff"/><path d="M547.45,40.34A7.65,7.65,0,0,1,545,42a9,9,0,0,1-6.34,0A8,8,0,0,1,536,40.16,6.91,6.91,0,0,1,534.27,37a17.7,17.7,0,0,1-.5-4.54,17.8,17.8,0,0,1,.5-4.5A6.92,6.92,0,0,1,536,24.84a7.51,7.51,0,0,1,5.8-2.42A8.19,8.19,0,0,1,545,23a8,8,0,0,1,2.64,1.84A6.91,6.91,0,0,1,549.35,28a17.75,17.75,0,0,1,.5,4.54,17.85,17.85,0,0,1-.5,4.5A7.45,7.45,0,0,1,547.45,40.34Zm-2-13.92a4.89,4.89,0,0,0-3.6-1.44,4.49,4.49,0,0,0-3.32,1.2A5.37,5.37,0,0,0,537,29a17.86,17.86,0,0,0-.32,3.54,18.45,18.45,0,0,0,.3,3.62,5.27,5.27,0,0,0,1.52,2.68,5.25,5.25,0,0,0,6.7,0,5.23,5.23,0,0,0,1.5-2.7,18.82,18.82,0,0,0,.3-3.62,18.91,18.91,0,0,0-.3-3.6A4.69,4.69,0,0,0,545.41,26.42Z" transform="translate(0.01 0)" style="fill:#fff"/><path d="M568.62,42.38V30.23a5.46,5.46,0,0,0-1.28-3.91A4.69,4.69,0,0,0,563.78,25a4.75,4.75,0,0,0-3.58,1.34,5.4,5.4,0,0,0-1.3,3.91V42.38H556V22.66h2.88v2.16a7.68,7.68,0,0,1,10.66-.48,7.28,7.28,0,0,1,1.94,5.41V42.38Z" transform="translate(0.01 0)" style="fill:#fff"/><path d="M586.14,42.58A8.2,8.2,0,0,1,579.86,40q-2.44-2.62-2.44-7.46T579.84,25a8.22,8.22,0,0,1,6.3-2.6,8.73,8.73,0,0,1,3.52.62,9.52,9.52,0,0,1,3,2.3l-2,1.84a7.24,7.24,0,0,0-2.12-1.72,5.5,5.5,0,0,0-2.4-.48,5,5,0,0,0-4.42,2,9.41,9.41,0,0,0-1.42,5.5,13.94,13.94,0,0,0,.28,3.08A8.53,8.53,0,0,0,582,38.4Q583.14,40,586.14,40a5.35,5.35,0,0,0,2.4-.48,7.74,7.74,0,0,0,2.12-1.76l2,1.88a9.4,9.4,0,0,1-3,2.28A8.66,8.66,0,0,1,586.14,42.58Z" transform="translate(0.01 0)" style="fill:#fff"/><path d="M597.95,17V13.78h3.24V17Zm.16,25.36V22.62H601V42.38Z" transform="translate(0.01 0)" style="fill:#fff"/><path d="M613.15,42.38A4.74,4.74,0,0,1,609.41,41a5.56,5.56,0,0,1-1.26-3.83V13.86H611V37a3.39,3.39,0,0,0,.58,2.18,2.55,2.55,0,0,0,2.06.7h1.56v2.48Z" transform="translate(0.01 0)" style="fill:#fff"/><path d="M620,17V13.78h3.24V17Zm.16,25.36V22.62H623V42.38Z" transform="translate(0.01 0)" style="fill:#fff"/><path d="M641.4,42.38V40.5A6.93,6.93,0,0,1,639,42.11a9.53,9.53,0,0,1-3.24.47,11.37,11.37,0,0,1-3.34-.4,6.16,6.16,0,0,1-2.48-1.64,5.16,5.16,0,0,1-1.22-3.76,5.21,5.21,0,0,1,1.76-4.16,7.49,7.49,0,0,1,5-1.52h5.92V29.22A4.19,4.19,0,0,0,640.23,26a5.64,5.64,0,0,0-3.83-1.06,7.28,7.28,0,0,0-3,.48,5.15,5.15,0,0,0-1.94,1.76l-2-1.8A6.74,6.74,0,0,1,632.3,23a11.39,11.39,0,0,1,4.1-.62q7.88,0,7.88,6.57V42.38Zm0-9.12h-5.52q-4.4,0-4.4,3.48T636,40.1a11.05,11.05,0,0,0,2.52-.24,4.27,4.27,0,0,0,1.94-1.14,4.59,4.59,0,0,0,.94-3.34Z" transform="translate(0.01 0)" style="fill:#fff"/><path d="M656.8,42.38a4.71,4.71,0,0,1-3.74-1.48,5.56,5.56,0,0,1-1.3-3.81V25h-2.48v-2.2h2.48V16.62h2.88v6.16h4.2V25h-4.2V37q0,2.89,2.68,2.89h1.52v2.48Z" transform="translate(0.01 0)" style="fill:#fff"/><path d="M664.4,17V13.78h3.24V17Zm.16,25.36V22.62h2.88V42.38Z" transform="translate(0.01 0)" style="fill:#fff"/><path d="M687.33,40.34A7.65,7.65,0,0,1,684.87,42a9,9,0,0,1-6.34,0,8,8,0,0,1-2.64-1.84A6.91,6.91,0,0,1,674.15,37a17.7,17.7,0,0,1-.5-4.54,17.8,17.8,0,0,1,.5-4.5,6.92,6.92,0,0,1,1.74-3.16,7.51,7.51,0,0,1,5.8-2.42,8.19,8.19,0,0,1,3.16.58,8,8,0,0,1,2.64,1.84A6.91,6.91,0,0,1,689.23,28a17.75,17.75,0,0,1,.5,4.54,17.85,17.85,0,0,1-.5,4.5A7.45,7.45,0,0,1,687.33,40.34Zm-2-13.92a4.89,4.89,0,0,0-3.6-1.44,4.49,4.49,0,0,0-3.32,1.2A5.37,5.37,0,0,0,676.85,29a17.86,17.86,0,0,0-.32,3.54,18.45,18.45,0,0,0,.3,3.62,5.27,5.27,0,0,0,1.52,2.68,5.25,5.25,0,0,0,6.7,0,5.23,5.23,0,0,0,1.5-2.7,18.82,18.82,0,0,0,.3-3.62,18.91,18.91,0,0,0-.3-3.6A4.69,4.69,0,0,0,685.29,26.42Z" transform="translate(0.01 0)" style="fill:#fff"/><path d="M708.5,42.38V30.23a5.46,5.46,0,0,0-1.28-3.91A4.69,4.69,0,0,0,703.65,25a4.75,4.75,0,0,0-3.58,1.34,5.4,5.4,0,0,0-1.3,3.91V42.38h-2.88V22.66h2.88v2.16a7.68,7.68,0,0,1,10.66-.48,7.28,7.28,0,0,1,1.94,5.41V42.38Z" transform="translate(0.01 0)" style="fill:#fff"/><path d="M19.33,19.15a.67.67,0,0,0,.23.36,7.76,7.76,0,0,0,4.65,2h0a5.53,5.53,0,0,0,3.89-1.73.67.67,0,0,0,.2-.54A12.61,12.61,0,0,1,29.67,12,.67.67,0,0,0,29,11h-.17a3.38,3.38,0,0,1-1.31-.25,1.09,1.09,0,0,1-.7-1.1A.67.67,0,0,0,26.41,9L21.95,7.45a.67.67,0,0,0-.88.54l-.36,2.55H18.16a.67.67,0,0,0-.65.82Z" transform="translate(0.01 0)" style="fill:#fff"/><path d="M28.63,21.34a.67.67,0,0,0-.7.09,5.78,5.78,0,0,1-3.69,1.38h0a7,7,0,0,1-3.26-.92.67.67,0,0,0-.7,0c-.67.41-8.79,5.57-7.87,12.68.94,7.27,3.86,9.73,11.59,9.73,4.34,0,9.13-.36,11.74-3a8,8,0,0,0,2.09-5.94A15.36,15.36,0,0,0,28.63,21.34Zm-3.15,17v.78a.71.71,0,0,1-1.41,0v-.8c-2.48-.24-3.61-1.54-3.61-2.54a1,1,0,0,1,1-1c1.14,0,1,1.4,2.6,1.76V33.82l-1-.25c-2.19-.54-2.58-1.7-2.58-2.79,0-2,1.75-2.92,3.58-3.09V26.9a.71.71,0,1,1,1.41,0v.82c1.66.23,3.31,1.15,3.31,2.32a1,1,0,0,1-1.1.92c-.92,0-.94-1-2.21-1.4V32l1,.21c2.2.48,2.76,1.74,2.76,2.93C29.21,36.84,28,38.14,25.48,38.32Z" transform="translate(0.01 0)" style="fill:#fff"/><path d="M25.78,34.24l-.3-.07v2.42c.86-.18,1.33-.72,1.33-1.28S26.6,34.44,25.78,34.24Z" transform="translate(0.01 0)" style="fill:#fff"/><path d="M22.8,30.65c0,.59.61.85,1.26,1V29.48C23.25,29.6,22.8,30,22.8,30.65Z" transform="translate(0.01 0)" style="fill:#fff"/></svg>