<svg id="Layer_1" data-name="Layer 1" xmlns="http://www.w3.org/2000/svg" viewBox="0 0 501.88 51.8"><title>Localization</title><path d="M85.73,39.82a9.72,9.72,0,0,1-7.2,2.64H68.76V13.95h9.76q4.56,0,6.86,2.3A9,9,0,0,1,88.11,21a43.22,43.22,0,0,1,.42,6.87v1.52a31.73,31.73,0,0,1-.5,6.13A8.25,8.25,0,0,1,85.73,39.82ZM83.61,18.75a6.26,6.26,0,0,0-2.46-1.58,9.39,9.39,0,0,0-3.14-.5H71.8V39.75H78a9.66,9.66,0,0,0,3.14-.46,6.44,6.44,0,0,0,2.54-1.72A6.14,6.14,0,0,0,85.19,34a49.23,49.23,0,0,0,.3-6.15V26.56A21.47,21.47,0,0,0,85,21.32,6.08,6.08,0,0,0,83.61,18.75Z" style="fill:#fff"/><path d="M95,17.11V13.87h3.24v3.24Zm.16,25.36V22.71H98V42.47Z" style="fill:#fff"/><path d="M111.61,51.47a9.66,9.66,0,0,1-3.62-.58,10.88,10.88,0,0,1-3.06-2.06L106.81,47A9,9,0,0,0,109,48.46a6.27,6.27,0,0,0,2.56.45,4.91,4.91,0,0,0,4.06-1.67,6.68,6.68,0,0,0,1.34-4.32V39.87a6.2,6.2,0,0,1-2.46,2,8,8,0,0,1-3.06.55,7.38,7.38,0,0,1-2.68-.48,6.93,6.93,0,0,1-2.34-1.56,6.56,6.56,0,0,1-1.62-3.18,19.77,19.77,0,0,1-.52-4.74,20.11,20.11,0,0,1,.5-4.8,6.49,6.49,0,0,1,1.58-3.08A6.57,6.57,0,0,1,108.7,23a8.52,8.52,0,0,1,5.8.06,6.32,6.32,0,0,1,2.43,2V22.75h2.88V43a8.56,8.56,0,0,1-2.2,6.08A7.81,7.81,0,0,1,111.61,51.47Zm.44-26.4q-2.88,0-3.9,2a12,12,0,0,0-1,5.35,12.14,12.14,0,0,0,1,5.38q1,2,3.92,2t3.9-2a12.34,12.34,0,0,0,1-5.4,12.33,12.33,0,0,0-1-5.39Q115,25.07,112.05,25.07Z" style="fill:#fff"/><path d="M126.86,17.11V13.87h3.24v3.24ZM127,42.47V22.71h2.88V42.47Z" style="fill:#fff"/><path d="M142.66,42.47A4.71,4.71,0,0,1,138.92,41a5.56,5.56,0,0,1-1.3-3.81V25.07h-2.48v-2.2h2.48V16.71h2.88v6.16h4.2v2.2h-4.2v12q0,2.89,2.68,2.89h1.52v2.48Z" style="fill:#fff"/><path d="M161.59,42.47V40.59a6.93,6.93,0,0,1-2.44,1.61,9.53,9.53,0,0,1-3.24.47,11.37,11.37,0,0,1-3.34-.4,6.16,6.16,0,0,1-2.48-1.64,5.16,5.16,0,0,1-1.22-3.76,5.21,5.21,0,0,1,1.76-4.16,7.49,7.49,0,0,1,5-1.52h5.92V29.31A4.19,4.19,0,0,0,160.42,26,5.64,5.64,0,0,0,156.59,25a7.28,7.28,0,0,0-3,.48,5.15,5.15,0,0,0-1.94,1.76l-2-1.8a6.74,6.74,0,0,1,2.86-2.3,11.39,11.39,0,0,1,4.1-.62q7.88,0,7.88,6.57V42.47Zm0-9.12h-5.52q-4.4,0-4.4,3.48t4.52,3.36a11.05,11.05,0,0,0,2.52-.24,4.27,4.27,0,0,0,1.94-1.14,4.59,4.59,0,0,0,.94-3.34Z" style="fill:#fff"/><path d="M176.39,42.47A4.74,4.74,0,0,1,172.65,41a5.56,5.56,0,0,1-1.26-3.83V13.95h2.88V37.1a3.39,3.39,0,0,0,.58,2.18,2.55,2.55,0,0,0,2.06.7h1.56v2.48Z" style="fill:#fff"/><path d="M210.2,42.47l-6.48-12.68h-6.84V42.47h-3V13.95h10.92a8.69,8.69,0,0,1,6.1,2.14,7.45,7.45,0,0,1,2.34,5.78,7.57,7.57,0,0,1-1.68,5,7.81,7.81,0,0,1-4.52,2.6l6.76,13Zm-5.72-25.8h-7.6V27.11h7.6a6.15,6.15,0,0,0,4.14-1.32,4.83,4.83,0,0,0,1.54-3.88A4.87,4.87,0,0,0,208.6,18,6.05,6.05,0,0,0,204.48,16.67Z" style="fill:#fff"/><path d="M219.4,17.11V13.87h3.24v3.24Zm.16,25.36V22.71h2.88V42.47Z" style="fill:#fff"/><path d="M236.29,42.47h-2.56l-7.2-19.72h3.11L235,38.57l5.43-15.82h3.11Z" style="fill:#fff"/><path d="M249.37,33.35a7.49,7.49,0,0,0,1.5,5,5.32,5.32,0,0,0,4.3,1.77,7,7,0,0,0,2.8-.49,8.16,8.16,0,0,0,2.36-1.71l2,1.72a11.12,11.12,0,0,1-3.18,2.32,9.73,9.73,0,0,1-4,.72,8.12,8.12,0,0,1-6.32-2.5q-2.28-2.5-2.28-7.58,0-4.76,2.14-7.42a7.2,7.2,0,0,1,5.94-2.66A7.35,7.35,0,0,1,260.51,25a10.5,10.5,0,0,1,2.14,7v1.32Zm9.8-5.44a4.61,4.61,0,0,0-1.8-2.16,5.06,5.06,0,0,0-2.8-.8,5,5,0,0,0-2.78.8,4.33,4.33,0,0,0-1.68,1.86,8.67,8.67,0,0,0-.6,1.82,9.77,9.77,0,0,0-.14,1.76h10.4a11.08,11.08,0,0,0-.1-1.76A7.83,7.83,0,0,0,259.17,27.91Z" style="fill:#fff"/><path d="M279.78,26.51a5.17,5.17,0,0,0-1.54-1.12,4.71,4.71,0,0,0-1.86-.32,4.3,4.3,0,0,0-3.42,1.5,5.58,5.58,0,0,0-1.3,3.79V42.47h-2.88V22.75h2.88v2.4a5.6,5.6,0,0,1,2.3-1.92,7.36,7.36,0,0,1,3.22-.72,7.7,7.7,0,0,1,2.58.38,6,6,0,0,1,2.14,1.46Z" style="fill:#fff"/><path d="M296.1,42.47V13.95h3v25.8h14.56v2.72Z" style="fill:#fff"/><path d="M331.15,40.43a7.65,7.65,0,0,1-2.46,1.66,9,9,0,0,1-6.34,0,8,8,0,0,1-2.64-1.84A6.91,6.91,0,0,1,318,37.13a17.7,17.7,0,0,1-.5-4.54,17.8,17.8,0,0,1,.5-4.5,6.92,6.92,0,0,1,1.74-3.16,7.51,7.51,0,0,1,5.8-2.42,8.19,8.19,0,0,1,3.16.58,8,8,0,0,1,2.64,1.84A6.91,6.91,0,0,1,333.05,28a17.75,17.75,0,0,1,.5,4.54,17.85,17.85,0,0,1-.5,4.5A7.45,7.45,0,0,1,331.15,40.43Zm-2-13.92a4.89,4.89,0,0,0-3.6-1.44,4.49,4.49,0,0,0-3.32,1.2A5.37,5.37,0,0,0,320.67,29a17.86,17.86,0,0,0-.32,3.54,18.45,18.45,0,0,0,.3,3.62,5.27,5.27,0,0,0,1.52,2.68,5.25,5.25,0,0,0,6.7,0,5.23,5.23,0,0,0,1.5-2.7,18.82,18.82,0,0,0,.3-3.62,18.91,18.91,0,0,0-.3-3.6A4.69,4.69,0,0,0,329.11,26.51Z" style="fill:#fff"/><path d="M347.36,42.67A8.2,8.2,0,0,1,341.08,40q-2.44-2.62-2.44-7.46t2.42-7.48a8.22,8.22,0,0,1,6.3-2.6,8.73,8.73,0,0,1,3.52.62,9.52,9.52,0,0,1,3,2.3l-2,1.84a7.24,7.24,0,0,0-2.12-1.72,5.5,5.5,0,0,0-2.4-.48,5,5,0,0,0-4.42,2,9.41,9.41,0,0,0-1.42,5.5,13.94,13.94,0,0,0,.28,3.08,8.53,8.53,0,0,0,1.42,2.82q1.14,1.62,4.14,1.62a5.35,5.35,0,0,0,2.4-.48,7.74,7.74,0,0,0,2.12-1.76l2,1.88a9.4,9.4,0,0,1-3,2.28A8.66,8.66,0,0,1,347.36,42.67Z" style="fill:#fff"/><path d="M370.48,42.47V40.59A6.93,6.93,0,0,1,368,42.2a9.53,9.53,0,0,1-3.24.47,11.37,11.37,0,0,1-3.34-.4A6.16,6.16,0,0,1,359,40.63a5.16,5.16,0,0,1-1.22-3.76,5.21,5.21,0,0,1,1.76-4.16,7.49,7.49,0,0,1,5-1.52h5.92V29.31A4.19,4.19,0,0,0,369.31,26,5.64,5.64,0,0,0,365.48,25a7.28,7.28,0,0,0-3,.48,5.15,5.15,0,0,0-1.94,1.76l-2-1.8a6.74,6.74,0,0,1,2.86-2.3,11.39,11.39,0,0,1,4.1-.62q7.88,0,7.88,6.57V42.47Zm0-9.12H365q-4.4,0-4.4,3.48t4.52,3.36a11.05,11.05,0,0,0,2.52-.24,4.27,4.27,0,0,0,1.94-1.14,4.59,4.59,0,0,0,.94-3.34Z" style="fill:#fff"/><path d="M385.29,42.47A4.74,4.74,0,0,1,381.55,41a5.56,5.56,0,0,1-1.26-3.83V13.95h2.88V37.1a3.39,3.39,0,0,0,.58,2.18,2.55,2.55,0,0,0,2.06.7h1.56v2.48Z" style="fill:#fff"/><path d="M392.09,17.11V13.87h3.24v3.24Zm.16,25.36V22.71h2.88V42.47Z" style="fill:#fff"/><path d="M400.77,42.47l0-2.49,11-14.67H401.37V22.75h13.68v2.44l-11,14.72h11v2.56Z" style="fill:#fff"/><path d="M431.9,42.47V40.59a6.93,6.93,0,0,1-2.44,1.61,9.53,9.53,0,0,1-3.24.47,11.37,11.37,0,0,1-3.34-.4,6.16,6.16,0,0,1-2.48-1.64,5.16,5.16,0,0,1-1.22-3.76,5.21,5.21,0,0,1,1.76-4.16,7.49,7.49,0,0,1,5-1.52h5.92V29.31A4.19,4.19,0,0,0,430.73,26,5.64,5.64,0,0,0,426.9,25a7.28,7.28,0,0,0-3,.48A5.15,5.15,0,0,0,422,27.23l-2-1.8a6.74,6.74,0,0,1,2.86-2.3,11.39,11.39,0,0,1,4.1-.62q7.88,0,7.88,6.57V42.47Zm0-9.12h-5.52q-4.4,0-4.4,3.48t4.52,3.36a11.05,11.05,0,0,0,2.52-.24A4.27,4.27,0,0,0,431,38.81a4.59,4.59,0,0,0,.94-3.34Z" style="fill:#fff"/><path d="M447.3,42.47A4.71,4.71,0,0,1,443.56,41a5.56,5.56,0,0,1-1.3-3.81V25.07h-2.48v-2.2h2.48V16.71h2.88v6.16h4.2v2.2h-4.2v12q0,2.89,2.68,2.89h1.52v2.48Z" style="fill:#fff"/><path d="M454.91,17.11V13.87h3.24v3.24Zm.16,25.36V22.71h2.88V42.47Z" style="fill:#fff"/><path d="M477.83,40.43a7.65,7.65,0,0,1-2.46,1.66,9,9,0,0,1-6.34,0,8,8,0,0,1-2.64-1.84,6.91,6.91,0,0,1-1.74-3.12,17.7,17.7,0,0,1-.5-4.54,17.8,17.8,0,0,1,.5-4.5,6.92,6.92,0,0,1,1.74-3.16,7.51,7.51,0,0,1,5.8-2.42,8.19,8.19,0,0,1,3.16.58A8,8,0,0,1,478,24.93,6.91,6.91,0,0,1,479.73,28a17.75,17.75,0,0,1,.5,4.54,17.85,17.85,0,0,1-.5,4.5A7.45,7.45,0,0,1,477.83,40.43Zm-2-13.92a4.89,4.89,0,0,0-3.6-1.44,4.49,4.49,0,0,0-3.32,1.2A5.37,5.37,0,0,0,467.35,29a17.86,17.86,0,0,0-.32,3.54,18.45,18.45,0,0,0,.3,3.62,5.27,5.27,0,0,0,1.52,2.68,5.25,5.25,0,0,0,6.7,0,5.23,5.23,0,0,0,1.5-2.7,18.82,18.82,0,0,0,.3-3.62,18.91,18.91,0,0,0-.3-3.6A4.69,4.69,0,0,0,475.79,26.51Z" style="fill:#fff"/><path d="M499,42.47V30.32a5.46,5.46,0,0,0-1.28-3.91,4.69,4.69,0,0,0-3.56-1.34,4.75,4.75,0,0,0-3.58,1.34,5.4,5.4,0,0,0-1.3,3.91V42.47h-2.88V22.75h2.88v2.16a7.68,7.68,0,0,1,10.66-.48,7.28,7.28,0,0,1,1.94,5.41V42.47Z" style="fill:#fff"/><rect width="51.8" height="51.8" style="fill:#00a7e1"/><path d="M31.35,17a10.08,10.08,0,0,1,.86,1.59,10.22,10.22,0,0,1,1.65.35,2.31,2.31,0,0,1,.08.66c0,1.44-.28,1-.28,2.26.09,1,1.06.41,1.32.32a5.53,5.53,0,0,0,1.8-1.81,10.27,10.27,0,0,1,2.33,2.26,3.59,3.59,0,0,0-.71,1.14c0,.42,0,0,.54.42s.31.74,1,.42a.55.55,0,0,0,.22-.16c.12.26.23.53.33.8a1.16,1.16,0,0,0-.55.1c-.64.31-1.51-.36-2.14.42a4.7,4.7,0,0,0-.91,1.5c-.14.44-.7,1.66,1.08,1.05a3.1,3.1,0,0,1,2-.21,1.4,1.4,0,0,0,1.13-.13c0,.25,0,.5,0,.75s0,.57,0,.86h0c-1.59.11-1.27-.48-2.43-.66A7,7,0,0,0,37,28.83a1.14,1.14,0,0,0-.7.55c-.73,1.4-2,2.61-.84,3.56s3,.32,3.29.85c.14.23.36.47.55.79a10.21,10.21,0,0,1-7.12,4.25c.12-.58.31-.64,1.36-1.6,1.27-1.16,1.07-1.31,0-1.94s-.83-.66-1.52-1.4a2.83,2.83,0,0,0-2.91-1,1.65,1.65,0,0,0-.59-.12,1.36,1.36,0,0,0-.47-.34c-.93-.42-.64-.23-1.14-.62a10,10,0,0,1-1.16.41c.71.44,1.36.79,1.74,1l.66.38c-.12.87-.82,2.21,0,2.86a2.87,2.87,0,0,1,1.14,2.34,10.23,10.23,0,0,1-7.82-6.28,10.06,10.06,0,0,1-1.76-.42A11.74,11.74,0,1,0,31.35,17Z" style="fill:#fff"/><path d="M8.8,36.19a2.16,2.16,0,0,0,3.06.05l6.21-6a9.13,9.13,0,1,0-3-3.09l-6.2,6A2.16,2.16,0,0,0,8.8,36.19Zm14.11-8.1a5.6,5.6,0,1,1,5.6-5.6A5.6,5.6,0,0,1,22.91,28.09Z" style="fill:#fff"/></svg>