<svg id="Layer_1" data-name="Layer 1" xmlns="http://www.w3.org/2000/svg" viewBox="0 0 634.9 52.03"><title>Order_Managment</title><rect width="51.8" height="51.8" style="fill:#00a7e1"/><path d="M85.79,40.39A9.72,9.72,0,0,1,78.59,43H68.83V14.51h9.76q4.56,0,6.86,2.3a9,9,0,0,1,2.72,4.77,43.22,43.22,0,0,1,.42,6.87V30a31.73,31.73,0,0,1-.5,6.13A8.25,8.25,0,0,1,85.79,40.39ZM83.67,19.31a6.26,6.26,0,0,0-2.46-1.58,9.39,9.39,0,0,0-3.14-.5h-6.2V40.31h6.2a9.66,9.66,0,0,0,3.14-.46,6.44,6.44,0,0,0,2.54-1.72,6.14,6.14,0,0,0,1.5-3.53,49.23,49.23,0,0,0,.3-6.15V27.13a21.47,21.47,0,0,0-.44-5.25A6.08,6.08,0,0,0,83.67,19.31Z" style="fill:#fff"/><path d="M95.07,17.67V14.43h3.24v3.24ZM95.23,43V23.27h2.88V43Z" style="fill:#fff"/><path d="M111.68,52a9.66,9.66,0,0,1-3.62-.58A10.88,10.88,0,0,1,105,49.39l1.88-1.84A9,9,0,0,0,109,49a6.27,6.27,0,0,0,2.56.45,4.91,4.91,0,0,0,4.06-1.67A6.68,6.68,0,0,0,117,43.48V40.43a6.2,6.2,0,0,1-2.46,2,8,8,0,0,1-3.06.55,7.38,7.38,0,0,1-2.68-.48,6.93,6.93,0,0,1-2.34-1.56,6.56,6.56,0,0,1-1.62-3.18,19.77,19.77,0,0,1-.52-4.74,20.11,20.11,0,0,1,.5-4.8,6.49,6.49,0,0,1,1.58-3.08,6.57,6.57,0,0,1,2.37-1.56,8.52,8.52,0,0,1,5.8.06,6.32,6.32,0,0,1,2.43,2V23.31h2.88V43.59a8.56,8.56,0,0,1-2.2,6.08A7.81,7.81,0,0,1,111.68,52Zm.44-26.4q-2.88,0-3.9,2a12,12,0,0,0-1,5.35,12.14,12.14,0,0,0,1,5.38q1,2,3.92,2t3.9-2a12.34,12.34,0,0,0,1-5.4,12.33,12.33,0,0,0-1-5.39Q115,25.63,112.12,25.63Z" style="fill:#fff"/><path d="M126.92,17.67V14.43h3.24v3.24ZM127.08,43V23.27H130V43Z" style="fill:#fff"/><path d="M142.73,43A4.71,4.71,0,0,1,139,41.55a5.56,5.56,0,0,1-1.3-3.81V25.63H135.2v-2.2h2.48V17.27h2.88v6.16h4.2v2.2h-4.2v12q0,2.89,2.68,2.89h1.52V43Z" style="fill:#fff"/><path d="M161.65,43V41.15a6.93,6.93,0,0,1-2.44,1.61,9.53,9.53,0,0,1-3.24.47,11.37,11.37,0,0,1-3.34-.4,6.16,6.16,0,0,1-2.48-1.64,5.16,5.16,0,0,1-1.22-3.76,5.21,5.21,0,0,1,1.76-4.16,7.49,7.49,0,0,1,5-1.52h5.92V29.87a4.19,4.19,0,0,0-1.17-3.26,5.64,5.64,0,0,0-3.83-1.06,7.28,7.28,0,0,0-3,.48,5.15,5.15,0,0,0-1.94,1.76l-2-1.8a6.74,6.74,0,0,1,2.86-2.3,11.39,11.39,0,0,1,4.1-.62q7.88,0,7.88,6.57V43Zm0-9.12h-5.52q-4.4,0-4.4,3.48t4.52,3.36a11.05,11.05,0,0,0,2.52-.24,4.27,4.27,0,0,0,1.94-1.14,4.59,4.59,0,0,0,.94-3.34Z" style="fill:#fff"/><path d="M176.45,43a4.74,4.74,0,0,1-3.74-1.42,5.56,5.56,0,0,1-1.26-3.83V14.51h2.88V37.67a3.39,3.39,0,0,0,.58,2.18,2.55,2.55,0,0,0,2.06.7h1.56V43Z" style="fill:#fff"/><path d="M210.26,43l-6.48-12.68h-6.84V43h-3V14.51h10.92a8.69,8.69,0,0,1,6.1,2.14,7.45,7.45,0,0,1,2.34,5.78,7.57,7.57,0,0,1-1.68,5,7.81,7.81,0,0,1-4.52,2.6l6.76,13Zm-5.72-25.8h-7.6V27.67h7.6a6.15,6.15,0,0,0,4.14-1.32,4.83,4.83,0,0,0,1.54-3.88,4.87,4.87,0,0,0-1.56-3.88A6.05,6.05,0,0,0,204.54,17.23Z" style="fill:#fff"/><path d="M219.47,17.67V14.43h3.24v3.24ZM219.63,43V23.27h2.88V43Z" style="fill:#fff"/><path d="M236.35,43h-2.56l-7.2-19.72h3.11l5.35,15.82,5.43-15.82h3.11Z" style="fill:#fff"/><path d="M249.43,33.91a7.49,7.49,0,0,0,1.5,5,5.32,5.32,0,0,0,4.3,1.77,7,7,0,0,0,2.8-.49,8.16,8.16,0,0,0,2.36-1.71l2,1.72a11.12,11.12,0,0,1-3.18,2.32,9.73,9.73,0,0,1-4,.72,8.12,8.12,0,0,1-6.32-2.5q-2.28-2.5-2.28-7.58,0-4.76,2.14-7.42a7.2,7.2,0,0,1,5.94-2.66,7.35,7.35,0,0,1,5.94,2.54,10.5,10.5,0,0,1,2.14,7v1.32Zm9.8-5.44a4.61,4.61,0,0,0-1.8-2.16,5.06,5.06,0,0,0-2.8-.8,5,5,0,0,0-2.78.8,4.33,4.33,0,0,0-1.68,1.86,8.67,8.67,0,0,0-.6,1.82,9.77,9.77,0,0,0-.14,1.76h10.4a11.08,11.08,0,0,0-.1-1.76A7.83,7.83,0,0,0,259.24,28.47Z" style="fill:#fff"/><path d="M279.84,27.07a5.17,5.17,0,0,0-1.54-1.12,4.71,4.71,0,0,0-1.86-.32,4.3,4.3,0,0,0-3.42,1.5,5.58,5.58,0,0,0-1.3,3.79V43h-2.88V23.31h2.88v2.4a5.6,5.6,0,0,1,2.3-1.92,7.36,7.36,0,0,1,3.22-.72,7.7,7.7,0,0,1,2.58.38A6,6,0,0,1,282,24.91Z" style="fill:#fff"/><path d="M312.33,40.27a9.9,9.9,0,0,1-7.28,3,9.08,9.08,0,0,1-6.72-2.4,9.25,9.25,0,0,1-2.82-4.68,45.69,45.69,0,0,1-.42-7.4q0-4.24.24-6.78a8.59,8.59,0,0,1,2.82-5.12,9.33,9.33,0,0,1,6.9-2.58,9.09,9.09,0,0,1,6.72,2.4,9.25,9.25,0,0,1,2.82,4.68,45.79,45.79,0,0,1,.42,7.4q0,4.24-.24,6.78A7.7,7.7,0,0,1,312.33,40.27ZM310,19A6.54,6.54,0,0,0,305,17a6.09,6.09,0,0,0-4.6,1.7,7,7,0,0,0-2,3.52,41.73,41.73,0,0,0-.34,6.54,42.2,42.2,0,0,0,.34,6.54,6.86,6.86,0,0,0,2,3.54,7.11,7.11,0,0,0,9.2,0,7,7,0,0,0,2-3.52,41.84,41.84,0,0,0,.34-6.54,42.33,42.33,0,0,0-.34-6.54A5.89,5.89,0,0,0,310,19Z" style="fill:#fff"/><path d="M332.66,27.07a5.17,5.17,0,0,0-1.54-1.12,4.71,4.71,0,0,0-1.86-.32,4.3,4.3,0,0,0-3.42,1.5,5.58,5.58,0,0,0-1.3,3.79V43h-2.88V23.31h2.88v2.4a5.6,5.6,0,0,1,2.3-1.92,7.36,7.36,0,0,1,3.22-.72,7.7,7.7,0,0,1,2.58.38,6,6,0,0,1,2.14,1.46Z" style="fill:#fff"/><path d="M350.22,43V40.67a6.05,6.05,0,0,1-2.45,2,8.16,8.16,0,0,1-3.13.55A6.27,6.27,0,0,1,340,41.67,7.58,7.58,0,0,1,338,38a21.13,21.13,0,0,1-.5-4.88,21.09,21.09,0,0,1,.5-4.86,6.12,6.12,0,0,1,4-4.74,7.86,7.86,0,0,1,2.74-.48,8.36,8.36,0,0,1,3.1.52,6.11,6.11,0,0,1,2.46,2V14.51h2.88V43Zm-4.92-17.4q-2.92,0-3.94,2a12.35,12.35,0,0,0-1,5.48,12.52,12.52,0,0,0,1,5.52q1,2,4,2t3.9-2a12.34,12.34,0,0,0,1-5.48,12.54,12.54,0,0,0-1-5.52Q348.22,25.63,345.3,25.63Z" style="fill:#fff"/><path d="M362.1,33.91a7.49,7.49,0,0,0,1.5,5,5.32,5.32,0,0,0,4.3,1.77,7,7,0,0,0,2.8-.49,8.16,8.16,0,0,0,2.36-1.71l2,1.72a11.12,11.12,0,0,1-3.18,2.32,9.73,9.73,0,0,1-4,.72,8.12,8.12,0,0,1-6.32-2.5q-2.28-2.5-2.28-7.58,0-4.76,2.14-7.42a7.2,7.2,0,0,1,5.94-2.66,7.35,7.35,0,0,1,5.94,2.54,10.5,10.5,0,0,1,2.14,7v1.32Zm9.8-5.44a4.61,4.61,0,0,0-1.8-2.16,5.06,5.06,0,0,0-2.8-.8,5,5,0,0,0-2.78.8,4.33,4.33,0,0,0-1.68,1.86,8.67,8.67,0,0,0-.6,1.82,9.77,9.77,0,0,0-.14,1.76h10.4a11.08,11.08,0,0,0-.1-1.76A7.83,7.83,0,0,0,371.91,28.47Z" style="fill:#fff"/><path d="M392.51,27.07A5.17,5.17,0,0,0,391,25.95a4.71,4.71,0,0,0-1.86-.32,4.3,4.3,0,0,0-3.42,1.5,5.58,5.58,0,0,0-1.3,3.79V43h-2.88V23.31h2.88v2.4a5.6,5.6,0,0,1,2.3-1.92,7.36,7.36,0,0,1,3.22-.72,7.7,7.7,0,0,1,2.58.38,6,6,0,0,1,2.14,1.46Z" style="fill:#fff"/><path d="M430.2,43V21.36L422.4,38.51h-2.61l-7.91-17.11V43h-3V14.51h3l9.28,20.2,9-20.2h3V43Z" style="fill:#fff"/><path d="M452.13,43V41.15a6.93,6.93,0,0,1-2.44,1.61,9.53,9.53,0,0,1-3.24.47,11.37,11.37,0,0,1-3.34-.4,6.16,6.16,0,0,1-2.48-1.64,5.16,5.16,0,0,1-1.22-3.76,5.21,5.21,0,0,1,1.76-4.16,7.49,7.49,0,0,1,5-1.52h5.92V29.87A4.19,4.19,0,0,0,451,26.61a5.64,5.64,0,0,0-3.83-1.06,7.28,7.28,0,0,0-3,.48,5.15,5.15,0,0,0-1.94,1.76l-2-1.8a6.74,6.74,0,0,1,2.86-2.3,11.39,11.39,0,0,1,4.1-.62q7.88,0,7.88,6.57V43Zm0-9.12h-5.52q-4.4,0-4.4,3.48t4.52,3.36a11.05,11.05,0,0,0,2.52-.24,4.27,4.27,0,0,0,1.94-1.14,4.59,4.59,0,0,0,.94-3.34Z" style="fill:#fff"/><path d="M474.62,43V30.88A5.46,5.46,0,0,0,473.34,27a4.69,4.69,0,0,0-3.56-1.34A4.75,4.75,0,0,0,466.19,27a5.4,5.4,0,0,0-1.3,3.91V43H462V23.31h2.88v2.16A7.68,7.68,0,0,1,475.56,25a7.28,7.28,0,0,1,1.94,5.41V43Z" style="fill:#fff"/><path d="M495.66,43V41.15a6.93,6.93,0,0,1-2.44,1.61,9.53,9.53,0,0,1-3.24.47,11.37,11.37,0,0,1-3.34-.4,6.16,6.16,0,0,1-2.48-1.64,5.16,5.16,0,0,1-1.22-3.76,5.21,5.21,0,0,1,1.76-4.16,7.49,7.49,0,0,1,5-1.52h5.92V29.87a4.19,4.19,0,0,0-1.17-3.26,5.64,5.64,0,0,0-3.83-1.06,7.28,7.28,0,0,0-3,.48,5.15,5.15,0,0,0-1.94,1.76l-2-1.8a6.74,6.74,0,0,1,2.86-2.3,11.39,11.39,0,0,1,4.1-.62q7.88,0,7.88,6.57V43Zm0-9.12h-5.52q-4.4,0-4.4,3.48t4.52,3.36a11.05,11.05,0,0,0,2.52-.24,4.27,4.27,0,0,0,1.94-1.14,4.59,4.59,0,0,0,.94-3.34Z" style="fill:#fff"/><path d="M511.87,52a9.66,9.66,0,0,1-3.62-.58,10.88,10.88,0,0,1-3.06-2.06l1.88-1.84A9,9,0,0,0,509.23,49a6.27,6.27,0,0,0,2.56.45,4.91,4.91,0,0,0,4.06-1.67,6.68,6.68,0,0,0,1.34-4.32V40.43a6.2,6.2,0,0,1-2.46,2,8,8,0,0,1-3.06.55,7.38,7.38,0,0,1-2.68-.48,6.93,6.93,0,0,1-2.34-1.56A6.56,6.56,0,0,1,505,37.73,19.77,19.77,0,0,1,504.5,33a20.11,20.11,0,0,1,.5-4.8,6.49,6.49,0,0,1,1.58-3.08A6.57,6.57,0,0,1,509,23.55a8.52,8.52,0,0,1,5.8.06,6.32,6.32,0,0,1,2.43,2V23.31h2.88V43.59a8.56,8.56,0,0,1-2.2,6.08A7.81,7.81,0,0,1,511.87,52Zm.44-26.4q-2.88,0-3.9,2a12,12,0,0,0-1,5.35,12.14,12.14,0,0,0,1,5.38q1,2,3.92,2t3.9-2a12.34,12.34,0,0,0,1-5.4,12.33,12.33,0,0,0-1-5.39Q515.23,25.63,512.31,25.63Z" style="fill:#fff"/><path d="M529.07,33.91a7.49,7.49,0,0,0,1.5,5,5.32,5.32,0,0,0,4.3,1.77,7,7,0,0,0,2.8-.49A8.16,8.16,0,0,0,540,38.47l2,1.72a11.12,11.12,0,0,1-3.18,2.32,9.73,9.73,0,0,1-4,.72,8.12,8.12,0,0,1-6.32-2.5q-2.28-2.5-2.28-7.58,0-4.76,2.14-7.42a7.2,7.2,0,0,1,5.94-2.66,7.35,7.35,0,0,1,5.94,2.54,10.5,10.5,0,0,1,2.14,7v1.32Zm9.8-5.44a4.61,4.61,0,0,0-1.8-2.16,5.06,5.06,0,0,0-2.8-.8,5,5,0,0,0-2.78.8,4.33,4.33,0,0,0-1.68,1.86,8.67,8.67,0,0,0-.6,1.82,9.77,9.77,0,0,0-.14,1.76h10.4a11.08,11.08,0,0,0-.1-1.76A7.83,7.83,0,0,0,538.87,28.47Z" style="fill:#fff"/><path d="M573.77,43V30.88A5.46,5.46,0,0,0,572.48,27a4.69,4.69,0,0,0-3.56-1.34A4.89,4.89,0,0,0,565.36,27,4.8,4.8,0,0,0,564,30.56V43h-2.88V30.88A5.45,5.45,0,0,0,559.84,27a4.68,4.68,0,0,0-3.56-1.34,4.78,4.78,0,0,0-3.6,1.36,5.36,5.36,0,0,0-1.32,3.89V43h-2.88V23.31h2.88v2.16a7.07,7.07,0,0,1,5.56-2.4,6.39,6.39,0,0,1,6,3.28,7.49,7.49,0,0,1,6.48-3.28,8.17,8.17,0,0,1,2.86.48,8.58,8.58,0,0,1,2.82,1.94q1.52,1.46,1.52,4.91V43Z" style="fill:#fff"/><path d="M585.45,33.91a7.49,7.49,0,0,0,1.5,5,5.32,5.32,0,0,0,4.3,1.77,7,7,0,0,0,2.8-.49,8.16,8.16,0,0,0,2.36-1.71l2,1.72a11.12,11.12,0,0,1-3.18,2.32,9.73,9.73,0,0,1-4,.72,8.12,8.12,0,0,1-6.32-2.5q-2.28-2.5-2.28-7.58,0-4.76,2.14-7.42a7.2,7.2,0,0,1,5.94-2.66,7.35,7.35,0,0,1,5.94,2.54,10.5,10.5,0,0,1,2.14,7v1.32Zm9.8-5.44a4.61,4.61,0,0,0-1.8-2.16,5.06,5.06,0,0,0-2.8-.8,5,5,0,0,0-2.78.8,4.33,4.33,0,0,0-1.68,1.86,8.67,8.67,0,0,0-.6,1.82,9.77,9.77,0,0,0-.14,1.76h10.4a11.08,11.08,0,0,0-.1-1.76A7.83,7.83,0,0,0,595.25,28.47Z" style="fill:#fff"/><path d="M617.46,43V30.88A5.46,5.46,0,0,0,616.18,27a4.69,4.69,0,0,0-3.56-1.34A4.75,4.75,0,0,0,609,27a5.4,5.4,0,0,0-1.3,3.91V43h-2.88V23.31h2.88v2.16A7.68,7.68,0,0,1,618.4,25a7.28,7.28,0,0,1,1.94,5.41V43Z" style="fill:#fff"/><path d="M632.86,43a4.71,4.71,0,0,1-3.74-1.48,5.56,5.56,0,0,1-1.3-3.81V25.63h-2.48v-2.2h2.48V17.27h2.88v6.16h4.2v2.2h-4.2v12q0,2.89,2.68,2.89h1.52V43Z" style="fill:#fff"/><path d="M11.95,23.13,13.77,25a12.31,12.31,0,0,1,9.3-10.65l3.11-3.11L23.63,8.65A17.76,17.76,0,0,0,8.26,25.71l2.57-2.58A.8.8,0,0,1,11.95,23.13Z" style="fill:#fff"/><path d="M29,11.75,26.74,14A12.31,12.31,0,0,1,38,23.32l2.94,2.94,2.67-2.67A17.76,17.76,0,0,0,26.83,8.51L29,10.64A.8.8,0,0,1,29,11.75Z" style="fill:#fff"/><path d="M23,40.7l2.18-2.17A12.31,12.31,0,0,1,13.89,28.42l-2.5-2.5-3,3A17.76,17.76,0,0,0,25.22,44L23,41.81A.8.8,0,0,1,23,40.7Z" style="fill:#fff"/><path d="M40.34,29,38.28,27a12.31,12.31,0,0,1-9.41,11.23l-3,3,2.58,2.58a17.76,17.76,0,0,0,15.33-17.1L41.45,29A.8.8,0,0,1,40.34,29Z" style="fill:#fff"/></svg>