<svg xmlns="http://www.w3.org/2000/svg" viewBox="0 0 629 655"><defs><style>.cls-1{fill:#a9e1ff;}.cls-2,.cls-3,.cls-7{fill:none;stroke-width:3px;}.cls-2{stroke:#4bc8f1;}.cls-2,.cls-3,.cls-7,.cls-8{stroke-miterlimit:10;}.cls-3{stroke:#00a7e1;}.cls-4{fill:#00a7e1;}.cls-5{fill:#4bc8f1;}.cls-6{fill:#007eb5;}.cls-7{stroke:#007eb5;}.cls-10,.cls-8,.cls-9{fill:#fff;}.cls-8{stroke:#fff;stroke-width:0.75px;}.cls-10{fill-rule:evenodd;}</style></defs><title>cloud_commerce</title><g id="Layer_2" data-name="Layer 2"><g id="Layer_1-2" data-name="Layer 1"><circle class="cls-1" cx="308" cy="55" r="55"/><circle class="cls-1" cx="493" cy="193" r="55"/><circle class="cls-1" cx="556" cy="344" r="33"/><circle class="cls-1" cx="571.5" cy="503.5" r="57.5"/><circle class="cls-1" cx="106" cy="299" r="49"/><circle class="cls-1" cx="44" cy="473" r="44"/><circle class="cls-1" cx="222" cy="172" r="47"/><path class="cls-2" d="M45,475.5H197.83a19.67,19.67,0,0,1,19.67,19.67V581"/><path class="cls-3" d="M493,178.67v84a22.5,22.5,0,0,1-22.5,22.5h-103a22.5,22.5,0,0,0-22.5,22.5v19"/><circle class="cls-4" cx="492.87" cy="193" r="49.06"/><circle class="cls-5" cx="308.21" cy="54.54" r="48.67"/><circle class="cls-6" cx="221.87" cy="172.33" r="40.73"/><path class="cls-5" d="M344.41,389.24a10.56,10.56,0,0,1-5.75-9.59c.14-5.81,5.16-8.75,5.4-8.89a10,10,0,0,1,.35,18.48Z"/><path class="cls-2" d="M308,102V258a18.5,18.5,0,0,0,18.5,18.5h0A18.5,18.5,0,0,1,345,295V545"/><path class="cls-5" d="M307.43,232.39a8.45,8.45,0,0,1-4.6-7.67,8.94,8.94,0,0,1,4.32-7.11,8,8,0,0,1,.28,14.78Z"/><path class="cls-5" d="M307.45,169.47a7.39,7.39,0,0,1-4-6.71,7.82,7.82,0,0,1,3.78-6.22,7,7,0,0,1,.24,12.93Z"/><path class="cls-7" d="M222,204V312a25.5,25.5,0,0,0,25.5,25.5h49A25.5,25.5,0,0,1,322,363V545"/><path class="cls-7" d="M556.81,317v65.5a27,27,0,0,1-27,27H394a27,27,0,0,0-27,27V554"/><path class="cls-6" d="M455.93,410.16a13,13,0,0,1-11.82,7.09c-7.17-.17-10.79-6.36-11-6.66a12.32,12.32,0,0,1,22.78-.43Z"/><path class="cls-1" d="M188.38,580.93c-10.35-18-2.83-36.1-.93-40.66,8.78-21.08,31.19-33.83,51.78-34a51.32,51.32,0,0,1,15.54,2.3c10.4-42.08,49.76-69.11,88.32-65,29.48,3.15,55.31,24.16,66.33,53.41,4.53-1.35,27-7.53,48.54,4.42,22.88,12.66,34.1,39.73,28.39,62.75-1.09,4.38-5.91,21.21-22.9,31.82"/><path class="cls-4" d="M501.54,610c-1.19,5-6.45,24-25,36a58.06,58.06,0,0,1-27,9l-236-.67c-2.89-.44-25.71-4.33-37.33-25.33-11.3-20.42-3.09-40.85-1-46,9.58-23.85,34.06-38.28,56.53-38.49a54.24,54.24,0,0,1,17,2.6c11.35-47.62,54.33-78.2,96.43-73.54,32.19,3.56,60.39,27.34,72.42,60.43,4.95-1.53,29.43-8.52,53,5C495.52,553.32,507.77,584,501.54,610Z"/><circle class="cls-4" cx="106.21" cy="299.33" r="43.33"/><path class="cls-6" d="M526.71,409.11a8.45,8.45,0,0,1-7.67,4.6,8.94,8.94,0,0,1-7.11-4.32,8,8,0,0,1,14.78-.28Z"/><circle class="cls-6" cx="555.98" cy="344.67" r="28.48"/><path class="cls-3" d="M107,301v73.5a25,25,0,0,0,25,25H271a25,25,0,0,1,25,25V584"/><path class="cls-4" d="M186.1,398.41a13,13,0,0,1-11.82,7.09c-7.17-.17-10.79-6.36-11-6.66a12.32,12.32,0,0,1,22.78-.43Z"/><path class="cls-8" d="M105.52,313.76h-.1l-3-.58a.53.53,0,0,1-.42-.62l.57-3a10.4,10.4,0,0,1-3.41-2.3l-2.55,1.65a.53.53,0,0,1-.73-.16l-1.69-2.6a.53.53,0,0,1,.16-.74l2.55-1.65a10.3,10.3,0,0,1-.71-3.63l-3-.57a.53.53,0,0,1-.42-.62l.58-3a.53.53,0,0,1,.22-.34.54.54,0,0,1,.4-.08l3,.57a10.18,10.18,0,0,1,2-3.11l-1.76-2.48a.53.53,0,0,1,.13-.74l2.53-1.79a.53.53,0,0,1,.74.13l1.75,2.48a10.36,10.36,0,0,1,4-.87l.57-3a.53.53,0,0,1,.62-.42l3,.58a.53.53,0,0,1,.42.62l-.57,3a10.31,10.31,0,0,1,3.41,2.3l2.55-1.65a.53.53,0,0,1,.73.16l1.69,2.6a.53.53,0,0,1-.16.74l-2.55,1.65a10.31,10.31,0,0,1,.71,3.63l3,.57a.53.53,0,0,1,.42.62l-.59,3a.53.53,0,0,1-.62.42l-3-.57a10.39,10.39,0,0,1-2,3.11l1.76,2.48a.53.53,0,0,1-.13.74l-2.53,1.79a.53.53,0,0,1-.74-.13l-1.75-2.48a10.37,10.37,0,0,1-4,.87l-.57,3A.53.53,0,0,1,105.52,313.76Zm-2.42-1.53,2,.38.56-2.89a.54.54,0,0,1,.54-.43,9.31,9.31,0,0,0,4.39-1,.53.53,0,0,1,.67.17l1.7,2.41,1.67-1.18-1.71-2.41a.53.53,0,0,1,.06-.69,9.29,9.29,0,0,0,2.23-3.46.53.53,0,0,1,.6-.34l2.89.56.39-2-2.9-.56a.53.53,0,0,1-.43-.54,9.22,9.22,0,0,0-.79-4,.53.53,0,0,1,.2-.66l2.48-1.6-1.11-1.71-2.48,1.6a.53.53,0,0,1-.68-.09,9.23,9.23,0,0,0-3.72-2.51.53.53,0,0,1-.34-.6l.56-2.9-2-.38-.56,2.9a.55.55,0,0,1-.54.43,9.32,9.32,0,0,0-4.39,1,.53.53,0,0,1-.67-.17l-1.7-2.41-1.67,1.18,1.71,2.41a.53.53,0,0,1-.06.69,9.17,9.17,0,0,0-2.24,3.46.52.52,0,0,1-.6.34l-2.89-.56-.38,2,2.89.56a.53.53,0,0,1,.43.54,9.21,9.21,0,0,0,.79,4,.53.53,0,0,1-.2.66L95.31,306l1.11,1.71,2.48-1.6a.53.53,0,0,1,.68.09,9.31,9.31,0,0,0,3.72,2.51.53.53,0,0,1,.34.6Zm3.38-6.47a5.76,5.76,0,1,1,5.76-5.76A5.76,5.76,0,0,1,106.48,305.76Zm0-10.45a4.69,4.69,0,1,0,4.69,4.69A4.7,4.7,0,0,0,106.48,295.31Z"/><path class="cls-8" d="M88,314.16a.53.53,0,0,1-.42-.21A21.91,21.91,0,0,1,83,300.4a22.14,22.14,0,0,1,5.25-14.3.53.53,0,1,1,.81.69,21.07,21.07,0,0,0-5,13.61,20.86,20.86,0,0,0,4.41,12.9.53.53,0,0,1-.42.86Z"/><path class="cls-8" d="M71.34,303.52a3.38,3.38,0,1,1,3.38-3.38A3.39,3.39,0,0,1,71.34,303.52Zm0-5.71a2.32,2.32,0,1,0,2.32,2.32A2.32,2.32,0,0,0,71.34,297.81Z"/><path class="cls-8" d="M83.47,300.64H74.25a.53.53,0,0,1,0-1.06h9.22a.53.53,0,1,1,0,1.06Z"/><path class="cls-8" d="M79.44,325.63h0a3.38,3.38,0,1,1,2.39-5.78h0a3.38,3.38,0,0,1-2.39,5.78Zm0-5.7a2.32,2.32,0,1,0,0,4.64h0a2.32,2.32,0,1,0,0-4.64Z"/><path class="cls-8" d="M81.48,320.7a.53.53,0,0,1-.38-.91l6.52-6.52a.53.53,0,0,1,.75.75l-6.52,6.52A.53.53,0,0,1,81.48,320.7Z"/><path class="cls-8" d="M79.94,281.13a3.38,3.38,0,1,1,2.39-1h0A3.36,3.36,0,0,1,79.94,281.13Zm0-5.7a2.32,2.32,0,0,0-1.64,4,2.38,2.38,0,0,0,3.28,0h0a2.32,2.32,0,0,0-1.64-4Z"/><path class="cls-8" d="M88.5,286.88a.53.53,0,0,1-.38-.16l-6.52-6.52a.53.53,0,0,1,.75-.75L88.88,286a.53.53,0,0,1-.38.91Z"/><path class="cls-8" d="M141.62,303.46a3.38,3.38,0,1,1,3.38-3.38A3.39,3.39,0,0,1,141.62,303.46Zm0-5.71a2.32,2.32,0,1,0,2.32,2.32A2.32,2.32,0,0,0,141.62,297.76Z"/><path class="cls-8" d="M125.14,314a.53.53,0,0,1-.42-.85A20.87,20.87,0,0,0,129,300.4a21.24,21.24,0,0,0-5-13.62.53.53,0,1,1,.81-.68,22.3,22.3,0,0,1,5.21,14.3,21.93,21.93,0,0,1-4.53,13.42A.53.53,0,0,1,125.14,314Z"/><path class="cls-8" d="M138.76,300.64h-9.22a.53.53,0,1,1,0-1.06h9.22a.53.53,0,0,1,0,1.06Z"/><path class="cls-8" d="M133.64,325.63a3.38,3.38,0,0,1-2.39-5.78h0a3.38,3.38,0,1,1,2.39,5.78Zm-1.64-5a2.32,2.32,0,0,0,0,3.28,2.38,2.38,0,0,0,3.28,0A2.32,2.32,0,0,0,132,320.6Z"/><path class="cls-8" d="M131.6,320.7a.53.53,0,0,1-.38-.16L124.7,314a.53.53,0,0,1,.75-.75l6.52,6.52a.53.53,0,0,1-.38.91Z"/><path class="cls-8" d="M133.13,281.13a3.36,3.36,0,0,1-2.39-1h0a3.38,3.38,0,1,1,2.39,1Zm-1.64-1.74a2.38,2.38,0,0,0,3.28,0,2.32,2.32,0,1,0-3.28,0Z"/><path class="cls-8" d="M124.57,286.88a.53.53,0,0,1-.38-.91l6.52-6.52a.53.53,0,1,1,.75.75l-6.52,6.52A.53.53,0,0,1,124.57,286.88Z"/><path class="cls-8" d="M106.48,318.24a18.31,18.31,0,0,1-4.11-.47.53.53,0,1,1,.24-1,17.4,17.4,0,0,0,7.64,0,.53.53,0,1,1,.23,1A18.35,18.35,0,0,1,106.48,318.24Zm11-3.83a.53.53,0,0,1-.33-.95,17.34,17.34,0,0,0,4.79-6,.53.53,0,0,1,1,.46,18.41,18.41,0,0,1-5.08,6.32A.53.53,0,0,1,117.48,314.41Zm-22.07-.07a.53.53,0,0,1-.33-.12,18.42,18.42,0,0,1-5-6.35.53.53,0,0,1,1-.46,17.35,17.35,0,0,0,4.75,6,.53.53,0,0,1-.33.95Zm28.79-13.75a.53.53,0,0,1-.53-.53V300a17,17,0,0,0-1.7-7.45.53.53,0,0,1,1-.46,18.08,18.08,0,0,1,1.8,7.91v.07A.53.53,0,0,1,124.19,300.6Zm-35.42-.11h0a.53.53,0,0,1-.53-.53,18.07,18.07,0,0,1,1.82-7.91.53.53,0,1,1,1,.46A17,17,0,0,0,89.3,300,.53.53,0,0,1,88.77,300.49Zm28.76-13.81a.53.53,0,0,1-.33-.12,17.22,17.22,0,0,0-6.88-3.32.53.53,0,1,1,.24-1,18.3,18.3,0,0,1,7.31,3.53.53.53,0,0,1-.33.95Zm-22.07,0a.53.53,0,0,1-.33-.95,18.29,18.29,0,0,1,7.31-3.51.53.53,0,0,1,.23,1,17.22,17.22,0,0,0-6.89,3.31A.53.53,0,0,1,95.46,286.67Z"/><path class="cls-9" d="M250.73,161.93h0a1,1,0,0,0-.54-.87l-11.74-5.87a1,1,0,0,0-.87,0l-11.74,5.87a1,1,0,0,0-.54.87h0v12.54c-1.58.53-3.21,1-4.92,1.49a70,70,0,0,1-17.37,2.6c-.83,0-1.61,0-2.34-.08a21.33,21.33,0,0,1,.33-12.65l3.83,9.2.21.31,1,1a1,1,0,0,0,1.38-1.38l-.61-.61.72-3.59h3.68l1.67,1.67a1,1,0,0,0,1.67-.69v-4.76l1.75-4.32,4.4-2.37a1,1,0,0,0,.25-1.53l-3.18-3.36,1.1-1.71a1,1,0,0,0-.05-1.14l-.85-1.07a21.76,21.76,0,0,1,3.42-.28,21.4,21.4,0,0,1,11.76,3.5,1,1,0,1,0,1.07-1.64h0a23.47,23.47,0,0,0-35.86,15.15c-3.74,2.38-6.2,4.69-6.3,7.37a3.45,3.45,0,0,0,.11.88c.45,1.61,1.9,2.58,3.74,3.19a17.34,17.34,0,0,0,3.28.68,23.47,23.47,0,0,0,42.08,4.87,1,1,0,0,0-1.65-1,21.49,21.49,0,0,1-18.22,10.07h-.22l0-.53,3.93-5.76a1,1,0,0,0,.17-.55v-6.85a1,1,0,0,0-2,0v6.54l-3.92,5.73a1,1,0,0,0-.17.5l0,.8a21.43,21.43,0,0,1-3-.53l-.19-3.19a1,1,0,0,0-.26-.61l-6.33-6.84a1,1,0,1,0-1.43,1.33l6.09,6.58.13,2.12a21.59,21.59,0,0,1-12.84-12.48c.54,0,1.1,0,1.68,0a72,72,0,0,0,17.88-2.66c1.68-.45,3.29-.95,4.86-1.47l.08.06,11.74,5.93a1,1,0,0,0,.88,0l11.74-5.93a1,1,0,0,0,.54-.87V161.93Zm-34.9-10,1,1.28-1.14,1.77a1,1,0,0,0,.11,1.2l2.83,3-3.59,1.93a1,1,0,0,0-.44.49l-2,4.83-.07.37v2.59l-.29-.28a1,1,0,0,0-.69-.29h-4.89a1,1,0,0,0-1,.79l-.35,1.75-3.35-8A21.58,21.58,0,0,1,215.83,151.9Zm-19.32,25.85c-1.58-.52-2.32-1.22-2.46-1.83a1.42,1.42,0,0,1,0-.38c-.09-1,1.32-2.89,4-4.79-.05.64-.09,1.28-.09,1.93a23.51,23.51,0,0,0,.67,5.55A13.56,13.56,0,0,1,196.52,177.75Zm41.5-20.6,9.55,4.77L238,166.7l-9.55-4.77Zm-5,15.36a1,1,0,0,0-1.29-.5c-1.4.62-2.92,1.21-4.5,1.78V163.51L237,168.4v11.5l-8.73-4.41c1.48-.54,2.91-1.1,4.23-1.69A1,1,0,0,0,233,172.51Zm6,7.38v-11.5l9.78-4.89V175Z"/><path class="cls-9" d="M318.13,32.79a15,15,0,0,0-.93-1.36l1.69-1.33A16.87,16.87,0,0,1,320,31.69Z"/><path class="cls-9" d="M316.09,30.16a14.78,14.78,0,0,0-1.24-1.08l1.3-1.72a17,17,0,0,1,1.45,1.25Z"/><path class="cls-9" d="M313.38,28.14a11.51,11.51,0,0,0-1.6-.72l.73-2a13.79,13.79,0,0,1,1.9.85Z"/><path class="cls-9" d="M294.77,42a13.66,13.66,0,0,1,16-17.11l-.45,2.1a11.51,11.51,0,0,0-13.46,14.42Z"/><polygon class="cls-9" points="295.29 43.38 290.84 38.98 292.35 37.45 295.27 40.34 298.16 37.42 299.69 38.94 295.29 43.38"/><path class="cls-9" d="M299.16,23l-.7-2a23.21,23.21,0,0,1,2.56-.7l.43,2.11A21,21,0,0,0,299.16,23Z"/><path class="cls-9" d="M295.21,25,294,23.17a23.33,23.33,0,0,1,2.29-1.32l1,1.93A21.29,21.29,0,0,0,295.21,25Z"/><path class="cls-9" d="M291.56,28.31,289.89,27a19,19,0,0,1,2-2.09l1.45,1.59A16.7,16.7,0,0,0,291.56,28.31Z"/><path class="cls-9" d="M291,51.92A18.87,18.87,0,0,1,288.43,29l1.84,1.12a16.71,16.71,0,0,0,2.27,20.28Z"/><path class="cls-9" d="M298.78,82.28a17.3,17.3,0,0,1-1.1-1.61l1.85-1.1a15.13,15.13,0,0,0,.95,1.38Z"/><path class="cls-9" d="M301.6,85A19.46,19.46,0,0,1,300,83.69l1.5-1.54a17.4,17.4,0,0,0,1.35,1.16Z"/><path class="cls-9" d="M305.24,87a13.83,13.83,0,0,1-1.9-.85l1-1.89A11.63,11.63,0,0,0,306,85Z"/><path class="cls-9" d="M309.84,87.8a13.56,13.56,0,0,1-2.83-.3l.45-2.1A11.51,11.51,0,0,0,320.91,71l2.07-.59A13.66,13.66,0,0,1,309.84,87.8Z"/><polygon class="cls-9" points="319.59 74.98 318.06 73.46 322.46 69.02 326.91 73.42 325.39 74.95 322.48 72.06 319.59 74.98"/><path class="cls-9" d="M299.66,78.07a15.6,15.6,0,1,1,15.6-15.6A15.62,15.62,0,0,1,299.66,78.07Zm0-29.05a13.45,13.45,0,1,0,13.45,13.45A13.46,13.46,0,0,0,299.66,49Z"/><path class="cls-9" d="M319.56,65.16A15.06,15.06,0,1,1,334.63,50.1,15.08,15.08,0,0,1,319.56,65.16Zm0-28A12.91,12.91,0,1,0,332.47,50.1,12.93,12.93,0,0,0,319.56,37.19Z"/><path class="cls-9" d="M320.64,56.55h-2.15a3.23,3.23,0,0,1-3.23-3.23h2.15a1.08,1.08,0,0,0,1.08,1.08h2.15a1.08,1.08,0,0,0,1.08-1.08v-.6a1.07,1.07,0,0,0-.74-1l-3.51-1.17a3.22,3.22,0,0,1-2.21-3.06v-.6a3.23,3.23,0,0,1,3.23-3.23h2.15a3.23,3.23,0,0,1,3.23,3.23h-2.15a1.08,1.08,0,0,0-1.08-1.08h-2.15a1.08,1.08,0,0,0-1.08,1.08v.6a1.07,1.07,0,0,0,.74,1l3.51,1.17a3.22,3.22,0,0,1,2.21,3.06v.6A3.23,3.23,0,0,1,320.64,56.55Z"/><rect class="cls-9" x="318.49" y="41.49" width="2.15" height="3.23"/><rect class="cls-9" x="318.49" y="55.48" width="2.15" height="3.23"/><path class="cls-9" d="M303.42,69.47h-3.23a5.39,5.39,0,0,1-5.38-5.38V60.86a5.39,5.39,0,0,1,5.38-5.38h3.23v2.15h-3.23A3.23,3.23,0,0,0,297,60.86v3.23a3.23,3.23,0,0,0,3.23,3.23h3.23Z"/><rect class="cls-9" x="292.66" y="59.78" width="7.53" height="2.15"/><rect class="cls-9" x="292.66" y="63.01" width="7.53" height="2.15"/><path class="cls-9" d="M510.88,178.7H475.76a5,5,0,0,0-5,5v19.08a5,5,0,0,0,5,5l35.71-.07a5.14,5.14,0,0,0,4.44-5v-19A5,5,0,0,0,510.88,178.7Zm3,23.92a3,3,0,0,1-3,3.22H475.76a3,3,0,0,1-3-3V183.73a3,3,0,0,1,3-3h35.12a3,3,0,0,1,3,3l.07,18.89Z"/><rect class="cls-9" x="471.73" y="183.74" width="43.16" height="2.01"/><rect class="cls-9" x="471.73" y="189.76" width="43.16" height="2.01"/><rect class="cls-9" x="474.74" y="193.77" width="9.03" height="2.01"/><rect class="cls-9" x="485.78" y="193.77" width="9.03" height="2.01"/><path class="cls-10" d="M490.86,213.75a18.28,18.28,0,0,1-29-12.38l-1.48,2.14-2-1.4,1.73-2.49,1.73-2.49.84-1.21,1,1,2.14,2.15,2.14,2.15L466.19,203l-1.95-2a15.82,15.82,0,0,0,25.15,10.75l1.47,2Z"/><path class="cls-10" d="M495.65,172.67a18.28,18.28,0,0,1,29,12.38l1.48-2.14,2,1.4-1.73,2.49-1.73,2.49-.84,1.21-1-1-2.14-2.15-2.14-2.15,1.74-1.73,1.95,2a15.82,15.82,0,0,0-25.15-10.75l-1.47-2Z"/><path class="cls-9" d="M545.2,353.72a1.19,1.19,0,0,1-1.19-1.19V326.68a1.19,1.19,0,0,1,1.19-1.19h14.25a1.19,1.19,0,0,1,1.19,1.19v20.14a2.84,2.84,0,0,1,1.16.35V326.68a2.35,2.35,0,0,0-2.35-2.35H545.2a2.35,2.35,0,0,0-2.35,2.35v25.85a2.35,2.35,0,0,0,2.35,2.35h4.67a3.31,3.31,0,0,1-.26-1.16Z"/><path class="cls-9" d="M544,348.82V329.87h16.63v16.94a2.84,2.84,0,0,1,1.16.35V329.29a.58.58,0,0,0-.58-.58H543.43a.58.58,0,0,0-.58.58V349.4a.58.58,0,0,0,.58.58h10.81a2.62,2.62,0,0,1,1.14-1l-.25-.15Z"/><path class="cls-9" d="M565.94,363.09H564.8v-1a5.21,5.21,0,0,1,.79-2,7.13,7.13,0,0,0,.92-2.24v-6.2a.64.64,0,0,0-.57-.57h-.57V350h.57a1.76,1.76,0,0,1,1.71,1.71v6.2a7.14,7.14,0,0,1-1.05,2.77,7.12,7.12,0,0,0-.66,1.46Z"/><path class="cls-9" d="M556.23,363.09h-1.14v-1.51a11.29,11.29,0,0,0-1.32-1.53,11.1,11.1,0,0,1-1.16-1.33c-.31-.49-2.7-5.75-3.18-6.81a.57.57,0,0,1-.05-.24,1.54,1.54,0,0,1,1.19-1.33,2.38,2.38,0,0,1,2.7,1l1.36,2.11.46-.78V343.1a2,2,0,1,1,4,0v8.57h-1.14V343.1c0-.62-.39-1.14-.86-1.14s-.86.52-.86,1.14v9.71a.57.57,0,0,1-.08.29l-1,1.71a.57.57,0,0,1-.48.28.59.59,0,0,1-.49-.26L552.32,352a1.25,1.25,0,0,0-1.2-.6,1,1,0,0,0-.56.26c1.09,2.41,2.8,6.12,3,6.46a11.32,11.32,0,0,0,1,1.16c1.14,1.2,1.64,1.78,1.64,2.32Z"/><path class="cls-9" d="M561.94,351.1H560.8v-2.28a.64.64,0,0,0-.57-.57h-.57V347.1h.57a1.76,1.76,0,0,1,1.71,1.71Z"/><path class="cls-9" d="M564.8,351.67h-1.14v-2.28a.64.64,0,0,0-.57-.57h-.57v-1.14h.57a1.76,1.76,0,0,1,1.71,1.71Z"/><path class="cls-9" d="M567.08,365.38h-1.14v-1.71H555.09v1.71h-1.14v-2.28a.57.57,0,0,1,.57-.57h12a.57.57,0,0,1,.57.57Z"/><circle class="cls-5" cx="44.54" cy="473.67" r="37.67"/><circle class="cls-4" cx="571.92" cy="503.67" r="50.33"/><path class="cls-3" d="M551,503.5H472.17a19.67,19.67,0,0,0-19.67,19.67V609"/><path class="cls-9" d="M568,521.92a4.48,4.48,0,1,0,4.48,4.48A4.48,4.48,0,0,0,568,521.92Zm0,6.72a2.24,2.24,0,1,1,2.24-2.24A2.25,2.25,0,0,1,568,528.64Zm30.17-13.31-7.66-21a1.12,1.12,0,0,0-1.43-.67L586,494.77,580.21,479a1.1,1.1,0,0,0-1.44-.67l-23.15,8.43a1.12,1.12,0,0,0-.67,1.44L561.08,505h0l4.26,11.69a10,10,0,0,0-2.08.83l-9.94-27.31a4.59,4.59,0,0,0-3.37-2.91,3.35,3.35,0,0,0-3.19-2.35H543.4a3.36,3.36,0,1,0,0,6.72h3.36a3.36,3.36,0,0,0,3.1-2.06,2.35,2.35,0,0,1,1.36,1.36l10.15,27.88a10.07,10.07,0,1,0,16.48,9.84l14.92-5.43a1.12,1.12,0,1,0-.76-2.11l-13.89,5.05a10.08,10.08,0,0,0-.3-2.27l19.74-7.18a1.12,1.12,0,0,0,.67-1.43Zm-50.33-27a1.12,1.12,0,0,1-1.12,1.12H543.4a1.12,1.12,0,0,1,0-2.24h3.36a1.12,1.12,0,0,1,1.12,1.12h0ZM569,484.25l1.53,4.21-2.11.77L566.91,485Zm-11.57,4.21,7.37-2.68,1.92,5.26a1.12,1.12,0,0,0,1,.74,1.14,1.14,0,0,0,.38-.07l4.21-1.53a1.12,1.12,0,0,0,.67-1.43l-1.91-5.26,7.37-2.68,5.36,14.74-21,7.66Zm21.34,16.07-2.1.77-1.53-4.21,2.1-.77ZM568,534.24a7.84,7.84,0,1,1,7.84-7.84A7.85,7.85,0,0,1,568,534.24Zm9-12.39a10.07,10.07,0,0,0-9-5.53l-.45,0-4-11,9.47-3.45,1.92,5.26a1.12,1.12,0,0,0,1.05.74,1.15,1.15,0,0,0,.39-.07l4.21-1.53a1.12,1.12,0,0,0,.67-1.44l-1.91-5.26,9.47-3.45,6.9,18.94Z"/><path class="cls-9" d="M57.13,466.3a3.35,3.35,0,0,1-2.34-1.13l-.15-.16c-1.14-1.2-1.34-2.8-.46-3.64l2.17-2a2.91,2.91,0,0,1,4.11.18l.15.16a2.92,2.92,0,0,1,0,4.12l-2.17,2A1.81,1.81,0,0,1,57.13,466.3Zm1.16-5.93a1,1,0,0,0-.7.27l-2.17,2a1.61,1.61,0,0,0,.53,1.09l.15.16a1.46,1.46,0,0,0,1.09.56l2.14-2a1.11,1.11,0,0,0,0-1.56l-.15-.16A1.2,1.2,0,0,0,58.29,460.37Z"/><path class="cls-9" d="M38,495.35l-1.3-1.26c.07-.08,1.78-1.84,2.74-2.74l.29-.27.4,0a10.26,10.26,0,0,0,9.73-4.64c.15-.21.27-.37.36-.47l1.37,1.18c-.07.08-.16.2-.27.36a12,12,0,0,1-10.93,5.4C39.45,493.86,38,495.33,38,495.35Z"/><path class="cls-9" d="M57.47,483l-.37,0a3.41,3.41,0,0,1-1.69-.81h0l-.15-.13c-1.18-1-1.5-2.51-.74-3.4l1.82-2.09a2.68,2.68,0,0,1,1.89-.92,2.77,2.77,0,0,1,2,.68l.15.13a2.76,2.76,0,0,1,.32,3.88l-1.82,2.09A1.82,1.82,0,0,1,57.47,483Zm-.87-2.21a1.25,1.25,0,0,0,1,.39l1.78-2.06a1,1,0,0,0-.14-1.33l-.15-.13a1,1,0,0,0-.71-.24.89.89,0,0,0-.63.3l-1.82,2.09a1.58,1.58,0,0,0,.55.84Z"/><path class="cls-9" d="M39.11,488.69l-1.71-.6a13.22,13.22,0,0,0-1.59-12l-.3-.38.15-.46A24.93,24.93,0,0,0,36.93,469a4.65,4.65,0,0,0-1-3.14.68.68,0,0,0-.65-.22.53.53,0,0,0-.44.3c-.52,1.66-.89,2.89-1.19,3.9-.56,1.86-.89,3-1.5,4.55a14.91,14.91,0,0,0-.62,4.72,7.83,7.83,0,0,1-.34,2.81c-.08.18-.79,1.32-2.09,3.39l-1.53-1c.88-1.41,1.88-3,2-3.21a9.71,9.71,0,0,0,.16-2.07,16.25,16.25,0,0,1,.74-5.32c.58-1.51.89-2.54,1.45-4.42.3-1,.67-2.25,1.2-3.92A2.3,2.3,0,0,1,35,463.81a2.45,2.45,0,0,1,2.41,1,6.39,6.39,0,0,1,1.33,4.36,26.61,26.61,0,0,1-1.19,6.22A15,15,0,0,1,39.11,488.69Z"/><path class="cls-9" d="M57.51,477.32l-.37,0a3.46,3.46,0,0,1-1.71-.82h0l-.15-.13c-1.19-1-1.52-2.54-.75-3.43l1.85-2.13a2.79,2.79,0,0,1,3.93-.25l.16.14a2.82,2.82,0,0,1,1,1.9,2.71,2.71,0,0,1-.65,2l-1.85,2.12A1.84,1.84,0,0,1,57.51,477.32Zm-.9-2.22a1.3,1.3,0,0,0,1,.4l1.81-2.1a.92.92,0,0,0,.21-.69,1,1,0,0,0-.35-.69l-.16-.14a1,1,0,0,0-1.38.07l-1.85,2.12a1.54,1.54,0,0,0,.57.88Z"/><path class="cls-9" d="M57.51,471.78a3.27,3.27,0,0,1-2.08-.85l-.16-.14c-1.19-1-1.52-2.54-.75-3.43l1.85-2.12a2.71,2.71,0,0,1,1.87-.93,2.81,2.81,0,0,1,2.06.68l.15.13a2.79,2.79,0,0,1,.33,3.93l-1.85,2.12A1.83,1.83,0,0,1,57.51,471.78Zm-.9-2.22a1.3,1.3,0,0,0,1,.4l1.81-2.1a1,1,0,0,0-.14-1.37l-.15-.13a1,1,0,0,0-.75-.25.92.92,0,0,0-.64.31l-1.85,2.12a1.54,1.54,0,0,0,.57.88Z"/><rect class="cls-9" x="44.59" y="482.97" width="2.71" height="1.81"/><path class="cls-9" d="M36.45,464.89H34.65v-9a3.62,3.62,0,0,1,3.62-3.61H53.63a3.62,3.62,0,0,1,3.62,3.62v4.52H55.44v-4.52A1.81,1.81,0,0,0,53.63,454H38.26a1.81,1.81,0,0,0-1.81,1.81Z"/><path class="cls-9" d="M53.63,487.49H38.26v-1.81H53.63a1.81,1.81,0,0,0,1.81-1.81v-1.81h1.81v1.81A3.62,3.62,0,0,1,53.63,487.49Z"/><polygon class="cls-9" points="37.62 495.36 26.51 484.25 23.27 487.49 29.86 494.08 28.58 495.36 20.71 487.49 26.51 481.69 38.9 494.08 37.62 495.36"/><rect class="cls-9" x="26.06" y="487.3" width="1.81" height="1.28" transform="translate(-337.13 161.98) rotate(-45)"/><rect class="cls-9" x="39.17" y="480.25" width="16.27" height="1.81"/><rect class="cls-9" x="35.55" y="456.75" width="20.79" height="1.81"/><path class="cls-9" d="M43.09,474a.9.9,0,0,1-.9-1l.26-3.09-2.12-2.82a.9.9,0,0,1,.56-1.43l3.07-.55,1.66-2.89a.94.94,0,0,1,1.57,0l1.66,2.89,3.07.55a.9.9,0,0,1,.56,1.43l-2.12,2.83.26,3a.9.9,0,0,1-.34.78.91.91,0,0,1-.84.16l-3-1-3,1A.91.91,0,0,1,43.09,474Zm-.44-6.8,1.45,1.92a.91.91,0,0,1,.18.62l-.17,2.07,2-.66a.91.91,0,0,1,.55,0l2,.64-.17-2a.9.9,0,0,1,.18-.62l1.45-1.93-2-.37a.91.91,0,0,1-.62-.44l-1.08-1.89-1.08,1.89a.91.91,0,0,1-.62.44Z"/></g></g></svg>