<svg xmlns="http://www.w3.org/2000/svg" xmlns:xlink="http://www.w3.org/1999/xlink" viewBox="0 0 453.19 91.56"><defs><style>.cls-1,.cls-3{fill:none;}.cls-2{isolation:isolate;}.cls-3{stroke:#e7e8e9;stroke-miterlimit:10;stroke-width:3px;}.cls-4{fill:#e7e8e9;}.cls-5{fill:#acd7a8;}.cls-6{fill:#759b78;}.cls-7{fill:#88b68a;}.cls-21,.cls-22,.cls-23,.cls-8{fill:#231f20;}.cls-33,.cls-8{opacity:0.2;}.cls-15,.cls-21,.cls-23,.cls-27,.cls-8{mix-blend-mode:multiply;}.cls-9{fill:#f8d315;}.cls-10{fill:#f0bd1b;}.cls-11{fill:#b8842d;}.cls-12{fill:#057eb6;}.cls-13{fill:#bd1f36;}.cls-14{fill:#80b341;}.cls-15{fill:#76777a;}.cls-15,.cls-23{opacity:0.1;}.cls-16{fill:#be832b;}.cls-17{fill:#343438;}.cls-18{fill:#7c2c1a;}.cls-19{fill:#92b890;}.cls-20{fill:#e24126;}.cls-21{opacity:0.3;}.cls-24{fill:#babcbe;}.cls-25{fill:#e7e7e7;}.cls-26{clip-path:url(#clip-path);}.cls-27{fill:#85878a;opacity:0.6;}.cls-28{fill:#1d1f1f;}.cls-29{fill:#a7a7a8;}.cls-30{fill:#0a858e;}.cls-31,.cls-33{fill:#fff;}.cls-32{fill:#858586;}</style><clipPath id="clip-path"><path class="cls-1" d="M444.55,77.84a2.7,2.7,0,0,1-2.77,2.62H381.57a2.7,2.7,0,0,1-2.77-2.62v-57a2.7,2.7,0,0,1,2.77-2.62h60.21a2.7,2.7,0,0,1,2.77,2.62Z"/></clipPath></defs><title>panel 4</title><g class="cls-2"><g id="Layer_2" data-name="Layer 2"><g id="Layer_1-2" data-name="Layer 1"><line class="cls-3" x1="412.85" y1="49.18" x2="42.19" y2="49.18"/><circle class="cls-4" cx="42.14" cy="48.73" r="42.14"/><circle class="cls-4" cx="162.17" cy="48.73" r="42.14"/><circle class="cls-4" cx="286.57" cy="48.73" r="42.14"/><circle class="cls-4" cx="411.06" cy="48.73" r="42.14"/><rect class="cls-5" x="4.37" y="47.03" width="79.07" height="34.1" transform="translate(-0.48 0.33) rotate(-0.43)"/><path class="cls-6" d="M81.23,79.3,81,48.3l-74.86.56.23,31Zm-73-1.41.06.08H8.23Zm2.65-18.2c2.06,0,3.71-2.37,3.69-5.27a6.43,6.43,0,0,0-1.15-3.75l60.34-.45A6.42,6.42,0,0,0,72.65,54c0,2.9,1.71,5.23,3.76,5.22a3.39,3.39,0,0,0,2.78-1.79l.1,13a3.38,3.38,0,0,0-2.8-1.75c-2.06,0-3.71,2.38-3.69,5.27a6.52,6.52,0,0,0,1,3.55l-60.07.45a6.52,6.52,0,0,0,1-3.56c0-2.9-1.71-5.23-3.76-5.22a3.39,3.39,0,0,0-2.78,1.8l-.1-13A3.38,3.38,0,0,0,10.88,59.69ZM79.29,77.45l.05-.08v.08Zm-.15-27-.19-.28h.19Zm-70.93.24L8,51v-.28Z"/><ellipse class="cls-7" cx="43.68" cy="63.99" rx="8.17" ry="10.08" transform="translate(-0.47 0.33) rotate(-0.43)"/><circle class="cls-7" cx="63.42" cy="63.74" r="3.44" transform="translate(-0.48 0.48) rotate(-0.44)"/><circle class="cls-7" cx="24.82" cy="64.02" r="3.44" transform="translate(-0.49 0.19) rotate(-0.44)"/><path class="cls-7" d="M43.58,49.82c6.45,0,11.74,6.27,11.8,14.08S50.24,78.12,43.79,78.17,32,71.89,32,64.08,37.13,49.87,43.58,49.82Zm.19,26.05c5.19,0,9.37-5.4,9.32-12s-4.31-11.85-9.5-11.81-9.37,5.4-9.32,12S38.58,75.91,43.77,75.88Z"/><path class="cls-5" d="M43.81,50.68c6,0,10.88,5.89,10.94,13.23S50,77.26,44,77.3,33.13,71.41,33.07,64.07,37.84,50.72,43.81,50.68ZM44,76.73c5.66,0,10.22-5.79,10.17-12.82s-4.7-12.71-10.36-12.66S33.59,57,33.64,64.07,38.35,76.78,44,76.73Z"/><rect class="cls-5" x="4.37" y="43.65" width="79.07" height="34.1" transform="translate(-0.45 0.33) rotate(-0.43)"/><path class="cls-6" d="M81.23,75.92l-.23-31-74.86.56.23,31Zm-73-1.41.06.08H8.23Zm2.65-18.2c2.06,0,3.71-2.37,3.69-5.27a6.43,6.43,0,0,0-1.15-3.75l60.34-.45a6.42,6.42,0,0,0-1.1,3.76c0,2.9,1.71,5.23,3.76,5.22A3.39,3.39,0,0,0,79.19,54l.1,13a3.38,3.38,0,0,0-2.8-1.75c-2.06,0-3.71,2.38-3.69,5.27a6.52,6.52,0,0,0,1,3.55l-60.07.45a6.52,6.52,0,0,0,1-3.56c0-2.9-1.71-5.23-3.76-5.22a3.39,3.39,0,0,0-2.78,1.8l-.1-13A3.38,3.38,0,0,0,10.88,56.31ZM79.29,74.06l.05-.08v.08Zm-.15-27-.19-.28h.19Zm-70.93.24L8,47.62v-.29Z"/><ellipse class="cls-7" cx="43.68" cy="60.61" rx="8.17" ry="10.08" transform="translate(-0.45 0.33) rotate(-0.43)"/><circle class="cls-7" cx="63.42" cy="60.36" r="3.44" transform="translate(-0.46 0.49) rotate(-0.44)"/><circle class="cls-7" cx="24.82" cy="60.64" r="3.44" transform="translate(-0.46 0.19) rotate(-0.44)"/><path class="cls-7" d="M43.58,46.44c6.45,0,11.74,6.27,11.8,14.08S50.24,74.74,43.79,74.78,32,68.51,32,60.7,37.13,46.49,43.58,46.44Zm.19,26.05c5.19,0,9.37-5.4,9.32-12s-4.31-11.85-9.5-11.81-9.37,5.4-9.32,12S38.58,72.53,43.77,72.49Z"/><path class="cls-5" d="M43.81,47.3c6,0,10.88,5.89,10.94,13.23S50,73.88,44,73.92,33.13,68,33.07,60.69,37.84,47.34,43.81,47.3ZM44,73.35c5.66,0,10.22-5.79,10.17-12.82s-4.7-12.71-10.36-12.67S33.59,53.66,33.64,60.69,38.35,73.4,44,73.35Z"/><rect class="cls-5" x="4.37" y="40.55" width="79.07" height="34.1" transform="translate(-0.43 0.33) rotate(-0.43)"/><path class="cls-6" d="M81.23,72.83l-.23-31-74.86.56.23,31Zm-73-1.41.06.08H8.23Zm2.65-18.2c2.06,0,3.71-2.37,3.69-5.27a6.43,6.43,0,0,0-1.15-3.75l60.34-.45a6.42,6.42,0,0,0-1.1,3.76c0,2.9,1.71,5.23,3.76,5.22a3.39,3.39,0,0,0,2.78-1.79l.1,13a3.38,3.38,0,0,0-2.8-1.75c-2.06,0-3.71,2.38-3.69,5.27a6.52,6.52,0,0,0,1,3.55l-60.07.45a6.51,6.51,0,0,0,1-3.56c0-2.9-1.71-5.23-3.76-5.22a3.39,3.39,0,0,0-2.78,1.8l-.1-13A3.38,3.38,0,0,0,10.88,53.22ZM79.29,71l.05-.08V71Zm-.15-27-.19-.28h.19Zm-70.93.24L8,44.52v-.29Z"/><ellipse class="cls-7" cx="43.68" cy="57.52" rx="8.17" ry="10.08" transform="translate(-0.43 0.33) rotate(-0.43)"/><circle class="cls-7" cx="63.42" cy="57.26" r="3.44" transform="translate(-0.44 0.49) rotate(-0.44)"/><circle class="cls-7" cx="24.82" cy="57.55" r="3.44" transform="translate(-0.44 0.19) rotate(-0.44)"/><path class="cls-7" d="M43.58,43.35c6.45,0,11.74,6.27,11.8,14.08S50.24,71.64,43.79,71.69,32,65.42,32,57.6,37.13,43.39,43.58,43.35Zm.19,26.05c5.19,0,9.37-5.4,9.32-12s-4.31-11.85-9.5-11.81-9.37,5.4-9.32,12S38.58,69.44,43.77,69.4Z"/><path class="cls-5" d="M43.81,44.2c6,0,10.88,5.89,10.94,13.23S50,70.79,44,70.83,33.13,64.94,33.07,57.6,37.84,44.25,43.81,44.2ZM44,70.26c5.66,0,10.22-5.79,10.17-12.82s-4.7-12.71-10.36-12.67S33.59,50.57,33.64,57.59,38.35,70.3,44,70.26Z"/><circle class="cls-8" cx="52.17" cy="36.35" r="13.96"/><circle class="cls-9" cx="52.17" cy="33.91" r="14.26" transform="translate(-0.29 0.44) rotate(-0.49)"/><circle class="cls-10" cx="52.17" cy="33.91" r="10.9" transform="translate(-0.29 0.44) rotate(-0.49)"/><path class="cls-11" d="M52.17,45.42a11.52,11.52,0,0,1-.09-23h.1A11.55,11.55,0,0,1,63.69,33.81,11.52,11.52,0,0,1,52.27,45.42Zm0-21.8a10.28,10.28,0,0,0,0,20.56h.09a10.28,10.28,0,0,0-.08-20.56Z"/><path class="cls-11" d="M51.55,42l0-2a5.77,5.77,0,0,1-3-.85L49,37.78a5.3,5.3,0,0,0,2.87.83c1.41,0,2.36-.83,2.35-2s-.79-1.76-2.26-2.34c-2-.78-3.29-1.68-3.3-3.41a3.26,3.26,0,0,1,3-3.22l0-2h1.23l0,1.93a5.3,5.3,0,0,1,2.59.67l-.48,1.31a4.81,4.81,0,0,0-2.51-.65c-1.53,0-2.1.93-2.09,1.73,0,1,.75,1.54,2.48,2.24,2.05.82,3.09,1.84,3.11,3.61a3.45,3.45,0,0,1-3.11,3.4l0,2.06Z"/><path class="cls-12" d="M32.09,52.32a19.29,19.29,0,0,1-.27-25.9L34,28.79l3.28-10.22L26.88,21.08l2.45,2.64A22.92,22.92,0,0,0,61.81,56l-2.49-2.68A19.29,19.29,0,0,1,32.09,52.32Z"/><path class="cls-13" d="M72.08,12.93A19.29,19.29,0,0,1,73.31,38.8L71,36.5,68.11,46.84l10.34-2.89L75.9,41.4A22.92,22.92,0,0,0,42.25,10.32l2.59,2.59A19.29,19.29,0,0,1,72.08,12.93Z"/><path class="cls-14" d="M165,20a8.93,8.93,0,0,0,8.72-9.11V0H156.23V10.86A8.93,8.93,0,0,0,165,20Z"/><path class="cls-15" d="M170.41,0V9.67a8.93,8.93,0,0,1-8.72,9.11,8.34,8.34,0,0,1-1.17-.09A8.39,8.39,0,0,0,165,20a8.93,8.93,0,0,0,8.72-9.11V0Z"/><path class="cls-14" d="M165,17.22c-18.38,0-33.29,14.21-33.29,31.74V86.78h66.57V49C198.24,31.43,183.34,17.22,165,17.22Z"/><path class="cls-8" d="M165,17.22a35,35,0,0,0-7,.71c15,3.07,26.29,15.79,26.29,31V86.78h14V49C198.24,31.43,183.34,17.22,165,17.22Z"/><path class="cls-9" d="M162.08,76.35V71.2a21.82,21.82,0,0,1-9.22-2.33l1.63-6.35a19.15,19.15,0,0,0,9,2.39c3.09,0,5.21-1.19,5.21-3.36s-1.74-3.36-5.75-4.72c-5.8-2-9.76-4.66-9.76-9.93,0-4.77,3.36-8.52,9.17-9.65V32.1h5.32v4.77a19.54,19.54,0,0,1,7.86,1.79L174,44.79a18,18,0,0,0-7.81-1.84c-3.53,0-4.66,1.52-4.66,3,0,1.79,1.9,2.93,6.51,4.66,6.45,2.28,9.06,5.26,9.06,10.14s-3.42,8.95-9.66,10v5.53Z"/><rect class="cls-10" x="124.11" y="65.96" width="15.1" height="4.27"/><rect class="cls-16" x="124.11" y="69.2" width="15.1" height="1.02"/><rect class="cls-10" x="124.11" y="70.23" width="15.1" height="4.27"/><rect class="cls-16" x="124.11" y="73.47" width="15.1" height="1.02"/><rect class="cls-10" x="124.11" y="74.49" width="15.1" height="4.27"/><rect class="cls-16" x="124.11" y="77.74" width="15.1" height="1.02"/><rect class="cls-10" x="124.11" y="78.76" width="15.1" height="4.27"/><rect class="cls-16" x="124.11" y="82.01" width="15.1" height="1.02"/><rect class="cls-10" x="124.11" y="83.03" width="15.1" height="4.27"/><rect class="cls-16" x="124.11" y="86.27" width="15.1" height="1.02"/><rect class="cls-10" x="124.11" y="87.29" width="15.1" height="4.27"/><rect class="cls-16" x="124.11" y="90.54" width="15.1" height="1.02"/><rect class="cls-10" x="192.15" y="73.47" width="15.1" height="4.27"/><rect class="cls-16" x="192.15" y="76.72" width="15.1" height="1.02"/><rect class="cls-10" x="192.15" y="77.74" width="15.1" height="4.27"/><rect class="cls-16" x="192.15" y="80.98" width="15.1" height="1.02"/><rect class="cls-10" x="192.15" y="82.01" width="15.1" height="4.27"/><rect class="cls-16" x="192.15" y="85.25" width="15.1" height="1.02"/><rect class="cls-10" x="192.15" y="86.27" width="15.1" height="4.27"/><rect class="cls-16" x="192.15" y="89.52" width="15.1" height="1.02"/><path class="cls-17" d="M173.68,17.65A2.32,2.32,0,0,1,171.35,20h-12.8a2.32,2.32,0,0,1-2.32-2.32h0a2.32,2.32,0,0,1,2.32-2.32h12.8a2.32,2.32,0,0,1,2.32,2.32Z"/><path class="cls-13" d="M312,64.13a3.84,3.84,0,0,1-2.68,3.49L256.18,82.33a2,2,0,0,1-2.69-2l0-46.52a3.84,3.84,0,0,1,2.68-3.49l53.09-14.71a2,2,0,0,1,2.69,2Z"/><path class="cls-18" d="M306.92,65.18a3.23,3.23,0,0,1-2.25,2.93L260,80.48a1.68,1.68,0,0,1-2.26-1.69l0-39.1A3.23,3.23,0,0,1,260,36.76L304.65,24.4a1.68,1.68,0,0,1,2.26,1.68Z"/><rect class="cls-19" x="273.36" y="4.33" width="28.98" height="67.2"/><path class="cls-6" d="M274.68,69.55H301V5.93H274.67Zm1.66-62-.07,0v0Zm15.45,2.37c0,1.75,2,3.17,4.46,3.17a5.46,5.46,0,0,0,3.19-1V63.37a5.46,5.46,0,0,0-3.19-1c-2.46,0-4.46,1.42-4.46,3.17A2.87,2.87,0,0,0,293.29,68H282.24a2.87,2.87,0,0,0,1.51-2.37c0-1.75-2-3.17-4.46-3.17a5.56,5.56,0,0,0-3,.84v-51a5.55,5.55,0,0,0,3,.84c2.46,0,4.46-1.42,4.46-3.17a2.88,2.88,0,0,0-1.51-2.37h11.05A2.88,2.88,0,0,0,291.78,9.89Zm-15.51,58,.07,0h-.07Zm22.92,0,.24-.16V68Zm.24-60.27-.24-.16h.24Z"/><ellipse class="cls-7" cx="287.92" cy="37.74" rx="8.57" ry="6.94"/><circle class="cls-7" cx="288.02" cy="54.51" r="2.92"/><circle class="cls-7" cx="288.01" cy="21.71" r="2.92"/><path class="cls-7" d="M300,37.74c0,5.48-5.4,9.94-12,9.94s-12-4.46-12-9.94,5.4-9.94,12-9.94S300,32.26,300,37.74Zm-22.14,0c0,4.41,4.53,8,10.1,8s10.1-3.59,10.1-8-4.53-8-10.1-8S277.82,33.33,277.82,37.74Z"/><path class="cls-5" d="M299.24,37.93c0,5.08-5.07,9.21-11.31,9.21S276.61,43,276.61,37.93s5.08-9.21,11.31-9.21S299.24,32.85,299.24,37.93Zm-22.14,0c0,4.81,4.86,8.72,10.83,8.72s10.83-3.91,10.83-8.72-4.86-8.72-10.83-8.72S277.09,33.12,277.09,37.93Z"/><rect class="cls-5" x="268.23" y="8.26" width="28.98" height="67.2"/><path class="cls-6" d="M269.54,73.47h26.35V9.85H269.54Zm1.66-62-.07,0v0Zm15.45,2.37c0,1.75,2,3.17,4.46,3.17a5.46,5.46,0,0,0,3.19-1V67.3a5.46,5.46,0,0,0-3.19-1c-2.46,0-4.46,1.42-4.46,3.17a2.87,2.87,0,0,0,1.51,2.37H277.11a2.87,2.87,0,0,0,1.51-2.37c0-1.75-2-3.17-4.46-3.17a5.56,5.56,0,0,0-3,.84v-51a5.55,5.55,0,0,0,3,.84c2.46,0,4.46-1.42,4.46-3.17a2.88,2.88,0,0,0-1.51-2.37h11.05A2.88,2.88,0,0,0,286.65,13.82Zm-15.51,58,.07,0h-.07Zm22.92,0,.24-.16v.16Zm.24-60.27-.24-.16h.24Z"/><ellipse class="cls-7" cx="282.79" cy="41.66" rx="8.57" ry="6.94"/><circle class="cls-7" cx="282.88" cy="58.44" r="2.92"/><circle class="cls-7" cx="282.88" cy="25.64" r="2.92"/><path class="cls-7" d="M294.83,41.66c0,5.48-5.4,9.94-12,9.94s-12-4.46-12-9.94,5.4-9.94,12-9.94S294.83,36.18,294.83,41.66Zm-22.14,0c0,4.41,4.53,8,10.1,8s10.1-3.59,10.1-8-4.53-8-10.1-8S272.69,37.26,272.69,41.67Z"/><path class="cls-5" d="M294.1,41.86c0,5.08-5.07,9.21-11.31,9.21s-11.31-4.13-11.31-9.21,5.08-9.21,11.31-9.21S294.1,36.78,294.1,41.86Zm-22.14,0c0,4.81,4.86,8.72,10.83,8.72s10.83-3.91,10.83-8.72-4.86-8.72-10.83-8.72S272,37.05,272,41.86Z"/><path class="cls-20" d="M322.22,82.54a3,3,0,0,1-3.16,2.89H256.63a3,3,0,0,1-3.16-2.89V33.69a3,3,0,0,1,3.16-2.89h62.43a3,3,0,0,1,3.16,2.89Z"/><path class="cls-10" d="M315.11,82.89H308.6a.92.92,0,0,1,0-1.85h6.52a1.73,1.73,0,0,0,1.83-1.6.92.92,0,1,1,1.85,0A3.57,3.57,0,0,1,315.11,82.89Zm-17.18,0H287.27a.92.92,0,0,1,0-1.85h10.66a.92.92,0,0,1,0,1.85Zm-21.33,0H265.94a.92.92,0,0,1,0-1.85h10.66a.92.92,0,0,1,0,1.85Zm-18.78-3.68a.92.92,0,0,1-.92-.92V67.62a.92.92,0,1,1,1.85,0V78.29A.92.92,0,0,1,257.83,79.21Zm60-7.2a.92.92,0,0,1-.92-.92V60.42a.92.92,0,1,1,1.85,0V71.08A.92.92,0,0,1,317.87,72Zm-60-14.12a.92.92,0,0,1-.92-.92V46.3a.92.92,0,1,1,1.85,0V57A.92.92,0,0,1,257.83,57.88Zm60-7.2a.92.92,0,0,1-.92-.92V39.09a.92.92,0,1,1,1.85,0V49.76A.92.92,0,0,1,317.87,50.68ZM258.11,36.6a.92.92,0,0,1-.81-1.36,3.7,3.7,0,0,1,3.29-1.9h7.67a.92.92,0,0,1,0,1.85h-7.67a1.88,1.88,0,0,0-1.66.93A.92.92,0,0,1,258.11,36.6Zm52.8-1.42H300.24a.92.92,0,0,1,0-1.85h10.66a.92.92,0,0,1,0,1.85Zm-21.33,0H278.92a.92.92,0,0,1,0-1.85h10.66a.92.92,0,0,1,0,1.85Z"/><polygon class="cls-21" points="301.55 61.46 322.22 76.88 322.05 59.86 301.55 61.46"/><path class="cls-10" d="M323.64,59c0,1.59-1.59,2.89-3.55,2.89H303.81c-2,0-3.55-1.29-3.55-2.89V52.73c0-1.59,1.59-2.89,3.55-2.89h16.28c2,0,3.55,1.29,3.55,2.89Z"/><circle class="cls-22" cx="305.18" cy="55.79" r="2.33"/><path class="cls-23" d="M300.26,56.25V59c0,1.59,1.59,2.89,3.55,2.89h16.28c2,0,3.55-1.29,3.55-2.89V56.25Z"/><path class="cls-24" d="M444.77,79.75a2.8,2.8,0,0,1-2.84,2.77H380.3a2.8,2.8,0,0,1-2.84-2.77V19.6a2.8,2.8,0,0,1,2.84-2.77h61.63a2.8,2.8,0,0,1,2.84,2.77Z"/><path class="cls-25" d="M444,77.84a2.7,2.7,0,0,1-2.77,2.62H381a2.7,2.7,0,0,1-2.77-2.62v-57A2.7,2.7,0,0,1,381,18.21h60.21A2.7,2.7,0,0,1,444,20.83Z"/><g class="cls-26"><polygon class="cls-15" points="382.21 73.82 387.19 80.46 444.39 80.46 444.39 43.78 437.07 39.8 384.98 39.74 382.21 41.67 382.21 73.82"/></g><path class="cls-27" d="M441.22,18.21H381a2.69,2.69,0,0,0-2.77,2.6V36.26H444V20.81A2.69,2.69,0,0,0,441.22,18.21Z"/><path class="cls-28" d="M439.46,29.44a2.94,2.94,0,0,1-2.73,3.12h-51.8a2.94,2.94,0,0,1-2.73-3.12V24.68a2.94,2.94,0,0,1,2.73-3.12h51.8a2.94,2.94,0,0,1,2.73,3.12Z"/><path class="cls-29" d="M409.91,53.66a3,3,0,0,1-2.77,3.12h-22a3,3,0,0,1-2.77-3.12V42.86a3,3,0,0,1,2.77-3.12h22a3,3,0,0,1,2.77,3.12Z"/><path class="cls-29" d="M439.46,53.66a3,3,0,0,1-2.77,3.12h-22a3,3,0,0,1-2.77-3.12V42.86a3,3,0,0,1,2.77-3.12h22a3,3,0,0,1,2.77,3.12Z"/><path class="cls-29" d="M409.91,73.08a3,3,0,0,1-2.77,3.12h-22a3,3,0,0,1-2.77-3.12V62.28a3,3,0,0,1,2.77-3.12h22a3,3,0,0,1,2.77,3.12Z"/><path class="cls-30" d="M439.46,73.08a3,3,0,0,1-2.77,3.12h-22a3,3,0,0,1-2.77-3.12V62.28a3,3,0,0,1,2.77-3.12h22a3,3,0,0,1,2.77,3.12Z"/><text></text><path class="cls-31" d="M430.17,63.92a.87.87,0,0,1,.81.92h0a.87.87,0,0,1-.81.92h-9a.87.87,0,0,1-.81-.92h0a.87.87,0,0,1,.81-.92Z"/><path class="cls-31" d="M430.17,69.61a.87.87,0,0,1,.81.92h0a.87.87,0,0,1-.81.92h-9a.87.87,0,0,1-.81-.92h0a.87.87,0,0,1,.81-.92Z"/><path class="cls-32" d="M430.22,47.35a.87.87,0,0,1,.81.92h0a.87.87,0,0,1-.81.92h-9a.87.87,0,0,1-.81-.92h0a.87.87,0,0,1,.81-.92Z"/><path class="cls-32" d="M426.55,43.22a.87.87,0,0,0-.81-.92h0a.87.87,0,0,0-.81.92V53.3a.87.87,0,0,0,.81.92h0a.87.87,0,0,0,.81-.92Z"/><path class="cls-32" d="M399.89,51.18a1,1,0,0,1,0,1.3h0a.75.75,0,0,1-1.15,0l-6.34-7.12a1,1,0,0,1,0-1.3h0a.75.75,0,0,1,1.15,0Z"/><path class="cls-32" d="M399.89,45.35a1,1,0,0,0,0-1.3h0a.75.75,0,0,0-1.15,0l-6.34,7.12a1,1,0,0,0,0,1.3h0a.75.75,0,0,0,1.15,0Z"/><path class="cls-32" d="M391.66,66.77a.87.87,0,0,0-.81.92h0a.87.87,0,0,0,.81.92h9a.87.87,0,0,0,.81-.92h0a.87.87,0,0,0-.81-.92Z"/><ellipse class="cls-32" cx="396.14" cy="64.11" rx="1.06" ry="1.19"/><ellipse class="cls-32" cx="396.14" cy="71.25" rx="1.06" ry="1.19"/><path class="cls-33" d="M396.14,39.74h-11a3,3,0,0,0-2.77,3.12V53.66a3,3,0,0,0,2.77,3.12h11Z"/><path class="cls-33" d="M396.14,59.16h-11a3,3,0,0,0-2.77,3.12V73.09a3,3,0,0,0,2.77,3.12h11Z"/><path class="cls-33" d="M425.69,59.16h-11a3,3,0,0,0-2.77,3.12V73.09a3,3,0,0,0,2.77,3.12h11Z"/><path class="cls-33" d="M425.69,39.74h-11a3,3,0,0,0-2.77,3.12V53.66a3,3,0,0,0,2.77,3.12h11Z"/></g></g></g></svg>