<svg xmlns="http://www.w3.org/2000/svg" viewBox="0 0 75.36 83.92"><defs><style>.cls-1{fill:#fff;}.cls-2{fill:#231f20;}.cls-3{fill:#764d29;}.cls-4{fill:#f5e0cd;}.cls-5{fill:#553f37;}</style></defs><title>panel 3.b</title><g id="Layer_2" data-name="Layer 2"><g id="Layer_1-2" data-name="Layer 1"><path class="cls-1" d="M13.8,58.54A30.08,30.08,0,0,1,2.33,43.17a28,28,0,0,1-.95-3.93C0,30.77,2.45,22.17,8.34,15.05A39.46,39.46,0,0,1,32.42,1.58,42.43,42.43,0,0,1,39.35,1C54,1,66.85,8.67,72,20.54a28.24,28.24,0,0,1,2,6.64c2.27,13.64-5.6,27.23-19.62,34l4.13,21.49-46.86.2Z"/><path class="cls-1" d="M39.35,2C53.59,2,66.12,9.51,71.09,20.94A27.23,27.23,0,0,1,73,27.35c2.28,13.69-6.14,27-19.77,33.31l4.05,21.07-44.56.19,2.14-23.86A29.3,29.3,0,0,1,3.29,42.87a26.85,26.85,0,0,1-.91-3.79C-.44,22.15,13.09,5.8,32.59,2.56A41.28,41.28,0,0,1,39.35,2m0-2a43.4,43.4,0,0,0-7.09.59A40.46,40.46,0,0,0,7.57,14.41C1.49,21.76-1.06,30.64.4,39.41a29,29,0,0,0,1,4.07A31,31,0,0,0,12.75,59l-2,22.72-.2,2.19h2.2l44.56-.19h2.41l-.46-2.37L55.47,61.79C69.47,54.67,77.26,40.88,75,27a29.31,29.31,0,0,0-2-6.88C67.61,7.91,54.43,0,39.35,0Z"/><polygon class="cls-2" points="14.95 56.93 12.71 81.91 57.27 81.73 52.61 57.49 14.95 56.93"/><path class="cls-3" d="M2.37,39.08a26.88,26.88,0,0,0,.91,3.79c1.06-1,12.23-12,12.41-21.92,34.3,7.46,55.37,0,55.37,0h0C65.35,7.73,49.5-.25,32.58,2.56,13.09,5.8-.44,22.15,2.37,39.08Z"/><path class="cls-4" d="M15.69,20.95c-.18,9.95-11.35,20.9-12.41,21.92,4.68,14.76,21.49,24,39.49,21,19.5-3.24,33-19.59,30.21-36.52a27.37,27.37,0,0,0-1.89-6.41h0S50,28.41,15.69,20.95Z"/><path class="cls-5" d="M47,36.55a8.48,8.48,0,0,0,.08,1.68,6.72,6.72,0,0,0,.44,1.65,3.9,3.9,0,0,0,1,1.45,3.31,3.31,0,0,0,.37.27,3.08,3.08,0,0,0,.41.22,3.24,3.24,0,0,0,.44.16,4,4,0,0,0,.45.1l-.13-.72c-.38.17-.76.33-1.14.48s-.77.28-1.17.4-.79.22-1.19.3l-.59.1-.29,0-.27,0-.58.06,0,.59c0,.5.1,1,.18,1.5,0,.25.08.5.12.74s.09.5.14.74.1.5.15.74.11.49.17.74c.12.49.26,1,.43,1.47h.11c.06-.51.09-1,.1-1.53,0-.25,0-.51,0-.76s0-.51,0-.76,0-.5,0-.76,0-.5,0-.75c0-.5-.08-1-.15-1.5l-.54.65.35-.06.33-.07.64-.18c.42-.13.83-.28,1.23-.44s.8-.33,1.19-.51.77-.38,1.15-.58l1-.56-1.18-.16a3.26,3.26,0,0,1-.36,0,2.52,2.52,0,0,1-.35-.09,2.4,2.4,0,0,1-.33-.15,2.67,2.67,0,0,1-.31-.19,3.18,3.18,0,0,1-.54-.52,3.78,3.78,0,0,1-.43-.65,6.34,6.34,0,0,1-.57-1.5,9.29,9.29,0,0,1-.26-1.62Z"/><path class="cls-5" d="M41.69,52a1.39,1.39,0,0,0-.23,0,2.1,2.1,0,0,0-.52,0,1.72,1.72,0,0,0-.62.22c-.2.13-.36.35-.56.51s-.39.33-.57.49l-.48.45c-.28.27-.46.46-.46.46l.06.1.62-.2.62-.23.69-.29c.23-.1.5-.15.7-.27a1.72,1.72,0,0,0,.48-.46,2.1,2.1,0,0,0,.25-.46,1.39,1.39,0,0,0,.07-.22Z"/><path class="cls-4" d="M12,33.81s-1.69-6.73-5.78-3c-4.47,4.1,1.68,8.76,1.68,8.76Z"/><path class="cls-2" d="M60.09,28.59c-4.3,0-4.92,2.12-14.18,2.12S33.73,28.3,28.76,28.3s-8.46,3.28-8.46,7.32,4.63,7.32,10.35,7.32c4.21,0,7.83-1.78,9.45-4.34,0,0,3.69-3,5.67-3a3.26,3.26,0,0,1,2.78,2.09h0c1.19,3,4.88,5.24,9.25,5.24,5.33,0,9.66-3.28,9.66-7.32S64.39,28.59,60.09,28.59ZM31,37.81a2.18,2.18,0,1,1,2.16-2.2A2.18,2.18,0,0,1,31,37.81Zm26.33-.23a2.18,2.18,0,1,1,2.16-2.2A2.18,2.18,0,0,1,57.29,37.58Z"/><path class="cls-5" d="M46.19,49.28a4.5,4.5,0,0,1-.62.49,9.58,9.58,0,0,1-1.86.93,11,11,0,0,1-1.34.38,11.36,11.36,0,0,1-1.53.24,17,17,0,0,1-3.34-.16c-.56-.1-1.13-.14-1.67-.28s-1.08-.22-1.59-.38l-1.45-.44-1.27-.49c-.79-.28-1.4-.63-1.85-.82L29,48.44l0-.11.72.25c.46.14,1.1.42,1.91.62l1.29.35,1.45.31c.5.12,1,.16,1.56.24s1.08.09,1.62.14a22.18,22.18,0,0,0,3.17-.12c.5,0,1-.09,1.44-.14s.89-.13,1.29-.18.77-.12,1.09-.21l.84-.2.73-.22Z"/></g></g></svg>