<svg xmlns="http://www.w3.org/2000/svg" xmlns:xlink="http://www.w3.org/1999/xlink" viewBox="0 0 160.08 250.83"><defs><style>.cls-1{fill:none;}.cls-2{fill:#353539;}.cls-3{fill:#f5e0cd;}.cls-4{fill:#8f9094;}.cls-5{fill:#785730;}.cls-6{fill:#d8d9d8;}.cls-7{fill:#fff;}.cls-8{fill:#efbd1b;}.cls-9{fill:#d7eff2;}.cls-10{clip-path:url(#clip-path);}.cls-11{fill:#0ba6e0;}.cls-12{fill:#282018;}.cls-13{fill:#553f37;}.cls-14{fill:#a9c638;}.cls-15{fill:#81b441;}.cls-16{fill:#bcbcbc;}</style><clipPath id="clip-path"><path class="cls-1" d="M77.43,86.25l-8,23L54.52,88.55S68.91,82.74,77.43,86.25Z"/></clipPath></defs><title>panel 3.a</title><g id="Layer_2" data-name="Layer 2"><g id="Layer_1-2" data-name="Layer 1"><path class="cls-2" d="M85.92,73.79a6.2,6.2,0,0,0-3.15,8c.35.86,8.61,21.2,26.83,28.45a35.29,35.29,0,0,0,13.15,2.53,42.43,42.43,0,0,0,15.21-3l-4-11.46c-7.3,2.79-14.09,3-20.21.53-13.58-5.4-20.14-21.57-20.21-21.73A5.75,5.75,0,0,0,85.92,73.79Z"/><path class="cls-3" d="M134,98.28l4,11.46a56.66,56.66,0,0,0,5.33-2.37A6.22,6.22,0,0,0,146,99.23a5.72,5.72,0,0,0-7.79-2.84A44.55,44.55,0,0,1,134,98.28Z"/><ellipse class="cls-4" cx="70.6" cy="126.19" rx="2.22" ry="2.33"/><path class="cls-2" d="M93,73.6s10.92,64.62,1.7,99.1c5.09-2.28,14.73,7.81,14.73,7.81l-20.84-3.25s4.67-20.43,0-33.15c-14.62.3-41.69,2.62-41.69,2.62a56.57,56.57,0,0,1,0,29.55c5.29-2.6,12.32,7.16,12.32,7.16l-18.86-2.28s1.14-62.29-8.45-94.4c-.52-1.73-1.07-3.38-1.65-4.92C55.89,73.18,93,73.6,93,73.6Z"/><rect class="cls-5" x="34.54" y="135.99" width="15.75" height="6.93" transform="translate(-49.15 26.04) rotate(-22)"/><polygon class="cls-6" points="103.2 114.58 102.96 115.12 50.67 136.5 49.26 132.99 95.47 113.06 103.2 114.58"/><polygon class="cls-7" points="102.96 115.12 99.62 122.54 52.08 140.01 50.67 136.5 102.96 115.12"/><path class="cls-8" d="M53.91,146.65a1.58,1.58,0,0,1-1.46-1L45,127.12A1.58,1.58,0,0,1,48,126l7.41,18.53a1.58,1.58,0,0,1-1.46,2.16Z"/><path class="cls-2" d="M32,77c-.81.64-19.81,15.91-18.39,35.9.81,11.37,7.87,21.45,21,30l5.56-10.75c-9.4-6.26-14.41-13-14.92-20.17C24.29,98.72,38.88,86.8,39,86.68a6.28,6.28,0,0,0,1.13-8.54A5.67,5.67,0,0,0,32,77Z"/><path class="cls-3" d="M40.16,132.12,34.6,142.87q2.14,1.4,4.5,2.74a5.59,5.59,0,0,0,2.79.75A5.79,5.79,0,0,0,47,143.18a6.24,6.24,0,0,0-2.33-8.27Q42.27,133.53,40.16,132.12Z"/><path class="cls-7" d="M140.29,201.81a30.2,30.2,0,0,0-22.57-28.16A20.25,20.25,0,0,0,86.4,159.78a11,11,0,0,0-15.47,1.82,16.34,16.34,0,0,0-28.1-3.87A25.22,25.22,0,0,0,7.37,188.22a16,16,0,0,0-7,13.23c0,1.78,2,3.71,2.52,5.31C2.11,209.07,0,211.32,0,213.89c0,4.13,2.07,9.45,6.51,9.45-5.66,14.56,11.63,27.5,26.88,27.5a30.88,30.88,0,0,0,26-14.17,19.9,19.9,0,0,0,2,.25,20.59,20.59,0,0,0,23.24.73,18.83,18.83,0,0,0,32.71-2.87,20.6,20.6,0,0,0,23-33Z"/><path class="cls-9" d="M142.37,217.68c-4.85,4.45-17.39,1.62-18.2-6.47-.81,6.87-9.3,8.09-14.15,10.51-4,2-8.49-.81-10.11-4.85-4.45,6.87-17,8.09-21,.4-3.64,7.28-12.94,7.68-19.81,4-2-1.21-2.83-3.23-3.64-5.26.81,10.11-6.07,18.6-15.77,21.43-4.85,1.21-9.7-.81-13.75-3.23-4.85-3.23-7.28-8.9-4.85-14.15-5.26,1.21-9.3-2.83-10.11-7.68-.81-3.23.4-6.07,2-8.9a9.1,9.1,0,0,1-9.3-3.64,18.58,18.58,0,0,1-2-4.88,15.92,15.92,0,0,0-1.36,6.45c0,1.78,2,3.71,2.52,5.31C2.11,209.07,0,211.32,0,213.89c0,4.13,2.07,9.45,6.51,9.45-5.66,14.56,11.63,27.5,26.88,27.5a30.88,30.88,0,0,0,26-14.17,19.9,19.9,0,0,0,2,.25,20.59,20.59,0,0,0,23.24.73,18.83,18.83,0,0,0,32.71-2.87,20.6,20.6,0,0,0,28.31-19.11c0-.32,0-.63,0-.94A33.64,33.64,0,0,1,142.37,217.68Z"/><polygon class="cls-4" points="69.43 109.21 55.72 103.03 57.74 99.07 51.03 100.23 50.88 84.2 81.09 78.97 83.69 94.58 77.56 93.69 81.97 99.59 69.43 109.21"/><path class="cls-7" d="M77.43,86.25l-8,23L54.52,88.55S68.91,82.74,77.43,86.25Z"/><g class="cls-10"><path class="cls-11" d="M72.56,88.28l-2.43,7L73,103.64l-3.26,8.6-5.49-7.36,2.44-9.07-4.55-5.72S67.52,80.92,72.56,88.28Z"/></g><ellipse class="cls-3" cx="57.76" cy="56.48" rx="40.44" ry="34.8"/><ellipse class="cls-12" cx="57.76" cy="60.67" rx="2.42" ry="2.53"/><ellipse class="cls-12" cx="80.93" cy="57.45" rx="2.42" ry="2.53"/><path class="cls-13" d="M73,60.54a7.34,7.34,0,0,0-1.07,2c-.06.18-.12.37-.16.56s-.08.39-.11.58a5.23,5.23,0,0,0,0,.6,4,4,0,0,0,0,.61,2.53,2.53,0,0,0,.06.3,2.13,2.13,0,0,0,.08.3,3.76,3.76,0,0,0,.24.57l.15.27.18.25a2.47,2.47,0,0,0,.19.24,2.58,2.58,0,0,0,.21.22,4,4,0,0,0,.45.39,5.38,5.38,0,0,0,.49.34c.17.11.34.19.51.29l.53.24.08-.88-1.42.18L72,67.78l-1.42.1-.71,0h-.68L68,67.86l.81,1,1.63,2,1.65,2,.22-.89c-.24.09-.52.17-.79.24l-.83.2a15.42,15.42,0,0,1-1.68.26l-.85.06c-.28,0-.57,0-.85,0s-.57,0-.85,0l-.85-.08c-.28,0-.57-.07-.85-.13s-.56-.11-.84-.18-.56-.15-.83-.24l-.41-.14-.4-.15c-.27-.11-.53-.23-.8-.35s-.53-.25-.78-.41-.5-.3-.76-.46-.49-.34-.73-.5c.21.21.42.43.65.62s.46.39.7.57.49.35.74.52.52.31.78.45.54.28.81.39.56.22.84.33.57.19.86.27.58.15.88.21.59.11.89.14.6.07.9.09a13.52,13.52,0,0,0,1.81,0,16.36,16.36,0,0,0,1.8-.21c.3-.05.6-.11.89-.18s.58-.15.9-.26l.74-.26L72.87,72l-1.63-2-1.65-2-.42.92h.76l.74,0c.49,0,1-.09,1.46-.16s1-.13,1.45-.21,1-.17,1.44-.26L76.55,68l-1.47-.57-.48-.19c-.15-.08-.31-.14-.46-.22a4.58,4.58,0,0,1-.44-.26l-.21-.15-.2-.16a2,2,0,0,1-.19-.17,1.87,1.87,0,0,1-.18-.18l-.16-.19-.14-.21a3.07,3.07,0,0,1-.24-.45A1.63,1.63,0,0,1,72.3,65a2,2,0,0,1-.07-.25,3.72,3.72,0,0,1-.09-.52,4.73,4.73,0,0,1,0-.54q0-.27,0-.55t.09-.55a7.38,7.38,0,0,1,.32-1.07A7.53,7.53,0,0,1,73,60.54Z"/><path class="cls-13" d="M67.06,76.56h-.2a3.1,3.1,0,0,0-.49.08,4,4,0,0,0-1.28.58,4.17,4.17,0,0,0-1,1,3.37,3.37,0,0,0-.27.44,1.51,1.51,0,0,0-.06.14l0,.05h.2a3.07,3.07,0,0,0,.49-.08,4,4,0,0,0,1.28-.59,4.21,4.21,0,0,0,1-1,3.4,3.4,0,0,0,.27-.44,1.52,1.52,0,0,0,.06-.14Z"/><path class="cls-12" d="M29.45,23.52C33.18,13.66,40,4.23,54.64,3.25S71.75,19.84,93.22,0c0,0,15.24,44.58-53.2,46.36.31,5.53.82,10.38,1,14.81-1.6-1.2-3.4-1.58-4.84-.81-2.45,1.3-3,5.39-1.14,9.12A8.74,8.74,0,0,0,39.63,74a27.07,27.07,0,0,1-6.2,10.26c-4.85-2.78-13-10.74-16.12-19.51C11.41,48.38,12.24,24.6,29.45,23.52Z"/><ellipse class="cls-4" cx="69.82" cy="116.9" rx="2.22" ry="2.33"/><g id="_Group_" data-name="&lt;Group&gt;"><path class="cls-14" d="M153.64,69s2.84,24.07,2.47,37a40.81,40.81,0,0,1-16,23.68L131.18,64.7C141.23,64.82,153.64,69,153.64,69Z"/><path class="cls-15" d="M104.67,71.15s13.44-6.6,26.51-6.45l8.91,64.94s-21.29-4.17-30.35-20.06C107.87,95.82,104.67,71.15,104.67,71.15Z"/><path class="cls-7" d="M140.88,133.81l-1.55-.3c-.94-.18-23.18-4.72-33-22l-.38-.66-.1-.76c-1.85-13.62-5-38.21-5.08-38.46l-.36-2.8,2.53-1.24c.58-.29,14.44-7,28.29-6.85h0c10.55.12,23.13,4.28,23.66,4.46l2.37.79.29,2.48c.12,1,2.87,24.51,2.5,37.58v.39l-.09.38A44.61,44.61,0,0,1,142.21,133Zm-27.34-25.54c6.82,11.23,20.93,15.84,25.7,17.11a37.34,37.34,0,0,0,12.95-19.92C152.41,95.34,150.7,78.37,150,72c-3.95-1.14-12.09-3.25-18.88-3.32h-.4c-8.62,0-17.53,3.18-21.78,4.93C109.84,80.35,112.07,97.41,113.54,108.27Z"/></g><path class="cls-7" d="M132.74,111.24l-13.3-11.39a2.68,2.68,0,1,1,3.48-4.07l7.72,6.61,10.26-24.46A2.68,2.68,0,0,1,145.85,80Z"/><g id="_Group_2" data-name="&lt;Group&gt;"><path class="cls-16" d="M138.2,133.08v-2.74a2,2,0,1,1,3.09.78l-.18.12ZM128,127.33a1.88,1.88,0,0,1-.81-.18l-.29-.14a1.89,1.89,0,1,1,1.64-3.41l.28.13a1.89,1.89,0,0,1-.81,3.6Zm21.15-4.71a1.89,1.89,0,0,1-1.51-3l.18-.24a1.89,1.89,0,0,1,3,2.25l-.2.26A1.89,1.89,0,0,1,149.19,122.62Zm-32-2.24a1.88,1.88,0,0,1-1.24-.46l-.25-.21a1.89,1.89,0,1,1,2.49-2.85l.23.2a1.89,1.89,0,0,1-1.24,3.32Zm38-9.15a1.89,1.89,0,0,1-1.8-2.48l.09-.29a1.89,1.89,0,0,1,3.6,1.16l-.1.31A1.89,1.89,0,0,1,155.17,111.23Zm-45.6-1a1.89,1.89,0,0,1-1.87-1.64l0-.31a1.89,1.89,0,0,1,3.75-.51l0,.32a1.89,1.89,0,0,1-1.62,2.12ZM156,98.44a1.89,1.89,0,0,1-1.89-1.81v-.3l3.78-.19v.32a1.89,1.89,0,0,1-1.81,2Zm-48.1-1A1.89,1.89,0,0,1,106,95.77l0-.31a1.89,1.89,0,0,1,3.75-.5l0,.31a1.89,1.89,0,0,1-1.63,2.12ZM155.1,85.53a1.89,1.89,0,0,1-1.88-1.73l0-.31a1.89,1.89,0,0,1,3.77-.32l0,.31a1.89,1.89,0,0,1-1.72,2Zm-48.92-.95a1.89,1.89,0,0,1-1.87-1.64l0-.32a1.89,1.89,0,0,1,3.75-.49l0,.31a1.89,1.89,0,0,1-1.63,2.12Zm47.66-11.93A1.89,1.89,0,0,1,152,71l0-.31a1.89,1.89,0,0,1,3.76-.41l0,.32A1.89,1.89,0,0,1,154,72.64Zm-48-.16a1.89,1.89,0,0,1-.77-3.62l.3-.13a1.89,1.89,0,1,1,1.52,3.46l-.28.12A1.89,1.89,0,0,1,105.86,72.49Zm12.22-4.19a1.89,1.89,0,0,1-.46-3.73l.32-.08a1.89,1.89,0,1,1,.89,3.67l-.29.07A1.9,1.9,0,0,1,118.08,68.3Zm24.8-.27a1.9,1.9,0,0,1-.39,0l-.3-.06a1.89,1.89,0,1,1,.75-3.71l.32.06a1.89,1.89,0,0,1-.38,3.74Zm-11.7-1.43h-.32a1.89,1.89,0,0,1,0-3.78h.34a1.89,1.89,0,0,1,0,3.78Z"/></g></g></g></svg>