<svg xmlns="http://www.w3.org/2000/svg" xmlns:xlink="http://www.w3.org/1999/xlink" viewBox="0 0 262.55 156.29"><defs><style>.cls-1{fill:none;}.cls-2{isolation:isolate;}.cls-3{fill:#6d6f71;opacity:0.24;mix-blend-mode:multiply;}.cls-4{fill:#f5e0cd;}.cls-5{fill:#fff;}.cls-6{fill:#231f20;}.cls-7{fill:#bd2237;}.cls-8{fill:#8b5e3c;}.cls-9{fill:#f1dbcb;}.cls-10{fill:#553f37;}.cls-11{fill:#a7aaac;}.cls-12{fill:#e7e8e9;}.cls-13{fill:#e5e5e5;}.cls-14{fill:#526173;}.cls-15{fill:#2e3c51;}.cls-16{fill:#5f7182;}.cls-17{fill:#e66a24;}.cls-18{fill:#d1d3d4;}.cls-19{fill:#353539;}.cls-20{fill:#8f9094;}.cls-21{clip-path:url(#clip-path);}.cls-22{fill:#0ba6e0;}.cls-23{fill:#010101;}.cls-24,.cls-25{fill-rule:evenodd;}.cls-24{fill:url(#linear-gradient);}.cls-25{fill:url(#linear-gradient-2);}.cls-26{fill:#282018;}</style><clipPath id="clip-path"><path class="cls-1" d="M195.81,75.21l14.35,18.39L216.45,74S202.91,71,195.81,75.21Z"/></clipPath><linearGradient id="linear-gradient" x1="-8383.95" y1="6697.77" x2="-8383.95" y2="6686.68" gradientTransform="translate(-8269.15 6842.21) rotate(180)" gradientUnits="userSpaceOnUse"><stop offset="0" stop-color="#e8f2fb"/><stop offset="1" stop-color="#fff"/></linearGradient><linearGradient id="linear-gradient-2" x1="143.36" y1="155.21" x2="143.36" y2="141" gradientTransform="matrix(1, 0, 0, 1, 0, 0)" xlink:href="#linear-gradient"/></defs><title>panel 1</title><g class="cls-2"><g id="Layer_2" data-name="Layer 2"><g id="Layer_1-2" data-name="Layer 1"><ellipse class="cls-3" cx="61.87" cy="84.82" rx="61.87" ry="8.3"/><path class="cls-4" d="M130.63,54.47a2.5,2.5,0,0,1,0,5,18.75,18.75,0,0,1-10.85-2.94l2.87-4A14.09,14.09,0,0,0,130.63,54.47Z"/><path class="cls-5" d="M122.65,52.48l-2.87,4a12.28,12.28,0,0,1-5.4-8.35,2.5,2.5,0,0,1,5-.57A7.36,7.36,0,0,0,122.65,52.48Z"/><path class="cls-5" d="M97.81,30.1a2.5,2.5,0,0,1-1.87,3c-.51.12-9.48,2.43-15.25,13.53h0L75.8,45.53l-.13-.06c6.8-14.25,18.52-17.11,19.15-17.25A2.49,2.49,0,0,1,97.81,30.1Z"/><path class="cls-4" d="M80.68,46.62h0A42.73,42.73,0,0,0,76.47,60.5,2.5,2.5,0,0,1,74,62.66a2.07,2.07,0,0,1-.35,0,2.5,2.5,0,0,1-2.13-2.82,48.41,48.41,0,0,1,4.15-14.34l.13.06Z"/><path class="cls-6" d="M83.79,63.18a27,27,0,0,0,.3,4.48c1.3,8.14-3.44,15.87-3.44,15.87l5.47,6.79s.61-4.78-1.64-6.78c6-11.71,5.07-15.23,5.07-15.23a191.33,191.33,0,0,0,20.08.65l1.25,14.72,10.82,1.14S117.4,81.27,114,81.4a58.37,58.37,0,0,1-.08-17.09h-.08s-7.64.59-29.72-1.12Z"/><path class="cls-5" d="M83.79,63.18h.29c22.08,1.71,29.72,1.12,29.72,1.12h.08a52.86,52.86,0,0,1,5.85-18.21l-19-21.67c-13.23.7-15.9,27.3-15.9,27.3C84.39,55.56,83.82,59.5,83.79,63.18Z"/><polygon class="cls-7" points="114.63 48.23 112.06 50.65 111.53 62.29 108.01 62.42 109.6 49.73 108.75 47.13 113.04 45.53 114.63 48.23"/><path class="cls-8" d="M118,10.13c11.44,1.75,19.46,11.38,17.9,21.51a15.92,15.92,0,0,1-.5,2.21c-13.37-1.72-22.35-13.71-23.8-16.33-5,4.94-16.26,5.89-16.75,5.94C97.36,14.35,107.31,8.48,118,10.13Z"/><path class="cls-9" d="M111.65,17.52c1.45,2.62,10.42,14.61,23.8,16.33-2.63,8.88-12.44,14.56-23,12.94C101,45,93,35.4,94.52,25.28a15.65,15.65,0,0,1,.39-1.82C95.39,23.41,106.7,22.46,111.65,17.52Z"/><path class="cls-10" d="M113.56,32.8c-2.49.89-4.46.77-5.67-1.62C108.06,34.26,111.54,34.73,113.56,32.8Z"/><path class="cls-10" d="M127.17,35.72c-2.58,1.5-4.86,1.84-5.83-1.3C121.09,38.31,125.08,38.32,127.17,35.72Z"/><path class="cls-10" d="M115.09,41.11a9.52,9.52,0,0,0-.67-.92l-.36-.42c-.13-.15-.27-.3-.42-.45s-.31-.31-.49-.46-.35-.3-.54-.43-.38-.27-.58-.4a3.37,3.37,0,0,0-.63-.31,2.16,2.16,0,0,0-.33-.09,2.08,2.08,0,0,0-.33,0,2.35,2.35,0,0,0-.62,0,1.88,1.88,0,0,0-.5.15,1.76,1.76,0,0,0-.34.2,1.67,1.67,0,0,0-.18.17l-.06.06,0,.07h.09l.23,0c.1,0,.21,0,.34,0a3.09,3.09,0,0,1,.41,0,3.85,3.85,0,0,1,.47.1l.25.08.26.09.56.19a4.67,4.67,0,0,1,.57.27c.19.1.37.22.55.34l.52.36c.33.25.63.49.88.71s.45.41.6.55l.22.22Z"/><path class="cls-10" d="M119.24,35.3a4.77,4.77,0,0,0-.46.83,3.78,3.78,0,0,0-.28.92,2.19,2.19,0,0,0,.05,1,1.86,1.86,0,0,0,.1.24,1.73,1.73,0,0,0,.13.23,1.82,1.82,0,0,0,.16.2,2.24,2.24,0,0,0,.19.18l.15-.38-.69-.11c-.23,0-.45-.09-.68-.15s-.44-.13-.66-.21L117,37.9l-.15-.07-.14-.07-.3-.14-.15.3c-.13.25-.25.51-.36.77l-.16.39-.15.4c0,.13-.1.27-.15.4s-.09.27-.14.41-.17.55-.23.83l.06,0c.18-.23.34-.46.5-.7l.23-.36.22-.37.21-.37.2-.37c.13-.25.26-.5.37-.76l-.45.15.19.08.18.06.36.1.72.16.72.11.72.06.67,0-.51-.43a1.83,1.83,0,0,1-.16-.13l-.14-.15a1.35,1.35,0,0,1-.12-.17,1.5,1.5,0,0,1-.09-.18,1.79,1.79,0,0,1-.11-.41,2.13,2.13,0,0,1,0-.44,3.57,3.57,0,0,1,.17-.89,5.23,5.23,0,0,1,.36-.85Z"/><path class="cls-10" d="M112.14,41.1,112,41a1.18,1.18,0,0,0-.26-.14,1,1,0,0,0-.36-.08c-.13,0-.27.06-.42.08l-.42.07-.36.07-.35.08v.06l.35.08.36.07.42.07c.14,0,.28.07.42.08a1,1,0,0,0,.36-.08,1.18,1.18,0,0,0,.26-.14l.1-.08Z"/><path class="cls-9" d="M101.72,23.72s1.34-4.47-2.43-4.74c-2.12-.16-3.58,5.61-2,5.48A42,42,0,0,0,101.72,23.72Z"/><path class="cls-11" d="M87.87,64.43l-3.61,2a1.38,1.38,0,0,1,1.19,1.11c.14,1-.29,2.36.06,2.4S87,69.45,87,68.69,88.79,65.56,87.87,64.43Z"/><path class="cls-11" d="M111,65l2.11,1.88s-.16,2.28-1,2.82C111.81,70,111,65,111,65Z"/><polygon class="cls-5" points="104.75 64.33 101.95 66.77 91.17 63.69 104.75 64.33"/><polygon class="cls-5" points="105.91 63.69 106.96 66.77 109.88 63.79 105.91 63.69"/><polygon class="cls-12" points="75.8 42.89 73.41 46.62 79.89 48.29 81.67 44.88 75.8 42.89"/><polygon class="cls-12" points="119.77 56.54 124.47 52.51 122.05 50.5 117.47 54.94 119.77 56.54"/><path class="cls-13" d="M86.81,78.24a1,1,0,0,1-.55-.15l-4.64-2.84a1,1,0,0,1,1.09-1.78l4.64,2.84a1,1,0,0,1-.55,1.94Z"/><path class="cls-13" d="M71.77,75.75a1,1,0,0,1-.09-2.09l5.42-.48a1,1,0,0,1,.18,2.09l-5.42.48Z"/><path class="cls-13" d="M66.91,75.69h-.12l-5.41-.6A1,1,0,0,1,61.62,73l5.41.6a1,1,0,0,1-.11,2.09Z"/><path class="cls-13" d="M56.86,74h-.12l-5.41-.6a1,1,0,0,1,.23-2.08L57,72A1,1,0,0,1,56.86,74Z"/><path class="cls-13" d="M41.3,75.22A1,1,0,0,1,41,73.17l5.23-1.48a1,1,0,0,1,.57,2l-5.23,1.48A1.05,1.05,0,0,1,41.3,75.22Z"/><path class="cls-13" d="M81.67,77.28H77.56a2.1,2.1,0,0,1-2.09-2.09V72.6a2.1,2.1,0,0,1,2.09-2.09h4.11a2.1,2.1,0,0,1,2.09,2.09v2.59A2.1,2.1,0,0,1,81.67,77.28Zm0-2.09v0ZM77.56,72.6v2.59h4.11V72.6Z"/><path class="cls-13" d="M71.32,78.09H67.21A2.1,2.1,0,0,1,65.11,76V73.41a2.1,2.1,0,0,1,2.09-2.09h4.11a2.1,2.1,0,0,1,2.09,2.09V76A2.1,2.1,0,0,1,71.32,78.09Zm0-2.09v0Zm-4.11-2.59V76h4.11V73.41Z"/><path class="cls-13" d="M50.86,75.8H46.76a2.1,2.1,0,0,1-2.09-2.09V71.12A2.1,2.1,0,0,1,46.76,69h4.11A2.1,2.1,0,0,1,53,71.12v2.59A2.1,2.1,0,0,1,50.86,75.8Zm0-2.09v0Zm-4.11-2.59v2.59h4.11V71.12Z"/><path class="cls-13" d="M60.86,77.13l-.33,0h0l-4.06-.64a2.1,2.1,0,0,1-1.74-2.4l.41-2.55a2.1,2.1,0,0,1,2.4-1.74l4.06.64a2.1,2.1,0,0,1,1.74,2.4l-.41,2.55a2.1,2.1,0,0,1-2.06,1.77Zm0-2.09-.16,1,.16-1h0Zm-3.65-3.2-.41,2.55,4.06.64.41-2.55Z"/><polygon class="cls-14" points="17.94 17.46 17.94 87.31 8.94 86.08 8.94 19.66 17.94 17.46"/><polygon class="cls-15" points="41.55 84.04 17.94 87.31 17.94 17.46 41.55 20.73 41.55 84.04"/><polygon class="cls-16" points="38.73 26.79 20.98 24.83 20.98 22.62 38.73 24.74 38.73 26.79"/><polygon class="cls-16" points="38.73 31.39 20.98 29.78 20.98 27.58 38.73 29.35 38.73 31.39"/><polygon class="cls-16" points="38.73 36 20.98 34.74 20.98 32.54 38.73 33.95 38.73 36"/><polygon class="cls-16" points="38.73 40.6 20.98 39.7 20.98 37.49 38.73 38.56 38.73 40.6"/><polygon class="cls-17" points="38.73 44.95 20.98 44.38 20.98 42.18 38.73 42.9 38.73 44.95"/><path class="cls-16" d="M34.58,68.92a4.68,4.68,0,0,1-4.31,4.48,4,4,0,0,1-4.47-3.87A4.67,4.67,0,0,1,30.27,65,3.94,3.94,0,0,1,34.58,68.92Z"/><path class="cls-5" d="M106.88,22.92s-2.18,3.57,0,3.57C109.44,26.49,106.88,22.92,106.88,22.92Z"/><path class="cls-5" d="M112.58,24.61s-2.18,3.57,0,3.57C115.14,28.18,112.58,24.61,112.58,24.61Z"/><path class="cls-5" d="M134.91,41.78s-2.18,3.57,0,3.57C137.47,45.35,134.91,41.78,134.91,41.78Z"/><path class="cls-5" d="M131.27,34.94s-2.18,3.57,0,3.57C133.83,38.51,131.27,34.94,131.27,34.94Z"/><ellipse class="cls-3" cx="209.55" cy="144.04" rx="52.99" ry="12.25"/><path class="cls-5" d="M238.6,143.68l.62,6.31,18.89-4.63s-7.59-5.9-15.19-3.29C239.66,143.18,238.6,143.68,238.6,143.68Z"/><path class="cls-18" d="M242.18,135.13a2.65,2.65,0,0,1,1,1.74l.91,6.71a2.65,2.65,0,0,1-5.26.71l-.91-6.71a2.65,2.65,0,0,1,4.26-2.45Z"/><path class="cls-5" d="M172.41,125.49l-4.36-4.6L156,136.15s9.62,0,14-6.73C171.87,126.53,172.41,125.49,172.41,125.49Z"/><path class="cls-18" d="M174.83,134.44a2.65,2.65,0,0,1-1.86-.76l-4.84-4.73a2.65,2.65,0,0,1,3.71-3.79l4.84,4.73a2.65,2.65,0,0,1-1.86,4.55Z"/><path class="cls-19" d="M180.76,66.1l6.31,54s1.43,14.31-3.05,13.75c-2.64-.33-9.42-8.36-9.42-8.36l-.75,1.54-2.78,5.74s11.64,12.28,16.15,11.11,7.59-16.75,7.59-16.75l30,.3s7.14-.53,9.62,3.25c2.82,4.29,2.71,10.92,2.71,10.92l7.17-1.82s1.19-13.66-11.38-17.94l-3.44-57.73Z"/><polygon class="cls-20" points="191.09 72.65 192.53 84.85 198.56 83.19 196.02 87.89 210.17 93.61 221.51 84.85 216.56 79.2 226.1 81.46 224.09 66.77 191.09 72.65"/><path class="cls-5" d="M195.81,75.21l14.35,18.39,6.39-19.81S202.91,71,195.81,75.21Z"/><path class="cls-19" d="M185.64,67.72a50,50,0,0,1,1.15,9.11c-28.31-1.26-24.69,11.4-23.54,19.76l-9.89,0C150.42,63.54,185.64,67.72,185.64,67.72Z"/><path class="cls-4" d="M163.26,96.62c1.15,8.36-8.9,9.72-9.76,1.32-.05-.45-.1-.89-.13-1.33l9.89,0Z"/><g class="cls-21"><path class="cls-22" d="M200.79,75.37l5.75,7.92-.19,7.63,5.12,6.14,2.72-7.59-4.54-6.76,3.25-8.23S203.13,67.91,200.79,75.37Z"/></g><path class="cls-19" d="M228.69,75.46a50.26,50.26,0,0,1-1.15-9.11c28.31,1.26,24.69-11.4,23.54-19.76l9.89,0C263.91,79.64,228.69,75.46,228.69,75.46Z"/><path class="cls-4" d="M251.07,46.56c-1.15-8.36,8.9-9.72,9.76-1.32.05.45.1.89.13,1.33l-9.89,0Z"/><ellipse class="cls-4" cx="201.4" cy="49.3" rx="26.81" ry="32.57" transform="translate(70.61 210.19) rotate(-64.64)"/><circle class="cls-20" cx="211.48" cy="98.38" r="1.79" transform="translate(-7.44 17.9) rotate(-4.76)"/><circle class="cls-20" cx="212.15" cy="106.4" r="1.79" transform="translate(-8.1 17.99) rotate(-4.76)"/><circle class="cls-23" cx="200.98" cy="50.43" r="1.77" transform="translate(69.35 210.45) rotate(-64.64)"/><circle class="cls-23" cx="185.08" cy="42.89" r="1.77" transform="translate(67.06 191.77) rotate(-64.64)"/><path class="cls-10" d="M190.2,45.32a6,6,0,0,1,.12,1.9c0,.16,0,.32-.07.48s-.07.32-.12.47a4.13,4.13,0,0,1-.18.46,3.2,3.2,0,0,1-.25.44,2,2,0,0,1-.15.2l-.17.19a3,3,0,0,1-.39.34l-.21.14-.23.12-.23.11-.24.09a3.38,3.38,0,0,1-.49.13,4.66,4.66,0,0,1-.5.07l-.5,0h-.5l.25-.68,1,.66,1.06.64,1.07.6L190,52l.27.13.26.12,1,.42-1,.43-2,.87-2,.85.14-.75c.16.15.35.32.53.47l.57.45a13.87,13.87,0,0,0,1.22.82l.64.36.66.33c.22.11.45.2.67.29l.69.25c.23.07.47.15.71.21s.48.12.72.18.48.1.73.12l.37,0,.37,0c.25,0,.5,0,.75,0s.5,0,.75,0,.5,0,.75-.06.5-.07.75-.1c-.24.08-.48.16-.73.22s-.49.12-.75.17-.51.08-.76.11-.51,0-.77,0-.52,0-.77,0-.51,0-.77-.06-.51-.07-.77-.12-.51-.11-.76-.17l-.75-.22c-.25-.08-.49-.17-.73-.27a12.2,12.2,0,0,1-1.41-.66,14.73,14.73,0,0,1-1.33-.82c-.21-.15-.43-.3-.63-.47s-.4-.33-.61-.53l-.49-.47.63-.28,2-.87,2-.85v.85l-.3-.14-.29-.15-.56-.3c-.37-.21-.73-.43-1.08-.65l-1.05-.69c-.35-.23-.69-.48-1-.73l-1.1-.81,1.35.12.44,0H187a4,4,0,0,0,.43,0l.21,0,.21,0,.21-.06.2-.07.2-.08.19-.1a2.5,2.5,0,0,0,.34-.25l.16-.15a1.59,1.59,0,0,0,.14-.16,3,3,0,0,0,.26-.35,3.73,3.73,0,0,0,.21-.39q.09-.21.16-.42t.12-.44a5.89,5.89,0,0,0,.13-.92A6.08,6.08,0,0,0,190.2,45.32Z"/><path class="cls-10" d="M189.18,59.47l0,0,.12.06a2.79,2.79,0,0,1,.36.24,3.57,3.57,0,0,1,.79.91,3.53,3.53,0,0,1,.45,1.12,2.76,2.76,0,0,1,.05.43,1.22,1.22,0,0,1,0,.13v0l0,0-.12-.06a2.76,2.76,0,0,1-.36-.24,3.53,3.53,0,0,1-.79-.91,3.57,3.57,0,0,1-.45-1.12,2.79,2.79,0,0,1-.05-.43,1.23,1.23,0,0,1,0-.13Z"/><path class="cls-24" d="M107.92,150.82a2.46,2.46,0,0,0,3,2.41,2.14,2.14,0,0,0,3.32,1.22,2.11,2.11,0,0,0,3.76-.18,2.6,2.6,0,0,0,2.33-4.66,2.52,2.52,0,0,0-3.14-3.8,4,4,0,0,0-7.06,2.56A2.46,2.46,0,0,0,107.92,150.82Z"/><path class="cls-25" d="M151.32,145.79a5,5,0,0,0-9.94-.79,2.87,2.87,0,0,0-4.26,2.31,3.52,3.52,0,1,0,1.16,6.47,1.84,1.84,0,0,0,3,.28,5.26,5.26,0,0,0,7.31-.72,4,4,0,0,0,2.71-7.54Z"/><path class="cls-26" d="M229.71,19.57c-3.11-8.2-8.8-16.05-21-16.86S194.51,16.5,176.66,0c0,0-12.68,37.08,44.25,38.56-.26,4.6-.69,8.63-.81,12.32a3.77,3.77,0,0,1,4-.68c2,1.08,2.46,4.48.95,7.59a7.27,7.27,0,0,1-3.84,3.78,22.52,22.52,0,0,0,5.16,8.54c4-2.32,10.77-8.93,13.4-16.23C244.71,40.25,244,20.46,229.71,19.57Z"/></g></g></g></svg>