<svg xmlns="http://www.w3.org/2000/svg" xmlns:xlink="http://www.w3.org/1999/xlink" viewBox="0 0 187.27 245.93"><defs><style>.cls-1,.cls-21{fill:none;}.cls-2{fill:#d7eff2;}.cls-3{fill:#fafae4;}.cls-4{fill:#353539;}.cls-5{fill:#f5e0cd;}.cls-6{fill:#fedbc0;}.cls-7{fill:#fff;}.cls-8{fill:#f3f3f3;}.cls-9{fill:#5a4b42;}.cls-10{fill:#8f9094;}.cls-11{clip-path:url(#clip-path);}.cls-12{fill:#0ba6e0;}.cls-13{fill:#010101;}.cls-14{fill:#553f37;}.cls-15{fill:#282018;}.cls-16{fill:#6d6f71;}.cls-17{fill:#555554;}.cls-18{fill:#bd2237;}.cls-19{fill:#f1dbcb;}.cls-20{fill:#7e4a21;}.cls-21{stroke:#010101;stroke-linecap:round;stroke-linejoin:round;stroke-width:0.5px;}.cls-22{fill:#e7e8e9;}.cls-23{fill:#a7aaac;}</style><clipPath id="clip-path" transform="translate(-0.25)"><path class="cls-1" d="M104.88,44.57l7.26,12.87,7.26-13.86S109.85,41.6,104.88,44.57Z"/></clipPath></defs><title>panel 2</title><g id="Layer_2" data-name="Layer 2"><g id="Layer_1-2" data-name="Layer 1"><path class="cls-2" d="M37.87,90.44C39.76,72.69,64,75.08,75.11,85.26c-.55-7.76,2.89-15.48,11-18.36,5.89-2.09,12.47.87,16.66,4.94A15.71,15.71,0,0,1,105,74.59c1.63-8.42,8-15.41,18.1-15.87,12.3-.56,18.66,11.71,17.57,22.61,3.32-4.82,8.2-8.09,14.79-7.11a18.63,18.63,0,0,1,15,15.34c7.21-2.27,16.56-10.26,17-1.3.55,11.71-5.84,25.53-22,27.53-9.58,1.19-15-1.32-20.45-3.7-7.79,7.32-13.74,1.93-15.52-.68-31,16.46-41.47,6.25-53-3.21C64.89,118.62,35.25,115,37.87,90.44Z" transform="translate(-0.25)"/><path class="cls-3" d="M37.9,87.65C40.12,69.93,64,65,75.11,75.21c-.55-7.76,2.89-15.48,11-18.36,5.89-2.09,12.47.87,16.66,4.94A15.71,15.71,0,0,1,105,64.54c1.63-8.42,8-15.41,18.1-15.87,12.3-.56,18.66,11.71,17.57,22.61,3.32-4.82,8.2-8.09,14.79-7.11a18.63,18.63,0,0,1,15,15.34c7.21-2.27,17.56-.21,17,8.74-1.66,25.62-37.07,20.6-42.45,13.78-6.86,7.41-12.85,2.66-15.52-.68-25.16,12.42-41.47,6.25-53-3.21C61.86,113.64,35.25,108.86,37.9,87.65Z" transform="translate(-0.25)"/><path class="cls-4" d="M100.16,41.16a2.8,2.8,0,0,1,2.41,3.14c0,.38-1.33,9.49-8.35,13.31a13.66,13.66,0,0,1-6.63,1.64,21,21,0,0,1-7.11-1.37L82,52.48c3.88,1.47,7.08,1.55,9.51.22C96,50.25,97,43.64,97,43.57A2.8,2.8,0,0,1,100.16,41.16Z" transform="translate(-0.25)"/><path class="cls-5" d="M82,52.48l-1.54,5.4c-.95-.34-1.92-.74-2.9-1.2A2.81,2.81,0,0,1,80,51.6C80.68,51.93,81.36,52.23,82,52.48Z" transform="translate(-0.25)"/><path class="cls-4" d="M129.2,38.82c.72.65,6.79,6.86,6.17,31.46h-4.81C131.13,48.09,126,42.45,126,42.4a2.4,2.4,0,1,1,3.22-3.58Z" transform="translate(-0.25)"/><path class="cls-6" d="M130.56,70.28h4.81c0,1-.06,1.95-.1,3a2.4,2.4,0,0,1-2.4,2.3h-.11A2.4,2.4,0,0,1,130.47,73C130.51,72.08,130.54,71.17,130.56,70.28Z" transform="translate(-0.25)"/><path class="cls-7" d="M76,61.09a.94.94,0,0,1-.94.94H66.73a.94.94,0,0,1-.94-.94l-.63-12.91a.94.94,0,0,1,.94-.94h9.6a.94.94,0,0,1,.94.94Z" transform="translate(-0.25)"/><path class="cls-8" d="M75.76,47.24H71V62h4.17a.94.94,0,0,0,.94-.94l.63-12.91A.94.94,0,0,0,75.76,47.24Z" transform="translate(-0.25)"/><path class="cls-8" d="M76.18,56.77h-.25V55.46h.25a2.43,2.43,0,1,0,0-4.82h-.25V49.34h.25a3.73,3.73,0,1,1,0,7.43Z" transform="translate(-0.25)"/><path class="cls-9" d="M75,49.59H66.82a.8.8,0,1,1,0-1.6H75a.8.8,0,1,1,0,1.6Z" transform="translate(-0.25)"/><path class="cls-4" d="M127.52,38.86c4.41,3,4.28,32,2.28,35.11-3.94,6.19-33.69-3-33.69-3S93.23,44.31,98.9,37.54C107,27.81,124.92,37.08,127.52,38.86Z" transform="translate(-0.25)"/><polygon class="cls-10" points="111.89 57.44 119.83 52.34 118.18 50.19 122.47 50.19 120.99 40.61 101.63 40.61 101.55 50.19 105.29 49.03 103.12 53 111.89 57.44"/><path class="cls-7" d="M104.88,44.57l7.26,12.87,7.26-13.86S109.85,41.6,104.88,44.57Z" transform="translate(-0.25)"/><g class="cls-11"><path class="cls-12" d="M108.12,45.28l2.21,4-.95,5.26,2.88,4.79,2.7-5-2.42-5.16,2.27-3.88S110.54,40.37,108.12,45.28Z" transform="translate(-0.25)"/></g><ellipse class="cls-5" cx="111.22" cy="27.87" rx="20.33" ry="17.65"/><circle class="cls-13" cx="112.62" cy="28.29" r="1.24"/><circle class="cls-13" cx="100.31" cy="28.29" r="1.24"/><path class="cls-14" d="M104.53,28.29a4.18,4.18,0,0,1,.65,1.16c0,.11.07.21.1.32s0,.22.06.34a2.89,2.89,0,0,1,0,.35,2.24,2.24,0,0,1,0,.35,1.4,1.4,0,0,1,0,.17,1.19,1.19,0,0,1-.05.17,2.12,2.12,0,0,1-.14.33l-.09.16-.11.15-.12.14-.12.13a2.37,2.37,0,0,1-.27.23,3.26,3.26,0,0,1-.29.19l-.31.17-.32.14,0-.51.86.11.86.09.86.06.43,0h.41l.74,0-.49.57-1,1.14-1,1.13-.13-.51.48.14.5.11a9.7,9.7,0,0,0,1,.15l.51,0H108l.51,0,.51,0,.51-.08L110,35c.17,0,.34-.08.5-.14l.25-.08.24-.09.48-.2c.16-.08.32-.15.47-.23s.3-.17.46-.26.29-.2.44-.29c-.13.12-.26.25-.39.36s-.28.23-.42.33-.29.2-.45.3l-.47.26c-.16.08-.32.16-.49.23s-.34.13-.51.19l-.52.15c-.17,0-.35.08-.53.12l-.54.08-.54,0a8.53,8.53,0,0,1-1.09,0,10.3,10.3,0,0,1-1.08-.12l-.54-.11c-.18,0-.35-.09-.54-.15l-.45-.15.32-.36,1-1.14,1-1.13.26.53h-.46l-.45,0-.88-.09-.87-.12-.87-.15-.94-.18.89-.33.29-.11.28-.13a2.79,2.79,0,0,0,.26-.15l.13-.08.12-.09.11-.1.11-.1.1-.11.09-.12a1.75,1.75,0,0,0,.14-.26.91.91,0,0,0,.05-.14,1.11,1.11,0,0,0,0-.14,2.06,2.06,0,0,0,.06-.3,2.61,2.61,0,0,0,0-.31q0-.16,0-.31T105,29.5a4.12,4.12,0,0,0-.19-.62A4.26,4.26,0,0,0,104.53,28.29Z" transform="translate(-0.25)"/><path class="cls-14" d="M108.12,37.54h.12l.3,0a2.5,2.5,0,0,1,.77.34,2.47,2.47,0,0,1,.62.57,1.93,1.93,0,0,1,.16.26l0,.08v0H110l-.3,0a2.47,2.47,0,0,1-.77-.34,2.5,2.5,0,0,1-.62-.57,2,2,0,0,1-.16-.25l0-.08Z" transform="translate(-0.25)"/><circle class="cls-10" cx="112.08" cy="61.29" r="0.86"/><circle class="cls-10" cx="112.08" cy="65.15" r="0.86"/><path class="cls-4" d="M97.79,93.87c-.24-1.16,5.12-7.35,5.12-7.35s-.4-9.09,3.77-12.27c7.65-5.84,19.47-4.86,20-4.77l-1.07,6.33.53-3.16-.53,3.16c-2.77-.46-10.75-.83-14.34,2.91-2,2.06-2.52,5.38-1.6,9.86Z" transform="translate(-0.25)"/><path class="cls-4" d="M85,91.39C84.79,90.24,90.15,84,90.15,84s-.4-9.09,3.77-12.27c7.65-5.84,19.47-4.86,20-4.77l-1.07,6.33.53-3.16-.53,3.16c-2.77-.46-10.75-.83-14.34,2.91-2,2.06-2.52,5.38-1.6,9.86Z" transform="translate(-0.25)"/><path class="cls-15" d="M121.81,6.25c-3.35-4.14-8.12-7.59-15.29-5.74s-5.59,10.66-19,4.54c0,0-.27,23.8,32.85,13.84.72,2.7,1.24,5.11,1.87,7.26A2.29,2.29,0,0,1,124.41,25c1.38.24,2.27,2.12,2,4.2a4.41,4.41,0,0,1-1.49,2.91A13.67,13.67,0,0,0,129.5,36a21.32,21.32,0,0,0,4.65-11.91C134.39,15.33,130.23,4,121.81,6.25Z" transform="translate(-0.25)"/><ellipse class="cls-16" cx="57.89" cy="235.6" rx="44.68" ry="10.33"/><path class="cls-5" d="M117.9,185.48s4.74-.38,5.76-3.81c1.54-5.19-2.76-6.86-7.07-6.68" transform="translate(-0.25)"/><polygon class="cls-17" points="115.2 169.61 117.09 177.3 88.12 180.4 65.37 122.22 101.38 105.9 115.2 169.61"/><polyline class="cls-4" points="101.38 105.9 81.6 105.9 54.71 117.36 54.82 121.98 65.37 122.22 101.38 105.9"/><polygon class="cls-10" points="99.35 115.64 72.45 126.71 73.87 130.17 100.22 119.42 99.35 115.64"/><polygon class="cls-10" points="101.12 123.28 75.05 134.01 76.47 137.46 101.99 127.06 101.12 123.28"/><polygon class="cls-10" points="102.88 130.91 77.63 141.3 79.06 144.76 103.75 134.69 102.88 130.91"/><polygon class="cls-10" points="104.66 138.6 80.05 148.73 81.47 152.18 105.53 142.37 104.66 138.6"/><polygon class="cls-10" points="106.45 146.34 82.18 156.33 83.61 159.79 107.32 150.12 106.45 146.34"/><polygon class="cls-10" points="108.21 153.98 84.04 163.93 85.46 167.39 109.08 157.75 108.21 153.98"/><polygon class="cls-10" points="110.04 161.88 87.35 171.22 88.78 174.68 110.91 165.65 110.04 161.88"/><polygon class="cls-4" points="65.37 122.22 70.36 134.99 56.07 133.28 54.71 121.02 65.37 122.22"/><path class="cls-13" d="M91.35,200a327.64,327.64,0,0,1-1.06,33.13A128.88,128.88,0,0,1,68.08,235c3.74-4.24,13.73-5.53,13.73-5.53V209c-17.19,2-38.37,1.25-38.37,1.25L41.7,233.66l-18.94,2s7.55-6.23,13.55-6a117.42,117.42,0,0,0,1-27.56C40.48,202.22,56.87,202.69,91.35,200Z" transform="translate(-0.25)"/><path class="cls-7" d="M90.17,180c.72,6.73,1.06,13.58,1.19,20-34.48,2.67-50.88,2.2-54,2.07-1.58-19-7.63-29.74-7.63-29.74L62.35,132.2C85.5,133.42,90.17,180,90.17,180Z" transform="translate(-0.25)"/><polygon class="cls-18" points="37.72 173.86 42.2 178.09 43.13 198.45 49.29 198.68 46.52 176.47 48.01 171.93 40.49 169.12 37.72 173.86"/><path class="cls-19" d="M67.21,136.64c0,.79.06,1.59.06,2.39a33.14,33.14,0,0,1-33.14,33.14c-14.4,0-27.11-9.93-31.88-23.09l.26-.09s28.13-1.75,44.32-30.89C47.32,138.56,66,136.78,67.21,136.64Z" transform="translate(-0.25)"/><path class="cls-20" d="M66,130a23.22,23.22,0,0,1,1.2,6.67c-1.17.13-19.89,1.92-20.37-18.54C30.64,147.24,2.51,149,2.51,149l-.26.09a33.05,33.05,0,0,1-2-11.25c0-.9-.47-13.79,6.58-21.54C25.26,96,57.09,105,66,130Z" transform="translate(-0.25)"/><path class="cls-21" d="M67.27,136.64h-.06" transform="translate(-0.25)"/><path class="cls-14" d="M35,149.88c3.83,1.38,6.86,1.18,8.72-2.49C43.5,152.12,38.14,152.85,35,149.88Z" transform="translate(-0.25)"/><path class="cls-14" d="M14.1,154.36c4,2.3,7.47,2.82,9-2C23.46,158.35,17.32,158.37,14.1,154.36Z" transform="translate(-0.25)"/><path class="cls-14" d="M32.68,162.65a14.64,14.64,0,0,1,1-1.41c.17-.2.35-.42.55-.65s.42-.46.65-.69.48-.47.75-.7.54-.46.84-.67.59-.42.9-.62a5.18,5.18,0,0,1,1-.48,3.32,3.32,0,0,1,.51-.14,3.21,3.21,0,0,1,.51-.07,3.61,3.61,0,0,1,.95,0,2.89,2.89,0,0,1,.76.24,2.7,2.7,0,0,1,.52.31,2.58,2.58,0,0,1,.28.26l.09.1-.06.11h-.13l-.35,0c-.15,0-.32,0-.52,0a4.74,4.74,0,0,0-.63.05,5.92,5.92,0,0,0-.72.15l-.38.12-.4.13-.87.3a7.18,7.18,0,0,0-.88.41c-.29.16-.57.34-.85.52l-.8.56c-.51.38-1,.76-1.36,1.1s-.7.64-.92.84l-.34.33Z" transform="translate(-0.25)"/><path class="cls-14" d="M26.3,153.71A7.33,7.33,0,0,1,27,155a5.82,5.82,0,0,1,.42,1.41,3.37,3.37,0,0,1-.08,1.53,2.86,2.86,0,0,1-.15.37,2.66,2.66,0,0,1-.2.35,2.8,2.8,0,0,1-.25.31,3.44,3.44,0,0,1-.29.28l-.23-.59c.35,0,.71-.1,1.06-.17s.7-.14,1-.24.68-.2,1-.32l.48-.2.23-.1.21-.1.46-.22.23.46c.2.39.38.78.55,1.18l.25.6c.08.2.16.4.24.61s.16.41.22.62.14.41.21.62c.14.42.26.84.36,1.28l-.09,0c-.27-.35-.53-.71-.77-1.08-.12-.18-.24-.37-.35-.56s-.23-.37-.34-.56-.22-.38-.32-.57l-.31-.57c-.2-.39-.4-.78-.57-1.17l.69.24-.29.12-.27.09-.55.16c-.37.09-.73.17-1.1.24s-.74.12-1.11.17-.74.07-1.11.1l-1,.06.79-.66a2.82,2.82,0,0,0,.24-.2,2.18,2.18,0,0,0,.22-.23,2.08,2.08,0,0,0,.18-.26,2.31,2.31,0,0,0,.14-.28,2.75,2.75,0,0,0,.16-.63,3.27,3.27,0,0,0,0-.67,5.49,5.49,0,0,0-.27-1.36,8,8,0,0,0-.55-1.31Z" transform="translate(-0.25)"/><path class="cls-14" d="M37.22,162.64a1.2,1.2,0,0,1,.15-.13,1.82,1.82,0,0,1,.4-.22,1.49,1.49,0,0,1,.56-.12c.2,0,.42.09.64.12l.64.11.56.11.55.13v.1l-.55.13-.56.11-.64.11c-.22,0-.44.11-.64.12a1.49,1.49,0,0,1-.56-.12,1.82,1.82,0,0,1-.4-.22,1.2,1.2,0,0,1-.15-.13Z" transform="translate(-0.25)"/><path class="cls-5" d="M117.34,177.3c1.12,4.27,1.77,8,1.77,8a39.21,39.21,0,0,1-24.07-2l4.12-7.54A32.23,32.23,0,0,0,117.34,177.3Z" transform="translate(-0.25)"/><path class="cls-7" d="M99.15,175.71,95,183.25a40.84,40.84,0,0,1-13.18-9l6.56-5.15c.26.26.53.52.81.77A33.38,33.38,0,0,0,99.15,175.71Z" transform="translate(-0.25)"/><path class="cls-19" d="M56,137.46s1.17-9.33,3.74-7.3,5.5,8.62,3,8.43A64.56,64.56,0,0,1,56,137.46Z" transform="translate(-0.25)"/><polygon class="cls-22" points="93.76 171.46 99.33 175.11 94.89 183.52 89.26 181.41 93.76 171.46"/><path class="cls-14" d="M54.33,145.39a4.92,4.92,0,0,1,.36,1,7.39,7.39,0,0,1,.19,1.06,6.81,6.81,0,0,1,0,1.24,5.57,5.57,0,0,1-.26,1.22,2.94,2.94,0,0,1-.23.53,3.76,3.76,0,0,1-.25.45,3.71,3.71,0,0,1-.7.78l.13-.25a4.94,4.94,0,0,0,.32-.66,5.85,5.85,0,0,0,.31-1,8.29,8.29,0,0,0,.19-1.14,14.75,14.75,0,0,0,0-2.2C54.37,145.81,54.33,145.39,54.33,145.39Z" transform="translate(-0.25)"/><path class="cls-14" d="M56.32,145.87a4.92,4.92,0,0,1,.36,1,7.38,7.38,0,0,1,.19,1.06,6.83,6.83,0,0,1,0,1.24,5.57,5.57,0,0,1-.26,1.22,2.94,2.94,0,0,1-.23.53,3.68,3.68,0,0,1-1,1.23l.13-.25a4.94,4.94,0,0,0,.32-.66,5.85,5.85,0,0,0,.31-1,8.29,8.29,0,0,0,.19-1.14,14.75,14.75,0,0,0,0-2.2C56.36,146.28,56.32,145.87,56.32,145.87Z" transform="translate(-0.25)"/><path class="cls-14" d="M52.3,148.27a4.93,4.93,0,0,1,1-.39,7.39,7.39,0,0,1,1.05-.22,6.82,6.82,0,0,1,1.24,0,5.59,5.59,0,0,1,1.23.23,3,3,0,0,1,.54.21,3.68,3.68,0,0,1,1.25.92l-.26-.13a4.93,4.93,0,0,0-.67-.3,5.86,5.86,0,0,0-1-.28,8.29,8.29,0,0,0-1.15-.16,14.76,14.76,0,0,0-2.2,0C52.71,148.22,52.3,148.27,52.3,148.27Z" transform="translate(-0.25)"/><path class="cls-14" d="M52.3,149.94a4.92,4.92,0,0,1,1-.39,7.39,7.39,0,0,1,1.05-.22,6.83,6.83,0,0,1,1.24,0,5.58,5.58,0,0,1,1.23.23,3,3,0,0,1,.54.21,3.68,3.68,0,0,1,1.25.92l-.26-.13a4.93,4.93,0,0,0-.67-.3,5.86,5.86,0,0,0-1-.28,8.29,8.29,0,0,0-1.15-.16,14.77,14.77,0,0,0-2.2,0C52.71,149.88,52.3,149.94,52.3,149.94Z" transform="translate(-0.25)"/><path class="cls-23" d="M84.47,203.21l6.19,3.48a2.37,2.37,0,0,0-2,1.9c-.25,1.69.49,4-.11,4.12s-2.6-.91-2.5-2.22S82.89,205.14,84.47,203.21Z" transform="translate(-0.25)"/><path class="cls-23" d="M44.12,204.14,39.34,207s1.41,3.38.67,4.5.81,2.11,1,1.48.56-2.74.74-3.34S46.38,206.5,44.12,204.14Z" transform="translate(-0.25)"/><polygon class="cls-7" points="47.4 201.11 53.19 206.55 84.88 200.02 47.4 201.11"/></g></g></svg>