<svg xmlns="http://www.w3.org/2000/svg" viewBox="0 0 31.46 136.5"><defs><style>.cls-1{isolation:isolate;}.cls-2{fill:#6d6f71;opacity:0.62;mix-blend-mode:multiply;}.cls-3{opacity:0.59;mix-blend-mode:overlay;}.cls-4{fill:#fff;}.cls-5{fill:#b2d23c;}.cls-6{fill:#a8c638;}.cls-7{fill:#80b341;}</style></defs><title>stat 2</title><g class="cls-1"><g id="Layer_2" data-name="Layer 2"><g id="Layer_1-2" data-name="Layer 1"><ellipse class="cls-2" cx="15.73" cy="132.28" rx="15.73" ry="4.23"/><g class="cls-3"><path class="cls-4" d="M4.24,106a.33.33,0,0,0,.33-.34v-3.4a.33.33,0,1,0-.66,0v3.4A.33.33,0,0,0,4.24,106Z"/><path class="cls-4" d="M4.24,99.24a.33.33,0,0,0,.33-.34V95.5a.33.33,0,1,0-.66,0v3.4A.33.33,0,0,0,4.24,99.24Z"/><path class="cls-4" d="M4.24,92.45a.33.33,0,0,0,.33-.34v-3.4a.33.33,0,1,0-.66,0v3.4A.33.33,0,0,0,4.24,92.45Z"/><path class="cls-4" d="M4.24,112.82a.33.33,0,0,0,.33-.34v-3.4a.33.33,0,1,0-.66,0v3.4A.33.33,0,0,0,4.24,112.82Z"/><path class="cls-4" d="M4.24,126.4a.33.33,0,0,0,.33-.34v-3.4a.33.33,0,1,0-.66,0v3.4A.33.33,0,0,0,4.24,126.4Z"/><path class="cls-4" d="M4.24,119.61a.33.33,0,0,0,.33-.34v-3.4a.33.33,0,1,0-.66,0v3.4A.33.33,0,0,0,4.24,119.61Z"/><path class="cls-4" d="M5.46,131.2l-.89-.29v-1.45a.33.33,0,1,0-.66,0v1.94H4l1.3.43.1,0a.33.33,0,0,0,.31-.24A.34.34,0,0,0,5.46,131.2Z"/><path class="cls-4" d="M11.74,133.29l-3.14-1-.1,0a.33.33,0,0,0-.31.24.34.34,0,0,0,.21.43l3.14,1,.1,0a.33.33,0,0,0,.31-.24A.34.34,0,0,0,11.74,133.29Z"/><path class="cls-4" d="M4.24,78.87a.33.33,0,0,0,.33-.34v-3.4a.33.33,0,1,0-.66,0v3.4A.33.33,0,0,0,4.24,78.87Z"/><path class="cls-4" d="M4.24,44.91a.33.33,0,0,0,.33-.34v-3.4a.33.33,0,1,0-.66,0v3.4A.33.33,0,0,0,4.24,44.91Z"/><path class="cls-4" d="M4.24,24.54a.33.33,0,0,0,.33-.34v-3.4a.33.33,0,1,0-.66,0v3.4A.33.33,0,0,0,4.24,24.54Z"/><path class="cls-4" d="M4.24,31.33A.33.33,0,0,0,4.57,31V27.6a.33.33,0,1,0-.66,0V31A.33.33,0,0,0,4.24,31.33Z"/><path class="cls-4" d="M4.24,17.75a.33.33,0,0,0,.33-.34V14a.33.33,0,1,0-.66,0v3.4A.33.33,0,0,0,4.24,17.75Z"/><path class="cls-4" d="M4.24,38.12a.33.33,0,0,0,.33-.34v-3.4a.33.33,0,1,0-.66,0v3.4A.33.33,0,0,0,4.24,38.12Z"/><path class="cls-4" d="M4.24,72.08a.33.33,0,0,0,.33-.34v-3.4a.33.33,0,1,0-.66,0v3.4A.33.33,0,0,0,4.24,72.08Z"/><path class="cls-4" d="M4.24,11a.33.33,0,0,0,.33-.34V7.22a.33.33,0,1,0-.66,0v3.4A.33.33,0,0,0,4.24,11Z"/><path class="cls-4" d="M17.72,133.8l-.1,0-2.15.71-.59-.19-.1,0a.33.33,0,0,0-.31.24.34.34,0,0,0,.21.43l.79.26h.08l2.27-.75A.34.34,0,0,0,18,134,.33.33,0,0,0,17.72,133.8Z"/><path class="cls-4" d="M4.24,65.29a.33.33,0,0,0,.33-.34v-3.4a.33.33,0,1,0-.66,0v3.4A.33.33,0,0,0,4.24,65.29Z"/><path class="cls-4" d="M4.24,58.49a.33.33,0,0,0,.33-.34v-3.4a.33.33,0,1,0-.66,0v3.4A.33.33,0,0,0,4.24,58.49Z"/><path class="cls-4" d="M4.24,51.7a.33.33,0,0,0,.33-.34V48a.33.33,0,1,0-.66,0v3.4A.33.33,0,0,0,4.24,51.7Z"/><path class="cls-4" d="M4.24,85.66a.33.33,0,0,0,.33-.34v-3.4a.33.33,0,1,0-.66,0v3.4A.33.33,0,0,0,4.24,85.66Z"/><path class="cls-4" d="M26.69,59.52a.33.33,0,0,0-.33.34v3.4a.33.33,0,1,0,.66,0v-3.4A.33.33,0,0,0,26.69,59.52Z"/><path class="cls-4" d="M26.69,32.36a.33.33,0,0,0-.33.34v3.4a.33.33,0,1,0,.66,0V32.7A.33.33,0,0,0,26.69,32.36Z"/><path class="cls-4" d="M26.69,39.15a.33.33,0,0,0-.33.34v3.4a.33.33,0,1,0,.66,0v-3.4A.33.33,0,0,0,26.69,39.15Z"/><path class="cls-4" d="M26.69,52.73a.33.33,0,0,0-.33.34v3.4a.33.33,0,1,0,.66,0v-3.4A.33.33,0,0,0,26.69,52.73Z"/><path class="cls-4" d="M26.69,45.94a.33.33,0,0,0-.33.34v3.4a.33.33,0,1,0,.66,0v-3.4A.33.33,0,0,0,26.69,45.94Z"/><path class="cls-4" d="M26.69,25.57a.33.33,0,0,0-.33.34v3.4a.33.33,0,1,0,.66,0v-3.4A.33.33,0,0,0,26.69,25.57Z"/><path class="cls-4" d="M26.69,18.78a.33.33,0,0,0-.33.34v3.4a.33.33,0,1,0,.66,0v-3.4A.33.33,0,0,0,26.69,18.78Z"/><path class="cls-4" d="M24,131.71l-.1,0-3.14,1a.34.34,0,0,0-.21.43.33.33,0,0,0,.31.24l.1,0,1.88-.62h.06l1.2-.4a.34.34,0,0,0,.21-.43A.33.33,0,0,0,24,131.71Z"/><path class="cls-4" d="M26.69,5.2a.33.33,0,0,0-.33.34v3.4a.33.33,0,1,0,.66,0V5.53A.33.33,0,0,0,26.69,5.2Z"/><path class="cls-4" d="M26.69,12a.33.33,0,0,0-.33.34v3.4a.33.33,0,1,0,.66,0v-3.4A.33.33,0,0,0,26.69,12Z"/><path class="cls-4" d="M26.69,66.31a.33.33,0,0,0-.33.34V70A.33.33,0,1,0,27,70v-3.4A.33.33,0,0,0,26.69,66.31Z"/><path class="cls-4" d="M26.69,113.85a.33.33,0,0,0-.33.34v3.4a.33.33,0,1,0,.66,0v-3.4A.33.33,0,0,0,26.69,113.85Z"/><path class="cls-4" d="M26.69,100.27a.33.33,0,0,0-.33.34V104a.33.33,0,1,0,.66,0v-3.4A.33.33,0,0,0,26.69,100.27Z"/><path class="cls-4" d="M26.69,107.06a.33.33,0,0,0-.33.34v3.4a.33.33,0,1,0,.66,0v-3.4A.33.33,0,0,0,26.69,107.06Z"/><path class="cls-4" d="M26.69,127.43a.33.33,0,0,0-.33.34v3.4a.33.33,0,0,0,.33.34h0l.16-.05a.34.34,0,0,0,.15-.29v-3.4A.33.33,0,0,0,26.69,127.43Z"/><path class="cls-4" d="M26.69,120.64a.33.33,0,0,0-.33.34v3.4a.33.33,0,1,0,.66,0V121A.33.33,0,0,0,26.69,120.64Z"/><path class="cls-4" d="M26.69,73.1a.33.33,0,0,0-.33.34v3.4a.33.33,0,1,0,.66,0v-3.4A.33.33,0,0,0,26.69,73.1Z"/><path class="cls-4" d="M26.69,79.89a.33.33,0,0,0-.33.34v3.4a.33.33,0,1,0,.66,0v-3.4A.33.33,0,0,0,26.69,79.89Z"/><path class="cls-4" d="M26.69,93.48a.33.33,0,0,0-.33.34v3.4a.33.33,0,1,0,.66,0v-3.4A.33.33,0,0,0,26.69,93.48Z"/><path class="cls-4" d="M26.69,86.69a.33.33,0,0,0-.33.34v3.4a.33.33,0,1,0,.66,0V87A.33.33,0,0,0,26.69,86.69Z"/><path class="cls-4" d="M15.8,96a.34.34,0,1,0-.68,0v3.4a.34.34,0,1,0,.68,0Z"/><path class="cls-4" d="M15.8,102.75a.34.34,0,1,0-.68,0v3.4a.34.34,0,1,0,.68,0Z"/><path class="cls-4" d="M15.8,89.16a.34.34,0,1,0-.68,0v3.4a.34.34,0,1,0,.68,0Z"/><path class="cls-4" d="M15.8,109.54a.34.34,0,1,0-.68,0v3.4a.34.34,0,1,0,.68,0Z"/><path class="cls-4" d="M15.47,129.57a.34.34,0,0,0-.34.34v3.4a.34.34,0,1,0,.68,0v-3.4A.34.34,0,0,0,15.47,129.57Z"/><path class="cls-4" d="M15.8,123.12a.34.34,0,1,0-.68,0v3.4a.34.34,0,1,0,.68,0Z"/><path class="cls-4" d="M15.13,7.67v3.4a.34.34,0,1,0,.68,0V7.67a.33.33,0,0,0,0-.1L27,3.84,15.47,0,3.92,3.84,15.15,7.57A.33.33,0,0,0,15.13,7.67Z"/><path class="cls-4" d="M15.8,116.33a.34.34,0,1,0-.68,0v3.4a.34.34,0,1,0,.68,0Z"/><path class="cls-4" d="M15.8,82.37a.34.34,0,1,0-.68,0v3.4a.34.34,0,1,0,.68,0Z"/><path class="cls-4" d="M15.8,14.46a.34.34,0,1,0-.68,0v3.4a.34.34,0,1,0,.68,0Z"/><path class="cls-4" d="M15.8,34.84a.34.34,0,1,0-.68,0v3.4a.34.34,0,1,0,.68,0Z"/><path class="cls-4" d="M15.8,41.63a.34.34,0,1,0-.68,0V45a.34.34,0,1,0,.68,0Z"/><path class="cls-4" d="M15.8,75.58a.34.34,0,1,0-.68,0V79a.34.34,0,1,0,.68,0Z"/><path class="cls-4" d="M15.8,21.25a.34.34,0,1,0-.68,0v3.4a.34.34,0,1,0,.68,0Z"/><path class="cls-4" d="M15.8,28a.34.34,0,1,0-.68,0v3.4a.34.34,0,1,0,.68,0Z"/><path class="cls-4" d="M15.8,68.79a.34.34,0,1,0-.68,0v3.4a.34.34,0,1,0,.68,0Z"/><path class="cls-4" d="M15.8,62a.34.34,0,1,0-.68,0v3.4a.34.34,0,1,0,.68,0Z"/><path class="cls-4" d="M15.8,48.42a.34.34,0,1,0-.68,0v3.4a.34.34,0,1,0,.68,0Z"/><path class="cls-4" d="M15.8,55.21a.34.34,0,1,0-.68,0v3.4a.34.34,0,1,0,.68,0Z"/></g><polygon class="cls-5" points="27.35 60.09 15.46 56.25 3.58 60.09 15.46 63.92 27.35 60.09"/><polygon class="cls-6" points="3.58 60.09 15.46 63.92 15.46 135.24 3.58 131.4 3.58 60.09"/><polygon class="cls-7" points="15.46 63.92 27.35 60.09 27.35 131.4 15.46 135.24 15.46 63.92"/></g></g></g></svg>