<?xml version="1.0" encoding="utf-8"?>
<!-- Generator: Adobe Illustrator 21.0.2, SVG Export Plug-In . SVG Version: 6.00 Build 0)  -->
<svg version="1.1" id="Layer_1" xmlns="http://www.w3.org/2000/svg" xmlns:xlink="http://www.w3.org/1999/xlink" x="0px" y="0px"
	 viewBox="0 0 61.6 155.1" style="enable-background:new 0 0 61.6 155.1;" xml:space="preserve">
<style type="text/css">
	.st0{opacity:0.6;fill:#231F20;enable-background:new    ;}
	.st1{enable-background:new    ;}
	.st2{fill:#FFFFFF;}
	.st3{fill:#EC5A5E;}
	.st4{fill:#9C1C25;}
	.st5{fill:#E81A44;}
</style>
<title>stat_3_a</title>
<g>
	<g id="Layer_2">
		<g id="Layer_1-2">
			<path class="st0" d="M3.3,140.3h55.4c1.6,0,2.9,1.3,2.9,2.9v9c0,1.6-1.3,2.9-2.9,2.9H3.3c-1.6,0-2.9-1.3-2.9-2.9v-9
				C0.5,141.6,1.7,140.3,3.3,140.3z"/>
			<g class="st1">
				<path class="st2" d="M17.1,149.9c-0.4,0.4-1,0.7-1.6,0.7c-0.3,0-0.6-0.1-0.9-0.2c-0.3-0.1-0.5-0.3-0.8-0.5
					c-0.2-0.2-0.4-0.5-0.5-0.9s-0.1-0.9-0.1-1.7c0-0.7,0-1.2,0-1.6c0-0.4,0.2-0.7,0.6-1.1c0.4-0.4,0.9-0.6,1.5-0.6
					c0.3,0,0.6,0.1,0.9,0.2c0.3,0.1,0.5,0.3,0.8,0.5c0.2,0.2,0.4,0.5,0.5,0.9s0.1,0.9,0.1,1.7c0,0.7,0,1.2,0,1.6
					C17.6,149.2,17.4,149.6,17.1,149.9z M16.7,145c-0.2-0.2-0.3-0.3-0.5-0.4s-0.4-0.1-0.7-0.1c-0.5,0-0.9,0.1-1.1,0.4
					c-0.3,0.3-0.4,0.6-0.5,0.9c-0.1,0.3-0.1,0.8-0.1,1.5c0,0.6,0,1.1,0,1.4s0.2,0.6,0.4,0.8c0.2,0.2,0.4,0.4,0.6,0.4
					s0.4,0.1,0.7,0.1c0.5,0,0.9-0.1,1.1-0.4c0.3-0.3,0.4-0.6,0.5-0.9c0.1-0.3,0.1-0.8,0.1-1.5c0-0.6,0-1.1,0-1.4
					C17.1,145.5,16.9,145.2,16.7,145z"/>
			</g>
			<g class="st1">
				<path class="st2" d="M22.2,150.5v-2.7c0-0.9-0.4-1.3-1.2-1.3c-0.4,0-0.7,0.1-0.9,0.3c-0.2,0.2-0.3,0.5-0.3,1v2.7h-0.5v-4.3h0.5
					v0.5c0.3-0.4,0.8-0.6,1.3-0.6c0.5,0,0.9,0.1,1.2,0.4c0.3,0.3,0.4,0.7,0.4,1.2v2.8H22.2z"/>
			</g>
			<g class="st1">
				<path class="st2" d="M24.2,148.3v-0.4h2.4v0.4H24.2z"/>
			</g>
			<g class="st1">
				<path class="st2" d="M30.7,147.8h-1.9v2.7h-0.5v-6.4h2.3c0.6,0,1,0.2,1.4,0.5c0.4,0.3,0.5,0.8,0.5,1.4c0,0.6-0.2,1-0.5,1.4
					C31.7,147.6,31.3,147.8,30.7,147.8z M30.6,144.5h-1.8v2.8h1.8c0.5,0,0.8-0.1,1.1-0.4c0.3-0.2,0.4-0.6,0.4-1.1s-0.1-0.8-0.4-1.1
					C31.5,144.6,31.1,144.5,30.6,144.5z"/>
			</g>
			<g class="st1">
				<path class="st2" d="M36.4,146.8c-0.1-0.1-0.3-0.2-0.4-0.3c-0.1,0-0.3-0.1-0.4-0.1c-0.4,0-0.7,0.1-0.9,0.4
					c-0.2,0.2-0.3,0.6-0.3,0.9v2.7H34v-4.3h0.5v0.6c0.1-0.2,0.3-0.4,0.5-0.5c0.2-0.1,0.5-0.2,0.7-0.2c0.2,0,0.4,0,0.6,0.1
					c0.2,0.1,0.3,0.2,0.5,0.3L36.4,146.8z"/>
			</g>
			<g class="st1">
				<path class="st2" d="M38,148.4c0,0.6,0.1,1,0.4,1.3c0.2,0.3,0.6,0.4,1.1,0.4c0.5,0,0.8-0.2,1.2-0.5l0.3,0.3
					c-0.2,0.2-0.5,0.4-0.7,0.5c-0.2,0.1-0.5,0.2-0.9,0.2c-0.6,0-1.1-0.2-1.4-0.6s-0.5-0.9-0.5-1.7c0-0.7,0.2-1.2,0.5-1.6
					c0.3-0.4,0.7-0.6,1.3-0.6c0.5,0,1,0.2,1.3,0.6c0.3,0.4,0.5,0.9,0.5,1.6v0.2H38z M40.4,147.2c-0.1-0.2-0.2-0.4-0.4-0.5
					c-0.2-0.1-0.4-0.2-0.7-0.2s-0.5,0.1-0.7,0.2c-0.2,0.1-0.3,0.3-0.4,0.5c-0.1,0.2-0.1,0.3-0.1,0.4c0,0.1,0,0.2,0,0.4h2.6
					c0-0.2,0-0.3,0-0.4C40.5,147.5,40.5,147.4,40.4,147.2z"/>
			</g>
			<g class="st1">
				<path class="st2" d="M48.2,150.5v-2.7c0-0.9-0.4-1.3-1.2-1.3c-0.4,0-0.7,0.1-0.9,0.3c-0.2,0.2-0.3,0.5-0.3,0.9v2.8h-0.5v-2.7
					c0-0.9-0.4-1.3-1.2-1.3c-0.4,0-0.7,0.1-0.9,0.3c-0.2,0.2-0.3,0.5-0.3,1v2.7h-0.5v-4.3h0.5v0.5c0.3-0.4,0.8-0.6,1.3-0.6
					c0.7,0,1.1,0.3,1.4,0.8c0.3-0.5,0.8-0.8,1.5-0.8c0.2,0,0.4,0,0.6,0.1c0.2,0.1,0.4,0.2,0.6,0.4c0.2,0.2,0.3,0.6,0.3,1.1v2.8H48.2
					z"/>
			</g>
			<polygon class="st3" points="51,40.2 31,51.3 11.1,40.2 31,30.2 			"/>
			<polyline class="st4" points="31,135.3 31,51.3 51,40.2 50.9,124.3 31,135.3 			"/>
			<polygon class="st5" points="11.1,124.3 31,135.3 31,51.3 11.1,40.2 			"/>
			<g class="st1">
				<path class="st2" d="M6.1,20.6V6.1L2.7,9V6.3L6,3.4h2.4v17.1H6.1V20.6z"/>
			</g>
			<g class="st1">
				<path class="st2" d="M17.9,20.7c-1.4,0-2.6-0.4-3.5-1.3S13,17.3,13,15.8V8.2c0-1.5,0.5-2.7,1.4-3.6s2.1-1.3,3.5-1.3
					s2.6,0.4,3.5,1.3c1,0.9,1.4,2.1,1.4,3.6v7.6c0,1.5-0.5,2.7-1.4,3.6C20.5,20.2,19.3,20.7,17.9,20.7z M20.4,8.3
					c0-0.8-0.2-1.5-0.7-2c-0.4-0.5-1.1-0.8-1.8-0.8c-0.8,0-1.4,0.3-1.8,0.8s-0.7,1.2-0.7,2v7.4c0,0.8,0.2,1.5,0.7,2
					c0.4,0.5,1,0.8,1.8,0.8s1.4-0.3,1.8-0.8s0.7-1.2,0.7-2V8.3z"/>
			</g>
			<g class="st1">
				<path class="st2" d="M30.6,20.7c-1.5,0-2.8-0.4-3.7-1.2c-1-0.8-1.5-2-1.5-3.6h2.4c0,0.9,0.3,1.5,0.8,2c0.5,0.4,1.2,0.7,2,0.7
					s1.5-0.3,2-0.8s0.8-1.2,0.8-2.1s-0.2-1.6-0.7-2.1s-1.2-0.7-2.1-0.7h-0.4v-2.1h0.4c0.9,0,1.5-0.2,2-0.7C33,9.6,33.2,9,33.2,8.2
					c0-0.9-0.2-1.5-0.7-2s-1.1-0.7-1.8-0.7c-0.8,0-1.4,0.2-1.9,0.7c-0.5,0.4-0.7,1-0.7,1.8h-2.4c0-1.4,0.5-2.5,1.4-3.4
					c1-0.8,2.2-1.3,3.6-1.3c1.5,0,2.6,0.4,3.6,1.3s1.4,2,1.4,3.5c0,0.9-0.2,1.6-0.6,2.2c-0.4,0.6-0.9,1.1-1.6,1.4
					c0.8,0.3,1.4,0.8,1.8,1.5s0.6,1.5,0.6,2.5c0,1.6-0.5,2.8-1.5,3.7S32.1,20.7,30.6,20.7z"/>
			</g>
			<g class="st1">
				<path class="st2" d="M38.7,20.6v-3h2.9v3H38.7z"/>
			</g>
			<g class="st1">
				<path class="st2" d="M49.7,20.7c-1.5,0-2.8-0.4-3.7-1.2c-1-0.8-1.5-2-1.5-3.6h2.4c0,0.9,0.3,1.5,0.8,2c0.5,0.4,1.2,0.7,2,0.7
					s1.5-0.3,2-0.8s0.8-1.2,0.8-2.1s-0.2-1.6-0.7-2.1s-1.2-0.7-2.1-0.7h-0.4v-2.1h0.4c0.9,0,1.5-0.2,2-0.7s0.6-1.1,0.6-1.9
					c0-0.9-0.2-1.5-0.7-2s-1.1-0.7-1.8-0.7c-0.8,0-1.4,0.2-1.9,0.7s-0.7,1-0.7,1.8h-2.4c0-1.4,0.5-2.5,1.4-3.4
					c1-0.8,2.2-1.3,3.6-1.3c1.5,0,2.6,0.4,3.6,1.3c0.9,0.9,1.4,2,1.4,3.5c0,0.9-0.2,1.6-0.6,2.2c-0.4,0.6-0.9,1.1-1.6,1.4
					c0.8,0.3,1.4,0.8,1.8,1.5c0.4,0.7,0.6,1.5,0.6,2.5c0,1.6-0.5,2.8-1.5,3.7S51.2,20.7,49.7,20.7z"/>
			</g>
		</g>
	</g>
</g>
</svg>
