<?xml version="1.0" encoding="utf-8"?>
<!-- Generator: Adobe Illustrator 21.0.2, SVG Export Plug-In . SVG Version: 6.00 Build 0)  -->
<svg version="1.1" id="Layer_1" xmlns="http://www.w3.org/2000/svg" xmlns:xlink="http://www.w3.org/1999/xlink" x="0px" y="0px"
	 viewBox="0 0 45.9 98.3" style="enable-background:new 0 0 45.9 98.3;" xml:space="preserve">
<style type="text/css">
	.st0{opacity:0.6;fill:#231F20;enable-background:new    ;}
	.st1{enable-background:new    ;}
	.st2{fill:#FFFFFF;}
	.st3{fill:#FBE283;}
	.st4{fill:#AB9531;}
	.st5{fill:#F8D315;}
</style>
<title>stat_3_b</title>
<g>
	<g id="Layer_2">
		<g id="Layer_1-2">
			<path class="st0" d="M3.8,83.6h38.4c1.6,0,2.9,1.3,2.9,2.9v9c0,1.6-1.3,2.9-2.9,2.9H3.8c-1.6,0-2.9-1.3-2.9-2.9v-9
				C0.9,84.9,2.2,83.6,3.8,83.6z"/>
			<g class="st1">
				<path class="st2" d="M15.4,93.8c-0.5,0-0.9-0.1-1.2-0.2s-0.6-0.3-0.9-0.7l0.3-0.3c0.3,0.3,0.6,0.5,0.8,0.6
					c0.3,0.1,0.6,0.2,1,0.2c0.5,0,0.9-0.1,1.2-0.4c0.3-0.2,0.4-0.6,0.4-1c0-0.4-0.1-0.7-0.3-0.8c-0.2-0.2-0.3-0.3-0.4-0.3
					s-0.3-0.1-0.6-0.1L15,90.7c-0.5-0.1-0.9-0.2-1.2-0.5c-0.3-0.3-0.5-0.6-0.5-1.1c0-0.5,0.2-1,0.5-1.3c0.4-0.3,0.8-0.5,1.5-0.5
					c0.4,0,0.7,0.1,1,0.2c0.3,0.1,0.6,0.3,0.8,0.5l-0.3,0.3c-0.2-0.2-0.5-0.4-0.7-0.5c-0.2-0.1-0.5-0.1-0.9-0.1
					c-0.5,0-0.8,0.1-1.1,0.4c-0.3,0.2-0.4,0.6-0.4,1c0,0.4,0.1,0.7,0.4,0.9s0.5,0.3,0.9,0.4l0.7,0.1c0.3,0,0.5,0.1,0.7,0.2
					c0.1,0.1,0.4,0.2,0.6,0.4c0.3,0.2,0.4,0.6,0.4,1.1c0,0.5-0.2,1-0.6,1.3C16.6,93.6,16.1,93.8,15.4,93.8z"/>
			</g>
			<g class="st1">
				<path class="st2" d="M21.7,93.8v-0.4c-0.2,0.2-0.4,0.3-0.6,0.4c-0.2,0.1-0.5,0.1-0.8,0.1c-0.3,0-0.6,0-0.8-0.1
					c-0.2-0.1-0.4-0.2-0.6-0.4c-0.2-0.2-0.3-0.4-0.3-0.8c0-0.4,0.1-0.7,0.4-0.9c0.3-0.2,0.6-0.3,1.1-0.3h1.4v-0.5
					c0-0.4-0.1-0.6-0.3-0.8s-0.5-0.3-0.9-0.3c-0.3,0-0.5,0-0.7,0.1c-0.2,0.1-0.3,0.2-0.5,0.4L19,90c0.2-0.2,0.4-0.4,0.6-0.5
					c0.2-0.1,0.5-0.1,0.9-0.1c0.6,0,1,0.1,1.3,0.4c0.3,0.2,0.4,0.6,0.4,1.1v3H21.7z M21.7,91.7h-1.4c-0.7,0-1.1,0.3-1.1,0.9
					c0,0.6,0.4,0.8,1.1,0.8c0.2,0,0.4,0,0.6-0.1s0.3-0.1,0.5-0.3c0.2-0.1,0.2-0.4,0.2-0.8V91.7z"/>
			</g>
			<g class="st1">
				<path class="st2" d="M26.4,93.8v-0.4c-0.2,0.2-0.4,0.3-0.6,0.4c-0.2,0.1-0.5,0.1-0.8,0.1c-0.3,0-0.6,0-0.8-0.1s-0.4-0.2-0.6-0.4
					c-0.2-0.2-0.3-0.4-0.3-0.8c0-0.4,0.1-0.7,0.4-0.9c0.3-0.2,0.6-0.3,1.1-0.3h1.4v-0.5c0-0.4-0.1-0.6-0.3-0.8
					c-0.2-0.2-0.5-0.3-0.9-0.3c-0.3,0-0.5,0-0.7,0.1s-0.3,0.2-0.5,0.4L23.7,90c0.2-0.2,0.4-0.4,0.6-0.5c0.2-0.1,0.5-0.1,0.9-0.1
					c0.6,0,1,0.1,1.3,0.4c0.3,0.2,0.4,0.6,0.4,1.1v3H26.4z M26.4,91.7h-1.3c-0.7,0-1.1,0.3-1.1,0.9c0,0.6,0.4,0.8,1.1,0.8
					c0.2,0,0.4,0,0.6-0.1s0.3-0.1,0.5-0.3c0.2-0.1,0.2-0.4,0.2-0.8V91.7z"/>
			</g>
			<g class="st1">
				<path class="st2" d="M30.4,93.8c-0.5,0-0.9-0.1-1.2-0.2c-0.3-0.1-0.6-0.3-0.9-0.7l0.3-0.3c0.3,0.3,0.6,0.5,0.8,0.6
					c0.3,0.1,0.6,0.2,1,0.2c0.5,0,0.9-0.1,1.2-0.4c0.3-0.2,0.4-0.6,0.4-1c0-0.4-0.1-0.7-0.3-0.8c-0.2-0.2-0.3-0.3-0.4-0.3
					c-0.1,0-0.3-0.1-0.6-0.1l-0.7-0.1c-0.5-0.1-0.9-0.2-1.2-0.5c-0.3-0.3-0.5-0.6-0.5-1.1c0-0.5,0.2-1,0.5-1.3
					c0.4-0.3,0.8-0.5,1.5-0.5c0.4,0,0.7,0.1,1,0.2c0.3,0.1,0.6,0.3,0.8,0.5l-0.3,0.3c-0.2-0.2-0.5-0.4-0.7-0.5
					c-0.2-0.1-0.5-0.1-0.9-0.1c-0.5,0-0.8,0.1-1.1,0.4c-0.3,0.2-0.4,0.6-0.4,1c0,0.4,0.1,0.7,0.4,0.9c0.2,0.2,0.5,0.3,0.9,0.4
					l0.7,0.1c0.3,0,0.5,0.1,0.7,0.2c0.2,0.1,0.4,0.2,0.6,0.4c0.3,0.2,0.4,0.6,0.4,1.1c0,0.5-0.2,1-0.6,1.3
					C31.6,93.6,31.1,93.8,30.4,93.8z"/>
			</g>
			<polygon class="st3" points="42.9,40.5 23,51.5 3,40.5 23,30.5 			"/>
			<polyline class="st4" points="22.9,78.6 23,51.5 42.9,40.5 42.9,67.5 22.9,78.6 			"/>
			<polygon class="st5" points="3,67.5 22.9,78.6 23,51.5 3,40.5 			"/>
			<g class="st1">
				<path class="st2" d="M1.8,20.6v-2.2l6.6-8C9,9.6,9.3,8.9,9.3,8.1S9,6.7,8.6,6.2S7.5,5.5,6.8,5.5C6,5.5,5.4,5.7,5,6.1
					c-0.5,0.4-0.7,1.1-0.7,2H1.8c0-1.4,0.5-2.6,1.4-3.5c0.9-0.9,2.1-1.3,3.6-1.3c1.5,0,2.7,0.4,3.6,1.3c0.9,0.9,1.4,2,1.4,3.5
					c0,0.7-0.1,1.3-0.4,1.8c-0.2,0.5-0.7,1.1-1.2,1.8l-5.4,6.6h7v2.2H1.8z"/>
			</g>
			<g class="st1">
				<path class="st2" d="M23.1,12.6l-3.9,7.9l-2.6,0l3.7-7.4c-0.4,0.2-0.9,0.3-1.5,0.3c-1.3,0-2.3-0.5-3.2-1.4
					c-0.9-0.9-1.3-2.1-1.3-3.6c0-1.6,0.5-2.8,1.4-3.8s2.1-1.4,3.6-1.4c1.5,0,2.7,0.5,3.7,1.4s1.4,2.2,1.4,3.7c0,0.6-0.1,1.3-0.3,2
					S23.6,11.8,23.1,12.6z M19.3,5.5c-0.8,0-1.4,0.3-1.9,0.8c-0.5,0.5-0.7,1.3-0.7,2.2c0,0.9,0.2,1.6,0.7,2.1s1.1,0.8,1.9,0.8
					c0.8,0,1.4-0.3,1.9-0.8S22,9.4,22,8.5c0-0.9-0.2-1.6-0.7-2.2C20.8,5.8,20.1,5.5,19.3,5.5z"/>
			</g>
			<g class="st1">
				<path class="st2" d="M25.6,20.6v-3h2.9v3H25.6z"/>
			</g>
			<g class="st1">
				<path class="st2" d="M40.2,19.4c-0.4,0.4-0.9,0.7-1.5,1c-0.6,0.2-1.3,0.4-2.1,0.4c-0.8,0-1.5-0.1-2.1-0.4
					c-0.6-0.2-1.2-0.6-1.6-1s-0.7-0.9-0.9-1.5c-0.2-0.6-0.3-1.2-0.3-1.8h2.4c0.2,1.6,1,2.4,2.5,2.4c0.7,0,1.3-0.2,1.7-0.6
					c0.4-0.4,0.6-0.8,0.7-1.3c0.1-0.5,0.2-1.1,0.2-1.8c0-1.1-0.2-2-0.6-2.6c-0.4-0.6-1-1-2-1c-0.7,0-1.2,0.1-1.6,0.4
					c-0.4,0.3-0.7,0.7-0.8,1.1H32V3.5h9.2v2.2h-7v4.5c0.6-0.7,1.6-1,2.8-1c0.7,0,1.2,0.1,1.8,0.3c0.5,0.2,1,0.5,1.5,1
					c0.5,0.5,0.8,1.1,1,1.8c0.2,0.8,0.3,1.6,0.3,2.6c0,1.1-0.1,1.9-0.3,2.6C41.1,18.1,40.7,18.8,40.2,19.4z"/>
			</g>
		</g>
	</g>
</g>
</svg>
