<svg xmlns="http://www.w3.org/2000/svg" xmlns:xlink="http://www.w3.org/1999/xlink" viewBox="0 0 84.27 84.27"><defs><style>.cls-1{fill:none;}.cls-2{isolation:isolate;}.cls-3{fill:#e7e8e9;}.cls-4{fill:#babcbe;}.cls-5{fill:#e7e7e7;}.cls-6{clip-path:url(#clip-path);}.cls-7{fill:#76777a;opacity:0.1;}.cls-7,.cls-8{mix-blend-mode:multiply;}.cls-8{fill:#85878a;opacity:0.6;}.cls-9{fill:#1d1f1f;}.cls-10{fill:#a7a7a8;}.cls-11{fill:#0a858e;}.cls-12,.cls-14{fill:#fff;}.cls-13{fill:#858586;}.cls-14{opacity:0.2;}</style><clipPath id="clip-path"><path class="cls-1" d="M75.64,71.24a2.7,2.7,0,0,1-2.77,2.62H12.65a2.7,2.7,0,0,1-2.77-2.62v-57a2.7,2.7,0,0,1,2.77-2.62H72.86a2.7,2.7,0,0,1,2.77,2.62Z"/></clipPath></defs><title>value_4</title><g class="cls-2"><g id="Layer_2" data-name="Layer 2"><g id="Layer_1-2" data-name="Layer 1"><circle class="cls-3" cx="42.14" cy="42.14" r="42.14"/><path class="cls-4" d="M75.85,73.16A2.8,2.8,0,0,1,73,75.93H11.38a2.8,2.8,0,0,1-2.84-2.77V13a2.8,2.8,0,0,1,2.84-2.77H73A2.8,2.8,0,0,1,75.85,13Z"/><path class="cls-5" d="M75.07,71.24a2.7,2.7,0,0,1-2.77,2.62H12.08a2.7,2.7,0,0,1-2.77-2.62v-57a2.7,2.7,0,0,1,2.77-2.62H72.29a2.7,2.7,0,0,1,2.77,2.62Z"/><g class="cls-6"><polygon class="cls-7" points="13.29 67.22 18.27 73.87 75.47 73.87 75.47 37.19 68.16 33.21 16.06 33.15 13.29 35.07 13.29 67.22"/></g><path class="cls-8" d="M72.3,11.62H12.09a2.69,2.69,0,0,0-2.77,2.6V29.67H75.08V14.21A2.69,2.69,0,0,0,72.3,11.62Z"/><path class="cls-9" d="M70.54,22.85A2.94,2.94,0,0,1,67.81,26H16a2.94,2.94,0,0,1-2.73-3.12V18.09A2.94,2.94,0,0,1,16,15h51.8a2.94,2.94,0,0,1,2.73,3.12Z"/><path class="cls-10" d="M41,47.07a3,3,0,0,1-2.77,3.12h-22a3,3,0,0,1-2.77-3.12V36.27a3,3,0,0,1,2.77-3.12h22A3,3,0,0,1,41,36.27Z"/><path class="cls-10" d="M70.54,47.07a3,3,0,0,1-2.77,3.12h-22A3,3,0,0,1,43,47.07V36.27a3,3,0,0,1,2.77-3.12h22a3,3,0,0,1,2.77,3.12Z"/><path class="cls-10" d="M41,66.49a3,3,0,0,1-2.77,3.12h-22a3,3,0,0,1-2.77-3.12V55.68a3,3,0,0,1,2.77-3.12h22A3,3,0,0,1,41,55.68Z"/><path class="cls-11" d="M70.54,66.49a3,3,0,0,1-2.77,3.12h-22A3,3,0,0,1,43,66.49V55.68a3,3,0,0,1,2.77-3.12h22a3,3,0,0,1,2.77,3.12Z"/><text></text><path class="cls-12" d="M61.26,57.33a.87.87,0,0,1,.81.92h0a.87.87,0,0,1-.81.92h-9a.87.87,0,0,1-.81-.92h0a.87.87,0,0,1,.81-.92Z"/><path class="cls-12" d="M61.26,63a.87.87,0,0,1,.81.92h0a.87.87,0,0,1-.81.92h-9a.87.87,0,0,1-.81-.92h0a.87.87,0,0,1,.81-.92Z"/><path class="cls-13" d="M61.3,40.75a.87.87,0,0,1,.81.92h0a.87.87,0,0,1-.81.92h-9a.87.87,0,0,1-.81-.92h0a.87.87,0,0,1,.81-.92Z"/><path class="cls-13" d="M57.63,36.63a.87.87,0,0,0-.81-.92h0a.87.87,0,0,0-.81.92V46.71a.87.87,0,0,0,.81.92h0a.87.87,0,0,0,.81-.92Z"/><path class="cls-13" d="M31,44.58a1,1,0,0,1,0,1.3h0a.75.75,0,0,1-1.15,0l-6.34-7.12a1,1,0,0,1,0-1.3h0a.75.75,0,0,1,1.15,0Z"/><path class="cls-13" d="M31,38.75a1,1,0,0,0,0-1.3h0a.75.75,0,0,0-1.15,0l-6.34,7.12a1,1,0,0,0,0,1.3h0a.75.75,0,0,0,1.15,0Z"/><path class="cls-13" d="M22.74,60.18a.87.87,0,0,0-.81.92h0a.87.87,0,0,0,.81.92h9a.87.87,0,0,0,.81-.92h0a.87.87,0,0,0-.81-.92Z"/><ellipse class="cls-13" cx="27.22" cy="57.52" rx="1.06" ry="1.19"/><ellipse class="cls-13" cx="27.22" cy="64.66" rx="1.06" ry="1.19"/><path class="cls-14" d="M27.22,33.15h-11a3,3,0,0,0-2.77,3.12V47.07a3,3,0,0,0,2.77,3.12h11Z"/><path class="cls-14" d="M27.22,52.57h-11a3,3,0,0,0-2.77,3.12V66.49a3,3,0,0,0,2.77,3.12h11Z"/><path class="cls-14" d="M56.77,52.57h-11A3,3,0,0,0,43,55.69V66.49a3,3,0,0,0,2.77,3.12h11Z"/><path class="cls-14" d="M56.77,33.15h-11A3,3,0,0,0,43,36.27V47.07a3,3,0,0,0,2.77,3.12h11Z"/></g></g></g></svg>