<svg xmlns="http://www.w3.org/2000/svg" viewBox="0 0 84.27 87.24"><defs><style>.cls-1{isolation:isolate;}.cls-2{fill:#e7e8e9;}.cls-3{fill:#acd7a8;}.cls-4{fill:#759b78;}.cls-5{fill:#88b68a;}.cls-6{fill:#231f20;opacity:0.2;mix-blend-mode:multiply;}.cls-7{fill:#f8d315;}.cls-8{fill:#f0bd1b;}.cls-9{fill:#b8842d;}.cls-10{fill:#057eb6;}.cls-11{fill:#bd1f36;}</style></defs><title>value_1</title><g class="cls-1"><g id="Layer_2" data-name="Layer 2"><g id="Layer_1-2" data-name="Layer 1"><circle class="cls-2" cx="42.14" cy="45.1" r="42.14"/><rect class="cls-3" x="4.37" y="43.4" width="79.07" height="34.1" transform="translate(-0.45 0.33) rotate(-0.43)"/><path class="cls-4" d="M81.23,75.68l-.23-31-74.86.56.23,31Zm-73-1.41.06.08H8.23Zm2.65-18.2c2.06,0,3.71-2.37,3.69-5.27A6.43,6.43,0,0,0,13.41,47l60.34-.45a6.42,6.42,0,0,0-1.1,3.76c0,2.9,1.71,5.23,3.76,5.22a3.39,3.39,0,0,0,2.78-1.79l.1,13A3.38,3.38,0,0,0,76.49,65c-2.06,0-3.71,2.38-3.69,5.27a6.52,6.52,0,0,0,1,3.55l-60.07.45a6.52,6.52,0,0,0,1-3.56c0-2.9-1.71-5.23-3.76-5.22a3.39,3.39,0,0,0-2.78,1.8l-.1-13A3.38,3.38,0,0,0,10.88,56.07ZM79.29,73.82l.05-.08v.08Zm-.15-27-.19-.28h.19Zm-70.93.24L8,47.37v-.28Z"/><ellipse class="cls-5" cx="43.68" cy="60.37" rx="8.17" ry="10.08" transform="translate(-0.45 0.33) rotate(-0.43)"/><circle class="cls-5" cx="63.42" cy="60.11" r="3.44" transform="translate(-0.45 0.48) rotate(-0.44)"/><circle class="cls-5" cx="24.82" cy="60.4" r="3.44" transform="translate(-0.46 0.19) rotate(-0.44)"/><path class="cls-5" d="M43.58,46.2c6.45,0,11.74,6.27,11.8,14.08S50.24,74.49,43.79,74.54,32,68.27,32,60.46,37.13,46.24,43.58,46.2Zm.19,26.05c5.19,0,9.37-5.4,9.32-12s-4.31-11.85-9.5-11.81-9.37,5.4-9.32,12S38.58,72.29,43.77,72.25Z"/><path class="cls-3" d="M43.81,47.05c6,0,10.88,5.89,10.94,13.23S50,73.64,44,73.68,33.13,67.79,33.07,60.45,37.84,47.1,43.81,47.05ZM44,73.11c5.66,0,10.22-5.79,10.17-12.82s-4.7-12.71-10.36-12.66S33.59,53.42,33.64,60.44,38.35,73.15,44,73.11Z"/><rect class="cls-3" x="4.37" y="40.02" width="79.07" height="34.1" transform="translate(-0.42 0.33) rotate(-0.43)"/><path class="cls-4" d="M81.23,72.3l-.23-31-74.86.56.23,31Zm-73-1.41.06.08H8.23Zm2.65-18.2c2.06,0,3.71-2.37,3.69-5.27a6.43,6.43,0,0,0-1.15-3.75l60.34-.45A6.42,6.42,0,0,0,72.65,47c0,2.9,1.71,5.23,3.76,5.22a3.39,3.39,0,0,0,2.78-1.79l.1,13a3.38,3.38,0,0,0-2.8-1.75c-2.06,0-3.71,2.38-3.69,5.27a6.52,6.52,0,0,0,1,3.55l-60.07.45a6.52,6.52,0,0,0,1-3.56c0-2.9-1.71-5.23-3.76-5.22a3.39,3.39,0,0,0-2.78,1.8l-.1-13A3.38,3.38,0,0,0,10.88,52.69ZM79.29,70.44l.05-.08v.08Zm-.15-27-.19-.28h.19Zm-70.93.24L8,44v-.29Z"/><ellipse class="cls-5" cx="43.68" cy="56.99" rx="8.17" ry="10.08" transform="translate(-0.42 0.33) rotate(-0.43)"/><circle class="cls-5" cx="63.42" cy="56.73" r="3.44" transform="translate(-0.43 0.49) rotate(-0.44)"/><circle class="cls-5" cx="24.82" cy="57.02" r="3.44" transform="translate(-0.43 0.19) rotate(-0.44)"/><path class="cls-5" d="M43.58,42.82c6.45,0,11.74,6.27,11.8,14.08S50.24,71.11,43.79,71.16,32,64.89,32,57.07,37.13,42.86,43.58,42.82Zm.19,26.05c5.19,0,9.37-5.4,9.32-12s-4.31-11.85-9.5-11.81-9.37,5.4-9.32,12S38.58,68.91,43.77,68.87Z"/><path class="cls-3" d="M43.81,43.67c6,0,10.88,5.89,10.94,13.23S50,70.26,44,70.3,33.13,64.41,33.07,57.07,37.84,43.72,43.81,43.67ZM44,69.73c5.66,0,10.22-5.79,10.17-12.82S49.48,44.2,43.82,44.25,33.59,50,33.64,57.06,38.35,69.77,44,69.73Z"/><rect class="cls-3" x="4.37" y="36.93" width="79.07" height="34.1" transform="translate(-0.4 0.33) rotate(-0.43)"/><path class="cls-4" d="M81.23,69.2,81,38.2l-74.86.56.23,31Zm-73-1.41.06.08H8.23Zm2.65-18.2c2.06,0,3.71-2.37,3.69-5.27a6.43,6.43,0,0,0-1.15-3.75l60.34-.45a6.42,6.42,0,0,0-1.1,3.76c0,2.9,1.71,5.23,3.76,5.22a3.39,3.39,0,0,0,2.78-1.79l.1,13a3.38,3.38,0,0,0-2.8-1.75c-2.06,0-3.71,2.38-3.69,5.27a6.52,6.52,0,0,0,1,3.55l-60.07.45a6.51,6.51,0,0,0,1-3.56c0-2.9-1.71-5.23-3.76-5.22a3.39,3.39,0,0,0-2.78,1.8l-.1-13A3.38,3.38,0,0,0,10.88,49.59ZM79.29,67.35l.05-.08v.08Zm-.15-27-.19-.28h.19Zm-70.93.24L8,40.9v-.29Z"/><ellipse class="cls-5" cx="43.68" cy="53.89" rx="8.17" ry="10.08" transform="translate(-0.4 0.33) rotate(-0.43)"/><circle class="cls-5" cx="63.42" cy="53.64" r="3.44" transform="translate(-0.41 0.49) rotate(-0.44)"/><circle class="cls-5" cx="24.82" cy="53.92" r="3.44" transform="translate(-0.41 0.19) rotate(-0.44)"/><path class="cls-5" d="M43.58,39.72c6.45,0,11.74,6.27,11.8,14.08S50.24,68,43.79,68.07,32,61.79,32,54,37.13,39.77,43.58,39.72Zm.19,26.05c5.19,0,9.37-5.4,9.32-12S48.78,42,43.59,42s-9.37,5.4-9.32,12S38.58,65.82,43.77,65.78Z"/><path class="cls-3" d="M43.81,40.58c6,0,10.88,5.89,10.94,13.23S50,67.16,44,67.21,33.13,61.31,33.07,54,37.84,40.62,43.81,40.58ZM44,66.63c5.66,0,10.22-5.79,10.17-12.82s-4.7-12.71-10.36-12.67S33.59,46.94,33.64,54,38.35,66.68,44,66.63Z"/><circle class="cls-6" cx="52.17" cy="32.73" r="13.96"/><circle class="cls-7" cx="52.17" cy="30.28" r="14.26" transform="translate(-0.26 0.44) rotate(-0.49)"/><circle class="cls-8" cx="52.17" cy="30.28" r="10.9" transform="translate(-0.26 0.44) rotate(-0.49)"/><path class="cls-9" d="M52.17,41.8a11.52,11.52,0,0,1-.09-23h.1A11.55,11.55,0,0,1,63.69,30.18,11.52,11.52,0,0,1,52.27,41.8Zm0-21.8a10.28,10.28,0,0,0,0,20.56h.09A10.28,10.28,0,0,0,52.17,20Z"/><path class="cls-9" d="M51.55,38.34l0-2a5.77,5.77,0,0,1-3-.85L49,34.15a5.3,5.3,0,0,0,2.87.83c1.41,0,2.36-.83,2.35-2s-.79-1.76-2.26-2.34c-2-.78-3.29-1.68-3.3-3.41a3.26,3.26,0,0,1,3-3.22l0-2h1.23l0,1.93a5.3,5.3,0,0,1,2.59.67l-.48,1.31a4.81,4.81,0,0,0-2.51-.65c-1.53,0-2.1.93-2.09,1.73,0,1,.75,1.54,2.48,2.24,2.05.82,3.09,1.84,3.11,3.61a3.45,3.45,0,0,1-3.11,3.4l0,2.06Z"/><path class="cls-10" d="M32.09,48.69a19.29,19.29,0,0,1-.27-25.9L34,25.17l3.28-10.22L26.88,17.46l2.45,2.64A22.92,22.92,0,0,0,61.81,52.4l-2.49-2.68A19.29,19.29,0,0,1,32.09,48.69Z"/><path class="cls-11" d="M72.08,9.3a19.29,19.29,0,0,1,1.22,25.87L71,32.88,68.11,43.22l10.34-2.89L75.9,37.78A22.92,22.92,0,0,0,42.25,6.69l2.59,2.59A19.29,19.29,0,0,1,72.08,9.3Z"/></g></g></g></svg>