<svg xmlns="http://www.w3.org/2000/svg" viewBox="0 0 759.49 115.97"><title>Asset 42</title><g id="2a4a3b09-78c9-4ad6-bd7f-696d7187252c" data-name="Layer 2"><g id="e53a80c4-a96d-410b-a974-75b01c8b0c1e" data-name="Layer 1"><rect width="115.97" height="115.97" style="fill:#00b6e8"/><path d="M101.44,50.13a22.35,22.35,0,0,0-15.11-6.27H86l-.15-.28a30.9,30.9,0,0,0-58,10.33l-.07.52-.52,0A17.31,17.31,0,0,0,8.66,71.63c0,5,1.54,9.08,4.58,12.07,5.16,5.08,12.83,5.23,13.69,5.23H27l61.14,0c.82-.12,20.19-3.19,20.19-22.53A22.39,22.39,0,0,0,101.44,50.13Zm-42.93-20A28,28,0,0,1,83.64,46.09,1.64,1.64,0,0,0,85.1,47a19,19,0,0,1,14.19,5.4,19.3,19.3,0,0,1,6,14c0,16.15-15.48,19.15-17.27,19.44H26.91c-.29,0-7.14,0-11.49-4.34-2.42-2.39-3.65-5.71-3.65-9.86A14.2,14.2,0,0,1,26,57.43a14.62,14.62,0,0,1,2.93.3,1.59,1.59,0,0,0,1.26-.28,1.56,1.56,0,0,0,.61-1.15A27.83,27.83,0,0,1,58.5,30.14Z" style="fill:#fff"/><path d="M73.71,69.68l4.84-14.52a1.57,1.57,0,0,0-1.49-2.07H49.12l-2-8.47a1.57,1.57,0,0,0-1.53-1.21H39.95a1.57,1.57,0,0,0,0,3.14h4.41L51,73.93a4,4,0,1,0,5.86,3.52,3.67,3.67,0,0,0-.1-.85h10a3.67,3.67,0,0,0-.1.85,4,4,0,1,0,4-4H53.95l-.62-2.71H72.22A1.57,1.57,0,0,0,73.71,69.68ZM52.92,78.3a.85.85,0,1,1,.85-.85A.85.85,0,0,1,52.92,78.3Zm-.39-10.69L49.86,56.23h25L71.09,67.61ZM70.67,78.3a.85.85,0,1,1,.85-.85A.85.85,0,0,1,70.67,78.3Z" style="fill:#fff"/><text transform="translate(140.55 71.38)" style="font-size:54px;fill:#003058;font-family:MrEavesXLModOT-Reg, Mr Eaves XL Mod OT">Integrated Commerce Cloud</text></g></g></svg>