<svg id="Layer_1" data-name="Layer 1" xmlns="http://www.w3.org/2000/svg" xmlns:xlink="http://www.w3.org/1999/xlink" viewBox="0 0 444.02 51.31"><defs><radialGradient id="radial-gradient" cx="27.25" cy="6.53" r="108.18" gradientUnits="userSpaceOnUse"><stop offset="0" stop-color="#ed1c24"/><stop offset="1" stop-color="#84191b"/></radialGradient><linearGradient id="New_Gradient_Swatch_7" x1="26.63" y1="7.95" x2="26.63" y2="43.1" gradientUnits="userSpaceOnUse"><stop offset="0.14" stop-color="#000"/><stop offset="1" stop-color="#eaecea"/></linearGradient></defs><title>Analytics_Cloud</title><rect id="tile" width="52.26" height="50.95" style="fill:url(#radial-gradient)"/><path d="M43.65,31.56l-5.74-4.24,5.49-7.69-.53-.38h0L28.72,9.41l-2.1-1.46h0l-2.1,1.46L10.39,19.25h0l-.53.38,5.49,7.69L9.6,31.56,9,32l2.17,1.37,15,9.46.46.29h0l.46-.29,15-9.46L44.21,32ZM11.78,21.2,26.63,10.87,41.47,21.2l-4.09,5.73-9.07-6.79-1.69-1.26h0l-1.69,1.26-9.07,6.79Zm0,11.73,5-3.66,8.68,12.28Zm14.85,9.21L17.25,28.88l9.37-7,9.37,7Zm1.22-.59,8.68-12.28,5,3.66Z" transform="translate(-0.49 -0.02)" style="fill:url(#New_Gradient_Swatch_7)"/><path d="M75.81,31.31,72.35,41c-.09.18-.13.22-.35.22H69.6c-.22,0-.27-.09-.22-.31l9.9-27.34A3.79,3.79,0,0,0,79.54,12a.21.21,0,0,1,.22-.22h3.55c.18,0,.22,0,.27.18L94.1,40.95c0,.22,0,.31-.18.31H91.21c-.13,0-.22,0-.31-.22L87.4,31.31Zm10.74-2.75c-1-2.89-4.08-11.36-4.93-14.34h0c-.8,2.84-3.06,9.06-4.93,14.34Z" transform="translate(-0.49 -0.02)" style="fill:#000"/><path d="M94.1,30.69C94.1,24.17,99,19.42,106,19.42a12.49,12.49,0,0,1,3.2.31V9.56c0-.18.09-.27.22-.27h2.53c.22,0,.22.09.22.27V38c0,.49,0,1.11.09,1.78,0,.18,0,.22-.18.31a15.89,15.89,0,0,1-7.1,1.6C98.8,41.7,94.1,38,94.1,30.69Zm15-8.17a8.68,8.68,0,0,0-3.29-.49c-5.5,0-8.7,3.77-8.7,8.52,0,6.17,4,8.48,8,8.48a10.7,10.7,0,0,0,4-.67Z" transform="translate(-0.49 -0.02)" style="fill:#000"/><path d="M135.38,30.51c0,6.66-4,11.19-9.9,11.19-7,0-10-5.82-10-11.14,0-6.3,4-11.14,10-11.14S135.38,24,135.38,30.51Zm-16.87,0c0,4.7,2.53,8.61,7.1,8.61,3.29,0,6.75-2.58,6.75-8.48,0-4.35-2-8.57-7-8.57C121.26,22,118.51,25.45,118.51,30.47Z" transform="translate(-0.49 -0.02)" style="fill:#000"/><path d="M141.59,9.3c.18,0,.27,0,.27.27V20.39a12.49,12.49,0,0,1,5.1-1c6,0,10,4.31,10,10.3,0,7.9-5.95,12-12,12a17.21,17.21,0,0,1-5.82-.89.33.33,0,0,1-.22-.35V9.56c0-.18,0-.27.22-.27ZM146.52,22a11.15,11.15,0,0,0-4.66.89V38.68a11.4,11.4,0,0,0,3.29.4c4.53,0,8.74-3.06,8.74-9.1C153.89,25.28,151.09,22,146.52,22Z" transform="translate(-0.49 -0.02)" style="fill:#000"/><path d="M161.83,30.65c-.13,4.7,2.49,8.35,7.72,8.35a12,12,0,0,0,5.55-1.2c.13-.09.22,0,.22.18v2c0,.22-.09.31-.22.35A12.1,12.1,0,0,1,169,41.7c-7.5,0-10.21-5.59-10.21-11,0-6.26,3.6-11.32,9.54-11.32,6.26,0,8.43,5.1,8.43,8.7a10.47,10.47,0,0,1-.13,2.09c0,.18-.13.27-.31.31-.67.09-2.71.13-4.57.13Zm9-2.31a20.6,20.6,0,0,0,3.06-.09c0-.13,0-.4,0-.53a5.59,5.59,0,0,0-5.68-5.77c-4,0-5.95,3.11-6.39,6.39Z" transform="translate(-0.49 -0.02)" style="fill:#000"/><path d="M192.76,31.31,189.3,41c-.09.18-.13.22-.35.22h-2.4c-.22,0-.27-.09-.22-.31l9.9-27.34a3.79,3.79,0,0,0,.27-1.55.21.21,0,0,1,.22-.22h3.55c.18,0,.22,0,.27.18L211,40.95c0,.22,0,.31-.18.31h-2.71c-.13,0-.22,0-.31-.22l-3.51-9.72Zm10.74-2.75c-1-2.89-4.08-11.36-4.93-14.34h0c-.8,2.84-3.06,9.06-4.93,14.34Z" transform="translate(-0.49 -0.02)" style="fill:#000"/><path d="M214.18,24.83c0-1.55-.13-4.08-.18-4.75,0-.18,0-.27.27-.27h2.17a.31.31,0,0,1,.36.27,17.61,17.61,0,0,1,.22,2.4,9.51,9.51,0,0,1,7-3.06c3.06,0,7.15,1.42,7.15,8.43V41c0,.18-.09.27-.31.27h-2.4c-.22,0-.31-.09-.31-.31V28.12c0-3.51-1.55-6-4.88-6a7.59,7.59,0,0,0-6.08,3.11V41c0,.18,0,.27-.27.27h-2.44c-.22,0-.27-.09-.27-.27Z" transform="translate(-0.49 -0.02)" style="fill:#000"/><path d="M250.73,37.8c0,.67,0,1.24.09,1.86,0,.09,0,.13-.09.18a17,17,0,0,1-7.9,1.87c-4.62,0-8-2.31-8-6.84,0-4.71,4.44-6.7,9.81-6.7a30,30,0,0,1,3.15.13V27c0-1.51-.67-4.93-5.19-4.93a11.52,11.52,0,0,0-5.55,1.33c-.13,0-.27,0-.27-.18V21.06c0-.18,0-.27.18-.31a13.43,13.43,0,0,1,6.13-1.33c5.46,0,7.64,3.64,7.64,8.12Zm-2.93-7.06a21,21,0,0,0-3.06-.18c-4.66,0-7,1.55-7,4.31,0,2.13,1.42,4.35,5.64,4.35a10.38,10.38,0,0,0,4.4-.89Z" transform="translate(-0.49 -0.02)" style="fill:#000"/><path d="M256,9.56c0-.22.09-.27.31-.27h2.44c.18,0,.22.13.22.27V36.91c0,1.82.75,2.22,1.82,2.22a3.93,3.93,0,0,0,.93-.13c.18,0,.18,0,.18.22v1.87c0,.22,0,.27-.18.35a6.16,6.16,0,0,1-1.86.27C258,41.7,256,41,256,37.13Z" transform="translate(-0.49 -0.02)" style="fill:#000"/><path d="M265.36,19.82a.28.28,0,0,1,.27.22c4,10.39,6,15.54,6.57,17.45,1.46-3.91,3.42-9.23,6.44-17.45.09-.13.18-.22.31-.22h2.53c.18,0,.22.13.18.31-3.33,9.54-7.81,20.64-12.29,30.72a.63.63,0,0,1-.44.27l-2.66.22c-.22,0-.22-.13-.13-.31,1.29-2.75,3-6.53,4.53-10.08a.58.58,0,0,0,0-.53c-1-2.53-5.5-13.41-8.26-20.33,0-.18,0-.27.18-.27Z" transform="translate(-0.49 -0.02)" style="fill:#000"/><path d="M294.9,40.68c0,.18,0,.31-.18.36a7.27,7.27,0,0,1-3.2.67c-3.06,0-4.93-1.46-4.93-5.64V22.44h-3.15c-.22,0-.27-.13-.27-.31v-2c0-.18,0-.27.27-.27h3.15A48.67,48.67,0,0,1,287,14c0-.18.09-.27.22-.31l2.44-.4c.13,0,.27,0,.27.13-.18,1.6-.31,4.17-.31,6.35h4.84c.22,0,.27.09.27.31v2.09c0,.18-.09.22-.27.22h-4.84V35.8c0,2.09.8,3.29,2.8,3.29a5.52,5.52,0,0,0,2.26-.44c.13,0,.22,0,.22.18Z" transform="translate(-0.49 -0.02)" style="fill:#000"/><path d="M297.53,13.11a1.83,1.83,0,0,1,1.91-2,1.79,1.79,0,0,1,1.86,2A1.84,1.84,0,0,1,299.4,15,1.78,1.78,0,0,1,297.53,13.11Zm.4,7c0-.18,0-.27.22-.27h2.49c.18,0,.27,0,.27.27V41c0,.18,0,.27-.27.27h-2.4c-.27,0-.31-.09-.31-.31Z" transform="translate(-0.49 -0.02)" style="fill:#000"/><path d="M320.61,40.68c0,.18,0,.27-.18.31a13.39,13.39,0,0,1-4.79.71c-7.24,0-10.79-5.24-10.79-11.05,0-6.44,4.53-11.23,11.36-11.23a11,11,0,0,1,4.22.58c.13,0,.18.18.18.36v2.26c0,.22-.13.22-.27.18a9.63,9.63,0,0,0-4.22-.71c-4.84,0-8.21,3.33-8.21,8.43,0,5.55,3.73,8.43,8.17,8.43a12.14,12.14,0,0,0,4.26-.62c.18,0,.27,0,.27.18Z" transform="translate(-0.49 -0.02)" style="fill:#000"/><path d="M330.34,21.95c-3.15,0-4.26,1.6-4.26,3.06s.84,2.58,4.44,4c4.22,1.64,6.08,3.37,6.08,6.57,0,4-3.37,6.13-7.59,6.13a12.13,12.13,0,0,1-5.82-1.29c-.13-.13-.22-.18-.22-.4V37.57c0-.22.13-.27.27-.18a10.29,10.29,0,0,0,5.86,1.73c3,0,4.57-1.42,4.57-3.29s-1.11-2.88-4.31-4.22c-4.22-1.64-6.12-3.37-6.12-6.44s2.62-5.77,7.19-5.77a11.29,11.29,0,0,1,5,.93.42.42,0,0,1,.18.4V23c0,.22-.09.31-.27.18A10.21,10.21,0,0,0,330.34,21.95Z" transform="translate(-0.49 -0.02)" style="fill:#000"/><path d="M370.69,40.46a.38.38,0,0,1-.22.4,15.4,15.4,0,0,1-5.9.84c-7.1,0-15-4.08-15-15.27,0-8.83,6.17-15,15.49-15a14.09,14.09,0,0,1,5.64.8c.13,0,.18.18.18.36v2.4c0,.27-.13.27-.27.18a12.82,12.82,0,0,0-5.68-1c-7.24,0-12.3,4.8-12.3,12.25,0,10,7.55,12.56,12.16,12.56a15.26,15.26,0,0,0,5.59-.75c.13-.09.27-.09.27.13Z" transform="translate(-0.49 -0.02)" style="fill:#000"/><path d="M374.41,9.56c0-.22.09-.27.31-.27h2.44c.18,0,.22.13.22.27V36.91c0,1.82.75,2.22,1.82,2.22a3.91,3.91,0,0,0,.93-.13c.18,0,.18,0,.18.22v1.87c0,.22,0,.27-.18.35a6.15,6.15,0,0,1-1.86.27c-1.91,0-3.86-.67-3.86-4.57Z" transform="translate(-0.49 -0.02)" style="fill:#000"/><path d="M401.74,30.51c0,6.66-4,11.19-9.9,11.19-7,0-10-5.82-10-11.14,0-6.3,4-11.14,10-11.14S401.74,24,401.74,30.51Zm-16.87,0c0,4.7,2.53,8.61,7.1,8.61,3.28,0,6.75-2.58,6.75-8.48,0-4.35-2-8.57-7-8.57C387.63,22,384.88,25.45,384.88,30.47Z" transform="translate(-0.49 -0.02)" style="fill:#000"/><path d="M422.38,36.6a29.52,29.52,0,0,0,.22,4.4c0,.22,0,.27-.22.27h-2.31a.24.24,0,0,1-.27-.22,12.12,12.12,0,0,1-.27-2A8.8,8.8,0,0,1,413,41.7c-3.59,0-7.28-1.73-7.28-8.26V20.08c0-.22,0-.27.27-.27h2.49c.18,0,.22.09.22.27V33c0,3.73,1.78,5.95,5.06,5.95a7,7,0,0,0,5.59-2.53V20.08c0-.18.09-.27.31-.27h2.49c.18,0,.22.09.22.27Z" transform="translate(-0.49 -0.02)" style="fill:#000"/><path d="M426.4,30.69c0-6.53,4.88-11.27,11.85-11.27a12.49,12.49,0,0,1,3.2.31V9.56c0-.18.09-.27.22-.27h2.53c.22,0,.22.09.22.27V38c0,.49,0,1.11.09,1.78,0,.18,0,.22-.18.31a15.88,15.88,0,0,1-7.1,1.6C431.1,41.7,426.4,38,426.4,30.69Zm15-8.17a8.68,8.68,0,0,0-3.29-.49c-5.5,0-8.7,3.77-8.7,8.52,0,6.17,3.95,8.48,8,8.48a10.7,10.7,0,0,0,4-.67Z" transform="translate(-0.49 -0.02)" style="fill:#000"/></svg>