<svg id="Layer_1" data-name="Layer 1" xmlns="http://www.w3.org/2000/svg" viewBox="0 0 755.03 51.8"><title>Architecture</title><path d="M85.84,39.93a9.74,9.74,0,0,1-7.21,2.64H68.86V14.06h9.77q4.56,0,6.87,2.3a9,9,0,0,1,2.72,4.77A43.2,43.2,0,0,1,88.64,28v1.52a31.64,31.64,0,0,1-.5,6.13A8.24,8.24,0,0,1,85.84,39.93ZM83.72,18.86a6.26,6.26,0,0,0-2.46-1.58,9.4,9.4,0,0,0-3.14-.5H71.91V39.86h6.21a9.67,9.67,0,0,0,3.14-.46,6.44,6.44,0,0,0,2.54-1.72,6.14,6.14,0,0,0,1.5-3.53A49.2,49.2,0,0,0,85.6,28V26.67a21.45,21.45,0,0,0-.44-5.25A6.07,6.07,0,0,0,83.72,18.86Z" style="fill:#fff"/><path d="M95.13,17.22V14h3.24v3.24Zm.16,25.36V22.82h2.88V42.58Z" style="fill:#fff"/><path d="M111.74,51.58a9.68,9.68,0,0,1-3.62-.58,10.9,10.9,0,0,1-3.06-2.06l1.88-1.84a9,9,0,0,0,2.16,1.47,6.28,6.28,0,0,0,2.56.45,4.91,4.91,0,0,0,4.06-1.67A6.68,6.68,0,0,0,117.07,43V40a6.2,6.2,0,0,1-2.46,2,8,8,0,0,1-3.06.55,7.39,7.39,0,0,1-2.68-.48,6.93,6.93,0,0,1-2.34-1.56,6.56,6.56,0,0,1-1.62-3.18,19.72,19.72,0,0,1-.52-4.74,20.05,20.05,0,0,1,.5-4.8,6.48,6.48,0,0,1,1.58-3.08,6.56,6.56,0,0,1,2.38-1.56,8.52,8.52,0,0,1,5.81.06,6.33,6.33,0,0,1,2.44,2V22.86H120V43.14a8.56,8.56,0,0,1-2.2,6.08A7.82,7.82,0,0,1,111.74,51.58Zm.44-26.4q-2.88,0-3.9,2a12,12,0,0,0-1,5.35,12.12,12.12,0,0,0,1,5.38q1,2,3.92,2t3.9-2a12.32,12.32,0,0,0,1-5.4,12.31,12.31,0,0,0-1-5.39Q115.11,25.18,112.19,25.18Z" style="fill:#fff"/><path d="M127,17.22V14h3.24v3.24Zm.16,25.36V22.82H130V42.58Z" style="fill:#fff"/><path d="M142.81,42.58a4.71,4.71,0,0,1-3.74-1.48,5.56,5.56,0,0,1-1.3-3.81V25.18h-2.48V23h2.48V16.82h2.88V23h4.2v2.2h-4.2v12q0,2.89,2.68,2.89h1.52v2.48Z" style="fill:#fff"/><path d="M161.75,42.58V40.7a6.93,6.93,0,0,1-2.44,1.61,9.55,9.55,0,0,1-3.24.47,11.38,11.38,0,0,1-3.34-.4,6.17,6.17,0,0,1-2.48-1.64A5.16,5.16,0,0,1,149,37a5.21,5.21,0,0,1,1.76-4.16,7.5,7.5,0,0,1,5-1.52h5.93V29.42a4.19,4.19,0,0,0-1.17-3.26,5.64,5.64,0,0,0-3.83-1.06,7.29,7.29,0,0,0-3,.48,5.17,5.17,0,0,0-1.95,1.76l-2-1.8a6.74,6.74,0,0,1,2.86-2.3,11.42,11.42,0,0,1,4.1-.62q7.89,0,7.89,6.57V42.58Zm0-9.12h-5.53q-4.4,0-4.4,3.48t4.52,3.36a11.07,11.07,0,0,0,2.52-.24,4.27,4.27,0,0,0,1.94-1.14,4.58,4.58,0,0,0,.94-3.34Z" style="fill:#fff"/><path d="M176.56,42.58a4.74,4.74,0,0,1-3.74-1.42,5.55,5.55,0,0,1-1.26-3.83V14.06h2.88V37.21A3.39,3.39,0,0,0,175,39.4a2.56,2.56,0,0,0,2.06.7h1.56v2.48Z" style="fill:#fff"/><path d="M210.39,42.58,203.91,29.9h-6.84V42.58h-3V14.06H205a8.7,8.7,0,0,1,6.11,2.14A7.44,7.44,0,0,1,213.4,22a7.56,7.56,0,0,1-1.68,5,7.82,7.82,0,0,1-4.52,2.6l6.77,13Zm-5.72-25.8h-7.61V27.22h7.61a6.16,6.16,0,0,0,4.14-1.32A4.83,4.83,0,0,0,210.36,22a4.87,4.87,0,0,0-1.56-3.88A6.06,6.06,0,0,0,204.67,16.78Z" style="fill:#fff"/><path d="M219.6,17.22V14h3.24v3.24Zm.16,25.36V22.82h2.88V42.58Z" style="fill:#fff"/><path d="M236.5,42.58h-2.56l-7.21-19.72h3.11l5.36,15.82,5.43-15.82h3.12Z" style="fill:#fff"/><path d="M249.59,33.46a7.49,7.49,0,0,0,1.5,5,5.33,5.33,0,0,0,4.3,1.77,7,7,0,0,0,2.8-.49A8.2,8.2,0,0,0,260.56,38l2,1.72a11.13,11.13,0,0,1-3.18,2.32,9.74,9.74,0,0,1-4,.72,8.13,8.13,0,0,1-6.33-2.5q-2.28-2.5-2.28-7.58,0-4.76,2.14-7.42a7.21,7.21,0,0,1,5.95-2.66,7.36,7.36,0,0,1,5.95,2.54,10.49,10.49,0,0,1,2.14,7v1.32ZM259.4,28a4.6,4.6,0,0,0-1.8-2.16,5.06,5.06,0,0,0-2.8-.8,5,5,0,0,0-2.78.8,4.33,4.33,0,0,0-1.68,1.86,8.74,8.74,0,0,0-.6,1.82,9.77,9.77,0,0,0-.14,1.76H260a11.08,11.08,0,0,0-.1-1.76A7.83,7.83,0,0,0,259.4,28Z" style="fill:#fff"/><path d="M280,26.62a5.16,5.16,0,0,0-1.54-1.12,4.72,4.72,0,0,0-1.86-.32,4.31,4.31,0,0,0-3.42,1.5,5.58,5.58,0,0,0-1.3,3.79V42.58H269V22.86h2.88v2.4a5.59,5.59,0,0,1,2.3-1.92,7.36,7.36,0,0,1,3.22-.72A7.71,7.71,0,0,1,280,23a6,6,0,0,1,2.14,1.46Z" style="fill:#fff"/><path d="M312.94,42.59l-2.25-6.49H298.3L296,42.58h-3.24L303.2,14.06h2.56l10.45,28.52Zm-8.41-24.12-5.34,15H309.8Z" style="fill:#fff"/><path d="M331.31,26.62a5.16,5.16,0,0,0-1.54-1.12,4.72,4.72,0,0,0-1.86-.32,4.31,4.31,0,0,0-3.42,1.5,5.58,5.58,0,0,0-1.3,3.79V42.58H320.3V22.86h2.88v2.4a5.59,5.59,0,0,1,2.3-1.92,7.36,7.36,0,0,1,3.22-.72,7.71,7.71,0,0,1,2.58.38,6,6,0,0,1,2.14,1.46Z" style="fill:#fff"/><path d="M344.8,42.78a8.21,8.21,0,0,1-6.29-2.62q-2.44-2.62-2.44-7.46t2.42-7.48a8.23,8.23,0,0,1,6.31-2.6,8.74,8.74,0,0,1,3.52.62,9.51,9.51,0,0,1,3,2.3l-2,1.84a7.26,7.26,0,0,0-2.12-1.72,5.51,5.51,0,0,0-2.4-.48,5,5,0,0,0-4.42,2A9.41,9.41,0,0,0,339,32.7a13.88,13.88,0,0,0,.28,3.08,8.53,8.53,0,0,0,1.42,2.82q1.14,1.62,4.14,1.62a5.36,5.36,0,0,0,2.4-.48A7.74,7.74,0,0,0,349.33,38l2,1.88a9.4,9.4,0,0,1-3,2.28A8.66,8.66,0,0,1,344.8,42.78Z" style="fill:#fff"/><path d="M369.39,42.58V30.39a5.44,5.44,0,0,0-1.26-3.87,4.62,4.62,0,0,0-3.54-1.34,4.79,4.79,0,0,0-3.6,1.36,5.3,5.3,0,0,0-1.32,3.85V42.58h-2.88V14.06h2.88V25a7,7,0,0,1,5.53-2.4,6.87,6.87,0,0,1,5.21,2,7.39,7.39,0,0,1,1.88,5.33V42.58Z" style="fill:#fff"/><path d="M379.12,17.22V14h3.24v3.24Zm.16,25.36V22.82h2.88V42.58Z" style="fill:#fff"/><path d="M394.93,42.58a4.71,4.71,0,0,1-3.74-1.48,5.56,5.56,0,0,1-1.3-3.81V25.18H387.4V23h2.48V16.82h2.88V23H397v2.2h-4.2v12q0,2.89,2.68,2.89H397v2.48Z" style="fill:#fff"/><path d="M404.5,33.46a7.49,7.49,0,0,0,1.5,5,5.33,5.33,0,0,0,4.3,1.77,7,7,0,0,0,2.8-.49A8.2,8.2,0,0,0,415.47,38l2,1.72a11.13,11.13,0,0,1-3.18,2.32,9.74,9.74,0,0,1-4,.72,8.13,8.13,0,0,1-6.33-2.5q-2.28-2.5-2.28-7.58,0-4.76,2.14-7.42a7.21,7.21,0,0,1,5.95-2.66,7.36,7.36,0,0,1,5.95,2.54,10.49,10.49,0,0,1,2.14,7v1.32ZM414.31,28a4.6,4.6,0,0,0-1.8-2.16,5.06,5.06,0,0,0-2.8-.8,5,5,0,0,0-2.78.8,4.33,4.33,0,0,0-1.68,1.86,8.74,8.74,0,0,0-.6,1.82,9.77,9.77,0,0,0-.14,1.76h10.41a11.08,11.08,0,0,0-.1-1.76A7.83,7.83,0,0,0,414.31,28Z" style="fill:#fff"/><path d="M431.56,42.78a8.21,8.21,0,0,1-6.29-2.62q-2.44-2.62-2.44-7.46t2.42-7.48a8.23,8.23,0,0,1,6.31-2.6,8.74,8.74,0,0,1,3.52.62,9.51,9.51,0,0,1,3,2.3l-2,1.84A7.26,7.26,0,0,0,434,25.66a5.51,5.51,0,0,0-2.4-.48,5,5,0,0,0-4.42,2,9.41,9.41,0,0,0-1.42,5.5,13.88,13.88,0,0,0,.28,3.08,8.53,8.53,0,0,0,1.42,2.82q1.14,1.62,4.14,1.62a5.36,5.36,0,0,0,2.4-.48A7.74,7.74,0,0,0,436.09,38l2,1.88a9.4,9.4,0,0,1-3,2.28A8.66,8.66,0,0,1,431.56,42.78Z" style="fill:#fff"/><path d="M449.06,42.58a4.71,4.71,0,0,1-3.74-1.48,5.56,5.56,0,0,1-1.3-3.81V25.18h-2.48V23H444V16.82h2.88V23h4.2v2.2h-4.2v12q0,2.89,2.68,2.89h1.52v2.48Z" style="fill:#fff"/><path d="M469.24,42.58v-2.2a7.76,7.76,0,0,1-10.7.5,7.35,7.35,0,0,1-1.92-5.46V22.86h2.88V35a5.48,5.48,0,0,0,1.26,3.9,4.63,4.63,0,0,0,3.54,1.34,4.79,4.79,0,0,0,3.6-1.36A5.34,5.34,0,0,0,469.24,35V22.86h2.88V42.58Z" style="fill:#fff"/><path d="M490.34,26.62a5.16,5.16,0,0,0-1.54-1.12,4.72,4.72,0,0,0-1.86-.32,4.31,4.31,0,0,0-3.42,1.5,5.58,5.58,0,0,0-1.3,3.79V42.58h-2.88V22.86h2.88v2.4a5.59,5.59,0,0,1,2.3-1.92,7.36,7.36,0,0,1,3.22-.72,7.71,7.71,0,0,1,2.58.38,6,6,0,0,1,2.14,1.46Z" style="fill:#fff"/><path d="M498,33.46a7.49,7.49,0,0,0,1.5,5,5.33,5.33,0,0,0,4.3,1.77,7,7,0,0,0,2.8-.49A8.2,8.2,0,0,0,509,38l2,1.72a11.13,11.13,0,0,1-3.18,2.32,9.74,9.74,0,0,1-4,.72,8.13,8.13,0,0,1-6.33-2.5q-2.28-2.5-2.28-7.58,0-4.76,2.14-7.42a7.21,7.21,0,0,1,5.95-2.66,7.36,7.36,0,0,1,5.95,2.54,10.49,10.49,0,0,1,2.14,7v1.32ZM507.8,28a4.6,4.6,0,0,0-1.8-2.16,5.06,5.06,0,0,0-2.8-.8,5,5,0,0,0-2.78.8,4.33,4.33,0,0,0-1.68,1.86,8.74,8.74,0,0,0-.6,1.82A9.77,9.77,0,0,0,498,31.3H508.4a11.08,11.08,0,0,0-.1-1.76A7.83,7.83,0,0,0,507.8,28Z" style="fill:#fff"/><path d="M546.83,42.54l-2.55-3.13a15.86,15.86,0,0,1-3.41,2.33,10.77,10.77,0,0,1-5,1,9.25,9.25,0,0,1-6.57-2.28,7.82,7.82,0,0,1-2.44-6A7.52,7.52,0,0,1,528,30.42,17.6,17.6,0,0,1,533,26a25,25,0,0,1-2.32-3.18,5.87,5.87,0,0,1-.76-3,5.64,5.64,0,0,1,1.78-4.26,6.26,6.26,0,0,1,4.5-1.7,6.1,6.1,0,0,1,4.44,1.72,5.74,5.74,0,0,1,1.76,4.28,4.91,4.91,0,0,1-.82,2.84,8.8,8.8,0,0,1-2.34,2.24l-2.12,1.44,7.29,8.76a9.39,9.39,0,0,0,1.24-2.76,15.7,15.7,0,0,0,.36-3.76h2.88a17.51,17.51,0,0,1-.62,4.94,10.49,10.49,0,0,1-2,3.78l4.36,5.24ZM534.7,27.9a22,22,0,0,0-3.72,3,5,5,0,0,0-1.16,3.48,5.4,5.4,0,0,0,1.66,4.1,6,6,0,0,0,4.35,1.58,9.52,9.52,0,0,0,3.38-.58,11.17,11.17,0,0,0,3.34-2.18Zm1.51-11.52a3.16,3.16,0,0,0-2.35.92,3.28,3.28,0,0,0-.92,2.41,3.92,3.92,0,0,0,.54,1.93,21.57,21.57,0,0,0,2,2.77l1.51-1a10.25,10.25,0,0,0,1.88-1.67,2.88,2.88,0,0,0,.65-1.91,3.38,3.38,0,0,0-1-2.41A3.16,3.16,0,0,0,536.2,16.38Z" style="fill:#fff"/><path d="M567.45,42.58V14.06h3V42.58Z" style="fill:#fff"/><path d="M590.84,42.58V30.43a5.45,5.45,0,0,0-1.28-3.91A4.69,4.69,0,0,0,586,25.18a4.76,4.76,0,0,0-3.58,1.34,5.4,5.4,0,0,0-1.3,3.91V42.58h-2.88V22.86h2.88V25a7.69,7.69,0,0,1,10.67-.48A7.27,7.27,0,0,1,593.72,30V42.58Z" style="fill:#fff"/><path d="M606.25,42.58a4.71,4.71,0,0,1-3.74-1.48,5.56,5.56,0,0,1-1.3-3.81V25.18h-2.48V23h2.48V16.82h2.88V23h4.2v2.2h-4.2v12q0,2.89,2.68,2.89h1.52v2.48Z" style="fill:#fff"/><path d="M615.82,33.46a7.49,7.49,0,0,0,1.5,5,5.33,5.33,0,0,0,4.3,1.77,7,7,0,0,0,2.8-.49A8.2,8.2,0,0,0,626.79,38l2,1.72a11.13,11.13,0,0,1-3.18,2.32,9.74,9.74,0,0,1-4,.72,8.13,8.13,0,0,1-6.33-2.5q-2.28-2.5-2.28-7.58,0-4.76,2.14-7.42A7.21,7.21,0,0,1,621,22.62,7.36,7.36,0,0,1,627,25.16a10.49,10.49,0,0,1,2.14,7v1.32ZM625.63,28a4.6,4.6,0,0,0-1.8-2.16,5.06,5.06,0,0,0-2.8-.8,5,5,0,0,0-2.78.8,4.33,4.33,0,0,0-1.68,1.86,8.74,8.74,0,0,0-.6,1.82,9.77,9.77,0,0,0-.14,1.76h10.41a11.08,11.08,0,0,0-.1-1.76A7.83,7.83,0,0,0,625.63,28Z" style="fill:#fff"/><path d="M641.56,51.58a9.68,9.68,0,0,1-3.62-.58,10.9,10.9,0,0,1-3.06-2.06l1.88-1.84a9,9,0,0,0,2.16,1.47,6.28,6.28,0,0,0,2.56.45,4.91,4.91,0,0,0,4.06-1.67A6.68,6.68,0,0,0,646.89,43V40a6.2,6.2,0,0,1-2.46,2,8,8,0,0,1-3.06.55,7.39,7.39,0,0,1-2.68-.48,6.93,6.93,0,0,1-2.34-1.56,6.56,6.56,0,0,1-1.62-3.18,19.72,19.72,0,0,1-.52-4.74,20.05,20.05,0,0,1,.5-4.8,6.48,6.48,0,0,1,1.58-3.08,6.56,6.56,0,0,1,2.38-1.56,8.52,8.52,0,0,1,5.81.06,6.33,6.33,0,0,1,2.44,2V22.86h2.88V43.14a8.56,8.56,0,0,1-2.2,6.08A7.82,7.82,0,0,1,641.56,51.58Zm.44-26.4q-2.88,0-3.9,2a12,12,0,0,0-1,5.35,12.12,12.12,0,0,0,1,5.38q1,2,3.92,2t3.9-2a12.32,12.32,0,0,0,1-5.4,12.31,12.31,0,0,0-1-5.39Q644.93,25.18,642,25.18Z" style="fill:#fff"/><path d="M668,26.62a5.16,5.16,0,0,0-1.54-1.12,4.72,4.72,0,0,0-1.86-.32,4.31,4.31,0,0,0-3.42,1.5,5.58,5.58,0,0,0-1.3,3.79V42.58H657V22.86h2.88v2.4a5.59,5.59,0,0,1,2.3-1.92,7.36,7.36,0,0,1,3.22-.72A7.71,7.71,0,0,1,668,23a6,6,0,0,1,2.14,1.46Z" style="fill:#fff"/><path d="M685,42.58V40.7a6.93,6.93,0,0,1-2.44,1.61,9.55,9.55,0,0,1-3.24.47,11.38,11.38,0,0,1-3.34-.4,6.17,6.17,0,0,1-2.48-1.64A5.16,5.16,0,0,1,672.27,37,5.21,5.21,0,0,1,674,32.82a7.5,7.5,0,0,1,5-1.52H685V29.42a4.19,4.19,0,0,0-1.17-3.26A5.64,5.64,0,0,0,680,25.1a7.29,7.29,0,0,0-3,.48,5.17,5.17,0,0,0-1.95,1.76l-2-1.8a6.74,6.74,0,0,1,2.86-2.3,11.42,11.42,0,0,1,4.1-.62q7.89,0,7.89,6.57V42.58Zm0-9.12h-5.53q-4.4,0-4.4,3.48t4.52,3.36a11.07,11.07,0,0,0,2.52-.24,4.27,4.27,0,0,0,1.94-1.14,4.58,4.58,0,0,0,.94-3.34Z" style="fill:#fff"/><path d="M700.42,42.58a4.71,4.71,0,0,1-3.74-1.48,5.56,5.56,0,0,1-1.3-3.81V25.18h-2.48V23h2.48V16.82h2.88V23h4.2v2.2h-4.2v12q0,2.89,2.68,2.89h1.52v2.48Z" style="fill:#fff"/><path d="M708,17.22V14h3.24v3.24Zm.16,25.36V22.82h2.88V42.58Z" style="fill:#fff"/><path d="M731,40.54a7.65,7.65,0,0,1-2.46,1.66,9,9,0,0,1-6.35,0,8,8,0,0,1-2.64-1.84,6.91,6.91,0,0,1-1.74-3.12,17.7,17.7,0,0,1-.5-4.54,17.8,17.8,0,0,1,.5-4.5A6.91,6.91,0,0,1,719.52,25a7.52,7.52,0,0,1,5.81-2.42,8.21,8.21,0,0,1,3.16.58A8.07,8.07,0,0,1,731.13,25a6.91,6.91,0,0,1,1.74,3.12,17.7,17.7,0,0,1,.5,4.54,17.8,17.8,0,0,1-.5,4.5A7.44,7.44,0,0,1,731,40.54Zm-2-13.92a4.89,4.89,0,0,0-3.6-1.44,4.49,4.49,0,0,0-3.32,1.2,5.37,5.37,0,0,0-1.52,2.78,17.86,17.86,0,0,0-.32,3.54,18.37,18.37,0,0,0,.3,3.62A5.27,5.27,0,0,0,722,39a5.25,5.25,0,0,0,6.71,0,5.23,5.23,0,0,0,1.5-2.7,18.73,18.73,0,0,0,.3-3.62,18.82,18.82,0,0,0-.3-3.6A4.69,4.69,0,0,0,728.93,26.62Z" style="fill:#fff"/><path d="M752.15,42.58V30.43a5.45,5.45,0,0,0-1.28-3.91,4.69,4.69,0,0,0-3.56-1.34,4.76,4.76,0,0,0-3.58,1.34,5.4,5.4,0,0,0-1.3,3.91V42.58h-2.88V22.86h2.88V25a7.69,7.69,0,0,1,10.67-.48A7.27,7.27,0,0,1,755,30V42.58Z" style="fill:#fff"/><rect width="51.83" height="51.8" style="fill:#00a7e1"/><path d="M40.34,20.94a5.11,5.11,0,0,1-3,1.13h-.41a13,13,0,1,1-5.51-5.51v-.41a5.1,5.1,0,0,1,1.13-3,16.62,16.62,0,1,0,7.83,7.82Z" style="fill:#fff"/><path d="M33.87,24.08l-2.81,2.81a5.85,5.85,0,1,1-4.49-4.49l2.81-2.81a9.43,9.43,0,1,0,4.49,4.49Z" style="fill:#fff"/><path d="M42.55,14.69,40.26,13.2l-1.5-2.29c0-.58-.35-.72-.76-.31l-3.75,3.75a3,3,0,0,0-.75,1.81v2.3L26,26a2.25,2.25,0,1,0,1.5,1.5L35,19.95H37.3a3,3,0,0,0,1.81-.75l3.75-3.75C43.27,15,43.13,14.7,42.55,14.69Z" style="fill:#fff"/></svg>