<svg id="Layer_1" data-name="Layer 1" xmlns="http://www.w3.org/2000/svg" viewBox="0 0 608.57 51.8"><title>Customer_Services</title><path d="M89,39.64a9.72,9.72,0,0,1-7.2,2.64H72V13.77h9.76q4.56,0,6.86,2.3a9,9,0,0,1,2.72,4.77,43.22,43.22,0,0,1,.42,6.87v1.52a31.73,31.73,0,0,1-.5,6.13A8.25,8.25,0,0,1,89,39.64ZM86.83,18.57A6.26,6.26,0,0,0,84.37,17a9.39,9.39,0,0,0-3.14-.5H75V39.57h6.2a9.66,9.66,0,0,0,3.14-.46,6.44,6.44,0,0,0,2.54-1.72,6.14,6.14,0,0,0,1.5-3.53,49.23,49.23,0,0,0,.3-6.15V26.38a21.47,21.47,0,0,0-.44-5.25A6.08,6.08,0,0,0,86.83,18.57Z" style="fill:#fff"/><path d="M98.24,16.93V13.69h3.24v3.24Zm.16,25.36V22.53h2.88V42.29Z" style="fill:#fff"/><path d="M114.84,51.29a9.66,9.66,0,0,1-3.62-.58,10.88,10.88,0,0,1-3.06-2.06L110,46.81a9,9,0,0,0,2.16,1.47,6.27,6.27,0,0,0,2.56.45,4.91,4.91,0,0,0,4.06-1.67,6.68,6.68,0,0,0,1.34-4.32V39.69a6.2,6.2,0,0,1-2.46,2,8,8,0,0,1-3.06.55,7.38,7.38,0,0,1-2.68-.48,6.93,6.93,0,0,1-2.34-1.56A6.56,6.56,0,0,1,108,37a19.77,19.77,0,0,1-.52-4.74,20.11,20.11,0,0,1,.5-4.8,6.49,6.49,0,0,1,1.58-3.08,6.57,6.57,0,0,1,2.37-1.56,8.52,8.52,0,0,1,5.8.06,6.32,6.32,0,0,1,2.43,2V22.57H123V42.85a8.56,8.56,0,0,1-2.2,6.08A7.81,7.81,0,0,1,114.84,51.29Zm.44-26.4q-2.88,0-3.9,2a12,12,0,0,0-1,5.35,12.14,12.14,0,0,0,1,5.38q1,2,3.92,2t3.9-2a12.34,12.34,0,0,0,1-5.4,12.33,12.33,0,0,0-1-5.39Q118.2,24.89,115.28,24.89Z" style="fill:#fff"/><path d="M130.08,16.93V13.69h3.24v3.24Zm.16,25.36V22.53h2.88V42.29Z" style="fill:#fff"/><path d="M145.89,42.29a4.71,4.71,0,0,1-3.74-1.48,5.56,5.56,0,0,1-1.3-3.81V24.89h-2.48v-2.2h2.48V16.53h2.88v6.16h4.2v2.2h-4.2v12q0,2.89,2.68,2.89h1.52v2.48Z" style="fill:#fff"/><path d="M164.81,42.29V40.41A6.93,6.93,0,0,1,162.37,42a9.53,9.53,0,0,1-3.24.47,11.37,11.37,0,0,1-3.34-.4,6.16,6.16,0,0,1-2.48-1.64,5.16,5.16,0,0,1-1.22-3.76,5.21,5.21,0,0,1,1.76-4.16,7.49,7.49,0,0,1,5-1.52h5.92V29.13a4.19,4.19,0,0,0-1.17-3.26,5.64,5.64,0,0,0-3.83-1.06,7.28,7.28,0,0,0-3,.48A5.15,5.15,0,0,0,154.89,27l-2-1.8a6.74,6.74,0,0,1,2.86-2.3,11.39,11.39,0,0,1,4.1-.62q7.88,0,7.88,6.57V42.29Zm0-9.12h-5.52q-4.4,0-4.4,3.48T159.41,40a11.05,11.05,0,0,0,2.52-.24,4.27,4.27,0,0,0,1.94-1.14,4.59,4.59,0,0,0,.94-3.34Z" style="fill:#fff"/><path d="M179.62,42.29a4.74,4.74,0,0,1-3.74-1.42A5.56,5.56,0,0,1,174.62,37V13.77h2.88V36.92a3.39,3.39,0,0,0,.58,2.18,2.55,2.55,0,0,0,2.06.7h1.56v2.48Z" style="fill:#fff"/><path d="M213.42,42.29l-6.48-12.68H200.1V42.29h-3V13.77H208a8.69,8.69,0,0,1,6.1,2.14,7.45,7.45,0,0,1,2.34,5.78,7.57,7.57,0,0,1-1.68,5,7.81,7.81,0,0,1-4.52,2.6l6.76,13Zm-5.72-25.8h-7.6V26.93h7.6a6.15,6.15,0,0,0,4.14-1.32,4.83,4.83,0,0,0,1.54-3.88,4.87,4.87,0,0,0-1.56-3.88A6.05,6.05,0,0,0,207.7,16.49Z" style="fill:#fff"/><path d="M222.63,16.93V13.69h3.24v3.24Zm.16,25.36V22.53h2.88V42.29Z" style="fill:#fff"/><path d="M239.51,42.29H237l-7.2-19.72h3.11l5.35,15.82,5.43-15.82h3.11Z" style="fill:#fff"/><path d="M252.6,33.17a7.49,7.49,0,0,0,1.5,5,5.32,5.32,0,0,0,4.3,1.77,7,7,0,0,0,2.8-.49,8.16,8.16,0,0,0,2.36-1.71l2,1.72a11.12,11.12,0,0,1-3.18,2.32,9.73,9.73,0,0,1-4,.72A8.12,8.12,0,0,1,252,40q-2.28-2.5-2.28-7.58,0-4.76,2.14-7.42a7.2,7.2,0,0,1,5.94-2.66,7.35,7.35,0,0,1,5.94,2.54,10.5,10.5,0,0,1,2.14,7v1.32Zm9.8-5.44a4.61,4.61,0,0,0-1.8-2.16,5.06,5.06,0,0,0-2.8-.8,5,5,0,0,0-2.78.8,4.33,4.33,0,0,0-1.68,1.86,8.67,8.67,0,0,0-.6,1.82A9.77,9.77,0,0,0,252.6,31H263a11.08,11.08,0,0,0-.1-1.76A7.83,7.83,0,0,0,262.4,27.73Z" style="fill:#fff"/><path d="M283,26.33a5.17,5.17,0,0,0-1.54-1.12,4.71,4.71,0,0,0-1.86-.32,4.3,4.3,0,0,0-3.42,1.5,5.58,5.58,0,0,0-1.3,3.79V42.29H272V22.57h2.88V25a5.6,5.6,0,0,1,2.3-1.92,7.36,7.36,0,0,1,3.22-.72,7.7,7.7,0,0,1,2.58.38,6,6,0,0,1,2.14,1.46Z" style="fill:#fff"/><path d="M308.21,42.49a9.08,9.08,0,0,1-6.72-2.4,9.25,9.25,0,0,1-2.82-4.68,45.69,45.69,0,0,1-.42-7.4q0-4.24.24-6.78a8.59,8.59,0,0,1,2.82-5.12,9.33,9.33,0,0,1,6.9-2.58,9.74,9.74,0,0,1,6.52,2.24A10.25,10.25,0,0,1,318.09,22H315a7.69,7.69,0,0,0-2.34-4.22,6.43,6.43,0,0,0-4.42-1.54,6.16,6.16,0,0,0-4.62,1.66,6.8,6.8,0,0,0-2,3.52,42.58,42.58,0,0,0-.34,6.58,42.64,42.64,0,0,0,.34,6.56,6.8,6.8,0,0,0,2,3.54,6.16,6.16,0,0,0,4.62,1.66,6.58,6.58,0,0,0,4.46-1.54A7.58,7.58,0,0,0,315.05,34h3a10.09,10.09,0,0,1-3.34,6.22A9.76,9.76,0,0,1,308.21,42.49Z" style="fill:#fff"/><path d="M336.7,42.29v-2.2a7.75,7.75,0,0,1-10.69.5,7.35,7.35,0,0,1-1.91-5.46V22.57H327V34.69a5.49,5.49,0,0,0,1.26,3.9,4.62,4.62,0,0,0,3.54,1.34,4.79,4.79,0,0,0,3.6-1.36,5.34,5.34,0,0,0,1.32-3.88V22.57h2.88V42.29Z" style="fill:#fff"/><path d="M353,42.49a14.29,14.29,0,0,1-4.52-.65,9.59,9.59,0,0,1-3.56-2.16l1.92-1.9a6.58,6.58,0,0,0,2.64,1.71,10.54,10.54,0,0,0,3.48.53,7.31,7.31,0,0,0,3.88-.85,2.86,2.86,0,0,0,1.36-2.6q0-2.58-3.28-2.86l-3.24-.28A6.2,6.2,0,0,1,347.3,32a5,5,0,0,1-1.52-3.89,5.06,5.06,0,0,1,2-4.23A8.34,8.34,0,0,1,353,22.33a10.89,10.89,0,0,1,7.08,2.12l-1.88,1.88A8.39,8.39,0,0,0,353,24.77a5.39,5.39,0,0,0-3.28.85A2.85,2.85,0,0,0,348.58,28a2.81,2.81,0,0,0,.8,2.13,3.75,3.75,0,0,0,2.64.76l3.16.28a7.78,7.78,0,0,1,4.3,1.46,4.66,4.66,0,0,1,1.5,3.85,5.14,5.14,0,0,1-2.16,4.41A9.72,9.72,0,0,1,353,42.49Z" style="fill:#fff"/><path d="M372.15,42.29a4.71,4.71,0,0,1-3.74-1.48,5.56,5.56,0,0,1-1.3-3.81V24.89h-2.48v-2.2h2.48V16.53H370v6.16h4.2v2.2H370v12q0,2.89,2.68,2.89h1.52v2.48Z" style="fill:#fff"/><path d="M392.55,40.25a7.65,7.65,0,0,1-2.46,1.66,9,9,0,0,1-6.34,0,8,8,0,0,1-2.64-1.84,6.91,6.91,0,0,1-1.74-3.12,17.7,17.7,0,0,1-.5-4.54,17.8,17.8,0,0,1,.5-4.5,6.92,6.92,0,0,1,1.74-3.16,7.51,7.51,0,0,1,5.8-2.42,8.19,8.19,0,0,1,3.16.58,8,8,0,0,1,2.64,1.84,6.91,6.91,0,0,1,1.74,3.12,17.75,17.75,0,0,1,.5,4.54,17.85,17.85,0,0,1-.5,4.5A7.45,7.45,0,0,1,392.55,40.25Zm-2-13.92a4.89,4.89,0,0,0-3.6-1.44,4.49,4.49,0,0,0-3.32,1.2,5.37,5.37,0,0,0-1.52,2.78,17.86,17.86,0,0,0-.32,3.54,18.45,18.45,0,0,0,.3,3.62,5.27,5.27,0,0,0,1.52,2.68,5.25,5.25,0,0,0,6.7,0,5.23,5.23,0,0,0,1.5-2.7,18.82,18.82,0,0,0,.3-3.62,18.91,18.91,0,0,0-.3-3.6A4.69,4.69,0,0,0,390.51,26.33Z" style="fill:#fff"/><path d="M426.4,42.29V30.14a5.46,5.46,0,0,0-1.28-3.91,4.69,4.69,0,0,0-3.56-1.34A4.89,4.89,0,0,0,418,26.21a4.8,4.8,0,0,0-1.36,3.61V42.29h-2.88V30.14a5.45,5.45,0,0,0-1.28-3.91,4.68,4.68,0,0,0-3.56-1.34,4.78,4.78,0,0,0-3.6,1.36A5.36,5.36,0,0,0,404,30.14V42.29h-2.88V22.57H404v2.16a7.07,7.07,0,0,1,5.56-2.4,6.39,6.39,0,0,1,6,3.28,7.49,7.49,0,0,1,6.48-3.28,8.17,8.17,0,0,1,2.86.48,8.58,8.58,0,0,1,2.82,1.94q1.52,1.46,1.52,4.91V42.29Z" style="fill:#fff"/><path d="M438.09,33.17a7.49,7.49,0,0,0,1.5,5,5.32,5.32,0,0,0,4.3,1.77,7,7,0,0,0,2.8-.49A8.16,8.16,0,0,0,449,37.73l2,1.72a11.12,11.12,0,0,1-3.18,2.32,9.73,9.73,0,0,1-4,.72,8.12,8.12,0,0,1-6.32-2.5q-2.28-2.5-2.28-7.58,0-4.76,2.14-7.42a7.2,7.2,0,0,1,5.94-2.66,7.35,7.35,0,0,1,5.94,2.54,10.5,10.5,0,0,1,2.14,7v1.32Zm9.8-5.44a4.61,4.61,0,0,0-1.8-2.16,5.06,5.06,0,0,0-2.8-.8,5,5,0,0,0-2.78.8,4.33,4.33,0,0,0-1.68,1.86,8.67,8.67,0,0,0-.6,1.82,9.77,9.77,0,0,0-.14,1.76h10.4a11.08,11.08,0,0,0-.1-1.76A7.83,7.83,0,0,0,447.89,27.73Z" style="fill:#fff"/><path d="M468.5,26.33A5.17,5.17,0,0,0,467,25.21a4.71,4.71,0,0,0-1.86-.32,4.3,4.3,0,0,0-3.42,1.5,5.58,5.58,0,0,0-1.3,3.79V42.29h-2.88V22.57h2.88V25a5.6,5.6,0,0,1,2.3-1.92,7.36,7.36,0,0,1,3.22-.72,7.7,7.7,0,0,1,2.58.38,6,6,0,0,1,2.14,1.46Z" style="fill:#fff"/><path d="M492.14,42.49a15.49,15.49,0,0,1-5.48-.84,12.39,12.39,0,0,1-4.28-2.92l2.08-2.08a10.45,10.45,0,0,0,3.5,2.42,11.64,11.64,0,0,0,4.26.7,7.82,7.82,0,0,0,4.92-1.4,4.64,4.64,0,0,0,1.8-3.88,4.2,4.2,0,0,0-1-3.24,5.9,5.9,0,0,0-1.78-1.16,13.54,13.54,0,0,0-2.3-.52L490.54,29a10.59,10.59,0,0,1-5.4-2.32,6.51,6.51,0,0,1-2-5.16,7.45,7.45,0,0,1,2.46-5.84,9.63,9.63,0,0,1,6.66-2.2,13.42,13.42,0,0,1,4.66.72,12.13,12.13,0,0,1,3.82,2.4l-2,2a9.38,9.38,0,0,0-2.9-1.82,10.24,10.24,0,0,0-3.74-.62,6.38,6.38,0,0,0-4.42,1.42,4.93,4.93,0,0,0-1.58,3.86,3.78,3.78,0,0,0,1,3,7.27,7.27,0,0,0,2,1.24,10.79,10.79,0,0,0,2.16.62l3.12.48a14.26,14.26,0,0,1,3.12.74,10.89,10.89,0,0,1,2.82,1.88q1.66,1.42,1.66,5a7.22,7.22,0,0,1-2.66,5.9A11,11,0,0,1,492.14,42.49Z" style="fill:#fff"/><path d="M509.63,33.17a7.49,7.49,0,0,0,1.5,5,5.32,5.32,0,0,0,4.3,1.77,7,7,0,0,0,2.8-.49,8.16,8.16,0,0,0,2.36-1.71l2,1.72a11.12,11.12,0,0,1-3.18,2.32,9.73,9.73,0,0,1-4,.72A8.12,8.12,0,0,1,509,40q-2.28-2.5-2.28-7.58,0-4.76,2.14-7.42a7.2,7.2,0,0,1,5.94-2.66,7.35,7.35,0,0,1,5.94,2.54,10.5,10.5,0,0,1,2.14,7v1.32Zm9.8-5.44a4.61,4.61,0,0,0-1.8-2.16,5.06,5.06,0,0,0-2.8-.8,5,5,0,0,0-2.78.8,4.33,4.33,0,0,0-1.68,1.86,8.67,8.67,0,0,0-.6,1.82,9.77,9.77,0,0,0-.14,1.76H520a11.08,11.08,0,0,0-.1-1.76A7.83,7.83,0,0,0,519.43,27.73Z" style="fill:#fff"/><path d="M540,26.33a5.17,5.17,0,0,0-1.54-1.12,4.71,4.71,0,0,0-1.86-.32,4.3,4.3,0,0,0-3.42,1.5,5.58,5.58,0,0,0-1.3,3.79V42.29H529V22.57h2.88V25a5.6,5.6,0,0,1,2.3-1.92,7.36,7.36,0,0,1,3.22-.72,7.7,7.7,0,0,1,2.58.38,6,6,0,0,1,2.14,1.46Z" style="fill:#fff"/><path d="M552.48,42.29h-2.56l-7.2-19.72h3.11l5.35,15.82,5.43-15.82h3.11Z" style="fill:#fff"/><path d="M563.6,16.93V13.69h3.24v3.24Zm.16,25.36V22.53h2.88V42.29Z" style="fill:#fff"/><path d="M581.53,42.49a8.2,8.2,0,0,1-6.28-2.62q-2.44-2.62-2.44-7.46t2.42-7.48a8.22,8.22,0,0,1,6.3-2.6,8.73,8.73,0,0,1,3.52.62,9.52,9.52,0,0,1,3,2.3l-2,1.84a7.24,7.24,0,0,0-2.12-1.72,5.5,5.5,0,0,0-2.4-.48,5,5,0,0,0-4.42,2,9.41,9.41,0,0,0-1.42,5.5,13.94,13.94,0,0,0,.28,3.08,8.53,8.53,0,0,0,1.42,2.82q1.14,1.62,4.14,1.62a5.35,5.35,0,0,0,2.4-.48A7.74,7.74,0,0,0,586,37.69l2,1.88a9.4,9.4,0,0,1-3,2.28A8.66,8.66,0,0,1,581.53,42.49Z" style="fill:#fff"/><path d="M595.29,33.17a7.49,7.49,0,0,0,1.5,5,5.32,5.32,0,0,0,4.3,1.77,7,7,0,0,0,2.8-.49,8.16,8.16,0,0,0,2.36-1.71l2,1.72A11.12,11.12,0,0,1,605,41.77a9.73,9.73,0,0,1-4,.72,8.12,8.12,0,0,1-6.32-2.5q-2.28-2.5-2.28-7.58,0-4.76,2.14-7.42a7.2,7.2,0,0,1,5.94-2.66,7.35,7.35,0,0,1,5.94,2.54,10.5,10.5,0,0,1,2.14,7v1.32Zm9.8-5.44a4.61,4.61,0,0,0-1.8-2.16,5.06,5.06,0,0,0-2.8-.8,5,5,0,0,0-2.78.8A4.33,4.33,0,0,0,596,27.43a8.67,8.67,0,0,0-.6,1.82,9.77,9.77,0,0,0-.14,1.76h10.4a11.08,11.08,0,0,0-.1-1.76A7.83,7.83,0,0,0,605.09,27.73Z" style="fill:#fff"/><rect width="51.8" height="51.8" style="fill:#00a7e1"/><path d="M12.7,23.26a7.28,7.28,0,0,0-3,6.17,7.27,7.27,0,0,0,3,6.16Z" style="fill:#fff"/><path d="M39.81,23.15a7.28,7.28,0,0,1,3,6.17,7.27,7.27,0,0,1-3,6.17Z" style="fill:#fff"/><path d="M38.58,23V35.89H35.77A1.76,1.76,0,0,1,34,34.13V24.71A1.76,1.76,0,0,1,35.77,23h1.31c-1.4-4.66-5.72-6.82-10.83-6.82S16.82,18.3,15.42,23h1.31a1.76,1.76,0,0,1,1.76,1.76v9.41a1.76,1.76,0,0,1-1.76,1.76H13.93V23c1.46-6.14,5.74-10.7,12.33-10.7S37.12,16.82,38.58,23Z" style="fill:#fff"/><path d="M43.79,31.64A8.57,8.57,0,0,1,42,35.18a4.37,4.37,0,0,1-.3.87c-1,2.12-3.6,3.37-5.91,4.09a2.81,2.81,0,1,0,.47,1.92c2.93-.89,5.93-2.44,7.23-5.16A7.37,7.37,0,0,0,43.79,31.64Z" style="fill:#fff"/></svg>