<svg id="Layer_1" data-name="Layer 1" xmlns="http://www.w3.org/2000/svg" viewBox="0 0 637.36 51.8"><title>Fraud_Managment</title><rect width="51.8" height="51.8" style="fill:#00a7e1"/><path d="M85.57,39.54a9.72,9.72,0,0,1-7.2,2.64H68.6V13.66h9.76q4.56,0,6.86,2.3a9,9,0,0,1,2.72,4.77,43.22,43.22,0,0,1,.42,6.87v1.52a31.73,31.73,0,0,1-.5,6.13A8.25,8.25,0,0,1,85.57,39.54ZM83.45,18.47A6.26,6.26,0,0,0,81,16.88a9.39,9.39,0,0,0-3.14-.5h-6.2V39.46h6.2A9.66,9.66,0,0,0,81,39a6.44,6.44,0,0,0,2.54-1.72A6.14,6.14,0,0,0,85,33.75a49.23,49.23,0,0,0,.3-6.15V26.28A21.47,21.47,0,0,0,84.89,21,6.08,6.08,0,0,0,83.45,18.47Z" style="fill:#fff"/><path d="M94.85,16.82V13.58h3.24v3.24ZM95,42.18V22.42h2.88V42.18Z" style="fill:#fff"/><path d="M111.45,51.18a9.66,9.66,0,0,1-3.62-.58,10.88,10.88,0,0,1-3.06-2.06l1.88-1.84a9,9,0,0,0,2.16,1.47,6.27,6.27,0,0,0,2.56.45A4.91,4.91,0,0,0,115.43,47a6.68,6.68,0,0,0,1.34-4.32V39.58a6.2,6.2,0,0,1-2.46,2,8,8,0,0,1-3.06.55,7.38,7.38,0,0,1-2.68-.48,6.93,6.93,0,0,1-2.34-1.56,6.56,6.56,0,0,1-1.62-3.18,19.77,19.77,0,0,1-.52-4.74,20.11,20.11,0,0,1,.5-4.8,6.49,6.49,0,0,1,1.58-3.08,6.57,6.57,0,0,1,2.37-1.56,8.52,8.52,0,0,1,5.8.06,6.32,6.32,0,0,1,2.43,2V22.46h2.88V42.74a8.56,8.56,0,0,1-2.2,6.08A7.81,7.81,0,0,1,111.45,51.18Zm.44-26.4q-2.88,0-3.9,2a12,12,0,0,0-1,5.35,12.14,12.14,0,0,0,1,5.38q1,2,3.92,2t3.9-2a12.34,12.34,0,0,0,1-5.4,12.33,12.33,0,0,0-1-5.39Q114.81,24.78,111.89,24.78Z" style="fill:#fff"/><path d="M126.7,16.82V13.58h3.24v3.24Zm.16,25.36V22.42h2.88V42.18Z" style="fill:#fff"/><path d="M142.5,42.18a4.71,4.71,0,0,1-3.74-1.48,5.56,5.56,0,0,1-1.3-3.81V24.78H135v-2.2h2.48V16.42h2.88v6.16h4.2v2.2h-4.2v12q0,2.89,2.68,2.89h1.52v2.48Z" style="fill:#fff"/><path d="M161.43,42.18V40.3A6.93,6.93,0,0,1,159,41.91a9.53,9.53,0,0,1-3.24.47,11.37,11.37,0,0,1-3.34-.4,6.16,6.16,0,0,1-2.48-1.64,5.16,5.16,0,0,1-1.22-3.76,5.21,5.21,0,0,1,1.76-4.16,7.49,7.49,0,0,1,5-1.52h5.92V29a4.19,4.19,0,0,0-1.17-3.26,5.64,5.64,0,0,0-3.83-1.06,7.28,7.28,0,0,0-3,.48,5.15,5.15,0,0,0-1.94,1.76l-2-1.8a6.74,6.74,0,0,1,2.86-2.3,11.39,11.39,0,0,1,4.1-.62q7.88,0,7.88,6.57V42.18Zm0-9.12H155.9q-4.4,0-4.4,3.48T156,39.9a11.05,11.05,0,0,0,2.52-.24,4.27,4.27,0,0,0,1.94-1.14,4.59,4.59,0,0,0,.94-3.34Z" style="fill:#fff"/><path d="M176.23,42.18a4.74,4.74,0,0,1-3.74-1.42,5.56,5.56,0,0,1-1.26-3.83V13.66h2.88V36.82a3.39,3.39,0,0,0,.58,2.18,2.55,2.55,0,0,0,2.06.7h1.56v2.48Z" style="fill:#fff"/><path d="M210,42.18,203.55,29.5h-6.84V42.18h-3V13.66H204.6a8.69,8.69,0,0,1,6.1,2.14A7.45,7.45,0,0,1,213,21.58a7.57,7.57,0,0,1-1.68,5,7.81,7.81,0,0,1-4.52,2.6l6.76,13Zm-5.72-25.8h-7.6V26.82h7.6a6.15,6.15,0,0,0,4.14-1.32A4.83,4.83,0,0,0,210,21.62a4.87,4.87,0,0,0-1.56-3.88A6.05,6.05,0,0,0,204.32,16.38Z" style="fill:#fff"/><path d="M219.24,16.82V13.58h3.24v3.24Zm.16,25.36V22.42h2.88V42.18Z" style="fill:#fff"/><path d="M236.13,42.18h-2.56l-7.2-19.72h3.11l5.35,15.82,5.43-15.82h3.11Z" style="fill:#fff"/><path d="M249.21,33.06a7.49,7.49,0,0,0,1.5,5,5.32,5.32,0,0,0,4.3,1.77,7,7,0,0,0,2.8-.49,8.16,8.16,0,0,0,2.36-1.71l2,1.72A11.12,11.12,0,0,1,259,41.66a9.73,9.73,0,0,1-4,.72,8.12,8.12,0,0,1-6.32-2.5q-2.28-2.5-2.28-7.58,0-4.76,2.14-7.42a7.2,7.2,0,0,1,5.94-2.66,7.35,7.35,0,0,1,5.94,2.54,10.5,10.5,0,0,1,2.14,7v1.32Zm9.8-5.44a4.61,4.61,0,0,0-1.8-2.16,5.06,5.06,0,0,0-2.8-.8,5,5,0,0,0-2.78.8,4.33,4.33,0,0,0-1.68,1.86,8.67,8.67,0,0,0-.6,1.82,9.77,9.77,0,0,0-.14,1.76h10.4a11.08,11.08,0,0,0-.1-1.76A7.83,7.83,0,0,0,259,27.62Z" style="fill:#fff"/><path d="M279.62,26.22a5.17,5.17,0,0,0-1.54-1.12,4.71,4.71,0,0,0-1.86-.32,4.3,4.3,0,0,0-3.42,1.5,5.58,5.58,0,0,0-1.3,3.79V42.18h-2.88V22.46h2.88v2.4a5.6,5.6,0,0,1,2.3-1.92,7.36,7.36,0,0,1,3.22-.72,7.7,7.7,0,0,1,2.58.38,6,6,0,0,1,2.14,1.46Z" style="fill:#fff"/><path d="M299,16.38V26.86h12.48v2.72H299v12.6h-3V13.66h17.69v2.72Z" style="fill:#fff"/><path d="M329.63,26.22a5.17,5.17,0,0,0-1.54-1.12,4.71,4.71,0,0,0-1.86-.32,4.3,4.3,0,0,0-3.42,1.5,5.58,5.58,0,0,0-1.3,3.79V42.18h-2.88V22.46h2.88v2.4a5.6,5.6,0,0,1,2.3-1.92,7.36,7.36,0,0,1,3.22-.72,7.7,7.7,0,0,1,2.58.38,6,6,0,0,1,2.14,1.46Z" style="fill:#fff"/><path d="M346.64,42.18V40.3a6.93,6.93,0,0,1-2.44,1.61,9.53,9.53,0,0,1-3.24.47,11.37,11.37,0,0,1-3.34-.4,6.16,6.16,0,0,1-2.48-1.64,5.16,5.16,0,0,1-1.22-3.76,5.21,5.21,0,0,1,1.76-4.16,7.49,7.49,0,0,1,5-1.52h5.92V29a4.19,4.19,0,0,0-1.17-3.26,5.64,5.64,0,0,0-3.83-1.06,7.28,7.28,0,0,0-3,.48,5.15,5.15,0,0,0-1.94,1.76l-2-1.8a6.74,6.74,0,0,1,2.86-2.3,11.39,11.39,0,0,1,4.1-.62q7.88,0,7.88,6.57V42.18Zm0-9.12h-5.52q-4.4,0-4.4,3.48t4.52,3.36a11.05,11.05,0,0,0,2.52-.24,4.27,4.27,0,0,0,1.94-1.14,4.59,4.59,0,0,0,.94-3.34Z" style="fill:#fff"/><path d="M368.92,42.18V40a7.75,7.75,0,0,1-10.69.5A7.35,7.35,0,0,1,356.32,35V22.46h2.88V34.58a5.49,5.49,0,0,0,1.26,3.9A4.62,4.62,0,0,0,364,39.82a4.79,4.79,0,0,0,3.6-1.36,5.34,5.34,0,0,0,1.32-3.88V22.46h2.88V42.18Z" style="fill:#fff"/><path d="M390.73,42.18V39.82a6.05,6.05,0,0,1-2.45,2,8.16,8.16,0,0,1-3.13.55,6.27,6.27,0,0,1-4.63-1.56,7.58,7.58,0,0,1-2.05-3.64,21.13,21.13,0,0,1-.5-4.88,21.09,21.09,0,0,1,.5-4.86,6.12,6.12,0,0,1,4-4.74,7.86,7.86,0,0,1,2.74-.48,8.36,8.36,0,0,1,3.1.52,6.11,6.11,0,0,1,2.46,2V13.66h2.88V42.18Zm-4.92-17.4q-2.92,0-3.94,2a12.35,12.35,0,0,0-1,5.48,12.52,12.52,0,0,0,1,5.52q1,2,4,2t3.9-2a12.34,12.34,0,0,0,1-5.48,12.54,12.54,0,0,0-1-5.52Q388.73,24.78,385.81,24.78Z" style="fill:#fff"/><path d="M432.66,42.18V20.52l-7.81,17.14h-2.61l-7.91-17.11V42.18h-3V13.66h3l9.28,20.2,9-20.2h3V42.18Z" style="fill:#fff"/><path d="M454.59,42.18V40.3a6.93,6.93,0,0,1-2.44,1.61,9.53,9.53,0,0,1-3.24.47,11.37,11.37,0,0,1-3.34-.4,6.16,6.16,0,0,1-2.48-1.64,5.16,5.16,0,0,1-1.22-3.76,5.21,5.21,0,0,1,1.76-4.16,7.49,7.49,0,0,1,5-1.52h5.92V29a4.19,4.19,0,0,0-1.17-3.26,5.64,5.64,0,0,0-3.83-1.06,7.28,7.28,0,0,0-3,.48,5.15,5.15,0,0,0-1.94,1.76l-2-1.8a6.74,6.74,0,0,1,2.86-2.3,11.39,11.39,0,0,1,4.1-.62q7.88,0,7.88,6.57V42.18Zm0-9.12h-5.52q-4.4,0-4.4,3.48t4.52,3.36a11.05,11.05,0,0,0,2.52-.24,4.27,4.27,0,0,0,1.94-1.14,4.59,4.59,0,0,0,.94-3.34Z" style="fill:#fff"/><path d="M477.07,42.18V30a5.46,5.46,0,0,0-1.28-3.91,4.69,4.69,0,0,0-3.56-1.34,4.75,4.75,0,0,0-3.58,1.34,5.4,5.4,0,0,0-1.3,3.91V42.18h-2.88V22.46h2.88v2.16A7.68,7.68,0,0,1,478,24.15,7.28,7.28,0,0,1,480,29.56V42.18Z" style="fill:#fff"/><path d="M498.12,42.18V40.3a6.93,6.93,0,0,1-2.44,1.61,9.53,9.53,0,0,1-3.24.47,11.37,11.37,0,0,1-3.34-.4,6.16,6.16,0,0,1-2.48-1.64,5.16,5.16,0,0,1-1.22-3.76,5.21,5.21,0,0,1,1.76-4.16,7.49,7.49,0,0,1,5-1.52h5.92V29a4.19,4.19,0,0,0-1.17-3.26,5.64,5.64,0,0,0-3.83-1.06,7.28,7.28,0,0,0-3,.48,5.15,5.15,0,0,0-1.94,1.76l-2-1.8a6.74,6.74,0,0,1,2.86-2.3,11.39,11.39,0,0,1,4.1-.62q7.88,0,7.88,6.57V42.18Zm0-9.12H492.6q-4.4,0-4.4,3.48t4.52,3.36a11.05,11.05,0,0,0,2.52-.24,4.27,4.27,0,0,0,1.94-1.14,4.59,4.59,0,0,0,.94-3.34Z" style="fill:#fff"/><path d="M514.32,51.18a9.66,9.66,0,0,1-3.62-.58,10.88,10.88,0,0,1-3.06-2.06l1.88-1.84a9,9,0,0,0,2.16,1.47,6.27,6.27,0,0,0,2.56.45A4.91,4.91,0,0,0,518.3,47a6.68,6.68,0,0,0,1.34-4.32V39.58a6.2,6.2,0,0,1-2.46,2,8,8,0,0,1-3.06.55,7.38,7.38,0,0,1-2.68-.48,6.93,6.93,0,0,1-2.34-1.56,6.56,6.56,0,0,1-1.62-3.18,19.77,19.77,0,0,1-.52-4.74,20.11,20.11,0,0,1,.5-4.8A6.49,6.49,0,0,1,509,24.26a6.57,6.57,0,0,1,2.37-1.56,8.52,8.52,0,0,1,5.8.06,6.32,6.32,0,0,1,2.43,2V22.46h2.88V42.74a8.56,8.56,0,0,1-2.2,6.08A7.81,7.81,0,0,1,514.32,51.18Zm.44-26.4q-2.88,0-3.9,2a12,12,0,0,0-1,5.35,12.14,12.14,0,0,0,1,5.38q1,2,3.92,2t3.9-2a12.34,12.34,0,0,0,1-5.4,12.33,12.33,0,0,0-1-5.39Q517.68,24.78,514.76,24.78Z" style="fill:#fff"/><path d="M531.53,33.06a7.49,7.49,0,0,0,1.5,5,5.32,5.32,0,0,0,4.3,1.77,7,7,0,0,0,2.8-.49,8.16,8.16,0,0,0,2.36-1.71l2,1.72a11.12,11.12,0,0,1-3.18,2.32,9.73,9.73,0,0,1-4,.72,8.12,8.12,0,0,1-6.32-2.5q-2.28-2.5-2.28-7.58,0-4.76,2.14-7.42a7.2,7.2,0,0,1,5.94-2.66,7.35,7.35,0,0,1,5.94,2.54,10.5,10.5,0,0,1,2.14,7v1.32Zm9.8-5.44a4.61,4.61,0,0,0-1.8-2.16,5.06,5.06,0,0,0-2.8-.8,5,5,0,0,0-2.78.8,4.33,4.33,0,0,0-1.68,1.86,8.67,8.67,0,0,0-.6,1.82,9.77,9.77,0,0,0-.14,1.76h10.4a11.08,11.08,0,0,0-.1-1.76A7.83,7.83,0,0,0,541.33,27.62Z" style="fill:#fff"/><path d="M576.22,42.18V30a5.46,5.46,0,0,0-1.28-3.91,4.69,4.69,0,0,0-3.56-1.34,4.89,4.89,0,0,0-3.56,1.32,4.8,4.8,0,0,0-1.36,3.61V42.18h-2.88V30a5.45,5.45,0,0,0-1.28-3.91,4.68,4.68,0,0,0-3.56-1.34,4.78,4.78,0,0,0-3.6,1.36A5.36,5.36,0,0,0,553.81,30V42.18h-2.88V22.46h2.88v2.16a7.07,7.07,0,0,1,5.56-2.4,6.39,6.39,0,0,1,6,3.28,7.49,7.49,0,0,1,6.48-3.28,8.17,8.17,0,0,1,2.86.48,8.58,8.58,0,0,1,2.82,1.94q1.52,1.46,1.52,4.91V42.18Z" style="fill:#fff"/><path d="M587.9,33.06a7.49,7.49,0,0,0,1.5,5,5.32,5.32,0,0,0,4.3,1.77,7,7,0,0,0,2.8-.49,8.16,8.16,0,0,0,2.36-1.71l2,1.72a11.12,11.12,0,0,1-3.18,2.32,9.73,9.73,0,0,1-4,.72,8.12,8.12,0,0,1-6.32-2.5Q585,37.38,585,32.3q0-4.76,2.14-7.42a7.2,7.2,0,0,1,5.94-2.66A7.35,7.35,0,0,1,599,24.76a10.5,10.5,0,0,1,2.14,7v1.32Zm9.8-5.44a4.61,4.61,0,0,0-1.8-2.16,5.06,5.06,0,0,0-2.8-.8,5,5,0,0,0-2.78.8,4.33,4.33,0,0,0-1.68,1.86,8.67,8.67,0,0,0-.6,1.82,9.77,9.77,0,0,0-.14,1.76h10.4a11.08,11.08,0,0,0-.1-1.76A7.83,7.83,0,0,0,597.71,27.62Z" style="fill:#fff"/><path d="M619.91,42.18V30a5.46,5.46,0,0,0-1.28-3.91,4.69,4.69,0,0,0-3.56-1.34,4.75,4.75,0,0,0-3.58,1.34,5.4,5.4,0,0,0-1.3,3.91V42.18h-2.88V22.46h2.88v2.16a7.68,7.68,0,0,1,10.66-.48,7.28,7.28,0,0,1,1.94,5.41V42.18Z" style="fill:#fff"/><path d="M635.32,42.18a4.71,4.71,0,0,1-3.74-1.48,5.56,5.56,0,0,1-1.3-3.81V24.78h-2.48v-2.2h2.48V16.42h2.88v6.16h4.2v2.2h-4.2v12q0,2.89,2.68,2.89h1.52v2.48Z" style="fill:#fff"/><path d="M42.73,37.69l-9.06-8.76a13.35,13.35,0,1,0-4.41,4.52l9.08,8.78a3.16,3.16,0,0,0,4.39-4.54ZM14,22.14a8.18,8.18,0,1,1,8.18,8.18A8.18,8.18,0,0,1,14,22.14Z" style="fill:#fff"/><path d="M22.19,29A6.84,6.84,0,0,0,27,27c-1.41-.55-2.91-1.12-2.9-1.69,0-.83.92-1.28,1.06-2.84.3,0,.72-.75.82-1.41s-.16-1-.45-1c.07-1.68-.47-3.64-3.44-3.64s-3.51,2-3.44,3.64c-.29.06-.55.38-.45,1s.52,1.41.82,1.41c.14,1.56,1,2,1.06,2.84,0,.55-1.42,1.12-2.81,1.65A6.84,6.84,0,0,0,22.19,29Z" style="fill:#fff"/></svg>