<svg id="Layer_1" data-name="Layer 1" xmlns="http://www.w3.org/2000/svg" viewBox="0 0 485.32 51.8"><title>Fulfilment</title><rect width="51.8" height="51.8" style="fill:#00a7e1"/><path d="M85,39.86a9.72,9.72,0,0,1-7.2,2.64H68V14h9.76q4.56,0,6.86,2.3A9,9,0,0,1,87.4,21a43.22,43.22,0,0,1,.42,6.87v1.52a31.73,31.73,0,0,1-.5,6.13A8.25,8.25,0,0,1,85,39.86ZM82.89,18.78a6.26,6.26,0,0,0-2.46-1.58,9.39,9.39,0,0,0-3.14-.5h-6.2V39.78h6.2a9.66,9.66,0,0,0,3.14-.46A6.44,6.44,0,0,0,83,37.6a6.14,6.14,0,0,0,1.5-3.53,49.23,49.23,0,0,0,.3-6.15V26.6a21.47,21.47,0,0,0-.44-5.25A6.08,6.08,0,0,0,82.89,18.78Z" style="fill:#fff"/><path d="M94.3,17.14V13.9h3.24v3.24Zm.16,25.36V22.74h2.88V42.5Z" style="fill:#fff"/><path d="M110.9,51.5a9.66,9.66,0,0,1-3.62-.58,10.88,10.88,0,0,1-3.06-2.06L106.1,47a9,9,0,0,0,2.16,1.47,6.27,6.27,0,0,0,2.56.45,4.91,4.91,0,0,0,4.06-1.67A6.68,6.68,0,0,0,116.22,43V39.9a6.2,6.2,0,0,1-2.46,2,8,8,0,0,1-3.06.55,7.38,7.38,0,0,1-2.68-.48,6.93,6.93,0,0,1-2.34-1.56,6.56,6.56,0,0,1-1.62-3.18,19.77,19.77,0,0,1-.52-4.74,20.11,20.11,0,0,1,.5-4.8,6.49,6.49,0,0,1,1.58-3.08A6.57,6.57,0,0,1,108,23a8.52,8.52,0,0,1,5.8.06,6.32,6.32,0,0,1,2.43,2V22.78h2.88V43.06a8.56,8.56,0,0,1-2.2,6.08A7.81,7.81,0,0,1,110.9,51.5Zm.44-26.4q-2.88,0-3.9,2a12,12,0,0,0-1,5.35,12.14,12.14,0,0,0,1,5.38q1,2,3.92,2t3.9-2a12.34,12.34,0,0,0,1-5.4,12.33,12.33,0,0,0-1-5.39Q114.26,25.1,111.34,25.1Z" style="fill:#fff"/><path d="M126.15,17.14V13.9h3.24v3.24Zm.16,25.36V22.74h2.88V42.5Z" style="fill:#fff"/><path d="M142,42.5A4.71,4.71,0,0,1,138.21,41a5.56,5.56,0,0,1-1.3-3.81V25.1h-2.48V22.9h2.48V16.74h2.88V22.9H144v2.2h-4.2v12q0,2.89,2.68,2.89H144V42.5Z" style="fill:#fff"/><path d="M160.88,42.5V40.62a6.93,6.93,0,0,1-2.44,1.61,9.53,9.53,0,0,1-3.24.47,11.37,11.37,0,0,1-3.34-.4,6.16,6.16,0,0,1-2.48-1.64,5.16,5.16,0,0,1-1.22-3.76,5.21,5.21,0,0,1,1.76-4.16,7.49,7.49,0,0,1,5-1.52h5.92V29.34a4.19,4.19,0,0,0-1.17-3.26A5.64,5.64,0,0,0,155.87,25a7.28,7.28,0,0,0-3,.48A5.15,5.15,0,0,0,151,27.26l-2-1.8a6.74,6.74,0,0,1,2.86-2.3,11.39,11.39,0,0,1,4.1-.62q7.88,0,7.88,6.57V42.5Zm0-9.12h-5.52q-4.4,0-4.4,3.48t4.52,3.36A11.05,11.05,0,0,0,158,40a4.27,4.27,0,0,0,1.94-1.14,4.59,4.59,0,0,0,.94-3.34Z" style="fill:#fff"/><path d="M175.68,42.5a4.74,4.74,0,0,1-3.74-1.42,5.56,5.56,0,0,1-1.26-3.83V14h2.88V37.14a3.39,3.39,0,0,0,.58,2.18,2.55,2.55,0,0,0,2.06.7h1.56V42.5Z" style="fill:#fff"/><path d="M209.48,42.5,203,29.82h-6.84V42.5h-3V14H204a8.69,8.69,0,0,1,6.1,2.14,7.45,7.45,0,0,1,2.34,5.78,7.57,7.57,0,0,1-1.68,5,7.81,7.81,0,0,1-4.52,2.6l6.76,13Zm-5.72-25.8h-7.6V27.14h7.6a6.15,6.15,0,0,0,4.14-1.32,4.83,4.83,0,0,0,1.54-3.88,4.87,4.87,0,0,0-1.56-3.88A6.05,6.05,0,0,0,203.77,16.7Z" style="fill:#fff"/><path d="M218.69,17.14V13.9h3.24v3.24Zm.16,25.36V22.74h2.88V42.5Z" style="fill:#fff"/><path d="M235.57,42.5H233l-7.2-19.72h3.11l5.35,15.82,5.43-15.82h3.11Z" style="fill:#fff"/><path d="M248.66,33.38a7.49,7.49,0,0,0,1.5,5,5.32,5.32,0,0,0,4.3,1.77,7,7,0,0,0,2.8-.49,8.16,8.16,0,0,0,2.36-1.71l2,1.72A11.12,11.12,0,0,1,258.4,42a9.73,9.73,0,0,1-4,.72,8.12,8.12,0,0,1-6.32-2.5q-2.28-2.5-2.28-7.58,0-4.76,2.14-7.42a7.2,7.2,0,0,1,5.94-2.66,7.35,7.35,0,0,1,5.94,2.54,10.5,10.5,0,0,1,2.14,7v1.32Zm9.8-5.44a4.61,4.61,0,0,0-1.8-2.16,5.06,5.06,0,0,0-2.8-.8,5,5,0,0,0-2.78.8,4.33,4.33,0,0,0-1.68,1.86,8.67,8.67,0,0,0-.6,1.82,9.77,9.77,0,0,0-.14,1.76h10.4a11.08,11.08,0,0,0-.1-1.76A7.83,7.83,0,0,0,258.46,27.94Z" style="fill:#fff"/><path d="M279.07,26.54a5.17,5.17,0,0,0-1.54-1.12,4.71,4.71,0,0,0-1.86-.32,4.3,4.3,0,0,0-3.42,1.5,5.58,5.58,0,0,0-1.3,3.79V42.5h-2.88V22.78h2.88v2.4a5.6,5.6,0,0,1,2.3-1.92,7.36,7.36,0,0,1,3.22-.72,7.7,7.7,0,0,1,2.58.38,6,6,0,0,1,2.14,1.46Z" style="fill:#fff"/><path d="M298.43,16.7V27.18h12.48V29.9H298.43V42.5h-3V14h17.69V16.7Z" style="fill:#fff"/><path d="M330.48,42.5V40.3a7.75,7.75,0,0,1-10.69.5,7.35,7.35,0,0,1-1.91-5.46V22.78h2.88V34.9A5.49,5.49,0,0,0,322,38.8a4.62,4.62,0,0,0,3.54,1.34,4.79,4.79,0,0,0,3.6-1.36,5.34,5.34,0,0,0,1.32-3.88V22.78h2.88V42.5Z" style="fill:#fff"/><path d="M345.49,42.5a4.74,4.74,0,0,1-3.74-1.42,5.56,5.56,0,0,1-1.26-3.83V14h2.88V37.14a3.39,3.39,0,0,0,.58,2.18A2.55,2.55,0,0,0,346,40h1.56V42.5Z" style="fill:#fff"/><path d="M356,25.1V42.5h-2.88V25.1h-2.52V22.9h2.52V19.18a5.56,5.56,0,0,1,1.3-3.78,4.63,4.63,0,0,1,3.7-1.5h2.08v2.48h-1.56q-2.64,0-2.64,2.88V22.9h4.2v2.2Z" style="fill:#fff"/><path d="M364.85,17.14V13.9h3.24v3.24ZM365,42.5V22.74h2.88V42.5Z" style="fill:#fff"/><path d="M380.05,42.5a4.74,4.74,0,0,1-3.74-1.42,5.56,5.56,0,0,1-1.26-3.83V14h2.88V37.14a3.39,3.39,0,0,0,.58,2.18,2.55,2.55,0,0,0,2.06.7h1.56V42.5Z" style="fill:#fff"/><path d="M391.94,42.5a4.74,4.74,0,0,1-3.74-1.42,5.56,5.56,0,0,1-1.26-3.83V14h2.88V37.14a3.39,3.39,0,0,0,.58,2.18,2.55,2.55,0,0,0,2.06.7H394V42.5Z" style="fill:#fff"/><path d="M424.19,42.5V30.35a5.46,5.46,0,0,0-1.28-3.91,4.69,4.69,0,0,0-3.56-1.34,4.89,4.89,0,0,0-3.56,1.32A4.8,4.8,0,0,0,414.42,30V42.5h-2.88V30.35a5.45,5.45,0,0,0-1.28-3.91,4.68,4.68,0,0,0-3.56-1.34,4.78,4.78,0,0,0-3.6,1.36,5.36,5.36,0,0,0-1.32,3.89V42.5H398.9V22.78h2.88v2.16a7.07,7.07,0,0,1,5.56-2.4,6.39,6.39,0,0,1,6,3.28,7.49,7.49,0,0,1,6.48-3.28,8.17,8.17,0,0,1,2.86.48A8.58,8.58,0,0,1,425.55,25q1.52,1.46,1.52,4.91V42.5Z" style="fill:#fff"/><path d="M435.87,33.38a7.49,7.49,0,0,0,1.5,5,5.32,5.32,0,0,0,4.3,1.77,7,7,0,0,0,2.8-.49,8.16,8.16,0,0,0,2.36-1.71l2,1.72A11.12,11.12,0,0,1,445.61,42a9.73,9.73,0,0,1-4,.72,8.12,8.12,0,0,1-6.32-2.5Q433,37.7,433,32.62q0-4.76,2.14-7.42a7.2,7.2,0,0,1,5.94-2.66A7.35,7.35,0,0,1,447,25.08a10.5,10.5,0,0,1,2.14,7v1.32Zm9.8-5.44a4.61,4.61,0,0,0-1.8-2.16,5.06,5.06,0,0,0-2.8-.8,5,5,0,0,0-2.78.8,4.33,4.33,0,0,0-1.68,1.86,8.67,8.67,0,0,0-.6,1.82,9.77,9.77,0,0,0-.14,1.76h10.4a11.08,11.08,0,0,0-.1-1.76A7.83,7.83,0,0,0,445.67,27.94Z" style="fill:#fff"/><path d="M467.88,42.5V30.35a5.46,5.46,0,0,0-1.28-3.91A4.69,4.69,0,0,0,463,25.1a4.75,4.75,0,0,0-3.58,1.34,5.4,5.4,0,0,0-1.3,3.91V42.5h-2.88V22.78h2.88v2.16a7.68,7.68,0,0,1,10.66-.48,7.28,7.28,0,0,1,1.94,5.41V42.5Z" style="fill:#fff"/><path d="M483.28,42.5A4.71,4.71,0,0,1,479.54,41a5.56,5.56,0,0,1-1.3-3.81V25.1h-2.48V22.9h2.48V16.74h2.88V22.9h4.2v2.2h-4.2v12q0,2.89,2.68,2.89h1.52V42.5Z" style="fill:#fff"/><path d="M20.49,34.12a2,2,0,1,1,2-2A2,2,0,0,1,20.49,34.12Zm4.5-2a4.5,4.5,0,1,0-4.5,4.5A4.5,4.5,0,0,0,25,32.14Z" style="fill:#fff"/><path d="M29.19,13.08a.74.74,0,0,0-.74-.74H10.81a.74.74,0,0,0-.74.74V28.81a.69.69,0,0,1-.62.74.69.69,0,0,0-.62.74v1.48a.69.69,0,0,0,.62.74h4.76c.41,0,.73-.11.73-.25v-.12a5.55,5.55,0,0,1,11.1,0v.12c0,.14.32.25.73.25h1.68a.74.74,0,0,0,.74-.74Z" style="fill:#fff"/><path d="M34.74,34.12a2,2,0,1,1,2-2A2,2,0,0,1,34.74,34.12Zm4.5-2a4.5,4.5,0,1,0-4.5,4.5A4.5,4.5,0,0,0,39.25,32.14Z" style="fill:#fff"/><path d="M39.54,21.79a.59.59,0,0,1-.6.73H33a.74.74,0,0,1-.74-.74v-4A.74.74,0,0,1,33,17H37C38.63,17,39.54,21.79,39.54,21.79Zm3.29,7.76a.74.74,0,0,1-.74-.74V24.92A10.82,10.82,0,0,0,42,23.45S40.6,15.3,36.9,15.3H31a.74.74,0,0,0-.74.74V28.16c0,.41.25.52.56.25,0,0,2.09-1.82,3.95-1.82a5.55,5.55,0,0,1,5.55,5.55v.15c0,.16.31.29.72.29h2a.74.74,0,0,0,.74-.74V30.29a.74.74,0,0,0-.74-.74Z" style="fill:#fff"/></svg>