<svg id="Layer_1" data-name="Layer 1" xmlns="http://www.w3.org/2000/svg" viewBox="0 0 588.88 51.8"><title>Global_Payments</title><rect width="51.8" height="51.8" style="fill:#00a7e1"/><path d="M84.57,40a9.72,9.72,0,0,1-7.2,2.64H67.61V14.17h9.76q4.56,0,6.86,2.3A9,9,0,0,1,87,21.24a43.22,43.22,0,0,1,.42,6.87v1.52a31.73,31.73,0,0,1-.5,6.13A8.25,8.25,0,0,1,84.57,40ZM82.45,19A6.26,6.26,0,0,0,80,17.39a9.39,9.39,0,0,0-3.14-.5h-6.2V40h6.2A9.66,9.66,0,0,0,80,39.51a6.44,6.44,0,0,0,2.54-1.72A6.14,6.14,0,0,0,84,34.26a49.23,49.23,0,0,0,.3-6.15V26.78a21.47,21.47,0,0,0-.44-5.25A6.08,6.08,0,0,0,82.45,19Z" transform="translate(0.17 0)" style="fill:#fff"/><path d="M93.86,17.33V14.09H97.1v3.24ZM94,42.69V22.93H96.9V42.69Z" transform="translate(0.17 0)" style="fill:#fff"/><path d="M110.46,51.69a9.66,9.66,0,0,1-3.62-.58A10.88,10.88,0,0,1,103.78,49l1.88-1.84a9,9,0,0,0,2.16,1.47,6.27,6.27,0,0,0,2.56.45,4.91,4.91,0,0,0,4.06-1.67,6.68,6.68,0,0,0,1.34-4.32V40.09a6.2,6.2,0,0,1-2.46,2,8,8,0,0,1-3.06.55,7.38,7.38,0,0,1-2.68-.48,6.93,6.93,0,0,1-2.34-1.56,6.56,6.56,0,0,1-1.62-3.18,19.77,19.77,0,0,1-.52-4.74,20.11,20.11,0,0,1,.5-4.8,6.49,6.49,0,0,1,1.58-3.08,6.57,6.57,0,0,1,2.37-1.56,8.52,8.52,0,0,1,5.8.06,6.32,6.32,0,0,1,2.43,2V23h2.88V43.25a8.56,8.56,0,0,1-2.2,6.08A7.81,7.81,0,0,1,110.46,51.69Zm.44-26.4q-2.88,0-3.9,2a12,12,0,0,0-1,5.35A12.14,12.14,0,0,0,107,38q1,2,3.92,2t3.9-2a12.34,12.34,0,0,0,1-5.4,12.33,12.33,0,0,0-1-5.39Q113.82,25.29,110.9,25.29Z" transform="translate(0.17 0)" style="fill:#fff"/><path d="M125.71,17.33V14.09h3.24v3.24Zm.16,25.36V22.93h2.88V42.69Z" transform="translate(0.17 0)" style="fill:#fff"/><path d="M141.51,42.69a4.71,4.71,0,0,1-3.74-1.48,5.56,5.56,0,0,1-1.3-3.81V25.29H134v-2.2h2.48V16.93h2.88v6.16h4.2v2.2h-4.2v12q0,2.89,2.68,2.89h1.52v2.48Z" transform="translate(0.17 0)" style="fill:#fff"/><path d="M160.43,42.69V40.81A6.93,6.93,0,0,1,158,42.42a9.53,9.53,0,0,1-3.24.47,11.37,11.37,0,0,1-3.34-.4,6.16,6.16,0,0,1-2.48-1.64,5.16,5.16,0,0,1-1.22-3.76,5.21,5.21,0,0,1,1.76-4.16,7.49,7.49,0,0,1,5-1.52h5.92V29.53a4.19,4.19,0,0,0-1.17-3.26,5.64,5.64,0,0,0-3.83-1.06,7.28,7.28,0,0,0-3,.48,5.15,5.15,0,0,0-1.94,1.76l-2-1.8a6.74,6.74,0,0,1,2.86-2.3,11.39,11.39,0,0,1,4.1-.62q7.88,0,7.88,6.57V42.69Zm0-9.12h-5.52q-4.4,0-4.4,3.48T155,40.41a11.05,11.05,0,0,0,2.52-.24A4.27,4.27,0,0,0,159.49,39a4.59,4.59,0,0,0,.94-3.34Z" transform="translate(0.17 0)" style="fill:#fff"/><path d="M175.24,42.69a4.74,4.74,0,0,1-3.74-1.42,5.56,5.56,0,0,1-1.26-3.83V14.17h2.88V37.32a3.39,3.39,0,0,0,.58,2.18,2.55,2.55,0,0,0,2.06.7h1.56v2.48Z" transform="translate(0.17 0)" style="fill:#fff"/><path d="M209,42.69,202.56,30h-6.84V42.69h-3V14.17H203.6a8.69,8.69,0,0,1,6.1,2.14A7.45,7.45,0,0,1,212,22.09a7.57,7.57,0,0,1-1.68,5,7.81,7.81,0,0,1-4.52,2.6l6.76,13Zm-5.72-25.8h-7.6V27.33h7.6A6.15,6.15,0,0,0,207.47,26,4.83,4.83,0,0,0,209,22.13a4.87,4.87,0,0,0-1.56-3.88A6.05,6.05,0,0,0,203.33,16.89Z" transform="translate(0.17 0)" style="fill:#fff"/><path d="M218.25,17.33V14.09h3.24v3.24Zm.16,25.36V22.93h2.88V42.69Z" transform="translate(0.17 0)" style="fill:#fff"/><path d="M235.13,42.69h-2.56L225.37,23h3.11l5.35,15.82L239.26,23h3.11Z" transform="translate(0.17 0)" style="fill:#fff"/><path d="M248.22,33.57a7.49,7.49,0,0,0,1.5,5,5.32,5.32,0,0,0,4.3,1.77,7,7,0,0,0,2.8-.49,8.16,8.16,0,0,0,2.36-1.71l2,1.72A11.12,11.12,0,0,1,258,42.17a9.73,9.73,0,0,1-4,.72,8.12,8.12,0,0,1-6.32-2.5q-2.28-2.5-2.28-7.58,0-4.76,2.14-7.42a7.2,7.2,0,0,1,5.94-2.66,7.35,7.35,0,0,1,5.94,2.54,10.5,10.5,0,0,1,2.14,7v1.32Zm9.8-5.44a4.61,4.61,0,0,0-1.8-2.16,5.06,5.06,0,0,0-2.8-.8,5,5,0,0,0-2.78.8A4.33,4.33,0,0,0,249,27.83a8.67,8.67,0,0,0-.6,1.82,9.77,9.77,0,0,0-.14,1.76h10.4a11.08,11.08,0,0,0-.1-1.76A7.83,7.83,0,0,0,258,28.13Z" transform="translate(0.17 0)" style="fill:#fff"/><path d="M278.63,26.73a5.17,5.17,0,0,0-1.54-1.12,4.71,4.71,0,0,0-1.86-.32,4.3,4.3,0,0,0-3.42,1.5,5.58,5.58,0,0,0-1.3,3.79V42.69h-2.88V23h2.88v2.4a5.6,5.6,0,0,1,2.3-1.92,7.36,7.36,0,0,1,3.22-.72,7.7,7.7,0,0,1,2.58.38,6,6,0,0,1,2.14,1.46Z" transform="translate(0.17 0)" style="fill:#fff"/><path d="M311.43,39.61a9.94,9.94,0,0,1-7.6,3.28,9.08,9.08,0,0,1-6.72-2.4,9.25,9.25,0,0,1-2.82-4.68,45.69,45.69,0,0,1-.42-7.4q0-4.24.24-6.78a8.58,8.58,0,0,1,2.83-5.12,9.39,9.39,0,0,1,6.93-2.58,9.82,9.82,0,0,1,6.71,2.32,10.15,10.15,0,0,1,3.29,6.2h-3a7.49,7.49,0,0,0-2.44-4.26,6.79,6.79,0,0,0-4.53-1.54,6.15,6.15,0,0,0-4.63,1.7,7,7,0,0,0-2,3.52,41.42,41.42,0,0,0-.34,6.54,42.64,42.64,0,0,0,.34,6.56,6.8,6.8,0,0,0,2,3.54,6.16,6.16,0,0,0,4.62,1.66A6.36,6.36,0,0,0,309,38a8.23,8.23,0,0,0,1.8-5.42V30.41h-7V27.73h10v4.52a13.9,13.9,0,0,1-.56,4.22A8.2,8.2,0,0,1,311.43,39.61Z" transform="translate(0.17 0)" style="fill:#fff"/><path d="M325.36,42.69a4.74,4.74,0,0,1-3.74-1.42,5.56,5.56,0,0,1-1.26-3.83V14.17h2.88V37.32a3.39,3.39,0,0,0,.58,2.18,2.55,2.55,0,0,0,2.06.7h1.56v2.48Z" transform="translate(0.17 0)" style="fill:#fff"/><path d="M345,40.65a7.65,7.65,0,0,1-2.46,1.66,9,9,0,0,1-6.34,0,8,8,0,0,1-2.64-1.84,6.91,6.91,0,0,1-1.74-3.12,17.7,17.7,0,0,1-.5-4.54,17.8,17.8,0,0,1,.5-4.5,6.92,6.92,0,0,1,1.74-3.16,7.51,7.51,0,0,1,5.8-2.42,8.19,8.19,0,0,1,3.16.58,8,8,0,0,1,2.64,1.84,6.91,6.91,0,0,1,1.74,3.12,17.75,17.75,0,0,1,.5,4.54,17.85,17.85,0,0,1-.5,4.5A7.45,7.45,0,0,1,345,40.65Zm-2-13.92a4.89,4.89,0,0,0-3.6-1.44,4.49,4.49,0,0,0-3.32,1.2,5.37,5.37,0,0,0-1.52,2.78,17.86,17.86,0,0,0-.32,3.54,18.45,18.45,0,0,0,.3,3.62A5.27,5.27,0,0,0,336,39.11a5.25,5.25,0,0,0,6.7,0,5.23,5.23,0,0,0,1.5-2.7,18.82,18.82,0,0,0,.3-3.62,18.91,18.91,0,0,0-.3-3.6A4.69,4.69,0,0,0,342.92,26.73Z" transform="translate(0.17 0)" style="fill:#fff"/><path d="M366.77,41.17a5.6,5.6,0,0,1-2.06,1.24,7.84,7.84,0,0,1-2.74.48,7.94,7.94,0,0,1-3.08-.55,6.38,6.38,0,0,1-2.48-2v2.36h-2.88V14.17h2.88V25.25a6.28,6.28,0,0,1,2.48-2,8,8,0,0,1,3.08-.56,6.3,6.3,0,0,1,4.64,1.56,7.57,7.57,0,0,1,2.06,3.64,21,21,0,0,1,.5,4.88,21.07,21.07,0,0,1-.5,4.86A7.19,7.19,0,0,1,366.77,41.17Zm-5.4-15.88q-2.92,0-3.94,2a12.37,12.37,0,0,0-1,5.48,12.52,12.52,0,0,0,1,5.52q1,2,4,2t3.9-2a12.36,12.36,0,0,0,1-5.48,12.53,12.53,0,0,0-1-5.52Q364.29,25.29,361.37,25.29Z" transform="translate(0.17 0)" style="fill:#fff"/><path d="M386.5,42.69V40.81a6.93,6.93,0,0,1-2.44,1.61,9.53,9.53,0,0,1-3.24.47,11.37,11.37,0,0,1-3.34-.4A6.16,6.16,0,0,1,375,40.85a5.16,5.16,0,0,1-1.22-3.76,5.21,5.21,0,0,1,1.76-4.16,7.49,7.49,0,0,1,5-1.52h5.92V29.53a4.19,4.19,0,0,0-1.17-3.26,5.64,5.64,0,0,0-3.83-1.06,7.28,7.28,0,0,0-3,.48,5.15,5.15,0,0,0-1.94,1.76l-2-1.8a6.74,6.74,0,0,1,2.86-2.3,11.39,11.39,0,0,1,4.1-.62q7.88,0,7.88,6.57V42.69Zm0-9.12H381q-4.4,0-4.4,3.48t4.52,3.36a11.05,11.05,0,0,0,2.52-.24A4.27,4.27,0,0,0,385.56,39a4.59,4.59,0,0,0,.94-3.34Z" transform="translate(0.17 0)" style="fill:#fff"/><path d="M401.3,42.69a4.74,4.74,0,0,1-3.74-1.42,5.56,5.56,0,0,1-1.26-3.83V14.17h2.88V37.32a3.39,3.39,0,0,0,.58,2.18,2.55,2.55,0,0,0,2.06.7h1.56v2.48Z" transform="translate(0.17 0)" style="fill:#fff"/><path d="M429.35,30.93h-7.56V42.69h-3V14.17h10.6a9,9,0,0,1,6.38,2.26,7.94,7.94,0,0,1,2.42,6.1,8,8,0,0,1-2.42,6.1A8.88,8.88,0,0,1,429.35,30.93Zm-.28-14h-7.28V28.21h7.28a6.42,6.42,0,0,0,4.42-1.44,5.38,5.38,0,0,0,1.62-4.24,5.29,5.29,0,0,0-1.64-4.2A6.44,6.44,0,0,0,429.07,16.89Z" transform="translate(0.17 0)" style="fill:#fff"/><path d="M454.59,42.69V40.81a6.93,6.93,0,0,1-2.44,1.61,9.53,9.53,0,0,1-3.24.47,11.37,11.37,0,0,1-3.34-.4,6.16,6.16,0,0,1-2.48-1.64,5.16,5.16,0,0,1-1.22-3.76,5.21,5.21,0,0,1,1.76-4.16,7.49,7.49,0,0,1,5-1.52h5.92V29.53a4.19,4.19,0,0,0-1.17-3.26,5.64,5.64,0,0,0-3.83-1.06,7.28,7.28,0,0,0-3,.48,5.15,5.15,0,0,0-1.94,1.76l-2-1.8a6.74,6.74,0,0,1,2.86-2.3,11.39,11.39,0,0,1,4.1-.62q7.88,0,7.88,6.57V42.69Zm0-9.12h-5.52q-4.4,0-4.4,3.48t4.52,3.36a11.05,11.05,0,0,0,2.52-.24A4.27,4.27,0,0,0,453.65,39a4.59,4.59,0,0,0,.94-3.34Z" transform="translate(0.17 0)" style="fill:#fff"/><path d="M469.36,47.41a5.88,5.88,0,0,1-1.34,2.3,4.58,4.58,0,0,1-1.8,1.06,7,7,0,0,1-2.1.32h-1.24V48.53h.88a3.37,3.37,0,0,0,2.09-.5A4.44,4.44,0,0,0,467,46.08l1.41-3.84L461.32,23h3.11l5.42,15.79L475.21,23h3.11Z" transform="translate(0.17 0)" style="fill:#fff"/><path d="M507.65,42.69V30.54a5.46,5.46,0,0,0-1.28-3.91,4.69,4.69,0,0,0-3.56-1.34,4.89,4.89,0,0,0-3.56,1.32,4.8,4.8,0,0,0-1.36,3.61V42.69H495V30.54a5.45,5.45,0,0,0-1.28-3.91,4.68,4.68,0,0,0-3.56-1.34,4.78,4.78,0,0,0-3.6,1.36,5.36,5.36,0,0,0-1.32,3.89V42.69h-2.88V23h2.88v2.16a7.07,7.07,0,0,1,5.56-2.4,6.39,6.39,0,0,1,6,3.28,7.49,7.49,0,0,1,6.48-3.28,8.17,8.17,0,0,1,2.86.48A8.58,8.58,0,0,1,509,25.15q1.52,1.46,1.52,4.91V42.69Z" transform="translate(0.17 0)" style="fill:#fff"/><path d="M519.33,33.57a7.49,7.49,0,0,0,1.5,5,5.32,5.32,0,0,0,4.3,1.77,7,7,0,0,0,2.8-.49,8.16,8.16,0,0,0,2.36-1.71l2,1.72a11.12,11.12,0,0,1-3.18,2.32,9.73,9.73,0,0,1-4,.72,8.12,8.12,0,0,1-6.32-2.5q-2.28-2.5-2.28-7.58,0-4.76,2.14-7.42a7.2,7.2,0,0,1,5.94-2.66,7.35,7.35,0,0,1,5.94,2.54,10.5,10.5,0,0,1,2.14,7v1.32Zm9.8-5.44a4.61,4.61,0,0,0-1.8-2.16,5.06,5.06,0,0,0-2.8-.8,5,5,0,0,0-2.78.8,4.33,4.33,0,0,0-1.68,1.86,8.67,8.67,0,0,0-.6,1.82,9.77,9.77,0,0,0-.14,1.76h10.4a11.08,11.08,0,0,0-.1-1.76A7.83,7.83,0,0,0,529.13,28.13Z" transform="translate(0.17 0)" style="fill:#fff"/><path d="M551.34,42.69V30.54a5.46,5.46,0,0,0-1.28-3.91,4.69,4.69,0,0,0-3.56-1.34,4.75,4.75,0,0,0-3.58,1.34,5.4,5.4,0,0,0-1.3,3.91V42.69h-2.88V23h2.88v2.16a7.68,7.68,0,0,1,10.66-.48,7.28,7.28,0,0,1,1.94,5.41V42.69Z" transform="translate(0.17 0)" style="fill:#fff"/><path d="M566.75,42.69A4.71,4.71,0,0,1,563,41.2a5.56,5.56,0,0,1-1.3-3.81V25.29h-2.48v-2.2h2.48V16.93h2.88v6.16h4.2v2.2h-4.2v12q0,2.89,2.68,2.89h1.52v2.48Z" transform="translate(0.17 0)" style="fill:#fff"/><path d="M580.71,42.89a14.29,14.29,0,0,1-4.52-.65,9.59,9.59,0,0,1-3.56-2.16l1.92-1.9a6.58,6.58,0,0,0,2.64,1.71,10.54,10.54,0,0,0,3.48.53,7.31,7.31,0,0,0,3.88-.85,2.86,2.86,0,0,0,1.36-2.6q0-2.58-3.28-2.86l-3.24-.28A6.2,6.2,0,0,1,575,32.4a5,5,0,0,1-1.52-3.89,5.06,5.06,0,0,1,2-4.23,8.34,8.34,0,0,1,5.24-1.55,10.89,10.89,0,0,1,7.08,2.12L586,26.73a8.39,8.39,0,0,0-5.24-1.56,5.39,5.39,0,0,0-3.28.85,2.85,2.85,0,0,0-1.12,2.42,2.81,2.81,0,0,0,.8,2.13,3.75,3.75,0,0,0,2.64.76l3.16.28a7.78,7.78,0,0,1,4.3,1.46,4.66,4.66,0,0,1,1.5,3.85,5.14,5.14,0,0,1-2.16,4.41A9.72,9.72,0,0,1,580.71,42.89Z" transform="translate(0.17 0)" style="fill:#fff"/><path d="M15.72,24.35A8.65,8.65,0,1,0,24.37,33,8.65,8.65,0,0,0,15.72,24.35ZM19.58,37.5a2.78,2.78,0,0,1-1.93.79H17.5A6.31,6.31,0,0,1,16,38l-.32-.1a4.22,4.22,0,0,0-.73-.21,2.6,2.6,0,0,0-1.67.3L13,38.1a.24.24,0,0,1-.12,0,.17.17,0,0,1-.14-.08l-.62-.85a.18.18,0,0,1,0-.26,8.2,8.2,0,0,0,1.3-1.38,2.15,2.15,0,0,0,.44-1.45,2.2,2.2,0,0,0-.29-.9s0,0,0,0H12.18c-.22,0-.26,0-.26-.26s0-.15,0-.23,0-.2,0-.3a.22.22,0,0,1,.05-.17.22.22,0,0,1,.17-.06H13c-.14-.24-.28-.49-.42-.78a2.75,2.75,0,0,1,.11-2.73,3.42,3.42,0,0,1,2.58-1.69,4,4,0,0,1,2.11.21,2.84,2.84,0,0,1,1.83,2.32,6.29,6.29,0,0,1,.08.86.22.22,0,0,1-.06.17.21.21,0,0,1-.15.05H18a.19.19,0,0,1-.22-.19,4.34,4.34,0,0,0-.11-.78,1.63,1.63,0,0,0-1.66-1.31h-.17a2.23,2.23,0,0,0-1,.18,1.63,1.63,0,0,0-1,1.38,2.21,2.21,0,0,0,.2,1.16,7.61,7.61,0,0,0,.47.9l.14.24s0,0,.09,0h2.1c.22,0,.26,0,.26.25v.45c0,.28,0,.32-.31.32H15.19l0,.06a3.42,3.42,0,0,1,.16.79,2.37,2.37,0,0,1-.45,1.42A7.53,7.53,0,0,1,14,36.54a3.18,3.18,0,0,1,2.3-.12c.35.1.67.19,1,.26a1.82,1.82,0,0,0,1.35-.25.55.55,0,0,1,.25-.11c.1,0,.16.08.25.22l.43.68A.19.19,0,0,1,19.58,37.5Z" transform="translate(0.17 0)" style="fill:#fff"/><path d="M33.31,24.35A8.65,8.65,0,1,0,42,33,8.65,8.65,0,0,0,33.31,24.35Zm4,8.62a.31.31,0,0,1-.3.3H34.13v.91H37a.3.3,0,0,1,.3.3v.83a.3.3,0,0,1-.3.3H34.12V38a.3.3,0,0,1-.3.3h-1a.3.3,0,0,1-.3-.3V35.61H29.63a.3.3,0,0,1-.3-.3v-.83a.3.3,0,0,1,.3-.3H32.5v-.91H29.63a.3.3,0,0,1-.3-.3v-.82a.3.3,0,0,1,.3-.3h2L29.6,28a.17.17,0,0,1,.16-.27h1a.55.55,0,0,1,.44.27l2.08,3.86L35.39,28a.56.56,0,0,1,.45-.27h1A.17.17,0,0,1,37,28L35,31.83h2a.3.3,0,0,1,.3.3Z" transform="translate(0.17 0)" style="fill:#fff"/><path d="M26.31,18.8a3.79,3.79,0,0,0-1.1-.44v2.72a3,3,0,0,0,.53-.14,1.23,1.23,0,0,0,.95-1.22A1,1,0,0,0,26.31,18.8Z" transform="translate(0.17 0)" style="fill:#fff"/><path d="M22.65,15.39a.89.89,0,0,0,.46.84,4.14,4.14,0,0,0,.75.27V14.08a1.46,1.46,0,0,0-.8.36A1.29,1.29,0,0,0,22.65,15.39Z" transform="translate(0.17 0)" style="fill:#fff"/><path d="M24.52,9.13a8.65,8.65,0,1,0,8.65,8.65A8.65,8.65,0,0,0,24.52,9.13Zm2.53,12.66a4.6,4.6,0,0,1-1.84.62v.82a.3.3,0,0,1-.3.3h-.75a.3.3,0,0,1-.3-.3v-.83a3.49,3.49,0,0,1-2-.85,3.08,3.08,0,0,1-1-2.42V19h1.44v.14a2.39,2.39,0,0,0,.32,1.17,1.8,1.8,0,0,0,1.2.75V18l-.08,0a5.33,5.33,0,0,1-1.69-.62,2,2,0,0,1-.9-1.81,2.78,2.78,0,0,1,.86-2.1,3.08,3.08,0,0,1,1.8-.78v-.9a.3.3,0,0,1,.3-.3h.75a.3.3,0,0,1,.3.3v.91a3.84,3.84,0,0,1,1.68.65,2.64,2.64,0,0,1,1,2.3v.15H26.49l0-.13a2.18,2.18,0,0,0-.35-1,1.59,1.59,0,0,0-.91-.55v2.7l.66.15a3.84,3.84,0,0,1,1.42.6,2.31,2.31,0,0,1,.89,1.95A2.45,2.45,0,0,1,27.05,21.79Z" transform="translate(0.17 0)" style="fill:#fff"/></svg>