<svg id="Layer_1" data-name="Layer 1" xmlns="http://www.w3.org/2000/svg" viewBox="0 0 534.37 51.8"><title>PIM_Pricing</title><path d="M87,39.37A9.72,9.72,0,0,1,79.77,42H70V13.5h9.76q4.56,0,6.86,2.3a9,9,0,0,1,2.72,4.77,43.22,43.22,0,0,1,.42,6.87V29a31.73,31.73,0,0,1-.5,6.13A8.25,8.25,0,0,1,87,39.37ZM84.85,18.3a6.26,6.26,0,0,0-2.46-1.58,9.39,9.39,0,0,0-3.14-.5H73V39.3h6.2a9.66,9.66,0,0,0,3.14-.46,6.44,6.44,0,0,0,2.54-1.72,6.14,6.14,0,0,0,1.5-3.53,49.23,49.23,0,0,0,.3-6.15V26.11a21.47,21.47,0,0,0-.44-5.25A6.08,6.08,0,0,0,84.85,18.3Z" transform="translate(0 0)" style="fill:#fff"/><path d="M96.26,16.66V13.42H99.5v3.24ZM96.41,42V22.26H99.3V42Z" transform="translate(0 0)" style="fill:#fff"/><path d="M112.86,51a9.66,9.66,0,0,1-3.62-.58,10.88,10.88,0,0,1-3.06-2.06l1.88-1.84A9,9,0,0,0,110.22,48a6.27,6.27,0,0,0,2.56.45,4.91,4.91,0,0,0,4.06-1.67,6.68,6.68,0,0,0,1.34-4.32V39.42a6.2,6.2,0,0,1-2.46,2,8,8,0,0,1-3.06.55,7.38,7.38,0,0,1-2.68-.48,6.93,6.93,0,0,1-2.34-1.56A6.56,6.56,0,0,1,106,36.72,19.77,19.77,0,0,1,105.5,32a20.11,20.11,0,0,1,.5-4.8,6.49,6.49,0,0,1,1.58-3.08,6.57,6.57,0,0,1,2.37-1.56,8.52,8.52,0,0,1,5.8.06,6.32,6.32,0,0,1,2.43,2V22.3h2.88V42.58a8.56,8.56,0,0,1-2.2,6.08A7.81,7.81,0,0,1,112.86,51Zm.44-26.4q-2.88,0-3.9,2a12,12,0,0,0-1,5.35,12.14,12.14,0,0,0,1,5.37q1,2,3.92,2t3.9-2a12.34,12.34,0,0,0,1-5.4,12.33,12.33,0,0,0-1-5.39Q116.22,24.62,113.3,24.62Z" transform="translate(0 0)" style="fill:#fff"/><path d="M128.1,16.66V13.42h3.24v3.24ZM128.26,42V22.26h2.88V42Z" transform="translate(0 0)" style="fill:#fff"/><path d="M143.91,42a4.71,4.71,0,0,1-3.74-1.48,5.56,5.56,0,0,1-1.3-3.81V24.62h-2.48v-2.2h2.48V16.26h2.88v6.16h4.2v2.2h-4.2v12q0,2.89,2.68,2.89h1.52V42Z" transform="translate(0 0)" style="fill:#fff"/><path d="M162.83,42V40.14a6.93,6.93,0,0,1-2.44,1.61,9.53,9.53,0,0,1-3.24.47,11.37,11.37,0,0,1-3.34-.4,6.16,6.16,0,0,1-2.48-1.64,5.16,5.16,0,0,1-1.22-3.76,5.21,5.21,0,0,1,1.76-4.16,7.49,7.49,0,0,1,5-1.52h5.92V28.86a4.19,4.19,0,0,0-1.17-3.26,5.64,5.64,0,0,0-3.83-1.06,7.28,7.28,0,0,0-3,.48,5.15,5.15,0,0,0-1.94,1.76l-2-1.8a6.74,6.74,0,0,1,2.86-2.3,11.39,11.39,0,0,1,4.1-.62q7.88,0,7.88,6.57V42Zm0-9.12h-5.52q-4.4,0-4.4,3.48t4.52,3.36A11.05,11.05,0,0,0,160,39.5a4.27,4.27,0,0,0,1.94-1.14,4.59,4.59,0,0,0,.94-3.34Z" transform="translate(0 0)" style="fill:#fff"/><path d="M177.64,42a4.74,4.74,0,0,1-3.74-1.42,5.56,5.56,0,0,1-1.26-3.83V13.5h2.88V36.65a3.39,3.39,0,0,0,.58,2.18,2.55,2.55,0,0,0,2.06.7h1.56V42Z" transform="translate(0 0)" style="fill:#fff"/><path d="M211.44,42,205,29.34h-6.84V42h-3V13.5H206a8.69,8.69,0,0,1,6.1,2.14,7.45,7.45,0,0,1,2.34,5.78,7.57,7.57,0,0,1-1.68,5,7.81,7.81,0,0,1-4.52,2.6L215,42Zm-5.72-25.8h-7.6V26.66h7.6a6.15,6.15,0,0,0,4.14-1.32,4.83,4.83,0,0,0,1.54-3.88,4.87,4.87,0,0,0-1.56-3.88A6.05,6.05,0,0,0,205.72,16.22Z" transform="translate(0 0)" style="fill:#fff"/><path d="M220.65,16.66V13.42h3.24v3.24ZM220.81,42V22.26h2.88V42Z" transform="translate(0 0)" style="fill:#fff"/><path d="M237.53,42H235l-7.2-19.72h3.11l5.35,15.82,5.43-15.82h3.11Z" transform="translate(0 0)" style="fill:#fff"/><path d="M250.62,32.9a7.49,7.49,0,0,0,1.5,5,5.32,5.32,0,0,0,4.3,1.77,7,7,0,0,0,2.8-.49,8.16,8.16,0,0,0,2.36-1.71l2,1.72a11.12,11.12,0,0,1-3.18,2.32,9.73,9.73,0,0,1-4,.72,8.12,8.12,0,0,1-6.32-2.5q-2.28-2.5-2.28-7.58,0-4.76,2.14-7.42a7.2,7.2,0,0,1,5.94-2.66,7.35,7.35,0,0,1,5.94,2.54,10.5,10.5,0,0,1,2.14,7V32.9Zm9.8-5.44a4.61,4.61,0,0,0-1.8-2.16,5.06,5.06,0,0,0-2.8-.8,5,5,0,0,0-2.78.8,4.33,4.33,0,0,0-1.68,1.86,8.67,8.67,0,0,0-.6,1.82,9.77,9.77,0,0,0-.14,1.76H261a11.08,11.08,0,0,0-.1-1.76A7.83,7.83,0,0,0,260.42,27.46Z" transform="translate(0 0)" style="fill:#fff"/><path d="M281,26.06a5.17,5.17,0,0,0-1.54-1.12,4.71,4.71,0,0,0-1.86-.32,4.3,4.3,0,0,0-3.42,1.5,5.58,5.58,0,0,0-1.3,3.79V42H270V22.3h2.88v2.4a5.6,5.6,0,0,1,2.3-1.92,7.36,7.36,0,0,1,3.22-.72,7.7,7.7,0,0,1,2.58.38,6,6,0,0,1,2.14,1.46Z" transform="translate(0 0)" style="fill:#fff"/><path d="M308,30.26h-7.56V42h-3V13.5H308a9,9,0,0,1,6.38,2.26,7.94,7.94,0,0,1,2.42,6.1,8,8,0,0,1-2.42,6.1A8.88,8.88,0,0,1,308,30.26Zm-.28-14h-7.28V27.54h7.28a6.42,6.42,0,0,0,4.42-1.44,5.38,5.38,0,0,0,1.62-4.24,5.29,5.29,0,0,0-1.64-4.2A6.44,6.44,0,0,0,307.67,16.22Z" transform="translate(0 0)" style="fill:#fff"/><path d="M322.56,42V13.5h3V42Z" transform="translate(0 0)" style="fill:#fff"/><path d="M355.2,42V20.35L347.4,37.5h-2.61L336.88,20.4V42h-3V13.5h3l9.28,20.2,9-20.2h3V42Z" transform="translate(0 0)" style="fill:#fff"/><path d="M395.38,42l-2.55-3.13a15.81,15.81,0,0,1-3.4,2.33,10.76,10.76,0,0,1-5,1,9.24,9.24,0,0,1-6.57-2.28,7.83,7.83,0,0,1-2.44-6,7.52,7.52,0,0,1,1.18-4.08,17.57,17.57,0,0,1,5-4.44,25,25,0,0,1-2.32-3.18,5.88,5.88,0,0,1-.76-3A5.64,5.64,0,0,1,380.27,15a6.25,6.25,0,0,1,4.5-1.7A6.1,6.1,0,0,1,389.21,15,5.74,5.74,0,0,1,391,19.26a4.91,4.91,0,0,1-.82,2.84,8.8,8.8,0,0,1-2.34,2.24l-2.12,1.44L393,34.53a9.39,9.39,0,0,0,1.24-2.76,15.76,15.76,0,0,0,.36-3.76h2.88a17.55,17.55,0,0,1-.62,4.94,10.49,10.49,0,0,1-2,3.78L399.18,42ZM383.25,27.34a22,22,0,0,0-3.72,3,5,5,0,0,0-1.16,3.48A5.4,5.4,0,0,0,380,38a6,6,0,0,0,4.34,1.58,9.51,9.51,0,0,0,3.38-.58,11.17,11.17,0,0,0,3.34-2.18Zm1.51-11.52a3.16,3.16,0,0,0-2.35.92,3.28,3.28,0,0,0-.91,2.41,3.92,3.92,0,0,0,.54,1.93,21.5,21.5,0,0,0,2,2.77l1.5-1a10.23,10.23,0,0,0,1.88-1.67,2.88,2.88,0,0,0,.65-1.91,3.38,3.38,0,0,0-1-2.41A3.15,3.15,0,0,0,384.75,15.82Z" transform="translate(0 0)" style="fill:#fff"/><path d="M426.58,30.26H419V42h-3V13.5h10.6A9,9,0,0,1,433,15.76a7.94,7.94,0,0,1,2.42,6.1A8,8,0,0,1,433,28,8.88,8.88,0,0,1,426.58,30.26Zm-.28-14H419V27.54h7.28a6.42,6.42,0,0,0,4.42-1.44,5.38,5.38,0,0,0,1.62-4.24,5.29,5.29,0,0,0-1.64-4.2A6.44,6.44,0,0,0,426.3,16.22Z" transform="translate(0 0)" style="fill:#fff"/><path d="M451.67,26.06a5.17,5.17,0,0,0-1.54-1.12,4.71,4.71,0,0,0-1.86-.32,4.3,4.3,0,0,0-3.42,1.5,5.58,5.58,0,0,0-1.3,3.79V42h-2.88V22.3h2.88v2.4a5.6,5.6,0,0,1,2.3-1.92,7.36,7.36,0,0,1,3.22-.72,7.7,7.7,0,0,1,2.58.38,6,6,0,0,1,2.14,1.46Z" transform="translate(0 0)" style="fill:#fff"/><path d="M457.35,16.66V13.42h3.24v3.24ZM457.51,42V22.26h2.88V42Z" transform="translate(0 0)" style="fill:#fff"/><path d="M475.28,42.22A8.2,8.2,0,0,1,469,39.6q-2.44-2.62-2.44-7.46T469,24.66a8.22,8.22,0,0,1,6.3-2.6,8.73,8.73,0,0,1,3.52.62,9.52,9.52,0,0,1,3,2.3l-2,1.84a7.24,7.24,0,0,0-2.12-1.72,5.5,5.5,0,0,0-2.4-.48,5,5,0,0,0-4.42,2,9.41,9.41,0,0,0-1.42,5.5,13.94,13.94,0,0,0,.28,3.08A8.53,8.53,0,0,0,471.14,38q1.14,1.62,4.14,1.62a5.35,5.35,0,0,0,2.4-.48,7.74,7.74,0,0,0,2.12-1.76l2,1.88a9.4,9.4,0,0,1-3,2.28A8.66,8.66,0,0,1,475.28,42.22Z" transform="translate(0 0)" style="fill:#fff"/><path d="M487.08,16.66V13.42h3.24v3.24ZM487.24,42V22.26h2.88V42Z" transform="translate(0 0)" style="fill:#fff"/><path d="M510,42V29.87A5.46,5.46,0,0,0,508.69,26a4.69,4.69,0,0,0-3.56-1.34A4.75,4.75,0,0,0,501.54,26a5.4,5.4,0,0,0-1.3,3.91V42h-2.88V22.3h2.88v2.16A7.68,7.68,0,0,1,510.91,24a7.28,7.28,0,0,1,1.94,5.41V42Z" transform="translate(0 0)" style="fill:#fff"/><path d="M526.17,51a9.66,9.66,0,0,1-3.62-.58,10.88,10.88,0,0,1-3.06-2.06l1.88-1.84A9,9,0,0,0,523.53,48a6.27,6.27,0,0,0,2.56.45,4.91,4.91,0,0,0,4.06-1.67,6.68,6.68,0,0,0,1.34-4.32V39.42a6.2,6.2,0,0,1-2.46,2,8,8,0,0,1-3.06.55,7.38,7.38,0,0,1-2.68-.48,6.93,6.93,0,0,1-2.34-1.56,6.56,6.56,0,0,1-1.62-3.18,19.77,19.77,0,0,1-.52-4.74,20.11,20.11,0,0,1,.5-4.8,6.49,6.49,0,0,1,1.58-3.08,6.57,6.57,0,0,1,2.37-1.56,8.52,8.52,0,0,1,5.8.06,6.32,6.32,0,0,1,2.43,2V22.3h2.88V42.58a8.56,8.56,0,0,1-2.2,6.08A7.81,7.81,0,0,1,526.17,51Zm.44-26.4q-2.88,0-3.9,2a12,12,0,0,0-1,5.35,12.14,12.14,0,0,0,1,5.37q1,2,3.92,2t3.9-2a12.34,12.34,0,0,0,1-5.4,12.33,12.33,0,0,0-1-5.39Q529.53,24.62,526.61,24.62Z" transform="translate(0 0)" style="fill:#fff"/><rect width="51.8" height="51.8" style="fill:#00a7e1"/><path d="M42.66,15H10.93A1.64,1.64,0,0,0,9.3,16.61V35.29a1.64,1.64,0,0,0,1.64,1.64H21.47l-2.23,1.54a1.14,1.14,0,0,0,1,1.57h13a1.14,1.14,0,0,0,1-1.57l-2.23-1.54H42.66a1.64,1.64,0,0,0,1.64-1.64V16.61A1.64,1.64,0,0,0,42.66,15Zm-.53,17a1,1,0,0,1-1,1H12.43a1,1,0,0,1-1-1V17.87a1,1,0,0,1,1-1H41.16a1,1,0,0,1,1,1Z" transform="translate(0 0)" style="fill:#fcfcfc"/><rect x="14.9" y="19.6" width="5.55" height="3.99" style="fill:#fcfcfc"/><rect x="24.02" y="19.6" width="5.55" height="3.99" style="fill:#fcfcfc"/><rect x="33.14" y="19.6" width="5.55" height="3.99" style="fill:#fcfcfc"/><rect x="14.9" y="26.15" width="5.55" height="3.99" style="fill:#fcfcfc"/><rect x="24.02" y="26.15" width="5.55" height="3.99" style="fill:#fcfcfc"/><rect x="33.14" y="26.15" width="5.55" height="3.99" style="fill:#fcfcfc"/></svg>