<svg id="Layer_1" data-name="Layer 1" xmlns="http://www.w3.org/2000/svg" viewBox="0 0 541.41 51.83"><title>Private_Stores</title><path d="M85.73,40.19a9.72,9.72,0,0,1-7.2,2.64H68.76V14.31h9.76q4.56,0,6.86,2.3a9,9,0,0,1,2.72,4.77,43.22,43.22,0,0,1,.42,6.87v1.52A31.73,31.73,0,0,1,88,35.9,8.25,8.25,0,0,1,85.73,40.19ZM83.61,19.12a6.26,6.26,0,0,0-2.46-1.58A9.39,9.39,0,0,0,78,17H71.8V40.11H78a9.66,9.66,0,0,0,3.14-.46,6.44,6.44,0,0,0,2.54-1.72,6.14,6.14,0,0,0,1.5-3.53,49.23,49.23,0,0,0,.3-6.15V26.93A21.47,21.47,0,0,0,85,21.68,6.08,6.08,0,0,0,83.61,19.12Z" style="fill:#fff"/><path d="M95,17.47V14.23h3.24v3.24Zm.16,25.36V23.07H98V42.83Z" style="fill:#fff"/><path d="M111.61,51.83a9.66,9.66,0,0,1-3.62-.58,10.88,10.88,0,0,1-3.06-2.06l1.88-1.84A9,9,0,0,0,109,48.82a6.27,6.27,0,0,0,2.56.45,4.91,4.91,0,0,0,4.06-1.67,6.68,6.68,0,0,0,1.34-4.32V40.23a6.2,6.2,0,0,1-2.46,2,8,8,0,0,1-3.06.55,7.38,7.38,0,0,1-2.68-.48,6.93,6.93,0,0,1-2.34-1.56,6.56,6.56,0,0,1-1.62-3.18,19.77,19.77,0,0,1-.52-4.74,20.11,20.11,0,0,1,.5-4.8,6.49,6.49,0,0,1,1.58-3.08,6.57,6.57,0,0,1,2.37-1.56,8.52,8.52,0,0,1,5.8.06,6.32,6.32,0,0,1,2.43,2V23.11h2.88V43.39a8.56,8.56,0,0,1-2.2,6.08A7.81,7.81,0,0,1,111.61,51.83Zm.44-26.4q-2.88,0-3.9,2a12,12,0,0,0-1,5.35,12.14,12.14,0,0,0,1,5.38q1,2,3.92,2t3.9-2a12.34,12.34,0,0,0,1-5.4,12.33,12.33,0,0,0-1-5.39Q115,25.43,112.05,25.43Z" style="fill:#fff"/><path d="M126.86,17.47V14.23h3.24v3.24ZM127,42.83V23.07h2.88V42.83Z" style="fill:#fff"/><path d="M142.66,42.83a4.71,4.71,0,0,1-3.74-1.48,5.56,5.56,0,0,1-1.3-3.81V25.43h-2.48v-2.2h2.48V17.07h2.88v6.16h4.2v2.2h-4.2v12q0,2.89,2.68,2.89h1.52v2.48Z" style="fill:#fff"/><path d="M161.59,42.83V41a6.93,6.93,0,0,1-2.44,1.61,9.53,9.53,0,0,1-3.24.47,11.37,11.37,0,0,1-3.34-.4A6.16,6.16,0,0,1,150.08,41a5.16,5.16,0,0,1-1.22-3.76,5.21,5.21,0,0,1,1.76-4.16,7.49,7.49,0,0,1,5-1.52h5.92V29.67a4.19,4.19,0,0,0-1.17-3.26,5.64,5.64,0,0,0-3.83-1.06,7.28,7.28,0,0,0-3,.48,5.15,5.15,0,0,0-1.94,1.76l-2-1.8a6.74,6.74,0,0,1,2.86-2.3,11.39,11.39,0,0,1,4.1-.62q7.88,0,7.88,6.57V42.83Zm0-9.12h-5.52q-4.4,0-4.4,3.48t4.52,3.36a11.05,11.05,0,0,0,2.52-.24,4.27,4.27,0,0,0,1.94-1.14,4.59,4.59,0,0,0,.94-3.34Z" style="fill:#fff"/><path d="M176.39,42.83a4.74,4.74,0,0,1-3.74-1.42,5.56,5.56,0,0,1-1.26-3.83V14.31h2.88V37.47a3.39,3.39,0,0,0,.58,2.18,2.55,2.55,0,0,0,2.06.7h1.56v2.48Z" style="fill:#fff"/><path d="M210.2,42.83l-6.48-12.68h-6.84V42.83h-3V14.31h10.92a8.69,8.69,0,0,1,6.1,2.14,7.45,7.45,0,0,1,2.34,5.78,7.57,7.57,0,0,1-1.68,5,7.81,7.81,0,0,1-4.52,2.6l6.76,13ZM204.48,17h-7.6V27.47h7.6a6.15,6.15,0,0,0,4.14-1.32,4.83,4.83,0,0,0,1.54-3.88,4.87,4.87,0,0,0-1.56-3.88A6.05,6.05,0,0,0,204.48,17Z" style="fill:#fff"/><path d="M219.4,17.47V14.23h3.24v3.24Zm.16,25.36V23.07h2.88V42.83Z" style="fill:#fff"/><path d="M236.29,42.83h-2.56l-7.2-19.72h3.11L235,38.94l5.43-15.82h3.11Z" style="fill:#fff"/><path d="M249.37,33.71a7.49,7.49,0,0,0,1.5,5,5.32,5.32,0,0,0,4.3,1.77A7,7,0,0,0,258,40a8.16,8.16,0,0,0,2.36-1.71l2,1.72a11.12,11.12,0,0,1-3.18,2.32,9.73,9.73,0,0,1-4,.72,8.12,8.12,0,0,1-6.32-2.5Q246.49,38,246.49,33q0-4.76,2.14-7.42a7.2,7.2,0,0,1,5.94-2.66,7.35,7.35,0,0,1,5.94,2.54,10.5,10.5,0,0,1,2.14,7v1.32Zm9.8-5.44a4.61,4.61,0,0,0-1.8-2.16,5.06,5.06,0,0,0-2.8-.8,5,5,0,0,0-2.78.8A4.33,4.33,0,0,0,250.11,28a8.67,8.67,0,0,0-.6,1.82,9.77,9.77,0,0,0-.14,1.76h10.4a11.08,11.08,0,0,0-.1-1.76A7.83,7.83,0,0,0,259.17,28.27Z" style="fill:#fff"/><path d="M279.78,26.87a5.17,5.17,0,0,0-1.54-1.12,4.71,4.71,0,0,0-1.86-.32,4.3,4.3,0,0,0-3.42,1.5,5.58,5.58,0,0,0-1.3,3.79V42.83h-2.88V23.11h2.88v2.4a5.6,5.6,0,0,1,2.3-1.92,7.36,7.36,0,0,1,3.22-.72,7.7,7.7,0,0,1,2.58.38,6,6,0,0,1,2.14,1.46Z" style="fill:#fff"/><path d="M306.71,31.07h-7.56V42.83h-3V14.31h10.6a9,9,0,0,1,6.38,2.26,7.94,7.94,0,0,1,2.42,6.1,8,8,0,0,1-2.42,6.1A8.88,8.88,0,0,1,306.71,31.07Zm-.28-14h-7.28V28.35h7.28a6.42,6.42,0,0,0,4.42-1.44,5.38,5.38,0,0,0,1.62-4.24,5.29,5.29,0,0,0-1.64-4.2A6.44,6.44,0,0,0,306.43,17Z" style="fill:#fff"/><path d="M331.79,26.87a5.17,5.17,0,0,0-1.54-1.12,4.71,4.71,0,0,0-1.86-.32,4.3,4.3,0,0,0-3.42,1.5,5.58,5.58,0,0,0-1.3,3.79V42.83h-2.88V23.11h2.88v2.4a5.6,5.6,0,0,1,2.3-1.92,7.36,7.36,0,0,1,3.22-.72,7.7,7.7,0,0,1,2.58.38,6,6,0,0,1,2.14,1.46Z" style="fill:#fff"/><path d="M337.47,17.47V14.23h3.24v3.24Zm.16,25.36V23.07h2.88V42.83Z" style="fill:#fff"/><path d="M354.36,42.83H351.8l-7.2-19.72h3.11l5.35,15.82,5.43-15.82h3.11Z" style="fill:#fff"/><path d="M376.8,42.83V41a6.93,6.93,0,0,1-2.44,1.61,9.53,9.53,0,0,1-3.24.47,11.37,11.37,0,0,1-3.34-.4A6.16,6.16,0,0,1,365.3,41a5.16,5.16,0,0,1-1.22-3.76,5.21,5.21,0,0,1,1.76-4.16,7.49,7.49,0,0,1,5-1.52h5.92V29.67a4.19,4.19,0,0,0-1.17-3.26,5.64,5.64,0,0,0-3.83-1.06,7.28,7.28,0,0,0-3,.48,5.15,5.15,0,0,0-1.94,1.76l-2-1.8a6.74,6.74,0,0,1,2.86-2.3,11.39,11.39,0,0,1,4.1-.62q7.88,0,7.88,6.57V42.83Zm0-9.12h-5.52q-4.4,0-4.4,3.48t4.52,3.36a11.05,11.05,0,0,0,2.52-.24,4.27,4.27,0,0,0,1.94-1.14,4.59,4.59,0,0,0,.94-3.34Z" style="fill:#fff"/><path d="M392.21,42.83a4.71,4.71,0,0,1-3.74-1.48,5.56,5.56,0,0,1-1.3-3.81V25.43h-2.48v-2.2h2.48V17.07H390v6.16h4.2v2.2H390v12q0,2.89,2.68,2.89h1.52v2.48Z" style="fill:#fff"/><path d="M401.77,33.71a7.49,7.49,0,0,0,1.5,5,5.32,5.32,0,0,0,4.3,1.77,7,7,0,0,0,2.8-.49,8.16,8.16,0,0,0,2.36-1.71l2,1.72a11.12,11.12,0,0,1-3.18,2.32,9.73,9.73,0,0,1-4,.72,8.12,8.12,0,0,1-6.32-2.5Q398.89,38,398.89,33q0-4.76,2.14-7.42A7.2,7.2,0,0,1,407,22.87a7.35,7.35,0,0,1,5.94,2.54,10.5,10.5,0,0,1,2.14,7v1.32Zm9.8-5.44a4.61,4.61,0,0,0-1.8-2.16,5.06,5.06,0,0,0-2.8-.8,5,5,0,0,0-2.78.8A4.33,4.33,0,0,0,402.51,28a8.67,8.67,0,0,0-.6,1.82,9.77,9.77,0,0,0-.14,1.76h10.4a11.08,11.08,0,0,0-.1-1.76A7.83,7.83,0,0,0,411.57,28.27Z" style="fill:#fff"/><path d="M439,43a15.49,15.49,0,0,1-5.48-.84,12.39,12.39,0,0,1-4.28-2.92l2.08-2.08a10.45,10.45,0,0,0,3.5,2.42,11.64,11.64,0,0,0,4.26.7,7.82,7.82,0,0,0,4.92-1.4,4.64,4.64,0,0,0,1.8-3.88,4.2,4.2,0,0,0-1-3.24A5.9,5.9,0,0,0,443,30.63a13.54,13.54,0,0,0-2.3-.52l-3.32-.52a10.59,10.59,0,0,1-5.4-2.32,6.51,6.51,0,0,1-2-5.16,7.45,7.45,0,0,1,2.46-5.84,9.63,9.63,0,0,1,6.66-2.2,13.42,13.42,0,0,1,4.66.72,12.13,12.13,0,0,1,3.82,2.4l-2,2a9.38,9.38,0,0,0-2.9-1.82,10.24,10.24,0,0,0-3.74-.62,6.38,6.38,0,0,0-4.42,1.42A4.93,4.93,0,0,0,433,22a3.78,3.78,0,0,0,1,3,7.27,7.27,0,0,0,2,1.24,10.79,10.79,0,0,0,2.16.62l3.12.48a14.26,14.26,0,0,1,3.12.74,10.89,10.89,0,0,1,2.82,1.88q1.66,1.42,1.66,5a7.22,7.22,0,0,1-2.66,5.9A11,11,0,0,1,439,43Z" style="fill:#fff"/><path d="M460.19,42.83a4.71,4.71,0,0,1-3.74-1.48,5.56,5.56,0,0,1-1.3-3.81V25.43h-2.48v-2.2h2.48V17.07H458v6.16h4.2v2.2H458v12q0,2.89,2.68,2.89h1.52v2.48Z" style="fill:#fff"/><path d="M480.59,40.79a7.65,7.65,0,0,1-2.46,1.66,9,9,0,0,1-6.34,0,8,8,0,0,1-2.64-1.84,6.91,6.91,0,0,1-1.74-3.12,17.7,17.7,0,0,1-.5-4.54,17.8,17.8,0,0,1,.5-4.5,6.92,6.92,0,0,1,1.74-3.16,7.51,7.51,0,0,1,5.8-2.42,8.19,8.19,0,0,1,3.16.58,8,8,0,0,1,2.64,1.84,6.91,6.91,0,0,1,1.74,3.12A17.75,17.75,0,0,1,483,33a17.85,17.85,0,0,1-.5,4.5A7.45,7.45,0,0,1,480.59,40.79Zm-2-13.92a4.89,4.89,0,0,0-3.6-1.44,4.49,4.49,0,0,0-3.32,1.2,5.37,5.37,0,0,0-1.52,2.78,17.86,17.86,0,0,0-.32,3.54,18.45,18.45,0,0,0,.3,3.62,5.27,5.27,0,0,0,1.52,2.68,5.25,5.25,0,0,0,6.7,0,5.23,5.23,0,0,0,1.5-2.7,18.82,18.82,0,0,0,.3-3.62,18.91,18.91,0,0,0-.3-3.6A4.69,4.69,0,0,0,478.55,26.87Z" style="fill:#fff"/><path d="M500.16,26.87a5.17,5.17,0,0,0-1.54-1.12,4.71,4.71,0,0,0-1.86-.32,4.3,4.3,0,0,0-3.42,1.5,5.58,5.58,0,0,0-1.3,3.79V42.83h-2.88V23.11H492v2.4a5.6,5.6,0,0,1,2.3-1.92,7.36,7.36,0,0,1,3.22-.72,7.7,7.7,0,0,1,2.58.38,6,6,0,0,1,2.14,1.46Z" style="fill:#fff"/><path d="M507.8,33.71a7.49,7.49,0,0,0,1.5,5,5.32,5.32,0,0,0,4.3,1.77,7,7,0,0,0,2.8-.49,8.16,8.16,0,0,0,2.36-1.71l2,1.72a11.12,11.12,0,0,1-3.18,2.32,9.73,9.73,0,0,1-4,.72,8.12,8.12,0,0,1-6.32-2.5Q504.92,38,504.92,33q0-4.76,2.14-7.42A7.2,7.2,0,0,1,513,22.87a7.35,7.35,0,0,1,5.94,2.54,10.5,10.5,0,0,1,2.14,7v1.32Zm9.8-5.44a4.61,4.61,0,0,0-1.8-2.16,5.06,5.06,0,0,0-2.8-.8,5,5,0,0,0-2.78.8A4.33,4.33,0,0,0,508.54,28a8.67,8.67,0,0,0-.6,1.82,9.77,9.77,0,0,0-.14,1.76h10.4a11.08,11.08,0,0,0-.1-1.76A7.83,7.83,0,0,0,517.6,28.27Z" style="fill:#fff"/><path d="M533.41,43a14.29,14.29,0,0,1-4.52-.65,9.59,9.59,0,0,1-3.56-2.16l1.92-1.9A6.58,6.58,0,0,0,529.89,40a10.54,10.54,0,0,0,3.48.53,7.31,7.31,0,0,0,3.88-.85,2.86,2.86,0,0,0,1.36-2.6q0-2.58-3.28-2.86L532.09,34a6.2,6.2,0,0,1-4.36-1.41,5,5,0,0,1-1.52-3.89,5.06,5.06,0,0,1,2-4.23,8.34,8.34,0,0,1,5.24-1.55A10.89,10.89,0,0,1,540.53,25l-1.88,1.88a8.39,8.39,0,0,0-5.24-1.56,5.39,5.39,0,0,0-3.28.85A2.85,2.85,0,0,0,529,28.57a2.81,2.81,0,0,0,.8,2.13,3.75,3.75,0,0,0,2.64.76l3.16.28a7.78,7.78,0,0,1,4.3,1.46,4.66,4.66,0,0,1,1.5,3.85,5.14,5.14,0,0,1-2.16,4.41A9.72,9.72,0,0,1,533.41,43Z" style="fill:#fff"/><rect width="51.8" height="51.8" style="fill:#00a7e1"/><rect x="18.31" y="30.12" width="5.42" height="5.02" style="fill:#fff"/><path d="M40.79,38.35H38.15V29.29A5.08,5.08,0,0,1,36,28.1c-.12.11-.25.22-.38.32v9.93H31.72V30.12H26.31v8.23H15.21V28.2l-.12-.1a5.08,5.08,0,0,1-2.45,1.25v9H10.29A1.17,1.17,0,0,0,9.1,39.48v1.31H42V39.48A1.17,1.17,0,0,0,40.79,38.35Z" style="fill:#fff"/><path d="M8.14,24.62a3.4,3.4,0,0,0,3.48,3.3,3.4,3.4,0,0,0,3.48-3.3h0a3.48,3.48,0,0,0,7,0h-7l3-8.08h0l1.15-3.06h4.18L22.06,24.62h0a3.48,3.48,0,0,0,7,0h0L27.62,13.48H31.8l.69,1.84.46,1.23h0l3,8.08H29a3.48,3.48,0,0,0,7,0h0a3.48,3.48,0,0,0,7,0h0L36,13.48v-.72a.73.73,0,0,0-.73-.73H15.82a.73.73,0,0,0-.73.73v.71h0l-7,11.14h0Z" style="fill:#fff"/></svg>