<svg id="17a6a50b-45d7-4247-9ef4-cbaf10413483" data-name="66a60231-bd99-43e7-8672-29866aca806a" xmlns="http://www.w3.org/2000/svg" viewBox="0 0 476.61 150.23"><title>avast-logo</title><path d="M74.2,57.8c-7.72,0-13.56,6.71-13.56,14.89,0,7.74,5.68,14.93,13.56,14.93s13.56-7.07,13.56-14.93C87.76,65.26,82.52,57.8,74.2,57.8Z" transform="translate(0 0)" style="fill:#153157"/><path d="M141.23,100.95l0,.05c-4.9-4.61-8.15-5.26-12.12-8.17C116.92,83.92,114,65.26,123.32,53.1c2.67-3.48,6-5.93,9.73-8.41a26.85,26.85,0,0,0,9.26-10.21A24.34,24.34,0,0,0,139.4,9.37a23.87,23.87,0,0,0-33.46-4.46q-.9.69-1.73,1.46c-3.84,3.43-4.82,7-9.22,11.26-6.94,6.8-15.25,10.13-25.1,9.46A30.41,30.41,0,0,1,56.14,22.9c-5.22-2.94-7.25-6.47-11.27-7.39a12,12,0,0,0-11.6,3.41c-3.8,4.36-3.3,8.42-1.65,13.64a58.42,58.42,0,0,1,3.15,14.92A45.66,45.66,0,0,1,33,62.68c-2.66,9-9.22,17.42-15.5,23C12.3,90.24,8.64,91,5.32,94.18A16.94,16.94,0,0,0,0,106.4a17.11,17.11,0,0,0,13.94,16.83c6.21,1.15,12.13-1.68,14-2.26,12.89-4.06,29.08-3.56,40.78-.15,9.67,2.82,18,7.82,25.85,14.14,3.75,3,6.6,7.13,10.55,10,10.15,7.25,27.68,8.65,38.9-5.8C151.61,129.33,153.43,112.44,141.23,100.95ZM98,92.52a5.16,5.16,0,0,1-10.31.15V88.36C84.4,92.93,79,97.14,71.33,97.14q-8.77,0-15-7.14A25.08,25.08,0,0,1,50.1,72.84a25.12,25.12,0,0,1,6.28-17.17,19.31,19.31,0,0,1,15-7.1c7.2,0,12.48,3.5,16.38,8.75v-4q0-.2,0-.4A5,5,0,0,1,93,48.17a5.16,5.16,0,0,1,5,5.16Z" transform="translate(0 0)" style="fill:#153157"/><path d="M294.33,39.06c-4.81-1.89-8.38,1.73-9.26,4.06L267.69,88.7,250.31,43.12c-.88-2.33-4.45-6-9.26-4.06a6.85,6.85,0,0,0-4.2,8.73q.07.19.15.38l19.17,50.3c2.7,7.07,8,8.56,11.54,8.57s8.84-1.5,11.54-8.57c4.69-12.29,19.17-50.3,19.17-50.3a6.85,6.85,0,0,0-3.68-9l-.39-.15" transform="translate(0 0)" style="fill:#153157"/><path d="M220.64,38.53a7,7,0,0,0-7.26,6.73q0,.2,0,.41v5.56C208,44,200.67,39.11,190.69,39.11q-12.22,0-20.84,9.84a34.81,34.81,0,0,0-8.62,23.75,34.74,34.74,0,0,0,8.62,23.7q8.62,9.9,20.84,9.89c10.7,0,18.1-5.83,22.7-12.17v6a7.14,7.14,0,0,0,14.28-.21V45.67a7.15,7.15,0,0,0-7-7.14M194.4,93.39c-10.92,0-18.78-10-18.78-20.69,0-11.33,8.09-20.63,18.78-20.63,11.53,0,18.78,10.33,18.78,20.63,0,10.89-7.73,20.69-18.78,20.69" transform="translate(0 0)" style="fill:#153157"/><path d="M361.11,38.53a7,7,0,0,0-7.26,6.73q0,.2,0,.41v5.56c-5.41-7.27-12.72-12.12-22.7-12.12q-12.22,0-20.84,9.84a34.81,34.81,0,0,0-8.62,23.75,34.74,34.74,0,0,0,8.62,23.7q8.62,9.9,20.84,9.89c10.7,0,18.1-5.83,22.7-12.17v6a7.14,7.14,0,0,0,14.28-.21V45.67a7.15,7.15,0,0,0-7-7.14M334.87,93.39c-10.92,0-18.78-10-18.78-20.69,0-11.33,8.09-20.63,18.78-20.63,11.53,0,18.78,10.33,18.78,20.63,0,10.89-7.73,20.69-18.78,20.69" transform="translate(0 0)" style="fill:#153157"/><path d="M380.18,99.15a5.81,5.81,0,0,1-2.88-5.26,6.07,6.07,0,0,1,6-6.14h.14a6.62,6.62,0,0,1,3.26.88c6.39,4.26,13,6.39,19,6.39,6.51,0,10.27-2.76,10.27-7.14v-.25c0-5.14-7-6.64-14.78-9-9.77-2.76-20.67-7-20.67-19.67v-.25c0-12.52,10.4-20.16,23.55-20.16a45.45,45.45,0,0,1,20.79,5.38,6.43,6.43,0,0,1,3.63,5.76,6.1,6.1,0,0,1-6.06,6.14h-.2a6,6,0,0,1-3-.75c-5.39-2.76-10.9-4.51-15.53-4.51-5.89,0-9.27,2.76-9.27,6.51v.25c0,4.89,7.14,6.64,14.9,9.14C419,69.46,429.9,74.1,429.9,86v.25c0,13.9-10.77,20.79-24.55,20.79A45.18,45.18,0,0,1,380.18,99.15Z" transform="translate(0 0)" style="fill:#153157"/><path d="M443.63,87.77V53.4h-2.89a6.5,6.5,0,0,1,0-13h2.89V30.21a7.16,7.16,0,1,1,14.31-.54q0,.27,0,.54v10.2h11.3a6.5,6.5,0,0,1,0,13h-11.3v32c0,5.87,3.42,8.24,8.55,8.24a35.76,35.76,0,0,0,3.75-.37,6.37,6.37,0,0,1,6.37,6.24,6.5,6.5,0,0,1-4,5.87,30.18,30.18,0,0,1-10.37,1.75C451.12,107.12,443.63,102.25,443.63,87.77Z" transform="translate(0 0)" style="fill:#153157"/></svg>