<svg id="1404555c-be26-4c20-bb0e-271b94d89230" data-name="5973124b-8b02-4df2-b298-fae6851f3836" xmlns="http://www.w3.org/2000/svg" viewBox="0 0 832.68 283.46"><title>jabra_logo</title><path d="M253.26,133.36c-19.3,0-19.32,4.66-19.32,6.62v3.7c0,2,0,6.6,19.31,6.6s19.31-4.64,19.31-6.6V140C272.56,138,272.56,133.36,253.26,133.36Z" transform="translate(0 0)" style="fill:#193255"/><path d="M371.37,143.56V113.95c0-2,0-6.6-19.31-6.6s-19.31,4.64-19.31,6.6v29.61c0,2,0,6.6,19.31,6.6S371.37,145.52,371.37,143.56Z" transform="translate(0 0)" style="fill:#193255"/><path d="M500.06,150.28c19.31,0,19.32-4.64,19.32-6.6V140c0-2,0-6.62-19.32-6.62S480.75,138,480.75,140v3.7C480.75,145.68,480.75,150.28,500.06,150.28Z" transform="translate(0 0)" style="fill:#193255"/><path d="M815,0H17.72A17.72,17.72,0,0,0,0,17.72v248a17.72,17.72,0,0,0,17.72,17.72H815a17.72,17.72,0,0,0,17.72-17.72v-248A17.72,17.72,0,0,0,815,0ZM459.88,136.56c0-4.63,0-13.65,40.21-13.65a168.34,168.34,0,0,1,19.32,1v-9.83c0-2,0-6.6-19.32-6.6-17.88,0-17.88,4.64-17.88,6.6a2.46,2.46,0,0,1-2.46,2.46h-16a2.45,2.45,0,0,1-2.46-2.44v-3.42c0-4.63,0-13.64,38.78-13.64,40.23,0,40.23,9,40.23,13.64l0,0v36.4c0,4.63,0,13.64-40.23,13.64s-40.21-9-40.21-13.64ZM124,211.15a1.45,1.45,0,0,1-1.45,1.45h-6a1.45,1.45,0,0,1-1.45-1.45V196.34a1.45,1.45,0,0,1,1.45-1.45h6a1.45,1.45,0,0,1,1.45,1.45Zm29.9-.07a1.52,1.52,0,0,1-1.52,1.52H145.4a1.52,1.52,0,0,1-1.52-1.52V196.41a1.52,1.52,0,0,1,1.52-1.52h6.93a1.52,1.52,0,0,1,1.52,1.52Zm29.89-.07a1.59,1.59,0,0,1-1.59,1.59h-7.89a1.59,1.59,0,0,1-1.59-1.59V196.48a1.59,1.59,0,0,1,1.59-1.59h7.89a1.59,1.59,0,0,1,1.59,1.59ZM195.53,73.57v73.49h-.06c0,4.63,0,13.64-40.21,13.64S115,151.7,115,147.06v-6.28a2.47,2.47,0,0,1,2.47-2.46h16a2.46,2.46,0,0,1,2.46,2.46v3.09c0,2.06.75,6.35,19.31,6.35,19.31,0,19.31-4.65,19.31-6.6V73.57a2.46,2.46,0,0,1,2.46-2.46h16a2.46,2.46,0,0,1,2.47,2.45Zm18.11,137.37A1.66,1.66,0,0,1,212,212.6h-8.86a1.66,1.66,0,0,1-1.66-1.66V196.55a1.66,1.66,0,0,1,1.66-1.66H212a1.66,1.66,0,0,1,1.66,1.66Zm29.9-.07a1.73,1.73,0,0,1-1.73,1.73H232a1.73,1.73,0,0,1-1.73-1.73V196.62a1.73,1.73,0,0,1,1.73-1.73h9.83a1.73,1.73,0,0,1,1.73,1.73Zm-30.47-63.82V136.56c0-4.63,0-13.65,40.22-13.65a168.21,168.21,0,0,1,19.3,1v-9.83c0-2,0-6.6-19.3-6.6-17.89,0-17.89,4.64-17.89,6.6a2.46,2.46,0,0,1-2.46,2.46h-16a2.45,2.45,0,0,1-2.46-2.44v-3.42c0-4.63,0-13.64,38.79-13.64,40.2,0,40.2,9,40.2,13.64l0,0v36.4c0,4.63,0,13.64-40.21,13.64S213.07,151.69,213.07,147.05Zm60.35,63.75a1.8,1.8,0,0,1-1.8,1.8H260.83a1.8,1.8,0,0,1-1.8-1.8V196.69a1.8,1.8,0,0,1,1.8-1.8h10.79a1.8,1.8,0,0,1,1.8,1.8Zm29.9-.07a1.87,1.87,0,0,1-1.87,1.87H289.69a1.87,1.87,0,0,1-1.87-1.87v-14a1.87,1.87,0,0,1,1.87-1.87h11.76a1.87,1.87,0,0,1,1.87,1.87ZM311.85,147V73.47h0A2.46,2.46,0,0,1,314.27,71h16a2.46,2.46,0,0,1,2.47,2.45V97.86a169.26,169.26,0,0,1,19.31-.94c40.2,0,40.2,9,40.2,13.64V147c0,4.63,0,13.63-40.2,13.63S311.85,151.59,311.85,147Zm21.37,63.7a1.94,1.94,0,0,1-1.94,1.94H318.55a1.94,1.94,0,0,1-1.94-1.94V196.83a1.94,1.94,0,0,1,1.94-1.94h12.73a1.94,1.94,0,0,1,1.94,1.94Zm29.9-.07a2,2,0,0,1-2,2h-13.7a2,2,0,0,1-2-2V196.9a2,2,0,0,1,2-2h13.7a2,2,0,0,1,2,2Zm29.89-.07a2.08,2.08,0,0,1-2.08,2.08H376.27a2.08,2.08,0,0,1-2.08-2.08V197a2.08,2.08,0,0,1,2.08-2.08h14.66A2.08,2.08,0,0,1,393,197Zm29.9-.07a2.15,2.15,0,0,1-2.15,2.15H405.2a2.15,2.15,0,0,1-2.15-2.15V197a2.15,2.15,0,0,1,2.15-2.15h15.56a2.15,2.15,0,0,1,2.15,2.15Zm8.55-53.67a2.47,2.47,0,0,1-2.47,2.47H413a2.47,2.47,0,0,1-2.43-2.47V110.65c0-4.63,0-13.64,40.21-13.64a2.46,2.46,0,0,1,2.46,2.46V105a2.47,2.47,0,0,1-2.46,2.47c-19.31,0-19.31,4.64-19.31,6.6Zm214.09,51.9a3.92,3.92,0,0,1-3.92,3.92H435.69a3.92,3.92,0,0,1-3.92-3.92v-9.87a3.92,3.92,0,0,1,3.92-3.92H641.63a3.92,3.92,0,0,1,3.92,3.92Zm-30.21-86.84h18.8a1.28,1.28,0,0,0,1.28-1.28V107.77a1.28,1.28,0,0,0-1.28-1.28h-9.08a5.12,5.12,0,0,1-5-5.2,5.24,5.24,0,0,1,5.3-5h15.16a5.13,5.13,0,0,1,5.13,5.13V127a5.13,5.13,0,0,1-5.13,5.13H614.91q-.7,0-1.39,0a30.74,30.74,0,0,1-29.28-32.14C585,83.49,598.9,70.7,615.37,70.7h25.24a5.12,5.12,0,0,1,5,5.2,5.24,5.24,0,0,1-5.3,5h-25.4a20.47,20.47,0,1,0,.39,40.94Zm101.9,4.94a5.27,5.27,0,0,1-2.5,4.56,5,5,0,0,1-6.23-.73L667.66,89.78a1,1,0,0,0-1.64.68v36.32a5.23,5.23,0,0,1-5,5.29,5.12,5.12,0,0,1-5.21-5s0-.06,0-.09v-51a5.26,5.26,0,0,1,2.38-4.48,5.12,5.12,0,0,1,6.36.71l40.8,40.8a1,1,0,0,0,1.64-.68V76a5.23,5.23,0,0,1,5-5.29,5.12,5.12,0,0,1,5.25,5s0,.06,0,.09Z" transform="translate(0 0)" style="fill:#193255"/></svg>