<svg id="abbc09cd-1977-41b7-9687-2d2fb0226774" data-name="Layer 1" xmlns="http://www.w3.org/2000/svg" viewBox="0 0 722.11 86.65"><title>NCSOFT_logo_white</title><path d="M398.93,7.49c13.15,0,26.31,0,39.46,0,7.87,0,11.79,3.76,11.83,11.54q.14,28,0,55.95c0,7.73-4,11.51-11.88,11.52q-39.46.06-78.93,0c-7.86,0-11.78-3.81-11.82-11.57q-.13-28,0-55.95c0-7.76,4-11.47,11.87-11.49C372.62,7.46,385.77,7.49,398.93,7.49Zm.62,15.92c-5.82,0-11.64,0-17.46,0-5.41.06-7.24,1.8-7.27,7.13q-.11,16.47,0,32.93c0,5.23,1.95,7,7.37,7q17,.08,33.93,0c5.26,0,7.06-1.6,7.13-6.74.16-11.31.07-22.62.11-33.93,0-4.63-2.31-6.58-6.85-6.48C410.86,23.52,405.21,23.43,399.55,23.42Z" transform="translate(-1.6 -0.52)" style="fill:#fff"/><path d="M235.35,85.8v-15c2.15-.13,4.07-.35,6-.35,19,0,38,.09,57-.15,2.47,0,6.62-1.41,7-2.95a21.9,21.9,0,0,0-.53-11c-.32-1.15-4-1.91-6.11-1.93-16.66-.17-33.33-.1-50-.13-10.23,0-13.91-3.65-13.92-13.75,0-7.17-.09-14.33,0-21.5.11-6.72,4.18-11.22,10.81-11.25,27.66-.15,55.32-.06,83,0a13.48,13.48,0,0,1,2.72.65V23.15c-2.11.14-4,.37-5.95.37q-28.5,0-57,0c-6.5,0-8,1.42-8,7.28s1.64,7.47,7.92,7.48c17,0,34,0,51,0,9.3,0,12.73,3.41,12.75,12.57,0,8.17.08,16.33-.06,24.5-.12,6.43-4.21,10.91-10.56,10.94-27.83.15-55.66.08-83.49.06A15.56,15.56,0,0,1,235.35,85.8Z" transform="translate(-1.6 -0.52)" style="fill:#fff"/><path d="M106.17,86.06H78.89c0-2,0-3.81,0-5.58q0-24.5,0-49c0-6.49-1.44-7.89-8-7.9-13.47,0-26.95,0-41.05,0V85.93H1.6V7.9c1.59-.09,3.19-.26,4.78-.26q44,0,88,0c9,0,12.09,3,12.1,11.92q0,30.74,0,61.49C106.42,82.67,106.26,84.3,106.17,86.06Z" transform="translate(-1.6 -0.52)" style="fill:#fff"/><path d="M562,40.39v16H492.74V86H466c-.1-1.63-.29-3.23-.29-4.82q0-30.24,0-60.49c0-9.18,3.85-13,13.09-13q41.49,0,83,0c1.48,0,3,.13,5,.23V23.58H505.15c-10.88,0-12.55,1.65-12.44,12.33,0,1.31.13,2.62.22,4.47Z" transform="translate(-1.6 -0.52)" style="fill:#fff"/><path d="M219.45,8V23.34c-2.17.1-3.95.25-5.73.25-17.67,0-35.33,0-53,0-8,0-10.45,2.46-10.49,10.45,0,8.83-.07,17.67,0,26.5.06,7.71,2.25,9.87,9.83,9.87q26.75,0,53.5,0h5.84V86c-2.09.16-3.86.4-5.63.4q-39,0-78,0c-9.35,0-13-3.65-13-13q0-26.75,0-53.5c0-8.3,4-12.19,12.33-12.21q39.5-.06,79,0C215.74,7.65,217.35,7.83,219.45,8Z" transform="translate(-1.6 -0.52)" style="fill:#fff"/><path d="M576.9,23.54V8h105V23.16c-1.89.12-3.64.33-5.4.34-7.82,0-15.65,0-23.47,0-7.66,0-10.24,2.55-10.25,10.11q0,24,0,47.94c0,1.79,0,3.58,0,5.6h-27V81.74q0-24,0-47.94c0-7.59-2.65-10.23-10.19-10.25C596.29,23.52,587,23.54,576.9,23.54Z" transform="translate(-1.6 -0.52)" style="fill:#fff"/><path d="M695.56,14.08c0-7.94,5.75-13.55,14-13.56S723.7,6.13,723.71,14s-5.92,13.59-14.05,13.62S695.59,22,695.56,14.08Zm4.08,0c0,6,4.41,10.47,10.2,10.39A10.16,10.16,0,0,0,719.73,14,10.09,10.09,0,0,0,709.49,3.63C703.85,3.67,699.61,8.15,699.63,14.06Z" transform="translate(-1.6 -0.52)" style="fill:#fff"/><path d="M715.93,21.09H712.4c-1.84-1.68-1.87-4.82-4.9-6.2V21h-3.27V6.8a33.7,33.7,0,0,1,8.28.2c2.24.45,3.16,1.55,3.35,3.58s-.58,3.66-2.53,4.16a5,5,0,0,0-.85.45Zm-8.42-8.4c1.19,0,2.11.08,3,0,1.37-.15,2.06-.81,2-1.82-.08-1.18-.92-1.53-1.92-1.58s-2,0-3.08,0Z" transform="translate(-1.6 -0.52)" style="fill:#fff"/></svg>