<svg id="28b54e5b-edba-4471-8d02-c16d34d6b5b3" data-name="Layer 1" xmlns="http://www.w3.org/2000/svg" viewBox="0 0 195.76 184.83"><title>Take_Two_logo</title><path d="M.24.92c2,0,3.95-.06,5.92-.06H69.29l21.45,0c2.58,0,5.15,0,7.73-.07.4,0,.58.08.58.53,0,3.23,0,6.46.06,9.69,0,.22,0,.44,0,.77l.54-.34a53.12,53.12,0,0,1,21.11-8.31,68.26,68.26,0,0,1,19.92-.38,56.39,56.39,0,0,1,18.63,5.45,40.87,40.87,0,0,1,15.94,13.74,39.85,39.85,0,0,1,6,14.57,49.15,49.15,0,0,1,.8,13.69,41.32,41.32,0,0,1-7.77,21,56.54,56.54,0,0,1-9.48,10.35c-2.35,2-4.92,3.75-7.39,5.6Q145.47,96,133.53,105c-1.07.8-2.24,1.47-3.45,2.26h53c-.05,1.11-.1,2.19-.15,3.27q-.49,10.7-1,21.41c-.13,2.76-.26,5.52-.37,8.29,0,.4-.12.58-.53.52a2.47,2.47,0,0,0-.36,0l-38.31,0-16.91,0-26.09,0-21,0h-.72c0-.21,0-.39,0-.58q0-8.17,0-16.35,0-6.91,0-13.82a.93.93,0,0,1,.42-.85l38.55-29a150.53,150.53,0,0,0,13.18-10.65,55.4,55.4,0,0,0,8.08-9.06,24.37,24.37,0,0,0,4.17-10.15c.63-4.26.17-8.34-2.28-12A11.9,11.9,0,0,0,130.8,33,14.36,14.36,0,0,0,121,35a15.8,15.8,0,0,0-5.44,6.27,32.94,32.94,0,0,0-3.17,10.81c-.2,1.44-.32,2.9-.48,4.43l-1.52-.27L82,50.73c-1.31-.26-2.62-.55-3.94-.77-.49-.08-.59-.26-.51-.7.53-2.64,1-5.31,1.61-7.92.55-2.17,1.36-4.28,2.06-6.41l.18-.54c-.25,0-.44-.06-.64-.06-3.23,0-6.46,0-9.7,0-.5,0-.69.13-.68.67q0,14.31,0,28.62c0,7.56.06,15.12.07,22.69q0,21,0,42.08,0,5.75,0,11.5c0,.69,0,.69-.67.69l-39.24.07c-.71,0-.71,0-.71-.7q0-22.17-.07-44.34,0-10.78,0-21.56t0-21.61c0-5.81-.05-11.62-.05-17.43,0-.52-.17-.62-.64-.62q-13.79,0-27.59,0c-1.1,0-1.1,0-1.1-1.08q0-5.08,0-10.16a4.61,4.61,0,0,0-.11-.7Z" transform="translate(-0.24 0.01)" style="fill:#153157"/><path d="M121.43,184.82l-.73-.19a4.73,4.73,0,0,1-3.73-4,7.7,7.7,0,0,1,.48-4.83,4.32,4.32,0,0,1,3.78-2.7,7.48,7.48,0,0,1,2,.06c2.28.44,3.21,2.05,3.53,4,0,.26-.05.37-.33.38-.74,0-1.48,0-2.21.11-.48,0-.63-.15-.68-.58a1.7,1.7,0,0,0-.87-1.43,1.27,1.27,0,0,0-1.77.53,3.32,3.32,0,0,0-.43,1.35,19,19,0,0,0,.06,3.22,1.53,1.53,0,0,0,3.06,0c.08-.47.31-.53.7-.49.72.07,1.43.13,2.15.18.3,0,.36.15.31.44a4.41,4.41,0,0,1-3.83,3.76,1.73,1.73,0,0,0-.33.13Z" transform="translate(-0.24 0.01)" style="fill:#153157"/><path d="M196,6.9h-.87V1.46l-.08,0L194.16,4c-.29.83-.59,1.65-.84,2.48a.53.53,0,0,1-.62.44c-.33,0-.51-.07-.63-.42-.54-1.64-1.11-3.27-1.74-4.9V6.84h-.93V0h1.34l1.91,5.57h.12L194.66,0H196Z" transform="translate(-0.24 0.01)" style="fill:#153157"/><path d="M188.57,0V.8H186.3V6.86h-.95v-6H183V0Z" transform="translate(-0.24 0.01)" style="fill:#153157"/><path d="M144.35,153.51c1.08,0,2.12,0,3.17,0,.14,0,.35.24.39.41.53,2.09,1,4.19,1.54,6.29a.94.94,0,0,0,.26.48c.14-.56.29-1.11.42-1.67.39-1.68.78-3.37,1.16-5.06a.52.52,0,0,1,.63-.48,13.59,13.59,0,0,0,1.8,0c.48,0,.69.11.8.6.52,2.13,1.08,4.25,1.63,6.37,0,.08.05.15.12.36.09-.24.14-.35.17-.47.51-2.11,1-4.23,1.52-6.35.09-.4.26-.53.66-.51.75,0,1.49,0,2.32,0-.27,1.06-.52,2-.77,3-.79,3-1.59,6-2.36,9a.61.61,0,0,1-.74.56c-.69,0-1.37,0-2.06,0-.38,0-.58-.08-.68-.5-.48-2-1-4-1.5-5.93a.82.82,0,0,0-.23-.4c-.05.16-.11.32-.15.48-.45,1.93-.91,3.87-1.35,5.81-.09.41-.26.56-.69.54-.79,0-1.58,0-2.37,0a.44.44,0,0,1-.5-.39q-1.57-5.89-3.16-11.76A2.13,2.13,0,0,1,144.35,153.51Z" transform="translate(-0.24 0.01)" style="fill:#153157"/><path d="M182.66,159.77a6,6,0,0,1-2.57,5.48,5.93,5.93,0,0,1-9.22-4.07,7.33,7.33,0,0,1,1-5.52,5.29,5.29,0,0,1,3.87-2.26,6.18,6.18,0,0,1,4.25.83,5.89,5.89,0,0,1,2.62,4.68A8.23,8.23,0,0,1,182.66,159.77Zm-3.88.08c-.17-.85-.27-1.71-.51-2.52a1.55,1.55,0,0,0-1.52-1.24,1.57,1.57,0,0,0-1.57,1.18,7.57,7.57,0,0,0,0,5,1.55,1.55,0,0,0,1.54,1.15,1.52,1.52,0,0,0,1.59-1.15A24.14,24.14,0,0,0,178.78,159.84Z" transform="translate(-0.24 0.01)" style="fill:#153157"/><path d="M74.1,158.69l2.3-3.41c.37-.54.63-1.27,1.14-1.55a4.56,4.56,0,0,1,1.92-.11h1.35c-.09.17-.14.28-.22.39-.82,1.2-1.64,2.42-2.49,3.6a1,1,0,0,0-.1,1.2c1.11,2.15,2.17,4.32,3.24,6.49.12.24.22.49.37.83H80.36c-.81,0-1.62,0-2.42,0a.58.58,0,0,1-.62-.4c-.54-1.22-1.1-2.44-1.66-3.65-.09-.2-.19-.39-.36-.73-.51.93-1.45,1.48-1.36,2.62,0,.56,0,1.13,0,1.7,0,.33-.09.46-.44.46q-1.34,0-2.68,0c-.35,0-.44-.13-.44-.46q0-5.8,0-11.6c0-.36.11-.48.47-.47.84,0,1.68,0,2.53,0,.42,0,.57.1.56.54,0,1.34,0,2.68,0,4,0,.16,0,.33,0,.49Z" transform="translate(-0.24 0.01)" style="fill:#153157"/><path d="M91.75,159.83c0-1.89,0-3.78,0-5.67,0-.4.08-.57.53-.57q4.15,0,8.3,0c.41,0,.55.12.53.53,0,.6,0,1.2,0,1.8,0,.39-.13.5-.51.5-1.53,0-3.06,0-4.59,0-.47,0-.62.14-.62.61,0,1.33,0,1.33,1.33,1.33.94,0,1.89,0,2.83,0,.34,0,.5.07.49.46,0,.6,0,1.2,0,1.8,0,.37-.13.47-.48.46-1.2,0-2.41,0-3.61,0-.42,0-.55.14-.53.54a10.75,10.75,0,0,1,0,1.08c0,.39.12.54.53.54,1.53,0,3.06,0,4.59,0,.42,0,.58.11.56.55,0,.65,0,1.31,0,2,0,.3-.1.43-.42.42q-4.25,0-8.5,0c-.41,0-.43-.21-.42-.52,0-1.92,0-3.85,0-5.77Z" transform="translate(-0.24 0.01)" style="fill:#153157"/><path d="M95.89,184.58c-1.24,0-2.37,0-3.5,0-.16,0-.4-.24-.47-.42-.46-1.13-.87-2.27-1.31-3.41a1,1,0,0,0-1.25-.45c-.1.07-.14.29-.14.45,0,1.1,0,2.2,0,3.3,0,.47-.15.59-.59.57-.79,0-1.58,0-2.37,0-.43,0-.52-.15-.52-.54q0-5.18,0-10.36c0-.38.12-.51.5-.5,1.94,0,3.88,0,5.82,0a5.3,5.3,0,0,1,1.37.21,3,3,0,0,1,2.37,2.49,3,3,0,0,1-1.61,3.52l-.34.22Zm-6.67-7.88a5.11,5.11,0,0,0,0,.82c0,.12.19.31.29.31a12,12,0,0,0,1.89-.1,1,1,0,0,0,.87-1.13,1,1,0,0,0-1-1,6.14,6.14,0,0,0-.92-.07C89.21,175.53,89.21,175.53,89.22,176.7Z" transform="translate(-0.24 0.01)" style="fill:#153157"/><path d="M47.78,179.44c-.07-.94-.16-1.87-.2-2.81s0-2.09,0-3.14c0-.1.2-.28.31-.28.72,0,1.44,0,2.16,0,.4,0,.32.28.32.51q0,2.73,0,5.46c0,1.63,0,3.26,0,4.9,0,.42-.13.57-.53.52-.15,0-.31,0-.46,0-.61,0-1.34.16-1.81-.11s-.71-1-1-1.5q-1.68-2.8-3.34-5.6s0,0,0,.05c.06,2,.14,3.9.19,5.85,0,1.3,0,1.3-1.28,1.3-1.47,0-1.47,0-1.47-1.48,0-3.09,0-6.18,0-9.28,0-.5.14-.66.64-.63a19.13,19.13,0,0,0,2.11,0,.79.79,0,0,1,.81.48c1.07,1.82,2.16,3.63,3.25,5.44.08.14.18.27.27.41Z" transform="translate(-0.24 0.01)" style="fill:#153157"/><path d="M60.06,166.14c-1.21,0-2.37,0-3.54,0-.12,0-.3-.21-.35-.35a16.69,16.69,0,0,1-.49-1.62.53.53,0,0,0-.6-.48q-1.26,0-2.52,0a.51.51,0,0,0-.58.44q-.23.84-.52,1.67c0,.14-.2.34-.3.35-.92,0-1.84,0-2.84,0l1-3.37c.89-2.86,1.78-5.72,2.65-8.59a.59.59,0,0,1,.69-.51c1,0,2,0,3,0a.54.54,0,0,1,.61.46c1.2,3.86,2.42,7.71,3.63,11.57A4.23,4.23,0,0,1,60.06,166.14Zm-6.17-8.7h-.16l-1,3.57H54.9Z" transform="translate(-0.24 0.01)" style="fill:#153157"/><path d="M173.34,178.89c0-1.7,0-3.4,0-5.11,0-.44.09-.6.57-.59,2.48,0,5,0,7.43,0,.41,0,.55.11.53.52a9.74,9.74,0,0,0,0,1.44c0,.48-.17.57-.6.56-1.34,0-2.68,0-4,0-.42,0-.57.12-.57.55,0,1.27,0,1.27,1.28,1.27.83,0,1.65,0,2.48,0,.39,0,.51.13.49.51a12,12,0,0,0,0,1.44c0,.4-.14.5-.51.5-1,0-2.1,0-3.15,0-.45,0-.59.14-.59.59,0,1.41,0,1.41,1.4,1.41,1.1,0,2.2,0,3.3,0,.36,0,.49.1.48.47,0,.57,0,1.14,0,1.7,0,.37-.13.47-.48.46-2.51,0-5,0-7.53,0-.44,0-.51-.18-.5-.55C173.35,182.33,173.34,180.61,173.34,178.89Z" transform="translate(-0.24 0.01)" style="fill:#153157"/><path d="M70.69,178.9c0-1.72,0-3.44,0-5.15,0-.43.14-.55.56-.55q3.71,0,7.42,0c.43,0,.58.12.55.55a9.83,9.83,0,0,0,0,1.44c0,.46-.17.54-.57.53-1.36,0-2.71,0-4.07,0-.39,0-.54.09-.54.52,0,1.31,0,1.31,1.28,1.31.81,0,1.62,0,2.42,0,.33,0,.46.1.45.44,0,.51,0,1,0,1.55,0,.34-.12.46-.45.45-1,0-2.1,0-3.14,0-.42,0-.6.12-.56.56a5.66,5.66,0,0,1,0,1c0,.37.13.47.48.47,1.39,0,2.78,0,4.17,0,.41,0,.54.13.52.53s0,1.1,0,1.65c0,.33-.09.46-.43.46q-3.81,0-7.63,0c-.43,0-.46-.21-.46-.54C70.7,182.33,70.69,180.61,70.69,178.9Z" transform="translate(-0.24 0.01)" style="fill:#153157"/><path d="M112.19,184.58c-1.08,0-2.13,0-3.17,0-.12,0-.3-.2-.35-.34-.18-.5-.32-1-.46-1.52a.45.45,0,0,0-.51-.39c-.79,0-1.58,0-2.37,0a.65.65,0,0,0-.46.35c-.2.49-.32,1-.5,1.51-.05.14-.18.36-.28.37-.83,0-1.66,0-2.59,0l.95-3.07c.8-2.58,1.61-5.16,2.4-7.75.13-.42.3-.57.74-.56.89,0,1.79,0,2.68,0a.48.48,0,0,1,.55.4q1.67,5.37,3.36,10.74A1.44,1.44,0,0,1,112.19,184.58Zm-6.64-4.74h2l-.91-3.2h-.15Z" transform="translate(-0.24 0.01)" style="fill:#153157"/><path d="M156.59,173.2c1.14,0,2.2,0,3.26,0,.15,0,.36.27.42.45.63,2.1,1.24,4.21,1.86,6.31a.83.83,0,0,0,.26.42c.18-.58.36-1.17.53-1.75.48-1.65,1-3.29,1.42-4.94a.59.59,0,0,1,.71-.52c.71,0,1.43,0,2.22,0-.22.73-.41,1.38-.61,2-.9,2.9-1.81,5.79-2.68,8.69a.78.78,0,0,1-.93.67c-.8-.06-1.61,0-2.42,0a.49.49,0,0,1-.56-.4q-1.69-5.29-3.4-10.57A3.86,3.86,0,0,1,156.59,173.2Z" transform="translate(-0.24 0.01)" style="fill:#153157"/><path d="M128.48,156.52c-.75,0-1.43,0-2.11,0-.39,0-.52-.13-.5-.5,0-.65,0-1.31,0-2,0-.34.1-.49.47-.49q3.94,0,7.89,0c.35,0,.49.11.48.47,0,.69,0,1.37,0,2.06,0,.32-.11.42-.42.42-.7,0-1.4,0-2.16,0v.66q0,4.1,0,8.2c0,.74,0,.74-.76.74s-1.51,0-2.27,0c-.46,0-.62-.1-.62-.59,0-2.77,0-5.53,0-8.3Z" transform="translate(-0.24 0.01)" style="fill:#153157"/><path d="M32.46,161.42c0-1.41,0-2.82,0-4.22,0-.44-.09-.63-.56-.59s-1,0-1.54,0-.52-.1-.52-.49c0-.7,0-1.4-.06-2.11,0-.35.2-.34.43-.34h3.71c1.41,0,2.82,0,4.22,0,.39,0,.56.1.53.52,0,.67,0,1.34,0,2,0,.31-.1.43-.41.42-.5,0-1,0-1.49,0-.74,0-.74,0-.74.77,0,2.2,0,4.4,0,6.59,0,.62,0,1.23.06,1.85,0,.25,0,.39-.33.39-1,0-2,0-2.94,0-.37,0-.36-.21-.36-.47,0-1.44,0-2.88,0-4.33Z" transform="translate(-0.24 0.01)" style="fill:#153157"/><path d="M135.07,180.25c0-1.29,0-2.58,0-3.86,0-.4-.12-.57-.53-.55s-1,0-1.55,0c-.28,0-.41-.09-.4-.39q0-.93,0-1.85c0-.28.09-.4.39-.4h7.32c.26,0,.38.08.37.36,0,.64,0,1.27,0,1.91,0,.31-.15.38-.41.38-.48,0-1,0-1.44,0s-.53.14-.53.54c0,2.52,0,5,0,7.57,0,.48-.1.67-.62.64-.72,0-1.44,0-2.16,0-.37,0-.47-.12-.47-.48C135.08,182.83,135.07,181.54,135.07,180.25Z" transform="translate(-0.24 0.01)" style="fill:#153157"/><path d="M62.12,180.28c0,1.27,0,2.54,0,3.81,0,.38-.12.52-.5.5-.75,0-1.51,0-2.27,0-.39,0-.5-.12-.5-.5,0-2.54,0-5.08,0-7.62,0-.5-.15-.67-.64-.64a8.11,8.11,0,0,1-1.39,0,.51.51,0,0,1-.35-.35c0-.63,0-1.27,0-1.91,0-.27.11-.36.37-.36h7.26c.31,0,.38.14.38.41,0,.6,0,1.2,0,1.8,0,.31-.11.44-.42.43-.48,0-1,0-1.44,0s-.51.16-.51.52c0,1.3,0,2.61,0,3.92Z" transform="translate(-0.24 0.01)" style="fill:#153157"/><path d="M33.62,178.89c0,1.74,0,3.47,0,5.21,0,.39-.12.51-.5.5-.82,0-1.65,0-2.47,0-.34,0-.5-.08-.5-.46q0-5.23,0-10.47c0-.36.13-.48.48-.47.84,0,1.68,0,2.53,0,.37,0,.46.13.46.48C33.61,175.41,33.62,177.15,33.62,178.89Z" transform="translate(-0.24 0.01)" style="fill:#153157"/><path d="M146.93,178.87c0-1.72,0-3.43,0-5.15,0-.41.12-.54.53-.52.82,0,1.65,0,2.47,0,.33,0,.45.09.45.44q0,5.26,0,10.51c0,.34-.11.45-.44.45-.82,0-1.65,0-2.47,0-.46,0-.54-.17-.53-.57C146.94,182.3,146.93,180.59,146.93,178.87Z" transform="translate(-0.24 0.01)" style="fill:#153157"/></svg>