<svg id="e149860f-823b-474b-ba7a-8a6b14cc081d" data-name="Layer 1"  xmlns="http://www.w3.org/2000/svg" viewBox="0 0 147.43 33.89" width="200" height="46"><title>MyCommerce Logo</title><path d="M17.32.67V17.53H14.43v-12l-5.56,8.6L3.33,5.58v12H.44V.67H3.59L8.87,8.86,14.16.67Z" transform="translate(-0.44 -0.34)" style="fill:#fff"/><path d="M32.63,5.51l-5.58,12-.75,1.64a5.4,5.4,0,0,1-2,2.34,5.49,5.49,0,0,1-3,.86H20l.72-2.89h.7a2.45,2.45,0,0,0,1.3-.38,2.37,2.37,0,0,0,.89-1l.24-.53-5.59-12h3.18l4,8.62,4-8.62Z" transform="translate(-0.44 -0.34)" style="fill:#fff"/><path d="M48.21,15.29a8.94,8.94,0,0,1-2.79,1.89,8.8,8.8,0,0,1-6.83,0,8.79,8.79,0,0,1-4.67-4.67,8.77,8.77,0,0,1,0-6.82A8.79,8.79,0,0,1,38.59,1a8.92,8.92,0,0,1,6.83,0,8.94,8.94,0,0,1,2.79,1.89L46.17,5a6.08,6.08,0,0,0-1.91-1.29,6,6,0,0,0-4.5,0,6.11,6.11,0,0,0-3.19,3.19,5.83,5.83,0,0,0,0,4.49,6,6,0,0,0,1.29,1.92,5.71,5.71,0,0,0,1.9,1.27,5.9,5.9,0,0,0,6.41-1.27Z" transform="translate(-0.44 -0.34)" style="fill:#fff"/><path d="M54.93,5.18A6.28,6.28,0,0,1,59.43,7a6.36,6.36,0,0,1,1.36,2,6.35,6.35,0,0,1,0,4.94,6.36,6.36,0,0,1-1.36,2,6.38,6.38,0,0,1-7,1.36A6.35,6.35,0,0,1,49.07,14a6.35,6.35,0,0,1,0-4.94,6.35,6.35,0,0,1,3.38-3.38A6.24,6.24,0,0,1,54.93,5.18Zm0,2.88a3.47,3.47,0,0,0-3.47,3.47,3.32,3.32,0,0,0,1,2.43,3.14,3.14,0,0,0,1.12.76,3.59,3.59,0,0,0,1.34.26,3.47,3.47,0,0,0,2.46-1,3.45,3.45,0,0,0,0-4.88A3.45,3.45,0,0,0,54.93,8.06Z" transform="translate(-0.44 -0.34)" style="fill:#fff"/><path d="M75.4,5.18a3.84,3.84,0,0,1,1.77.38,3.44,3.44,0,0,1,1.24,1.06,4.82,4.82,0,0,1,.72,1.57,7.32,7.32,0,0,1,.24,1.92v7.44H76.48V10.11a2.07,2.07,0,0,0-2-2A1.94,1.94,0,0,0,73,8.67a2,2,0,0,0-.6,1.44v7.44H69.5V10.11a2,2,0,0,0-.6-1.44,1.87,1.87,0,0,0-.67-.46,2,2,0,0,0-.78-.15,2.07,2.07,0,0,0-2.07,2v7.44H62.49v-12h2.89V6.57a8.13,8.13,0,0,1,1.47-1,3.43,3.43,0,0,1,1.56-.39,3.34,3.34,0,0,1,1.79.43,4.56,4.56,0,0,1,1.25,1.2,5.16,5.16,0,0,1,1.68-1.16A5.33,5.33,0,0,1,75.4,5.18Z" transform="translate(-0.44 -0.34)" style="fill:#fff"/><path d="M93.72,5.18a3.79,3.79,0,0,1,1.77.38,3.36,3.36,0,0,1,1.24,1.06,4.82,4.82,0,0,1,.72,1.57,7.31,7.31,0,0,1,.25,1.92v7.44H94.81V10.11a2,2,0,0,0-.61-1.44,1.91,1.91,0,0,0-1.44-.61,2.07,2.07,0,0,0-2.05,2v7.44H87.82V10.11a2,2,0,0,0-.6-1.44,1.76,1.76,0,0,0-.66-.46,2.08,2.08,0,0,0-.78-.15,2.07,2.07,0,0,0-2.07,2v7.44H80.82v-12h2.89V6.57a7.73,7.73,0,0,1,1.46-1,3.47,3.47,0,0,1,1.57-.39,3.31,3.31,0,0,1,1.78.43,4.43,4.43,0,0,1,1.25,1.2,5.53,5.53,0,0,1,4-1.63Z" transform="translate(-0.44 -0.34)" style="fill:#fff"/><path d="M108.41,13H102.1a2.81,2.81,0,0,0,.7,1,3.36,3.36,0,0,0,1.13.76,3.5,3.5,0,0,0,1.33.26,3.41,3.41,0,0,0,1.75-.46l3,1.2a5.94,5.94,0,0,1-2.09,1.58,6.27,6.27,0,0,1-2.67.57,6.21,6.21,0,0,1-2.48-.5,6.41,6.41,0,0,1-2-1.36,6.53,6.53,0,0,1-1.36-2,6.47,6.47,0,0,1,0-4.94,6.53,6.53,0,0,1,1.36-2,6.41,6.41,0,0,1,2-1.36,6.52,6.52,0,0,1,5,0,6.35,6.35,0,0,1,3.38,3.38,6.24,6.24,0,0,1,.49,2.48,5.6,5.6,0,0,1-.17,1.45Zm-3.15-4.92a3.43,3.43,0,0,0-2.46,1,3.11,3.11,0,0,0-.7,1h6.31a3.11,3.11,0,0,0-.7-1A3.31,3.31,0,0,0,105.26,8.06Z" transform="translate(-0.44 -0.34)" style="fill:#fff"/><path d="M117.36,5.51a4.92,4.92,0,0,1,1.93-.36V8a3.34,3.34,0,0,0-2.45,1,3.44,3.44,0,0,0-1,2.46v6h-2.89V5.49h2.89v.94A6.16,6.16,0,0,1,117.36,5.51Z" transform="translate(-0.44 -0.34)" style="fill:#fff"/><path d="M130.54,16a6.36,6.36,0,0,1-2,1.36,6.4,6.4,0,0,1-5,0,6.41,6.41,0,0,1-2-1.36,6.53,6.53,0,0,1-1.36-2,6.47,6.47,0,0,1,0-4.94,6.53,6.53,0,0,1,1.36-2,6.41,6.41,0,0,1,2-1.36,6.52,6.52,0,0,1,5,0,6.36,6.36,0,0,1,2,1.36l-2,2.05a3.31,3.31,0,0,0-2.45-1,3.45,3.45,0,0,0-2.46,1,3.45,3.45,0,0,0,0,4.88,3.36,3.36,0,0,0,1.13.76A3.5,3.5,0,0,0,126,15a3.28,3.28,0,0,0,2.45-1Z" transform="translate(-0.44 -0.34)" style="fill:#fff"/><path d="M140,13h-6.31a2.81,2.81,0,0,0,.7,1,3.27,3.27,0,0,0,1.13.76,3.55,3.55,0,0,0,3.08-.2l3,1.2a6.07,6.07,0,0,1-2.1,1.58,6.47,6.47,0,0,1-5.15.07A6.35,6.35,0,0,1,131,14a6.35,6.35,0,0,1,0-4.94,6.35,6.35,0,0,1,3.38-3.38,6.37,6.37,0,0,1,7,1.36,6.24,6.24,0,0,1,1.86,4.5,6.07,6.07,0,0,1-.17,1.45Zm-3.16-4.92a3.41,3.41,0,0,0-2.45,1,3.11,3.11,0,0,0-.7,1H140a3.28,3.28,0,0,0-.7-1A3.34,3.34,0,0,0,136.87,8.06Z" transform="translate(-0.44 -0.34)" style="fill:#fff"/><path d="M143.87,6.83a2,2,0,1,1,2,2A2,2,0,0,1,143.87,6.83Zm3.74,0a1.74,1.74,0,1,0-1.74,1.73A1.73,1.73,0,0,0,147.61,6.83ZM146.47,8l-.66-1h-.3V8H145V5.6h1a.71.71,0,0,1,.8.73.67.67,0,0,1-.48.69L147,8ZM145.9,6h-.39v.76h.39a.35.35,0,0,0,.4-.38A.35.35,0,0,0,145.9,6Z" transform="translate(-0.44 -0.34)" style="fill:#fff"/><path d="M3.58,25h.6l3,6.9H6.2L5.37,30h-3l-.83,1.93H.61Zm1.48,4.22L3.85,26.41l-1.2,2.84Z" transform="translate(-0.44 -0.34)" style="fill:#fff"/><path d="M12.44,31.93H10V25h2.43c2.76,0,3.92,1.56,3.92,3.45S15.2,31.93,12.44,31.93Zm-.07-5.77h-1v4.65h1c1.89,0,2.55-.95,2.55-2.33S14.26,26.16,12.37,26.16Z" transform="translate(-0.44 -0.34)" style="fill:#fff"/><path d="M17.47,26.83V25.61h1.29v1.22Zm0,5.1V28h1.29v3.92Z" transform="translate(-0.44 -0.34)" style="fill:#fff"/><path d="M22,34.22a3.68,3.68,0,0,1-1.77-.49v-1a3,3,0,0,0,1.73.51c.63,0,1.13-.36,1.13-1.27v-.5a1.73,1.73,0,0,1-1.35.58A1.94,1.94,0,0,1,19.88,30a1.94,1.94,0,0,1,1.87-2.12,1.71,1.71,0,0,1,1.41.67l0-.52h1.19v3.88A2.12,2.12,0,0,1,22,34.22Zm.15-3.08a1.18,1.18,0,1,0-1-1.16A1,1,0,0,0,22.16,31.14Z" transform="translate(-0.44 -0.34)" style="fill:#fff"/><path d="M25.76,26.83V25.61h1.29v1.22Zm0,5.1V28h1.29v3.92Z" transform="translate(-0.44 -0.34)" style="fill:#fff"/><path d="M30.11,28.84v3.09H28.82V28.84h-.74V28h.74V26.69h1.29V28h.76v.83Z" transform="translate(-0.44 -0.34)" style="fill:#fff"/><path d="M33.52,27.86a1.71,1.71,0,0,1,1.41.67L35,28h1.19v3.92H35l0-.51a1.7,1.7,0,0,1-1.41.66A1.93,1.93,0,0,1,31.65,30,1.94,1.94,0,0,1,33.52,27.86Zm.41,3.28a1,1,0,0,0,1-1.17,1,1,0,0,0-1-1.16,1.18,1.18,0,0,0,0,2.33Z" transform="translate(-0.44 -0.34)" style="fill:#fff"/><path d="M37.52,31.93V25h1.29v6.9Z" transform="translate(-0.44 -0.34)" style="fill:#fff"/><path d="M48,31.93H46.42l-1.91-2.74h-.87v2.74h-1.4V25H45a2,2,0,0,1,2.33,2.08A1.89,1.89,0,0,1,45.91,29ZM43.64,28.2h1.08c.88,0,1.19-.46,1.19-1.07S45.6,26,44.72,26H43.64Z" transform="translate(-0.44 -0.34)" style="fill:#fff"/><path d="M48.83,26.83V25.61h1.29v1.22Zm0,5.1V28h1.29v3.92Z" transform="translate(-0.44 -0.34)" style="fill:#fff"/><path d="M53.64,32h-1L50.89,28h1.25l1,2.56,1-2.56h1.22Z" transform="translate(-0.44 -0.34)" style="fill:#fff"/><path d="M59.64,30H57.08c0,.58.3,1.15,1.28,1.15a2.18,2.18,0,0,0,1.27-.46v.85a2.63,2.63,0,0,1-1.66.5,2.11,2.11,0,0,1-.09-4.22,1.69,1.69,0,0,1,1.83,1.61A3.06,3.06,0,0,1,59.64,30Zm-1.75-1.41c-.35,0-.66.21-.76.76h1.39a1.26,1.26,0,0,0,0-.16A.58.58,0,0,0,57.89,28.63Z" transform="translate(-0.44 -0.34)" style="fill:#fff"/><path d="M62.23,29.91v2H60.94V28h1.17l.07.7a1.62,1.62,0,0,1,1.44-.85V29.1C62.92,28.9,62.23,29.24,62.23,29.91Z" transform="translate(-0.44 -0.34)" style="fill:#fff"/><path d="M66.3,28.48A3.51,3.51,0,0,1,70,24.88a4.18,4.18,0,0,1,2.39.73v.95A3.46,3.46,0,0,0,70,25.65a2.63,2.63,0,0,0-2.72,2.83A2.63,2.63,0,0,0,70,31.31a3.41,3.41,0,0,0,2.39-.91v1a4.18,4.18,0,0,1-2.39.72A3.5,3.5,0,0,1,66.3,28.48Z" transform="translate(-0.44 -0.34)" style="fill:#fff"/><path d="M75.58,32.11A2.14,2.14,0,1,1,77.85,30,2.2,2.2,0,0,1,75.58,32.11Zm0-3.61A1.4,1.4,0,0,0,74.16,30,1.43,1.43,0,1,0,77,30,1.39,1.39,0,0,0,75.58,28.5Z" transform="translate(-0.44 -0.34)" style="fill:#fff"/><path d="M84.7,31.93V29.61c0-.74-.24-1.07-.83-1.07a1.21,1.21,0,0,0-1.17,1.15v2.24h-.84V29.61c0-.74-.23-1.07-.83-1.07a1.19,1.19,0,0,0-1.16,1.15v2.24H79V28h.74l.06.68a1.77,1.77,0,0,1,1.47-.83,1.22,1.22,0,0,1,1.3.9,1.9,1.9,0,0,1,1.54-.9c1.06,0,1.4.74,1.4,1.72v2.35Z" transform="translate(-0.44 -0.34)" style="fill:#fff"/><path d="M89.3,32.08a1.79,1.79,0,0,1-1.47-.71v2.81H87V28h.75l0,.62a1.89,1.89,0,0,1,1.52-.77,2.12,2.12,0,0,1,0,4.22Zm-.21-3.57a1.47,1.47,0,0,0,0,2.93A1.33,1.33,0,0,0,90.37,30,1.32,1.32,0,0,0,89.09,28.51Z" transform="translate(-0.44 -0.34)" style="fill:#fff"/><path d="M95.7,31.93l0-.62a1.85,1.85,0,0,1-1.52.77,2.12,2.12,0,0,1,0-4.22,1.9,1.9,0,0,1,1.52.77l0-.62h.75v3.92ZM93.06,30a1.32,1.32,0,0,0,1.27,1.46,1.47,1.47,0,0,0,0-2.93A1.33,1.33,0,0,0,93.06,30Z" transform="translate(-0.44 -0.34)" style="fill:#fff"/><path d="M100.92,31.93V29.62c0-.75-.31-1.08-.91-1.08a1.3,1.3,0,0,0-1.27,1.15v2.24H97.9V28h.74l.06.68a2,2,0,0,1,1.59-.83c1.06,0,1.47.74,1.47,1.72v2.35Z" transform="translate(-0.44 -0.34)" style="fill:#fff"/><path d="M103.88,34.18H103l1.07-2.43L102.44,28h.83l1.25,3,1.25-3h.82Z" transform="translate(-0.44 -0.34)" style="fill:#fff"/></svg>