<?xml version="1.0" encoding="utf-8"?>
<!-- Generator: Adobe Illustrator 23.0.6, SVG Export Plug-In . SVG Version: 6.00 Build 0)  -->
<svg version="1.1"
	 id="svg2" inkscape:version="0.48.2 r9819" sodipodi:docname="HTC.svg" xmlns:cc="http://creativecommons.org/ns#" xmlns:dc="http://purl.org/dc/elements/1.1/" xmlns:inkscape="http://www.inkscape.org/namespaces/inkscape" xmlns:rdf="http://www.w3.org/1999/02/22-rdf-syntax-ns#" xmlns:sodipodi="http://sodipodi.sourceforge.net/DTD/sodipodi-0.dtd" xmlns:svg="http://www.w3.org/2000/svg"
	 xmlns="http://www.w3.org/2000/svg" xmlns:xlink="http://www.w3.org/1999/xlink" x="0px" y="0px" viewBox="0 0 246.2 81.7"
	 style="enable-background:new 0 0 246.2 81.7;" xml:space="preserve">
<style type="text/css">
	.st0{fill:#8CC751;}
</style>
<sodipodi:namedview  bordercolor="#666666" borderopacity="1" fit-margin-bottom="0" fit-margin-left="0" fit-margin-right="0" fit-margin-top="0" gridtolerance="10" guidetolerance="10" id="namedview20" inkscape:current-layer="svg2" inkscape:cx="126.34785" inkscape:cy="-0.17923649" inkscape:pageopacity="0" inkscape:pageshadow="2" inkscape:window-height="837" inkscape:window-maximized="1" inkscape:window-width="1600" inkscape:window-x="-8" inkscape:window-y="-8" inkscape:zoom="1.3485714" objecttolerance="10" pagecolor="#ffffff" showgrid="false">
	</sodipodi:namedview>
<defs>
	
	
		<inkscape:perspective  id="perspective24" inkscape:persp3d-origin="150 : 58.333333 : 1" inkscape:vp_x="0 : 87.5 : 1" inkscape:vp_y="0 : 1000 : 0" inkscape:vp_z="300 : 87.5 : 1" sodipodi:type="inkscape:persp3d">
		</inkscape:perspective>
</defs>
<g>
	<path id="path38" inkscape:connector-curvature="0" class="st0" d="M169.6,72.2c-9.8,0.1-19.1,0.1-21.6-0.1
		c-5.2-0.5-8.7-3.9-9.1-8.9c-0.3-3.3-0.3-6,0-8.6c0.5-4.9,4.6-9.6,9.1-9.8c1.6-0.1,6-0.1,13.9,0l23.1,0v-9.6c0,0-18.4,0-23.9,0
		c-7.4,0-11.2,0-13.5,0c-5.2,0.2-9.6,2.1-13,5.5c-3.2,3.2-5.1,8.4-5.4,13.7c-0.2,2.8-0.2,6.5,0,8.7c0.5,5.6,2.4,10,5.4,13.1
		c3.3,3.3,8.2,5.4,13,5.5c3.9,0,37.4,0,37.4,0v-9.6C185,72.1,174.8,72.2,169.6,72.2"/>
	<path id="path40" inkscape:connector-curvature="0" class="st0" d="M65.4,35.7v9.6h22.8v36.2h9.6V45.3h22.8v-9.6
		C120.6,35.7,65.4,35.7,65.4,35.7z"/>
	<path id="path50" inkscape:connector-curvature="0" class="st0" d="M55.4,53.8c-0.1-5.2-1.9-9.6-5.4-13.1c-3.7-3.7-9.3-5.3-13-5.5
		c-3.2-0.2-15.8-0.1-18.7,0c-4.2,0.2-7.2,1.4-8.7,2.6c0,0,0,0,0,0l0-17.4H0v61.4h9.6c0,0-0.2-25.1,0-27.9c0.4-4.9,4.1-8.7,8.8-9.1
		c3.8-0.3,15.1-0.2,18.6,0c4.9,0.3,8.5,4.1,8.8,9.3c0.1,1.9,0,27.7,0,27.7h9.6C55.4,81.7,55.5,56,55.4,53.8"/>
</g>
</svg>
