<?xml version="1.0" encoding="utf-8"?>
<!-- Generator: Adobe Illustrator 23.0.6, SVG Export Plug-In . SVG Version: 6.00 Build 0)  -->
<svg version="1.1" id="Layer_1" xmlns="http://www.w3.org/2000/svg" xmlns:xlink="http://www.w3.org/1999/xlink" x="0px" y="0px"
	 viewBox="0 0 28.5 24" style="enable-background:new 0 0 28.5 24;" xml:space="preserve">
<style type="text/css">
	.st0{fill:#003058;}
</style>
<g>
	<g>
		<g>
			<path class="st0" d="M11.3,18.5c-1.6,0-2.9-1.3-2.9-2.9s1.3-2.9,2.9-2.9s2.9,1.3,2.9,2.9C14.2,17.2,13,18.5,11.3,18.5z
				 M11.3,13.5c-1.1,0-2.1,0.9-2.1,2.1c0,1.2,0.9,2.1,2.1,2.1s2.1-0.9,2.1-2.1S12.5,13.5,11.3,13.5z"/>
		</g>
		<g>
			<path class="st0" d="M13,22.6H9.6c-0.2,0-0.4-0.2-0.4-0.4v-1.2c-0.6-0.2-1.1-0.6-1.6-0.9l-1,0.6c-0.2,0.1-0.4,0-0.6-0.1l-1.7-2.9
				c0-0.1-0.1-0.2,0-0.3c0-0.1,0.1-0.2,0.2-0.2l1.1-0.6c-0.1-0.6-0.1-1.2,0-1.8l-1.1-0.6c-0.2-0.1-0.2-0.3-0.1-0.6l1.7-2.9
				c0-0.1,0.1-0.1,0.2-0.2c0.1,0,0.2,0,0.3,0l1,0.6c0.4-0.3,1-0.7,1.6-0.9V9c0-0.2,0.2-0.4,0.4-0.4h3.3c0.2,0,0.4,0.2,0.4,0.4v1.2
				c0.6,0.2,1.1,0.6,1.6,0.9l1-0.6c0.2-0.1,0.4,0,0.6,0.1l1.7,2.9c0.1,0.2,0,0.4-0.1,0.6l-1.1,0.6c0.1,0.6,0.1,1.2,0,1.8l1.1,0.6
				c0.1,0,0.1,0.1,0.2,0.2c0,0.1,0,0.2,0,0.3l-1.7,2.9c0,0.1-0.1,0.1-0.2,0.2c-0.1,0-0.2,0-0.3,0l-1-0.6c-0.4,0.3-1,0.7-1.6,0.9v1.2
				C13.4,22.4,13.2,22.6,13,22.6z M10.1,21.8h2.4v-1.1c0-0.2,0.1-0.3,0.3-0.4c0.7-0.2,1.3-0.6,1.8-1c0.1-0.1,0.3-0.1,0.4,0l1,0.6
				l1.2-2.1l-1-0.6c-0.1-0.2-0.1-0.4-0.1-0.6c0.1-0.7,0.1-1.4,0-2.1c0-0.2,0-0.3,0.2-0.4l1-0.6l-1.2-2.1l-1,0.6
				c-0.1,0.1-0.3,0.1-0.4,0c-0.6-0.4-1.1-0.8-1.8-1c-0.2-0.1-0.3-0.2-0.3-0.4V9.4h-2.4v1.1c0,0.2-0.1,0.3-0.3,0.4
				c-0.7,0.2-1.3,0.6-1.8,1c-0.2,0-0.4,0-0.6,0l-1-0.6l-1.2,2.1l1,0.6c0.1,0.1,0.2,0.2,0.2,0.4c-0.1,0.7-0.1,1.4,0,2.1
				c0,0.2,0,0.3-0.2,0.4l-1,0.6l1.2,2.1l1-0.6c0.1-0.1,0.3-0.1,0.4,0c0.6,0.4,1.1,0.8,1.8,1c0.2,0.1,0.3,0.2,0.3,0.4V21.8z"/>
		</g>
	</g>
	<g>
		<g>
			<path class="st0" d="M20.1,8.5c-0.9,0-1.7-0.8-1.7-1.7s0.8-1.7,1.7-1.7s1.7,0.8,1.7,1.7C21.7,7.7,20.9,8.5,20.1,8.5z M20.1,6
				c-0.4,0-0.8,0.3-0.8,0.8s0.3,0.8,0.8,0.8s0.8-0.3,0.8-0.8C20.8,6.4,20.5,6,20.1,6z"/>
		</g>
		<g>
			<path class="st0" d="M20.8,11h-1.7c-0.2,0-0.4-0.2-0.4-0.4V9.9c-0.3-0.1-0.6-0.2-0.8-0.4l-0.6,0.3c-0.1,0-0.2,0.1-0.3,0
				c-0.1,0-0.2-0.1-0.2-0.2l-0.8-1.4c-0.1-0.2,0-0.4,0.1-0.6l0.6-0.3c0-0.3,0-0.7,0-0.9l-0.6-0.2c-0.1,0-0.1-0.1-0.2-0.2
				c0-0.1,0-0.2,0-0.3l0.8-1.4C16.7,4,16.8,4,17,3.9c0.1,0,0.2,0,0.3,0L18,4.2c0.2-0.2,0.6-0.3,0.8-0.4V3.1c0-0.2,0.2-0.4,0.4-0.4
				h1.7c0.2,0,0.4,0.2,0.4,0.4v0.7c0.3,0.1,0.6,0.2,0.8,0.4l0.6-0.3c0.1,0,0.2-0.1,0.3,0c0.1,0,0.2,0.1,0.2,0.2l0.8,1.4
				c0.1,0.2,0,0.4-0.1,0.6l-0.6,0.3c0,0.3,0,0.6,0,0.9l0.7,0.3C24.2,7.7,24.2,8,24,8.2l-0.8,1.4c0,0.1-0.1,0.1-0.2,0.2
				c-0.1,0-0.2,0-0.3,0l-0.6-0.3c-0.2,0.2-0.6,0.3-0.8,0.4v0.7C21.3,10.8,21.1,11,20.8,11z M19.6,10.2h0.8V9.6
				c0-0.2,0.1-0.3,0.3-0.4c0.3-0.1,0.7-0.3,1-0.6c0.1-0.1,0.3-0.1,0.4-0.1l0.4,0.2l0.4-0.7l-0.4-0.2c-0.1-0.1-0.2-0.2-0.2-0.4
				c0.1-0.3,0.1-0.8,0-1.1c0-0.2,0-0.3,0.2-0.4l0.4-0.2L22.6,5l-0.4,0.2c-0.1,0.1-0.3,0.1-0.4-0.1c-0.3-0.2-0.7-0.4-1-0.6
				c-0.2,0-0.3-0.2-0.3-0.4V3.5h-0.8v0.6c0,0.2-0.1,0.3-0.3,0.4c-0.3,0.1-0.7,0.3-1,0.6c-0.1,0.1-0.3,0.1-0.4,0.1L17.4,5L17,5.6
				l0.4,0.2c0.1,0.1,0.2,0.2,0.2,0.4c-0.1,0.3-0.1,0.8,0,1.1c0,0.2,0,0.3-0.2,0.4L17,8.1l0.4,0.7l0.4-0.2c0.1-0.1,0.3-0.1,0.4,0.1
				c0.3,0.2,0.7,0.4,1,0.6c0.2,0,0.3,0.2,0.3,0.4V10.2z"/>
		</g>
	</g>
</g>
</svg>
