<?xml version="1.0" encoding="utf-8"?>
<!-- Generator: Adobe Illustrator 23.0.6, SVG Export Plug-In . SVG Version: 6.00 Build 0)  -->
<svg version="1.1" id="Layer_1" xmlns="http://www.w3.org/2000/svg" xmlns:xlink="http://www.w3.org/1999/xlink" x="0px" y="0px"
	 viewBox="0 0 23.4 24" style="enable-background:new 0 0 23.4 24;" xml:space="preserve">
<!-- <style type="text/css">
	.st0{fill:#003058;}
</style> -->



<style xmlns="http://www.w3.org/2000/svg" type="text/css">

	.st0{fill:#003058}

</style>



<g>
	<g>
		<path class="st0" d="M10.7,11L10.7,11c-0.1,0-0.3-0.1-0.4-0.2c-0.4-0.5-3.8-4.6-3.8-6.7C6.5,1.9,8.4,0,10.7,0
			c2.3,0,4.1,1.9,4.1,4.1c0,2.1-3.4,6.2-3.8,6.7C11,10.9,10.8,11,10.7,11z M10.7,1C8.9,1,7.5,2.4,7.5,4.1c0,1.3,2,4.1,3.1,5.6
			c1.1-1.4,3.1-4.2,3.1-5.6C13.8,2.4,12.4,1,10.7,1z"/>
	</g>
	<g>
		<path class="st0" d="M10.7,6c-1,0-1.9-0.8-1.9-1.9s0.8-1.9,1.9-1.9c1,0,1.9,0.8,1.9,1.9S11.7,6,10.7,6z M10.7,3.3
			c-0.5,0-0.9,0.4-0.9,0.9S10.2,5,10.7,5c0.5,0,0.9-0.4,0.9-0.9S11.1,3.3,10.7,3.3z"/>
	</g>
	<g>
		<path class="st0" d="M19.7,17L19.7,17c-0.1,0-0.3-0.1-0.4-0.2c-0.3-0.4-3.4-4.1-3.4-6c0-2.1,1.7-3.8,3.8-3.8
			c2.1,0,3.8,1.7,3.8,3.8c0,1.9-3,5.6-3.4,6C20,16.9,19.8,17,19.7,17z M19.7,8c-1.5,0-2.8,1.2-2.8,2.8c0,1.1,1.6,3.4,2.8,4.9
			c1-1.3,2.8-3.8,2.8-4.9C22.4,9.2,21.2,8,19.7,8z"/>
	</g>
	<g>
		<path class="st0" d="M19.7,12.5c-1,0-1.7-0.8-1.7-1.7c0-1,0.8-1.7,1.7-1.7c1,0,1.7,0.8,1.7,1.7C21.4,11.7,20.6,12.5,19.7,12.5z
			 M19.7,10c-0.4,0-0.7,0.3-0.7,0.7c0,0.4,0.3,0.7,0.7,0.7c0.4,0,0.7-0.3,0.7-0.7C20.4,10.4,20.1,10,19.7,10z"/>
	</g>
	<g>
		<g>
			<path class="st0" d="M4.7,24c-0.3,0-0.5-0.2-0.5-0.5c0-1-1-2.5-1.9-3.9c-0.9-1.4-1.9-2.9-2.2-4.2C-0.2,14,0.2,12.6,1,11.6
				c0.8-1,2.2-1.6,3.7-1.6c1.5,0,2.8,0.5,3.6,1.5c0.9,1,1.2,2.4,0.9,3.9l0,0c-0.2,1.1-1.1,2.5-2,3.9c-1,1.5-2.1,3.1-2.1,4.2
				C5.2,23.8,4.9,24,4.7,24z M4.7,11c-1.2,0-2.2,0.4-2.9,1.2c-0.6,0.8-0.9,1.9-0.7,3c0.2,1.1,1.1,2.5,2,3.8c0.6,0.9,1.2,1.8,1.6,2.6
				c0.4-0.9,1.1-1.9,1.7-2.9c0.9-1.3,1.7-2.6,1.9-3.5v0c0.2-1.2-0.1-2.3-0.7-3C6.9,11.4,5.9,11,4.7,11z"/>
		</g>
		<g>
			<path class="st0" d="M4.7,16.8c-1.3,0-2.4-1.1-2.4-2.4c0-1.3,1.1-2.4,2.4-2.4S7,13.1,7,14.4C7,15.7,6,16.8,4.7,16.8z M4.7,13
				c-0.8,0-1.4,0.6-1.4,1.4c0,0.8,0.6,1.4,1.4,1.4S6,15.2,6,14.4C6,13.7,5.4,13,4.7,13z"/>
		</g>
	</g>
	<g>
		<path class="st0" d="M16.5,15.8c-0.1,0-0.2,0-0.3-0.1l-4.9-3.3c-0.2-0.2-0.3-0.5-0.1-0.7c0.2-0.2,0.5-0.3,0.7-0.1l4.9,3.3
			c0.2,0.2,0.3,0.5,0.1,0.7C16.8,15.7,16.7,15.8,16.5,15.8z"/>
	</g>
	<g>
		<path class="st0" d="M7.2,22.8c-0.2,0-0.4-0.1-0.5-0.3c-0.1-0.2,0-0.5,0.2-0.7l9.9-4.6c0.2-0.1,0.5,0,0.7,0.2s0,0.5-0.2,0.7
			l-9.9,4.6C7.4,22.8,7.3,22.8,7.2,22.8z"/>
	</g>
</g>
</svg>
