<?xml version="1.0" encoding="utf-8"?>
<!-- Generator: Adobe Illustrator 23.0.6, SVG Export Plug-In . SVG Version: 6.00 Build 0)  -->
<svg version="1.1" id="Layer_1" xmlns="http://www.w3.org/2000/svg" xmlns:xlink="http://www.w3.org/1999/xlink" x="0px" y="0px"
	 viewBox="0 0 23.4 24" style="enable-background:new 0 0 23.4 24;" xml:space="preserve">
<style type="text/css">
	.st0{fill:#003058;}
</style>
<g>
	<g>
		<path class="st0" d="M19,16.9H0.9c-0.3,0-0.5-0.2-0.5-0.5V5.1c0-0.3,0.2-0.5,0.5-0.5H19c0.3,0,0.5,0.2,0.5,0.5v11.4
			C19.4,16.7,19.2,16.9,19,16.9z M1.4,16h17.1V5.5H1.4V16z"/>
	</g>
	<g>
		<path class="st0" d="M20.9,18.8H2.8c-0.3,0-0.5-0.2-0.5-0.5c0-0.3,0.2-0.5,0.5-0.5h17.6V7c0-0.3,0.2-0.5,0.5-0.5
			c0.3,0,0.5,0.2,0.5,0.5v11.4C21.3,18.6,21.1,18.8,20.9,18.8z"/>
	</g>
	<g>
		<path class="st0" d="M22.8,20.7H4.7c-0.3,0-0.5-0.2-0.5-0.5c0-0.3,0.2-0.5,0.5-0.5h17.6V8.9c0-0.3,0.2-0.5,0.5-0.5
			c0.3,0,0.5,0.2,0.5,0.5v11.4C23.2,20.5,23,20.7,22.8,20.7z"/>
	</g>
	<g>
		<path class="st0" d="M9.9,14.1c-1.8,0-3.3-1.5-3.3-3.3s1.5-3.3,3.3-3.3s3.3,1.5,3.3,3.3S11.8,14.1,9.9,14.1z M9.9,8.4
			c-1.3,0-2.4,1.1-2.4,2.4s1.1,2.4,2.4,2.4s2.4-1.1,2.4-2.4S11.2,8.4,9.9,8.4z"/>
	</g>
	<g>
		<path class="st0" d="M4.7,15H2.8c-0.3,0-0.5-0.2-0.5-0.5s0.2-0.5,0.5-0.5h1.9c0.3,0,0.5,0.2,0.5,0.5S5,15,4.7,15z"/>
	</g>
	<g>
		<path class="st0" d="M17.1,7.4h-1.9c-0.3,0-0.5-0.2-0.5-0.5c0-0.3,0.2-0.5,0.5-0.5h1.9c0.3,0,0.5,0.2,0.5,0.5
			C17.5,7.2,17.3,7.4,17.1,7.4z"/>
	</g>
</g>
</svg>
