<?xml version="1.0" encoding="utf-8"?>
<!-- Generator: Adobe Illustrator 23.0.6, SVG Export Plug-In . SVG Version: 6.00 Build 0)  -->
<svg version="1.1" id="Layer_1" xmlns="http://www.w3.org/2000/svg" xmlns:xlink="http://www.w3.org/1999/xlink" x="0px" y="0px"
	 viewBox="0 0 23.4 24" style="enable-background:new 0 0 23.4 24;" xml:space="preserve">
<style type="text/css">
	.st0{fill:#003058;}
</style>
<g>
	<g>
		<path class="st0" d="M13.6,9.6c-0.1,0-0.2,0-0.3-0.1l-1.6-1.2l-1.6,1.2c-0.2,0.1-0.4,0.1-0.6,0C9.3,9.4,9.3,9.2,9.3,9L10,7.2
			l-1.4-1C8.4,6.1,8.3,5.9,8.4,5.7c0.1-0.2,0.2-0.3,0.5-0.3h1.6l0.8-1.6c0.2-0.3,0.7-0.3,0.9,0l0.8,1.6h1.6c0.2,0,0.4,0.1,0.5,0.3
			c0.1,0.2,0,0.4-0.2,0.5l-1.3,1L14.1,9c0.1,0.2,0,0.4-0.2,0.5C13.8,9.6,13.7,9.6,13.6,9.6z M11.7,7.2c0.1,0,0.2,0,0.3,0.1l0.8,0.6
			l-0.2-0.8c-0.1-0.2,0-0.4,0.2-0.5l0.4-0.3h-0.5c-0.2,0-0.3-0.1-0.4-0.3L11.7,5L11.2,6c-0.1,0.2-0.2,0.3-0.4,0.3h-0.4l0.4,0.3
			C11,6.7,11.1,7,11,7.2l-0.2,0.7l0.6-0.5C11.5,7.3,11.6,7.2,11.7,7.2z"/>
	</g>
	<g>
		<path class="st0" d="M5.2,11c-1.3,0-2.3-0.4-3.1-1.2C0.3,8,0.3,4.5,0.3,3.2l0-0.3c0-0.3,0.2-0.5,0.5-0.5h2.4
			c0.3,0,0.5,0.2,0.5,0.5S3.5,3.4,3.2,3.4H1.3c0,1.3,0,4.2,1.5,5.7c0.6,0.6,1.4,0.9,2.4,0.9c0.3,0,0.5,0.2,0.5,0.5S5.5,11,5.2,11z"
			/>
	</g>
	<g>
		<path class="st0" d="M18.2,11c-0.3,0-0.5-0.2-0.5-0.5s0.2-0.5,0.5-0.5c1,0,1.8-0.3,2.4-0.9c1.5-1.5,1.5-4.4,1.5-5.7h-2
			c-0.3,0-0.5-0.2-0.5-0.5s0.2-0.5,0.5-0.5h2.4c0.3,0,0.5,0.2,0.5,0.5l0,0.2c0,1.3,0.1,4.8-1.8,6.6C20.5,10.6,19.5,11,18.2,11z"/>
	</g>
	<g>
		<path class="st0" d="M17,23.4H6.5c-0.3,0-0.5-0.2-0.5-0.5V21c0-0.3,0.2-0.5,0.5-0.5c2.3,0,3.7-0.6,3.8-3.8c0-1.7-0.9-2.2-2.1-2.9
			c-2.3-1.4-5.4-3.3-5.4-12.7c0-0.3,0.2-0.5,0.5-0.5h17.1c0.3,0,0.5,0.2,0.5,0.5c0,9.4-3.2,11.3-5.5,12.7c-1.3,0.8-2.2,1.3-2.2,3
			c0,2.7,1.1,3.8,3.8,3.8c0.3,0,0.5,0.2,0.5,0.5v1.9C17.4,23.2,17.2,23.4,17,23.4z M7,22.5h9.5v-1c-2.9-0.1-4.3-1.7-4.3-4.7
			c0-2.2,1.3-3,2.6-3.8c2.2-1.3,4.9-3,5-11.4H3.7c0.1,8.5,2.8,10.1,5,11.4c1.3,0.8,2.6,1.6,2.6,3.8c-0.1,3.1-1.4,4.6-4.2,4.7V22.5z"
			/>
	</g>
</g>
</svg>
