<?xml version="1.0" encoding="utf-8"?>
<!-- Generator: Adobe Illustrator 23.0.6, SVG Export Plug-In . SVG Version: 6.00 Build 0)  -->
<svg version="1.1" id="Layer_1" xmlns="http://www.w3.org/2000/svg" xmlns:xlink="http://www.w3.org/1999/xlink" x="0px" y="0px"
	 viewBox="0 0 24 24" style="enable-background:new 0 0 24 24;" xml:space="preserve">
<style type="text/css">
	.st0{fill:#003058;}
</style>
<g>
	<g>
		<g>
			<path class="st0" d="M7.5,24h-5C1.1,24,0,22.9,0,21.5v-19C0,1.1,1.1,0,2.5,0h10C13.9,0,15,1.1,15,2.5v9c0,0.3-0.2,0.5-0.5,0.5
				S14,11.8,14,11.5v-9C14,1.7,13.3,1,12.5,1h-10C1.7,1,1,1.7,1,2.5v19C1,22.3,1.7,23,2.5,23h5C7.8,23,8,23.2,8,23.5S7.8,24,7.5,24z
				"/>
		</g>
		<g>
			<path class="st0" d="M14.5,5h-14C0.2,5,0,4.8,0,4.5S0.2,4,0.5,4h14C14.8,4,15,4.2,15,4.5S14.8,5,14.5,5z"/>
		</g>
		<g>
			<path class="st0" d="M7.5,20h-7C0.2,20,0,19.8,0,19.5S0.2,19,0.5,19h7C7.8,19,8,19.2,8,19.5S7.8,20,7.5,20z"/>
		</g>
		<g>
			<path class="st0" d="M9.5,3h-4C5.2,3,5,2.8,5,2.5S5.2,2,5.5,2h4C9.8,2,10,2.2,10,2.5S9.8,3,9.5,3z"/>
		</g>
		<g>
			<path class="st0" d="M7.5,22.5c-0.6,0-1-0.4-1-1s0.4-1,1-1C7.8,20.5,8,20.7,8,21s-0.2,0.5-0.5,0.5C7.8,21.5,8,21.7,8,22
				S7.8,22.5,7.5,22.5z"/>
		</g>
	</g>
	<g>
		<g>
			<path class="st0" d="M23.5,17h-14C9.2,17,9,16.8,9,16.5S9.2,16,9.5,16h14c0.3,0,0.5,0.2,0.5,0.5S23.8,17,23.5,17z"/>
		</g>
		<g>
			<path class="st0" d="M15.5,19h-4c-0.3,0-0.5-0.2-0.5-0.5s0.2-0.5,0.5-0.5h4c0.3,0,0.5,0.2,0.5,0.5S15.8,19,15.5,19z"/>
		</g>
		<g>
			<path class="st0" d="M21.5,19h-2c-0.3,0-0.5-0.2-0.5-0.5s0.2-0.5,0.5-0.5h2c0.3,0,0.5,0.2,0.5,0.5S21.8,19,21.5,19z"/>
		</g>
		<g>
			<path class="st0" d="M13.5,21h-2c-0.3,0-0.5-0.2-0.5-0.5s0.2-0.5,0.5-0.5h2c0.3,0,0.5,0.2,0.5,0.5S13.8,21,13.5,21z"/>
		</g>
		<g>
			<path class="st0" d="M21.5,24h-10C10.1,24,9,22.9,9,21.5v-6c0-1.4,1.1-2.5,2.5-2.5h10c1.4,0,2.5,1.1,2.5,2.5v6
				C24,22.9,22.9,24,21.5,24z M11.5,14c-0.8,0-1.5,0.7-1.5,1.5v6c0,0.8,0.7,1.5,1.5,1.5h10c0.8,0,1.5-0.7,1.5-1.5v-6
				c0-0.8-0.7-1.5-1.5-1.5H11.5z"/>
		</g>
	</g>
	<g>
		<g>
			<path class="st0" d="M7.5,14.5c-1,0-1.9-0.8-1.9-1.9c0-0.3,0.2-0.5,0.5-0.5s0.5,0.2,0.5,0.5c0,0.5,0.4,0.9,0.9,0.9
				s0.9-0.4,0.9-0.9c0-0.5-0.4-0.9-0.9-0.9c-1,0-1.9-0.8-1.9-1.9s0.8-1.9,1.9-1.9s1.9,0.8,1.9,1.9c0,0.3-0.2,0.5-0.5,0.5
				s-0.5-0.2-0.5-0.5c0-0.5-0.4-0.9-0.9-0.9S6.6,9.3,6.6,9.8s0.4,0.9,0.9,0.9c1,0,1.9,0.8,1.9,1.9C9.4,13.6,8.5,14.5,7.5,14.5z"/>
		</g>
		<g>
			<path class="st0" d="M7.5,15.4c-0.3,0-0.5-0.2-0.5-0.5V14c0-0.3,0.2-0.5,0.5-0.5S8,13.7,8,14v0.9C8,15.2,7.8,15.4,7.5,15.4z"/>
		</g>
		<g>
			<path class="st0" d="M7.5,8.9C7.2,8.9,7,8.7,7,8.4V7.5C7,7.2,7.2,7,7.5,7S8,7.2,8,7.5v0.9C8,8.7,7.8,8.9,7.5,8.9z"/>
		</g>
	</g>
</g>
</svg>
