<?xml version="1.0" encoding="utf-8"?>
<!-- Generator: Adobe Illustrator 23.0.6, SVG Export Plug-In . SVG Version: 6.00 Build 0)  -->
<svg version="1.1"
	 id="Layer_1" xmlns:cc="http://creativecommons.org/ns#" xmlns:dc="http://purl.org/dc/elements/1.1/" xmlns:inkscape="http://www.inkscape.org/namespaces/inkscape" xmlns:rdf="http://www.w3.org/1999/02/22-rdf-syntax-ns#" xmlns:sodipodi="http://sodipodi.sourceforge.net/DTD/sodipodi-0.dtd" xmlns:svg="http://www.w3.org/2000/svg"
	 xmlns="http://www.w3.org/2000/svg" xmlns:xlink="http://www.w3.org/1999/xlink" x="0px" y="0px" viewBox="0 0 618.2 464.1"
	 style="enable-background:new 0 0 618.2 464.1;" xml:space="preserve">
<style type="text/css">
	.st0{fill:#2372B8;}
</style>
<g>
	<path class="st0" d="M143.9,308.6h-17.9c-6.8,0-12.2-5.4-12.2-12.2v-144h30.1C143.9,152.4,143.9,308.6,143.9,308.6z"/>
	<path class="st0" d="M265.9,308.6h-17.3c-6.8,0-12.2-5.4-12.2-12.2v-0.3c-7.4,9.1-18.1,15.3-33.5,15.3c-30.9,0-54.2-25.2-54.2-59
		s23.3-59,54.2-59c15.3,0,26.1,6.2,33.5,15.3v-12.5h29.5V308.6z M179.7,252.5c0,17,11.3,30.9,28.9,30.9c17.3,0,28.9-13,28.9-30.9
		c0-17.6-11.6-30.9-28.9-30.9C191,221.6,179.7,235.5,179.7,252.5z"/>
	<path class="st0" d="M304.1,308.6h-17.9c-6.8,0-12.2-5.4-12.2-12.2v-144h30.1C304.1,152.4,304.1,308.6,304.1,308.6z"/>
	<path class="st0" d="M429.7,252.5c0,33.7-25.8,59-60.7,59c-34.9,0-60.4-25.2-60.4-59s25.5-59,60.4-59
		C403.9,193.5,429.7,218.7,429.7,252.5z M339.6,252.5c0,18.1,12.8,30.9,29.8,30.9c17,0,29.8-12.8,29.8-30.9s-12.8-30.9-29.8-30.9
		C352.1,221.6,339.6,234.3,339.6,252.5z"/>
	<g>
		<path class="st0" d="M615.2,237.2v71.5h-17.9c-6.8,0-12.2-5.4-12.2-12.2v-49.3c0-16.2-8.2-25-21.8-25c-13,0-23.8,8.5-23.8,25.2
			v61.2h-17.9c-6.8,0-12.2-5.4-12.2-12.2v-49.3c0-16.2-8.2-25-21.8-25c-13,0-23.8,8.5-23.8,25.2v61.2h-17.9
			c-6.8,0-12.2-5.4-12.2-12.2v-99.8h29.2v13c7.9-11.9,20.1-16.2,32.9-16.2c16.2,0,29.5,7.4,36.9,19.3c8.8-14.2,23.3-19.3,38-19.3
			C597.3,193.5,615.2,211.4,615.2,237.2z"/>
	</g>
	<g>
		<path class="st0" d="M100.8,219.3c-2.8,6-9.6,8.5-15.6,6.2c-8.8-3.4-20.1-6.5-31.2-6.8c-11.3-0.3-16.7,3.7-16.7,9.9
			c0,6.5,6.2,8.2,16.4,9.9l13.6,1.7c24.4,2.8,42.5,14.5,42.2,35.4c-0.3,23.3-19.3,36.6-57,36c-15.3-0.3-34-4.5-49.6-14.2l10.5-23.3
			c7.4,4,22.7,11.9,39.4,12.2s25.2-2.6,25.5-10.8c0-7.9-10.8-8.5-25.2-10.5l-6.5-0.9c-33.2-5.1-41.4-17.6-41.1-35.7
			c0.3-23.3,22.4-35.2,48.8-34.9c20.1,0.3,37.1,5.7,51.9,13L100.8,219.3z"/>
	</g>
</g>
</svg>
