<svg class="img-responsive-pictogram" width="507" height="421" id="fullServiceModels" xmlns="http://www.w3.org/2000/svg" viewBox="0 0 316.59 307.83"><title>full-service-models</title><g id="closeLine"><polyline points="297.57 257.4 210.54 307.32 21.17 198.12 63.44 176.05" style="fill:none;stroke:#b6e8fb;stroke-linecap:round;stroke-linejoin:round;stroke-width:1.02477262470557px"/><path d="M418.52,268.71" transform="translate(-191.82 -51.97)" style="fill:none;stroke:#b6e8fb;stroke-linecap:round;stroke-linejoin:round;stroke-width:1.02477262470557px"/></g><g id="farLine"><polyline points="102.97 186.74 168.22 223.69 200.26 206.7" style="fill:none;stroke:#b6e8fb;stroke-linecap:round;stroke-linejoin:round;stroke-width:1.02477262470557px"/><line x1="50.67" y1="182.72" x2="80.33" y2="199.84" style="fill:none;stroke:#b6e8fb;stroke-linecap:round;stroke-linejoin:round;stroke-width:1.02477262470557px"/><line x1="80.28" y1="199.84" x2="102.97" y2="186.74" style="fill:none;stroke:#b6e8fb;stroke-linecap:round;stroke-linejoin:round;stroke-width:1.02477262470557px"/><line x1="226.71" y1="216.69" x2="297.57" y2="257.35" style="fill:none;stroke:#b6e8fb;stroke-linecap:round;stroke-linejoin:round;stroke-width:1.02477262470557px"/></g><g id="screen"><polyline points="144.69 44.47 253.53 107.26 253.53 85.31 105.64 0 105.64 21.95 144.69 44.47" style="fill:#d5d9dc"/><polygon points="144.69 44.47 105.64 21.95 105.64 162.12 144.69 184.65 253.53 247.44 253.53 107.26 144.69 44.47" style="fill:#00406b"/><polygon points="132.68 50.47 93.63 27.95 93.63 144.34 132.68 166.87 132.68 50.47" style="fill:#00b6e8"/><path d="M308.5,71.73c.63-.66.55-2.27-.17-3.59s-1.82-1.85-2.44-1.19-.55,2.27.17,3.59S307.87,72.39,308.5,71.73Z" transform="translate(-191.82 -51.97)" style="fill:#9e79bb"/><path d="M318,77.26c.63-.66.55-2.27-.17-3.59s-1.82-1.85-2.44-1.19-.55,2.27.17,3.59S317.36,77.93,318,77.26Z" transform="translate(-191.82 -51.97)" style="fill:#a8c628"/><path d="M327.47,82.44c.63-.66.55-2.27-.17-3.59s-1.82-1.85-2.44-1.19-.55,2.27.17,3.59S326.85,83.1,327.47,82.44Z" transform="translate(-191.82 -51.97)" style="fill:#00b6e8"/><line x1="103.79" y1="71.49" x2="115.25" y2="78.1" style="fill:none;stroke:#a8c628;stroke-linecap:round;stroke-linejoin:round;stroke-width:2px"/><line x1="103.79" y1="81.16" x2="123.68" y2="92.63" style="fill:none;stroke:#a8c628;stroke-linecap:round;stroke-linejoin:round;stroke-width:2px"/><line x1="103.79" y1="90.83" x2="120.3" y2="100.35" style="fill:none;stroke:#a8c628;stroke-linecap:round;stroke-linejoin:round;stroke-width:2px"/><line x1="103.79" y1="100.49" x2="123.49" y2="111.86" style="fill:none;stroke:#a8c628;stroke-linecap:round;stroke-linejoin:round;stroke-width:2px"/><line x1="103.79" y1="55.88" x2="120.3" y2="65.41" style="fill:none;stroke:#a8c628;stroke-linecap:round;stroke-linejoin:round;stroke-width:2px"/><polygon points="149.07 64.76 149.07 171.78 239.81 224.12 239.81 117.1 149.07 64.76" style="fill:#00b6e8"/><polygon points="146.17 86.09 169.59 99.61 169.59 84.23 146.17 70.71 146.17 86.09" style="fill:none;stroke:#b6e8fb;stroke-linecap:round;stroke-linejoin:round;stroke-width:1.02477262470557px"/><path d="M397.58,232.19l-16.22,5.31L365.15,215c-6-8.27-9.3-17.05-9.3-24.36V158.76l51,27.12v31.84C406.89,225,403.53,230.24,397.58,232.19Z" transform="translate(-191.82 -51.97)" style="fill:#b6e8fb"/><path d="M381.36,213.92h0c3.62,1.92,7,2.32,9.59,1.12s4-3.86,4-7.48a22.18,22.18,0,0,0-4-11.7,27,27,0,0,0-9.59-9.06h0c-3.62-1.92-7-2.32-9.59-1.12s-4,3.86-4,7.48a22.18,22.18,0,0,0,4,11.7A27,27,0,0,0,381.36,213.92Z" transform="translate(-191.82 -51.97)" style="fill:#00406b"/><polygon points="202.04 143.59 186.78 149.89 182.32 143.05 180.22 144.23 186.02 153.19 187.53 153.99 204.17 146.97 202.04 143.59" style="fill:#a8c628"/><polygon points="139.79 88.09 163.21 101.61 163.21 86.23 139.79 72.71 139.79 88.09" style="fill:#9e79bb"/></g><g id="files"><path d="M423.82,307.56c0-1.37,1.11-1.87,2.47-1.14a4.89,4.89,0,0,1,2.47,3.81c0,1.37-1.11,1.87-2.47,1.14A4.89,4.89,0,0,1,423.82,307.56Z" transform="translate(-191.82 -51.97)" style="fill:#00b6e8"/><path d="M493.4,267.51V196.77a.68.68,0,0,0-1-.59l-67.93,39a1.26,1.26,0,0,0-.63,1.09v71.44l4.94,2.51,66-36.65Z" transform="translate(-191.82 -51.97)" style="fill:#d5d9dc"/><polygon points="301.94 218.42 232.37 257.87 232.37 191.52 301.94 152.06 301.94 218.42" style="fill:#d5d9dc;stroke:#fff;stroke-miterlimit:10;stroke-width:0.919176897718899px"/><polygon points="303.54 219.33 233.98 258.78 233.98 192.43 303.54 152.98 303.54 219.33" style="fill:#d5d9dc;stroke:#fff;stroke-miterlimit:10;stroke-width:0.919176897718899px"/><polygon points="304.74 220.12 235.18 259.57 235.18 193.22 304.74 153.77 304.74 220.12" style="fill:#fff"/><path d="M452.16,236.22v-6.93a.68.68,0,0,0-1-.59l-21.75,12.56a1.26,1.26,0,0,0-.63,1.09V310.2l-.63,1.34,66.61-38a7.15,7.15,0,0,0,3.61-6.21V210.74a.68.68,0,0,0-1-.59Z" transform="translate(-191.82 -51.97)" style="fill:#d5d9dc"/><path d="M433.87,322c0-1.37,1.11-1.87,2.47-1.14a4.89,4.89,0,0,1,2.47,3.81c0,1.37-1.11,1.87-2.47,1.14A4.89,4.89,0,0,1,433.87,322Z" transform="translate(-191.82 -51.97)" style="fill:#00b6e8"/><path d="M503.46,282V211.24a.68.68,0,0,0-1-.59l-67.93,39a1.26,1.26,0,0,0-.63,1.09v71.44l4.94,2.51,66-36.65Z" transform="translate(-191.82 -51.97)" style="fill:#b6e8fb"/><polygon points="312.43 232.9 242.06 272.35 242.06 206 312.43 166.54 312.43 232.9" style="fill:#d5d9dc;stroke:#fff;stroke-miterlimit:10;stroke-width:0.919176897718899px"/><polygon points="314.01 233.79 243.89 273.24 243.89 206.89 314.01 167.44 314.01 233.79" style="fill:#d5d9dc;stroke:#fff;stroke-miterlimit:10;stroke-width:0.919176897718899px"/><polygon points="314.8 234.58 245.24 274.04 245.24 207.68 314.8 168.23 314.8 234.58" style="fill:#fff"/><path d="M462.22,250.68v-6.93a.68.68,0,0,0-1-.59l-21.75,12.56a1.26,1.26,0,0,0-.63,1.09v67.85l-.63,1.34,66.61-38a7.15,7.15,0,0,0,3.61-6.21V225.2a.68.68,0,0,0-1-.59Z" transform="translate(-191.82 -51.97)" style="fill:#b6e8fb"/><line x1="292.6" y1="205.81" x2="271.59" y2="217.94" style="fill:none;stroke:#a8c628;stroke-linecap:round;stroke-linejoin:round;stroke-width:2.31909686583643px"/><line x1="289.96" y1="215.22" x2="271.59" y2="225.82" style="fill:none;stroke:#a8c628;stroke-linecap:round;stroke-linejoin:round;stroke-width:2.31909686583643px"/><line x1="292.6" y1="221.58" x2="271.71" y2="233.64" style="fill:none;stroke:#a8c628;stroke-linecap:round;stroke-linejoin:round;stroke-width:2.31909686583643px"/><line x1="288.53" y1="231.82" x2="271.59" y2="241.6" style="fill:none;stroke:#a8c628;stroke-linecap:round;stroke-linejoin:round;stroke-width:2.31909686583643px"/></g><g id="currency"><path d="M351.38,262.4v2.69c0,2.79-1.84,5.58-5.5,7.7-7.37,4.28-19.36,4.28-26.78,0-3.73-2.16-5.6-5-5.59-7.81V262.3c0,2.83,1.86,5.66,5.59,7.81,7.42,4.29,19.41,4.28,26.78,0,3.66-2.13,5.5-4.91,5.5-7.7" transform="translate(-191.82 -51.97)" style="fill:#949799"/><path d="M345.79,254.59c7.42,4.29,7.46,11.23.09,15.52s-19.36,4.28-26.78,0-7.46-11.23-.09-15.51S338.37,250.31,345.79,254.59Zm-25.17,14.63c6.57,3.79,17.19,3.79,23.72,0s6.5-9.94-.08-13.74-17.19-3.79-23.72,0-6.49,9.94.08,13.74" transform="translate(-191.82 -51.97)" style="fill:#d5d9dc"/><path d="M351.93,259.1v2.69c0,2.79-1.84,5.58-5.5,7.7-7.37,4.28-19.36,4.28-26.78,0-3.73-2.16-5.6-5-5.59-7.81V259c0,2.83,1.86,5.66,5.59,7.81,7.42,4.29,19.41,4.28,26.78,0,3.66-2.13,5.5-4.91,5.5-7.7" transform="translate(-191.82 -51.97)" style="fill:#949799"/><path d="M346.34,251.29c7.42,4.29,7.46,11.23.09,15.52s-19.36,4.28-26.78,0-7.46-11.23-.09-15.51S338.92,247,346.34,251.29Zm-25.17,14.63c6.57,3.79,17.19,3.79,23.72,0s6.5-9.94-.08-13.74-17.19-3.79-23.72,0-6.49,9.94.08,13.74" transform="translate(-191.82 -51.97)" style="fill:#d5d9dc"/><path d="M344.81,252.18c6.57,3.79,6.61,9.94.08,13.74s-17.15,3.79-23.72,0-6.61-9.94-.08-13.74S338.24,248.38,344.81,252.18ZM324,264.24c5,2.87,13,2.87,17.94,0s4.91-7.52-.06-10.39-13-2.87-17.94,0-4.91,7.52.06,10.39" transform="translate(-191.82 -51.97)" style="fill:#d5d9dc"/><path d="M349.18,255v2.69c0,2.79-1.84,5.58-5.5,7.7-7.37,4.28-19.36,4.28-26.78,0-3.73-2.16-5.6-5-5.59-7.81v-2.69c0,2.83,1.86,5.66,5.59,7.81,7.42,4.29,19.41,4.28,26.78,0,3.66-2.13,5.5-4.91,5.5-7.7" transform="translate(-191.82 -51.97)" style="fill:#949799"/><path d="M343.58,247.16c7.42,4.29,7.46,11.23.09,15.52s-19.36,4.28-26.78,0-7.46-11.23-.09-15.51S336.17,242.88,343.58,247.16Zm-25.17,14.63c6.57,3.79,17.19,3.79,23.72,0s6.5-9.94-.08-13.74-17.19-3.79-23.72,0-6.49,9.94.08,13.74m0,0c6.57,3.79,17.19,3.79,23.72,0s6.5-9.94-.08-13.74-17.19-3.79-23.72,0-6.49,9.94.08,13.74" transform="translate(-191.82 -51.97)" style="fill:#d5d9dc"/><path d="M341.93,247c5,2.87,5,7.52.06,10.39s-13,2.87-17.94,0-5-7.52-.06-10.39S337,244.1,341.93,247Z" transform="translate(-191.82 -51.97)" style="fill:#d5d9dc"/><path d="M344.81,245.3c6.57,3.79,6.61,9.94.08,13.74s-17.15,3.79-23.72,0-6.61-9.94-.08-13.74S338.24,241.5,344.81,245.3ZM324,257.36c5,2.87,13,2.87,17.94,0s4.91-7.52-.06-10.39-13-2.87-17.94,0-4.91,7.52.06,10.39" transform="translate(-191.82 -51.97)" style="fill:#d5d9dc;stroke:#bcbfc2;stroke-miterlimit:10"/><path d="M351.93,252.22v2.69c0,2.79-1.84,5.58-5.5,7.7-7.37,4.28-19.36,4.28-26.78,0-3.73-2.16-5.6-5-5.59-7.81v-2.69c0,2.83,1.86,5.66,5.59,7.81,7.42,4.29,19.41,4.28,26.78,0,3.66-2.13,5.5-4.91,5.5-7.7" transform="translate(-191.82 -51.97)" style="fill:#949799"/><path d="M346.34,244.41c7.42,4.29,7.46,11.23.09,15.52s-19.36,4.28-26.78,0-7.46-11.23-.09-15.51S338.92,240.13,346.34,244.41ZM321.17,259c6.57,3.79,17.19,3.79,23.72,0s6.5-9.94-.08-13.74-17.19-3.79-23.72,0-6.49,9.94.08,13.74" transform="translate(-191.82 -51.97)" style="fill:#d5d9dc"/></g><g id="rightRoadBlock"><polygon points="159.02 245.04 159.21 245.15 159.02 245.04 160.98 235.99 161.77 236.43 159.82 245.41 159.79 245.48 159.21 245.15 159.02 245.04" style="fill:#006c8a"/><polygon points="194.99 217.25 194.99 217.25 194.99 217.25 194.99 217.25" style="fill:none;stroke:#00b6e8;stroke-miterlimit:10;stroke-width:0.25px"/><polygon points="180.07 224.97 180.85 225.42 180.88 225.4 188.21 221.17 187.42 220.72 181.44 224.17 180.07 224.97" style="fill:#949799"/><polygon points="172.5 229.34 173.29 229.78 173.3 229.77 180.85 225.42 180.07 224.97 173.87 228.55 172.5 229.34" style="fill:#006c8a"/><polygon points="187.42 220.72 188.21 221.17 188.23 221.16 194.98 217.26 194.2 216.8 188.79 219.93 187.42 220.72" style="fill:#006c8a"/><polygon points="163.96 234.27 164.74 234.72 164.75 234.72 173.29 229.78 172.5 229.34 165.29 233.5 163.96 234.27" style="fill:#949799"/><polygon points="160.98 235.99 161.77 236.43 164.73 234.72 164.74 234.72 163.96 234.27 160.98 235.99" style="fill:#006c8a"/><polygon points="194.2 216.8 194.98 217.26 199.42 214.69 199.42 214.69 198.64 214.24 195.55 216.03 194.2 216.8" style="fill:#949799"/><polygon points="173.29 229.78 173.3 229.79 173.3 229.77 173.29 229.78" style="fill:none;stroke:#00b6e8;stroke-miterlimit:10;stroke-width:0.25px"/><polygon points="195.63 224.8 197.46 223.75 198.67 218.19 195.63 224.8" style="fill:none;stroke:#00b6e8;stroke-miterlimit:10;stroke-width:0.25px"/><path d="M351.64,297.38l4.91-10.69-3,1.71Z" transform="translate(-191.82 -51.97)" style="fill:#00b6e8"/><polygon points="168.35 240.55 175.93 236.18 180.87 225.42 180.85 225.42 173.3 229.77 173.3 229.79 168.35 240.55" style="fill:#00b6e8"/><polygon points="168.35 240.55 173.3 229.79 173.29 229.78 164.75 234.72 164.74 234.72 164.73 234.72 159.82 245.41 168.35 240.55" style="fill:#bcbfc2"/><polygon points="175.93 236.18 183.28 231.94 188.22 221.17 188.21 221.17 180.88 225.4 180.87 225.42 175.93 236.18" style="fill:#bcbfc2"/><polygon points="190.04 228.03 195.63 224.8 198.67 218.19 199.42 214.69 194.98 217.26 190.04 228.03" style="fill:#bcbfc2"/><polygon points="183.28 231.94 190.04 228.03 194.98 217.26 188.23 221.16 188.22 221.17 183.28 231.94" style="fill:#00b6e8"/><polygon points="180.85 225.42 180.87 225.42 180.88 225.4 180.85 225.42" style="fill:none;stroke:#00b6e8;stroke-miterlimit:10;stroke-width:0.25px"/><polygon points="188.21 221.17 188.22 221.17 188.23 221.16 188.21 221.17" style="fill:none;stroke:#00b6e8;stroke-miterlimit:10;stroke-width:0.25px"/><polygon points="168.7 231.93 166.04 233.46 165.96 233.51 164.81 232.89 167.56 231.28 168.7 231.93" style="fill:#d5d9dc"/><polygon points="168.7 231.93 161.54 264.23 159.1 265.55 165.97 233.5 168.7 231.93" style="fill:#bcbfc2"/><polygon points="159.1 265.55 157.89 264.88 164.82 232.89 165.97 233.51 159.1 265.55" style="fill:#949799"/><polygon points="161.28 258.79 161.28 258.79 161.28 258.79 161.28 258.79" style="fill:none;stroke:#a8c628;stroke-miterlimit:10;stroke-width:0.25px"/><polygon points="161.28 258.79 174.66 266.38 174.49 265.4 162.06 258.35 161.28 258.79" style="fill:#d5d9dc"/><polygon points="160.87 260.71 175.09 268.77 174.66 266.38 161.28 258.79 161.28 258.79 160.87 260.71" style="fill:#949799"/><polygon points="166.05 233.5 166.94 232.98 168.73 231.95 169.99 232.67 167.24 234.25 167.16 234.21 166.06 233.58 165.98 233.53 166.05 233.5" style="fill:#d5d9dc"/><polygon points="165.98 233.53 173.11 273 174.21 273.62 167.24 234.25 165.98 233.53" style="fill:#949799"/><polygon points="174.21 273.62 177.03 271.99 170.63 236.17 170 232.67 169.99 232.67 167.24 234.25 174.21 273.62" style="fill:#bcbfc2"/><polygon points="202.21 212.57 199.55 214.11 199.47 214.15 198.32 213.53 201.07 211.93 202.21 212.57" style="fill:#d5d9dc"/><polygon points="202.21 212.57 195.05 244.88 192.62 246.19 199.48 214.15 202.21 212.57" style="fill:#bcbfc2"/><polygon points="192.62 246.2 192.62 246.2 192.62 246.2 192.62 246.2" style="fill:none;stroke:red;stroke-miterlimit:10;stroke-width:0.25px"/><polygon points="192.62 246.19 191.41 245.53 198.33 213.53 199.48 214.16 192.62 246.19" style="fill:#949799"/><polygon points="199.56 214.14 200.45 213.63 202.24 212.59 203.5 213.31 200.75 214.9 200.67 214.85 199.57 214.23 199.49 214.18 199.56 214.14" style="fill:#d5d9dc"/><polygon points="199.49 214.18 206.62 253.65 207.72 254.26 200.75 214.9 199.49 214.18" style="fill:#949799"/><polygon points="207.72 254.26 210.54 252.64 204.14 216.82 203.51 213.32 203.5 213.31 200.75 214.9 207.72 254.26" style="fill:#bcbfc2"/><path d="M356.67,283.16a1.81,1.81,0,0,0,.74,1.28h0l.07,0,.71.4a1.36,1.36,0,0,1-.29-.28,2.16,2.16,0,0,1-.4-1,4.42,4.42,0,0,1,1.52-4,1.69,1.69,0,0,1,1.17-.38,1.16,1.16,0,0,1,.38.11l-.68-.39h0l-.16-.09h0a1.5,1.5,0,0,0-1.55.28A4.42,4.42,0,0,0,356.67,283.16Z" transform="translate(-191.82 -51.97)" style="fill:#949799"/><path d="M357.51,283.64a2.16,2.16,0,0,0,.4,1,1.36,1.36,0,0,0,.29.28h0l.18.1h0a1.51,1.51,0,0,0,1.53-.29,4.42,4.42,0,0,0,1.52-4,1.83,1.83,0,0,0-.72-1.26h0l-.05,0-.07,0h0a1.16,1.16,0,0,0-.38-.11,1.69,1.69,0,0,0-1.17.38A4.42,4.42,0,0,0,357.51,283.64Zm.75-.56a2.72,2.72,0,0,1,.93-2.45.85.85,0,0,1,1.44.47h0a1.49,1.49,0,0,1,0,.19,2.72,2.72,0,0,1-.93,2.45,1.3,1.3,0,0,1-.32.18h0C358.89,284.12,358.4,283.8,358.27,283.08Z" transform="translate(-191.82 -51.97)" style="fill:#bcbfc2"/><path d="M358.27,283.08c.13.72.62,1,1.17.83h0a1.3,1.3,0,0,0,.32-.18,2.72,2.72,0,0,0,.93-2.45,1.49,1.49,0,0,0,0-.19h0a.85.85,0,0,0-1.44-.47A2.72,2.72,0,0,0,358.27,283.08Z" transform="translate(-191.82 -51.97)" style="fill:#9e79bb"/><path d="M389.75,263.78a1.81,1.81,0,0,0,.74,1.28h0l.07,0,.71.4a1.36,1.36,0,0,1-.29-.28,2.16,2.16,0,0,1-.4-1,4.42,4.42,0,0,1,1.52-4,1.69,1.69,0,0,1,1.17-.38,1.16,1.16,0,0,1,.38.11l-.68-.39h0l-.16-.09h0a1.5,1.5,0,0,0-1.55.28A4.42,4.42,0,0,0,389.75,263.78Z" transform="translate(-191.82 -51.97)" style="fill:#949799"/><path d="M390.59,264.26a2.16,2.16,0,0,0,.4,1,1.36,1.36,0,0,0,.29.28h0l.18.1h0a1.51,1.51,0,0,0,1.53-.29,4.42,4.42,0,0,0,1.52-4,1.83,1.83,0,0,0-.72-1.26h0l-.05,0-.07,0h0a1.16,1.16,0,0,0-.38-.11,1.69,1.69,0,0,0-1.17.38A4.42,4.42,0,0,0,390.59,264.26Zm.75-.56a2.72,2.72,0,0,1,.93-2.45.85.85,0,0,1,1.44.47h0a1.49,1.49,0,0,1,0,.19,2.72,2.72,0,0,1-.93,2.45,1.3,1.3,0,0,1-.32.18h0C392,264.74,391.47,264.42,391.35,263.7Z" transform="translate(-191.82 -51.97)" style="fill:#bcbfc2"/><path d="M391.35,263.7c.13.72.62,1,1.17.83h0a1.3,1.3,0,0,0,.32-.18,2.72,2.72,0,0,0,.93-2.45,1.49,1.49,0,0,0,0-.19h0a.85.85,0,0,0-1.44-.47A2.72,2.72,0,0,0,391.35,263.7Z" transform="translate(-191.82 -51.97)" style="fill:#9e79bb"/><polygon points="190.97 223.59 191.95 224.15 191.97 224.16 199.21 219.97 199.21 219.97 198.22 219.41 192.11 222.93 190.97 223.59" style="fill:#006c8a"/><polygon points="198.22 219.41 199.21 219.97 199.21 219.97 199.22 219.97 207.29 215.31 206.29 214.74 199.37 218.74 198.22 219.41" style="fill:#949799"/><polygon points="165.06 238.55 165.07 238.57 166.04 239.12 169.7 237.01 168.71 236.45 165.06 238.55" style="fill:#006c8a"/><polygon points="182.69 228.38 183.68 228.94 183.69 228.94 191.96 224.16 191.96 224.15 190.97 223.59 182.69 228.38" style="fill:#949799"/><polygon points="168.71 236.45 169.7 237.01 169.71 237.01 176.48 233.1 175.49 232.53 169.86 235.78 168.71 236.45" style="fill:#949799"/><polygon points="175.49 232.53 176.48 233.1 176.49 233.1 183.68 228.94 182.69 228.38 176.64 231.87 175.49 232.53" style="fill:#006c8a"/><polygon points="191.96 224.15 191.96 224.16 191.97 224.16 191.96 224.15" style="fill:none;stroke:#a8c628;stroke-miterlimit:10;stroke-width:0.25px"/><polygon points="167.98 249.97 167.95 249.99 167.01 249.46 165.07 238.57 166.04 239.12 167.98 249.97" style="fill:#006c8a"/><polygon points="174.84 246.01 182.05 241.85 182.71 236.63 183.69 228.94 183.68 228.94 176.49 233.1 176.49 233.1 175.56 240.34 174.84 246.01" style="fill:#00b6e8"/><polygon points="182.05 241.85 190.31 237.07 190.83 232.99 191.96 224.16 183.69 228.94 183.69 228.94 182.71 236.63 182.05 241.85" style="fill:#d5d9dc"/><polygon points="176.48 233.1 176.49 233.1 176.49 233.1 176.48 233.1" style="fill:none;stroke:#a8c628;stroke-miterlimit:10;stroke-width:0.25px"/><polygon points="183.68 228.94 183.69 228.94 183.69 228.94 183.68 228.94" style="fill:none;stroke:#a8c628;stroke-miterlimit:10;stroke-width:0.25px"/><polygon points="205.65 228.21 209.23 226.15 207.29 215.32 205.65 228.21" style="fill:#00b6e8"/><polygon points="190.31 237.07 197.57 232.88 198.23 227.71 199.21 219.98 191.97 224.16 191.96 224.16 190.83 232.99 190.31 237.07" style="fill:#00b6e8"/><polygon points="169.7 237.01 169.71 237.02 169.71 237.01 169.7 237.01" style="fill:none;stroke:#a8c628;stroke-miterlimit:10;stroke-width:0.25px"/><path d="M357.86,291.09l1.94,10.85.08,0,1.65-12.9h0Z" transform="translate(-191.82 -51.97)" style="fill:#00b6e8"/><polygon points="168.06 249.92 174.84 246.01 175.56 240.34 176.49 233.1 176.48 233.1 169.71 237.01 169.71 237.02 168.06 249.92" style="fill:#d5d9dc"/><polygon points="197.57 232.88 205.65 228.21 207.29 215.31 207.29 215.31 207.29 215.31 199.22 219.97 199.21 219.97 198.22 227.71 197.57 232.88" style="fill:#d5d9dc"/><polygon points="166.04 239.13 166.04 239.13 166.04 239.13 166.04 239.13" style="fill:none;stroke:#a8c628;stroke-miterlimit:10;stroke-width:0.25px"/></g><g id="leftRoadBlock"><polygon points="125.37 232.66 125.18 232.77 125.37 232.66 123.41 223.61 122.62 224.06 124.57 233.04 124.6 233.1 125.18 232.77 125.37 232.66" style="fill:#006c8a"/><polygon points="89.4 204.88 89.41 204.88 89.4 204.88 89.4 204.88" style="fill:none;stroke:#00b6e8;stroke-miterlimit:10;stroke-width:0.25px"/><polygon points="104.32 212.59 103.54 213.04 103.52 213.03 96.18 208.79 96.97 208.35 102.95 211.8 104.32 212.59" style="fill:#949799"/><polygon points="111.89 216.96 111.11 217.41 111.09 217.4 103.54 213.04 104.32 212.59 110.52 216.17 111.89 216.96" style="fill:#006c8a"/><polygon points="96.97 208.35 96.18 208.79 96.16 208.78 89.41 204.88 90.19 204.43 95.6 207.56 96.97 208.35" style="fill:#006c8a"/><polygon points="120.44 221.9 119.65 222.34 119.64 222.34 111.11 217.41 111.89 216.96 119.1 221.12 120.44 221.9" style="fill:#949799"/><polygon points="123.41 223.61 122.62 224.06 119.66 222.35 119.65 222.34 120.44 221.9 123.41 223.61" style="fill:#006c8a"/><polygon points="90.19 204.43 89.41 204.88 84.97 202.32 84.97 202.31 85.75 201.87 88.84 203.65 90.19 204.43" style="fill:#949799"/><polygon points="111.11 217.41 111.09 217.41 111.09 217.4 111.11 217.41" style="fill:none;stroke:#00b6e8;stroke-miterlimit:10;stroke-width:0.25px"/><polygon points="88.77 212.43 86.93 211.37 85.72 205.81 88.77 212.43" style="fill:none;stroke:#00b6e8;stroke-miterlimit:10;stroke-width:0.25px"/><path d="M314.44,276l-3-1.71L316.38,285Z" transform="translate(-191.82 -51.97)" style="fill:#00b6e8"/><polygon points="116.04 228.18 108.46 223.8 103.52 213.05 103.54 213.04 111.09 217.4 111.09 217.41 116.04 228.18" style="fill:#00b6e8"/><polygon points="116.04 228.18 111.09 217.41 111.11 217.41 119.64 222.34 119.65 222.34 119.66 222.35 124.57 233.04 116.04 228.18" style="fill:#bcbfc2"/><polygon points="108.46 223.8 101.11 219.56 96.17 208.8 96.18 208.79 103.52 213.03 103.52 213.05 108.46 223.8" style="fill:#bcbfc2"/><polygon points="94.35 215.66 88.77 212.43 85.72 205.81 84.97 202.32 89.41 204.88 94.35 215.66" style="fill:#bcbfc2"/><polygon points="101.11 219.56 94.35 215.66 89.41 204.88 96.16 208.78 96.17 208.8 101.11 219.56" style="fill:#00b6e8"/><polygon points="103.54 213.04 103.52 213.05 103.52 213.03 103.54 213.04" style="fill:none;stroke:#00b6e8;stroke-miterlimit:10;stroke-width:0.25px"/><polygon points="96.18 208.79 96.17 208.8 96.16 208.78 96.18 208.79" style="fill:none;stroke:#00b6e8;stroke-miterlimit:10;stroke-width:0.25px"/><polygon points="115.69 219.55 118.35 221.09 118.43 221.13 119.58 220.52 116.83 218.91 115.69 219.55" style="fill:#d5d9dc"/><polygon points="115.69 219.55 122.85 251.86 125.29 253.17 118.42 221.13 115.69 219.55" style="fill:#bcbfc2"/><polygon points="125.29 253.17 126.5 252.51 119.57 220.52 118.42 221.14 125.29 253.17" style="fill:#949799"/><polygon points="123.11 246.42 123.11 246.41 123.11 246.42 123.11 246.42" style="fill:none;stroke:#a8c628;stroke-miterlimit:10;stroke-width:0.25px"/><polygon points="123.11 246.41 109.73 254.01 109.9 253.03 122.33 245.97 123.11 246.41" style="fill:#d5d9dc"/><polygon points="123.52 248.33 109.3 256.4 109.73 254.01 123.11 246.41 123.11 246.42 123.52 248.33" style="fill:#949799"/><polygon points="118.34 221.12 117.45 220.61 115.66 219.57 114.4 220.29 117.15 221.88 117.23 221.83 118.33 221.21 118.41 221.16 118.34 221.12" style="fill:#d5d9dc"/><polygon points="118.41 221.16 111.28 260.63 110.18 261.25 117.15 221.88 118.41 221.16" style="fill:#949799"/><polygon points="110.18 261.25 107.36 259.62 113.76 223.8 114.39 220.3 114.4 220.29 117.15 221.88 110.18 261.25" style="fill:#bcbfc2"/><polygon points="82.18 200.2 84.84 201.73 84.92 201.78 86.06 201.16 83.32 199.55 82.18 200.2" style="fill:#d5d9dc"/><polygon points="82.18 200.2 89.34 232.5 91.78 233.82 84.91 201.77 82.18 200.2" style="fill:#bcbfc2"/><polygon points="91.78 233.82 91.78 233.82 91.78 233.82 91.78 233.82" style="fill:none;stroke:red;stroke-miterlimit:10;stroke-width:0.25px"/><polygon points="91.78 233.82 92.98 233.15 86.06 201.16 84.91 201.78 91.78 233.82" style="fill:#949799"/><polygon points="84.83 201.77 83.94 201.25 82.15 200.22 80.89 200.94 83.64 202.52 83.72 202.47 84.82 201.85 84.9 201.8 84.83 201.77" style="fill:#d5d9dc"/><polygon points="84.9 201.8 77.77 241.27 76.67 241.89 83.64 202.52 84.9 201.8" style="fill:#949799"/><polygon points="76.67 241.89 73.85 240.26 80.25 204.44 80.88 200.94 80.89 200.94 83.64 202.52 76.67 241.89" style="fill:#bcbfc2"/><path d="M311.35,270.78a1.81,1.81,0,0,1-.74,1.28h0l-.07,0-.71.4a1.36,1.36,0,0,0,.29-.28,2.16,2.16,0,0,0,.4-1,4.42,4.42,0,0,0-1.52-4,1.69,1.69,0,0,0-1.17-.38,1.16,1.16,0,0,0-.38.11l.68-.39h0l.16-.09h0a1.5,1.5,0,0,1,1.55.28A4.42,4.42,0,0,1,311.35,270.78Z" transform="translate(-191.82 -51.97)" style="fill:#949799"/><path d="M309,267.29a1.69,1.69,0,0,0-1.17-.38,1.16,1.16,0,0,0-.38.11h0l-.07,0-.05,0h0a1.83,1.83,0,0,0-.72,1.26,4.42,4.42,0,0,0,1.52,4,1.51,1.51,0,0,0,1.53.29h0l.18-.1h0a1.36,1.36,0,0,0,.29-.28,2.16,2.16,0,0,0,.4-1A4.42,4.42,0,0,0,309,267.29Zm-.4,4.25h0a1.3,1.3,0,0,1-.32-.18,2.72,2.72,0,0,1-.93-2.45,1.49,1.49,0,0,1,0-.19h0a.85.85,0,0,1,1.44-.47,2.72,2.72,0,0,1,.93,2.45C309.63,271.42,309.14,271.75,308.59,271.54Z" transform="translate(-191.82 -51.97)" style="fill:#bcbfc2"/><path d="M309.75,270.7c-.13.72-.62,1-1.17.83h0a1.3,1.3,0,0,1-.32-.18,2.72,2.72,0,0,1-.93-2.45,1.49,1.49,0,0,1,0-.19h0a.85.85,0,0,1,1.44-.47A2.72,2.72,0,0,1,309.75,270.7Z" transform="translate(-191.82 -51.97)" style="fill:#9e79bb"/><path d="M278.27,251.41a1.81,1.81,0,0,1-.74,1.28h0l-.07,0-.71.4a1.36,1.36,0,0,0,.29-.28,2.16,2.16,0,0,0,.4-1,4.42,4.42,0,0,0-1.52-4,1.69,1.69,0,0,0-1.17-.38,1.16,1.16,0,0,0-.38.11l.68-.39h0l.16-.09h0a1.5,1.5,0,0,1,1.55.28A4.42,4.42,0,0,1,278.27,251.41Z" transform="translate(-191.82 -51.97)" style="fill:#949799"/><path d="M275.91,247.91a1.69,1.69,0,0,0-1.17-.38,1.16,1.16,0,0,0-.38.11h0l-.07,0-.05,0h0a1.83,1.83,0,0,0-.72,1.26,4.42,4.42,0,0,0,1.52,4,1.51,1.51,0,0,0,1.53.29h0l.18-.1h0a1.36,1.36,0,0,0,.29-.28,2.16,2.16,0,0,0,.4-1A4.42,4.42,0,0,0,275.91,247.91Zm-.4,4.25h0a1.3,1.3,0,0,1-.32-.18,2.72,2.72,0,0,1-.93-2.45,1.49,1.49,0,0,1,0-.19h0a.85.85,0,0,1,1.44-.47,2.72,2.72,0,0,1,.93,2.45C276.55,252,276.06,252.37,275.51,252.16Z" transform="translate(-191.82 -51.97)" style="fill:#bcbfc2"/><path d="M276.68,251.33c-.13.72-.62,1-1.17.83h0a1.3,1.3,0,0,1-.32-.18,2.72,2.72,0,0,1-.93-2.45,1.49,1.49,0,0,1,0-.19h0a.85.85,0,0,1,1.44-.47A2.72,2.72,0,0,1,276.68,251.33Z" transform="translate(-191.82 -51.97)" style="fill:#9e79bb"/><polygon points="93.42 211.22 92.44 211.78 92.43 211.78 85.18 207.6 85.18 207.59 86.17 207.03 92.28 210.56 93.42 211.22" style="fill:#006c8a"/><polygon points="86.17 207.03 85.18 207.59 85.18 207.6 85.17 207.6 77.11 202.93 78.1 202.37 85.02 206.37 86.17 207.03" style="fill:#949799"/><polygon points="119.33 226.18 119.32 226.2 118.35 226.75 114.69 224.64 115.68 224.07 119.33 226.18" style="fill:#006c8a"/><polygon points="101.7 216 100.71 216.56 100.7 216.56 92.44 211.79 92.44 211.78 93.42 211.22 101.7 216" style="fill:#949799"/><polygon points="115.68 224.07 114.69 224.64 114.69 224.63 107.91 220.72 108.9 220.16 114.53 223.41 115.68 224.07" style="fill:#949799"/><polygon points="108.9 220.16 107.91 220.72 107.91 220.72 100.71 216.56 101.7 216 107.75 219.49 108.9 220.16" style="fill:#006c8a"/><polygon points="92.44 211.78 92.44 211.79 92.42 211.78 92.44 211.78" style="fill:none;stroke:#a8c628;stroke-miterlimit:10;stroke-width:0.25px"/><polygon points="116.41 237.59 116.44 237.61 117.38 237.08 119.32 226.2 118.35 226.75 116.41 237.59" style="fill:#006c8a"/><polygon points="109.55 233.63 102.34 229.47 101.68 224.26 100.7 216.57 100.71 216.56 107.91 220.72 107.91 220.73 108.83 227.97 109.55 233.63" style="fill:#00b6e8"/><polygon points="102.34 229.47 94.08 224.7 93.56 220.62 92.44 211.79 100.7 216.56 100.7 216.57 101.68 224.26 102.34 229.47" style="fill:#d5d9dc"/><polygon points="107.91 220.72 107.91 220.73 107.91 220.72 107.91 220.72" style="fill:none;stroke:#a8c628;stroke-miterlimit:10;stroke-width:0.25px"/><polygon points="100.71 216.56 100.7 216.57 100.7 216.56 100.71 216.56" style="fill:none;stroke:#a8c628;stroke-miterlimit:10;stroke-width:0.25px"/><polygon points="78.74 215.84 75.16 213.77 77.1 202.94 78.74 215.84" style="fill:#00b6e8"/><polygon points="94.08 224.7 86.83 220.51 86.17 215.33 85.18 207.6 92.42 211.78 92.44 211.79 93.56 220.62 94.08 224.7" style="fill:#00b6e8"/><polygon points="114.69 224.64 114.69 224.65 114.69 224.63 114.69 224.64" style="fill:none;stroke:#a8c628;stroke-miterlimit:10;stroke-width:0.25px"/><path d="M306.51,276.61h0l1.65,12.9.08,0,1.94-10.85Z" transform="translate(-191.82 -51.97)" style="fill:#00b6e8"/><polygon points="116.33 237.55 109.55 233.63 108.83 227.97 107.91 220.73 107.91 220.72 114.69 224.63 114.69 224.65 116.33 237.55" style="fill:#d5d9dc"/><polygon points="86.82 220.51 78.74 215.84 77.1 202.94 77.1 202.93 77.11 202.93 85.17 207.6 85.18 207.6 86.17 215.33 86.82 220.51" style="fill:#d5d9dc"/><polygon points="118.35 226.75 118.35 226.75 118.35 226.75 118.35 226.75" style="fill:none;stroke:#a8c628;stroke-miterlimit:10;stroke-width:0.25px"/></g><g id="bank"><polyline points="93.42 59.67 53.2 36.77 53.2 92.18" style="fill:none;stroke:#b6e8fb;stroke-linecap:round;stroke-linejoin:round;stroke-width:1.02477262470557px"/><path d="M194.57,137.55v95.31l38.91,22.47V160Z" transform="translate(-191.82 -51.97)" style="fill:#949799"/><polygon points="85.38 82.81 41.67 108.05 41.67 203.36 85.38 178.12 85.38 82.81" style="fill:#bcbfc2"/><polygon points="45.6 173.97 45.6 193.46 53.23 189.05 53.23 169.56 45.6 173.97" style="fill:#b6e8fb"/><polygon points="45.6 158.82 45.6 169.8 53.23 165.39 53.23 154.42 45.6 158.82" style="fill:#b6e8fb"/><polygon points="72.05 154.52 64.41 158.93 64.41 147.97 72.05 143.56 72.05 154.52" style="fill:#b6e8fb"/><polygon points="55 153.4 55 164.37 62.63 159.96 62.63 148.99 55 153.4" style="fill:#b6e8fb"/><polygon points="73.82 142.53 73.82 153.5 81.45 149.1 81.45 138.12 73.82 142.53" style="fill:#b6e8fb"/><polygon points="45.6 143.69 45.6 154.65 53.23 150.25 53.23 139.28 45.6 143.69" style="fill:#b6e8fb"/><polygon points="72.05 139.38 64.41 143.79 64.41 132.83 72.05 128.42 72.05 139.38" style="fill:#b6e8fb"/><polygon points="55 138.26 55 149.22 62.63 144.82 62.63 133.85 55 138.26" style="fill:#b6e8fb"/><polygon points="73.82 127.4 73.82 138.36 81.45 133.95 81.45 122.99 73.82 127.4" style="fill:#b6e8fb"/><polygon points="45.6 128.55 45.6 139.52 53.23 135.11 53.23 124.14 45.6 128.55" style="fill:#b6e8fb"/><polygon points="64.42 117.68 64.42 128.65 72.05 124.25 72.05 113.28 64.42 117.68" style="fill:#b6e8fb"/><polygon points="55 123.12 55 134.09 62.63 129.68 62.63 118.71 55 123.12" style="fill:#b6e8fb"/><polygon points="81.46 118.81 73.82 123.22 73.82 112.25 81.46 107.85 81.46 118.81" style="fill:#b6e8fb"/><polygon points="45.6 113.28 45.6 124.24 53.23 119.83 53.23 108.87 45.6 113.28" style="fill:#b6e8fb"/><polygon points="64.42 102.42 64.42 113.38 72.05 108.97 72.05 98.01 64.42 102.42" style="fill:#b6e8fb"/><polygon points="55 107.85 55 118.81 62.63 114.41 62.63 103.44 55 107.85" style="fill:#b6e8fb"/><polygon points="73.82 96.99 73.82 107.95 81.45 103.54 81.45 92.58 73.82 96.99" style="fill:#b6e8fb"/><polygon points="65.39 101.85 64.42 104.84 64.42 113.38 69.69 110.33 72.05 103.11 72.05 98.01 65.39 101.85" style="fill:#b6e8fb"/><polygon points="67.96 115.64 64.42 117.68 64.42 126.5 67.96 115.64" style="fill:#b6e8fb"/><polygon points="60.98 115.36 62.63 114.41 62.63 110.29 60.98 115.36" style="fill:#b6e8fb"/><polygon points="59.24 120.67 55 133.67 55 134.09 62.63 129.68 62.63 118.71 59.24 120.67" style="fill:#b6e8fb"/><polygon points="61.87 134.3 55 138.26 55 149.22 57.45 147.81 61.87 134.3" style="fill:#b6e8fb"/><polygon points="55.78 152.94 55 153.4 55 155.33 55.78 152.94" style="fill:#b6e8fb"/><polygon points="48.74 152.84 53.23 150.25 53.23 139.28 53.16 139.33 48.74 152.84" style="fill:#b6e8fb"/><polygon points="45.6 162.48 45.6 169.8 51.37 166.47 53.23 160.76 53.23 154.42 47.07 157.97 45.6 162.48" style="fill:#b6e8fb"/><polygon points="49.69 171.61 45.6 173.97 45.6 183.71 45.77 183.61 49.69 171.61" style="fill:#b6e8fb"/><polygon points="45.6 113.28 45.6 124.24 50 121.7 53.23 111.83 53.23 108.87 45.6 113.28" style="fill:#b6e8fb"/><polygon points="48.27 127 45.6 128.55 45.6 135.2 48.27 127" style="fill:#b6e8fb"/><polygon points="79.22 135.24 81.45 133.95 81.45 128.41 79.22 135.24" style="fill:#b6e8fb"/><polygon points="73.82 151.8 73.82 153.5 81.45 149.1 81.45 138.12 77.54 140.38 73.82 151.8" style="fill:#b6e8fb"/><polygon points="81.45 153.27 73.82 157.68 73.82 177.16 81.45 172.76 81.45 153.27" style="fill:#b6e8fb"/><polygon points="69.99 176.4 64.07 179.82 64.07 190.43 69.99 187.01 69.99 176.4" style="fill:#00b6e8"/><polygon points="57.07 183.87 57.07 194.47 62.99 191.05 62.99 180.45 57.07 183.87" style="fill:#00b6e8"/><polygon points="69.99 164.44 64.07 167.86 64.07 178.78 69.99 175.37 69.99 164.44" style="fill:#00b6e8"/><polygon points="57.07 171.91 57.07 182.83 62.99 179.41 62.99 168.49 57.07 171.91" style="fill:#00b6e8"/><polygon points="69.99 176.4 64.07 179.82 64.07 190.43 69.99 187.01 69.99 176.4" style="fill:#00b6e8"/><polygon points="57.07 183.87 57.07 194.47 62.99 191.05 62.99 180.45 57.07 183.87" style="fill:#00b6e8"/><polygon points="69.99 164.44 64.07 167.86 64.07 178.78 69.99 175.37 69.99 164.44" style="fill:#00b6e8"/><polygon points="57.07 171.91 57.07 182.83 62.99 179.41 62.99 168.49 57.07 171.91" style="fill:#00b6e8"/><path d="M247.26,223.09v24.28l1,.59.6-11.36,5.92-3.42V243l1,.59.06-11.05,5.92-3.42V239l1,.59,1.62-25.22-1-.59Zm8.62,7.66V219.83l5.92-3.42v10.92Zm-7-6.88,5.92-3.42v10.92l-5.92,3.42Z" transform="translate(-191.82 -51.97)" style="fill:#949799"/><path d="M248.28,223.68V248l1.62-.93v-10.6l5.92-3.42v10.6l1.08-.62v-10.6l5.92-3.42v10.6l1.62-.93V214.35Zm8.62,7.66V220.42l5.92-3.42v10.92Zm-7-6.88,5.92-3.42V232l-5.92,3.42Z" transform="translate(-191.82 -51.97)" style="fill:#d5d9dc"/><polygon points="46.63 56.58 0.11 83.45 41.67 107.34 88.19 80.48 46.63 56.58" style="fill:#f2f2f2"/><polygon points="46.18 61.19 8.1 83.18 42.12 102.74 80.2 80.75 46.18 61.19" style="fill:#969696"/><polygon points="46.16 66.89 12.99 86.04 42.15 102.74 75.31 83.59 46.16 66.89" style="fill:#d5d9dc"/><polygon points="46.18 61.19 46.18 66.89 12.99 86.04 8.1 83.18 46.18 61.19" style="fill:#bcbfc2"/><polygon points="32.87 75.87 32.87 70.28 32.87 70.27 39.78 74.35 39.78 79.95 32.87 75.87" style="fill:#969696"/><polygon points="48.28 69.44 48.28 75.04 39.78 79.95 39.78 74.35 48.28 69.44" style="fill:#bcbfc2"/><polygon points="41.37 65.37 48.28 69.44 39.78 74.35 32.87 70.27 41.37 65.37" style="fill:#f2f2f2"/><ellipse cx="27.14" cy="91.1" rx="2.25" ry="1.29" style="fill:#949799"/><rect x="24.89" y="86.17" width="4.5" height="4.93" style="fill:#949799"/><ellipse cx="27.14" cy="86.17" rx="2.25" ry="1.29" style="fill:#f2f2f2"/><polygon points="31.37 155.15 38.16 159.07 38.16 170.04 31.37 166.12 31.37 155.15" style="fill:#00b6e8"/><polygon points="31.37 140.01 38.16 143.94 38.16 154.9 31.37 150.98 31.37 140.01" style="fill:#00b6e8"/><polygon points="23 120.04 29.79 123.96 29.79 134.93 23 131.01 23 120.04" style="fill:#00b6e8"/><polygon points="23 104.77 29.79 108.69 29.79 119.66 23 115.73 23 104.77" style="fill:#00b6e8"/><polygon points="14.62 160.62 21.41 164.55 21.41 175.52 14.62 171.59 14.62 160.62" style="fill:#00b6e8"/><polygon points="14.62 145.48 21.41 149.4 21.41 160.37 14.62 156.45 14.62 145.48" style="fill:#00b6e8"/><polygon points="14.62 130.34 21.41 134.27 21.41 145.23 14.62 141.31 14.62 130.34" style="fill:#00b6e8"/><polygon points="14.62 115.2 21.41 119.12 21.41 130.09 14.62 126.17 14.62 115.2" style="fill:#00b6e8"/><polygon points="6.25 155.79 13.04 159.71 13.04 170.69 6.25 166.76 6.25 155.79" style="fill:#00b6e8"/><polygon points="6.25 140.65 13.04 144.57 13.04 155.54 6.25 151.62 6.25 140.65" style="fill:#00b6e8"/><polygon points="6.25 125.51 13.04 129.44 13.04 140.4 6.25 136.47 6.25 125.51" style="fill:#00b6e8"/><polygon points="6.25 110.37 13.04 114.29 13.04 125.26 6.25 121.34 6.25 110.37" style="fill:#00b6e8"/><polygon points="6.25 140.65 6.25 151.62 13.04 155.54 13.04 144.57 6.25 140.65" style="fill:#00b6e8"/><polygon points="29.79 165.21 23 161.28 23 150.32 29.79 154.25 29.79 165.21" style="fill:#00b6e8"/><polygon points="14.62 145.48 14.62 156.45 21.41 160.37 21.41 149.4 14.62 145.48" style="fill:#00b6e8"/><polygon points="31.37 155.15 31.37 166.12 38.16 170.04 38.16 159.07 31.37 155.15" style="fill:#00b6e8"/><polygon points="29.79 150.07 23 146.15 23 135.18 29.79 139.11 29.79 150.07" style="fill:#00b6e8"/><polygon points="14.62 130.34 14.62 141.31 21.41 145.23 21.41 134.27 14.62 130.34" style="fill:#00b6e8"/><polygon points="14.62 115.2 14.62 126.17 21.41 130.09 21.41 119.12 14.62 115.2" style="fill:#00b6e8"/><polygon points="38.17 139.76 31.38 135.84 31.38 124.88 38.17 128.8 38.17 139.76" style="fill:#00b6e8"/><polygon points="6.25 95.1 6.25 106.06 13.04 109.99 13.04 99.03 6.25 95.1" style="fill:#00b6e8"/><polygon points="23 104.77 23 115.73 29.79 119.66 29.79 108.69 23 104.77" style="fill:#00b6e8"/><polygon points="31.37 109.61 31.37 120.57 38.16 124.49 38.16 113.53 31.37 109.61" style="fill:#00b6e8"/><polygon points="23 120.04 23 131.01 29.79 134.93 29.79 123.96 23 120.04" style="fill:#00b6e8"/><polygon points="14.62 99.94 14.62 110.9 21.41 114.82 21.41 103.86 14.62 99.94" style="fill:#00b6e8"/><polygon points="6.25 125.51 6.25 136.47 13.04 140.4 13.04 129.44 6.25 125.51" style="fill:#00b6e8"/><polygon points="6.25 110.37 6.25 121.34 13.04 125.26 13.04 114.29 6.25 110.37" style="fill:#00b6e8"/><polygon points="31.37 140.01 31.37 150.98 38.16 154.9 38.16 143.94 31.37 140.01" style="fill:#00b6e8"/><polygon points="6.25 155.79 6.25 166.76 13.04 170.69 13.04 159.71 6.25 155.79" style="fill:#00b6e8"/><polygon points="29.79 180.35 23 176.43 23 165.47 29.79 169.39 29.79 180.35" style="fill:#00b6e8"/><polygon points="14.62 160.62 14.62 171.59 21.41 175.52 21.41 164.55 14.62 160.62" style="fill:#00b6e8"/><polygon points="31.37 170.29 31.37 181.26 38.16 185.19 38.16 174.22 31.37 170.29" style="fill:#00b6e8"/><polygon points="41.67 118.02 88.21 91.15 88.21 80.46 41.67 107.34 41.67 118.02" style="fill:#d5d9dc"/><polygon points="41.67 118.02 0 94.07 0 83.39 41.67 107.34 41.67 118.02" style="fill:#bcbfc2"/><polygon points="39.1 171.71 41.4 172.91 87.76 134.67 85.46 133.47 39.1 160.24 39.1 171.71" style="fill:#bcbfc2"/><polygon points="41.4 172.91 87.76 146.14 87.76 134.67 41.4 161.44 41.4 172.91" style="fill:#d5d9dc"/><path d="M244.25,215.93l-.24-.22v-4.8l1.86-1.08c1-.6,1.45-.27,1.45.42a2.35,2.35,0,0,1-.51,1.24c.47-.06.77.24.77.75C247.57,213,245.4,215.27,244.25,215.93Zm.74-3.66.73-.42a1.2,1.2,0,0,0,.69-1c0-.35-.2-.51-.69-.23L245,211Zm.8.22-.8.46v1.51l.8-.46a1.46,1.46,0,0,0,.85-1.25C246.63,212.32,246.39,212.14,245.78,212.49Z" transform="translate(-191.82 -51.97)" style="fill:#949799"/><path d="M253.27,210.36l-.49-.9-1.94,1.12-1.17,2.22-.26-.21,2-6,.76-.44.26.21,1,4.18Zm-1.46-2.77-.71,2.15,1.42-.82Z" transform="translate(-191.82 -51.97)" style="fill:#949799"/><path d="M259.75,206.62l-2.51-1.72-.63,3.87-.24-.2v-4.8l.68-.39,2.51,1.72v-3.17l.87-.5.25.24Z" transform="translate(-191.82 -51.97)" style="fill:#949799"/><path d="M267.56,202.47l-3.57-.56-.73,3-.25-.18v-4.8l1-.56.25.21-.25,2,1.94-3.31,1.06-.61.23.21-2.3,3.27,2.39,1.13Z" transform="translate(-191.82 -51.97)" style="fill:#949799"/><path d="M246.24,214.79l-1.94,1.12v-4.8l1.86-1.08c1-.6,1.45-.27,1.45.42a2.35,2.35,0,0,1-.51,1.24c.47-.06.77.24.77.75A2.83,2.83,0,0,1,246.24,214.79Zm-1-2.31.73-.42a1.2,1.2,0,0,0,.69-1c0-.35-.2-.51-.69-.23l-.73.42Zm.8.22-.8.46v1.51l.8-.46a1.46,1.46,0,0,0,.85-1.25C246.92,212.53,246.68,212.35,246.07,212.7Z" transform="translate(-191.82 -51.97)" style="fill:#bcbfc2"/><path d="M253.56,210.57l-.49-.9-1.94,1.12-.49,1.46-.94.54,2-6,.76-.44,2,3.62Zm-1.45-2.77-.71,2.15,1.42-.82Z" transform="translate(-191.82 -51.97)" style="fill:#bcbfc2"/><path d="M260,206.83l-2.51-1.72v3.17l-.87.5V204l.68-.39,2.51,1.72v-3.17l.87-.5v4.8Z" transform="translate(-191.82 -51.97)" style="fill:#bcbfc2"/><path d="M266.41,203.15l-2.13-1v2.26l-1,.56v-4.8l1-.56v2.19l1.94-3.31,1.06-.61-2.07,3.48,2.39,1.13Z" transform="translate(-191.82 -51.97)" style="fill:#bcbfc2"/></g></svg>