<svg id="logo" xmlns="http://www.w3.org/2000/svg" viewBox="0 0 345.57 107.26"><defs><style>.cls-1{fill:#343438;}</style></defs><title>HTC</title><g id="htc_reg" data-name="htc reg"><path class="cls-1" d="M410.43,180v0a7.45,7.45,0,1,1,14.9,0v0A7.45,7.45,0,1,1,410.43,180Zm13.69,0v0a6.2,6.2,0,0,0-6.25-6.28,6.26,6.26,0,0,0-6.24,6.32v0a6.19,6.19,0,0,0,6.24,6.27A6.26,6.26,0,0,0,424.12,180Zm-9-3.72h3.25c1.58,0,2.75.77,2.75,2.26a2.18,2.18,0,0,1-1.66,2.2l1.91,2.7H419.7l-1.7-2.46h-1.5v2.46h-1.38v-7.17Zm3.12,3.56a1.24,1.24,0,0,0,1.46-1.17,1.2,1.2,0,0,0-1.46-1.17H416.5v2.35h1.74Z" transform="translate(-79.76 -80.18)"/><path class="cls-1" d="M375.1,170.56c-17.06.12-33.2,0.25-37.69-.15-9.1-.79-15.19-6.75-15.89-15.52a80.83,80.83,0,0,1,0-15c0.83-8.53,8-16.66,15.93-17,2.85-.16,10.48-0.14,24.28-0.08l40.2,0.08V106.13s-32,0-41.64-.08c-12.91-.06-19.42-0.07-23.54.08-9,.34-16.65,3.57-22.55,9.57-5.58,5.65-8.92,14.66-9.41,23.77a116,116,0,0,0,0,15.16c0.93,9.8,4.1,17.49,9.41,22.87a33.47,33.47,0,0,0,22.57,9.58c6.74,0.08,65.17,0,65.17,0V170.41S384.13,170.48,375.1,170.56Z" transform="translate(-79.76 -80.18)"/><path class="cls-1" d="M193.67,107v16.65h39.65v63.11h16.74V123.67h39.66V107H193.67Z" transform="translate(-79.76 -80.18)"/><path class="cls-1" d="M176.29,138.51a32.17,32.17,0,0,0-9.42-22.88c-6.4-6.51-16.16-9.22-22.55-9.55-5.56-.32-27.45-0.21-32.59,0-7.24.3-12.52,2.46-15.16,4.44,0,0-.06,0-0.06,0V80.18H79.76v106.9H96.48s-0.33-43.76,0-48.52a17,17,0,0,1,15.28-15.84c6.57-.56,26.29-0.41,32.47,0,8.5,0.58,14.77,7.23,15.26,16.17,0.16,3.29,0,48.19,0,48.19h16.75S176.32,142.35,176.29,138.51Z" transform="translate(-79.76 -80.18)"/></g></svg>