<?xml version="1.0" encoding="utf-8"?>
<!-- Generator: Adobe Illustrator 19.1.0, SVG Export Plug-In . SVG Version: 6.00 Build 0)  -->
<svg version="1.1" id="logo" xmlns="http://www.w3.org/2000/svg" xmlns:xlink="http://www.w3.org/1999/xlink" x="0px" y="0px"
	 viewBox="-132 343.7 345.6 107.3" style="enable-background:new -132 343.7 345.6 107.3;" xml:space="preserve">
<style type="text/css">
	.st0{fill:#FFFFFF;}
</style>
<title>HTC</title>
<g id="htc_reg">
	<path class="st0" d="M198.7,443.6L198.7,443.6c0-4.1,3.3-7.5,7.4-7.5c4.1,0,7.5,3.3,7.5,7.4c0,0,0,0,0,0l0,0c0,4.1-3.3,7.5-7.4,7.5
		C202,451,198.7,447.7,198.7,443.6C198.7,443.6,198.7,443.6,198.7,443.6z M212.4,443.6L212.4,443.6c0-3.4-2.7-6.2-6.1-6.3
		c0,0-0.1,0-0.1,0c-3.5,0-6.3,2.8-6.2,6.3c0,0,0,0,0,0l0,0c0,3.4,2.7,6.2,6.1,6.3c0,0,0.1,0,0.1,0
		C209.6,449.9,212.4,447.1,212.4,443.6C212.4,443.6,212.4,443.6,212.4,443.6z M203.4,439.8h3.3c1.6,0,2.8,0.8,2.8,2.3
		c0,1-0.7,2-1.7,2.2l1.9,2.7h-1.7l-1.7-2.5h-1.5v2.5h-1.4V439.8L203.4,439.8z M206.5,443.4c0.7,0.1,1.3-0.3,1.4-1c0-0.1,0-0.1,0-0.2
		c0-0.7-0.5-1.2-1.2-1.2c-0.1,0-0.2,0-0.3,0h-1.7v2.4L206.5,443.4L206.5,443.4z"/>
	<path class="st0" d="M163.3,434.1c-17.1,0.1-33.2,0.3-37.7-0.1c-9.1-0.8-15.2-6.8-15.9-15.5c-0.5-5-0.5-10,0-15
		c0.8-8.5,8-16.7,15.9-17c2.8-0.2,10.5-0.1,24.3-0.1l40.2,0.1v-16.8c0,0-32,0-41.6-0.1c-12.9-0.1-19.4-0.1-23.5,0.1
		c-9,0.3-16.6,3.6-22.5,9.6c-5.6,5.6-8.9,14.7-9.4,23.8c-0.3,5-0.3,10.1,0,15.2c0.9,9.8,4.1,17.5,9.4,22.9c6,5.9,14.1,9.4,22.6,9.6
		c6.7,0.1,65.2,0,65.2,0V434C190.2,434,172.4,434,163.3,434.1z"/>
	<path class="st0" d="M-18.1,370.6v16.6h39.7v63.1h16.7v-63.1H78v-16.7H-18.1z"/>
	<path class="st0" d="M-35.5,402.1c0-8.6-3.4-16.8-9.4-22.9c-6.4-6.5-16.2-9.2-22.6-9.6c-5.6-0.3-27.4-0.2-32.6,0
		c-7.2,0.3-12.5,2.5-15.2,4.4h-0.1v-30.3H-132v106.9h16.7c0,0-0.3-43.8,0-48.5c0.5-8.3,7-15,15.3-15.8c6.6-0.6,26.3-0.4,32.5,0
		c8.5,0.6,14.8,7.2,15.3,16.2c0.2,3.3,0,48.2,0,48.2h16.8C-35.5,450.6-35.4,405.9-35.5,402.1z"/>
</g>
</svg>
