<?xml version="1.0" encoding="utf-8"?>
<!-- Generator: Adobe Illustrator 19.1.0, SVG Export Plug-In . SVG Version: 6.00 Build 0)  -->
<svg version="1.1" id="Layer_1" xmlns="http://www.w3.org/2000/svg" xmlns:xlink="http://www.w3.org/1999/xlink" x="0px" y="0px"
	 viewBox="0 0 737 245.6" style="enable-background:new 0 0 737 245.6;" xml:space="preserve">
<style type="text/css">
	.st0{fill:#343438;}
</style>
<g>
	<g>
		<path class="st0" d="M224.2,181.8c0,0-2.6,0-4.7,0c0-4,0-40.9,0-40.9c0-4.8-0.7-7.7-2.3-9.3c-1.6-1.6-4.5-2.3-9.3-2.3H196
			c-8.3,0-9.1,5.5-9.1,7.9c0,2.5,1,4.6,3,6.3c0.6,0.5,2.2,1.6,8.7,1.6c0,0,2.9,0,5.1,0c0,3.8,0,33,0,36.7c-2.2,0-5.1,0-5.1,0
			c-6.1,0-7.3,0.7-7.8,1c-2.6,1.7-4,4.1-4,6.9c0,2.5,1,4.6,3,6.3c0.6,0.5,2.2,1.6,8.7,1.6h25.6c6.1,0,7.3-0.7,7.8-1l0.1,0
			c2.6-1.7,3.9-4,3.9-6.8c0-2.5-1-4.6-3-6.3C231.9,182.6,230,181.8,224.2,181.8z"/>
		<path class="st0" d="M265.6,100.9c-8.8,0-10.1,5-10.1,8c0,3.1,1.3,8.2,10.1,8.2c0,0,24.6,0,30.7,0c-3.5,6.1-40.8,70.2-40.8,70.2
			v10.3h52.8c8.8,0,10.1-5.1,10.1-8.2c0-5.1-3.2-8-8.9-8c0,0-25.8,0-31.9,0c3.6-6.1,40.9-70,40.9-70v-10.4h-2.2H265.6z"/>
		<path class="st0" d="M391.1,137.8c0,0-4.5-3.6-4.5-3.6c-4-3.3-8.6-4.9-13.6-4.9h-12c-5,0-9.5,1.7-13.6,4.9c0,0-4.4,3.6-4.4,3.6
			c-4,3.4-6.1,7.9-6.1,13.5v24.3c0,5.6,2,10.1,6,13.5c0,0,4.5,3.6,4.5,3.6c4,3.3,8.6,4.9,13.6,4.9h12c5,0,9.5-1.7,13.6-4.9
			c0,0,4.5-3.6,4.5-3.6c4-3.4,6.1-7.9,6.1-13.5v-24.3C397.2,145.7,395.2,141.1,391.1,137.8z M381.4,174.2c0,1.6-0.5,2.7-1.5,3.5
			c0,0-3.1,2.5-3.1,2.5c-1.4,1.1-3.1,1.6-5.1,1.6h-9c-2.1,0-3.7-0.5-5.1-1.6c0,0-3.2-2.5-3.2-2.5c-1-0.8-1.5-1.9-1.5-3.5v-21.6
			c0-1.6,0.5-2.7,1.5-3.5c0,0,3.1-2.5,3.1-2.5c1.4-1.1,3-1.6,5.1-1.6h9c2.1,0,3.7,0.5,5.1,1.6c0,0,3.2,2.5,3.2,2.5
			c1,0.8,1.5,1.9,1.5,3.5V174.2z"/>
		<path class="st0" d="M466.2,172.1c-4.1,0-7.1,2.3-8.3,6.4c-0.6,2.3-1.8,3.3-4.1,3.3H445c-1.2,0-3.9,0-3.9-6.5c0,0,0-26.4,0-30.3
			c3.4,0,15.3,0,15.3,0c6.1,0,7.3-0.7,7.8-1c2.5-1.6,3.8-3.9,3.8-6.9c0-2.5-1-4.6-3-6.3c-0.6-0.5-2.2-1.6-8.6-1.6c0,0-11.9,0-15.3,0
			c0-2.7,0-7.7,0-7.7c0-6.1-0.7-7.3-1-7.8c-1.5-2.5-3.9-3.8-6.9-3.8c-3.7,0-5.5,1.7-6.3,3.2c-1,1.6-1.6,4.3-1.6,8.5c0,0,0,5.1,0,7.7
			c-1.2,0-2.3,0-2.3,0c-8.2,0-9.1,5.5-9.1,7.9c0,2.5,1,4.6,3,6.3c0.6,0.5,2.2,1.6,8.4,1.6c0,3.8,0,30.3,0,30.3c0,6.1,1,10.5,3,13.4
			c3.9,5.9,9.5,8.8,16.6,8.8h8.7c6.9,0,12.2-2.2,15.8-6.6l0,0c3-3.8,4.5-7.4,4.5-10.9c0-2-0.7-3.8-2.2-5.5
			C470.2,172.9,468.3,172.1,466.2,172.1z"/>
		<path class="st0" d="M548.1,137.8c0,0-4.5-3.6-4.5-3.6c-4-3.3-8.6-4.9-13.6-4.9h-12c-5,0-9.5,1.7-13.6,4.9c0,0-4.4,3.6-4.4,3.6
			c-4,3.4-6.1,7.9-6.1,13.5v24.3c0,5.6,2,10.1,6,13.5c0,0,4.4,3.6,4.4,3.6c4,3.3,8.6,4.9,13.6,4.9h12c5,0,9.5-1.7,13.6-4.9
			c0,0,4.5-3.6,4.5-3.6c4-3.4,6-7.9,6-13.5v-24.3C554.2,145.7,552.1,141.1,548.1,137.8z M538.4,174.2c0,1.6-0.5,2.7-1.5,3.5
			c0,0-3.1,2.5-3.1,2.5c-1.4,1.1-3,1.6-5.1,1.6h-9c-2.1,0-3.7-0.5-5.1-1.6c0,0-3.2-2.5-3.2-2.5c-1-0.8-1.5-1.9-1.5-3.5v-21.6
			c0-1.6,0.5-2.7,1.5-3.5c0,0,3.1-2.5,3.1-2.5c1.4-1.1,3-1.6,5.1-1.6h9c2.1,0,3.7,0.5,5.1,1.6c0,0,3.2,2.5,3.2,2.5
			c1,0.8,1.5,1.9,1.5,3.5V174.2z"/>
		<path class="st0" d="M629.6,137.7c0,0-4.5-3.6-4.5-3.6c-4-3.3-8.6-4.9-13.6-4.9h-8.1c-5.3,0-8.4,2.3-13,6.5c0,0,0-0.1,0-0.1
			c-0.8-4-3.3-6.4-7.6-6.4c-2.5,0-4.6,1-6.3,3c-0.5,0.6-1.6,2.2-1.6,8.6v69.4c0,6.1,0.7,7.3,1,7.8c1.6,2.5,3.9,3.8,6.9,3.8
			c2.5,0,4.6-1,6.3-3c0.5-0.6,1.6-2.2,1.6-8.6V194c0,0,0,0,0,0c2.4,2,5,3.5,8.7,3.5h12c5,0,9.5-1.7,13.6-4.9l4.5-3.6
			c4-3.4,6-7.9,6-13.5v-24.3C635.7,145.6,633.6,141.1,629.6,137.7z M619.9,174.1c0,1.6-0.5,2.7-1.5,3.5c0,0-3.1,2.4-3.1,2.4
			c-1.4,1.1-3,1.6-5.1,1.6h-9c-2.1,0-3.7-0.5-5.1-1.6c0,0-3.2-2.5-3.2-2.5c-1-0.8-1.5-1.9-1.5-3.5v-21.6c0-1.6,0.5-2.7,1.5-3.5
			c0,0,3.1-2.5,3.1-2.5c1.4-1.1,3-1.6,5.1-1.6h9c2.1,0,3.7,0.5,5.1,1.6c0,0,3.2,2.5,3.2,2.5c1,0.8,1.5,1.9,1.5,3.5V174.1z"/>
		<path class="st0" d="M706.2,173.9c4.8,0,7.7-0.7,9.3-2.3c1.6-1.6,2.3-4.5,2.3-9.3v-9.7c0-6.3-1.9-11.1-5.6-14.2
			c0,0-6.9-5.6-6.9-5.6c-3.1-2.4-6.9-3.7-11.3-3.7h-11.1c-5.8,0-10.3,1.4-13.6,4.3c0,0-6.4,5.5-6.4,5.5c-3.5,3.1-5.2,7.4-5.2,12.7
			v21.6c0,3.4,0.3,6.1,0.8,8.1c0.8,2.9,2.3,5.2,4.7,7.2l7.1,6.1c2.3,1.9,6,2.8,12.1,2.8h23.9c4.1,0,6.8-0.5,8.6-1.6l0.1-0.1
			c1.9-1.3,2.9-3.5,2.9-6.3c0-2.5-1-4.6-3-6.3c-0.6-0.5-2.2-1.6-8.6-1.6h-24.3c-1.3,0-3-0.2-4-1.1c0,0-3.4-3.2-3.4-3.2
			c-0.4-0.3-1.1-0.9-1.1-3.1c0,0,0-0.3,0-0.4C677.3,173.9,706.2,173.9,706.2,173.9z M673.4,153.4c0-1.4,0.3-3.3,1.5-4.4
			c0,0,3.5-2.9,3.5-2.9c0.9-0.8,2-1.1,3.4-1.1h12.4c0.9,0,2,0.5,3.3,1.6c0,0,3.6,3,3.6,3c0.2,0.2,0.9,0.8,0.9,3c0,0,0,3.3,0,5.5
			c-3.6,0-25,0-28.6,0C673.4,156.1,673.4,153.4,673.4,153.4z"/>
		<path class="st0" d="M137.2,215.3c-0.3-0.1-0.5-0.1-0.8-0.2l-30.3-90c5-3.5,8.9-8.7,10.8-15l78.9-0.1c2,3.4,5.2,6.1,9.4,7.2
			c8.2,2.2,16.6-2.7,18.8-10.9c2.2-8.2-2.7-16.6-10.9-18.8c-6.7-1.8-13.6,1.2-17.1,6.9l-79.1,0.1c-1.8-6-5.5-11.3-10.7-14.9
			l13.7-40.5c8-0.6,15.2-6.2,17.4-14.5c2.8-10.5-3.4-21.2-13.9-24c-10.5-2.8-21.2,3.4-24,13.9c-1.9,7.3,0.5,14.7,5.7,19.5L91.4,74.5
			c-6.6-0.3-13,1.8-18.1,5.7L34.9,52c0.8-7.4-3.9-14.5-11.3-16.4C15.4,33.4,7,38.2,4.8,46.4c-2.2,8.2,2.7,16.6,10.9,18.8
			c3.4,0.9,6.9,0.6,9.9-0.7L64,92.8c-0.3,0.8-0.6,1.6-0.8,2.4c-1.5,5.7-1.1,11.5,0.7,16.6L29.5,137c-1.5-0.9-3.1-1.6-4.8-2
			c-10.5-2.8-21.2,3.4-24,13.9c-2.8,10.4,3.4,21.2,13.9,24c10.5,2.8,21.2-3.4,24-13.9c0.8-3.2,0.8-6.4,0.2-9.4l34.5-25.2
			c2.8,2.2,6.1,3.8,9.8,4.8c2.8,0.7,5.6,1,8.3,0.9l30.3,90c-1.5,1.7-2.6,3.8-3.2,6.1c-2.2,8.2,2.7,16.6,10.9,18.8
			c8.2,2.2,16.6-2.7,18.8-10.9C150.2,225.9,145.4,217.5,137.2,215.3z"/>
	</g>
	<g>
		<path class="st0" d="M730.4,113.2v1.5h0.9c0.4,0,0.7-0.1,1-0.2c0.2-0.1,0.3-0.3,0.3-0.6c0-0.2-0.1-0.4-0.3-0.5
			c-0.2-0.1-0.5-0.2-0.9-0.2H730.4z M730.4,118h-1.2v-5.6h2.7c0.4,0,0.8,0.1,1,0.2c0.3,0.1,0.5,0.3,0.6,0.6c0.1,0.2,0.2,0.5,0.2,0.8
			c0,0.4-0.1,0.7-0.4,1c-0.3,0.3-0.6,0.5-1.1,0.5c0.2,0.1,0.4,0.2,0.6,0.4c0.2,0.2,0.4,0.5,0.6,0.9l0.7,1.1h-1.4l-0.5-0.9
			c-0.2-0.4-0.4-0.7-0.6-0.9c-0.2-0.2-0.3-0.3-0.5-0.4c-0.2-0.1-0.3-0.1-0.6-0.1h-0.3V118z M731.6,110.9c-0.8,0-1.5,0.2-2.1,0.6
			c-0.7,0.4-1.2,0.9-1.6,1.6c-0.4,0.7-0.6,1.4-0.6,2.1c0,0.8,0.2,1.5,0.6,2.1c0.4,0.7,0.9,1.2,1.6,1.6c0.7,0.4,1.4,0.6,2.1,0.6
			c0.8,0,1.5-0.2,2.1-0.6c0.7-0.4,1.2-0.9,1.5-1.6c0.4-0.7,0.6-1.4,0.6-2.1c0-0.8-0.2-1.5-0.6-2.2c-0.4-0.7-0.9-1.2-1.5-1.6
			C733.1,111,732.4,110.9,731.6,110.9 M731.6,109.8c0.7,0,1.4,0.1,2.1,0.4c0.6,0.3,1.2,0.7,1.7,1.1c0.5,0.5,0.9,1.1,1.1,1.7
			c0.3,0.6,0.4,1.3,0.4,2.1c0,1-0.2,1.9-0.7,2.7c-0.5,0.8-1.1,1.5-1.9,1.9c-0.8,0.5-1.7,0.7-2.7,0.7c-1,0-1.9-0.2-2.7-0.7
			c-0.8-0.5-1.5-1.1-1.9-1.9c-0.5-0.8-0.7-1.7-0.7-2.7c0-1,0.2-1.9,0.7-2.7c0.5-0.8,1.1-1.5,1.9-1.9
			C729.8,110.1,730.7,109.8,731.6,109.8"/>
	</g>
</g>
</svg>
