<?xml version="1.0" encoding="utf-8"?>
<!-- Generator: Adobe Illustrator 19.1.0, SVG Export Plug-In . SVG Version: 6.00 Build 0)  -->
<svg version="1.1" id="Layer_1" xmlns="http://www.w3.org/2000/svg" xmlns:xlink="http://www.w3.org/1999/xlink" x="0px" y="0px"
	 viewBox="-86.5 366.6 283.5 61.7" style="enable-background:new -86.5 366.6 283.5 61.7;" xml:space="preserve">
<style type="text/css">
	.st0{fill:#343438;}
</style>
<g>
	<path class="st0" d="M175.8,416.5v-4h20.7v4H175.8z M196.5,395.1v4h-1.4c1.3,0.7,1.9,2.4,1.9,3.9c0,4.2-3.3,6.7-7.1,6.7
		c-4.4,0-7.1-3.1-7.1-6.7c0-2.2,1.1-3.4,1.9-3.9h-1.4v-4C183.3,395.1,196.5,395.1,196.5,395.1z M189.9,405.7c1.2,0,3.3-0.9,3.3-3.3
		c0-1.4-0.7-2.3-1.5-2.8c-0.5-0.3-1.1-0.5-1.7-0.6c-0.6,0-1.2,0.1-1.7,0.3c-0.9,0.4-1.8,1.3-1.8,3
		C186.5,404.7,188.4,405.7,189.9,405.7L189.9,405.7z M175.8,392.4v-4h7.5h1c-1.5-1.4-1.5-3.3-1.5-3.9c0-2.8,2-6.5,7-6.5
		c4.8,0,7.2,3.3,7.2,6.7c0,1.9-0.9,3.3-1.9,3.9h1.4v3.8H175.8z M189.8,382c-1.7,0-3.4,1.3-3.4,3.3c0,2.1,1.7,3.3,3.4,3.3
		c1.8,0,3.4-1.2,3.4-3.2C193.3,383.3,191.6,382,189.8,382L189.8,382z M-42.8,403.7l5.1,10.2l5.1-10.2H-42.8z M49.1,392.2l-10.2,5.1
		l10.2,5.1V392.2z M163.1,416.5l-5.1-10.1l-5.1,10.1H163.1z"/>
	<path class="st0" d="M-19.1,416.5h-7.3l-11.3-24.4l-11.4,24.4h-7.3l18.6-40L-19.1,416.5z M54.2,385.3V378H38.6H35h-3.6v38.5H35h3.6
		h15.6v-7.3H38.6v-24L54.2,385.3L54.2,385.3z M-79.2,378h-7.3v38.5h7.3V378z M-70.4,397.3l13.5-19.3h-8.5l-13.5,19.3l13.5,19.2h8.5
		L-70.4,397.3z M119.2,378H112v38.5h7.3V378H119.2z M128,397.3l13.5-19.3H133l-13.5,19.3l13.5,19.2h8.5L128,397.3z M78.9,401.6
		c3.7-2.4,5.7-6.2,5.7-10.6c0-4.7-2.1-8.6-5.9-10.8c-2.5-1.5-5.7-2.2-9.8-2.2h-9.1l0,0v38.5h7.3v-19.2v-12h1.8c5,0,8.5,1.2,8.5,5.8
		c0,4.2-4.2,6.1-9,6.2c-0.2,0-0.7,0-1,0l0,0l13.5,19.2h8.5L78.9,401.6z M21.4,380.2c-2.5-1.5-5.7-2.2-9.8-2.2H2.5l0,0v38.5h7.3
		v-19.2v-12h1.8c5,0,8.5,1.2,8.5,5.8c0,4.2-4.2,6.1-9,6.2c-0.2,0-0.7,0-1,0l0,0l4.8,6.9c2.4-0.4,4.5-1.2,6.3-2.3
		c0.1-0.1,0.3-0.2,0.4-0.3c3.7-2.4,5.7-6.2,5.7-10.6C27.4,386.3,25.2,382.4,21.4,380.2z M166.9,378l-8.9,15.5l-8.9-15.5h-7.3
		l16.2,28l16.2-28H166.9z M-19.7,421.9l3,6.4c14.1-10.8,16.7-22.8,7.5-35.7c-7.3-10.2,0.7-19.3,3.1-21.7l-5.4-4.3
		c-3.5,3.9-12.8,16-4.7,28.1C-8.3,406.5-9.1,412.9-19.7,421.9z M89.8,421.9l3,6.4c14.1-10.8,16.7-22.8,7.5-35.7
		c-7.3-10.2,0.7-19.3,3.1-21.7l-5.4-4.3c-3.5,3.9-12.8,16-4.7,28.1C101.2,406.5,100.4,412.9,89.8,421.9z"/>
</g>
</svg>
