<svg id="Layer_1" data-name="Layer 1" xmlns="http://www.w3.org/2000/svg" viewBox="0 0 85.67 13.05"><defs><style>.cls-1{fill:#343438;}</style></defs><title>VMW_09Q3_LOGO_Corp_Gray</title><path class="cls-1" d="M392.11,311.66l-3.75-10.45a1.69,1.69,0,0,1-.12-0.5,0.91,0.91,0,0,1,.93-0.88,1,1,0,0,1,.93.76l3.11,9,3.13-9a0.94,0.94,0,0,1,.91-0.74h0.1a1,1,0,0,1,1,.74l3.11,9,3.16-9a0.9,0.9,0,0,1,.88-0.72,0.88,0.88,0,0,1,.91.86,1.76,1.76,0,0,1-.12.5l-3.78,10.47a1.09,1.09,0,0,1-1,.83h-0.07a1,1,0,0,1-1-.83l-3.08-8.88-3.11,8.88a1,1,0,0,1-1,.83h0a1.09,1.09,0,0,1-1-.83" transform="translate(-355.3 -299.57)"/><path class="cls-1" d="M419.45,300.74a0.93,0.93,0,0,1,.91-0.93,0.92,0.92,0,0,1,.93.93v2.12a5,5,0,0,1,4.26-3,0.89,0.89,0,0,1,.91.93,0.91,0.91,0,0,1-.82.93c-2.39.29-4.36,2.08-4.36,5.65v4.2a0.92,0.92,0,1,1-1.84,0v-10.8" transform="translate(-355.3 -299.57)"/><path class="cls-1" d="M432.38,312.59a6.06,6.06,0,0,1-6.05-6.37v0c0-3.53,2.46-6.37,5.82-6.37,3.59,0,5.63,3,5.63,6.21a0.85,0.85,0,0,1-.85.85h-8.77a4.25,4.25,0,0,0,4.27,4.14,4.93,4.93,0,0,0,3.49-1.42,0.78,0.78,0,0,1,1.31.57,0.78,0.78,0,0,1-.28.59,6.13,6.13,0,0,1-4.57,1.85m3.59-7.09c-0.19-2.23-1.46-4.17-3.87-4.17-2.11,0-3.71,1.78-3.94,4.17H436Z" transform="translate(-355.3 -299.57)"/><path class="cls-1" d="M406.38,308.76v0c0-2.6,2.15-4,5.27-4a13.09,13.09,0,0,1,3.8.53v-0.43c0-2.22-1.36-3.37-3.68-3.37a6.26,6.26,0,0,0-2.87.56,0.92,0.92,0,0,1-.33.07,0.82,0.82,0,0,1-.81-0.79,0.76,0.76,0,0,1,.5-0.77,8.2,8.2,0,0,1,3.71-.7,5.4,5.4,0,0,1,4,1.36,4.87,4.87,0,0,1,1.27,3.6v6.81a0.87,0.87,0,0,1-.89.91,0.84,0.84,0,0,1-.88-0.86v-1.18A5.41,5.41,0,0,1,411,312.6c-2.29,0-4.61-1.31-4.61-3.84m9.09-1v-1.19a12.88,12.88,0,0,0-3.63-.53c-2.31,0-3.6,1-3.6,2.55v0c0,1.55,1.43,2.46,3.1,2.46,2.27,0,4.13-1.38,4.13-3.34" transform="translate(-355.3 -299.57)"/><path class="cls-1" d="M358.67,300.6a1.74,1.74,0,0,0-2.34-.87,1.71,1.71,0,0,0-.86,2.34l3.92,8.51c0.62,1.33,1.27,2,2.48,2s1.87-.76,2.48-2l3.45-7.52a0.49,0.49,0,0,1,.49-0.32,0.54,0.54,0,0,1,.54.55v7.27a1.84,1.84,0,1,0,3.66,0v-6a1.83,1.83,0,0,1,1.94-1.89,1.78,1.78,0,0,1,1.87,1.89v6a1.83,1.83,0,0,0,1.82,2,1.85,1.85,0,0,0,1.84-2v-6a1.83,1.83,0,0,1,1.94-1.89,1.78,1.78,0,0,1,1.87,1.89v6a1.83,1.83,0,0,0,1.82,2,1.85,1.85,0,0,0,1.84-2V303.8a4.25,4.25,0,0,0-4.41-4.23,5.66,5.66,0,0,0-3.91,1.66,4.33,4.33,0,0,0-3.77-1.66,6.21,6.21,0,0,0-3.7,1.66,4.42,4.42,0,0,0-3.3-1.66,4.05,4.05,0,0,0-4,2.7l-2.5,5.9-3.21-7.56" transform="translate(-355.3 -299.57)"/><path class="cls-1" d="M437.92,301.34h0a1.53,1.53,0,1,1,3.05,0h0a1.53,1.53,0,1,1-3.05,0m2.76,0h0a1.24,1.24,0,1,0-2.47,0h0a1.24,1.24,0,1,0,2.47,0" transform="translate(-355.3 -299.57)"/><path class="cls-1" d="M438.86,300.73a0.16,0.16,0,0,1,.16-0.16h0.51a0.58,0.58,0,0,1,.43.15,0.46,0.46,0,0,1,.13.34h0a0.45,0.45,0,0,1-.29.45l0.22,0.27a0.19,0.19,0,0,1,.05.12,0.15,0.15,0,0,1-.15.15,0.2,0.2,0,0,1-.16-0.08l-0.32-.4h-0.26v0.32a0.16,0.16,0,0,1-.33,0v-1.17Zm0.66,0.56a0.21,0.21,0,0,0,.25-0.21h0a0.21,0.21,0,0,0-.25-0.21h-0.32v0.43h0.33Z" transform="translate(-355.3 -299.57)"/></svg>