<?xml version="1.0" encoding="utf-8"?>
<!-- Generator: Adobe Illustrator 19.1.0, SVG Export Plug-In . SVG Version: 6.00 Build 0)  -->
<svg version="1.1" id="Layer_1" xmlns="http://www.w3.org/2000/svg" xmlns:xlink="http://www.w3.org/1999/xlink" x="0px" y="0px"
	 viewBox="-262 391 85.7 13.1" style="enable-background:new -262 391 85.7 13.1;" xml:space="preserve">
<style type="text/css">
	.st0{fill:#FFFFFF;}
</style>
<title>VMW_09Q3_LOGO_Corp_Gray</title>
<path class="st0" d="M-225.2,403l-3.8-10.5c-0.1-0.2-0.1-0.3-0.1-0.5c0-0.5,0.4-0.9,0.9-0.9c0.4,0,0.8,0.3,0.9,0.8l3.1,9l3.1-9
	c0.1-0.4,0.5-0.7,0.9-0.7h0.1c0.5,0,0.9,0.3,1,0.7l3.1,9l3.2-9c0.1-0.4,0.5-0.7,0.9-0.7c0.5,0,0.9,0.4,0.9,0.8c0,0,0,0,0,0
	c0,0.2-0.1,0.3-0.1,0.5l-3.8,10.5c-0.1,0.5-0.5,0.8-1,0.8h-0.1c-0.5,0-0.9-0.3-1-0.8l-3.1-8.9l-3.1,8.9c-0.1,0.5-0.5,0.8-1,0.8l0,0
	c-0.5,0-0.9-0.4-1-0.8"/>
<path class="st0" d="M-197.8,392.1c0-0.5,0.4-0.9,0.9-0.9c0.5,0,0.9,0.4,0.9,0.9c0,0,0,0,0,0v2.1c0.7-1.7,2.4-2.9,4.3-3
	c0.5,0,0.9,0.4,0.9,0.9c0,0,0,0,0,0.1c0,0.5-0.3,0.9-0.8,0.9c-2.4,0.3-4.4,2.1-4.4,5.6v4.2c0,0.5-0.4,0.9-0.9,0.9
	c-0.5,0-0.9-0.4-0.9-0.9c0,0,0,0,0,0L-197.8,392.1"/>
<path class="st0" d="M-184.9,404c-3.3,0-6.1-2.7-6.1-6.1c0-0.1,0-0.2,0-0.3l0,0c0-3.5,2.5-6.4,5.8-6.4c3.6,0,5.6,3,5.6,6.2
	c0,0.5-0.4,0.9-0.9,0.9l0,0h-8.8c0.1,2.3,2,4.2,4.3,4.1c1.3,0,2.6-0.5,3.5-1.4c0.3-0.3,0.8-0.3,1.1,0c0.1,0.1,0.2,0.3,0.2,0.5
	c0,0.2-0.1,0.4-0.3,0.6C-181.5,403.4-183.2,404.1-184.9,404 M-181.3,396.9c-0.2-2.2-1.5-4.2-3.9-4.2c-2.1,0-3.7,1.8-3.9,4.2H-181.3
	L-181.3,396.9z"/>
<path class="st0" d="M-210.9,400.1L-210.9,400.1c0-2.6,2.1-4,5.3-4c1.3,0,2.6,0.2,3.8,0.5v-0.4c0-2.2-1.4-3.4-3.7-3.4
	c-1,0-2,0.1-2.9,0.6c-0.1,0-0.2,0.1-0.3,0.1c-0.4,0-0.8-0.4-0.8-0.8c0-0.3,0.2-0.7,0.5-0.8c1.2-0.5,2.4-0.8,3.7-0.7
	c1.5-0.1,2.9,0.4,4,1.4c0.9,1,1.4,2.3,1.3,3.6v6.8c0,0.5-0.3,0.9-0.8,0.9c0,0,0,0-0.1,0c-0.5,0-0.9-0.3-0.9-0.8c0,0,0,0,0-0.1v-1.2
	c-1.1,1.4-2.7,2.2-4.5,2.1C-208.6,404-210.9,402.7-210.9,400.1 M-201.8,399.1V398c-1.2-0.3-2.4-0.5-3.6-0.5c-2.3,0-3.6,1-3.6,2.5
	l0,0c0,1.5,1.4,2.5,3.1,2.5C-203.7,402.4-201.8,401-201.8,399.1"/>
<path class="st0" d="M-258.6,392c-0.4-0.9-1.4-1.3-2.3-0.9c0,0,0,0,0,0c-0.9,0.4-1.3,1.4-0.9,2.2c0,0,0,0.1,0,0.1l3.9,8.5
	c0.6,1.3,1.3,2,2.5,2s1.9-0.8,2.5-2l3.5-7.5c0.1-0.2,0.3-0.3,0.5-0.3c0.3,0,0.5,0.2,0.5,0.5c0,0,0,0,0,0v7.3c-0.1,1,0.6,1.9,1.6,2
	c1,0.1,1.9-0.6,2-1.6c0-0.1,0-0.3,0-0.4v-6c0-1,0.8-1.9,1.8-1.9c0.1,0,0.1,0,0.2,0c1-0.1,1.8,0.7,1.9,1.7c0,0.1,0,0.1,0,0.2v6
	c-0.1,1,0.6,1.9,1.7,2c0.1,0,0.1,0,0.2,0c1,0,1.8-0.8,1.8-1.9c0,0,0-0.1,0-0.1v-6c0-1,0.8-1.9,1.8-1.9c0.1,0,0.1,0,0.2,0
	c1-0.1,1.8,0.7,1.9,1.7c0,0.1,0,0.1,0,0.2v6c-0.1,1,0.6,1.9,1.7,2c0.1,0,0.1,0,0.2,0c1,0,1.8-0.8,1.8-1.9c0,0,0-0.1,0-0.1v-6.8
	c0-2.3-1.9-4.2-4.3-4.2c0,0-0.1,0-0.1,0c-1.5,0-2.9,0.6-3.9,1.7c-0.9-1.2-2.3-1.8-3.8-1.7c-1.4,0.1-2.7,0.7-3.7,1.7
	c-0.8-1-2-1.6-3.3-1.7c-1.8-0.1-3.4,1-4,2.7l-2.5,5.9L-258.6,392"/>
<path class="st0" d="M-179.4,392.7L-179.4,392.7c-0.1-0.8,0.6-1.6,1.4-1.6c0.8-0.1,1.6,0.6,1.6,1.4c0,0.1,0,0.2,0,0.2l0,0
	c0.1,0.8-0.6,1.6-1.4,1.6c-0.8,0.1-1.6-0.6-1.6-1.4C-179.4,392.9-179.4,392.8-179.4,392.7 M-176.6,392.7L-176.6,392.7
	c0.1-0.7-0.4-1.3-1.1-1.3c-0.7-0.1-1.3,0.4-1.3,1.1c0,0.1,0,0.1,0,0.2l0,0c-0.1,0.7,0.4,1.3,1.1,1.3c0.7,0.1,1.3-0.4,1.3-1.1
	C-176.6,392.9-176.6,392.8-176.6,392.7"/>
<path class="st0" d="M-178.4,392.1c0-0.1,0.1-0.2,0.2-0.2l0,0h0.5c0.2,0,0.3,0,0.4,0.1c0.1,0.1,0.1,0.2,0.1,0.3l0,0
	c0,0.2-0.1,0.4-0.3,0.5l0.2,0.3c0,0,0,0.1,0,0.1c0,0.1-0.1,0.1-0.1,0.1c-0.1,0-0.1,0-0.2-0.1l-0.3-0.4h-0.3v0.3
	c0,0.1-0.1,0.2-0.2,0.2c-0.1,0-0.2-0.1-0.2-0.2L-178.4,392.1L-178.4,392.1z M-177.8,392.7c0.1,0,0.2-0.1,0.2-0.2c0,0,0,0,0,0l0,0
	c0-0.1-0.1-0.2-0.2-0.2c0,0,0,0,0,0h-0.3v0.4L-177.8,392.7L-177.8,392.7z"/>
</svg>
