<svg id="2109a0bc-6342-4148-b7e1-9f17b4039e96" data-name="Layer 1" xmlns="http://www.w3.org/2000/svg" viewBox="0 0 461.46 187.37"><title>arenanet_logo</title><path d="M275.74,182.1h10L265,142.19h-9.88l-20.4,39.91h9.83l3.48-7.6h24.11l3.58,7.6Zm-24.65-14.25,8.83-19.27,9.1,19.28H251.09Z" style="fill:#003058"/><path d="M4.94,69.27V43.83q22.69-9.47,46.13-17v9.85Q69.66,30.65,88.64,25.9V16.26q20.14-4.95,40.6-8.42v9.48q18.69-3.24,37.57-5.21V2.73Q187,.65,207.4,0V9.33Q216.74,9,226.18,9T245,9.33V0q20.47.66,40.59,2.73v9.38q19,2,37.57,5.21V7.85q20.55,3.49,40.59,8.43v9.64q19,4.76,37.57,10.82V26.89q23.42,7.49,46.13,17V69.29a554,554,0,0,0-442.5,0Zm221.25-34A538.31,538.31,0,0,0,4.94,82.46V122.3H51.07v-23a18.79,18.79,0,0,1,37.57,0v23h40.6V90.41a18.78,18.78,0,1,1,37.57,0v31.9h40.6V85.54a18.78,18.78,0,1,1,37.56,0v36.77h40.6V90.41a18.78,18.78,0,1,1,37.56,0V122.3h40.59v-23a18.78,18.78,0,1,1,37.56,0v23H447.4V82.46A538.14,538.14,0,0,0,226.18,35.22Z" style="fill:#003058"/><path d="M94.54,167.6h6.77a5.73,5.73,0,0,0,6.09-5.74V149.54s0-5.59-6.71-5.59H68.76V182.1h8.13V167.46h7.89l14.65,14.65H111l-16.48-14.5ZM97,150.51c2.75,0,2.75,3.36,2.75,3.36v4.27a2.86,2.86,0,0,1-3,3.06H76.9V150.51H97Zm30,31.58h37.7v-6.82H135.38v-10H152.5v-6.26H135.38v-8.48h29V144H126.91M360,182.11h37.48v-6.46H368.2V165.48h17.13v-6.25H368.2v-8.59h29V144.2H359.78m-178.07,37.9V144h6.05l27.53,25.42V144h6.48v38.14h-5.4l-28.23-26v26m108.47,4.77,6.91.1V151.92L337.94,187l6-.1V138.69h-6.5V173.5L303.5,138.69h-6.86" style="fill:#003058"/><path d="M407.39,144.11h41.2v6.36H432.06V182.1h-8.59V150.47H407.39m50.9-2.7a1.34,1.34,0,0,0,.93-1.32,1.36,1.36,0,0,0-.47-1.07,2.17,2.17,0,0,0-1.44-.41h-2.36v5.1h1V148h1.36l.84,2.11h1l-1-2.26.06,0Zm-1.14-.52h-1.22v-1.59h1.29c.63,0,1,.26,1,.78s-.35.81-1,.81Z" style="fill:#003058"/><path d="M460.16,144.36A4.26,4.26,0,0,0,457,143a4.47,4.47,0,0,0,0,8.95,4.27,4.27,0,0,0,3.14-1.32,4.47,4.47,0,0,0,0-6.31Zm-.49,5.9a3.7,3.7,0,0,1-5.33,0,3.93,3.93,0,0,1,0-5.48,3.63,3.63,0,0,1,2.69-1.14,3.58,3.58,0,0,1,2.65,1.14,3.94,3.94,0,0,1,0,5.47Z" style="fill:#003058"/><path d="M47.76,187.37h9.87L33,138h-8.6L0,187.37H10.13l4.78-10.24H42.82l4.94,10.24ZM17.94,170.63,28.63,147.7l11.06,22.93H17.94Z" style="fill:#003058"/></svg>