<svg id="d390f7f0-c963-4b2d-ae49-e85dd536de6e" data-name="Logo" xmlns="http://www.w3.org/2000/svg" viewBox="0 0 439.26 127.69"><title>logitech-logo</title><path d="M127.94,77.29a18,18,0,1,1,18-18,17.79,17.79,0,0,1-18,18m33-36.69V28.2H139.11a34.31,34.31,0,0,0-11.18-1.94c-18.83,0-33.65,14.34-33.65,33s14.82,33,33.65,33,33.65-14.34,33.65-33c0-6.32-1.7-12.51-5.1-17.13ZM55.28,77.29a18,18,0,1,1,18-18,17.79,17.79,0,0,1-18,18m0-51c-18.83,0-33.65,14.34-33.65,33s14.82,33,33.65,33S88.93,78,88.93,59.3s-14.82-33-33.65-33M0,90.53H15.55V1.84H0Zm167.79,0h15.55V28.2H167.79Zm-39.85,22.11a17.66,17.66,0,0,1-17.86-17.86H94.28c0,18.71,14.82,33,33.65,33s33.65-14.34,33.65-33H145.8a17.66,17.66,0,0,1-17.86,17.86M240.56,52.87C242.63,44.6,248.94,40,257.08,40s14.21,4.5,16.16,12.88Zm16.89-26.61c-18.71,0-32.93,14.34-32.93,33.41,0,18.83,13,32.68,33.17,32.68,11.18,0,21.14-4.13,28.43-11.91L275.67,70.12c-5.1,4.86-10.57,8.38-17.62,8.38-8.5,0-14.94-4.86-17.13-13H289.4V61.74c0-21.26-13.12-35.48-32-35.48m137.65,0a25.16,25.16,0,0,0-18.83,7.9V1.84H360.72V90.53h15.55V56.63c0-9,5.71-15.19,15.19-15.19,8.87,0,13.73,5.47,13.73,15.19v33.9h15.55V53.84c0-17.25-10.81-27.58-25.64-27.58M328,41.32c6.56,0,11.91,3.4,16,8.14l10.81-10.69a33.7,33.7,0,0,0-26.61-12.51c-18.83,0-33.65,14.34-33.65,33s14.82,33,33.65,33a33.7,33.7,0,0,0,26.61-12.51L344.08,69.15c-4,4.62-9.48,8.14-16.16,8.14-10,0-17.62-7.78-17.62-18s7.65-18,17.74-18M214,9H198.4V28.2H190V42.05h8.38V90.53H214V42.05h8.5V28.2H214ZM175.44.14a10.14,10.14,0,0,0-10.21,10.33,10.33,10.33,0,0,0,20.65,0A10.2,10.2,0,0,0,175.44.14m251.34,22h2.31l2.54,4.16h1.62l-2.77-4.39a2.69,2.69,0,0,0,2.54-3c0-2.31-1.62-3.24-3.93-3.24h-3.7V26.29h1.39Zm0-5.09h2.31c1.85,0,2.54.69,2.54,1.85s-.69,1.85-2.54,1.85h-2.31Zm2.31,14.34A10.29,10.29,0,1,0,418.69,21,10.31,10.31,0,0,0,429.09,31.38Zm0-19.19a8.9,8.9,0,0,1,0,17.81,8.9,8.9,0,1,1,0-17.81Z" transform="translate(0 -0.14)" style="fill:#003058"/></svg>