<svg id="230e0b4e-b552-4091-8f21-1a7f08f9705e" data-name="Layer 1" xmlns="http://www.w3.org/2000/svg" viewBox="0 0 32.2 4.8"><title>samsung_logo</title><path d="M26.7,3.7,26.6.2h1.1V4.7H26.1L25,1h-.1L25,4.7H23.9V.2h1.7l1,3.5ZM6,.6,5.4,4.7H4.2L5,.2H7.1l.8,4.5H6.7L6.1.6Zm5.4,3.1L11.9.2h1.9l.1,4.5H12.8L12.7.6,12,4.7H10.8L10,.6V4.7H8.8L8.9.2h1.9ZM2.2,3.5v.3c0,.2-.1.3-.5.3a.46.46,0,0,1-.5-.4V3.2H0v.3c0,1,.8,1.3,1.7,1.3s1.5-.3,1.6-1V3C3.1,2,1.4,1.8,1.2,1.2V1c0-.1.1-.3.4-.3a.37.37,0,0,1,.4.4v.3H3.1V1.1C3.1.1,2.2,0,1.6,0,.8,0,.1.3,0,1v.6C.4,2.6,2,2.8,2.2,3.5Zm14.9-.1v.3c0,.1-.1.3-.4.3a.46.46,0,0,1-.5-.4V3.2H15v.3c0,1,.8,1.3,1.7,1.3s1.5-.3,1.6-1V3c-.2-1-1.9-1.2-2-1.8V1c0-.2.1-.3.4-.3a.37.37,0,0,1,.4.4v.3h1.1V1.1c0-1-.9-1.1-1.5-1.1-.8,0-1.5.3-1.6,1v.6C15.3,2.6,16.9,2.8,17.1,3.4ZM21,4c.3,0,.4-.2.4-.3V.1h1.2V3.7c-.1.8-.8,1.1-1.6,1.1s-1.5-.3-1.6-1.1V.1h1.2V3.7C20.6,3.8,20.7,4,21,4Zm9.5,0c.3,0,.5-.2.5-.3V2.8h-.5V2.1h1.7V3.6c-.1.8-.8,1.1-1.6,1.1S29.1,4.4,29,3.6V1.2c.1-.9.8-1.1,1.6-1.1s1.5.3,1.6,1.1v.5H31V1.2c0-.1-.1-.3-.5-.3a.62.62,0,0,0-.5.3V3.7A.62.62,0,0,0,30.5,4Z"/></svg>