<svg id="aa273fd1-d59e-4ef1-8f73-bdd303b6f33e" data-name="Sennheiser Logo" xmlns="http://www.w3.org/2000/svg" viewBox="0 0 1110.58 112.92"><title>SE_Logo</title><path d="M61.73,112.92H.06V90.54H25.48c20.74,0,28.5-35.1,53.42-75.1C85.34,5,92,0,98.88,0h64.29V22H139.3c-15.92,0-30,35.1-55,75.1-6.44,10.48-14.49,15.77-22.6,15.77Z" style="fill:#153157"/><path d="M75.25,11.67H11.68l0,73.77H0L0,0H85.31A46.62,46.62,0,0,0,75.25,11.67Z" style="fill:#153157"/><path d="M87.9,101h63.64l0-73.89h11.67v85.77H76.9A43.21,43.21,0,0,0,87.9,101Z" style="fill:#153157"/><polygon points="303.22 91.29 303.22 20.49 365.69 20.49 365.69 35.83 334.14 35.83 334.14 48.85 365.69 48.85 365.69 63.66 334.14 63.66 334.14 75.99 365.69 75.99 365.69 91.29 303.22 91.29 303.22 91.29" style="fill:#153157"/><polygon points="391.16 91.29 391.16 20.49 424.07 20.49 452.84 63.36 452.84 20.49 467.16 20.49 467.16 91.29 435.35 91.29 405.99 48.55 405.99 91.29 391.16 91.29 391.16 91.29" style="fill:#153157"/><polygon points="595.87 91.29 595.87 20.49 626.23 20.49 626.23 47.39 651.13 47.39 651.13 20.49 681.78 20.49 681.78 91.29 651.13 91.29 651.13 64.28 626.23 64.28 626.23 91.29 595.87 91.29 595.87 91.29" style="fill:#153157"/><path d="M1073.22,49.6a7.18,7.18,0,0,0,0-14.35h-18.1V49.6Zm-48.86,41.69V20.46H1090c7.61,0,19.44,8.42,19.44,21.14,0,10.25-5.51,15-14,20.47,3.28,6.66,12.91,25.32,15.11,29.22H1083.5c-1.6-2.4-15.55-27.18-15.55-27.18h-12.77V91.29Z" style="fill:#153157"/><polygon points="493.1 91.26 493.1 20.46 526.01 20.46 554.78 63.33 554.78 20.46 569.1 20.46 569.1 91.26 537.29 91.26 507.92 48.52 507.92 91.26 493.1 91.26 493.1 91.26" style="fill:#153157"/><polygon points="936.08 91.26 936.08 20.46 998.54 20.46 998.54 35.8 966.99 35.8 966.99 48.82 998.54 48.82 998.54 63.63 966.99 63.63 966.99 75.95 998.54 75.95 998.54 91.26 936.08 91.26 936.08 91.26" style="fill:#153157"/><polygon points="796.56 91.29 796.56 20.49 829.43 20.49 829.43 91.29 796.56 91.29 796.56 91.29" style="fill:#153157"/><polygon points="709.47 91.26 709.47 20.46 771.93 20.46 771.93 35.8 740.38 35.8 740.38 48.82 771.93 48.82 771.93 63.63 740.38 63.63 740.38 75.95 771.93 75.95 771.93 91.26 709.47 91.26 709.47 91.26" style="fill:#153157"/><path d="M219.61,91.26V77.76h19.31c5.19,0,4.79-1.34,4.79-3a6.35,6.35,0,0,0-.23-1.19c-1.51-4-8.38-11.46-18.64-27-2.66-4-4.87-7.5-4.87-11.5,0-9.3,6.81-14.6,15.51-14.6H280.1V34.74H258.88a3,3,0,0,0-3,3c0,.38,0,.32,0,.32.73,3.74,7.79,11.12,18.83,27.89,2.66,4,5.47,7.5,5.47,11.5,0,9.3-6.81,13.83-15.51,13.83,0,0-24.79,0-45.13,0Z" style="fill:#153157"/><path d="M852.81,91.25V77.75h19.31c5.19,0,4.79-1.34,4.79-3a6.34,6.34,0,0,0-.23-1.19c-1.51-4-8.38-11.46-18.64-27-2.66-4-4.87-7.5-4.87-11.5,0-9.3,6.81-14.6,15.51-14.6H913.3V34.74H892.08a3,3,0,0,0-3,3c0,.38,0,.32,0,.32.73,3.74,7.79,11.12,18.83,27.89,2.66,4,5.47,7.5,5.47,11.5,0,9.3-6.81,13.83-15.51,13.83,0,0-24.79,0-45.12,0Z" style="fill:#153157"/></svg>