<svg id="81ae850b-3ffe-4a31-8bcf-69c89601d420" data-name="Layer 1" xmlns="http://www.w3.org/2000/svg" viewBox="0 0 553 87"><title>siemens</title><path d="M1.83,83.9V67.35Q16,71.8,27,71.81,42,71.81,42,63.88a6.49,6.49,0,0,0-2.18-5Q37.57,56.78,28.32,53,11.7,46.18,6.66,41.4a21.25,21.25,0,0,1-6.54-16Q.12,13,9.64,6.49T34.14,0Q42.47,0,58.23,3.1V19Q46.5,14.36,36.45,14.35q-14.16,0-14.16,7.75a5.48,5.48,0,0,0,2.85,4.74q2.38,1.48,13.08,6.27,15.42,6.81,20.53,11.83,6.07,6,6.07,15.45,0,13.6-11.9,20.76Q43.29,87,27.94,87A114.72,114.72,0,0,1,1.83,83.9Zm76.26,1.36V1.51H101.6V85.26Zm45.08,0V1.51h60.31V16.65H145.83V35.57h32.78V49.38H145.83V69.26h38.63v16Zm76.64,0V1.51H230.3L251.48,55,273.19,1.51h29V85.26h-22.3V26L255.16,86.1H240.6L216.38,26v59.3Zm123.9,0V1.51H384V16.65H346.38V35.57h32.76V49.38H346.38V69.26H385v16Zm76.77,0V1.51h27.25l28.91,56.06V1.51H473.2V85.26H446.72L417,28.44V85.26Zm89.41-1.36V67.35Q504,71.8,515,71.81q15.09,0,15.09-7.93a6.59,6.59,0,0,0-2.14-5c-1.49-1.42-5.36-3.4-11.57-5.92q-16.56-6.74-21.67-11.59a21.28,21.28,0,0,1-6.54-16q0-12.36,9.52-18.87T522.22,0q8.5,0,22,2.7l2.07.36V19q-11.73-4.65-21.83-4.66-14.12,0-14.1,7.75a5.45,5.45,0,0,0,2.84,4.74q2.26,1.41,13.14,6.27,15.3,6.81,20.46,11.83,6.08,6,6.07,15.45,0,13.6-11.84,20.76Q531.35,87,516,87a114.87,114.87,0,0,1-26.12-3.06Z" style="fill:#00abad;fill-rule:evenodd"/></svg>