<svg id="8c9d9ae2-c601-4235-ae34-cec34736674d" data-name="图层 1" xmlns="http://www.w3.org/2000/svg" viewBox="0 0 579.67 476.89"><title>vive_logo_navy</title><path d="M406.55,167.16l-91-157.56a16,16,0,0,0-13.86-8H270a16,16,0,0,0-13.86,8l-91,157.57a16,16,0,0,0,0,16L181,210.55a16,16,0,0,0,13.86,8h182a16,16,0,0,0,13.86-8l15.82-27.38a16,16,0,0,0,0-16m-77.29,15.22a144.89,144.89,0,0,1-86.8,0A32.74,32.74,0,0,1,220,144.63a144,144,0,0,1,43.53-76.4,33,33,0,0,1,44.68,0,144,144,0,0,1,43.54,76.39,32.76,32.76,0,0,1-22.47,37.76" transform="translate(-2.05 -1.59)" style="fill:#153157"/><path d="M412.09,367.54l-55,108.08a5.18,5.18,0,0,1-4.64,2.83H334.38a5.27,5.27,0,0,1-4.64-2.83L274.81,367.54a6,6,0,0,1,.14-5.71l5.87-10.14a6.38,6.38,0,0,1,5.52-3.19h5.32a3.61,3.61,0,0,1,3.27,2l46.17,91.84a2.62,2.62,0,0,0,4.68,0l46.15-91.84a3.63,3.63,0,0,1,3.3-2h5.29a6.37,6.37,0,0,1,5.52,3.19l5.88,10.17a5.92,5.92,0,0,1,.15,5.69" transform="translate(-2.05 -1.59)" style="fill:#153157"/><path d="M140,367.54,85,475.62a5.19,5.19,0,0,1-4.64,2.83H62.27a5.27,5.27,0,0,1-4.65-2.83L2.71,367.54a6,6,0,0,1,.13-5.71l5.88-10.16a6.31,6.31,0,0,1,5.49-3.17h5.35a3.61,3.61,0,0,1,3.27,2L69,442.37a2.62,2.62,0,0,0,4.69,0l46.14-91.84a3.62,3.62,0,0,1,3.3-2h5.32a6.33,6.33,0,0,1,5.49,3.17l5.89,10.19a6,6,0,0,1,.15,5.69" transform="translate(-2.05 -1.59)" style="fill:#153157"/><path d="M218.67,350a5.26,5.26,0,0,0-3.72-1.54h-8.22a6.34,6.34,0,0,0-5.5,3.18l-5.86,10.16a6.11,6.11,0,0,0-.79,3V473.19a5.26,5.26,0,0,0,5.27,5.26H215a5.22,5.22,0,0,0,5.22-5.22V353.77a5.27,5.27,0,0,0-1.55-3.74" transform="translate(-2.05 -1.59)" style="fill:#153157"/><path d="M473.35,351.66a6.34,6.34,0,0,1,5.5-3.17h78.68a6.25,6.25,0,0,1,5.39,3.11l5.54,9.53a9,9,0,0,1,1.2,4.49V368a3.59,3.59,0,0,1-3.58,3.57H494.37a2.63,2.63,0,0,0-2.62,2.63v24.87a2.61,2.61,0,0,0,2.61,2.62H543a4.34,4.34,0,0,1,4.28,4.32v14.29a4.34,4.34,0,0,1-4.32,4.33H494.35a2.6,2.6,0,0,0-2.61,2.61v25.55a2.61,2.61,0,0,0,2.61,2.62h71.73a3.56,3.56,0,0,1,3.58,3.54v2.38a9,9,0,0,1-1.2,4.51l-5.54,9.55a6.23,6.23,0,0,1-5.39,3.11H478.85a6.34,6.34,0,0,1-5.5-3.18l-5.47-9.45a9,9,0,0,1-1.21-4.52V365.6a9,9,0,0,1,1.21-4.49Z" transform="translate(-2.05 -1.59)" style="fill:#153157"/><path d="M570.2,348.49h4.67v.73H573v4.64h-.87v-4.64H570.2Zm5.43,0h1.21l1.82,4.21h0l1.82-4.21h1.2v5.37h-.87l0-4.17h0L579,353.86h-.74l-1.79-4.17h-.05l.05,4.17h-.88Z" transform="translate(-2.05 -1.59)" style="fill:#153157"/></svg>