<svg id="9ac18a06-a385-4a96-98d7-51edaa65b9c7" data-name="Layer 1" xmlns="http://www.w3.org/2000/svg" viewBox="0 0 85.67 13.05"><title>vmware_logo</title><path d="M36.9,12.16,33.15,1.71a1.69,1.69,0,0,1-.12-.5A.91.91,0,0,1,34,.33a1,1,0,0,1,.93.76l3.11,9,3.13-9A.94.94,0,0,1,42,.33h.1a1,1,0,0,1,1,.74l3.11,9,3.16-9a.9.9,0,0,1,.88-.72.88.88,0,0,1,.91.86,1.76,1.76,0,0,1-.12.5L47.25,12.16a1.09,1.09,0,0,1-1,.83h-.07a1,1,0,0,1-1-.83L42.09,3.28,39,12.16A1,1,0,0,1,38,13h0a1.09,1.09,0,0,1-1-.83" transform="translate(-0.09 -0.07)" style="fill:#153157"/><path d="M64.24,1.24a.93.93,0,0,1,.91-.93.92.92,0,0,1,.93.93V3.36a5,5,0,0,1,4.26-3,.89.89,0,0,1,.91.93.91.91,0,0,1-.82.93c-2.39.29-4.36,2.08-4.36,5.65V12a.92.92,0,1,1-1.84,0V1.24" transform="translate(-0.09 -0.07)" style="fill:#153157"/><path d="M77.17,13.09a6.06,6.06,0,0,1-6.05-6.37v0C71.12,3.14,73.58.3,76.94.3c3.59,0,5.63,3,5.63,6.21a.85.85,0,0,1-.85.85H73a4.25,4.25,0,0,0,4.27,4.14,4.93,4.93,0,0,0,3.49-1.42.78.78,0,0,1,1.31.57.78.78,0,0,1-.28.59,6.13,6.13,0,0,1-4.57,1.85M80.76,6c-.19-2.23-1.46-4.17-3.87-4.17C74.78,1.84,73.18,3.61,73,6Z" transform="translate(-0.09 -0.07)" style="fill:#153157"/><path d="M51.18,9.26v0c0-2.6,2.15-4,5.27-4a13.09,13.09,0,0,1,3.8.53V5.32C60.25,3.1,58.88,2,56.57,2a6.26,6.26,0,0,0-2.87.56.92.92,0,0,1-.33.07.82.82,0,0,1-.81-.79.76.76,0,0,1,.5-.77,8.2,8.2,0,0,1,3.71-.7,5.4,5.4,0,0,1,4,1.36A4.87,4.87,0,0,1,62,5.3v6.81a.87.87,0,0,1-.89.91.84.84,0,0,1-.88-.86V11a5.41,5.41,0,0,1-4.46,2.12c-2.29,0-4.61-1.31-4.61-3.84m9.09-1V7.11a12.88,12.88,0,0,0-3.63-.53c-2.31,0-3.6,1-3.6,2.55v0c0,1.55,1.43,2.46,3.1,2.46,2.27,0,4.13-1.38,4.13-3.34" transform="translate(-0.09 -0.07)" style="fill:#153157"/><path d="M3.46,1.1A1.74,1.74,0,0,0,1.13.23,1.71,1.71,0,0,0,.27,2.57l3.92,8.51c.62,1.33,1.27,2,2.48,2s1.87-.76,2.48-2l3.45-7.52a.49.49,0,0,1,.49-.32.54.54,0,0,1,.54.55v7.27a1.84,1.84,0,1,0,3.66,0v-6a1.83,1.83,0,0,1,1.94-1.89,1.78,1.78,0,0,1,1.87,1.89v6a1.83,1.83,0,0,0,1.82,2,1.85,1.85,0,0,0,1.84-2v-6a1.83,1.83,0,0,1,1.94-1.89,1.78,1.78,0,0,1,1.87,1.89v6a1.83,1.83,0,0,0,1.82,2,1.85,1.85,0,0,0,1.84-2V4.3A4.25,4.25,0,0,0,27.83.07a5.66,5.66,0,0,0-3.91,1.66A4.33,4.33,0,0,0,20.15.07a6.21,6.21,0,0,0-3.7,1.66A4.42,4.42,0,0,0,13.15.07a4.05,4.05,0,0,0-4,2.7l-2.5,5.9L3.46,1.1" transform="translate(-0.09 -0.07)" style="fill:#153157"/><path d="M82.71,1.84h0a1.53,1.53,0,1,1,3.05,0h0a1.53,1.53,0,1,1-3.05,0m2.76,0h0a1.24,1.24,0,1,0-2.47,0h0a1.24,1.24,0,1,0,2.47,0" transform="translate(-0.09 -0.07)" style="fill:#153157"/><path d="M83.66,1.23a.16.16,0,0,1,.16-.16h.51a.58.58,0,0,1,.43.15.46.46,0,0,1,.13.34h0A.45.45,0,0,1,84.6,2l.22.27a.19.19,0,0,1,.05.12.15.15,0,0,1-.15.15.2.2,0,0,1-.16-.08l-.32-.4H84v.32a.16.16,0,0,1-.33,0Zm.66.56c.16,0,.25-.08.25-.21h0c0-.14-.09-.21-.25-.21H84v.43Z" transform="translate(-0.09 -0.07)" style="fill:#153157"/></svg>