<svg id="e7ec5b3c-65f0-4ad3-9ab2-aada299a5c93" data-name="62eb0a0d-ee48-4473-b649-742e76673204" xmlns="http://www.w3.org/2000/svg" viewBox="0 0 17.6 23.6"><path d="M8.24,19.79a.35.35,0,0,1-.15,0,.36.36,0,0,1-.21-.32V15.29H.4A.36.36,0,0,1,0,14.94V4.83a.36.36,0,0,1,.36-.36H17.22a.36.36,0,0,1,.36.36V14.94a.36.36,0,0,1-.36.36h-3.8l-5,4.4A.35.35,0,0,1,8.24,19.79ZM.73,14.58H8.24a.36.36,0,0,1,.36.36v3.7l4.46-4a.36.36,0,0,1,.24-.09h3.57V5.19H.73Z" style="fill:#fff"/><rect x="11.49" y="9.2" width="1.12" height="1.12" style="fill:#fff"/><rect x="8.12" y="9.2" width="1.12" height="1.12" style="fill:#fff"/><rect x="4.75" y="9.2" width="1.12" height="1.12" style="fill:#fff"/></svg>