<svg id="ae9eba34-4285-4c08-b4f4-e5a4b9fb0044" data-name="Layer 1" xmlns="http://www.w3.org/2000/svg" viewBox="0 0 24 35"><title>icons</title><path d="M24,13h0a.49.49,0,0,0-.08-.26s0,0,0,0l-5-7,0,0a.48.48,0,0,0-.11-.1l-.07,0-.05,0H5.36l-.05,0-.07,0a.48.48,0,0,0-.11.1l0,0-5,7s0,0,0,0A.49.49,0,0,0,0,13H0a.49.49,0,0,0,.08.26s0,0,0,0l11.5,16a.48.48,0,0,0,.08.07l.06.05a.45.45,0,0,0,.54,0l.06-.05a.48.48,0,0,0,.08-.07l11.5-16s0,0,0,0A.49.49,0,0,0,24,13ZM5.3,7.13,6.84,12.5H1.47ZM15.84,13.5,12,27.15,8.16,13.5Zm-7.42-1L12,6.92l3.58,5.58Zm4.5-6h4.92l-1.51,5.3ZM7.68,11.8,6.16,6.5h4.92Zm-.56,1.7,3.63,12.91L1.47,13.5Zm9.76,0h5.65L13.25,26.41Zm.28-1L18.7,7.13l3.83,5.37Z" style="fill:#003058"/></svg>