<svg id="609b6b8a-50ac-4012-9803-1515976e3e82" data-name="Layer 1" xmlns="http://www.w3.org/2000/svg" viewBox="0 0 24 35"><title>icons</title><path d="M23.5,28H23v-2.5a.5.5,0,0,0-.5-.5h-3a.5.5,0,0,0-.5.5V28H17l0-6.5a.5.5,0,0,0-.5-.5h-3a.5.5,0,0,0-.5.5L13,28H11l0-10.5a.5.5,0,0,0-.5-.5h-3a.5.5,0,0,0-.5.5L7,28H5l0-14.5a.5.5,0,0,0-.5-.5h-3a.5.5,0,0,0-.5.5L1,28H.5a.5.5,0,0,0,0,1l13,0h10a.5.5,0,1,0,0-1ZM20,26h2v2H20Zm-6-4h2v6H14ZM8,18h2l0,10H8ZM2,14H4L4,28H2Z" style="fill:#003058"/><path d="M19.63,18.19,17,18.51a.5.5,0,0,0,.06,1h.06l4-.49.13,0,0,0a.49.49,0,0,0,.17-.15h0a.47.47,0,0,0,0-.07.49.49,0,0,0,0-.1.48.48,0,0,0,0-.11.48.48,0,0,0,0-.07l-.49-4a.5.5,0,1,0-1,.12l.36,2.92L3.33,6.06a.5.5,0,0,0-.56.83Z" style="fill:#003058"/></svg>