<svg id="3a0fc3bd-dc98-41a2-a534-f43da6b6241c" data-name="bb573678-3d02-4bdf-a574-eecf95c60cbe" xmlns="http://www.w3.org/2000/svg" width="71" height="90" viewBox="0 0 71 90"><title>icons_speakerPhone</title><path d="M64.7,33.3v-16a1.54,1.54,0,0,0-1.5-1.5,1.27,1.27,0,0,0-.6.1l-2.7,1.2C48.4,22.5,37.5,27.5,13.6,27.5H10.7A10.24,10.24,0,0,0,.5,37.7v5.8A10.24,10.24,0,0,0,10.7,53.7h2.9c2.6,0,5,.1,7.3.2A22.39,22.39,0,0,0,33.4,74a1.43,1.43,0,0,0,1.9-.8,1.57,1.57,0,0,0-.6-1.9A19.41,19.41,0,0,1,23.9,54C41,55.2,50.2,59.5,60,64l2.7,1.2a1.47,1.47,0,0,0,1.9-.7,1.27,1.27,0,0,0,.1-.6V48a5.8,5.8,0,0,0,5.8-5.8v-3A5.83,5.83,0,0,0,64.7,33.3Zm-54,17.5a7.34,7.34,0,0,1-7.3-7.3V37.7a7.34,7.34,0,0,1,7.3-7.3h2.9c2.6,0,5-.1,7.3-.2V51c-2.3-.1-4.7-.2-7.3-.2Zm51,10.9-.7-.3c-10-4.6-19.6-9-37.3-10.2V30.1C41.5,28.9,51,24.5,61.1,19.9l.6-.3V61.7Zm5.8-19.6A2.88,2.88,0,0,1,64.7,45V36.2a2.9,2.9,0,0,1,2.9,2.9Z" style="fill:#036"/></svg>