<svg id="7dce17cf-66d4-44df-a43a-9b0341f66cef" data-name="Layer 1" xmlns="http://www.w3.org/2000/svg" viewBox="0 0 17 35"><title>icons</title><path d="M7,21.26V8A2.5,2.5,0,0,0,2,8V21.26a4.5,4.5,0,1,0,5,0ZM4.5,28.5A3.5,3.5,0,0,1,2.75,22,.5.5,0,0,0,3,21.54V8A1.5,1.5,0,0,1,6,8V21.54a.5.5,0,0,0,.25.43A3.5,3.5,0,0,1,4.5,28.5Z" style="fill:#003058"/><path d="M5,23.59V13a.5.5,0,0,0-1,0V23.59a1.5,1.5,0,1,0,1,0ZM4.5,25.5A.5.5,0,1,1,5,25,.5.5,0,0,1,4.5,25.5Z" style="fill:#003058"/><path d="M16.85,10.65l-3-3a.5.5,0,0,0-.71,0l-3,3a.5.5,0,0,0,.71.71L13,9.21V21.5a.5.5,0,0,0,1,0V9.21l2.15,2.15a.5.5,0,0,0,.71-.71Z" style="fill:#003058"/></svg>