<?xml version="1.0" encoding="utf-8"?>
<!-- Generator: Adobe Illustrator 21.1.0, SVG Export Plug-In . SVG Version: 6.00 Build 0)  -->
<svg version="1.1" id="_x39_108e9a0-68f9-4dd1-a136-445ab61c491e"
	 xmlns="http://www.w3.org/2000/svg" xmlns:xlink="http://www.w3.org/1999/xlink" x="0px" y="0px" viewBox="0 0 25 25"
	 style="enable-background:new 0 0 25 25;" xml:space="preserve">
<style type="text/css">
	.st0{fill:#00A7E1;}
</style>
<title>icon</title>
<path class="st0" d="M20,7.5h-5.5V6c0-0.3-0.2-0.5-0.5-0.5h-1.5v-2c0-1.7-1.3-3-3-3H5C4.7,0.5,4.5,0.7,4.5,1S4.7,1.5,5,1.5h4.5
	c1.1,0,2,0.9,2,2v2H10C9.7,5.5,9.5,5.7,9.5,6v1.5H5c-2.5,0-4.5,2-4.5,4.5v10c0,1.4,1.1,2.5,2.5,2.5c1.3,0,1.4-0.2,2.7-2.5
	c0.5-1,1.3-2.4,2.6-4.5h8.4c1.2,2,2,3.5,2.5,4.5c1.2,2.2,1.4,2.5,2.7,2.5c1.4,0,2.5-1.1,2.5-2.5V12C24.5,9.5,22.5,7.5,20,7.5z
	 M10.5,6.5h3v1h-3V6.5z M23.5,22c0,0.8-0.7,1.5-1.5,1.5c-0.8,0-0.8,0-1.9-2c-0.6-1-1.4-2.5-2.7-4.7c-0.1-0.2-0.2-0.3-0.4-0.3H8
	c-0.2,0-0.3,0.1-0.4,0.2c-1.3,2.2-2.2,3.7-2.7,4.7c-1.1,2-1.1,2-1.8,2c-0.8,0-1.5-0.6-1.5-1.5V12c0-1.9,1.6-3.5,3.5-3.5h15
	c1.9,0,3.5,1.6,3.5,3.5V22z"/>
<path class="st0" d="M18.3,10.3c-0.4,0.4-0.4,1,0,1.4s1,0.4,1.4,0c0.4-0.4,0.4-1,0-1.4c0,0,0,0,0,0C19.3,9.9,18.7,9.9,18.3,10.3z
	 M19,11L19,11l0.4,0.4L19,11z"/>
<path class="st0" d="M20.3,12.3c-0.4,0.4-0.4,1,0,1.4s1,0.4,1.4,0c0.4-0.4,0.4-1,0-1.4c0,0,0,0,0,0C21.3,11.9,20.7,11.9,20.3,12.3z
	 M21,13L21,13l0.4,0.4L21,13z"/>
<path class="st0" d="M16.3,12.3c-0.4,0.4-0.3,1.1,0.1,1.4c0.4,0.3,0.9,0.3,1.3,0c0.4-0.4,0.4-1,0-1.4c0,0,0,0,0,0
	C17.3,11.9,16.7,11.9,16.3,12.3z M17,13L17,13l0.4,0.4L17,13z"/>
<path class="st0" d="M18.3,14.3c-0.4,0.4-0.4,1,0,1.4s1,0.4,1.4,0c0.4-0.4,0.4-1,0-1.4c0,0,0,0,0,0C19.3,13.9,18.7,13.9,18.3,14.3z
	 M19,15L19,15l0.4,0.4L19,15z"/>
<path class="st0" d="M8,12.5H6.5V11c0-0.3-0.2-0.5-0.5-0.5S5.5,10.7,5.5,11v1.5H4c-0.3,0-0.5,0.2-0.5,0.5s0.2,0.5,0.5,0.5h1.5V15
	c0,0.3,0.2,0.5,0.5,0.5s0.5-0.2,0.5-0.5v-1.5H8c0.3,0,0.5-0.2,0.5-0.5S8.3,12.5,8,12.5z"/>
<path class="st0" d="M11.5,14.5h-1c-0.3,0-0.5,0.2-0.5,0.5s0.2,0.5,0.5,0.5h1c0.3,0,0.5-0.2,0.5-0.5S11.8,14.5,11.5,14.5z"/>
<path class="st0" d="M14.5,14.5h-1c-0.3,0-0.5,0.2-0.5,0.5s0.2,0.5,0.5,0.5h1c0.3,0,0.5-0.2,0.5-0.5S14.8,14.5,14.5,14.5z"/>
</svg>
