<svg id="e98e665e-9ba1-4470-9019-6e562e06db89" data-name="Layer 1" xmlns="http://www.w3.org/2000/svg" viewBox="0 0 22 35"><title>icons</title><path d="M.5,29.49a.5.5,0,0,1-.35-.85l5-5a.5.5,0,0,1,.71.71l-5,5A.5.5,0,0,1,.5,29.49Z" style="fill:#003058"/><path d="M4.5,28.49a.5.5,0,0,1-.35-.85l4-4a.5.5,0,0,1,.71.71l-4,4A.5.5,0,0,1,4.5,28.49Z" style="fill:#003058"/><path d="M6.5,29.49a.5.5,0,0,1-.35-.85l5-5a.5.5,0,0,1,.71.71l-5,5A.5.5,0,0,1,6.5,29.49Z" style="fill:#003058"/><path d="M10.5,28.49a.5.5,0,0,1-.35-.85l4-4a.5.5,0,0,1,.71.71l-4,4A.5.5,0,0,1,10.5,28.49Z" style="fill:#003058"/><path d="M12.5,29.49a.5.5,0,0,1-.35-.85l5-5a.5.5,0,0,1,.71.71l-5,5A.5.5,0,0,1,12.5,29.49Z" style="fill:#003058"/><path d="M17.5,21.51H6.5a5.5,5.5,0,0,1-.93-10.92A6,6,0,0,1,17,9a3.5,3.5,0,0,1,3.4,4.51,4.5,4.5,0,0,1-2.85,8Zm-6-15a5,5,0,0,0-5,4.57.5.5,0,0,1-.45.46,4.5,4.5,0,0,0,.43,9h11a3.5,3.5,0,0,0,2-6.39.5.5,0,0,1-.18-.61A2.5,2.5,0,0,0,16.69,10a.5.5,0,0,1-.53-.32A5,5,0,0,0,11.5,6.51Z" style="fill:#003058"/></svg>