<svg id="d494cfec-12ae-4dd5-be83-4f947b8b1070" data-name="22fc1de8-2be2-4c45-8d09-a30b30d81b3f" xmlns="http://www.w3.org/2000/svg" viewBox="0 0 23 35"><title>icons_Awards</title><path d="M13.39,15.1a.48.48,0,0,1-.29-.1l-1.63-1.22L9.84,15a.48.48,0,0,1-.74-.54l.64-1.82-1.42-1a.48.48,0,0,1,.27-.87h1.62L11,9.14a.5.5,0,0,1,.86,0l.83,1.65h1.62a.48.48,0,0,1,.29.86l-1.29,1,.51,1.86a.48.48,0,0,1-.46.6Zm-1.92-2.4a.48.48,0,0,1,.29.1l.8.6-.22-.82a.48.48,0,0,1,.17-.51l.42-.32h-.5a.48.48,0,0,1-.43-.26l-.53-1.06-.53,1.06a.48.48,0,0,1-.43.26h-.38l.45.31a.48.48,0,0,1,.18.55l-.24.68.65-.49A.48.48,0,0,1,11.47,12.71Z" style="fill:#003058"/><path d="M4.91,16.54a4.21,4.21,0,0,1-3.12-1.22C-.06,13.45,0,10,0,8.66V8.4a.48.48,0,0,1,.48-.48H2.91a.48.48,0,0,1,0,1H1c0,1.33,0,4.27,1.51,5.77a3.25,3.25,0,0,0,2.44.94.48.48,0,1,1,0,1Z" style="fill:#003058"/><path d="M18.06,16.54a.48.48,0,0,1,0-1,3.26,3.26,0,0,0,2.45-.94C22,13.14,22.05,10.21,22,8.88h-2a.48.48,0,0,1,0-1h2.46A.48.48,0,0,1,23,8.4v.24c0,1.31.05,4.8-1.81,6.68A4.23,4.23,0,0,1,18.06,16.54Z" style="fill:#003058"/><path d="M16.77,29H6.23a.48.48,0,0,1-.48-.48V26.6a.48.48,0,0,1,.48-.48c2.3,0,3.74-.64,3.8-3.84,0-1.67-.86-2.18-2.16-3C5.57,17.93,2.4,16,2.4,6.48A.48.48,0,0,1,2.88,6H20.13a.48.48,0,0,1,.48.48c0,9.5-3.19,11.42-5.51,12.82-1.32.79-2.19,1.31-2.19,3,0,2.72,1.12,3.83,3.87,3.83a.48.48,0,0,1,.48.48v1.92A.48.48,0,0,1,16.77,29ZM6.71,28H16.3v-1c-3-.15-4.35-1.67-4.35-4.78,0-2.22,1.29-3,2.65-3.81,2.21-1.33,4.95-3,5-11.52H3.36c.1,8.59,2.82,10.22,5,11.54,1.35.81,2.62,1.58,2.62,3.79-.06,3.15-1.38,4.64-4.28,4.78Z" style="fill:#003058"/></svg>