<svg id="9108e9a0-68f9-4dd1-a136-445ab61c491e" data-name="Layer 1" xmlns="http://www.w3.org/2000/svg" viewBox="0 0 25 25"><title>icon</title><path d="M20,7.5H14.5V6a.5.5,0,0,0-.5-.5H12.5v-2a3,3,0,0,0-3-3H5a.5.5,0,0,0,0,1H9.5a2,2,0,0,1,2,2v2H10a.5.5,0,0,0-.5.5V7.5H5A4.5,4.5,0,0,0,.5,12V22A2.5,2.5,0,0,0,3,24.5c1.31,0,1.45-.24,2.73-2.55.54-1,1.34-2.41,2.56-4.45h8.43c1.22,2.05,2,3.5,2.55,4.47,1.21,2.2,1.39,2.53,2.73,2.53A2.5,2.5,0,0,0,24.5,22V12A4.5,4.5,0,0,0,20,7.5Zm-9.5-1h3v1h-3ZM23.5,22A1.5,1.5,0,0,1,22,23.5c-.75,0-.75,0-1.86-2-.56-1-1.4-2.55-2.72-4.74A.5.5,0,0,0,17,16.5H8a.5.5,0,0,0-.43.24c-1.31,2.18-2.16,3.71-2.72,4.72-1.13,2-1.13,2-1.85,2A1.5,1.5,0,0,1,1.5,22V12A3.5,3.5,0,0,1,5,8.5H20A3.5,3.5,0,0,1,23.5,12Z" style="fill:#00a7e1"/><path d="M18.29,10.29a1,1,0,1,0,1.41,0A1,1,0,0,0,18.29,10.29ZM19,11h0l.35.35Z" style="fill:#00a7e1"/><path d="M20.29,12.29a1,1,0,1,0,1.41,0A1,1,0,0,0,20.29,12.29ZM21,13h0l.35.35Z" style="fill:#00a7e1"/><path d="M16.29,12.29a1,1,0,0,0,1.41,1.41,1,1,0,0,0,0-1.42A1,1,0,0,0,16.29,12.29ZM17,13h0l.35.35Z" style="fill:#00a7e1"/><path d="M18.29,14.29a1,1,0,1,0,1.41,0A1,1,0,0,0,18.29,14.29ZM19,15h0l.35.35Z" style="fill:#00a7e1"/><path d="M8,12.5H6.5V11a.5.5,0,0,0-1,0v1.5H4a.5.5,0,0,0,0,1H5.5V15a.5.5,0,0,0,1,0V13.5H8a.5.5,0,0,0,0-1Z" style="fill:#00a7e1"/><path d="M11.5,14.5h-1a.5.5,0,0,0,0,1h1a.5.5,0,0,0,0-1Z" style="fill:#00a7e1"/><path d="M14.5,14.5h-1a.5.5,0,0,0,0,1h1a.5.5,0,0,0,0-1Z" style="fill:#00a7e1"/></svg>