<svg id="4fb4df21-c8be-4010-a90a-f8411fbce9ef" data-name="Layer 1" xmlns="http://www.w3.org/2000/svg" viewBox="0 0 23 35"><title>icons</title><path d="M13.51,17.49h-4A.5.5,0,0,0,9,18v4.5H7a.5.5,0,0,0-.33.87l4.49,4a.5.5,0,0,0,.66,0l4.51-4a.5.5,0,0,0-.33-.87H14V18A.5.5,0,0,0,13.51,17.49Zm1.18,6L11.5,26.32,8.32,23.49H9.51A.5.5,0,0,0,10,23v-4.5h3V23a.5.5,0,0,0,.5.5Z" style="fill:#003058"/><path d="M5,20.73a.5.5,0,1,0,.87-.5,6.5,6.5,0,1,1,11.28,0,.5.5,0,1,0,.87.5,7.5,7.5,0,1,0-13,0Z" style="fill:#003058"/><path d="M11.49,8.48A.5.5,0,0,0,12,8V6a.5.5,0,0,0-1,0V8A.5.5,0,0,0,11.49,8.48Z" style="fill:#003058"/><path d="M17.88,11.12a.5.5,0,0,0,.35-.15l1.39-1.39a.5.5,0,0,0-.71-.71l-1.39,1.39a.5.5,0,0,0,.35.85Z" style="fill:#003058"/><path d="M20.52,17.5h2a.5.5,0,0,0,0-1h-2a.5.5,0,0,0,0,1Z" style="fill:#003058"/><path d="M18.24,23a.5.5,0,0,0-.71.71l1.39,1.39a.5.5,0,0,0,.71-.71Z" style="fill:#003058"/><path d="M4.77,23,3.38,24.42a.5.5,0,1,0,.71.71l1.39-1.39A.5.5,0,0,0,4.77,23Z" style="fill:#003058"/><path d="M.51,17.51h2a.5.5,0,0,0,0-1h-2a.5.5,0,0,0,0,1Z" style="fill:#003058"/><path d="M4.76,11a.5.5,0,0,0,.71-.71L4.08,8.88a.5.5,0,0,0-.71.71Z" style="fill:#003058"/><path d="M22.49,28.49H.51a.5.5,0,0,0,0,1h22a.5.5,0,1,0,0-1Z" style="fill:#003058"/></svg>