<svg id="73d2e811-ebfc-438c-8753-ae9af404d42e" data-name="Layer 1" xmlns="http://www.w3.org/2000/svg" viewBox="0 0 24 35"><title>icons</title><path d="M23.78,11.06a2.5,2.5,0,0,0-3.27-1.35h0l-4.3,1.87L9.74,8.92a.5.5,0,0,0-.38,0l-3.7,1.53a.5.5,0,0,0,0,.92l5.65,2.34L7,15.57l-2.79-1.4a.51.51,0,0,0-.42,0l-3.5,1.5a.5.5,0,0,0-.16.81L4.68,21a.5.5,0,0,0,.54.11l6.45-2.58-2.6,6.94a.5.5,0,0,0,.69.62l4-2a.5.5,0,0,0,.22-.22L17.89,16l4.53-1.69a2.5,2.5,0,0,0,1.35-3.27ZM7.16,10.91l2.39-1,5.38,2.22-2.34,1Zm15.69,1.68a1.48,1.48,0,0,1-.8.81l-4.7,1.75a.5.5,0,0,0-.27.25l-3.93,7.85L10.45,24.6,13,17.79a.5.5,0,0,0-.47-.68.49.49,0,0,0-.19,0L5.15,20,1.41,16.29,4,15.17l2.79,1.4a.5.5,0,0,0,.42,0l9.16-4h0l4.5-2a1.5,1.5,0,0,1,2,2Z" style="fill:#003058"/></svg>