<svg id="0648aa48-f822-47a0-922f-5d7ebdc61148" data-name="Layer 1" xmlns="http://www.w3.org/2000/svg" viewBox="0 0 24 35"><title>icons</title><path d="M14.5,23.75a.5.5,0,1,0,.5.5.5.5,0,0,0-.5-.5Z" style="fill:#003058"/><path d="M20.5,25.25a.5.5,0,1,0,.5.5.5.5,0,0,0-.5-.5Z" style="fill:#003058"/><path d="M20.5,28.25a.5.5,0,1,0,.5.5.5.5,0,0,0-.5-.5Z" style="fill:#003058"/><path d="M14.5,26.75a.5.5,0,1,0,.5.5.5.5,0,0,0-.5-.5Z" style="fill:#003058"/><path d="M18.5,26.75a.5.5,0,1,0,.5.5.5.5,0,0,0-.5-.5Z" style="fill:#003058"/><path d="M16.5,28.25a.5.5,0,1,0,.5.5.5.5,0,0,0-.5-.5Z" style="fill:#003058"/><path d="M18.5,23.75a.5.5,0,1,0,.5.5.5.5,0,0,0-.5-.5Z" style="fill:#003058"/><path d="M16.5,25.25a.5.5,0,1,0,.5.5.5.5,0,0,0-.5-.5Z" style="fill:#003058"/><path d="M12.5,25.25a.5.5,0,1,0,.5.5.5.5,0,0,0-.5-.5Z" style="fill:#003058"/><path d="M12.5,28.25a.5.5,0,1,0,.5.5.5.5,0,0,0-.5-.5Z" style="fill:#003058"/><path d="M10.5,26.75a.5.5,0,1,0,.5.5.5.5,0,0,0-.5-.5Z" style="fill:#003058"/><path d="M8.5,28.25a.5.5,0,1,0,.5.5.5.5,0,0,0-.5-.5Z" style="fill:#003058"/><path d="M10.5,23.75a.5.5,0,1,0,.5.5.5.5,0,0,0-.5-.5Z" style="fill:#003058"/><path d="M8.5,25.25a.5.5,0,1,0,.5.5.5.5,0,0,0-.5-.5Z" style="fill:#003058"/><path d="M3,9.25a.5.5,0,0,1-.35-.15l-.78-.78a.5.5,0,0,1,.71-.71l.78.78A.5.5,0,0,1,3,9.25Z" style="fill:#003058"/><path d="M12,9.25a.5.5,0,0,1-.35-.85l.78-.78a.5.5,0,0,1,.71.71l-.78.78A.5.5,0,0,1,12,9.25Z" style="fill:#003058"/><path d="M6,26.05A.49.49,0,0,1,5.7,26,5.53,5.53,0,0,1,3,21.25a5.47,5.47,0,0,1,4.57-5.42A6,6,0,0,1,19,14.25a3.4,3.4,0,0,1,2.85,1.4,3.46,3.46,0,0,1,.55,3.12,4.5,4.5,0,0,1,0,7,.5.5,0,0,1-.62-.78,3.5,3.5,0,0,0-.21-5.63.5.5,0,0,1-.18-.61,2.5,2.5,0,0,0-2.6-3.47.5.5,0,0,1-.53-.32,5,5,0,0,0-4.66-3.21,5,5,0,0,0-5,4.57.5.5,0,0,1-.45.46A4.48,4.48,0,0,0,4,21.25a4.53,4.53,0,0,0,2.21,3.87.5.5,0,0,1-.25.93Z" style="fill:#003058"/><path d="M4.17,16a.5.5,0,0,1-.42-.22,4.5,4.5,0,0,1,6.59-6,.5.5,0,1,1-.63.77A3.47,3.47,0,0,0,7.5,9.75a3.5,3.5,0,0,0-2.91,5.44.5.5,0,0,1-.42.78Z" style="fill:#003058"/><path d="M1.5,12.75H.5a.5.5,0,0,1,0-1h1a.5.5,0,0,1,0,1Z" style="fill:#003058"/><path d="M7.5,7.75a.5.5,0,0,1-.5-.5v-1a.5.5,0,0,1,1,0v1A.5.5,0,0,1,7.5,7.75Z" style="fill:#003058"/></svg>