<svg id="bb33dadd-3985-4b00-be86-d20701cd883a" data-name="Layer 1" xmlns="http://www.w3.org/2000/svg" viewBox="0 0 24 35"><title>icons</title><path d="M23.5,28.26H23l0-14.5a.5.5,0,0,0-.5-.5h-3a.5.5,0,0,0-.5.5l0,14.5H17l0-10.5a.5.5,0,0,0-.5-.5h-3a.5.5,0,0,0-.5.5l0,10.5H11l0-6.5a.5.5,0,0,0-.5-.5h-3a.5.5,0,0,0-.5.5l0,6.5H5v-2.5a.5.5,0,0,0-.5-.5h-3a.5.5,0,0,0-.5.5v2.5H.5a.5.5,0,0,0,0,1l7,0h16a.5.5,0,0,0,0-1ZM20,14.25h2l0,14H20Zm-6,4h2l0,10H14Zm-6,4h2v6H8Zm-6,4H4v2H2Z" style="fill:#003058"/><path d="M3,19.21a.5.5,0,0,0,.28-.08L20.42,7.77,20,10.69a.5.5,0,0,0,.43.56h.06a.5.5,0,0,0,.5-.44l.51-4a.47.47,0,0,0,0-.07.34.34,0,0,0,0-.2.47.47,0,0,0,0-.07h0l-.08-.08-.06-.05-.09,0-.09,0h0l-4-.51a.5.5,0,0,0-.13,1l2.67.34L2.75,18.29a.5.5,0,0,0,.28.92Z" style="fill:#003058"/></svg>