<svg id="3c250881-c4bc-4102-8dcb-5964a800e1e5" data-name="Layer 1" xmlns="http://www.w3.org/2000/svg" viewBox="0 0 24 35"><title>icons</title><path d="M23.5,29.5H.5A.5.5,0,0,1,0,29a10.58,10.58,0,0,1,1.05-4.28c.73-1.47,3.24-2.39,6.71-3.67L9,20.6V18.19a4.26,4.26,0,0,1-1.49-2.93,1.78,1.78,0,0,1-.51-1,2.19,2.19,0,0,1,.43-2.06l-.05-.17C7,11,6.42,8.87,7.28,7.7A1.89,1.89,0,0,1,8.66,7c.61-1.13,2.61-1.5,4.27-1.46,1.9,0,4.24.69,4.57,2.34A8.29,8.29,0,0,1,16.68,12l-.09.23a2.21,2.21,0,0,1,.42,2,1.78,1.78,0,0,1-.51,1A4.26,4.26,0,0,1,15,18.19V20.6l1.24.46c3.47,1.28,6,2.2,6.71,3.67A10.58,10.58,0,0,1,24,29,.5.5,0,0,1,23.5,29.5ZM1,28.5H23a9.69,9.69,0,0,0-.92-3.33C21.5,24.05,18.9,23.1,15.89,22l-1.57-.58a.5.5,0,0,1-.32-.47v-3a.5.5,0,0,1,.22-.42,3.23,3.23,0,0,0,1.28-2.58.5.5,0,0,1,.37-.48,1.75,1.75,0,0,0,.19-1.06.62.62,0,0,0-.29-.51.5.5,0,0,1-.28-.45,2.44,2.44,0,0,1,.25-.79A7.57,7.57,0,0,0,16.51,8c-.17-.86-1.66-1.49-3.61-1.54S9.62,7,9.48,7.56A.5.5,0,0,1,9,7.94a1.06,1.06,0,0,0-.91.35c-.57.77,0,2.67.25,3.48a2.54,2.54,0,0,1,.16.67.5.5,0,0,1-.28.45.62.62,0,0,0-.29.51,1.75,1.75,0,0,0,.19,1.06.5.5,0,0,1,.37.48,3.24,3.24,0,0,0,1.28,2.58.5.5,0,0,1,.22.42v3a.5.5,0,0,1-.32.47L8.11,22c-3,1.1-5.6,2.06-6.16,3.17A9.7,9.7,0,0,0,1,28.5Z" style="fill:#003058"/></svg>