<svg id="e56f4daa-7313-47e0-9d18-6f97fe64cad6" data-name="Layer 1" xmlns="http://www.w3.org/2000/svg" viewBox="0 0 24 35"><title>icons</title><path d="M6,16.5h4.5A.5.5,0,0,0,11,16v-.5a1.91,1.91,0,0,0-1.32-1.76L7.5,13.12v-.76A3.86,3.86,0,0,0,9,9.27,3.65,3.65,0,0,0,5.5,5.5,3.65,3.65,0,0,0,2,9.27a3.86,3.86,0,0,0,1.5,3.09v.76l-2.18.62A1.91,1.91,0,0,0,0,15.5V16a.5.5,0,0,0,.5.5H6Zm-.5-10a2.54,2.54,0,0,1,2.38,2,1.3,1.3,0,0,1-.57,0,1.15,1.15,0,0,1-.87-.57.5.5,0,0,0-.37-.26.5.5,0,0,0-.43.14,2.43,2.43,0,0,1-2.49.53A2.53,2.53,0,0,1,5.5,6.5ZM3,9.35a3.47,3.47,0,0,0,2.91-.46,2.22,2.22,0,0,0,1.25.6l.36,0A2.25,2.25,0,0,0,8,9.47,2.62,2.62,0,0,1,5.5,12,2.64,2.64,0,0,1,3,9.35ZM1.6,14.71,4.14,14a.5.5,0,0,0,.36-.48v-.63a3.22,3.22,0,0,0,1,.18,3.22,3.22,0,0,0,1-.18v.63a.5.5,0,0,0,.36.48l2.54.73a.91.91,0,0,1,.6.79H1A.91.91,0,0,1,1.6,14.71Z" style="fill:#003058"/><path d="M22.68,13.74l-2.18-.62v-.76A3.86,3.86,0,0,0,22,9.27,3.65,3.65,0,0,0,18.5,5.5,3.65,3.65,0,0,0,15,9.27a3.86,3.86,0,0,0,1.5,3.09v.76l-2.18.62A1.91,1.91,0,0,0,13,15.5V16a.5.5,0,0,0,.5.5h10A.5.5,0,0,0,24,16v-.5A1.91,1.91,0,0,0,22.68,13.74ZM18.5,6.5a2.54,2.54,0,0,1,2.38,2,1.26,1.26,0,0,1-.57,0,1.14,1.14,0,0,1-.86-.57.5.5,0,0,0-.37-.26.5.5,0,0,0-.43.14,2.43,2.43,0,0,1-2.49.53A2.53,2.53,0,0,1,18.5,6.5ZM16,9.35a3.47,3.47,0,0,0,2.91-.46,2.21,2.21,0,0,0,1.24.6l.36,0A2.23,2.23,0,0,0,21,9.46,2.62,2.62,0,0,1,18.5,12,2.64,2.64,0,0,1,16,9.35Zm3,6.15H14a.91.91,0,0,1,.6-.79L17.14,14a.5.5,0,0,0,.36-.48v-.63a2.93,2.93,0,0,0,2,0v.63a.5.5,0,0,0,.36.48l2.54.73a.91.91,0,0,1,.6.79Z" style="fill:#003058"/><path d="M16.18,26.74,14,26.12v-.76a3.86,3.86,0,0,0,1.5-3.09A3.65,3.65,0,0,0,12,18.5a3.65,3.65,0,0,0-3.5,3.77A3.86,3.86,0,0,0,10,25.36v.76l-2.18.62A1.91,1.91,0,0,0,6.5,28.5V29a.5.5,0,0,0,.5.5H17a.5.5,0,0,0,.5-.5v-.5A1.91,1.91,0,0,0,16.18,26.74ZM12,19.5a2.54,2.54,0,0,1,2.37,1.94,1.29,1.29,0,0,1-.59,0,1.11,1.11,0,0,1-.84-.55.5.5,0,0,0-.37-.26.5.5,0,0,0-.43.14,2.43,2.43,0,0,1-2.49.53A2.53,2.53,0,0,1,12,19.5ZM9.51,22.35a3.47,3.47,0,0,0,2.91-.46,2.17,2.17,0,0,0,1.21.59l.35,0a2.28,2.28,0,0,0,.5-.06A2.62,2.62,0,0,1,12,25,2.64,2.64,0,0,1,9.51,22.35Zm3,6.15h-5a.91.91,0,0,1,.6-.79L10.64,27A.5.5,0,0,0,11,26.5v-.63a2.93,2.93,0,0,0,2,0v.63a.5.5,0,0,0,.36.48l2.54.73a.91.91,0,0,1,.6.79Z" style="fill:#003058"/><path d="M6.85,20.85a.5.5,0,0,0,0-.71l-2.5-2.5a.5.5,0,0,0-.71.71l2.5,2.5a.5.5,0,0,0,.71,0Z" style="fill:#003058"/><path d="M19.65,17.65l-2.5,2.5a.5.5,0,1,0,.71.71l2.5-2.5a.5.5,0,0,0-.71-.71Z" style="fill:#003058"/></svg>