<svg id="b134fd0f-8963-4ff4-a99c-274c6e7c5573" data-name="Outline Icons" xmlns="http://www.w3.org/2000/svg" viewBox="0 0 119.52 116.03"><title>retention_profit_icon</title><circle cx="28.04" cy="26.21" r="21.14" style="fill:none;stroke:#fff;stroke-linecap:round;stroke-linejoin:round"/><path d="M28,5.07a21.05,21.05,0,0,1,9.54,2.27" style="fill:none;stroke:#fff;stroke-linecap:round;stroke-linejoin:round;stroke-width:4px"/><circle cx="28.04" cy="26.21" r="17.21" style="fill:none;stroke:#fff;stroke-linecap:round;stroke-linejoin:round;stroke-dasharray:2.0065999031066895,2.0065999031066895"/><polyline points="53.86 114.41 60.03 115.53 59.35 109.02" style="fill:none;stroke:#fff;stroke-linecap:round;stroke-linejoin:round"/><polyline points="113.88 45.35 115.19 51.57 109.79 50.98" style="fill:none;stroke:#fff;stroke-linecap:round;stroke-linejoin:round"/><path d="M114.93,51.57C102.14,33.37,76,29.49,57.84,41.09A42.14,42.14,0,0,0,38.33,77" style="fill:none;stroke:#fff;stroke-linecap:round;stroke-linejoin:round"/><path d="M60,115.43C38.05,103.22,32.36,75,44.32,55A42.12,42.12,0,0,1,82.48,34.53" style="fill:none;stroke:#fff;stroke-linecap:round;stroke-linejoin:round"/><path d="M45.7.5c13.47,8.91,16.83,27.77,8.78,41.22A30.59,30.59,0,0,1,28.84,56.61" style="fill:none;stroke:#fff;stroke-linecap:round;stroke-linejoin:round"/><path d="M.5,41.71C9.81,57.35,30.42,60.9,44.67,51.81A30.58,30.58,0,0,0,58.74,23.7" style="fill:none;stroke:#fff;stroke-linecap:round;stroke-linejoin:round"/><circle cx="82.85" cy="77.98" r="34.5" style="fill:none;stroke:#fff;stroke-linecap:round;stroke-linejoin:round"/><circle cx="82.85" cy="77.98" r="28.09" style="fill:none;stroke:#fff;stroke-linecap:round;stroke-linejoin:round;stroke-dasharray:2.0065999031066895,2.0065999031066895"/><path d="M93.27,44.75a34.66,34.66,0,1,1-33.9,7.56" style="fill:none;stroke:#fff;stroke-linecap:round;stroke-linejoin:round;stroke-width:4px"/><path d="M18.28,24.47v2.48H17.14V24.47H14.66V23.33h2.48V20.86h1.14v2.46h2.46v1.14Z" style="fill:#fff"/><path d="M25.41,28.07A4.82,4.82,0,0,1,22.31,27V25.33a4.07,4.07,0,0,0,2.84,1.24,2,2,0,0,0,2.09-2.06,1.72,1.72,0,0,0-1.84-1.87,1.86,1.86,0,0,0-1.82,1.09l-.92-.46V17.58h6.15V19.2H24.27v2.52A2.58,2.58,0,0,1,26,21.15a3.12,3.12,0,0,1,3.25,3.31A3.56,3.56,0,0,1,25.41,28.07Z" style="fill:#fff"/><path d="M33,22.41a2.39,2.39,0,0,1-2.36-2.55,2.38,2.38,0,1,1,4.74,0A2.4,2.4,0,0,1,33,22.41Zm0-4c-.58,0-1,.42-1,1.48s.43,1.5,1,1.5,1-.42,1-1.5S33.55,18.38,33,18.38Zm-.21,9.71-.66-.34,6.51-10.47.68.34Zm5.66-.1a2.39,2.39,0,0,1-2.36-2.55,2.38,2.38,0,1,1,4.74,0A2.4,2.4,0,0,1,38.43,28Zm0-4c-.58,0-1,.43-1,1.48s.42,1.5,1,1.5,1-.42,1-1.5S39,24,38.43,24Z" style="fill:#fff"/><path d="M14,29.91h1.19A1,1,0,0,1,16.36,31a1,1,0,0,1-.74,1l1.09,1.54h-.56l-1-1.49h-.64v1.49H14Zm1.19,1.71a.66.66,0,1,0,0-1.31h-.71v1.31Z" style="fill:#fff"/><path d="M17.13,29.91h2.18v.4h-1.7v1.1H19v.4h-1.4v1.3h1.7v.4H17.13Z" style="fill:#fff"/><path d="M21,30.31H19.67v-.4h3v.4H21.43v3.2H21Z" style="fill:#fff"/><path d="M23.2,29.91h2.18v.4h-1.7v1.1h1.4v.4h-1.4v1.3h1.7v.4H23.2Z" style="fill:#fff"/><path d="M26.08,29.91h.28l2.14,2.68V29.91h.44v3.6h-.28l-2.14-2.68v2.68h-.44Z" style="fill:#fff"/><path d="M30.69,30.31H29.41v-.4h3v.4H31.17v3.2h-.48Z" style="fill:#fff"/><path d="M32.93,29.91h.48v3.6h-.48Z" style="fill:#fff"/><path d="M34.05,31.71A1.91,1.91,0,1,1,36,33.61,1.85,1.85,0,0,1,34.05,31.71Zm3.32,0A1.41,1.41,0,1,0,36,33.21,1.4,1.4,0,0,0,37.38,31.71Z" style="fill:#fff"/><path d="M38.52,29.91h.28l2.14,2.68V29.91h.44v3.6H41.1L39,30.83v2.68h-.44Z" style="fill:#fff"/><path d="M65.2,79.92h2.53a2.32,2.32,0,1,1,0,4.62H66.22v3h-1Zm2.53,3.76a1.45,1.45,0,1,0,0-2.91H66.22v2.91Z" style="fill:#fff"/><path d="M71.29,79.92h2.53a2.18,2.18,0,0,1,2.5,2.25,2,2,0,0,1-1.58,2.13l2.32,3.28H75.87l-2.19-3.16H72.31v3.16h-1Zm2.53,3.64a1.39,1.39,0,1,0,0-2.78H72.31v2.78Z" style="fill:#fff"/><path d="M77.58,83.75a4.06,4.06,0,1,1,4.07,4A3.93,3.93,0,0,1,77.58,83.75Zm7.07,0a3,3,0,1,0-3,3.19A3,3,0,0,0,84.65,83.75Z" style="fill:#fff"/><path d="M87.07,79.92H91.7v.85H88.09v2.33h3V84h-3v3.61h-1Z" style="fill:#fff"/><path d="M92.74,79.92h1v7.65h-1Z" style="fill:#fff"/><path d="M97.49,80.78H94.78v-.85h6.45v.85H98.51v6.8h-1Z" style="fill:#fff"/><path d="M60.74,74.61v1.61H60V74.61H58.4v-.74H60v-1.6h.74v1.6h1.6v.74Z" style="fill:#fff"/><path d="M63.15,76.76V76l1.73-1.79a3.27,3.27,0,0,0,1.2-2.12A1,1,0,0,0,65,71a2.67,2.67,0,0,0-1.69.71v-1.1A3.44,3.44,0,0,1,65.24,70a2,2,0,0,1,2.18,2,3.49,3.49,0,0,1-1.34,2.5l-1.35,1.28h2.84v1Z" style="fill:#fff"/><path d="M70.52,76.95a3.12,3.12,0,0,1-2-.68V75.18a2.64,2.64,0,0,0,1.84.8,1.28,1.28,0,0,0,1.35-1.33,1.12,1.12,0,0,0-1.19-1.21,1.2,1.2,0,0,0-1.18.7l-.59-.3V70.16h4v1H69.78v1.63a1.68,1.68,0,0,1,1.11-.36A2,2,0,0,1,73,74.61,2.3,2.3,0,0,1,70.52,76.95Z" style="fill:#fff"/><path d="M75.41,73.28A1.65,1.65,0,1,1,77,71.63,1.55,1.55,0,0,1,75.41,73.28Zm0-2.61c-.37,0-.65.28-.65,1s.28,1,.65,1,.66-.27.66-1S75.79,70.68,75.41,70.68ZM75.28,77l-.43-.22L79.07,70l.44.22Zm3.66-.07a1.65,1.65,0,1,1,1.54-1.65A1.55,1.55,0,0,1,78.95,76.89Zm0-2.61c-.37,0-.65.28-.65,1s.27,1,.65,1,.66-.27.66-1S79.32,74.28,78.95,74.28Z" style="fill:#fff"/><path d="M83.92,75.15v1.61h-.67V75.15h-.39v-.43h.39V74h.67v.69h.4v.43Z" style="fill:#fff"/><path d="M85.91,76.85a1.12,1.12,0,1,1,1.21-1.12A1.15,1.15,0,0,1,85.91,76.85Zm0-1.73a.62.62,0,0,0,0,1.23c.32,0,.53-.24.53-.62A.54.54,0,0,0,85.91,75.12Z" style="fill:#fff"/><path d="M91.49,76.92a2.86,2.86,0,0,1-1.57-.44v-1a2.83,2.83,0,0,0,1.45.46c1,0,1.69-.56,1.74-2.28a1.87,1.87,0,0,1-1.53.74,2,2,0,0,1-2.07-2.21,2.27,2.27,0,0,1,2.4-2.26c1.06,0,2.5.54,2.5,3.12C94.41,75.42,93.4,76.92,91.49,76.92ZM92,70.84a1.18,1.18,0,0,0-1.16,1.32c0,.76.37,1.33,1.11,1.33a1.18,1.18,0,0,0,1.19-1.21C93.11,71.35,92.57,70.84,92,70.84Z" style="fill:#fff"/><path d="M97.43,76.95a3.12,3.12,0,0,1-2-.68V75.18a2.64,2.64,0,0,0,1.84.8,1.28,1.28,0,0,0,1.35-1.33,1.12,1.12,0,0,0-1.19-1.21,1.2,1.2,0,0,0-1.18.7l-.59-.3V70.16h4v1H96.69v1.63a1.68,1.68,0,0,1,1.11-.36,2,2,0,0,1,2.1,2.15A2.3,2.3,0,0,1,97.43,76.95Z" style="fill:#fff"/><path d="M102.32,73.28a1.65,1.65,0,1,1,1.54-1.65A1.55,1.55,0,0,1,102.32,73.28Zm0-2.61c-.37,0-.65.28-.65,1s.28,1,.65,1,.66-.27.66-1S102.7,70.68,102.32,70.68ZM102.19,77l-.43-.22L106,70l.44.22Zm3.66-.07a1.65,1.65,0,1,1,1.54-1.65A1.55,1.55,0,0,1,105.86,76.89Zm0-2.61c-.37,0-.65.28-.65,1s.27,1,.65,1,.66-.27.66-1S106.23,74.28,105.86,74.28Z" style="fill:#fff"/></svg>