<svg xmlns="http://www.w3.org/2000/svg" viewBox="0 0 35.02 35.02"><defs><style>.cls-1{fill:none;stroke:#09a6e0;stroke-miterlimit:10;}.cls-2{fill:#09a6e0;}</style></defs><title>Asset 30</title><g id="Layer_2" data-name="Layer 2"><g id="rounded"><path class="cls-1" d="M17.51,34.52a17,17,0,1,0-17-17,17,17,0,0,0,17,17"/><path class="cls-2" d="M13.4,14.63h1.76V12.92a4.57,4.57,0,0,1,.57-2.64A3.13,3.13,0,0,1,18.46,9a11.05,11.05,0,0,1,3.15.32l-.44,2.6a5.94,5.94,0,0,0-1.42-.21c-.68,0-1.3.25-1.3.93v2h2.8l-.2,2.54H18.46V26h-3.3V17.17H13.4Z"/></g></g></svg>