<svg id="68f56b79-5826-409d-9926-a22ef6e7e88e" data-name="Layer 1" xmlns="http://www.w3.org/2000/svg" viewBox="0 0 24 35"><title>icons</title><path d="M24,23.79h0L21,17.88V12a.5.5,0,0,0-.5-.5H18v-2h1.5A1.5,1.5,0,0,0,21,8V7a1.5,1.5,0,0,0-1.5-1.5h-4A1.5,1.5,0,0,0,14,7V8a1.5,1.5,0,0,0,1.5,1.5H17v2H10V8a.5.5,0,0,0-.19-.39.49.49,0,0,0-.43-.09l-4,1A.5.5,0,0,0,5,9v2.5H3.5A.5.5,0,0,0,3,12v5.88L.05,23.78H0A.49.49,0,0,0,0,24v5a.5.5,0,0,0,.5.5h23A.5.5,0,0,0,24,29V24A.49.49,0,0,0,24,23.79ZM15,8V7a.51.51,0,0,1,.5-.5h4A.5.5,0,0,1,20,7V8a.5.5,0,0,1-.5.5h-4A.5.5,0,0,1,15,8ZM6,9.39l3-.75V11.5H6ZM4,12.5H20v5H4Zm-.19,6H20.19l2.5,5H1.31ZM23,28.5H1v-4H23Z" style="fill:#003058"/><path d="M8.5,27.5A.5.5,0,0,0,9,27v-.5h5V27a.5.5,0,0,0,1,0V26a.5.5,0,0,0-.5-.5h-6A.5.5,0,0,0,8,26v1A.5.5,0,0,0,8.5,27.5Z" style="fill:#003058"/><rect x="7" y="21.5" width="1" height="1" style="fill:#003058"/><rect x="4" y="21.5" width="1" height="1" style="fill:#003058"/><rect x="10" y="21.5" width="1" height="1" style="fill:#003058"/><rect x="13" y="21.5" width="1" height="1" style="fill:#003058"/><rect x="16" y="21.5" width="1" height="1" style="fill:#003058"/><rect x="19" y="21.5" width="1" height="1" style="fill:#003058"/><rect x="16" y="19.5" width="1" height="1" style="fill:#003058"/><rect x="13" y="19.5" width="1" height="1" style="fill:#003058"/><rect x="10" y="19.5" width="1" height="1" style="fill:#003058"/><rect x="7" y="19.5" width="1" height="1" style="fill:#003058"/><path d="M11,13.5H5.5A.5.5,0,0,0,5,14v2a.5.5,0,0,0,.5.5H11a.5.5,0,0,0,.5-.5V14A.5.5,0,0,0,11,13.5Zm-.5,2H6v-1h4.5Z" style="fill:#003058"/><path d="M18.5,14.5H14a.5.5,0,0,0,0,1h4.5a.5.5,0,0,0,0-1Z" style="fill:#003058"/></svg>