<svg id="e1e81621-ad61-4d32-a0dc-c6f6cabaa9a1" data-name="Layer 1" xmlns="http://www.w3.org/2000/svg" viewBox="0 0 18 35"><title>icons</title><path d="M18,11.81a.5.5,0,0,0-.11-.16l-6-6a.5.5,0,0,0-.35-.15H.5A.5.5,0,0,0,0,6V29a.5.5,0,0,0,.5.5h17A.5.5,0,0,0,18,29V12A.5.5,0,0,0,18,11.81Zm-6-4.6,4.29,4.29H12ZM1,28.5V6.5H11V12a.5.5,0,0,0,.5.5H17v16Z" style="fill:#003058"/><path d="M4.5,13.5H9a.5.5,0,0,0,0-1H4.5a.5.5,0,0,0,0,1Z" style="fill:#003058"/><path d="M13.5,15.5h-9a.5.5,0,0,0,0,1h9a.5.5,0,0,0,0-1Z" style="fill:#003058"/><path d="M13.5,18.5h-9a.5.5,0,0,0,0,1h9a.5.5,0,0,0,0-1Z" style="fill:#003058"/><path d="M13.5,21.5h-9a.5.5,0,0,0,0,1h9a.5.5,0,0,0,0-1Z" style="fill:#003058"/><path d="M13.5,24.5h-9a.5.5,0,0,0,0,1h9a.5.5,0,0,0,0-1Z" style="fill:#003058"/></svg>