<svg id="4312364a-8976-49b4-8752-487a2be3aacb" data-name="Layer 1" xmlns="http://www.w3.org/2000/svg" viewBox="0 0 24 35"><title>icons</title><path d="M10.35,23.65a.5.5,0,0,0-.71,0l-2.5,2.51A.5.5,0,0,0,7.5,27H8.79L7.15,28.64a.5.5,0,1,0,.71.71l2.5-2.49A.5.5,0,0,0,10,26H8.71l1.65-1.65A.5.5,0,0,0,10.35,23.65Z" style="fill:#003058"/><path d="M15.35,23.65a.5.5,0,0,0-.71,0l-2.5,2.51a.5.5,0,0,0,.35.85h1.29l-1.64,1.63a.5.5,0,1,0,.71.71l2.5-2.49A.5.5,0,0,0,15,26H13.71l1.65-1.65A.5.5,0,0,0,15.35,23.65Z" style="fill:#003058"/><path d="M20.35,23.65a.5.5,0,0,0-.71,0l-2.5,2.51a.5.5,0,0,0,.35.85h1.29l-1.64,1.63a.5.5,0,1,0,.71.71l2.5-2.49A.5.5,0,0,0,20,26H18.71l1.65-1.65A.5.5,0,0,0,20.35,23.65Z" style="fill:#003058"/><path d="M3.35,8.86a.5.5,0,0,0,0-.71l-.78-.78a.5.5,0,1,0-.71.71l.78.78a.5.5,0,0,0,.71,0Z" style="fill:#003058"/><path d="M12,9a.5.5,0,0,0,.35-.15l.78-.78a.5.5,0,1,0-.71-.71l-.78.78A.5.5,0,0,0,12,9Z" style="fill:#003058"/><path d="M22.35,18.52A3.5,3.5,0,0,0,19,14H19A6,6,0,0,0,7.57,15.58,5.47,5.47,0,0,0,3,21a5.53,5.53,0,0,0,2.7,4.73.5.5,0,0,0,.51-.86A4.53,4.53,0,0,1,4,21a4.48,4.48,0,0,1,4.07-4.48.5.5,0,0,0,.45-.46,5,5,0,0,1,5-4.57,5,5,0,0,1,4.66,3.21.5.5,0,0,0,.53.32,2.5,2.5,0,0,1,2.6,3.47.5.5,0,0,0,.18.61,3.5,3.5,0,0,1,.21,5.63.5.5,0,1,0,.62.78,4.5,4.5,0,0,0,0-7Z" style="fill:#003058"/><path d="M3.76,15.5a.5.5,0,0,0,.83-.56,3.5,3.5,0,0,1,5.13-4.65.5.5,0,0,0,.63-.77,4.5,4.5,0,0,0-6.59,6Z" style="fill:#003058"/><path d="M1.5,11.5H.5a.5.5,0,0,0,0,1h1a.5.5,0,0,0,0-1Z" style="fill:#003058"/><path d="M7.5,7.5A.5.5,0,0,0,8,7V6A.5.5,0,0,0,7,6V7A.5.5,0,0,0,7.5,7.5Z" style="fill:#003058"/></svg>