<svg id="28f74b82-e0fa-458d-b986-5410453f34f5" data-name="Layer 1" xmlns="http://www.w3.org/2000/svg" viewBox="0 0 24 35"><title>icons</title><path d="M24,11h0a.5.5,0,0,0-.05-.2l0-.06a.48.48,0,0,0-.11-.11l0,0h0l0,0-11.5-5a.5.5,0,0,0-.4,0l-11.5,5,0,0h0l0,0a.48.48,0,0,0-.1.11l0,.06A.5.5,0,0,0,0,11H0V24a.5.5,0,0,0,.31.46l12,5a.5.5,0,0,0,.4,0l11-5A.5.5,0,0,0,24,24V11ZM12,6.55,22.27,11l-4,1.81L8.39,8.11Zm.49,8.91L1.78,11l5.4-2.35,9.92,4.72ZM1,11.75l11,4.58V28.25L1,23.67ZM23,23.68,13,28.22V16.32l10-4.55Z" style="fill:#003058"/><path d="M9.72,18.05l-6-3A.5.5,0,0,0,3,15.5v5a.5.5,0,0,0,.28.45l6,3A.5.5,0,0,0,9.5,24a.5.5,0,0,0,.5-.5v-5A.5.5,0,0,0,9.72,18.05ZM9,22.69l-5-2.5V16.31l5,2.5Z" style="fill:#003058"/></svg>