<svg id="bf003d27-27cd-4499-9bdf-482b7ab8f78a" data-name="Layer 1" xmlns="http://www.w3.org/2000/svg" viewBox="0 0 11 35"><title>icons</title><path d="M7,21.26V8A2.5,2.5,0,0,0,2,8V21.26a4.5,4.5,0,1,0,5,0ZM4.5,28.5A3.5,3.5,0,0,1,2.75,22,.5.5,0,0,0,3,21.54V8A1.5,1.5,0,0,1,6,8V21.54a.5.5,0,0,0,.25.43A3.5,3.5,0,0,1,4.5,28.5Z" style="fill:#003058"/><path d="M5,23.59V9A.5.5,0,0,0,4,9V23.59a1.5,1.5,0,1,0,1,0ZM4.5,25.5A.5.5,0,1,1,5,25,.5.5,0,0,1,4.5,25.5Z" style="fill:#003058"/><path d="M10.5,18.5h-2a.5.5,0,0,0,0,1h2a.5.5,0,0,0,0-1Z" style="fill:#003058"/><path d="M10.5,13.5h-2a.5.5,0,0,0,0,1h2a.5.5,0,0,0,0-1Z" style="fill:#003058"/><path d="M8.5,9.5h2a.5.5,0,0,0,0-1h-2a.5.5,0,0,0,0,1Z" style="fill:#003058"/></svg>