<svg id="180872a4-393f-4855-b5fe-2c2de74b07fc" data-name="Layer 1" xmlns="http://www.w3.org/2000/svg" viewBox="0 0 24 35"><title>icons</title><path d="M22,7H2A2,2,0,0,0,0,9.09V23.91A2,2,0,0,0,2,26h9.5v1H5a.5.5,0,0,0,0,1H19a.5.5,0,0,0,0-1H12.5V26H22a2,2,0,0,0,2-2.09V9.09A2,2,0,0,0,22,7ZM2,8H22a1,1,0,0,1,1,1.09V21H1V9.09A1,1,0,0,1,2,8ZM22,25H2a1,1,0,0,1-1-1.09V22H23v1.91A1,1,0,0,1,22,25Z" style="fill:#003058"/><path d="M12,22.5a1,1,0,1,0,1,1A1,1,0,0,0,12,22.5Zm0,1h0Z" style="fill:#003058"/><path d="M7,18.43V19a.5.5,0,0,0,1,0v-.57a2,2,0,0,0,0-3.86V10a.5.5,0,0,0-1,0v4.57a2,2,0,0,0,0,3.86Zm.5-2.93a1,1,0,1,1-1,1A1,1,0,0,1,7.5,15.5Z" style="fill:#003058"/><path d="M11.5,14.43V19a.5.5,0,0,0,1,0V14.43a2,2,0,0,0,0-3.86V10a.5.5,0,0,0-1,0v.57a2,2,0,0,0,0,3.86ZM12,11.5a1,1,0,1,1-1,1A1,1,0,0,1,12,11.5Z" style="fill:#003058"/><path d="M16,18.43V19a.5.5,0,0,0,1,0v-.57a2,2,0,0,0,0-3.86V10a.5.5,0,1,0-1,0v4.57a2,2,0,0,0,0,3.86Zm.5-2.93a1,1,0,1,1-1,1A1,1,0,0,1,16.5,15.5Z" style="fill:#003058"/></svg>