<svg id="9ef7ceaa-bf75-4b60-91bd-c8a6cd1c6b3a" data-name="Layer 1" xmlns="http://www.w3.org/2000/svg" viewBox="0 0 596.5 407.16"><title>icons_EmailEnvelope1</title><g id="ec946be6-2c6d-4a2d-b2f1-4a02eedfc561" data-name="Layer 2"><g id="82d83447-e217-4de3-90ff-f9175b81686d" data-name="Layer 1-2"><path d="M541.45,406.66H54.05A54.36,54.36,0,0,1,0,352.61V54.55A54.36,54.36,0,0,1,54.05.5h487.4a54.36,54.36,0,0,1,54,54.05V352.3A54.36,54.36,0,0,1,541.45,406.66Zm-487.4-379A27.18,27.18,0,0,0,26.87,54.86V352.61A27.18,27.18,0,0,0,54.05,379.8h487.4a27.18,27.18,0,0,0,27.18-27.19h0V54.55a27.18,27.18,0,0,0-27.18-27.18H54.05Z" transform="translate(0.5)" style="fill:#00a7e1;stroke:#00a7e1;stroke-miterlimit:10"/><path d="M296.81,257.63a13.38,13.38,0,0,1-8.43-2.81L18.43,38.3A13.94,13.94,0,0,1,35.31,16.12h0L296.81,227,560.19,16.12a13.57,13.57,0,0,1,16.88,21.25h0L306.19,254.82A13.43,13.43,0,0,1,296.81,257.63Z" transform="translate(0.5)" style="fill:#00a7e1;stroke:#00a7e1;stroke-miterlimit:10"/></g></g></svg>