<svg id="7473976f-873f-4832-a5b2-775926ee006c" data-name="Layer 1" xmlns="http://www.w3.org/2000/svg" viewBox="0 0 24 35"><title>icons</title><path d="M20.5,11H16V9.5A2.5,2.5,0,0,0,13.5,7h-3A2.5,2.5,0,0,0,8,9.5V11H3.5A3.5,3.5,0,0,0,0,14.5v10A3.5,3.5,0,0,0,3.5,28h17A3.5,3.5,0,0,0,24,24.5v-10A3.5,3.5,0,0,0,20.5,11ZM9,9.5A1.5,1.5,0,0,1,10.5,8h3A1.5,1.5,0,0,1,15,9.5V11H9Zm14,15A2.5,2.5,0,0,1,20.5,27H3.5A2.5,2.5,0,0,1,1,24.5v-10A2.5,2.5,0,0,1,3.5,12h17A2.5,2.5,0,0,1,23,14.5Z" style="fill:#003058"/><path d="M12.9,17.83a.5.5,0,0,0,1,0A2.4,2.4,0,0,0,12,15.48v-1a.5.5,0,0,0-1,0v1a2.4,2.4,0,0,0,0,4.69v2.76a1.4,1.4,0,0,1-.9-1.3.5.5,0,0,0-1,0A2.4,2.4,0,0,0,11,24v1a.5.5,0,0,0,1,0V24a2.4,2.4,0,0,0,0-4.69V16.52A1.4,1.4,0,0,1,12.9,17.83Zm-2.8,0a1.4,1.4,0,0,1,.9-1.3v2.61A1.4,1.4,0,0,1,10.1,17.83Zm2.8,3.8a1.4,1.4,0,0,1-.9,1.3V20.32A1.4,1.4,0,0,1,12.9,21.63Z" style="fill:#003058"/></svg>