<svg id="ad62b2bd-31eb-4b42-bd08-281b86c4537d" data-name="Layer 1" xmlns="http://www.w3.org/2000/svg" viewBox="0 0 23 35"><title>icons</title><path d="M7.31,14.46l5,2a.5.5,0,0,0,.37,0l5-2A.5.5,0,0,0,18,14V7.48a.49.49,0,0,0,0-.17v0a.5.5,0,0,0-.14-.16h0l-.05,0L17.64,7l-5-1.5a.5.5,0,0,0-.29,0L7.36,7l-.1.06-.05,0h0a.5.5,0,0,0-.14.16v0a.49.49,0,0,0,0,.17V14A.5.5,0,0,0,7.31,14.46ZM8,8.17l4,1.2v5.89l-4-1.6Zm9,5.49-4,1.6V9.37l4-1.2ZM12.5,6.52l3.26,1-3.23,1h-.06l-3.23-1Z" style="fill:#003058"/><path d="M23,18a.49.49,0,0,0-.05-.21l0,0a.48.48,0,0,0-.11-.12l0,0,0,0-.06,0-4-1.5a.51.51,0,0,0-.35,0l-4,1.5-.06,0,0,0,0,0a.48.48,0,0,0-.11.12l0,0A.49.49,0,0,0,14,18h0v4.5a.5.5,0,0,0,.28.45l4,2a.5.5,0,0,0,.45,0l4-2A.5.5,0,0,0,23,22.5V18Zm-4.5-1,2.58,1L18.5,19h0l-2.57-1ZM15,18.72l3,1.13v3.84l-3-1.5Zm7,3.47-3,1.5V19.85l3-1.12Z" style="fill:#003058"/><path d="M12.95,18.77h0a.5.5,0,0,0-.13-.15v0l-.05,0-.08,0-6-2a.5.5,0,0,0-.32,0l-6,2-.08,0-.05,0v0a.5.5,0,0,0-.13.15h0A.5.5,0,0,0,0,19v8a.5.5,0,0,0,.34.47l6,2,.16,0,.16,0,6-2A.5.5,0,0,0,13,27V19A.5.5,0,0,0,12.95,18.77ZM6.5,17.53,10.92,19l-4.4,1.47h0L2.08,19ZM1,19.69l5,1.67v6.95L1,26.64Zm11,6.95L7,28.31V21.36l5-1.67Z" style="fill:#003058"/></svg>