<svg id="15ebf2eb-3262-4b96-be7f-55b651f587f6" data-name="Layer 1" xmlns="http://www.w3.org/2000/svg" viewBox="0 0 24 35"><title>icons</title><path d="M10.95,16.5h0a.5.5,0,0,1-.38-.18c-.38-.46-3.75-4.56-3.75-6.68a4.14,4.14,0,1,1,8.27,0c0,2.13-3.37,6.22-3.75,6.68A.5.5,0,0,1,10.95,16.5Zm0-10A3.14,3.14,0,0,0,7.81,9.64c0,1.33,2,4.14,3.14,5.57,1.13-1.44,3.14-4.24,3.14-5.57A3.14,3.14,0,0,0,10.95,6.5Z" style="fill:#003058"/><path d="M10.95,11.5a1.86,1.86,0,1,1,1.86-1.86A1.87,1.87,0,0,1,10.95,11.5Zm0-2.73a.86.86,0,1,0,.86.86A.86.86,0,0,0,10.95,8.77Z" style="fill:#003058"/><path d="M19.95,22.5h0a.5.5,0,0,1-.38-.18c-.35-.42-3.39-4.11-3.39-6a3.77,3.77,0,0,1,7.55,0c0,1.93-3,5.63-3.39,6A.5.5,0,0,1,19.95,22.5Zm0-9a2.78,2.78,0,0,0-2.77,2.77c0,1.07,1.57,3.41,2.77,4.93,1-1.3,2.77-3.76,2.77-4.93A2.78,2.78,0,0,0,19.95,13.5Z" style="fill:#003058"/><path d="M19.95,18a1.73,1.73,0,1,1,1.73-1.73A1.73,1.73,0,0,1,19.95,18Zm0-2.45a.73.73,0,1,0,.73.73A.73.73,0,0,0,19.95,15.55Z" style="fill:#003058"/><path d="M4.95,29.5a.5.5,0,0,1-.5-.5c0-1-1-2.47-1.92-3.89a12.84,12.84,0,0,1-2.16-4.2,4.64,4.64,0,0,1,.91-3.83A4.65,4.65,0,0,1,4.95,15.5,4.65,4.65,0,0,1,8.59,17a4.66,4.66,0,0,1,.94,3.86h0a12.32,12.32,0,0,1-2,3.93c-1,1.53-2.05,3.12-2.05,4.17A.5.5,0,0,1,4.95,29.5Zm0-13A3.63,3.63,0,0,0,2,17.72a3.65,3.65,0,0,0-.7,3,12.31,12.31,0,0,0,2,3.83,22.54,22.54,0,0,1,1.58,2.61,24.17,24.17,0,0,1,1.72-2.88,12.18,12.18,0,0,0,1.88-3.54h0a3.68,3.68,0,0,0-.72-3A3.62,3.62,0,0,0,4.95,16.5Z" style="fill:#003058"/><path d="M4.95,22.28a2.37,2.37,0,1,1,2.37-2.37A2.38,2.38,0,0,1,4.95,22.28Zm0-3.75a1.37,1.37,0,1,0,1.37,1.37A1.37,1.37,0,0,0,4.95,18.54Z" style="fill:#003058"/><path d="M16.77,21.27a.5.5,0,0,1-.28-.08l-4.91-3.27a.5.5,0,1,1,.55-.83l4.91,3.27a.5.5,0,0,1-.28.92Z" style="fill:#003058"/><path d="M7.5,28.31a.5.5,0,0,1-.21-1l9.95-4.64a.5.5,0,0,1,.42.91L7.71,28.26A.5.5,0,0,1,7.5,28.31Z" style="fill:#003058"/></svg>