<svg id="f7b54eff-e44e-49d1-9563-1b52597cbdf8" data-name="Layer 1" xmlns="http://www.w3.org/2000/svg" viewBox="0 0 24 35"><title>icons</title><path d="M12,18.5a1,1,0,0,0-1,1,1,1,0,0,0,.5.85V22a.5.5,0,0,0,1,0V20.35a1,1,0,0,0,.5-.85A1,1,0,0,0,12,18.5Zm0,.5v.5h0Z" style="fill:#003058"/><path d="M8.5,28.5H1V21a.5.5,0,0,0-1,0v8a.5.5,0,0,0,.5.5h8a.5.5,0,0,0,0-1Z" style="fill:#003058"/><path d="M.5,14.5A.5.5,0,0,0,1,14V6.5H8.5a.5.5,0,0,0,0-1H.5A.5.5,0,0,0,0,6v8A.5.5,0,0,0,.5,14.5Z" style="fill:#003058"/><path d="M23.5,20.5a.5.5,0,0,0-.5.5v7.5H15.5a.5.5,0,0,0,0,1h8A.5.5,0,0,0,24,29V21A.5.5,0,0,0,23.5,20.5Z" style="fill:#003058"/><path d="M23.5,5.5h-8a.5.5,0,0,0,0,1H23V14a.5.5,0,0,0,1,0V6A.5.5,0,0,0,23.5,5.5Z" style="fill:#003058"/><path d="M8,15.5H6.5A.5.5,0,0,0,6,16v9a.5.5,0,0,0,.5.5h11A.5.5,0,0,0,18,25V16a.5.5,0,0,0-.5-.5H16v-2a4,4,0,0,0-8,0Zm9,9H7v-8H17Zm-8-11a3,3,0,0,1,6,0v2H9Z" style="fill:#003058"/></svg>