<svg id="088beb4b-d03a-4384-a1a7-549be28daa38" data-name="Layer 1" xmlns="http://www.w3.org/2000/svg" viewBox="0 0 20 35"><title>icons</title><path d="M8,20a.5.5,0,0,1-.35-.15l-2.5-2.5a.5.5,0,0,1,.71-.71L8,18.8l7.15-6.67a.5.5,0,0,1,.68.73l-7.5,7A.5.5,0,0,1,8,20Z" style="fill:#003058"/><path d="M10,29.5a.5.5,0,0,1-.23-.06A18.23,18.23,0,0,1,0,13.26V6a.5.5,0,0,1,.5-.5h19A.5.5,0,0,1,20,6v7.26a18.24,18.24,0,0,1-9.77,16.18A.5.5,0,0,1,10,29.5ZM1,6.5v6.76a17.23,17.23,0,0,0,9,15.17,17.24,17.24,0,0,0,9-15.17V6.5Z" style="fill:#003058"/></svg>