<svg id="03eb6c53-971a-4007-9164-d64e803eb84b" data-name="Layer 1" xmlns="http://www.w3.org/2000/svg" viewBox="0 0 264 166"><title>OurOffering</title><line x1="156.86" y1="92.08" x2="240.93" y2="142.35" style="fill:none;stroke:#b6e8fb;stroke-miterlimit:10;stroke-width:2px"/><g style="isolation:isolate"><path d="M240.4,142.2a7.33,7.33,0,0,1-6.67,0c-1.84-1.07-1.83-2.8,0-3.86a7.33,7.33,0,0,1,6.67,0c1.84,1.06,1.83,2.79,0,3.86Z" style="fill:#b6e8fb"/></g><line x1="199" y1="117" x2="249" y2="89" style="fill:none;stroke:#b6e8fb;stroke-miterlimit:10;stroke-width:2px"/><g style="isolation:isolate"><path d="M253.8,90a7.33,7.33,0,0,1-6.67,0c-1.84-1.07-1.83-2.8,0-3.86a7.33,7.33,0,0,1,6.67,0c1.84,1.06,1.83,2.79,0,3.86Z" style="fill:#b6e8fb"/></g><line x1="92.79" y1="80" x2="8.73" y2="29.73" style="fill:none;stroke:#b6e8fb;stroke-miterlimit:10;stroke-width:2px"/><g style="isolation:isolate"><path d="M9.25,29.88a7.33,7.33,0,0,1,6.67,0c1.84,1.07,1.83,2.8,0,3.86a7.33,7.33,0,0,1-6.67,0c-1.84-1.06-1.83-2.79,0-3.86Z" style="fill:#b6e8fb"/></g><line x1="50.65" y1="55.08" x2="38" y2="62" style="fill:none;stroke:#b6e8fb;stroke-miterlimit:10;stroke-width:2px"/><g style="isolation:isolate"><path d="M33.85,60.08a7.33,7.33,0,0,1,6.67,0c1.84,1.07,1.83,2.8,0,3.86a7.33,7.33,0,0,1-6.67,0c-1.84-1.06-1.83-2.79,0-3.86Z" style="fill:#b6e8fb"/></g><path d="M26,156v-1.21l2.83-2.93c1-1.06,2-2.13,2-3.48a1.62,1.62,0,0,0-1.74-1.78,4.4,4.4,0,0,0-2.78,1.17V146a5.68,5.68,0,0,1,3.16-1.1c2,0,3.56,1.21,3.56,3.24a5.61,5.61,0,0,1-2.2,4.09l-2.21,2.09h4.64V156Z" style="fill:#666"/><path d="M41.42,153.35V156H39.33v-2.65h-5v-1.11l5.35-7.13h1.71v6.71h2v1.53Zm-2.09-5.45-2.94,3.92h2.94Z" style="fill:#666"/><path d="M48.8,145.1v9.28H45.71v1.13h-.89V145.1Zm-.89.87h-2.2v3.29h2.2Zm-2.2,7.54h2.2v-3.39h-2.2Zm7.92-4.82h3.68v.85H49.05v-.85h3.66v-1.92H49.65v-.84h3.06v-1.74l1.2.07c0,.1-.1.17-.28.2v1.47h3.12v.84H53.63Zm2.23,1.24c0,.1-.09.17-.27.19v1.2h1.7v.84h-1.7v3.92c0,.58-.13.84-.56,1a8.32,8.32,0,0,1-2.3.16,3.13,3.13,0,0,0-.32-.88l1.4,0c.79,0,.86,0,.86-.29v-3.91H49.11v-.84h5.56v-1.45Zm-4,5.82A10.7,10.7,0,0,0,50,153.23l.76-.45a10.74,10.74,0,0,1,1.89,2.46Z" style="fill:#666"/><path d="M64.13,149.63H60v7.58H59V144.79h5.1Zm-.9-4.09H60v1.29h3.28ZM60,148.88h3.28v-1.34H60Zm7.48,7H63v.74h-.87v-5.87h5.28Zm-.89-4.37H63v1.4h3.52ZM63,155.1h3.52v-1.47H63Zm7.66-10.31v11.1c0,1.24-.54,1.3-3,1.3a3.12,3.12,0,0,0-.32-1l1.25,0c1,0,1.1,0,1.1-.35v-6.25H65.46v-4.85Zm-.94.75H66.37v1.29h3.37Zm-3.37,3.36h3.37v-1.36H66.37Z" style="fill:#666"/><path d="M85.24,153.06V154H80v3.21h-1V154H72.41v-.92h2.36v-3.85h4.28v-2.3H75.44a12.89,12.89,0,0,1-2.24,2.83,5.85,5.85,0,0,0-.76-.62,12.79,12.79,0,0,0,3.26-5l1.19.38c0,.13-.18.15-.32.13a11.79,11.79,0,0,1-.63,1.35h8.63v.93H80v2.3h4.26v.89H80v3Zm-9.52,0h3.33v-3H75.72Z" style="fill:#666"/><path d="M93.25,146.73h5.24v6.59h-1v-.82H93.25v4.66h-1V152.5H88.05v.89h-.94v-6.66h5.16v-2.57l1.26.09c0,.1-.1.17-.28.19Zm-5.2,4.83h4.22v-3.91H88.05Zm5.2,0h4.27v-3.91H93.25Z" style="fill:#666"/><path d="M102.49,149.21v-2a12.23,12.23,0,0,1-1.42,1.38,5,5,0,0,0-.7-.59,10.74,10.74,0,0,0,3-3.81l1.1.4c0,.08-.14.14-.31.11a10.62,10.62,0,0,1-.68,1.16h9.1v.86h-1.5v2.52h2v.85h-2v2.55H113v.85H100.71v-.85h1.78v-2.55h-2v-.85Zm.58,5.15a7,7,0,0,1-1.8,2.85l-.87-.38a6.23,6.23,0,0,0,1.79-2.71Zm.28-7.67v2.52H105v-2.52Zm0,3.37v2.55H105v-2.55Zm1.6,7a17.66,17.66,0,0,0-.29-2.59l.85-.08a13.58,13.58,0,0,1,.36,2.53Zm2.66-10.37h-1.75v2.52h1.75Zm0,3.37h-1.75v2.55h1.75Zm.83,7a14.32,14.32,0,0,0-.88-2.61l.88-.17a13.67,13.67,0,0,1,.92,2.57Zm1.79-7.87v-2.52h-1.79v2.52Zm0,3.4v-2.55h-1.79v2.55Zm2.14,4.61a15.34,15.34,0,0,0-1.89-2.84l.87-.31a16.06,16.06,0,0,1,2,2.8Z" style="fill:#666"/><path d="M116.21,149.12a17.93,17.93,0,0,1-1.71,2.34,7.75,7.75,0,0,0-.49-.88,18.73,18.73,0,0,0,3.5-6.3l1.12.37a.31.31,0,0,1-.32.13,26.7,26.7,0,0,1-1.29,2.9l.38.1c0,.08-.1.15-.28.17v9.28h-.91Zm11-.38h-3.6a15.45,15.45,0,0,0,4,5.86,3.7,3.7,0,0,0-.71.76,17.64,17.64,0,0,1-3.84-5.93v7.78h-.94v-7.58a16.34,16.34,0,0,1-3.87,5.78,4.71,4.71,0,0,0-.68-.73,14.6,14.6,0,0,0,4-5.94H118v-.91h4.09v-3.47l1.21.08c0,.1-.09.17-.27.2v3.19h4.2Z" style="fill:#666"/><path d="M135.63,146.73a.37.37,0,0,1-.35.22c-.51,4.36-2,8.15-4.29,8.15-1.18,0-2.24-1.17-2.24-3.39a6.14,6.14,0,0,1,6.3-6.17c4,0,5.8,2.56,5.8,5.29,0,3.34-1.93,4.95-5.32,5.73a6.27,6.27,0,0,0-.59-.85c3.22-.62,4.87-2.19,4.87-4.84,0-2.31-1.48-4.41-4.76-4.41a2.86,2.86,0,0,0-.42,0Zm-1.35-.19a5.16,5.16,0,0,0-4.58,5.15c0,1.49.65,2.43,1.32,2.43C132.71,154.12,133.93,150.38,134.28,146.54Z" style="fill:#666"/><path d="M144.21,149.12a17.93,17.93,0,0,1-1.71,2.34,7.75,7.75,0,0,0-.49-.88,18.73,18.73,0,0,0,3.5-6.3l1.12.37a.31.31,0,0,1-.32.13,26.7,26.7,0,0,1-1.29,2.9l.38.1c0,.08-.1.15-.28.17v9.28h-.91Zm11,2.94h-3.45a11.12,11.12,0,0,0,3.84,3.79,3.67,3.67,0,0,0-.67.75,12.65,12.65,0,0,1-3.77-4v4.62h-.94v-4.55a12,12,0,0,1-4,3.93,4.28,4.28,0,0,0-.66-.75,10.76,10.76,0,0,0,4-3.76H146v-.88h4.23v-1.62h-3.15v-4.71h7.37v4.71h-3.28v1.62h4ZM148,145.71v3h5.53v-3Z" style="fill:#666"/><path d="M160.85,146.54v.79h-4.56v-.79Zm-.38,5.72v4.1h-2.84V157h-.78v-4.78Zm-3.61-3v-.77h3.63v.77Zm0,1.91v-.77h3.63v.77Zm3.59-6.45v.77H157v-.77Zm-.77,8.36h-2.05v2.53h2.05Zm2.42-.71v-3.47a8.3,8.3,0,0,1-1,1,3.74,3.74,0,0,0-.56-.57,8.65,8.65,0,0,0,2.15-2.9l.51.18v-.73h-2.14v-.74h2.14v-.93l1.12.07c0,.1-.08.17-.26.19v.67h2.21v-.93l1.14.07c0,.1-.09.17-.27.2v.66h2.06v.74h-2.06v.81h-.87v-.81h-2.21v.81h-.59l.21.07c0,.09-.13.13-.28.12q-.19.38-.42.75h1.81c.19-.38.4-.85.53-1.18l1.05.31c0,.09-.11.14-.27.14-.12.21-.28.48-.44.73h3.18v.67h-3V149h2.69v.59h-2.69v.73h2.69v.6h-2.69v.76h3.37v.67Zm-.74.66H168l.16,0c.07,0,.14.08.6.29a.37.37,0,0,1-.14.14,6.31,6.31,0,0,1-2.39,2.24,14.42,14.42,0,0,0,3.26.83,3.29,3.29,0,0,0-.54.76,14,14,0,0,1-3.63-1.14,17.38,17.38,0,0,1-4.22,1.15,2.72,2.72,0,0,0-.42-.74,15.93,15.93,0,0,0,3.78-.89,6.81,6.81,0,0,1-1.86-1.66l.49-.2h-1.69Zm3.61-4v-.73h-2V149Zm0,1.32v-.73h-2v.73Zm0,1.36v-.76h-2v.76Zm-1.6,2.07a6.13,6.13,0,0,0,1.94,1.49,6.1,6.1,0,0,0,2-1.49Z" style="fill:#666"/><path d="M173.19,149.29c.36.52,1.34,2.07,1.55,2.45l-.5.7c-.19-.45-.66-1.36-1.05-2.06v6.78h-.87v-6.82a16.1,16.1,0,0,1-1.66,4.09,5.37,5.37,0,0,0-.47-.78,17.16,17.16,0,0,0,2-5.49h-1.74v-.87h1.85v-3.13l1.13.09c0,.08-.08.15-.26.18v2.86h1.52v.87h-1.52Zm6.55,2.93a15.71,15.71,0,0,0,.55,2.07,6.65,6.65,0,0,0,1.19-1.79l1,.33c0,.09-.11.13-.25.13a7.46,7.46,0,0,1-1.59,2.13c.42.83.91,1.29,1.5,1.29.42,0,.58-.35.66-1.68a1.94,1.94,0,0,0,.66.45c-.17,1.59-.48,2.07-1.39,2.07a2.45,2.45,0,0,1-2.07-1.56,10.81,10.81,0,0,1-2.55,1.49,4.17,4.17,0,0,0-.52-.62,9.15,9.15,0,0,0,2.72-1.61,15.1,15.1,0,0,1-.73-2.7h-2.35c0,.29-.06.59-.1.88a15,15,0,0,1,2,1.42l-.53.65a13.86,13.86,0,0,0-1.64-1.24,5.14,5.14,0,0,1-1.86,3.22,2.63,2.63,0,0,0-.58-.62c1.3-.92,1.7-2.57,1.84-4.31h-1v-.79h4a49,49,0,0,1-.48-7.25l1.13.07c0,.1-.08.17-.28.19a42.78,42.78,0,0,0,.47,7h2.07a9.77,9.77,0,0,0-1.32-.88l.46-.46a7.8,7.8,0,0,1,1.56,1l-.3.32h1.14v.79Zm-5.18-2.69.49,0a17,17,0,0,0,1-1.44,10.12,10.12,0,0,0-1.52-1.46l.4-.5.35.25a15.42,15.42,0,0,0,.9-2l.9.39c0,.08-.14.11-.28.11a20.4,20.4,0,0,1-1,1.93,8.46,8.46,0,0,1,.67.68c.35-.6.69-1.21.93-1.71l.86.43a.33.33,0,0,1-.29.11,34,34,0,0,1-2,3.2l1.53-.1a8.12,8.12,0,0,0-.43-.94l.6-.22a7.06,7.06,0,0,1,.84,2l-.64.28c0-.15-.07-.33-.13-.53l-2.6.27a.24.24,0,0,1-.17.18Zm5.36-.17c.28-.36.59-.83.9-1.3a9.75,9.75,0,0,0-1.53-1.46l.41-.5.34.25a15.52,15.52,0,0,0,.91-2l.89.39c0,.08-.14.11-.28.11a15.29,15.29,0,0,1-1.05,1.92,7.46,7.46,0,0,1,.69.69c.36-.6.68-1.21.92-1.71l.86.43c0,.07-.14.11-.28.11-.51.89-1.28,2.12-2,3.06l1.65-.1c-.14-.31-.3-.6-.45-.87l.6-.24a7.51,7.51,0,0,1,.91,2l-.63.31c0-.18-.11-.4-.19-.64-1,.12-2,.22-2.67.28a.19.19,0,0,1-.19.18l-.31-.88Z" style="fill:#666"/><path d="M187.91,144.49q-.06.13-.3.15a30.16,30.16,0,0,1-1.31,2.8l3.23-.11c-.33-.53-.69-1.08-1.06-1.56l.78-.32a14,14,0,0,1,1.93,3.14l-.81.38a7.83,7.83,0,0,0-.4-.86c-2,.14-4,.24-5.26.3a.26.26,0,0,1-.21.19l-.31-1.1,1.15,0a23.07,23.07,0,0,0,1.43-3.29Zm2.27,5v6.57c0,1.05-.56,1.09-2.34,1.09a3.51,3.51,0,0,0-.33-.88l1.08,0c.6,0,.67,0,.67-.26v-1.54h-3.19v2.69h-.89v-7.7Zm-.92.81h-3.19v1.3h3.19Zm-3.19,3.45h3.19V152.4h-3.19Zm9.59-4.28c.57,0,.67-.23.73-1.68a2.53,2.53,0,0,0,.87.38c-.13,1.71-.41,2.17-1.52,2.17h-2.53c-1.3,0-1.65-.29-1.65-1.38v-4.81l1.2.07c0,.1-.08.17-.27.2v2.18a24.2,24.2,0,0,0,3.42-1.37l.72.77a.21.21,0,0,1-.14,0h-.13a32.3,32.3,0,0,1-3.87,1.34V149c0,.45.12.53.79.53Zm-3.18,6.14c0,.48.14.56.84.56h2.47c.63,0,.73-.28.78-1.91a3,3,0,0,0,.86.37c-.12,1.89-.4,2.38-1.57,2.38h-2.62c-1.32,0-1.68-.28-1.68-1.39V150.8l1.2.07c0,.1-.08.17-.28.2v2a16.26,16.26,0,0,0,3.63-1.51l.7.79a.34.34,0,0,1-.16,0,.26.26,0,0,1-.11,0,19.76,19.76,0,0,1-4.06,1.5Z" style="fill:#666"/><ellipse cx="64.16" cy="95.36" rx="1.52" ry="2.6" transform="translate(-44.76 58.66) rotate(-37.45)" style="fill:#00a7e1"/><path d="M118.2,62v-57a.55.55,0,0,0-.83-.47L62.68,36a1,1,0,0,0-.51.88V94.39l4,2,53.12-29.5Z" style="fill:#00a7e1"/><polygon points="118.48 64.36 62.47 96.12 62.47 42.7 118.48 10.93 118.48 64.36" style="fill:#e9e9e9;stroke:#e9e9e9;stroke-miterlimit:10;stroke-width:0.919176897718899px"/><polygon points="119.77 65.09 63.76 96.86 63.76 43.43 119.77 11.66 119.77 65.09" style="fill:#e9e9e9;stroke:#fff;stroke-miterlimit:10;stroke-width:0.919176897718899px"/><polygon points="120.74 65.73 64.73 97.49 64.73 44.07 120.74 12.3 120.74 65.73" style="fill:#00a7e1"/><path d="M85,36.84V31.27a.55.55,0,0,0-.82-.48L66.66,40.9a1,1,0,0,0-.51.88V96.41l-.51,1.08,53.63-30.58a5.77,5.77,0,0,0,2.91-5V16.33a.55.55,0,0,0-.83-.48Z" style="fill:#00a7e1"/><ellipse cx="101.26" cy="107.01" rx="1.52" ry="2.6" transform="translate(-44.2 83.62) rotate(-37.45)" style="fill:#00a7e1"/><path d="M155.29,73.69v-57a.55.55,0,0,0-.82-.48L99.78,47.63a1,1,0,0,0-.51.88V106l4,2,53.12-29.51Z" style="fill:#003058"/><polygon points="155.93 76.01 99.27 107.78 99.27 54.35 155.93 22.59 155.93 76.01" style="fill:#e9e9e9;stroke:#fff;stroke-miterlimit:10;stroke-width:0.919176897718899px"/><polygon points="157.2 76.73 100.74 108.5 100.74 55.07 157.2 23.31 157.2 76.73" style="fill:#dad9d9;stroke:#e9e9e9;stroke-miterlimit:10;stroke-width:0.919176897718899px"/><polygon points="157.84 77.37 101.83 109.14 101.83 55.71 157.84 23.95 157.84 77.37" style="fill:#fff"/><path d="M122.09,48.49V42.91a.55.55,0,0,0-.82-.47L103.76,52.55a1,1,0,0,0-.51.88v54.63l-.51,1.08,53.63-30.59a5.74,5.74,0,0,0,2.91-5V28a.56.56,0,0,0-.83-.48Z" style="fill:#003058"/><line x1="139.96" y1="54.2" x2="123.04" y2="63.97" style="fill:none;stroke:#00a7e1;stroke-linecap:round;stroke-linejoin:round;stroke-width:0.75px"/><line x1="137.84" y1="61.78" x2="123.04" y2="70.32" style="fill:none;stroke:#00a7e1;stroke-linecap:round;stroke-linejoin:round;stroke-width:0.75px"/><line x1="139.96" y1="66.9" x2="123.14" y2="76.61" style="fill:none;stroke:#00a7e1;stroke-linecap:round;stroke-linejoin:round;stroke-width:0.75px"/><line x1="136.68" y1="75.14" x2="123.04" y2="83.02" style="fill:none;stroke:#00a7e1;stroke-linecap:round;stroke-linejoin:round;stroke-width:0.75px"/><path d="M196.22,87.14V28.76a.57.57,0,0,0-.85-.49L139.32,60.43a1,1,0,0,0-.53.9v61.15l4.82,1,53.71-31.35Z" style="fill:#b6e8fb"/><polygon points="199.06 89.52 140.98 123.17 140.98 67.32 199.06 34.76 199.06 89.52" style="fill:#fff;stroke:#c9cacc;stroke-miterlimit:10;stroke-width:0.919176897718899px"/><polygon points="200.36 90.26 142.5 122.82 142.5 68.06 200.36 35.5 200.36 90.26" style="fill:#c9cacc;stroke:#fff;stroke-miterlimit:10;stroke-width:0.919176897718899px"/><polygon points="201.01 90.91 143.61 123.47 143.61 68.71 201.01 36.16 201.01 90.91" style="fill:#c9cacc"/><path d="M164.38,61.31V55.59a.56.56,0,0,0-.85-.48L145.58,65.47a1,1,0,0,0-.52.9v53.8l-1.45,3.3,55.9-31.35a5.91,5.91,0,0,0,3-5.12V40.28a.57.57,0,0,0-.85-.49Z" style="fill:#b6e8fb"/><line x1="185.85" y1="65.68" x2="173.57" y2="72.77" style="fill:none;stroke:#b03478;stroke-miterlimit:10"/><line x1="187.08" y1="71.64" x2="171.92" y2="80.4" style="fill:none;stroke:#b03478;stroke-miterlimit:10"/><line x1="185.6" y1="79.52" x2="173.4" y2="86.56" style="fill:none;stroke:#b03478;stroke-miterlimit:10"/><line x1="185.9" y1="85.34" x2="171.92" y2="93.41" style="fill:none;stroke:#b03478;stroke-miterlimit:10"/><path d="M155.9,90.11c-1.62-.09-2.63-1.61-2.14-4.18a9.54,9.54,0,0,1,3.18-5.26c2.84-2.3,5.37-1.33,5.37,1.7a8.91,8.91,0,0,1-2.26,5.44c2.35-.65,4.33,0,5.15,1.62a4.14,4.14,0,0,1-1.44,4.67l-11.58,6.42c-1.37.76-2.15-1-1.43-3.09A15.85,15.85,0,0,1,155.9,90.11Z" style="fill:#a8c628"/></svg>