<svg id="Layer_1" data-name="Layer 1" xmlns="http://www.w3.org/2000/svg" viewBox="0 0 812.04 51.8"><title>Consulting_Program_Management</title><path d="M85.24,39.17A9.72,9.72,0,0,1,78,41.81H68.27V13.29H78q4.56,0,6.86,2.3a9,9,0,0,1,2.72,4.77A43.22,43.22,0,0,1,88,27.23v1.52a31.69,31.69,0,0,1-.5,6.13A8.24,8.24,0,0,1,85.24,39.17ZM83.12,18.1a6.25,6.25,0,0,0-2.46-1.58,9.39,9.39,0,0,0-3.14-.5h-6.2V39.09h6.2a9.66,9.66,0,0,0,3.14-.46,6.44,6.44,0,0,0,2.54-1.72,6.14,6.14,0,0,0,1.5-3.53,49.22,49.22,0,0,0,.3-6.15V25.91a21.43,21.43,0,0,0-.44-5.25A6.06,6.06,0,0,0,83.12,18.1Z" style="fill:#fff"/><path d="M94.52,16.45V13.21h3.24v3.24Zm.16,25.36V22.05h2.88V41.81Z" style="fill:#fff"/><path d="M111.13,50.81a9.66,9.66,0,0,1-3.62-.58,10.9,10.9,0,0,1-3.06-2.06l1.88-1.84a9,9,0,0,0,2.16,1.47,6.27,6.27,0,0,0,2.56.45,4.9,4.9,0,0,0,4.06-1.67,6.68,6.68,0,0,0,1.34-4.32V39.21a6.2,6.2,0,0,1-2.46,2,8,8,0,0,1-3.06.55,7.38,7.38,0,0,1-2.68-.48,6.93,6.93,0,0,1-2.34-1.56,6.56,6.56,0,0,1-1.62-3.18,19.75,19.75,0,0,1-.52-4.74,20.08,20.08,0,0,1,.5-4.8,6.49,6.49,0,0,1,1.58-3.08,6.57,6.57,0,0,1,2.37-1.56,8.51,8.51,0,0,1,5.8.06,6.32,6.32,0,0,1,2.43,2V22.09h2.88V42.37a8.56,8.56,0,0,1-2.2,6.08A7.81,7.81,0,0,1,111.13,50.81Zm.44-26.4q-2.88,0-3.9,2a12,12,0,0,0-1,5.35,12.14,12.14,0,0,0,1,5.38q1,2,3.92,2t3.9-2a12.34,12.34,0,0,0,1-5.4,12.33,12.33,0,0,0-1-5.39Q114.49,24.41,111.57,24.41Z" style="fill:#fff"/><path d="M126.37,16.45V13.21h3.24v3.24Zm.16,25.36V22.05h2.88V41.81Z" style="fill:#fff"/><path d="M142.18,41.81a4.71,4.71,0,0,1-3.74-1.48,5.57,5.57,0,0,1-1.3-3.81V24.41h-2.48v-2.2h2.48V16.05H140v6.16h4.2v2.2H140v12q0,2.89,2.68,2.89h1.52v2.48Z" style="fill:#fff"/><path d="M161.1,41.81V39.93a6.92,6.92,0,0,1-2.44,1.61,9.54,9.54,0,0,1-3.24.47,11.36,11.36,0,0,1-3.34-.4A6.16,6.16,0,0,1,149.6,40a5.16,5.16,0,0,1-1.22-3.76,5.21,5.21,0,0,1,1.76-4.16,7.49,7.49,0,0,1,5-1.52h5.92V28.65a4.19,4.19,0,0,0-1.17-3.26,5.64,5.64,0,0,0-3.83-1.06,7.28,7.28,0,0,0-3,.48,5.17,5.17,0,0,0-1.94,1.76l-2-1.8a6.74,6.74,0,0,1,2.86-2.3,11.4,11.4,0,0,1,4.1-.62q7.88,0,7.88,6.57V41.81Zm0-9.12h-5.52q-4.4,0-4.4,3.48t4.52,3.36a11,11,0,0,0,2.52-.24,4.28,4.28,0,0,0,1.94-1.14,4.59,4.59,0,0,0,.94-3.34Z" style="fill:#fff"/><path d="M175.9,41.81a4.74,4.74,0,0,1-3.74-1.42,5.56,5.56,0,0,1-1.26-3.83V13.29h2.88V36.45a3.39,3.39,0,0,0,.58,2.18,2.55,2.55,0,0,0,2.06.7H178v2.48Z" style="fill:#fff"/><path d="M209.71,41.81l-6.48-12.68h-6.84V41.81h-3V13.29h10.92a8.69,8.69,0,0,1,6.1,2.14,7.45,7.45,0,0,1,2.34,5.78,7.57,7.57,0,0,1-1.68,5,7.81,7.81,0,0,1-4.52,2.6l6.76,13ZM204,16h-7.6V26.45H204a6.15,6.15,0,0,0,4.14-1.32,4.83,4.83,0,0,0,1.54-3.88,4.87,4.87,0,0,0-1.56-3.88A6,6,0,0,0,204,16Z" style="fill:#fff"/><path d="M218.92,16.45V13.21h3.24v3.24Zm.16,25.36V22.05H222V41.81Z" style="fill:#fff"/><path d="M235.8,41.81h-2.56L226,22.09h3.11l5.35,15.82,5.43-15.82H243Z" style="fill:#fff"/><path d="M248.88,32.69a7.49,7.49,0,0,0,1.5,5,5.32,5.32,0,0,0,4.3,1.77,7,7,0,0,0,2.8-.49,8.18,8.18,0,0,0,2.36-1.71l2,1.72a11.12,11.12,0,0,1-3.18,2.32,9.73,9.73,0,0,1-4,.72,8.12,8.12,0,0,1-6.32-2.5Q246,37,246,31.93q0-4.76,2.14-7.42a7.2,7.2,0,0,1,5.94-2.66A7.35,7.35,0,0,1,260,24.39a10.5,10.5,0,0,1,2.14,7v1.32Zm9.8-5.44a4.6,4.6,0,0,0-1.8-2.16,5.06,5.06,0,0,0-2.8-.8,5,5,0,0,0-2.78.8A4.33,4.33,0,0,0,249.62,27a8.71,8.71,0,0,0-.6,1.82,9.77,9.77,0,0,0-.14,1.76h10.4a11.1,11.1,0,0,0-.1-1.76A7.9,7.9,0,0,0,258.69,27.25Z" style="fill:#fff"/><path d="M279.29,25.85a5.16,5.16,0,0,0-1.54-1.12,4.72,4.72,0,0,0-1.86-.32,4.3,4.3,0,0,0-3.42,1.5,5.58,5.58,0,0,0-1.3,3.79V41.81h-2.88V22.09h2.88v2.4a5.59,5.59,0,0,1,2.3-1.92,7.35,7.35,0,0,1,3.22-.72,7.7,7.7,0,0,1,2.58.38,6,6,0,0,1,2.14,1.46Z" style="fill:#fff"/><path d="M304.5,42a9.09,9.09,0,0,1-6.72-2.4A9.25,9.25,0,0,1,295,34.93a45.74,45.74,0,0,1-.42-7.4q0-4.24.24-6.78a8.59,8.59,0,0,1,2.82-5.12,9.33,9.33,0,0,1,6.9-2.58A9.74,9.74,0,0,1,311,15.29a10.25,10.25,0,0,1,3.36,6.24h-3.12a7.69,7.69,0,0,0-2.34-4.22,6.43,6.43,0,0,0-4.42-1.54,6.17,6.17,0,0,0-4.62,1.66,6.81,6.81,0,0,0-2,3.52,42.5,42.5,0,0,0-.34,6.58,42.56,42.56,0,0,0,.34,6.56,6.8,6.8,0,0,0,2,3.54,6.17,6.17,0,0,0,4.62,1.66A6.58,6.58,0,0,0,309,37.75a7.58,7.58,0,0,0,2.38-4.22h3A10.09,10.09,0,0,1,311,39.75,9.76,9.76,0,0,1,304.5,42Z" style="fill:#fff"/><path d="M333.23,39.77a7.65,7.65,0,0,1-2.46,1.66,9,9,0,0,1-6.34,0,8,8,0,0,1-2.64-1.84A6.9,6.9,0,0,1,320,36.47a17.7,17.7,0,0,1-.5-4.54,17.8,17.8,0,0,1,.5-4.5,6.91,6.91,0,0,1,1.74-3.16,7.51,7.51,0,0,1,5.8-2.42,8.2,8.2,0,0,1,3.16.58,8.05,8.05,0,0,1,2.64,1.84,6.91,6.91,0,0,1,1.74,3.12,17.72,17.72,0,0,1,.5,4.54,17.82,17.82,0,0,1-.5,4.5A7.44,7.44,0,0,1,333.23,39.77Zm-2-13.92a4.89,4.89,0,0,0-3.6-1.44,4.49,4.49,0,0,0-3.32,1.2,5.38,5.38,0,0,0-1.52,2.78,17.86,17.86,0,0,0-.32,3.54,18.37,18.37,0,0,0,.3,3.62,5.27,5.27,0,0,0,1.52,2.68,5.25,5.25,0,0,0,6.7,0,5.23,5.23,0,0,0,1.5-2.7,18.74,18.74,0,0,0,.3-3.62,18.83,18.83,0,0,0-.3-3.6A4.69,4.69,0,0,0,331.19,25.85Z" style="fill:#fff"/><path d="M354.39,41.81V29.66a5.45,5.45,0,0,0-1.28-3.91,4.69,4.69,0,0,0-3.56-1.34A4.75,4.75,0,0,0,346,25.76a5.4,5.4,0,0,0-1.3,3.91V41.81h-2.88V22.09h2.88v2.16a7.68,7.68,0,0,1,10.66-.48,7.28,7.28,0,0,1,1.94,5.41V41.81Z" style="fill:#fff"/><path d="M370.48,42a14.29,14.29,0,0,1-4.52-.65,9.58,9.58,0,0,1-3.56-2.16l1.92-1.9A6.57,6.57,0,0,0,367,39a10.55,10.55,0,0,0,3.48.53,7.32,7.32,0,0,0,3.88-.85,2.87,2.87,0,0,0,1.36-2.6q0-2.58-3.28-2.86l-3.24-.28a6.2,6.2,0,0,1-4.36-1.41,5,5,0,0,1-1.52-3.89,5.06,5.06,0,0,1,2-4.23,8.34,8.34,0,0,1,5.24-1.55A10.89,10.89,0,0,1,377.6,24l-1.88,1.88a8.39,8.39,0,0,0-5.24-1.56,5.39,5.39,0,0,0-3.28.85,2.85,2.85,0,0,0-1.12,2.42,2.81,2.81,0,0,0,.8,2.13,3.75,3.75,0,0,0,2.64.76l3.16.28a7.78,7.78,0,0,1,4.3,1.46,4.66,4.66,0,0,1,1.5,3.85,5.14,5.14,0,0,1-2.16,4.41A9.72,9.72,0,0,1,370.48,42Z" style="fill:#fff"/><path d="M396.52,41.81v-2.2a7.75,7.75,0,0,1-10.69.5,7.35,7.35,0,0,1-1.91-5.46V22.09h2.88V34.21a5.49,5.49,0,0,0,1.26,3.9,4.62,4.62,0,0,0,3.54,1.34,4.79,4.79,0,0,0,3.6-1.36,5.34,5.34,0,0,0,1.32-3.88V22.09h2.88V41.81Z" style="fill:#fff"/><path d="M411.53,41.81a4.74,4.74,0,0,1-3.74-1.42,5.56,5.56,0,0,1-1.26-3.83V13.29h2.88V36.45a3.39,3.39,0,0,0,.58,2.18,2.55,2.55,0,0,0,2.06.7h1.56v2.48Z" style="fill:#fff"/><path d="M424,41.81a4.71,4.71,0,0,1-3.74-1.48,5.57,5.57,0,0,1-1.3-3.81V24.41h-2.48v-2.2H419V16.05h2.88v6.16h4.2v2.2h-4.2v12q0,2.89,2.68,2.89h1.52v2.48Z" style="fill:#fff"/><path d="M431.61,16.45V13.21h3.24v3.24Zm.16,25.36V22.05h2.88V41.81Z" style="fill:#fff"/><path d="M454.5,41.81V29.66a5.45,5.45,0,0,0-1.28-3.91,4.69,4.69,0,0,0-3.56-1.34,4.75,4.75,0,0,0-3.58,1.34,5.4,5.4,0,0,0-1.3,3.91V41.81H441.9V22.09h2.88v2.16a7.68,7.68,0,0,1,10.66-.48,7.28,7.28,0,0,1,1.94,5.41V41.81Z" style="fill:#fff"/><path d="M470.7,50.81a9.66,9.66,0,0,1-3.62-.58A10.9,10.9,0,0,1,464,48.17l1.88-1.84a9,9,0,0,0,2.16,1.47,6.27,6.27,0,0,0,2.56.45,4.9,4.9,0,0,0,4.06-1.67A6.68,6.68,0,0,0,476,42.27V39.21a6.2,6.2,0,0,1-2.46,2,8,8,0,0,1-3.06.55,7.38,7.38,0,0,1-2.68-.48,6.93,6.93,0,0,1-2.34-1.56,6.56,6.56,0,0,1-1.62-3.18,19.75,19.75,0,0,1-.52-4.74,20.08,20.08,0,0,1,.5-4.8,6.49,6.49,0,0,1,1.58-3.08,6.57,6.57,0,0,1,2.37-1.56,8.51,8.51,0,0,1,5.8.06,6.32,6.32,0,0,1,2.43,2V22.09h2.88V42.37a8.56,8.56,0,0,1-2.2,6.08A7.81,7.81,0,0,1,470.7,50.81Zm.44-26.4q-2.88,0-3.9,2a12,12,0,0,0-1,5.35,12.14,12.14,0,0,0,1,5.38q1,2,3.92,2t3.9-2a12.34,12.34,0,0,0,1-5.4,12.33,12.33,0,0,0-1-5.39Q474.07,24.41,471.14,24.41Z" style="fill:#fff"/><path d="M515.52,41.77,513,38.64a15.83,15.83,0,0,1-3.4,2.33,10.76,10.76,0,0,1-5,1A9.24,9.24,0,0,1,498,39.73a7.83,7.83,0,0,1-2.44-6,7.52,7.52,0,0,1,1.18-4.08,17.59,17.59,0,0,1,5-4.44A25,25,0,0,1,499.39,22a5.88,5.88,0,0,1-.76-3,5.64,5.64,0,0,1,1.78-4.26,6.25,6.25,0,0,1,4.5-1.7,6.1,6.1,0,0,1,4.44,1.72,5.74,5.74,0,0,1,1.76,4.28,4.91,4.91,0,0,1-.82,2.84A8.8,8.8,0,0,1,508,24.13l-2.12,1.44,7.29,8.76a9.39,9.39,0,0,0,1.24-2.76,15.73,15.73,0,0,0,.36-3.76h2.88a17.55,17.55,0,0,1-.62,4.94,10.49,10.49,0,0,1-2,3.78l4.36,5.24ZM503.39,27.14a22.06,22.06,0,0,0-3.72,3,5,5,0,0,0-1.16,3.48,5.4,5.4,0,0,0,1.66,4.1,6,6,0,0,0,4.34,1.58,9.51,9.51,0,0,0,3.38-.58,11.18,11.18,0,0,0,3.34-2.18Zm1.51-11.52a3.16,3.16,0,0,0-2.35.92,3.28,3.28,0,0,0-.91,2.41,3.92,3.92,0,0,0,.54,1.93,21.62,21.62,0,0,0,2,2.77l1.51-1a10.26,10.26,0,0,0,1.88-1.67,2.88,2.88,0,0,0,.65-1.91,3.38,3.38,0,0,0-1-2.41A3.16,3.16,0,0,0,504.89,15.61Z" style="fill:#fff"/><path d="M546.73,30.05h-7.56V41.81h-3V13.29h10.6a9,9,0,0,1,6.38,2.26,7.94,7.94,0,0,1,2.42,6.1,8,8,0,0,1-2.42,6.1A8.88,8.88,0,0,1,546.73,30.05Zm-.28-14h-7.28V27.33h7.28a6.42,6.42,0,0,0,4.42-1.44,5.37,5.37,0,0,0,1.62-4.24,5.29,5.29,0,0,0-1.64-4.2A6.44,6.44,0,0,0,546.45,16Z" style="fill:#fff"/><path d="M571.81,25.85a5.16,5.16,0,0,0-1.54-1.12,4.72,4.72,0,0,0-1.86-.32,4.3,4.3,0,0,0-3.42,1.5,5.58,5.58,0,0,0-1.3,3.79V41.81h-2.88V22.09h2.88v2.4a5.59,5.59,0,0,1,2.3-1.92,7.35,7.35,0,0,1,3.22-.72,7.7,7.7,0,0,1,2.58.38,6,6,0,0,1,2.14,1.46Z" style="fill:#fff"/><path d="M590.3,39.77a7.65,7.65,0,0,1-2.46,1.66,9,9,0,0,1-6.34,0,8,8,0,0,1-2.64-1.84,6.9,6.9,0,0,1-1.74-3.12,17.7,17.7,0,0,1-.5-4.54,17.8,17.8,0,0,1,.5-4.5,6.91,6.91,0,0,1,1.74-3.16,7.51,7.51,0,0,1,5.8-2.42,8.2,8.2,0,0,1,3.16.58,8.05,8.05,0,0,1,2.64,1.84,6.91,6.91,0,0,1,1.74,3.12,17.72,17.72,0,0,1,.5,4.54,17.82,17.82,0,0,1-.5,4.5A7.44,7.44,0,0,1,590.3,39.77Zm-2-13.92a4.89,4.89,0,0,0-3.6-1.44,4.49,4.49,0,0,0-3.32,1.2,5.38,5.38,0,0,0-1.52,2.78,17.86,17.86,0,0,0-.32,3.54,18.37,18.37,0,0,0,.3,3.62,5.27,5.27,0,0,0,1.52,2.68,5.25,5.25,0,0,0,6.7,0,5.23,5.23,0,0,0,1.5-2.7,18.74,18.74,0,0,0,.3-3.62,18.83,18.83,0,0,0-.3-3.6A4.69,4.69,0,0,0,588.26,25.85Z" style="fill:#fff"/><path d="M605.18,50.81a9.66,9.66,0,0,1-3.62-.58,10.9,10.9,0,0,1-3.06-2.06l1.88-1.84a9,9,0,0,0,2.16,1.47,6.27,6.27,0,0,0,2.56.45,4.9,4.9,0,0,0,4.06-1.67,6.68,6.68,0,0,0,1.34-4.32V39.21a6.2,6.2,0,0,1-2.46,2,8,8,0,0,1-3.06.55,7.38,7.38,0,0,1-2.68-.48A6.93,6.93,0,0,1,600,39.69a6.56,6.56,0,0,1-1.62-3.18,19.75,19.75,0,0,1-.52-4.74,20.08,20.08,0,0,1,.5-4.8,6.49,6.49,0,0,1,1.58-3.08,6.57,6.57,0,0,1,2.37-1.56,8.51,8.51,0,0,1,5.8.06,6.32,6.32,0,0,1,2.43,2V22.09h2.88V42.37a8.56,8.56,0,0,1-2.2,6.08A7.81,7.81,0,0,1,605.18,50.81Zm.44-26.4q-2.88,0-3.9,2a12,12,0,0,0-1,5.35,12.14,12.14,0,0,0,1,5.38q1,2,3.92,2t3.9-2a12.34,12.34,0,0,0,1-5.4,12.33,12.33,0,0,0-1-5.39Q608.54,24.41,605.62,24.41Z" style="fill:#fff"/><path d="M631.59,25.85A5.16,5.16,0,0,0,630,24.73a4.72,4.72,0,0,0-1.86-.32,4.3,4.3,0,0,0-3.42,1.5,5.58,5.58,0,0,0-1.3,3.79V41.81h-2.88V22.09h2.88v2.4a5.59,5.59,0,0,1,2.3-1.92,7.35,7.35,0,0,1,3.22-.72,7.7,7.7,0,0,1,2.58.38,6,6,0,0,1,2.14,1.46Z" style="fill:#fff"/><path d="M648.59,41.81V39.93a6.92,6.92,0,0,1-2.44,1.61,9.54,9.54,0,0,1-3.24.47,11.36,11.36,0,0,1-3.34-.4A6.16,6.16,0,0,1,637.09,40a5.16,5.16,0,0,1-1.22-3.76,5.21,5.21,0,0,1,1.76-4.16,7.49,7.49,0,0,1,5-1.52h5.92V28.65a4.19,4.19,0,0,0-1.17-3.26,5.64,5.64,0,0,0-3.83-1.06,7.28,7.28,0,0,0-3,.48,5.17,5.17,0,0,0-1.94,1.76l-2-1.8a6.74,6.74,0,0,1,2.86-2.3,11.4,11.4,0,0,1,4.1-.62q7.88,0,7.88,6.57V41.81Zm0-9.12h-5.52q-4.4,0-4.4,3.48t4.52,3.36a11,11,0,0,0,2.52-.24,4.28,4.28,0,0,0,1.94-1.14,4.59,4.59,0,0,0,.94-3.34Z" style="fill:#fff"/><path d="M683.76,41.81V29.66a5.45,5.45,0,0,0-1.28-3.91,4.69,4.69,0,0,0-3.56-1.34,4.89,4.89,0,0,0-3.56,1.32A4.8,4.8,0,0,0,674,29.34V41.81h-2.88V29.66a5.45,5.45,0,0,0-1.28-3.91,4.69,4.69,0,0,0-3.56-1.34,4.78,4.78,0,0,0-3.6,1.36,5.36,5.36,0,0,0-1.32,3.89V41.81h-2.88V22.09h2.88v2.16a7.06,7.06,0,0,1,5.56-2.4,6.39,6.39,0,0,1,6,3.28,7.49,7.49,0,0,1,6.48-3.28,8.17,8.17,0,0,1,2.86.48,8.58,8.58,0,0,1,2.82,1.94q1.52,1.46,1.52,4.91V41.81Z" style="fill:#fff"/><path d="M725.5,41.81V20.15l-7.81,17.14h-2.61l-7.91-17.11V41.81h-3V13.29h3l9.28,20.2,9-20.2h3V41.81Z" style="fill:#fff"/><path d="M753.26,38.73a9.94,9.94,0,0,1-7.6,3.28,9.09,9.09,0,0,1-6.72-2.4,9.25,9.25,0,0,1-2.82-4.68,45.74,45.74,0,0,1-.42-7.4q0-4.24.24-6.78a8.58,8.58,0,0,1,2.83-5.12,9.38,9.38,0,0,1,6.93-2.58,9.82,9.82,0,0,1,6.71,2.32,10.15,10.15,0,0,1,3.29,6.2h-3a7.49,7.49,0,0,0-2.44-4.26,6.79,6.79,0,0,0-4.53-1.54,6.15,6.15,0,0,0-4.63,1.7,7,7,0,0,0-2,3.52,41.4,41.4,0,0,0-.34,6.54,42.56,42.56,0,0,0,.34,6.56,6.8,6.8,0,0,0,2,3.54,6.17,6.17,0,0,0,4.62,1.66,6.36,6.36,0,0,0,5.2-2.18,8.23,8.23,0,0,0,1.8-5.42V29.53h-7V26.85h10v4.52a13.88,13.88,0,0,1-.56,4.22A8.19,8.19,0,0,1,753.26,38.73Z" style="fill:#fff"/><path d="M784.15,41.81V20.15l-7.81,17.14h-2.61l-7.91-17.11V41.81h-3V13.29h3l9.28,20.2,9-20.2h3V41.81Z" style="fill:#fff"/><path d="M803.8,16v25.8h-3V16h-8.24V13.29H812V16Z" style="fill:#fff"/><rect width="51.8" height="51.8" style="fill:#00a7e1"/><path d="M22.16,12.67a.83.83,0,0,1,.82-1c2-.1,3.88-.1,5.84,0a.83.83,0,0,1,.82,1,11.66,11.66,0,0,0-.29,2.4h1.77a6.89,6.89,0,0,1,.48-2.32c.57-1.28-.52-2.86-2.43-3.24a23.76,23.76,0,0,0-6.55,0c-1.9.38-3,2-2.43,3.24a6.89,6.89,0,0,1,.48,2.32h1.77A11.75,11.75,0,0,0,22.16,12.67Z" style="fill:#fff"/><path d="M40.84,26.35A63.73,63.73,0,0,1,29.15,28v1.35a2.25,2.25,0,0,1-2.25,2.25h-2a2.25,2.25,0,0,1-2.25-2.25V28A63.74,63.74,0,0,1,11,26.35a3.21,3.21,0,0,1-1.54-1.08V40.53a.94.94,0,0,0,.94.94H41.44a.94.94,0,0,0,.94-.94V25.27A3.22,3.22,0,0,1,40.84,26.35Z" style="fill:#fff"/><path d="M40.79,16.09H11A2.94,2.94,0,0,0,8.11,19v2.32A4,4,0,0,0,11,25a63.82,63.82,0,0,0,11.71,1.69,2.25,2.25,0,0,1,2.23-2.07h2a2.24,2.24,0,0,1,2.23,2.07A63.81,63.81,0,0,0,40.84,25a4,4,0,0,0,2.85-3.66V19A3,3,0,0,0,40.79,16.09Z" style="fill:#fff"/><rect x="23.96" y="25.9" width="3.88" height="4.43" rx="0.94" ry="0.94" style="fill:#fff"/></svg>