<svg id="Layer_1" data-name="Layer 1" xmlns="http://www.w3.org/2000/svg" viewBox="0 0 608.48 51.8"><title>Legal Compliance</title><rect width="51.8" height="51.8" style="fill:#00a7e1"/><path d="M86.22,39.1A9.72,9.72,0,0,1,79,41.74H69.25V13.22H79q4.56,0,6.86,2.3a9,9,0,0,1,2.72,4.77A43.22,43.22,0,0,1,89,27.16v1.52a31.73,31.73,0,0,1-.5,6.13A8.25,8.25,0,0,1,86.22,39.1ZM84.1,18a6.26,6.26,0,0,0-2.46-1.58,9.39,9.39,0,0,0-3.14-.5H72.3V39h6.2a9.66,9.66,0,0,0,3.14-.46,6.44,6.44,0,0,0,2.54-1.72,6.14,6.14,0,0,0,1.5-3.53,49.23,49.23,0,0,0,.3-6.15V25.84a21.47,21.47,0,0,0-.44-5.25A6.08,6.08,0,0,0,84.1,18Z" transform="translate(-0.25)" style="fill:#fff"/><path d="M95.5,16.38V13.14h3.24v3.24Zm.16,25.36V22h2.88V41.74Z" transform="translate(-0.25)" style="fill:#fff"/><path d="M112.11,50.74a9.66,9.66,0,0,1-3.62-.58,10.88,10.88,0,0,1-3.06-2.06l1.88-1.84a9,9,0,0,0,2.16,1.47,6.27,6.27,0,0,0,2.56.45,4.91,4.91,0,0,0,4.06-1.67,6.68,6.68,0,0,0,1.34-4.32V39.14a6.2,6.2,0,0,1-2.46,2,8,8,0,0,1-3.06.55,7.38,7.38,0,0,1-2.68-.48,6.93,6.93,0,0,1-2.34-1.56,6.56,6.56,0,0,1-1.62-3.18,19.77,19.77,0,0,1-.52-4.74,20.11,20.11,0,0,1,.5-4.8,6.49,6.49,0,0,1,1.58-3.08,6.57,6.57,0,0,1,2.37-1.56,8.52,8.52,0,0,1,5.8.06,6.32,6.32,0,0,1,2.43,2V22h2.88V42.3a8.56,8.56,0,0,1-2.2,6.08A7.81,7.81,0,0,1,112.11,50.74Zm.44-26.4q-2.88,0-3.9,2a12,12,0,0,0-1,5.35,12.14,12.14,0,0,0,1,5.38q1,2,3.92,2t3.9-2a12.34,12.34,0,0,0,1-5.4,12.33,12.33,0,0,0-1-5.39Q115.47,24.34,112.55,24.34Z" transform="translate(-0.25)" style="fill:#fff"/><path d="M127.35,16.38V13.14h3.24v3.24Zm.16,25.36V22h2.88V41.74Z" transform="translate(-0.25)" style="fill:#fff"/><path d="M143.15,41.74a4.71,4.71,0,0,1-3.74-1.48,5.56,5.56,0,0,1-1.3-3.81V24.34h-2.48v-2.2h2.48V16H141v6.16h4.2v2.2H141v12q0,2.89,2.68,2.89h1.52v2.48Z" transform="translate(-0.25)" style="fill:#fff"/><path d="M162.08,41.74V39.86a6.93,6.93,0,0,1-2.44,1.61,9.53,9.53,0,0,1-3.24.47,11.37,11.37,0,0,1-3.34-.4,6.16,6.16,0,0,1-2.48-1.64,5.16,5.16,0,0,1-1.22-3.76A5.21,5.21,0,0,1,151.12,32a7.49,7.49,0,0,1,5-1.52h5.92V28.58a4.19,4.19,0,0,0-1.17-3.26,5.64,5.64,0,0,0-3.83-1.06,7.28,7.28,0,0,0-3,.48,5.15,5.15,0,0,0-1.94,1.76l-2-1.8A6.74,6.74,0,0,1,153,22.4a11.39,11.39,0,0,1,4.1-.62q7.88,0,7.88,6.57V41.74Zm0-9.12h-5.52q-4.4,0-4.4,3.48t4.52,3.36a11.05,11.05,0,0,0,2.52-.24,4.27,4.27,0,0,0,1.94-1.14,4.59,4.59,0,0,0,.94-3.34Z" transform="translate(-0.25)" style="fill:#fff"/><path d="M176.88,41.74a4.74,4.74,0,0,1-3.74-1.42,5.56,5.56,0,0,1-1.26-3.83V13.22h2.88V36.38a3.39,3.39,0,0,0,.58,2.18,2.55,2.55,0,0,0,2.06.7H179v2.48Z" transform="translate(-0.25)" style="fill:#fff"/><path d="M210.69,41.74l-6.48-12.68h-6.84V41.74h-3V13.22h10.92a8.69,8.69,0,0,1,6.1,2.14,7.45,7.45,0,0,1,2.34,5.78,7.57,7.57,0,0,1-1.68,5,7.81,7.81,0,0,1-4.52,2.6l6.76,13ZM205,15.94h-7.6V26.38H205a6.15,6.15,0,0,0,4.14-1.32,4.83,4.83,0,0,0,1.54-3.88,4.87,4.87,0,0,0-1.56-3.88A6.05,6.05,0,0,0,205,15.94Z" transform="translate(-0.25)" style="fill:#fff"/><path d="M219.89,16.38V13.14h3.24v3.24Zm.16,25.36V22h2.88V41.74Z" transform="translate(-0.25)" style="fill:#fff"/><path d="M236.78,41.74h-2.56L227,22h3.11l5.35,15.82L240.91,22H244Z" transform="translate(-0.25)" style="fill:#fff"/><path d="M249.86,32.62a7.49,7.49,0,0,0,1.5,5,5.32,5.32,0,0,0,4.3,1.77,7,7,0,0,0,2.8-.49,8.16,8.16,0,0,0,2.36-1.71l2,1.72a11.12,11.12,0,0,1-3.18,2.32,9.73,9.73,0,0,1-4,.72,8.12,8.12,0,0,1-6.32-2.5Q247,36.94,247,31.86q0-4.76,2.14-7.42a7.2,7.2,0,0,1,5.94-2.66A7.35,7.35,0,0,1,261,24.32a10.5,10.5,0,0,1,2.14,7v1.32Zm9.8-5.44a4.61,4.61,0,0,0-1.8-2.16,5.06,5.06,0,0,0-2.8-.8,5,5,0,0,0-2.78.8,4.33,4.33,0,0,0-1.68,1.86,8.67,8.67,0,0,0-.6,1.82,9.77,9.77,0,0,0-.14,1.76h10.4a11.08,11.08,0,0,0-.1-1.76A7.83,7.83,0,0,0,259.67,27.18Z" transform="translate(-0.25)" style="fill:#fff"/><path d="M280.27,25.78a5.17,5.17,0,0,0-1.54-1.12,4.71,4.71,0,0,0-1.86-.32,4.3,4.3,0,0,0-3.42,1.5,5.58,5.58,0,0,0-1.3,3.79V41.74h-2.88V22h2.88v2.4a5.6,5.6,0,0,1,2.3-1.92,7.36,7.36,0,0,1,3.22-.72,7.7,7.7,0,0,1,2.58.38,6,6,0,0,1,2.14,1.46Z" transform="translate(-0.25)" style="fill:#fff"/><path d="M296.6,41.74V13.22h3V39H314.2v2.72Z" transform="translate(-0.25)" style="fill:#fff"/><path d="M320.8,32.62a7.49,7.49,0,0,0,1.5,5,5.32,5.32,0,0,0,4.3,1.77,7,7,0,0,0,2.8-.49,8.16,8.16,0,0,0,2.36-1.71l2,1.72a11.12,11.12,0,0,1-3.18,2.32,9.73,9.73,0,0,1-4,.72,8.12,8.12,0,0,1-6.32-2.5q-2.28-2.5-2.28-7.58,0-4.76,2.14-7.42A7.2,7.2,0,0,1,326,21.78a7.35,7.35,0,0,1,5.94,2.54,10.5,10.5,0,0,1,2.14,7v1.32Zm9.8-5.44a4.61,4.61,0,0,0-1.8-2.16,5.06,5.06,0,0,0-2.8-.8,5,5,0,0,0-2.78.8,4.33,4.33,0,0,0-1.68,1.86,8.67,8.67,0,0,0-.6,1.82,9.77,9.77,0,0,0-.14,1.76h10.4a11.08,11.08,0,0,0-.1-1.76A7.83,7.83,0,0,0,330.6,27.18Z" transform="translate(-0.25)" style="fill:#fff"/><path d="M346.53,50.74a9.66,9.66,0,0,1-3.62-.58,10.88,10.88,0,0,1-3.06-2.06l1.88-1.84a9,9,0,0,0,2.16,1.47,6.27,6.27,0,0,0,2.56.45,4.91,4.91,0,0,0,4.06-1.67,6.68,6.68,0,0,0,1.34-4.32V39.14a6.2,6.2,0,0,1-2.46,2,8,8,0,0,1-3.06.55,7.38,7.38,0,0,1-2.68-.48,6.93,6.93,0,0,1-2.34-1.56,6.56,6.56,0,0,1-1.62-3.18,19.77,19.77,0,0,1-.52-4.74,20.11,20.11,0,0,1,.5-4.8,6.49,6.49,0,0,1,1.58-3.08,6.57,6.57,0,0,1,2.37-1.56,8.52,8.52,0,0,1,5.8.06,6.32,6.32,0,0,1,2.43,2V22h2.88V42.3a8.56,8.56,0,0,1-2.2,6.08A7.81,7.81,0,0,1,346.53,50.74Zm.44-26.4q-2.88,0-3.9,2a12,12,0,0,0-1,5.35,12.14,12.14,0,0,0,1,5.38q1,2,3.92,2t3.9-2a12.34,12.34,0,0,0,1-5.4,12.33,12.33,0,0,0-1-5.39Q349.89,24.34,347,24.34Z" transform="translate(-0.25)" style="fill:#fff"/><path d="M373.1,41.74V39.86a6.93,6.93,0,0,1-2.44,1.61,9.53,9.53,0,0,1-3.24.47,11.37,11.37,0,0,1-3.34-.4,6.16,6.16,0,0,1-2.48-1.64,5.16,5.16,0,0,1-1.22-3.76A5.21,5.21,0,0,1,362.13,32a7.49,7.49,0,0,1,5-1.52h5.92V28.58a4.19,4.19,0,0,0-1.17-3.26,5.64,5.64,0,0,0-3.83-1.06,7.28,7.28,0,0,0-3,.48,5.15,5.15,0,0,0-1.94,1.76l-2-1.8A6.74,6.74,0,0,1,364,22.4a11.39,11.39,0,0,1,4.1-.62q7.88,0,7.88,6.57V41.74Zm0-9.12h-5.52q-4.4,0-4.4,3.48t4.52,3.36a11.05,11.05,0,0,0,2.52-.24,4.27,4.27,0,0,0,1.94-1.14,4.59,4.59,0,0,0,.94-3.34Z" transform="translate(-0.25)" style="fill:#fff"/><path d="M387.9,41.74a4.74,4.74,0,0,1-3.74-1.42,5.56,5.56,0,0,1-1.26-3.83V13.22h2.88V36.38a3.39,3.39,0,0,0,.58,2.18,2.55,2.55,0,0,0,2.06.7H390v2.48Z" transform="translate(-0.25)" style="fill:#fff"/><path d="M414.23,41.94a9.08,9.08,0,0,1-6.72-2.4,9.25,9.25,0,0,1-2.82-4.68,45.69,45.69,0,0,1-.42-7.4q0-4.24.24-6.78a8.59,8.59,0,0,1,2.82-5.12,9.33,9.33,0,0,1,6.9-2.58,9.74,9.74,0,0,1,6.52,2.24,10.25,10.25,0,0,1,3.36,6.24H421a7.69,7.69,0,0,0-2.34-4.22,6.43,6.43,0,0,0-4.42-1.54,6.16,6.16,0,0,0-4.62,1.66,6.8,6.8,0,0,0-2,3.52,42.58,42.58,0,0,0-.34,6.58,42.64,42.64,0,0,0,.34,6.56,6.8,6.8,0,0,0,2,3.54,6.16,6.16,0,0,0,4.62,1.66,6.58,6.58,0,0,0,4.46-1.54,7.58,7.58,0,0,0,2.38-4.22h3a10.09,10.09,0,0,1-3.34,6.22A9.76,9.76,0,0,1,414.23,41.94Z" transform="translate(-0.25)" style="fill:#fff"/><path d="M443,39.7a7.65,7.65,0,0,1-2.46,1.66,9,9,0,0,1-6.34,0,8,8,0,0,1-2.64-1.84,6.91,6.91,0,0,1-1.74-3.12,17.7,17.7,0,0,1-.5-4.54,17.8,17.8,0,0,1,.5-4.5,6.92,6.92,0,0,1,1.74-3.16,7.51,7.51,0,0,1,5.8-2.42,8.19,8.19,0,0,1,3.16.58,8,8,0,0,1,2.64,1.84,6.91,6.91,0,0,1,1.74,3.12,17.75,17.75,0,0,1,.5,4.54,17.85,17.85,0,0,1-.5,4.5A7.45,7.45,0,0,1,443,39.7Zm-2-13.92a4.89,4.89,0,0,0-3.6-1.44,4.49,4.49,0,0,0-3.32,1.2,5.37,5.37,0,0,0-1.52,2.78,17.86,17.86,0,0,0-.32,3.54,18.45,18.45,0,0,0,.3,3.62A5.27,5.27,0,0,0,434,38.16a5.25,5.25,0,0,0,6.7,0,5.23,5.23,0,0,0,1.5-2.7,18.82,18.82,0,0,0,.3-3.62,18.91,18.91,0,0,0-.3-3.6A4.69,4.69,0,0,0,440.92,25.78Z" transform="translate(-0.25)" style="fill:#fff"/><path d="M476.81,41.74V29.59a5.46,5.46,0,0,0-1.28-3.91A4.69,4.69,0,0,0,472,24.34a4.89,4.89,0,0,0-3.56,1.32A4.8,4.8,0,0,0,467,29.27V41.74h-2.88V29.59a5.45,5.45,0,0,0-1.28-3.91,4.68,4.68,0,0,0-3.56-1.34,4.78,4.78,0,0,0-3.6,1.36,5.36,5.36,0,0,0-1.32,3.89V41.74h-2.88V22h2.88v2.16a7.07,7.07,0,0,1,5.56-2.4,6.39,6.39,0,0,1,6,3.28,7.49,7.49,0,0,1,6.48-3.28,8.17,8.17,0,0,1,2.86.48,8.58,8.58,0,0,1,2.82,1.94q1.52,1.46,1.52,4.91V41.74Z" transform="translate(-0.25)" style="fill:#fff"/><path d="M499.93,40.22a5.6,5.6,0,0,1-2.06,1.24,7.84,7.84,0,0,1-2.74.48,8.15,8.15,0,0,1-3.1-.52,6.37,6.37,0,0,1-2.46-2V50.5h-2.88V22h2.88v2.32a6.21,6.21,0,0,1,2.46-2,8,8,0,0,1,3.1-.56,6.3,6.3,0,0,1,4.64,1.56A7.57,7.57,0,0,1,501.83,27a21,21,0,0,1,.5,4.88,21.07,21.07,0,0,1-.5,4.86A7.19,7.19,0,0,1,499.93,40.22Zm-5.4-15.88q-2.92,0-3.94,2a12.37,12.37,0,0,0-1,5.48,12.52,12.52,0,0,0,1,5.52q1,2,4,2t3.9-2a12.36,12.36,0,0,0,1-5.48,12.53,12.53,0,0,0-1-5.52Q497.45,24.34,494.53,24.34Z" transform="translate(-0.25)" style="fill:#fff"/><path d="M513.42,41.74a4.74,4.74,0,0,1-3.74-1.42,5.56,5.56,0,0,1-1.26-3.83V13.22h2.88V36.38a3.39,3.39,0,0,0,.58,2.18,2.55,2.55,0,0,0,2.06.7h1.56v2.48Z" transform="translate(-0.25)" style="fill:#fff"/><path d="M520.22,16.38V13.14h3.24v3.24Zm.16,25.36V22h2.88V41.74Z" transform="translate(-0.25)" style="fill:#fff"/><path d="M541.66,41.74V39.86a6.93,6.93,0,0,1-2.44,1.61,9.53,9.53,0,0,1-3.24.47,11.37,11.37,0,0,1-3.34-.4,6.16,6.16,0,0,1-2.48-1.64,5.16,5.16,0,0,1-1.22-3.76A5.21,5.21,0,0,1,530.7,32a7.49,7.49,0,0,1,5-1.52h5.92V28.58a4.19,4.19,0,0,0-1.17-3.26,5.64,5.64,0,0,0-3.83-1.06,7.28,7.28,0,0,0-3,.48,5.15,5.15,0,0,0-1.94,1.76l-2-1.8a6.74,6.74,0,0,1,2.86-2.3,11.39,11.39,0,0,1,4.1-.62q7.88,0,7.88,6.57V41.74Zm0-9.12h-5.52q-4.4,0-4.4,3.48t4.52,3.36a11.05,11.05,0,0,0,2.52-.24,4.27,4.27,0,0,0,1.94-1.14,4.59,4.59,0,0,0,.94-3.34Z" transform="translate(-0.25)" style="fill:#fff"/><path d="M564.15,41.74V29.59a5.46,5.46,0,0,0-1.28-3.91,4.69,4.69,0,0,0-3.56-1.34,4.75,4.75,0,0,0-3.58,1.34,5.4,5.4,0,0,0-1.3,3.91V41.74h-2.88V22h2.88v2.16a7.68,7.68,0,0,1,10.66-.48A7.28,7.28,0,0,1,567,29.12V41.74Z" transform="translate(-0.25)" style="fill:#fff"/><path d="M581.68,41.94a8.2,8.2,0,0,1-6.28-2.62Q573,36.7,573,31.86t2.42-7.48a8.22,8.22,0,0,1,6.3-2.6,8.73,8.73,0,0,1,3.52.62,9.52,9.52,0,0,1,3,2.3l-2,1.84a7.24,7.24,0,0,0-2.12-1.72,5.5,5.5,0,0,0-2.4-.48,5,5,0,0,0-4.42,2,9.41,9.41,0,0,0-1.42,5.5,13.94,13.94,0,0,0,.28,3.08,8.53,8.53,0,0,0,1.42,2.82q1.14,1.62,4.14,1.62a5.35,5.35,0,0,0,2.4-.48,7.74,7.74,0,0,0,2.12-1.76l2,1.88a9.4,9.4,0,0,1-3,2.28A8.66,8.66,0,0,1,581.68,41.94Z" transform="translate(-0.25)" style="fill:#fff"/><path d="M595.44,32.62a7.49,7.49,0,0,0,1.5,5,5.32,5.32,0,0,0,4.3,1.77,7,7,0,0,0,2.8-.49,8.16,8.16,0,0,0,2.36-1.71l2,1.72a11.12,11.12,0,0,1-3.18,2.32,9.73,9.73,0,0,1-4,.72,8.12,8.12,0,0,1-6.32-2.5q-2.28-2.5-2.28-7.58,0-4.76,2.14-7.42a7.2,7.2,0,0,1,5.94-2.66,7.35,7.35,0,0,1,5.94,2.54,10.5,10.5,0,0,1,2.14,7v1.32Zm9.8-5.44a4.61,4.61,0,0,0-1.8-2.16,5.06,5.06,0,0,0-2.8-.8,5,5,0,0,0-2.78.8,4.33,4.33,0,0,0-1.68,1.86,8.67,8.67,0,0,0-.6,1.82,9.77,9.77,0,0,0-.14,1.76h10.4a11.08,11.08,0,0,0-.1-1.76A7.83,7.83,0,0,0,605.24,27.18Z" transform="translate(-0.25)" style="fill:#fff"/><path d="M21.88,13.12,20.3,14.7l-1.58,1.58a.8.8,0,0,0,0,1.12l5.37,5.37a.8.8,0,0,0,1.12,0l.34-.34a.8.8,0,0,1,1.12,0c1.29.88,8.83,12.6,13,13A1.93,1.93,0,1,0,41,34.11c-.41-4.2-12.13-11.74-13-13A.8.8,0,0,1,28,20l.34-.34a.8.8,0,0,0,0-1.13L23,13.12A.8.8,0,0,0,21.88,13.12Z" transform="translate(-0.25)" style="fill:#fff"/><path d="M29.74,17.71a.81.81,0,0,0,1.12,0L32,16.58a1.27,1.27,0,0,0,.22-1.31,13.06,13.06,0,0,0-6-6,1.26,1.26,0,0,0-1.31.22l-1.12,1.12a.81.81,0,0,0,0,1.13Z" transform="translate(-0.25)" style="fill:#fff"/><path d="M17.36,18.19a.8.8,0,0,0-1.12,0l-1.12,1.12a1.25,1.25,0,0,0-.22,1.31,13.07,13.07,0,0,0,6,6,1.26,1.26,0,0,0,1.31-.22l1.12-1.12a.81.81,0,0,0,0-1.12Z" transform="translate(-0.25)" style="fill:#fff"/><path d="M31.11,33.63V32a.8.8,0,0,0-.8-.8H11.24a.8.8,0,0,0-.8.8v1.59S9.05,34.55,9.05,35v2.15a.8.8,0,0,0,.79.8H31.71a.8.8,0,0,0,.8-.8V35C32.51,34.55,31.11,33.63,31.11,33.63Z" transform="translate(-0.25)" style="fill:#fff"/></svg>