<svg id="Layer_1" data-name="Layer 1" xmlns="http://www.w3.org/2000/svg" xmlns:xlink="http://www.w3.org/1999/xlink" viewBox="0 0 465.81 51.74"><defs><radialGradient id="radial-gradient" cx="584.86" cy="596.25" r="170.13" gradientTransform="translate(-265.53 -295.29) scale(0.49)" gradientUnits="userSpaceOnUse"><stop offset="0" stop-color="#ec202b"/><stop offset="0.15" stop-color="#e2202a"/><stop offset="0.4" stop-color="#c51e26"/><stop offset="0.73" stop-color="#981c20"/><stop offset="1" stop-color="#6d1a1b"/></radialGradient><linearGradient id="linear-gradient" x1="9.34" y1="25.98" x2="43.81" y2="25.98" gradientUnits="userSpaceOnUse"><stop offset="0.14" stop-color="#fff"/><stop offset="1" stop-color="#ebedeb"/></linearGradient></defs><title>Marketing_Cloud</title><rect id="tile" width="52.02" height="50.71" style="fill:url(#radial-gradient)"/><path d="M26.55,19.54a6,6,0,1,1-5.22,9l.8-.47a5,5,0,0,1-.72-2.54,5.1,5.1,0,0,1,5.13-5Zm0,12.57a6.6,6.6,0,1,0,0-13.19V18a7.58,7.58,0,0,0-7.61,7.52A7.47,7.47,0,0,0,20,29.31l.8-.47A6.7,6.7,0,0,0,26.57,32.11Zm9.89-.9a11.5,11.5,0,0,1-21.36-5.7,11.39,11.39,0,0,1,11.46-11.3v.93A10.46,10.46,0,0,1,37.08,25.51a10.23,10.23,0,0,1-1.42,5.22Zm-9.89,6.22A12.11,12.11,0,0,0,37,31.53l.8.47a12.69,12.69,0,0,0,1.76-6.48,12.94,12.94,0,0,0-13-12.85v.93a11.92,11.92,0,1,0,0,23.84Zm0-28.31A16.52,16.52,0,0,1,43.19,25.51a16.13,16.13,0,0,1-2.27,8.26l-.8-.47a15.8,15.8,0,0,1-27.1,0l-.8.47A16.12,16.12,0,0,1,10,25.51,16.52,16.52,0,0,1,26.57,9.12Zm14.88,25a16.73,16.73,0,0,0,2.36-8.58,17.24,17.24,0,0,0-34.47,0,16.74,16.74,0,0,0,2.36,8.58l-.8.47a18.28,18.28,0,0,0,31.36,0Z" transform="translate(-0.55 -0.79)" style="fill-rule:evenodd;fill:url(#linear-gradient)"/><path d="M76,31.74l-3.48,9.77c-.09.18-.13.22-.36.22H69.72c-.22,0-.27-.09-.22-.31l10-27.5a3.81,3.81,0,0,0,.27-1.56.21.21,0,0,1,.22-.22h3.57c.18,0,.22,0,.27.18l10.58,29.1c0,.22,0,.31-.18.31H91.45c-.13,0-.22,0-.31-.22l-3.53-9.77ZM86.77,29c-1-2.9-4.11-11.43-5-14.42h0c-.8,2.86-3.08,9.11-5,14.42Z" transform="translate(-0.55 -0.79)" style="fill:#fff"/><path d="M94.35,31.11c0-6.56,4.91-11.34,11.92-11.34a12.56,12.56,0,0,1,3.21.31V9.86c0-.18.09-.27.22-.27h2.54c.22,0,.22.09.22.27V38.47c0,.49,0,1.12.09,1.79,0,.18,0,.22-.18.31a16,16,0,0,1-7.14,1.61C99.08,42.18,94.35,38.43,94.35,31.11Zm15.13-8.21a8.73,8.73,0,0,0-3.3-.49c-5.53,0-8.75,3.79-8.75,8.57,0,6.2,4,8.52,8.08,8.52a10.75,10.75,0,0,0,4-.67Z" transform="translate(-0.55 -0.79)" style="fill:#fff"/><path d="M135.86,30.93c0,6.7-4.06,11.25-10,11.25-7,0-10-5.85-10-11.2,0-6.34,4-11.2,10-11.2S135.86,24.41,135.86,30.93Zm-17,0c0,4.73,2.54,8.66,7.14,8.66,3.3,0,6.78-2.59,6.78-8.53,0-4.37-2.05-8.61-7.05-8.61C121.67,22.41,118.9,25.84,118.9,30.89Z" transform="translate(-0.55 -0.79)" style="fill:#fff"/><path d="M142.11,9.59c.18,0,.27,0,.27.27V20.75a12.56,12.56,0,0,1,5.13-1c6.07,0,10,4.33,10,10.36,0,7.95-6,12.05-12.1,12.05a17.3,17.3,0,0,1-5.85-.89.33.33,0,0,1-.22-.36V9.86c0-.18,0-.27.22-.27Zm5,12.81a11.21,11.21,0,0,0-4.69.89V39.14a11.47,11.47,0,0,0,3.3.4c4.55,0,8.79-3.08,8.79-9.15C154.47,25.66,151.66,22.41,147.06,22.41Z" transform="translate(-0.55 -0.79)" style="fill:#fff"/><path d="M162.46,31.07c-.13,4.73,2.5,8.39,7.77,8.39a12.12,12.12,0,0,0,5.58-1.21c.13-.09.22,0,.22.18v2.05c0,.22-.09.31-.22.36a12.16,12.16,0,0,1-6.11,1.34c-7.54,0-10.27-5.62-10.27-11,0-6.3,3.61-11.38,9.6-11.38,6.29,0,8.48,5.13,8.48,8.75a10.6,10.6,0,0,1-.13,2.1c0,.18-.13.27-.31.31-.67.09-2.72.13-4.6.13Zm9.06-2.32a20.71,20.71,0,0,0,3.08-.09c0-.13,0-.4,0-.54a5.62,5.62,0,0,0-5.71-5.8c-4,0-6,3.12-6.43,6.43Z" transform="translate(-0.55 -0.79)" style="fill:#fff"/><path d="M192.13,12.14h4c.22,0,.27.09.31.22,1.61,4.69,7.63,21.92,8.62,25.62h0c1.07-3.66,7.63-21,9.24-25.58,0-.18.09-.27.27-.27h3.88c.22,0,.22,0,.27.22l1.65,29.1a.23.23,0,0,1-.27.27h-2.59c-.22,0-.31,0-.31-.22-.49-10.58-1.07-24.64-1.07-27.27h0c-1.12,3.93-7.68,21.65-9.55,27.27a.37.37,0,0,1-.36.22h-2.59a.31.31,0,0,1-.36-.27c-2.54-7.68-7.77-23.08-8.93-27.27h-.09c0,3.62-1,17.95-1.56,27.27,0,.22,0,.27-.27.27H190c-.18,0-.27,0-.27-.27l2.1-29.06C191.91,12.18,192,12.14,192.13,12.14Z" transform="translate(-0.55 -0.79)" style="fill:#fff"/><path d="M240.23,38.25c0,.67,0,1.25.09,1.87,0,.09,0,.13-.09.18a17.07,17.07,0,0,1-7.95,1.88c-4.64,0-8-2.32-8-6.87,0-4.73,4.46-6.74,9.86-6.74a30.14,30.14,0,0,1,3.17.13V27.4c0-1.52-.67-5-5.22-5a11.59,11.59,0,0,0-5.58,1.34c-.13,0-.27,0-.27-.18V21.42c0-.18,0-.27.18-.31a13.51,13.51,0,0,1,6.16-1.34c5.49,0,7.68,3.66,7.68,8.17Zm-2.95-7.1a21.1,21.1,0,0,0-3.08-.18c-4.69,0-7,1.56-7,4.33,0,2.14,1.43,4.37,5.67,4.37a10.44,10.44,0,0,0,4.42-.89Z" transform="translate(-0.55 -0.79)" style="fill:#fff"/><path d="M247.85,20.17c.22,0,.27.09.36.27a28.34,28.34,0,0,1,.31,3.26,9.31,9.31,0,0,1,7.23-3.93c.18,0,.27,0,.27.22v2.64c0,.18,0,.22-.27.22a8.65,8.65,0,0,0-7.1,3.62l0,15c0,.22,0,.27-.22.27h-2.54c-.22,0-.22-.09-.22-.27V26c0-1.83-.13-4.42-.27-5.58,0-.18,0-.27.18-.27Z" transform="translate(-0.55 -0.79)" style="fill:#fff"/><path d="M275.05,20.17c.22,0,.27.18.13.31-1.25,1.34-8.35,8-10,9.6,0,0,0,.09,0,.13,2.95,3,8,7.95,11.43,11.2a.18.18,0,0,1-.13.31H273a.55.55,0,0,1-.45-.22C270.05,39.05,264,33,261.84,30.8c0,0,0-.09-.09-.09V41.47c0,.18,0,.27-.22.27H259c-.22,0-.27-.09-.27-.27V9.86c0-.18,0-.27.27-.27h2.5c.18,0,.22.09.22.27V30.31s0,0,.09-.09c1.92-1.88,8.66-8.57,9.91-9.82a.43.43,0,0,1,.4-.22Z" transform="translate(-0.55 -0.79)" style="fill:#fff"/><path d="M279.14,31.07c-.13,4.73,2.5,8.39,7.77,8.39a12.11,12.11,0,0,0,5.58-1.21c.13-.09.22,0,.22.18v2.05c0,.22-.09.31-.22.36a12.16,12.16,0,0,1-6.11,1.34c-7.54,0-10.27-5.62-10.27-11,0-6.3,3.62-11.38,9.6-11.38,6.29,0,8.48,5.13,8.48,8.75a10.46,10.46,0,0,1-.13,2.1c0,.18-.13.27-.31.31-.67.09-2.72.13-4.6.13Zm9.06-2.32a20.73,20.73,0,0,0,3.08-.09c0-.13,0-.4,0-.54a5.62,5.62,0,0,0-5.71-5.8c-4,0-6,3.12-6.43,6.43Z" transform="translate(-0.55 -0.79)" style="fill:#fff"/><path d="M307.33,41.15c0,.18,0,.31-.18.36a7.31,7.31,0,0,1-3.21.67c-3.08,0-5-1.47-5-5.67V22.81h-3.17c-.22,0-.27-.13-.27-.31V20.44c0-.18,0-.27.27-.27H299a49.28,49.28,0,0,1,.4-5.8c0-.18.09-.27.22-.31l2.46-.4c.13,0,.27,0,.27.13-.18,1.61-.31,4.2-.31,6.38h4.87c.22,0,.27.09.27.31v2.1c0,.18-.09.22-.27.22H302V36.24c0,2.1.8,3.3,2.81,3.3a5.56,5.56,0,0,0,2.28-.45c.13,0,.22,0,.22.18Z" transform="translate(-0.55 -0.79)" style="fill:#fff"/><path d="M310,13.43a1.84,1.84,0,0,1,1.92-2,1.8,1.8,0,0,1,1.87,2,1.85,1.85,0,0,1-1.92,1.92A1.79,1.79,0,0,1,310,13.43Zm.4,7c0-.18,0-.27.22-.27h2.5c.18,0,.27,0,.27.27v21c0,.18,0,.27-.27.27h-2.41c-.27,0-.31-.09-.31-.31Z" transform="translate(-0.55 -0.79)" style="fill:#fff"/><path d="M318.87,25.22c0-1.56-.13-4.11-.18-4.78,0-.18,0-.27.27-.27h2.19a.31.31,0,0,1,.36.27,17.82,17.82,0,0,1,.22,2.41,9.56,9.56,0,0,1,7-3.08c3.08,0,7.19,1.43,7.19,8.48V41.47c0,.18-.09.27-.31.27H333.2c-.22,0-.31-.09-.31-.31V28.52c0-3.53-1.56-6.07-4.91-6.07a7.63,7.63,0,0,0-6.11,3.13V41.47c0,.18,0,.27-.27.27h-2.46c-.22,0-.27-.09-.27-.27Z" transform="translate(-0.55 -0.79)" style="fill:#fff"/><path d="M350.67,38.47c5.31.31,8.61,2.1,8.61,6.2,0,4.37-4.15,7.86-10.53,7.86s-9.6-3.44-9.6-6.78c0-1.56,1.29-3.62,4.42-6.25a5.5,5.5,0,0,1-1.07-3.3,5.62,5.62,0,0,1,.71-2.81,7,7,0,0,1-3-6.07c0-4.15,3-7.54,8.08-7.54a13.67,13.67,0,0,1,3.12.31,3.37,3.37,0,0,0,.89.09h6.38c.18,0,.22.09.22.27v2.05c0,.18,0,.27-.27.27-1.29,0-3.3,0-4.42-.13a6.39,6.39,0,0,1,1.83,4.73c0,4.91-3.57,7.41-7.86,7.41a10.48,10.48,0,0,1-2.68-.36,3.73,3.73,0,0,0-.31,1.83,3.89,3.89,0,0,0,.89,2Zm-5.22,2.46c-2.1,1.43-3.44,3.52-3.44,4.64,0,2.23,2.63,4.55,6.92,4.55,5.18,0,7.54-2.63,7.54-5.09,0-2.9-3-3.66-6.43-3.84Zm-2.28-13.66c0,3,1.79,5.13,5,5.13,3,0,5-1.83,5-5.09,0-2.77-1.52-5.22-4.91-5.22A4.87,4.87,0,0,0,343.17,27.27Z" transform="translate(-0.55 -0.79)" style="fill:#fff"/><path d="M392.13,40.93a.38.38,0,0,1-.22.4,15.49,15.49,0,0,1-5.94.85c-7.14,0-15-4.11-15-15.36,0-8.88,6.21-15.13,15.58-15.13a14.15,14.15,0,0,1,5.67.8c.13,0,.18.18.18.36v2.41c0,.27-.13.27-.27.18a12.9,12.9,0,0,0-5.71-1c-7.28,0-12.36,4.82-12.36,12.32,0,10,7.59,12.63,12.23,12.63a15.33,15.33,0,0,0,5.62-.76c.13-.09.27-.09.27.13Z" transform="translate(-0.55 -0.79)" style="fill:#fff"/><path d="M395.87,9.86c0-.22.09-.27.31-.27h2.46c.18,0,.22.13.22.27v27.5c0,1.83.76,2.23,1.83,2.23a3.94,3.94,0,0,0,.94-.13c.18,0,.18,0,.18.22v1.88c0,.22,0,.27-.18.36a6.19,6.19,0,0,1-1.88.27c-1.92,0-3.88-.67-3.88-4.6Z" transform="translate(-0.55 -0.79)" style="fill:#fff"/><path d="M423.36,30.93c0,6.7-4.06,11.25-10,11.25-7,0-10-5.85-10-11.2,0-6.34,4-11.2,10-11.2S423.36,24.41,423.36,30.93Zm-17,0c0,4.73,2.54,8.66,7.14,8.66,3.3,0,6.78-2.59,6.78-8.53,0-4.37-2.05-8.61-7.05-8.61C409.16,22.41,406.4,25.84,406.4,30.89Z" transform="translate(-0.55 -0.79)" style="fill:#fff"/><path d="M444.11,37a29.68,29.68,0,0,0,.22,4.42c0,.22,0,.27-.22.27h-2.32a.24.24,0,0,1-.27-.22,12.19,12.19,0,0,1-.27-2,8.85,8.85,0,0,1-6.56,2.68c-3.61,0-7.32-1.74-7.32-8.3V20.44c0-.22,0-.27.27-.27h2.5c.18,0,.22.09.22.27v13c0,3.75,1.79,6,5.09,6a7.07,7.07,0,0,0,5.62-2.54V20.44c0-.18.09-.27.31-.27h2.5c.18,0,.22.09.22.27Z" transform="translate(-0.55 -0.79)" style="fill:#fff"/><path d="M448.15,31.11c0-6.56,4.91-11.34,11.92-11.34a12.56,12.56,0,0,1,3.21.31V9.86c0-.18.09-.27.22-.27H466c.22,0,.22.09.22.27V38.47c0,.49,0,1.12.09,1.79,0,.18,0,.22-.18.31A16,16,0,0,1,459,42.18C452.88,42.18,448.15,38.43,448.15,31.11Zm15.13-8.21a8.73,8.73,0,0,0-3.3-.49c-5.54,0-8.75,3.79-8.75,8.57,0,6.2,4,8.52,8.08,8.52a10.76,10.76,0,0,0,4-.67Z" transform="translate(-0.55 -0.79)" style="fill:#fff"/></svg>