<svg id="Layer_1" data-name="Layer 1" xmlns="http://www.w3.org/2000/svg" viewBox="0 0 500.94 51.8"><title>River_Localization</title><path d="M84.79,39.08a9.73,9.73,0,0,1-7.2,2.64H67.83V13.21h9.76q4.56,0,6.86,2.3a9,9,0,0,1,2.72,4.77,43.27,43.27,0,0,1,.42,6.87v1.52a31.68,31.68,0,0,1-.5,6.13A8.24,8.24,0,0,1,84.79,39.08ZM82.67,18a6.25,6.25,0,0,0-2.46-1.58,9.39,9.39,0,0,0-3.14-.5h-6.2V39h6.2a9.66,9.66,0,0,0,3.14-.46,6.44,6.44,0,0,0,2.54-1.72,6.14,6.14,0,0,0,1.5-3.53,49.22,49.22,0,0,0,.3-6.15V25.82a21.43,21.43,0,0,0-.44-5.25A6.07,6.07,0,0,0,82.67,18Z" style="fill:#fff"/><path d="M94.07,16.37V13.13h3.24v3.24Zm.16,25.36V22h2.88V41.73Z" style="fill:#fff"/><path d="M110.68,50.73a9.66,9.66,0,0,1-3.62-.58A10.91,10.91,0,0,1,104,48.09l1.88-1.84A9,9,0,0,0,108,47.72a6.27,6.27,0,0,0,2.56.45,4.9,4.9,0,0,0,4.06-1.67A6.68,6.68,0,0,0,116,42.18V39.13a6.2,6.2,0,0,1-2.46,2,8,8,0,0,1-3.06.55,7.38,7.38,0,0,1-2.68-.48,6.92,6.92,0,0,1-2.34-1.56,6.56,6.56,0,0,1-1.62-3.18,19.77,19.77,0,0,1-.52-4.74,20.05,20.05,0,0,1,.5-4.8,6.49,6.49,0,0,1,1.58-3.08,6.57,6.57,0,0,1,2.37-1.56,8.52,8.52,0,0,1,5.8.06,6.32,6.32,0,0,1,2.43,2V22h2.88V42.29a8.56,8.56,0,0,1-2.2,6.08A7.81,7.81,0,0,1,110.68,50.73Zm.44-26.4q-2.88,0-3.9,2a12,12,0,0,0-1,5.35,12.14,12.14,0,0,0,1,5.38q1,2,3.92,2t3.9-2a12.34,12.34,0,0,0,1-5.4,12.33,12.33,0,0,0-1-5.39Q114,24.33,111.12,24.33Z" style="fill:#fff"/><path d="M125.92,16.37V13.13h3.24v3.24Zm.16,25.36V22H129V41.73Z" style="fill:#fff"/><path d="M141.73,41.73A4.71,4.71,0,0,1,138,40.24a5.57,5.57,0,0,1-1.3-3.81V24.33h-2.48v-2.2h2.48V16h2.88v6.16h4.2v2.2h-4.2v12q0,2.89,2.68,2.89h1.52v2.48Z" style="fill:#fff"/><path d="M160.65,41.73V39.85a6.92,6.92,0,0,1-2.44,1.61,9.54,9.54,0,0,1-3.24.47,11.36,11.36,0,0,1-3.34-.4,6.16,6.16,0,0,1-2.48-1.64,5.16,5.16,0,0,1-1.22-3.76A5.21,5.21,0,0,1,149.69,32a7.49,7.49,0,0,1,5-1.52h5.92V28.57a4.19,4.19,0,0,0-1.17-3.26,5.64,5.64,0,0,0-3.83-1.06,7.28,7.28,0,0,0-3,.48,5.17,5.17,0,0,0-1.94,1.76l-2-1.8a6.74,6.74,0,0,1,2.86-2.3,11.4,11.4,0,0,1,4.1-.62q7.88,0,7.88,6.57V41.73Zm0-9.12h-5.52q-4.4,0-4.4,3.48t4.52,3.36a11,11,0,0,0,2.52-.24,4.28,4.28,0,0,0,1.94-1.14,4.59,4.59,0,0,0,.94-3.34Z" style="fill:#fff"/><path d="M175.46,41.73a4.74,4.74,0,0,1-3.74-1.42,5.56,5.56,0,0,1-1.26-3.83V13.21h2.88V36.36a3.39,3.39,0,0,0,.58,2.18,2.55,2.55,0,0,0,2.06.7h1.56v2.48Z" style="fill:#fff"/><path d="M209.26,41.73,202.78,29h-6.84V41.73h-3V13.21h10.92a8.69,8.69,0,0,1,6.1,2.14,7.45,7.45,0,0,1,2.34,5.78,7.57,7.57,0,0,1-1.68,5,7.81,7.81,0,0,1-4.52,2.6l6.76,13Zm-5.72-25.8h-7.6V26.37h7.6A6.15,6.15,0,0,0,207.68,25a4.83,4.83,0,0,0,1.54-3.88,4.87,4.87,0,0,0-1.56-3.88A6,6,0,0,0,203.54,15.93Z" style="fill:#fff"/><path d="M218.47,16.37V13.13h3.24v3.24Zm.16,25.36V22h2.88V41.73Z" style="fill:#fff"/><path d="M235.35,41.73h-2.56L225.59,22h3.11l5.35,15.82L239.48,22h3.11Z" style="fill:#fff"/><path d="M248.44,32.61a7.49,7.49,0,0,0,1.5,5,5.32,5.32,0,0,0,4.3,1.77,7,7,0,0,0,2.8-.49,8.18,8.18,0,0,0,2.36-1.71l2,1.72a11.12,11.12,0,0,1-3.18,2.32,9.73,9.73,0,0,1-4,.72,8.12,8.12,0,0,1-6.32-2.5q-2.28-2.5-2.28-7.58,0-4.76,2.14-7.42a7.2,7.2,0,0,1,5.94-2.66,7.35,7.35,0,0,1,5.94,2.54,10.5,10.5,0,0,1,2.14,7v1.32Zm9.8-5.44a4.6,4.6,0,0,0-1.8-2.16,5.06,5.06,0,0,0-2.8-.8,5,5,0,0,0-2.78.8,4.33,4.33,0,0,0-1.68,1.86,8.71,8.71,0,0,0-.6,1.82,9.77,9.77,0,0,0-.14,1.76h10.4a11.1,11.1,0,0,0-.1-1.76A7.9,7.9,0,0,0,258.24,27.17Z" style="fill:#fff"/><path d="M278.84,25.77a5.16,5.16,0,0,0-1.54-1.12,4.72,4.72,0,0,0-1.86-.32,4.3,4.3,0,0,0-3.42,1.5,5.58,5.58,0,0,0-1.3,3.79V41.73h-2.88V22h2.88v2.4a5.59,5.59,0,0,1,2.3-1.92,7.35,7.35,0,0,1,3.22-.72,7.7,7.7,0,0,1,2.58.38A6,6,0,0,1,281,23.61Z" style="fill:#fff"/><path d="M295.17,41.73V13.21h3V39h14.56v2.72Z" style="fill:#fff"/><path d="M330.22,39.69a7.65,7.65,0,0,1-2.46,1.66,9,9,0,0,1-6.34,0,8,8,0,0,1-2.64-1.84A6.9,6.9,0,0,1,317,36.39a17.7,17.7,0,0,1-.5-4.54,17.8,17.8,0,0,1,.5-4.5,6.91,6.91,0,0,1,1.74-3.16,7.51,7.51,0,0,1,5.8-2.42,8.2,8.2,0,0,1,3.16.58,8.05,8.05,0,0,1,2.64,1.84,6.91,6.91,0,0,1,1.74,3.12,17.72,17.72,0,0,1,.5,4.54,17.82,17.82,0,0,1-.5,4.5A7.44,7.44,0,0,1,330.22,39.69Zm-2-13.92a4.89,4.89,0,0,0-3.6-1.44,4.49,4.49,0,0,0-3.32,1.2,5.38,5.38,0,0,0-1.52,2.78,17.86,17.86,0,0,0-.32,3.54,18.37,18.37,0,0,0,.3,3.62,5.27,5.27,0,0,0,1.52,2.68,5.25,5.25,0,0,0,6.7,0,5.23,5.23,0,0,0,1.5-2.7,18.74,18.74,0,0,0,.3-3.62,18.83,18.83,0,0,0-.3-3.6A4.69,4.69,0,0,0,328.18,25.77Z" style="fill:#fff"/><path d="M346.42,41.93a8.2,8.2,0,0,1-6.28-2.62q-2.44-2.62-2.44-7.46t2.42-7.48a8.22,8.22,0,0,1,6.3-2.6,8.73,8.73,0,0,1,3.52.62,9.49,9.49,0,0,1,3,2.3l-2,1.84a7.25,7.25,0,0,0-2.12-1.72,5.5,5.5,0,0,0-2.4-.48,5,5,0,0,0-4.42,2,9.41,9.41,0,0,0-1.42,5.5,13.91,13.91,0,0,0,.28,3.08,8.54,8.54,0,0,0,1.42,2.82q1.14,1.62,4.14,1.62a5.36,5.36,0,0,0,2.4-.48,7.74,7.74,0,0,0,2.12-1.76l2,1.88a9.39,9.39,0,0,1-3,2.28A8.65,8.65,0,0,1,346.42,41.93Z" style="fill:#fff"/><path d="M369.55,41.73V39.85a6.92,6.92,0,0,1-2.44,1.61,9.54,9.54,0,0,1-3.24.47,11.36,11.36,0,0,1-3.34-.4A6.16,6.16,0,0,1,358,39.89a5.16,5.16,0,0,1-1.22-3.76A5.21,5.21,0,0,1,358.59,32a7.49,7.49,0,0,1,5-1.52h5.92V28.57a4.19,4.19,0,0,0-1.17-3.26,5.64,5.64,0,0,0-3.83-1.06,7.28,7.28,0,0,0-3,.48,5.17,5.17,0,0,0-1.94,1.76l-2-1.8a6.74,6.74,0,0,1,2.86-2.3,11.4,11.4,0,0,1,4.1-.62q7.88,0,7.88,6.57V41.73Zm0-9.12H364q-4.4,0-4.4,3.48t4.52,3.36a11,11,0,0,0,2.52-.24,4.28,4.28,0,0,0,1.94-1.14,4.59,4.59,0,0,0,.94-3.34Z" style="fill:#fff"/><path d="M384.35,41.73a4.74,4.74,0,0,1-3.74-1.42,5.56,5.56,0,0,1-1.26-3.83V13.21h2.88V36.36a3.39,3.39,0,0,0,.58,2.18,2.55,2.55,0,0,0,2.06.7h1.56v2.48Z" style="fill:#fff"/><path d="M391.15,16.37V13.13h3.24v3.24Zm.16,25.36V22h2.88V41.73Z" style="fill:#fff"/><path d="M399.84,41.73l0-2.49,11-14.67H400.44V22h13.68v2.44l-11,14.72h11v2.56Z" style="fill:#fff"/><path d="M431,41.73V39.85a6.92,6.92,0,0,1-2.44,1.61,9.54,9.54,0,0,1-3.24.47,11.36,11.36,0,0,1-3.34-.4,6.16,6.16,0,0,1-2.48-1.64,5.16,5.16,0,0,1-1.22-3.76A5.21,5.21,0,0,1,420,32a7.49,7.49,0,0,1,5-1.52H431V28.57a4.19,4.19,0,0,0-1.17-3.26A5.64,5.64,0,0,0,426,24.25a7.28,7.28,0,0,0-3,.48A5.17,5.17,0,0,0,421,26.49l-2-1.8a6.74,6.74,0,0,1,2.86-2.3,11.4,11.4,0,0,1,4.1-.62q7.88,0,7.88,6.57V41.73Zm0-9.12h-5.52q-4.4,0-4.4,3.48t4.52,3.36a11,11,0,0,0,2.52-.24A4.28,4.28,0,0,0,430,38.07a4.59,4.59,0,0,0,.94-3.34Z" style="fill:#fff"/><path d="M446.37,41.73a4.71,4.71,0,0,1-3.74-1.48,5.57,5.57,0,0,1-1.3-3.81V24.33h-2.48v-2.2h2.48V16h2.88v6.16h4.2v2.2h-4.2v12q0,2.89,2.68,2.89h1.52v2.48Z" style="fill:#fff"/><path d="M454,16.37V13.13h3.24v3.24Zm.16,25.36V22H457V41.73Z" style="fill:#fff"/><path d="M476.9,39.69a7.65,7.65,0,0,1-2.46,1.66,9,9,0,0,1-6.34,0,8,8,0,0,1-2.64-1.84,6.9,6.9,0,0,1-1.74-3.12,17.7,17.7,0,0,1-.5-4.54,17.8,17.8,0,0,1,.5-4.5,6.91,6.91,0,0,1,1.74-3.16,7.51,7.51,0,0,1,5.8-2.42,8.2,8.2,0,0,1,3.16.58,8.05,8.05,0,0,1,2.64,1.84,6.91,6.91,0,0,1,1.74,3.12,17.72,17.72,0,0,1,.5,4.54,17.82,17.82,0,0,1-.5,4.5A7.44,7.44,0,0,1,476.9,39.69Zm-2-13.92a4.89,4.89,0,0,0-3.6-1.44,4.49,4.49,0,0,0-3.32,1.2,5.38,5.38,0,0,0-1.52,2.78,17.86,17.86,0,0,0-.32,3.54,18.37,18.37,0,0,0,.3,3.62,5.27,5.27,0,0,0,1.52,2.68,5.25,5.25,0,0,0,6.7,0,5.23,5.23,0,0,0,1.5-2.7,18.74,18.74,0,0,0,.3-3.62,18.83,18.83,0,0,0-.3-3.6A4.69,4.69,0,0,0,474.86,25.77Z" style="fill:#fff"/><path d="M498.06,41.73V29.58a5.45,5.45,0,0,0-1.28-3.91,4.69,4.69,0,0,0-3.56-1.34,4.75,4.75,0,0,0-3.58,1.34,5.4,5.4,0,0,0-1.3,3.91V41.73h-2.88V22h2.88v2.16A7.68,7.68,0,0,1,499,23.69a7.28,7.28,0,0,1,1.94,5.41V41.73Z" style="fill:#fff"/><rect width="51.8" height="51.8" style="fill:#00a7e1"/><path d="M32.16,15.79a11.13,11.13,0,0,1,.95,1.76,11.29,11.29,0,0,1,1.83.38,2.55,2.55,0,0,1,.09.72c0,1.59-.31,1.13-.31,2.49.1,1.08,1.17.45,1.46.35a6.11,6.11,0,0,0,2-2A11.34,11.34,0,0,1,40.74,22,4,4,0,0,0,40,23.25c0,.47,0,0,.6.47s.34.82,1.15.46a.6.6,0,0,0,.24-.18c.13.29.26.59.37.89a1.28,1.28,0,0,0-.61.11c-.71.34-1.66-.4-2.36.46a5.19,5.19,0,0,0-1,1.65c-.16.48-.78,1.83,1.19,1.16A3.42,3.42,0,0,1,41.69,28a1.55,1.55,0,0,0,1.24-.14c0,.27,0,.55,0,.83s0,.63,0,.94h-.05c-1.75.12-1.4-.53-2.69-.73a7.69,7.69,0,0,0-1.81-.06,1.25,1.25,0,0,0-.77.6c-.8,1.55-2.19,2.88-.93,3.93s3.28.35,3.63.94c.15.26.4.52.6.88A11.26,11.26,0,0,1,33,39.92c.13-.64.34-.71,1.5-1.77,1.4-1.29,1.18-1.44,0-2.14s-.92-.72-1.68-1.54a3.12,3.12,0,0,0-3.21-1.14A1.83,1.83,0,0,0,29,33.2a1.5,1.5,0,0,0-.52-.37c-1-.47-.71-.25-1.26-.69a11.06,11.06,0,0,1-1.28.46c.78.49,1.5.87,1.92,1.09l.73.42c-.13,1-.91,2.44,0,3.16a3.17,3.17,0,0,1,1.26,2.58,11.29,11.29,0,0,1-8.63-6.94,11.11,11.11,0,0,1-1.94-.47A13,13,0,1,0,32.16,15.79Z" style="fill:#fff"/><path d="M7.27,37a2.39,2.39,0,0,0,3.37.06l6.86-6.63A10.08,10.08,0,1,0,14.17,27L7.33,33.64A2.39,2.39,0,0,0,7.27,37Zm15.57-8.94A6.18,6.18,0,1,1,29,21.9,6.18,6.18,0,0,1,22.85,28.07Z" style="fill:#fff"/></svg>