<svg xmlns="http://www.w3.org/2000/svg" viewBox="0 0 89.2 89.2"><defs><style>.cls-1{fill:#00a7e1;}</style></defs><title>acquisition_icon</title><g id="Layer_2" data-name="Layer 2"><g id="Layer_1-2" data-name="Layer 1"><g id="acquisition_icon"><path class="cls-1" d="M54.13,58.83a1.08,1.08,0,0,0-.28-1.5l-5.78-4a2.3,2.3,0,0,1-.89-1.69V45.3a1.08,1.08,0,0,0-1.08-1.08h-.89a1.08,1.08,0,0,0-1.08,1.08v6.35a2.3,2.3,0,0,1-.89,1.69l-5.78,4a1.08,1.08,0,0,0-.28,1.5l.5.73a1.08,1.08,0,0,0,1.5.28L44.77,56a1.68,1.68,0,0,1,1.77,0l5.58,3.85a1.08,1.08,0,0,0,1.5-.28Z"/><path class="cls-1" d="M68.72,46.37a4.13,4.13,0,1,1-4.13-4.13A4.13,4.13,0,0,1,68.72,46.37Zm4,13.69V56.37A3.39,3.39,0,0,0,70.48,53l-3.76-1.34L64.58,59l-2.14-7.28L58.68,53a3.39,3.39,0,0,0-2.24,3.32v4.41a1.08,1.08,0,0,0,1.08,1.08H71.64a1.08,1.08,0,0,0,1.08-1.07h0Z"/><path class="cls-1" d="M26.73,42.24a4.13,4.13,0,1,1-4.13,4.13A4.13,4.13,0,0,1,26.73,42.24ZM18.6,60.78h0a1.08,1.08,0,0,0,1.08,1.08H33.81a1.08,1.08,0,0,0,1.08-1.08V56.37A3.39,3.39,0,0,0,32.64,53l-3.76-1.34L26.74,59,24.6,51.71,20.84,53a3.39,3.39,0,0,0-2.24,3.32v4.41Z"/><path class="cls-1" d="M49.79,26.58a4.13,4.13,0,1,1-4.13-4.13A4.13,4.13,0,0,1,49.79,26.58Zm4,13.69V36.58a3.39,3.39,0,0,0-2.24-3.32l-3.76-1.34L45.65,39.2l-2.14-7.28-3.76,1.34a3.39,3.39,0,0,0-2.24,3.32V41a1.08,1.08,0,0,0,1.08,1.08H52.72A1.08,1.08,0,0,0,53.79,41h0Z"/><path class="cls-1" d="M44.6,89.2A44.6,44.6,0,1,1,89.2,44.6,44.65,44.65,0,0,1,44.6,89.2Zm0-84.5A39.9,39.9,0,1,0,84.5,44.6,39.95,39.95,0,0,0,44.6,4.69Z"/></g></g></g></svg>