<svg xmlns="http://www.w3.org/2000/svg" viewBox="0 0 89.01 88.73"><defs><style>.cls-1,.cls-2{fill:#00a7e1;}.cls-2{fill-rule:evenodd;}</style></defs><title>availability_icon</title><g id="Layer_2" data-name="Layer 2"><g id="Layer_1-2" data-name="Layer 1"><g id="availability_icon"><path class="cls-1" d="M71.89,44.8,66,35.95h0a1,1,0,0,0-.54-.41L51.22,31.48l2.87-3.19a1,1,0,0,0-.73-1.64H49.42V19.77a1,1,0,0,0-1-1H40.57a1,1,0,0,0-1,1v6.89H35.65a1,1,0,0,0-.73,1.64l.88,1-.1,0,.62.54,1.47,1.64L23.57,35.54A1,1,0,0,0,23,36h0l-5.9,8.85a1,1,0,0,0,.51,1.48L22.86,48v15a1,1,0,0,0,.71.95l20.66,5.9a1,1,0,0,0,.54,0L65.44,64a1,1,0,0,0,.71-.95V48l5.23-1.74a1,1,0,0,0,.51-1.48Zm-52.42,0,4.79-7.18L43,43l-4.84,8.06Zm23.9,22.79.15-1.91v2ZM44.5,41.37,27.42,36.49l11.83-3.38,4.52,5a1,1,0,0,0,1.46,0l4.52-5,11.83,3.38ZM64.18,62.31,45.49,67.66V45.94l4.08,6.8a1,1,0,0,0,1.15.43l13.46-4.49ZM50.85,51.05,46,43l18.74-5.35,4.79,7.19Z"/><path class="cls-2" d="M4.56,44.36A39.94,39.94,0,1,0,44.47,4.55,39.91,39.91,0,0,0,4.56,44.36ZM0,44.36A44.51,44.51,0,1,1,44.47,88.73,44.46,44.46,0,0,1,0,44.36Z"/></g></g></g></svg>