<svg xmlns="http://www.w3.org/2000/svg" viewBox="0 0 90.34 90.34"><defs><style>.cls-1{fill:#00a7e1;}</style></defs><title>customer_icon</title><g id="Layer_2" data-name="Layer 2"><g id="Layer_1-2" data-name="Layer 1"><g id="customer_icon"><path class="cls-1" d="M26,38.69A9.81,9.81,0,0,0,21.93,47,9.8,9.8,0,0,0,26,55.31Z"/><path class="cls-1" d="M62.58,38.55a9.81,9.81,0,0,1,4.09,8.31,9.81,9.81,0,0,1-4.09,8.31Z"/><path class="cls-1" d="M60.92,38.28V55.71H57.14a2.38,2.38,0,0,1-2.37-2.37V40.65a2.38,2.38,0,0,1,2.37-2.37H58.9C57,32,51.19,29.08,44.3,29.08S31.58,32,29.7,38.28h1.77a2.38,2.38,0,0,1,2.37,2.37V53.34a2.38,2.38,0,0,1-2.37,2.37H27.68V38.28c2-8.28,7.74-14.43,16.62-14.43S58.94,30,60.92,38.28Z"/><path class="cls-1" d="M67.95,50a11.55,11.55,0,0,1-2.41,4.78,5.9,5.9,0,0,1-.4,1.17c-1.36,2.85-4.85,4.54-8,5.51A3.79,3.79,0,1,0,57.8,64c3.95-1.2,8-3.29,9.74-7A9.93,9.93,0,0,0,67.95,50Z"/><path class="cls-1" d="M45.17,90.34A45.17,45.17,0,1,1,90.34,45.17,45.22,45.22,0,0,1,45.17,90.34Zm0-85.58A40.41,40.41,0,1,0,85.58,45.17,40.46,40.46,0,0,0,45.17,4.75Z"/></g></g></g></svg>