<svg xmlns="http://www.w3.org/2000/svg" viewBox="0 0 93.85 96.07"><defs><style>.cls-1{fill:#00a7e1;}</style></defs><title>merchant_icon</title><g id="Layer_2" data-name="Layer 2"><g id="Layer_1-2" data-name="Layer 1"><g id="merchant_icon"><path class="cls-1" d="M30.24,26.91l-3.36-1.82a1.9,1.9,0,0,0-2.58.78L14.51,44.23a1.9,1.9,0,0,0,.77,2.57l3.36,1.82a1.9,1.9,0,0,0,2.58-.78L31,29.48A1.9,1.9,0,0,0,30.24,26.91Z"/><path class="cls-1" d="M79.51,47.13,71.35,28a1.9,1.9,0,0,0-2.51-1l-3.51,1.52a1.9,1.9,0,0,0-1,2.49L72.5,50.14a1.9,1.9,0,0,0,2.51,1l3.51-1.52A1.9,1.9,0,0,0,79.51,47.13Z"/><path class="cls-1" d="M69.06,54.48a8.8,8.8,0,0,0,1.14-3.63L62.4,32.71s-1.15,0-2.29,0-5-2.51-9.93-2.72c-4.1-.18-5.08.53-6.77,1.56l-10.2-.44a.76.76,0,0,0-.71.41l-.95,1.84a.76.76,0,0,0,.64,1.11l5.5.24a7.57,7.57,0,0,0-1.82,5c-.19,2.61-2.13,3.83-2.17,4.81s.55,2.39,3.07,2.58a6.34,6.34,0,0,0,6.89-4.52c.56-1.61,1.06-3.79,3.75-3.68s4.77,3.07,6.33,4.69l10.34,10,2.84,2.66a2.21,2.21,0,0,1-1.73,3.7A2.4,2.4,0,0,1,64,59.5L51.88,50A1.33,1.33,0,0,0,50.24,52L62,61.24l.12.06a1.33,1.33,0,0,1,.46.53,1.25,1.25,0,0,1,.06.53,1.86,1.86,0,0,1-3,1.36l0,0L49.18,55.58a1.33,1.33,0,0,0-1.64,2.1l9.24,7.25a1.81,1.81,0,0,1-2.32,2.59l-.31-.17L46,61a1.33,1.33,0,1,0-1.64,2.1l4.14,3.24.73.58a1.43,1.43,0,0,1-1.07,2.44s-1.1,0-1.82-1.6a3,3,0,0,0-2.79-2.25c-.51,0-1.12-.5-1.1-.95a3,3,0,0,0-3.65-3.08c-.46.1-.92-.1-.85-.48a3.39,3.39,0,0,0-3.18-4A4.29,4.29,0,0,0,34,57a.5.5,0,0,1-.59-.65,4,4,0,0,0,.19-1,3.39,3.39,0,0,0-3.24-3.53h-.13l-4.51-5.8a.76.76,0,0,0-1.26.09l-1.21,2.13a.76.76,0,0,0,.06.85L27,53.81c-1.24,1.43-2.8,3.47-2.91,3.68A3.38,3.38,0,0,0,28.77,62c.18-.1.34,0,.29.24A3.39,3.39,0,0,0,34,66.06c.32-.18.44-.05.33.32a3,3,0,0,0,5,3c.19-.2.29.11.27.51a3,3,0,0,0,5.69,1.54l.37-.68A3.82,3.82,0,0,0,52,68.6l.12.11a4.2,4.2,0,0,0,7.27-2.43,4.12,4.12,0,0,0,1.14.22,4.22,4.22,0,0,0,4.4-4s0-.05,0-.08l.16,0a4.73,4.73,0,0,0,3.83-7.76Z"/><path class="cls-1" d="M46.93,96.07C21.05,96.07,0,74.53,0,48.07S21.05,0,46.93,0,93.85,21.56,93.85,48.07,72.8,96.07,46.93,96.07Zm0-90.94c-23.05,0-41.8,19.27-41.8,42.94s18.75,42.88,41.8,42.88,41.8-19.23,41.8-42.88S70,5.12,46.93,5.12Z"/></g></g></g></svg>