<svg id="09eed353-25fb-4420-949e-c908c109009f" data-name="Layer 1" xmlns="http://www.w3.org/2000/svg" xmlns:xlink="http://www.w3.org/1999/xlink" viewBox="0 0 618.09 490.06"><defs><clipPath id="c69717bf-1157-4bf7-bc10-34103a7ba803" transform="translate(-0.27 -0.44)"><path d="M308,240.7V238a1.51,1.51,0,0,0,.89,1.23,4.7,4.7,0,0,0,4.23,0v2.66a4.64,4.64,0,0,1-4.23,0A1.49,1.49,0,0,1,308,240.7Z" style="fill:#9cb5cc"/></clipPath><clipPath id="6ba37fc1-6974-4b12-8e34-8f804b722c37" transform="translate(-0.27 -0.44)"><path d="M359,229.63c0,.89,0,1.77,0,2.66a1.49,1.49,0,0,1-.87,1.22l0-2.66A1.5,1.5,0,0,0,359,229.63Z" style="fill:#9cb5cc"/></clipPath><clipPath id="05c235ed-a5cf-49b5-988f-804f675c116b" transform="translate(-0.27 -0.44)"><path d="M197.93,308c0-.88,0-1.77,0-2.65a1.5,1.5,0,0,0,.88,1.23,4.64,4.64,0,0,0,4.22,0v2.66a4.66,4.66,0,0,1-4.22,0A1.48,1.48,0,0,1,197.93,308Z" style="fill:#9cb5cc"/></clipPath><clipPath id="79485ec4-dd30-4878-9a20-373bf77336d7" transform="translate(-0.27 -0.44)"><path d="M248.87,296.9c0,.89,0,1.77,0,2.66a1.5,1.5,0,0,1-.87,1.22v-2.66A1.5,1.5,0,0,0,248.87,296.9Z" style="fill:#9cb5cc"/></clipPath><clipPath id="74637c2c-18f6-4728-befe-6624495eb88f" transform="translate(-0.27 -0.44)"><path d="M357.83,323.37c0-.89,0-1.77,0-2.66a1.49,1.49,0,0,1-.88,1.23,4.64,4.64,0,0,1-4.23,0v2.66a4.64,4.64,0,0,0,4.23,0A1.5,1.5,0,0,0,357.83,323.37Z" style="fill:#9cb5cc"/></clipPath><clipPath id="fb9612b7-d849-42c8-b6b7-d69e9e4c0fa4" transform="translate(-0.27 -0.44)"><path d="M306.8,312.29c0,.88,0,1.77,0,2.66a1.48,1.48,0,0,0,.87,1.22v-2.66A1.53,1.53,0,0,1,306.8,312.29Z" style="fill:#9cb5cc"/></clipPath></defs><title>mobile_loyalty_block</title><g id="e6c9e5e3-998a-4d1a-a89a-0782d3908d43" data-name="loyalty_block"><g id="696cf32c-47de-49f0-a8b3-29e1314d23c3" data-name="orange_brick" style="opacity:0.9"><g id="8053b5c6-a6c9-42a7-87ae-01ed5b8cef17" data-name="purple_brick"><g id="b6e48294-c548-4a59-8256-8480062e8e83" data-name="yellow_brick"><polygon points="309.5 490.06 617.5 312.31 617.7 285.88 617.62 283.78 310.04 106.2 1.15 284.4 0.6 284.73 0 312.31 309.5 490.06 309.5 490.06" style="fill:#b6e8fb"/><polygon points="309.5 490.06 0 312.31 0.6 284.73 309.71 464.43 309.5 490.06" style="fill:#fff;opacity:0.2"/><polygon points="617.5 312.31 309.5 490.06 309.96 464.25 618.09 283.81 617.5 312.31" style="fill:#fff;opacity:0.4"/></g></g></g><g id="b3f7e1ec-8dd7-4493-99cb-ce10d2af59ff" data-name="loyalty_illustration"><g style="isolation:isolate"><polygon points="329.53 224.23 329.52 226.9 325.29 224.46 325.3 221.79 329.53 224.23" style="fill:#919191"/><polygon points="337.99 229.12 337.98 231.78 333.76 229.35 333.76 226.68 337.99 229.12" style="fill:#919191"/><polygon points="342.56 219.11 342.55 221.78 337.98 231.78 337.99 229.12 342.56 219.11" style="fill:#939393"/><polygon points="333.76 226.68 333.76 229.35 312.85 241.49 312.86 238.83 333.76 226.68" style="fill:#d1dce6"/><g style="isolation:isolate"><path d="M308,240.7V238a1.51,1.51,0,0,0,.89,1.23,4.7,4.7,0,0,0,4.23,0v2.66a4.64,4.64,0,0,1-4.23,0A1.49,1.49,0,0,1,308,240.7Z" transform="translate(-0.27 -0.44)" style="fill:#9cb5cc"/><g style="clip-path:url(#c69717bf-1157-4bf7-bc10-34103a7ba803)"><g style="isolation:isolate"><path d="M313.12,239.27v2.66l-.31.16v-2.67l.31-.15Z" transform="translate(-0.27 -0.44)" style="fill:#9e9e9e"/><path d="M312.82,239.42v2.67a4.61,4.61,0,0,1-1.36.33v-2.66a4.57,4.57,0,0,0,1.36-.33Z" transform="translate(-0.27 -0.44)" style="fill:#a3a3a3"/><path d="M311.46,239.76v2.66a6,6,0,0,1-.71,0v-2.67a5.16,5.16,0,0,0,.71,0Z" transform="translate(-0.27 -0.44)" style="fill:#9e9e9e"/><path d="M310.75,239.77v2.67a3.8,3.8,0,0,1-.51-.05v-2.66l.51,0Z" transform="translate(-0.27 -0.44)" style="fill:#999"/><path d="M310.24,239.72v2.66l-.44-.09v-2.67a3.62,3.62,0,0,0,.44.1Z" transform="translate(-0.27 -0.44)" style="fill:#949494"/><path d="M309.8,239.62v2.67a3.3,3.3,0,0,1-.43-.14V239.5a3.59,3.59,0,0,0,.43.13Z" transform="translate(-0.27 -0.44)" style="fill:#8f8f8f"/><path d="M309.38,239.5v2.66a3.27,3.27,0,0,1-.43-.19v-2.67a4,4,0,0,0,.43.2Z" transform="translate(-0.27 -0.44)" style="fill:#8a8a8a"/><path d="M308.94,239.29V242l0,0a1.49,1.49,0,0,1-.88-1.23V238a1.51,1.51,0,0,0,.89,1.23l0,0Z" transform="translate(-0.27 -0.44)" style="fill:#858585"/></g></g></g><path d="M342.83,219.55l-4.57,10L334,227.12l-20.91,12.15a4.7,4.7,0,0,1-4.23,0,1.3,1.3,0,0,1,0-2.45l20.91-12.15-4.23-2.44Z" transform="translate(-0.27 -0.44)" style="fill:#f8f9fc"/></g><g style="isolation:isolate"><g style="isolation:isolate"><path d="M359,229.63c0,.89,0,1.77,0,2.66a1.49,1.49,0,0,1-.87,1.22l0-2.66A1.5,1.5,0,0,0,359,229.63Z" transform="translate(-0.27 -0.44)" style="fill:#9cb5cc"/><g style="clip-path:url(#6ba37fc1-6974-4b12-8e34-8f804b722c37)"><g style="isolation:isolate"><polygon points="358.76 229.19 358.75 231.85 358.75 231.85 358.76 229.19 358.76 229.19 358.76 229.19" style="fill:#858585"/><path d="M359,229.63v2.66a1.07,1.07,0,0,1-.05.33V230a1.05,1.05,0,0,0,.05-.32Z" transform="translate(-0.27 -0.44)" style="fill:#8a8a8a"/><path d="M359,230v2.67a1.17,1.17,0,0,1-.13.27v-2.67A1,1,0,0,0,359,230Z" transform="translate(-0.27 -0.44)" style="fill:#8f8f8f"/><path d="M358.85,230.22v2.67a1.33,1.33,0,0,1-.2.24v-2.66a2,2,0,0,0,.2-.26Z" transform="translate(-0.27 -0.44)" style="fill:#949494"/><path d="M358.65,230.47v2.66a2.16,2.16,0,0,1-.28.25v-2.66c.11-.08.2-.16.29-.24Z" transform="translate(-0.27 -0.44)" style="fill:#999"/><path d="M358.36,230.72v2.66l-.21.13,0-2.66.19-.13Z" transform="translate(-0.27 -0.44)" style="fill:#9e9e9e"/></g></g></g><polygon points="357.9 230.41 357.88 233.07 336.98 245.22 336.98 242.56 357.9 230.41" style="fill:#d1dce6"/><polygon points="341.2 245 341.2 247.66 323.94 250.34 323.95 247.68 341.2 245" style="fill:#b2b2b2"/><path d="M358.15,228.39a1.3,1.3,0,0,1,0,2.45L337.24,243l4.23,2.44-17.25,2.68,4.56-10,4.23,2.44,20.91-12.16A4.64,4.64,0,0,1,358.15,228.39Z" transform="translate(-0.27 -0.44)" style="fill:#f8f9fc"/></g><g style="isolation:isolate"><polygon points="219.42 291.52 219.41 294.18 215.18 291.74 215.19 289.08 219.42 291.52" style="fill:#919191"/><polygon points="227.86 296.4 227.85 299.06 223.63 296.62 223.63 293.96 227.86 296.4" style="fill:#919191"/><polygon points="232.42 286.41 232.41 289.07 227.85 299.06 227.86 296.4 232.42 286.41" style="fill:#939393"/><polygon points="223.63 293.96 223.63 296.62 202.76 308.75 202.76 306.09 223.63 293.96" style="fill:#d1dce6"/><g style="isolation:isolate"><path d="M197.93,308c0-.88,0-1.77,0-2.65a1.5,1.5,0,0,0,.88,1.23,4.64,4.64,0,0,0,4.22,0v2.66a4.66,4.66,0,0,1-4.22,0A1.48,1.48,0,0,1,197.93,308Z" transform="translate(-0.27 -0.44)" style="fill:#9cb5cc"/><g style="clip-path:url(#05c235ed-a5cf-49b5-988f-804f675c116b)"><g style="isolation:isolate"><path d="M203,306.53v2.66a2.51,2.51,0,0,1-.32.15v-2.65l.31-.16Z" transform="translate(-0.27 -0.44)" style="fill:#9e9e9e"/><path d="M202.72,306.69v2.65a4.36,4.36,0,0,1-1.35.33V307a4.42,4.42,0,0,0,1.35-.32Z" transform="translate(-0.27 -0.44)" style="fill:#a3a3a3"/><path d="M201.37,307v2.66a5.08,5.08,0,0,1-.71,0V307a4.5,4.5,0,0,0,.71,0Z" transform="translate(-0.27 -0.44)" style="fill:#9e9e9e"/><path d="M200.67,307v2.66a4.49,4.49,0,0,1-.51-.05V307a3.86,3.86,0,0,0,.52.05Z" transform="translate(-0.27 -0.44)" style="fill:#999"/><path d="M200.15,307v2.66l-.44-.09v-2.66l.44.09Z" transform="translate(-0.27 -0.44)" style="fill:#949494"/><path d="M199.71,306.89v2.66a2.8,2.8,0,0,1-.42-.13v-2.66l.42.13Z" transform="translate(-0.27 -0.44)" style="fill:#8f8f8f"/><path d="M199.29,306.76v2.66a2.42,2.42,0,0,1-.43-.2v-2.66a3.69,3.69,0,0,0,.43.2Z" transform="translate(-0.27 -0.44)" style="fill:#8a8a8a"/><path d="M198.86,306.56v2.66l0,0a1.48,1.48,0,0,1-.88-1.23v-2.65a1.5,1.5,0,0,0,.88,1.23l0,0Z" transform="translate(-0.27 -0.44)" style="fill:#858585"/></g></g></g><path d="M232.69,286.85l-4.56,10-4.23-2.43L203,306.53a4.64,4.64,0,0,1-4.22,0,1.29,1.29,0,0,1,0-2.45L219.68,292l-4.23-2.44Z" transform="translate(-0.27 -0.44)" style="fill:#f8f9fc"/></g><g style="isolation:isolate"><g style="isolation:isolate"><path d="M248.87,296.9c0,.89,0,1.77,0,2.66a1.5,1.5,0,0,1-.87,1.22v-2.66A1.5,1.5,0,0,0,248.87,296.9Z" transform="translate(-0.27 -0.44)" style="fill:#9cb5cc"/><g style="clip-path:url(#79485ec4-dd30-4878-9a20-373bf77336d7)"><g style="isolation:isolate"><polygon points="248.61 296.46 248.6 299.12 248.6 299.13 248.61 296.48 248.61 296.46 248.61 296.46" style="fill:#858585"/><path d="M248.87,296.91v2.66a1,1,0,0,1-.06.33v-2.66a.82.82,0,0,0,.07-.32Z" transform="translate(-0.27 -0.44)" style="fill:#8a8a8a"/><path d="M248.81,297.23v2.66a.83.83,0,0,1-.13.26l0-2.66a1,1,0,0,0,.12-.26Z" transform="translate(-0.27 -0.44)" style="fill:#8f8f8f"/><path d="M248.69,297.5l0,2.66a1.54,1.54,0,0,1-.18.25v-2.66a2.15,2.15,0,0,0,.2-.25Z" transform="translate(-0.27 -0.44)" style="fill:#949494"/><path d="M248.49,297.75v2.66a2.34,2.34,0,0,1-.3.24V298a2.27,2.27,0,0,0,.29-.24Z" transform="translate(-0.27 -0.44)" style="fill:#999"/><path d="M248.2,298v2.66l-.2.13v-2.66l.2-.13Z" transform="translate(-0.27 -0.44)" style="fill:#9e9e9e"/></g></g></g><polygon points="247.74 297.69 247.73 300.34 226.85 312.47 226.86 309.81 247.74 297.69" style="fill:#d1dce6"/><polygon points="231.07 312.25 231.07 314.91 213.83 317.58 213.84 314.92 231.07 312.25" style="fill:#b2b2b2"/><path d="M248,295.68c1.17.68,1.18,1.77,0,2.45l-20.88,12.12,4.22,2.44-17.23,2.67,4.56-10,4.22,2.44,20.88-12.13A4.6,4.6,0,0,1,248,295.68Z" transform="translate(-0.27 -0.44)" style="fill:#f8f9fc"/></g><g style="isolation:isolate"><polygon points="335.78 306.9 335.79 309.56 340.01 307.12 340 304.45 335.78 306.9" style="fill:#919191"/><polygon points="327.32 311.79 327.32 314.45 331.54 312.01 331.54 309.34 327.32 311.79" style="fill:#919191"/><polygon points="322.74 301.78 322.75 304.44 327.32 314.45 327.32 311.79 322.74 301.78" style="fill:#939393"/><polygon points="331.54 309.34 331.54 312.01 352.45 324.16 352.45 321.5 331.54 309.34" style="fill:#d1dce6"/><g style="isolation:isolate"><path d="M357.83,323.37c0-.89,0-1.77,0-2.66a1.49,1.49,0,0,1-.88,1.23,4.64,4.64,0,0,1-4.23,0v2.66a4.64,4.64,0,0,0,4.23,0A1.5,1.5,0,0,0,357.83,323.37Z" transform="translate(-0.27 -0.44)" style="fill:#9cb5cc"/><g style="clip-path:url(#74637c2c-18f6-4728-befe-6624495eb88f)"><g style="isolation:isolate"><path d="M352.72,321.94v2.66l.32.16v-2.67l-.31-.16Z" transform="translate(-0.27 -0.44)" style="fill:#9e9e9e"/><path d="M353,322.09v2.67a4.72,4.72,0,0,0,1.35.33v-2.66a4.56,4.56,0,0,1-1.36-.33Z" transform="translate(-0.27 -0.44)" style="fill:#a3a3a3"/><path d="M354.38,322.42v2.66a4.58,4.58,0,0,0,.71,0v-2.67a5.06,5.06,0,0,1-.71,0Z" transform="translate(-0.27 -0.44)" style="fill:#9e9e9e"/><path d="M355.09,322.43v2.67l.52-.05v-2.67a3.69,3.69,0,0,1-.51.06Z" transform="translate(-0.27 -0.44)" style="fill:#999"/><path d="M355.6,322.38V325l.44-.09V322.3a3.49,3.49,0,0,1-.44.08Z" transform="translate(-0.27 -0.44)" style="fill:#949494"/><path d="M356,322.3V325a3.76,3.76,0,0,0,.42-.13v-2.66l-.42.13Z" transform="translate(-0.27 -0.44)" style="fill:#8f8f8f"/><path d="M356.46,322.16v2.66a2.69,2.69,0,0,0,.43-.19V322a3.31,3.31,0,0,1-.44.2Z" transform="translate(-0.27 -0.44)" style="fill:#8a8a8a"/><path d="M356.9,322v2.67l0,0a1.5,1.5,0,0,0,.89-1.23v-2.66a1.49,1.49,0,0,1-.88,1.23l0,0Z" transform="translate(-0.27 -0.44)" style="fill:#858585"/></g></g></g><path d="M323,302.22l4.58,10,4.23-2.44,20.91,12.15a4.64,4.64,0,0,0,4.23,0,1.29,1.29,0,0,0,0-2.45L336,307.34l4.22-2.44Z" transform="translate(-0.27 -0.44)" style="fill:#f8f9fc"/></g><g style="isolation:isolate"><g style="isolation:isolate"><path d="M306.8,312.29c0,.88,0,1.77,0,2.66a1.48,1.48,0,0,0,.87,1.22v-2.66A1.53,1.53,0,0,1,306.8,312.29Z" transform="translate(-0.27 -0.44)" style="fill:#9cb5cc"/><g style="clip-path:url(#fb9612b7-d849-42c8-b6b7-d69e9e4c0fa4)"><g style="isolation:isolate"><polygon points="306.54 311.85 306.55 314.52 306.55 314.52 306.54 311.85 306.54 311.85 306.54 311.85" style="fill:#858585"/><path d="M306.8,312.29V315a1,1,0,0,0,.05.33v-2.66a1.47,1.47,0,0,1-.06-.33Z" transform="translate(-0.27 -0.44)" style="fill:#8a8a8a"/><path d="M306.87,312.62v2.66c0,.09.08.18.13.27v-2.67a1,1,0,0,1-.13-.26Z" transform="translate(-0.27 -0.44)" style="fill:#8f8f8f"/><path d="M307,312.88v2.67a1.92,1.92,0,0,0,.2.25v-2.67a1.12,1.12,0,0,1-.2-.25Z" transform="translate(-0.27 -0.44)" style="fill:#949494"/><path d="M307.19,313.13v2.67a2,2,0,0,0,.29.24v-2.66a2.17,2.17,0,0,1-.28-.25Z" transform="translate(-0.27 -0.44)" style="fill:#999"/><path d="M307.47,313.38V316l.2.13v-2.66l-.2-.13Z" transform="translate(-0.27 -0.44)" style="fill:#9e9e9e"/></g></g></g><polygon points="307.41 313.07 307.42 315.73 328.32 327.89 328.32 325.22 307.41 313.07" style="fill:#d1dce6"/><polygon points="324.1 327.66 324.11 330.33 341.37 333.01 341.36 330.34 324.1 327.66" style="fill:#b2b2b2"/><path d="M307.69,311.06a1.29,1.29,0,0,0,0,2.45l20.92,12.15-4.23,2.44,17.26,2.68-4.57-10-4.22,2.44-20.92-12.15A4.62,4.62,0,0,0,307.69,311.06Z" transform="translate(-0.27 -0.44)" style="fill:#f8f9fc"/></g><g style="isolation:isolate"><path d="M276.28,115.52l-8.86-5.15c-.25,1.08-.22,1.72.06,1.88l8.85,5.14c-.27-.15-.31-.78,0-1.87Z" transform="translate(-0.27 -0.44)" style="fill:#646469"/><g style="isolation:isolate"><g style="isolation:isolate"><path d="M327.28,26.74l-8.85-5.14c1.25.73,2,2.27,2,4.47a15.21,15.21,0,0,1-6.92,12l8.85,5.14a15.25,15.25,0,0,0,6.92-12c0-2.2-.78-3.75-2-4.47Z" transform="translate(-0.27 -0.44)" style="fill:#9e7907"/></g></g><g style="isolation:isolate"><g style="isolation:isolate"><path d="M327.28,26.74l-8.85-5.14c-1.26-.73-3-.63-4.92.48l8.85,5.14c1.92-1.11,3.66-1.21,4.92-.48Z" transform="translate(-0.27 -0.44)" style="fill:#9f9f9f"/></g></g><g style="isolation:isolate"><g style="isolation:isolate"><path d="M322.36,27.22l-8.85-5.14a15.26,15.26,0,0,0-6.93,12c0,2.17.78,3.7,2,4.43l8.85,5.14c-1.25-.72-2-2.26-2-4.43a15.22,15.22,0,0,1,6.93-12Z" transform="translate(-0.27 -0.44)" style="fill:#9f9f9f"/></g></g><polygon points="281.76 91.8 272.91 86.66 267.15 109.93 276.01 115.08 281.76 91.8" style="fill:#646469"/><g style="isolation:isolate"><g style="isolation:isolate"><path d="M306,39l-8.85-5.14c1.25.73,2,2.28,2,4.47a15.23,15.23,0,0,1-6.92,12l8.85,5.14a15.22,15.22,0,0,0,6.92-12c0-2.19-.78-3.75-2-4.47Z" transform="translate(-0.27 -0.44)" style="fill:#9e7907"/></g></g><g style="isolation:isolate"><g style="isolation:isolate"><path d="M306,39l-8.85-5.14c-1.26-.73-3-.63-4.92.49l8.84,5.14c1.92-1.1,3.67-1.21,4.93-.48Z" transform="translate(-0.27 -0.44)" style="fill:#9f9f9f"/></g></g><g style="isolation:isolate"><g style="isolation:isolate"><path d="M301.05,39.51l-8.84-5.14a15.26,15.26,0,0,0-6.92,12c0,2.19.78,3.71,2,4.44l8.86,5.14c-1.25-.72-2-2.25-2-4.44a15.27,15.27,0,0,1,6.9-12Z" transform="translate(-0.27 -0.44)" style="fill:#9f9f9f"/></g></g><path d="M301.05,39.51a15.27,15.27,0,0,0-6.9,12c0,4.39,3.13,6.17,6.95,4a15.22,15.22,0,0,0,6.92-12C308,39.08,304.88,37.3,301.05,39.51Z" transform="translate(-0.27 -0.44)" style="fill:#efefef"/><g style="isolation:isolate"><g style="isolation:isolate"><path d="M284.69,51.33l-8.85-5.14c1.25.72,2,2.27,2,4.47a15.26,15.26,0,0,1-6.9,12l8.83,5.14a15.21,15.21,0,0,0,6.92-12c0-2.21-.78-3.75-2-4.47Z" transform="translate(-0.27 -0.44)" style="fill:#9e7907"/></g></g><g style="isolation:isolate"><g style="isolation:isolate"><path d="M284.69,51.33l-8.85-5.14c-1.26-.73-2.72,15.1-4.64,16.21l8.57-10.59c1.92-1.1,3.66-1.21,4.92-.48Z" transform="translate(-0.27 -0.44)" style="fill:#9f9f9f"/></g></g><g style="isolation:isolate"><g style="isolation:isolate"><path d="M279.77,51.81,271.2,62.4c-3.83,2.21-7.2-8.16-7.19-3.74,0,2.19.78,3.73,2,4.44l8.84,5.14c-1.24-.72-2-2.26-2-4.44a15.21,15.21,0,0,1,6.92-12Z" transform="translate(-0.27 -0.44)" style="fill:#9f9f9f"/></g></g><path d="M344.16,43.83c0,6.88-4.87,15.36-10.86,18.82l-24,13.84a6.57,6.57,0,0,1-.73,1.11L278,116.13a5.31,5.31,0,0,1-1.21,1.18c-.7.41-1-.21-.57-1.79L282,92.24l-13,7.48c-6,3.46-10.9.66-10.93-6.22L258.28,63c0-6.88,4.86-15.33,10.85-18.8L333.37,7.07c6-3.46,10.92-.68,10.93,6.21Z" transform="translate(-0.27 -0.44)" style="fill:#e9e9e9"/><path d="M341.13,6.32l-8.85-5.14c-2-1.15-4.74-1-7.76.75l8.85,5.14c3-1.74,5.77-1.9,7.75-.74Z" transform="translate(-0.27 -0.44)" style="fill:#8f9094"/><path d="M258.12,93.5l-8.85-5.14c0,3.41,1.24,5.83,3.19,7l8.85,5.14c-2-1.14-3.18-3.55-3.19-7Z" transform="translate(-0.27 -0.44)" style="fill:#646469"/><polygon points="258.01 62.51 249.15 57.37 249.01 87.92 257.86 93.06 258.01 62.51" style="fill:#646469"/><polygon points="333.11 6.62 324.26 1.48 260.02 38.57 268.87 43.72 333.11 6.62" style="fill:#8f9094"/><path d="M269.13,44.16,260.29,39c-6,3.46-10.88,11.91-10.87,18.8l8.86,5.14c0-6.88,4.86-15.33,10.85-18.79Z" transform="translate(-0.27 -0.44)" style="fill:#8f9094"/></g><path d="M378.46,74.23c-1.6-.92-2.92-.17-2.93,1.67l-.16,60a6.42,6.42,0,0,0,2.91,5l94.62,54.64c1.61.92,2.93.18,2.94-1.65l.16-60a6.44,6.44,0,0,0-2.91-5Z" transform="translate(-0.27 -0.44)" style="fill:#00b6e8"/><path d="M308,180.3a.93.93,0,0,0,0,.21,1.56,1.56,0,0,0,0,.2,1.42,1.42,0,0,0,0,.19l.05.2s0,.11.08.16a1.24,1.24,0,0,0,.09.22l.09.15a1.48,1.48,0,0,0,.16.23l.12.14a3.54,3.54,0,0,0,.25.29l.15.13.18.16a1.35,1.35,0,0,0,.21.16,1.42,1.42,0,0,0,.22.15,4,4,0,0,0,.34.23l37.16,21.45v-2.24l8.2-4.77-11.85-6.89v-.88l-.77.45-16.11-9.35v-5.62l7.54-4.36,1.74,1v-2l2.52-1.46,5-2.9,8.73-5,2.18,1.26v-2.53l7.54-4.36,1.69,1v-2l7.53-4.36,7.81,4.53v1.73l1.5-.86,7.8,4.53v1.72l1.49-.86,7.81,4.53v1.73l1.5-.87,7.8,4.54V172l1.5-.87,7.8,4.53v1.72l1.48-.86,7.82,4.53v1.72l1.48-.86,7.82,4.54v1.73l1.48-.86,7.81,4.53v1.73l1.47-.86,7.83,4.53,0,5.62L449,205.4l1.86,1.09v-2l7.54-4.35,7.8,4.53v5.63l-7.53,4.36-1.69-1v2L449.43,220l-1.69-1v2l-7.55,4.36-1.67-1v2L431,230.69l-1.73-1v2l-7.53,4.36-16.55-9.61v-1.12l-1,.56L392,218.8v-1.29l-1.1.65-4.46-2.59,0,2.16-8.19,4.77L408.57,240a8.36,8.36,0,0,0,1,.45l.29.11c.22.07.45.14.68.2a5.53,5.53,0,0,0,.62.16c.29.06.59.12.89.15l.17,0a10.62,10.62,0,0,0,1.16.07h.18c.38,0,.76,0,1.13-.06l.19,0a10.64,10.64,0,0,0,1.09-.19l.21-.05c.34-.09.67-.18,1-.3l.11,0a7.85,7.85,0,0,0,1-.5L475,207.09a3.41,3.41,0,0,0,2-2.79c0,1.88,0,3.75,0,5.62a3.4,3.4,0,0,1-2,2.79l-56.68,32.94a6.57,6.57,0,0,1-1,.49h0l-.12,0a4.74,4.74,0,0,1-.69.22,2.58,2.58,0,0,1-.29.07l-.22.06-.21,0c-.22,0-.45.09-.68.12l-.21,0-.16,0-.3,0-.67,0h-.36a2.71,2.71,0,0,1-.33,0,6.62,6.62,0,0,1-.76,0h-.07l-.17,0c-.21,0-.43,0-.63-.09l-.24-.07c-.21,0-.41-.09-.61-.14l-.38-.09-.32-.13-.27-.1a7.36,7.36,0,0,1-1-.45L310,188.75l-.22-.14-.11-.08-.23-.15-.21-.17-.17-.14s-.07,0-.08-.07a.49.49,0,0,1-.07-.09l-.26-.28-.06-.07s0,0,0-.06a2.86,2.86,0,0,1-.17-.24l-.07-.11s0,0,0,0l-.1-.23-.07-.11a.05.05,0,0,0,0,0l-.05-.22a.41.41,0,0,1,0-.14s0,0,0,0a.93.93,0,0,1,0-.21c0-.05,0-.1,0-.15v0C308,184,308,182.18,308,180.3Z" transform="translate(-0.27 -0.44)" style="fill:#d1dce6"/><path d="M310,177.51l56.69-32.94a10.71,10.71,0,0,1,9.71,0l98.55,56.89c2.68,1.55,2.7,4.07,0,5.62L418.28,240a10.73,10.73,0,0,1-9.71,0L310,183.14C307.35,181.59,307.33,179,310,177.51Z" transform="translate(-0.27 -0.44)" style="fill:#e9e9e9"/><polygon points="374.87 162.11 367.33 166.46 375.14 171 382.68 166.64 374.87 162.11" style="fill:#0c2f4b"/><polygon points="362.85 165.82 355.31 170.18 363.12 174.71 370.65 170.34 362.85 165.82" style="fill:#0c2f4b"/><polygon points="351.96 160.08 343.23 165.13 338.23 168.03 335.7 169.48 348.88 177.13 356.42 172.78 352.37 170.42 361.1 165.37 351.96 160.08" style="fill:#0c2f4b"/><polygon points="371.63 170.91 364.1 175.27 371.9 179.81 379.44 175.45 371.63 170.91" style="fill:#0c2f4b"/><polygon points="333.95 170.49 326.42 174.84 342.52 184.19 350.07 179.84 333.95 170.49" style="fill:#0c2f4b"/><polygon points="350.83 180.28 343.29 184.64 355.5 191.71 363.04 187.36 350.83 180.28" style="fill:#0c2f4b"/><polygon points="374.9 183.5 367.37 187.86 375.16 192.4 382.71 188.04 374.9 183.5" style="fill:#0c2f4b"/><polygon points="370.92 149.12 363.39 153.48 371.19 158.01 378.73 153.65 370.92 149.12" style="fill:#0c2f4b"/><polygon points="380.22 154.52 372.68 158.88 380.49 163.41 388.02 159.05 380.22 154.52" style="fill:#0c2f4b"/><polygon points="361.7 154.45 354.15 158.81 366.26 165.83 373.8 161.48 361.7 154.45" style="fill:#0c2f4b"/><polygon points="389.52 159.91 381.98 164.27 389.79 168.8 397.33 164.44 389.52 159.91" style="fill:#0c2f4b"/><polygon points="398.82 165.3 391.27 169.67 399.08 174.19 406.62 169.84 398.82 165.3" style="fill:#0c2f4b"/><polygon points="383.76 167.26 376.22 171.62 384.03 176.14 391.56 171.79 383.76 167.26" style="fill:#0c2f4b"/><polygon points="408.12 170.71 400.58 175.07 408.39 179.59 415.92 175.24 408.12 170.71" style="fill:#0c2f4b"/><polygon points="392.66 172.42 385.11 176.78 392.92 181.31 400.46 176.96 392.66 172.42" style="fill:#0c2f4b"/><polygon points="357.42 173.36 349.88 177.72 357.69 182.25 365.24 177.89 357.42 173.36" style="fill:#0c2f4b"/><polygon points="417.4 176.1 409.87 180.46 417.68 184.99 425.22 180.63 417.4 176.1" style="fill:#0c2f4b"/><polygon points="380.42 176.02 372.89 180.37 380.68 184.91 388.23 180.55 380.42 176.02" style="fill:#0c2f4b"/><polygon points="401.54 177.58 394 181.94 401.81 186.47 409.35 182.12 401.54 177.58" style="fill:#0c2f4b"/><polygon points="366.21 178.46 358.67 182.82 366.48 187.35 374.03 183 366.21 178.46" style="fill:#0c2f4b"/><polygon points="389.21 181.11 381.66 185.47 389.47 190 397.02 185.64 389.21 181.11" style="fill:#0c2f4b"/><polygon points="426.71 181.49 419.17 185.86 426.98 190.39 434.53 186.03 426.71 181.49" style="fill:#0c2f4b"/><polygon points="410.42 182.74 402.88 187.1 410.69 191.63 418.24 187.27 410.42 182.74" style="fill:#0c2f4b"/><polygon points="397.98 186.21 390.45 190.57 398.26 195.11 405.8 190.75 397.98 186.21" style="fill:#0c2f4b"/><polygon points="436 186.9 428.47 191.25 436.27 195.78 443.81 191.42 436 186.9" style="fill:#0c2f4b"/><polygon points="419.32 187.9 411.78 192.26 419.58 196.78 427.12 192.44 419.32 187.9" style="fill:#0c2f4b"/><polygon points="383.97 188.77 376.44 193.13 384.25 197.66 391.79 193.31 383.97 188.77" style="fill:#0c2f4b"/><polygon points="406.78 191.3 399.24 195.67 407.04 200.2 414.59 195.85 406.78 191.3" style="fill:#0c2f4b"/><polygon points="445.29 192.29 437.76 196.65 445.57 201.18 453.12 196.82 445.29 192.29" style="fill:#0c2f4b"/><polygon points="428.2 193.05 420.66 197.42 428.47 201.95 436.02 197.59 428.2 193.05" style="fill:#0c2f4b"/><polygon points="392.67 193.81 385.12 198.17 392.94 202.7 400.48 198.34 392.67 193.81" style="fill:#0c2f4b"/><polygon points="415.56 196.41 408.02 200.77 415.84 205.3 423.38 200.95 415.56 196.41" style="fill:#0c2f4b"/><polygon points="401.45 198.92 393.91 203.27 401.72 207.8 409.26 203.44 401.45 198.92" style="fill:#0c2f4b"/><polygon points="458.13 199.74 450.59 204.09 458.41 208.63 465.93 204.27 458.13 199.74" style="fill:#0c2f4b"/><polygon points="424.34 201.51 416.81 205.87 424.62 210.4 432.15 206.04 424.34 201.51" style="fill:#0c2f4b"/><polygon points="363.84 187.83 356.3 192.18 390.6 212.1 398.14 207.74 363.84 187.83" style="fill:#0c2f4b"/><polygon points="410.13 203.96 402.61 208.31 410.42 212.85 417.95 208.49 410.13 203.96" style="fill:#0c2f4b"/><polygon points="437.48 198.44 429.95 202.8 449.18 213.96 456.71 209.61 437.48 198.44" style="fill:#0c2f4b"/><polygon points="358.04 195.45 346.93 201.91 375.02 218.12 386.14 211.66 358.04 195.45" style="fill:#0c2f4b"/><polygon points="433.17 206.63 425.62 210.99 439.94 219.3 447.49 214.94 433.17 206.63" style="fill:#0c2f4b"/><polygon points="399.26 208.39 391.72 212.74 403.92 219.83 411.46 215.46 399.26 208.39" style="fill:#0c2f4b"/><polygon points="419.02 209.11 411.48 213.47 430.72 224.63 438.25 220.28 419.02 209.11" style="fill:#0c2f4b"/><polygon points="412.43 216.03 404.89 220.38 421.44 229.99 428.98 225.63 412.43 216.03" style="fill:#0c2f4b"/><path d="M373.57,67.46l.17-.1,1.39-.81,1.39-.8a3.43,3.43,0,0,1,3.46.33L478.53,123a10.75,10.75,0,0,1,4.86,8.41l-.19,65.56a3.38,3.38,0,0,1-1.42,3.11c-1.17.68-2.32,1.36-3.47,2a3.39,3.39,0,0,0,1.42-3.12l.19-65.55a10.74,10.74,0,0,0-4.86-8.41L376.52,68.1a3.41,3.41,0,0,0-3.46-.33Z" transform="translate(-0.27 -0.44)" style="fill:#d1dce6"/><path d="M475.06,125a10.74,10.74,0,0,1,4.86,8.41L479.73,199c0,3.09-2.2,4.34-4.88,2.8l-98.54-56.9a10.74,10.74,0,0,1-4.86-8.42l.18-65.56c0-3.08,2.21-4.32,4.89-2.77Zm-99.69,10.95a6.42,6.42,0,0,0,2.91,5l94.62,54.64c1.61.92,2.93.18,2.94-1.65l.16-60a6.44,6.44,0,0,0-2.91-5L378.46,74.23c-1.6-.92-2.92-.17-2.93,1.67l-.16,60Z" transform="translate(-0.27 -0.44)" style="fill:#e9e9e9"/><path d="M510.93,359.22l-2.34,1.35c0-2.2,0-4.39,0-6.59h0a1.68,1.68,0,0,0-1-1.39l-87.25-50.38a5.41,5.41,0,0,0-4.78,0l-95.06,55.24a1.68,1.68,0,0,0-1,1.38c0,2.93,0,5.86,0,8.79a1.68,1.68,0,0,0,1,1.38l28.77,16.61a2,2,0,0,0-.36,1.1v4.07l-38.41-22.18c-2.66-1.53-4-3.55-4-5.58q0,4.4,0,8.78c0,2,1.33,4.05,4,5.59l82.81,47.81c5.28,3,10.54,5,15.77,1.94L510.91,368c2.61-1.51,3.91-3.5,3.91-5.5,0-2.92,0-5.85,0-8.78C514.83,355.71,513.53,357.7,510.93,359.22Z" transform="translate(-0.27 -0.44)" style="fill:#d1dce6"/><path d="M365.68,389c2.08,1.19,2.12,3.14,0,4.35a8.3,8.3,0,0,1-7.52,0l-7.69-4.43c-2.07-1.2-2.08-3.16,0-4.36a8.29,8.29,0,0,1,7.51,0Z" transform="translate(-0.27 -0.44)" style="fill:#9cb5cc"/><path d="M320.56,360.23l3.29,1.89.15.1,1.17.67,2.15,1.25.74.42,10.47,6,13.07,7.56h0l18.23,10.52,3.08,1.79,2.68,1.55,2.51,1.44h0l15.54,9,4.09,2.34h0l2.66,1.55h0l1,.59h0l6.31,3.66a5.24,5.24,0,0,0,4.78,0l7.95-4.61,6-3.49,5.83-3.38.77-.45,3.31-1.92,8.81-5.13,7-4.06,3.75-2.18,2-1.15,6-3.47L472.1,376l.9-.5,2-1.15,3.94-2.3,4.81-2.79,1.18-.69,2.55-1.48,2-1.16,2.21-1.29.92-.52,7.26-4.22,3.91-2.27.39-.23.34-.2.07,0,3.06-1.78a1.47,1.47,0,0,0,0-2.77L487,340.71l-.41-.25-.43-.24L473,332.61l-3.29-1.89-15.93-9.22h0l-1.33-.77-10.85-6.26-1.69-1v0L421.5,302.88l-.62-.37-.52-.29a2.91,2.91,0,0,0-.52-.25,5.38,5.38,0,0,0-1.93-.31,4.88,4.88,0,0,0-2.32.56l-9.75,5.67-6,3.47-3.6,2.11h0L393,315.34l-4.4,2.54-.78.46-11.28,6.55-1.39.81-12.1,7.05-1,.6-1.91,1.13h0l-2.1,1.2-.37.22-1.05.61-2.24,1.31-12.24,7.09-4.62,2.7-9.58,5.57-4,2.33-1,.59-2.31,1.35A1.48,1.48,0,0,0,320.56,360.23Z" transform="translate(-0.27 -0.44)" style="fill:#00b6e8"/><path d="M510.87,348.13l-82.82-47.81c-5.29-3-13.89-3-19.13,0l-98.47,57.22c-5.24,3-5.21,8,.06,11.07l82.82,47.82c5.28,3,10.53,5,15.76,1.94l101.82-59.16C516.17,356.16,516.14,351.18,510.87,348.13Zm-145.16,45.2a8.3,8.3,0,0,1-7.52,0l-7.69-4.43c-2.07-1.2-2.08-3.16,0-4.36a8.29,8.29,0,0,1,7.51,0l7.68,4.42c2.08,1.2,2.12,3.15,0,4.36Zm141.91-38-95,55.23a5.38,5.38,0,0,1-4.79,0l-87.24-50.37a1.48,1.48,0,0,1,0-2.77l95.06-55.24a5.41,5.41,0,0,1,4.78,0l87.25,50.38a1.47,1.47,0,0,1,0,2.77Z" transform="translate(-0.27 -0.44)" style="fill:#fff"/><path d="M237.41,349c0,1.35-.86,2.7-2.6,3.74l-17.94,10.6v-4.2a2.47,2.47,0,0,0-1.27-2l6.26-3.71a1.78,1.78,0,0,0,1-1.48l0-8.64a1.84,1.84,0,0,0-1-1.47l-69.66-41.46a5.36,5.36,0,0,0-5,0l-16.55,9.78c0-1.26,0-2.48,0-3.55a1,1,0,0,0-.57-.82,3,3,0,0,0-2.76,0l-11.83,7a1,1,0,0,0-.59.84v5.86l-8.62,5.1a1.8,1.8,0,0,0-1,1.49l0,5.16-7.34-4.36a4.52,4.52,0,0,1-2.56-3.68q0,4.32,0,8.64a4.45,4.45,0,0,0,2.56,3.68l83.78,49.88a13.48,13.48,0,0,0,12.49,0l40.64-24c1.73-1,2.59-2.38,2.59-3.74C237.42,354.76,237.42,351.89,237.41,349Z" transform="translate(-0.27 -0.44)" style="fill:#d1dce6"/><path d="M221.84,341.85l-69.66-41.46a5.36,5.36,0,0,0-5,0l-40.92,24.2c-1.39.81-1.39,2.14,0,3L175.92,369a5.42,5.42,0,0,0,5,0l40.92-24.2A1.58,1.58,0,0,0,221.84,341.85Z" transform="translate(-0.27 -0.44)" style="fill:#00b6e8"/><path d="M208.18,357a7.72,7.72,0,0,1,7.21,0c2,1.18,2,3.09,0,4.28L208,365.65a7.8,7.8,0,0,1-7.21,0c-2-1.18-2-3.1,0-4.28Z" transform="translate(-0.27 -0.44)" style="fill:#9cb5cc"/><path d="M138.58,295.44a13.49,13.49,0,0,1,12.48,0l83.8,49.88c3.43,2,3.41,5.37,0,7.42l-40.64,24a13.49,13.49,0,0,1-12.48,0L97.91,326.88c-3.43-2-3.41-5.38,0-7.41Zm83.26,46.41-69.66-41.46a5.36,5.36,0,0,0-5,0l-40.92,24.2c-1.39.81-1.39,2.14,0,3L175.92,369a5.42,5.42,0,0,0,5,0l40.92-24.2a1.58,1.58,0,0,0,0-3Zm-6.49,19.45c2-1.18,2-3.1,0-4.28a7.72,7.72,0,0,0-7.21,0l-7.37,4.36c-2,1.17-2,3.09,0,4.28a7.8,7.8,0,0,0,7.21,0l7.36-4.35Zm-99.88-48.5a.88.88,0,0,0,0,1.66,3,3,0,0,0,2.77,0l11.83-7a.87.87,0,0,0,0-1.64,3,3,0,0,0-2.76,0l-11.83,7Z" transform="translate(-0.27 -0.44)" style="fill:#f8f9fc"/><path d="M127.3,305.8a3,3,0,0,1,2.76,0,.87.87,0,0,1,0,1.64l-11.83,7a3,3,0,0,1-2.77,0,.88.88,0,0,1,0-1.66Z" transform="translate(-0.27 -0.44)" style="fill:#9cb5cc"/><path d="M286,126.18c2.23.27,5.15-.6,5.81-1.63a26.16,26.16,0,0,0-1.43-4.19c-1.05-2.45-2.59-5-4.41-5.77-3.9-1.55-4.75,0-5.15,1.77C280.24,119,284.36,123.56,286,126.18Z" transform="translate(-0.27 -0.44)" style="fill:#e9c2b0"/><path d="M280.17,255.64a6.36,6.36,0,0,1-6.62,6.08h0a6.35,6.35,0,0,1-6.07-6.63l-2-34.93c.15-3.5,6.66-5.36,10.16-5.21h0a6.35,6.35,0,0,1,6.07,6.62Z" transform="translate(-0.27 -0.44)" style="fill:#e9c2b0"/><path d="M236.22,263.15c-2.76.61-5.57,1.42-6.81,1.71l-.51-1.23c2.64-.8,4.92-1.26,6.95-1.81Z" transform="translate(-0.27 -0.44)" style="fill:#002f58"/><path d="M274.76,261.66a13.44,13.44,0,0,0,.72-1.35c1.28-2.78,2-5.51.42-8.28a13,13,0,0,0-1.77-2.53c-2.35.38-4.36,1.86-6.54,2.73-8.11,3.2-16.44,5.63-24.42,9.15l-7.44.51-8.9,5.82L229,275c-.19-.64,13.12-6.62,14.48-7.23,3.67-1.62,7-2,10.94-2.65l15.1-2.48C271.31,262.34,273.05,262.11,274.76,261.66Z" transform="translate(-0.27 -0.44)" style="fill:#e9c2b0"/><path d="M229,275l-1.91.57-1.56-5.29a2.42,2.42,0,0,1,1.07-2.77l7-4.19,2.19-1.43,2.31-.16s-9.13,7.26-9,7.7,1.38,4.19,1.38,4.19l1.51-.31Z" transform="translate(-0.27 -0.44)" style="fill:#002f58"/><path d="M283.88,293.89c-.23,2.82-.31,5.74-.4,7l-1.32.12c0-2.76.27-5.07.36-7.17Z" transform="translate(-0.27 -0.44)" style="fill:#002f58"/><path d="M283.25,243.91q-.32,3.23-.63,6.46c-.33,3.43-1.15,6.9-.91,10.32.62,8.7,1.59,17.36,2.56,26L282.53,294l2.88,10.24,7.6.12c-.67,0-2.39-14.5-2.56-16-.44-4,.18-7.31.74-11.23q1.08-7.58,2.16-15.15a33.31,33.31,0,0,0,.62-7.2,27.23,27.23,0,0,1,0-3.4c.05-.95.71-2.82.41-3.69-.45-1.29-2.67-1.42-3.91-1.77Z" transform="translate(-0.27 -0.44)" style="fill:#e9c2b0"/><path d="M293,304.32l0,2-5.51-.1a2.43,2.43,0,0,1-2.33-1.85l-1.9-7.9-.71-2.51.54-2.25s4.18,10.88,4.64,10.89,4.42-.06,4.42-.06l.15-1.54Z" transform="translate(-0.27 -0.44)" style="fill:#002f58"/><path d="M272.8,156.05c-.34-.75-.72-1.51-1.11-2.28-10.11-15.25,3.19-20.13,3.2-20.19a1.87,1.87,0,0,0-.82-1.89,7,7,0,0,0-1.53-.9,5.8,5.8,0,0,0-3.86-1.44c-3.64-.06-9.28,2-10,18.76-.15,3.38-1.47,11.65.23,16.44a3.53,3.53,0,0,0,2.93,2h1c4.62-1.76,11.26-3.92,10.34-8.14A19.11,19.11,0,0,1,272.8,156.05Z" transform="translate(-0.27 -0.44)" style="fill:#27242e"/><path d="M308,153a5.2,5.2,0,0,0-2.47-6.88h0a5.11,5.11,0,0,0-6.84,2.42l-17,19.28a5.19,5.19,0,0,0,2.47,6.88h0c2.57,1.23,7,3.51,8.19.95Z" transform="translate(-0.27 -0.44)" style="fill:#00a7e1"/><path d="M288.68,140.55s0,0,0,0l-.06.07s0,0,0,0S288.63,140.56,288.68,140.55Z" transform="translate(-0.27 -0.44)" style="fill:#ed0047"/><path d="M296.71,249.32c10.21-5-5.11-45.58-5.11-45.58l-11.91,2.85c-5.34-.82-8.31-5.14-11.72-2.84-4.73,3.19-6.18,13.41-6.74,17.6C260,230.46,257.53,246.22,264,249,272.9,252.79,289.65,252.78,296.71,249.32Z" transform="translate(-0.27 -0.44)" style="fill:#8f9094"/><path d="M271,166.64c0-4.67,4.33-7.49,9-7.49,2.06,0,4-.14,5.56,1,2,1.52,3.79,3.27,3.79,5.89,0,4.67-.68,26-5.36,26S271,171.31,271,166.64Z" transform="translate(-0.27 -0.44)" style="fill:#e9c2b0"/><path d="M271.8,164.69c.65-1,5.91.84,10.6.84s5.05-7.23,5.05-2.55S288.73,192,284,192,269.28,168.62,271.8,164.69Z" transform="translate(-0.27 -0.44)" style="fill:#dcdcdc"/><path d="M291.6,203.82c.28.87-5.67,2.82-7.29,3.15-6.29,1.27-11.49-.25-17-2.48a21.32,21.32,0,0,0,1-8.66c-.24-6.66-1-19.7-4.36-25.27,1.86-2.84,2.68-6.77,10.41-9.82,0,0,1.43,10.93,8,9.47s3.2-10.05,3.2-10.05c2.34,0,2.44.38,2.48.38,3.79,8.83,5.38,14.11,3.54,20.84C290.86,184.25,289.46,197.19,291.6,203.82Z" transform="translate(-0.27 -0.44)" style="fill:#002f58"/><path d="M290.69,200a33.46,33.46,0,0,1-6.06,2.55,21.9,21.9,0,0,1-5.92,1.17,37.64,37.64,0,0,1-6-.57c-1.87-.23-3.74-.43-5.61-.75.09.89.18,1.8.24,2.7,5.64,1.93,10.91,3.17,17.12,1.57,1.6-.42,7.44-2.68,7.11-3.53A19.74,19.74,0,0,1,290.69,200Z" transform="translate(-0.27 -0.44)" style="fill:#00a7e1"/><path d="M282.21,164.53a7.5,7.5,0,0,1-3.92-.28,5.92,5.92,0,0,1-3.08-2.36l-.09-6.47,8,.75.31,6.06C283.16,163.24,283.43,164.2,282.21,164.53Z" transform="translate(-0.27 -0.44)" style="fill:#e9c2b0"/><path d="M270.89,153.23c5.06,4.92,7.1,2.6,12.14-.71s6.9-11.69,6.58-13.49C288.26,131.65,278,129,272,132.36,263.24,137.34,266,148.45,270.89,153.23Z" transform="translate(-0.27 -0.44)" style="fill:#2c2934"/><path d="M272.58,146.9a25.35,25.35,0,0,0,1.17,7.77c1.74,4.8,10,6.4,11.43,4.88,1.83-1.9,4.4-9.41,4.4-16.11s-3.63-5.83-8.79-6.56C277.59,136.42,272.75,140.11,272.58,146.9Z" transform="translate(-0.27 -0.44)" style="fill:#e9c2b0"/><path d="M273.67,149c.72,1.13.63,2.48-.22,3s-2.12.07-2.84-1.06a1.89,1.89,0,1,1,3.06-2Z" transform="translate(-0.27 -0.44)" style="fill:#e9c2b0"/><path d="M286.83,134.07c-2.5-1.86-5.43-.11-8.06.32A10.11,10.11,0,0,0,271,140.9a.66.66,0,0,0,.63.92c-.11,2-1.61,5.51-.74,7,.12.21,1.89-.9,2.07-1.06,1.65-1.6,3.9-1.46,6-1.42a.38.38,0,0,0,.37-.28c.17-.81.13-3.7.53-1.83a3.16,3.16,0,0,0,.87,1.53.38.38,0,0,0,.46.06c2.75-1.44,9.82-2.41,9.82-2.41S290.94,137.16,286.83,134.07Z" transform="translate(-0.27 -0.44)" style="fill:#2c2934"/><path d="M252.3,144.48a5.4,5.4,0,0,0-7.62-.47h0a5.38,5.38,0,0,0-.45,7.61l21.85,27.7c2,2.23,5.46-.52,7.68-2.5h0a5.4,5.4,0,0,0,.45-7.62Z" transform="translate(-0.27 -0.44)" style="fill:#00a7e1"/><path d="M306.51,154.29a5.14,5.14,0,0,0,1.83-7.07l-17.06-24.59a7.13,7.13,0,0,1-5.26,3.55l13.38,26.3A5.21,5.21,0,0,0,306.51,154.29Z" transform="translate(-0.27 -0.44)" style="fill:#00a7e1"/><path d="M261.73,126.73c-2.26.48-5.49.38-6.27-.62a27.92,27.92,0,0,1,1.07-4.44c.85-2.61,2.19-5.43,4-6.33,3.86-1.94,4.88-.41,5.46,1.38C266.87,119.42,262.79,123.14,261.73,126.73Z" transform="translate(-0.27 -0.44)" style="fill:#e9c2b0"/><path d="M245.93,152.53a5.35,5.35,0,0,1-2.54-7.12L256,123.56l5.75,3.17-8.65,23.32A5.34,5.34,0,0,1,245.93,152.53Z" transform="translate(-0.27 -0.44)" style="fill:#00a7e1"/><polygon points="270.66 60.7 272.88 65.19 277.85 63.26 274.25 69.83 275.1 75.7 270.66 75.26 266.22 80.82 267.07 73.98 263.48 71.55 268.44 67.76 270.66 60.7" style="fill:#95d669"/><polygon points="285.89 51.91 288.11 56.41 293.07 54.47 289.48 61.04 290.33 66.91 285.89 66.47 281.45 72.03 282.29 65.19 278.7 62.76 283.67 58.97 285.89 51.91" style="fill:#95d669"/><polygon points="301.11 43.12 303.33 47.62 308.29 45.68 304.7 52.25 305.55 58.12 301.11 57.68 296.67 63.24 297.52 56.4 293.93 53.97 298.89 50.18 301.11 43.12" style="fill:#95d669"/><polygon points="316.33 34.33 318.56 38.83 323.52 36.89 319.93 43.46 320.77 49.33 316.33 48.89 311.89 54.45 312.74 47.61 309.15 45.18 314.12 41.39 316.33 34.33" style="fill:#95d669"/><polygon points="331.56 25.54 333.78 30.04 338.74 28.1 335.15 34.67 336 40.54 331.56 40.1 327.12 45.66 327.97 38.82 324.38 36.39 329.34 32.6 331.56 25.54" style="fill:#95d669"/><polyline points="460.55 339.51 461.98 334.15 380.22 381.36 357.02 367.96 355.59 373.32" style="fill:#84235d"/><polygon points="437.52 326.38 355.76 373.58 378.96 386.98 460.72 339.77 437.52 326.38" style="fill:#84235d"/><polygon points="379.69 381.77 461.45 334.56 438.25 321.17 356.49 368.38 379.69 381.77" style="fill:#b03478"/><path d="M391.7,365a5.45,5.45,0,0,0,.62.32,3.85,3.85,0,0,0,1,.14,2.85,2.85,0,0,0,1.58-.45,2.15,2.15,0,0,0,.71-.61.69.69,0,0,0,.15-.61.82.82,0,0,0-.37-.45l-.39-.24-1-.56a5.59,5.59,0,0,0-.65-.33,2,2,0,0,0-.73-.09,5.47,5.47,0,0,0-1.14.16q-.66.16-2.18.61a10.69,10.69,0,0,1-3.1.45,5.83,5.83,0,0,1-2.95-.8l-.62-.36a2.2,2.2,0,0,1-1.33-2A2.78,2.78,0,0,1,383,358a7.79,7.79,0,0,1,3.74-1,6.57,6.57,0,0,1,3.54.77l.62.36-2.25,1.3-.62-.36a3.34,3.34,0,0,0-.54-.26,4,4,0,0,0-1-.12,2.76,2.76,0,0,0-1.51.42c-.46.27-.69.56-.71.89s.19.62.62.87l.62.36a4.49,4.49,0,0,0,.6.3,2,2,0,0,0,.65.09,4.1,4.1,0,0,0,1-.13q.57-.14,2.08-.6a12,12,0,0,1,3.2-.49,5.79,5.79,0,0,1,3.09.77l1.11.64a4.54,4.54,0,0,1,1,.78,2.43,2.43,0,0,1,.47,1.38q.11,1-1.86,2.13a7.19,7.19,0,0,1-4.12,1,7.6,7.6,0,0,1-3.3-.84L389,366l2.25-1.3Z" transform="translate(-0.27 -0.44)" style="fill:#fff"/><path d="M402.67,362.64l-13.74-7.93,2.25-1.3,5.88,3.39,2.85-1.64L394,351.76l2.25-1.3L410,358.39l-2.25,1.3-6.14-3.55-2.85,1.64,6.14,3.54Z" transform="translate(-0.27 -0.44)" style="fill:#fff"/><path d="M411.28,357.67l-10.44-9.84,2.2-1.27,17.28,5.89-2.43,1.4-3.6-1.34-2.93,1.69,2.32,2.08Zm-1.37-4.74L412,351.7l-6-2.21Z" transform="translate(-0.27 -0.44)" style="fill:#fff"/><path d="M421.46,351.79l-13.74-7.93,4-2.29a7.56,7.56,0,0,1,3.58-1,6.23,6.23,0,0,1,3.38.72l1.28.74q1.89,1.09,1.06,2.74l8.7,2.26-2.39,1.38-8-2.17-1.42.82,5.89,3.4Zm-3-7.55a.71.71,0,0,0-.22-.47,2.45,2.45,0,0,0-.56-.42l-1.28-.74a2.77,2.77,0,0,0-1.43-.36,3.06,3.06,0,0,0-1.53.43l-1.61.93,4.29,2.48,1.59-.92A1.26,1.26,0,0,0,418.43,344.24Z" transform="translate(-0.27 -0.44)" style="fill:#fff"/><path d="M436.06,341.11l2,1.13-6.76,3.9-13.74-7.93,6.76-3.9,1.81,1-4.51,2.6,4.07,2.35,4-2.29,1.85,1.07-4,2.29,4.07,2.35Z" transform="translate(-0.27 -0.44)" style="fill:#fff"/><polyline points="184.96 324.94 185.63 322.42 147.2 344.61 136.3 338.32 135.63 340.84" style="fill:#6810ba"/><polygon points="174.14 318.77 135.71 340.96 146.61 347.25 185.04 325.06 174.14 318.77" style="fill:#84235d"/><polygon points="146.96 344.81 185.39 322.62 174.48 316.32 136.05 338.51 146.96 344.81" style="fill:#b03478"/><path d="M152.78,337.16l.29.15a1.75,1.75,0,0,0,.45.07,1.34,1.34,0,0,0,.74-.21,1,1,0,0,0,.33-.29.32.32,0,0,0,.07-.28.39.39,0,0,0-.17-.21l-.18-.11-.46-.26-.31-.16a.91.91,0,0,0-.34,0,2.74,2.74,0,0,0-.54.08l-1,.29a5,5,0,0,1-1.45.21,2.74,2.74,0,0,1-1.39-.38l-.29-.17a1,1,0,0,1-.62-.95,1.3,1.3,0,0,1,.79-1,3.67,3.67,0,0,1,1.76-.47,3.1,3.1,0,0,1,1.66.36l.29.17-1.06.61-.29-.17-.25-.12a1.86,1.86,0,0,0-.46-.06,1.3,1.3,0,0,0-.71.2c-.22.13-.32.27-.33.42a.47.47,0,0,0,.29.41l.29.17.28.14a.93.93,0,0,0,.3,0,1.92,1.92,0,0,0,.47-.06l1-.28a5.67,5.67,0,0,1,1.5-.23,2.73,2.73,0,0,1,1.45.36l.52.3a2.12,2.12,0,0,1,.49.37,1.13,1.13,0,0,1,.22.65q.05.47-.87,1a3.38,3.38,0,0,1-1.94.49,3.56,3.56,0,0,1-1.55-.39l-.23-.13,1.06-.61Z" transform="translate(-0.27 -0.44)" style="fill:#fff"/><path d="M157.94,336l-6.46-3.73,1.06-.61,2.76,1.59,1.34-.77-2.76-1.59,1.06-.61,6.46,3.73-1.06.61L157.45,333l-1.34.77,2.89,1.67Z" transform="translate(-0.27 -0.44)" style="fill:#fff"/><path d="M162,333.71l-4.9-4.63,1-.6,8.12,2.77-1.14.66-1.69-.63-1.37.79,1.09,1Zm-.64-2.23,1-.58-2.8-1Z" transform="translate(-0.27 -0.44)" style="fill:#fff"/><path d="M166.77,330.95l-6.46-3.73,1.86-1.08a3.55,3.55,0,0,1,1.68-.46,2.92,2.92,0,0,1,1.58.34l.6.35q.89.52.5,1.29l4.09,1.06-1.12.65-3.78-1-.67.39,2.77,1.6Zm-1.42-3.55a.33.33,0,0,0-.1-.22,1.19,1.19,0,0,0-.26-.2l-.6-.35a1.3,1.3,0,0,0-.67-.17,1.44,1.44,0,0,0-.72.2l-.76.44,2,1.17.75-.43A.59.59,0,0,0,165.34,327.39Z" transform="translate(-0.27 -0.44)" style="fill:#fff"/><path d="M173.63,325.92l.92.53-3.18,1.83-6.46-3.73,3.18-1.83.85.49-2.12,1.22,1.91,1.1,1.86-1.08.87.5L169.6,326l1.91,1.1Z" transform="translate(-0.27 -0.44)" style="fill:#fff"/><polyline points="387.48 97.75 382.62 99.69 456.86 142.56 456.86 170.65 461.73 168.7" style="fill:#84235d"/><polygon points="461.73 168.7 387.48 125.84 387.48 97.75 461.73 140.61 461.73 168.7" style="fill:#84235d"/><polygon points="456.86 170.65 382.62 127.78 382.62 99.69 456.86 142.56 456.86 170.65" style="fill:#b03478"/><path d="M401.53,128.34a6,6,0,0,0,0,.73,4,4,0,0,0,.32.91,2.47,2.47,0,0,0,1.07,1.1,1.65,1.65,0,0,0,.8.25.63.63,0,0,0,.54-.23,1,1,0,0,0,.18-.59c0-.24,0-.4,0-.48v-1.17a6.62,6.62,0,0,0,0-.76,2.07,2.07,0,0,0-.26-.68,5,5,0,0,0-.65-.9q-.42-.48-1.46-1.53a9.85,9.85,0,0,1-1.75-2.42,6.48,6.48,0,0,1-.71-3v-.75a2.64,2.64,0,0,1,1-2.36,2.2,2.2,0,0,1,2.44.18,6.78,6.78,0,0,1,2.49,2.64,7.17,7.17,0,0,1,1,3.53v.75l-2-1.18v-.75a4.09,4.09,0,0,0,0-.62,4.19,4.19,0,0,0-.35-.92,2.38,2.38,0,0,0-1-1.06.91.91,0,0,0-1-.08,1.2,1.2,0,0,0-.4,1v.75a5.37,5.37,0,0,0,0,.7,2.13,2.13,0,0,0,.23.62,3.72,3.72,0,0,0,.56.8q.37.41,1.41,1.45a10.92,10.92,0,0,1,1.84,2.48,6.38,6.38,0,0,1,.8,3.13v1.34a5.58,5.58,0,0,1-.14,1.36,2.81,2.81,0,0,1-.87,1.22q-.73.68-2.52-.35a6.31,6.31,0,0,1-2.69-3,8.44,8.44,0,0,1-.84-3.36v-.6l2,1.18Z" transform="translate(-0.27 -0.44)" style="fill:#fff"/><path d="M408.38,136.45V119.81l2,1.18v7.11L413,129.6v-7.11l2,1.18v16.64l-2-1.18v-7.44l-2.58-1.49v7.44Z" transform="translate(-0.27 -0.44)" style="fill:#fff"/><path d="M416.2,141l3-14.9,2,1.15,3.21,18.49-2.21-1.27-.58-3.92L419,139l-.58,3.25Zm3.1-4,1.94,1.12-1-6.48Z" transform="translate(-0.27 -0.44)" style="fill:#fff"/><path d="M425.44,146.3V129.66l3.6,2.08a6.57,6.57,0,0,1,2.39,2.53,6.76,6.76,0,0,1,1,3.35v1.55q0,2.29-1.68,2.55l2.17,8.89-2.17-1.25-1.95-8.26-1.29-.75v7.14Zm4.57-7.12a.87.87,0,0,0,.27-.47,3.06,3.06,0,0,0,.08-.73v-1.55A3.06,3.06,0,0,0,430,135a2.66,2.66,0,0,0-1-1.07l-1.46-.85v5.2l1.44.83A1,1,0,0,0,430,139.18Z" transform="translate(-0.27 -0.44)" style="fill:#fff"/><path d="M440.47,152.62V155l-6.14-3.54V134.8l6.14,3.54v2.19l-4.09-2.36v4.92l3.6,2.08v2.24l-3.6-2.08v4.92Z" transform="translate(-0.27 -0.44)" style="fill:#fff"/></g></g></svg>