<svg xmlns="http://www.w3.org/2000/svg" viewBox="0 0 93.17 92.88"><defs><style>.cls-1,.cls-2{fill:#00a7e1;}.cls-2{fill-rule:evenodd;}</style></defs><title>pim_icon</title><g id="Layer_2" data-name="Layer 2"><g id="Layer_1-2" data-name="Layer 1"><g id="pim_icon"><path class="cls-1" d="M72.38,28.64H21.11a2.65,2.65,0,0,0-2.64,2.64V61.47a2.65,2.65,0,0,0,2.64,2.64h17l-3.6,2.49a1.84,1.84,0,0,0,1.7,2.54h21a1.84,1.84,0,0,0,1.7-2.54l-3.6-2.49h17A2.65,2.65,0,0,0,75,61.47V31.28A2.65,2.65,0,0,0,72.38,28.64ZM71.53,56A1.58,1.58,0,0,1,70,57.61H23.54A1.58,1.58,0,0,1,22,56V33.33a1.58,1.58,0,0,1,1.57-1.57H70a1.58,1.58,0,0,1,1.57,1.57Z"/><rect class="cls-1" x="27.53" y="36.12" width="8.96" height="6.44"/><rect class="cls-1" x="42.27" y="36.12" width="8.96" height="6.44"/><rect class="cls-1" x="57" y="36.12" width="8.96" height="6.44"/><rect class="cls-1" x="27.53" y="46.7" width="8.96" height="6.44"/><rect class="cls-1" x="42.27" y="46.7" width="8.96" height="6.44"/><rect class="cls-1" x="57" y="46.7" width="8.96" height="6.44"/><path class="cls-2" d="M4.78,46.44A41.81,41.81,0,1,0,46.55,4.76,41.78,41.78,0,0,0,4.78,46.44ZM0,46.44A46.59,46.59,0,1,1,46.55,92.88,46.54,46.54,0,0,1,0,46.44Z"/></g></g></g></svg>