<svg xmlns="http://www.w3.org/2000/svg" viewBox="0 0 93.17 92.88"><defs><style>.cls-1,.cls-2{fill:#00a7e1;}.cls-1{fill-rule:evenodd;}</style></defs><title>sales_icon</title><g id="Layer_2" data-name="Layer 2"><g id="Layer_1-2" data-name="Layer 1"><g id="sales_icon"><path class="cls-1" d="M4.78,46.44A41.81,41.81,0,1,0,46.55,4.76,41.78,41.78,0,0,0,4.78,46.44ZM0,46.44A46.59,46.59,0,1,1,46.55,92.88,46.54,46.54,0,0,1,0,46.44Z"/><path class="cls-2" d="M66.75,26.54c0,1.23,0,2.45,0,3.68,0,.55-.08,1.5-.3,1.56-2.9.76-1.86,3.08-1.88,4.82q-.13,10.46,0,20.93c0,1.78-.43,2.49-2.36,2.47q-16.12-.12-32.24,0c-1.92,0-2.38-.69-2.36-2.47.08-7.35.05-14.71,0-22.06,0-1.37.65-3.14-1.71-3.49-.6-.09-.49-.93-.5-1.48,0-1.32,0-2.64,0-4ZM46,32.21c-4.25,0-8.5,0-12.74,0-1.48,0-2.24.3-2.22,2,.07,6.8.06,13.59,0,20.39,0,1.43.44,2,1.94,2q13-.07,26.05,0c1.64,0,2.09-.61,2.08-2.16-.06-6.7-.08-13.4,0-20.1,0-1.87-.79-2.18-2.38-2.15C54.49,32.26,50.24,32.21,46,32.21Z"/><path class="cls-2" d="M32.19,71.3c1.08-4.58,5.46-7.77,9.78-7.06-1.32,2.69-4.14,4.24-5.24,7.06Z"/><path class="cls-2" d="M55.42,71.3c-1.09-2.82-4-4.32-5.2-7,4.31-.77,8.07,2,9.74,7Z"/><path class="cls-2" d="M44.08,71.3c0-1.78.08-3.56,0-5.33s.61-2.07,2.14-2.07,1.91.71,1.86,2.07c-.07,1.78,0,3.56,0,5.34Z"/><path class="cls-2" d="M57.11,45.39c0,1.79,0,3.59,0,5.38,0,1.31-.43,1.88-1.8,1.85S53.7,52,53.71,50.89q.05-5.66,0-11.32c0-1.19.43-1.68,1.65-1.71,1.39,0,1.81.59,1.77,1.87C57.07,41.62,57.11,43.51,57.11,45.39Z"/><path class="cls-2" d="M48.06,47.85c0-.93,0-1.87,0-2.8,0-1.29.69-1.55,1.78-1.52s1.63.26,1.62,1.4c0,2.05,0,4.11,0,6.16,0,1.29-.71,1.51-1.79,1.52S48,52.1,48,50.93,48.06,48.87,48.06,47.85Z"/><path class="cls-2" d="M42.4,49.62c-.09-1.48-.21-2.77,2-2.73,2.62.06,1.73,1.88,1.85,3.18s.17,2.55-1.89,2.58C41.81,52.69,42.48,51,42.4,49.62Z"/><path class="cls-2" d="M38.67,52.62c-.68-.14-1.74.28-1.78-.78,0-1.32,1.15-.87,1.87-.9s1.72-.31,1.76.74C40.56,53,39.35,52.42,38.67,52.62Z"/></g></g></g></svg>