<?xml version="1.0" encoding="utf-8"?>
<!-- Generator: Adobe Illustrator 23.0.6, SVG Export Plug-In . SVG Version: 6.00 Build 0)  -->
<svg version="1.1" id="Layer_1" xmlns="http://www.w3.org/2000/svg" xmlns:xlink="http://www.w3.org/1999/xlink" x="0px" y="0px"
	 viewBox="0 0 46.5 24" style="enable-background:new 0 0 46.5 24;" xml:space="preserve">
<style type="text/css">
	.st0{fill:#AF3478;}
</style>
<g>
	<path class="st0" d="M2.1,20.2V4L0.3,4.2V3.5l2.8-0.7v17.4H2.1z"/>
	<path class="st0" d="M12.3,2.6c2.7,0,5.7,1.7,5.7,8c0,6.3-2.3,10-6.9,10c-1.4,0-2.8-0.4-3.4-0.9v-1c0.8,0.5,2.1,0.9,3.4,0.9
		c4.7,0,5.9-4.2,6-9.6c-0.6,2-2.5,3.6-5,3.6c-3.1,0-5.3-2.2-5.3-5.6C6.8,4.8,9.3,2.6,12.3,2.6z M12.3,12.8c2.4,0,4.4-1.7,4.4-4.5
		c0-2.8-1.8-4.8-4.4-4.8c-2.6,0-4.5,1.7-4.5,4.6C7.8,10.9,9.5,12.8,12.3,12.8z"/>
	<path class="st0" d="M26.1,2.6c2.7,0,5.7,1.7,5.7,8c0,6.3-2.3,10-6.9,10c-1.4,0-2.8-0.4-3.4-0.9v-1c0.8,0.5,2.1,0.9,3.4,0.9
		c4.7,0,5.9-4.2,6-9.6c-0.6,2-2.5,3.6-5,3.6c-3.1,0-5.3-2.2-5.3-5.6C20.6,4.8,23.1,2.6,26.1,2.6z M26.1,12.8c2.4,0,4.4-1.7,4.4-4.5
		c0-2.8-1.8-4.8-4.4-4.8c-2.6,0-4.5,1.7-4.5,4.6C21.6,10.9,23.3,12.8,26.1,12.8z"/>
	<path class="st0" d="M40.4,20.6c-3.1,0-5.8-1.9-5.8-5c0-2.7,1.9-4.5,4.3-4.9c-1.9-0.4-3.3-2-3.3-4c0-2.6,2.3-4.1,4.8-4.1
		s4.8,1.5,4.8,4.1c0,2-1.4,3.6-3.3,4c2.3,0.4,4.3,2.2,4.3,4.9C46.2,18.7,43.5,20.6,40.4,20.6z M40.4,11.2c-2.6,0-4.8,1.6-4.8,4.3
		c0,2.6,2.3,4.2,4.8,4.2c2.6,0,4.9-1.6,4.9-4.2C45.3,12.8,43,11.2,40.4,11.2z M40.4,3.5c-2,0-3.9,1.2-3.9,3.4c0,2.1,1.9,3.5,3.9,3.5
		c2,0,3.9-1.4,3.9-3.5C44.3,4.7,42.5,3.5,40.4,3.5z"/>
</g>
</svg>
