<?xml version="1.0" encoding="utf-8"?>
<!-- Generator: Adobe Illustrator 23.0.6, SVG Export Plug-In . SVG Version: 6.00 Build 0)  -->
<svg version="1.1" id="Layer_1" xmlns="http://www.w3.org/2000/svg" xmlns:xlink="http://www.w3.org/1999/xlink" x="0px" y="0px"
	 viewBox="0 0 39.6 30.5" style="enable-background:new 0 0 39.6 30.5;" xml:space="preserve">
<style type="text/css">
	.st0{fill:#002F58;}
	.st1{fill:#003058;}
</style>
<g>
	<path class="st0" d="M23.3,19.5c0-0.7,0-1.3,0.1-2c0-0.3,0.1-0.6,0.2-0.9c0.1-0.3,0.2-0.6,0.4-0.8l0.5-1.7h1.5L25.4,15
		c0.4-0.1,0.8-0.2,1.3-0.2l0.7-1l0-0.1c0,0,0-0.1,0-0.1l0,0c0-0.1,0-0.1,0-0.2l0,0l0,0l-2-2.8c0,0,0-0.1-0.1-0.1l0,0
		c0,0-0.1-0.1-0.1-0.1l0,0c0,0-0.1,0-0.1,0h-5.1c0,0-0.1,0-0.1,0l0,0c0,0-0.1,0-0.1,0.1l0,0c0,0-0.1,0.1-0.1,0.1l-2,2.8l-0.1,0.1
		c0,0.1,0,0.1,0,0.2c0,0.1,0,0.1,0,0.2l0,0.1l4.6,6.4c0,0,0,0,0,0l0.1,0.1c0,0,0.1,0,0.1,0.1c0,0,0.1,0,0.1,0l0-0.2l0,0.2l0.1,0l0,0
		c0,0,0.1,0,0.1,0c0,0,0.1,0,0.1-0.1l-0.1-0.1l0.1,0.1c0,0,0,0,0,0l0.1,0l0,0L23.3,19.5z M25.2,11.9l0.9,1.3h-1.3L25.2,11.9z
		 M24.4,11.3l-0.3,1.2l-0.8-1.2H24.4z M23.4,13.2h-1.9l0.9-1.5L23.4,13.2z M21.6,11.3l-0.8,1.2l-0.3-1.2H21.6z M19.7,11.9l0.4,1.3
		h-1.3L19.7,11.9z M20.9,17l-2.1-2.9h1.5l0.8,2.8l0.2,0.7L20.9,17z M22.4,18.3l-1.2-4.2h2.4L22.4,18.3z"/>
	<path class="st0" d="M13.5,13.9l0.2,0.1v-1l-0.1,0c-0.9-0.2-2.1-0.4-3.4-0.4C7.8,12.6,5,13,5,14.3v1.9v1.9V20v0.8
		c-2.4,0-5,0.5-5,1.8v1.9v1.9C0,27.6,2.8,28,5.2,28s5.2-0.5,5.2-1.8v-0.8c1.2,0,2.3-0.1,3.2-0.4l0.1,0v-1l-0.2,0.1
		c-0.6,0.2-1.6,0.4-3.1,0.4v-0.1v-0.8c1.2,0,2.3-0.1,3.2-0.4l0.1,0v-1l-0.2,0.1c-0.6,0.2-1.6,0.4-3.1,0.4v-0.1
		c0-0.3-0.1-0.5-0.4-0.8c0.1,0,0.1,0,0.2,0c1.3,0,2.5-0.1,3.4-0.4l0.1,0v-1l-0.2,0.1c-0.6,0.2-1.7,0.4-3.3,0.4
		c-2.8,0-4.1-0.6-4.2-0.8v-0.7c1,0.5,2.7,0.6,4.2,0.6c1.3,0,2.5-0.1,3.4-0.4l0.1,0v-1l-0.2,0.1c-0.6,0.2-1.7,0.4-3.3,0.4
		c-2.8,0-4.1-0.6-4.2-0.8v-0.7c1,0.5,2.7,0.6,4.2,0.6c1.3,0,2.5-0.1,3.4-0.4l0.1,0v-1l-0.2,0.1c-0.6,0.2-1.7,0.4-3.3,0.4
		c-2.8,0-4.1-0.6-4.2-0.8v-0.7c1,0.5,2.7,0.6,4.2,0.6c1.3,0,2.5-0.1,3.4-0.4l0.1,0v-1l-0.2,0.1c-0.6,0.2-1.7,0.4-3.3,0.4
		c-2.6,0-3.9-0.5-4.2-0.8c0.2-0.2,1.5-0.8,4.2-0.8C11.8,13.6,12.9,13.8,13.5,13.9z M1,25.5c1,0.5,2.7,0.6,4.2,0.6
		c1.5,0,3.2-0.2,4.2-0.6v0.7C9.3,26.4,8,27,5.2,27c-2.8,0-4.1-0.6-4.2-0.8V25.5z M5.2,24.3c1.5,0,3.2-0.2,4.2-0.6v0.7
		c-0.1,0.2-1.5,0.8-4.2,0.8c-2.8,0-4.1-0.6-4.2-0.8v-0.7C2,24.1,3.7,24.3,5.2,24.3z M5.2,23.2c-2.6,0-3.9-0.5-4.2-0.8
		c0.2-0.2,1.5-0.8,4.2-0.8c2.6,0,3.9,0.5,4.2,0.8C9.2,22.7,7.8,23.2,5.2,23.2z"/>
	<g>
		<g>
			<g>
				<path class="st1" d="M22.4,27h-5.2c-1.4,0-2.6-1.2-2.6-2.6V4.6c0-1.4,1.2-2.6,2.6-2.6h10.4c1.4,0,2.6,1.2,2.6,2.6v9.4
					c0,0.3-0.2,0.5-0.5,0.5s-0.5-0.2-0.5-0.5V4.6c0-0.9-0.7-1.6-1.6-1.6H17.2c-0.9,0-1.6,0.7-1.6,1.6v19.8c0,0.9,0.7,1.6,1.6,1.6
					h5.2c0.3,0,0.5,0.2,0.5,0.5S22.7,27,22.4,27z"/>
			</g>
			<g>
				<path class="st1" d="M29.7,7.2H15.1c-0.3,0-0.5-0.2-0.5-0.5c0-0.3,0.2-0.5,0.5-0.5h14.6c0.3,0,0.5,0.2,0.5,0.5
					C30.2,6.9,30,7.2,29.7,7.2z"/>
			</g>
			<g>
				<path class="st1" d="M22.4,22.8h-7.3c-0.3,0-0.5-0.2-0.5-0.5s0.2-0.5,0.5-0.5h7.3c0.3,0,0.5,0.2,0.5,0.5S22.7,22.8,22.4,22.8z"
					/>
			</g>
			<g>
				<path class="st1" d="M24.5,5.1h-4.2c-0.3,0-0.5-0.2-0.5-0.5s0.2-0.5,0.5-0.5h4.2c0.3,0,0.5,0.2,0.5,0.5S24.8,5.1,24.5,5.1z"/>
			</g>
			<g>
				<path class="st1" d="M22.4,25.4c-0.6,0-1-0.5-1-1c0-0.6,0.5-1,1-1c0.3,0,0.5,0.2,0.5,0.5s-0.2,0.5-0.5,0.5
					c0.3,0,0.5,0.2,0.5,0.5C22.9,25.2,22.7,25.4,22.4,25.4z"/>
			</g>
		</g>
		<g>
			<g>
				<path class="st1" d="M39.1,19.7H24.5c-0.3,0-0.5-0.2-0.5-0.5s0.2-0.5,0.5-0.5h14.6c0.3,0,0.5,0.2,0.5,0.5S39.4,19.7,39.1,19.7z"
					/>
			</g>
			<g>
				<path class="st1" d="M30.7,21.7h-4.2c-0.3,0-0.5-0.2-0.5-0.5s0.2-0.5,0.5-0.5h4.2c0.3,0,0.5,0.2,0.5,0.5S31,21.7,30.7,21.7z"/>
			</g>
			<g>
				<path class="st1" d="M37,21.7h-2.1c-0.3,0-0.5-0.2-0.5-0.5s0.2-0.5,0.5-0.5H37c0.3,0,0.5,0.2,0.5,0.5S37.3,21.7,37,21.7z"/>
			</g>
			<g>
				<path class="st1" d="M28.7,23.8h-2.1c-0.3,0-0.5-0.2-0.5-0.5s0.2-0.5,0.5-0.5h2.1c0.3,0,0.5,0.2,0.5,0.5S28.9,23.8,28.7,23.8z"
					/>
			</g>
			<g>
				<path class="st1" d="M37,27H26.6c-1.4,0-2.6-1.2-2.6-2.6v-6.2c0-1.4,1.2-2.6,2.6-2.6H37c1.4,0,2.6,1.2,2.6,2.6v6.2
					C39.6,25.8,38.4,27,37,27z M26.6,16.5c-0.9,0-1.6,0.7-1.6,1.6v6.2c0,0.9,0.7,1.6,1.6,1.6H37c0.9,0,1.6-0.7,1.6-1.6v-6.2
					c0-0.9-0.7-1.6-1.6-1.6H26.6z"/>
			</g>
		</g>
	</g>
</g>
</svg>
