<?xml version="1.0" encoding="utf-8"?>
<!-- Generator: Adobe Illustrator 23.0.6, SVG Export Plug-In . SVG Version: 6.00 Build 0)  -->
<svg version="1.1" id="Layer_1" xmlns="http://www.w3.org/2000/svg" xmlns:xlink="http://www.w3.org/1999/xlink" x="0px" y="0px"
	 viewBox="0 0 23.4 24" style="enable-background:new 0 0 23.4 24;" xml:space="preserve">
<style type="text/css">
	.st0{fill:#AF3478;}
</style>
<g>
	<path class="st0" d="M0.4,20.2v-0.7l5.5-6c1.1-1.2,3-3.3,3-6.1c0-3-2-3.8-4-3.8C3.6,3.5,2.1,4.1,0.8,5V4.1c0.8-0.7,2.6-1.5,4.1-1.5
		c2.8,0,4.9,1.6,4.9,4.7c0,3-2,5.2-3.2,6.5l-5.1,5.5h8.6v0.9H0.4z"/>
	<path class="st0" d="M17.2,20.6c-1.7,0-3.4-0.6-4.4-1.4v-1c1,0.8,2.6,1.5,4.3,1.5c2.7,0,4.7-1.7,4.7-4.7c0-2.7-1.6-4.4-4.2-4.4
		c-1.7,0-2.9,0.9-3.6,2l-0.7-0.2V3h8.7v0.9h-7.9v7.4c0.9-1.1,2.4-1.5,3.6-1.5c2.7,0,5,1.9,5,5.2C22.9,18.5,20.4,20.6,17.2,20.6z"/>
</g>
</svg>
