<?xml version="1.0" encoding="utf-8"?>
<!-- Generator: Adobe Illustrator 23.0.6, SVG Export Plug-In . SVG Version: 6.00 Build 0)  -->
<svg version="1.1"
	 id="Layer_1" xmlns:cc="http://creativecommons.org/ns#" xmlns:dc="http://purl.org/dc/elements/1.1/" xmlns:inkscape="http://www.inkscape.org/namespaces/inkscape" xmlns:rdf="http://www.w3.org/1999/02/22-rdf-syntax-ns#" xmlns:sodipodi="http://sodipodi.sourceforge.net/DTD/sodipodi-0.dtd" xmlns:svg="http://www.w3.org/2000/svg"
	 xmlns="http://www.w3.org/2000/svg" xmlns:xlink="http://www.w3.org/1999/xlink" x="0px" y="0px" viewBox="0 0 618.2 464.1"
	 style="enable-background:new 0 0 618.2 464.1;" xml:space="preserve">
<style type="text/css">
	.st0{fill:#18BDDE;}
	.st1{fill:#FFFFFF;}
</style>
<g>
	
		<sodipodi:namedview  bordercolor="#666666" borderopacity="1" gridtolerance="10" guidetolerance="10" id="namedview21" inkscape:current-layer="Layer_1" inkscape:cx="531.06511" inkscape:cy="643.92575" inkscape:pageopacity="0" inkscape:pageshadow="2" inkscape:window-height="705" inkscape:window-maximized="1" inkscape:window-width="1366" inkscape:window-x="-8" inkscape:window-y="-8" inkscape:zoom="0.35355339" objecttolerance="10" pagecolor="#ffffff" showgrid="false">
		</sodipodi:namedview>
	<path class="st0" d="M82.8,251.7c0-8.1-3.1-15.5-8.1-21l-11,11c2.4,2.6,3.7,6.3,3.7,10.2c0,8.4-6.8,15.5-15.5,15.5
		c-8.4,0-15.5-6.8-15.5-15.5v26.7c1.8,1,3.7,1.8,5.8,2.6c1.8,0.5,3.9,1,5.8,1.3c1.3,0.3,2.4,0.3,3.7,0.3
		C69.2,282.6,82.8,268.7,82.8,251.7z M36.7,225.2v-34.8H21.5v61.6C21.5,240.4,27.5,230.4,36.7,225.2z M384.8,207.4h11.8v8.4h0.3
		c2.4-5.8,8.4-9.7,14.4-9.7c0.8,0,1.8,0.3,2.6,0.5v11.5c-1-0.3-2.9-0.5-4.5-0.5c-9.2,0-12,6.5-12,14.4v20.4h-12.3v-45.1H384.8z
		 M428.5,232.8c0.3,7.9,4.2,11.3,11,11.3c5,0,8.9-3.1,9.7-5.8H460c-3.4,10.5-10.7,15.2-21,15.2c-14.1,0-23.1-9.7-23.1-23.6
		c0-13.4,9.4-23.8,23.1-23.8c15.2,0,22.8,12.8,21.7,26.7C460.8,232.8,428.5,232.8,428.5,232.8z M448.5,225.2c-1-6.3-3.9-9.7-10-9.7
		c-7.9,0-10,6-10.2,9.7H448.5z M466.8,221.3c0.8-11.5,11-14.9,21.2-14.9c8.9,0,19.6,2.1,19.6,12.8v23.3c0,4.2,0.5,8.1,1.6,10h-12.6
		c-0.5-1.3-0.8-2.9-0.8-4.5c-3.9,4.2-9.7,5.5-15.2,5.5c-8.6,0-15.2-4.2-15.2-13.4c0-10.2,7.6-12.6,15.2-13.6c7.6-1,14.7-0.8,14.7-6
		c0-5.2-3.7-6-8.1-6c-4.7,0-7.9,1.8-8.1,6.8H466.8z M495.3,230.4c-2.1,1.8-6.5,1.8-10.2,2.6c-3.9,0.8-7.3,2.1-7.3,6.5
		c0,4.7,3.7,5.8,7.6,5.8c9.7,0,10-7.6,10-10.2C495.3,235.2,495.3,230.4,495.3,230.4z M545.4,223.4c-0.8-5-3.9-7.9-9.2-7.9
		c-7.9,0-10.5,8.1-10.5,14.7s2.6,14.1,10.2,14.1c5.8,0,9.2-3.7,10-9.2h11.8c-1.6,11.8-9.7,18.3-21.7,18.3
		c-13.6,0-22.8-9.7-22.8-23.1c0-13.9,8.4-24.4,23.1-24.4c10.5,0,20.4,5.5,21.2,17C557.4,223.1,545.4,223.4,545.4,223.4z
		 M562.9,190.4h12.3v23.3h0.3c3.1-5,8.6-7.6,13.1-7.6c13.1,0,16.5,7.3,16.5,18.6v27.8h-12.3V227c0-7.3-2.1-11-7.9-11
		c-6.8,0-9.7,3.7-9.7,12.8v23.6h-12.3L562.9,190.4L562.9,190.4z M611.9,248h-1.6v4.2h-0.8V248H608v-0.5h3.9L611.9,248L611.9,248z
		 M618.2,252.2h-0.8v-3.9l-1.6,3.9h-0.5l-1.6-3.9v3.9H613v-4.7h1.3l1.3,3.7l1.3-3.7h1.3V252.2L618.2,252.2z"/>
	<path d="M58.2,166.8C25.9,166.8,0,192.7,0,224.9C0,243,8.4,259.3,21.5,270v-79.6h15.2v34.8c3.9-2.4,9.7-4.2,15.5-4.2
		c0.5,0,7.1,0,12.8,2.9c6,2.9,9.4,6.8,9.4,6.8c5,5.5,8.4,12.6,8.4,20.7c-0.3,16-10.5,25.1-19.6,28.8c-7.6,3.1-14.4,2.1-14.7,2.1
		c3.1,0.5,6.8,0.3,10,0.3c32.2,0,58.2-25.9,58.2-58.2C116.3,192.7,90.4,166.8,58.2,166.8z M131.5,190.4h12.3v22.5h0.3
		c3.1-4.7,8.6-6.8,14.1-6.8c8.9,0,18.6,7.3,18.6,23.6c0,16.5-9.7,23.8-18.6,23.8c-6.5,0-12-2.1-14.7-7.1h-0.3v6h-11.8
		C131.5,252.4,131.5,190.4,131.5,190.4z M154,215.5c-7.3,0-10.5,6.8-10.5,14.4s3.1,14.4,10.5,14.4s10.5-6.8,10.5-14.4
		S161.4,215.5,154,215.5z M183.1,190.4h12.3v62.1h-12.3V190.4z M225.3,206.3c14.1,0,23.3,9.4,23.3,23.8c0,14.1-9.2,23.6-23.3,23.6
		s-23.3-9.4-23.3-23.6C202,215.5,211.1,206.3,225.3,206.3z M225.3,244.3c8.4,0,11-7.3,11-14.4c0-7.3-2.6-14.4-11-14.4
		s-10.7,7.3-10.7,14.4C214.3,237,216.9,244.3,225.3,244.3z M277.4,206.3c14.1,0,23.3,9.4,23.3,23.8c0,14.1-9.2,23.6-23.3,23.6
		c-14.1,0-23.3-9.4-23.3-23.6C254.1,215.5,263.3,206.3,277.4,206.3z M277.4,244.3c8.4,0,11-7.3,11-14.4c0-7.3-2.6-14.4-11-14.4
		c-8.4,0-10.7,7.3-10.7,14.4C266.4,237,269,244.3,277.4,244.3z M307,207.4h11.5v6h0.3c3.1-4.7,7.9-7.3,13.6-7.3
		c5.8,0,10.7,2.1,13.1,7.6c2.6-3.9,7.3-7.6,13.6-7.6c9.7,0,16.5,4.5,16.5,16v30.4h-12.3V227c0-6-0.5-11-7.6-11s-8.4,5.8-8.4,11.3
		v25.1h-12v-25.1c0-5.2,0.3-11.3-7.6-11.3c-2.4,0-8.4,1.6-8.4,10.2v26.2H307C307,252.4,307,207.4,307,207.4z"/>
	<circle class="st1" cx="52.1" cy="251.9" r="15.5"/>
</g>
</svg>
