<?xml version="1.0" encoding="utf-8"?>
<!-- Generator: Adobe Illustrator 23.0.6, SVG Export Plug-In . SVG Version: 6.00 Build 0)  -->
<svg version="1.1"
	 id="Layer_1" xmlns:cc="http://creativecommons.org/ns#" xmlns:dc="http://purl.org/dc/elements/1.1/" xmlns:inkscape="http://www.inkscape.org/namespaces/inkscape" xmlns:rdf="http://www.w3.org/1999/02/22-rdf-syntax-ns#" xmlns:sodipodi="http://sodipodi.sourceforge.net/DTD/sodipodi-0.dtd" xmlns:svg="http://www.w3.org/2000/svg"
	 xmlns="http://www.w3.org/2000/svg" xmlns:xlink="http://www.w3.org/1999/xlink" x="0px" y="0px" viewBox="0 0 618.2 464.1"
	 style="enable-background:new 0 0 618.2 464.1;" xml:space="preserve">
<style type="text/css">
	.st0{fill:#29AAE1;}
</style>
<sodipodi:namedview  bordercolor="#666666" borderopacity="1" gridtolerance="10" guidetolerance="10" id="namedview21" inkscape:current-layer="Layer_1" inkscape:cx="531.06511" inkscape:cy="643.92575" inkscape:pageopacity="0" inkscape:pageshadow="2" inkscape:window-height="705" inkscape:window-maximized="1" inkscape:window-width="1366" inkscape:window-x="-8" inkscape:window-y="-8" inkscape:zoom="0.35355339" objecttolerance="10" pagecolor="#ffffff" showgrid="false">
	</sodipodi:namedview>
<g>
	<path class="st0" d="M390.7,290.8c-26.2,0-45.2-21.1-45.2-50.3v-47.8h19.1v47.8c0,19.8,10.1,32,26.2,32s26.2-12.3,26.2-32
		l-0.1-47.9h19.2v47.9C436.3,269.6,417.1,290.8,390.7,290.8 M454,192.6h19.1V288H454V192.6z M196.8,273.6
		c-17.8,0-32.3-14.4-32.3-32.3s14.4-32.3,32.3-32.3c8.4,0,16.1,3.3,21.9,8.6c2.3-5.9,5.3-11.3,9.1-16.3c-8.6-6.7-19.3-10.6-31-10.6
		c-28,0-50.6,22.7-50.6,50.6c0,28,22.7,50.6,50.6,50.6c11.7,0,22.4-4,31-10.6c-3.7-4.9-6.9-10.4-9.1-16.3
		C212.9,270.3,205.2,273.6,196.8,273.6 M535.7,206.4c-8.5,0-15.6,3.3-21.4,9.7c-5.6,6.4-8.4,14.4-8.4,23.9c0,10,2.7,18.3,8.1,24.6
		c5.7,6.5,12.8,9.8,21.4,9.8c9.1,0,16.6-3.2,22.1-9.5c5.6-6.4,8.4-14.6,8.4-24.4s-2.8-18-8.4-24.4
		C552,209.6,544.6,206.4,535.7,206.4L535.7,206.4z M532,290.6c-13.1,0-24-4.8-32.6-14.2c-8.5-9.7-12.8-21.9-12.8-36.6
		c0-14.3,4.3-26.3,12.8-35.8c8.4-9.4,19.2-14.2,31.9-14.2c10.9,0,20.8,4.6,29.6,13.6l3.7,3.7v-14.6h18.8v95.2h-18.8v-13.2l-3.6,3.3
		C552,286.4,542.2,290.6,532,290.6L532,290.6z M283.2,190.7c-0.1,0-0.2,0-0.3,0c-0.9-0.1-1.2,0.4-0.8,1c0,0.1,0.1,0.2,0.2,0.3
		c1.7,3.7,6.4,13,14.4,19.3c10.3,8.1,16.6,17.8,16.6,29.9c0,15.4-12.1,32.2-31.7,32.2c-19.8,0-31.7-16.8-31.7-32.2
		c0-12.1,6.3-21.8,16.6-29.9c8.1-6.4,12.9-15.8,14.4-19.5c0.4-0.7,0.2-1.2-0.6-1.2h-0.2c-27.4,0.5-49.6,23-49.6,50.6
		c0,22.6,19.1,48.8,50,48.8s51.3-21,51.3-48.8C331.7,213.5,310.2,191.8,283.2,190.7"/>
	<path class="st0" d="M318.7,256.5l-13.1,13.8l18.6,17.6h27.7L318.7,256.5 M69.9,254.3l22.3-49.4l22.3,49.4H69.9L69.9,254.3z
		 M129.7,288h19.9L99.6,177c-1.3-2.8-4.1-4.8-7.3-4.8c-3.3,0-6,1.9-7.3,4.8L34.7,288h19.9l7.2-15.9h60.6
		C122.5,272.2,129.7,288,129.7,288z"/>
</g>
</svg>
