<?xml version="1.0" encoding="utf-8"?>
<!-- Generator: Adobe Illustrator 23.0.6, SVG Export Plug-In . SVG Version: 6.00 Build 0)  -->
<svg version="1.1"
	 id="Layer_1" xmlns:cc="http://creativecommons.org/ns#" xmlns:dc="http://purl.org/dc/elements/1.1/" xmlns:inkscape="http://www.inkscape.org/namespaces/inkscape" xmlns:rdf="http://www.w3.org/1999/02/22-rdf-syntax-ns#" xmlns:sodipodi="http://sodipodi.sourceforge.net/DTD/sodipodi-0.dtd" xmlns:svg="http://www.w3.org/2000/svg"
	 xmlns="http://www.w3.org/2000/svg" xmlns:xlink="http://www.w3.org/1999/xlink" x="0px" y="0px" viewBox="0 0 618.2 464.1"
	 style="enable-background:new 0 0 618.2 464.1;" xml:space="preserve">
<style type="text/css">
	.st0{fill:#FFFFFF;}
	.st1{fill:#E20025;}
</style>
<sodipodi:namedview  bordercolor="#666666" borderopacity="1" gridtolerance="10" guidetolerance="10" id="namedview21" inkscape:current-layer="Layer_1" inkscape:cx="531.06511" inkscape:cy="643.92575" inkscape:pageopacity="0" inkscape:pageshadow="2" inkscape:window-height="705" inkscape:window-maximized="1" inkscape:window-width="1366" inkscape:window-x="-8" inkscape:window-y="-8" inkscape:zoom="0.35355339" objecttolerance="10" pagecolor="#ffffff" showgrid="false">
	</sodipodi:namedview>
<g>
	<polygon class="st0" points="35,170.2 177.1,170.2 177.1,296.1 35,296.1 	"/>
	<path class="st1" d="M124.6,170.2l52.6,125.8V170.2H124.6z M35,170.2v125.8l52.6-125.8H35z M83.1,270.8h24.5l10,25.3h21.9
		l-33.5-79.5L83.1,270.8z"/>
	<path d="M252.2,169.9l-28.5,126.2H241l7.5-34.8h26.2l7.3,34.8h17.4l-26.8-126.2C272.6,169.9,252.2,169.9,252.2,169.9z M250.5,247.2
		l6-30.1c1.7-8,3.6-19.7,4.9-28.8h0.7c1.3,9,3,20.2,4.7,28.8l5.8,30.1H250.5z M365.1,166.5h-17.6v47.4h-0.4
		c-3.2-6.9-9-10.3-16.3-10.3c-14.4,0-28.1,15.2-28.1,47.4c0,28.3,10.3,46.6,27.1,46.6c9.2,0,16.1-6.2,19.1-12.5h0.6l1.1,11h15.2
		c-0.4-6.4-0.7-16.5-0.7-23.4L365.1,166.5L365.1,166.5z M347.5,264.1c0,2.1-0.2,4.3-0.6,5.8c-3,10.9-8.2,12.9-12.2,12.9
		c-9.4,0-14.2-13.1-14.2-31.8c0-16.8,3.7-32.2,14.8-32.2c6.4,0,11,7.1,12,15.3c0.2,1.9,0.2,3.9,0.2,5.6
		C347.5,239.7,347.5,264.1,347.5,264.1z M407.9,203.6c-16.7,0-32.2,14-32.2,47.2c0,31.3,13.1,46.8,31.3,46.8h0.2
		c13.8,0,31.6-11,31.6-47.2C438.8,219.7,425.9,203.6,407.9,203.6z M407.6,283.7h-0.2c-11.4,0-14-18-14-33.1
		c0-13.7,2.2-33.1,13.8-33.1c11.2,0,13.7,19.5,13.7,33.1C420.9,264.4,418.4,283.7,407.6,283.7z M486.5,203.6
		c-8,0-14.4,3.6-19.1,11.8H467v-48.8h-17.6v106.1c0,6.9-0.4,17.2-0.7,23.4h15.2l0.9-11.4h0.7c3.9,8,9,12.9,18,12.9
		c15,0,28.3-15.9,28.3-48.5C511.7,221.2,502,203.6,486.5,203.6z M479.6,282.8c-3.6,0-9-2.2-11.8-13.3c-0.6-1.5-0.7-3.6-0.7-5.6
		v-25.5c0-1.9,0.2-4.3,0.6-6.2c1.3-6.6,6-13.5,11.8-13.5c10.5,0,14.6,14,14.6,31.4C494,268.9,490,282.8,479.6,282.8z M553.1,203.6
		c-18.9,0-32.6,18.3-32.6,48.1c0,28.1,12,45.3,34.8,45.3c8,0,16.3-1.5,21.7-4.3l-2.6-12.7c-3.9,1.9-9.4,3.4-15.7,3.4
		c-10.7,0-20.8-5.8-21-29.2l42.7,0.2c0.2-2.4,0.4-5.2,0.4-9.7C580.8,221.8,572,203.6,553.1,203.6z M537.9,241.6
		c0.6-11.4,4.7-24.7,13.8-24.7c6.9,0,12.5,8.6,12.4,24.7H537.9z M580,207.6L580,207.6c0.5-0.2,0.9-0.5,0.9-1.1
		c0-0.4-0.1-0.7-0.4-0.9c-0.3-0.2-0.7-0.3-1.4-0.3c-0.5,0-0.9,0.1-1.3,0.1v4.5h0.7v-1.9h0.5c0.6,0,0.9,0.2,1,0.8
		c0.1,0.6,0.2,1,0.3,1.2h0.7c-0.1-0.1-0.2-0.4-0.3-1.1C580.7,208,580.4,207.6,580,207.6z M579,207.3h-0.5v-1.5c0.1,0,0.3,0,0.5,0
		c0.8,0,1.1,0.4,1.1,0.8C580.1,207,579.6,207.3,579,207.3z M579.3,203.4L579.3,203.4c-2.2,0-4,1.8-4,4c0,2.3,1.8,4.1,4,4.1
		c2.2,0,4-1.8,4-4.1C583.2,205.2,581.5,203.4,579.3,203.4z M579.3,210.8c-1.8,0-3.3-1.5-3.3-3.4c0-1.9,1.5-3.4,3.2-3.4h0
		c1.8,0,3.2,1.5,3.2,3.4C582.5,209.3,581.1,210.9,579.3,210.8z M184.1,170.2L184.1,170.2c-2.2,0-4,1.8-4,4c0,2.3,1.8,4.1,4,4.1
		c2.2,0,4-1.8,4-4.1C188,172,186.3,170.2,184.1,170.2z M184.1,177.7c-1.8,0-3.3-1.5-3.3-3.4c0-1.9,1.5-3.4,3.2-3.4h0
		c1.8,0,3.2,1.5,3.2,3.4C187.3,176.2,185.9,177.7,184.1,177.7z M184.8,174.4L184.8,174.4c0.5-0.2,0.9-0.5,0.9-1.1
		c0-0.4-0.1-0.7-0.4-0.9c-0.3-0.2-0.7-0.3-1.4-0.3c-0.5,0-0.9,0.1-1.3,0.1v4.5h0.7v-1.9h0.5c0.6,0,0.9,0.2,1,0.8
		c0.1,0.6,0.2,1,0.3,1.2h0.8c-0.1-0.1-0.2-0.4-0.3-1.1C185.4,174.9,185.2,174.5,184.8,174.4z M183.8,174.1h-0.5v-1.5
		c0.1,0,0.3,0,0.5,0c0.8,0,1.1,0.4,1.1,0.8C184.9,173.9,184.4,174.1,183.8,174.1z"/>
</g>
</svg>
